<?xml version="1.0" encoding="UTF-8" standalone="no"?>
<!-- Created with Inkscape (http://www.inkscape.org/) -->

<svg
   width="35.560005mm"
   height="12.315641mm"
   viewBox="0 0 35.560005 12.315641"
   version="1.1"
   id="svg1"
   xmlns="http://www.w3.org/2000/svg"
   xmlns:svg="http://www.w3.org/2000/svg">
  <defs
     id="defs1">
    <clipPath
       clipPathUnits="userSpaceOnUse"
       id="clipPath10">
      <path
         d="M 0,858.898 H 1207.558 V 0 H 0 Z"
         transform="matrix(1.3333333,0,0,-1.3333333,-11.338587,1133.8587)"
         id="path10" />
    </clipPath>
    <clipPath
       clipPathUnits="userSpaceOnUse"
       id="clipPath8">
      <path
         d="m 155.461,650.428 h 47.572 v -34.911 h -47.572 z"
         transform="translate(-194.84231,-618.05851)"
         id="path8" />
    </clipPath>
    <clipPath
       clipPathUnits="userSpaceOnUse"
       id="clipPath3890">
      <path
         d="M 0,858.898 H 1207.558 V 0 H 0 Z"
         transform="translate(2.5000001e-7,-3.5000001e-5)"
         id="path3890" />
    </clipPath>
    <clipPath
       clipPathUnits="userSpaceOnUse"
       id="clipPath3892">
      <path
         d="M 0,858.898 H 1207.558 V 0 H 0 Z"
         transform="translate(-199.97561,-636.09532)"
         id="path3892" />
    </clipPath>
    <clipPath
       clipPathUnits="userSpaceOnUse"
       id="clipPath3894">
      <path
         d="M 0,858.898 H 1207.558 V 0 H 0 Z"
         transform="translate(-217.0818,-639.37372)"
         id="path3894" />
    </clipPath>
    <clipPath
       clipPathUnits="userSpaceOnUse"
       id="clipPath3896">
      <path
         d="M 0,858.898 H 1207.558 V 0 H 0 Z"
         transform="translate(-235.36161,-635.79211)"
         id="path3896" />
    </clipPath>
    <clipPath
       clipPathUnits="userSpaceOnUse"
       id="clipPath3898">
      <path
         d="M 0,858.898 H 1207.558 V 0 H 0 Z"
         transform="translate(-177.416,-626.91702)"
         id="path3898" />
    </clipPath>
    <clipPath
       clipPathUnits="userSpaceOnUse"
       id="clipPath3900">
      <path
         d="M 0,858.898 H 1207.558 V 0 H 0 Z"
         transform="translate(-183.11111,-628.34412)"
         id="path3900" />
    </clipPath>
    <clipPath
       clipPathUnits="userSpaceOnUse"
       id="clipPath3902">
      <path
         d="M 0,858.898 H 1207.558 V 0 H 0 Z"
         transform="translate(2.5000001e-7,-3.5000001e-5)"
         id="path3902" />
    </clipPath>
    <clipPath
       clipPathUnits="userSpaceOnUse"
       id="clipPath3904">
      <path
         d="M 0,858.898 H 1207.558 V 0 H 0 Z"
         transform="translate(-191.48381,-628.34412)"
         id="path3904" />
    </clipPath>
    <clipPath
       clipPathUnits="userSpaceOnUse"
       id="clipPath3906">
      <path
         d="M 0,858.898 H 1207.558 V 0 H 0 Z"
         transform="translate(-196.55021,-625.48992)"
         id="path3906" />
    </clipPath>
    <clipPath
       clipPathUnits="userSpaceOnUse"
       id="clipPath3908">
      <path
         d="M 0,858.898 H 1207.558 V 0 H 0 Z"
         transform="translate(-204.8163,-628.34412)"
         id="path3908" />
    </clipPath>
    <clipPath
       clipPathUnits="userSpaceOnUse"
       id="clipPath3910">
      <path
         d="M 0,858.898 H 1207.558 V 0 H 0 Z"
         transform="translate(-211.54871,-628.34412)"
         id="path3910" />
    </clipPath>
    <clipPath
       clipPathUnits="userSpaceOnUse"
       id="clipPath3912">
      <path
         d="M 0,858.898 H 1207.558 V 0 H 0 Z"
         transform="translate(-215.86101,-625.48992)"
         id="path3912" />
    </clipPath>
    <clipPath
       clipPathUnits="userSpaceOnUse"
       id="clipPath3914">
      <path
         d="M 0,858.898 H 1207.558 V 0 H 0 Z"
         transform="translate(-222.24741,-628.34412)"
         id="path3914" />
    </clipPath>
    <clipPath
       clipPathUnits="userSpaceOnUse"
       id="clipPath3916">
      <path
         d="M 0,858.898 H 1207.558 V 0 H 0 Z"
         transform="translate(-228.6972,-623.50812)"
         id="path3916" />
    </clipPath>
    <clipPath
       clipPathUnits="userSpaceOnUse"
       id="clipPath3918">
      <path
         d="M 0,858.898 H 1207.558 V 0 H 0 Z"
         transform="translate(-233.7009,-628.34412)"
         id="path3918" />
    </clipPath>
    <clipPath
       clipPathUnits="userSpaceOnUse"
       id="clipPath3920">
      <path
         d="M 0,858.898 H 1207.558 V 0 H 0 Z"
         transform="translate(-238.35861,-626.09802)"
         id="path3920" />
    </clipPath>
    <clipPath
       clipPathUnits="userSpaceOnUse"
       id="clipPath3922">
      <path
         d="M 0,858.898 H 1207.558 V 0 H 0 Z"
         transform="translate(-144.8348,-642.38641)"
         id="path3922" />
    </clipPath>
    <clipPath
       clipPathUnits="userSpaceOnUse"
       id="clipPath3924">
      <path
         d="M 0,858.898 H 1207.558 V 0 H 0 Z"
         transform="translate(-144.7461,-641.95392)"
         id="path3924" />
    </clipPath>
    <clipPath
       clipPathUnits="userSpaceOnUse"
       id="clipPath3926">
      <path
         d="M 0,858.898 H 1207.558 V 0 H 0 Z"
         transform="translate(-144.1863,-639.63451)"
         id="path3926" />
    </clipPath>
    <clipPath
       clipPathUnits="userSpaceOnUse"
       id="clipPath3928">
      <path
         d="M 0,858.898 H 1207.558 V 0 H 0 Z"
         transform="translate(-143.17151,-635.69872)"
         id="path3928" />
    </clipPath>
    <clipPath
       clipPathUnits="userSpaceOnUse"
       id="clipPath3930">
      <path
         d="M 0,858.898 H 1207.558 V 0 H 0 Z"
         transform="translate(-143.04761,-635.07622)"
         id="path3930" />
    </clipPath>
    <clipPath
       clipPathUnits="userSpaceOnUse"
       id="clipPath3932">
      <path
         d="M 0,858.898 H 1207.558 V 0 H 0 Z"
         transform="translate(-153.11741,-623.39521)"
         id="path3932" />
    </clipPath>
  </defs>
  <g
     id="layer1"
     transform="translate(-134.14376,-101.33543)">
    <g
       opacity="0.0399933"
       id="g9"
       clip-path="url(#clipPath10)"
       transform="matrix(0.26458333,0,0,0.26458333,87.728544,30.79183)">
      <path
         d="M 0,0 -5.692,9.858 -3.063,12.52 4.645,0 Z M -26.209,0 -18.814,27.505 -2.934,0 Z M -22.68,22.915 -28.841,0 H -35.91 Z M 8.002,-0.604 -1.748,15.231 c -0.205,0.332 -0.551,0.552 -0.938,0.596 -0.388,0.044 -0.774,-0.092 -1.048,-0.37 l -3.275,-3.316 -11.313,19.593 c -0.227,0.393 -0.646,0.636 -1.1,0.636 -0.454,0 -0.874,-0.243 -1.101,-0.636 L -39.211,-0.635 c -0.227,-0.393 -0.227,-0.878 0,-1.271 0.227,-0.393 0.646,-0.635 1.1,-0.635 H -0.734 6.92 c 0.46,0 0.885,0.249 1.109,0.651 0.225,0.402 0.214,0.893 -0.027,1.286"
         style="fill:#ffffff;fill-opacity:1;fill-rule:nonzero;stroke:none"
         transform="matrix(1.3333333,0,0,-1.3333333,248.45115,309.78075)"
         clip-path="url(#clipPath8)"
         id="path9" />
    </g>
    <path
       id="path3889"
       d="m 184.868,641.134 h -4.139 v -3.703 h 4.139 z m -9.863,-3.703 h 4.208 v 3.703 h -4.208 z m 8.001,4.796 c 1.38,0 2.598,0.04 3.656,0.121 -0.092,-1.011 -0.161,-1.963 -0.207,-2.853 v -1.639 c 0.046,-1.255 0.115,-2.085 0.207,-2.489 h -1.863 c 0.047,0.364 0.069,0.688 0.069,0.971 h -4.138 v -2.793 c 0.046,-1.092 0.092,-1.861 0.138,-2.307 h -1.725 c 0.046,0.324 0.069,1.093 0.069,2.307 v 2.793 h -4.207 c 0,-0.283 0.023,-0.647 0.069,-1.093 h -1.794 c 0.092,0.486 0.161,1.377 0.207,2.672 v 1.639 c -0.046,1.214 -0.115,2.145 -0.207,2.792 0.552,-0.081 1.702,-0.121 3.449,-0.121 h 2.483 c 0,1.538 -0.046,2.55 -0.138,3.035 1.334,-0.081 2.001,-0.161 2.001,-0.242 0,-0.041 -0.023,-0.101 -0.069,-0.182 -0.138,-0.244 -0.207,-0.467 -0.207,-0.669 -0.046,-0.404 -0.069,-0.728 -0.069,-0.971 v -0.971 z"
       style="fill:#221b19;fill-opacity:1;fill-rule:nonzero;stroke:none"
       transform="matrix(0.35277776,0,0,-0.35277776,84.728543,330.79194)"
       clip-path="url(#clipPath3890)" />
    <path
       id="path3891"
       d="M 0,0 C -0.414,0.648 -0.782,1.113 -1.104,1.396 L 0.138,2.003 C 0.322,1.882 0.643,1.538 1.103,0.971 1.241,0.81 1.333,0.708 1.38,0.668 Z m -0.829,6.01 c 1.381,0 2.3,0.02 2.76,0.061 V 4.917 C 1.517,4.958 0.597,4.978 -0.829,4.978 h -0.896 v -1.7 h 0.896 C -0.046,3.319 0.758,3.359 1.586,3.4 V 2.125 c -0.46,0.04 -1.241,0.061 -2.345,0.061 h -0.966 v -2.429 h 1.242 c 1.334,0 2.23,0.04 2.69,0.122 v -1.336 c -1.38,0.121 -2.277,0.182 -2.69,0.182 h -3.656 c -1.196,-0.041 -2.138,-0.081 -2.829,-0.121 v 1.275 c 0.782,-0.041 1.702,-0.082 2.76,-0.122 h 1.103 V 2.186 H -3.794 -4.691 C -5.473,2.145 -5.956,2.125 -6.14,2.125 v 1.214 c 0.414,-0.04 1.196,-0.061 2.346,-0.061 h 0.689 v 1.7 h -0.689 c -1.242,0 -2.138,-0.02 -2.691,-0.061 v 1.154 c 0.23,0 0.737,-0.02 1.518,-0.061 h 1.103 z M -7.864,-2.671 H 3.035 V 7.407 H -7.864 Z M 2.828,8.499 C 3.426,8.499 4.046,8.54 4.69,8.621 4.598,8.175 4.552,7.67 4.552,7.103 V -3.642 c 0,-0.527 0.046,-0.871 0.138,-1.033 H 2.966 c 0.046,0.203 0.069,0.526 0.069,0.972 H -7.864 c 0,-0.364 0.046,-0.668 0.138,-0.911 h -1.725 c 0.092,0.243 0.139,0.547 0.139,0.911 V 7.164 c 0,0.364 -0.047,0.849 -0.139,1.457 0.552,-0.081 1.173,-0.122 1.863,-0.122 z"
       style="fill:#221b19;fill-opacity:1;fill-rule:nonzero;stroke:none"
       transform="matrix(0.35277776,0,0,-0.35277776,155.27549,106.39167)"
       clip-path="url(#clipPath3892)" />
    <path
       id="path3893"
       d="M 0,0 C -0.092,-0.365 0.07,-0.628 0.483,-0.789 0.851,-0.87 1.38,-0.911 2.07,-0.911 2.713,-0.87 3.173,-0.789 3.45,-0.668 3.725,-0.547 3.932,-0.142 4.07,0.546 4.116,0.749 4.139,0.89 4.139,0.971 4.783,0.526 5.334,0.263 5.795,0.182 5.795,0.142 5.772,0.081 5.726,0 5.496,-1.012 5.082,-1.619 4.484,-1.821 3.978,-2.024 3.219,-2.125 2.208,-2.125 c -1.104,0 -1.955,0.081 -2.552,0.243 -0.782,0.202 -1.151,0.647 -1.104,1.335 V 0.85 C -2.368,0.485 -3.15,0.202 -3.793,0 c -0.046,0.324 -0.368,0.749 -0.966,1.275 0.827,0.121 1.908,0.384 3.242,0.789 0.046,0.648 0.046,1.316 0,2.003 0,0.729 -0.023,1.296 -0.069,1.7 1.103,0 1.724,-0.081 1.862,-0.242 L 0.207,5.403 C 0.115,5.16 0.046,4.917 0,4.674 -0.046,4.067 -0.069,3.4 -0.069,2.671 1.771,3.642 2.967,4.432 3.518,5.039 4.484,4.27 4.967,3.804 4.967,3.642 4.921,3.602 4.806,3.562 4.622,3.521 4.392,3.44 4.185,3.359 4.001,3.278 3.864,3.197 3.518,3.035 2.967,2.793 1.633,2.185 0.644,1.74 0,1.457 Z m 2.897,-3.643 c 1.472,0.041 2.507,0.081 3.105,0.122 v -1.397 c -0.23,0 -0.805,0.021 -1.725,0.061 -0.736,0.041 -1.172,0.061 -1.31,0.061 h -4.001 v -0.728 c 0,-1.012 0.046,-1.863 0.137,-2.55 H -2.69 c 0.046,0.769 0.092,1.618 0.138,2.55 v 0.728 h -3.932 c -1.15,-0.04 -2.138,-0.081 -2.966,-0.122 v 1.397 c 0.874,-0.041 1.839,-0.081 2.897,-0.122 h 4.001 c 0,0.567 -0.046,1.113 -0.138,1.639 1.195,0 1.817,-0.06 1.863,-0.182 V -2.368 C -0.919,-2.57 -0.988,-2.752 -1.034,-2.914 v -0.729 z m -8.001,3.946 c 0,-0.809 0.046,-1.659 0.138,-2.549 h -1.725 c 0.093,0.566 0.138,1.436 0.138,2.61 V 2.003 C -7.059,1.396 -7.703,0.749 -8.484,0.06 l -1.311,0.911 c 1.84,1.295 3.357,2.935 4.553,4.918 1.104,-0.446 1.679,-0.769 1.724,-0.972 0,-0.04 -0.069,-0.081 -0.207,-0.121 C -3.954,4.674 -4.138,4.553 -4.276,4.432 -4.645,4.027 -4.92,3.724 -5.104,3.521 Z"
       style="fill:#221b19;fill-opacity:1;fill-rule:nonzero;stroke:none"
       transform="matrix(0.35277776,0,0,-0.35277776,161.31018,105.23512)"
       clip-path="url(#clipPath3894)" />
    <path
       id="path3895"
       d="M 0,0 C 0.138,0.08 0.391,0.202 0.759,0.364 2.092,1.012 2.967,1.497 3.38,1.821 3.518,1.659 3.702,1.477 3.932,1.275 4.346,0.87 4.53,0.647 4.484,0.607 4.484,0.566 4.415,0.526 4.277,0.485 4.001,0.404 3.725,0.323 3.449,0.242 3.403,0.242 2.254,-0.122 0,-0.85 v -1.579 c 0,-0.323 0.391,-0.485 1.173,-0.485 1.241,0.081 1.932,0.161 2.069,0.242 0.368,0.203 0.529,0.729 0.483,1.579 0.552,-0.405 1.08,-0.688 1.587,-0.85 -0.368,-1.052 -0.828,-1.68 -1.38,-1.882 -0.138,-0.041 -0.644,-0.081 -1.518,-0.122 -0.873,-0.04 -1.655,-0.04 -2.345,0 -0.874,0.081 -1.333,0.405 -1.379,0.972 v 4.31 c 0,0.688 -0.046,1.214 -0.138,1.579 C -0.298,2.752 0.276,2.63 0.276,2.549 0.276,2.509 0.253,2.448 0.207,2.367 0.069,2.206 0,2.044 0,1.881 Z M 0,6.678 C 0.966,7.082 2.069,7.669 3.311,8.439 4.139,7.831 4.53,7.426 4.484,7.224 L 4.139,7.103 C 3.725,7.022 3.38,6.94 3.105,6.859 2.553,6.698 1.886,6.476 1.104,6.192 0.69,6.03 0.322,5.888 0,5.767 V 4.675 C 0,4.553 0.368,4.452 1.104,4.371 2.069,4.33 2.713,4.371 3.035,4.492 3.357,4.654 3.518,5.18 3.518,6.07 4.116,5.666 4.668,5.363 5.173,5.16 4.852,4.067 4.323,3.46 3.587,3.338 3.311,3.258 2.851,3.217 2.208,3.217 1.564,3.217 0.897,3.238 0.207,3.278 -0.851,3.44 -1.356,3.764 -1.31,4.249 c 0.046,2.347 0,4.027 -0.138,5.039 V 9.47 C -0.298,9.389 0.299,9.288 0.345,9.167 0.345,9.086 0.299,9.005 0.207,8.924 0.069,8.762 0,8.539 0,8.256 Z m -7.933,-7.589 h 3.725 v 1.457 h -3.725 z m 0,2.246 h 3.725 V 2.732 H -7.933 Z M -2.966,-3.4 c -0.046,-0.526 -0.896,-0.87 -2.552,-1.032 0,0.607 -0.207,1.093 -0.621,1.457 1.15,-0.121 1.794,-0.101 1.931,0.061 V -1.7 h -3.725 v -1.093 c -0.046,-0.445 0,-0.971 0.138,-1.578 H -9.45 c 0.092,0.769 0.138,1.295 0.138,1.578 v 5.464 c 0,0.445 -0.046,0.809 -0.138,1.093 0.736,-0.081 1.311,-0.122 1.725,-0.122 h 2.828 c 0.413,0 1.103,0.041 2.069,0.122 C -2.92,3.318 -2.966,2.954 -2.966,2.671 Z m -1.242,9.288 c -0.459,0.567 -0.896,0.992 -1.31,1.275 l 1.242,0.668 C -3.219,6.859 -2.414,5.909 -1.862,4.978 L -3.379,4.31 C -3.472,4.512 -3.587,4.735 -3.725,4.978 -5.794,4.856 -7.771,4.633 -9.657,4.31 l -0.552,1.396 c 0.506,0 0.943,0.243 1.311,0.729 0.69,0.809 1.31,1.801 1.862,2.975 C -5.84,9.005 -5.288,8.762 -5.38,8.681 -5.38,8.64 -5.472,8.559 -5.656,8.439 -5.84,8.317 -6.001,8.175 -6.139,8.013 -6.277,7.892 -6.553,7.568 -6.967,7.042 -7.611,6.273 -8.047,5.787 -8.277,5.585 Z"
       style="fill:#221b19;fill-opacity:1;fill-rule:nonzero;stroke:none"
       transform="matrix(0.35277776,0,0,-0.35277776,167.75888,106.49863)"
       clip-path="url(#clipPath3896)" />
    <path
       id="path3897"
       d="M 0,0 C -0.188,0.652 -0.723,0.987 -1.603,1.004 -2.819,0.951 -3.448,0.3 -3.49,-0.951 c 0,-1.339 0.64,-2.009 1.918,-2.009 0.88,0.018 1.425,0.467 1.635,1.348 h 0.754 c -0.23,-1.215 -1.079,-1.841 -2.546,-1.876 -0.818,0.017 -1.467,0.246 -1.949,0.687 -0.42,0.476 -0.629,1.083 -0.629,1.824 0,0.792 0.262,1.426 0.786,1.902 0.482,0.423 1.121,0.634 1.918,0.634 C -0.241,1.524 0.545,1.004 0.755,0 Z"
       style="fill:#221b19;fill-opacity:1;fill-rule:nonzero;stroke:none"
       transform="matrix(0.35277776,0,0,-0.35277776,147.31696,109.62957)"
       clip-path="url(#clipPath3898)" />
    <path
       id="path3899"
       d="M 0,0 H 0.786 V -4.836 H 0 V -2.59 H -3.018 V -4.836 H -3.804 V 0 h 0.786 V -1.982 H 0 Z"
       style="fill:#221b19;fill-opacity:1;fill-rule:nonzero;stroke:none"
       transform="matrix(0.35277776,0,0,-0.35277776,149.32607,109.12612)"
       clip-path="url(#clipPath3900)" />
    <path
       id="path3901"
       d="m 186.166,623.508 h -0.786 v 4.836 h 0.786 z"
       style="fill:#221b19;fill-opacity:1;fill-rule:nonzero;stroke:none"
       transform="matrix(0.35277776,0,0,-0.35277776,84.728543,330.79194)"
       clip-path="url(#clipPath3902)" />
    <path
       id="path3903"
       d="M 0,0 H 0.755 V -4.836 H -0.126 L -3.05,-0.925 H -3.082 V -4.836 H -3.836 V 0 h 0.943 L 0,-3.911 Z"
       style="fill:#221b19;fill-opacity:1;fill-rule:nonzero;stroke:none"
       transform="matrix(0.35277776,0,0,-0.35277776,152.27977,109.12612)"
       clip-path="url(#clipPath3904)" />
    <path
       id="path3905"
       d="M 0,0 -0.849,2.141 H -0.88 L -1.792,0 Z m -2.044,-0.581 -0.597,-1.401 h -0.786 l 2.169,4.836 h 0.88 L 1.698,-1.982 H 0.849 l -0.566,1.401 z"
       style="fill:#221b19;fill-opacity:1;fill-rule:nonzero;stroke:none"
       transform="matrix(0.35277776,0,0,-0.35277776,154.06709,110.13302)"
       clip-path="url(#clipPath3906)" />
    <path
       id="path3907"
       d="M 0,0 H 0.786 V -4.836 H 0 V -2.59 H -3.019 V -4.836 H -3.804 V 0 h 0.785 V -1.982 H 0 Z"
       style="fill:#221b19;fill-opacity:1;fill-rule:nonzero;stroke:none"
       transform="matrix(0.35277776,0,0,-0.35277776,156.98318,109.12612)"
       clip-path="url(#clipPath3908)" />
    <path
       id="path3909"
       d="m 0,0 v -3.118 c -0.021,-0.564 -0.241,-1.022 -0.66,-1.374 -0.377,-0.282 -0.944,-0.423 -1.698,-0.423 -0.628,0 -1.143,0.123 -1.54,0.37 -0.441,0.317 -0.661,0.757 -0.661,1.321 V 0 h 0.786 v -3.039 c 0.021,-0.881 0.503,-1.33 1.447,-1.348 1.026,0.018 1.54,0.467 1.54,1.348 V 0 Z"
       style="fill:#221b19;fill-opacity:1;fill-rule:nonzero;stroke:none"
       transform="matrix(0.35277776,0,0,-0.35277776,159.35822,109.12612)"
       clip-path="url(#clipPath3910)" />
    <path
       id="path3911"
       d="M 0,0 -0.849,2.141 H -0.881 L -1.793,0 Z m -2.044,-0.581 -0.597,-1.401 h -0.786 l 2.169,4.836 h 0.88 L 1.698,-1.982 H 0.849 l -0.566,1.401 z"
       style="fill:#221b19;fill-opacity:1;fill-rule:nonzero;stroke:none"
       transform="matrix(0.35277776,0,0,-0.35277776,160.87951,110.13302)"
       clip-path="url(#clipPath3912)" />
    <path
       id="path3913"
       d="m 0,0 h 0.755 v -4.836 h -0.881 l -2.923,3.911 H -3.081 V -4.836 H -3.836 V 0 h 0.944 L 0,-3.911 Z"
       style="fill:#221b19;fill-opacity:1;fill-rule:nonzero;stroke:none"
       transform="matrix(0.35277776,0,0,-0.35277776,163.13249,109.12612)"
       clip-path="url(#clipPath3914)" />
    <path
       id="path3915"
       d="m 0,0 h -4.244 v 4.836 h 4.181 V 4.281 H -3.458 V 2.775 h 3.144 V 2.193 H -3.458 V 0.582 H 0 Z"
       style="fill:#221b19;fill-opacity:1;fill-rule:nonzero;stroke:none"
       transform="matrix(0.35277776,0,0,-0.35277776,165.40783,110.83215)"
       clip-path="url(#clipPath3916)" />
    <path
       id="path3917"
       d="m 0,0 h 0.755 v -4.836 h -0.881 l -2.923,3.911 H -3.081 V -4.836 H -3.836 V 0 h 0.944 L 0,-3.911 Z"
       style="fill:#221b19;fill-opacity:1;fill-rule:nonzero;stroke:none"
       transform="matrix(0.35277776,0,0,-0.35277776,167.17303,109.12612)"
       clip-path="url(#clipPath3918)" />
    <path
       id="path3919"
       d="M 0,0 H 2.516 V -2.59 H 2.012 l -0.188,0.608 c -0.44,-0.441 -1.069,-0.67 -1.887,-0.687 -0.776,0 -1.373,0.167 -1.792,0.502 -0.628,0.493 -0.933,1.171 -0.912,2.035 0.147,1.603 1.058,2.439 2.736,2.51 C 1.394,2.307 2.211,1.779 2.421,0.793 H 1.667 c -0.21,0.669 -0.786,1.013 -1.73,1.03 -1.194,-0.07 -1.823,-0.731 -1.886,-1.981 0,-1.34 0.639,-2.009 1.918,-2.009 0.461,0 0.859,0.106 1.194,0.318 0.419,0.281 0.619,0.713 0.598,1.294 H 0 Z"
       style="fill:#221b19;fill-opacity:1;fill-rule:nonzero;stroke:none"
       transform="matrix(0.35277776,0,0,-0.35277776,168.81616,109.91849)"
       clip-path="url(#clipPath3920)" />
    <path
       id="path3921"
       d="M 0,0 8.103,-3.081 9.694,2.876 H 0.644 Z"
       style="fill:#3c60b5;fill-opacity:1;fill-rule:nonzero;stroke:none"
       transform="matrix(0.35277776,0,0,-0.35277776,135.82304,104.17231)"
       clip-path="url(#clipPath3922)" />
    <path
       id="path3923"
       d="m 0,0 -0.414,-1.74 11.497,-4.35 0.26,0.854 z"
       style="fill:#3c60b5;fill-opacity:1;fill-rule:nonzero;stroke:none"
       transform="matrix(0.35277776,0,0,-0.35277776,135.79175,104.32488)"
       clip-path="url(#clipPath3924)" />
    <path
       id="path3925"
       d="m 0,0 -0.404,-1.647 11.531,-4.237 0.234,0.881 z"
       style="fill:#3c60b5;fill-opacity:1;fill-rule:nonzero;stroke:none"
       transform="matrix(0.35277776,0,0,-0.35277776,135.59426,105.14312)"
       clip-path="url(#clipPath3926)" />
    <path
       id="path3927"
       d="m 0,0 11.473,-4.278 0.3,1.044 -11.317,5.016 z"
       style="fill:#3c60b5;fill-opacity:1;fill-rule:nonzero;stroke:none"
       transform="matrix(0.35277776,0,0,-0.35277776,135.23627,106.53158)"
       clip-path="url(#clipPath3928)" />
    <path
       id="path3929"
       d="M 0,0 7.873,-3.48 5.856,-11.681 H -2.973 Z"
       style="fill:#3c60b5;fill-opacity:1;fill-rule:nonzero;stroke:none"
       transform="matrix(0.35277776,0,0,-0.35277776,135.19256,106.75119)"
       clip-path="url(#clipPath3930)" />
    <path
       id="path3931"
       d="m 0,0 h 8.909 l 5.417,21.867 h -8.89 z"
       style="fill:#3c60b5;fill-opacity:1;fill-rule:nonzero;stroke:none"
       transform="matrix(0.35277776,0,0,-0.35277776,138.74496,110.87198)"
       clip-path="url(#clipPath3932)" />
  </g>
</svg>
