<?xml version="1.0" encoding="utf-8"?>
<!-- Generator: Adobe Illustrator 28.0.0, SVG Export Plug-In . SVG Version: 6.00 Build 0)  -->
<svg version="1.1" id="图层_1" xmlns="http://www.w3.org/2000/svg" xmlns:xlink="http://www.w3.org/1999/xlink" x="0px" y="0px"
	 viewBox="0 0 907.1 340.2" style="enable-background:new 0 0 907.1 340.2;" xml:space="preserve">
<style type="text/css">
	.st0{fill:#AADB1E;}
	.st1{fill-rule:evenodd;clip-rule:evenodd;fill:#383841;}
</style>
<rect x="28.3" y="28.3" class="st0" width="850.4" height="283.5"/>
<g>
	<path class="st1" d="M681.6,146.9c-0.6-3.2-2.6-6.1-6-8.7c-3.3-2.7-7.8-4.7-13.3-6c-5.5-1.4-11.7-2-18.6-2
		c-7.3,0-13.7,0.7-19.2,2.1c-5.5,1.4-9.8,3.5-13,6.1c-3.3,2.6-5.2,5.6-5.8,8.8c-0.6,3.2-0.9,8.7-0.9,16.4v13.1
		c0,7.9,0.3,13.5,1,16.6c0.6,3.2,2.6,6.1,6,8.8c3.3,2.7,7.8,4.7,13.3,6c5.5,1.3,11.7,2,18.7,2c7.2,0,13.6-0.7,19.1-2.1
		c5.4-1.4,9.8-3.4,13-6.1c3.2-2.7,5.2-5.6,5.7-8.8c0.6-3.2,0.9-8.6,0.9-16.4v-13.1C682.5,155.6,682.3,150.1,681.6,146.9
		 M659.7,173.5c0,4.1-0.1,7-0.4,8.7c-0.3,1.7-1,3.3-2.3,4.7c-1.3,1.4-3.1,2.5-5.3,3.3c-2.2,0.8-4.9,1.2-7.8,1.2
		c-2.8,0-5.3-0.4-7.5-1.1c-2.2-0.7-4-1.8-5.4-3.2c-1.3-1.4-2.1-3-2.4-4.6c-0.3-1.7-0.4-4.7-0.4-8.9v-7c0-4.1,0.1-7,0.3-8.7
		c0.2-1.7,1-3.3,2.4-4.7c1.3-1.5,3.1-2.5,5.3-3.3c2.2-0.7,4.8-1.1,7.7-1.1c2.8,0,5.4,0.3,7.6,1.1c2.2,0.7,4.1,1.8,5.4,3.2
		c1.3,1.4,2.1,3,2.4,4.7c0.2,1.7,0.4,4.6,0.4,8.8V173.5z"/>
	<path class="st1" d="M388.7,146.9c-0.6-3.2-2.6-6.1-5.9-8.7c-3.4-2.7-7.7-4.7-13.3-6c-5.5-1.4-11.7-2-18.5-2
		c-7.3,0-13.7,0.7-19.2,2.1c-5.5,1.4-9.8,3.5-13.1,6.1c-3.2,2.6-5,5.6-5.7,8.8c-0.6,3.2-0.9,8.7-0.9,16.4v13.1
		c0,7.9,0.3,13.5,1,16.6c0.6,3.2,2.6,6.1,5.9,8.8c3.4,2.7,7.8,4.7,13.3,6c5.5,1.3,11.7,2,18.6,2c7.3,0,13.6-0.7,19.1-2.1
		c5.5-1.4,9.8-3.4,13-6.1c3.2-2.7,5.2-5.6,5.8-8.8c0.6-3.2,0.9-8.6,0.9-16.4v-13.1C389.7,155.6,389.3,150.1,388.7,146.9
		 M366.8,173.5c0,4.1-0.1,7-0.4,8.7c-0.2,1.7-1,3.3-2.3,4.7c-1.2,1.4-3,2.5-5.2,3.3c-2.2,0.8-4.9,1.2-7.8,1.2
		c-2.8,0-5.4-0.4-7.6-1.1c-2.2-0.7-4-1.8-5.3-3.2c-1.4-1.4-2.2-3-2.5-4.6c-0.2-1.7-0.3-4.7-0.3-8.9v-7c0-4.1,0.1-7,0.3-8.7
		c0.3-1.7,1.1-3.3,2.4-4.7c1.3-1.5,3-2.5,5.3-3.3c2.2-0.7,4.7-1.1,7.7-1.1c2.8,0,5.3,0.3,7.5,1.1c2.2,0.7,4.1,1.8,5.4,3.2
		c1.4,1.4,2.2,3,2.5,4.7c0.3,1.7,0.4,4.6,0.4,8.8L366.8,173.5L366.8,173.5z"/>
	<path class="st1" d="M298.6,146.9c-0.6-3.2-2.4-6.1-5.6-8.7c-3.3-2.7-7.6-4.7-12.9-6c-5.3-1.4-11.3-2-18-2c-7,0-13.1,0.7-18.5,2.1
		c-5.3,1.4-9.5,3.5-12.5,6.1c-3.2,2.6-5,5.6-5.6,8.8c-0.6,3.2-0.9,8.7-0.9,16.4v13.1c0,7.9,0.4,13.5,0.9,16.6
		c0.5,3.2,2.6,6.1,5.7,8.8c3.2,2.7,7.5,4.7,12.8,6c5.4,1.3,11.4,2,18,2c7.1,0,13.2-0.7,18.5-2.1c5.3-1.4,9.5-3.4,12.6-6.1
		c3.1-2.7,4.9-5.6,5.5-8.8c0.6-3.2,1-8.6,1-16.4v-13.1C299.6,155.6,299.3,150.1,298.6,146.9 M277.4,173.5c0,4.1-0.1,7-0.3,8.7
		c-0.2,1.7-1,3.3-2.3,4.7c-1.3,1.4-2.9,2.5-5.1,3.3c-2.1,0.8-4.7,1.2-7.5,1.2c-2.7,0-5.1-0.4-7.3-1.1c-2.2-0.7-3.9-1.8-5.2-3.2
		c-1.3-1.4-2.1-3-2.4-4.6c-0.3-1.7-0.4-4.7-0.4-8.9v-7c0-4.1,0.1-7,0.3-8.7c0.3-1.7,1-3.3,2.3-4.7c1.3-1.5,3-2.5,5.1-3.3
		c2.2-0.7,4.7-1.1,7.5-1.1c2.7,0,5.1,0.3,7.2,1.1c2.2,0.7,4,1.8,5.2,3.2c1.3,1.4,2.1,3,2.4,4.7c0.2,1.7,0.3,4.6,0.3,8.8V173.5z"/>
	<polygon class="st1" points="695.1,207.6 716.3,207.6 716.3,166.4 743.8,207.6 765.1,207.6 765.1,132.6 743.8,132.6 743.8,174.1 
		716.2,132.6 695.1,132.6 	"/>
	<rect x="569.9" y="132.6" class="st1" width="25" height="75"/>
	<polygon class="st1" points="499.8,207.6 559.9,207.6 559.9,189.2 523.5,189.2 523.5,132.6 499.8,132.6 	"/>
	<polygon class="st1" points="399.7,207.6 418.9,207.6 418.9,150.4 433.6,207.6 450.9,207.6 465.7,149.1 465.7,207.6 484.8,207.6 
		484.8,132.6 451.6,132.6 442.4,170.2 433.1,132.6 399.7,132.6 	"/>
	<polygon class="st1" points="142,148.6 185.5,148.6 142,192 142,207.6 214.5,207.6 214.5,191.5 170.8,191.5 214.2,148.1 
		214.2,132.6 142,132.6 	"/>
</g>
</svg>
