<?xml version="1.0" encoding="utf-8"?>
<!-- Generator: Adobe Illustrator 28.0.0, SVG Export Plug-In . SVG Version: 6.00 Build 0)  -->
<svg version="1.1" id="svg1" xmlns:svg="http://www.w3.org/2000/svg"
	 xmlns="http://www.w3.org/2000/svg" xmlns:xlink="http://www.w3.org/1999/xlink" x="0px" y="0px" viewBox="0 0 39.1 39.1"
	 style="enable-background:new 0 0 39.1 39.1;" xml:space="preserve">
<style type="text/css">
	
		.st0{clip-path:url(#SVGID_00000183241196487180532840000009997175430459391417_);fill-rule:evenodd;clip-rule:evenodd;fill:#00ADEF;}
	
		.st1{clip-path:url(#SVGID_00000011719946006385546240000008936565977196389311_);fill-rule:evenodd;clip-rule:evenodd;fill:#00ADEF;}
	
		.st2{clip-path:url(#SVGID_00000070101436944808518220000004159658209839504313_);fill-rule:evenodd;clip-rule:evenodd;fill:#00ADEF;}
	
		.st3{clip-path:url(#SVGID_00000029009412925955338530000006689824371250269314_);fill-rule:evenodd;clip-rule:evenodd;fill:#00ADEF;}
	
		.st4{clip-path:url(#SVGID_00000129914579841283860590000010224415188792277644_);fill-rule:evenodd;clip-rule:evenodd;fill:#00ADEF;}
	
		.st5{clip-path:url(#SVGID_00000058554243671415027880000005409286362655201977_);fill-rule:evenodd;clip-rule:evenodd;fill:#00ADEF;}
	
		.st6{clip-path:url(#SVGID_00000167396972646169094550000009207189117694418306_);fill-rule:evenodd;clip-rule:evenodd;fill:#00ADEF;}
	
		.st7{clip-path:url(#SVGID_00000135654869920573869080000007195096896258979975_);fill-rule:evenodd;clip-rule:evenodd;fill:#00ADEF;}
	
		.st8{clip-path:url(#SVGID_00000115475931592141256150000003080553606539876494_);fill-rule:evenodd;clip-rule:evenodd;fill:#00ADEF;}
	
		.st9{clip-path:url(#SVGID_00000099627082266743554470000001873510215349642118_);fill-rule:evenodd;clip-rule:evenodd;fill:#00ADEF;}
	
		.st10{clip-path:url(#SVGID_00000063631533609179748070000008607961459807085243_);fill-rule:evenodd;clip-rule:evenodd;fill:#00ADEF;}
	
		.st11{clip-path:url(#SVGID_00000129182072689076301340000006829661116967453102_);fill-rule:evenodd;clip-rule:evenodd;fill:#00ADEF;}
	
		.st12{clip-path:url(#SVGID_00000152963231215484072810000003774458873254191805_);fill-rule:evenodd;clip-rule:evenodd;fill:#00ADEF;}
	
		.st13{clip-path:url(#SVGID_00000132782561476944571040000000915679015031546807_);fill-rule:evenodd;clip-rule:evenodd;fill:#00ADEF;}
	
		.st14{clip-path:url(#SVGID_00000044862559059879604210000008143154940888799132_);fill-rule:evenodd;clip-rule:evenodd;fill:#00ADEF;}
	
		.st15{clip-path:url(#SVGID_00000152254451855142620130000009979867476517307828_);fill-rule:evenodd;clip-rule:evenodd;fill:#00ADEF;}
	
		.st16{clip-path:url(#SVGID_00000147185836750747347610000007462658638205122454_);fill-rule:evenodd;clip-rule:evenodd;fill:#00ADEF;}
	
		.st17{clip-path:url(#SVGID_00000181074715699070148630000003092999091262056873_);fill-rule:evenodd;clip-rule:evenodd;fill:#00ADEF;}
	
		.st18{clip-path:url(#SVGID_00000085950627995663309980000012078010692739734432_);fill-rule:evenodd;clip-rule:evenodd;fill:#00ADEF;}
	
		.st19{clip-path:url(#SVGID_00000018957891014476909680000007038013596801812134_);fill-rule:evenodd;clip-rule:evenodd;fill:#00ADEF;}
	
		.st20{clip-path:url(#SVGID_00000072251931566053347500000014273919398665674141_);fill-rule:evenodd;clip-rule:evenodd;fill:#00ADEF;}
	
		.st21{clip-path:url(#SVGID_00000116935967868388486920000016839517175934515130_);fill-rule:evenodd;clip-rule:evenodd;fill:#00ADEF;}
	
		.st22{clip-path:url(#SVGID_00000120527321839712125640000003562515864457033130_);fill-rule:evenodd;clip-rule:evenodd;fill:#00ADEF;}
	
		.st23{clip-path:url(#SVGID_00000000920723502844601290000014172222979594160828_);fill-rule:evenodd;clip-rule:evenodd;fill:#00ADEF;}
	
		.st24{clip-path:url(#SVGID_00000147906891803144739700000000379780667400055435_);fill-rule:evenodd;clip-rule:evenodd;fill:#00ADEF;}
	
		.st25{clip-path:url(#SVGID_00000046330320350902928840000006011096523993963660_);fill-rule:evenodd;clip-rule:evenodd;fill:#00ADEF;}
	
		.st26{clip-path:url(#SVGID_00000029022174670081829190000003089018885995408043_);fill-rule:evenodd;clip-rule:evenodd;fill:#00ADEF;}
	
		.st27{clip-path:url(#SVGID_00000058569690034625116490000017945154748995534245_);fill-rule:evenodd;clip-rule:evenodd;fill:#00ADEF;}
	
		.st28{clip-path:url(#SVGID_00000046324027307908328660000000768764310907928208_);fill-rule:evenodd;clip-rule:evenodd;fill:#00ADEF;}
	.st29{clip-path:url(#SVGID_00000135687492446997567610000005565406999529782185_);fill:#00ADEF;}
	.st30{clip-path:url(#SVGID_00000073681180975823677330000013921024050119616187_);fill:#00ADEF;}
	.st31{clip-path:url(#SVGID_00000067920589634925753570000014411529774882498707_);fill:#00ADEF;}
	.st32{clip-path:url(#SVGID_00000116955049026951997980000016742054332728683148_);fill:#00ADEF;}
	
		.st33{clip-path:url(#SVGID_00000008860870759131997000000012269573662118056843_);fill-rule:evenodd;clip-rule:evenodd;fill:#00ADEF;}
</style>
<g id="layer1" transform="translate(-21.012677,-173.97598)">
	<g>
		<defs>
			<rect id="SVGID_1_" x="-57.4" y="-515.9" width="1207.6" height="858.9"/>
		</defs>
		<clipPath id="SVGID_00000079450661272819783500000006559212719325841844_">
			<use xlink:href="#SVGID_1_"  style="overflow:visible;"/>
		</clipPath>
		
			<path id="path3053" style="clip-path:url(#SVGID_00000079450661272819783500000006559212719325841844_);fill-rule:evenodd;clip-rule:evenodd;fill:#00ADEF;" d="
			M25.6,193.1l0.1,0l0.1,0l0.1,0l0.1,0l0.1,0l0.1,0l0.1,0l0.1,0l0.1,0l0.1,0l0.1,0l0.1,0l0.1,0l0,0l0,0l0,0.1l0,0.1l0,0.1l0,0.1
			l0,0.1l0,0.1v0.1l0,0.1l0,0.1l0,0.1l0,0.1l0,0.1l0,0.1l0,0.1l0,0.1l-0.1,0l0,0l-0.1,0l-0.1,0l-0.1,0l-0.1,0l-0.1,0l-0.1,0l-0.1,0
			l-0.1,0l-0.1,0l-0.2,0l0-0.4l0.3,0l0.2,0l0.1,0l0.1,0l0.1,0l0,0l0,0l0,0l0,0l0,0l0,0l0,0l0,0l0,0l0-0.1l0-0.1l0-0.1l0,0l0,0l0,0
			l0,0l0,0l0,0l-0.1,0l-0.1,0l-0.1,0l-0.3,0l-2.4,0.1l0-0.4L25.6,193.1z"/>
	</g>
	<g>
		<defs>
			<rect id="SVGID_00000039817026677080347190000014272813654055017361_" x="-57.4" y="-515.9" width="1207.6" height="858.9"/>
		</defs>
		<clipPath id="SVGID_00000052793341600135827000000009704988319671788973_">
			<use xlink:href="#SVGID_00000039817026677080347190000014272813654055017361_"  style="overflow:visible;"/>
		</clipPath>
		
			<path id="path3055" style="clip-path:url(#SVGID_00000052793341600135827000000009704988319671788973_);fill-rule:evenodd;clip-rule:evenodd;fill:#00ADEF;" d="
			M26.8,192.3l0,0.5l-3.6-0.3l0-0.5L26.8,192.3z"/>
	</g>
	<g>
		<defs>
			<rect id="SVGID_00000169548915205294343270000014783208594326299541_" x="-57.4" y="-515.9" width="1207.6" height="858.9"/>
		</defs>
		<clipPath id="SVGID_00000049915421726755204210000002352362310309034909_">
			<use xlink:href="#SVGID_00000169548915205294343270000014783208594326299541_"  style="overflow:visible;"/>
		</clipPath>
		
			<path id="path3057" style="clip-path:url(#SVGID_00000049915421726755204210000002352362310309034909_);fill-rule:evenodd;clip-rule:evenodd;fill:#00ADEF;" d="
			M27.3,190l-0.4,2.1l-3.6-0.7l0.1-0.4l3.2,0.6l0.3-1.7L27.3,190z"/>
	</g>
	<g>
		<defs>
			<rect id="SVGID_00000145040559101027944530000013764850167395139222_" x="-57.4" y="-515.9" width="1207.6" height="858.9"/>
		</defs>
		<clipPath id="SVGID_00000124159706314444432800000001890817151241661886_">
			<use xlink:href="#SVGID_00000145040559101027944530000013764850167395139222_"  style="overflow:visible;"/>
		</clipPath>
		
			<path id="path3059" style="clip-path:url(#SVGID_00000124159706314444432800000001890817151241661886_);fill-rule:evenodd;clip-rule:evenodd;fill:#00ADEF;" d="
			M27.4,189.3l-0.1,0.4l-3.5-0.9l0.1-0.4L27.4,189.3z"/>
	</g>
	<g>
		<defs>
			<rect id="SVGID_00000142159072912404511680000010665183087021331631_" x="-57.4" y="-515.9" width="1207.6" height="858.9"/>
		</defs>
		<clipPath id="SVGID_00000162321559236263011860000007749607948741310380_">
			<use xlink:href="#SVGID_00000142159072912404511680000010665183087021331631_"  style="overflow:visible;"/>
		</clipPath>
		
			<path id="path3061" style="clip-path:url(#SVGID_00000162321559236263011860000007749607948741310380_);fill-rule:evenodd;clip-rule:evenodd;fill:#00ADEF;" d="
			M28.4,186.9l-0.2,0.5l-2.9,0l0,0l2.4,1.1l-0.2,0.4l-3.3-1.5l0.2-0.5l2.9,0l0,0l-2.4-1.1l0.2-0.4L28.4,186.9z"/>
	</g>
	<g>
		<defs>
			<rect id="SVGID_00000160880236904524463220000000742904568149811122_" x="-57.4" y="-515.9" width="1207.6" height="858.9"/>
		</defs>
		<clipPath id="SVGID_00000060720294686281476340000010202074704876013955_">
			<use xlink:href="#SVGID_00000160880236904524463220000000742904568149811122_"  style="overflow:visible;"/>
		</clipPath>
		
			<path id="path3063" style="clip-path:url(#SVGID_00000060720294686281476340000010202074704876013955_);fill-rule:evenodd;clip-rule:evenodd;fill:#00ADEF;" d="
			M30.4,182.9L30.4,182.9l0.1,0.1l0.1,0.1l0.1,0.1l0.1,0.2l0,0.1l0,0.1l0,0.1l0,0.1v0.1l0,0.1l0,0.1l0,0.1l0,0.1l0,0.1l-0.1,0.1
			l-0.1,0.1l-0.1,0.1l-0.1,0.1l-0.1,0.1l-0.1,0.1l-0.1,0.1l-0.1,0l-0.1,0l-0.1,0l-0.1,0l-0.1,0l-0.1,0l-0.1,0h-0.1l-0.1,0l-0.1,0
			l-0.1,0l-0.1,0l-0.1-0.1l-0.1-0.1l-0.1-0.1l-0.1-0.1l-0.1-0.1l-1.8-1.8l0.3-0.3l1.9,1.8l0.1,0.1l0.1,0.1l0.1,0l0.1,0l0.1,0l0.1,0
			l0.1,0h0.1l0.1,0l0.1,0l0.1,0l0.1,0l0.1,0l0.1,0l0,0l0,0l0-0.1l0-0.1l0-0.1l0-0.1l0-0.1l0-0.1l0-0.1l0-0.1l0-0.1l0-0.1l0-0.1l0,0
			l-0.1-0.1l-0.1-0.1l-1.9-1.8l0.3-0.3L30.4,182.9z"/>
	</g>
	<g>
		<defs>
			<rect id="SVGID_00000123442861747670976010000002537839662462641826_" x="-57.4" y="-515.9" width="1207.6" height="858.9"/>
		</defs>
		<clipPath id="SVGID_00000080891551774678006160000010771503209739200440_">
			<use xlink:href="#SVGID_00000123442861747670976010000002537839662462641826_"  style="overflow:visible;"/>
		</clipPath>
		
			<path id="path3065" style="clip-path:url(#SVGID_00000080891551774678006160000010771503209739200440_);fill-rule:evenodd;clip-rule:evenodd;fill:#00ADEF;" d="
			M33.4,181.9l-0.4,0.3l-2.5-1.4l0,0l1.5,2.1l-0.4,0.3l-2.1-2.9l0.4-0.3l2.5,1.4l0,0l-1.6-2.1l0.4-0.3L33.4,181.9z"/>
	</g>
	<g>
		<defs>
			<rect id="SVGID_00000176749456525072389550000010063976393906858394_" x="-57.4" y="-515.9" width="1207.6" height="858.9"/>
		</defs>
		<clipPath id="SVGID_00000167355973796704277380000003232512697873952434_">
			<use xlink:href="#SVGID_00000176749456525072389550000010063976393906858394_"  style="overflow:visible;"/>
		</clipPath>
		
			<path id="path3067" style="clip-path:url(#SVGID_00000167355973796704277380000003232512697873952434_);fill-rule:evenodd;clip-rule:evenodd;fill:#00ADEF;" d="
			M34.2,181.4l-0.4,0.2l-1.7-3.2l0.4-0.2L34.2,181.4z"/>
	</g>
	<g>
		<defs>
			<rect id="SVGID_00000140716530155452768340000006152261346600768702_" x="-57.4" y="-515.9" width="1207.6" height="858.9"/>
		</defs>
		<clipPath id="SVGID_00000115484233833723208400000004912886354783428766_">
			<use xlink:href="#SVGID_00000140716530155452768340000006152261346600768702_"  style="overflow:visible;"/>
		</clipPath>
		
			<path id="path3069" style="clip-path:url(#SVGID_00000115484233833723208400000004912886354783428766_);fill-rule:evenodd;clip-rule:evenodd;fill:#00ADEF;" d="
			M35.4,177l0.2,3.8l-0.4,0.1l-2.2-3.1l0.4-0.2l1.6,2.4l0.1,0l-0.2-2.9L35.4,177z"/>
	</g>
	<g>
		<defs>
			<rect id="SVGID_00000054957156545923483950000006057798229861634470_" x="-57.4" y="-515.9" width="1207.6" height="858.9"/>
		</defs>
		<clipPath id="SVGID_00000003069082480979372810000012315001464997771434_">
			<use xlink:href="#SVGID_00000054957156545923483950000006057798229861634470_"  style="overflow:visible;"/>
		</clipPath>
		
			<path id="path3071" style="clip-path:url(#SVGID_00000003069082480979372810000012315001464997771434_);fill-rule:evenodd;clip-rule:evenodd;fill:#00ADEF;" d="
			M39.2,179.8l-2.1,0.4l-0.7-3.6l2-0.4l0.1,0.4l-1.6,0.3l0.2,1.1l1.4-0.3l0.1,0.4l-1.4,0.3l0.3,1.3l1.7-0.3L39.2,179.8z"/>
	</g>
	<g>
		<defs>
			<rect id="SVGID_00000075884926382079724500000014306033133590769828_" x="-57.4" y="-515.9" width="1207.6" height="858.9"/>
		</defs>
		<clipPath id="SVGID_00000104699248338443538070000009061398624268735670_">
			<use xlink:href="#SVGID_00000075884926382079724500000014306033133590769828_"  style="overflow:visible;"/>
		</clipPath>
		
			<path id="path3073" style="clip-path:url(#SVGID_00000104699248338443538070000009061398624268735670_);fill-rule:evenodd;clip-rule:evenodd;fill:#00ADEF;" d="
			M41.6,177.2L41.6,177.2l0-0.1l0-0.1l0,0l0-0.1l0-0.1l0,0l0,0l-0.1,0l-0.1,0l-0.1,0l-0.1,0l-0.1,0l-0.2,0l-0.5,0l0,1.3l0.7,0l0.1,0
			l0.1,0l0.1,0l0.1,0l0.1,0l0.1,0l0.1,0l0,0l0,0l0,0l0-0.1l0,0l0-0.1L41.6,177.2z M42.2,179.8h-0.6l-0.8-1.6l-0.6,0l0,1.6h-0.5
			l0-3.6l1.1,0l0.1,0l0.1,0l0.1,0l0.1,0l0.1,0l0.1,0l0.1,0l0.1,0l0.1,0l0.1,0l0.1,0l0,0.1l0,0.1l0,0.1l0.1,0.1l0,0.1l0,0.1l0,0.1
			l0,0.1v0.1v0.1l0,0.1l0,0.1l0,0.1l0,0.1l0,0.1l-0.1,0.1l-0.1,0.1l-0.1,0.1l-0.1,0.1l-0.1,0l-0.1,0l-0.1,0l-0.2,0.1L42.2,179.8z"/>
	</g>
	<g>
		<defs>
			<rect id="SVGID_00000153688766515291327120000015837515915718719910_" x="-57.4" y="-515.9" width="1207.6" height="858.9"/>
		</defs>
		<clipPath id="SVGID_00000120536669748924065080000005486271633058177421_">
			<use xlink:href="#SVGID_00000153688766515291327120000015837515915718719910_"  style="overflow:visible;"/>
		</clipPath>
		
			<path id="path3075" style="clip-path:url(#SVGID_00000120536669748924065080000005486271633058177421_);fill-rule:evenodd;clip-rule:evenodd;fill:#00ADEF;" d="
			M44.8,179.4L44.8,179.4l-0.1,0.2l-0.1,0.1l0,0.1l0,0.1l0,0.1l0,0.1l-0.1,0l-0.1,0l-0.1,0l-0.1,0l-0.1,0l-0.1,0l-0.1,0l-0.1,0
			l-0.1,0l-0.1,0l-0.1,0l-0.1,0l-0.1,0l-0.1,0l-0.1,0l-0.1,0l-0.2-0.1l-0.1,0l-0.1,0l-0.1-0.1l-0.1-0.1l-0.1-0.1l0-0.1l0-0.1l0-0.1
			l0-0.1l0-0.1l0-0.1v-0.1l0-0.1l0-0.2l0-0.1l0.4,0.1l0,0.1l0,0.1l0,0.1v0.1l0,0.1l0,0.1l0,0.1l0,0.1l0,0l0,0l0,0l0,0l0,0l0.1,0
			l0.1,0l0.1,0l0.1,0l0.1,0l0.1,0h0.1l0.1,0l0.1,0l0.1-0.1l0.1,0l0-0.1l0-0.1l0-0.1l0-0.1l0-0.1l0-0.1l0-0.1l0-0.1l0-0.1l0,0l0-0.1
			l0-0.1l0-0.1l-0.1-0.1l-0.1-0.1l-0.1-0.1l-0.1-0.1l-0.1-0.1l-0.2-0.1l-0.2-0.1l-0.1-0.1l-0.1-0.1l-0.1-0.1l-0.1-0.1l0-0.1l0-0.1
			l0-0.1l0-0.1l0-0.1l0-0.1v-0.1l0-0.1l0-0.1l0-0.1l0-0.1l0-0.1l0-0.1l0-0.1l0-0.1l0.1-0.1l0.1-0.1l0.1,0l0.1,0l0.1,0l0.1,0l0.1,0
			l0.1,0l0.1,0l0.1,0l0.1,0h0.1l0.1,0l0.1,0l0.1,0l0.1,0l0.1,0l0.1,0l0.1,0l0.1,0l0.1,0l0.1,0.1l0,0.1l0,0l0,0.1l0,0.1l0,0.1l0,0.1
			l0,0.1l0,0.1l0,0.1v0.1v0.1l0,0.1l0,0.1l-0.4-0.1l0-0.1l0-0.1v-0.1v-0.1l0-0.1l0-0.1l0-0.1l0,0l0-0.1l0,0l0,0l-0.1,0l-0.1,0
			l-0.1,0l-0.1,0l-0.1,0l-0.1,0l-0.1,0l-0.1,0l-0.1,0l-0.1,0l0,0l-0.1,0l0,0l0,0l0,0l0,0.1l0,0.1l0,0l0,0.1v0.1v0.1l0,0.1l0,0.1l0,0
			l0,0l0,0l0,0l0,0l0.1,0.1L44,178l0.1,0.1l0.1,0.1l0.1,0.1l0.1,0.1l0.1,0.1l0.1,0.1l0,0.1l0,0.1l0,0.1l0,0.1l0,0.1l0,0.1l0,0.1v0.1
			v0.1L44.8,179.4z"/>
	</g>
	<g>
		<defs>
			<rect id="SVGID_00000162327765165445002300000011996774520737079207_" x="-57.4" y="-515.9" width="1207.6" height="858.9"/>
		</defs>
		<clipPath id="SVGID_00000111874050830140868850000014062824789102156204_">
			<use xlink:href="#SVGID_00000162327765165445002300000011996774520737079207_"  style="overflow:visible;"/>
		</clipPath>
		
			<path id="path3077" style="clip-path:url(#SVGID_00000111874050830140868850000014062824789102156204_);fill-rule:evenodd;clip-rule:evenodd;fill:#00ADEF;" d="
			M45.2,180.7l-0.4-0.2l1.5-3.3l0.4,0.2L45.2,180.7z"/>
	</g>
	<g>
		<defs>
			<rect id="SVGID_00000035518673718945543810000013735430433663219133_" x="-57.4" y="-515.9" width="1207.6" height="858.9"/>
		</defs>
		<clipPath id="SVGID_00000123410370355918347890000010138240816916133525_">
			<use xlink:href="#SVGID_00000035518673718945543810000013735430433663219133_"  style="overflow:visible;"/>
		</clipPath>
		
			<path id="path3079" style="clip-path:url(#SVGID_00000123410370355918347890000010138240816916133525_);fill-rule:evenodd;clip-rule:evenodd;fill:#00ADEF;" d="
			M48.9,178.7l-0.7-0.4l-1.5,2.9l-0.4-0.2l1.5-2.9l-0.7-0.4l0.2-0.3l1.9,1L48.9,178.7z"/>
	</g>
	<g>
		<defs>
			<rect id="SVGID_00000158749399140395984650000009153086222215454384_" x="-57.4" y="-515.9" width="1207.6" height="858.9"/>
		</defs>
		<clipPath id="SVGID_00000065073475635013881280000001471340815237464764_">
			<use xlink:href="#SVGID_00000158749399140395984650000009153086222215454384_"  style="overflow:visible;"/>
		</clipPath>
		
			<path id="path3081" style="clip-path:url(#SVGID_00000065073475635013881280000001471340815237464764_);fill-rule:evenodd;clip-rule:evenodd;fill:#00ADEF;" d="
			M51.8,180.1l-1.9,1.1l-0.9,1.3l-0.4-0.3l0.9-1.3l0.4-2.2l0.4,0.3l-0.3,1.6l0,0l1.4-0.8L51.8,180.1z"/>
	</g>
	<g>
		<defs>
			<rect id="SVGID_00000091695713878922869250000011750671712901079219_" x="-57.4" y="-515.9" width="1207.6" height="858.9"/>
		</defs>
		<clipPath id="SVGID_00000174592036923019602110000009027621787860798643_">
			<use xlink:href="#SVGID_00000091695713878922869250000011750671712901079219_"  style="overflow:visible;"/>
		</clipPath>
		
			<path id="path3083" style="clip-path:url(#SVGID_00000174592036923019602110000009027621787860798643_);fill-rule:evenodd;clip-rule:evenodd;fill:#00ADEF;" d="
			M53.6,185.4l-0.1,0.1l-0.1,0.1l-0.1,0.1l-0.3,0.1l-0.1,0l-0.1,0l-0.1,0l-0.1,0l-0.1,0l-0.1,0l-0.1,0l-0.1,0l-0.1,0l-0.1,0l-0.1,0
			l-0.1,0l-0.1,0l-0.1,0l-0.1,0l-0.1-0.1l-0.1-0.1l-0.1-0.1l-0.1-0.1l0-0.1l0-0.1l0-0.1l-0.1-0.2l0-0.1l0-0.1l0-0.1l0-0.1l0-0.1
			l0-0.1l0-0.1l0-0.1l0-0.1l0-0.1l0-0.1l0.1-0.2l0.1-0.1l0.1-0.1l0.1-0.1l0.1-0.1l0.1-0.1l0.1-0.1l0.1-0.1l0.1-0.1l0.3-0.2l0.1,0
			l0.1,0l0.1,0l0.1,0l0.1,0l0.1,0l0.1,0l0.1,0l0.1,0l0.1,0l0.1,0l0.1,0l0.1,0l0.1,0l0.1,0l0.1,0l0.1,0.1l0.1,0.1l0.1,0.1l0.1,0.1
			l0,0.1l0,0.1l0,0.1l0,0.1l0,0.1l0,0.1l0,0.1l0,0.1l0,0.1l0,0.1l0,0.1l0,0.1l0,0.1l0,0.1l0,0.1l0,0.1l-0.1,0.1l-0.1,0.1l-0.1,0.1
			l-0.1,0.1l-0.1,0.1l-0.3-0.4l0.1-0.1l0.1-0.1l0-0.1l0-0.1l0-0.1l0-0.1l0-0.1l0-0.1l0-0.1l0-0.1l0-0.1l0-0.1l0-0.1l0-0.1l0-0.1
			l0-0.1l0,0l0,0l-0.1,0l-0.1,0l-0.1,0l-0.1,0l-0.1,0l-0.1,0l-0.1,0h-0.1l-0.1,0l-0.1,0l-0.1,0l-0.1,0l-0.1,0l-0.2,0.1l-0.2,0.1
			l-0.1,0.1l-0.1,0.1l-0.1,0.1l-0.1,0.1l-0.1,0.1l-0.2,0.3l0,0.1l0,0.1l0,0.1l0,0.1l0,0.1l0,0.1l0,0.1l0,0.2l0,0.1l0,0.1l0,0.1
			l0,0.1l0,0l0,0.1l0,0l0,0l0.1,0l0,0l0.1,0l0.1,0l0.1,0l0.1,0l0.1,0l0.1,0l0.1,0l0.1,0l0.1-0.1l0.1-0.1l0.1-0.1l0.1-0.1L53.6,185.4
			z"/>
	</g>
	<g>
		<defs>
			<rect id="SVGID_00000159447218452827841680000000986386595644151952_" x="-57.4" y="-515.9" width="1207.6" height="858.9"/>
		</defs>
		<clipPath id="SVGID_00000127007914805001050550000001293330485692777146_">
			<use xlink:href="#SVGID_00000159447218452827841680000000986386595644151952_"  style="overflow:visible;"/>
		</clipPath>
		
			<path id="path3085" style="clip-path:url(#SVGID_00000127007914805001050550000001293330485692777146_);fill-rule:evenodd;clip-rule:evenodd;fill:#00ADEF;" d="
			M53.7,188.9l-0.2-0.5l1.6-0.7l-0.6-1.3l-1.6,0.7l-0.2-0.5l3.3-1.5l0.2,0.5l-1.4,0.6l0.6,1.3l1.4-0.6l0.2,0.5L53.7,188.9z"/>
	</g>
	<g>
		<defs>
			<rect id="SVGID_00000163062465268563181610000017629705081606132359_" x="-57.4" y="-515.9" width="1207.6" height="858.9"/>
		</defs>
		<clipPath id="SVGID_00000127032432640649483820000010235948877843615126_">
			<use xlink:href="#SVGID_00000163062465268563181610000017629705081606132359_"  style="overflow:visible;"/>
		</clipPath>
		
			<path id="path3087" style="clip-path:url(#SVGID_00000127032432640649483820000010235948877843615126_);fill-rule:evenodd;clip-rule:evenodd;fill:#00ADEF;" d="
			M54,189.7l-0.1-0.4l3.4-1.2l0.1,0.4L54,189.7z"/>
	</g>
	<g>
		<defs>
			<rect id="SVGID_00000080189296933313734720000009520404349474857857_" x="-57.4" y="-515.9" width="1207.6" height="858.9"/>
		</defs>
		<clipPath id="SVGID_00000040561491508216361500000012298533955924104383_">
			<use xlink:href="#SVGID_00000080189296933313734720000009520404349474857857_"  style="overflow:visible;"/>
		</clipPath>
		
			<path id="path3089" style="clip-path:url(#SVGID_00000040561491508216361500000012298533955924104383_);fill-rule:evenodd;clip-rule:evenodd;fill:#00ADEF;" d="
			M54.6,192.3l-0.1-0.5l2.2-1.9l0,0l-2.5,0.6l-0.1-0.5l3.5-0.9l0.1,0.5l-2.2,1.9l0,0l2.5-0.6l0.1,0.5L54.6,192.3z"/>
	</g>
	<g>
		<defs>
			<rect id="SVGID_00000036942310995668779870000006653704346651782532_" x="-57.4" y="-515.9" width="1207.6" height="858.9"/>
		</defs>
		<clipPath id="SVGID_00000137815421825173101940000014336387590429735100_">
			<use xlink:href="#SVGID_00000036942310995668779870000006653704346651782532_"  style="overflow:visible;"/>
		</clipPath>
		
			<path id="path3091" style="clip-path:url(#SVGID_00000137815421825173101940000014336387590429735100_);fill-rule:evenodd;clip-rule:evenodd;fill:#00ADEF;" d="
			M56,194.4l1.3-0.4l0-0.1l-1.3-0.4L56,194.4z M54.5,195.3l0-0.5l1.1-0.3l0-1.1l-1.1-0.3l0-0.5l3.6,1.2l0,0.5L54.5,195.3z"/>
	</g>
	<g>
		<defs>
			<rect id="SVGID_00000157297672561236667870000017400502221889678523_" x="-57.4" y="-515.9" width="1207.6" height="858.9"/>
		</defs>
		<clipPath id="SVGID_00000157285120957415200710000008666866610702724497_">
			<use xlink:href="#SVGID_00000157297672561236667870000017400502221889678523_"  style="overflow:visible;"/>
		</clipPath>
		
			<path id="path3093" style="clip-path:url(#SVGID_00000157285120957415200710000008666866610702724497_);fill-rule:evenodd;clip-rule:evenodd;fill:#00ADEF;" d="
			M51.6,182.2L51.6,182.2L51.6,182.2l0,0.1l0,0l0,0l0,0l0,0l0,0l0,0l0,0l0,0l0,0l0,0l0,0l0,0h0l0,0l0,0l0,0l0,0l0,0l0,0l0,0l0,0l0,0
			l0,0l0,0l0,0l0,0l0,0l0,0l0,0l0,0l0,0l0,0l0,0l0,0l0,0l0,0l0,0l0,0l0,0l0,0l0,0l0,0h0h0h0l0,0l0,0l0,0l0,0l0,0l0,0l0,0l0,0l0,0
			l0,0l0,0L51.6,182.2L51.6,182.2L51.6,182.2z"/>
	</g>
	<g>
		<defs>
			<rect id="SVGID_00000069397684326141182140000011166364982150432390_" x="-57.4" y="-515.9" width="1207.6" height="858.9"/>
		</defs>
		<clipPath id="SVGID_00000114755135846340791600000015707947133539782027_">
			<use xlink:href="#SVGID_00000069397684326141182140000011166364982150432390_"  style="overflow:visible;"/>
		</clipPath>
		
			<path id="path3095" style="clip-path:url(#SVGID_00000114755135846340791600000015707947133539782027_);fill-rule:evenodd;clip-rule:evenodd;fill:#00ADEF;" d="
			M49.3,209l-0.1,0.1l-0.1,0.1l-0.1,0.1l0,0l0,0l0,0l0,0l0,0.1l0,0l0,0l0,0l0,0l0,0l0,0l0,0l0,0l-0.1,0l-0.1,0.1l-0.1,0l0,0l0,0l0,0
			l-0.6-0.2l-0.2-0.2l0,0l-0.1,0l-0.3-0.1l-0.1,0l0,0h0h0h0h0l0,0h0l0,0l0,0v0l0,0v0l0,0v0l0,0l0,0.1l0,0.3l0.1,0.2l0,0.1v0l0,0l0,0
			l0,0l0,0l0,0l0,0l0,0l0,0l0,0l0,0l-0.1,0l-0.1,0l-0.1,0l-0.3,0l-0.5-0.1l0,0l0,0h-0.1h-0.1l-0.1,0l0,0h0l0,0l0,0l0,0l0,0l0,0v0v0
			l0,0v0l0,0l0,0l0,0l0,0l0,0l0-0.1l0.1-0.1l0.2-0.2l0-0.1l0,0l0,0l0,0l0,0l0,0l0-0.1v-0.3l0-0.3l0,0l0,0l0,0l0,0h0l0,0l0,0h0h0h0h0
			l0,0l0,0l0,0l0,0l-0.2,0.2l0,0l0,0l0,0l0,0l0,0l0,0l0,0l0,0h0l0,0l0,0l0,0l0,0l0,0l-0.1-0.1v0l0,0l0,0l0,0l0,0l0,0l0,0l0,0
			l0.1-0.1l0.3-0.2l0.1-0.1l0,0l0,0l0,0l0,0l0,0v0l0,0l0-0.1l0-0.1l-0.2-0.4l0-0.1l0-0.3l0-0.1l0-0.1v0l0,0l0-0.1l-0.1-0.6l0-0.3v0
			l0,0v0l0,0l0,0l0,0l0,0l0,0l0,0l0,0l0,0l0,0l0,0h0l0,0h0l0,0h0l0,0l0,0l0,0l0,0l0,0l0,0l0.1,0.1l0,0.1l0,0l0.2,0.3l0,0.1l0,0.1
			l0,0.1l0,0.1l0.4,0.8l0.1,0.2l0,0l0,0l0,0l0,0h0h0l0,0l0,0l0,0h0l0,0l0,0l0.1,0l0.1-0.1l0.1-0.1l0.1-0.1l0-0.1l0,0l0,0l0,0v0v0v0
			v0l0,0v0v0l0,0l0,0l0,0l0,0l0,0l0,0l0,0l0,0l0,0v0l0,0v0v0v0v0l0,0l0,0h0v0v0l0,0l0,0l0,0l0,0l0,0l0,0l0.1,0l0.1,0l0.2,0l0.2-0.1
			l0.1,0l0.1,0l0,0l0,0l0,0l0,0l0,0l0,0h0l0,0l0,0l0,0v0l0,0v0l0,0l0,0l0,0l0,0l0,0l-0.1,0.1l-0.5,0.3l-0.1,0.1l-0.3,0.3l0,0l0,0
			l-0.1,0.1l0,0l0,0l0,0l0,0l0,0l0,0.1l0,0.1v0.1l0,0.1l0,0.1l0.1,0.2l0.1,0.2l0,0l0,0l0,0.1l0,0l0,0l0,0v0l0,0l0,0l0,0l0,0l0.1,0
			l0.2,0l0.8,0l0.2,0l0.1,0l0,0l0.1,0l0.2-0.1l0.1,0l0.1,0l0.1,0h0.1l0.1,0l0.1,0l0.1,0l0.1,0l0,0l0.1,0L49.3,209L49.3,209L49.3,209
			z"/>
	</g>
	<g>
		<defs>
			<rect id="SVGID_00000111870962191699927820000014538577926406320571_" x="-57.4" y="-515.9" width="1207.6" height="858.9"/>
		</defs>
		<clipPath id="SVGID_00000050645699189217139540000016152623498620263836_">
			<use xlink:href="#SVGID_00000111870962191699927820000014538577926406320571_"  style="overflow:visible;"/>
		</clipPath>
		
			<path id="path3097" style="clip-path:url(#SVGID_00000050645699189217139540000016152623498620263836_);fill-rule:evenodd;clip-rule:evenodd;fill:#00ADEF;" d="
			M27,205.5L27,205.5L27,205.5L27,205.5L27,205.5L27,205.5L27,205.5L27,205.5L27,205.5L27,205.5l-0.1-0.1l0-0.1l0,0l0,0l0,0l0,0l0,0
			l0,0l0,0v0v0v-0.1l0-0.3l0-0.1v0l0,0l0,0l0,0l0,0l0,0l0,0l0,0l0.1,0l0.2,0l0.1,0l0.1-0.1l0,0l0.1,0l0.1-0.1l0.1,0l0,0l0,0l0,0l0,0
			h0l0,0h0l0,0l0,0l0,0l0,0l0,0l0,0l0,0l0,0l0,0.1l0,0l0,0l0,0l0,0l0,0l0,0l0,0l0.1,0l0.2,0l0.1,0l0.1,0l0.1,0.1l0.1,0.1l0.3,0.2
			l0.1,0.1l0,0l0,0l0,0l0,0l0,0l0,0l0,0v0v0l0,0l0,0v0v0l0,0l0,0l0,0l0,0l0,0l0,0l0,0l-0.1,0l-0.2,0.1l-0.4,0.1l-0.1,0l0,0h0v0h0v0
			h0v0v0l0,0v0v0l0,0v0l0,0l0,0L29,206l0.4,0.3l0.1,0l0,0l0,0l0,0v0v0v0l0,0v0l0,0l0,0l0,0l0,0l0,0l-0.1,0l-0.1,0l-0.1,0l0,0h0l0,0
			l0,0l0,0l0,0v0l0,0l0,0.1l0,0v0l0,0v0l0,0l0,0l0,0h0l0,0l0,0h0h0h0h0l0,0h0l0,0l0,0l-0.1-0.1l0,0l-0.1,0l-0.2-0.1l-0.1,0l0,0l0,0
			l0,0l0,0l-0.1-0.1l0,0l-0.2-0.2l-0.1-0.1l0,0l0-0.1l0,0l0,0l0,0v0v0l0,0v0l0,0l0,0l0,0l0,0l0,0l0,0l0,0l0.2,0l0.1,0l0.1,0l0,0l0,0
			l0,0l0,0l0,0l0,0l0,0l0,0l0.1,0l0,0l0,0l0,0l0,0l0,0h0l0.1,0l0.2,0l0.1,0l0.1,0l0,0l0,0l0,0l0,0l0,0l0,0l0,0v0v0v0v0v0l0,0l0,0
			l0,0l0,0l0,0l0,0l-0.1,0l-0.1,0l-0.1,0l-0.1,0l-0.2,0l-0.5-0.1l0,0l-0.1,0l-0.1,0h0h0l0,0h0l0,0l0,0l0,0l0,0l-0.1,0.1l-0.4,0.4
			l-0.1,0.1l0,0l0,0l0,0l0,0h0l0,0h0h0h0l0,0h0l0,0l0,0L27,205.5L27,205.5z"/>
	</g>
	<g>
		<defs>
			<rect id="SVGID_00000123404772133843498010000011533921854430252719_" x="-57.4" y="-515.9" width="1207.6" height="858.9"/>
		</defs>
		<clipPath id="SVGID_00000114769244491804095490000013188811150589864348_">
			<use xlink:href="#SVGID_00000123404772133843498010000011533921854430252719_"  style="overflow:visible;"/>
		</clipPath>
		
			<path id="path3099" style="clip-path:url(#SVGID_00000114769244491804095490000013188811150589864348_);fill-rule:evenodd;clip-rule:evenodd;fill:#00ADEF;" d="
			M27.1,205.5L27.1,205.5L27.1,205.5L27.1,205.5z"/>
	</g>
	<g>
		<defs>
			<rect id="SVGID_00000034065600821398474240000016260448257267650731_" x="-57.4" y="-515.9" width="1207.6" height="858.9"/>
		</defs>
		<clipPath id="SVGID_00000118366415685010804440000011340782211599160999_">
			<use xlink:href="#SVGID_00000034065600821398474240000016260448257267650731_"  style="overflow:visible;"/>
		</clipPath>
		
			<path id="path3101" style="clip-path:url(#SVGID_00000118366415685010804440000011340782211599160999_);fill-rule:evenodd;clip-rule:evenodd;fill:#00ADEF;" d="
			M28.5,203.8L28.5,203.8L28.5,203.8L28.5,203.8L28.5,203.8L28.5,203.8L28.5,203.8L28.5,203.8L28.5,203.8L28.5,203.8l-0.1,0
			L28.5,203.8L28.5,203.8L28.5,203.8L28.5,203.8l-0.1-0.1v-0.1l0,0.1l0-0.1l0,0l0,0v0l0,0v0v0l0,0v0v0h0v0l0,0l0,0l0,0l0,0l0,0l0,0
			l0,0l0,0l0,0l-0.1,0.1l0,0l0,0l0-0.1l0,0v0v0l0,0l0,0l0,0l0,0l0,0l0,0l0,0l0,0l0,0l0,0h0l0.1,0h0l0,0l0,0l0,0l0,0l0,0l0.1,0.1
			l0.1,0.1l0.2,0.1l0,0l0,0l0,0l0,0l0,0l0,0l0,0l0,0h0h0l0,0h0l0,0l0,0l0,0l0,0l0,0l0,0l0-0.1l0.1-0.1l0.1-0.2l0,0l0,0l0,0v0l0,0
			l0,0l0-0.1l0,0l0-0.1l-0.1-0.1l-0.2-0.2l-0.1-0.1l0,0l0,0l0,0l0,0v0v0l0-0.1l0,0l0,0l0,0l0,0l0,0h0h0l0,0l0.1,0l0,0l0,0h0l0,0l0,0
			l0,0l0.1,0l0,0l0.1,0.1l0.2,0.3l0,0.1l0,0l0,0l0,0l0,0h0l0,0h0l0,0l0.1,0l0,0l0.1,0l0.4-0.2l0,0l0,0h0h0h0h0h0l0,0l0,0l0.1,0
			l0.2,0.2l0,0l0,0l0,0l0,0l0,0h0l0.1,0h0h0h0l0,0h0l0,0h0l0,0l0,0l0,0l0,0l0,0l0.1,0l0,0l0,0l0,0l0,0v0h0v0l0,0v0v0v0v0v0h0l0,0h0
			l0,0l0,0l0,0l0,0h0v0l0,0l0,0l0,0l0,0l0,0h0v0l0,0h0l0,0h0h0l0,0l0,0l0,0l0,0l0,0l-0.1,0.1l0,0l0,0l0,0l0,0l0,0v0l0,0v0v0l0,0v0
			l0,0l0,0l0,0l0,0l0,0l0,0l0,0l0.2,0.1l0.1,0.1l0.1,0.1l0.1,0.1l0.1,0.1l0,0l0,0h0h0l0,0l0,0l0,0.1l-0.3,0l-0.2-0.1h0l0,0h0l0,0
			l-0.1,0l0,0l0,0l0,0h0l-0.1,0l-0.2-0.1l-0.1,0l0,0h0l0,0l0,0l0,0l0,0l0,0l0,0l0,0l0,0v0l0,0v0v0v0l0,0l0,0l0,0.1l0.1,0.1l0.2,0.3
			l0,0.1l0,0l0,0l0,0l0,0v0v0l-0.1,0h-0.1l-0.3,0h0l0,0l0,0l-0.2-0.1h-0.1l0,0l-0.2,0l-0.2,0l-0.3-0.1l-0.3-0.1l-0.2,0h0h-0.1
			l-0.1,0l-0.1,0h0h0l0,0l0,0l0,0l0,0l0,0l0,0l0,0v0l0,0v0v0v0l0-0.1v0l0,0l0,0l0,0l0,0l0,0l0,0l0,0l0,0l0,0l0,0l-0.1,0l0,0l0,0l0,0
			l0,0L28.5,203.8L28.5,203.8L28.5,203.8z"/>
	</g>
	<g>
		<defs>
			<rect id="SVGID_00000101803735190865734540000008354624639542108586_" x="-57.4" y="-515.9" width="1207.6" height="858.9"/>
		</defs>
		<clipPath id="SVGID_00000092428025377740102890000009531519837601390218_">
			<use xlink:href="#SVGID_00000101803735190865734540000008354624639542108586_"  style="overflow:visible;"/>
		</clipPath>
		
			<path id="path3103" style="clip-path:url(#SVGID_00000092428025377740102890000009531519837601390218_);fill-rule:evenodd;clip-rule:evenodd;fill:#00ADEF;" d="
			M36.9,207.4L36.9,207.4l0.1,0l0.1,0l0.1,0l0.1,0l0.1-0.1l0.1-0.1l0.1-0.1l0.1-0.1l0-0.1l0-0.1l0-0.1l0,0l0,0v0l0,0l0,0l0,0l0,0
			l0,0l0,0l0,0l0,0l0,0l0,0l0,0h0l0,0l0,0h0l0,0h0l0,0l0,0l-0.1,0l-0.1,0l-0.1,0.1l-0.2,0.2l-0.1,0.2l-0.1,0.1l0,0.1L36.9,207.4
			L36.9,207.4L36.9,207.4L36.9,207.4L36.9,207.4L36.9,207.4L36.9,207.4L36.9,207.4L36.9,207.4L36.9,207.4z M35.7,209.2L35.7,209.2
			L35.7,209.2l0.1,0l0,0l0,0l0,0l0,0l0,0l0,0l0,0l0,0l0,0l0,0v0v0v0l0,0l0,0v0h0h0v0l0,0h0h0l0,0h0l0,0l0,0l0,0l0,0l0,0l0,0l-0.1,0
			l-0.1,0.1l0,0l0,0l0,0l0,0l0,0L35.7,209.2L35.7,209.2L35.7,209.2L35.7,209.2L35.7,209.2L35.7,209.2L35.7,209.2L35.7,209.2
			L35.7,209.2L35.7,209.2L35.7,209.2z M35.8,210.5L35.8,210.5L35.8,210.5l-0.1-0.1l0,0l0,0l0-0.1v0l0-0.1l0-0.1l0-0.1l0.1-0.3l0-0.1
			l0,0v0v0l0,0v0l0,0l0,0l0,0h0l0,0h0h0h0l-0.1,0l-0.1,0l-0.2,0.1l-0.1,0l-0.1,0h0l0,0l0,0h0l0,0l0,0l0,0l0,0l0,0l0,0l0,0l0,0l0,0
			l0,0l0,0v0l0-0.1l0-0.1l0-0.1l0,0l0,0v0l0,0l0,0l0,0l0.1-0.1l0,0l0,0l0.2-0.2l0.7-0.6l0.3-0.2l0,0v0l0,0h0l0,0l0,0l0,0v0l0,0v0
			l0,0l0,0l0,0l0,0h0l0,0l0,0l0,0h0l-0.1,0l-0.2,0l-0.3,0.1l-0.1,0h0l0,0l0,0h0l0,0l0,0l0,0l0,0l-0.1-0.1l-0.1-0.1l0,0l0,0l0,0l0,0
			v0v0v0l0,0v0l0,0l0,0l0.1,0h0l0,0l0,0l0,0l0.1,0h0l0,0l0.6,0l0.2,0l0,0l0,0h0l0,0l0,0l0,0l0,0l0.2-0.3l0.4-0.5l0.3-0.3l0.1-0.1
			l0,0l0.1,0l0,0l0,0l0,0h0l0,0l0,0h0l0,0l0,0l0,0l0,0l0,0l0,0l0,0.1l0.1,0.1l0,0.1l0,0l0,0.1v0.1l0,0.1l0,0.1l0,0.1l-0.1,0.1
			l-0.1,0.1l-0.1,0.1l-0.1,0.1l-0.1,0.1l-0.2,0l-0.1,0l-0.3,0l-0.1,0l0,0l0,0h0l0,0l0,0l0,0l0,0.1l-0.1,0.1l-0.2,0.6l-0.1,0.3l0,0.1
			l0,0l0,0l0,0l0,0v0l0,0l0,0l0,0l0,0l0,0l0,0l0,0h0l0.1,0l0.1,0l0,0h0h0h0l0.1,0h0l0,0h0l0,0l0,0l0.9-0.5l0,0l0,0l0,0l0,0l0,0
			l0-0.1h-0.1h0l0,0l0,0l0,0l0,0l0,0l-0.1,0.1l0,0l0,0l0,0h0h0h0h0l0,0l0,0l0,0l0,0l0,0l0,0l0,0l0,0l0,0l0,0v0v0v0l0,0l0,0l0,0l0,0
			l0,0l0,0l0,0l0,0l0,0l0,0l0.1,0l0.3,0l0.1,0l0,0l0,0l0,0l0,0l0,0l0,0l0-0.1l0.1-0.1l0.2-0.4l0.1-0.2l0.1-0.1l0,0l0.1,0l0,0l0,0
			l0,0l0,0h0h0l0,0l0.1,0l0,0l0,0l0,0l0,0l0,0l0,0l0,0l0,0l0,0v0l0,0v0l0,0l0,0.1v0l0,0v0l0,0l0,0.1l0.1,0.3l0,0.1l0,0v0l0,0v0l0,0
			l0,0l0,0l0,0l0,0l0,0l0,0l0,0l0,0l-0.1,0l-0.3,0l-0.1,0l0,0l0,0l0,0l0,0l0,0l0,0l0,0l0,0l0,0.1l-0.2,0.4l-0.1,0.1l0,0.1l0,0.1l0,0
			v0l0,0l0,0v0l0,0l0,0l0,0l0,0l0,0l0,0l0.2,0l0,0l0,0l0,0l0,0l0,0l0,0l0.1,0.1l0.1,0.3l0,0l0,0.1l0.1,0.1l0,0.1l0,0l0,0l0,0l0,0.1
			l0,0.1l0,0.1l0,0.1l0,0l0,0l0,0l0,0l0,0l0,0l0,0l0,0l0,0l0,0l0,0h0h0l0,0l0,0l0,0l-0.1,0l-0.1-0.1l-0.2-0.2l0-0.1l0,0l0,0l0-0.1
			l-0.1-0.1l0-0.1l0,0l0,0l0,0l0,0l0,0l0,0l0,0h0l0,0h0l0,0h0l0,0l0,0l0,0l0,0l0,0l0,0l0,0l0,0.1l-0.1,0.2l0,0.1l0,0l0,0l0,0l0,0
			l0,0.1l0,0.1v0l0,0l0,0.1l0,0.1l0,0l0,0v0h0v0l0,0l0,0l0,0l0,0l0,0h0h0h0h0l0,0l0,0l0,0l0,0l0,0l0,0l0,0l0,0l0,0l0,0l-0.1-0.7v0v0
			v0l0-0.1l0,0l0,0l0,0l0,0l0,0l0,0h0l0,0h0l0,0l0,0l0,0h0l0,0l-0.1,0l-0.3,0h-0.1l0,0l0,0h0l0,0l0,0h0l0,0l0,0l0,0v0l0,0l0,0l0,0v0
			l0-0.1l0.1-0.3v-0.1v0v0l0,0l0-0.1l0,0l0,0l0,0l0,0l0,0l0,0l0,0h0h0l0,0h0l0,0h0l0,0l0,0l0,0l0,0l0,0l-0.1,0.1l0,0.1l0,0l-0.2,0.7
			L35.8,210.5L35.8,210.5L35.8,210.5z"/>
	</g>
	<g>
		<defs>
			<rect id="SVGID_00000127748171244790038180000014051392611241107599_" x="-57.4" y="-515.9" width="1207.6" height="858.9"/>
		</defs>
		<clipPath id="SVGID_00000166667007818247864040000004725544943253464960_">
			<use xlink:href="#SVGID_00000127748171244790038180000014051392611241107599_"  style="overflow:visible;"/>
		</clipPath>
		
			<path id="path3105" style="clip-path:url(#SVGID_00000166667007818247864040000004725544943253464960_);fill-rule:evenodd;clip-rule:evenodd;fill:#00ADEF;" d="
			M51.3,202.7L51.3,202.7L51.3,202.7L51.3,202.7L51.3,202.7L51.3,202.7l0.1-0.2l0-0.2l0-0.2l0-0.1l0,0l0,0l0,0l0,0l0,0l0,0l0,0l0,0
			h0l0,0l0,0h0l-0.1,0l0,0l-0.1,0h0h0l0,0l0,0l0,0l0,0l0,0v0l0,0l0,0l0,0l0,0l0,0l0,0.1v0.1l0,0.1l0,0.1l0,0.1l0,0l0,0l0,0l0,0l0,0
			l0,0l0,0l0.1,0l0.2,0L51.3,202.7L51.3,202.7L51.3,202.7L51.3,202.7z M49.9,202.3L49.9,202.3L49.9,202.3L49.9,202.3L49.9,202.3
			l0.1-0.1l0,0h0h0l0,0l0,0l0.1,0l0.1,0.1l0,0l0,0l0,0h0l0,0l0,0l0,0l0,0l0,0l0,0l0,0l0,0l0,0l0,0l0,0l0,0v0v0v-0.1l0-0.1v0v0l0,0v0
			l0,0l0,0l0,0l0,0l0,0l0.1-0.1l0,0l0,0l0.5-0.8l0.5-0.1l0,0l0.1,0l0.3,0l0.1,0l0.1,0l0,0l0,0l0,0l0,0l0,0l0,0v0l0,0v0v0l0,0l0,0
			l0,0.1l-0.1,0.1l-0.1,0.1l0,0l0,0l0,0l0,0l0,0l0,0l0,0l-0.1,0l0,0l0,0l0,0l0,0l0,0l0,0l0,0v0l0,0l0,0v0l0,0.2v0l0,0l0,0l0,0.1l0,0
			l0,0.1l-0.1,0.2l0,0l0,0.1l0,0.1l0,0.2l-0.1,0.5v0.2l0,0.1l0,0.1l0,0l0,0l0,0l0,0l0,0l0,0l0,0l0,0h0h0l0,0h0h0l0,0h0h0l0,0l0,0
			l0,0l0,0l0,0l0,0l0-0.1l0-0.2l0-0.1l0.1-0.3l0.1-0.2l0-0.1l0,0l0,0l0,0l0,0l0,0l0,0l0,0l0,0l0,0l0,0l0,0h0l0,0l0,0l0,0l0,0
			l0.1,0.1l0,0l0,0l0.1,0.2l0.2,0.4l0,0.1l0,0l0.1,0.6l0,0.1l0,0l0,0l0,0h0v0h0l0,0l0,0l0,0l0,0h0.1l0.2,0l0.1,0l0,0l0,0l0,0l0,0
			l0,0l0,0l0,0l0,0l0-0.1l0.1-0.2l0-0.1l0-0.1l0,0l0,0l0,0l0.1-0.1l0.3-0.1l0,0l0,0v0l0,0v0v0v0l0,0.1v0l0,0l0,0.1v0v0v0l0,0l0,0
			l0,0l0,0.1l-0.3,0.3l-0.1,0.1l0,0l0,0.1l0,0l0,0l0,0v0v0l0,0l0,0l0,0l0,0l0,0l0.1,0.1l0.3,0.3l0.1,0.1l0,0.1l0,0l0,0l0,0l0,0v0
			v0.1l0,0l0,0l0,0l0,0l0,0l-0.4,0.5l-0.1,0.1l0,0l0,0l0,0l0,0h0l-0.1,0l-0.1,0l-0.1,0l-0.1,0l0,0h0l0,0l0,0l0,0l0,0l0,0h0v0l0,0v0
			v0l0,0v0l0,0l0,0l0,0l0.1-0.1l0.5-0.6l0.1-0.1l0-0.1l0,0l0,0l0,0l0,0v0l0,0l0,0l0,0l0,0l0,0l0,0l0,0l0,0l0,0h0l0,0h0l0,0l0,0h0
			l0,0l0,0l0,0l-0.2,0.3l-0.2,0.3l-0.1,0.1l-0.2,0.2l-0.1,0.1l0,0l0,0l0,0.1l-0.1,0.2l0,0.1l0,0l0,0l0,0l0,0l0,0l0,0l0,0l0,0l0,0h0
			l0,0l0,0l0,0l0,0l0,0l0,0l0,0l0,0v0l0,0v0v0v0l0,0l0,0l0,0l0-0.1l0.1-0.2l0.6-0.8l0.1-0.2l0-0.1l0,0l0-0.1v0v0v0v0l0,0v0l0,0v0
			l0,0h0l0,0h0l0,0h0l-0.1,0l-0.2,0l0,0h0h0h0l0,0l0,0l0,0l0,0l0,0l0,0l0,0l0-0.1l-0.1-0.3l-0.2-0.6l-0.1-0.3l-0.1-0.2l0-0.1l0,0
			l0,0l0,0l0,0l0,0h0h0h0h0l0,0l0,0l0,0l0,0l0,0l0,0l0,0l0,0l0,0.1l-0.1,0.2l0,0.2l0,0.1l0,0.1l0,0.2l0,0.2l0,0.1l0,0.1l0,0
			l-0.1,0.2l0,0.1v0l0,0l0,0l0,0l0,0l0,0l0.1,0.2l0,0l0,0l0,0l0,0v0v0v0v0h0v0l0,0v0l0,0l0,0l0,0l0,0l0,0l0,0l0,0l0,0h0l0,0l-0.1,0
			h0l-0.1,0l-0.1,0l-0.1-0.1l-0.1,0l0,0l0,0l0,0l-0.2-1v0v-0.1l0-0.2v-0.1l0,0l0,0l0,0l0,0l0,0l0,0l0,0l0,0h0l0,0h0h0l0,0l-0.1,0
			l-0.1,0l-0.2,0.1l-0.1,0l0,0l0,0h0h0h0l0,0l-0.1,0l-0.2-0.1l-0.1,0l0,0l-0.1-0.1l0,0l0,0l0-0.1l-0.1-0.3L49.9,202.3L49.9,202.3z"
			/>
	</g>
	<g>
		<defs>
			<rect id="SVGID_00000023982622108049033010000015089724585661379755_" x="-57.4" y="-515.9" width="1207.6" height="858.9"/>
		</defs>
		<clipPath id="SVGID_00000052812326295949941410000002621286658212547485_">
			<use xlink:href="#SVGID_00000023982622108049033010000015089724585661379755_"  style="overflow:visible;"/>
		</clipPath>
		
			<path id="path3107" style="clip-path:url(#SVGID_00000052812326295949941410000002621286658212547485_);fill-rule:evenodd;clip-rule:evenodd;fill:#00ADEF;" d="
			M40.6,212.1c10.3,0,18.6-8.3,18.6-18.6c0-10.3-8.3-18.6-18.6-18.6S22,183.3,22,193.5C22,203.8,30.3,212.1,40.6,212.1 M40.6,213.1
			c-10.8,0-19.6-8.8-19.6-19.6c0-10.8,8.8-19.6,19.6-19.6s19.6,8.8,19.6,19.6C60.1,204.3,51.4,213.1,40.6,213.1"/>
	</g>
	<g>
		<defs>
			<rect id="SVGID_00000025409510622428948300000017563356675937674682_" x="-57.4" y="-515.9" width="1207.6" height="858.9"/>
		</defs>
		<clipPath id="SVGID_00000113322353323322381480000002994619950775738302_">
			<use xlink:href="#SVGID_00000025409510622428948300000017563356675937674682_"  style="overflow:visible;"/>
		</clipPath>
		
			<path id="path3109" style="clip-path:url(#SVGID_00000113322353323322381480000002994619950775738302_);fill-rule:evenodd;clip-rule:evenodd;fill:#00ADEF;" d="
			M40.6,205c6.3,0,11.5-5.1,11.5-11.5c0-6.3-5.1-11.5-11.5-11.5s-11.5,5.1-11.5,11.5C29.1,199.9,34.3,205,40.6,205 M40.6,205.9
			c-6.9,0-12.4-5.6-12.4-12.4c0-6.9,5.6-12.4,12.4-12.4S53,186.7,53,193.5C53,200.4,47.4,205.9,40.6,205.9"/>
	</g>
	<g>
		<defs>
			<rect id="SVGID_00000183239214427997325440000011058358096907856774_" x="-57.4" y="-515.9" width="1207.6" height="858.9"/>
		</defs>
		<clipPath id="SVGID_00000034091459646376201930000004953455149199784639_">
			<use xlink:href="#SVGID_00000183239214427997325440000011058358096907856774_"  style="overflow:visible;"/>
		</clipPath>
		<path id="path3111" style="clip-path:url(#SVGID_00000034091459646376201930000004953455149199784639_);fill:#00ADEF;" d="
			M37.4,186.2h-1.2V186h0.5v-1.7h-0.5v-0.2c0.2,0,0.3,0,0.4-0.1c0.1,0,0.1-0.1,0.1-0.3H37v2.2h0.4V186.2z"/>
	</g>
	<g>
		<defs>
			<rect id="SVGID_00000010990728675295182330000014065488538176021151_" x="-57.4" y="-515.9" width="1207.6" height="858.9"/>
		</defs>
		<clipPath id="SVGID_00000103235633068175190990000001961655043638844094_">
			<use xlink:href="#SVGID_00000010990728675295182330000014065488538176021151_"  style="overflow:visible;"/>
		</clipPath>
		<path id="path3113" style="clip-path:url(#SVGID_00000103235633068175190990000001961655043638844094_);fill:#00ADEF;" d="
			M38.6,184.5c0-0.1,0-0.2,0.1-0.3c0-0.1,0.1-0.2,0.2-0.3c0.1-0.1,0.2-0.1,0.3-0.2c0.1,0,0.2-0.1,0.3-0.1c0.1,0,0.2,0,0.3,0.1
			c0.1,0,0.2,0.1,0.2,0.2c0.1,0.1,0.2,0.2,0.2,0.4c0,0.2,0.1,0.3,0.1,0.6c0,0.2,0,0.4-0.1,0.6c0,0.2-0.1,0.3-0.2,0.5
			c-0.1,0.1-0.2,0.2-0.3,0.3c-0.1,0.1-0.3,0.1-0.5,0.1c0,0-0.1,0-0.1,0c0,0-0.1,0-0.1,0v-0.3h0c0,0,0.1,0,0.1,0c0.1,0,0.1,0,0.2,0
			c0.2,0,0.4-0.1,0.5-0.2c0.1-0.1,0.2-0.3,0.2-0.6c-0.1,0.1-0.2,0.1-0.3,0.1c-0.1,0-0.2,0-0.3,0c-0.1,0-0.2,0-0.3,0
			c-0.1,0-0.2-0.1-0.2-0.1c-0.1-0.1-0.2-0.2-0.2-0.3C38.6,184.8,38.6,184.7,38.6,184.5 M39.8,184.7c0-0.2,0-0.3,0-0.4
			c0-0.1-0.1-0.2-0.1-0.2c0-0.1-0.1-0.1-0.1-0.1c-0.1,0-0.1,0-0.2,0c-0.1,0-0.2,0-0.3,0.2c-0.1,0.1-0.1,0.2-0.1,0.4
			c0,0.1,0,0.2,0,0.3c0,0.1,0.1,0.1,0.1,0.2c0,0,0.1,0.1,0.1,0.1c0.1,0,0.1,0,0.2,0c0.1,0,0.2,0,0.2,0c0.1,0,0.2-0.1,0.2-0.1
			C39.8,184.9,39.8,184.9,39.8,184.7L39.8,184.7z"/>
	</g>
	<g>
		<defs>
			<rect id="SVGID_00000167385352346951863150000013148075961866834578_" x="-57.4" y="-515.9" width="1207.6" height="858.9"/>
		</defs>
		<clipPath id="SVGID_00000174602893967689891960000010848035569365715592_">
			<use xlink:href="#SVGID_00000167385352346951863150000013148075961866834578_"  style="overflow:visible;"/>
		</clipPath>
		<path id="path3115" style="clip-path:url(#SVGID_00000174602893967689891960000010848035569365715592_);fill:#00ADEF;" d="
			M42.2,185.1v-1l-0.8,1H42.2z M42.8,185.4h-0.3v0.9h-0.3v-0.9h-1.1V185l1.1-1.3h0.3v1.4h0.3V185.4z"/>
	</g>
	<g>
		<defs>
			<rect id="SVGID_00000143598569663707272140000005073907693845041298_" x="-57.4" y="-515.9" width="1207.6" height="858.9"/>
		</defs>
		<clipPath id="SVGID_00000102506339141948353820000000183073746234928512_">
			<use xlink:href="#SVGID_00000143598569663707272140000005073907693845041298_"  style="overflow:visible;"/>
		</clipPath>
		<path id="path3117" style="clip-path:url(#SVGID_00000102506339141948353820000000183073746234928512_);fill:#00ADEF;" d="
			M45,185.4c0-0.1,0-0.2,0-0.3c0-0.1-0.1-0.1-0.1-0.2c0,0-0.1-0.1-0.1-0.1c-0.1,0-0.1,0-0.2,0c-0.1,0-0.2,0-0.2,0
			c-0.1,0-0.1,0.1-0.2,0.1c0,0,0,0,0,0.1v0.1c0,0.2,0,0.3,0,0.4c0,0.1,0.1,0.2,0.1,0.2c0,0.1,0.1,0.1,0.1,0.1c0,0,0.1,0,0.2,0
			c0.1,0,0.2,0,0.3-0.1C45,185.8,45,185.6,45,185.4 M45.4,185.4c0,0.1,0,0.2-0.1,0.4c0,0.1-0.1,0.2-0.2,0.3
			c-0.1,0.1-0.2,0.1-0.3,0.2c-0.1,0-0.2,0.1-0.3,0.1c-0.1,0-0.2,0-0.3-0.1c-0.1,0-0.2-0.1-0.2-0.2c-0.1-0.1-0.1-0.2-0.2-0.4
			c0-0.1-0.1-0.3-0.1-0.6s0-0.4,0.1-0.6c0-0.2,0.1-0.3,0.2-0.5c0.1-0.1,0.2-0.2,0.3-0.3c0.1-0.1,0.3-0.1,0.5-0.1c0.1,0,0.1,0,0.2,0
			c0,0,0.1,0,0.1,0v0.3h0c0,0-0.1,0-0.1,0c-0.1,0-0.1,0-0.2,0c-0.2,0-0.4,0.1-0.5,0.2c-0.1,0.1-0.2,0.3-0.2,0.6
			c0.1-0.1,0.2-0.1,0.2-0.1c0.1,0,0.2,0,0.3,0c0.1,0,0.2,0,0.3,0c0.1,0,0.2,0.1,0.2,0.1c0.1,0.1,0.2,0.2,0.2,0.3
			C45.4,185.1,45.4,185.3,45.4,185.4"/>
	</g>
	<g>
		<defs>
			<rect id="SVGID_00000182525237502985399780000018214151495741613701_" x="-57.4" y="-515.9" width="1207.6" height="858.9"/>
		</defs>
		<clipPath id="SVGID_00000103957576334563477030000015933637807354367632_">
			<use xlink:href="#SVGID_00000182525237502985399780000018214151495741613701_"  style="overflow:visible;"/>
		</clipPath>
		
			<path id="path3119" style="clip-path:url(#SVGID_00000103957576334563477030000015933637807354367632_);fill-rule:evenodd;clip-rule:evenodd;fill:#00ADEF;" d="
			M40.2,193.1c-0.9,0.7-1.7,0.8-2.7,0.9c-0.9,0-1.6-0.1-2.3-0.6v-5.9h5.1V193.1z M46.2,190.5v-3h-5.1v4.7c0.1-0.1,0.1-0.2,0.2-0.3
			c0.9-1.1,1.6-1.3,2.1-1.3c0.1,0,0.3,0,0.5,0l-2.8,3.3v0.6l3.4-3.9C45,190.6,45.6,190.5,46.2,190.5 M46.2,194.3v-2.6
			c-1.4,0.5-2.8,1.9-1.9,2.5C44.7,194.5,45.4,194.5,46.2,194.3 M47.1,195.3c1.2-0.6,2.2-1.5,2.2-2.5c0-1.2-1.1,0.2-1.5,0.5
			c-0.2,0.2-0.5,0.4-0.7,0.5v-2.4c0.5-0.1,1.5-0.5,1-0.8c-0.2-0.1-0.5-0.1-1-0.1v-4h-13v5.9c-0.1-0.1-0.1-0.1-0.1-0.2
			c-0.8-0.9-1.5-1.3-2.9-0.5l3.1,1.9v2.7c0,3.6,2.9,6.5,6.5,6.5c3.6,0,6.5-2.9,6.5-6.5V195.3z M44,196.4c0.5-0.1,1.3-0.3,2.1-0.6
			v0.5c0,3.2-2.5,5.7-5.5,5.7c-3,0-5.5-2.6-5.5-5.7v-1.9l1.2,0.7c1.1,0.6,1.9,1.1,2.7,1.3l1.2-1.4v0.6l-0.8,0.9
			c0.2,0.1,0.5,0.1,0.8,0.1v2.1h1v-2.1C41.9,196.6,42.8,196.5,44,196.4"/>
	</g>
</g>
</svg>
