<?xml version="1.0" encoding="utf-8"?>
<!-- Generator: Adobe Illustrator 28.0.0, SVG Export Plug-In . SVG Version: 6.00 Build 0)  -->
<svg version="1.1" id="svg1" xmlns:svg="http://www.w3.org/2000/svg"
	 xmlns="http://www.w3.org/2000/svg" xmlns:xlink="http://www.w3.org/1999/xlink" x="0px" y="0px" viewBox="0 0 39.1 39.1"
	 style="enable-background:new 0 0 39.1 39.1;" xml:space="preserve">
<style type="text/css">
	.st0{clip-path:url(#SVGID_00000149371853562833878460000014421427550674061457_);fill:#C8212B;}
	.st1{clip-path:url(#SVGID_00000095319837414487199220000002982140010370842248_);fill:#C8212B;}
	
		.st2{clip-path:url(#SVGID_00000094590634171504594730000012917266202748773264_);fill-rule:evenodd;clip-rule:evenodd;fill:#C8212B;}
	.st3{clip-path:url(#SVGID_00000174579108222934835370000004657588545946920848_);fill:#C8212B;}
	.st4{clip-path:url(#SVGID_00000170271001614231316200000017853195070651679112_);fill:#C8212B;}
	.st5{clip-path:url(#SVGID_00000047059058403145409280000012582841431042133399_);fill:#C8212B;}
	.st6{clip-path:url(#SVGID_00000150064070368808189770000011766491898604638084_);fill:#C8212B;}
	.st7{clip-path:url(#SVGID_00000152946727999259862340000010275281056720494002_);fill:#C8212B;}
	.st8{clip-path:url(#SVGID_00000170980536281247904300000006129860020296881843_);fill:#C8212B;}
	.st9{clip-path:url(#SVGID_00000176742775016961028830000008788089152998391734_);fill:#C8212B;}
	.st10{clip-path:url(#SVGID_00000099632620717418967560000018054100629243530378_);fill:#C8212B;}
	.st11{clip-path:url(#SVGID_00000173138422708663528590000007532585175887908269_);fill:#C8212B;}
	.st12{clip-path:url(#SVGID_00000072976103369129594190000011958288431680659637_);fill:#C8212B;}
	.st13{clip-path:url(#SVGID_00000173119253754772427620000000702102869267724716_);fill:#C8212B;}
	.st14{clip-path:url(#SVGID_00000118398095732867558120000008979466090406958006_);fill:#C8212B;}
	.st15{clip-path:url(#SVGID_00000018215057584035286010000004846525013230174359_);fill:#C8212B;}
	.st16{clip-path:url(#SVGID_00000017505786344713314190000016885527581749524379_);fill:#C8212B;}
	.st17{clip-path:url(#SVGID_00000033363318672139674810000017769196696900933291_);fill:#C8212B;}
	.st18{clip-path:url(#SVGID_00000055675233625562476310000005339981462259138232_);fill:#C8212B;}
	.st19{clip-path:url(#SVGID_00000135653997063034003310000005858485465306784695_);fill:#C8212B;}
	.st20{clip-path:url(#SVGID_00000183214303365926422670000017117480812002751159_);fill:#C8212B;}
	.st21{clip-path:url(#SVGID_00000078046422836406504730000017428507477393048216_);fill:#C8212B;}
	.st22{clip-path:url(#SVGID_00000016054591588545094560000000772809355712366222_);fill:#C8212B;}
	.st23{clip-path:url(#SVGID_00000132769291671664011650000014874692275635627432_);fill:#C8212B;}
	.st24{clip-path:url(#SVGID_00000140720434473188672560000015545360516953560715_);fill:#C8212B;}
	.st25{clip-path:url(#SVGID_00000027581500436348555110000007735077135163523505_);fill:#C8212B;}
	.st26{clip-path:url(#SVGID_00000129183673987337255490000014272680401561388434_);fill:#C8212B;}
	.st27{clip-path:url(#SVGID_00000101812687613323711370000015453626629240405183_);fill:#C8212B;}
	.st28{clip-path:url(#SVGID_00000001660422635301832400000015364069275834261649_);fill:#C8212B;}
	.st29{clip-path:url(#SVGID_00000008145359897247335300000006413271678037196706_);fill:#C8212B;}
	.st30{clip-path:url(#SVGID_00000098220518920512341910000007607471401333850804_);fill:#C8212B;}
</style>
<g id="layer1" transform="translate(-44.806198,-196.49439)">
	<g>
		<defs>
			<rect id="SVGID_1_" x="-101" y="-557.2" width="1207.6" height="858.9"/>
		</defs>
		<clipPath id="SVGID_00000118379882361636862380000014835639243720440970_">
			<use xlink:href="#SVGID_1_"  style="overflow:visible;"/>
		</clipPath>
		<path id="path3509" style="clip-path:url(#SVGID_00000118379882361636862380000014835639243720440970_);fill:#C8212B;" d="
			M83.3,216.1c0,5.2-2.1,9.9-5.5,13.4c-3.4,3.4-8.1,5.5-13.4,5.5v0l0,0l0,0v0c-5.2,0-9.9-2.1-13.4-5.5c-3.4-3.4-5.5-8.1-5.5-13.4h0
			l0,0h0c0-5.2,2.1-9.9,5.5-13.4c3.4-3.4,8.1-5.5,13.4-5.5v0l0,0l0,0v0c5.2,0,9.9,2.1,13.4,5.5C81.2,206.1,83.3,210.8,83.3,216.1
			L83.3,216.1L83.3,216.1L83.3,216.1L83.3,216.1z M83.9,216.1c0-5.4-2.2-10.3-5.7-13.8c-3.5-3.5-8.4-5.7-13.8-5.7v0l0,0l0,0v0
			c-5.4,0-10.3,2.2-13.8,5.7c-3.5,3.5-5.7,8.4-5.7,13.8h0l0,0h0c0,5.4,2.2,10.3,5.7,13.8c3.5,3.5,8.4,5.7,13.8,5.7v0l0,0l0,0v0
			c5.4,0,10.3-2.2,13.8-5.7C81.7,226.3,83.9,221.5,83.9,216.1L83.9,216.1L83.9,216.1L83.9,216.1L83.9,216.1z"/>
	</g>
	<g>
		<defs>
			<rect id="SVGID_00000130604537697784906810000014611847069326895744_" x="-101" y="-557.2" width="1207.6" height="858.9"/>
		</defs>
		<clipPath id="SVGID_00000063631954509813066250000011477611633160916153_">
			<use xlink:href="#SVGID_00000130604537697784906810000014611847069326895744_"  style="overflow:visible;"/>
		</clipPath>
		<path id="path3511" style="clip-path:url(#SVGID_00000063631954509813066250000011477611633160916153_);fill:#C8212B;" d="
			M78.4,216.1c0,3.9-1.6,7.4-4.1,9.9s-6.1,4.1-9.9,4.1v0l0,0l0,0v0c-3.9,0-7.4-1.6-9.9-4.1s-4.1-6.1-4.1-9.9h0l0,0h0
			c0-3.9,1.6-7.4,4.1-9.9c2.5-2.5,6.1-4.1,9.9-4.1v0l0,0l0,0v0c3.9,0,7.4,1.6,9.9,4.1C76.8,208.7,78.4,212.2,78.4,216.1L78.4,216.1
			L78.4,216.1L78.4,216.1L78.4,216.1z M79,216.1c0-4-1.6-7.7-4.3-10.3c-2.6-2.6-6.3-4.3-10.3-4.3v0l0,0l0,0v0c-4,0-7.7,1.6-10.3,4.3
			c-2.6,2.6-4.3,6.3-4.3,10.3h0l0,0h0c0,4,1.6,7.7,4.3,10.3c2.6,2.6,6.3,4.3,10.3,4.3v0l0,0l0,0v0c4,0,7.7-1.6,10.3-4.3
			C77.3,223.7,79,220.1,79,216.1L79,216.1L79,216.1L79,216.1L79,216.1z"/>
	</g>
	<g>
		<defs>
			<rect id="SVGID_00000111186469657440968620000011685365832514932144_" x="-101" y="-557.2" width="1207.6" height="858.9"/>
		</defs>
		<clipPath id="SVGID_00000003070680292921774820000012440568640869321088_">
			<use xlink:href="#SVGID_00000111186469657440968620000011685365832514932144_"  style="overflow:visible;"/>
		</clipPath>
		
			<path id="path3513" style="clip-path:url(#SVGID_00000003070680292921774820000012440568640869321088_);fill-rule:evenodd;clip-rule:evenodd;fill:#C8212B;" d="
			M61.3,218.8h4.3v1.5c0,0.7-0.6,1.2-1.3,1.2h-2.4c-0.3,0-0.6-0.4-0.6-0.7V218.8z M61.3,213.3h4.3v2.8h-4.3V213.3z M68.2,213.3h4.1
			v2.8h-4.1V213.3z M72.5,208l-2.6-2.8H58.3c-2.5,0-2.5,2.6-2.5,2.6v15.7c0,3.2,2.7,3.4,2.7,3.4s5.5,0.1,6.1,0c0.7-0.1,1-1.1,1-1.1
			c0.2,1.1,1.1,1.2,1.1,1.2h3.2l2.8-2.8c0,0-4.1,0.1-4.9,0c-0.8-0.1-1-1.5-1-1.5s-0.4,0.8-0.8,1.1s-0.9,0.3-0.9,0.3h-4.3
			c-2.5-0.3-2.3-2.5-2.3-2.5s0-11.7,0-12.7c0-1,0.9-1.1,0.9-1.1H72.5z M68.2,218.8h4.1v2.7h-2.8c-0.7,0-1.2-0.5-1.2-1.2V218.8z"/>
	</g>
	<g>
		<defs>
			<rect id="SVGID_00000066498697480732945140000003286493874610899354_" x="-101" y="-557.2" width="1207.6" height="858.9"/>
		</defs>
		<clipPath id="SVGID_00000043452148287273093730000007142269074543743875_">
			<use xlink:href="#SVGID_00000066498697480732945140000003286493874610899354_"  style="overflow:visible;"/>
		</clipPath>
		<path id="path3515" style="clip-path:url(#SVGID_00000043452148287273093730000007142269074543743875_);fill:#C8212B;" d="
			M54,228.4l-0.5-0.5l-0.5,0.5l0.5,0.5L54,228.4z M52.2,227.6l0.5,0.5l0.5-0.5l-0.5-0.5L52.2,227.6z M53.8,226.9l0.3,0.3l-0.4,0.4
			l0.8,0.8l-1.2,1.2l-0.3-0.3l0.1-0.2l-0.5-0.5l-0.7,0.7l-0.3-0.3l0.7-0.7l-0.5-0.5l-0.2,0.2l-0.3-0.3l1.2-1.2l0.8,0.8L53.8,226.9z"
			/>
	</g>
	<g>
		<defs>
			<rect id="SVGID_00000035499493653901691240000006945211649973012918_" x="-101" y="-557.2" width="1207.6" height="858.9"/>
		</defs>
		<clipPath id="SVGID_00000144304069781107623400000016391415012327223216_">
			<use xlink:href="#SVGID_00000035499493653901691240000006945211649973012918_"  style="overflow:visible;"/>
		</clipPath>
		<path id="path3517" style="clip-path:url(#SVGID_00000144304069781107623400000016391415012327223216_);fill:#C8212B;" d="
			M58,230.7l-0.5-0.3c-0.1,0.2-0.2,0.4-0.3,0.6l0.5,0.3L58,230.7z M56.3,230.6l0.5,0.2c0.1-0.2,0.2-0.4,0.3-0.6l-0.5-0.2L56.3,230.6
			z M55.7,230.3l0.2,0.1l0.5-1l0.9,0.4l0.2-0.4l0.4,0.2l-0.2,0.4l0.9,0.4l-0.5,1l0.3,0.1l-0.2,0.4l-1-0.5c0.1,0.4,0.3,0.8,0.7,1.1
			c0,0-0.2,0.1-0.5,0.2c-0.4-0.4-0.6-0.9-0.6-1.4c-0.3,0.3-0.8,0.4-1.5,0.4c0-0.2-0.1-0.3-0.1-0.5c0.6,0.1,1.1,0.1,1.3-0.1l-1-0.5
			L55.7,230.3z"/>
	</g>
	<g>
		<defs>
			<rect id="SVGID_00000026842757371529404970000017495482463003786922_" x="-101" y="-557.2" width="1207.6" height="858.9"/>
		</defs>
		<clipPath id="SVGID_00000013152183288096475510000017939812224715275708_">
			<use xlink:href="#SVGID_00000026842757371529404970000017495482463003786922_"  style="overflow:visible;"/>
		</clipPath>
		<path id="path3519" style="clip-path:url(#SVGID_00000013152183288096475510000017939812224715275708_);fill:#C8212B;" d="
			M61.1,231.4l-0.1,0.3l1.7,0.3l0-0.3L61.1,231.4z M61,232.4l0.8,0.1c0-0.1,0-0.2,0-0.4l-0.8-0.1L61,232.4z M60.8,233.3
			c0.2,0,0.5-0.1,0.7-0.1c0,0.2-0.1,0.3-0.1,0.5c-0.5,0.1-0.8,0.1-1,0.2l-0.2-0.4c0.1-0.1,0.2-0.2,0.2-0.3l0.3-2.2l2.5,0.4l-0.2,1.1
			l-0.9-0.1c0,0.1,0,0.2,0,0.4l1,0.2l-0.1,0.4l-0.9-0.1c0,0.2,0.1,0.3,0.1,0.5c0.1,0.1,0.1,0.2,0.2,0.2c0.1,0,0.1,0,0.2-0.1
			c0-0.1,0.1-0.2,0.1-0.3c0.1,0.1,0.2,0.2,0.4,0.3c-0.1,0.5-0.4,0.7-0.7,0.7c-0.4-0.1-0.6-0.5-0.7-1.2l-0.9-0.1L60.8,233.3z"/>
	</g>
	<g>
		<defs>
			<rect id="SVGID_00000097499679595640595560000007132767136718297778_" x="-101" y="-557.2" width="1207.6" height="858.9"/>
		</defs>
		<clipPath id="SVGID_00000152244947107404488270000016810893551675138976_">
			<use xlink:href="#SVGID_00000097499679595640595560000007132767136718297778_"  style="overflow:visible;"/>
		</clipPath>
		<path id="path3521" style="clip-path:url(#SVGID_00000152244947107404488270000016810893551675138976_);fill:#C8212B;" d="
			M68.1,232.1l-0.6,0.1c0,0.1,0,0.2,0,0.4l0.7-0.1l0.1,0.4l-0.6,0.1c0.2,0.2,0.5,0.4,0.7,0.5c-0.1,0.1-0.1,0.3-0.2,0.4
			c-0.3-0.1-0.5-0.3-0.7-0.6c-0.1,0.3-0.3,0.6-0.5,0.8c-0.2-0.1-0.3-0.2-0.4-0.3c0.3-0.2,0.5-0.5,0.6-0.7l-0.6,0.1l-0.1-0.4l0.7-0.1
			c0-0.1,0-0.2,0-0.4l-0.2,0c0,0.1-0.1,0.3-0.2,0.4c-0.1,0-0.2-0.1-0.3-0.2c0.1-0.2,0.3-0.5,0.3-0.8l0.3,0c0,0.1,0,0.1,0,0.2
			l0.9-0.1L68.1,232.1z M65.8,233.7l0.2,0c0.1,0,0.1-0.1,0.1-0.1c0-0.1,0-0.4-0.1-0.9l-0.2,0C65.9,233.1,65.9,233.4,65.8,233.7
			 M66.5,231l0.4,0c0,0.1,0,0.2-0.1,0.3l1.2-0.2l0.1,0.4l-1.3,0.2c-0.1,0.1-0.1,0.3-0.2,0.4c-0.1-0.1-0.2-0.1-0.3-0.2l-0.5,0.1
			l0,0.3l0.6-0.1c0,0.3,0.1,0.6,0.1,0.9c0,0.3,0,0.5,0,0.5c0,0.1,0,0.1-0.1,0.2c0,0.1-0.1,0.1-0.1,0.1c-0.1,0-0.2,0.1-0.4,0.1
			c0-0.1-0.1-0.2-0.1-0.4c0,0.2-0.1,0.3-0.1,0.5c-0.1-0.2-0.2-0.3-0.3-0.4c0-0.1,0.1-0.3,0.1-0.5c0-0.2,0-0.3,0-0.5
			c0-0.2,0-0.4-0.1-0.8l-0.2,0l-0.1-0.4l0.4-0.1c-0.1-0.1-0.1-0.2-0.2-0.3l0.4-0.2c0.1,0.2,0.2,0.3,0.2,0.4l-0.2,0.1l0.5-0.1l0,0.2
			C66.4,231.5,66.5,231.3,66.5,231"/>
	</g>
	<g>
		<defs>
			<rect id="SVGID_00000176013377994225562270000017708693398763406217_" x="-101" y="-557.2" width="1207.6" height="858.9"/>
		</defs>
		<clipPath id="SVGID_00000037682377980632114930000014164498929586228632_">
			<use xlink:href="#SVGID_00000176013377994225562270000017708693398763406217_"  style="overflow:visible;"/>
		</clipPath>
		<path id="path3523" style="clip-path:url(#SVGID_00000037682377980632114930000014164498929586228632_);fill:#C8212B;" d="
			M69.9,231.1l1.1-0.5c-0.1-0.2-0.2-0.4-0.3-0.7l0.4-0.2c0.1,0.3,0.2,0.5,0.3,0.7l1.1-0.5l0.2,0.4l-1.1,0.5c0.5,0.5,1,0.8,1.7,0.7
			c-0.1,0.2-0.1,0.4-0.1,0.5c-0.6,0-1.1-0.2-1.6-0.6c0.1,0.6-0.1,1.1-0.5,1.7c-0.1-0.1-0.3-0.1-0.5-0.2c0.5-0.6,0.7-1.2,0.5-1.8
			l-1,0.5L69.9,231.1z"/>
	</g>
	<g>
		<defs>
			<rect id="SVGID_00000044872506331535551170000007179877685516322977_" x="-101" y="-557.2" width="1207.6" height="858.9"/>
		</defs>
		<clipPath id="SVGID_00000001651700901165051520000011230438049293193376_">
			<use xlink:href="#SVGID_00000044872506331535551170000007179877685516322977_"  style="overflow:visible;"/>
		</clipPath>
		<path id="path3525" style="clip-path:url(#SVGID_00000001651700901165051520000011230438049293193376_);fill:#C8212B;" d="
			M74.8,229.5l1-0.9l-0.1-0.1l0.1-0.5l-0.8,0.8l-0.3-0.3l1.3-1.2l0.2,0.3l-0.2,0.6l0.8-0.8l0.3,0.3l-0.9,0.8l0.2,0.2
			c0.1,0.1,0.1,0.2,0.1,0.3c0,0.1-0.1,0.2-0.2,0.3c-0.1,0.1-0.2,0.2-0.4,0.3c-0.1-0.1-0.2-0.2-0.4-0.2c0.1-0.1,0.2-0.2,0.3-0.3
			c0.1-0.1,0.1-0.2,0-0.3l-0.1-0.1l-1,0.9L74.8,229.5z M74,227.8c0.2,0,0.4,0,0.6,0.1l0,0.2l0.4-0.3c-0.2-0.1-0.3-0.1-0.5-0.1
			l0.2-0.4c0.1,0,0.3,0.1,0.5,0.2l-0.1,0.2l0.3-0.3c0-0.2-0.1-0.4-0.1-0.6l0.5-0.1l0,0.4l0.3-0.3l0.5,0.6l-0.3,0.3l-0.3-0.3
			l-1.5,1.4l0.3,0.3l-0.3,0.3l-0.5-0.6l0.4-0.3c-0.1,0-0.3-0.1-0.4-0.1L74,227.8z"/>
	</g>
	<g>
		<defs>
			<rect id="SVGID_00000116208771410751296290000007478880480636872350_" x="-101" y="-557.2" width="1207.6" height="858.9"/>
		</defs>
		<clipPath id="SVGID_00000174587889217269122300000016315901348554880682_">
			<use xlink:href="#SVGID_00000116208771410751296290000007478880480636872350_"  style="overflow:visible;"/>
		</clipPath>
		<path id="path3527" style="clip-path:url(#SVGID_00000174587889217269122300000016315901348554880682_);fill:#C8212B;" d="
			M48.5,221.9l1.3-1l-0.1-0.4l-1.6,0l1.5-0.5l-0.1-0.4l-2.4,0.8l0.2,0.5l1.8,0c0,0,0.1,0,0.1,0c0,0-0.1,0-0.1,0.1l-1.4,1.1l0.2,0.6
			l2.4-0.8l-0.1-0.4L48.5,221.9z"/>
	</g>
	<g>
		<defs>
			<rect id="SVGID_00000062184995765254501210000000014722465662093194_" x="-101" y="-557.2" width="1207.6" height="858.9"/>
		</defs>
		<clipPath id="SVGID_00000175288578867637206770000012876543092627064463_">
			<use xlink:href="#SVGID_00000062184995765254501210000000014722465662093194_"  style="overflow:visible;"/>
		</clipPath>
		<path id="path3529" style="clip-path:url(#SVGID_00000175288578867637206770000012876543092627064463_);fill:#C8212B;" d="
			M49.2,218.3l-2.4,0.4l0.1,0.5l2.4-0.4L49.2,218.3z"/>
	</g>
	<g>
		<defs>
			<rect id="SVGID_00000158710664430538451890000003499900044673528715_" x="-101" y="-557.2" width="1207.6" height="858.9"/>
		</defs>
		<clipPath id="SVGID_00000154425202005793900100000007113827519164694703_">
			<use xlink:href="#SVGID_00000158710664430538451890000003499900044673528715_"  style="overflow:visible;"/>
		</clipPath>
		<path id="path3531" style="clip-path:url(#SVGID_00000154425202005793900100000007113827519164694703_);fill:#C8212B;" d="M49,217
			l-1.6,0l1.6-1.1l0-0.4l-2.5,0.1l0,0.5l1.6,0l-1.6,1.1l0,0.4l2.5-0.1L49,217z"/>
	</g>
	<g>
		<defs>
			<rect id="SVGID_00000149350563656698169750000010656150867606622855_" x="-101" y="-557.2" width="1207.6" height="858.9"/>
		</defs>
		<clipPath id="SVGID_00000109008372958730769220000007269606044315883146_">
			<use xlink:href="#SVGID_00000149350563656698169750000010656150867606622855_"  style="overflow:visible;"/>
		</clipPath>
		<path id="path3533" style="clip-path:url(#SVGID_00000109008372958730769220000007269606044315883146_);fill:#C8212B;" d="
			M47.2,213.2C47.2,213.2,47.2,213.2,47.2,213.2c0.1,0.1,0.1,0.1,0.1,0.1l1.3,1.4l0.4,0.1l0.3-2l-0.4-0.1l-0.2,1.4l-1.4-1.6
			l-0.4-0.1l-0.3,1.8l0.4,0.1L47.2,213.2z"/>
	</g>
	<g>
		<defs>
			<rect id="SVGID_00000077307267778450278390000002946779304752557745_" x="-101" y="-557.2" width="1207.6" height="858.9"/>
		</defs>
		<clipPath id="SVGID_00000107580772179277391300000005322965078773190070_">
			<use xlink:href="#SVGID_00000077307267778450278390000002946779304752557745_"  style="overflow:visible;"/>
		</clipPath>
		<path id="path3535" style="clip-path:url(#SVGID_00000107580772179277391300000005322965078773190070_);fill:#C8212B;" d="
			M48.8,212c0,0,0.1,0,0.2,0l0,0c0.1,0,0.1,0,0.2,0c0.1,0,0.2-0.1,0.4-0.2c0.1-0.1,0.2-0.3,0.3-0.5c0.1-0.2,0.1-0.4,0.1-0.6
			c0-0.2-0.1-0.3-0.2-0.4c-0.1-0.1-0.2-0.2-0.3-0.2c-0.1,0-0.2-0.1-0.3-0.1l-1.3-0.4l-0.1,0.4l1.3,0.4c0.1,0,0.3,0.1,0.3,0.2
			c0.1,0,0.1,0.1,0.1,0.2c0,0.1,0,0.2,0,0.4c0,0.1-0.1,0.2-0.2,0.3c-0.1,0-0.2,0.1-0.3,0.1c-0.1,0-0.2,0-0.3-0.1l-1.3-0.4l-0.1,0.4
			l1.3,0.4C48.6,211.9,48.7,212,48.8,212"/>
	</g>
	<g>
		<defs>
			<rect id="SVGID_00000078008999462614130770000004933014150278635437_" x="-101" y="-557.2" width="1207.6" height="858.9"/>
		</defs>
		<clipPath id="SVGID_00000014632404225642342410000010054204486696497548_">
			<use xlink:href="#SVGID_00000078008999462614130770000004933014150278635437_"  style="overflow:visible;"/>
		</clipPath>
		<path id="path3537" style="clip-path:url(#SVGID_00000014632404225642342410000010054204486696497548_);fill:#C8212B;" d="
			M52.5,205.2c-0.1-0.1-0.2-0.2-0.3-0.2l-1.1-0.9l-0.3,0.4l1.1,0.9c0.1,0.1,0.2,0.2,0.3,0.3c0.1,0.1,0.1,0.1,0.1,0.2
			c0,0.1-0.1,0.2-0.2,0.3c-0.1,0.1-0.2,0.2-0.3,0.2c-0.1,0-0.2,0-0.3,0c-0.1,0-0.2-0.1-0.3-0.2l-1.1-0.9l-0.3,0.4l1.1,0.9
			c0.1,0.1,0.2,0.2,0.3,0.2c0.1,0.1,0.2,0.1,0.3,0.1c0,0,0.1,0,0.1,0c0.1,0,0.2,0,0.3-0.1c0.1-0.1,0.3-0.2,0.4-0.4
			c0.1-0.2,0.2-0.3,0.3-0.5c0-0.2,0-0.3,0-0.4C52.7,205.4,52.6,205.2,52.5,205.2"/>
	</g>
	<g>
		<defs>
			<rect id="SVGID_00000048476901737971109720000002783287780442940572_" x="-101" y="-557.2" width="1207.6" height="858.9"/>
		</defs>
		<clipPath id="SVGID_00000155850375177253309450000002477879558450384311_">
			<use xlink:href="#SVGID_00000048476901737971109720000002783287780442940572_"  style="overflow:visible;"/>
		</clipPath>
		<path id="path3539" style="clip-path:url(#SVGID_00000155850375177253309450000002477879558450384311_);fill:#C8212B;" d="
			M53.2,202.1l1.1,1.2l-1.9-0.5l-0.3,0.3l1.6,1.9l0.3-0.3l-1.1-1.2l1.9,0.5l0.3-0.3l-1.6-1.9L53.2,202.1z"/>
	</g>
	<g>
		<defs>
			<rect id="SVGID_00000133530830773504833630000003879489942828790972_" x="-101" y="-557.2" width="1207.6" height="858.9"/>
		</defs>
		<clipPath id="SVGID_00000062189871961992128570000008686099143953917578_">
			<use xlink:href="#SVGID_00000133530830773504833630000003879489942828790972_"  style="overflow:visible;"/>
		</clipPath>
		<path id="path3541" style="clip-path:url(#SVGID_00000062189871961992128570000008686099143953917578_);fill:#C8212B;" d="
			M54.6,201.2l1.3,2.1l0.4-0.3l-1.3-2.1L54.6,201.2z"/>
	</g>
	<g>
		<defs>
			<rect id="SVGID_00000150103899451545126230000003553050455937730740_" x="-101" y="-557.2" width="1207.6" height="858.9"/>
		</defs>
		<clipPath id="SVGID_00000049907904983613926370000007482496014075947922_">
			<use xlink:href="#SVGID_00000150103899451545126230000003553050455937730740_"  style="overflow:visible;"/>
		</clipPath>
		<path id="path3543" style="clip-path:url(#SVGID_00000049907904983613926370000007482496014075947922_);fill:#C8212B;" d="
			M57.5,199.6l0.1,1.8c0,0,0,0.1,0,0.1c0,0-0.1-0.1-0.1-0.1l-1.3-1.3l-0.5,0.2l1.9,1.8l0.4-0.2l-0.2-2.7L57.5,199.6z"/>
	</g>
	<g>
		<defs>
			<rect id="SVGID_00000138534984588860002380000008119024587784961724_" x="-101" y="-557.2" width="1207.6" height="858.9"/>
		</defs>
		<clipPath id="SVGID_00000173847491447042008790000014799925561879991484_">
			<use xlink:href="#SVGID_00000138534984588860002380000008119024587784961724_"  style="overflow:visible;"/>
		</clipPath>
		<path id="path3545" style="clip-path:url(#SVGID_00000173847491447042008790000014799925561879991484_);fill:#C8212B;" d="
			M59.8,200.9l-0.2-0.6l1.2-0.3l-0.1-0.4l-1.2,0.3l-0.1-0.5l1.3-0.4l-0.1-0.4l-1.8,0.5l0.6,2.4l1.8-0.5l-0.1-0.4L59.8,200.9z"/>
	</g>
	<g>
		<defs>
			<rect id="SVGID_00000141442092767725174820000005641998447981732761_" x="-101" y="-557.2" width="1207.6" height="858.9"/>
		</defs>
		<clipPath id="SVGID_00000052793298966687239790000013577245462666095543_">
			<use xlink:href="#SVGID_00000141442092767725174820000005641998447981732761_"  style="overflow:visible;"/>
		</clipPath>
		<path id="path3547" style="clip-path:url(#SVGID_00000052793298966687239790000013577245462666095543_);fill:#C8212B;" d="
			M63.3,198.8c0.1,0.1,0.1,0.1,0.1,0.2c0,0.1,0,0.1,0,0.2c0,0.1-0.1,0.1-0.1,0.1c-0.1,0-0.2,0-0.3,0.1l-0.6,0.1l-0.1-0.6l0.6-0.1
			C63.1,198.7,63.2,198.7,63.3,198.8 M63.4,199.6c0.1-0.1,0.2-0.1,0.3-0.2c0.1-0.1,0.2-0.3,0.1-0.5c0-0.1,0-0.2-0.1-0.3
			c-0.1-0.1-0.1-0.2-0.2-0.2c-0.1-0.1-0.2-0.1-0.3-0.1c-0.1,0-0.2,0-0.4,0l-1.1,0.1l0.2,2.5l0.5,0l-0.1-1l0.3,0c0.1,0,0.1,0,0.2,0
			c0,0,0.1,0,0.1,0.1c0.1,0.1,0.1,0.1,0.2,0.2c0.1,0.1,0.2,0.3,0.5,0.6l0,0l0.6-0.1l-0.5-0.7C63.6,199.8,63.5,199.7,63.4,199.6"/>
	</g>
	<g>
		<defs>
			<rect id="SVGID_00000023266210841461388530000002642254886661061049_" x="-101" y="-557.2" width="1207.6" height="858.9"/>
		</defs>
		<clipPath id="SVGID_00000039119431169273191700000010565158362350748062_">
			<use xlink:href="#SVGID_00000023266210841461388530000002642254886661061049_"  style="overflow:visible;"/>
		</clipPath>
		<path id="path3549" style="clip-path:url(#SVGID_00000039119431169273191700000010565158362350748062_);fill:#C8212B;" d="
			M65.9,198.3c-0.3,0-0.5,0-0.7,0.1c-0.2,0.1-0.3,0.3-0.3,0.5c0,0.2,0,0.3,0.2,0.5c0.1,0.1,0.3,0.2,0.6,0.3c0.2,0.1,0.4,0.1,0.5,0.2
			c0.1,0.1,0.1,0.1,0.1,0.2c0,0.1-0.1,0.2-0.1,0.2c-0.1,0.1-0.2,0.1-0.4,0.1c-0.2,0-0.3-0.1-0.4-0.1c-0.1-0.1-0.1-0.2-0.1-0.4l0-0.1
			l-0.5,0l0,0.1c0,0.3,0.1,0.5,0.2,0.6c0.2,0.2,0.4,0.3,0.8,0.3c0,0,0.1,0,0.1,0c0.2,0,0.4-0.1,0.6-0.2c0.2-0.1,0.3-0.3,0.3-0.5
			c0-0.2,0-0.3-0.1-0.4c-0.1-0.1-0.2-0.2-0.3-0.3c-0.1-0.1-0.3-0.1-0.5-0.2c-0.2-0.1-0.4-0.1-0.4-0.2c0,0-0.1-0.1-0.1-0.2
			c0-0.1,0-0.1,0.1-0.2c0.1,0,0.2-0.1,0.3,0c0.2,0,0.3,0.1,0.3,0.1c0.1,0.1,0.1,0.2,0.1,0.3v0.1l0.5,0l0-0.1c0-0.2-0.1-0.4-0.2-0.6
			C66.4,198.4,66.2,198.3,65.9,198.3"/>
	</g>
	<g>
		<defs>
			<rect id="SVGID_00000007399102041333404050000013727325173375636885_" x="-101" y="-557.2" width="1207.6" height="858.9"/>
		</defs>
		<clipPath id="SVGID_00000029754824682704170830000003423410347503471032_">
			<use xlink:href="#SVGID_00000007399102041333404050000013727325173375636885_"  style="overflow:visible;"/>
		</clipPath>
		<path id="path3551" style="clip-path:url(#SVGID_00000029754824682704170830000003423410347503471032_);fill:#C8212B;" d="
			M67.5,201l0.5,0.1l0.5-2.4l-0.5-0.1L67.5,201z"/>
	</g>
	<g>
		<defs>
			<rect id="SVGID_00000147905094439006452160000005424538364107658903_" x="-101" y="-557.2" width="1207.6" height="858.9"/>
		</defs>
		<clipPath id="SVGID_00000077283270272460879430000000831209367169293227_">
			<use xlink:href="#SVGID_00000147905094439006452160000005424538364107658903_"  style="overflow:visible;"/>
		</clipPath>
		<path id="path3553" style="clip-path:url(#SVGID_00000077283270272460879430000000831209367169293227_);fill:#C8212B;" d="
			M69.3,199.4l0.7,0.3l-0.7,1.9l0.4,0.2l0.7-1.9l0.7,0.3l0.1-0.4l-1.9-0.7L69.3,199.4z"/>
	</g>
	<g>
		<defs>
			<rect id="SVGID_00000083771229941719312460000018313062661439862681_" x="-101" y="-557.2" width="1207.6" height="858.9"/>
		</defs>
		<clipPath id="SVGID_00000095322489843771342260000017796088831604059010_">
			<use xlink:href="#SVGID_00000083771229941719312460000018313062661439862681_"  style="overflow:visible;"/>
		</clipPath>
		<path id="path3555" style="clip-path:url(#SVGID_00000095322489843771342260000017796088831604059010_);fill:#C8212B;" d="
			M73.6,200.9c-0.5,0.3-0.8,0.4-1,0.5c0-0.1,0-0.2,0-0.2l-0.1-1l-0.5-0.3l0.1,1.7l-0.5,0.9l0.4,0.2l0.5-0.9l1.6-0.8L73.6,200.9
			L73.6,200.9z"/>
	</g>
	<g>
		<defs>
			<rect id="SVGID_00000103258728367758745090000002042315884861336767_" x="-101" y="-557.2" width="1207.6" height="858.9"/>
		</defs>
		<clipPath id="SVGID_00000093879958574041005370000016447582329803192205_">
			<use xlink:href="#SVGID_00000103258728367758745090000002042315884861336767_"  style="overflow:visible;"/>
		</clipPath>
		<path id="path3557" style="clip-path:url(#SVGID_00000093879958574041005370000016447582329803192205_);fill:#C8212B;" d="
			M78,205.5c0,0.2-0.2,0.4-0.4,0.6c-0.2,0.2-0.4,0.2-0.6,0.2l0,0c-0.2,0-0.4-0.1-0.5-0.3c-0.1-0.2-0.2-0.3-0.2-0.5
			c0-0.2,0.1-0.4,0.3-0.5c0.2-0.2,0.4-0.3,0.6-0.3c0,0,0,0,0,0c0.2,0,0.4,0.1,0.5,0.3C78,205.2,78,205.3,78,205.5 M78.5,205.6
			c0-0.3,0-0.6-0.3-0.9c-0.2-0.3-0.5-0.4-0.8-0.4c-0.3,0-0.6,0.1-0.9,0.3c-0.3,0.2-0.4,0.5-0.5,0.8c0,0.3,0,0.6,0.3,0.9
			c0.2,0.3,0.5,0.4,0.8,0.4c0,0,0.1,0,0.1,0c0.3,0,0.6-0.1,0.8-0.3C78.2,206.2,78.4,206,78.5,205.6"/>
	</g>
	<g>
		<defs>
			<rect id="SVGID_00000049204325175367011100000007493395041216995723_" x="-101" y="-557.2" width="1207.6" height="858.9"/>
		</defs>
		<clipPath id="SVGID_00000033347850127560807880000012303547615100139935_">
			<use xlink:href="#SVGID_00000049204325175367011100000007493395041216995723_"  style="overflow:visible;"/>
		</clipPath>
		<path id="path3559" style="clip-path:url(#SVGID_00000033347850127560807880000012303547615100139935_);fill:#C8212B;" d="
			M79,208.7l0.4-0.2l-0.5-0.9l0.5-0.3l0.6,1.1l0.4-0.2l-0.8-1.5l-2.2,1.2l0.2,0.4l0.9-0.5L79,208.7z"/>
	</g>
	<g>
		<defs>
			<rect id="SVGID_00000081615365695372895900000016746047024438228367_" x="-101" y="-557.2" width="1207.6" height="858.9"/>
		</defs>
		<clipPath id="SVGID_00000170240516897028477000000013149541785838590883_">
			<use xlink:href="#SVGID_00000081615365695372895900000016746047024438228367_"  style="overflow:visible;"/>
		</clipPath>
		<path id="path3561" style="clip-path:url(#SVGID_00000170240516897028477000000013149541785838590883_);fill:#C8212B;" d="
			M79.4,211.5c-0.2,0.2-0.3,0.6-0.2,1c0.1,0.2,0.2,0.4,0.4,0.6c0.2,0.1,0.4,0.2,0.7,0.2l0.1,0l0-0.5l-0.1,0c-0.2,0-0.3,0-0.4-0.1
			c-0.1-0.1-0.2-0.2-0.2-0.3c0-0.2,0-0.4,0.1-0.5c0.1-0.2,0.3-0.3,0.6-0.3c0.3-0.1,0.5-0.1,0.6,0c0.2,0.1,0.3,0.2,0.3,0.4
			c0,0.1,0,0.2,0,0.4c0,0.1-0.1,0.2-0.3,0.3l-0.1,0l0.2,0.4l0.1,0c0.2-0.1,0.4-0.3,0.4-0.5c0.1-0.2,0.1-0.4,0-0.7
			c-0.1-0.3-0.3-0.6-0.5-0.7c-0.3-0.2-0.6-0.2-1-0.1C79.9,211.1,79.6,211.3,79.4,211.5"/>
	</g>
	<g>
		<defs>
			<rect id="SVGID_00000170990516931829760980000001135369328069651869_" x="-101" y="-557.2" width="1207.6" height="858.9"/>
		</defs>
		<clipPath id="SVGID_00000041253636859551679080000009458041131057606557_">
			<use xlink:href="#SVGID_00000170990516931829760980000001135369328069651869_"  style="overflow:visible;"/>
		</clipPath>
		<path id="path3563" style="clip-path:url(#SVGID_00000041253636859551679080000009458041131057606557_);fill:#C8212B;" d="
			M79.7,214.6l1.1-0.1l0.1,1l-1.1,0.1l0,0.5l2.5-0.1l0-0.5l-0.9,0.1l-0.1-1l0.9-0.1l0-0.5l-2.5,0.1L79.7,214.6z"/>
	</g>
	<g>
		<defs>
			<rect id="SVGID_00000138560545146116666220000018333769973170934418_" x="-101" y="-557.2" width="1207.6" height="858.9"/>
		</defs>
		<clipPath id="SVGID_00000154387985209078231520000009882528352053683903_">
			<use xlink:href="#SVGID_00000138560545146116666220000018333769973170934418_"  style="overflow:visible;"/>
		</clipPath>
		<path id="path3565" style="clip-path:url(#SVGID_00000154387985209078231520000009882528352053683903_);fill:#C8212B;" d="
			M79.7,217.5l2.5,0.2l0-0.5l-2.5-0.2L79.7,217.5z"/>
	</g>
	<g>
		<defs>
			<rect id="SVGID_00000041253780156883423630000004997941111069742764_" x="-101" y="-557.2" width="1207.6" height="858.9"/>
		</defs>
		<clipPath id="SVGID_00000155137065788408505250000005736001898332685210_">
			<use xlink:href="#SVGID_00000041253780156883423630000004997941111069742764_"  style="overflow:visible;"/>
		</clipPath>
		<path id="path3567" style="clip-path:url(#SVGID_00000155137065788408505250000005736001898332685210_);fill:#C8212B;" d="
			M79.5,218.8l1.6,0.3l-1.8,0.7l-0.1,0.4l2.4,0.5l0.1-0.4l-1.6-0.3l1.8-0.7l0.1-0.4l-2.4-0.5L79.5,218.8z"/>
	</g>
	<g>
		<defs>
			<rect id="SVGID_00000151501166933768255100000002910881560176857009_" x="-101" y="-557.2" width="1207.6" height="858.9"/>
		</defs>
		<clipPath id="SVGID_00000180363431496015370570000007726304459522261934_">
			<use xlink:href="#SVGID_00000151501166933768255100000002910881560176857009_"  style="overflow:visible;"/>
		</clipPath>
		<path id="path3569" style="clip-path:url(#SVGID_00000180363431496015370570000007726304459522261934_);fill:#C8212B;" d="
			M79.5,222.6l0.2-0.5l0.5,0.4c0,0,0.1,0.1,0.1,0.1C80.2,222.6,79.9,222.6,79.5,222.6 M78.8,221.3l0.6,0.5l-0.3,0.8l-0.8,0l-0.2,0.5
			l2.7,0l0.2-0.4l-1.9-1.8L78.8,221.3z"/>
	</g>
</g>
</svg>
