<?xml version="1.0" encoding="UTF-8" standalone="no"?>
<!-- Created with Inkscape (http://www.inkscape.org/) -->

<svg
   width="13.802428mm"
   height="13.802436mm"
   viewBox="0 0 13.802428 13.802436"
   version="1.1"
   id="svg1"
   xmlns="http://www.w3.org/2000/svg"
   xmlns:svg="http://www.w3.org/2000/svg">
  <defs
     id="defs1">
    <clipPath
       clipPathUnits="userSpaceOnUse"
       id="clipPath3328">
      <path
         d="M 0,858.898 H 1207.558 V 0 H 0 Z"
         transform="translate(-390.76881,-159.9234)"
         id="path3328" />
    </clipPath>
    <clipPath
       clipPathUnits="userSpaceOnUse"
       id="clipPath3330">
      <path
         d="M 0,858.898 H 1207.558 V 0 H 0 Z"
         transform="translate(-393.18311,-160.8678)"
         id="path3330" />
    </clipPath>
    <clipPath
       clipPathUnits="userSpaceOnUse"
       id="clipPath3332">
      <path
         d="M 0,858.898 H 1207.558 V 0 H 0 Z"
         transform="translate(-395.98611,-160.3409)"
         id="path3332" />
    </clipPath>
    <clipPath
       clipPathUnits="userSpaceOnUse"
       id="clipPath3334">
      <path
         d="M 0,858.898 H 1207.558 V 0 H 0 Z"
         transform="translate(-398.06261,-158.8503)"
         id="path3334" />
    </clipPath>
    <clipPath
       clipPathUnits="userSpaceOnUse"
       id="clipPath3336">
      <path
         d="M 0,858.898 H 1207.558 V 0 H 0 Z"
         transform="translate(-391.97091,-166.07501)"
         id="path3336" />
    </clipPath>
    <clipPath
       clipPathUnits="userSpaceOnUse"
       id="clipPath3338">
      <path
         d="M 0,858.898 H 1207.558 V 0 H 0 Z"
         transform="translate(-392.47751,-163.7498)"
         id="path3338" />
    </clipPath>
    <clipPath
       clipPathUnits="userSpaceOnUse"
       id="clipPath3340">
      <path
         d="M 0,858.898 H 1207.558 V 0 H 0 Z"
         transform="translate(-406.44031,-158.3928)"
         id="path3340" />
    </clipPath>
    <clipPath
       clipPathUnits="userSpaceOnUse"
       id="clipPath3342">
      <path
         d="M 0,858.898 H 1207.558 V 0 H 0 Z"
         transform="translate(-407.50351,-160.5894)"
         id="path3342" />
    </clipPath>
    <clipPath
       clipPathUnits="userSpaceOnUse"
       id="clipPath3344">
      <path
         d="M 0,858.898 H 1207.558 V 0 H 0 Z"
         transform="translate(-389.51601,-165.4094)"
         id="path3344" />
    </clipPath>
    <clipPath
       clipPathUnits="userSpaceOnUse"
       id="clipPath3346">
      <path
         d="M 0,858.898 H 1207.558 V 0 H 0 Z"
         transform="translate(-389.38681,-166.1447)"
         id="path3346" />
    </clipPath>
    <clipPath
       clipPathUnits="userSpaceOnUse"
       id="clipPath3348">
      <path
         d="M 0,858.898 H 1207.558 V 0 H 0 Z"
         transform="translate(-399.22581,-163.7892)"
         id="path3348" />
    </clipPath>
    <clipPath
       clipPathUnits="userSpaceOnUse"
       id="clipPath3350">
      <path
         d="M 0,858.898 H 1207.558 V 0 H 0 Z"
         transform="translate(-389.42651,-165.07121)"
         id="path3350" />
    </clipPath>
    <clipPath
       clipPathUnits="userSpaceOnUse"
       id="clipPath3352">
      <path
         d="M 0,858.898 H 1207.558 V 0 H 0 Z"
         transform="translate(-390.08221,-164.54471)"
         id="path3352" />
    </clipPath>
    <clipPath
       clipPathUnits="userSpaceOnUse"
       id="clipPath3354">
      <path
         d="M 0,858.898 H 1207.558 V 0 H 0 Z"
         transform="translate(-382.35071,-160.13231)"
         id="path3354" />
    </clipPath>
    <clipPath
       clipPathUnits="userSpaceOnUse"
       id="clipPath3356">
      <path
         d="M 0,858.898 H 1207.558 V 0 H 0 Z"
         transform="translate(-381.66491,-158.71151)"
         id="path3356" />
    </clipPath>
    <clipPath
       clipPathUnits="userSpaceOnUse"
       id="clipPath3358">
      <path
         d="M 0,858.898 H 1207.558 V 0 H 0 Z"
         transform="translate(-400.88451,-163.9683)"
         id="path3358" />
    </clipPath>
    <clipPath
       clipPathUnits="userSpaceOnUse"
       id="clipPath3360">
      <path
         d="M 0,858.898 H 1207.558 V 0 H 0 Z"
         transform="translate(-382.85741,-159.3371)"
         id="path3360" />
    </clipPath>
    <clipPath
       clipPathUnits="userSpaceOnUse"
       id="clipPath3362">
      <path
         d="M 0,858.898 H 1207.558 V 0 H 0 Z"
         transform="translate(-387.35941,-143.3076)"
         id="path3362" />
    </clipPath>
    <clipPath
       clipPathUnits="userSpaceOnUse"
       id="clipPath3364">
      <path
         d="M 0,858.898 H 1207.558 V 0 H 0 Z"
         transform="translate(-405.13911,-135.61601)"
         id="path3364" />
    </clipPath>
    <clipPath
       clipPathUnits="userSpaceOnUse"
       id="clipPath3366">
      <path
         d="M 0,858.898 H 1207.558 V 0 H 0 Z"
         transform="translate(-411.41961,-142.3038)"
         id="path3366" />
    </clipPath>
    <clipPath
       clipPathUnits="userSpaceOnUse"
       id="clipPath3368">
      <path
         d="M 0,858.898 H 1207.558 V 0 H 0 Z"
         transform="translate(-377.77981,-148.3856)"
         id="path3368" />
    </clipPath>
    <clipPath
       clipPathUnits="userSpaceOnUse"
       id="clipPath3370">
      <path
         d="M 0,858.898 H 1207.558 V 0 H 0 Z"
         transform="translate(-400.91461,-135.52631)"
         id="path3370" />
    </clipPath>
    <clipPath
       clipPathUnits="userSpaceOnUse"
       id="clipPath3372">
      <path
         d="M 0,858.898 H 1207.558 V 0 H 0 Z"
         transform="translate(-382.15171,-141.3698)"
         id="path3372" />
    </clipPath>
    <clipPath
       clipPathUnits="userSpaceOnUse"
       id="clipPath3374">
      <path
         d="M 0,858.898 H 1207.558 V 0 H 0 Z"
         transform="translate(-378.42521,-144.40061)"
         id="path3374" />
    </clipPath>
    <clipPath
       clipPathUnits="userSpaceOnUse"
       id="clipPath3376">
      <path
         d="M 0,858.898 H 1207.558 V 0 H 0 Z"
         transform="translate(-382.51011,-137.1564)"
         id="path3376" />
    </clipPath>
    <clipPath
       clipPathUnits="userSpaceOnUse"
       id="clipPath3378">
      <path
         d="M 0,858.898 H 1207.558 V 0 H 0 Z"
         transform="translate(-398.24181,-132.4658)"
         id="path3378" />
    </clipPath>
    <clipPath
       clipPathUnits="userSpaceOnUse"
       id="clipPath3380">
      <path
         d="M 0,858.898 H 1207.558 V 0 H 0 Z"
         transform="translate(-386.00831,-137.32451)"
         id="path3380" />
    </clipPath>
    <clipPath
       clipPathUnits="userSpaceOnUse"
       id="clipPath3382">
      <path
         d="M 0,858.898 H 1207.558 V 0 H 0 Z"
         transform="translate(-386.95181,-136.7981)"
         id="path3382" />
    </clipPath>
    <clipPath
       clipPathUnits="userSpaceOnUse"
       id="clipPath3384">
      <path
         d="M 0,858.898 H 1207.558 V 0 H 0 Z"
         transform="translate(-412.37351,-145.11611)"
         id="path3384" />
    </clipPath>
    <clipPath
       clipPathUnits="userSpaceOnUse"
       id="clipPath3386">
      <path
         d="M 0,858.898 H 1207.558 V 0 H 0 Z"
         transform="translate(-410.47531,-149.9361)"
         id="path3386" />
    </clipPath>
    <clipPath
       clipPathUnits="userSpaceOnUse"
       id="clipPath3388">
      <path
         d="M 0,858.898 H 1207.558 V 0 H 0 Z"
         transform="translate(-392.10001,-134.6819)"
         id="path3388" />
    </clipPath>
    <clipPath
       clipPathUnits="userSpaceOnUse"
       id="clipPath3390">
      <path
         d="M 0,858.898 H 1207.558 V 0 H 0 Z"
         transform="translate(-409.13371,-140.60471)"
         id="path3390" />
    </clipPath>
    <clipPath
       clipPathUnits="userSpaceOnUse"
       id="clipPath3392">
      <path
         d="M 0,858.898 H 1207.558 V 0 H 0 Z"
         transform="translate(-406.54971,-137.95091)"
         id="path3392" />
    </clipPath>
    <clipPath
       clipPathUnits="userSpaceOnUse"
       id="clipPath3394">
      <path
         d="M 0,858.898 H 1207.558 V 0 H 0 Z"
         transform="translate(-395.52941,-134.3735)"
         id="path3394" />
    </clipPath>
    <clipPath
       clipPathUnits="userSpaceOnUse"
       id="clipPath3396">
      <path
         d="M 0,858.898 H 1207.558 V 0 H 0 Z"
         transform="translate(-395.24071,-168.1919)"
         id="path3396" />
    </clipPath>
    <clipPath
       clipPathUnits="userSpaceOnUse"
       id="clipPath3398">
      <path
         d="M 0,858.898 H 1207.558 V 0 H 0 Z"
         transform="translate(-395.24071,-163.022)"
         id="path3398" />
    </clipPath>
  </defs>
  <g
     id="layer1"
     transform="translate(-125.88388,-173.97592)">
    <path
       id="path3327"
       d="M 0,0 0.645,-1.491 1.232,-1.222 0.347,0.835 -0.14,0.626 C -0.159,0.477 -0.229,0.308 -0.368,0.139 -0.507,-0.04 -0.647,-0.169 -0.785,-0.278 l 0.159,-0.348 C -0.368,-0.447 -0.159,-0.218 0,0"
       style="fill:#335aa7;fill-opacity:1;fill-rule:nonzero;stroke:none"
       transform="matrix(0.35277776,0,0,-0.35277776,131.20768,177.17684)"
       clip-path="url(#clipPath3328)" />
    <path
       id="path3329"
       d="M 0,0 C 0.14,0.18 0.439,0.196 0.626,0.089 0.745,0.02 0.795,-0.08 0.825,-0.219 0.835,-0.348 0.805,-0.437 0.745,-0.527 0.58,-0.672 0.307,-0.719 0.109,-0.607 0.02,-0.557 -0.04,-0.457 -0.069,-0.318 -0.08,-0.179 -0.069,-0.07 0,0 m -0.327,-0.884 c 0.208,-0.11 0.436,-0.14 0.705,-0.11 0.238,0.04 0.427,0.139 0.566,0.278 C 0.964,-0.974 0.935,-1.153 0.855,-1.252 0.66,-1.424 0.248,-1.541 0.129,-1.223 l -0.616,-0.139 c 0.069,-0.179 0.199,-0.308 0.378,-0.357 0.447,-0.207 1.18,0.021 1.491,0.347 0.189,0.209 0.258,0.527 0.208,0.935 C 1.53,-0.05 1.382,0.228 1.133,0.367 0.664,0.635 -0.066,0.545 -0.467,0.188 -0.656,0.02 -0.725,-0.179 -0.695,-0.398 c 0.03,-0.228 0.158,-0.387 0.368,-0.486"
       style="fill:#335aa7;fill-opacity:1;fill-rule:nonzero;stroke:none"
       transform="matrix(0.35277776,0,0,-0.35277776,132.0594,176.84368)"
       clip-path="url(#clipPath3330)" />
    <path
       id="path3331"
       d="M 0,0 C 0.029,0.268 0.07,0.447 0.128,0.557 0.219,0.76 0.534,0.827 0.695,0.666 0.901,0.529 0.848,0.117 0.825,-0.08 0.794,-0.348 0.755,-0.527 0.695,-0.636 0.611,-0.825 0.278,-0.893 0.128,-0.745 -0.08,-0.606 -0.032,-0.197 0,0 M 1.073,-1.024 C 1.311,-0.875 1.451,-0.586 1.5,-0.169 1.55,0.268 1.48,0.576 1.272,0.785 0.955,1.141 0.16,1.222 -0.239,0.964 -0.468,0.795 -0.617,0.507 -0.666,0.09 c -0.038,-0.303 -0.01,-0.707 0.208,-0.925 0.345,-0.364 1.104,-0.473 1.531,-0.189"
       style="fill:#335aa7;fill-opacity:1;fill-rule:nonzero;stroke:none"
       transform="matrix(0.35277776,0,0,-0.35277776,133.04823,177.02956)"
       clip-path="url(#clipPath3332)" />
    <path
       id="path3333"
       d="M 0,0 0.567,-0.218 C 0.637,-0.04 0.775,0.139 0.954,0.348 1.143,0.546 1.361,0.715 1.61,0.855 1.878,0.994 2.117,1.093 2.326,1.133 L 2.435,1.421 0.388,2.226 0.239,1.858 1.6,1.312 C 1.222,1.183 0.905,1.003 0.607,0.785 0.318,0.546 0.12,0.278 0,0"
       style="fill:#335aa7;fill-opacity:1;fill-rule:nonzero;stroke:none"
       transform="matrix(0.35277776,0,0,-0.35277776,133.78078,177.55541)"
       clip-path="url(#clipPath3334)" />
    <path
       id="path3335"
       d="m 0,0 c 0.059,-0.04 0.198,-0.04 0.377,-0.059 0.279,-0.04 0.627,-0.08 0.736,-0.04 0.129,0.04 0.259,0.139 0.298,0.178 0.04,0.06 0.03,0.139 -0.089,0.179 C 1.272,0.278 1.212,0.238 1.143,0.218 0.924,0.208 0.685,0.149 0.487,0.189 0.417,0.208 0.377,0.238 0.368,0.278 0.338,0.328 0.377,0.398 0.377,0.467 0.368,0.536 0.328,0.626 0.268,0.626 0.169,0.636 0.099,0.536 0.049,0.467 -0.021,0.417 -0.05,0.377 -0.05,0.189 -0.07,0.109 -0.07,0.05 0,0"
       style="fill:#335aa7;fill-opacity:1;fill-rule:nonzero;stroke:none"
       transform="matrix(0.35277776,0,0,-0.35277776,131.63176,175.00669)"
       clip-path="url(#clipPath3336)" />
    <path
       id="path3337"
       d="m 0,0 c 0.07,-0.06 0.119,-0.08 0.178,0.337 0.041,0.488 0.07,0.488 0.011,0.835 -0.02,0.259 -0.298,0.507 -0.418,0.537 -0.089,0.02 -0.148,-0.04 -0.248,-0.14 -0.099,-0.078 -0.04,-0.486 -0.169,-0.655 -0.01,0.02 -0.049,0.07 -0.08,0.159 -0.029,0.07 -0.059,0.169 -0.129,0.189 -0.069,0.03 -0.079,-0.05 -0.119,-0.119 -0.099,-0.14 -0.169,-0.229 -0.208,-0.249 -0.16,-0.089 -0.1,0.229 -0.21,0.348 C -1.48,1.331 -1.57,1.143 -1.56,0.974 c 0,-0.099 0.059,-0.248 0.069,-0.348 0.011,-0.08 0.011,-0.239 0.031,-0.289 0.049,-0.158 0.099,-0.347 0.187,-0.477 0.1,-0.128 0.23,-0.069 0.17,0.209 -0.009,0.139 -0.179,0.448 -0.079,0.587 0.079,0.099 0.189,0.099 0.248,0.029 0.079,-0.069 0.079,-0.268 0.139,-0.327 0.06,-0.07 0.139,0.059 0.2,0.138 0.019,0.05 0.019,0.17 0.068,0.329 0.01,0.079 0.069,0.149 0.09,0.228 0.049,0.129 0.06,0.239 0.139,0.239 0.139,0.019 0.199,-0.14 0.238,-0.209 0.031,-0.099 0.04,-0.169 0.07,-0.308 0.03,-0.09 0,-0.398 0,-0.596 C 0,0.079 -0.02,0.03 0,0"
       style="fill:#335aa7;fill-opacity:1;fill-rule:nonzero;stroke:none"
       transform="matrix(0.35277776,0,0,-0.35277776,131.81048,175.82697)"
       clip-path="url(#clipPath3338)" />
    <path
       id="path3339"
       d="M 0,0 C 0.159,-0.05 0.527,-0.119 0.676,-0.109 1.024,-0.069 1.163,0.179 1.223,0.169 1.262,0.169 1.331,0.1 1.372,0.06 1.401,0.02 1.51,-0.178 1.62,-0.178 1.74,-0.169 1.848,-0.119 1.789,0.07 1.749,0.179 1.67,0.179 1.55,0.367 c -0.02,0.05 0.05,0.19 0.09,0.18 0.04,-0.02 0.447,-0.03 0.487,0.01 0.039,0.04 0.099,0.228 0.08,0.268 0,0.04 -0.249,0.189 -0.289,0.249 C 1.878,1.133 1.51,1.55 1.412,1.591 1.303,1.631 1.262,1.631 1.203,1.591 1.154,1.531 1.063,1.452 1.043,1.422 1.014,1.382 1.123,1.292 1.192,1.242 1.262,1.183 1.342,1.074 1.431,1.044 1.501,1.004 1.64,1.014 1.61,0.935 1.6,0.865 1.401,0.726 1.331,0.736 1.133,0.756 0.984,1.014 0.775,1.183 0.716,1.242 0.607,1.242 0.527,1.272 0.457,1.312 0.418,1.252 0.397,1.213 c 0,-0.06 0.06,-0.11 0.07,-0.179 0.03,-0.09 0.1,-0.11 0.199,-0.179 C 0.805,0.756 0.984,0.597 1.024,0.527 1.054,0.457 1.123,0.388 0.944,0.308 0.775,0.229 0.567,0.159 0.369,0.229 0.19,0.298 0.07,0.448 0.04,0.557 0.01,0.657 -0.06,0.527 -0.099,0.438 -0.129,0.338 -0.228,0.229 -0.199,0.159 -0.169,0.09 -0.159,0.04 0,0"
       style="fill:#335aa7;fill-opacity:1;fill-rule:nonzero;stroke:none"
       transform="matrix(0.35277776,0,0,-0.35277776,136.73624,177.71681)"
       clip-path="url(#clipPath3340)" />
    <path
       id="path3341"
       d="m 0,0 c 0.09,0.02 0.17,0.069 0.228,0.09 0.04,0 0.219,-0.199 0.349,-0.299 C 0.696,-0.298 1.103,-0.805 1.183,-0.855 1.392,-0.974 1.63,-1.342 1.66,-1.391 1.69,-1.411 1.7,-1.471 1.65,-1.501 1.531,-1.57 1.551,-1.57 1.56,-1.62 c 0.031,-0.059 0.268,-0.238 0.349,-0.268 0.089,-0.01 0.308,0.01 0.347,0.079 0.04,0.06 -0.039,0.119 -0.079,0.169 -0.06,0.07 -0.04,0.209 -0.16,0.278 -0.108,0.061 -0.536,0.577 -0.526,0.587 0,0.03 0.279,0.079 0.348,0.04 0.07,-0.03 0.07,-0.149 0.169,-0.169 0.079,-0.01 0.079,0.02 0.149,0.03 0.089,0.03 0.089,-0.01 0.407,0 0.309,0.019 0.348,0.069 0.417,0.168 0.061,0.08 0.08,0.199 0,0.338 C 2.902,-0.249 2.485,-0.12 2.395,-0.069 2.256,0.02 2.385,0.09 2.355,0.139 2.326,0.189 2.217,0.169 2.147,0.239 2.077,0.298 2.077,0.377 2.108,0.408 2.137,0.437 2.157,0.487 2.077,0.547 2.008,0.606 2.008,0.536 1.828,0.536 1.66,0.536 1.63,0.517 1.63,0.467 1.63,0.408 1.65,0.338 1.56,0.328 1.411,0.298 1.342,0.258 1.272,0.169 1.162,0.03 1.103,0 1.103,-0.04 c 0,-0.029 0.059,-0.04 0.11,-0.04 C 1.253,-0.09 1.491,0.03 1.58,0.06 1.65,0.099 1.868,0.159 1.909,0.13 1.949,0.09 1.968,0.02 1.928,-0.01 1.879,-0.04 1.868,-0.02 1.798,0 1.719,0.02 1.461,-0.08 1.372,-0.149 c -0.1,-0.07 -0.13,-0.149 -0.07,-0.209 0.07,-0.069 0.577,-0.069 0.706,-0.059 0.06,0.019 0.079,0.159 0.248,0.168 0.089,0 0.199,-0.078 0.269,-0.139 0.069,-0.05 0.119,-0.039 0.109,-0.109 0,-0.06 -0.109,-0.069 -0.198,-0.08 -0.07,-0.02 -0.11,0.011 -0.11,0.08 0,0.07 -0.01,0.08 -0.109,0.07 -0.109,0 -0.219,-0.1 -0.358,-0.139 -0.159,-0.031 -0.467,-0.07 -0.536,-0.07 -0.07,0 -0.389,0.477 -0.459,0.556 C 0.795,0 0.815,0.05 0.825,0.09 c 0,0.049 0.586,0.377 0.796,0.466 0.207,0.12 0.247,0.199 0.238,0.308 C 1.839,0.994 1.6,0.924 1.481,0.835 1.352,0.755 1.074,0.536 1.004,0.447 0.925,0.377 0.815,0.268 0.766,0.278 0.676,0.328 0.676,0.517 0.626,0.576 0.607,0.646 0.547,0.646 0.438,0.626 0.328,0.616 0.239,0.477 -0.049,0.308 -0.179,0.239 -0.258,0.209 -0.298,0.169 -0.358,0.119 -0.347,0.05 -0.317,0 -0.258,-0.069 -0.089,-0.02 0,0"
       style="fill:#335aa7;fill-opacity:1;fill-rule:nonzero;stroke:none"
       transform="matrix(0.35277776,0,0,-0.35277776,137.11131,176.94189)"
       clip-path="url(#clipPath3342)" />
    <path
       id="path3343"
       d="m 0,0 c 0.149,0.218 0.09,0.427 -0.168,0.566 -0.09,0.04 -0.03,-0.169 -0.03,-0.348 0.009,-0.01 0,-0.199 -0.01,-0.268 -0.03,-0.069 0,-0.278 0.208,0.05"
       style="fill:#335aa7;fill-opacity:1;fill-rule:nonzero;stroke:none"
       transform="matrix(0.35277776,0,0,-0.35277776,130.76572,175.2415)"
       clip-path="url(#clipPath3344)" />
    <path
       id="path3345"
       d="M 0,0 C 0.08,-0.03 0.15,-0.02 0.239,-0.03 0.269,0 0.278,0.009 0.288,0.04 0.169,0.179 0,0.487 -0.079,0.457 -0.109,0.417 -0.139,0.397 -0.178,0.328 -0.239,0.238 -0.199,0.119 0,0"
       style="fill:#335aa7;fill-opacity:1;fill-rule:nonzero;stroke:none"
       transform="matrix(0.35277776,0,0,-0.35277776,130.72014,174.98211)"
       clip-path="url(#clipPath3346)" />
    <path
       id="path3347"
       d="m 0,0 c 0.069,0 0.228,0.13 0.487,0.179 0.277,0.06 0.467,0.189 0.586,0.278 0.139,0.1 0.407,0.378 0.457,0.408 0.07,0.03 0.587,-0.348 0.715,-0.338 0.07,0.02 0.18,0.119 0.259,0.198 0.099,0.08 0.049,0.17 -0.089,0.18 -0.13,0.029 -0.407,0.129 -0.557,0.228 -0.159,0.08 -0.03,0.159 0.04,0.249 0.07,0.079 0.457,0.427 0.655,0.626 0.209,0.188 0.23,0.308 0.209,0.357 -0.019,0.07 -0.188,0.1 -0.337,0.04 C 2.276,2.356 1.927,2.117 1.67,1.828 1.44,1.53 1.391,1.431 1.302,1.491 1.232,1.52 1.242,1.501 1.073,1.59 0.894,1.67 0.785,1.67 0.626,1.699 0.477,1.73 0.298,1.59 0.259,1.501 0.198,1.391 0.268,1.391 0.347,1.312 0.438,1.242 0.785,1.173 0.864,1.173 0.934,1.183 1.023,1.153 1.004,1.103 0.994,1.064 0.576,0.735 0.417,0.626 0.268,0.517 -0.04,0.298 -0.109,0.229 -0.229,0.09 -0.07,-0.009 0,0"
       style="fill:#335aa7;fill-opacity:1;fill-rule:nonzero;stroke:none"
       transform="matrix(0.35277776,0,0,-0.35277776,134.19113,175.81308)"
       clip-path="url(#clipPath3348)" />
    <path
       id="path3349"
       d="m 0,0 c -0.029,0.1 -0.139,0.1 -0.148,0.01 0,-0.079 0.207,-0.666 0.238,-1.044 0.02,-0.317 0.039,-0.636 0.069,-0.953 0.049,-0.18 0.318,-0.528 0.388,-0.487 0.069,0.03 0.109,0.079 0.04,0.357 -0.06,0.279 -0.129,0.557 -0.199,0.855 v 0.437 C 0.367,-0.725 0.159,-0.458 0,0"
       style="fill:#335aa7;fill-opacity:1;fill-rule:nonzero;stroke:none"
       transform="matrix(0.35277776,0,0,-0.35277776,130.73415,175.36081)"
       clip-path="url(#clipPath3350)" />
    <path
       id="path3351"
       d="m 0,0 c 0,-0.199 0.04,-0.348 0.17,-0.368 0.149,-0.01 0.248,0.16 0.307,0.239 0.05,0.069 0.14,0.318 0.18,0.596 0.03,0.189 -0.031,0.377 0.03,0.537 C 0.736,1.143 0.835,1.222 0.964,1.351 1.004,1.322 1.014,1.252 1.014,1.183 1.004,1.053 0.915,1.014 0.894,0.934 0.845,0.844 0.864,0.705 0.935,0.675 1.143,0.606 1.192,0.974 1.192,1.282 1.192,1.401 1.143,1.53 1.173,1.629 1.192,1.739 1.362,1.818 1.392,1.779 1.432,1.679 1.472,1.54 1.56,1.371 1.63,1.222 1.779,1.073 1.849,1.043 2.147,0.944 2.018,1.163 2.018,1.331 2.008,1.392 1.958,1.371 1.948,1.392 1.889,1.392 1.819,1.351 1.77,1.401 1.71,1.461 1.53,1.849 1.541,1.908 1.56,1.977 1.71,2.057 1.749,2.127 1.8,2.206 1.749,2.335 1.71,2.325 1.67,2.306 1.213,1.789 1.153,1.739 c -0.049,-0.06 -0.11,-0.04 -0.149,0 -0.04,0.029 -0.059,0.248 0.258,0.696 0.1,0.139 0.07,0.149 0,0.188 -0.049,0.05 -0.139,-0.049 -0.219,-0.049 -0.098,0 -0.168,0.029 -0.179,0.069 -0.019,0.07 0,0.15 -0.019,0.219 C 0.766,3.031 0.517,2.932 0.389,2.783 0.269,2.613 -0.099,1.878 0.06,1.768 0.199,1.669 0.378,2.017 0.517,2.157 0.696,2.325 0.835,2.335 0.875,2.335 1.014,2.325 0.687,1.779 0.796,1.371 0.825,1.292 0.636,1.153 0.566,1.212 0.557,1.232 0.389,1.49 0.269,1.53 0.199,1.54 0.109,1.282 0.219,1.153 0.279,0.984 0.596,1.073 0.109,0.427 0,0.308 0,0.119 0,0"
       style="fill:#335aa7;fill-opacity:1;fill-rule:nonzero;stroke:none"
       transform="matrix(0.35277776,0,0,-0.35277776,130.96547,175.54655)"
       clip-path="url(#clipPath3352)" />
    <path
       id="path3353"
       d="m 0,0 c -0.02,0.069 -0.09,0.179 -0.169,0.199 -0.158,0.039 -0.368,-0.308 -0.347,-0.378 0.009,-0.08 0.039,-0.169 0.099,-0.149 C -0.367,-0.318 0.01,-0.169 0,0"
       style="fill:#335aa7;fill-opacity:1;fill-rule:nonzero;stroke:none"
       transform="matrix(0.35277776,0,0,-0.35277776,128.23797,177.10315)"
       clip-path="url(#clipPath3354)" />
    <path
       id="path3355"
       d="m 0,0 c 0,0 0.438,-0.408 0.417,-0.388 0.299,-0.308 0.587,-0.586 0.706,-0.626 0.139,-0.05 0.349,-0.01 0.308,0.069 -0.148,0.279 -0.586,0.557 -0.774,0.806 -0.249,0.347 -0.557,0.586 -0.806,0.904 -0.06,0.07 -0.129,0.199 -0.189,0.278 -0.02,0.05 -0.039,0.129 0,0.229 0.049,0.079 0.14,0.179 0.21,0.288 0.158,0.238 0.327,0.448 0.436,0.656 0.04,0.079 0.169,0.169 0.19,0.179 C 0.587,2.464 0.765,2.434 0.875,2.414 0.985,2.385 1.352,2.067 1.799,1.629 2.087,1.351 2.157,1.371 2.257,1.023 2.287,0.894 2.127,0.934 2.117,0.884 2.057,0.725 2.057,0.586 2.376,0.486 2.435,0.477 2.564,0.407 2.613,0.447 2.674,0.486 2.644,0.556 2.604,0.685 2.475,1.063 2.534,1.232 2.187,1.719 2.028,1.928 1.66,2.295 1.253,2.593 0.894,2.852 0.517,3.061 0.289,2.901 0.079,2.742 0.149,2.633 0.1,2.454 0.04,2.325 -0.04,2.226 -0.149,2.146 -0.278,2.037 -0.546,1.838 -0.666,1.649 -0.725,1.55 -0.894,1.59 -0.934,1.51 -0.974,1.421 -1.013,1.341 -0.983,1.252 -0.875,0.835 0,0 0,0"
       style="fill:#335aa7;fill-opacity:1;fill-rule:nonzero;stroke:none"
       transform="matrix(0.35277776,0,0,-0.35277776,127.99603,177.60437)"
       clip-path="url(#clipPath3356)" />
    <path
       id="path3357"
       d="m 0,0 c -0.069,0 -0.138,-0.149 -0.178,-0.218 -0.03,-0.061 0.01,-0.18 0.029,-0.309 0.011,-0.119 0.179,-0.427 0.258,-0.487 0.09,-0.04 0.16,0.07 0.268,0.248 0.111,0.199 0.111,0.199 -0.028,0.408 C 0.219,-0.149 0.13,-0.01 0,0"
       style="fill:#335aa7;fill-opacity:1;fill-rule:nonzero;stroke:none"
       transform="matrix(0.35277776,0,0,-0.35277776,134.77628,175.74989)"
       clip-path="url(#clipPath3358)" />
    <path
       id="path3359"
       d="M 0,0 C 0,0.02 0.239,-0.079 0.308,-0.079 0.378,0.07 0.477,0.308 0.368,0.487 0.308,0.586 0.239,0.517 0.1,0.487 -0.04,0.477 -0.228,0.447 -0.259,0.417 -0.387,0.278 -0.417,0.189 -0.606,0 c 0.04,0 -0.039,-0.149 0.01,-0.228 0.06,-0.09 0.159,-0.17 0.268,-0.21 0.109,-0.029 0.358,-0.099 0.447,0.15 0.04,0.129 -0.139,0.198 -0.189,0.219 V 0 Z"
       style="fill:#335aa7;fill-opacity:1;fill-rule:nonzero;stroke:none"
       transform="matrix(0.35277776,0,0,-0.35277776,128.41672,177.38368)"
       clip-path="url(#clipPath3360)" />
    <path
       id="path3361"
       d="m 0,0 c 0.171,0.021 0.392,-0.009 0.56,-0.033 0.328,-0.04 0.663,-0.106 0.693,-0.106 0.158,-0.069 0,-0.308 -0.061,-0.627 -0.059,-0.297 -0.208,-0.645 -0.317,-0.616 -0.109,0.02 -0.219,0.06 -0.328,0.12 -0.25,0.14 -0.538,0.473 -0.636,0.745 C -0.169,-0.249 -0.408,-0.099 0,0 M 0.622,2.469 C 0.178,3.126 0.023,3.971 0.159,4.75 0.267,5.44 0.243,5.747 0.389,5.928 0.449,6.002 0.59,6.098 0.672,6.146 0.829,6.238 1.016,6.28 1.203,6.032 1.61,5.505 1.789,5.287 2.068,5.148 c 0.158,-0.09 0.457,-0.07 0.655,-0.07 0.109,0 0.199,0 0.179,-0.03 C 2.872,4.949 2.823,4.631 2.723,4.253 2.643,3.915 2.525,3.548 2.415,3.24 2.157,2.574 2.018,1.54 1.819,1.51 1.64,1.482 1.1,1.759 0.622,2.469 M 1.62,7.692 c 0.376,0.64 1.298,0.997 2.007,1.023 0.239,0.02 0.388,0 0.388,-0.079 C 3.999,8.171 3.754,7.652 3.614,7.213 3.535,6.964 3.423,6.681 3.319,6.37 3.141,5.813 3.349,5.635 2.862,5.565 2.317,5.565 2.084,5.732 1.828,6.251 1.64,6.668 1.153,6.827 1.62,7.692 M 2.723,0.745 C 3.194,0.714 3.43,0.72 3.646,0.229 3.807,-0.138 3.944,-0.664 3.896,-0.875 3.782,-1.271 3.032,-2.054 2.723,-2.286 2.654,-2.335 2.584,-2.385 2.525,-2.405 2.157,-2.544 2.097,-2.286 1.858,-2.147 1.62,-1.988 1.362,-2.017 1.391,-1.769 1.411,-1.6 1.6,-1.014 1.809,-0.418 1.858,-0.239 2.296,-0.586 2.445,-0.249 2.515,-0.06 2.107,0.487 2.157,0.626 2.196,0.765 2.475,0.775 2.723,0.745 m 1.392,-2.514 c 0.04,0.03 0.098,0.04 0.128,0.03 0.053,0 0.514,-1.1 0.598,-1.273 C 4.883,-3.095 4.886,-3.154 4.82,-3.22 4.687,-3.3 3.861,-3.23 3.627,-3.16 3.428,-3.121 3.29,-3.031 3.389,-2.733 c 0.039,0.139 0.139,0.308 0.238,0.467 0.16,0.219 0.349,0.417 0.488,0.497 m 0.754,0.706 c 0.148,0.169 0.18,0.099 0.537,-0.07 C 5.699,-1.277 5.929,-1.424 6.202,-1.56 6.4,-1.66 6.479,-1.799 6.341,-2.335 6.191,-2.892 6.072,-3.24 5.863,-3.27 5.494,-3.352 5.377,-2.786 5.307,-2.544 5.147,-2.017 5.019,-1.839 4.919,-1.56 4.831,-1.339 4.71,-1.263 4.869,-1.063 m 0.427,6.012 c 0.041,0.358 0.1,0.904 0.299,1.103 l 0.011,0.01 c 0.029,0.03 0.049,0.04 0.099,0.06 C 5.958,6.182 6.655,5.401 6.966,5.168 7.203,5.055 7.616,5.093 7.854,5.055 7.919,5.045 8.04,5.034 8.04,4.949 8.04,4.885 7.999,4.563 7.923,4.151 7.9,4.03 7.88,3.91 7.857,3.788 7.688,2.86 7.444,1.719 7.304,1.719 7.223,1.719 7.095,1.766 6.952,1.843 5.929,2.397 5.154,3.781 5.296,4.949 m 1.489,3.323 c 0.3,0.384 0.628,0.648 1.069,0.844 0.237,0.106 1.375,0.545 1.428,0.106 0,0 0.08,-0.328 -0.238,-1.182 C 8.726,7.155 8.457,5.704 8.249,5.615 7.929,5.495 7.279,5.747 7.136,5.992 6.711,6.661 6.202,7.526 6.785,8.272 M 8.041,0.375 C 8.16,0.304 8.289,0.194 8.438,0.109 8.755,-0.06 8.995,-0.169 9.044,-0.835 9.1,-1.445 9.458,-1.914 9.548,-2.182 9.679,-2.575 8.752,-3.274 8.457,-3.399 8.049,-3.585 6.955,-3.877 6.689,-3.478 c -0.206,0.322 -0.037,0.722 0.149,1.236 0.055,0.154 0.093,0.316 0.139,0.473 0.199,0.765 0.268,0.735 0.377,1.282 C 7.463,0.069 7.523,0.328 7.702,0.417 7.829,0.49 7.932,0.44 8.041,0.375 M 9.74,-3.043 C 9.879,-3.03 10.031,-3.078 9.978,-3.3 9.925,-3.535 9.904,-3.563 9.676,-3.649 9.624,-3.668 9.573,-3.684 9.519,-3.701 9.237,-3.789 9.079,-3.709 9.173,-3.538 c 0.064,0.129 0.204,0.316 0.35,0.422 0.06,0.044 0.145,0.066 0.217,0.073 M 6.519,0.954 C 6.549,1.165 7.011,0.781 7.076,0.715 7.255,0.606 7.206,0.507 7.106,0.139 7.057,-0.084 7.028,-0.604 6.868,-0.663 6.858,-0.666 6.842,-0.667 6.831,-0.667 6.655,-0.662 6.608,-0.11 6.579,0.179 6.549,0.467 6.449,0.497 6.519,0.954 m 4.304,-3.011 c 0.182,0.122 0.368,0.24 0.542,0.375 0.164,0.128 0.303,0.238 0.451,0.331 0.109,0.069 0.279,0.109 0.348,0 0.031,-0.047 0.039,-0.124 0.021,-0.236 -0.011,-0.072 -0.033,-0.141 -0.051,-0.212 -0.209,-0.586 -0.347,-1.65 -0.666,-1.679 -0.066,0 -0.13,-0.004 -0.196,0.006 -0.332,0.053 -0.759,0.255 -0.797,0.521 -0.07,0.317 -0.07,0.635 0.348,0.894 M 11.2,3.637 c 0.056,0.412 0.151,0.829 0.257,1.231 0.133,0.51 0.286,0.929 0.359,1.055 0.12,0.238 0.209,0.099 0.348,-0.03 0.225,-0.18 1.043,-0.711 1.223,-0.676 0.138,0.01 0.308,0.05 0.338,0.07 0,-0.458 -0.182,-1.132 -0.279,-1.59 C 13.347,3.369 13.307,2.723 13.198,2.325 13.158,2.176 13.108,2.067 13.038,2.018 12.838,1.89 12.404,1.915 12.164,1.967 11.346,2.084 11.119,2.889 11.2,3.637 m 1.799,4.403 c 0.199,0.279 0.457,0.503 0.726,0.715 0.228,0.199 0.466,0.368 0.645,0.467 0.408,0.229 0.438,-0.228 0.348,-0.487 C 14.638,8.467 14.321,7.503 14.221,7.076 14.142,6.628 14.013,5.962 13.844,5.883 13.642,5.783 13.38,5.841 13.198,5.952 12.949,6.102 12.731,6.41 12.691,6.897 12.651,7.562 12.77,7.662 12.999,8.04 m -0.835,-8.557 c -0.099,0.01 -0.209,0.169 -0.417,0.557 -0.16,0.288 -0.249,0.725 0.04,0.984 0.138,0.129 0.268,0.199 0.377,0.208 0.14,0.028 0.249,-0.007 0.378,-0.049 0.159,-0.06 0.249,-0.17 0.139,-0.617 -0.06,-0.288 -0.099,-0.497 -0.139,-0.655 -0.062,-0.124 -0.217,-0.448 -0.378,-0.428 m 1.561,1.839 c 0.298,0.109 0.715,0.159 0.993,0.159 0.378,0 0.785,-1.412 0.785,-1.71 0,-0.288 -0.377,-1.153 -0.616,-1.411 -0.169,-0.199 -0.636,-0.616 -1.162,-0.924 -0.292,-0.146 -0.872,-0.432 -1.183,-0.457 -0.04,0 -0.07,0 -0.09,0.01 -0.099,0.03 -0.138,0.149 -0.119,0.437 0,0.219 0.05,0.457 0.119,0.686 0.02,0.109 0.06,0.209 0.09,0.318 0.089,0.348 0.209,0.666 0.258,0.914 0.089,0.368 0.18,1.103 0.398,1.55 0.069,0.13 0.149,0.239 0.248,0.298 0.07,0.04 0.159,0.08 0.279,0.13 m 2.206,-2.385 c 0.815,0.961 0.877,2.348 0.854,3.538 -0.05,1.162 -0.119,2.394 0.02,2.186 0.16,-0.199 0.537,-1.729 0.537,-2.495 -0.025,-1.26 -0.029,-1.871 -0.536,-2.651 -0.216,-0.333 -0.471,-0.615 -0.717,-0.926 -0.575,-0.457 -0.447,-0.12 -0.158,0.348 m 0.697,9.343 c 0.171,0.277 0.374,0.562 0.525,0.714 0.348,0.317 0.487,0 0.478,-0.179 C 17.6,8.467 17.312,8.178 17.103,8.04 16.59,7.664 16.678,7.348 16.576,7.215 16.554,7.184 16.52,7.144 16.476,7.156 c -0.095,0.027 -0.128,0.259 -0.128,0.466 0,0.192 0.173,0.486 0.28,0.658 M -2.912,4.144 c -0.199,-1.411 -0.586,-2.266 0.031,-3.617 0.625,-1.362 3.109,-3.976 3.109,-3.976 0,0 -0.109,-0.308 -0.219,-0.576 -0.108,-0.258 0.14,-0.328 0.289,-0.328 0.08,0 0.205,0.22 0.249,0.298 0.089,0.179 0.168,0.368 0.168,0.368 C 1.024,-3.936 1.898,-4.453 2.723,-4.8 3.44,-5.114 4.074,-5.176 4.838,-5.248 5.25,-5.287 5.446,-5.318 5.376,-5.486 5.327,-5.606 5.327,-5.734 5.268,-5.844 c -0.03,-0.139 -0.1,-0.337 -0.1,-0.337 0.14,-0.123 0.36,-0.208 0.488,-0.035 0.06,0.079 0.14,0.26 0.168,0.491 0.059,0.279 0.138,0.378 0.138,0.378 1.21,-0.086 2.395,-0.049 3.608,-0.049 h 1.392 c 0,0 -0.011,-0.159 -0.09,-0.368 -0.089,-0.189 -0.03,-0.139 -0.03,-0.348 0,0 0.271,-0.117 0.452,0.027 0.208,0.166 0.148,0.6 0.254,0.838 0.017,0.026 0.187,0.052 0.482,0.118 0.964,0.215 1.874,0.721 2.688,1.263 0.951,0.66 2.346,1.951 2.925,2.934 0.496,0.844 0.668,1.737 0.792,2.095 0.179,0.506 0.03,1.202 -0.259,2.077 -0.277,0.874 -0.606,2.057 -0.785,2.782 -0.169,0.736 -0.238,1.322 -0.029,1.64 0.208,0.318 0.238,0.348 0.537,0.189 0.277,-0.14 0.387,-0.457 0.277,-1.729 -0.128,-1.372 0.021,-1.67 0.389,-0.855 0.327,0.765 0.277,1.57 0.327,2.087 0.06,0.526 0.159,1.004 0.278,1.252 0.119,0.268 -0.218,1.66 -0.675,2.365 -0.772,1.157 -1.867,2.344 -2.95,3.262 -0.552,0.468 -1.129,0.87 -1.682,1.105 -0.211,0.09 -0.441,0.17 -0.665,0.214 -0.417,0.09 -0.428,-0.019 0,-0.258 0.173,-0.096 0.354,-0.179 0.527,-0.278 1.138,-0.671 2.174,-2.106 2.878,-3.255 C 17.27,10.677 17.451,9.888 17.451,9.888 16.662,9.534 16.033,8.742 15.821,7.911 15.474,6.519 15.623,0.775 15.623,0.775 15.602,0.884 15.225,2.067 15.016,2.166 14.818,2.246 14.162,2.037 13.725,2.126 h -0.021 c -0.238,0.072 0.325,2.264 0.527,3.071 0.05,0.18 0.447,0.1 0.487,0.666 0,0.189 -0.248,0.338 -0.208,0.507 0.417,1.481 0.815,2.713 0.953,2.753 1.253,0.397 0.021,0.636 0.021,0.636 0,0 -0.388,0.099 -0.846,-0.04 C 14.53,9.679 14.301,9.59 14.023,9.451 13.972,9.58 13.864,9.759 13.725,9.938 13.467,10.259 12.999,10.677 12.524,10.735 12.376,10.754 12.068,10.726 11.955,10.613 11.538,10.176 11.797,9.958 12.164,9.848 12.498,9.7 12.875,9.736 13.198,9.53 13.357,9.431 13.506,9.321 13.665,9.272 13.516,9.193 13.357,9.103 13.198,9.013 12.708,8.716 12.053,8.32 11.727,7.831 11.058,6.674 10.293,5.401 9.918,4.144 9.501,2.733 9.898,1.024 10.157,0.626 10.405,0.208 11.17,-0.437 10.992,-1.004 10.912,-1.292 10.405,-1.898 10.216,-1.868 10.008,-1.839 9.838,-0.378 9.689,0.04 9.643,0.132 9.546,0.23 9.469,0.302 8.999,0.755 7.95,1.361 7.95,1.361 7.921,1.401 7.9,1.471 7.9,1.54 v 0.169 c 0.05,0.746 0.557,2.335 0.657,2.922 0.02,0.099 0.039,0.238 0.079,0.397 0.05,0.169 0.467,0.03 0.377,0.557 -0.009,0.119 -0.109,0.407 -0.088,0.467 0.208,0.686 0.437,1.451 0.636,2.027 0,0 0,0.01 0.009,0.02 0.159,0.458 0.279,0.805 0.328,0.865 0.11,0.198 0.536,0.347 0.666,0.368 0.328,0.029 0.288,0.218 0.11,0.417 -0.04,0.045 -0.167,0.093 -0.352,0.129 C 9.749,9.993 9.071,10.026 8.527,9.798 8.164,9.658 7.737,9.645 7.354,9.61 7.148,9.558 6.678,10.435 6.479,10.594 6.318,10.726 5.869,10.949 5.637,10.729 5.46,10.559 5.395,10.077 5.626,9.922 5.78,9.819 6.045,9.825 6.311,9.749 6.649,9.64 6.768,9.342 6.689,9.193 6.41,8.705 6.072,8.397 5.794,8.01 4.864,6.731 3.818,4.811 4.293,3.21 4.56,2.424 4.856,1.736 5.307,1.043 5.446,0.815 5.576,0.249 5.576,-0.05 5.576,-0.388 5.021,-0.36 4.789,-0.381 4.483,-0.408 4.35,-0.395 4.243,0.278 4.204,0.527 4.155,0.706 4.115,0.825 V 0.834 C 3.888,1.401 3.198,1.223 2.723,1.223 c -0.139,0 -0.268,0.009 -0.308,0.039 -0.1,0.04 0.09,0.735 0.308,1.561 0.219,0.814 0.517,1.768 0.636,2.255 0.03,0.07 0.164,0.049 0.268,0.08 0.05,0.01 0.09,0.029 0.13,0.069 0.019,0.06 0.049,0.288 0.039,0.418 C 3.787,5.724 3.697,5.744 3.627,5.764 3.604,5.778 3.568,5.813 3.588,5.863 3.599,5.919 3.613,5.977 3.627,6.032 3.791,6.543 3.964,7.05 4.129,7.559 4.261,7.962 4.364,8.25 4.383,8.288 4.401,8.383 4.6,8.35 4.757,8.36 4.819,8.364 4.867,8.372 4.922,8.406 5.062,8.496 5.092,8.811 4.851,8.971 4.665,9.093 4.324,9.083 4.115,9.083 H 3.627 c -0.357,0 -0.725,0 -0.904,0.02 C 2.239,9.264 2.482,9.8 2.097,10.037 1.302,10.514 1.133,9.858 1.391,9.54 1.709,9.162 1.948,9.371 1.998,8.844 2.027,8.654 -0.04,6.902 -0.347,6.44 -0.676,5.933 -1.113,4.193 -0.974,3.409 -0.834,2.614 -0.765,2.097 -0.089,1.391 0.09,1.202 0.328,1.053 0.537,0.944 h 0.01 C 0.845,0.775 1.113,0.666 1.113,0.576 1.113,0.517 0.865,0.507 0.547,0.497 0.414,0.497 0.249,0.485 0.119,0.457 -0.198,0.417 -0.447,0.258 -0.616,0.229 -0.815,0.208 -1.74,1.024 -1.978,1.928 -2.216,2.832 -1.481,4.71 -1.391,5.267 -1.312,5.824 -1.6,9.133 -1.6,9.431 c 0,0.288 0.368,0.636 1.043,0.666 0.528,0.03 0.876,-0.338 1.094,-0.457 L 0.547,9.629 C 0.616,9.61 0.656,9.59 0.696,9.61 c 0.189,0.039 0.228,0.496 -0.149,0.993 0,0 -0.01,0 -0.01,0.01 -0.04,0.04 -0.08,0.09 -0.139,0.149 -0.517,0.557 -1.014,0.349 -1.153,0.587 -0.149,0.238 0.268,0.288 0.636,0.665 0.377,0.378 0.347,0.846 0.09,1.303 -0.269,0.477 -1.362,0.695 -1.313,0.407 0.061,-0.288 0.438,-0.546 0.348,-1.073 -0.109,-0.716 -0.636,-0.815 -1.163,-1.332 -0.517,-0.527 -1.043,-0.666 -0.815,-2.325 0.189,-1.252 0.269,-3.459 0.06,-4.85"
       style="fill:#335aa7;fill-opacity:1;fill-rule:nonzero;stroke:none"
       transform="matrix(0.35277776,0,0,-0.35277776,130.00492,183.03853)"
       clip-path="url(#clipPath3362)" />
    <path
       id="path3363"
       d="M 0,0 C 0.032,-0.215 0.037,-0.496 -0.09,-0.686 -0.287,-0.851 -0.531,-0.987 -0.746,-1.133 -0.948,-1.249 -1,-1.173 -1.113,-0.994 l -0.487,0.745 0.506,0.327 c 0.3,0.181 0.376,0.102 0.587,-0.108 l 0.049,0.04 -0.516,0.795 -0.069,-0.04 C -0.861,0.481 -0.945,0.372 -1.183,0.189 L -1.68,-0.129 -2.266,0.775 -1.64,1.182 c 0.11,0.079 0.199,0.12 0.248,0.139 0.069,0.01 0.139,0 0.199,-0.029 0.059,-0.031 0.138,-0.09 0.238,-0.199 l 0.07,0.04 -0.348,0.487 -1.769,-1.134 0.04,-0.069 c 0.093,0.052 0.209,0.15 0.319,0.12 0.058,-0.021 0.128,-0.091 0.228,-0.249 l 0.974,-1.471 c 0.075,-0.118 0.156,-0.224 0.099,-0.367 -0.03,-0.051 -0.069,-0.091 -0.13,-0.14 l -0.079,-0.05 0.04,-0.059 1.77,1.132 L 0.07,0.04 Z"
       style="fill:#335aa7;fill-opacity:1;fill-rule:nonzero;stroke:none"
       transform="matrix(0.35277776,0,0,-0.35277776,136.27721,185.75195)"
       clip-path="url(#clipPath3364)" />
    <path
       id="path3365"
       d="m 0,0 c -0.123,-0.247 -0.292,-0.184 -0.488,-0.07 l -1.57,0.795 c -0.158,0.08 -0.237,0.14 -0.268,0.189 -0.053,0.126 0.024,0.234 0.07,0.348 l -0.07,0.03 -0.526,-1.043 0.069,-0.031 0.04,0.09 c 0.143,0.24 0.281,0.195 0.497,0.069 l 1.579,-0.794 c 0.209,-0.098 0.351,-0.205 0.23,-0.447 l -0.051,-0.1 0.07,-0.02 0.538,1.043 -0.07,0.02 z"
       style="fill:#335aa7;fill-opacity:1;fill-rule:nonzero;stroke:none"
       transform="matrix(0.35277776,0,0,-0.35277776,138.49283,183.39265)"
       clip-path="url(#clipPath3366)" />
    <path
       id="path3367"
       d="m 0,0 2.077,0.149 0.03,-0.387 c 0.01,-0.109 0,-0.209 -0.03,-0.279 -0.04,-0.069 -0.08,-0.129 -0.169,-0.169 -0.04,-0.04 -0.119,-0.059 -0.239,-0.08 L 1.689,-0.834 2.315,-0.766 2.157,1.451 1.521,1.441 V 1.362 c 0.128,0 0.219,-0.02 0.307,-0.06 0.07,-0.06 0.119,-0.109 0.149,-0.179 0.031,-0.04 0.04,-0.139 0.06,-0.268 L 2.047,0.536 -0.021,0.388 c -0.158,-0.02 -0.257,0 -0.307,0.029 -0.07,0.041 -0.11,0.119 -0.11,0.229 l -0.02,0.1 -0.069,-0.011 0.089,-1.152 0.07,0.01 v 0.079 c -0.02,0.119 0.01,0.199 0.049,0.258 C -0.278,-0.03 -0.16,-0.02 0,0"
       style="fill:#335aa7;fill-opacity:1;fill-rule:nonzero;stroke:none"
       transform="matrix(0.35277776,0,0,-0.35277776,126.62545,181.24712)"
       clip-path="url(#clipPath3368)" />
    <path
       id="path3369"
       d="m 0,0 0.03,-0.07 c 0.06,0.021 0.101,0.03 0.166,0.022 C 0.4,-0.072 0.393,-0.23 0.378,-0.487 l -0.089,-1.689 -1.183,1.291 c -0.232,0.233 -0.306,0.365 0.03,0.517 l -0.01,0.07 -1.064,-0.368 0.02,-0.07 c 0.24,0.091 0.373,-0.007 0.527,-0.178 l 1.738,-1.909 0.071,0.031 0.149,2.504 c 0,0.219 0.042,0.393 0.248,0.496 l -0.02,0.07 z"
       style="fill:#335aa7;fill-opacity:1;fill-rule:nonzero;stroke:none"
       transform="matrix(0.35277776,0,0,-0.35277776,134.7869,185.7836)"
       clip-path="url(#clipPath3370)" />
    <path
       id="path3371"
       d="m 0,0 c 0.079,-0.01 0.149,-0.07 0.209,-0.179 l 0.04,-0.08 0.07,0.02 -0.428,0.855 -0.069,-0.03 C -0.127,0.482 -0.048,0.368 -0.099,0.248 -0.128,0.199 -0.208,0.139 -0.358,0.059 l -1.411,-0.716 1.073,2.426 -0.336,0.656 -0.07,-0.03 C -0.974,2.214 -1.013,1.962 -1.113,1.779 L -2.793,0.924 C -2.931,0.854 -3.03,0.825 -3.091,0.825 -3.217,0.84 -3.268,0.986 -3.329,1.083 l -0.069,-0.04 0.437,-0.844 0.069,0.04 -0.059,0.079 c -0.04,0.099 -0.049,0.189 -0.03,0.258 0.03,0.04 0.119,0.109 0.268,0.179 l 1.491,0.765 -1.142,-2.603 0.039,-0.06 2.047,1.043 C -0.139,-0.03 -0.04,0 0,0"
       style="fill:#335aa7;fill-opacity:1;fill-rule:nonzero;stroke:none"
       transform="matrix(0.35277776,0,0,-0.35277776,128.16776,183.72214)"
       clip-path="url(#clipPath3372)" />
    <path
       id="path3373"
       d="m 0,0 c -0.238,0.11 -0.387,0.298 -0.457,0.527 -0.06,0.238 -0.03,0.447 0.11,0.646 C 0.05,1.725 1.752,2.221 2.018,1.202 2.277,0.239 0.642,-0.321 0,0 M 2.018,0.208 C 2.39,0.838 2.228,1.59 1.581,2.008 0.92,2.403 -0.057,2.194 -0.457,1.521 -0.645,1.202 -0.696,0.865 -0.596,0.507 -0.292,-0.746 1.408,-0.766 2.018,0.208"
       style="fill:#335aa7;fill-opacity:1;fill-rule:nonzero;stroke:none"
       transform="matrix(0.35277776,0,0,-0.35277776,126.85314,182.65294)"
       clip-path="url(#clipPath3374)" />
    <path
       id="path3375"
       d="m 0,0 0.645,0.527 c 0.11,0.099 0.19,0.158 0.249,0.168 0.08,0.01 0.149,-0.029 0.219,-0.109 L 1.162,0.556 1.212,0.596 0.536,1.421 0.477,1.361 C 0.546,1.281 0.586,1.212 0.586,1.172 0.606,1.113 0.606,1.073 0.586,1.032 0.557,0.983 0.507,0.913 0.397,0.834 L -0.209,0.318 c -0.089,0.039 -0.179,0.09 -0.259,0.139 -0.089,0.059 -0.158,0.129 -0.228,0.199 -0.109,0.138 -0.179,0.288 -0.208,0.487 -0.02,0.188 0.019,0.387 0.119,0.606 0.089,0.208 0.248,0.407 0.438,0.576 C -0.09,2.534 0.169,2.643 0.447,2.683 0.765,2.712 1.043,2.604 1.272,2.335 1.441,2.146 1.51,1.938 1.491,1.709 1.48,1.54 1.421,1.381 1.302,1.182 L 1.342,1.123 1.968,1.739 1.908,1.798 C 1.859,1.749 1.809,1.739 1.789,1.728 1.759,1.728 1.728,1.739 1.719,1.749 1.7,1.778 1.67,1.818 1.649,1.908 1.59,2.047 1.55,2.156 1.51,2.235 1.461,2.305 1.421,2.375 1.351,2.464 1.172,2.673 0.974,2.812 0.765,2.892 -0.062,3.178 -0.999,2.686 -1.183,1.818 -1.262,1.391 -1.134,0.974 -0.785,0.566 -0.676,0.427 -0.557,0.318 -0.428,0.218 -0.298,0.139 -0.149,0.059 0,0"
       style="fill:#335aa7;fill-opacity:1;fill-rule:nonzero;stroke:none"
       transform="matrix(0.35277776,0,0,-0.35277776,128.2942,185.20854)"
       clip-path="url(#clipPath3376)" />
    <path
       id="path3377"
       d="m 0,0 -0.339,1.739 c -0.039,0.159 -0.039,0.269 -0.009,0.327 0.04,0.07 0.109,0.11 0.219,0.14 l 0.099,0.01 -0.01,0.069 -1.153,-0.219 0.011,-0.07 C -0.845,2.031 -0.81,2.03 -0.726,1.67 l 0.338,-1.74 c 0.061,-0.245 0.056,-0.385 -0.209,-0.457 l -0.089,-0.011 0.02,-0.069 1.143,0.219 -0.019,0.069 C 0.093,-0.355 0.082,-0.327 0,0"
       style="fill:#335aa7;fill-opacity:1;fill-rule:nonzero;stroke:none"
       transform="matrix(0.35277776,0,0,-0.35277776,133.84399,186.86327)"
       clip-path="url(#clipPath3378)" />
    <path
       id="path3379"
       d="m 0,0 c 0.079,0.01 0.169,-0.019 0.247,-0.089 l 0.08,-0.049 0.05,0.049 -0.903,0.745 -0.061,-0.06 0.08,-0.069 c 0.049,-0.039 0.089,-0.099 0.119,-0.149 0.01,-0.05 0.01,-0.089 0.01,-0.129 C -0.388,0.209 -0.447,0.14 -0.526,0.03 L -1.71,-1.421 C -1.779,-1.52 -1.839,-1.56 -1.898,-1.57 c -0.05,-0.02 -0.091,-0.02 -0.12,0.01 -0.03,0.03 -0.039,0.09 -0.02,0.159 0.03,0.12 0.049,0.209 0.03,0.248 0,0.051 -0.03,0.079 -0.049,0.11 -0.05,0.039 -0.1,0.059 -0.169,0.059 -0.04,-0.02 -0.089,-0.05 -0.13,-0.09 -0.05,-0.069 -0.069,-0.149 -0.05,-0.237 0.011,-0.09 0.08,-0.18 0.18,-0.259 0.109,-0.099 0.248,-0.158 0.387,-0.139 0.149,0 0.279,0.04 0.388,0.109 0.128,0.07 0.248,0.179 0.377,0.349 l 0.835,1.023 C -0.129,-0.089 -0.06,-0.019 0,0"
       style="fill:#335aa7;fill-opacity:1;fill-rule:nonzero;stroke:none"
       transform="matrix(0.35277776,0,0,-0.35277776,129.52829,185.14923)"
       clip-path="url(#clipPath3380)" />
    <path
       id="path3381"
       d="m 0,0 0.079,-0.059 c 0.061,-0.03 0.1,-0.069 0.14,-0.13 0.02,-0.039 0.03,-0.079 0.03,-0.119 -0.01,-0.039 -0.05,-0.13 -0.109,-0.249 l -0.895,-1.52 c -0.079,-0.139 -0.139,-0.218 -0.189,-0.238 -0.088,-0.04 -0.169,-0.021 -0.268,0.029 l -0.08,0.06 -0.04,-0.069 1.015,-0.586 0.039,0.069 -0.08,0.039 c -0.059,0.041 -0.099,0.09 -0.138,0.139 -0.03,0.041 -0.03,0.09 -0.03,0.109 0,0.061 0.039,0.14 0.109,0.259 l 0.894,1.511 c 0.08,0.139 0.139,0.229 0.189,0.248 0.07,0.03 0.17,0.02 0.268,-0.04 l 0.08,-0.039 0.029,0.06 L 0.04,0.05 Z"
       style="fill:#335aa7;fill-opacity:1;fill-rule:nonzero;stroke:none"
       transform="matrix(0.35277776,0,0,-0.35277776,129.86113,185.33493)"
       clip-path="url(#clipPath3382)" />
    <path
       id="path3383"
       d="m 0,0 c -0.02,-0.099 -0.07,-0.168 -0.14,-0.199 -0.049,-0.029 -0.149,-0.029 -0.317,0.031 l -2.018,0.526 0.099,0.377 c 0.04,0.11 0.07,0.19 0.13,0.249 0.107,0.128 0.305,0.137 0.457,0.109 l 0.03,0.07 -0.626,0.139 -0.587,-2.156 0.608,-0.189 0.028,0.079 c -0.119,0.04 -0.208,0.08 -0.258,0.149 -0.059,0.07 -0.099,0.139 -0.099,0.209 0,0.198 0.072,0.414 0.119,0.606 l 2.017,-0.546 c 0.227,-0.057 0.38,-0.125 0.308,-0.388 L -0.278,-1.033 -0.189,-1.043 0.1,0.069 0.03,0.09 Z"
       style="fill:#335aa7;fill-opacity:1;fill-rule:nonzero;stroke:none"
       transform="matrix(0.35277776,0,0,-0.35277776,138.82934,182.40053)"
       clip-path="url(#clipPath3384)" />
    <path
       id="path3385"
       d="m 0,0 h -0.09 l -0.069,-0.944 0.089,-0.01 c 0,0.07 0.01,0.119 0.02,0.169 0.128,0.085 0.163,0.135 0.323,0.044 0.041,-0.023 0.088,-0.055 0.144,-0.094 L 1.222,-1.431 0.298,-1.928 c -0.131,-0.065 -0.296,-0.189 -0.397,-0.02 -0.03,0.06 -0.041,0.12 -0.03,0.169 v 0.07 H -0.2 l -0.079,-1.163 h 0.07 c 0,0.05 0.009,0.079 0.02,0.11 0.119,0.198 0.197,0.242 0.408,0.347 l 1.192,0.666 0.646,-0.039 c 0.22,-0.03 0.401,-0.04 0.378,-0.319 v -0.099 h 0.069 l 0.079,1.153 -0.069,0.01 -0.01,-0.09 C 2.458,-1.416 2.355,-1.418 2.087,-1.401 l -0.686,0.04 -0.984,0.735 c -0.181,0.125 -0.438,0.334 -0.438,0.576 z"
       style="fill:#335aa7;fill-opacity:1;fill-rule:nonzero;stroke:none"
       transform="matrix(0.35277776,0,0,-0.35277776,138.1597,180.70014)"
       clip-path="url(#clipPath3386)" />
    <path
       id="path3387"
       d="m 0,0 0.099,-0.03 c 0.1,-0.03 0.169,-0.07 0.209,-0.14 0.03,-0.05 0.01,-0.169 -0.03,-0.327 L 0.01,-1.571 c -0.069,-0.277 -0.139,-0.477 -0.218,-0.586 -0.194,-0.241 -0.565,-0.271 -0.846,-0.208 -0.574,0.122 -0.564,0.594 -0.467,1.083 l 0.299,1.153 c 0.039,0.158 0.068,0.238 0.119,0.277 0.06,0.06 0.159,0.07 0.259,0.05 l 0.109,-0.029 0.01,0.07 -1.144,0.287 -0.019,-0.069 C -1.764,0.423 -1.661,0.412 -1.59,0.288 -1.56,0.239 -1.56,0.129 -1.6,-0.03 l -0.269,-1.024 c -0.069,-0.328 -0.109,-0.547 -0.089,-0.675 0.088,-0.826 1.437,-1.171 1.918,-0.497 0.08,0.129 0.169,0.337 0.218,0.596 l 0.28,1.073 c 0.029,0.149 0.069,0.239 0.108,0.279 0.069,0.069 0.169,0.099 0.269,0.069 L 0.944,-0.239 0.963,-0.17 0.01,0.069 Z"
       style="fill:#335aa7;fill-opacity:1;fill-rule:nonzero;stroke:none"
       transform="matrix(0.35277776,0,0,-0.35277776,131.6773,186.08148)"
       clip-path="url(#clipPath3388)" />
    <path
       id="path3389"
       d="m 0,0 c -0.403,-0.11 -0.809,-0.465 -1.223,-0.497 -0.079,-0.02 -0.168,0.009 -0.237,0.049 -0.339,0.297 -0.105,0.732 0.228,0.885 0.277,0.126 0.522,0.061 0.785,-0.07 l 0.049,0.05 -0.785,0.547 -0.04,-0.06 c 0.067,-0.066 0.091,-0.118 0.06,-0.209 -0.029,-0.029 -0.069,-0.05 -0.139,-0.099 -0.303,-0.171 -0.58,-0.54 -0.507,-0.904 0.069,-0.48 0.494,-0.689 0.924,-0.557 0.119,0.03 0.298,0.119 0.536,0.229 0.24,0.119 0.389,0.188 0.458,0.209 0.14,0.046 0.326,0.057 0.448,-0.04 0.403,-0.257 0.071,-0.802 -0.249,-0.974 -0.129,-0.06 -0.238,-0.09 -0.348,-0.09 -0.129,0.021 -0.268,0.06 -0.447,0.139 l -0.04,-0.049 0.765,-0.547 0.04,0.061 c -0.04,0.039 -0.069,0.078 -0.069,0.108 -0.011,0.029 0,0.05 0.019,0.079 0.01,0.031 0.08,0.09 0.189,0.169 0.311,0.227 0.587,0.555 0.527,0.974 C 0.853,-0.099 0.483,0.111 0,0"
       style="fill:#335aa7;fill-opacity:1;fill-rule:nonzero;stroke:none"
       transform="matrix(0.35277776,0,0,-0.35277776,137.68641,183.99205)"
       clip-path="url(#clipPath3390)" />
    <path
       id="path3391"
       d="m 0,0 c -0.032,-0.29 -0.204,-0.433 -0.388,-0.616 l -0.198,0.208 -0.587,0.617 c 0.227,0.356 0.674,0.609 1.014,0.238 C -0.03,0.319 0.03,0.169 0,0 M 1.6,-0.387 C 1.491,-0.417 1.322,-0.408 1.113,-0.368 l -0.965,0.17 c 0.214,0.303 0.306,0.693 0,0.973 -0.436,0.437 -0.94,0.073 -1.3,-0.288 l -0.716,-0.685 0.059,-0.05 0.07,0.069 c 0.069,0.07 0.149,0.11 0.218,0.089 0.06,0 0.16,-0.069 0.269,-0.188 l 0.666,-0.696 0.556,-0.566 c 0.231,-0.251 0.245,-0.342 0.01,-0.577 l 0.05,-0.049 0.845,0.815 -0.06,0.059 C 0.624,-1.537 0.466,-1.5 0.249,-1.281 l -0.547,0.566 c 0.07,0.07 0.139,0.139 0.208,0.208 l 1.551,-0.278 0.527,0.507 -0.06,0.05 C 1.818,-0.319 1.699,-0.377 1.6,-0.387"
       style="fill:#335aa7;fill-opacity:1;fill-rule:nonzero;stroke:none"
       transform="matrix(0.35277776,0,0,-0.35277776,136.77483,184.92825)"
       clip-path="url(#clipPath3392)" />
    <path
       id="path3393"
       d="m 0,0 h 0.098 c 0.11,0 0.169,-0.04 0.219,-0.1 0.03,-0.04 0.04,-0.138 0.04,-0.298 l -0.049,-1.59 -1.581,2.117 -0.735,0.03 V 0.07 c 0.249,0 0.379,-0.124 0.527,-0.308 l -0.07,-1.889 c 0,-0.149 -0.03,-0.248 -0.049,-0.288 -0.06,-0.07 -0.15,-0.099 -0.259,-0.099 h -0.099 v -0.07 l 0.953,-0.029 v 0.069 h -0.099 c -0.1,0 -0.179,0.04 -0.219,0.099 -0.049,0.039 -0.059,0.149 -0.049,0.318 l 0.059,1.67 1.7,-2.256 h 0.07 l 0.089,2.296 c 0,0.159 0.01,0.248 0.049,0.297 0.061,0.106 0.231,0.09 0.338,0.09 L 0.944,0.04 0,0.089 Z"
       style="fill:#335aa7;fill-opacity:1;fill-rule:nonzero;stroke:none"
       transform="matrix(0.35277776,0,0,-0.35277776,132.88712,186.19028)"
       clip-path="url(#clipPath3394)" />
    <path
       id="path3395"
       d="m 0,0 c 10.331,0 18.758,-8.427 18.758,-18.758 0,-10.331 -8.427,-18.757 -18.758,-18.757 -10.331,0 -18.758,8.426 -18.758,18.757 C -18.758,-8.427 -10.331,0 0,0 m 0,-38.32 c 10.775,0 19.562,8.788 19.562,19.562 0,10.775 -8.787,19.563 -19.562,19.563 -10.775,0 -19.563,-8.788 -19.563,-19.563 0,-10.774 8.788,-19.562 19.563,-19.562"
       style="fill:#335aa7;fill-opacity:1;fill-rule:nonzero;stroke:none"
       transform="matrix(0.35277776,0,0,-0.35277776,132.78527,174.2599)"
       clip-path="url(#clipPath3396)" />
    <path
       id="path3397"
       d="m 0,0 c 7.49,0 13.598,-6.108 13.598,-13.598 0,-7.489 -6.108,-13.598 -13.598,-13.598 -7.49,0 -13.598,6.109 -13.598,13.598 C -13.598,-6.108 -7.49,0 0,0 m 0,-27.738 c 7.789,0 14.141,6.352 14.141,14.14 0,7.789 -6.352,14.142 -14.141,14.142 -7.789,0 -14.142,-6.353 -14.142,-14.142 0,-7.788 6.353,-14.14 14.142,-14.14"
       style="fill:#335aa7;fill-opacity:1;fill-rule:nonzero;stroke:none"
       transform="matrix(0.35277776,0,0,-0.35277776,132.78527,176.08373)"
       clip-path="url(#clipPath3398)" />
  </g>
</svg>
