<?xml version="1.0" encoding="UTF-8" standalone="no"?>
<!-- Created with Inkscape (http://www.inkscape.org/) -->

<svg
   width="13.549775mm"
   height="13.802339mm"
   viewBox="0 0 13.549775 13.802339"
   version="1.1"
   id="svg1"
   xmlns="http://www.w3.org/2000/svg"
   xmlns:svg="http://www.w3.org/2000/svg">
  <defs
     id="defs1">
    <clipPath
       clipPathUnits="userSpaceOnUse"
       id="clipPath2290">
      <path
         d="M 0,858.898 H 1207.558 V 0 H 0 Z"
         transform="translate(-164.0327,-229.15361)"
         id="path2290" />
    </clipPath>
    <clipPath
       clipPathUnits="userSpaceOnUse"
       id="clipPath2292">
      <path
         d="M 0,858.898 H 1207.558 V 0 H 0 Z"
         transform="translate(-165.7421,-228.68261)"
         id="path2292" />
    </clipPath>
    <clipPath
       clipPathUnits="userSpaceOnUse"
       id="clipPath2294">
      <path
         d="M 0,858.898 H 1207.558 V 0 H 0 Z"
         transform="translate(-163.91831,-228.3408)"
         id="path2294" />
    </clipPath>
    <clipPath
       clipPathUnits="userSpaceOnUse"
       id="clipPath2296">
      <path
         d="M 0,858.898 H 1207.558 V 0 H 0 Z"
         transform="translate(-165.1682,-228.37841)"
         id="path2296" />
    </clipPath>
    <clipPath
       clipPathUnits="userSpaceOnUse"
       id="clipPath2298">
      <path
         d="M 0,858.898 H 1207.558 V 0 H 0 Z"
         transform="translate(-169.68161,-227.97381)"
         id="path2298" />
    </clipPath>
    <clipPath
       clipPathUnits="userSpaceOnUse"
       id="clipPath2300">
      <path
         d="M 0,858.898 H 1207.558 V 0 H 0 Z"
         transform="translate(-170.3768,-227.93331)"
         id="path2300" />
    </clipPath>
    <clipPath
       clipPathUnits="userSpaceOnUse"
       id="clipPath2302">
      <path
         d="M 0,858.898 H 1207.558 V 0 H 0 Z"
         transform="translate(-159.8091,-227.76801)"
         id="path2302" />
    </clipPath>
    <clipPath
       clipPathUnits="userSpaceOnUse"
       id="clipPath2304">
      <path
         d="M 0,858.898 H 1207.558 V 0 H 0 Z"
         transform="translate(-165.0849,-227.7336)"
         id="path2304" />
    </clipPath>
    <clipPath
       clipPathUnits="userSpaceOnUse"
       id="clipPath2306">
      <path
         d="M 0,858.898 H 1207.558 V 0 H 0 Z"
         transform="translate(-170.7378,-227.2413)"
         id="path2306" />
    </clipPath>
    <clipPath
       clipPathUnits="userSpaceOnUse"
       id="clipPath2308">
      <path
         d="M 0,858.898 H 1207.558 V 0 H 0 Z"
         transform="translate(-158.69771,-227.44071)"
         id="path2308" />
    </clipPath>
    <clipPath
       clipPathUnits="userSpaceOnUse"
       id="clipPath2310">
      <path
         d="M 0,858.898 H 1207.558 V 0 H 0 Z"
         transform="translate(-169.55351,-227.09211)"
         id="path2310" />
    </clipPath>
    <clipPath
       clipPathUnits="userSpaceOnUse"
       id="clipPath2312">
      <path
         d="M 0,858.898 H 1207.558 V 0 H 0 Z"
         transform="translate(-159.9756,-226.24521)"
         id="path2312" />
    </clipPath>
    <clipPath
       clipPathUnits="userSpaceOnUse"
       id="clipPath2314">
      <path
         d="M 0,858.898 H 1207.558 V 0 H 0 Z"
         transform="translate(-173.9745,-224.48901)"
         id="path2314" />
    </clipPath>
    <clipPath
       clipPathUnits="userSpaceOnUse"
       id="clipPath2316">
      <path
         d="M 0,858.898 H 1207.558 V 0 H 0 Z"
         transform="translate(-154.6626,-224.90361)"
         id="path2316" />
    </clipPath>
    <clipPath
       clipPathUnits="userSpaceOnUse"
       id="clipPath2318">
      <path
         d="M 0,858.898 H 1207.558 V 0 H 0 Z"
         transform="translate(-175.707,-224.99121)"
         id="path2318" />
    </clipPath>
    <clipPath
       clipPathUnits="userSpaceOnUse"
       id="clipPath2320">
      <path
         d="M 0,858.898 H 1207.558 V 0 H 0 Z"
         transform="translate(-164.2677,-224.9928)"
         id="path2320" />
    </clipPath>
    <clipPath
       clipPathUnits="userSpaceOnUse"
       id="clipPath2322">
      <path
         d="M 0,858.898 H 1207.558 V 0 H 0 Z"
         transform="translate(-153.8397,-224.31)"
         id="path2322" />
    </clipPath>
    <clipPath
       clipPathUnits="userSpaceOnUse"
       id="clipPath2324">
      <path
         d="M 0,858.898 H 1207.558 V 0 H 0 Z"
         transform="translate(-155.8212,-224.58501)"
         id="path2324" />
    </clipPath>
    <clipPath
       clipPathUnits="userSpaceOnUse"
       id="clipPath2326">
      <path
         d="M 0,858.898 H 1207.558 V 0 H 0 Z"
         transform="translate(-178.32461,-222.0603)"
         id="path2326" />
    </clipPath>
    <clipPath
       clipPathUnits="userSpaceOnUse"
       id="clipPath2328">
      <path
         d="M 0,858.898 H 1207.558 V 0 H 0 Z"
         transform="translate(-150.5186,-220.40181)"
         id="path2328" />
    </clipPath>
    <clipPath
       clipPathUnits="userSpaceOnUse"
       id="clipPath2330">
      <path
         d="M 0,858.898 H 1207.558 V 0 H 0 Z"
         transform="translate(-178.1252,-221.88671)"
         id="path2330" />
    </clipPath>
    <clipPath
       clipPathUnits="userSpaceOnUse"
       id="clipPath2332">
      <path
         d="M 0,858.898 H 1207.558 V 0 H 0 Z"
         transform="translate(-177.7686,-221.46561)"
         id="path2332" />
    </clipPath>
    <clipPath
       clipPathUnits="userSpaceOnUse"
       id="clipPath2334">
      <path
         d="M 0,858.898 H 1207.558 V 0 H 0 Z"
         transform="translate(-151.5299,-221.43041)"
         id="path2334" />
    </clipPath>
    <clipPath
       clipPathUnits="userSpaceOnUse"
       id="clipPath2336">
      <path
         d="M 0,858.898 H 1207.558 V 0 H 0 Z"
         transform="translate(-179.0846,-221.05661)"
         id="path2336" />
    </clipPath>
    <clipPath
       clipPathUnits="userSpaceOnUse"
       id="clipPath2338">
      <path
         d="M 0,858.898 H 1207.558 V 0 H 0 Z"
         transform="translate(-180.5214,-217.14711)"
         id="path2338" />
    </clipPath>
    <clipPath
       clipPathUnits="userSpaceOnUse"
       id="clipPath2340">
      <path
         d="M 0,858.898 H 1207.558 V 0 H 0 Z"
         transform="translate(-148.77041,-216.0237)"
         id="path2340" />
    </clipPath>
    <clipPath
       clipPathUnits="userSpaceOnUse"
       id="clipPath2342">
      <path
         d="M 0,858.898 H 1207.558 V 0 H 0 Z"
         transform="translate(-181.6197,-216.91821)"
         id="path2342" />
    </clipPath>
    <clipPath
       clipPathUnits="userSpaceOnUse"
       id="clipPath2344">
      <path
         d="M 0,858.898 H 1207.558 V 0 H 0 Z"
         transform="translate(-180.9309,-216.63201)"
         id="path2344" />
    </clipPath>
    <clipPath
       clipPathUnits="userSpaceOnUse"
       id="clipPath2346">
      <path
         d="M 0,858.898 H 1207.558 V 0 H 0 Z"
         transform="translate(-181.4183,-216.64481)"
         id="path2346" />
    </clipPath>
    <clipPath
       clipPathUnits="userSpaceOnUse"
       id="clipPath2348">
      <path
         d="M 0,858.898 H 1207.558 V 0 H 0 Z"
         transform="translate(-155.0376,-211.85091)"
         id="path2348" />
    </clipPath>
    <clipPath
       clipPathUnits="userSpaceOnUse"
       id="clipPath2350">
      <path
         d="M 0,858.898 H 1207.558 V 0 H 0 Z"
         transform="translate(-174.1982,-211.46751)"
         id="path2350" />
    </clipPath>
    <clipPath
       clipPathUnits="userSpaceOnUse"
       id="clipPath2352">
      <path
         d="M 0,858.898 H 1207.558 V 0 H 0 Z"
         transform="translate(-159.52811,-211.16571)"
         id="path2352" />
    </clipPath>
    <clipPath
       clipPathUnits="userSpaceOnUse"
       id="clipPath2354">
      <path
         d="M 0,858.898 H 1207.558 V 0 H 0 Z"
         transform="translate(-165.02411,-209.43951)"
         id="path2354" />
    </clipPath>
    <clipPath
       clipPathUnits="userSpaceOnUse"
       id="clipPath2356">
      <path
         d="M 0,858.898 H 1207.558 V 0 H 0 Z"
         transform="translate(-169.0868,-211.80851)"
         id="path2356" />
    </clipPath>
    <clipPath
       clipPathUnits="userSpaceOnUse"
       id="clipPath2358">
      <path
         d="M 0,858.898 H 1207.558 V 0 H 0 Z"
         transform="translate(-147.34511,-210.74981)"
         id="path2358" />
    </clipPath>
    <clipPath
       clipPathUnits="userSpaceOnUse"
       id="clipPath2360">
      <path
         d="M 0,858.898 H 1207.558 V 0 H 0 Z"
         transform="translate(-182.5994,-210.95321)"
         id="path2360" />
    </clipPath>
    <clipPath
       clipPathUnits="userSpaceOnUse"
       id="clipPath2362">
      <path
         d="M 0,858.898 H 1207.558 V 0 H 0 Z"
         transform="translate(-182.15081,-209.604)"
         id="path2362" />
    </clipPath>
    <clipPath
       clipPathUnits="userSpaceOnUse"
       id="clipPath2364">
      <path
         d="M 0,858.898 H 1207.558 V 0 H 0 Z"
         transform="translate(-147.2987,-209.5608)"
         id="path2364" />
    </clipPath>
    <clipPath
       clipPathUnits="userSpaceOnUse"
       id="clipPath2366">
      <path
         d="M 0,858.898 H 1207.558 V 0 H 0 Z"
         transform="translate(-182.0307,-208.79991)"
         id="path2366" />
    </clipPath>
    <clipPath
       clipPathUnits="userSpaceOnUse"
       id="clipPath2368">
      <path
         d="M 0,858.898 H 1207.558 V 0 H 0 Z"
         transform="translate(-148.7027,-208.38411)"
         id="path2368" />
    </clipPath>
    <clipPath
       clipPathUnits="userSpaceOnUse"
       id="clipPath2370">
      <path
         d="M 0,858.898 H 1207.558 V 0 H 0 Z"
         transform="translate(-147.4016,-208.23281)"
         id="path2370" />
    </clipPath>
    <clipPath
       clipPathUnits="userSpaceOnUse"
       id="clipPath2372">
      <path
         d="M 0,858.898 H 1207.558 V 0 H 0 Z"
         transform="translate(-147.48161,-207.63201)"
         id="path2372" />
    </clipPath>
    <clipPath
       clipPathUnits="userSpaceOnUse"
       id="clipPath2374">
      <path
         d="M 0,858.898 H 1207.558 V 0 H 0 Z"
         transform="translate(-181.79261,-207.43271)"
         id="path2374" />
    </clipPath>
    <clipPath
       clipPathUnits="userSpaceOnUse"
       id="clipPath2376">
      <path
         d="M 0,858.898 H 1207.558 V 0 H 0 Z"
         transform="translate(-148.40051,-206.35211)"
         id="path2376" />
    </clipPath>
    <clipPath
       clipPathUnits="userSpaceOnUse"
       id="clipPath2378">
      <path
         d="M 0,858.898 H 1207.558 V 0 H 0 Z"
         transform="translate(-181.6877,-206.1024)"
         id="path2378" />
    </clipPath>
    <clipPath
       clipPathUnits="userSpaceOnUse"
       id="clipPath2380">
      <path
         d="M 0,858.898 H 1207.558 V 0 H 0 Z"
         transform="translate(-148.58831,-205.22471)"
         id="path2380" />
    </clipPath>
    <clipPath
       clipPathUnits="userSpaceOnUse"
       id="clipPath2382">
      <path
         d="M 0,858.898 H 1207.558 V 0 H 0 Z"
         transform="translate(-180.9489,-205.3599)"
         id="path2382" />
    </clipPath>
    <clipPath
       clipPathUnits="userSpaceOnUse"
       id="clipPath2384">
      <path
         d="M 0,858.898 H 1207.558 V 0 H 0 Z"
         transform="translate(-181.2995,-205.2291)"
         id="path2384" />
    </clipPath>
    <clipPath
       clipPathUnits="userSpaceOnUse"
       id="clipPath2386">
      <path
         d="M 0,858.898 H 1207.558 V 0 H 0 Z"
         transform="translate(-181.0673,-204.06921)"
         id="path2386" />
    </clipPath>
    <clipPath
       clipPathUnits="userSpaceOnUse"
       id="clipPath2388">
      <path
         d="M 0,858.898 H 1207.558 V 0 H 0 Z"
         transform="translate(-149.0361,-204.13641)"
         id="path2388" />
    </clipPath>
    <clipPath
       clipPathUnits="userSpaceOnUse"
       id="clipPath2390">
      <path
         d="M 0,858.898 H 1207.558 V 0 H 0 Z"
         transform="translate(-180.5118,-203.84751)"
         id="path2390" />
    </clipPath>
    <clipPath
       clipPathUnits="userSpaceOnUse"
       id="clipPath2392">
      <path
         d="M 0,858.898 H 1207.558 V 0 H 0 Z"
         transform="translate(-149.9154,-202.2786)"
         id="path2392" />
    </clipPath>
    <clipPath
       clipPathUnits="userSpaceOnUse"
       id="clipPath2394">
      <path
         d="M 0,858.898 H 1207.558 V 0 H 0 Z"
         transform="translate(-179.4984,-202.0536)"
         id="path2394" />
    </clipPath>
    <clipPath
       clipPathUnits="userSpaceOnUse"
       id="clipPath2396">
      <path
         d="M 0,858.898 H 1207.558 V 0 H 0 Z"
         transform="translate(-150.46691,-201.12791)"
         id="path2396" />
    </clipPath>
    <clipPath
       clipPathUnits="userSpaceOnUse"
       id="clipPath2398">
      <path
         d="M 0,858.898 H 1207.558 V 0 H 0 Z"
         transform="translate(-179.9783,-200.92541)"
         id="path2398" />
    </clipPath>
    <clipPath
       clipPathUnits="userSpaceOnUse"
       id="clipPath2400">
      <path
         d="M 0,858.898 H 1207.558 V 0 H 0 Z"
         transform="translate(-179.0294,-200.45391)"
         id="path2400" />
    </clipPath>
    <clipPath
       clipPathUnits="userSpaceOnUse"
       id="clipPath2402">
      <path
         d="M 0,858.898 H 1207.558 V 0 H 0 Z"
         transform="translate(-151.0028,-200.12651)"
         id="path2402" />
    </clipPath>
    <clipPath
       clipPathUnits="userSpaceOnUse"
       id="clipPath2404">
      <path
         d="M 0,858.898 H 1207.558 V 0 H 0 Z"
         transform="translate(-178.3562,-199.54301)"
         id="path2404" />
    </clipPath>
    <clipPath
       clipPathUnits="userSpaceOnUse"
       id="clipPath2406">
      <path
         d="M 0,858.898 H 1207.558 V 0 H 0 Z"
         transform="translate(-151.7717,-199.22081)"
         id="path2406" />
    </clipPath>
    <clipPath
       clipPathUnits="userSpaceOnUse"
       id="clipPath2408">
      <path
         d="M 0,858.898 H 1207.558 V 0 H 0 Z"
         transform="translate(-152.2451,-197.8904)"
         id="path2408" />
    </clipPath>
    <clipPath
       clipPathUnits="userSpaceOnUse"
       id="clipPath2410">
      <path
         d="M 0,858.898 H 1207.558 V 0 H 0 Z"
         transform="translate(-177.6242,-198.4344)"
         id="path2410" />
    </clipPath>
    <clipPath
       clipPathUnits="userSpaceOnUse"
       id="clipPath2412">
      <path
         d="M 0,858.898 H 1207.558 V 0 H 0 Z"
         transform="translate(-152.8827,-196.9715)"
         id="path2412" />
    </clipPath>
    <clipPath
       clipPathUnits="userSpaceOnUse"
       id="clipPath2414">
      <path
         d="M 0,858.898 H 1207.558 V 0 H 0 Z"
         transform="translate(-176.54351,-197.5955)"
         id="path2414" />
    </clipPath>
    <clipPath
       clipPathUnits="userSpaceOnUse"
       id="clipPath2416">
      <path
         d="M 0,858.898 H 1207.558 V 0 H 0 Z"
         transform="translate(-153.7032,-196.5281)"
         id="path2416" />
    </clipPath>
    <clipPath
       clipPathUnits="userSpaceOnUse"
       id="clipPath2418">
      <path
         d="M 0,858.898 H 1207.558 V 0 H 0 Z"
         transform="translate(-154.434,-195.6243)"
         id="path2418" />
    </clipPath>
    <clipPath
       clipPathUnits="userSpaceOnUse"
       id="clipPath2420">
      <path
         d="M 0,858.898 H 1207.558 V 0 H 0 Z"
         transform="translate(-174.8678,-196.05101)"
         id="path2420" />
    </clipPath>
    <clipPath
       clipPathUnits="userSpaceOnUse"
       id="clipPath2422">
      <path
         d="M 0,858.898 H 1207.558 V 0 H 0 Z"
         transform="translate(-174.0989,-195.5159)"
         id="path2422" />
    </clipPath>
    <clipPath
       clipPathUnits="userSpaceOnUse"
       id="clipPath2424">
      <path
         d="M 0,858.898 H 1207.558 V 0 H 0 Z"
         transform="translate(-156.69011,-194.8415)"
         id="path2424" />
    </clipPath>
    <clipPath
       clipPathUnits="userSpaceOnUse"
       id="clipPath2426">
      <path
         d="M 0,858.898 H 1207.558 V 0 H 0 Z"
         transform="translate(-173.10881,-194.9235)"
         id="path2426" />
    </clipPath>
    <clipPath
       clipPathUnits="userSpaceOnUse"
       id="clipPath2428">
      <path
         d="M 0,858.898 H 1207.558 V 0 H 0 Z"
         transform="translate(-172.18301,-195.0572)"
         id="path2428" />
    </clipPath>
    <clipPath
       clipPathUnits="userSpaceOnUse"
       id="clipPath2430">
      <path
         d="M 0,858.898 H 1207.558 V 0 H 0 Z"
         transform="translate(-172.3635,-194.7218)"
         id="path2430" />
    </clipPath>
    <clipPath
       clipPathUnits="userSpaceOnUse"
       id="clipPath2432">
      <path
         d="M 0,858.898 H 1207.558 V 0 H 0 Z"
         transform="translate(-157.62071,-194.2628)"
         id="path2432" />
    </clipPath>
    <clipPath
       clipPathUnits="userSpaceOnUse"
       id="clipPath2434">
      <path
         d="M 0,858.898 H 1207.558 V 0 H 0 Z"
         transform="translate(-171.96971,-194.53091)"
         id="path2434" />
    </clipPath>
    <clipPath
       clipPathUnits="userSpaceOnUse"
       id="clipPath2436">
      <path
         d="M 0,858.898 H 1207.558 V 0 H 0 Z"
         transform="translate(-158.7797,-193.3542)"
         id="path2436" />
    </clipPath>
    <clipPath
       clipPathUnits="userSpaceOnUse"
       id="clipPath2438">
      <path
         d="M 0,858.898 H 1207.558 V 0 H 0 Z"
         transform="translate(-159.97361,-193.3266)"
         id="path2438" />
    </clipPath>
    <clipPath
       clipPathUnits="userSpaceOnUse"
       id="clipPath2440">
      <path
         d="M 0,858.898 H 1207.558 V 0 H 0 Z"
         transform="translate(-168.7751,-193.86371)"
         id="path2440" />
    </clipPath>
    <clipPath
       clipPathUnits="userSpaceOnUse"
       id="clipPath2442">
      <path
         d="M 0,858.898 H 1207.558 V 0 H 0 Z"
         transform="translate(-170.29991,-193.77131)"
         id="path2442" />
    </clipPath>
    <clipPath
       clipPathUnits="userSpaceOnUse"
       id="clipPath2444">
      <path
         d="M 0,858.898 H 1207.558 V 0 H 0 Z"
         transform="translate(-167.534,-193.6332)"
         id="path2444" />
    </clipPath>
    <clipPath
       clipPathUnits="userSpaceOnUse"
       id="clipPath2446">
      <path
         d="M 0,858.898 H 1207.558 V 0 H 0 Z"
         transform="translate(-161.42801,-193.34021)"
         id="path2446" />
    </clipPath>
    <clipPath
       clipPathUnits="userSpaceOnUse"
       id="clipPath2448">
      <path
         d="M 0,858.898 H 1207.558 V 0 H 0 Z"
         transform="translate(-162.4122,-193.32221)"
         id="path2448" />
    </clipPath>
    <clipPath
       clipPathUnits="userSpaceOnUse"
       id="clipPath2450">
      <path
         d="M 0,858.898 H 1207.558 V 0 H 0 Z"
         transform="translate(-166.623,-193.0224)"
         id="path2450" />
    </clipPath>
    <clipPath
       clipPathUnits="userSpaceOnUse"
       id="clipPath2452">
      <path
         d="M 0,858.898 H 1207.558 V 0 H 0 Z"
         transform="translate(-164.2272,-193.12811)"
         id="path2452" />
    </clipPath>
    <clipPath
       clipPathUnits="userSpaceOnUse"
       id="clipPath2454">
      <path
         d="M 0,858.898 H 1207.558 V 0 H 0 Z"
         transform="translate(-158.3915,-222.9909)"
         id="path2454" />
    </clipPath>
    <clipPath
       clipPathUnits="userSpaceOnUse"
       id="clipPath2456">
      <path
         d="M 0,858.898 H 1207.558 V 0 H 0 Z"
         transform="translate(-174.31271,-216.56201)"
         id="path2456" />
    </clipPath>
    <clipPath
       clipPathUnits="userSpaceOnUse"
       id="clipPath2458">
      <path
         d="M 0,858.898 H 1207.558 V 0 H 0 Z"
         transform="translate(-159.8792,-215.1936)"
         id="path2458" />
    </clipPath>
    <clipPath
       clipPathUnits="userSpaceOnUse"
       id="clipPath2460">
      <path
         d="M 0,858.898 H 1207.558 V 0 H 0 Z"
         transform="translate(-179.4792,-206.5506)"
         id="path2460" />
    </clipPath>
  </defs>
  <g
     id="layer1"
     transform="translate(-44.932673,-152.5749)">
    <path
       id="path2289"
       d="M 0,0 C -0.74,-0.063 -1.478,-0.153 -2.206,-0.303 -4.737,-0.801 -7.155,-1.85 -9.26,-3.34 c -2.735,-1.927 -4.94,-4.593 -6.334,-7.634 -1.332,-2.888 -1.923,-6.11 -1.722,-9.282 0.185,-3.131 1.152,-6.214 2.794,-8.887 1.424,-2.33 3.352,-4.351 5.62,-5.874 2.279,-1.535 4.904,-2.558 7.626,-2.949 2.357,-0.346 4.782,-0.226 7.095,0.349 1.644,0.408 3.229,1.047 4.699,1.889 2.792,1.595 5.16,3.919 6.818,6.673 2.018,3.312 2.979,7.249 2.746,11.119 -0.147,2.693 -0.872,5.354 -2.11,7.75 -0.704,1.363 -1.57,2.641 -2.578,3.797 -1.989,2.291 -4.534,4.1 -7.365,5.195 C 5.487,-0.201 2.721,0.201 0,0 M 0.197,0.444 C 0.204,0.455 0.219,0.475 0.227,0.486 0.648,0.465 1.07,0.52 1.493,0.505 1.819,0.51 2.144,0.472 2.47,0.483 2.641,0.414 2.833,0.477 3.011,0.431 3.111,0.384 3.225,0.417 3.332,0.402 6.084,0.13 8.769,-0.78 11.136,-2.21 c 2.66,-1.601 4.918,-3.857 6.54,-6.503 1.409,-2.293 2.34,-4.878 2.711,-7.543 0.585,-4.071 -0.128,-8.324 -2.046,-11.965 -1.424,-2.734 -3.506,-5.123 -6.022,-6.904 -1.271,-0.902 -2.653,-1.648 -4.106,-2.213 -1.964,-0.766 -4.057,-1.193 -6.163,-1.267 -2.389,-0.086 -4.794,0.286 -7.043,1.097 -2.643,0.947 -5.065,2.495 -7.05,4.478 -2.098,2.088 -3.712,4.658 -4.682,7.455 -1.465,4.185 -1.464,8.865 0.003,13.049 0.943,2.712 2.489,5.214 4.499,7.263 2.956,3.045 6.948,5.083 11.164,5.61 0.126,0.05 0.268,-0.015 0.392,0.042 0.286,0.027 0.579,0.089 0.864,0.055"
       style="fill:#363993;fill-opacity:1;fill-rule:nonzero;stroke:none"
       transform="matrix(0.35277776,0,0,-0.35277776,51.220227,152.75397)"
       clip-path="url(#clipPath2290)" />
    <path
       id="path2291"
       d="m 0,0 c 0.091,-0.003 0.183,-0.002 0.275,0.003 -0.024,-0.472 0.006,-0.944 0.002,-1.417 0.126,0.009 0.25,0.038 0.372,0.071 0.007,-0.085 0.017,-0.17 0.031,-0.254 -0.133,-0.012 -0.265,-0.027 -0.397,-0.047 0.006,-0.293 0,-0.586 0.029,-0.878 -0.092,0 -0.184,-0.002 -0.276,-0.007 0.027,0.285 0.01,0.569 0.008,0.854 -0.231,-0.025 -0.458,-0.068 -0.687,-0.101 -0.015,0.077 -0.029,0.155 -0.044,0.232 0.245,-0.004 0.485,0.05 0.727,0.088 C 0.028,-0.971 0.042,-0.484 0,0"
       style="fill:#363993;fill-opacity:1;fill-rule:nonzero;stroke:none"
       transform="matrix(0.35277776,0,0,-0.35277776,51.823266,152.92012)"
       clip-path="url(#clipPath2292)" />
    <path
       id="path2293"
       d="M 0,0 C 0.325,0.03 0.649,0.124 0.93,0.293 0.983,0.219 1.044,0.152 1.111,0.09 0.968,0.036 0.821,-0.006 0.679,-0.061 0.684,-0.208 0.684,-0.355 0.69,-0.503 0.827,-0.5 0.965,-0.495 1.101,-0.481 1.099,-0.553 1.1,-0.626 1.103,-0.698 c -0.136,0.013 -0.274,0.014 -0.411,0.011 0,-0.103 0,-0.206 0.002,-0.31 0.062,0.028 0.122,0.058 0.182,0.09 C 0.963,-1.051 1.068,-1.185 1.135,-1.34 1.06,-1.372 0.985,-1.402 0.91,-1.431 c -0.042,0.136 -0.107,0.27 -0.216,0.365 0.012,-0.362 0,-0.726 0.036,-1.087 -0.094,0.002 -0.186,0.002 -0.28,10e-4 0.03,0.319 0.011,0.64 0.007,0.96 -0.14,-0.157 -0.218,-0.358 -0.353,-0.519 -0.047,0.083 -0.101,0.162 -0.165,0.234 0.241,0.204 0.414,0.483 0.498,0.787 -0.145,-0.002 -0.289,-0.008 -0.433,-0.024 0,0.072 0,0.144 -0.001,0.216 0.147,-0.011 0.295,-0.009 0.442,-0.007 0.001,0.125 0,0.25 0,0.375 C 0.346,-0.152 0.249,-0.183 0.154,-0.218 0.106,-0.142 0.055,-0.07 0,0"
       style="fill:#363993;fill-opacity:1;fill-rule:nonzero;stroke:none"
       transform="matrix(0.35277776,0,0,-0.35277776,51.17987,153.04071)"
       clip-path="url(#clipPath2294)" />
    <path
       id="path2295"
       d="M 0,0 C 0.075,0.03 0.148,0.062 0.223,0.092 0.314,-0.063 0.415,-0.211 0.514,-0.36 0.439,-0.401 0.365,-0.441 0.288,-0.477 0.224,-0.301 0.116,-0.145 0,0"
       style="fill:#363993;fill-opacity:1;fill-rule:nonzero;stroke:none"
       transform="matrix(0.35277776,0,0,-0.35277776,51.620807,153.02744)"
       clip-path="url(#clipPath2296)" />
    <path
       id="path2297"
       d="M 0,0 C 0.075,0.009 0.15,0.023 0.224,0.044 0.294,-0.092 0.337,-0.24 0.397,-0.38 0.311,-0.389 0.225,-0.401 0.141,-0.42 0.128,-0.27 0.06,-0.135 0,0"
       style="fill:#363993;fill-opacity:1;fill-rule:nonzero;stroke:none"
       transform="matrix(0.35277776,0,0,-0.35277776,53.213035,153.17017)"
       clip-path="url(#clipPath2298)" />
    <path
       id="path2299"
       d="M 0,0 C 0.079,-0.012 0.16,-0.021 0.241,-0.026 0.248,-0.166 0.264,-0.307 0.264,-0.447 0.253,-0.462 0.231,-0.492 0.221,-0.507 l 0.015,0.043 C 0.164,-0.457 0.092,-0.454 0.02,-0.451 0.024,-0.301 0.015,-0.15 0,0"
       style="fill:#363993;fill-opacity:1;fill-rule:nonzero;stroke:none"
       transform="matrix(0.35277776,0,0,-0.35277776,53.458285,153.18446)"
       clip-path="url(#clipPath2300)" />
    <path
       id="path2301"
       d="M 0,0 C 0.072,0.039 0.147,0.072 0.221,0.107 0.269,0.036 0.317,-0.034 0.365,-0.104 0.576,-0.047 0.778,0.038 0.983,0.111 1.004,0.041 1.026,-0.028 1.049,-0.098 0.877,-0.138 0.705,-0.183 0.543,-0.254 0.617,-0.265 0.692,-0.266 0.767,-0.266 0.742,-0.338 0.718,-0.411 0.696,-0.483 c 0.179,0.046 0.349,0.123 0.523,0.184 0.019,-0.068 0.04,-0.137 0.063,-0.205 -0.544,-0.156 -1.078,-0.344 -1.611,-0.533 -0.02,0.067 -0.043,0.132 -0.068,0.197 0.139,0.047 0.287,0.072 0.421,0.134 -0.054,0.045 -0.114,0.086 -0.155,0.144 0.06,0.035 0.119,0.073 0.176,0.113 0.073,-0.062 0.145,-0.126 0.22,-0.186 0.077,0.029 0.154,0.055 0.232,0.079 0.012,0.099 0.016,0.199 0.016,0.299 -0.313,-0.102 -0.625,-0.21 -0.935,-0.32 -0.018,0.068 -0.038,0.134 -0.061,0.2 0.208,0.058 0.416,0.118 0.618,0.195 C 0.095,-0.12 -0.001,-0.08 0,0"
       style="fill:#363993;fill-opacity:1;fill-rule:nonzero;stroke:none"
       transform="matrix(0.35277776,0,0,-0.35277776,49.730234,153.24278)"
       clip-path="url(#clipPath2302)" />
    <path
       id="path2303"
       d="M 0,0 C 0.071,0.029 0.14,0.064 0.206,0.102 0.306,-0.044 0.403,-0.191 0.498,-0.34 0.423,-0.377 0.349,-0.415 0.274,-0.453 0.209,-0.287 0.113,-0.137 0,0"
       style="fill:#363993;fill-opacity:1;fill-rule:nonzero;stroke:none"
       transform="matrix(0.35277776,0,0,-0.35277776,51.591419,153.25491)"
       clip-path="url(#clipPath2304)" />
    <path
       id="path2305"
       d="M 0,0 C 0.184,0.148 0.349,0.318 0.496,0.503 0.553,0.437 0.612,0.373 0.674,0.31 0.521,0.19 0.375,0.06 0.229,-0.067 0.425,-0.129 0.623,-0.191 0.826,-0.232 0.758,-0.399 0.704,-0.57 0.668,-0.747 c -0.08,0.028 -0.161,0.051 -0.242,0.07 0.028,0.098 0.062,0.195 0.088,0.294 -0.598,0.17 -1.188,0.366 -1.786,0.53 -0.032,-0.104 -0.057,-0.209 -0.077,-0.316 -0.083,0.025 -0.167,0.049 -0.251,0.073 0.062,0.176 0.124,0.354 0.156,0.539 C -0.965,0.287 -0.481,0.149 0,0"
       style="fill:#363993;fill-opacity:1;fill-rule:nonzero;stroke:none"
       transform="matrix(0.35277776,0,0,-0.35277776,53.585637,153.42859)"
       clip-path="url(#clipPath2306)" />
    <path
       id="path2307"
       d="m 0,0 c 0.088,0.029 0.176,0.06 0.263,0.094 0.053,-0.23 0.132,-0.453 0.206,-0.677 0.066,0.021 0.132,0.044 0.197,0.067 C 0.686,-0.588 0.71,-0.659 0.74,-0.728 0.673,-0.744 0.606,-0.761 0.54,-0.78 0.611,-1.015 0.694,-1.248 0.771,-1.482 0.867,-1.479 0.935,-1.375 1.019,-1.33 1.033,-1.41 1.066,-1.487 1.068,-1.568 0.85,-1.71 0.632,-1.853 0.433,-2.021 0.384,-1.943 0.331,-1.867 0.274,-1.796 0.372,-1.739 0.476,-1.692 0.572,-1.629 0.481,-1.376 0.396,-1.122 0.316,-0.866 0.222,-0.885 0.133,-0.92 0.047,-0.961 0.024,-0.888 0,-0.814 -0.026,-0.742 0.064,-0.72 0.154,-0.693 0.242,-0.663 0.172,-0.438 0.099,-0.214 0,0"
       style="fill:#363993;fill-opacity:1;fill-rule:nonzero;stroke:none"
       transform="matrix(0.35277776,0,0,-0.35277776,49.338159,153.35824)"
       clip-path="url(#clipPath2308)" />
    <path
       id="path2309"
       d="M 0,0 C 0.483,-0.175 0.977,-0.316 1.472,-0.451 1.441,-0.528 1.416,-0.609 1.397,-0.69 1.183,-0.666 0.967,-0.692 0.755,-0.728 0.751,-0.749 0.744,-0.792 0.74,-0.813 1.071,-0.903 1.394,-1.025 1.733,-1.086 1.711,-1.171 1.689,-1.255 1.671,-1.34 1.34,-1.223 1.006,-1.115 0.667,-1.025 0.604,-1.205 0.584,-1.408 0.475,-1.568 c -0.133,-0.068 -0.293,0 -0.435,0.011 0.009,0.103 0.001,0.205 -0.027,0.305 0.091,-0.042 0.187,-0.07 0.286,-0.086 0.074,0.113 0.096,0.25 0.145,0.375 -0.36,0.127 -0.728,0.238 -1.101,0.321 0.03,0.082 0.056,0.167 0.08,0.252 0.352,-0.146 0.724,-0.24 1.09,-0.347 0.011,0.063 0.023,0.125 0.035,0.188 0.128,0.015 0.262,0.012 0.386,0.056 -0.332,0.091 -0.657,0.209 -0.996,0.278 C -0.039,-0.144 -0.019,-0.072 0,0"
       style="fill:#363993;fill-opacity:1;fill-rule:nonzero;stroke:none"
       transform="matrix(0.35277776,0,0,-0.35277776,53.167844,153.48122)"
       clip-path="url(#clipPath2310)" />
    <path
       id="path2311"
       d="M 0,0 C 0.021,-0.049 0.043,-0.099 0.064,-0.148 0.352,-0.055 0.638,0.044 0.925,0.138 0.908,0.194 0.891,0.25 0.873,0.305 0.584,0.2 0.281,0.125 0,0 M -0.089,0.315 C -0.078,0.269 -0.066,0.221 -0.054,0.174 0.239,0.267 0.531,0.363 0.82,0.467 0.806,0.51 0.792,0.554 0.779,0.597 0.487,0.512 0.203,0.401 -0.089,0.315 m 0.24,0.252 C 0.412,0.657 0.676,0.736 0.933,0.839 0.997,0.565 1.103,0.304 1.191,0.038 1.057,0.006 0.923,-0.032 0.795,-0.085 c 0.047,-0.121 0.074,-0.25 0.138,-0.364 0.112,0.036 0.231,0.058 0.332,0.12 0.053,0.074 0.007,0.172 0.006,0.255 C 1.354,-0.125 1.453,-0.136 1.549,-0.143 1.54,-0.286 1.548,-0.48 1.376,-0.527 1.187,-0.578 0.992,-0.708 0.794,-0.656 0.68,-0.516 0.666,-0.314 0.594,-0.149 0.531,-0.169 0.469,-0.189 0.407,-0.209 0.429,-0.365 0.445,-0.536 0.363,-0.678 0.256,-0.859 0.069,-0.97 -0.101,-1.085 c -0.069,0.068 -0.146,0.126 -0.23,0.174 0.173,0.071 0.349,0.157 0.474,0.301 0.076,0.089 0.054,0.218 0.047,0.325 -0.098,-0.012 -0.2,-0.107 -0.293,-0.078 -0.072,0.264 -0.17,0.519 -0.255,0.779 0.175,0.029 0.34,0.098 0.509,0.151"
       style="fill:#363993;fill-opacity:1;fill-rule:nonzero;stroke:none"
       transform="matrix(0.35277776,0,0,-0.35277776,49.788972,153.77999)"
       clip-path="url(#clipPath2312)" />
    <path
       id="path2313"
       d="M 0,0 C 0.068,-0.054 0.14,-0.104 0.219,-0.144 0.335,0.05 0.478,0.226 0.594,0.419 0.541,0.484 0.459,0.518 0.393,0.568 0.259,0.38 0.134,0.187 0,0 M 0.429,1.354 C 0.464,1.428 0.51,1.496 0.557,1.563 0.808,1.366 1.072,1.184 1.348,1.023 1.296,0.96 1.251,0.891 1.214,0.818 1.112,0.887 1.017,0.966 0.914,1.033 0.788,0.927 0.651,0.834 0.52,0.736 L 0.518,0.711 C 0.641,0.62 0.772,0.538 0.907,0.463 0.658,0.14 0.422,-0.195 0.221,-0.549 0.147,-0.518 0.082,-0.47 0.018,-0.425 c 0.032,0.045 0.065,0.089 0.098,0.134 -0.067,0.057 -0.14,0.107 -0.22,0.145 -0.056,-0.091 -0.114,-0.181 -0.175,-0.269 -0.063,0.056 -0.146,0.09 -0.202,0.152 0.184,0.265 0.386,0.524 0.557,0.801 -0.088,-0.031 -0.174,-0.07 -0.269,-0.077 0.024,0.085 0.039,0.173 0.047,0.26 C 0.184,0.763 0.479,0.948 0.71,1.179 0.621,1.245 0.528,1.305 0.429,1.354"
       style="fill:#363993;fill-opacity:1;fill-rule:nonzero;stroke:none"
       transform="matrix(0.35277776,0,0,-0.35277776,54.727473,154.39953)"
       clip-path="url(#clipPath2314)" />
    <path
       id="path2315"
       d="M 0,0 C 0.391,0.259 0.768,0.539 1.137,0.828 1.182,0.758 1.231,0.692 1.284,0.63 1.097,0.504 0.909,0.379 0.731,0.24 0.767,0.147 0.8,0.051 0.863,-0.028 1.211,-0.499 1.549,-0.98 1.911,-1.441 1.838,-1.49 1.773,-1.551 1.697,-1.593 1.465,-1.261 1.229,-0.929 0.987,-0.604 1.074,-0.948 1.099,-1.306 1.074,-1.66 0.97,-1.647 0.865,-1.645 0.761,-1.659 0.822,-1.5 0.861,-1.33 0.849,-1.159 0.828,-0.728 0.712,-0.302 0.529,0.088 0.391,0.003 0.265,-0.098 0.141,-0.203 0.095,-0.134 0.048,-0.067 0,0"
       style="fill:#363993;fill-opacity:1;fill-rule:nonzero;stroke:none"
       transform="matrix(0.35277776,0,0,-0.35277776,47.914663,154.25327)"
       clip-path="url(#clipPath2316)" />
    <path
       id="path2317"
       d="m 0,0 c -0.136,-0.204 -0.287,-0.397 -0.422,-0.602 0.089,-0.06 0.172,-0.131 0.273,-0.171 0.129,0.205 0.273,0.4 0.407,0.601 C 0.175,-0.111 0.089,-0.052 0,0 m -0.443,0.289 c 0.052,0.069 0.1,0.141 0.146,0.215 C 0.06,0.217 0.447,-0.034 0.834,-0.278 0.784,-0.344 0.738,-0.412 0.697,-0.483 0.619,-0.421 0.54,-0.363 0.459,-0.307 0.316,-0.509 0.173,-0.712 0.04,-0.921 0.138,-0.988 0.237,-1.055 0.344,-1.108 0.298,-1.177 0.253,-1.247 0.21,-1.318 0.117,-1.244 0.02,-1.175 -0.073,-1.101 -0.316,-1.402 -0.52,-1.736 -0.73,-2.062 c -0.071,0.056 -0.147,0.106 -0.227,0.148 0.229,0.309 0.464,0.62 0.659,0.949 -0.08,0.076 -0.179,0.127 -0.268,0.19 -0.141,-0.166 -0.278,-0.342 -0.469,-0.454 -0.188,-0.12 -0.413,-0.156 -0.63,-0.194 -0.03,0.095 -0.076,0.184 -0.129,0.269 0.237,-0.022 0.493,0.009 0.687,0.159 0.126,0.1 0.258,0.208 0.338,0.351 -0.07,0.074 -0.165,0.117 -0.252,0.167 0.047,0.067 0.092,0.135 0.134,0.204 0.087,-0.07 0.177,-0.135 0.27,-0.197 0.147,0.197 0.284,0.402 0.433,0.598 -0.08,0.065 -0.168,0.116 -0.259,0.161"
       style="fill:#363993;fill-opacity:1;fill-rule:nonzero;stroke:none"
       transform="matrix(0.35277776,0,0,-0.35277776,55.33866,154.22237)"
       clip-path="url(#clipPath2318)" />
    <path
       id="path2319"
       d="m 0,0 c -1.099,-0.084 -2.19,-0.274 -3.247,-0.588 -2.352,-0.689 -4.53,-1.969 -6.268,-3.698 -1.976,-1.948 -3.376,-4.465 -4.014,-7.164 -0.592,-2.492 -0.575,-5.133 0.096,-7.608 0.693,-2.584 2.094,-4.973 4.003,-6.848 1.911,-1.889 4.335,-3.258 6.946,-3.902 2.71,-0.677 5.61,-0.578 8.267,0.288 1.98,0.639 3.821,1.701 5.373,3.084 1.46,1.299 2.669,2.88 3.531,4.633 1.118,2.255 1.652,4.793 1.546,7.307 -0.097,2.584 -0.875,5.139 -2.238,7.337 -1.52,2.472 -3.764,4.495 -6.387,5.739 C 5.255,-0.288 2.602,0.191 0,0 m 0.463,0.427 c 3.002,0.14 6.041,-0.624 8.614,-2.178 2.428,-1.449 4.445,-3.576 5.766,-6.076 1.415,-2.65 2.023,-5.719 1.742,-8.709 -0.204,-2.277 -0.925,-4.505 -2.09,-6.472 -1.011,-1.713 -2.353,-3.23 -3.93,-4.441 -1.598,-1.231 -3.438,-2.148 -5.385,-2.672 -2.627,-0.713 -5.443,-0.712 -8.069,0 -2.647,0.712 -5.092,2.153 -7.008,4.112 -1.951,1.979 -3.357,4.49 -4.015,7.19 -0.66,2.683 -0.583,5.536 0.18,8.188 0.768,2.669 2.273,5.125 4.319,7.004 1.903,1.764 4.268,3.02 6.789,3.624 1.011,0.246 2.048,0.389 3.087,0.43"
       style="fill:#363993;fill-opacity:1;fill-rule:nonzero;stroke:none"
       transform="matrix(0.35277776,0,0,-0.35277776,51.303129,154.22181)"
       clip-path="url(#clipPath2320)" />
    <path
       id="path2321"
       d="M 0,0 C 0.26,0.154 0.487,0.357 0.74,0.519 0.779,0.452 0.824,0.389 0.873,0.328 0.784,0.278 0.699,0.221 0.618,0.159 0.707,0.033 0.801,-0.09 0.889,-0.218 0.987,-0.163 1.072,-0.09 1.159,-0.02 1.199,-0.078 1.239,-0.136 1.28,-0.194 1.187,-0.248 1.092,-0.301 1.013,-0.375 1.102,-0.52 1.21,-0.655 1.315,-0.789 1.38,-0.714 1.418,-0.615 1.501,-0.556 1.536,-0.625 1.577,-0.693 1.62,-0.758 1.414,-0.965 1.258,-1.216 1.111,-1.466 c -0.078,0.054 -0.158,0.105 -0.235,0.16 0.102,0.1 0.192,0.211 0.277,0.324 -0.11,0.153 -0.226,0.302 -0.33,0.461 C 0.719,-0.57 0.635,-0.649 0.55,-0.722 0.508,-0.668 0.467,-0.613 0.427,-0.558 0.517,-0.491 0.612,-0.431 0.701,-0.363 0.61,-0.236 0.515,-0.113 0.429,0.016 0.325,-0.046 0.235,-0.128 0.137,-0.199 0.096,-0.128 0.05,-0.062 0,0"
       style="fill:#363993;fill-opacity:1;fill-rule:nonzero;stroke:none"
       transform="matrix(0.35277776,0,0,-0.35277776,47.624363,154.46268)"
       clip-path="url(#clipPath2322)" />
    <path
       id="path2323"
       d="M 0,0 C 0.035,0.074 0.067,0.151 0.096,0.228 0.396,0.103 0.698,-0.018 0.994,-0.153 0.958,-0.238 0.927,-0.324 0.899,-0.412 0.607,-0.258 0.311,-0.11 0,0"
       style="fill:#363993;fill-opacity:1;fill-rule:nonzero;stroke:none"
       transform="matrix(0.35277776,0,0,-0.35277776,48.323392,154.36567)"
       clip-path="url(#clipPath2324)" />
    <path
       id="path2325"
       d="m 0,0 c 0.154,0.098 0.285,0.225 0.433,0.332 0.109,-0.186 0.255,-0.347 0.386,-0.518 0.084,-0.099 0.152,-0.211 0.25,-0.297 0.042,0.082 0.084,0.165 0.127,0.247 0.066,-0.07 0.136,-0.136 0.21,-0.199 C 1.346,-0.52 1.285,-0.605 1.222,-0.687 1.4,-0.927 1.587,-1.159 1.781,-1.386 1.624,-1.481 1.488,-1.606 1.344,-1.719 c -0.044,0.077 -0.1,0.147 -0.16,0.211 0.086,0.058 0.17,0.12 0.25,0.186 -0.351,0.437 -0.689,0.887 -1.05,1.316 C 0.309,-0.07 0.233,-0.135 0.162,-0.203 0.104,-0.139 0.051,-0.07 0,0"
       style="fill:#363993;fill-opacity:1;fill-rule:nonzero;stroke:none"
       transform="matrix(0.35277776,0,0,-0.35277776,56.262093,155.25633)"
       clip-path="url(#clipPath2326)" />
    <path
       id="path2327"
       d="M 0,0 C 0.483,-0.341 0.947,-0.712 1.43,-1.053 1.768,-0.621 2.088,-0.174 2.418,0.264 1.943,0.625 1.462,0.977 0.985,1.335 0.658,0.889 0.313,0.455 0,0 M 0.97,1.661 C 1.328,1.364 1.709,1.098 2.079,0.818 2.351,0.616 2.617,0.406 2.905,0.229 2.85,0.162 2.798,0.091 2.75,0.018 2.691,0.063 2.63,0.108 2.569,0.151 2.242,-0.284 1.922,-0.725 1.589,-1.155 1.622,-1.209 1.674,-1.243 1.727,-1.274 1.682,-1.35 1.628,-1.42 1.573,-1.49 c -0.38,0.334 -0.803,0.614 -1.202,0.922 -0.227,0.171 -0.454,0.342 -0.694,0.495 0.291,0.332 0.537,0.701 0.806,1.05 0.163,0.227 0.347,0.441 0.487,0.684"
       style="fill:#363993;fill-opacity:1;fill-rule:nonzero;stroke:none"
       transform="matrix(0.35277776,0,0,-0.35277776,46.452753,155.84141)"
       clip-path="url(#clipPath2328)" />
    <path
       id="path2329"
       d="M 0,0 C 0.245,-0.133 0.505,-0.256 0.788,-0.27 0.786,-0.36 0.784,-0.449 0.783,-0.538 0.509,-0.448 0.228,-0.377 -0.037,-0.262 -0.018,-0.176 -0.008,-0.088 0,0"
       style="fill:#363993;fill-opacity:1;fill-rule:nonzero;stroke:none"
       transform="matrix(0.35277776,0,0,-0.35277776,56.191748,155.31757)"
       clip-path="url(#clipPath2330)" />
    <path
       id="path2331"
       d="m 0,0 c 0.067,0.049 0.132,0.101 0.195,0.156 0.138,-0.19 0.272,-0.392 0.441,-0.551 0.113,0.06 0.211,0.145 0.304,0.233 C 0.994,-0.236 1.043,-0.314 1.091,-0.393 0.984,-0.455 0.875,-0.515 0.779,-0.592 0.92,-0.754 1.06,-0.917 1.207,-1.073 0.97,-1.237 0.735,-1.408 0.517,-1.597 0.583,-1.706 0.645,-1.833 0.764,-1.894 0.847,-1.89 0.909,-1.823 0.978,-1.783 0.997,-1.877 1.014,-1.974 1.061,-2.059 0.939,-2.124 0.773,-2.221 0.644,-2.122 c -0.135,0.12 -0.239,0.271 -0.34,0.419 -0.045,0.071 -0.09,0.184 -0.01,0.247 0.181,0.15 0.372,0.288 0.56,0.429 C 0.78,-0.913 0.689,-0.811 0.6,-0.709 0.457,-0.738 0.323,-0.831 0.17,-0.84 c -0.342,-0.026 -0.637,0.179 -0.909,0.357 0.039,0.096 0.059,0.196 0.071,0.298 0.166,-0.15 0.345,-0.292 0.552,-0.381 C 0.062,-0.644 0.26,-0.58 0.433,-0.517 0.304,-0.333 0.142,-0.174 0,0"
       style="fill:#363993;fill-opacity:1;fill-rule:nonzero;stroke:none"
       transform="matrix(0.35277776,0,0,-0.35277776,56.065947,155.46612)"
       clip-path="url(#clipPath2332)" />
    <path
       id="path2333"
       d="M 0,0 C 0.062,-0.036 0.123,-0.073 0.185,-0.111 0.077,-0.266 -0.052,-0.405 -0.158,-0.562 -0.076,-0.626 0.008,-0.69 0.096,-0.746 0.187,-0.618 0.283,-0.494 0.36,-0.358 0.421,-0.399 0.481,-0.44 0.542,-0.481 0.434,-0.6 0.337,-0.729 0.241,-0.858 0.365,-0.954 0.489,-1.05 0.62,-1.137 c 0.055,0.074 0.111,0.15 0.166,0.225 -0.116,0.035 -0.237,0.045 -0.358,0.038 0.004,0.076 0.013,0.152 0.029,0.227 C 0.585,-0.659 0.713,-0.669 0.84,-0.678 0.833,-0.737 0.828,-0.796 0.824,-0.855 0.883,-0.782 0.932,-0.702 0.981,-0.622 1.036,-0.666 1.093,-0.707 1.153,-0.744 0.868,-1.127 0.563,-1.497 0.306,-1.9 c -0.059,0.044 -0.117,0.087 -0.177,0.13 0.131,0.142 0.238,0.302 0.359,0.451 -0.122,0.094 -0.241,0.214 -0.382,0.27 -0.096,-0.103 -0.168,-0.226 -0.244,-0.345 -0.059,0.046 -0.117,0.091 -0.176,0.136 0.098,0.103 0.193,0.211 0.266,0.333 -0.064,0.076 -0.155,0.123 -0.228,0.19 -0.117,-0.116 -0.196,-0.261 -0.288,-0.396 -0.055,0.047 -0.113,0.09 -0.172,0.129 C -0.478,-0.678 -0.217,-0.353 0,0"
       style="fill:#363993;fill-opacity:1;fill-rule:nonzero;stroke:none"
       transform="matrix(0.35277776,0,0,-0.35277776,46.809517,155.47854)"
       clip-path="url(#clipPath2334)" />
    <path
       id="path2335"
       d="M 0,0 C 0.08,-0.01 0.162,-0.013 0.244,-0.007 0.298,-0.287 0.334,-0.571 0.382,-0.853 0.289,-0.844 0.196,-0.841 0.104,-0.844 0.129,-0.558 0.079,-0.274 0,0"
       style="fill:#363993;fill-opacity:1;fill-rule:nonzero;stroke:none"
       transform="matrix(0.35277776,0,0,-0.35277776,56.530203,155.61041)"
       clip-path="url(#clipPath2336)" />
    <path
       id="path2337"
       d="M 0,0 C 0.066,-0.094 0.052,-0.232 0.149,-0.307 0.402,-0.31 0.563,-0.067 0.686,0.124 0.925,0.122 1.162,0.148 1.398,0.178 1.36,0.278 1.322,0.378 1.285,0.478 0.852,0.33 0.437,0.129 0,0 M 1.286,0.724 C 1.321,0.738 1.357,0.748 1.395,0.753 1.467,0.483 1.584,0.227 1.692,-0.031 1.395,-0.041 1.099,-0.065 0.802,-0.074 0.673,-0.212 0.584,-0.399 0.403,-0.48 0.297,-0.526 0.173,-0.572 0.058,-0.529 c -0.12,0.046 -0.2,0.157 -0.255,0.269 0.075,0.047 0.14,0.106 0.198,0.172 -0.025,0.02 -0.051,0.038 -0.076,0.056 -0.216,-0.108 -0.446,-0.186 -0.668,-0.283 -0.024,0.077 -0.052,0.151 -0.084,0.225 0.408,0.128 0.801,0.297 1.201,0.448 0.304,0.121 0.614,0.229 0.912,0.366"
       style="fill:#363993;fill-opacity:1;fill-rule:nonzero;stroke:none"
       transform="matrix(0.35277776,0,0,-0.35277776,57.037073,156.98959)"
       clip-path="url(#clipPath2338)" />
    <path
       id="path2339"
       d="m 0,0 c -0.065,-0.199 -0.136,-0.396 -0.21,-0.593 0.197,-0.079 0.4,-0.143 0.599,-0.217 0.08,0.2 0.15,0.406 0.219,0.611 C 0.404,-0.137 0.21,-0.04 0,0 M 0.305,0.846 C 0.237,0.641 0.149,0.442 0.096,0.233 0.298,0.173 0.49,0.079 0.697,0.034 0.762,0.236 0.838,0.433 0.907,0.633 0.707,0.706 0.507,0.778 0.305,0.846 M 0.174,1.179 C 0.562,1.012 0.963,0.872 1.368,0.756 1.333,0.672 1.302,0.586 1.276,0.498 1.222,0.519 1.168,0.539 1.115,0.559 1.05,0.352 0.96,0.154 0.907,-0.057 1.202,-0.158 1.498,-0.261 1.795,-0.357 1.761,-0.439 1.731,-0.522 1.706,-0.607 1.417,-0.483 1.119,-0.382 0.824,-0.277 0.746,-0.479 0.67,-0.682 0.606,-0.889 0.665,-0.907 0.724,-0.925 0.782,-0.944 0.757,-1.029 0.732,-1.115 0.685,-1.191 0.5,-1.093 0.298,-1.033 0.102,-0.961 c -0.205,0.07 -0.407,0.154 -0.618,0.203 0.119,0.276 0.213,0.561 0.314,0.843 -0.169,0.072 -0.349,0.108 -0.52,0.173 0.044,0.08 0.072,0.166 0.092,0.254 0.172,-0.063 0.335,-0.154 0.515,-0.193 0.093,0.288 0.207,0.568 0.289,0.86"
       style="fill:#363993;fill-opacity:1;fill-rule:nonzero;stroke:none"
       transform="matrix(0.35277776,0,0,-0.35277776,45.836028,157.3859)"
       clip-path="url(#clipPath2340)" />
    <path
       id="path2341"
       d="m 0,0 c 0.135,0.037 0.263,0.096 0.394,0.145 0.073,-0.187 0.142,-0.377 0.212,-0.566 0.096,0.024 0.15,0.114 0.228,0.166 C 0.907,-0.31 0.937,-0.41 0.995,-0.482 0.903,-0.546 0.814,-0.614 0.72,-0.675 0.774,-0.881 0.868,-1.074 0.949,-1.27 0.8,-1.307 0.657,-1.364 0.521,-1.433 0.494,-1.36 0.465,-1.288 0.434,-1.217 0.517,-1.19 0.6,-1.162 0.682,-1.133 0.561,-0.798 0.42,-0.47 0.301,-0.135 0.223,-0.148 0.152,-0.182 0.083,-0.218 0.059,-0.144 0.03,-0.071 0,0"
       style="fill:#363993;fill-opacity:1;fill-rule:nonzero;stroke:none"
       transform="matrix(0.35277776,0,0,-0.35277776,57.424529,157.07034)"
       clip-path="url(#clipPath2342)" />
    <path
       id="path2343"
       d="M 0,0 C 0.074,0.03 0.149,0.06 0.222,0.096 0.395,-0.359 0.561,-0.817 0.756,-1.264 0.677,-1.288 0.6,-1.317 0.525,-1.349 0.481,-1.2 0.427,-1.054 0.367,-0.911 0.156,-0.993 -0.057,-1.068 -0.264,-1.159 -0.361,-1.201 -0.283,-1.322 -0.247,-1.383 -0.152,-1.471 -0.016,-1.397 0.095,-1.389 0.053,-1.475 0.036,-1.57 0.039,-1.666 c -0.141,0.003 -0.324,-0.061 -0.425,0.071 -0.086,0.125 -0.137,0.273 -0.172,0.42 -0.021,0.067 0.008,0.15 0.082,0.165 0.252,0.102 0.505,0.201 0.76,0.294 -0.019,0.073 -0.045,0.144 -0.072,0.215 -0.2,-0.051 -0.404,-0.133 -0.613,-0.091 -0.231,0.029 -0.398,0.207 -0.56,0.357 0.056,0.084 0.112,0.171 0.142,0.269 0.101,-0.133 0.177,-0.3 0.336,-0.374 0.196,-0.074 0.408,-0.024 0.602,0.035 C 0.105,-0.195 0.046,-0.099 0,0"
       style="fill:#363993;fill-opacity:1;fill-rule:nonzero;stroke:none"
       transform="matrix(0.35277776,0,0,-0.35277776,57.181536,157.17131)"
       clip-path="url(#clipPath2344)" />
    <path
       id="path2345"
       d="M 0,0 C 0.064,0.01 0.146,0.079 0.205,0.042 0.323,-0.295 0.457,-0.626 0.592,-0.957 0.526,-0.977 0.461,-1 0.397,-1.025 0.283,-0.677 0.148,-0.335 0,0"
       style="fill:#363993;fill-opacity:1;fill-rule:nonzero;stroke:none"
       transform="matrix(0.35277776,0,0,-0.35277776,57.353481,157.16679)"
       clip-path="url(#clipPath2346)" />
    <path
       id="path2347"
       d="m 0,0 c 0.926,0.144 1.95,-0.124 2.593,-0.83 -0.157,-0.133 -0.304,-0.28 -0.47,-0.4 -0.679,0.7 -1.858,0.773 -2.662,0.25 -0.283,-0.189 -0.518,-0.475 -0.586,-0.815 -0.068,-0.313 0.022,-0.648 0.216,-0.901 0.234,-0.305 0.584,-0.506 0.952,-0.606 0.71,-0.198 1.541,-0.04 2.067,0.497 0.151,-0.142 0.328,-0.258 0.467,-0.412 -0.968,-1.002 -2.667,-1.113 -3.798,-0.325 -0.415,0.291 -0.747,0.726 -0.837,1.233 -0.094,0.483 0.053,0.994 0.356,1.376 C -1.29,-0.408 -0.651,-0.098 0,0"
       style="fill:#363993;fill-opacity:1;fill-rule:nonzero;stroke:none"
       transform="matrix(0.35277776,0,0,-0.35277776,48.046955,158.85798)"
       clip-path="url(#clipPath2348)" />
    <path
       id="path2349"
       d="M 0,0 C 0.319,0.283 0.757,0.382 1.172,0.406 1.887,0.426 2.662,0.305 3.221,-0.176 3.126,-0.325 3.008,-0.457 2.912,-0.606 2.411,-0.323 1.833,-0.171 1.256,-0.199 1.021,-0.219 0.768,-0.262 0.584,-0.421 0.443,-0.54 0.367,-0.776 0.489,-0.933 0.608,-1.072 0.796,-1.115 0.967,-1.156 1.355,-1.229 1.752,-1.25 2.135,-1.35 2.473,-1.436 2.827,-1.568 3.052,-1.849 3.278,-2.136 3.289,-2.536 3.191,-2.874 3.102,-3.185 2.857,-3.435 2.564,-3.562 2.153,-3.745 1.69,-3.759 1.248,-3.728 c -0.628,0.065 -1.257,0.29 -1.736,0.709 0.127,0.153 0.233,0.321 0.365,0.47 0.434,-0.373 1.013,-0.543 1.577,-0.565 0.273,-0.003 0.57,0.021 0.796,0.19 0.147,0.107 0.232,0.308 0.171,0.485 -0.055,0.14 -0.194,0.219 -0.326,0.271 -0.282,0.116 -0.592,0.115 -0.887,0.177 -0.33,0.05 -0.659,0.119 -0.969,0.245 -0.322,0.143 -0.58,0.46 -0.602,0.819 C -0.379,-0.587 -0.259,-0.23 0,0"
       style="fill:#363993;fill-opacity:1;fill-rule:nonzero;stroke:none"
       transform="matrix(0.35277776,0,0,-0.35277776,54.80639,158.99323)"
       clip-path="url(#clipPath2350)" />
    <path
       id="path2351"
       d="m 0,0 c -0.006,-0.343 -0.001,-0.687 -0.003,-1.03 0.519,-0.002 1.038,-0.005 1.556,0.001 0.205,0.003 0.452,0.05 0.555,0.251 0.08,0.174 0.079,0.396 -0.024,0.562 -0.108,0.16 -0.313,0.204 -0.493,0.21 C 1.06,0.004 0.53,-0.007 0,0 M -0.852,0.643 C -0.25,0.64 0.352,0.643 0.954,0.642 1.34,0.64 1.728,0.657 2.11,0.591 2.434,0.53 2.757,0.349 2.897,0.037 3.067,-0.347 3.072,-0.83 2.828,-1.185 2.629,-1.465 2.284,-1.587 1.958,-1.641 2.311,-2.184 2.669,-2.726 3.027,-3.268 2.71,-3.279 2.393,-3.278 2.077,-3.27 1.73,-2.744 1.389,-2.213 1.053,-1.68 c -0.351,0.012 -0.704,10e-4 -1.055,0.005 -0.001,-0.537 -0.001,-1.073 0,-1.61 -0.285,-0.004 -0.569,-0.002 -0.854,-10e-4 0.003,1.309 -0.005,2.619 0.004,3.929"
       style="fill:#363993;fill-opacity:1;fill-rule:nonzero;stroke:none"
       transform="matrix(0.35277776,0,0,-0.35277776,49.631105,159.0997)"
       clip-path="url(#clipPath2352)" />
    <path
       id="path2353"
       d="M 0,0 C 0.421,-0.024 0.843,-0.001 1.265,-0.012 1.072,0.458 0.845,0.913 0.643,1.379 0.421,0.923 0.219,0.457 0,0 M 0.239,2.366 C 0.509,2.37 0.778,2.369 1.048,2.367 1.682,1.06 2.328,-0.241 2.958,-1.549 2.646,-1.55 2.333,-1.554 2.02,-1.548 c -0.181,0.321 -0.334,0.661 -0.494,0.994 -0.593,0.014 -1.188,0.003 -1.782,0.006 -0.16,-0.335 -0.318,-0.669 -0.48,-1.002 -0.296,0 -0.592,-0.003 -0.887,0.001 0.618,1.306 1.245,2.608 1.862,3.915"
       style="fill:#363993;fill-opacity:1;fill-rule:nonzero;stroke:none"
       transform="matrix(0.35277776,0,0,-0.35277776,51.569972,159.70866)"
       clip-path="url(#clipPath2354)" />
    <path
       id="path2355"
       d="m 0,0 c 1.147,-0.001 2.294,-0.002 3.441,0 0.009,-0.214 0.003,-0.429 0.004,-0.644 -0.864,-0.001 -1.728,0 -2.592,-0.001 0.001,-0.311 0,-0.621 0.001,-0.932 h 2.364 c 10e-4,-0.209 10e-4,-0.417 0,-0.626 -0.788,-0.001 -1.576,0 -2.364,-0.001 C 0.852,-2.559 0.857,-2.914 0.85,-3.269 1.715,-3.288 2.579,-3.272 3.444,-3.277 3.448,-3.491 3.445,-3.705 3.445,-3.92 2.296,-3.92 1.146,-3.921 -0.003,-3.919 -0.002,-2.613 -0.008,-1.306 0,0"
       style="fill:#363993;fill-opacity:1;fill-rule:nonzero;stroke:none"
       transform="matrix(0.35277776,0,0,-0.35277776,53.003201,158.87293)"
       clip-path="url(#clipPath2356)" />
    <path
       id="path2357"
       d="M 0,0 C 0.095,0.202 0.31,0.322 0.526,0.347 0.799,0.383 1.111,0.337 1.306,0.127 1.552,-0.151 1.511,-0.577 1.337,-0.881 1.258,-0.878 1.178,-0.877 1.099,-0.875 1.225,-0.71 1.33,-0.512 1.303,-0.297 1.294,-0.083 1.113,0.086 0.911,0.128 0.659,0.185 0.34,0.158 0.179,-0.069 0.017,-0.316 0.108,-0.646 0.287,-0.858 c -0.08,0 -0.16,0.001 -0.24,0.004 C -0.084,-0.593 -0.131,-0.271 0,0"
       style="fill:#363993;fill-opacity:1;fill-rule:nonzero;stroke:none"
       transform="matrix(0.35277776,0,0,-0.35277776,45.333214,159.24642)"
       clip-path="url(#clipPath2358)" />
    <path
       id="path2359"
       d="M 0,0 C 0.133,0.144 0.395,0.1 0.489,-0.068 0.615,-0.283 0.576,-0.55 0.492,-0.772 0.418,-0.775 0.345,-0.777 0.272,-0.779 c 0.103,0.168 0.181,0.375 0.11,0.57 -0.026,0.11 -0.198,0.146 -0.258,0.047 -0.084,-0.173 -0.046,-0.392 -0.179,-0.544 -0.126,-0.126 -0.358,-0.101 -0.459,0.044 -0.144,0.2 -0.106,0.469 -0.028,0.688 0.069,0.002 0.138,0.004 0.207,0.006 -0.088,-0.166 -0.167,-0.373 -0.075,-0.555 0.045,-0.098 0.21,-0.098 0.247,0.006 C -0.09,-0.351 -0.122,-0.146 0,0"
       style="fill:#363993;fill-opacity:1;fill-rule:nonzero;stroke:none"
       transform="matrix(0.35277776,0,0,-0.35277776,57.770146,159.17466)"
       clip-path="url(#clipPath2360)" />
    <path
       id="path2361"
       d="m 0,0 c -0.084,-0.203 0.062,-0.443 0.28,-0.461 0.006,0.214 0.017,0.427 0.024,0.64 C 0.183,0.171 0.032,0.136 0,0 M -0.058,0.219 C 0.071,0.359 0.277,0.359 0.454,0.353 0.448,0.078 0.433,-0.196 0.424,-0.47 0.558,-0.468 0.709,-0.429 0.782,-0.306 0.901,-0.111 0.832,0.13 0.73,0.316 0.8,0.314 0.869,0.311 0.939,0.307 1.03,0.053 1.058,-0.261 0.876,-0.481 0.686,-0.693 0.351,-0.695 0.107,-0.585 c -0.298,0.13 -0.378,0.566 -0.165,0.804"
       style="fill:#363993;fill-opacity:1;fill-rule:nonzero;stroke:none"
       transform="matrix(0.35277776,0,0,-0.35277776,57.611891,159.65063)"
       clip-path="url(#clipPath2362)" />
    <path
       id="path2363"
       d="M 0,0 C 0.519,0.034 1.039,0.053 1.557,0.094 1.57,0.031 1.575,-0.034 1.577,-0.099 1.391,-0.107 1.206,-0.12 1.021,-0.127 1.12,-0.258 1.218,-0.411 1.187,-0.584 1.174,-0.756 1.008,-0.862 0.85,-0.877 0.585,-0.898 0.319,-0.911 0.054,-0.923 0.05,-0.882 0.041,-0.8 0.036,-0.759 c 0.285,0.084 0.605,0.003 0.887,0.107 0.169,0.129 0.054,0.386 -0.07,0.507 C 0.572,-0.146 0.291,-0.176 0.01,-0.187 0.007,-0.124 0.004,-0.062 0,0"
       style="fill:#363993;fill-opacity:1;fill-rule:nonzero;stroke:none"
       transform="matrix(0.35277776,0,0,-0.35277776,45.316844,159.66587)"
       clip-path="url(#clipPath2364)" />
    <path
       id="path2365"
       d="m 0,0 c 0.069,0.026 0.147,-0.003 0.22,-0.004 -0.107,-0.139 -0.222,-0.313 -0.16,-0.497 0.044,-0.154 0.212,-0.221 0.357,-0.237 0.15,-0.019 0.333,0.003 0.421,0.142 0.101,0.168 0.038,0.372 -0.053,0.53 C 0.855,-0.073 0.926,-0.08 0.997,-0.088 1.095,-0.33 1.083,-0.648 0.87,-0.826 0.633,-0.995 0.281,-0.965 0.053,-0.793 -0.184,-0.6 -0.159,-0.235 0,0"
       style="fill:#363993;fill-opacity:1;fill-rule:nonzero;stroke:none"
       transform="matrix(0.35277776,0,0,-0.35277776,57.569521,159.9343)"
       clip-path="url(#clipPath2366)" />
    <path
       id="path2367"
       d="M 0,0 C 0.066,0.008 0.131,0.015 0.197,0.022 0.203,-0.05 0.208,-0.122 0.211,-0.195 0.147,-0.199 0.084,-0.203 0.02,-0.208 0.013,-0.138 0.006,-0.069 0,0"
       style="fill:#363993;fill-opacity:1;fill-rule:nonzero;stroke:none"
       transform="matrix(0.35277776,0,0,-0.35277776,45.812144,160.08099)"
       clip-path="url(#clipPath2368)" />
    <path
       id="path2369"
       d="M 0,0 C 0.373,0.032 0.744,0.083 1.116,0.118 1.122,0.056 1.128,-0.005 1.134,-0.067 0.758,-0.102 0.384,-0.165 0.007,-0.178 0.005,-0.118 0.002,-0.059 0,0"
       style="fill:#363993;fill-opacity:1;fill-rule:nonzero;stroke:none"
       transform="matrix(0.35277776,0,0,-0.35277776,45.353145,160.13436)"
       clip-path="url(#clipPath2370)" />
    <path
       id="path2371"
       d="M 0,0 C 0.365,0.05 0.728,0.114 1.091,0.175 1.103,0.113 1.114,0.05 1.125,-0.012 1.085,-0.018 1.045,-0.025 1.005,-0.032 1.147,-0.154 1.258,-0.339 1.215,-0.532 1.187,-0.678 1.045,-0.763 0.91,-0.794 0.652,-0.842 0.392,-0.876 0.134,-0.925 0.122,-0.862 0.112,-0.799 0.102,-0.736 0.335,-0.698 0.569,-0.664 0.801,-0.621 0.892,-0.602 1.008,-0.57 1.03,-0.465 1.053,-0.311 0.962,-0.14 0.832,-0.063 0.557,-0.096 0.285,-0.155 0.009,-0.192 -0.002,-0.128 -0.011,-0.064 0,0"
       style="fill:#363993;fill-opacity:1;fill-rule:nonzero;stroke:none"
       transform="matrix(0.35277776,0,0,-0.35277776,45.381368,160.34631)"
       clip-path="url(#clipPath2372)" />
    <path
       id="path2373"
       d="M 0,0 C 0.067,0.142 0.239,0.188 0.384,0.168 0.644,0.132 0.901,0.078 1.16,0.038 1.151,-0.023 1.143,-0.085 1.135,-0.147 0.898,-0.113 0.664,-0.063 0.427,-0.03 0.341,-0.02 0.231,-0.009 0.175,-0.09 0.085,-0.228 0.124,-0.42 0.216,-0.547 0.489,-0.616 0.781,-0.618 1.045,-0.713 1.029,-0.768 1.013,-0.823 0.998,-0.879 c -0.364,0.069 -0.731,0.13 -1.096,0.19 0.005,0.061 0.011,0.121 0.018,0.18 C -0.051,-0.51 0.008,-0.512 0.038,-0.513 -0.04,-0.357 -0.088,-0.164 0,0"
       style="fill:#363993;fill-opacity:1;fill-rule:nonzero;stroke:none"
       transform="matrix(0.35277776,0,0,-0.35277776,57.485526,160.41662)"
       clip-path="url(#clipPath2374)" />
    <path
       id="path2375"
       d="m 0,0 c 0.036,-0.203 0.089,-0.401 0.136,-0.602 0.042,-0.042 0.095,0.01 0.135,0.028 0.167,0.091 0.141,0.333 0.031,0.46 C 0.232,-0.02 0.107,-0.01 0,0 m -0.574,-0.127 c 0.141,0.245 0.466,0.33 0.73,0.277 0.306,-0.061 0.48,-0.442 0.35,-0.72 -0.089,-0.17 -0.288,-0.236 -0.466,-0.265 -0.062,0.266 -0.114,0.536 -0.196,0.797 -0.124,-0.046 -0.259,-0.121 -0.293,-0.261 -0.056,-0.218 0.069,-0.439 0.23,-0.579 -0.073,-0.009 -0.149,-0.057 -0.22,-0.032 -0.165,0.216 -0.263,0.525 -0.135,0.783"
       style="fill:#363993;fill-opacity:1;fill-rule:nonzero;stroke:none"
       transform="matrix(0.35277776,0,0,-0.35277776,45.705536,160.79783)"
       clip-path="url(#clipPath2376)" />
    <path
       id="path2377"
       d="M 0,0 C -0.13,-0.18 -0.044,-0.457 0.174,-0.519 0.223,-0.311 0.28,-0.104 0.324,0.106 0.209,0.113 0.063,0.119 0,0 m -0.016,0.217 c 0.155,0.107 0.353,0.067 0.524,0.024 -0.055,-0.269 -0.14,-0.532 -0.189,-0.803 0.132,-0.017 0.287,-0.013 0.382,0.096 0.151,0.168 0.134,0.419 0.068,0.62 0.066,-0.017 0.133,-0.034 0.2,-0.051 0.05,-0.268 0.005,-0.589 -0.221,-0.768 -0.231,-0.165 -0.559,-0.096 -0.774,0.063 -0.261,0.191 -0.247,0.632 0.01,0.819"
       style="fill:#363993;fill-opacity:1;fill-rule:nonzero;stroke:none"
       transform="matrix(0.35277776,0,0,-0.35277776,57.448519,160.88592)"
       clip-path="url(#clipPath2378)" />
    <path
       id="path2379"
       d="M 0,0 C 0.087,0.16 0.323,0.2 0.461,0.082 0.65,-0.071 0.684,-0.334 0.673,-0.562 0.607,-0.588 0.539,-0.61 0.471,-0.632 0.514,-0.446 0.531,-0.219 0.389,-0.071 0.321,0 0.184,-0.035 0.161,-0.131 0.125,-0.318 0.224,-0.516 0.14,-0.696 0.047,-0.865 -0.208,-0.893 -0.344,-0.76 c -0.182,0.172 -0.225,0.445 -0.192,0.683 0.069,0.021 0.137,0.042 0.205,0.062 -0.058,-0.193 -0.072,-0.426 0.06,-0.594 0.063,-0.085 0.22,-0.063 0.251,0.041 C 0.008,-0.379 -0.081,-0.181 0,0"
       style="fill:#363993;fill-opacity:1;fill-rule:nonzero;stroke:none"
       transform="matrix(0.35277776,0,0,-0.35277776,45.771787,161.19555)"
       clip-path="url(#clipPath2380)" />
    <path
       id="path2381"
       d="M 0,0 C 0.058,-0.021 0.116,-0.039 0.175,-0.056 0.159,-0.124 0.142,-0.193 0.124,-0.261 0.062,-0.245 0.002,-0.23 -0.059,-0.215 -0.053,-0.14 -0.03,-0.068 0,0"
       style="fill:#363993;fill-opacity:1;fill-rule:nonzero;stroke:none"
       transform="matrix(0.35277776,0,0,-0.35277776,57.187886,161.14786)"
       clip-path="url(#clipPath2382)" />
    <path
       id="path2383"
       d="M 0,0 C 0.362,-0.092 0.715,-0.218 1.075,-0.315 1.066,-0.378 1.052,-0.44 1.034,-0.501 0.673,-0.394 0.313,-0.285 -0.046,-0.174 -0.03,-0.116 -0.016,-0.058 0,0"
       style="fill:#363993;fill-opacity:1;fill-rule:nonzero;stroke:none"
       transform="matrix(0.35277776,0,0,-0.35277776,57.311571,161.194)"
       clip-path="url(#clipPath2384)" />
    <path
       id="path2385"
       d="M 0,0 C -0.139,0.252 -0.014,0.558 0.182,0.742 0.248,0.718 0.315,0.693 0.381,0.668 0.217,0.55 0.046,0.349 0.132,0.134 0.241,-0.07 0.512,-0.163 0.731,-0.116 0.971,-0.033 0.985,0.271 0.923,0.478 0.986,0.456 1.049,0.435 1.113,0.414 1.168,0.144 1.058,-0.192 0.784,-0.295 0.501,-0.376 0.155,-0.255 0,0"
       style="fill:#363993;fill-opacity:1;fill-rule:nonzero;stroke:none"
       transform="matrix(0.35277776,0,0,-0.35277776,57.229656,161.60319)"
       clip-path="url(#clipPath2386)" />
    <path
       id="path2387"
       d="m 0,0 c 0.074,-0.202 0.151,-0.403 0.23,-0.604 0.083,0.05 0.182,0.1 0.205,0.203 0.024,0.145 -0.047,0.306 -0.179,0.375 C 0.177,0.016 0.085,0.005 0,0 m -0.552,-0.206 c 0.101,0.262 0.406,0.39 0.671,0.381 C 0.444,0.166 0.681,-0.205 0.576,-0.506 0.507,-0.68 0.323,-0.764 0.157,-0.82 c -0.105,0.254 -0.188,0.518 -0.303,0.768 -0.132,-0.07 -0.267,-0.184 -0.26,-0.349 -0.005,-0.212 0.155,-0.365 0.292,-0.505 -0.065,-0.022 -0.129,-0.043 -0.195,-0.06 -0.184,0.201 -0.334,0.483 -0.243,0.76"
       style="fill:#363993;fill-opacity:1;fill-rule:nonzero;stroke:none"
       transform="matrix(0.35277776,0,0,-0.35277776,45.929759,161.57948)"
       clip-path="url(#clipPath2388)" />
    <path
       id="path2389"
       d="m 0,0 c 0.074,-0.029 0.148,-0.059 0.223,-0.089 -0.207,-0.145 -0.404,-0.36 -0.406,-0.627 -0.008,-0.169 0.217,-0.294 0.344,-0.173 0.168,0.156 0.24,0.396 0.435,0.526 0.133,0.103 0.329,0.06 0.449,-0.043 0.134,-0.112 0.172,-0.303 0.14,-0.468 -0.05,-0.25 -0.2,-0.468 -0.38,-0.644 -0.08,0.03 -0.158,0.062 -0.235,0.095 0.238,0.159 0.477,0.405 0.447,0.714 C 0.998,-0.56 0.793,-0.453 0.675,-0.563 0.509,-0.709 0.444,-0.94 0.263,-1.071 0.108,-1.201 -0.14,-1.153 -0.265,-1.005 -0.367,-0.879 -0.379,-0.702 -0.337,-0.551 -0.28,-0.339 -0.15,-0.156 0,0"
       style="fill:#363993;fill-opacity:1;fill-rule:nonzero;stroke:none"
       transform="matrix(0.35277776,0,0,-0.35277776,57.033687,161.6814)"
       clip-path="url(#clipPath2390)" />
    <path
       id="path2391"
       d="M 0,0 C 0.058,-0.119 0.109,-0.247 0.205,-0.342 0.367,-0.504 0.724,-0.349 0.67,-0.109 0.638,0.021 0.56,0.133 0.507,0.254 0.333,0.18 0.171,0.08 0,0 M -0.76,-0.185 C -0.325,0.055 0.119,0.281 0.562,0.508 0.668,0.293 0.818,0.09 0.86,-0.151 0.896,-0.362 0.723,-0.547 0.524,-0.582 0.379,-0.627 0.237,-0.556 0.118,-0.478 c -0.107,-0.26 -0.208,-0.523 -0.32,-0.781 -0.041,0.069 -0.079,0.138 -0.118,0.207 0.091,0.24 0.192,0.478 0.298,0.712 -0.036,0.089 -0.082,0.175 -0.13,0.258 -0.176,-0.091 -0.349,-0.187 -0.528,-0.273 -0.029,0.056 -0.065,0.109 -0.08,0.17"
       style="fill:#363993;fill-opacity:1;fill-rule:nonzero;stroke:none"
       transform="matrix(0.35277776,0,0,-0.35277776,46.239957,162.23487)"
       clip-path="url(#clipPath2392)" />
    <path
       id="path2393"
       d="M 0,0 C 0.458,-0.252 0.915,-0.506 1.37,-0.764 1.34,-0.818 1.31,-0.873 1.28,-0.927 0.824,-0.67 0.365,-0.419 -0.089,-0.161 -0.06,-0.107 -0.03,-0.053 0,0"
       style="fill:#363993;fill-opacity:1;fill-rule:nonzero;stroke:none"
       transform="matrix(0.35277776,0,0,-0.35277776,56.676182,162.31425)"
       clip-path="url(#clipPath2394)" />
    <path
       id="path2395"
       d="m 0,0 c 0.099,-0.192 0.223,-0.371 0.336,-0.555 0.097,0.074 0.202,0.186 0.151,0.318 C 0.441,-0.023 0.197,0.085 0,0 m -0.506,-0.312 c 0.05,0.278 0.328,0.463 0.593,0.501 0.319,0.048 0.616,-0.271 0.571,-0.583 -0.034,-0.184 -0.2,-0.292 -0.342,-0.39 -0.167,0.223 -0.288,0.476 -0.453,0.7 C -0.23,-0.167 -0.332,-0.263 -0.332,-0.398 -0.335,-0.63 -0.143,-0.81 0.055,-0.9 0.004,-0.944 -0.052,-0.982 -0.11,-1.017 c -0.231,0.154 -0.432,0.413 -0.396,0.705"
       style="fill:#363993;fill-opacity:1;fill-rule:nonzero;stroke:none"
       transform="matrix(0.35277776,0,0,-0.35277776,46.434516,162.64081)"
       clip-path="url(#clipPath2396)" />
    <path
       id="path2397"
       d="m 0,0 c -0.07,-0.14 -0.167,-0.275 -0.179,-0.435 -0.017,-0.149 0.19,-0.274 0.306,-0.17 0.13,0.106 0.158,0.284 0.141,0.441 C 0.178,-0.11 0.09,-0.053 0,0 M -0.405,0.29 C -0.28,0.362 -0.13,0.313 -0.02,0.237 0.182,0.103 0.397,-0.014 0.593,-0.156 0.568,-0.209 0.536,-0.259 0.506,-0.311 0.472,-0.289 0.438,-0.268 0.404,-0.247 0.421,-0.436 0.381,-0.655 0.215,-0.77 0,-0.94 -0.369,-0.75 -0.351,-0.475 c 0.011,0.207 0.132,0.383 0.223,0.563 -0.077,0.041 -0.175,0.079 -0.249,0.012 -0.139,-0.12 -0.205,-0.301 -0.234,-0.477 -0.063,0.024 -0.119,0.06 -0.172,0.098 0.078,0.213 0.174,0.448 0.378,0.569"
       style="fill:#363993;fill-opacity:1;fill-rule:nonzero;stroke:none"
       transform="matrix(0.35277776,0,0,-0.35277776,56.845481,162.71225)"
       clip-path="url(#clipPath2398)" />
    <path
       id="path2399"
       d="m 0,0 c 0.051,-0.021 0.098,-0.049 0.144,-0.081 -0.072,-0.107 -0.15,-0.21 -0.221,-0.317 0.196,-0.13 0.375,-0.288 0.584,-0.398 0.167,-0.055 0.221,0.144 0.293,0.249 0.041,-0.032 0.082,-0.063 0.124,-0.095 -0.067,-0.184 -0.228,-0.421 -0.456,-0.342 -0.239,0.098 -0.424,0.291 -0.645,0.422 -0.041,-0.017 -0.058,-0.075 -0.104,-0.076 -0.035,0.024 -0.069,0.048 -0.102,0.072 0.018,0.04 0.037,0.078 0.056,0.117 -0.085,0.058 -0.168,0.118 -0.253,0.176 0.032,0.051 0.064,0.102 0.096,0.153 0.097,-0.051 0.183,-0.119 0.272,-0.183 C -0.138,-0.204 -0.064,-0.105 0,0"
       style="fill:#363993;fill-opacity:1;fill-rule:nonzero;stroke:none"
       transform="matrix(0.35277776,0,0,-0.35277776,56.51073,162.87858)"
       clip-path="url(#clipPath2400)" />
    <path
       id="path2401"
       d="M 0,0 C 0.039,0.172 0.241,0.279 0.405,0.215 0.635,0.131 0.748,-0.108 0.815,-0.327 0.763,-0.377 0.704,-0.421 0.642,-0.46 0.63,-0.278 0.576,-0.077 0.417,0.03 0.333,0.099 0.194,0.035 0.191,-0.074 0.211,-0.27 0.379,-0.431 0.349,-0.636 0.308,-0.82 0.08,-0.923 -0.089,-0.84 c -0.226,0.108 -0.358,0.353 -0.396,0.592 0.055,0.022 0.116,0.113 0.176,0.08 0.014,-0.186 0.071,-0.389 0.234,-0.5 0.085,-0.07 0.239,0 0.233,0.113 C 0.126,-0.364 -0.029,-0.202 0,0"
       style="fill:#363993;fill-opacity:1;fill-rule:nonzero;stroke:none"
       transform="matrix(0.35277776,0,0,-0.35277776,46.623568,162.99408)"
       clip-path="url(#clipPath2402)" />
    <path
       id="path2403"
       d="M 0,0 C 0.14,0.092 0.318,0.028 0.438,-0.067 0.634,-0.223 0.828,-0.382 1.023,-0.539 0.985,-0.589 0.945,-0.638 0.905,-0.686 0.72,-0.538 0.538,-0.385 0.349,-0.24 0.279,-0.191 0.188,-0.126 0.1,-0.169 -0.034,-0.235 -0.084,-0.393 -0.093,-0.532 -0.111,-0.588 -0.057,-0.618 -0.02,-0.649 0.174,-0.804 0.371,-0.957 0.56,-1.12 0.52,-1.165 0.483,-1.212 0.445,-1.259 c -0.298,0.226 -0.581,0.471 -0.876,0.699 0.032,0.05 0.066,0.099 0.1,0.148 0.034,-0.02 0.07,-0.04 0.105,-0.061 C -0.222,-0.293 -0.162,-0.097 0,0"
       style="fill:#363993;fill-opacity:1;fill-rule:nonzero;stroke:none"
       transform="matrix(0.35277776,0,0,-0.35277776,56.27324,163.19993)"
       clip-path="url(#clipPath2404)" />
    <path
       id="path2405"
       d="m 0,0 c 0.138,-0.166 0.267,-0.339 0.414,-0.496 0.068,0.087 0.163,0.194 0.109,0.312 C 0.461,0.034 0.185,0.134 0,0 M 0.047,0.206 C 0.359,0.305 0.708,0.028 0.705,-0.293 0.695,-0.481 0.546,-0.615 0.41,-0.726 c -0.177,0.208 -0.349,0.419 -0.52,0.632 -0.118,-0.091 -0.203,-0.246 -0.154,-0.397 0.059,-0.203 0.256,-0.325 0.446,-0.39 -0.06,-0.036 -0.106,-0.122 -0.181,-0.118 -0.24,0.12 -0.456,0.349 -0.461,0.63 0.01,0.279 0.255,0.495 0.507,0.575"
       style="fill:#363993;fill-opacity:1;fill-rule:nonzero;stroke:none"
       transform="matrix(0.35277776,0,0,-0.35277776,46.894819,163.31359)"
       clip-path="url(#clipPath2406)" />
    <path
       id="path2407"
       d="M 0,0 C 0.041,-0.185 0.233,-0.277 0.403,-0.309 0.479,-0.237 0.555,-0.167 0.634,-0.1 0.543,0.014 0.428,0.113 0.299,0.181 0.17,0.255 0,0.143 0,0 M 0.423,0.606 C 0.468,0.652 0.514,0.697 0.56,0.741 0.734,0.624 0.911,0.487 1,0.291 1.061,0.163 1.016,0.008 0.914,-0.085 0.725,-0.269 0.529,-0.446 0.34,-0.63 c -0.043,0.044 -0.086,0.09 -0.127,0.135 0.018,0.022 0.054,0.064 0.072,0.086 -0.194,0.022 -0.397,0.134 -0.457,0.33 C -0.259,0.173 0.019,0.46 0.273,0.369 0.466,0.303 0.605,0.146 0.754,0.015 0.809,0.074 0.871,0.153 0.834,0.238 0.758,0.414 0.585,0.52 0.423,0.606"
       style="fill:#363993;fill-opacity:1;fill-rule:nonzero;stroke:none"
       transform="matrix(0.35277776,0,0,-0.35277776,47.061824,163.78293)"
       clip-path="url(#clipPath2408)" />
    <path
       id="path2409"
       d="m 0,0 c -0.213,-0.083 -0.287,-0.385 -0.116,-0.546 0.139,0.163 0.295,0.309 0.432,0.474 C 0.223,-0.015 0.109,0.061 0,0 m -0.338,-0.511 c -0.127,0.292 0.097,0.656 0.405,0.7 0.19,0.022 0.343,-0.112 0.476,-0.228 -0.176,-0.21 -0.37,-0.404 -0.558,-0.603 0.103,-0.102 0.263,-0.167 0.404,-0.105 0.198,0.08 0.299,0.293 0.336,0.492 C 0.777,-0.297 0.828,-0.341 0.878,-0.386 0.794,-0.65 0.594,-0.909 0.306,-0.953 0.022,-0.98 -0.231,-0.759 -0.338,-0.511"
       style="fill:#363993;fill-opacity:1;fill-rule:nonzero;stroke:none"
       transform="matrix(0.35277776,0,0,-0.35277776,56.015006,163.59102)"
       clip-path="url(#clipPath2410)" />
    <path
       id="path2411"
       d="M 0,0 C 0.253,0.273 0.512,0.54 0.761,0.816 0.811,0.78 0.859,0.743 0.907,0.704 0.872,0.659 0.836,0.615 0.799,0.571 0.983,0.573 1.157,0.492 1.27,0.347 1.228,0.295 1.181,0.245 1.131,0.199 1.036,0.35 0.861,0.472 0.679,0.444 0.489,0.26 0.322,0.054 0.13,-0.128 0.087,-0.085 0.043,-0.042 0,0"
       style="fill:#363993;fill-opacity:1;fill-rule:nonzero;stroke:none"
       transform="matrix(0.35277776,0,0,-0.35277776,47.286754,164.1071)"
       clip-path="url(#clipPath2412)" />
    <path
       id="path2413"
       d="M 0,0 C 0.089,0.108 0.244,0.187 0.383,0.124 0.56,0.046 0.666,-0.124 0.795,-0.259 0.885,-0.369 0.995,-0.464 1.072,-0.585 1.033,-0.624 0.987,-0.702 0.927,-0.69 0.767,-0.516 0.617,-0.334 0.454,-0.162 0.396,-0.104 0.32,-0.032 0.23,-0.06 0.08,-0.113 0.013,-0.276 -0.01,-0.421 0.161,-0.645 0.37,-0.842 0.547,-1.063 0.498,-1.103 0.45,-1.143 0.401,-1.182 c -0.154,0.183 -0.315,0.36 -0.475,0.538 -0.064,0.066 -0.157,0.151 -0.255,0.1 -0.139,-0.064 -0.192,-0.22 -0.22,-0.36 0.187,-0.211 0.377,-0.418 0.56,-0.632 -0.047,-0.041 -0.093,-0.081 -0.139,-0.122 -0.251,0.279 -0.498,0.562 -0.75,0.84 0.045,0.043 0.092,0.084 0.141,0.122 0.019,-0.02 0.059,-0.06 0.079,-0.08 0.024,0.251 0.246,0.52 0.521,0.425 C -0.113,-0.228 -0.087,-0.096 0,0"
       style="fill:#363993;fill-opacity:1;fill-rule:nonzero;stroke:none"
       transform="matrix(0.35277776,0,0,-0.35277776,55.63376,163.88696)"
       clip-path="url(#clipPath2414)" />
    <path
       id="path2415"
       d="M 0,0 C 0.076,0.285 0.339,0.563 0.653,0.538 0.895,0.517 1.07,0.319 1.171,0.114 1.127,0.054 1.08,-0.003 1.027,-0.054 0.985,0.157 0.818,0.402 0.573,0.359 0.365,0.298 0.196,0.097 0.174,-0.118 0.177,-0.365 0.449,-0.486 0.664,-0.491 0.622,-0.546 0.578,-0.6 0.536,-0.655 0.236,-0.604 -0.076,-0.329 0,0"
       style="fill:#363993;fill-opacity:1;fill-rule:nonzero;stroke:none"
       transform="matrix(0.35277776,0,0,-0.35277776,47.576208,164.26352)"
       clip-path="url(#clipPath2416)" />
    <path
       id="path2417"
       d="M 0,0 C 0.296,0.433 0.612,0.852 0.922,1.275 0.973,1.239 1.023,1.201 1.072,1.161 0.961,1.015 0.85,0.869 0.75,0.715 0.934,0.722 1.14,0.668 1.244,0.502 1.326,0.38 1.286,0.221 1.211,0.105 1.064,-0.111 0.9,-0.316 0.754,-0.534 c -0.05,0.037 -0.122,0.057 -0.148,0.117 0.136,0.209 0.299,0.399 0.432,0.61 0.047,0.07 0.076,0.169 0.017,0.241 C 0.96,0.559 0.794,0.579 0.648,0.583 0.482,0.356 0.316,0.13 0.152,-0.1 0.102,-0.066 0.051,-0.032 0,0"
       style="fill:#363993;fill-opacity:1;fill-rule:nonzero;stroke:none"
       transform="matrix(0.35277776,0,0,-0.35277776,47.834018,164.58236)"
       clip-path="url(#clipPath2418)" />
    <path
       id="path2419"
       d="M 0,0 C 0.042,0.19 0.177,0.377 0.38,0.411 0.534,0.436 0.667,0.324 0.752,0.208 0.897,0.008 1.045,-0.188 1.185,-0.39 1.134,-0.424 1.082,-0.459 1.029,-0.491 0.892,-0.303 0.756,-0.113 0.615,0.073 0.558,0.142 0.485,0.231 0.385,0.212 0.227,0.175 0.138,0.019 0.095,-0.125 c 0.14,-0.248 0.34,-0.461 0.492,-0.704 -0.052,-0.033 -0.104,-0.066 -0.155,-0.1 -0.215,0.308 -0.452,0.602 -0.658,0.915 0.05,0.033 0.099,0.066 0.15,0.098 C -0.051,0.056 -0.026,0.028 0,0"
       style="fill:#363993;fill-opacity:1;fill-rule:nonzero;stroke:none"
       transform="matrix(0.35277776,0,0,-0.35277776,55.04261,164.43183)"
       clip-path="url(#clipPath2420)" />
    <path
       id="path2421"
       d="m 0,0 c -0.12,-0.048 -0.218,-0.174 -0.196,-0.309 0.03,-0.18 0.138,-0.347 0.287,-0.453 0.184,-0.124 0.463,0.037 0.456,0.255 C 0.535,-0.334 0.437,-0.176 0.314,-0.06 0.232,0.02 0.105,0.046 0,0 M -0.04,0.163 C 0.339,0.309 0.683,-0.081 0.726,-0.431 0.78,-0.776 0.384,-1.073 0.065,-0.952 c -0.243,0.1 -0.405,0.352 -0.441,0.606 -0.033,0.225 0.13,0.436 0.336,0.509"
       style="fill:#363993;fill-opacity:1;fill-rule:nonzero;stroke:none"
       transform="matrix(0.35277776,0,0,-0.35277776,54.771359,164.6206)"
       clip-path="url(#clipPath2422)" />
    <path
       id="path2423"
       d="M 0,0 C 0.152,-0.079 0.293,-0.182 0.456,-0.238 0.495,0.015 0.544,0.267 0.583,0.52 0.391,0.345 0.193,0.175 0,0 M 0.556,0.731 C 0.634,0.69 0.711,0.648 0.787,0.604 0.702,0.084 0.613,-0.435 0.532,-0.956 c -0.066,0.02 -0.128,0.052 -0.187,0.088 0.026,0.143 0.048,0.286 0.079,0.429 -0.183,0.113 -0.376,0.21 -0.562,0.317 -0.115,-0.098 -0.221,-0.206 -0.342,-0.295 -0.053,0.034 -0.106,0.067 -0.16,0.1 0.398,0.35 0.798,0.698 1.196,1.048"
       style="fill:#363993;fill-opacity:1;fill-rule:nonzero;stroke:none"
       transform="matrix(0.35277776,0,0,-0.35277776,48.629922,164.85851)"
       clip-path="url(#clipPath2424)" />
    <path
       id="path2425"
       d="M 0,0 C 0.056,0.169 0.186,0.302 0.354,0.361 0.388,0.305 0.421,0.249 0.455,0.191 0.286,0.136 0.098,0.016 0.076,-0.174 0.196,-0.402 0.315,-0.631 0.447,-0.852 0.395,-0.893 0.338,-0.925 0.279,-0.952 0.104,-0.62 -0.079,-0.292 -0.253,0.04 -0.198,0.07 -0.142,0.098 -0.085,0.123 -0.062,0.08 -0.038,0.034 0,0"
       style="fill:#363993;fill-opacity:1;fill-rule:nonzero;stroke:none"
       transform="matrix(0.35277776,0,0,-0.35277776,54.422075,164.82959)"
       clip-path="url(#clipPath2426)" />
    <path
       id="path2427"
       d="M 0,0 C 0.063,0.032 0.127,0.062 0.191,0.092 0.219,0.034 0.247,-0.025 0.275,-0.084 0.211,-0.117 0.145,-0.146 0.077,-0.172 0.052,-0.114 0.026,-0.056 0,0"
       style="fill:#363993;fill-opacity:1;fill-rule:nonzero;stroke:none"
       transform="matrix(0.35277776,0,0,-0.35277776,54.095473,164.78242)"
       clip-path="url(#clipPath2428)" />
    <path
       id="path2429"
       d="M 0,0 C 0.056,0.025 0.111,0.051 0.168,0.076 0.325,-0.267 0.51,-0.597 0.651,-0.946 0.596,-0.969 0.541,-0.992 0.487,-1.015 0.328,-0.675 0.154,-0.342 0,0"
       style="fill:#363993;fill-opacity:1;fill-rule:nonzero;stroke:none"
       transform="matrix(0.35277776,0,0,-0.35277776,54.159148,164.90074)"
       clip-path="url(#clipPath2430)" />
    <path
       id="path2431"
       d="M 0,0 C 0.077,0.195 0.241,0.379 0.461,0.398 0.693,0.423 0.904,0.285 1.043,0.111 1.011,0.063 0.977,-0.126 0.907,-0.014 0.807,0.144 0.614,0.287 0.42,0.209 0.247,0.126 0.153,-0.072 0.132,-0.257 0.114,-0.396 0.211,-0.53 0.339,-0.577 0.456,-0.63 0.588,-0.612 0.711,-0.601 0.683,-0.664 0.654,-0.727 0.625,-0.79 0.401,-0.799 0.159,-0.724 0.023,-0.536 -0.092,-0.381 -0.073,-0.168 0,0"
       style="fill:#363993;fill-opacity:1;fill-rule:nonzero;stroke:none"
       transform="matrix(0.35277776,0,0,-0.35277776,48.958217,165.06267)"
       clip-path="url(#clipPath2432)" />
    <path
       id="path2433"
       d="M 0,0 C 0.06,0.028 0.121,0.054 0.184,0.076 0.189,-0.326 0.199,-0.728 0.209,-1.131 0.155,-1.155 0.102,-1.183 0.045,-1.199 c -0.049,0.012 -0.075,0.061 -0.111,0.091 -0.244,0.262 -0.509,0.502 -0.742,0.772 0.057,0.024 0.114,0.048 0.172,0.072 0.229,-0.225 0.45,-0.458 0.669,-0.693 C 0.028,-0.638 0.015,-0.319 0,0"
       style="fill:#363993;fill-opacity:1;fill-rule:nonzero;stroke:none"
       transform="matrix(0.35277776,0,0,-0.35277776,54.020225,164.96809)"
       clip-path="url(#clipPath2434)" />
    <path
       id="path2435"
       d="m 0,0 c 0.126,-0.098 0.296,-0.087 0.443,-0.051 0.042,0.1 0.081,0.2 0.115,0.302 C 0.408,0.289 0.258,0.36 0.099,0.341 -0.057,0.33 -0.139,0.088 0,0 M 0.131,0.963 C 0.361,0.927 0.622,0.878 0.777,0.687 0.873,0.562 0.825,0.398 0.77,0.267 0.69,0.058 0.603,-0.149 0.534,-0.362 0.441,-0.348 0.303,-0.314 0.38,-0.191 0.199,-0.259 -0.03,-0.243 -0.17,-0.097 -0.36,0.086 -0.241,0.465 0.022,0.501 0.232,0.537 0.429,0.435 0.631,0.398 0.639,0.475 0.664,0.568 0.596,0.627 0.451,0.756 0.246,0.773 0.061,0.782 c 0.023,0.06 0.047,0.121 0.07,0.181"
       style="fill:#363993;fill-opacity:1;fill-rule:nonzero;stroke:none"
       transform="matrix(0.35277776,0,0,-0.35277776,49.367086,165.3832)"
       clip-path="url(#clipPath2436)" />
    <path
       id="path2437"
       d="M 0,0 C -0.028,-0.124 -0.061,-0.282 0.04,-0.382 0.16,-0.497 0.348,-0.478 0.491,-0.423 0.57,-0.219 0.62,-0.004 0.686,0.205 0.57,0.294 0.424,0.378 0.272,0.341 0.118,0.301 0.041,0.14 0,0 M 0.869,0.816 C 0.928,0.8 0.987,0.784 1.045,0.767 0.907,0.262 0.75,-0.238 0.597,-0.739 0.513,-0.711 0.377,-0.706 0.443,-0.581 0.293,-0.64 0.114,-0.66 -0.029,-0.57 c -0.169,0.097 -0.215,0.314 -0.183,0.493 0.033,0.251 0.176,0.524 0.438,0.592 0.186,0.053 0.37,-0.039 0.509,-0.156 0.042,0.153 0.09,0.305 0.134,0.457"
       style="fill:#363993;fill-opacity:1;fill-rule:nonzero;stroke:none"
       transform="matrix(0.35277776,0,0,-0.35277776,49.788268,165.39294)"
       clip-path="url(#clipPath2438)" />
    <path
       id="path2439"
       d="M 0,0 C 0.316,0.08 0.631,0.164 0.949,0.238 0.961,0.182 0.974,0.124 0.987,0.067 0.737,0.006 0.488,-0.061 0.238,-0.12 c 0.027,-0.135 0.063,-0.267 0.1,-0.4 0.253,0.06 0.502,0.137 0.758,0.185 C 1.107,-0.391 1.117,-0.447 1.128,-0.504 0.878,-0.565 0.63,-0.63 0.381,-0.692 0.422,-0.873 0.473,-1.05 0.513,-1.231 0.768,-1.179 1.018,-1.104 1.272,-1.045 1.286,-1.101 1.3,-1.158 1.314,-1.215 0.999,-1.296 0.684,-1.378 0.368,-1.454 0.248,-0.969 0.123,-0.485 0,0"
       style="fill:#363993;fill-opacity:1;fill-rule:nonzero;stroke:none"
       transform="matrix(0.35277776,0,0,-0.35277776,52.893241,165.20346)"
       clip-path="url(#clipPath2440)" />
    <path
       id="path2441"
       d="M 0,0 C 0.097,0.147 0.243,0.282 0.43,0.285 0.596,0.299 0.721,0.159 0.773,0.015 0.86,-0.227 0.937,-0.473 1.023,-0.716 0.968,-0.738 0.912,-0.759 0.857,-0.782 0.73,-0.521 0.694,-0.221 0.544,0.029 0.377,0.193 0.145,-0.004 0.052,-0.159 0.143,-0.425 0.237,-0.691 0.321,-0.96 0.263,-0.963 0.152,-1.052 0.126,-0.963 c -0.11,0.341 -0.237,0.676 -0.337,1.02 0.056,0.018 0.113,0.036 0.17,0.053 C -0.031,0.083 -0.01,0.028 0,0"
       style="fill:#363993;fill-opacity:1;fill-rule:nonzero;stroke:none"
       transform="matrix(0.35277776,0,0,-0.35277776,53.431157,165.23606)"
       clip-path="url(#clipPath2442)" />
    <path
       id="path2443"
       d="M 0,0 C 0.113,0.128 0.299,0.142 0.459,0.129 0.464,0.074 0.47,0.019 0.476,-0.037 0.365,-0.034 0.236,-0.02 0.146,-0.102 0.086,-0.17 0.112,-0.269 0.111,-0.352 c 0.113,0.017 0.226,0.038 0.341,0.041 0.005,-0.05 0.011,-0.1 0.017,-0.15 C 0.361,-0.478 0.253,-0.494 0.146,-0.51 0.191,-0.83 0.24,-1.149 0.285,-1.468 0.221,-1.475 0.159,-1.482 0.096,-1.49 0.055,-1.174 0.005,-0.859 -0.04,-0.544 -0.071,-0.546 -0.134,-0.55 -0.164,-0.552 c -0.008,0.037 -0.022,0.109 -0.03,0.145 0.031,0.007 0.092,0.021 0.122,0.028 C -0.078,-0.251 -0.09,-0.105 0,0"
       style="fill:#363993;fill-opacity:1;fill-rule:nonzero;stroke:none"
       transform="matrix(0.35277776,0,0,-0.35277776,52.455408,165.28478)"
       clip-path="url(#clipPath2444)" />
    <path
       id="path2445"
       d="M 0,0 C -0.08,-0.04 -0.126,-0.121 -0.179,-0.189 0.022,-0.276 0.246,-0.295 0.458,-0.345 0.454,-0.251 0.471,-0.139 0.397,-0.066 0.293,0.032 0.13,0.06 0,0 M -0.262,-0.016 C -0.08,0.249 0.353,0.25 0.553,0.008 0.672,-0.144 0.636,-0.351 0.598,-0.525 0.329,-0.473 0.062,-0.408 -0.207,-0.351 -0.227,-0.485 -0.218,-0.642 -0.106,-0.735 0.066,-0.884 0.315,-0.858 0.515,-0.79 0.5,-0.856 0.485,-0.923 0.47,-0.99 c -0.263,-0.054 -0.576,-0.021 -0.764,0.192 -0.181,0.223 -0.123,0.561 0.032,0.782"
       style="fill:#363993;fill-opacity:1;fill-rule:nonzero;stroke:none"
       transform="matrix(0.35277776,0,0,-0.35277776,50.301348,165.38814)"
       clip-path="url(#clipPath2446)" />
    <path
       id="path2447"
       d="M 0,0 C 0.088,-0.009 0.234,0.005 0.179,-0.136 0.323,-0.05 0.505,0.01 0.666,-0.068 0.749,-0.095 0.792,-0.176 0.838,-0.245 1,-0.142 1.207,-0.066 1.392,-0.158 1.543,-0.223 1.576,-0.406 1.563,-0.554 1.536,-0.807 1.502,-1.06 1.472,-1.314 1.41,-1.306 1.348,-1.3 1.287,-1.293 1.308,-1.007 1.378,-0.724 1.368,-0.437 1.305,-0.215 1.005,-0.289 0.865,-0.392 0.826,-0.668 0.795,-0.946 0.765,-1.223 0.705,-1.208 0.605,-1.246 0.578,-1.172 0.601,-0.9 0.666,-0.63 0.659,-0.356 0.606,-0.131 0.268,-0.191 0.154,-0.323 0.111,-0.594 0.085,-0.868 0.052,-1.14 -0.011,-1.133 -0.074,-1.127 -0.136,-1.121 -0.092,-0.747 -0.048,-0.373 0,0"
       style="fill:#363993;fill-opacity:1;fill-rule:nonzero;stroke:none"
       transform="matrix(0.35277776,0,0,-0.35277776,50.64855,165.39449)"
       clip-path="url(#clipPath2448)" />
    <path
       id="path2449"
       d="m 0,0 c -0.101,-0.027 -0.184,-0.112 -0.204,-0.215 -0.037,-0.17 -0.018,-0.358 0.072,-0.509 0.122,-0.186 0.446,-0.151 0.523,0.058 0.057,0.167 0.04,0.355 -0.03,0.514 C 0.303,-0.016 0.136,0.042 0,0 m -0.041,0.162 c 0.214,0.062 0.467,-0.03 0.569,-0.234 0.111,-0.222 0.129,-0.509 -0.003,-0.726 -0.178,-0.285 -0.664,-0.289 -0.833,0.008 -0.19,0.309 -0.142,0.854 0.267,0.952"
       style="fill:#363993;fill-opacity:1;fill-rule:nonzero;stroke:none"
       transform="matrix(0.35277776,0,0,-0.35277776,52.134027,165.50025)"
       clip-path="url(#clipPath2450)" />
    <path
       id="path2451"
       d="m 0,0 c 0.066,-0.003 0.134,-0.008 0.201,-0.014 0.096,-0.279 0.207,-0.553 0.308,-0.831 0.138,0.269 0.242,0.553 0.379,0.821 0.061,-0.003 0.123,-0.007 0.184,-0.011 -0.228,-0.509 -0.456,-1.018 -0.69,-1.524 -0.066,0.004 -0.131,0.007 -0.197,0.01 0.074,0.154 0.149,0.309 0.22,0.464 C 0.271,-0.723 0.119,-0.367 0,0"
       style="fill:#363993;fill-opacity:1;fill-rule:nonzero;stroke:none"
       transform="matrix(0.35277776,0,0,-0.35277776,51.288842,165.46296)"
       clip-path="url(#clipPath2452)" />
    <path
       id="path2453"
       d="m 0,0 c 3.312,1.78 7.313,2.21 10.933,1.202 2.953,-0.804 5.632,-2.561 7.563,-4.933 1.456,-1.773 2.489,-3.891 2.994,-6.129 0.05,-0.225 0.117,-0.448 0.131,-0.68 -0.145,0.63 -0.527,1.177 -0.977,1.629 -0.602,0.599 -1.327,1.059 -2.079,1.446 -0.846,0.425 -1.732,0.778 -2.644,1.036 -0.48,0.175 -0.982,0.275 -1.475,0.409 -1.913,0.443 -3.87,0.692 -5.831,0.774 -3.39,0.169 -6.832,-0.184 -10.055,-1.279 -1.145,-0.391 -2.26,-0.88 -3.306,-1.492 -1.133,-0.682 -2.231,-1.502 -2.952,-2.632 0.261,1.475 0.726,2.917 1.412,4.251 C -4.912,-3.689 -2.685,-1.421 0,0"
       style="fill:#70c143;fill-opacity:1;fill-rule:nonzero;stroke:none"
       transform="matrix(0.35277776,0,0,-0.35277776,49.230137,154.92803)"
       clip-path="url(#clipPath2454)" />
    <path
       id="path2455"
       d="M 0,0 C 0.912,-0.259 1.797,-0.611 2.644,-1.036 3.396,-1.423 4.121,-1.883 4.723,-2.482 5.173,-2.934 5.554,-3.481 5.7,-4.111 5.856,-4.918 5.769,-5.773 5.45,-6.532 5.188,-7.191 4.772,-7.78 4.293,-8.299 c -0.927,-0.986 -2.087,-1.722 -3.3,-2.305 -1.46,-0.693 -3.017,-1.163 -4.597,-1.491 -3.667,-0.735 -7.463,-0.696 -11.146,-0.098 -0.621,0.101 -1.237,0.227 -1.853,0.348 0.096,0.018 0.194,0.02 0.292,0.019 1.996,0.027 3.993,0.188 5.958,0.543 2.256,0.415 4.492,1.075 6.501,2.2 0.098,0.05 0.187,0.14 0.305,0.125 0.684,-10e-4 1.368,-0.002 2.052,0 0,0.404 0,0.808 0,1.212 -0.146,0 -0.292,-0.002 -0.438,0.002 0.247,0.228 0.494,0.457 0.719,0.706 0.193,0.199 0.353,0.426 0.537,0.632 0.148,-0.333 0.431,-0.611 0.778,-0.732 C 0.497,-7.285 0.917,-7.347 1.332,-7.413 1.579,-7.441 1.84,-7.472 2.048,-7.622 2.038,-7.833 1.79,-7.887 1.621,-7.91 c -0.519,-0.052 -1.059,0.07 -1.5,0.348 -0.154,0.093 -0.266,0.236 -0.408,0.342 -0.228,-0.312 -0.464,-0.619 -0.696,-0.929 0.438,-0.459 1.03,-0.749 1.644,-0.887 0.585,-0.119 1.21,-0.13 1.78,0.067 0.406,0.143 0.761,0.458 0.895,0.874 0.146,0.445 0.118,0.982 -0.195,1.352 -0.311,0.365 -0.788,0.529 -1.246,0.618 -0.389,0.092 -0.797,0.087 -1.181,0.206 -0.053,0.013 -0.092,0.051 -0.129,0.087 0.113,0.217 0.382,0.225 0.595,0.254 0.591,0.018 1.2,-0.148 1.668,-0.52 0.208,0.279 0.421,0.554 0.625,0.835 C 3.139,-4.824 2.603,-4.6 2.079,-4.488 1.485,-4.369 0.858,-4.356 0.275,-4.537 0.763,-3.064 0.684,-1.399 0,0"
       style="fill:#388b4f;fill-opacity:1;fill-rule:nonzero;stroke:none"
       transform="matrix(0.35277776,0,0,-0.35277776,54.846784,157.196)"
       clip-path="url(#clipPath2456)" />
    <path
       id="path2457"
       d="m 0,0 c 2.377,0.503 4.818,0.656 7.243,0.557 1.585,-0.074 3.166,-0.252 4.726,-0.543 0.387,-0.081 0.783,-0.126 1.16,-0.247 C 10.466,-0.24 7.795,-0.499 5.206,-1.138 4.111,-1.414 3.029,-1.755 1.992,-2.205 1.374,-2.458 0.788,-2.78 0.202,-3.094 c -0.561,-0.019 -1.124,-0.002 -1.686,-0.008 -0.022,-0.405 0.006,-0.811 -0.013,-1.216 -0.122,-0.143 -0.28,-0.253 -0.405,-0.394 -0.351,-0.345 -0.665,-0.726 -0.951,-1.125 -0.219,-0.309 -0.576,-0.486 -0.938,-0.566 -0.464,-0.082 -0.965,-0.028 -1.375,0.217 -0.24,0.147 -0.449,0.371 -0.516,0.65 -0.064,0.267 0.027,0.552 0.207,0.754 0.25,0.288 0.621,0.439 0.991,0.5 0.457,0.056 0.945,-0.024 1.327,-0.292 0.16,-0.107 0.278,-0.262 0.409,-0.401 0.181,0.131 0.338,0.292 0.511,0.434 0.129,0.116 0.271,0.22 0.388,0.349 -0.214,0.24 -0.434,0.482 -0.708,0.657 -0.668,0.434 -1.498,0.591 -2.283,0.482 -0.698,-0.098 -1.382,-0.414 -1.849,-0.951 -0.374,-0.426 -0.58,-1.006 -0.512,-1.572 0.066,-0.55 0.377,-1.05 0.8,-1.4 0.727,-0.612 1.733,-0.816 2.659,-0.664 -0.029,-0.165 -0.077,-0.325 -0.115,-0.487 -0.277,-1.248 -0.178,-2.588 0.352,-3.757 0.029,-0.061 0.052,-0.124 0.067,-0.189 -0.742,0.215 -1.467,0.488 -2.168,0.813 -0.699,0.319 -1.372,0.704 -1.981,1.175 -0.541,0.431 -1.041,0.943 -1.343,1.574 -0.056,0.124 -0.094,0.256 -0.162,0.375 -0.165,0.764 -0.137,1.581 0.119,2.325 0.358,1.062 1.085,1.962 1.928,2.683 0.726,0.625 1.546,1.132 2.402,1.56 C -3.176,-0.838 -1.601,-0.342 0,0"
       style="fill:#9db6de;fill-opacity:1;fill-rule:nonzero;stroke:none"
       transform="matrix(0.35277776,0,0,-0.35277776,49.754965,157.67875)"
       clip-path="url(#clipPath2458)" />
    <path
       id="path2459"
       d="M 0,0 C 0.225,0.241 0.409,0.514 0.599,0.781 0.23,-1.328 -0.582,-3.362 -1.799,-5.125 -2.931,-6.779 -4.401,-8.2 -6.091,-9.276 c -1.806,-1.152 -3.863,-1.908 -5.986,-2.188 -3.086,-0.422 -6.304,0.151 -9.043,1.638 -2.661,1.427 -4.865,3.687 -6.227,6.382 -0.633,1.244 -1.088,2.579 -1.346,3.951 0.069,-0.119 0.107,-0.251 0.163,-0.375 0.302,-0.631 0.802,-1.143 1.343,-1.574 0.609,-0.471 1.282,-0.856 1.981,-1.176 0.701,-0.324 1.426,-0.597 2.168,-0.812 0.479,-0.17 0.977,-0.274 1.467,-0.406 1.646,-0.385 3.326,-0.621 5.012,-0.734 2.067,-0.142 4.15,-0.119 6.206,0.152 2.556,0.341 5.086,1.031 7.38,2.225 C -1.887,-1.606 -0.836,-0.917 0,0"
       style="fill:#588ac5;fill-opacity:1;fill-rule:nonzero;stroke:none"
       transform="matrix(0.35277776,0,0,-0.35277776,56.669408,160.7278)"
       clip-path="url(#clipPath2460)" />
  </g>
</svg>
