<?xml version="1.0" encoding="utf-8"?>
<!-- Generator: Adobe Illustrator 28.0.0, SVG Export Plug-In . SVG Version: 6.00 Build 0)  -->
<svg version="1.1" id="svg1" xmlns:svg="http://www.w3.org/2000/svg"
	 xmlns="http://www.w3.org/2000/svg" xmlns:xlink="http://www.w3.org/1999/xlink" x="0px" y="0px" viewBox="0 0 39.1 39.1"
	 style="enable-background:new 0 0 39.1 39.1;" xml:space="preserve">
<style type="text/css">
	
		.st0{clip-path:url(#SVGID_00000145028597849633318720000007578588989229238419_);fill-rule:evenodd;clip-rule:evenodd;fill:#1F52A5;}
	
		.st1{clip-path:url(#SVGID_00000125589739516544593380000016564087093943501971_);fill-rule:evenodd;clip-rule:evenodd;fill:#1F52A5;}
	
		.st2{clip-path:url(#SVGID_00000151520863030448388110000016469298979040630953_);fill-rule:evenodd;clip-rule:evenodd;fill:#1F52A5;}
	
		.st3{clip-path:url(#SVGID_00000171709725442272764270000013137674274935017870_);fill-rule:evenodd;clip-rule:evenodd;fill:#1F52A5;}
	
		.st4{clip-path:url(#SVGID_00000145037939017927676450000009711029222991097270_);fill-rule:evenodd;clip-rule:evenodd;fill:#1F52A5;}
	
		.st5{clip-path:url(#SVGID_00000114769320064965394550000007691870392177754267_);fill-rule:evenodd;clip-rule:evenodd;fill:#1F52A5;}
	
		.st6{clip-path:url(#SVGID_00000092420835697251183360000002050758538942201023_);fill-rule:evenodd;clip-rule:evenodd;fill:#1F52A5;}
	
		.st7{clip-path:url(#SVGID_00000042700445748792241900000017356318409316152745_);fill-rule:evenodd;clip-rule:evenodd;fill:#1F52A5;}
	
		.st8{clip-path:url(#SVGID_00000111903516864624979820000007455706399520286390_);fill-rule:evenodd;clip-rule:evenodd;fill:#1F52A5;}
	
		.st9{clip-path:url(#SVGID_00000028306112032449012730000017840083290673703085_);fill-rule:evenodd;clip-rule:evenodd;fill:#1F52A5;}
	
		.st10{clip-path:url(#SVGID_00000096048168136951342180000008178153823292161190_);fill-rule:evenodd;clip-rule:evenodd;fill:#1F52A5;}
	.st11{clip-path:url(#SVGID_00000024688733542337234110000002281045067330868881_);fill:#1F52A5;}
	.st12{clip-path:url(#SVGID_00000165215868034281523420000017095119844464864699_);fill:#1F52A5;}
	
		.st13{clip-path:url(#SVGID_00000126306653118238236380000012594224439068813475_);fill-rule:evenodd;clip-rule:evenodd;fill:#1F52A5;}
	
		.st14{clip-path:url(#SVGID_00000147941977564662983670000016430037370496614333_);fill-rule:evenodd;clip-rule:evenodd;fill:#1F52A5;}
	
		.st15{clip-path:url(#SVGID_00000106864975315879545990000011854162476945856905_);fill-rule:evenodd;clip-rule:evenodd;fill:#1F52A5;}
</style>
<g id="layer1" transform="translate(-105.5831,-152.36746)">
	<g>
		<defs>
			<rect id="SVGID_1_" x="-212.5" y="-476.3" width="1207.6" height="858.9"/>
		</defs>
		<clipPath id="SVGID_00000149383604594316957810000015251884450921966524_">
			<use xlink:href="#SVGID_1_"  style="overflow:visible;"/>
		</clipPath>
		
			<path id="path2461" style="clip-path:url(#SVGID_00000149383604594316957810000015251884450921966524_);fill-rule:evenodd;clip-rule:evenodd;fill:#1F52A5;" d="
			M124.3,163c0.6-0.1,1.1-0.1,1.7,0l0.4-1.1l0,0c0.9,0.1,1.8,0.4,2.7,0.7l0,0l-0.2,1.1c0.5,0.2,1,0.5,1.5,0.8l0.9-0.8l0,0
			c0.7,0.5,1.4,1.2,1.9,1.9l0,0h-0.8l0,0c-0.3-0.4-0.7-0.8-1.1-1.1l-0.9,0.7l0,0c-0.7-0.6-1.4-1-2.3-1.3l0,0l0.2-1.1
			c-0.5-0.2-1-0.3-1.5-0.4l-0.4,1.1l0,0c-0.4-0.1-0.9-0.1-1.3-0.1c-0.4,0-0.9,0-1.3,0.1l0,0l-0.4-1.1c-0.5,0.1-1,0.2-1.5,0.4
			l0.2,1.1l0,0c-0.8,0.3-1.6,0.8-2.3,1.3l0,0l-0.9-0.7c-0.4,0.3-0.8,0.7-1.1,1.1l0,0h-0.8l0,0c0.5-0.7,1.2-1.3,1.9-1.9l0,0l0.9,0.8
			c0.5-0.3,1-0.6,1.5-0.9l-0.2-1.1l0,0c0.8-0.4,1.7-0.6,2.7-0.7l0,0L124.3,163z"/>
	</g>
	<g>
		<defs>
			<rect id="SVGID_00000160170834993986990740000015737063572096280255_" x="-212.5" y="-476.3" width="1207.6" height="858.9"/>
		</defs>
		<clipPath id="SVGID_00000014593031670432869310000006426789434360550047_">
			<use xlink:href="#SVGID_00000160170834993986990740000015737063572096280255_"  style="overflow:visible;"/>
		</clipPath>
		
			<path id="path2463" style="clip-path:url(#SVGID_00000014593031670432869310000006426789434360550047_);fill-rule:evenodd;clip-rule:evenodd;fill:#1F52A5;" d="
			M125.1,164.2c1.8,0,3.5,0.6,4.8,1.6h-0.5c-1.2-0.8-2.7-1.3-4.3-1.3s-3.1,0.5-4.3,1.3h-0.5C121.7,164.8,123.3,164.2,125.1,164.2"/>
	</g>
	<g>
		<defs>
			<rect id="SVGID_00000055678236358199402500000013051738299252033950_" x="-212.5" y="-476.3" width="1207.6" height="858.9"/>
		</defs>
		<clipPath id="SVGID_00000124126810556230093900000009250100181427934361_">
			<use xlink:href="#SVGID_00000055678236358199402500000013051738299252033950_"  style="overflow:visible;"/>
		</clipPath>
		
			<path id="path2465" style="clip-path:url(#SVGID_00000124126810556230093900000009250100181427934361_);fill-rule:evenodd;clip-rule:evenodd;fill:#1F52A5;" d="
			M135.1,168.2c0.6,0.7,1,1.4,1,2.6c0.3-0.2,0.4-1.2,0.9-1.6c0.1,1.4-0.4,2.4-1.3,3.3c-0.1-0.9-0.8-0.3-1-2.5
			c0.4,0.2,0.4,0.8,0.9,1.1C135,169.9,135.1,169.3,135.1,168.2 M133.4,179c0,0.1,0,0.2,0,0.3c-0.3,0.1-0.6,0.2-0.9,0.4
			c0.5-0.6,0.6-1.5,0.5-2.1c-0.7,1-1.8,1.9-1.7,3c0,0.1,0,0.2,0,0.3c-0.4,0.1-0.7,0.3-1,0.5c-0.1,0-0.1,0.1-0.2,0.1
			c0,0,0.1-0.1,0.1-0.2c0.4-0.5,0.7-1.3,0.9-1.8c-1.6,1.2-2,1.2-2.8,2.2c-0.2,0.3-1.3,0.5-1.6,0.6c-0.1,0-0.1,0.1,0,0.1
			c0.4,0,1.1,0,1.3,0.1c1.4,0.5,2.4,0.2,3.9-0.5c-0.8,0.1-1.5,0-2.3-0.2c0.1,0,0.2-0.2,0.4-0.1c1.6,0.4,2.8-0.2,3.9-1.4
			c-1,0.2-1.7,0.3-2.5,0.5l0,0c0-0.1,0.3-0.3,0.3-0.3c1.1-0.5,2.4-0.1,3.5-1.9c-0.6,0.4-1.2,0.4-1.8,0.6c0-0.1,0-0.2,0.1-0.3
			c0.9-0.8,1.9-0.5,3-2.8c-0.5,0.1-1.1,0.5-1.6,0.9c0-0.1,0.1-0.3,0.2-0.4c0.9-0.8,1.8-1.4,2-2.7c-0.3,0.3-0.8,0.6-1.2,0.8
			c0.7-1,1.3-2.1,1.2-3.6c-0.3,1.2-1,1.3-1.4,2.2c-0.2-0.7-0.5-1.1-0.9-1.5c-0.1,2,0.7,2,0.7,3.4l-0.3,0.2c0-0.7-0.2-1.4-0.6-2
			c-0.1,1.1-0.5,2.4,0.2,3.3c0.1,0.2,0,0.3,0,0.4c-0.2,0.2-0.5,0.3-0.6,0.3c0.1-0.6,0.1-1.3-0.1-2C134,176.6,133.2,177.5,133.4,179"
			/>
	</g>
	<g>
		<defs>
			<rect id="SVGID_00000036234079021482808600000013997213888116986558_" x="-212.5" y="-476.3" width="1207.6" height="858.9"/>
		</defs>
		<clipPath id="SVGID_00000127009420693294846020000012787357749300967096_">
			<use xlink:href="#SVGID_00000036234079021482808600000013997213888116986558_"  style="overflow:visible;"/>
		</clipPath>
		
			<path id="path2467" style="clip-path:url(#SVGID_00000127009420693294846020000012787357749300967096_);fill-rule:evenodd;clip-rule:evenodd;fill:#1F52A5;" d="
			M115.2,168.2c-0.6,0.7-1,1.4-1,2.6c-0.3-0.2-0.4-1.2-0.9-1.6c-0.1,1.4,0.4,2.4,1.3,3.3c0.1-0.9,0.8-0.3,1-2.5
			c-0.4,0.2-0.4,0.8-0.9,1.1C115.3,169.9,115.2,169.3,115.2,168.2 M116.9,179c0,0.1,0,0.2,0,0.3c0.3,0.1,0.6,0.2,0.9,0.4
			c-0.5-0.6-0.6-1.5-0.5-2.1c0.7,1,1.8,1.9,1.7,3c0,0.1,0,0.2,0,0.3c0.4,0.1,0.7,0.3,1,0.5c0.1,0,0.1,0.1,0.2,0.1
			c0,0-0.1-0.1-0.1-0.2c-0.4-0.5-0.7-1.3-0.9-1.8c1.6,1.2,2,1.2,2.8,2.2c0.2,0.3,1.3,0.5,1.6,0.6c0.1,0,0.1,0.1,0,0.1
			c-0.4,0-1.1,0-1.3,0.1c-1.4,0.5-2.4,0.2-3.9-0.5c0.8,0.1,1.5,0,2.3-0.2c-0.1,0-0.2-0.2-0.4-0.1c-1.6,0.4-2.8-0.2-3.9-1.4
			c1,0.2,1.7,0.3,2.5,0.5l0,0c0-0.1-0.3-0.3-0.3-0.3c-1.1-0.5-2.4-0.1-3.5-1.9c0.6,0.4,1.2,0.4,1.8,0.6c0-0.1,0-0.2-0.1-0.3
			c-0.9-0.8-1.9-0.5-3-2.8c0.5,0.1,1.1,0.5,1.6,0.9c0-0.1-0.1-0.3-0.2-0.4c-0.9-0.8-1.8-1.4-2-2.7c0.3,0.3,0.8,0.6,1.2,0.8
			c-0.7-1-1.3-2.1-1.2-3.6c0.3,1.2,1,1.3,1.4,2.2c0.2-0.7,0.5-1.1,0.9-1.5c0.1,2-0.7,2-0.7,3.4l0.3,0.2c0-0.7,0.2-1.4,0.6-2
			c0.1,1.1,0.5,2.4-0.2,3.3c-0.1,0.2,0,0.3,0,0.4c0.2,0.2,0.5,0.3,0.6,0.3c-0.1-0.6-0.1-1.3,0.1-2
			C116.3,176.6,117.1,177.5,116.9,179"/>
	</g>
	<g>
		<defs>
			<rect id="SVGID_00000021838009421173407870000011999207344622788999_" x="-212.5" y="-476.3" width="1207.6" height="858.9"/>
		</defs>
		<clipPath id="SVGID_00000145760922059555872440000009680860903081884058_">
			<use xlink:href="#SVGID_00000021838009421173407870000011999207344622788999_"  style="overflow:visible;"/>
		</clipPath>
		
			<path id="path2469" style="clip-path:url(#SVGID_00000145760922059555872440000009680860903081884058_);fill-rule:evenodd;clip-rule:evenodd;fill:#1F52A5;" d="
			M125.1,182.5l0.5-0.9h-1.1L125.1,182.5z M135.8,165.8l-10.7,18.5l-10.7-18.5H135.8z M125.1,178.9l-0.5-0.9h-1.5l-0.3,0.5l0.2,0.4
			H125.1z M124.5,177.8l-0.6-1l-0.6,1H124.5z M122.6,177.8l0.5-0.9h-1.2l0.5,0.9H122.6z M123.3,176.6l0.2-0.4l-0.3-0.4h-1.4
			l-0.4,0.6l0.2,0.3H123.3z M123.1,175.4l-0.5-0.9h0l-0.5,0.9H123.1z M121.4,175.4l0.5-0.9h-1.4l0.5,0.9H121.4z M122.1,174.3
			l0.5-0.9h-2.7l0.5,0.9H122.1z M122.6,173.4l0.5,0.9h1.5l0.5-0.9H122.6z M123.3,174.6l0.6,1l0.6-1H123.3z M125.1,173.4l0.5,0.9h1.5
			l0.5-0.9H125.1z M125.8,174.6l0.6,1l0.6-1H125.8z M127.7,173.4l0.5,0.9h1.7l0.5-0.9H127.7z M128.4,174.6l0.5,0.9h0.4l0.5-0.9
			H128.4z M128.7,176.3l-0.4-0.6H127l-0.3,0.4l0.2,0.4h1.6L128.7,176.3z M128.2,175.4l-0.5-0.9h0l-0.5,0.9H128.2z M127.2,176.9
			l0.5,0.9h0.2l0.5-0.9H127.2z M127.4,178.5l-0.3-0.5h-1.5l-0.5,0.9h2.1L127.4,178.5z M127,177.8l-0.6-1l-0.6,1H127z M124.2,176.2
			l0.2,0.4h1.4l0.2-0.4l-0.3-0.4h-1.4L124.2,176.2z M124.6,176.9l0.5,0.9h0l0.5-0.9H124.6z M125.7,175.4l-0.5-0.9h0l-0.5,0.9H125.7z
			 M116,166.7h18.3l-2,3.5H118L116,166.7z M118.5,171.1h13.2l-0.5,0.9H119L118.5,171.1z M125.9,181.3l0.5-0.9h-2.4l0.5,0.9H125.9z
			 M126.5,180.1l0.5-0.9h-3.8l0.5,0.9H126.5z M130.6,173.1h-10.9l-0.5-0.9h11.9L130.6,173.1z"/>
	</g>
	<g>
		<defs>
			<rect id="SVGID_00000072995006227072288780000009565342290469366973_" x="-212.5" y="-476.3" width="1207.6" height="858.9"/>
		</defs>
		<clipPath id="SVGID_00000076568677369587632520000006729217110789461919_">
			<use xlink:href="#SVGID_00000072995006227072288780000009565342290469366973_"  style="overflow:visible;"/>
		</clipPath>
		
			<path id="path2471" style="clip-path:url(#SVGID_00000076568677369587632520000006729217110789461919_);fill-rule:evenodd;clip-rule:evenodd;fill:#1F52A5;" d="
			M125.1,152.4c10.8,0,19.6,8.8,19.6,19.6c0,10.8-8.8,19.6-19.6,19.6s-19.6-8.8-19.6-19.6C105.6,161.1,114.3,152.4,125.1,152.4
			 M125.1,153.5c-10.2,0-18.4,8.2-18.4,18.4c0,10.2,8.2,18.4,18.4,18.4c10.2,0,18.4-8.2,18.4-18.4
			C143.5,161.8,135.3,153.5,125.1,153.5"/>
	</g>
	<g>
		<defs>
			<rect id="SVGID_00000097501196999820705540000012044111477825072798_" x="-212.5" y="-476.3" width="1207.6" height="858.9"/>
		</defs>
		<clipPath id="SVGID_00000151517536881852914070000015602201839166728864_">
			<use xlink:href="#SVGID_00000097501196999820705540000012044111477825072798_"  style="overflow:visible;"/>
		</clipPath>
		
			<path id="path2473" style="clip-path:url(#SVGID_00000151517536881852914070000015602201839166728864_);fill-rule:evenodd;clip-rule:evenodd;fill:#1F52A5;" d="
			M128.9,158c-0.1,0.2-0.1,0.4-0.1,0.5c0,0.1,0.4,0,0.5,0c0,0,0,0,0,0c0,0,0,0,0,0c0.1,0,0.2,0,0.2,0l0.2-0.1l0,0l0,0c0,0,0,0,0,0
			c0,0,0,0,0,0c0,0,0,0,0,0c0,0,0,0,0,0l0,0l0,0c0,0,0,0,0.1,0.1c0,0,0.1,0.1,0.1,0.1c0,0,0,0.1,0,0.1l0,0l0,0c0,0,0,0.1,0,0.1
			c0,0,0,0,0,0l0,0c0,0,0,0-0.1,0c0,0-0.1,0.1-0.1,0.1c0,0-0.2,0-0.3,0.1c-0.2,0-0.4,0.1-0.6,0.1l0,0l0,0c0,0,0,0,0,0
			c0,0-0.1,0-0.1,0c0,0.1,0,0.2,0.1,0.3c0,0,0.1,0.2,0.1,0.3c0,0.1,0.1,0.2,0.1,0.3c0,0.1,0.1,0.2,0.1,0.2c0,0,0,0.1,0.1,0.1
			c0.1,0.1,0.1,0.2,0.2,0.3c0,0,0.1,0.1,0.1,0.1c0,0,0.1,0.1,0.1,0.1c0.1,0.1,0.1,0.1,0.2,0.1c0.1,0.1,0.2,0.1,0.3,0.1
			c0,0,0.1,0,0.1,0c0.1,0,0,0-0.1,0.1c-0.1,0-0.2,0.1-0.3,0.1c-0.1,0-0.1,0-0.2,0c-0.1,0-0.2,0-0.3-0.1c-0.1,0-0.1-0.1-0.2-0.2
			c0,0-0.1-0.1-0.1-0.1c-0.1-0.1-0.2-0.3-0.2-0.4c0-0.1-0.1-0.2-0.1-0.3c-0.1-0.3-0.1-0.4-0.2-0.5c0,0,0-0.1-0.1-0.1c0,0,0,0,0,0
			c-0.1,0.1-0.1,0.2-0.2,0.4c-0.1,0.1-0.2,0.2-0.3,0.3c-0.1,0.1-0.2,0.2-0.4,0.2c-0.1,0-0.1,0-0.2,0c-0.1,0-0.2,0-0.4-0.1
			c-0.2,0-0.5-0.1-0.6-0.1c-0.2-0.1-0.2-0.1-0.1-0.1c0.2,0,0.7,0,0.9,0c0.2,0,0.3-0.1,0.5-0.2c0.1-0.1,0.1-0.1,0.2-0.2
			c0.1-0.1,0.1-0.2,0.2-0.3c0,0,0.1-0.1,0.1-0.3c0,0-0.1,0-0.1,0c-0.1,0-0.1,0-0.2,0c-0.1,0-0.1,0-0.2,0c0,0-0.1,0-0.1,0
			c0,0,0,0-0.1,0c0,0,0,0-0.1,0c0,0-0.1,0-0.1,0c0,0-0.1,0-0.1,0c0,0-0.1,0-0.1-0.1c0,0,0-0.1,0-0.1c0,0,0-0.1,0-0.1
			c0-0.1,0.1-0.2,0.2-0.2l0.1,0c0.1,0,0.2,0,0.3-0.1c0.2,0,0.4,0,0.6-0.1c0,0,0.1,0,0.1,0c0-0.1,0.1-0.2,0.1-0.3
			c0.1-0.3,0.3-0.9,0.4-1.3l0.1-0.5l0,0c0-0.1-0.1-0.1-0.1-0.2l0,0c0,0,0,0,0,0v0l0,0c0,0,0-0.1,0.1-0.1l0,0h0
			c0.1,0,0.2,0.1,0.3,0.1l0,0l0,0c0,0,0,0,0,0c0,0,0,0,0,0.1c0,0,0,0,0,0.1h0c0,0,0,0,0,0.1c0,0,0,0.2-0.1,0.2l0,0
			c0,0.1,0,0.1-0.1,0.2l0,0.1c0,0,0,0,0,0C129.1,157.3,129,157.7,128.9,158L128.9,158z"/>
	</g>
	<g>
		<defs>
			<rect id="SVGID_00000067941359508259778280000002966428853517620396_" x="-212.5" y="-476.3" width="1207.6" height="858.9"/>
		</defs>
		<clipPath id="SVGID_00000076596626977035667860000015836546334270168763_">
			<use xlink:href="#SVGID_00000067941359508259778280000002966428853517620396_"  style="overflow:visible;"/>
		</clipPath>
		
			<path id="path2475" style="clip-path:url(#SVGID_00000076596626977035667860000015836546334270168763_);fill-rule:evenodd;clip-rule:evenodd;fill:#1F52A5;" d="
			M133.8,160.1c0.1,0,0.1,0.1,0.1,0.2c0,0,0,0.1,0,0.1c0,0.1-0.1,0.2-0.2,0.2c-0.1,0-0.1,0-0.2,0c0,0-0.1,0-0.1,0
			c-0.1,0-0.3-0.2-0.2-0.3c0.1-0.1,0.2,0,0.3-0.1c0.1,0,0.1-0.1,0.1-0.1C133.6,160.1,133.7,160.1,133.8,160.1 M137,159.8
			c-0.2,0.1-0.6,0.1-0.7,0.1c0,0,0,0.1,0,0.1c0,0,0,0.1,0,0.1c0,0-0.1,0-0.2,0c-0.1,0-0.1,0-0.2,0c-0.1,0-0.2,0-0.2,0
			c0,0,0,0.2,0,0.3c0,0.1-0.2,0.1-0.2,0.2c0,0,0,0.1,0,0.1c0,0,0.1,0,0.2,0c0.1,0,0.1,0,0.1,0c0,0,0,0,0,0c0-0.1,0-0.2,0-0.3
			c0,0,0-0.1,0.1-0.1c0.1,0,0.1-0.1,0.1-0.1c0.1,0,0.1,0,0.2,0c0.1,0.1,0,0.2,0,0.3c0.1,0,0.4-0.1,0.5-0.1c0,0,0,0,0,0
			c-0.1-0.1-0.3-0.2-0.3-0.3c0.1-0.1,0.4,0,0.5,0.1c0.1,0,0.2,0,0.2,0c0.1,0.1,0.2,0.6,0,0.7c-0.3-0.1-1,0-1.4,0.1c0,0,0,0,0,0
			c0,0,0,0,0,0.1c0.2,0.1,0.3,0.2,0.5,0.3c0.1,0,0.1,0.1,0.2,0.3c0,0.1-0.1,0.2-0.1,0.2c-0.1,0-0.1,0-0.3,0c-0.1,0-0.2,0-0.3-0.1
			c-0.1,0-0.2,0-0.3-0.1c-0.1,0-0.2,0-0.3-0.1c-0.2-0.1-0.3-0.1-0.5-0.1c0,0-0.1,0-0.1,0c0,0,0,0,0,0l0,0l-0.1,0h0c0,0,0,0,0,0
			c0,0,0,0,0,0c0,0-0.1,0-0.1,0c0,0,0,0-0.1,0l0,0l0,0l0.1,0.1l0,0c0,0,0.1,0.1,0.2,0.1l0,0l0.1,0c0,0,0.1,0.1,0.1,0.1c0,0,0,0,0,0
			l0,0l0,0h0c0,0,0,0,0,0l0,0c0,0,0,0,0,0c0,0,0,0,0,0l0,0l0,0.1l0,0l0,0l0,0l0,0l0,0h-0.1l0,0l-0.1,0l0,0l0,0l0,0l0,0
			c0,0,0,0-0.1,0l0,0l0,0c-0.1,0-0.1,0-0.2,0c0,0-0.1,0-0.1,0c0,0,0,0,0,0c0,0,0,0,0,0.1c0,0,0.1,0,0.1,0l0,0c0,0,0,0,0,0l0,0
			c0,0,0,0,0.1,0c0,0,0.1,0.1,0.3,0.1c0.1,0.1,0.3,0.1,0.3,0.1l0,0c0.1,0.1,0.1,0.1,0.1,0.2l0,0c0,0,0,0,0,0l0,0l0,0
			c0,0,0,0.1,0,0.2c-0.1,0.1,0,0.1-0.2,0c0,0-0.1-0.1-0.2-0.1c-0.1,0-0.2-0.1-0.3-0.1c-0.1,0-0.2-0.1-0.3-0.2
			c-0.1,0-0.1-0.1-0.2-0.1c0,0-0.1,0-0.1,0c-0.2,0.2-0.4,0.6-0.6,0.8c0,0.1-0.1,0.2-0.2,0.2l0,0l-0.1,0.1l0,0c0,0,0,0,0,0l0,0
			l-0.1,0.1l0,0c0,0-0.1,0.1-0.1,0c0,0-0.2-0.2-0.3-0.3l0,0l0-0.1l0,0l0,0c0,0,0-0.1,0-0.1l0,0c0,0,0-0.1,0-0.1v0l0,0
			c0,0,0-0.1,0-0.1c0-0.1,0-0.3-0.1-0.4c0,0,0,0,0,0v0l0-0.1l0,0l0,0c0,0,0,0,0,0c0,0,0.1,0.1,0.2,0.2c0.1,0.1,0.1,0.1,0.2,0.2
			c0,0.1,0.1,0.1,0.1,0.2c0,0,0.1,0.1,0.1,0.1c0,0,0,0,0,0c0,0,0,0,0,0c0.1-0.1,0.2-0.3,0.3-0.4c0.1-0.1,0.2-0.2,0.3-0.3
			c-0.1-0.1-0.7-0.3-0.8-0.3l0,0c-0.1-0.1-0.3-0.1-0.3-0.2c0,0,0,0,0,0l0,0c0,0,0-0.1-0.1-0.1l0,0c0,0-0.1-0.1,0-0.2l0-0.1l0,0l0,0
			c0,0,0,0,0,0l0,0c0,0,0,0,0,0c0,0,0-0.1,0.1-0.1c0.1-0.1,0.2,0.1,0.2,0.1c0.2,0.1,0.2,0.2,0.4,0.3c0.2,0.1,0.5,0.3,0.5,0.3l0,0
			c0,0,0.2,0.1,0.3,0.1c0.1,0,0.2-0.1,0.2-0.1l0,0c0,0,0.1,0,0.1,0l0.1-0.1c-0.1-0.1-0.1-0.1-0.2-0.2v0l0,0l0,0
			c-0.1-0.1-0.1-0.1-0.1-0.2l0,0l0,0l0-0.1c0,0,0.1,0,0.1,0c0,0,0.1,0,0.1,0c0,0,0,0,0,0l0,0c0,0,0.2,0,0.3,0l0,0l0,0
			c0,0,0.1,0,0.1,0c0,0,0,0,0,0l0,0l0,0c0,0,0.1,0,0.1,0c0,0,0.1,0,0.1,0c0.4,0.1,0.8,0.1,1.2,0.1c0,0,0,0,0,0c0,0,0,0,0,0
			c-0.3-0.2-0.7-0.3-1-0.4c-0.2-0.1-0.5-0.2-0.7-0.2c0,0-0.1,0-0.1-0.1c0,0,0,0,0,0c0,0,0,0,0,0c0,0,0,0,0,0c0,0,0,0,0,0
			c0,0,0,0,0,0c0,0,0,0,0,0l-0.1-0.1l0,0c0,0,0,0,0,0l0,0c0,0,0,0,0,0c0,0,0,0,0,0l0,0l-0.2-0.1c0,0,0,0,0,0c0,0,0,0,0,0
			c0,0,0,0,0,0c0,0,0,0,0,0l0,0c0,0,0,0,0,0l0,0v0l0,0c0,0,0,0,0,0c0,0,0,0,0,0l0,0h0c0,0,0,0,0,0c0,0,0,0,0,0c0,0,0,0,0,0
			c0,0,0,0,0,0c0,0,0,0,0,0l0,0l0,0c0,0,0,0,0,0c0,0,0,0,0,0c0,0,0,0,0,0c0,0,0,0,0,0c0,0,0,0,0,0c0,0,0,0,0,0l0,0l0,0c0,0,0,0,0,0
			c0,0,0,0,0,0c0,0,0,0,0,0c0,0,0,0,0,0c0,0,0,0,0,0l0,0c0,0,0,0,0,0c0,0,0,0,0,0c0,0,0,0,0,0c0,0,0,0,0,0c0,0,0,0,0,0c0,0,0,0,0,0
			c0,0,0,0,0,0l0,0c0,0,0,0,0,0c0,0,0,0,0,0c0,0,0,0,0,0c0,0,0,0,0,0c0,0,0,0,0,0c0,0,0,0,0.1,0c0.3,0,0.6,0.4,0.8-0.1
			c0,0,0-0.1,0-0.1c-0.1,0-0.2,0-0.2,0c-0.1,0-0.2,0-0.3,0c0,0-0.1,0-0.1,0c0,0,0,0,0,0c0,0,0.1-0.1,0.1-0.1
			c0.1-0.1,0.3-0.1,0.5-0.1c0,0,0-0.1,0-0.2c0-0.1-0.1,0-0.2,0c-0.1,0,0,0,0,0.1c0,0.1-0.2,0.1-0.3,0.1c-0.1,0-0.1,0-0.1,0
			c-0.1,0.1-0.2,0.3-0.3,0.2c0,0-0.2-0.3-0.2-0.3c0,0,0.1-0.1,0.1-0.1c0.1-0.1,0.2-0.2,0.2-0.3c0-0.1,0-0.1,0-0.1c0,0,0,0,0,0
			c0.1,0.1,0.2,0.2,0.2,0.3c0.1,0.1,0.2-0.2,0.3-0.3c0.1-0.1,0.1,0,0.2,0.1c0,0,0,0.2,0,0.2c0,0.1,0.1,0.1,0.1,0.1l0.1-0.1
			c0,0,0-0.1,0-0.1c0,0-0.1-0.2,0-0.3c0-0.1,0.1,0.1,0.2,0c0.1,0,0.1,0,0.2,0.1c0.1,0,0.1,0.1,0.1,0.1c0.1,0.1,0,0.3,0.1,0.3
			c0.3-0.1,0.6-0.2,0.9-0.3l0,0c0,0,0.1,0,0.1,0c0,0,0,0,0,0c0,0,0,0,0,0c0,0,0.1,0,0.1,0c0,0,0,0,0,0c0,0,0,0,0,0
			c0,0,0.1-0.1,0.1-0.1c0,0,0,0,0,0c0-0.1,0,0,0-0.1c0,0,0,0,0,0l0,0c0,0,0,0,0,0c0.1,0,0,0,0.1,0c0,0,0,0,0,0c0,0,0,0,0,0
			c0,0,0.1,0.1,0.1,0.1c0,0,0,0,0,0c0,0,0,0,0,0c0,0,0,0,0,0c0,0,0,0,0,0c0,0,0,0,0,0c0,0,0,0,0,0c0,0,0,0,0,0c0,0,0,0,0,0
			c0,0,0,0,0,0c0,0,0,0,0,0c0,0,0,0,0,0c0,0,0,0,0,0c0,0,0,0,0,0c0,0,0,0,0,0s0,0,0,0c0,0,0,0,0,0c0,0,0,0,0,0c0,0,0,0,0,0
			c0,0,0,0,0,0c0,0,0,0,0,0c0,0,0,0,0,0c0,0,0,0,0,0c0,0,0,0,0,0c0,0,0,0,0,0c0,0,0,0,0,0c0,0,0,0,0,0c0,0,0,0,0,0c0,0,0,0,0,0
			c0,0,0,0,0,0c0,0,0,0,0,0c0,0,0,0,0,0c0,0,0,0,0,0c0,0,0,0,0,0l0,0c0,0,0,0,0,0c0,0,0,0,0,0c0,0,0,0,0,0c0,0,0,0,0,0c0,0,0,0,0,0
			c0,0,0,0,0,0c0,0-0.1,0-0.1,0c0,0,0,0,0,0c0,0,0,0,0,0c0,0,0,0,0,0c0,0,0,0,0,0c0,0,0,0,0,0C137.3,159.8,137.2,159.8,137,159.8
			C137.1,159.8,137.1,159.8,137,159.8C137.1,159.8,137.1,159.8,137,159.8C137.1,159.8,137.1,159.8,137,159.8L137,159.8L137,159.8z"
			/>
	</g>
	<g>
		<defs>
			<rect id="SVGID_00000120535014757742805490000010959329441105377213_" x="-212.5" y="-476.3" width="1207.6" height="858.9"/>
		</defs>
		<clipPath id="SVGID_00000116949672039248474850000012630983533065380273_">
			<use xlink:href="#SVGID_00000120535014757742805490000010959329441105377213_"  style="overflow:visible;"/>
		</clipPath>
		
			<path id="path2477" style="clip-path:url(#SVGID_00000116949672039248474850000012630983533065380273_);fill-rule:evenodd;clip-rule:evenodd;fill:#1F52A5;" d="
			M122.6,159.3c0.1,0,0.2-0.1,0.3-0.1c0.1,0,0.1-0.1,0.2-0.1c0.2,0,0.3,0.1,0.3,0.3c-0.1,0.1-0.1,0.3-0.1,0.4c0,0,0,0.1,0,0.2
			c0.1,0,0.1,0,0.2,0.1c0.1,0,0.1,0,0.2,0c0.2,0,0.2,0.1,0.2,0.2c0,0.1-0.1,0.2-0.2,0.3c-0.1,0-0.2,0-0.3-0.1
			c-0.1,0-0.1-0.1-0.2-0.1c-0.1,0.1-0.2,0.3-0.3,0.4c-0.1,0.1-0.3,0.2-0.4,0.1c0,0,0,0,0,0c-0.2-0.1-0.2-0.2,0-0.3
			c0.1-0.1,0.2-0.2,0.4-0.2c0,0,0.1-0.1,0.1-0.1c0-0.1,0-0.1-0.1-0.2c0-0.1,0-0.1,0.1-0.1c0.1,0,0.1,0,0.2,0c0-0.1,0.1-0.2,0.1-0.3
			c-0.1-0.1-0.1-0.1-0.2,0c0,0-0.1,0-0.1,0c-0.1,0-0.2,0.1-0.2,0.2c-0.2,0.3-0.4,0.6-0.5,0.9c-0.1,0.1-0.1,0.2-0.2,0.4
			c0,0-0.1,0.1-0.1,0.1c0,0-0.1,0-0.1,0c-0.1-0.1-0.1-0.1-0.2-0.2c0-0.1,0-0.1,0-0.2c0.1-0.2,0.1-0.3,0.3-0.4
			c0.2-0.2,0.4-0.4,0.5-0.7c0-0.1,0.1-0.1,0.1-0.2c0,0-0.1-0.1-0.1-0.1c0,0-0.1-0.1-0.1-0.1c-0.1-0.1,0-0.2,0.1-0.2
			c0.1,0,0.1,0,0.2,0c0.1,0,0.2-0.1,0.3-0.3c0-0.1,0-0.1,0-0.1c0,0-0.1,0-0.1,0c-0.2,0.2-0.3,0.2-0.5,0.1c0-0.1,0.1-0.2,0.1-0.2
			c-0.1-0.1-0.1-0.1-0.2,0c-0.1,0.1-0.1,0.1-0.2,0c0-0.1,0-0.1,0-0.2c0-0.1,0-0.1,0-0.2c-0.1,0-0.1,0-0.1,0.1c0,0,0,0.1-0.1,0.1
			c-0.1,0.4-0.4,0.8-0.6,1.2c-0.2,0.3-0.3,0.6-0.4,0.9c-0.1,0.2-0.2,0.5-0.3,0.7c-0.1,0.2-0.2,0.4-0.3,0.6c0,0,0,0-0.1,0.1
			c-0.1,0.1-0.2,0.1-0.3,0c0,0,0-0.1,0-0.1c-0.1-0.1-0.1-0.2,0-0.4c0.1-0.1,0.1-0.2,0.2-0.4c0-0.1,0.1,0,0.1-0.1
			c0.1-0.1,0.2-0.2,0.2-0.3c0.5-0.9,1-1.7,1.5-2.6c0-0.1,0.1-0.1,0.1-0.2c0-0.1,0.1-0.2,0.1-0.2c0.1,0,0.1-0.1,0.1-0.1
			c0.1-0.2,0.2-0.3,0.3-0.5c0,0,0-0.1,0.1-0.1c-0.1,0-0.2,0.1-0.2,0.1c-0.2,0.1-0.4,0.2-0.6,0.3c0,0-0.1,0.1-0.1,0.1
			c-0.2,0.1-0.4,0.2-0.6,0.1c-0.1-0.1-0.2-0.1-0.2-0.2c0.3-0.1,0.5-0.1,0.8-0.2c0.3-0.1,0.5-0.2,0.8-0.3c-0.2-0.1-0.3-0.2-0.5-0.3
			c-0.1,0-0.1-0.1-0.1-0.2c0-0.1,0-0.1,0.1-0.1c0.2,0,0.3,0,0.5,0.1c0.1,0,0.2,0,0.3,0.1c0.1,0.1,0.2,0.1,0.1,0.3c0,0,0.1,0,0.1,0
			c0.1-0.1,0.2-0.1,0.4-0.2c0.2-0.1,0.3,0,0.3,0.1c0,0,0,0.1,0,0.1c0.1,0.1,0,0.3-0.2,0.3c-0.1,0-0.3,0.1-0.4,0.1c0,0-0.1,0-0.1,0.1
			c-0.2,0.3-0.4,0.6-0.6,0.9c0,0,0,0,0,0.1c0,0,0,0.1,0.1,0.1c0.1,0.1,0.1,0.1,0.2,0c0-0.1,0.1-0.1,0.1-0.2c0.2-0.2,0.3-0.4,0.3-0.6
			c0.1-0.1,0.2,0,0.3,0c0,0,0.1,0.1,0,0.1c0,0.1,0,0.2-0.1,0.3c0.1,0.1,0.1,0.1,0.2,0c0.1-0.1,0.1-0.1,0.2-0.2
			c0-0.1,0.1-0.1,0.1-0.1c0.1,0,0.2,0.1,0.2,0.2c0,0.1,0,0.2-0.1,0.2c-0.1,0.1-0.2,0.1-0.2,0.2c-0.2,0.1-0.3,0.2-0.4,0.4
			c0,0,0,0,0,0.1c0.1,0.1,0.1,0.1,0.2,0c0-0.1,0.1-0.1,0.1-0.2c0,0,0.1-0.1,0.2-0.1c0.1,0,0.1,0,0.2,0.1c0,0.1,0,0.1,0.1,0.1
			c0.1,0.1,0.1,0.1,0,0.2c-0.1,0.1-0.1,0.1-0.2,0.1c-0.1,0.1-0.1,0.1-0.1,0.2c0,0.1,0,0.2-0.1,0.2c-0.1,0.1-0.2,0.1-0.3,0.1
			C122.7,159,122.7,159.1,122.6,159.3 M122.4,158c0.1-0.1,0.1-0.2,0.2-0.3c0,0,0-0.1,0-0.1c0,0-0.1,0-0.1,0
			c-0.1,0.1-0.1,0.2-0.2,0.3C122.3,157.9,122.4,157.9,122.4,158 M121.8,158.8c0,0.1,0,0.1,0,0.2c0,0.1,0.1,0.2,0.1,0.2
			c0,0.1-0.1,0.2-0.1,0.2c-0.1,0.1-0.3,0.1-0.5,0C121.4,159.2,121.5,159,121.8,158.8"/>
	</g>
	<g>
		<defs>
			<rect id="SVGID_00000091005537120207267560000012093645592516219030_" x="-212.5" y="-476.3" width="1207.6" height="858.9"/>
		</defs>
		<clipPath id="SVGID_00000077283722474891484350000011043158191812403081_">
			<use xlink:href="#SVGID_00000091005537120207267560000012093645592516219030_"  style="overflow:visible;"/>
		</clipPath>
		
			<path id="path2479" style="clip-path:url(#SVGID_00000077283722474891484350000011043158191812403081_);fill-rule:evenodd;clip-rule:evenodd;fill:#1F52A5;" d="
			M114.5,157.8C114.5,157.7,114.5,157.7,114.5,157.8c0.1,0,0.1,0,0.2,0c0.1,0,0.1,0.1,0.2,0.1c0.1,0.1,0.2,0.2,0.2,0.4
			c0,0.1,0,0.3,0,0.4c0,0-0.1,0.1-0.1,0.3c0,0.2-0.1,0.4-0.1,0.6c0,0.1-0.1,0.2-0.1,0.3c0,0.1,0,0.2-0.1,0.3c0,0.1-0.1,0.2-0.1,0.2
			c-0.1,0.2-0.1,0.5-0.2,0.5c0,0,0-0.3,0-0.6c0-0.1,0-0.2,0-0.3c0-0.1,0-0.3,0-0.4c0-0.4,0-0.7,0-1.1c0-0.1,0-0.3,0-0.4
			C114.5,158.1,114.5,157.8,114.5,157.8 M116.5,161.8l0.1,0.1l0,0c0.1,0.1,0.1,0.2,0.1,0.3c0,0,0,0.1,0.1,0.1c0,0,0.1,0,0.1,0
			c0,0,0.1,0,0.1,0c0,0,0.1,0,0.1,0c0,0,0.1,0.1,0.1,0.1c0,0.1,0,0.1,0,0.1c0,0.1,0,0.1,0,0.1c0,0.1,0,0.1,0,0.2c0,0.1,0,0.2,0,0.2
			c0,0,0.1,0,0.1,0c0.1-0.1,0.1-0.2,0.1-0.2c0-0.1,0.1-0.1,0.1-0.2c0,0,0.2,0,0.3,0.1c0.1,0.1,0.1,0.2,0.1,0.2
			c-0.1,0.1-0.2,0.2-0.2,0.3c-0.1,0.1-0.1,0.2-0.2,0.3c0,0-0.1,0.1-0.1,0.2c0,0.1-0.2,0.2-0.2,0.2c-0.1,0-0.3-0.1-0.4-0.2
			c0-0.1-0.1-0.2-0.1-0.2c0,0,0-0.3-0.1-0.4c0-0.1-0.1-0.1-0.1-0.2c0,0,0,0-0.1-0.1c0,0-0.1,0-0.1,0c0,0-0.1,0-0.1,0
			c0,0-0.1,0-0.1,0c0,0,0,0,0-0.1c0,0,0-0.1,0-0.1c0,0,0,0,0,0c0,0,0,0,0,0c0.1-0.1,0.2-0.1,0.2-0.1l0,0c0,0,0,0,0-0.1
			c0,0-0.1-0.1-0.1-0.1c0,0-0.1-0.2-0.2-0.3l-0.1-0.1l0,0l0,0c0,0,0,0.1-0.1,0.1c0,0-0.1,0.1,0,0.1l0,0l0,0c0,0,0,0,0,0.1
			c0,0-0.1,0.4-0.1,0.4c0,0,0,0,0,0c0,0-0.1,0-0.1,0.1c0,0-0.1,0-0.1,0l0,0l0,0c-0.1-0.1-0.2-0.2-0.1-0.4c0,0,0-0.1,0-0.1
			c0,0,0,0,0-0.1l0,0c0,0,0-0.1,0-0.1l0,0c0,0,0-0.1,0-0.1c0,0,0,0,0,0c0,0,0-0.1,0-0.1c0,0,0-0.1,0-0.1c0,0,0-0.1,0-0.1
			c0,0,0-0.2,0-0.2l0,0l0-0.1c0,0,0-0.1,0-0.1c0,0,0-0.1,0-0.1l0,0c0,0,0,0,0,0c0,0,0,0,0,0l0,0c0,0,0,0.1,0,0.1
			c0,0-0.1,0.2-0.1,0.2c0,0,0,0.1-0.1,0.2c0,0-0.1,0.2-0.1,0.2c0,0-0.1,0.1-0.1,0.1c0,0-0.1,0.1-0.1,0.2c0,0,0,0,0,0.1l0,0
			c0,0-0.1,0.1,0,0.1c0,0,0,0,0,0.1l0,0c0,0.1,0,0.1-0.1,0.1l0,0l0,0l0,0c0,0,0,0.1-0.1,0.2l0,0c0,0,0,0.1,0,0.1c0,0,0,0,0,0.1l0,0
			c0,0.1-0.1,0.3-0.1,0.3c0,0.1-0.2,0.2-0.2,0.2c0,0-0.1,0-0.1,0c0,0-0.1,0-0.1,0c0,0-0.2,0.1-0.3,0.1c0,0-0.1,0-0.1,0l0-0.1
			c0,0,0-0.2,0-0.2l0,0c0,0,0.1-0.2,0.1-0.2c0,0,0.1-0.1,0.1-0.1l0,0l0,0c0.1-0.1,0.6-1,0.6-1c0.1-0.1,0.1-0.2,0.2-0.3l0,0
			c0,0,0.1-0.2,0.1-0.2c0,0,0.1-0.2,0.1-0.2c0,0,0.1-0.1,0.1-0.1c0.1,0,0.1-0.1,0.1-0.2l0,0c0,0,0-0.1,0.1-0.1l0,0c0,0,0,0,0-0.1
			l0,0l-0.2-0.2c0,0,0.1-0.2,0.1-0.2c0,0,0.2-0.3,0.2-0.4c0,0,0,0,0.1,0l0,0c0,0,0,0,0,0c0,0,0,0,0,0l0,0c0,0,0.1,0.2,0.1,0.2l0,0
			c0,0,0.3-0.2,0.2-0.2c0.1-0.1,0.1,0,0.2-0.1l0.1,0c0.1,0.1,0,0.2,0,0.2c0,0,0,0.1,0,0.1c0,0,0,0.2,0,0.2l0,0l-0.1,0.2v0
			c0,0,0,0.2,0,0.2c0,0,0,0.3,0.1,0.4c0,0,0,0.1,0,0.1l0.1-0.1c0.1,0,0.1-0.2,0.1-0.2c0,0,0.2-0.1,0.2-0.1c0.1-0.1,0.3-0.1,0.4,0.1
			c0,0,0.1,0.1,0,0.1c0,0,0,0,0,0.1v0.3c0,0,0,0,0,0.1c0,0,0,0.2,0,0.2l0,0.1c0,0,0,0.1,0,0.2c0,0.1,0,0.1-0.1,0.1
			c0,0-0.1,0.1-0.1,0.1C116.6,161.7,116.6,161.7,116.5,161.8 M116.5,161c0,0.1,0,0.1,0,0.2c0,0,0,0.1-0.1,0.2v0l-0.1,0.1l-0.1-0.2
			c0,0,0,0,0-0.1l0,0l0.1-0.2l0-0.1h0l0-0.1l0,0l0,0C116.5,160.9,116.5,160.9,116.5,161 M115.6,162c0-0.1,0-0.3,0-0.3
			c0-0.1,0-0.2,0-0.2l0,0c0,0,0-0.2,0-0.2l0,0l0,0l0,0l0.1,0.1c0,0,0.1,0.1,0,0.2c0,0,0,0.1,0,0.1c0,0,0,0,0,0.1
			C115.7,161.9,115.7,161.9,115.6,162C115.6,162,115.6,162,115.6,162C115.6,162,115.6,162,115.6,162"/>
	</g>
	<g>
		<defs>
			<rect id="SVGID_00000013181826166629504330000008511302823030138513_" x="-212.5" y="-476.3" width="1207.6" height="858.9"/>
		</defs>
		<clipPath id="SVGID_00000154404224348295963940000000949663014726708109_">
			<use xlink:href="#SVGID_00000013181826166629504330000008511302823030138513_"  style="overflow:visible;"/>
		</clipPath>
		
			<path id="path2481" style="clip-path:url(#SVGID_00000154404224348295963940000000949663014726708109_);fill-rule:evenodd;clip-rule:evenodd;fill:#1F52A5;" d="
			M118.6,169.6v-0.3c0.2,0,0.3,0,0.3-0.1c0.1,0,0.1-0.1,0.1-0.2v-1.2c0-0.1,0-0.2-0.1-0.2c0,0-0.2-0.1-0.3-0.1v-0.3
			c0.2,0,0.3,0,0.4,0c0.1,0,0.2-0.1,0.3-0.2h0.3v1.9c0,0.1,0,0.2,0.1,0.2c0.1,0,0.2,0.1,0.3,0.1v0.3H118.6z"/>
	</g>
	<g>
		<defs>
			<rect id="SVGID_00000068665214028243177090000004841803574450655119_" x="-212.5" y="-476.3" width="1207.6" height="858.9"/>
		</defs>
		<clipPath id="SVGID_00000095331768015962476490000008232608355108259767_">
			<use xlink:href="#SVGID_00000068665214028243177090000004841803574450655119_"  style="overflow:visible;"/>
		</clipPath>
		<path id="path2483" style="clip-path:url(#SVGID_00000095331768015962476490000008232608355108259767_);fill:#1F52A5;" d="
			M123.3,168.6c-0.1,0.1-0.2,0.1-0.3,0.1c-0.1,0-0.2,0-0.3,0c-0.3,0-0.5-0.1-0.7-0.2c-0.2-0.1-0.3-0.3-0.3-0.5
			c0-0.2,0.1-0.4,0.3-0.6c0.2-0.1,0.5-0.2,0.8-0.2c0.4,0,0.7,0.1,0.8,0.3c0.2,0.2,0.3,0.5,0.3,0.8c0,0.4-0.1,0.7-0.3,0.9
			c-0.2,0.2-0.5,0.3-0.9,0.3c-0.3,0-0.5,0-0.6-0.1c-0.2-0.1-0.2-0.2-0.2-0.3c0-0.1,0-0.1,0.1-0.2c0.1,0,0.1-0.1,0.2-0.1
			c0.1,0,0.2,0.1,0.3,0.3c0,0,0,0,0,0c0,0,0,0.1,0.1,0.1c0,0,0.1,0,0.2,0c0.2,0,0.3-0.1,0.5-0.2C123.3,169,123.3,168.9,123.3,168.6
			 M123.3,168c0-0.1,0-0.3-0.1-0.3c-0.1-0.1-0.2-0.1-0.3-0.1c-0.1,0-0.3,0-0.3,0.1c-0.1,0.1-0.1,0.2-0.1,0.3c0,0.1,0,0.3,0.1,0.3
			c0.1,0.1,0.2,0.1,0.3,0.1c0.2,0,0.3,0,0.3-0.1C123.2,168.3,123.3,168.2,123.3,168"/>
	</g>
	<g>
		<defs>
			<rect id="SVGID_00000101069546571677829060000005382487395056152473_" x="-212.5" y="-476.3" width="1207.6" height="858.9"/>
		</defs>
		<clipPath id="SVGID_00000147933637996888698390000017354174321733609346_">
			<use xlink:href="#SVGID_00000101069546571677829060000005382487395056152473_"  style="overflow:visible;"/>
		</clipPath>
		<path id="path2485" style="clip-path:url(#SVGID_00000147933637996888698390000017354174321733609346_);fill:#1F52A5;" d="
			M131.4,168.6c-0.1,0.1-0.2,0.1-0.3,0.1c-0.1,0-0.2,0-0.3,0c-0.3,0-0.5-0.1-0.7-0.2c-0.2-0.1-0.3-0.3-0.3-0.5
			c0-0.2,0.1-0.4,0.3-0.6c0.2-0.1,0.5-0.2,0.8-0.2c0.4,0,0.6,0.1,0.8,0.3c0.2,0.2,0.3,0.5,0.3,0.8c0,0.4-0.1,0.7-0.3,0.9
			c-0.2,0.2-0.5,0.3-0.9,0.3c-0.3,0-0.5,0-0.6-0.1c-0.2-0.1-0.2-0.2-0.2-0.3c0-0.1,0-0.1,0.1-0.2c0.1,0,0.1-0.1,0.2-0.1
			c0.1,0,0.2,0.1,0.3,0.3c0,0,0,0,0,0c0,0,0,0.1,0.1,0.1c0,0,0.1,0,0.2,0c0.2,0,0.3-0.1,0.5-0.2C131.3,169,131.4,168.9,131.4,168.6
			 M131.3,168c0-0.1,0-0.3-0.1-0.3c-0.1-0.1-0.2-0.1-0.3-0.1c-0.1,0-0.3,0-0.3,0.1s-0.1,0.2-0.1,0.3c0,0.1,0,0.3,0.1,0.3
			c0.1,0.1,0.2,0.1,0.3,0.1c0.2,0,0.3,0,0.3-0.1C131.3,168.3,131.3,168.2,131.3,168"/>
	</g>
	<g>
		<defs>
			<rect id="SVGID_00000142134445563478408930000007782207407256691378_" x="-212.5" y="-476.3" width="1207.6" height="858.9"/>
		</defs>
		<clipPath id="SVGID_00000179634432748982359860000015083982954468746923_">
			<use xlink:href="#SVGID_00000142134445563478408930000007782207407256691378_"  style="overflow:visible;"/>
		</clipPath>
		
			<path id="path2487" style="clip-path:url(#SVGID_00000179634432748982359860000015083982954468746923_);fill-rule:evenodd;clip-rule:evenodd;fill:#1F52A5;" d="
			M125.7,169.6c0.2-0.8,0.5-0.9,1.1-1.1c0.3-0.1,0.4-0.4,0.4-0.6c0-0.1-0.1-0.2-0.1-0.3c-0.1-0.1-0.2-0.1-0.3-0.1
			c-0.1,0-0.2,0-0.3,0.1c-0.1,0-0.1,0.1-0.1,0.1c0,0,0,0,0,0.1c0,0.1,0,0.1,0,0.2c0,0.1,0,0.1-0.1,0.2c-0.1,0-0.1,0.1-0.2,0.1
			c-0.1,0-0.2,0-0.2-0.1c-0.1-0.1-0.1-0.1-0.1-0.2c0-0.5,0.6-0.7,1-0.7c0.3,0,0.6,0.1,0.8,0.2c0.4,0.3,0.4,0.9,0,1.1
			c-0.3,0.2-1.3,0.2-1.3,0.5c0,0.1,0,0.2,0.2,0.2c0.2,0,0.9,0,1-0.1c0.1-0.1,0.1-0.2,0.2-0.3h0.2l0.1,0.8H125.7z"/>
	</g>
	<g>
		<defs>
			<rect id="SVGID_00000168795551891118134770000012058961985727331501_" x="-212.5" y="-476.3" width="1207.6" height="858.9"/>
		</defs>
		<clipPath id="SVGID_00000123418305452420242310000006210910265799144881_">
			<use xlink:href="#SVGID_00000168795551891118134770000012058961985727331501_"  style="overflow:visible;"/>
		</clipPath>
		
			<path id="path2489" style="clip-path:url(#SVGID_00000123418305452420242310000006210910265799144881_);fill-rule:evenodd;clip-rule:evenodd;fill:#1F52A5;" d="
			M137.9,166.2C137.9,166.3,138,166.3,137.9,166.2c0.1,0.1,0.1,0.2,0.1,0.2c0,0,0.1,0.1,0.1,0.1c0.1,0,0.1,0,0.2,0.1
			c0.1,0,0.3,0.1,0.4,0.1c0.1,0,0.3,0.1,0.5,0.1c0.1,0,0.2,0,0.2,0c0.1,0,0.1,0,0.3-0.1l0.3-0.1c0,0,0.1,0,0.1-0.1c0,0,0-0.1,0-0.1
			c0,0,0-0.1,0-0.1c0-0.1,0-0.1,0-0.1l0.1,0l0.4,1.3l-0.1,0c0,0,0-0.1-0.1-0.1c0-0.1,0-0.1-0.1-0.1c0,0-0.1-0.1-0.1-0.1
			c0,0-0.1,0-0.1,0l-0.4,0.1c0,0-0.1,0-0.1,0c0,0,0,0-0.1,0c0,0,0,0-0.1,0.1c0,0-0.1,0.1-0.1,0.1c-0.1,0.1-0.2,0.3-0.3,0.4
			c-0.1,0.1-0.2,0.2-0.3,0.3c0,0.1-0.1,0.1-0.1,0.2c0,0.1,0,0.1,0,0.1c0,0,0,0.1,0,0.1c0,0,0,0.1,0,0.1l-0.1,0l-0.5-1.3l0.1,0
			c0,0.1,0.1,0.2,0.1,0.2c0,0,0.1,0.1,0.1,0c0,0,0,0,0.1,0c0,0,0.1-0.1,0.1-0.1c0.1-0.1,0.1-0.1,0.2-0.3c0.1-0.1,0.2-0.2,0.3-0.4
			c-0.4-0.1-0.7-0.2-0.8-0.2c-0.2,0-0.2,0-0.3,0c0,0-0.1,0-0.1,0.1c0,0.1,0,0.1,0,0.2l-0.1,0l-0.3-0.9L137.9,166.2z M129.2,185.4
			c0,0-0.1,0-0.1,0.1c-0.1,0-0.1,0.1-0.1,0.1c0,0-0.1,0.1-0.1,0.2c0,0.1,0,0.2,0,0.3l0.2,0.9c0.1,0.3,0,0.5-0.1,0.7
			c-0.1,0.2-0.4,0.3-0.7,0.4c-0.3,0.1-0.6,0-0.8-0.1c-0.2-0.1-0.4-0.3-0.4-0.6l-0.2-1.2c0,0,0-0.1,0-0.1c0,0-0.1,0-0.1-0.1
			c0,0-0.1,0-0.1,0c0,0-0.1,0-0.1,0l0-0.1l1.3-0.2l0,0.1c0,0-0.1,0-0.1,0c0,0-0.1,0-0.1,0c0,0-0.1,0.1-0.1,0.1c0,0,0,0.1,0,0.1
			l0.2,1.2c0,0.2,0.1,0.4,0.3,0.5c0.1,0.1,0.3,0.1,0.5,0.1c0.2,0,0.3-0.1,0.4-0.3c0.1-0.1,0.1-0.3,0.1-0.6l-0.2-0.8
			c0-0.1-0.1-0.2-0.1-0.3c0-0.1-0.1-0.1-0.1-0.1c0,0-0.1,0-0.2,0c-0.1,0-0.1,0-0.2,0l0-0.1l1-0.2L129.2,185.4z M132.3,184
			c0,0-0.1,0-0.1,0.1c-0.1,0-0.1,0.1-0.1,0.1c0,0,0,0.1,0,0.2c0,0.1,0.1,0.2,0.1,0.3l0.7,1.6l-0.3,0.1l-2.2-1.1l0.5,1
			c0.1,0.1,0.1,0.2,0.2,0.3c0,0.1,0.1,0.1,0.2,0.1c0,0,0.1,0,0.2,0c0.1,0,0.1,0,0.2,0l0.1,0.1l-1,0.4l-0.1-0.1c0,0,0.1-0.1,0.1-0.1
			c0,0,0.1-0.1,0.1-0.1c0,0,0-0.1,0-0.2c0-0.1-0.1-0.2-0.1-0.3l-0.5-1c0-0.1-0.1-0.1-0.1-0.1c0,0-0.1-0.1-0.1-0.1
			c-0.1,0-0.1,0-0.2,0c-0.1,0-0.1,0-0.2,0l-0.1-0.1l0.8-0.4l1.9,0.9l-0.4-0.8c-0.1-0.1-0.1-0.2-0.2-0.3c0-0.1-0.1-0.1-0.2-0.1
			c0,0-0.1,0-0.2,0c-0.1,0-0.1,0-0.2,0l-0.1-0.1l1-0.4L132.3,184z M135.1,184.9l-1.1,0.8l-0.1-0.1c0,0,0.1,0,0.1-0.1
			c0,0,0.1-0.1,0.1-0.1c0,0,0-0.1,0-0.1c0,0,0-0.1,0-0.1l-1-1.4c0,0,0-0.1-0.1-0.1c0,0-0.1,0-0.1,0c0,0-0.1,0-0.1,0
			c-0.1,0-0.1,0-0.1,0.1l-0.1-0.1l1.1-0.8l0.1,0.1c0,0-0.1,0.1-0.1,0.1c0,0-0.1,0.1-0.1,0.1c0,0,0,0.1,0,0.1c0,0,0,0.1,0,0.1l1,1.4
			c0,0,0.1,0.1,0.1,0.1c0,0,0.1,0,0.1,0c0,0,0.1,0,0.1,0c0.1,0,0.1,0,0.1-0.1L135.1,184.9z M136.1,180.7
			C136.1,180.8,136.1,180.8,136.1,180.7c-0.1,0.1-0.1,0.2-0.1,0.2c0,0.1,0,0.1,0,0.1c0,0,0,0.1,0,0.2c0,0.1,0.1,0.2,0.1,0.4
			s0.1,0.3,0.2,0.5c0.1,0.2,0.1,0.4,0.2,0.6c0.1,0.2,0.2,0.4,0.2,0.6l-0.2,0.2c-0.4-0.2-0.8-0.3-1.2-0.5c-0.4-0.2-0.7-0.3-0.8-0.4
			c-0.1,0-0.1,0-0.1,0c0,0-0.1,0-0.1,0c0,0-0.1,0-0.1,0c0,0-0.1,0-0.1,0.1l-0.1-0.1l0.9-0.9l0.1,0.1c-0.1,0.1-0.1,0.2-0.1,0.2
			c0,0,0,0.1,0,0.1c0,0,0,0,0,0c0,0,0,0,0.1,0c0.1,0,0.3,0.1,0.5,0.2c0.2,0.1,0.6,0.2,1,0.4c-0.1-0.3-0.2-0.5-0.3-0.7
			c-0.1-0.2-0.2-0.4-0.2-0.5c0-0.1-0.1-0.1-0.1-0.2c0-0.1-0.1-0.1-0.1-0.1c0,0-0.1,0-0.1,0c-0.1,0-0.1,0.1-0.2,0.2l-0.1-0.1
			L136.1,180.7L136.1,180.7z M137.8,178.9l-0.1,0.1c-0.1,0-0.2,0-0.3,0c-0.1,0-0.2,0.1-0.3,0.1c0,0-0.1,0.1-0.1,0.1
			c0,0.1-0.1,0.1-0.1,0.1l-0.2,0.3l0.8,0.5l0.1-0.2c0-0.1,0.1-0.1,0.1-0.2c0-0.1,0-0.1,0-0.2c0,0,0-0.1-0.1-0.1
			c0-0.1-0.1-0.1-0.1-0.1l0.1-0.1l0.9,0.5l-0.1,0.1c0,0-0.1,0-0.2-0.1c-0.1,0-0.1,0-0.2,0c-0.1,0-0.1,0-0.1,0.1c0,0-0.1,0.1-0.1,0.1
			l-0.1,0.2l0.6,0.4c0.1,0,0.1,0.1,0.2,0.1c0,0,0.1,0,0.1,0c0,0,0.1,0,0.1-0.1s0.1-0.1,0.1-0.2c0,0,0-0.1,0.1-0.1
			c0,0,0.1-0.1,0.1-0.1c0,0,0-0.1,0-0.1c0,0,0-0.1,0-0.1c0-0.1-0.1-0.2-0.1-0.3c-0.1-0.1-0.1-0.2-0.2-0.2l0.1-0.1l0.6,0.4l-1.2,1.9
			l-0.1-0.1c0,0,0-0.1,0.1-0.1c0-0.1,0-0.1,0-0.1c0,0,0-0.1,0-0.1c0,0,0-0.1-0.1-0.1l-1.5-0.9c0,0-0.1,0-0.1,0c0,0-0.1,0-0.1,0
			c0,0-0.1,0-0.1,0.1c0,0-0.1,0.1-0.1,0.1l-0.1-0.1l1.1-1.8L137.8,178.9z M138.8,176.7c-0.2-0.1-0.3-0.1-0.4,0
			c-0.1,0.1-0.2,0.2-0.2,0.3l0,0.1l1,0.4l0-0.1c0.1-0.2,0.1-0.3,0-0.4C139.1,176.9,139,176.8,138.8,176.7 M140.9,176.3l-0.3,0.9
			c-0.3,0.1-0.5,0.1-0.7,0.2c-0.2,0-0.4,0.1-0.6,0.2l0,0.1l0.7,0.3c0,0,0.1,0,0.1,0c0,0,0.1,0,0.1-0.1c0,0,0,0,0.1-0.1
			c0,0,0-0.1,0.1-0.1l0.1,0l-0.5,1.2l-0.1,0c0,0,0-0.1,0-0.1c0-0.1,0-0.1,0-0.1c0,0,0-0.1,0-0.1c0,0-0.1,0-0.1-0.1l-1.6-0.6
			c0,0-0.1,0-0.1,0c0,0-0.1,0-0.1,0.1c0,0-0.1,0.1-0.1,0.1c0,0,0,0.1-0.1,0.1l-0.1,0l0.5-1.3c0.1-0.3,0.2-0.5,0.4-0.6
			c0.1-0.1,0.3-0.1,0.5-0.1c0.2,0.1,0.3,0.2,0.3,0.3c0.1,0.1,0.1,0.3,0.1,0.5c0.1,0,0.3-0.1,0.4-0.1c0.2,0,0.3-0.1,0.5-0.2
			c0.1,0,0.1,0,0.2-0.1c0.1,0,0.1-0.1,0.2-0.1c0,0,0-0.1,0.1-0.1c0,0,0-0.1,0-0.1L140.9,176.3z M141.3,174.9c0,0.1-0.1,0.3-0.1,0.4
			c-0.1,0.1-0.1,0.2-0.2,0.3l0.1,0.1l0,0.1l-0.9-0.1l0-0.1c0.1,0,0.2-0.1,0.3-0.1c0.1,0,0.2-0.1,0.3-0.1c0.1-0.1,0.2-0.1,0.2-0.2
			c0.1-0.1,0.1-0.2,0.1-0.3c0-0.2,0-0.3-0.1-0.4c-0.1-0.1-0.2-0.1-0.3-0.2c-0.1,0-0.2,0-0.3,0.1s-0.1,0.2-0.2,0.3
			c0,0.1-0.1,0.2-0.1,0.2c0,0.1-0.1,0.1-0.1,0.2c-0.1,0.2-0.2,0.3-0.3,0.3c-0.1,0.1-0.3,0.1-0.4,0.1c-0.1,0-0.2,0-0.3-0.1
			c-0.1-0.1-0.2-0.1-0.2-0.2c-0.1-0.1-0.1-0.2-0.1-0.3c0-0.1,0-0.3,0-0.4c0-0.1,0.1-0.3,0.1-0.4c0.1-0.1,0.1-0.2,0.2-0.3l-0.1-0.1
			l0-0.1l0.8,0.1l0,0.1c-0.1,0-0.2,0-0.3,0.1c-0.1,0-0.2,0.1-0.3,0.1c-0.1,0-0.1,0.1-0.2,0.2c0,0.1-0.1,0.1-0.1,0.2
			c0,0.1,0,0.2,0.1,0.3c0.1,0.1,0.1,0.1,0.2,0.2c0.1,0,0.2,0,0.3-0.1c0.1-0.1,0.1-0.2,0.2-0.3c0-0.1,0.1-0.2,0.1-0.2
			c0-0.1,0.1-0.2,0.1-0.2c0.1-0.2,0.2-0.3,0.3-0.3c0.1-0.1,0.3-0.1,0.4-0.1c0.1,0,0.2,0.1,0.3,0.1c0.1,0.1,0.2,0.1,0.2,0.2
			c0.1,0.1,0.1,0.2,0.1,0.3C141.3,174.6,141.3,174.7,141.3,174.9 M141.4,171.8l0,1.3l-0.1,0c0,0,0-0.1,0-0.1c0-0.1,0-0.1,0-0.1
			c0,0,0-0.1-0.1-0.1c0,0-0.1,0-0.1,0l-1.7,0c0,0-0.1,0-0.1,0c0,0-0.1,0-0.1,0.1c0,0,0,0.1,0,0.1c0,0.1,0,0.1,0,0.1l-0.1,0l0-1.3
			l0.1,0c0,0,0,0.1,0,0.1c0,0.1,0,0.1,0,0.1c0,0,0,0.1,0.1,0.1c0,0,0.1,0,0.1,0l1.7,0c0,0,0.1,0,0.1,0c0,0,0.1,0,0.1-0.1
			c0,0,0-0.1,0-0.1c0-0.1,0-0.1,0-0.1L141.4,171.8z M139.4,169.1l0,0.1c-0.1,0-0.2,0.1-0.3,0.2c-0.1,0.1-0.2,0.2-0.2,0.2
			c0,0,0,0.1,0,0.1c0,0.1,0,0.1,0,0.1l0,0.1l1.9-0.2c0,0,0.1,0,0.1,0c0,0,0.1-0.1,0.1-0.1c0,0,0-0.1,0-0.1c0-0.1,0-0.1,0-0.1l0.1,0
			l0.2,1.3l-0.1,0c0,0,0-0.1,0-0.1c0-0.1,0-0.1,0-0.1c0,0-0.1-0.1-0.1-0.1c0,0-0.1,0-0.1,0l-1.9,0.2l0,0.1c0,0,0,0.1,0,0.1
			c0,0.1,0,0.1,0,0.1c0,0.1,0.1,0.1,0.2,0.2c0.1,0.1,0.2,0.1,0.4,0.1l0,0.1l-0.7,0.1l-0.3-2.3L139.4,169.1z"/>
	</g>
	<g>
		<defs>
			<rect id="SVGID_00000025426809586466538480000015168836779290619535_" x="-212.5" y="-476.3" width="1207.6" height="858.9"/>
		</defs>
		<clipPath id="SVGID_00000067214741566206961460000008889494411181778106_">
			<use xlink:href="#SVGID_00000025426809586466538480000015168836779290619535_"  style="overflow:visible;"/>
		</clipPath>
		
			<path id="path2491" style="clip-path:url(#SVGID_00000067214741566206961460000008889494411181778106_);fill-rule:evenodd;clip-rule:evenodd;fill:#1F52A5;" d="
			M109.6,167.1c0.1-0.2,0.1-0.3,0.2-0.4c0.1-0.1,0.2-0.2,0.4-0.3c0.1-0.1,0.3-0.1,0.5-0.1c0.2,0,0.3,0,0.5,0.1
			c0.2,0.1,0.3,0.1,0.5,0.3c0.1,0.1,0.2,0.2,0.3,0.4c0.1,0.1,0.1,0.3,0.1,0.5c0,0.2,0,0.4-0.1,0.5c0,0.1-0.1,0.2-0.2,0.3
			c-0.1,0.1-0.1,0.2-0.2,0.2l0.1,0.1l0,0.1l-0.8-0.3l0-0.1c0.3,0,0.5,0,0.7-0.1c0.2-0.1,0.3-0.2,0.3-0.4c0.1-0.2,0-0.4-0.1-0.6
			c-0.1-0.2-0.4-0.3-0.7-0.4c-0.2-0.1-0.3-0.1-0.5-0.1c-0.1,0-0.3,0-0.4,0c-0.1,0-0.2,0.1-0.3,0.2c-0.1,0.1-0.1,0.2-0.2,0.3
			c-0.1,0.2-0.1,0.3,0,0.4c0,0.1,0.1,0.3,0.3,0.4l-0.1,0.1c-0.1-0.1-0.1-0.2-0.2-0.2c-0.1-0.1-0.1-0.2-0.1-0.3c0-0.1,0-0.2,0-0.3
			C109.5,167.4,109.5,167.3,109.6,167.1 M109.5,174.7c0.1,0,0.2,0.1,0.4,0.1c0.1,0,0.3,0,0.5,0c0.1,0,0.3,0,0.4-0.1
			c0.1,0,0.2-0.1,0.3-0.1c0.1-0.1,0.2-0.1,0.2-0.2c0.1-0.1,0.1-0.2,0.1-0.3c0-0.2-0.1-0.3-0.4-0.4c-0.2-0.1-0.5-0.1-0.9-0.1
			c-0.2,0-0.3,0-0.4,0.1c-0.1,0-0.2,0.1-0.3,0.2c-0.1,0.1-0.2,0.1-0.2,0.2c0,0.1-0.1,0.2,0,0.3c0,0.1,0.1,0.2,0.1,0.3
			C109.3,174.6,109.4,174.6,109.5,174.7 M111.3,174.9c-0.1,0.1-0.2,0.2-0.4,0.3c-0.1,0.1-0.3,0.1-0.5,0.2c-0.2,0-0.3,0-0.5,0
			c-0.2,0-0.3-0.1-0.4-0.2c-0.1-0.1-0.2-0.2-0.3-0.4c-0.1-0.1-0.1-0.3-0.2-0.6c0-0.2,0-0.3,0-0.5c0-0.2,0.1-0.3,0.2-0.4
			c0.1-0.1,0.2-0.2,0.4-0.3c0.1-0.1,0.3-0.1,0.5-0.2c0.2,0,0.4,0,0.6,0c0.2,0,0.3,0.1,0.4,0.2c0.1,0.1,0.2,0.2,0.3,0.4
			c0.1,0.2,0.1,0.3,0.2,0.5c0,0.2,0,0.4,0,0.5C111.5,174.6,111.4,174.8,111.3,174.9 M112.6,178.2c0,0,0-0.1-0.1-0.1
			c0-0.1-0.1-0.1-0.1-0.1c0,0-0.1,0-0.2,0c-0.1,0-0.2,0-0.3,0.1l-1.6,0.6l-0.1-0.3l1.2-2.1l-1.1,0.4c-0.1,0.1-0.2,0.1-0.3,0.1
			c-0.1,0-0.1,0.1-0.1,0.1c0,0,0,0.1,0,0.2c0,0.1,0,0.1,0,0.2l-0.1,0l-0.4-1l0.1,0c0,0,0,0.1,0.1,0.1c0,0,0.1,0.1,0.1,0.1
			c0,0,0.1,0,0.2,0s0.2,0,0.3-0.1l1.1-0.4c0.1,0,0.1,0,0.1-0.1c0,0,0.1-0.1,0.1-0.1c0-0.1,0-0.1,0-0.2c0-0.1,0-0.1,0-0.2l0.1,0
			l0.3,0.9l-1.1,1.8l0.9-0.3c0.1-0.1,0.2-0.1,0.3-0.1c0.1,0,0.1-0.1,0.1-0.1c0,0,0-0.1,0-0.2c0-0.1,0-0.1,0-0.2l0.1,0l0.4,1
			L112.6,178.2z M113.2,181.6C113.2,181.6,113.2,181.5,113.2,181.6c-0.1-0.1-0.1-0.1-0.1-0.1c0,0-0.1,0-0.1,0c0,0-0.1,0-0.1,0
			l-0.2,0.2c0,0-0.1,0.1-0.1,0.1c0,0-0.1,0-0.1,0.1c-0.1-0.1-0.3-0.2-0.4-0.3c-0.2-0.2-0.3-0.3-0.4-0.5c-0.1-0.1-0.2-0.3-0.2-0.5
			c0-0.2,0-0.3,0-0.5c0-0.2,0.1-0.3,0.2-0.4c0.1-0.1,0.2-0.3,0.4-0.4c0.2-0.1,0.3-0.2,0.5-0.2c0.2,0,0.3,0,0.5,0
			c0.2,0,0.3,0.1,0.5,0.2c0.1,0.1,0.3,0.2,0.4,0.4c0.1,0.1,0.1,0.2,0.2,0.4c0,0.1,0.1,0.2,0.1,0.3l0.1,0l0.1,0.1l-0.7,0.5l-0.1-0.1
			c0.2-0.2,0.3-0.4,0.3-0.6c0-0.2,0-0.3-0.1-0.5c-0.1-0.2-0.3-0.3-0.5-0.3c-0.2,0-0.5,0.1-0.8,0.3c-0.3,0.2-0.5,0.4-0.6,0.6
			c-0.1,0.2-0.1,0.4,0,0.6c0.1,0.1,0.1,0.2,0.2,0.2c0.1,0.1,0.1,0.1,0.2,0.1l0.4-0.3c0,0,0.1,0,0.1-0.1c0,0,0-0.1,0-0.1
			c0,0,0-0.1,0-0.1c0-0.1,0-0.1-0.1-0.1l0.1-0.1l0.7,1.1L113.2,181.6z M114.5,183.7c0.1,0,0.2-0.1,0.3-0.2c0.1-0.1,0.2-0.2,0.3-0.3
			c0.1-0.1,0.2-0.2,0.3-0.3c0.1-0.1,0.1-0.2,0.2-0.3c0-0.1,0-0.2,0-0.3c0-0.1-0.1-0.2-0.2-0.3c-0.2-0.1-0.3-0.2-0.5-0.1
			c-0.2,0.1-0.4,0.2-0.7,0.5c-0.1,0.1-0.2,0.2-0.3,0.3c-0.1,0.1-0.1,0.2-0.2,0.3c0,0.1,0,0.2,0,0.3c0,0.1,0.1,0.2,0.2,0.3
			c0.1,0.1,0.2,0.1,0.3,0.1C114.3,183.8,114.4,183.7,114.5,183.7 M116.1,182.7c0,0.2,0,0.3-0.1,0.5c-0.1,0.2-0.2,0.3-0.3,0.5
			c-0.2,0.2-0.4,0.3-0.7,0.4c-0.2,0.1-0.5,0-0.8-0.1c-0.1,0.1-0.1,0.2-0.2,0.3c0,0.1,0,0.2,0.1,0.3c0,0,0.1,0.1,0.1,0.1
			c0,0,0.1,0.1,0.1,0.1l-0.1,0.1c-0.1,0-0.2-0.1-0.3-0.1c-0.1-0.1-0.2-0.2-0.3-0.2c-0.1-0.1-0.2-0.3-0.2-0.5c0-0.2,0.1-0.3,0.2-0.5
			c-0.1-0.1-0.2-0.3-0.2-0.4c-0.1-0.1-0.1-0.3-0.1-0.4c0-0.1,0-0.3,0.1-0.4c0.1-0.1,0.1-0.3,0.3-0.4c0.1-0.1,0.3-0.2,0.4-0.3
			c0.2-0.1,0.3-0.1,0.5-0.1c0.2,0,0.3,0,0.5,0.1c0.2,0.1,0.3,0.2,0.4,0.3c0.1,0.1,0.2,0.3,0.3,0.4
			C116,182.4,116.1,182.6,116.1,182.7 M116.8,185.9l-1.1-0.7l0.1-0.1c0,0,0.1,0,0.1,0.1c0.1,0,0.1,0,0.1,0c0,0,0.1,0,0.1,0
			c0,0,0.1,0,0.1-0.1l0.9-1.5c0,0,0-0.1,0-0.1c0,0,0-0.1,0-0.1c0,0,0-0.1-0.1-0.1c0,0-0.1-0.1-0.1-0.1l0.1-0.1l1.1,0.7l-0.1,0.1
			c0,0-0.1,0-0.1-0.1c0,0-0.1,0-0.1,0c0,0-0.1,0-0.1,0c0,0-0.1,0-0.1,0.1l-0.9,1.4c0,0,0,0.1,0,0.1c0,0,0,0.1,0,0.1
			c0,0,0,0.1,0.1,0.1c0,0,0.1,0.1,0.1,0.1L116.8,185.9z M121.1,185.4c0,0-0.1,0-0.1,0c-0.1,0-0.1,0-0.2,0c-0.1,0-0.1,0-0.1,0.1
			c0,0.1-0.1,0.2-0.2,0.3l-0.7,1.6l-0.3-0.1l-0.6-2.3l-0.5,1c-0.1,0.1-0.1,0.2-0.1,0.3s0,0.1,0,0.2c0,0,0.1,0.1,0.1,0.1
			c0.1,0,0.1,0.1,0.1,0.1l-0.1,0.1l-1-0.4l0.1-0.1c0,0,0.1,0,0.2,0c0.1,0,0.1,0,0.2,0c0.1,0,0.1,0,0.1-0.1c0-0.1,0.1-0.2,0.2-0.3
			l0.5-1.1c0-0.1,0-0.1,0-0.2c0-0.1,0-0.1,0-0.2c0-0.1,0-0.1-0.1-0.1c0,0-0.1-0.1-0.1-0.1l0.1-0.1l0.8,0.4l0.5,2l0.4-0.8
			c0.1-0.1,0.1-0.2,0.1-0.3c0-0.1,0-0.1,0-0.2c0,0-0.1-0.1-0.1-0.1c-0.1,0-0.1-0.1-0.1-0.1l0.1-0.1l1,0.4L121.1,185.4z M123.8,187.2
			C123.8,187.2,123.8,187.2,123.8,187.2c-0.1,0-0.2,0-0.2,0c-0.1,0-0.1,0-0.1,0.1c0,0,0,0.1,0,0.1l-0.1,0.3c0,0.1,0,0.1,0,0.1
			c0,0,0,0.1,0,0.1c-0.1,0-0.3,0.1-0.5,0.1c-0.2,0-0.4,0-0.6,0c-0.2,0-0.3-0.1-0.5-0.2c-0.1-0.1-0.3-0.2-0.4-0.3
			c-0.1-0.1-0.2-0.3-0.2-0.4c0-0.2,0-0.4,0-0.6c0-0.2,0.1-0.4,0.2-0.5c0.1-0.1,0.2-0.3,0.3-0.4c0.1-0.1,0.3-0.2,0.5-0.2
			c0.2,0,0.4,0,0.6,0c0.1,0,0.3,0.1,0.4,0.1c0.1,0.1,0.2,0.1,0.3,0.2l0.1-0.1l0.1,0l-0.1,0.9l-0.1,0c0-0.3-0.1-0.5-0.2-0.6
			c-0.1-0.1-0.2-0.2-0.4-0.3c-0.2,0-0.4,0-0.6,0.2c-0.2,0.2-0.3,0.4-0.3,0.7c-0.1,0.4-0.1,0.6,0,0.9c0.1,0.2,0.2,0.3,0.4,0.4
			c0.1,0,0.2,0,0.3,0c0.1,0,0.1,0,0.2-0.1l0.1-0.5c0,0,0-0.1,0-0.1c0,0,0-0.1-0.1-0.1c0,0-0.1,0-0.1-0.1c0,0-0.1,0-0.1,0l0-0.1
			l1.2,0.2L123.8,187.2z M108.8,172l0.1-1.3l0.1,0c0,0,0,0.1,0,0.1c0,0.1,0,0.1,0,0.1c0,0,0,0.1,0.1,0.1c0,0,0.1,0,0.1,0l0.8,0.1
			l0.1-1l-0.8-0.1c0,0-0.1,0-0.1,0c0,0-0.1,0-0.1,0.1c0,0,0,0.1,0,0.1c0,0.1,0,0.1,0,0.1l-0.1,0l0.1-1.3l0.1,0c0,0,0,0.1,0,0.1
			c0,0.1,0,0.1,0,0.1c0,0,0,0.1,0.1,0.1c0,0,0.1,0,0.1,0l1.7,0.1c0,0,0.1,0,0.1,0c0,0,0.1,0,0.1-0.1c0,0,0-0.1,0.1-0.1
			c0-0.1,0-0.1,0-0.1l0.1,0l-0.1,1.3l-0.1,0c0,0,0-0.1,0-0.1c0-0.1,0-0.1,0-0.1c0,0,0-0.1-0.1-0.1c0,0-0.1,0-0.1,0l-0.7-0.1l-0.1,1
			l0.7,0.1c0,0,0.1,0,0.1,0s0.1,0,0.1-0.1c0,0,0-0.1,0-0.1s0-0.1,0-0.1l0.1,0l-0.1,1.3l-0.1,0c0,0,0-0.1,0-0.1c0,0,0-0.1,0-0.1
			c0,0,0-0.1-0.1-0.1c0,0-0.1,0-0.1,0l-1.7-0.1c0,0-0.1,0-0.1,0c0,0-0.1,0-0.1,0.1c0,0,0,0.1,0,0.1c0,0.1,0,0.1,0,0.1L108.8,172z"/>
	</g>
</g>
</svg>
