<?xml version="1.0" encoding="utf-8"?>
<!-- Generator: Adobe Illustrator 28.0.0, SVG Export Plug-In . SVG Version: 6.00 Build 0)  -->
<svg version="1.1" id="svg1" xmlns:svg="http://www.w3.org/2000/svg"
	 xmlns="http://www.w3.org/2000/svg" xmlns:xlink="http://www.w3.org/1999/xlink" x="0px" y="0px" viewBox="0 0 39.1 39.1"
	 style="enable-background:new 0 0 39.1 39.1;" xml:space="preserve">
<style type="text/css">
	
		.st0{clip-path:url(#SVGID_00000018203359452792882080000002151296201573762985_);fill-rule:evenodd;clip-rule:evenodd;fill:#2E3192;}
	.st1{clip-path:url(#SVGID_00000013907016292864437060000010729010564756236976_);fill:#FFFFFF;}
	
		.st2{clip-path:url(#SVGID_00000091721217167202344450000002780449045501171627_);fill-rule:evenodd;clip-rule:evenodd;fill:#FFFFFF;}
	
		.st3{clip-path:url(#SVGID_00000130615279753672707570000001763053775641747089_);fill-rule:evenodd;clip-rule:evenodd;fill:#FFFFFF;}
	
		.st4{clip-path:url(#SVGID_00000136412600172785294110000012338530903590012062_);fill-rule:evenodd;clip-rule:evenodd;fill:#FFFFFF;}
	
		.st5{clip-path:url(#SVGID_00000048491755988613112800000005934810220737149335_);fill-rule:evenodd;clip-rule:evenodd;fill:#2E3192;}
	.st6{clip-path:url(#SVGID_00000165919683168655932490000015357715617126466212_);fill:#2E3192;}
	.st7{clip-path:url(#SVGID_00000098215332816625445010000001466911260410574219_);fill:#2E3192;}
	.st8{clip-path:url(#SVGID_00000028312414484225822960000017306307896861477821_);fill:#2E3192;}
	.st9{clip-path:url(#SVGID_00000103228327062576547730000013443676460995548568_);fill:#2E3192;}
</style>
<g id="layer1" transform="translate(-85.281976,-196.49365)">
	<g>
		<defs>
			<rect id="SVGID_1_" x="-175.3" y="-557.2" width="1207.6" height="858.9"/>
		</defs>
		<clipPath id="SVGID_00000064314208959933699040000008463835553702324667_">
			<use xlink:href="#SVGID_1_"  style="overflow:visible;"/>
		</clipPath>
		
			<path id="path3607" style="clip-path:url(#SVGID_00000064314208959933699040000008463835553702324667_);fill-rule:evenodd;clip-rule:evenodd;fill:#2E3192;" d="
			M104.8,196.5c10.8,0,19.6,8.8,19.6,19.6c0,10.8-8.8,19.6-19.6,19.6s-19.6-8.8-19.6-19.6C85.3,205.3,94,196.5,104.8,196.5"/>
	</g>
	<g>
		<defs>
			<rect id="SVGID_00000013163898800199833930000013699779758432757123_" x="-175.3" y="-557.2" width="1207.6" height="858.9"/>
		</defs>
		<clipPath id="SVGID_00000124156964277865109720000014926368072171330213_">
			<use xlink:href="#SVGID_00000013163898800199833930000013699779758432757123_"  style="overflow:visible;"/>
		</clipPath>
		<path id="path3609" style="clip-path:url(#SVGID_00000124156964277865109720000014926368072171330213_);fill:#FFFFFF;" d="
			M104.8,198.1c-9.9,0-18,8.1-18,18c0,4.9,2,9.4,5.3,12.7s7.7,5.3,12.7,5.3c9.9,0,18-8.1,18-18c0-4.9-2-9.4-5.3-12.7
			C114.3,200.1,109.8,198.1,104.8,198.1 M104.8,197.4c5.1,0,9.8,2.1,13.2,5.5c3.4,3.4,5.5,8,5.5,13.2c0,10.3-8.4,18.6-18.6,18.6
			c-5.1,0-9.8-2.1-13.2-5.5s-5.5-8-5.5-13.2C86.2,205.8,94.6,197.4,104.8,197.4"/>
	</g>
	<g>
		<defs>
			<rect id="SVGID_00000041984691132950191420000017470269967159814030_" x="-175.3" y="-557.2" width="1207.6" height="858.9"/>
		</defs>
		<clipPath id="SVGID_00000013195062268594884130000015478141585160454026_">
			<use xlink:href="#SVGID_00000041984691132950191420000017470269967159814030_"  style="overflow:visible;"/>
		</clipPath>
		
			<path id="path3611" style="clip-path:url(#SVGID_00000013195062268594884130000015478141585160454026_);fill-rule:evenodd;clip-rule:evenodd;fill:#FFFFFF;" d="
			M118.8,209.3c0.2,0.3,0.5,0.6,0.9,0.6c0,0,0,0,0,0C119.6,209.6,119.2,209.3,118.8,209.3 M120.2,208.8
			C120.2,208.8,120.2,208.8,120.2,208.8L120.2,208.8C120.2,208.8,120.2,208.8,120.2,208.8 M119,207.5c0,0,0.1,0,0.1,0
			c0.2,0.1,0.2,0.3,0.2,0.5c0.4,0,0.4,0.3,0.7,0.4c0.1,0.1,0.6,0.2,0.7,0.2c0.1,0.1,0.4,0.2,0.3,0.3c0,0.1-0.1,0.1-0.1,0.2
			c-0.4,0.5-0.7,0.3-1.3,0.1c0,0,0,0,0,0c0.3,0.1,0.7,0.6,0.8,0.9c0.1,0.3-0.1,0.7-0.5,0.6c-0.3-0.2-0.4-0.5-0.7-0.7
			c-0.3,0.2-0.5,0.1-0.8,0v0.1c0.1,0.1,0.2,0.2,0.2,0.4c0,0-0.1,0.1-0.1,0.1c-0.3,0-0.4,0-0.6-0.1c-0.4,0.2-0.6,0.7-1,0.8
			c-0.6,0.2-0.7-0.8-0.8-1.2c0-0.1-0.1-0.1-0.1-0.2c0,0,0,0,0.1-0.1c0.1,0.1,0.1,0.2,0.2,0.3c0.2,0.1,0.3,0.3,0.5,0.4
			c0.2,0,0.6-0.2,0.7-0.3c-0.3-0.4-0.3-0.2-0.4-0.8c0.1-0.1,0.1-0.1,0.2-0.1c0.2,0.1,0.4,0.2,0.5,0.3c0.1-0.1,0.2-0.1,0.4-0.1
			c0,0,0,0,0,0c-0.2-0.1-0.3-0.1-0.3-0.4c0.1-0.2,0.2-0.2,0.4-0.1c-0.3-0.3-0.9,0-1.2,0c0,0-0.1-0.1-0.1-0.1c-0.2-0.6,0.5-0.9,1-0.9
			c0,0,0,0.1,0.1,0.1c-0.1,0.2-0.2,0.3-0.2,0.4h0c0.2,0,0.3,0.1,0.5,0.1c0.2,0.1,0.6,0.5,0.9,0.2c-0.1-0.1-0.1-0.2-0.2-0.3
			c-0.1,0-0.4,0.1-0.6,0.1c-0.1,0-0.1-0.1-0.2-0.1C118.3,207.7,118.6,207.8,119,207.5 M91.7,209.1c-0.1,0.1-0.1,0.4,0,0.5
			c0,0,0,0,0,0c0.1,0,0.1,0,0.2,0c0,0,0,0,0,0C91.9,209.4,91.8,209.2,91.7,209.1 M92.4,207.1c0.5,0,1.8,0.5,2,0.8
			c0.2,0.2,0.2,0.6,0.1,0.9c-0.1,0.1-0.2,0.1-0.3,0.2c-0.3,0.1-0.5,0.1-0.8,0.2c0-0.3,0.1-0.5,0.1-0.7c-0.4-0.3-1.7-1-1.8,0
			c0.1,0.1,0.2,0.3,0.3,0.5h0c0-0.2,0.1-0.3,0.3-0.3c0.2,0.1,0.3,0.3,0.4,0.5c0.1,0,0.2-0.1,0.3,0c0.1,0.1,0.1,0.2,0.1,0.3
			c0.1,0.1,0.2,0.1,0.3,0.2c0.1,0.1,0.2,0.2,0.2,0.3v0.2c-0.2,0.1-0.4,0.1-0.5,0.4c-0.1,0-0.2,0.1-0.3,0c-0.2-0.1-0.2-0.2-0.3-0.3
			c0,0,0,0,0,0c0,0.2-0.1,0.4-0.2,0.5c0,0,0,0,0,0c-0.1-0.1-0.2-0.3-0.3-0.5c-0.2,0-0.4,0-0.4,0.1c0.1,0.1,0.1,0.2,0.2,0.3
			c0.2,0.1,0.3,0,0.5,0.1c0.3,0.1,0.6,0.3,0.8,0.5c-0.1,0.2-0.6,0.3-0.9,0.2c-0.5-0.2-1.2-0.2-1.4-0.8c0,0,0,0,0,0
			c0.1,0,0.3,0,0.4,0v0c0-0.3-0.2-0.5-0.2-0.8c-0.2,0-0.3,0.1-0.5,0.2H90c-0.1-0.1-0.1-0.1-0.2-0.2c0-0.3,0-0.5-0.1-0.7
			c-0.4-0.1-0.7-0.7-0.4-1c0.2-0.1,0.4,0,0.7-0.2c0.1-0.3,0.5-0.4,0.7-0.2c0.3,0.2,0.3,0.7,0.5,1c0,0,0,0,0,0
			C91.6,208.1,91.8,207.4,92.4,207.1 M111,200.9c0.2,0,0.4,0.2,0.5,0.3c0.1,0.2,0,0.6,0,0.7c0.3,0.1,1,0.1,0.9,0.6
			c-0.4,0.1-0.9,0.2-1.3,0.3c0,0,0,0,0,0c0.2,0.5,0.4,0.8,0.6,1.2c0.2,0.3,0.7,0.5,0.8,0.9c-0.1,0-0.2,0.1-0.3,0.1
			c-0.4,0.1-1.1-0.5-1.2-0.8c-0.1-0.3-0.1-0.9-0.3-1.1c-0.8,0.5-1.1,0.7-2.2,0.4c0,0,0-0.1,0-0.1c0.1-0.1,0.4-0.1,0.6-0.2
			c0.3-0.1,0.9-0.4,1.1-0.6c0-0.1-0.2-0.1-0.2-0.2c-0.3-0.1-0.6-0.6-0.5-0.9c0.1,0,0.1,0,0.2-0.1c0.1,0.2,0.7,0.4,0.8,0.1
			C110.7,201.5,110.8,201.1,111,200.9 M100.1,202.5c-0.2,0.1-0.4,0.1-0.5,0.2c-0.2,0.1-0.7,0.7-0.7,0.9h0c0,0,0,0,0,0
			c0.2-0.1,0.6-0.8,1.1-0.7c0,0,0,0,0,0c0,0,0,0.1,0,0.1c-0.1,0.3-0.5,0.8-0.9,0.8v0.1c0.1,0.1,0.1,0.1,0.1,0.2h0
			c0.2,0,0.7-0.5,0.9-0.7c0.2,0,0.3,0.2,0.4,0C100.4,203.1,100.5,202.6,100.1,202.5 M100.1,201.9c0.4,0,0.7,0.1,0.8,0.4
			c0,0,0.2,0.4,0.1,0.4c0.1,0,0.2,0.2,0.1,0.4c0.1,0.2,0.2,0.6,0,0.8c-0.4,0.4-0.6,0.1-0.9,0.2c-0.2,0.1-0.5,0.3-0.7,0.5
			c-0.1,0.1-0.1,0.3-0.3,0.3c-0.8-0.2-1.1-0.9-1.2-1.6c0,0,0,0,0.1,0c0.1,0,0.2,0.1,0.3,0.1c0.1-0.1,0.1-0.2,0.2-0.2
			c0.2-0.3,0.7-0.7,1-0.9C99.7,202,99.9,202,100.1,201.9 M98.8,200.7c-0.3,0.2-0.9,0.5-0.9,1H98c0.1-0.1,0.5-0.7,0.7-0.4
			c0.2,0.3-0.4,0.7-0.5,0.8v0c0,0,0.1,0,0.1,0.1c0.1,0,0.1,0,0.2-0.1c0.1-0.1,0.2-0.2,0.3-0.3C98.9,201.6,98.9,200.7,98.8,200.7
			C98.8,200.7,98.8,200.7,98.8,200.7 M99,200c0.3,0,0.4,0.1,0.6,0.3c0,0.2,0.1,0.7,0,1.1c-0.2,0.6-0.7,1.5-1.5,1.4
			c-0.3-0.4-0.6-0.7-0.8-1.1c0-0.1,0-0.2,0-0.3c0.1-0.1,0.2-0.1,0.3-0.2c0.1-0.1,0.1-0.3,0.3-0.4c0.2-0.2,0.5-0.3,0.7-0.4
			C98.8,200.2,98.9,200.1,99,200"/>
	</g>
	<g>
		<defs>
			<rect id="SVGID_00000000188167470358912570000018117030411206965398_" x="-175.3" y="-557.2" width="1207.6" height="858.9"/>
		</defs>
		<clipPath id="SVGID_00000034077136590046728160000003514770442407722147_">
			<use xlink:href="#SVGID_00000000188167470358912570000018117030411206965398_"  style="overflow:visible;"/>
		</clipPath>
		
			<path id="path3613" style="clip-path:url(#SVGID_00000034077136590046728160000003514770442407722147_);fill-rule:evenodd;clip-rule:evenodd;fill:#FFFFFF;" d="
			M120.8,217.3c0.1,0,0.2,0,0.3,0c0,0,0.1-0.1,0.1-0.3l0.1,0l-0.1,1.3l-0.1,0c0-0.1,0-0.2-0.1-0.3c0-0.1-0.1-0.1-0.3-0.1l-0.5,0
			l-1.2,0.6c-0.1,0.1-0.2,0.1-0.2,0.1c0,0-0.1,0.1-0.1,0.2l-0.1,0l0.1-1.2l0.1,0l0,0c0,0.1,0,0.2,0,0.2c0,0,0,0.1,0.1,0.1
			c0,0,0,0,0.1,0c0,0,0.1,0,0.1,0l1-0.4l-0.8-0.5c0,0-0.1-0.1-0.1-0.1s-0.1,0-0.1,0c-0.1,0-0.1,0-0.1,0.1c0,0-0.1,0.1-0.1,0.2l0,0
			l-0.1,0l0.1-0.8l0.1,0c0,0.1,0,0.1,0.1,0.2c0,0.1,0.1,0.1,0.2,0.2l1,0.7L120.8,217.3z M120.3,220.1c0.1,0,0.2,0,0.3,0
			c0.1,0,0.1-0.1,0.1-0.3l0.1,0l-0.4,1.3l-0.1,0c0-0.1,0-0.2,0-0.3c0-0.1-0.1-0.1-0.2-0.1l-1.9-0.5l0,0c-0.1,0.2,0,0.4,0,0.5
			c0.1,0.1,0.2,0.3,0.4,0.3l0,0.1l-0.7-0.2l0.6-2.1l0.7,0.2l0,0.1c-0.2,0-0.4,0-0.5,0.1c-0.1,0.1-0.2,0.2-0.3,0.4l0,0L120.3,220.1z
			 M117.8,221L117.8,221c0,0.2,0,0.3,0,0.3c0,0.1,0.1,0.1,0.2,0.2l1.6,0.7c0.1,0.1,0.2,0.1,0.3,0s0.1-0.1,0.2-0.2l0.1,0l-0.5,1.2
			l-0.1,0c0-0.1,0.1-0.2,0-0.3c0-0.1-0.1-0.1-0.2-0.2l-1.6-0.7c-0.1,0-0.2-0.1-0.2,0c-0.1,0-0.1,0.1-0.2,0.2l-0.1,0L117.8,221z
			 M118.7,225.1l-0.8-0.5l0.1-0.1c0.3,0.1,0.5,0.1,0.7,0.1c0.2,0,0.3-0.2,0.4-0.3c0.1-0.1,0.1-0.2,0.1-0.3c0-0.1-0.1-0.2-0.2-0.3
			c-0.1,0-0.2-0.1-0.2,0c-0.1,0-0.2,0.1-0.3,0.1L118,224c-0.2,0.1-0.4,0.2-0.5,0.3c-0.2,0-0.3,0-0.5-0.1c-0.2-0.1-0.3-0.3-0.4-0.4
			c-0.1-0.2,0-0.4,0.1-0.6c0.1-0.1,0.1-0.2,0.2-0.3c0.1-0.1,0.2-0.2,0.2-0.2c0,0,0-0.1,0-0.1c0,0,0-0.1-0.1-0.1l0.1-0.1l0.7,0.4
			l0,0.1c-0.2-0.1-0.4-0.1-0.6,0c-0.2,0.1-0.3,0.1-0.4,0.3c-0.1,0.1-0.1,0.2-0.1,0.3c0,0.1,0.1,0.2,0.2,0.2c0.1,0,0.2,0.1,0.2,0
			c0.1,0,0.2-0.1,0.3-0.2l0.3-0.2c0.2-0.1,0.4-0.2,0.5-0.2c0.1,0,0.3,0,0.5,0.1c0.2,0.1,0.3,0.3,0.4,0.5c0,0.2,0,0.5-0.1,0.7
			c-0.1,0.1-0.1,0.2-0.2,0.3c-0.1,0.1-0.2,0.1-0.2,0.2c0,0,0,0.1,0,0.1C118.6,225,118.7,225,118.7,225.1L118.7,225.1z M116.3,225.9
			L116.3,225.9c0.2-0.2,0.2-0.4,0.2-0.5c0-0.1-0.1-0.3-0.3-0.4c-0.1-0.1-0.3-0.2-0.4-0.2c-0.1,0-0.2,0.1-0.3,0.2
			c-0.1,0.1-0.1,0.1-0.1,0.2c0,0,0.1,0.1,0.1,0.2L116.3,225.9z M115.5,224.9c0.2-0.3,0.4-0.5,0.6-0.6c0.2-0.1,0.4,0,0.6,0.1
			c0.1,0.1,0.2,0.2,0.2,0.4c0,0.1,0,0.3-0.1,0.5l1.2,0.1c0.1,0,0.2,0,0.2,0c0,0,0.1,0,0.1-0.1l0,0l0.1,0.1l-0.5,0.6l-1.4-0.1
			l-0.1,0.1l0.6,0.5c0.1,0.1,0.2,0.1,0.3,0.1c0.1,0,0.1-0.1,0.2-0.2l0.1,0.1l-0.8,1l-0.1-0.1c0.1-0.1,0.1-0.2,0.1-0.3
			c0-0.1-0.1-0.1-0.2-0.2l-1.3-1c-0.1-0.1-0.2-0.1-0.2-0.1c-0.1,0-0.1,0.1-0.2,0.2l-0.1-0.1L115.5,224.9z M114.8,229.1L114.8,229.1
			c0-0.2,0.1-0.2,0.1-0.3c0-0.1,0-0.2-0.1-0.2l-1.1-1.2c-0.1-0.1-0.2-0.2-0.3-0.2c-0.1,0-0.2,0-0.2,0.1l-0.1-0.1l1.6-1.4l0.5,0.6
			l-0.1,0.1c-0.2-0.1-0.3-0.2-0.5-0.2c-0.2,0-0.3,0.1-0.6,0.3c-0.1,0.1-0.1,0.1-0.1,0.2c0,0,0,0.1,0.1,0.2l0.5,0.6c0,0,0,0,0,0
			c0,0,0,0,0,0c0.1-0.1,0.2-0.2,0.2-0.3c0-0.1-0.1-0.3-0.2-0.4l0.1-0.1l0.8,0.9l-0.1,0.1c-0.2-0.1-0.3-0.2-0.4-0.2
			c-0.1,0-0.2,0.1-0.4,0.2l0,0l0.6,0.6c0.1,0.1,0.1,0.1,0.2,0.1c0,0,0.1,0,0.2-0.1c0.2-0.2,0.3-0.4,0.4-0.5c0-0.2,0-0.4-0.1-0.6
			l0.1-0.1l0.4,0.7L114.8,229.1z M111.2,228.6L111.2,228.6l1-0.8l0.1,0.1c-0.1,0.1-0.2,0.1-0.2,0.2c0,0,0,0.1,0,0.1c0,0,0,0,0,0.1
			c0,0,0.1,0,0.1,0.1l1.2,0.8l-0.3-1.4c0,0,0-0.1,0-0.1c0,0,0-0.1,0-0.1c0,0-0.1-0.1-0.1-0.1c-0.1,0-0.1,0-0.2,0.1l-0.1-0.1l0.7-0.4
			l0.1,0.1c-0.1,0-0.1,0.1-0.1,0.2c0,0.1,0,0.2,0,0.3l0.5,2.3l-0.1,0.1l-2-1.3c-0.1-0.1-0.2-0.1-0.3-0.1
			C111.4,228.5,111.3,228.5,111.2,228.6 M111.2,228.4L111.2,228.4c-0.1,0.2-0.2,0.2-0.2,0.3c0,0.1,0,0.1,0,0.2l0.7,1.6
			c0.1,0.1,0.1,0.2,0.2,0.2c0.1,0,0.2,0,0.3,0l0,0.1l-1.2,0.5l0-0.1c0.1-0.1,0.2-0.1,0.2-0.2c0-0.1,0-0.1,0-0.2l-0.7-1.6
			c0-0.1-0.1-0.2-0.2-0.2c-0.1,0-0.2,0-0.3,0.1l0-0.1L111.2,228.4z M108.5,231.6c0,0.1,0.1,0.2,0.1,0.2c0.1,0,0.1,0,0.3,0l0,0.1
			l-0.8,0.2l0-0.1c0.1,0,0.2-0.1,0.2-0.1c0-0.1,0-0.1,0-0.3l-0.5-1.7l-0.2-0.1c0,0,0,0,0,0c-0.1-0.1-0.2-0.1-0.2-0.1l0-0.1l0.7-0.2
			l1.7,1.1l-0.3-1.1c0-0.1-0.1-0.2-0.1-0.2c-0.1,0-0.1,0-0.3,0l0-0.1l0.8-0.2l0,0.1c-0.1,0-0.2,0.1-0.2,0.1c0,0.1,0,0.1,0,0.3
			l0.6,2.1l-0.1,0l-2.2-1.4L108.5,231.6z M105.2,230.4c0-0.1,0-0.2-0.1-0.2c-0.1,0-0.1-0.1-0.3-0.1l0-0.1l1.3-0.1l0,0.1
			c-0.1,0-0.2,0-0.3,0.1c0,0-0.1,0.1,0,0.3l0.1,1.2c0,0.3,0.1,0.5,0.2,0.6c0.1,0.1,0.2,0.2,0.4,0.1c0.2,0,0.4-0.1,0.5-0.2
			c0.1-0.1,0.1-0.3,0.1-0.6l-0.1-1.2c0-0.1,0-0.2-0.1-0.2c-0.1,0-0.1-0.1-0.3-0.1l0-0.1l0.8-0.1l0,0.1c-0.1,0-0.2,0.1-0.2,0.1
			c0,0.1-0.1,0.1,0,0.3l0.1,1.1c0,0.2,0,0.3,0,0.4c0,0.1,0,0.2-0.1,0.3c-0.1,0.1-0.2,0.3-0.3,0.3c-0.1,0.1-0.3,0.1-0.5,0.1
			c-0.3,0-0.6,0-0.8-0.2c-0.2-0.1-0.3-0.4-0.3-0.7L105.2,230.4z M101.9,232.1c-0.2,0-0.3,0.1-0.5,0c-0.2,0-0.3,0-0.5-0.1
			c-0.4-0.1-0.7-0.3-0.9-0.6c-0.2-0.3-0.2-0.6-0.1-1c0-0.2,0.1-0.3,0.2-0.5c0.1-0.1,0.2-0.3,0.3-0.3c0.1-0.1,0.3-0.2,0.5-0.2
			c0.2,0,0.3,0,0.5,0c0.2,0,0.3,0.1,0.4,0.2c0.1,0.1,0.2,0.1,0.2,0.1c0,0,0.1,0,0.1,0c0,0,0.1-0.1,0.1-0.1l0.1,0l-0.2,0.9l-0.1,0
			c0-0.2-0.1-0.5-0.2-0.6c-0.1-0.2-0.3-0.3-0.4-0.3c-0.2-0.1-0.4,0-0.6,0.2c-0.2,0.2-0.3,0.5-0.4,0.8c-0.1,0.4-0.1,0.7,0,0.9
			c0.1,0.2,0.2,0.4,0.5,0.4c0.1,0,0.2,0,0.3,0c0.1,0,0.1-0.1,0.1-0.2l0.1-0.3c0-0.1,0-0.2,0-0.2c0,0-0.1-0.1-0.3-0.1l0-0.1l1.2,0.3
			l0,0.1c-0.1,0-0.2,0-0.2,0c0,0-0.1,0.1-0.1,0.2L101.9,232.1z M97.6,230.3c-0.1,0.1-0.1,0.2-0.1,0.3c0,0.1,0.1,0.1,0.2,0.2l0,0.1
			l-0.8-0.4l0-0.1c0.1,0,0.2,0.1,0.3,0c0.1,0,0.1-0.1,0.2-0.2l0.7-1.6l0-0.2c0,0,0,0,0,0c0-0.1-0.1-0.2-0.1-0.2l0-0.1l0.7,0.3l0.5,2
			l0.5-1.1c0.1-0.1,0.1-0.2,0.1-0.3c0-0.1-0.1-0.1-0.2-0.2l0-0.1l0.8,0.4l0,0.1c-0.1,0-0.2-0.1-0.3,0c-0.1,0-0.1,0.1-0.2,0.2l-0.9,2
			l-0.1,0l-0.6-2.5L97.6,230.3z M95.7,228.6l0.6,0.4l0.2-0.9L95.7,228.6z M94.7,228.9c0.1,0,0.1,0.1,0.2,0c0.1,0,0.2-0.1,0.2-0.1
			l1.9-1.4l0.1,0.1l-0.4,2.3c0,0.2,0,0.3,0,0.4c0,0.1,0,0.1,0.1,0.1l-0.1,0.1l-1-0.7l0.1-0.1c0.1,0.1,0.2,0.1,0.2,0.1
			c0.1,0,0.1,0,0.1-0.1c0,0,0,0,0-0.1s0-0.1,0-0.1l0.1-0.3l-0.7-0.5l-0.2,0.2c0,0-0.1,0-0.1,0.1c0,0,0,0-0.1,0.1c0,0,0,0.1,0,0.1
			c0,0,0.1,0.1,0.2,0.1l0,0l-0.1,0.1L94.7,228.9L94.7,228.9z M92.5,226.9L92.5,226.9c0.2,0,0.2,0.1,0.3,0.1c0.1,0,0.1-0.1,0.2-0.1
			l1.2-1.2c0.1-0.1,0.1-0.2,0.1-0.2c0-0.1,0-0.1-0.1-0.2l0.1-0.1l0.9,0.9l-0.1,0.1c-0.1-0.1-0.2-0.1-0.2-0.1c-0.1,0-0.1,0-0.2,0.1
			l-0.5,0.5l0.6,0.6l0.5-0.5c0.1-0.1,0.1-0.2,0.1-0.2c0-0.1-0.1-0.1-0.1-0.2l0.1-0.1l0.9,0.9l-0.1,0.1c-0.1-0.1-0.2-0.1-0.2-0.1
			c-0.1,0-0.1,0-0.2,0.1l-1.2,1.2c-0.1,0.1-0.1,0.2-0.1,0.2c0,0.1,0,0.1,0.1,0.2l-0.1,0.1l-0.9-0.9l0.1-0.1c0.1,0.1,0.2,0.1,0.2,0.1
			c0.1,0,0.1-0.1,0.2-0.2l0.5-0.6l-0.6-0.6l-0.5,0.6c-0.1,0.1-0.1,0.2-0.1,0.2c0,0.1,0,0.1,0.1,0.2l-0.1,0.1L92.5,226.9z
			 M92.6,226.2c-0.2,0-0.4-0.1-0.6-0.1c-0.2-0.1-0.3-0.2-0.5-0.4c-0.1-0.1-0.2-0.3-0.2-0.5c0-0.2,0-0.3,0-0.5c0-0.2,0.1-0.3,0.2-0.5
			c0.1-0.1,0.2-0.3,0.4-0.4c0.2-0.1,0.3-0.2,0.5-0.2c0.2,0,0.3,0,0.5,0c0.2,0,0.3,0.1,0.5,0.2c0.1,0.1,0.3,0.2,0.4,0.4
			c0.1,0.1,0.1,0.3,0.2,0.4c0,0.2,0.1,0.2,0.1,0.3c0,0,0.1,0.1,0.1,0.1c0,0,0.1,0,0.1,0l0.1,0.1l-0.7,0.5l-0.1-0.1
			c0.1-0.2,0.2-0.4,0.2-0.6c0-0.2,0-0.4-0.1-0.5c-0.1-0.2-0.3-0.3-0.5-0.2c-0.2,0-0.5,0.2-0.8,0.4c-0.3,0.2-0.5,0.4-0.6,0.6
			c-0.1,0.2-0.1,0.4,0.1,0.6c0.1,0.1,0.2,0.2,0.4,0.3c0.1,0.1,0.3,0.1,0.5,0.1L92.6,226.2z M90.1,222.2c-0.1,0.1-0.2,0.1-0.2,0.2
			c0,0.1,0,0.1,0,0.3l-0.1,0l-0.3-0.8l0.1,0c0.1,0.1,0.1,0.2,0.2,0.2s0.1,0,0.3-0.1l1.6-0.7l0.1-0.2c0,0,0,0,0,0
			c0-0.1,0.1-0.2,0-0.2l0.1,0l0.3,0.7l-0.9,1.8l1.1-0.5c0.1-0.1,0.2-0.1,0.2-0.2c0-0.1,0-0.1,0-0.3l0.1,0l0.3,0.8l-0.1,0
			c-0.1-0.1-0.1-0.2-0.2-0.2c-0.1,0-0.2,0-0.3,0.1l-2,0.9l0-0.1l1.2-2.3L90.1,222.2z M89.8,219.8l0.2,0.7l0.8-0.6L89.8,219.8z
			 M88.8,219.3c0,0.1,0.1,0.1,0.1,0.2c0.1,0,0.1,0.1,0.3,0.1l2.4,0.2l0,0.1l-1.8,1.4c-0.1,0.1-0.2,0.2-0.3,0.2c0,0.1,0,0.1,0,0.2
			l-0.1,0l-0.3-1.2l0.1,0c0,0.1,0.1,0.2,0.1,0.2c0,0,0.1,0.1,0.1,0c0,0,0,0,0.1,0c0,0,0.1,0,0.1-0.1l0.2-0.2l-0.2-0.8l-0.3,0
			c0,0-0.1,0-0.1,0c0,0-0.1,0-0.1,0c-0.1,0-0.1,0-0.1,0.1c0,0.1,0,0.1,0,0.2l0,0l-0.1,0L88.8,219.3L88.8,219.3z M88.9,217
			c-0.1,0-0.2,0-0.3,0.1c0,0.1-0.1,0.1,0,0.3l-0.1,0l-0.1-0.8l0.1,0c0,0.1,0.1,0.2,0.1,0.2c0,0,0.1,0,0.3,0l1.7-0.2l0.1-0.1
			c0,0,0,0,0,0c0.1-0.1,0.1-0.1,0.1-0.2l0.1,0l0.1,0.8l-1.4,1.5l1.2-0.1c0.1,0,0.2-0.1,0.3-0.1c0,0,0-0.1,0-0.3l0.1,0l0.1,0.8
			l-0.1,0c0-0.1-0.1-0.2-0.1-0.2c-0.1,0-0.1,0-0.3,0l-2.2,0.3l0-0.1l1.8-1.9L88.9,217z"/>
	</g>
	<g>
		<defs>
			<rect id="SVGID_00000038376834179691693660000003817383772077632641_" x="-175.3" y="-557.2" width="1207.6" height="858.9"/>
		</defs>
		<clipPath id="SVGID_00000023978400957939172540000015858387399720360634_">
			<use xlink:href="#SVGID_00000038376834179691693660000003817383772077632641_"  style="overflow:visible;"/>
		</clipPath>
		
			<path id="path3615" style="clip-path:url(#SVGID_00000023978400957939172540000015858387399720360634_);fill-rule:evenodd;clip-rule:evenodd;fill:#FFFFFF;" d="
			M104.8,204.7c6.3,0,11.4,5.1,11.4,11.4c0,6.3-5.1,11.4-11.4,11.4c-6.3,0-11.4-5.1-11.4-11.4C93.5,209.8,98.6,204.7,104.8,204.7"/>
	</g>
	<g>
		<defs>
			<rect id="SVGID_00000087402320152001676070000017358125361871035300_" x="-175.3" y="-557.2" width="1207.6" height="858.9"/>
		</defs>
		<clipPath id="SVGID_00000010278834000755143860000016117243991287038123_">
			<use xlink:href="#SVGID_00000087402320152001676070000017358125361871035300_"  style="overflow:visible;"/>
		</clipPath>
		
			<path id="path3617" style="clip-path:url(#SVGID_00000010278834000755143860000016117243991287038123_);fill-rule:evenodd;clip-rule:evenodd;fill:#2E3192;" d="
			M110.2,221c-0.1,0-0.1,0.1-0.2,0.1c0,0.1,0,0.1,0,0.2c0.1,0.1,0.1,0.1,0.2,0.1c0.1-0.1,0.2-0.1,0.2-0.3c0,0,0,0,0,0
			C110.3,221,110.3,221,110.2,221 M110.9,221c-0.1,0-0.1,0.1-0.1,0.2c0,0,0,0,0,0.1c0.1,0,0.1,0,0.2-0.1c0,0,0-0.1,0-0.1
			C111,221,111,221,110.9,221C111,221,110.9,221,110.9,221 M109.6,221c0,0.1-0.1,0.1-0.1,0.2c0,0.1,0,0.1,0.1,0.1
			c0,0,0.1-0.1,0.1-0.1C109.7,221.1,109.7,221,109.6,221L109.6,221L109.6,221z M108,221c0,0-0.1,0.1-0.1,0.1v0.1c0,0,0,0,0.1,0
			c0.1,0,0.1,0,0.2-0.1C108.1,221,108.1,221,108,221L108,221z M110.2,220.5c-0.1,0-0.1,0.1-0.2,0.1v0c0,0.1,0,0.2,0.1,0.2h0h0.1
			c0-0.1,0.1-0.1,0.1-0.2c0-0.1,0-0.1,0-0.1H110.2z M108.8,220.4c-0.1,0-0.2,0.1-0.3,0.1c0,0.2,0.1,0.4,0.3,0.2
			c0.1,0,0.1-0.1,0.1-0.1C108.9,220.5,108.9,220.5,108.8,220.4L108.8,220.4z M109.7,220.4C109.7,220.4,109.6,220.4,109.7,220.4
			c-0.1,0.2,0,0.3,0,0.3h0c0.1,0,0.1,0,0.1-0.2C109.8,220.5,109.8,220.4,109.7,220.4 M101.9,220.4c-0.1,0.1-0.1,0.1-0.1,0.3
			c0,0,0,0,0,0c0.2,0,0.3-0.1,0.4-0.1c0,0,0-0.1,0-0.1C102.1,220.4,102,220.4,101.9,220.4 M107.8,220.4
			C107.8,220.4,107.8,220.4,107.8,220.4c-0.1,0.1-0.1,0.1,0,0.2c0.1,0,0.1,0,0.2,0c0,0,0,0,0,0C107.9,220.4,107.9,220.4,107.8,220.4
			 M110.9,220.1c-0.2,0.1-0.3,0.3-0.4,0.5c0,0,0,0.1,0.1,0.1c0,0,0,0,0,0c0.1,0,0.1,0,0.2-0.1c0.1-0.2,0.2-0.3,0.3-0.5c0,0,0,0,0,0
			C111,220.1,111,220.1,110.9,220.1 M108.4,219.9c-0.1,0.1,0,0.3,0.1,0.3h0c0,0,0.1,0,0.1,0c0,0,0,0,0-0.1c0-0.1,0-0.1-0.1-0.2
			C108.5,219.9,108.4,219.9,108.4,219.9 M108.8,219.8C108.8,219.8,108.8,219.9,108.8,219.8c0,0.2,0,0.3,0.1,0.4h0.4
			c0.1,0,0.2,0.1,0.3,0.2c0.1-0.1,0.2-0.2,0.3-0.3V220c0,0,0,0,0,0c-0.2,0-0.5,0.1-0.6,0C109.2,219.9,109,219.8,108.8,219.8
			 M108,219.7c-0.1,0.1-0.2,0.1-0.2,0.2c0,0.1,0,0.2,0,0.2C108.1,220.2,108.2,220,108,219.7L108,219.7L108,219.7z M101,219.7
			C101,219.7,101,219.7,101,219.7c-0.1,0.3-0.1,0.5,0,0.6h0.1c0.1-0.1,0.1-0.2,0.2-0.2c0-0.2,0-0.3-0.1-0.4H101z M107.6,219.5
			c-0.1,0.1-0.2,0.1-0.2,0.2v0.1c0,0,0,0,0,0c0.2,0,0.3-0.1,0.4-0.1v-0.1C107.7,219.5,107.7,219.5,107.6,219.5L107.6,219.5z
			 M102,219.4c0,0-0.1,0.1-0.1,0.1c0,0.1,0,0.1,0,0.2h0.1c0.1,0,0.1-0.1,0.1-0.1C102.2,219.5,102.2,219.5,102,219.4L102,219.4z
			 M109.5,219.4c-0.1,0.1-0.1,0.2-0.2,0.3c0,0,0,0,0,0.1h0.1c0,0,0.1-0.1,0.1-0.1C109.7,219.5,109.7,219.5,109.5,219.4L109.5,219.4z
			 M109,219.4c0,0.1-0.1,0.1-0.1,0.2c0.1,0.1,0.2,0,0.3-0.1c0,0,0,0,0,0c0-0.1,0-0.1-0.1-0.2H109z M108.2,219.2
			C108.2,219.2,108.2,219.3,108.2,219.2c-0.1,0.1-0.1,0.1-0.1,0.2c0.1,0.1,0.2,0.2,0.4,0.1c0,0,0,0,0.1,0v-0.1c0,0,0-0.1-0.1-0.1
			C108.4,219.2,108.3,219.2,108.2,219.2 M101.3,219.2C101.3,219.2,101.2,219.2,101.3,219.2c-0.1,0.2,0.1,0.6,0.2,0.7
			C101.9,219.8,101.8,219.2,101.3,219.2 M109.9,219.1C109.9,219.2,109.9,219.2,109.9,219.1c0,0.1,0,0.2,0,0.2c0.1,0,0.3,0,0.2-0.1
			c0,0,0-0.1-0.1-0.1H109.9z M100.3,218.8c-0.1,0.1-0.3,0.5-0.1,0.7h0c0.1,0,0.1,0,0.2-0.1C100.5,219.2,100.5,218.9,100.3,218.8
			L100.3,218.8z M105.4,218.7c0.2,0.2,0,0.4,0.1,0.6c0.1,0.4,0.5,0.7,0.3,1.2h-0.1c0-0.2-0.1-0.4-0.1-0.6c0-0.1-0.1-0.1-0.1-0.1
			C105.3,219.6,105.3,219,105.4,218.7C105.4,218.7,105.4,218.7,105.4,218.7 M109.8,218.5c-0.1,0.1-0.2,0.2-0.2,0.4c0,0,0,0.1,0,0.1
			c0,0,0,0,0,0c0,0,0.1,0,0.1-0.1c0.1-0.2,0.2-0.2,0.2-0.4c0,0,0-0.1-0.1-0.1h0H109.8z M101.1,218.5
			C101.1,218.5,101.1,218.5,101.1,218.5l-0.1,0.1c0,0,0,0,0.1,0h0.1c0,0,0,0,0,0C101.2,218.5,101.2,218.5,101.1,218.5L101.1,218.5z
			 M101.6,218.3c-0.1,0.1-0.1,0.1-0.1,0.2c0,0,0,0.1,0,0.1h0.1c0.1-0.1,0.1-0.1,0.1-0.2v-0.1C101.7,218.4,101.7,218.4,101.6,218.3
			L101.6,218.3z M97.3,218.3C97.3,218.3,97.2,218.3,97.3,218.3L97.3,218.3c-0.1,0.2-0.1,0.2-0.1,0.2c0.1,0,0.1,0,0.1,0
			c0,0,0-0.1,0-0.1C97.4,218.3,97.4,218.3,97.3,218.3L97.3,218.3z M99.9,218.1c0,0-0.1,0.1-0.1,0.1c0,0.1,0,0.2,0,0.2
			c0.1,0,0.2-0.1,0.2-0.1v0c0,0,0-0.1,0-0.1C100,218.1,100,218.1,99.9,218.1L99.9,218.1z M99.3,218c-0.1,0.2-0.3,0.4-0.4,0.6
			c0,0.1,0,0.1,0.1,0.2H99c0.2-0.2,0.4-0.4,0.4-0.7c0,0,0-0.1-0.1-0.1H99.3z M109.6,218c0,0.1,0,0.1,0,0.2c0.1,0,0.1,0.1,0.2,0.1
			c0.1,0,0.1,0,0.2,0c0-0.1,0-0.1,0-0.1C109.8,218,109.7,218,109.6,218 M97.6,217.9C97.6,218,97.6,218,97.6,217.9l-0.1,0.1
			c0,0,0.1,0.1,0.1,0.1c0.1,0,0.1,0,0.1,0c0-0.1,0-0.2-0.1-0.2H97.6z M111,219.7c0,0.1,0.2,0.3,0.2,0.4c-0.1,0.1-0.1,0.2-0.1,0.3
			h0.2c0,0.4-0.3,0.6-0.3,1c-0.2,0-0.3-0.1-0.5-0.1c-0.4,0.2-0.3,0.2-0.7,0.1c-0.2,0-0.3,0.1-0.5,0.1c0-0.1,0-0.4,0-0.5
			c-0.1,0-0.1-0.1-0.2-0.1c-0.3,0.1-0.2,0.2-0.6,0.1c-0.2,0.2-0.3,0.4-0.5,0.5c-0.2,0-0.3-0.1-0.4-0.1c0-0.1,0-0.1,0-0.2
			c0.1-0.1,0.1-0.2,0.2-0.2c0-0.1-0.1-0.2-0.1-0.2c-0.1,0-0.3,0-0.4,0c0-0.1,0-0.1-0.1-0.2c0.1-0.1,0.3-0.2,0.3-0.5c0,0,0,0,0-0.1
			c-0.1,0-0.2,0-0.3,0c-0.1-0.1-0.1-0.2-0.1-0.3c0.2-0.3,0.5-0.2,0.8-0.3c0.1-0.1,0.1-0.2,0.2-0.2c0.3-0.1,0.5,0.2,0.8,0.1v-0.1
			c-0.2-0.1-0.3-0.3-0.4-0.5c0-0.1,0.2-0.5,0.3-0.5c0.1-0.1,0.2,0,0.3-0.1c0.1-0.1,0.2-0.3,0.3-0.3c0.4-0.1,0.8,0.1,0.9,0.4v0.3
			c0,0.2,0.2,0.2,0.2,0.4c-0.1,0.1-0.2,0.2-0.2,0.3c0,0.1,0.1,0.2,0.1,0.4c-0.1,0-0.3,0.2-0.2,0.4c0.1,0,0.2-0.1,0.3-0.1
			c0,0,0.1,0,0.1,0c0,0.3-0.3,0.4-0.2,0.7h0.1c0.2-0.2,0.3-0.5,0.5-0.8H111z M101.4,217.5c-0.1,0.1-0.2,0.3-0.2,0.5c0,0,0,0,0.1,0.1
			h0.1c0.1-0.2,0.2-0.2,0.3-0.5C101.5,217.6,101.5,217.6,101.4,217.5C101.4,217.6,101.4,217.6,101.4,217.5 M112.8,217.4
			c-0.1,0.1-0.1,0.2-0.2,0.3c0,0,0,0,0.1,0.1h0.1c0.1-0.1,0.1-0.2,0.2-0.3C112.9,217.5,112.9,217.4,112.8,217.4L112.8,217.4z
			 M100.5,217.4c-0.1,0.1-0.3,0.2-0.5,0.3c0,0.1,0,0.1,0.1,0.2c0.1,0,0.2,0.1,0.2,0.1c0,0.2,0,0.2-0.1,0.4c0,0.1,0,0.1,0,0.2
			c0.1,0,0.2,0,0.3-0.1c0,0.1,0.1,0.1,0.1,0.2h0.1c0,0,0,0,0-0.1c0-0.2-0.1-0.3-0.1-0.5c0-0.1,0.2-0.2,0.1-0.4
			C100.8,217.7,100.6,217.5,100.5,217.4L100.5,217.4z M114.5,217.3c0,0-0.1,0.1-0.1,0.1c0,0.1,0,0.1,0,0.2h0h0.1
			c0-0.1,0.1-0.1,0.1-0.2C114.6,217.4,114.6,217.4,114.5,217.3L114.5,217.3z M97,217.3c-0.1,0.1-0.1,0.2-0.2,0.2
			c0,0.1,0,0.1,0.1,0.1h0c0.1,0,0.3-0.1,0.4-0.1c0,0,0,0,0,0c0-0.1-0.1-0.1-0.1-0.2H97z M115.1,217.2c-0.1,0.1-0.3,0.2-0.2,0.4h0.2
			c0,0,0.1-0.1,0.1-0.1C115.3,217.3,115.3,217.2,115.1,217.2 M97.8,217.2c-0.1,0.1-0.2,0.2-0.2,0.4c0,0,0,0,0.1,0h0.1
			c0.1-0.1,0.2-0.2,0.2-0.4C97.9,217.3,97.9,217.3,97.8,217.2 M94.7,217.2c0,0-0.1,0.1-0.1,0.1c0,0.1,0,0.1,0,0.1c0,0,0.1,0,0.1,0
			c0,0,0.1,0,0.1,0v-0.1C94.8,217.3,94.8,217.2,94.7,217.2L94.7,217.2z M115.8,217.2c-0.1,0.1-0.2,0.3,0,0.3c0,0,0.1-0.1,0.1-0.1
			c0,0,0-0.1,0-0.1C116,217.2,115.9,217.2,115.8,217.2 M98.8,217.1C98.8,217.2,98.8,217.2,98.8,217.1c-0.1,0.2-0.1,0.2,0,0.3h0.1
			c0,0,0-0.1,0.1-0.1C98.9,217.2,98.9,217.2,98.8,217.1 M100.1,217.1C100.1,217.1,100.1,217.1,100.1,217.1l0,0.1c0,0,0,0,0,0
			c0.1,0,0.1,0,0.1-0.1C100.2,217.1,100.2,217.1,100.1,217.1L100.1,217.1z M95.5,217.1c0,0-0.1,0.1-0.1,0.1c0,0,0,0.1,0,0.1
			c0.1,0,0.1,0,0.2,0c0,0,0-0.1,0-0.1C95.6,217.1,95.6,217.1,95.5,217.1 M107.9,217c-0.1,0.2-0.3,0.3-0.3,0.6
			c0.1,0.1,0.1,0.2,0.2,0.2c0.2,0,0.2-0.1,0.3-0.2C108.1,217.4,108,217.1,107.9,217L107.9,217z M95.2,217c-0.1,0.1-0.1,0.1-0.1,0.2
			c0,0,0,0,0,0.1c0.1,0,0.1,0,0.2-0.1C95.3,217,95.2,217,95.2,217L95.2,217z M108.7,216.9C108.7,216.9,108.7,217,108.7,216.9
			c0,0.2,0,0.2,0.1,0.1c0,0,0-0.1,0-0.1C108.8,217,108.8,216.9,108.7,216.9L108.7,216.9z M100.6,216.9c-0.1,0-0.1,0.1-0.2,0.1
			c0,0.2,0,0.2,0.1,0.3h0c0.1,0,0.1,0,0.2-0.1c0-0.1,0.1-0.2,0.1-0.3c0,0,0,0-0.1-0.1H100.6z M113.5,216.8c-0.1,0.1-0.1,0.1-0.2,0.2
			c0,0.1,0,0.1,0.1,0.2c0.1,0,0.2,0,0.2,0c0-0.1,0.1-0.1,0.1-0.2c0-0.1,0-0.1,0-0.2H113.5z M112.5,216.8
			C112.4,216.9,112.4,216.9,112.5,216.8c0,0.1,0,0.2,0,0.2h0c0.1,0,0.1,0,0.2,0c0,0,0,0,0-0.1c0,0,0-0.1,0-0.1
			C112.6,216.8,112.5,216.8,112.5,216.8 M97.5,216.8c0,0-0.1,0.1-0.1,0.1c0,0.1,0,0.2,0.1,0.2h0c0.1,0,0.1,0,0.2-0.1v0
			C97.6,216.9,97.6,216.9,97.5,216.8C97.5,216.8,97.5,216.8,97.5,216.8 M114.5,216.8C114.5,216.8,114.5,216.8,114.5,216.8
			c-0.1,0.1,0,0.2,0,0.2c0.1,0,0.1,0,0.2,0c0-0.1,0-0.1,0-0.2C114.6,216.8,114.5,216.8,114.5,216.8 M110.9,216.8
			c-0.2,0.1-0.3,0.2-0.3,0.4c0.1,0.1,0.2,0.3,0.3,0.4c0.4,0,0.6,0,0.8-0.2c0-0.2-0.2-0.3-0.3-0.5C111.1,216.8,111,216.8,110.9,216.8
			 M99.3,216.8c0,0.1-0.1,0.2-0.1,0.3c0,0,0,0,0,0c0,0,0.1,0,0.1,0c0.1-0.1,0.1-0.2,0.1-0.3c0,0,0,0-0.1,0H99.3z M94.7,216.7
			C94.7,216.7,94.7,216.8,94.7,216.7c0,0.1,0,0.2,0,0.2h0c0.1,0,0.1,0,0.1,0c0,0,0-0.1,0-0.1c0,0,0,0-0.1,0H94.7z M96.1,216.6
			c-0.1,0.2-0.4,0.5-0.2,0.8c0.1,0,0.1,0,0.2-0.1C96.1,217.1,96.3,217,96.1,216.6L96.1,216.6z M96.4,216.6
			C96.4,216.6,96.4,216.7,96.4,216.6c0,0.2,0,0.2,0,0.2h0c0,0,0.1,0,0.1-0.1C96.5,216.7,96.5,216.7,96.4,216.6L96.4,216.6
			L96.4,216.6z M103.8,216.6c-0.1,0.2-0.1,0.3-0.1,0.5c0,0,0.1,0,0.1,0.1h0.1C103.9,217.1,104,216.8,103.8,216.6L103.8,216.6
			L103.8,216.6z M106.5,216.5c0.1,0.1-0.2,1-0.1,1.2c-0.1,0.1-0.2,0.4-0.3,0.6c0,0.1,0.1,0.3-0.1,0.4c0,0,0,0-0.1,0H106
			c0-0.2,0.1-0.7,0.2-0.9c0-0.3,0-0.6,0-0.9c0-0.1,0.1-0.3,0.1-0.4C106.4,216.6,106.5,216.5,106.5,216.5 M97.9,216.5
			c-0.1,0.1-0.2,0.1-0.3,0.1c0,0.3,0.3,0.4,0.5,0.5c0,0.2,0.1,0.3,0.2,0.5c0.1,0,0.1,0,0.2,0c0-0.2,0.2-0.3,0.1-0.5
			c-0.3-0.1-0.3-0.3-0.5-0.6C98,216.5,98,216.5,97.9,216.5 M102.1,216.5c-0.1,0.1-0.5,0.3-0.3,0.6c0.2,0,0.4,0,0.5-0.1
			c0-0.1,0.1-0.3,0-0.4C102.2,216.5,102.1,216.5,102.1,216.5 M109.4,216.4C109.4,216.4,109.4,216.4,109.4,216.4
			c-0.1,0.3-0.2,0.6,0.1,0.6c0,0,0,0,0,0C109.6,216.7,109.6,216.5,109.4,216.4C109.5,216.4,109.5,216.4,109.4,216.4 M113,216.3
			C113,216.3,113,216.3,113,216.3c0,0.2,0.1,0.4,0.2,0.5h0c0,0,0.1-0.1,0.1-0.1c0-0.2-0.1-0.2-0.2-0.3H113z M104.6,216.3
			c-0.1,0.2-0.3,0.3-0.3,0.5c0,0,0.1,0.1,0.1,0.1c0.2,0,0.4,0,0.5-0.2C104.9,216.5,104.8,216.3,104.6,216.3 M115.8,216.3
			c-0.1,0.1-0.5,0.6-0.3,0.7c0.1,0,0,0,0.1,0c0.2-0.1,0.3-0.5,0.3-0.6C115.9,216.3,115.8,216.3,115.8,216.3L115.8,216.3z
			 M113.5,216.1C113.5,216.2,113.4,216.2,113.5,216.1c-0.1,0.2,0,0.4,0,0.5c0.4,0.1,0.5-0.1,0.8,0.2c0,0,0.1,0,0.1,0
			c0-0.2,0.3-0.3,0.1-0.5c0,0,0,0,0,0c-0.2,0-0.4,0.1-0.6,0.1C113.9,216.2,113.6,216.1,113.5,216.1 M97.7,216.1
			C97.6,216.1,97.6,216.1,97.7,216.1c-0.1,0.2,0,0.2,0,0.2h0c0.1,0,0.3,0,0.3,0c0-0.1,0-0.1,0-0.2H97.7z M106.2,216
			c-0.1,0.3-0.1,0.4-0.3,0.6c-0.1,0-0.6-0.1-0.6-0.1c-0.2,0.1-0.1,0.4-0.3,0.5c-0.1,0.1-0.3,0.1-0.4,0.2c-0.2,0-0.3-0.1-0.4,0
			c-0.1,0.1-0.4,0.5-0.7,0.3c-0.1-0.1-0.2-0.3-0.3-0.5c-0.3-0.1-0.3-0.2-0.6-0.2c0,0,0,0,0,0c0,0.1,0,0.3-0.1,0.3
			c-0.1,0.2-0.5,0.1-0.6,0.3c0,0.1,0,0.3,0.1,0.4c0.3,0,0.5,0.2,0.7,0.1c0-0.1,0.1-0.1,0.1-0.2c0,0,0.1,0,0.1,0
			c0.2,0.3,0.4,0,0.7,0.2c0.1,0,0.1,0.1,0.2,0.1c0.1,0.1,0.1,0.2,0.2,0.3c0.1,0.1,0.2,0.1,0.2,0.2c0.1,0.2,0.2,0.4,0.3,0.6
			c-0.1,0.4,0.1,0.7,0.2,0.9c0,0-0.1,0.7,0,0.8c0,0.1,0.1,0.3,0.1,0.4c0.1,0.2-0.1,1.1,0,1.2c0.1,0,0.3,0.1,0.4,0.1
			c0.1,0,0.2-0.2,0.4-0.1c0,0,0.2,0,0.3,0c0-0.4,0-0.8,0-1.2v-0.7c0.1-0.2,0.2-0.5,0.3-0.7c0-0.1,0-0.3,0-0.4
			c0.1-0.2,0.2-0.4,0.3-0.6c0-0.1,0-0.3,0.1-0.4c0.1-0.2,0.3-0.3,0.4-0.5c0.1-0.2-0.1-0.4,0-0.6c0.1-0.1,0.4-0.3,0.3-0.5h0
			c-0.1,0-0.3,0.1-0.4,0.1c0,0-0.1,0-0.1-0.1c0-0.2,0.1-0.3,0-0.5c-0.2,0-0.3,0-0.4,0.1c0-0.2-0.2-0.2-0.3-0.4H106.2z M98.4,216
			c0,0,0,0.1-0.1,0.1c0,0.1,0,0.2,0,0.3c0,0,0,0.1,0.1,0.1h0.1c0.1-0.1,0.2-0.2,0.2-0.3c-0.1-0.1-0.1-0.1-0.2-0.2H98.4z
			 M100.2,215.9C100.2,216,100.2,216,100.2,215.9c-0.1,0.2-0.1,0.7,0,0.7c0.2,0,0.4-0.1,0.5-0.1C100.7,216.3,100.5,216,100.2,215.9
			 M100.9,215.9C100.9,215.9,100.9,216,100.9,215.9l-0.1,0.1c0.1,0.2,0.4,0.4,0.5,0.5h0.1c0,0,0,0,0-0.1
			C101.5,216.2,101.2,215.9,100.9,215.9 M95.5,215.9c-0.1,0.1-0.2,0.1-0.2,0.2v0.1c0,0,0,0,0,0c0.1,0,0.2,0,0.2,0c0,0,0,0.1,0.1,0.1
			c-0.1,0.1-0.1,0.1-0.1,0.3c0,0,0.1,0.1,0.1,0.1c0,0,0.1,0,0.1,0c0-0.2,0.1-0.3,0.2-0.4C95.8,216.2,95.6,215.9,95.5,215.9
			C95.5,215.9,95.5,215.9,95.5,215.9 M105.6,215.9c-0.1,0.1-0.2,0.2-0.2,0.3c0,0.1,0.1,0.1,0.3,0.1c0.1-0.1,0.1-0.2,0.1-0.4
			C105.8,215.9,105.8,215.9,105.6,215.9L105.6,215.9z M112.4,215.8c0,0,0,0.1,0,0.1c0,0,0,0,0,0.1c0.1,0,0.1,0,0.1,0
			c0,0,0-0.1,0-0.1C112.4,215.8,112.4,215.8,112.4,215.8 M99.7,215.8c-0.2,0.2-0.4,0.2-0.5,0.5c0,0.1,0,0.1,0,0.1h0.2
			c0.1-0.2,0.4-0.3,0.4-0.5C99.8,215.9,99.7,215.9,99.7,215.8L99.7,215.8z M94.8,215.8c0,0-0.1,0.1-0.1,0.1c0,0.1,0,0.2,0.1,0.2h0
			c0.1,0,0.2-0.1,0.2-0.2C95,215.9,95,215.8,94.8,215.8 M95.9,215.7C95.9,215.7,95.9,215.7,95.9,215.7l0,0.2c0,0.1,0,0.1,0,0.2
			c0.1,0,0.2,0.1,0.3,0c0-0.1,0-0.1,0-0.2C96.2,215.9,96.1,215.8,95.9,215.7L95.9,215.7z M114.3,215.6c-0.1,0.1-0.2,0.3-0.1,0.4h0
			C114.3,216,114.4,215.8,114.3,215.6C114.3,215.6,114.3,215.6,114.3,215.6 M97.5,215.5c-0.1,0.1-0.2,0.3-0.1,0.4c0.1,0,0.2,0,0.3,0
			C97.7,215.7,97.6,215.6,97.5,215.5L97.5,215.5L97.5,215.5z M96.5,215.5c0,0.1-0.1,0.1-0.1,0.2c0,0,0,0.1,0,0.1c0,0,0,0,0,0.1
			c0,0,0.1,0,0.1,0c0.1,0,0.1-0.1,0.1-0.1c0-0.1,0-0.1-0.1-0.2H96.5z M94.2,215.4C94.1,215.5,94.1,215.5,94.2,215.4
			c-0.1,0.3,0.2,0.5,0.3,0.3c0-0.1-0.1-0.2-0.1-0.3c0,0,0,0,0,0H94.2z M106.2,215.4c-0.1,0-0.1,0.1-0.2,0.1v0c0,0.1,0.1,0.2,0.1,0.2
			c0.1,0,0.1,0,0.1,0c0,0,0.1,0,0.1-0.1c0-0.1,0-0.2,0-0.3C106.3,215.4,106.2,215.4,106.2,215.4 M110.1,215.2c0,0-0.1,0-0.1,0.1
			c0,0.2,0.1,0.5,0.1,0.6c0.2,0.1,0.2,0.1,0.3,0v0C110.5,215.6,110.3,215.3,110.1,215.2 M115,215.2L115,215.2
			C115,215.2,115,215.2,115,215.2c0,0.1-0.1,0.2-0.1,0.2c-0.1,0-0.1,0-0.2,0c0,0,0-0.1,0-0.1h0C114.8,215.3,114.9,215.3,115,215.2
			 M107.1,215.1c-0.2,0.2-0.5,0.4-0.5,0.8c0.1,0.1,0.1,0.1,0.2,0.1c0.1-0.1,0.1-0.3,0.1-0.4c0.1,0,0.2-0.1,0.3-0.1v0
			C107.3,215.3,107.3,215.2,107.1,215.1L107.1,215.1z M100.6,215.1c-0.1,0.1-0.6,0-0.5,0.2v0c-0.1,0.1,0.1,0.2,0.2,0.3
			c0.2,0,0.5-0.2,0.5-0.4c0,0,0-0.1,0-0.1C100.7,215.1,100.7,215.1,100.6,215.1 M113.2,215.1C113.2,215.1,113.2,215.1,113.2,215.1
			c-0.1,0.1-0.2,0.1-0.2,0.1c0,0.2,0,0.2,0.1,0.3c0.1,0,0.4,0.2,0.5,0.1c0.1,0,0.1,0,0.1-0.1v-0.1
			C113.7,215.1,113.5,215,113.2,215.1 M108.8,215.1c-0.2,0.1-0.4,0.3-0.5,0.4c0,0.1,0,0.2,0,0.3c0.1,0,0.1,0,0.1,0
			c0.2,0,0.4-0.3,0.5-0.4c0-0.1,0-0.2,0-0.2C109,215.1,108.9,215.1,108.8,215.1 M93.5,215c0,0.1,0,0.3,0,0.3h0c0,0,0.1,0,0.1-0.1
			c0-0.1,0-0.1,0-0.2C93.6,215,93.6,215,93.5,215 M111,215c-0.1,0.1-0.2,0.2-0.2,0.5c0.1,0,0.1,0.1,0.1,0.1c0.1,0,0.1,0,0.2-0.1
			C111.2,215.3,111.2,215.1,111,215L111,215z M101.6,214.9c-0.2,0.1-0.2,0.1-0.3,0.3c0,0.1,0.1,0.1,0.1,0.2c0.2,0,0.3,0,0.4-0.1
			C101.8,215.1,101.8,215,101.6,214.9C101.7,214.9,101.6,214.9,101.6,214.9 M106.2,214.8c-0.1,0.1-0.2,0.2-0.1,0.3c0,0,0,0,0.1,0
			c0.1,0,0.1-0.1,0.2-0.1C106.3,215,106.3,214.9,106.2,214.8L106.2,214.8z M108.3,214.8c-0.1,0-0.1,0.1-0.2,0.2
			c-0.2,0.1-0.4-0.1-0.6,0c0,0.3,0.1,0.3,0.1,0.5c0,0.1,0,0.3,0,0.4c0,0,0,0,0,0.1c0.1,0,0.3,0,0.4,0c0-0.2-0.1-0.4-0.1-0.5
			c0.1-0.2,0.3-0.4,0.4-0.5C108.5,214.8,108.4,214.8,108.3,214.8L108.3,214.8z M114.5,214.7C114.5,214.8,114.5,214.8,114.5,214.7
			c0,0.1,0,0.1,0,0.2h0c0,0,0.1,0,0.1,0C114.6,214.8,114.6,214.8,114.5,214.7L114.5,214.7z M106.7,214.7
			C106.7,214.7,106.6,214.7,106.7,214.7c-0.1,0.3-0.3,0.4-0.2,0.6c0.1,0,0.1,0,0.1,0c0.1-0.2,0.4-0.4,0.3-0.6
			C106.8,214.7,106.7,214.7,106.7,214.7 M104.8,214.7c-0.1,0.1-0.2,0.9-0.2,1.1c0,0,0,0,0,0.1h0.2c0,0,0.1-0.1,0.1-0.1
			c0-0.3,0.1-0.8,0-1C104.9,214.7,104.8,214.7,104.8,214.7 M95.2,214.7C95.2,214.7,95.2,214.7,95.2,214.7c0,0.3,0,0.3,0,0.5
			c-0.1,0-0.1,0-0.2,0c0,0-0.1,0.1-0.1,0.1v0.1c0,0,0.1,0,0.1,0.1h0.2c0-0.1,0.1-0.1,0.1-0.2c0.1,0,0.3,0,0.4,0
			c0.2,0.1,0.3,0.2,0.5,0.2c0.1-0.1,0.4-0.3,0.3-0.4c-0.1,0-0.6,0-0.7,0C95.5,215,95.4,214.7,95.2,214.7 M98.1,214.7
			c0,0.1-0.1,0.1-0.1,0.2c0.1,0,0.1,0.1,0.2,0.1c0,0,0,0,0,0c0-0.1,0-0.2,0-0.3C98.2,214.7,98.1,214.7,98.1,214.7 M105.5,214.6
			c-0.1,0.1-0.2,0.2-0.1,0.3c0,0.1,0,0.1,0,0.2h0.1c0.1-0.1,0.1-0.1,0.2-0.2C105.7,214.8,105.6,214.7,105.5,214.6L105.5,214.6z
			 M97.4,214.6c-0.1,0.1-0.2,0.2-0.3,0.3c0,0.2,0.1,0.3,0.2,0.4h0.1C97.5,215.1,97.6,214.9,97.4,214.6
			C97.4,214.6,97.4,214.6,97.4,214.6 M112.3,214.6c-0.1,0.1-0.2,0.3-0.1,0.4h0c0.1,0,0.1,0,0.2-0.1c0,0,0,0,0,0c0-0.1,0-0.2,0-0.2
			C112.4,214.6,112.4,214.6,112.3,214.6L112.3,214.6z M102.2,214.5c-0.2,0.2-0.1,0.5,0.1,0.7h0c0.1,0,0.1-0.1,0.2-0.1
			c0-0.3,0-0.4-0.1-0.6C102.3,214.5,102.3,214.5,102.2,214.5 M115.1,215.5c0,0.3-0.2,0.4-0.3,0.6c0,0,0,0,0,0c0.2,0,0.2-0.1,0.4-0.1
			c0,0,0,0,0,0c0,0.2-0.2,0.6-0.3,0.7c-0.1,0-0.2,0-0.2,0.1c0,0.1,0,0.2,0.1,0.2h0c0.1,0,0.1,0,0.2,0c0-0.1,0.7-1.1,0.7-1.2h0
			c0.1,0.1,0.2,0.2,0.3,0.3c0,0.2-0.2,0.3-0.1,0.4h0.1c0,0.4,0,0.7-0.2,1c-0.3,0.1-0.2-0.1-0.5-0.1c-0.1,0.1-0.4,0.4-0.7,0.3
			c-0.1,0-0.1-0.1-0.2-0.1c-0.2,0-0.3,0.2-0.5,0c0-0.3,0-0.3-0.1-0.6c-0.1,0-0.1,0-0.2,0c-0.1,0.1-0.1,0.1-0.2,0.2
			c-0.2,0.1-0.3-0.1-0.4,0c-0.1,0.1,0,0.1-0.1,0.2c-0.2,0.3-0.6,0.4-0.9,0.1v-0.1c0.1-0.1,0.5-0.6,0-0.6c-0.4,0.3-0.6,0.7-1.3,0.6
			c-0.1,0-0.4,0-0.4-0.1c-0.4-0.4-0.3-1,0.3-1.2c0.3-0.1,0.5,0.1,0.7,0.1c0,0.1,0.2,0.3,0.2,0.3c0,0,0.1,0,0.1,0
			c0.2-0.1,0.2-0.4,0.5-0.4c0,0,0.1,0.1,0.1,0.1c0.1,0,0.2,0,0.2,0c0,0,0.1,0,0.1-0.1c0-0.1,0-0.2-0.1-0.2c-0.1-0.1-0.4-0.1-0.6-0.1
			c-0.1,0.1-0.1,0.2-0.1,0.4c-0.2,0-0.3-0.1-0.4-0.2c0-0.2,0-0.5,0.1-0.6c0.3,0,0.3-0.2,0.7-0.2c0.1,0,0.1,0,0.2,0
			c0,0.1,0.2,0.2,0.2,0.3c0.1,0.1,0,0.2,0.1,0.3h0c0.2,0,0.6-0.3,0.5-0.5c-0.1,0-0.3,0-0.4-0.1c-0.1-0.2-0.1-0.3-0.2-0.5
			c0.2-0.2,0.3-0.3,0.6-0.4c0.1,0,0.2,0.1,0.3,0c0.1-0.1,0.1-0.2,0.2-0.2c0.2-0.2,0.6-0.1,0.8,0c0,0.1,0.1,0.4,0,0.4
			c-0.1,0-0.1,0.1-0.2,0.1c-0.2-0.1-0.3-0.1-0.5,0c0,0.1,0,0.1,0,0.1c0.1,0.1,0.4,0.4,0.5,0.4C114.7,215.7,114.9,215.5,115.1,215.5
			 M109.2,214.4c-0.1,0.1-0.1,0.1-0.1,0.2c0.1,0.2,0.2,0.4,0.3,0.6c0.1,0.5-0.5,0.8-0.8,0.9c-0.1,0.1-0.2,0-0.4,0.1v0
			c0,0.1,0,0.2,0.1,0.2c0.2,0.1,0.4,0.1,0.6,0.2c0,0,0.1,0,0.1,0c0.1-0.2,0.1-0.5,0.2-0.7C109.7,215.8,110.2,214.5,109.2,214.4
			 M108,214.4c0,0,0,0.1-0.1,0.1c0,0.1,0,0.2,0,0.2h0h0.1c0,0,0.1-0.1,0.1-0.1c0,0,0-0.1,0-0.1c0,0,0-0.1,0-0.1
			C108,214.4,108,214.4,108,214.4 M95.8,214.3C95.7,214.4,95.7,214.4,95.8,214.3c-0.1,0.1-0.1,0.2-0.1,0.3c0,0,0,0.1,0.1,0.1
			c0.1,0,0.1,0,0.2-0.1v0C95.9,214.5,95.9,214.4,95.8,214.3L95.8,214.3z M115.5,214.3c-0.1,0-0.1,0.1-0.2,0.1c0,0.1-0.1,0.2,0,0.4
			c0.1,0,0.3,0.2,0.4,0.1c0.3-0.1-0.1-0.5-0.2-0.5H115.5z M105.6,214.2c-0.1,0-0.1,0-0.2,0.1c0,0.1,0,0.1,0.1,0.2
			c0.1,0,0.1,0,0.2-0.1C105.8,214.3,105.8,214.3,105.6,214.2L105.6,214.2z M94.4,214.2c0,0-0.1,0.1-0.1,0.1c0,0.1,0.1,1,0.2,1.1
			c0.1,0,0.3,0,0.3-0.1c-0.1-0.1-0.1-0.2-0.2-0.3c0.1-0.2,0.1-0.6,0-0.7H94.4z M94,214.2C94,214.2,94,214.3,94,214.2
			c-0.1,0.3-0.1,0.6,0,0.7c0.1,0,0.1,0.1,0.2,0.1c0,0,0,0,0.1-0.1C94.3,214.6,94.2,214.4,94,214.2L94,214.2L94,214.2z M97.1,214.2
			c-0.1,0.1-0.2,0.2-0.2,0.4c0,0,0,0,0,0.1c0.1,0,0.1,0,0.1,0c0-0.1,0.1-0.2,0.1-0.3C97.3,214.2,97.2,214.2,97.1,214.2L97.1,214.2z
			 M108.7,214.2c-0.1,0.1-0.1,0.1-0.2,0.2c0,0.1,0,0.2,0,0.2c0.1,0,0.3,0,0.4-0.1c0-0.1,0-0.1,0-0.2c0-0.1-0.1-0.1-0.1-0.2H108.7z
			 M109.9,214.1c0,0-0.1,0.1-0.1,0.1c0,0.1,0,0.1,0,0.2c0.3,0.2,0.4,0.5,0.7,0.7c0.2,0,0.3-0.1,0.3-0.3c0-0.1,0-0.1,0-0.1
			c-0.1,0-0.2,0-0.3,0c0-0.1,0-0.3,0-0.4C110.1,214.3,110.2,214.2,109.9,214.1 M94.8,214.1C94.8,214.1,94.8,214.1,94.8,214.1
			c-0.1,0.2-0.1,0.2,0,0.3c0.1,0.1,0.1,0.1,0.2,0.2c0,0,0.1,0,0.1-0.1c0-0.2-0.1-0.3-0.1-0.4C94.9,214.1,94.9,214.1,94.8,214.1
			 M115.5,214.1c0.3,0.1,0.4,0.2,0.5,0.5c0,0.1,0.1,0.1,0.1,0.3c-0.3,0.1-0.4,0.1-0.8,0.1c0-0.1-0.2-0.3-0.3-0.3
			c0-0.1,0-0.3,0.1-0.4C115.3,214.2,115.4,214.1,115.5,214.1 M106.7,214.1c-0.1,0.1-0.2,0.1-0.2,0.3c0,0,0,0,0,0
			c0.1,0,0.2,0.1,0.3,0c0,0,0.1,0,0.1-0.1c0-0.1,0-0.2,0-0.3C106.8,214.1,106.8,214.1,106.7,214.1 M99.6,214.1
			C99.6,214.1,99.6,214.1,99.6,214.1c-0.1,0.4-0.3,0.4-0.5,0.6c0,0.3,0.1,0.5,0,0.8c-0.2,0.1-0.3,0.2-0.5,0.3c0,0,0,0.1,0,0.1
			c0,0,0,0,0,0c0.1,0,0.2,0,0.2,0c0.2-0.2,0.6-0.3,0.7-0.5c0.1-0.1,0-0.4,0.1-0.5c0.1-0.1,0.8-0.3,0.9-0.2c0.1,0,0.1,0.1,0.2,0.1
			c0.1,0,0.1,0,0.1-0.1c0-0.1,0-0.1-0.1-0.1c-0.2-0.1-0.7-0.1-0.8-0.2C100,214.3,100,214.1,99.6,214.1 M112.2,214
			c-0.1,0.1-0.2,0.2-0.4,0.2c-0.2,0.1-0.6-0.1-0.3,0.3c0.1,0,0.3,0.1,0.5,0.1c0.1-0.1,0.3-0.4,0.4-0.5
			C112.3,214.1,112.3,214.1,112.2,214L112.2,214z M97.6,214C97.6,214.1,97.6,214.1,97.6,214c0,0.2,0.1,0.5,0.1,0.6c0,0,0,0,0,0
			c0,0,0.1,0,0.1,0c0.1-0.1,0.1-0.2,0.2-0.3C97.9,214.2,97.8,214.1,97.6,214L97.6,214z M99,214c-0.1,0.1-0.2,0.3-0.1,0.4
			c0,0,0,0.1,0,0.1H99c0.1-0.1,0.1-0.1,0.2-0.2v-0.2C99.2,214,99.2,214,99,214C99.1,214,99.1,214,99,214 M98.2,213.9
			c0,0-0.1,0-0.1,0.1v0v0.1c0.1,0.1,0.4,0.2,0.5,0.1c0,0,0-0.1-0.1-0.1C98.4,214,98.4,213.9,98.2,213.9 M109.5,213.9
			c-0.1,0.2-0.1,0.2,0,0.4c0.1,0,0.1,0,0.1,0c0-0.1,0-0.2,0-0.2c0,0,0-0.1,0-0.1H109.5z M112.9,213.8c-0.1,0.1-0.1,0.3-0.1,0.5
			c0.1,0,0.1,0,0.2,0c0,0,0,0,0.1,0c0-0.1,0-0.2,0-0.4C113,213.9,113,213.9,112.9,213.8L112.9,213.8z M100.3,213.8
			C100.3,213.9,100.3,213.9,100.3,213.8c-0.1,0.2-0.1,0.2,0,0.2h0c0.1,0,0.1,0,0.1,0C100.5,213.9,100.5,213.8,100.3,213.8
			 M114.8,213.8c0,0.1-0.1,0.1-0.1,0.1c0,0.1,0,0.1,0.1,0.1h0h0.1c0.1-0.1,0.1-0.1,0.1-0.2C114.9,213.8,114.9,213.8,114.8,213.8
			L114.8,213.8z M107.8,213.7C107.7,213.8,107.7,213.8,107.8,213.7c0,0.2,0,0.2,0.1,0.3c0,0,0.1,0,0.1,0c0,0,0-0.1,0.1-0.1
			c0-0.1,0-0.1,0-0.2C107.9,213.8,107.8,213.8,107.8,213.7 M113.7,213.7c-0.1,0.1-0.2,0.2-0.3,0.3c0,0.1,0,0.1,0,0.2
			c0.3,0,0.3-0.2,0.4-0.4C113.8,213.8,113.8,213.7,113.7,213.7L113.7,213.7z M111.9,213.6c-0.1,0.1-0.2,0.2-0.3,0.3
			c0,0.1,0,0.1,0.1,0.2c0.1,0,0.2,0,0.2,0c0.1-0.1,0.2-0.1,0.2-0.2v-0.2c0,0,0,0,0-0.1H111.9z M106,213.6c0,0.1,0,0.1,0,0.2
			c0.1,0.1,0.1,0.2,0.2,0.2c0.1,0,0.1,0,0.2,0v-0.1c-0.1-0.1-0.2-0.2-0.3-0.3H106z M110.7,213.5c-0.1,0.1-0.5,0.3-0.4,0.5
			c0,0,0,0,0,0.1c0,0,0.1,0,0.1,0c0.1-0.1,0.1-0.2,0.1-0.2c0.1-0.1,0.2,0,0.2-0.1C110.8,213.6,110.8,213.6,110.7,213.5L110.7,213.5z
			 M105.5,213.5C105.5,213.5,105.4,213.5,105.5,213.5c-0.1,0.3-0.2,0.4-0.1,0.5h0c0.2,0,0.3,0,0.4-0.1
			C105.7,213.8,105.6,213.6,105.5,213.5L105.5,213.5z M94.6,213.4c-0.2,0.1-0.4,0.2-0.3,0.5c0,0,0.1,0.1,0.1,0.1c0.1,0,0.2,0,0.3,0
			c0.1-0.1,0.3-0.3,0.2-0.5C94.7,213.5,94.7,213.5,94.6,213.4 M97.7,213.4c-0.1,0.1-0.2,0.1-0.3,0.1c0,0.1,0,0.1,0,0.1
			c0.1,0.1,0.2,0.1,0.3,0.1c0.1-0.1,0.2-0.1,0.2-0.2C97.8,213.5,97.8,213.5,97.7,213.4L97.7,213.4z M102.6,213.4
			c-0.1,0.1-0.1,0.1-0.2,0.2c0,0.1,0,0.2,0,0.2c0.1,0,0.1,0,0.2,0c0-0.1,0.1-0.2,0-0.3C102.7,213.4,102.7,213.4,102.6,213.4
			L102.6,213.4z M114.8,213.3c-0.2,0.1-0.5,0-0.6,0.1v0v0.1c0.1,0.1,0.2,0.2,0.4,0.2c0.1-0.1,0.3-0.2,0.3-0.4
			C115,213.3,115,213.3,114.8,213.3C114.9,213.3,114.9,213.3,114.8,213.3 M99.9,213.2c-0.1,0-0.1,0.1-0.2,0.1v0.1c0,0,0,0,0.1,0.1
			c0.2,0,0.3,0,0.3-0.2C100.1,213.2,100,213.2,99.9,213.2L99.9,213.2z M100.8,213.2c-0.1,0.1-0.1,0.2-0.1,0.4c0,0,0.1,0,0.1,0.1
			c0.1,0,0.1-0.1,0.2-0.1c0-0.1,0-0.2,0.1-0.2c-0.1,0-0.1-0.1-0.1-0.1H100.8z M109.5,213c-0.1,0.1-0.1,0.2-0.1,0.3h0.1
			c0.1,0,0.1-0.1,0.1-0.1C109.6,213.1,109.6,213.1,109.5,213L109.5,213z M98.3,213c0,0-0.1,0.1-0.1,0.1c0,0.1,0,0.1,0,0.2h0.1
			c0.1,0,0.1-0.1,0.2-0.1C98.4,213.1,98.4,213,98.3,213L98.3,213z M95.3,213c0,0.1,0,0.2,0,0.2h0.1c0,0,0,0,0.1-0.1c0,0,0-0.1,0-0.1
			C95.4,213,95.4,213,95.3,213 M109,213c-0.1,0.1-0.3,0.6-0.2,0.8c0.1,0.1,0.2,0.1,0.3,0C109.1,213.5,109.2,213.2,109,213L109,213z
			 M96.4,212.9C96.4,213,96.4,213,96.4,212.9c-0.1,0.2,0,0.3,0,0.4c0.1,0,0.1,0,0.1,0c0.1,0,0.1,0,0.1-0.1v-0.1
			C96.6,213,96.6,213,96.4,212.9 M105.5,212.9C105.5,212.9,105.4,212.9,105.5,212.9c-0.1,0.2-0.1,0.3,0,0.3c0.1,0,0.1,0,0.2,0
			c0.1-0.1,0.2-0.1,0.3-0.2c0,0,0-0.1,0-0.1C105.8,212.9,105.6,212.9,105.5,212.9 M103.3,212.8c-0.1,0.1-0.1,0.3-0.1,0.5
			c0,0,0.1,0.1,0.1,0.1c0.1,0,0.2,0,0.2,0C103.6,213.2,103.5,212.9,103.3,212.8 M106.5,212.8c0,0-0.1,0.1-0.1,0.1
			c0,0.1,0.1,0.2,0.1,0.2c0.1,0,0.1,0,0.2-0.1v0v-0.1c0,0,0-0.1-0.1-0.1H106.5z M114.9,212.8c-0.1,0.1-0.3,0.1-0.4,0.2
			c0,0,0,0.1,0,0.1c0,0,0.1,0.1,0.1,0.1c0.2,0,0.5-0.1,0.5-0.3C115.1,212.8,115.1,212.8,114.9,212.8L114.9,212.8z M99.5,212.7
			c-0.1,0.1-0.3,0.2-0.4,0.3c0,0.1-0.1,0.1-0.1,0.2c-0.2,0.2-0.5,0.1-0.7,0.3c0,0.1,0,0.1,0.1,0.2c0.1,0,0.3,0.1,0.4,0.1
			c0.2-0.1,0.3-0.3,0.5-0.4c0.1-0.1,0.2,0,0.3-0.1c0,0,0,0,0,0c0,0,0,0,0-0.1C99.7,213.2,99.6,212.8,99.5,212.7L99.5,212.7z
			 M102.9,212.7c0,0.1-0.1,0.1-0.1,0.2c0,0.1,0,0.1,0,0.2h0c0.1,0,0.1,0,0.2,0C103,212.9,103,212.8,102.9,212.7L102.9,212.7z
			 M109.8,212.7c0,0-0.1,0-0.1,0.1c0,0.1,0,0.1,0,0.2h0.1c0,0,0.1-0.1,0.1-0.1C110,212.7,109.9,212.7,109.8,212.7L109.8,212.7z
			 M107,212.6C107,212.6,107,212.7,107,212.6c-0.1,0.2-0.1,0.5,0.1,0.5c0,0,0.1,0,0.1-0.1c0-0.1,0-0.2,0-0.3
			C107.2,212.7,107.2,212.7,107,212.6L107,212.6z M101.5,212.6c0,0-0.1,0-0.1,0.1c0,0,0,0,0,0c0,0.1,0,0.2,0.1,0.2
			c0.1,0,0.1,0,0.2,0c0-0.1,0-0.2,0-0.3C101.6,212.6,101.6,212.6,101.5,212.6L101.5,212.6z M101.9,212.6c-0.1,0.2,0,0.4-0.1,0.5
			c-0.1,0-0.2,0.1-0.2,0.1c-0.1,0.3,0.3,0.6,0.2,1c0,0-0.1,0-0.1,0.1c0,0-0.1,0-0.1-0.1c0-0.2-0.1-0.5-0.3-0.3
			c0,0.2-0.1,0.2-0.1,0.4c0.1,0.1,0.1,0.2,0.2,0.2c0.1,0,0.3-0.1,0.4-0.1c0.1-0.2,0.2-0.3,0.3-0.5c0-0.3-0.1-0.4,0.1-0.6
			c0.1-0.2,0.3-0.2,0.4-0.4c0-0.1,0-0.3-0.1-0.4c-0.1,0-0.2,0.1-0.3,0.1C102.1,212.7,102,212.6,101.9,212.6 M98.6,212.6
			c-0.1,0.1,0.1,0.3,0.1,0.5c0.1,0,0.1,0,0.2,0c0,0,0-0.1,0-0.1C98.9,212.7,98.8,212.7,98.6,212.6L98.6,212.6z M97.1,212.6
			c0,0,0,0,0,0.1c0,0,0,0,0,0.1c0.1,0,0.1,0,0.2,0v0C97.3,212.6,97.3,212.6,97.1,212.6 M112.2,212.6c0,0-0.1,0-0.1,0
			c-0.1,0.1-0.1,0.1-0.2,0.2c0,0.1,0,0.1,0,0.2c0.2,0,0.3-0.1,0.4-0.2C112.3,212.6,112.3,212.6,112.2,212.6L112.2,212.6z
			 M111.5,212.6c0,0.1-0.1,0.1-0.1,0.1c0,0.1,0,0.1,0,0.1h0.1c0,0,0.1-0.1,0.1-0.1v-0.1C111.7,212.6,111.6,212.6,111.5,212.6
			L111.5,212.6z M106,212.6C106,212.6,106,212.6,106,212.6c0,0.1,0,0.1,0,0.2c0,0,0,0,0,0c0.1,0,0.1,0,0.1-0.1v0v-0.1
			C106.1,212.6,106.1,212.6,106,212.6 M112.9,212.5C112.8,212.5,112.8,212.6,112.9,212.5c-0.1,0.2-0.1,0.2,0,0.3h0c0,0,0,0,0.1,0
			c0.1,0,0.1-0.1,0.1-0.1c0,0,0-0.1,0-0.1C112.9,212.5,112.9,212.5,112.9,212.5 M95.3,212.5C95.3,212.5,95.2,212.5,95.3,212.5
			c-0.1,0.1-0.1,0.1-0.1,0.1c0.1,0.1,0.2,0.2,0.3,0.3c0.2,0,0.3-0.1,0.4-0.2c0-0.1,0-0.1,0-0.1H95.3z M114,212.4
			c-0.2,0.1-0.3,0.2-0.5,0.3c0,0.1,0,0.2,0.1,0.2c0.1-0.1,0.3-0.2,0.4-0.3C114.1,212.5,114,212.5,114,212.4L114,212.4z M110.9,212.4
			c-0.2,0.3-0.4,0.1-0.6,0.2c-0.2,0.2-0.4,0.4-0.5,0.6c0,0.2,0.1,0.5,0.2,0.6h0.1c0.1-0.1,0.1-0.2,0.1-0.2c0.1,0,0.1-0.1,0.2-0.1
			c0.2-0.1,0.4-0.5,0.6-0.6h0.1c0,0.2,0,0.4,0,0.6c0,0.1,0.1,0.2,0.1,0.3c0,0.1-0.1,0.2-0.1,0.3c0,0,0,0,0,0.1c0.1,0,0.2,0,0.3,0
			c0-0.5,0.3-0.7,0.6-0.8c0.1,0,0.1,0,0.2,0c0,0.1,0.1,0.2,0.1,0.3c0,0.1,0,0.3,0,0.4c0,0,0.1,0,0.1,0c0.2-0.1,0.2-0.5,0.2-0.7
			c0,0,0,0,0.1-0.1h0.1c0,0.1,0.4,0.5,0.5,0.6c0.2,0,0.5-0.2,0.3-0.3c-0.1,0-0.1,0-0.2-0.1c0.1-0.1,0.2-0.2,0.1-0.4
			c-0.1,0-0.1,0-0.1,0c-0.1-0.1-0.1-0.2-0.1-0.2c-0.1,0.1-0.2,0.2-0.4,0.2c-0.2,0-0.2-0.2-0.4-0.1c-0.1,0.1-0.3,0.1-0.4,0.2
			c-0.1,0-0.3-0.1-0.4-0.1c-0.1,0-0.3,0.1-0.4,0c-0.1-0.3-0.1-0.4-0.2-0.6C111,212.4,110.9,212.4,110.9,212.4 M94.5,212.4
			c-0.1,0.2-0.1,0.3,0,0.5h0c0.1,0,0.2-0.1,0.2-0.2C94.7,212.5,94.6,212.5,94.5,212.4L94.5,212.4z M97.8,212.4c0,0.1-0.1,0.1,0,0.2
			c0,0.1,0.2,0.3,0.3,0.2c0.1,0,0.1-0.1,0.2-0.2c0,0,0-0.1,0-0.1c0,0,0,0,0,0C98,212.5,98,212.4,97.8,212.4 M100.6,212.2
			c0,0.1-0.1,0.1-0.1,0.1c0,0.2,0.1,0.4,0.2,0.5c0,0,0.1,0,0.1-0.1C100.9,212.5,100.9,212.3,100.6,212.2L100.6,212.2z M111.6,212.1
			c0,0,0,0.1,0,0.1c0,0,0,0,0,0h0.1c0,0,0,0,0.1-0.1v0C111.7,212.2,111.7,212.2,111.6,212.1L111.6,212.1z M110.7,212.1
			c-0.1,0.1-0.2,0.1-0.3,0.1c0,0.1,0,0.1,0,0.2c0.2,0,0.3,0,0.4-0.1c0,0,0,0,0,0C110.8,212.2,110.8,212.1,110.7,212.1
			C110.8,212.1,110.7,212.1,110.7,212.1 M106.4,212.1C106.4,212.1,106.4,212.1,106.4,212.1c-0.1,0.2-0.1,0.3-0.1,0.4
			c0,0,0.1,0.1,0.1,0.1c0.1,0,0.2,0,0.2-0.1v0c0-0.2-0.1-0.3-0.2-0.4H106.4z M104.2,212.1C104.2,212.1,104.2,212.1,104.2,212.1
			c-0.1,0.2,0,0.3,0,0.4c0,0,0,0,0.1,0c0,0,0.1,0,0.1,0C104.4,212.2,104.4,212.1,104.2,212.1L104.2,212.1z M97,212.1
			C97,212.1,97,212.1,97,212.1c0,0.1,0,0.2,0,0.2c0.2,0,0.4,0.1,0.5,0.1c0-0.1,0-0.1-0.1-0.2C97.3,212.2,97.2,212.1,97,212.1
			 M109.6,212C109.6,212,109.6,212,109.6,212c-0.1,0.1-0.1,0.2-0.1,0.2c0,0,0.1,0,0.1,0.1h0.1c0,0,0.1-0.1,0.1-0.1v-0.1
			C109.8,212,109.7,212,109.6,212L109.6,212z M105.3,212c0,0.1-0.1,0.1-0.1,0.1c0,0.1,0,0.1,0,0.2c0.1,0.1,0.3,0.1,0.4,0.1
			c0,0,0,0,0,0C105.5,212.2,105.5,212,105.3,212 M114.9,211.9c0,0,0,0.1,0,0.1c0.1,0,0.1,0.1,0.1,0.1h0.1c0,0,0,0,0,0
			c0-0.1-0.1-0.1-0.1-0.2H114.9z M105.7,211.9C105.7,211.9,105.7,212,105.7,211.9l0,0.1c0,0,0,0,0,0c0.1,0,0.1,0,0.2,0
			c0-0.1,0-0.1-0.1-0.2C105.8,211.9,105.8,211.9,105.7,211.9L105.7,211.9z M106.9,211.9c-0.1,0.1-0.1,0.1-0.1,0.2c0,0,0,0.1,0,0.1
			c0,0,0.1,0,0.1,0c0,0,0.1,0,0.1-0.1c0-0.1,0-0.1,0-0.2C107,212,107,211.9,106.9,211.9L106.9,211.9z M95.1,211.9
			C95.1,211.9,95.1,211.9,95.1,211.9c-0.1,0.2,0,0.2,0,0.3c0.2,0,0.3,0.1,0.4,0c0,0,0,0,0,0C95.6,212,95.3,211.9,95.1,211.9
			 M107.4,211.8C107.4,211.8,107.3,211.8,107.4,211.8c-0.1,0.1,0,0.2,0,0.2c0.1,0,0.1,0,0.2-0.1v0
			C107.5,211.9,107.5,211.8,107.4,211.8L107.4,211.8z M102.3,211.7c-0.1,0.1-0.4,0.6-0.1,0.7c0.1,0,0.3-0.6,0.3-0.6
			C102.4,211.8,102.4,211.8,102.3,211.7L102.3,211.7z M98,211.7C98,211.7,97.9,211.8,98,211.7c-0.1,0.2-0.1,0.2,0,0.3
			c0.1,0,0.2,0,0.3,0.1c0-0.1,0.1-0.1,0-0.2C98.2,211.8,98.1,211.7,98,211.7 M97.2,211.7c0,0-0.1,0.1,0,0.2c0,0,0,0.1,0.1,0.1
			c0,0,0.1,0,0.1,0c0.1-0.1,0.1-0.2,0-0.3H97.2z M103.9,211.7c-0.1,0.2-0.4,0.3-0.5,0.5c0,0.1,0,0.1,0,0.1c0.2,0,0.4,0.1,0.5,0
			C104,212.1,104,211.8,103.9,211.7L103.9,211.7z M112.8,211.6c-0.1,0.2-0.2,0.3-0.3,0.5c0,0.1,0,0.2,0.1,0.2c0.2,0,0.4-0.4,0.4-0.6
			C112.9,211.7,112.9,211.6,112.8,211.6C112.9,211.6,112.8,211.6,112.8,211.6 M99.2,211.6c-0.1,0.1-0.1,0.1-0.1,0.3
			c0.5,0.3,0.3,0.4,0.5,0.8h0c0.1,0,0.2-0.3,0.2-0.4c0.1,0,0.1,0,0.2,0c0.1,0.2,0.4,0.7,0.1,0.9v0c0,0,0,0.1,0.1,0.1
			c0.1,0.1,0.3,0.1,0.4,0c0-0.2-0.1-0.2-0.2-0.3c0-0.1,0-0.2,0-0.4c0-0.1-0.1-0.2-0.1-0.3c0-0.1-0.3-0.4-0.5-0.5
			c-0.1,0-0.2,0.1-0.4,0C99.4,211.7,99.4,211.6,99.2,211.6 M110.2,211.5C110.2,211.6,110.2,211.6,110.2,211.5c0,0.2,0,0.3,0.1,0.4
			c0.1,0,0.1,0,0.1,0v-0.2C110.4,211.6,110.3,211.6,110.2,211.5L110.2,211.5z M114.5,211.5C114.5,211.5,114.4,211.6,114.5,211.5
			c-0.1,0.2,0,0.2,0,0.3h0c0.1,0,0.1,0,0.1-0.1c0-0.1,0-0.1,0-0.1c0-0.1,0-0.1-0.1-0.1C114.6,211.5,114.6,211.5,114.5,211.5
			 M115.1,211.5c0,0-0.1,0.1-0.1,0.1c0,0.1,0,0.1,0.1,0.1c0,0,0,0,0,0c0.1,0,0.1,0,0.2,0v0v-0.1
			C115.2,211.5,115.2,211.5,115.1,211.5L115.1,211.5z M110.6,211.4C110.6,211.4,110.6,211.4,110.6,211.4c0,0.2,0,0.3,0,0.4
			c0.1,0,0.4,0,0.6,0.1c0.1,0,0.1,0.1,0.2,0.1c0.1-0.1,0.2-0.2,0.3-0.3c0-0.1,0-0.1-0.1-0.1c-0.1,0-0.5,0.1-0.7,0
			C110.9,211.5,111,211.4,110.6,211.4 M96.6,211.3C96.5,211.4,96.5,211.4,96.6,211.3l0,0.1c0,0,0.1,0,0.1,0.1h0c0,0,0-0.1,0.1-0.1
			v-0.1C96.7,211.4,96.6,211.4,96.6,211.3L96.6,211.3z M109.8,211.3c-0.1,0.1-0.2,0.3-0.1,0.4h0.2c0,0,0.1,0,0.1-0.1
			C110,211.6,109.9,211.4,109.8,211.3L109.8,211.3L109.8,211.3z M107.1,211.3c0,0.1-0.1,0.1-0.1,0.1c0,0.1,0,0.2,0.1,0.3h0.1
			c0.1-0.1,0.3-0.3,0.1-0.4H107.1z M101.4,211.2c-0.1,0.1-0.2,0.2-0.4,0.2c-0.1,0-0.2,0-0.3,0c0,0.1,0,0.1,0,0.2
			c0.1,0.1,0.2,0.3,0.3,0.4h0.1c0.1-0.1,0.1-0.1,0.2-0.2c0,0,0,0,0,0c0.1,0.1,0.2,0.3,0.3,0.4c0.1,0,0.1,0,0.1,0c0,0,0,0,0-0.1
			c0-0.3,0.2-0.6,0.1-0.8c-0.1,0-0.2,0-0.3,0c0-0.1,0-0.3-0.1-0.4C101.5,211.2,101.5,211.2,101.4,211.2 M103.5,211.2
			c-0.1,0.2-0.2,0.3-0.2,0.5c0,0,0.1,0.1,0.1,0.1c0.1,0,0.2-0.1,0.3-0.2c0-0.2,0.1-0.3-0.1-0.4H103.5z M99.5,211.2
			C99.5,211.2,99.4,211.2,99.5,211.2c-0.1,0.2-0.1,0.2,0,0.3c0,0,0,0,0,0.1c0.2,0,0.3,0,0.4,0c0,0,0-0.1,0-0.1
			c-0.1-0.1-0.1-0.1-0.2-0.2H99.5z M109.4,211.1c-0.1,0-0.2,0.1-0.2,0.1c0,0.1,0,0.1,0,0.1h0c0.2,0,0.2-0.1,0.3-0.1
			C109.5,211.2,109.5,211.2,109.4,211.1L109.4,211.1z M98.6,211.1c0,0-0.1,0.1-0.1,0.1c0,0.1,0,0.1,0,0.2c0,0,0.1,0,0.1,0
			C98.7,211.3,98.7,211.2,98.6,211.1L98.6,211.1z M100.5,211.1C100.5,211.1,100.5,211.2,100.5,211.1l-0.1,0.1c0,0,0,0,0,0
			c0.1,0,0.1,0,0.1,0c0,0,0,0,0,0c0-0.1,0-0.1,0-0.1C100.6,211.1,100.6,211.1,100.5,211.1 M113.9,211.1c0,0.1-0.1,0.1-0.1,0.1
			c0,0,0,0.1,0,0.1c0.1,0,0.1,0,0.2-0.1v0c0-0.1,0-0.1,0-0.1H113.9z M104.4,211c-0.2,0.3,0.2,0.5,0.4,0.4v-0.1
			C104.7,211.2,104.7,211.1,104.4,211 M114.3,211c-0.1,0.1,0,0.2,0,0.2c0,0,0,0,0,0c0,0,0.1,0,0.1,0c0,0,0,0,0,0
			C114.5,211.1,114.4,211,114.3,211 M111.4,210.9c0,0-0.1,0.1-0.1,0.1c0,0.1,0,0.2,0,0.3c0.1,0,0.1,0,0.2-0.1c0-0.1,0-0.1,0.1-0.3
			C111.5,211,111.5,211,111.4,210.9L111.4,210.9z M110.9,210.9c-0.1,0.1-0.2,0.2-0.1,0.3c0.1,0,0.2,0,0.2-0.1c0-0.1,0-0.2,0-0.3
			H110.9z M107,210.9c0,0.1-0.1,0.1-0.1,0.1c0.1,0.1,0.1,0.1,0.2,0.1c0.1-0.1,0.1-0.2,0-0.3C107.1,210.9,107.1,210.9,107,210.9
			 M110,210.9C110,210.9,110,210.9,110,210.9c-0.1,0.2,0,0.2,0,0.2c0.1,0,0.2,0,0.3,0c0.1,0,0.1,0,0.1-0.1c0-0.1,0-0.1-0.1-0.2H110z
			 M95.1,210.8L95.1,210.8c0,0.2,0.1,0.6,0,0.8c-0.2,0-0.3,0-0.4-0.1c0-0.1-0.1-0.3,0.1-0.3c0,0.1,0,0.1,0.1,0.1h0.1
			C94.9,211.1,94.9,210.8,95.1,210.8 M100.9,210.7c0,0.1-0.1,0.1-0.1,0.1c0,0,0.1,0.1,0.1,0.1c0.1,0,0.1,0,0.2-0.1
			c0-0.1,0-0.1-0.1-0.2h0H100.9z M105.7,210.7c-0.2,0.1-0.3,0.2-0.5,0.4c-0.1,0-0.2,0-0.2,0c0,0.1,0,0.2,0.1,0.4
			c-0.1,0.3-0.4,0.2-0.6,0.3c0,0.2,0.1,0.3,0.2,0.5c0,0.1,0,0.2,0,0.3c0,0.1-0.1,0.1-0.1,0.1c-0.4,0-0.3,0.1-0.5,0.2
			c-0.1,0-0.2,0-0.3,0.1c0,0.2,0,0.3,0,0.5c-0.2,0.2-0.5,0.1-0.7,0.2c-0.1,0.4-0.4,0.2-0.6,0.5c0,0.1,0.2,0.2,0.3,0.2
			c0.2-0.1,0.2-0.4,0.5-0.4c0,0.1,0.1,0.2,0.1,0.3c0.1,0.4-0.3,0.9-0.5,1.1h-0.2c-0.1,0.1-0.2,0.2-0.3,0.3c-0.1,0-0.2-0.1-0.3-0.1
			c-0.1,0-0.6,0-0.6,0c0,0-0.1,0-0.1,0.1v0.1c0.2,0.2,0.3,0.4,0.5,0.5c0.1,0,0.2-0.2,0.3-0.2h0.2c0,0,0.1-0.1,0.1-0.1
			c0.3-0.1,0.4,0.1,0.7,0.1c0,0.2,0.2,0.3,0.3,0.3c0,0,0.1-0.1,0.1-0.1c0,0,0-0.1,0-0.1c0-0.1,0-0.1,0-0.2c-0.1,0-0.3,0-0.4-0.1
			c-0.2-0.3,0.4-1.2,0.7-1.2c0.2,0.1,0.2,0.8,0.1,1c-0.1,0.1-0.3,0.2-0.2,0.4c0,0.1,0.1,0.1,0.2,0.2h0.1c0.1,0,0.1-0.1,0.2-0.1
			c0-0.6,0.1-1.2,0.1-1.9c0.4-0.2,0.3,0.2,0.6,0c0-0.1,0-0.2,0.1-0.3c0,0,0,0,0,0c-0.4,0-0.7,0.1-0.8-0.3c0-0.1,0-0.2-0.1-0.2
			c0.1,0,0.1-0.1,0.2-0.1c0-0.1,0-0.1,0-0.2c0.1-0.3,0.6-0.1,0.8-0.3v-0.2c-0.1-0.1-0.2-0.1-0.2-0.2c-0.2-0.4,0.4-0.8,0.7-0.8
			c0.2,0,0.3,0.4,0.6,0.2c0.1-0.2,0.1-0.5,0-0.7c-0.1,0-0.3-0.1-0.3-0.2C105.8,210.8,105.9,210.7,105.7,210.7 M97.7,210.7
			C97.7,210.7,97.7,210.7,97.7,210.7c0,0.3,0.2,0.6,0.4,0.9h0.1c0,0,0.1,0,0.1,0c0-0.1,0-0.2,0-0.2c-0.1,0-0.2-0.1-0.2-0.1
			C98,211,97.9,210.8,97.7,210.7L97.7,210.7z M96.3,210.6C96.3,210.7,96.2,210.7,96.3,210.6l-0.1,0.2c0,0.2,0.1,0.3,0.3,0.2
			c0-0.1,0-0.2,0-0.3C96.4,210.6,96.4,210.6,96.3,210.6 M100.4,210.6c0,0.1-0.1,0.1-0.1,0.2c0,0,0,0.1,0,0.1c0.1,0,0.2,0,0.3-0.1
			c0,0,0-0.1,0-0.1c0,0-0.1-0.1-0.1-0.1H100.4z M100,210.6C99.9,210.6,99.9,210.6,100,210.6c-0.1,0.2-0.2,0.3-0.1,0.4h0h0.1
			c0.1-0.1,0.1-0.2,0.1-0.2C100.1,210.6,100.1,210.6,100,210.6L100,210.6z M96.8,210.5c-0.1,0.1-0.1,0.2,0,0.3c0.1,0,0.1,0,0.1,0
			c0-0.1,0-0.1,0.1-0.2C96.9,210.5,96.9,210.5,96.8,210.5L96.8,210.5z M105.1,210.5c-0.1,0.1-0.1,0.5,0.1,0.3
			C105.3,210.6,105.2,210.5,105.1,210.5L105.1,210.5z M106.1,210.4C106.1,210.5,106.1,210.5,106.1,210.4c-0.1,0.3,0,0.3,0.1,0.5
			c0.1,0,0.2,0,0.2-0.1C106.4,210.6,106.3,210.4,106.1,210.4 M102.5,210.4c-0.1,0.1-0.1,0.3,0,0.5c0,0,0,0,0,0c0.1,0,0.1,0,0.2,0
			C102.8,210.6,102.8,210.5,102.5,210.4L102.5,210.4z M111.1,210.4c-0.1,0.1-0.1,0.1-0.1,0.2c0,0,0,0,0,0.1c0,0,0.1,0.1,0.1,0.1
			c0.1,0,0.2,0,0.2,0v-0.1C111.3,210.5,111.2,210.5,111.1,210.4L111.1,210.4z M114.4,210.3C114.4,210.3,114.4,210.4,114.4,210.3
			c0,0.3,0.1,0.3,0.2,0.4c0.1,0.2,0,0.3,0.1,0.4c0,0,0.1,0,0.1,0c0.1,0,0.1-0.2,0.2-0.3c-0.2-0.1-0.1-0.3-0.2-0.5
			C114.6,210.4,114.5,210.3,114.4,210.3 M107.7,210.3C107.7,210.3,107.6,210.3,107.7,210.3l-0.1,0.1c0.1,0.1,0.2,0.2,0.3,0.2
			c0-0.1,0-0.1,0.1-0.1C107.9,210.4,107.8,210.3,107.7,210.3 M113.3,210.3C113.2,210.3,113.2,210.3,113.3,210.3
			c-0.1,0.2,0,0.2,0,0.2c0.2,0,0.3,0,0.4,0c0,0,0-0.1,0-0.1C113.5,210.3,113.4,210.3,113.3,210.3 M107.2,210.2
			c-0.1,0.1-0.2,0.2-0.2,0.4c0,0,0.1,0.1,0.1,0.1c0.1,0,0.1,0,0.2-0.1c0-0.1,0-0.3,0-0.4C107.3,210.3,107.3,210.2,107.2,210.2
			 M106.8,210.2c0,0-0.1,0.1-0.1,0.1c0,0,0,0.1,0,0.1c0,0,0,0,0,0c0.1-0.1,0.2-0.1,0.3-0.1c0,0,0-0.1,0-0.1H106.8z M104.5,210.2
			C104.5,210.2,104.5,210.2,104.5,210.2c-0.1,0.2-0.1,0.3,0,0.3c0.1,0,0.1,0,0.2,0c0.2-0.1,0.1-0.2,0-0.3
			C104.6,210.2,104.6,210.2,104.5,210.2 M97.9,210.2C97.9,210.2,97.8,210.2,97.9,210.2c-0.1,0.1,0,0.2,0,0.2
			c0.2,0.1,0.3,0.3,0.5,0.2c0,0.2,0.2,0.3,0.3,0.5c0.2,0,0.2-0.1,0.3-0.1c0.2-0.1,0.5,0,0.6-0.1c0-0.2,0.1-0.3,0-0.4h0
			c-0.2,0.1-0.4,0.2-0.6,0.2c-0.2,0-0.5-0.1-0.7-0.1c0-0.2-0.3-0.4-0.4-0.5H97.9z M97.5,210.2C97.4,210.2,97.4,210.2,97.5,210.2
			c-0.1,0.1-0.1,0.1-0.1,0.1c0,0,0,0.1,0.1,0.1c0.1,0,0.1,0,0.1,0c0,0,0,0,0.1,0v-0.1c0,0,0-0.1-0.1-0.1
			C97.5,210.2,97.5,210.2,97.5,210.2 M99.3,210.1C99.2,210.1,99.2,210.1,99.3,210.1c-0.1,0.1,0,0.2,0,0.2c0.1,0.1,0.2,0.1,0.3,0v0
			c0-0.1,0-0.2,0-0.2H99.3z M98.8,210.1c0,0.1-0.1,0.2,0,0.2c0,0.1,0.1,0.1,0.1,0.1c0,0,0.1,0,0.1,0c0,0,0,0,0,0
			C99,210.2,98.9,210.1,98.8,210.1 M95.6,210.1C95.5,210.1,95.5,210.1,95.6,210.1c0,0.2,0,0.1,0,0.2c0,0,0.1,0,0.1-0.1
			c0,0,0-0.1,0-0.1H95.6z M109.3,210c-0.1,0.1-0.3,0.2-0.4,0.4c0,0.1,0,0.3,0,0.4c-0.1,0.1-0.2,0.1-0.3,0.1c-0.1,0,0,0-0.1-0.1
			c0-0.1,0-0.3-0.1-0.3c-0.2,0.1-0.3,0.3-0.4,0.4c-0.2,0-0.2-0.1-0.4-0.1c-0.2,0.3,0.1,0.7,0.2,1c0.1,0.2-0.2,0.4-0.2,0.5
			c-0.1,0-0.2,0-0.2,0.1v0c0,0,0.1,0.1,0.1,0.1h0.1c0.1-0.1,0.2-0.2,0.3-0.3c0.1,0,0.1,0,0.1,0.1c0.3,0.5-0.3,1-0.8,1.1
			c-0.2,0-0.3-0.1-0.4-0.1c-0.2,0-0.5,0-0.4,0.2c0,0,0.2,0.3,0.2,0.3h0.1c0.2,0,0.4-0.1,0.6-0.1c0.1,0,0.2,0.1,0.3,0.1c0,0,0,0,0,0
			c0,0,0,0,0.1-0.1c0-0.5,0.4-0.6,0.5-0.9c0.1,0,0.1,0,0.1,0c0.1,0.2,0.1,0.6,0,0.8c-0.1,0.1-0.2,0.1-0.2,0.3c0.1,0.1,0.2,0.1,0.4,0
			c0-0.1,0.2-1.4,0.2-1.4c0,0,0,0,0.1-0.1c0.2,0.1,0.5,0.3,0.7,0.1c0-0.1,0.1-0.2,0-0.3c-0.2-0.1-0.4,0-0.5-0.1
			c0.1-0.2,0.3-0.3,0.4-0.5c0,0,0-0.1,0-0.1c-0.2-0.1-0.4,0-0.5-0.2c0.1-0.5,0.6-0.3,1-0.5c0-0.1,0.1-0.1,0.1-0.2h0.3
			c0.1,0,0.2,0.1,0.3,0.2c0.1,0,0.1,0,0.1-0.1v0c0-0.1,0-0.1-0.1-0.2c-0.3-0.1-0.3-0.3-0.4-0.5c-0.2,0-0.3,0.2-0.6,0.2
			C109.6,210.1,109.5,210,109.3,210 M105.3,210C105.3,210,105.2,210,105.3,210c-0.1,0.2-0.1,0.2,0,0.2h0.1c0,0,0.1-0.1,0.1-0.1
			c0,0,0-0.1,0-0.1C105.4,210,105.3,210,105.3,210 M96.5,210c-0.2,0.1-0.5,0.1-0.7,0.2c-0.1,0.2-0.1,0.4,0,0.5c0,0,0.1,0,0.1,0
			c0.1-0.1,0.3-0.2,0.4-0.4c0.3,0,0.5,0.1,0.6-0.1v0C96.8,210.1,96.7,210,96.5,210 M111.8,209.9c-0.2,0.2-0.5,0.4-0.4,0.7h0
			c0.1,0,0.5-0.4,0.5-0.5c0,0,0-0.1,0-0.1C111.9,210,111.9,210,111.8,209.9L111.8,209.9z M109,209.9C109,209.9,109,210,109,209.9
			c-0.1,0.2,0,0.2,0,0.3c0.1,0,0.1,0,0.2-0.1v0c0-0.1,0-0.1,0-0.2C109.1,209.9,109.1,209.9,109,209.9 M101.6,209.9c0,0,0,0.1,0,0.1
			c0,0,0,0,0,0c0.1,0,0.1,0,0.1-0.1v0C101.7,209.9,101.7,209.9,101.6,209.9L101.6,209.9z M104,210.6c0.1,0,0.2,0,0.3-0.1
			c0-0.4-0.2-0.2-0.5-0.3c0-0.1-0.1-0.3-0.1-0.4c0,0,0,0-0.1,0c-0.1,0-0.4,0.2-0.4,0.2c0,0.4-0.2,0.1-0.3,0.3c0,0.2,0.1,0.3,0.1,0.5
			c-0.1,0.1-0.1,0.1-0.2,0.2c-0.4,0.1-0.4-0.2-0.5-0.5c-0.2-0.1-0.4-0.1-0.5-0.2c-0.2,0-0.2,0-0.3,0.1c0,0.1,0,0.1,0,0.1
			c0.3,0.1,0.4,0.4,0.6,0.5c0.1,0,0.1,0,0.2,0c0.1,0.2,0.2,0.4,0.4,0.6c0,0.1,0.1,0.3,0.1,0.4c0.2,0,0.3,0.1,0.4-0.1
			c-0.2-0.5-0.1-0.9,0.3-1.2c0.4,0.1,0.4,0.4,0.5,0.6h0c0,0,0.1,0,0.1,0c0-0.1,0.1-0.2,0.1-0.3C104.1,211.1,104,210.7,104,210.6
			 M98.3,209.8C98.3,209.8,98.3,209.9,98.3,209.8c0,0.2,0,0.2,0,0.2c0,0,0,0,0,0c0,0,0.1,0,0.1,0c0,0,0.1-0.1,0.1-0.1v-0.1
			c0,0,0,0-0.1-0.1H98.3z M108.3,209.8C108.3,209.8,108.3,209.9,108.3,209.8c-0.1,0.3,0.1,0.3,0.2,0.2c0,0,0-0.1-0.1-0.1
			C108.4,209.8,108.3,209.8,108.3,209.8 M107.9,209.8c0,0,0,0.1,0,0.1c0,0,0,0,0,0c0.1,0,0.1,0,0.1-0.1v0
			C108,209.8,108,209.8,107.9,209.8L107.9,209.8z M103.9,209.8C103.9,209.8,103.9,209.8,103.9,209.8c-0.1,0.2-0.1,0.2,0,0.3
			c0.1,0,0.1,0,0.2,0C104.1,209.9,104.1,209.8,103.9,209.8L103.9,209.8z M112.6,209.7c-0.1,0.1-0.1,0.1-0.1,0.2c0,0,0.1,0.1,0.1,0.1
			c0.1,0,0.1-0.1,0.2-0.1C112.7,209.7,112.7,209.7,112.6,209.7L112.6,209.7z M108.6,209.7C108.6,209.7,108.5,209.7,108.6,209.7
			l-0.1,0.1c0,0,0.1,0.1,0.1,0.1c0.1,0,0.1,0,0.2-0.1C108.7,209.7,108.6,209.7,108.6,209.7 M96.8,209.7c0,0.1-0.1,0.1-0.1,0.1
			c0.1,0.1,0.1,0.1,0.2,0.1c0.1,0,0.2,0,0.2,0c0,0,0-0.1,0-0.1C97,209.8,97,209.7,96.8,209.7 M107.1,209.6
			C107.1,209.7,107,209.7,107.1,209.6c-0.1,0.1-0.1,0.1-0.1,0.2c0,0.1,0.1,0.1,0.2,0.2c0.1,0,0.1-0.1,0.2-0.1c0,0,0-0.1,0-0.1
			c0,0,0,0,0-0.1C107.3,209.7,107.2,209.7,107.1,209.6 M113,209.6c-0.1,0.2-0.2,0.4-0.3,0.6c-0.1,0-0.2,0-0.3-0.1c0,0,0,0,0,0.1
			c0,0.1,0,0.1,0,0.1c0.3,0.1,0.4,0.3,0.3,0.6c-0.2,0.1-0.2-0.1-0.4,0c-0.1,0.1-0.2,0.2-0.3,0.4v0.1c0,0,0,0,0,0
			c0.1,0,0.2-0.1,0.3-0.1c0,0,0.1,0.1,0.1,0.1c-0.1,0.3-0.2,0.5-0.5,0.7c0,0.1,0,0.2,0.1,0.2c0,0,0.1,0,0.1-0.1
			c0.1-0.2,0.2-0.3,0.3-0.5c0.1-0.2,0.2-0.4,0.4-0.6h0.1c0.1,0.1,0.3,0.3,0.3,0.4c0,0.1-0.1,0.2-0.1,0.2c0,0,0,0,0,0.1
			c0.1,0,0.1,0,0.2,0c0,0.1,0,0.1,0,0.2c0,0.1-0.1,0.2-0.1,0.3c0,0,0,0.1,0.1,0.1h0c0.1,0,0.9-0.4,1-0.5c0.1-0.1,0.1-0.2,0.1-0.3
			c-0.1-0.1-0.1-0.1-0.2-0.2c-0.2,0-0.2,0.2-0.3,0.3c-0.1,0-0.2,0-0.3,0c0-0.1,0-0.1,0-0.2c0.1-0.1,0.1-0.1,0.1-0.2c0,0,0,0,0-0.1
			c-0.1,0-0.3,0-0.3-0.1c0.1-0.1,0.2-0.1,0.2-0.1V211c0,0,0,0,0-0.1c-0.4-0.1-0.3-0.3-0.5-0.6c0.6-0.6,0.8,0.2,1.1-0.1v0
			c0-0.1-0.1-0.2-0.1-0.2c0.1,0,0.1,0,0.2-0.1c0,0,0-0.1,0-0.1C113.6,209.8,113.4,209.9,113,209.6L113,209.6z M110.2,209.6
			c-0.1,0.1-0.1,0.2,0,0.3h0.1c0,0,0.1-0.1,0.1-0.1c0,0,0-0.1,0-0.1C110.3,209.7,110.3,209.6,110.2,209.6L110.2,209.6z M99.9,209.6
			c-0.1,0-0.2,0.1-0.3,0.1c0,0.1,0,0.1,0,0.1c0.1,0,0.3-0.1,0.4-0.1C100,209.6,100,209.6,99.9,209.6L99.9,209.6z M101.3,209.6
			c-0.1,0.2-0.2,0.3-0.1,0.6c0,0,0.1,0,0.1,0.1c0,0,0.1,0,0.1-0.1C101.4,209.9,101.5,209.7,101.3,209.6L101.3,209.6z M99.2,209.5
			C99.2,209.6,99.1,209.6,99.2,209.5c-0.1,0.1-0.2,0.2-0.1,0.3c0,0,0,0,0,0.1c0.1,0,0.1,0,0.2-0.1c0-0.1,0-0.1,0-0.2
			C99.3,209.6,99.3,209.6,99.2,209.5L99.2,209.5z M101.9,209.5c-0.1,0.1,0,0.3,0,0.4h0c0.2,0.1,0.3,0,0.4-0.1c0-0.1,0-0.1-0.1-0.2
			C102.1,209.7,102.1,209.5,101.9,209.5 M98.7,209.5C98.7,209.5,98.6,209.6,98.7,209.5l0,0.1c0,0,0.1,0.1,0.1,0.1
			c0.1,0,0.1,0,0.1-0.1c0-0.1,0-0.1-0.1-0.2h0H98.7z M97.4,209.5c0,0-0.1,0.1-0.1,0.1c0,0.1,0.1,0.2,0.1,0.3c0,0,0.1,0,0.1,0
			c0,0,0,0,0.1-0.1c0-0.2,0.1-0.3,0-0.4h0H97.4z M106.5,209.4C106.5,209.5,106.4,209.5,106.5,209.4l-0.1,0.1c0,0,0.1,0.1,0.1,0.1
			c0.1,0,0.1,0,0.2,0v0c0-0.1,0-0.1-0.1-0.1C106.6,209.5,106.5,209.5,106.5,209.4 M105.4,209.4c-0.1,0.1,0,0.4,0,0.6
			c0.1,0.1,0.3,0,0.5,0.1c0.1,0.1,0.2,0.2,0.4,0.2c0.1-0.1,0.2-0.2,0.3-0.3c0-0.1,0-0.1,0-0.1c-0.3,0-0.4,0-0.7,0
			C105.9,209.7,105.6,209.5,105.4,209.4 M109.9,209.4c0,0.1-0.1,0.1-0.1,0.2c0,0,0,0,0.1,0.1h0.1c0,0,0.1-0.1,0.1-0.1
			c0-0.1,0-0.1,0-0.1H109.9z M100.6,209.4c0,0-0.1,0.1-0.1,0.1v0.1c0,0.1,0.1,0.1,0.2,0.2c0,0,0.1,0,0.1,0c0-0.1,0-0.1,0-0.2
			C100.8,209.4,100.7,209.4,100.6,209.4L100.6,209.4z M96.4,209.4C96.4,209.4,96.3,209.4,96.4,209.4c-0.1,0.2-0.1,0.3-0.1,0.4
			c0.2,0,0.3-0.2,0.3-0.3c0,0-0.1,0-0.1-0.1H96.4z M110.6,209.3c0,0.1,0,0.1,0,0.2h0h0c0,0,0-0.1,0.1-0.1v-0.1
			C110.7,209.4,110.7,209.4,110.6,209.3L110.6,209.3z M108.3,209.3c0,0-0.1,0.1-0.1,0.1c0,0,0,0.1,0.1,0.1c0.1,0,0.1,0,0.2-0.1
			c0-0.1,0-0.1,0-0.2H108.3z M100.2,209.3C100.2,209.3,100.1,209.3,100.2,209.3l-0.1,0.2c0,0,0,0,0.1,0.1c0.1,0,0.1,0,0.2-0.1
			C100.3,209.4,100.3,209.3,100.2,209.3L100.2,209.3z M109.4,209.2c-0.2,0.2-0.4,0.2-0.7,0.3v0.1l0.2,0.2c0.2-0.1,0.4-0.2,0.7-0.2
			c0-0.1,0-0.2,0-0.3c0,0,0,0,0,0H109.4z M106.1,209.2C106.1,209.2,106,209.2,106.1,209.2c-0.1,0.2-0.1,0.3-0.1,0.4
			c0.1,0,0.1,0,0.1-0.1C106.2,209.4,106.3,209.2,106.1,209.2 M113.4,209.2c-0.1,0.1-0.1,0.3,0,0.5c0,0,0.1,0,0.1,0c0,0,0.1,0,0.1,0
			C113.5,209.4,113.5,209.3,113.4,209.2L113.4,209.2z M112.1,209.2c0,0-0.1,0.1-0.1,0.1v0.1c0.1,0.1,0.2,0.2,0.3,0.3h0.1
			c0.1-0.1,0.2-0.2,0.3-0.3c0,0,0,0,0-0.1c0,0,0,0,0-0.1C112.5,209.2,112.3,209.2,112.1,209.2 M108.8,209.1
			C108.8,209.1,108.8,209.2,108.8,209.1l-0.1,0.1c0,0,0,0,0.1,0.1h0.1c0,0,0,0,0,0C108.9,209.2,108.9,209.2,108.8,209.1L108.8,209.1
			L108.8,209.1z M97.3,209.1c-0.1,0.1-0.1,0.1-0.1,0.1c0,0,0,0,0,0.1c0.1,0,0.1,0,0.2,0C97.4,209.2,97.4,209.2,97.3,209.1
			L97.3,209.1z M98.5,209.1c0,0-0.1,0.1-0.1,0.1c0,0.1,0,0.1,0.1,0.1c0.1,0,0.1-0.1,0.2-0.1v0C98.6,209.2,98.6,209.1,98.5,209.1
			L98.5,209.1z M104.9,209c-0.1,0.2-0.1,0.9,0,1.1c0.1,0,0.1,0,0.2-0.1c0-0.1,0-0.1,0-0.1c-0.1-0.3-0.2-0.4-0.1-0.8
			C105,209.1,105,209.1,104.9,209L104.9,209z M104.5,209c-0.1,0.2-0.1,0.6,0,0.8h0.1c0,0,0.1,0,0.1,0c0-0.2,0.1-0.6,0-0.8H104.5z
			 M102,208.9c0,0-0.1,0.1-0.1,0.1c0,0.2,0.1,0.2,0.1,0.3c0.1,0,0.2,0,0.3,0.1c0,0,0.1-0.1,0.1-0.1
			C102.4,209.1,102.2,208.9,102,208.9 M102.5,208.9C102.5,208.9,102.5,208.9,102.5,208.9c-0.1,0.2,0,0.7,0,0.8c0,0,0,0,0,0
			c0.1,0,0.1,0,0.2-0.1c0-0.2,0.1-0.5,0-0.6C102.7,208.9,102.6,208.9,102.5,208.9 M105.2,208.9C105.1,208.9,105.1,208.9,105.2,208.9
			c-0.1,0.2,0.1,0.4,0.2,0.5c0,0,0.1,0,0.1,0c0-0.1,0-0.1,0-0.2C105.4,209,105.4,208.9,105.2,208.9 M110,208.9
			C109.9,208.9,109.9,208.9,110,208.9c-0.1,0.2,0,0.2,0,0.2h0c0.1,0,0.1-0.1,0.1-0.1c0-0.1,0-0.1,0-0.1H110z M110.2,208.8
			c-0.1,0.1-0.1,0.4,0,0.5c0,0,0.1,0,0.1,0c0-0.2,0.1-0.4,0-0.5H110.2z M106.6,208.8c-0.1,0.1-0.2,0.2-0.1,0.4h0.2
			c0,0,0.1,0,0.1-0.1C106.8,209,106.8,208.9,106.6,208.8C106.7,208.8,106.7,208.8,106.6,208.8 M105.8,208.8c-0.1,0.1,0,0.1,0,0.2h0
			c0.1,0,0.1,0,0.1-0.1c0-0.1,0-0.1-0.1-0.1H105.8z M104.1,208.8c-0.1,0-0.2,0.1-0.3,0.1c-0.1,0.2-0.3,0.5-0.2,0.8h0h0.1
			c0.1-0.1,0.1-0.4,0.2-0.5c0.1,0,0.1,0.1,0.3,0C104.2,209,104.2,208.9,104.1,208.8C104.2,208.8,104.1,208.8,104.1,208.8
			 M99.2,208.7c-0.1,0.2-0.1,0.4,0,0.6h0c0,0,0.1,0,0.1-0.1C99.4,209,99.4,208.9,99.2,208.7L99.2,208.7z M108.7,208.7
			C108.7,208.7,108.7,208.7,108.7,208.7c-0.1,0.2,0,0.2,0,0.3h0c0.1,0,0.1,0,0.1,0v0C108.8,208.8,108.8,208.7,108.7,208.7
			L108.7,208.7L108.7,208.7z M100.3,208.7c-0.1,0.1,0,0.3,0,0.4h0h0.1c0,0,0-0.1,0.1-0.1c0-0.1,0-0.2-0.1-0.3
			C100.5,208.7,100.4,208.7,100.3,208.7L100.3,208.7z M101.7,208.7c-0.1,0.1-0.1,0.1-0.2,0.2v0.1c0,0,0,0,0.1,0
			C101.7,209,101.9,208.9,101.7,208.7L101.7,208.7z M112.6,208.6c-0.1,0.1-0.3,0.1-0.3,0.3c0,0,0,0,0.1,0.1c0.2,0,0.3,0,0.4-0.1
			c0-0.1,0.1-0.2,0-0.3H112.6z M96.8,208.6C96.8,208.6,96.7,208.7,96.8,208.6c-0.1,0.1-0.1,0.2-0.1,0.2c0,0,0,0,0,0c0,0,0.1,0,0.1,0
			c0-0.1,0.1-0.1,0.1-0.2C96.9,208.6,96.9,208.6,96.8,208.6L96.8,208.6z M110.8,208.6c0,0-0.1,0-0.1,0.1c0,0.3,0,0.4,0.1,0.6
			c0.1,0.3-0.1,0.5,0.1,0.8c0.1,0,0.1,0,0.1,0c0,0,0,0,0-0.1c0-0.5,0.1-0.4,0.3-0.6c0-0.1-0.1-0.1-0.2-0.2c-0.1-0.1,0.1-0.2,0-0.3
			C111,208.8,111,208.7,110.8,208.6L110.8,208.6z M104.3,208.5C104.3,208.6,104.3,208.6,104.3,208.5c-0.1,0.2,0,0.2,0,0.2
			c0,0,0,0,0,0c0.1,0,0.2,0,0.2,0v0c0,0-0.1-0.1-0.1-0.1C104.4,208.6,104.4,208.5,104.3,208.5 M97.2,208.5
			C97.2,208.6,97.1,208.6,97.2,208.5c-0.1,0.1-0.1,0.2-0.1,0.3c0.1,0,0.1,0.1,0.1,0.1c0.1,0,0.1,0,0.2,0c0,0,0,0,0.1-0.1
			C97.4,208.7,97.4,208.6,97.2,208.5L97.2,208.5z M100.9,208.5C100.8,208.6,100.8,208.6,100.9,208.5c-0.1,0.2-0.1,0.2-0.1,0.3h0
			c0.1,0,0.1,0,0.2-0.1c0-0.1,0-0.1,0-0.2C100.9,208.5,100.9,208.5,100.9,208.5 M104.9,208.5C104.9,208.5,104.9,208.6,104.9,208.5
			c-0.1,0.1-0.1,0.1-0.1,0.2c0,0,0.1,0.1,0.1,0.1h0.1c0,0,0,0,0,0C105,208.6,105,208.6,104.9,208.5L104.9,208.5L104.9,208.5z
			 M98.9,208.5c0,0-0.1,0.1-0.1,0.1c0,0.1,0,0.1,0,0.2c0,0,0,0,0,0.1c0.1,0,0.1,0,0.2-0.1C99,208.7,99,208.6,98.9,208.5L98.9,208.5z
			 M109.7,208.3C109.7,208.3,109.7,208.4,109.7,208.3c-0.1,0.1-0.1,0.2-0.1,0.2c0,0,0.1,0.1,0.1,0.1c0.1,0,0.1,0,0.2-0.1
			c0-0.1,0-0.2,0-0.2c0,0,0,0,0,0C109.9,208.3,109.8,208.3,109.7,208.3 M105.5,208.3c-0.1,0.1-0.2,0.2-0.1,0.3c0,0,0.1,0,0.1,0
			c0.1,0,0.1-0.1,0.2-0.1c0-0.1,0-0.2,0-0.2H105.5z M110.5,208.3c-0.1,0.1-0.1,0.1-0.1,0.3c0,0,0,0,0,0c0.1,0,0.1,0,0.2,0
			C110.7,208.4,110.7,208.4,110.5,208.3L110.5,208.3z M98.3,208.3c0,0.1-0.1,0.1,0,0.1c0,0,0,0.1,0,0.1c0.1,0,0.1,0,0.2-0.1v0
			c0,0,0-0.1-0.1-0.1H98.3z M111.5,208.3c-0.1,0.1-0.2,0.2-0.3,0.2c0,0.1,0,0.1,0,0.1h0c0.1,0,0.4-0.1,0.5-0.2c0-0.1,0-0.1,0-0.2
			C111.6,208.3,111.6,208.3,111.5,208.3 M107.9,208.2c-0.1,0.2-0.3,0.3-0.4,0.4c0,0.1,0,0.2,0,0.3c-0.1,0.3-0.3,0.2-0.6,0.3
			c0,0.1-0.1,0.1-0.1,0.2c0,0,0,0,0,0.1c0.4,0,0.5,0.1,0.7,0.3h0.1c0.1-0.1,0.2-0.1,0.2-0.2c0.1-0.1,0.1-0.2,0.2-0.3
			c0.1,0,0.2-0.1,0.3-0.1c0,0,0-0.1,0-0.1c-0.1,0-0.2-0.1-0.3-0.2c0-0.2,0.1-0.4,0-0.5C108,208.3,108,208.2,107.9,208.2 M104,208.2
			c-0.1,0.1-0.3,0.3-0.1,0.4c0.1,0,0.2,0,0.2-0.1C104.1,208.4,104.1,208.4,104,208.2L104,208.2z M107.5,208.2
			C107.5,208.2,107.4,208.3,107.5,208.2c-0.1,0.1-0.1,0.1-0.1,0.2c0,0,0,0,0.1,0h0.1c0,0,0.1,0,0.1-0.1
			C107.6,208.3,107.6,208.3,107.5,208.2C107.6,208.2,107.5,208.2,107.5,208.2 M101.5,208.2C101.4,208.2,101.4,208.3,101.5,208.2
			c-0.1,0.1,0,0.2,0,0.2c0.1,0,0.3,0.1,0.3-0.1c0,0,0-0.1-0.1-0.1H101.5z M102.5,208.2c-0.3,0.2-0.4-0.1-0.6,0.1v0.3
			c0.1,0.1,0.4,0.3,0.5,0.2C102.5,208.6,102.7,208.4,102.5,208.2C102.6,208.2,102.6,208.2,102.5,208.2 M99.3,208.1
			c0,0-0.1,0.1-0.1,0.1c0,0.1,0,0.2,0.1,0.3h0c0,0,0,0,0.1,0c0.1,0,0.2-0.2,0.1-0.3C99.4,208.2,99.4,208.2,99.3,208.1 M108.5,208.1
			c-0.1,0.1-0.2,0.1-0.2,0.3c0,0,0,0,0,0c0.1,0,0.2,0.1,0.2,0.1c0.1,0,0.1-0.4,0.1-0.5C108.6,208.1,108.5,208.1,108.5,208.1
			 M97.7,208.1c0,0.1-0.1,0.1-0.1,0.2c0.1,0.1,0.1,0.3,0.1,0.4c0.1,0.3-0.2,0.6,0,0.8c0,0,0,0,0.1,0c0.1-0.1,0.2-0.2,0.4-0.3
			c0-0.6-0.2-0.4-0.3-0.7c0-0.2,0-0.3-0.1-0.4H97.7z M99.7,208.1c0,0-0.1,0-0.1,0.1c0,0,0,0.1,0,0.1c0,0,0,0,0.1,0h0.1
			c0,0,0,0,0.1,0C99.8,208.1,99.8,208.1,99.7,208.1C99.8,208.1,99.7,208.1,99.7,208.1 M106.2,208C106.2,208,106.2,208.1,106.2,208
			c-0.1,0.2,0,0.2,0,0.3h0c0,0,0.1,0,0.1-0.1C106.3,208.1,106.3,208.1,106.2,208L106.2,208z M100.6,208c-0.1,0.1-0.3,0.2-0.4,0.2
			c-0.2,0.1-0.2,0-0.4,0.1c0,0.1-0.1,0.5,0,0.6h0c0.2-0.1,0.3-0.3,0.5-0.4c0.2-0.1,0.4,0,0.6-0.2v0C100.9,208.1,100.8,208,100.6,208
			 M103.5,207.9C103.4,207.9,103.4,207.9,103.5,207.9c0,0.1,0,0.2,0,0.3c0.1,0,0.1,0,0.2-0.1C103.7,208,103.6,207.9,103.5,207.9
			 M106.5,207.9c-0.1,0.1-0.3,0.9-0.2,1h0c0,0,0,0,0.1,0c0.2-0.1,0.3-0.5,0.4-0.7h0c0,0.1,0,0.1,0.1,0.2c0.1,0,0.2,0,0.2,0
			c0,0,0-0.1,0-0.1c0-0.1-0.1-0.2-0.1-0.2C106.9,207.9,106.7,207.9,106.5,207.9 M105.2,207.9c-0.1,0.1-0.1,0.1-0.1,0.2
			c0.1,0.1,0.1,0.1,0.2,0.1C105.4,208.1,105.5,207.9,105.2,207.9 M103,207.8c-0.1,0.1-0.2,0.3-0.1,0.5c0.1,0,0.2,0,0.3,0
			c0-0.1,0-0.1,0-0.2C103.1,207.9,103.1,207.8,103,207.8 M109.1,207.8c-0.1,0.1,0,0.1,0,0.2h0c0,0,0.1,0,0.1-0.1c0,0,0,0,0-0.1
			c0,0,0-0.1,0-0.1C109.2,207.8,109.2,207.8,109.1,207.8 M102.5,207.8c-0.1,0.1-0.2,0.1-0.2,0.1c0,0,0,0.1,0,0.1
			c0.2,0,0.2-0.1,0.3-0.1C102.7,207.9,102.6,207.8,102.5,207.8L102.5,207.8L102.5,207.8z M108.1,207.7c-0.1,0.1-0.2,0.1-0.2,0.2
			c0,0,0.1,0.1,0.1,0.1c0.1,0,0.1,0,0.2-0.1c0-0.1,0-0.1,0.1-0.1c0-0.1,0-0.1,0-0.2H108.1z M99,207.7c0,0-0.1,0-0.1,0.1
			c0,0.1-0.1,0.2,0,0.3c0,0,0,0,0,0.1H99C99.1,208,99.2,207.9,99,207.7L99,207.7L99,207.7z M100.9,207.7
			C100.9,207.7,100.8,207.8,100.9,207.7c0,0.1,0,0.2,0,0.2c0.1,0,0.1,0.1,0.3,0.1c0,0,0,0,0,0c0-0.1,0-0.1-0.1-0.2
			C101,207.8,101,207.7,100.9,207.7 M102,207.7c-0.1,0-0.1,0.1-0.2,0.1v0.1c0,0,0,0.1,0,0.1c0.1,0,0.2-0.1,0.2-0.1c0,0,0-0.1,0-0.1
			C102.2,207.7,102.1,207.7,102,207.7L102,207.7z M111.9,207.6C111.9,207.7,111.9,207.7,111.9,207.6c0,0.1,0,0.2,0,0.2
			c0.1,0,0.1,0,0.2,0v0c0-0.1,0-0.1,0-0.1H111.9z M97.4,207.6c-0.1,0.1-0.1,0.1,0,0.2c0.1,0,0.1,0,0.2,0c0,0,0-0.1,0.1-0.1
			c0-0.1,0-0.1,0-0.1C97.6,207.7,97.5,207.6,97.4,207.6 M111.5,207.6C111.5,207.6,111.5,207.7,111.5,207.6c-0.1,0.2-0.1,0.3,0,0.4
			c0,0,0,0,0,0c0.1,0,0.1,0,0.2,0c0-0.1,0-0.3,0-0.4H111.5z M107.1,207.6C107.1,207.6,107.1,207.7,107.1,207.6l-0.1,0.1
			c0,0,0,0,0.1,0c0.1,0,0.1,0,0.2-0.1v0v0c0,0,0,0,0,0H107.1z M98.2,207.6c0,0-0.1,0.1-0.1,0.1c0,0.1,0,0.1,0,0.2
			c0.1,0.1,0.2,0.1,0.4,0.1c0,0,0.1-0.1,0.1-0.1c0,0,0-0.1,0-0.1C98.6,207.8,98.3,207.6,98.2,207.6 M111,207.5
			c-0.1,0.1-0.2,0.2-0.1,0.3c0.1,0,0.1,0,0.2,0c0-0.1,0-0.1,0.1-0.2C111.1,207.6,111.1,207.5,111,207.5L111,207.5z M101.5,207.5
			c-0.1,0.1-0.1,0.1-0.1,0.1c0,0.2,0.1,0.2,0.2,0.3c0,0,0.1,0,0.1-0.1c0-0.1,0-0.2,0-0.4c0,0,0,0-0.1-0.1H101.5z M97.9,207.5
			c0,0-0.1,0.1-0.1,0.1c0,0.1,0,0.1,0.1,0.1h0.1c0,0,0-0.1,0.1-0.1C98,207.5,98,207.5,97.9,207.5 M110.4,207.4
			c-0.2,0.1-0.3,0.3-0.4,0.5c0,0,0,0.1,0.1,0.1C110.3,208.1,110.6,207.6,110.4,207.4L110.4,207.4z M104.9,207.4
			c-0.1,0.1-0.5,0.2-0.5,0.3c-0.2,0-0.4,0-0.6-0.1c-0.1,0.2,0,0.3,0.1,0.4h0c0.2,0,0.4-0.1,0.6-0.1c0.1,0,0.2,0,0.3,0.1
			c0,0.1,0,0.1,0.1,0.2h0.1c0.1-0.1,0.1-0.2,0-0.3c-0.1,0-0.1,0-0.2,0c0-0.1,0-0.2,0-0.2c0.1-0.1,0.2-0.2,0.2-0.3
			C105,207.4,104.9,207.4,104.9,207.4L104.9,207.4z M100.6,207.3c-0.1,0.1-0.1,0.1-0.2,0.2c0,0.1,0,0.2,0,0.3c0,0,0,0,0,0
			c0.1,0,0.1,0,0.2,0c0-0.1,0.1-0.2,0.1-0.4C100.7,207.4,100.7,207.4,100.6,207.3L100.6,207.3z M103.1,207.3c0,0-0.1,0-0.1,0.1v0
			c0,0.1,0,0.1,0.1,0.2h0c0.2,0,0.2-0.1,0.3-0.1c0-0.1,0-0.1,0-0.1C103.3,207.3,103.2,207.3,103.1,207.3 M111.6,207.2
			c0,0-0.1,0.1-0.1,0.1v0c0,0.1,0,0.1,0,0.2h0c0.1,0,0.2,0,0.2-0.1c0-0.1,0-0.1,0-0.1H111.6z M105.9,207.2c-0.1,0.1-0.3,0.5-0.2,0.7
			c0,0,0.1,0,0.1,0C105.9,207.8,106.1,207.5,105.9,207.2C105.9,207.2,105.9,207.2,105.9,207.2 M98.4,207.2c0,0.1-0.1,0.1-0.1,0.2
			c0,0,0,0,0.1,0.1c0,0,0.1,0,0.1,0c0,0,0.1,0,0.1,0C98.6,207.3,98.6,207.3,98.4,207.2C98.5,207.2,98.5,207.2,98.4,207.2
			 M103.9,207.2c0,0-0.1,0.1-0.1,0.1c0,0.1,0.1,0.2,0.2,0.1c0,0,0.1-0.1,0.1-0.1C104,207.2,104,207.2,103.9,207.2L103.9,207.2z
			 M107.7,207.1C107.6,207.2,107.6,207.2,107.7,207.1c0,0.2,0,0.3,0.1,0.4c0,0,0.1,0,0.1,0c0,0,0,0,0,0c0-0.1,0-0.2,0-0.2
			C107.8,207.2,107.8,207.2,107.7,207.1L107.7,207.1z M101.3,207.1C101.3,207.2,101.3,207.2,101.3,207.1c-0.1,0.1-0.1,0.1-0.1,0.2
			c0,0,0.1,0.1,0.1,0.1c0,0,0.1-0.1,0.1-0.1v-0.1C101.5,207.2,101.4,207.2,101.3,207.1L101.3,207.1z M104.3,207.1
			C104.3,207.1,104.3,207.2,104.3,207.1c-0.1,0.1-0.1,0.2,0,0.2c0,0,0,0,0,0.1c0.1,0,0.1,0,0.1-0.1
			C104.4,207.2,104.4,207.2,104.3,207.1L104.3,207.1z M107.3,207c-0.1,0.1-0.2,0.3-0.1,0.4h0c0.1,0,0.2,0,0.2-0.1v0
			C107.4,207.2,107.4,207.1,107.3,207L107.3,207z M99.7,207c-0.1,0.2,0,0.5,0.1,0.6c0,0,0.1,0,0.1,0c0,0,0.1,0,0.1-0.1
			c0-0.2,0-0.4-0.1-0.5C99.8,207,99.8,207,99.7,207 M111.1,206.9c0,0,0,0.1,0,0.1c0,0.1,0.1,0.1,0.1,0.1c0.1,0,0.1,0,0.2,0v0
			c0-0.1,0-0.1,0-0.2C111.2,207,111.2,207,111.1,206.9 M103.2,206.9C103.2,206.9,103.2,206.9,103.2,206.9c-0.1,0.2-0.1,0.2-0.1,0.2
			c0.1,0,0.4,0.1,0.5,0c0,0,0-0.1,0-0.1c0,0,0-0.1-0.1-0.1C103.4,206.9,103.3,206.9,103.2,206.9 M99,206.7c-0.1,0.1-0.2,0.2-0.3,0.2
			c0,0.2,0,0.6,0,0.7h0c0.2,0,0.4-0.1,0.5-0.2c0-0.2,0.1-0.3,0.1-0.5c-0.1-0.1-0.1-0.1-0.2-0.2C99.1,206.7,99.1,206.7,99,206.7
			 M106.8,206.7c-0.1,0-0.1,0-0.2,0c0,0.1,0,0.1,0.1,0.2c0.1,0,0.1,0,0.2,0c0,0,0.1-0.1,0.1-0.1v0
			C106.9,206.7,106.9,206.7,106.8,206.7L106.8,206.7z M104.6,206.7c0,0.1-0.1,0.1,0,0.2c0,0,0.1,0.1,0.1,0.1
			C104.9,206.9,104.9,206.6,104.6,206.7 M100.8,206.7C100.8,206.7,100.8,206.7,100.8,206.7c-0.1,0.1,0,0.1,0,0.1h0h0.1c0,0,0,0,0,0
			C100.9,206.7,100.9,206.7,100.8,206.7L100.8,206.7z M101.2,206.7C101.2,206.7,101.2,206.7,101.2,206.7c0,0.2-0.1,0.2,0,0.2
			c0,0,0,0.1,0.1,0.1c0.1,0,0.2,0,0.2,0c0,0,0-0.1,0-0.1c0,0,0-0.1,0-0.1C101.4,206.7,101.3,206.7,101.2,206.7 M108.8,206.6
			C108.8,206.7,108.8,206.7,108.8,206.6c-0.1,0.2-0.2,0.3-0.1,0.4c0,0,0.1,0,0.1,0c0,0,0,0,0.1,0
			C108.9,206.9,108.9,206.7,108.8,206.6L108.8,206.6z M108.3,206.6C108.2,206.6,108.2,206.7,108.3,206.6c-0.1,0.2-0.1,0.2-0.1,0.3
			c0.1,0,0.1,0,0.1,0c0.1-0.1,0.2-0.1,0.1-0.3C108.4,206.6,108.3,206.6,108.3,206.6 M102.8,206.5c-0.4,0.5-0.3,0.2-0.8,0.4
			c-0.1,0.2-0.2,0.3-0.1,0.5c0.2,0,0.3-0.2,0.4-0.1c0.2,0,0.2,0.1,0.3,0.2c0.3-0.2,0.2-0.6,0.3-1
			C102.9,206.6,102.9,206.5,102.8,206.5L102.8,206.5z M103.9,206.5c-0.1,0.1-0.1,0.3,0,0.4c0.1,0,0.2,0,0.3-0.1v-0.1
			C104.1,206.7,104,206.5,103.9,206.5 M100.1,206.5c0,0.1-0.1,0.1-0.1,0.2c0.1,0.1,0.2,0.1,0.2,0.2c0,0.1,0,0.2,0.1,0.2
			c0.1,0,0.1,0,0.2-0.1c0-0.1,0-0.4,0-0.5C100.4,206.6,100.3,206.6,100.1,206.5 M99.4,206.5C99.4,206.5,99.4,206.6,99.4,206.5
			c0,0.1,0,0.2,0,0.2c0.1,0,0.1,0,0.2,0c0-0.1,0-0.1,0-0.2C99.5,206.5,99.5,206.5,99.4,206.5 M107.4,206.5
			C107.4,206.5,107.4,206.5,107.4,206.5c-0.1,0.2-0.1,0.2,0,0.3c0.2,0,0.3,0,0.4,0c0,0,0,0,0,0C107.8,206.4,107.6,206.4,107.4,206.5
			 M109.2,206.4C109.2,206.5,109.1,206.5,109.2,206.4c0,0.2,0,0.2,0,0.2c0,0,0,0,0,0c0,0,0.1,0,0.1,0c0,0,0,0,0.1,0
			c0-0.1,0-0.1-0.1-0.2L109.2,206.4C109.2,206.4,109.2,206.4,109.2,206.4 M106.1,207c0,0.2,0,0.3,0,0.4c0,0,0,0,0,0
			c0.2,0,0.3,0,0.5,0c0.1-0.1,0.3-0.2,0.2-0.4c-0.1,0-0.3,0-0.4,0c-0.1-0.4-0.4-0.4-0.8-0.4c0-0.1-0.1-0.2-0.1-0.2
			c-0.2,0-0.4,0-0.5,0c0,0-0.1,0.1-0.1,0.1c0,0,0,0.1,0,0.1c0,0.1,0.1,0.1,0.1,0.1c0,0.2-0.2,0.4-0.1,0.6h0c0.1-0.1,0.2-0.1,0.3-0.2
			c0,0.1,0,0.4,0.1,0.5c0,0,0.1,0,0.1,0c0.2-0.2,0.1-0.5,0.2-0.7h0C105.9,206.9,105.9,207,106.1,207 M105.9,206.3c0,0,0,0.1-0.1,0.1
			c0,0,0,0,0,0.1C106,206.5,106,206.4,105.9,206.3L105.9,206.3z M104.7,206.2c-0.1,0.1-0.1,0.1-0.1,0.2c0,0,0,0,0.1,0h0.1
			c0,0,0.1-0.1,0.1-0.1v0C104.8,206.3,104.7,206.3,104.7,206.2 M100.8,206.2C100.7,206.3,100.7,206.3,100.8,206.2c0,0.1,0,0.2,0,0.2
			h0h0.1c0,0,0-0.1,0.1-0.1C100.9,206.3,100.9,206.3,100.8,206.2L100.8,206.2z M99.8,206.2C99.8,206.2,99.8,206.3,99.8,206.2
			c-0.1,0.2,0,0.3,0,0.4h0c0,0,0.1,0,0.1,0c0-0.2,0-0.2,0-0.3H99.8z M101.7,206.2C101.7,206.2,101.6,206.3,101.7,206.2
			c-0.1,0.2-0.1,0.2-0.1,0.3h0c0.1,0,0.1-0.1,0.2-0.2C101.8,206.3,101.8,206.2,101.7,206.2L101.7,206.2z M100.4,206.1
			c-0.1,0.1-0.2,0.2-0.1,0.3h0c0.1,0,0.1,0,0.2-0.1C100.5,206.2,100.5,206.1,100.4,206.1L100.4,206.1z M109.3,206
			C109.3,206.1,109.3,206.1,109.3,206c0,0.1,0,0.1,0,0.1h0h0.1c0,0,0,0,0,0C109.4,206.1,109.4,206.1,109.3,206L109.3,206L109.3,206z
			 M102.6,206C102.6,206,102.6,206,102.6,206c0,0.2,0,0.2,0,0.3c0.1,0,0.2,0,0.2-0.1C102.7,206.1,102.7,206,102.6,206L102.6,206z
			 M108.4,206c-0.1,0.1-0.1,0.1-0.2,0.2c0,0.1,0.1,0.2,0.2,0.2c0.1,0,0.1,0,0.1,0C108.6,206.3,108.6,206.1,108.4,206L108.4,206z
			 M105.6,205.9c-0.1,0.1-0.2,0.1-0.1,0.3c0.1,0,0.1,0,0.2-0.1v0C105.6,206,105.6,206,105.6,205.9L105.6,205.9L105.6,205.9z
			 M103.1,205.9c-0.1,0.1-0.1,0.1-0.2,0.2c0,0.1,0,0.3,0.1,0.4h0c0,0,0.1,0,0.1,0c0-0.2,0.1-0.3,0.1-0.5
			C103.1,205.9,103.1,205.9,103.1,205.9 M102.2,205.8c-0.1,0.1-0.1,0.2-0.2,0.2c0,0,0,0.1,0,0.1c0,0,0.1,0,0.1,0
			c0.1-0.1,0.1-0.1,0.2-0.2C102.4,205.9,102.4,205.8,102.2,205.8 M106.4,205.8C106.4,205.8,106.4,205.8,106.4,205.8
			c0,0.2,0,0.2,0,0.3h0C106.6,206,106.5,205.8,106.4,205.8L106.4,205.8z M103.7,205.7C103.7,205.7,103.7,205.7,103.7,205.7
			c-0.1,0.2-0.1,0.4,0,0.4h0.1c0,0,0,0,0.1,0c0-0.1,0-0.2,0-0.3C103.8,205.8,103.8,205.7,103.7,205.7L103.7,205.7z M106,205.6
			c0,0.1-0.1,0.1-0.1,0.2v0.1c0,0,0,0,0.1,0.1h0.1C106.1,205.8,106.2,205.7,106,205.6L106,205.6z M101.6,205.6
			C101.6,205.6,101.6,205.6,101.6,205.6c-0.1,0.2-0.1,0.2,0,0.2c0,0,0.1,0,0.1,0c0,0,0.1-0.1,0.1-0.1c0,0,0-0.1,0-0.1c0,0,0,0,0-0.1
			C101.7,205.6,101.7,205.6,101.6,205.6 M102.9,205.5C102.9,205.5,102.9,205.5,102.9,205.5c0,0.1,0,0.1,0,0.1h0h0.1
			C103,205.6,103,205.6,102.9,205.5L102.9,205.5C103,205.5,103,205.5,102.9,205.5 M104.2,205.4c-0.1,0.1-0.1,0.1-0.1,0.3
			c0.4,0.3-0.1,0.6,0.1,1c0.1,0,0.1,0,0.2,0c0-0.3,0.2-0.4,0.2-0.7C104.5,205.7,104.5,205.5,104.2,205.4L104.2,205.4z M105.5,205.3
			c-0.1,0.1-0.1,0.2,0,0.3c0,0,0.1,0,0.1,0c0-0.1,0.1-0.1,0.1-0.2c0,0,0,0,0,0C105.6,205.4,105.6,205.4,105.5,205.3L105.5,205.3z
			 M103.5,205.1c0,0-0.1,0.1-0.1,0.1c0,0.1,0,0.1,0,0.1c0,0.1,0.1,0.1,0.1,0.1c0.1,0,0.1,0,0.1-0.1v0
			C103.7,205.2,103.6,205.1,103.5,205.1 M104.5,205.1c-0.1,0.1-0.1,0.2,0,0.3c0.1,0,0.2,0,0.2-0.1c0-0.1,0-0.1,0-0.2H104.5z
			 M113.3,208.8L113.3,208.8c0.2,0.1,0.3,0.2,0.3,0.3c0,0.1,0,0.2,0,0.3c0.1,0.3,0.3,0,0.4,0.1c0.1,0,0.1,0.1,0.2,0.1
			c0,0.1,0,0.1,0.1,0.1c-0.2,0-0.3,0-0.5,0c0,0.1,0,0.1,0,0.2c0.2,0,0.4,0,0.6-0.1c0,0,0.1,0.1,0.1,0.1v0c-0.1,0-0.2,0-0.2,0.1
			c0,0,0.1,0.1,0.1,0.1c0.1,0,0.1,0,0.2,0c0,0,0-0.1,0-0.1c0,0,0,0,0,0c0.1,0.3,0.3,0.4,0.4,0.7c0,0-0.1,0-0.1,0v0.1
			c0,0.1,0.1,0.1,0.2,0.1c0,0.1-0.1,0.4,0,0.5c0,0.1,0.1,0.2,0.2,0.3c-0.1,0-0.1,0-0.2,0c0,0.1,0.1,0.3,0,0.4c-0.1,0-0.1,0-0.2,0.1
			c-0.2-0.1-0.3-0.4-0.6-0.4c-0.1,0.2-0.5,1.1-0.4,1.2c0.3,0,0.3-0.3,0.5-0.4c0.1-0.1,0.4-0.1,0.6-0.1c0,0,0,0,0,0
			c0.1,0.2-0.1,0.5,0,0.7c0.2,0,0.3-0.3,0.5-0.4c0,0.3-0.2,0.4-0.2,0.8c0,0,0,0,0,0.1c0.1,0,0.1,0,0.2-0.1c0-0.1,0-0.1,0.1-0.2
			c0,0.1,0,0.2,0,0.3c-0.1,0-0.1,0.1-0.1,0.2h-0.3c0-0.1-0.1-0.2-0.2-0.2c-0.1,0.2-0.3,0.4-0.4,0.6c-0.4,0-0.7-0.4-1-0.1
			c-0.1,0.1-0.6,0.4-0.9,0.4c-0.2,0-0.2-0.1-0.4-0.1c-0.1,0.4,0,0.5-0.2,0.8c-0.1,0-0.2-0.1-0.3-0.1c-0.1,0-0.2,0.1-0.3,0.1
			c-0.1,0-0.2,0-0.3-0.1c0,0-0.1,0.1-0.1,0.1c-0.1,0.4-0.3,0.3-0.6,0.4c0,0.1,0,0.3-0.1,0.4c-0.2,0.3-0.6,0-0.8,0
			c0,0-0.1,0.1-0.1,0.1c-0.1,0.3,0.2,0.9-0.1,1.1c-0.3,0.2-0.9,0.1-1.2,0.3c-0.2,0.1-0.3,0.4-0.5,0.5c-0.1,0-0.1,0-0.2,0
			c-0.2,0.1-0.2,0.3-0.4,0.5c-0.1,0.2-0.3,0.3-0.4,0.5c-0.1,0.2-0.2,0.5-0.3,0.8c0,0.1,0,0.2,0,0.2c-0.2,0.3-0.4,1.3-0.1,1.7
			c0.1,0.1,0.3,0.1,0.4,0.2c0.2,0,0.4,0,0.7,0c0,0,0.1,0.1,0.1,0.1c0.1,0.1,0.2-0.1,0.3,0c0.1,0.1,0.2,0.2,0.3,0.3
			c0.1,0.1,0.2,0.2,0.3,0.4c0,0,0,0,0,0.1c-0.2,0-0.2-0.1-0.3-0.1c-0.1,0-0.2,0-0.3,0.1c-0.1,0-0.2-0.2-0.3-0.2
			c-0.3,0.2-0.8,0.1-1.3,0c-0.1,0-0.1,0.1-0.2,0.1c0,0.1,0,0.3,0,0.4h-0.1c0-0.1,0-0.4-0.1-0.5c-0.4,0-0.6,0.1-1,0
			c-0.1,0-0.1,0.1-0.2,0c-0.1,0-0.1-0.1-0.2-0.1c-0.3,0-0.7,0.1-0.9,0.2c-0.1,0-0.2-0.1-0.3-0.1c-0.1,0.1-0.2,0.1-0.3,0.2
			c-0.1,0-0.2,0-0.2,0c-0.1,0-0.1,0.1-0.2,0.2c-0.2,0.1-0.5-0.1-0.6-0.1c0-0.1-0.1-0.3-0.1-0.4c0.3-0.1,0.4,0,0.6,0
			c0.2-0.1,0.4-0.3,0.6-0.4h0.5c0.3-0.1,0.7-0.3,0.9-0.5c0-0.7-0.1-1.4-0.3-1.9c0-0.2-0.1-0.3-0.1-0.5c-0.1-0.1-0.4-0.1-0.5-0.1
			c-0.1-0.2-0.1-0.4-0.4-0.4c-0.1,0.2-0.2,0.2-0.5,0.3c-0.3-0.1-0.4-0.5-0.4-0.8c0,0,0.1,0,0.1-0.1c0-0.1,0-0.1-0.1-0.2
			c-0.2,0-0.2,0-0.3,0.1c0,0.3-0.1,0.3-0.1,0.5c0.2,0.1,0.3,0.4,0.5,0.5c0.1,0.4-0.2,0.5-0.4,0.7c0,0.1,0,0.1,0.1,0.2
			c0.2,0,0.2,0,0.3,0.1c0,0.1,0,0.2,0,0.3c-0.1,0.1-0.1,0.2-0.2,0.2c-0.2,0.2-0.6,0.3-0.9,0.3c0,0,0,0,0,0c0-0.1,0-0.1,0-0.2
			c0.2-0.1,0.5-0.4,0.4-0.7h-0.1c-0.1,0-0.1,0.1-0.2,0.2c-0.1,0.1-0.2,0.1-0.3,0.1c-0.2-0.1-0.3-0.7-0.2-0.9
			c0.1-0.1,0.2-0.1,0.2-0.3c-0.1-0.1-0.1-0.1-0.2-0.1c0,0-0.1,0.1-0.1,0.1c-0.1,0.2-0.5,0.6-0.6,0.7h0c0-0.2,0-0.3,0-0.4
			c0-0.1-0.1-0.5-0.1-0.6c0-0.2,0.2-0.2,0.2-0.4c0,0-0.1,0-0.1-0.1c-0.2,0-0.3,0.2-0.4,0.3c0,0-0.1,0-0.1,0c0-0.1-0.1-0.2-0.2-0.2
			c-0.1,0.1-0.2,0.2-0.2,0.3c-0.2,0-0.5-0.1-0.5-0.3c0.2-0.3,0.7-0.8,0.8-1.2c-0.1,0-0.1-0.1-0.2-0.1c-0.1,0-0.1,0-0.1,0.1
			c0,0.3-0.2,0.7-0.5,0.8c0,0,0,0,0,0c0-0.1,0-0.3-0.1-0.4c-0.1,0-0.1,0-0.1,0c0,0.3-0.2,0.4-0.3,0.5c-0.1,0-0.2-0.1-0.2,0
			c-0.1,0-0.2,0.2-0.3,0.3c-0.1,0-0.2,0-0.2,0c0,0-0.1-0.1-0.1-0.1c0-0.1-0.1-0.2,0-0.4c0.1-0.2,0.3-0.2,0.2-0.5c0,0,0,0-0.1,0
			c-0.2,0-0.5,0.3-0.7,0.4c0,0-0.1,0-0.1,0c0,0,0-0.1,0-0.1c0.1-0.1,0.2-0.4,0.2-0.6c-0.6,0-0.4,0.3-0.8,0.4c0-0.1,0-0.1-0.1-0.2
			c-0.2,0-0.2,0.1-0.3,0.2c0,0-0.3,0-0.4,0c-0.1-0.1-0.2-0.2-0.2-0.3c-0.1,0-0.2,0-0.3,0c0,0,0,0,0,0c0-0.1,0-0.2-0.1-0.2
			c-0.1,0-0.2-0.1-0.3-0.1c0-0.1-0.1-0.1-0.1-0.2c0.2,0,0.4,0,0.5-0.1c0.1-0.2,0.2-0.3,0.3-0.4c0.2,0.1,0.2,0.2,0.3,0.3
			c0,0,0.1,0,0.1-0.1c0-0.2-0.1-0.3-0.1-0.4c-0.2,0-0.3,0-0.4-0.1c0,0-0.1-0.1-0.1-0.1h-0.2c-0.1-0.1-0.2-0.1-0.3-0.2
			c-0.1-0.1-0.1-0.3-0.3-0.4c-0.2,0-0.3,0-0.4,0c0-0.4-0.1-0.4,0-0.7c0.1-0.1-0.1-0.3,0-0.4c0,0,0.1,0,0.1-0.1
			c0.1,0,0.1,0.1,0.2,0.1c0,0,0,0,0.1-0.1c0-0.1,0-0.3,0-0.4c0.1-0.1,0.2-0.1,0.3-0.2c0-0.1,0.1-0.2,0.1-0.4
			c0.1-0.1,0.4-0.2,0.6-0.1c0.4,0.1,0.2,0.4,0.3,0.7c0,0,0,0,0,0c0.3,0,0.2-0.2,0.3-0.3c0.2-0.2,0.5,0,0.7,0
			c0.1,0.2,0.2,0.3,0.2,0.5c-0.2,0.1-0.3,0.2-0.3,0.5c0.1,0.1,0.3,0.2,0.5,0.3c0,0,0.1,0,0.1,0c0-0.2-0.1-0.2-0.1-0.4
			c0.1-0.3,0.3-0.4,0.5-0.7c0-0.2-0.1-0.3,0-0.4c0.2,0,0.2-0.2,0.4-0.2c0.1,0,0.2-0.1,0.4-0.1v0c0,0,0-0.1-0.1-0.1
			c-0.3-0.1-0.3,0.1-0.6,0c-0.2-0.1-0.4-0.6-0.7-0.3c0,0.2,0.3,0.2,0.4,0.3c0,0.1,0.1,0.1,0.1,0.2c0,0.2-0.1,0.3-0.3,0.4
			c-0.3-0.1-0.4-0.2-0.5-0.3c-0.3,0.1-0.5,0.2-0.8,0.2c-0.1-0.2-0.3-0.5-0.4-0.6h-0.1c-0.1,0.1-0.2,0.2-0.4,0.2
			c-0.1-0.1-0.1-0.2-0.2-0.2c0-0.3,0-0.6,0-0.9c0,0,0.1-0.1,0.1-0.1c0,0,0,0,0,0c0.1,0.2,0.3,0.7,0.6,0.5c0-0.2-0.2-0.3-0.1-0.5
			c0.4,0,0.8,0,0.9,0.2c0,0.1,0.1,0.2,0.1,0.2H96c0,0,0-0.1,0.1-0.1c0-0.3-0.1-0.7-0.3-0.7c0-0.2,0-0.3,0-0.5c0,0,0,0,0-0.1
			c-0.1,0-0.2,0.2-0.2,0.2h-0.1c0-0.3-0.1-0.5-0.1-0.7c0.1-0.1,0.1-0.1,0.2-0.2c0-0.2-0.1-0.3-0.1-0.6c0.2,0,0.2-0.2,0.2-0.3
			c0.2,0,0.3,0.2,0.5,0.2c0.1,0,0.2-0.3,0.2-0.4c0.1,0,0.2-0.1,0.2-0.1c0-0.6,0.2-0.8,0.7-0.7c0,0,0.1-0.1,0.1-0.1
			c0-0.1,0-0.2,0-0.3c-0.1-0.1-0.2-0.2-0.3-0.3c0,0,0,0,0,0c0.1-0.1,0.7-0.6,0.8-0.7c0.1-0.1,0.2,0,0.3,0c0.1-0.4,0.5-0.5,0.9-0.7
			c0.1,0,0.1-0.1,0.1-0.2l0.4-0.2c0.1-0.1,0.3,0,0.5,0c0.1-0.1,0.1-0.1,0.1-0.2c0.1,0,0.3-0.1,0.4-0.1c0.1,0,0.3,0.2,0.6,0.1
			c0.2-0.1,0.2-0.6,0.6-0.4c0,0.1,0.1,0.3,0.2,0.3c0,0,0.1,0,0.1,0c0.1-0.1,0.1-0.1,0.1-0.3c-0.3-0.2,0.1-0.4,0.2-0.4
			c0,0,0.1,0,0.1,0c0,0.2-0.1,0.5-0.1,0.6c0,0,0,0,0,0.1c0.1,0,0.1,0,0.2-0.1c0-0.2,0-0.4,0.1-0.6c0.4,0,0.7,0,1.1,0
			c0,0.1-0.1,0.3,0,0.4h0.1c0,0,0.1-0.1,0.1-0.1c0-0.1,0-0.2,0-0.3h0.1c0.1,0,0.4,0,0.5,0.1c0,0.2,0,0.4,0,0.5h0.3
			c0.2-0.2,0.2-0.4,0.5-0.5c0,0,0.1,0,0.1,0.1c0,0.2,0.1,0.3,0.2,0.3c0.1,0,0.1-0.1,0.1-0.1c0-0.1,0-0.2-0.1-0.3
			c0.1-0.1,0.1-0.1,0.1-0.2c0.1-0.1,0.2,0,0.3,0c0,0.2-0.1,0.4-0.1,0.5c0.1,0,0.1,0,0.2-0.1c0-0.1,0.1-0.2,0.1-0.3h0
			c0,0,0.1,0,0.1,0c0,0.1,0,0.2,0,0.3c0.1,0,0.1,0,0.2-0.1v0c0,0,0,0.1,0,0.1c-0.1,0.1-0.2,0.2-0.3,0.4c0,0.1,0,0.3,0.1,0.3
			c0.4,0.1,0.9,0,1.2,0.2c0,0,0.1,0,0.1-0.1v-0.1c-0.1-0.2-0.3-0.3-0.5-0.5c0.1-0.2,0.1-0.4,0.2-0.5c0.1,0,0.1,0,0.2,0
			c0.1,0.1,0.2,0.3,0.3,0.4c0.2,0,0.3-0.3,0.5-0.3c0,0.3-0.1,0.7,0.1,0.9c0.1,0,0.1,0,0.2-0.1c0-0.3,0.2-0.4,0.4-0.5c0,0,0,0,0.1,0
			c0.1,0.1,0.2,0.2,0.2,0.4c-0.1,0.1-0.2,0.2-0.1,0.4c0,0,0.1,0,0.1,0c0,0.1,0,0.2,0,0.3c-0.1,0-0.3,0.3-0.3,0.4
			c-0.2,0-0.5,0-0.7,0.1c-0.2-0.1-0.3-0.3-0.6-0.2c0,0.2,0.1,0.3,0.2,0.4c0.3,0,0.8,0.2,0.9,0.1c0.1-0.3,0.4-0.5,0.7-0.5
			c0,0,0,0,0,0c0,0.5-0.3,0.6-0.4,0.8v0.1c0.3,0.3,0.3-0.1,0.4-0.3c0,0,0.1,0,0.1-0.1c0.1-0.2,0.2-0.4,0.3-0.6c0,0,0.1,0,0.1,0
			c0,0.1,0.1,0.1,0.1,0.2c0.2,0,0.3-0.1,0.4-0.1c0-0.2,0.1-0.3,0-0.5c-0.1,0-0.2,0-0.2-0.1c0.2,0,0.3,0.1,0.4,0.1
			c0.1,0,0.2-0.1,0.3-0.1c0.2,0.2,0.5,0.3,0.7,0.5c0,0.1,0,0.2,0,0.2c0.1,0,0.2-0.1,0.3,0c0.2,0.1,0.3,0.4,0.4,0.5v0.1
			c-0.1,0-0.3-0.2-0.4-0.1c-0.1,0.2-0.2,0.2-0.3,0.3c0,0-0.2,0.6-0.2,0.7c0.1,0.1,0.2,0.2,0.3,0.1c0-0.1,0-0.2,0-0.2
			c0.2-0.1,0.5-0.3,0.8-0.2c0.1,0.1,0.1,0.2,0.1,0.3c-0.1,0.1-0.1,0.2,0,0.3C113.2,209.2,113.3,209,113.3,208.8L113.3,208.8z"/>
	</g>
	<g>
		<defs>
			<rect id="SVGID_00000179633698731765508560000005600784247253826239_" x="-175.3" y="-557.2" width="1207.6" height="858.9"/>
		</defs>
		<clipPath id="SVGID_00000077322253407617944490000007247476421392866748_">
			<use xlink:href="#SVGID_00000179633698731765508560000005600784247253826239_"  style="overflow:visible;"/>
		</clipPath>
		<path id="path3619" style="clip-path:url(#SVGID_00000077322253407617944490000007247476421392866748_);fill:#2E3192;" d="
			M101.7,226.3h-0.3v-1c-0.1,0-0.2,0.1-0.3,0.1c-0.1,0-0.3,0.1-0.4,0.1v-0.2c0.2,0,0.4-0.1,0.5-0.2c0.1-0.1,0.2-0.1,0.3-0.2h0.2
			V226.3z"/>
	</g>
	<g>
		<defs>
			<rect id="SVGID_00000116235638817949047790000016488437935782494336_" x="-175.3" y="-557.2" width="1207.6" height="858.9"/>
		</defs>
		<clipPath id="SVGID_00000016792488916115011140000017572152181694683304_">
			<use xlink:href="#SVGID_00000116235638817949047790000016488437935782494336_"  style="overflow:visible;"/>
		</clipPath>
		<path id="path3621" style="clip-path:url(#SVGID_00000016792488916115011140000017572152181694683304_);fill:#2E3192;" d="
			M104.3,225.4c0-0.1-0.1-0.2-0.2-0.2c-0.1-0.1-0.2-0.1-0.4-0.1c-0.2,0-0.3,0-0.4,0.1c-0.1,0.1-0.2,0.1-0.2,0.2
			c0,0.1,0.1,0.2,0.2,0.2c0.1,0.1,0.2,0.1,0.4,0.1s0.3,0,0.4-0.1C104.2,225.6,104.3,225.5,104.3,225.4 M102.9,226l0.3,0
			c0,0.1,0.1,0.1,0.2,0.2c0.1,0,0.2,0,0.3,0c0.1,0,0.2,0,0.3,0c0.1,0,0.1-0.1,0.2-0.1c0,0,0.1-0.1,0.1-0.2c0-0.1,0.1-0.1,0.1-0.2
			c0,0,0,0,0,0c-0.1,0.1-0.2,0.1-0.3,0.1c-0.1,0-0.2,0-0.4,0c-0.2,0-0.4,0-0.6-0.1c-0.2-0.1-0.2-0.2-0.2-0.3c0-0.1,0.1-0.2,0.2-0.3
			s0.4-0.1,0.6-0.1c0.2,0,0.3,0,0.5,0.1s0.3,0.1,0.3,0.2c0.1,0.1,0.1,0.2,0.1,0.4c0,0.2,0,0.3-0.1,0.4c-0.1,0.1-0.2,0.2-0.3,0.2
			c-0.2,0.1-0.3,0.1-0.5,0.1c-0.2,0-0.4,0-0.5-0.1C103,226.1,102.9,226.1,102.9,226"/>
	</g>
	<g>
		<defs>
			<rect id="SVGID_00000100353825530124412360000013180897131778111673_" x="-175.3" y="-557.2" width="1207.6" height="858.9"/>
		</defs>
		<clipPath id="SVGID_00000067928916012002927660000006206787480477800581_">
			<use xlink:href="#SVGID_00000100353825530124412360000013180897131778111673_"  style="overflow:visible;"/>
		</clipPath>
		<path id="path3623" style="clip-path:url(#SVGID_00000067928916012002927660000006206787480477800581_);fill:#2E3192;" d="
			M107,226.1v0.2h-1.8c0,0,0-0.1,0-0.1c0-0.1,0.1-0.1,0.2-0.2c0.1-0.1,0.2-0.1,0.4-0.2c0.3-0.1,0.5-0.2,0.6-0.3
			c0.1-0.1,0.2-0.1,0.2-0.2c0-0.1,0-0.1-0.1-0.2c-0.1,0-0.2-0.1-0.4-0.1c-0.2,0-0.3,0-0.4,0.1s-0.1,0.1-0.1,0.2l-0.3,0
			c0-0.1,0.1-0.2,0.3-0.3c0.2-0.1,0.4-0.1,0.6-0.1c0.3,0,0.5,0,0.6,0.1c0.2,0.1,0.2,0.2,0.2,0.3c0,0.1,0,0.1-0.1,0.2
			c0,0-0.1,0.1-0.2,0.2c-0.1,0.1-0.3,0.1-0.5,0.2c-0.2,0.1-0.3,0.1-0.4,0.2c-0.1,0-0.1,0.1-0.1,0.1H107z"/>
	</g>
	<g>
		<defs>
			<rect id="SVGID_00000085933405546534105120000014035918040954940572_" x="-175.3" y="-557.2" width="1207.6" height="858.9"/>
		</defs>
		<clipPath id="SVGID_00000176742253375588070520000009166599093839773625_">
			<use xlink:href="#SVGID_00000085933405546534105120000014035918040954940572_"  style="overflow:visible;"/>
		</clipPath>
		<path id="path3625" style="clip-path:url(#SVGID_00000176742253375588070520000009166599093839773625_);fill:#2E3192;" d="
			M108.8,226.3h-0.3v-1c-0.1,0-0.2,0.1-0.3,0.1c-0.1,0-0.3,0.1-0.4,0.1v-0.2c0.2,0,0.4-0.1,0.5-0.2c0.1-0.1,0.2-0.1,0.3-0.2h0.2
			V226.3z"/>
	</g>
</g>
</svg>
