<?xml version="1.0" encoding="utf-8"?>
<!-- Generator: Adobe Illustrator 28.0.0, SVG Export Plug-In . SVG Version: 6.00 Build 0)  -->
<svg version="1.1" id="svg1" xmlns:svg="http://www.w3.org/2000/svg"
	 xmlns="http://www.w3.org/2000/svg" xmlns:xlink="http://www.w3.org/1999/xlink" x="0px" y="0px" viewBox="0 0 39.1 39.1"
	 style="enable-background:new 0 0 39.1 39.1;" xml:space="preserve">
<style type="text/css">
	.st0{clip-path:url(#SVGID_00000000219249532906401940000012806084891240622492_);fill:#184285;}
	.st1{clip-path:url(#SVGID_00000083059283453214811230000013243927703367239836_);fill:#184285;}
	
		.st2{clip-path:url(#SVGID_00000165915080760981531560000006367628483617132166_);fill-rule:evenodd;clip-rule:evenodd;fill:#184285;}
	
		.st3{clip-path:url(#SVGID_00000024683142632465190810000016970117434378717085_);fill-rule:evenodd;clip-rule:evenodd;fill:#184285;}
	
		.st4{clip-path:url(#SVGID_00000178191585508258630590000011568551563660839075_);fill-rule:evenodd;clip-rule:evenodd;fill:#184285;}
	
		.st5{clip-path:url(#SVGID_00000158717783217591037210000011280807750559588000_);fill-rule:evenodd;clip-rule:evenodd;fill:#184285;}
	
		.st6{clip-path:url(#SVGID_00000124879446121727677470000017527975117615899573_);fill-rule:evenodd;clip-rule:evenodd;fill:#184285;}
	
		.st7{clip-path:url(#SVGID_00000140729683610878522480000001937572364199181987_);fill-rule:evenodd;clip-rule:evenodd;fill:#184285;}
	
		.st8{clip-path:url(#SVGID_00000146494079152781278760000010844465831727925890_);fill-rule:evenodd;clip-rule:evenodd;fill:#184285;}
	
		.st9{clip-path:url(#SVGID_00000087377040483101256360000017848563330572400032_);fill-rule:evenodd;clip-rule:evenodd;fill:#184285;}
	
		.st10{clip-path:url(#SVGID_00000094592598920531125510000003220162791416488367_);fill-rule:evenodd;clip-rule:evenodd;fill:#184285;}
	
		.st11{clip-path:url(#SVGID_00000068639308104561333760000011299154022085754770_);fill-rule:evenodd;clip-rule:evenodd;fill:#184285;}
	
		.st12{clip-path:url(#SVGID_00000039131428862223947120000014967567740480411028_);fill-rule:evenodd;clip-rule:evenodd;fill:#184285;}
	
		.st13{clip-path:url(#SVGID_00000055707927072300817600000009212775072984636807_);fill-rule:evenodd;clip-rule:evenodd;fill:#184285;}
	
		.st14{clip-path:url(#SVGID_00000181044840892540866950000001913960617002370972_);fill-rule:evenodd;clip-rule:evenodd;fill:#184285;}
	
		.st15{clip-path:url(#SVGID_00000093146906116579928560000007400455526593842057_);fill-rule:evenodd;clip-rule:evenodd;fill:#184285;}
	
		.st16{clip-path:url(#SVGID_00000090279220979597081180000005148054239340444344_);fill-rule:evenodd;clip-rule:evenodd;fill:#184285;}
	
		.st17{clip-path:url(#SVGID_00000047781657656787488680000016082092094872493219_);fill-rule:evenodd;clip-rule:evenodd;fill:#184285;}
	
		.st18{clip-path:url(#SVGID_00000010297192204787492450000002664413708934206085_);fill-rule:evenodd;clip-rule:evenodd;fill:#184285;}
	
		.st19{clip-path:url(#SVGID_00000152960484260539433850000013182778168614174619_);fill-rule:evenodd;clip-rule:evenodd;fill:#184285;}
	
		.st20{clip-path:url(#SVGID_00000112611229751383122060000002171227974183411599_);fill-rule:evenodd;clip-rule:evenodd;fill:#184285;}
	
		.st21{clip-path:url(#SVGID_00000109741513038896228390000002347654824430397088_);fill-rule:evenodd;clip-rule:evenodd;fill:#184285;}
	
		.st22{clip-path:url(#SVGID_00000047032154132511251070000015202972852386380175_);fill-rule:evenodd;clip-rule:evenodd;fill:#184285;}
	
		.st23{clip-path:url(#SVGID_00000091710166832338171620000005950161989145149314_);fill-rule:evenodd;clip-rule:evenodd;fill:#184285;}
	
		.st24{clip-path:url(#SVGID_00000172406532217960190750000004482191759737831585_);fill-rule:evenodd;clip-rule:evenodd;fill:#184285;}
	
		.st25{clip-path:url(#SVGID_00000042702326069146302690000008350299231680485297_);fill-rule:evenodd;clip-rule:evenodd;fill:#184285;}
	
		.st26{clip-path:url(#SVGID_00000088831483266822341030000006667314747065396411_);fill-rule:evenodd;clip-rule:evenodd;fill:#184285;}
	
		.st27{clip-path:url(#SVGID_00000147904424359160901380000015581290602925279384_);fill-rule:evenodd;clip-rule:evenodd;fill:#184285;}
	
		.st28{clip-path:url(#SVGID_00000022522033044006130390000009094752894944681147_);fill-rule:evenodd;clip-rule:evenodd;fill:#184285;}
	
		.st29{clip-path:url(#SVGID_00000126304247957606825130000008552535573698994085_);fill-rule:evenodd;clip-rule:evenodd;fill:#184285;}
	
		.st30{clip-path:url(#SVGID_00000075878817156986663910000010360960693312624831_);fill-rule:evenodd;clip-rule:evenodd;fill:#184285;}
	.st31{clip-path:url(#SVGID_00000129910749059556000590000013728512989229734840_);fill:#184285;}
	.st32{clip-path:url(#SVGID_00000115507024400434415760000017206761955916658089_);fill:#184285;}
	.st33{clip-path:url(#SVGID_00000168116482133903669920000016830021805165190551_);fill:#184285;}
	.st34{clip-path:url(#SVGID_00000132789361850497657010000017476954692891647156_);fill:#184285;}
	.st35{clip-path:url(#SVGID_00000020380127987394483360000013371658397251889058_);fill:#184285;}
	.st36{clip-path:url(#SVGID_00000101820497111105510170000012024506134728009127_);fill:#184285;}
</style>
<g id="layer1" transform="translate(-85.282112,-173.97602)">
	<g>
		<defs>
			<rect id="SVGID_1_" x="-175.3" y="-515.9" width="1207.6" height="858.9"/>
		</defs>
		<clipPath id="SVGID_00000017504592511918105160000014235899652991813007_">
			<use xlink:href="#SVGID_1_"  style="overflow:visible;"/>
		</clipPath>
		<path id="path3251" style="clip-path:url(#SVGID_00000017504592511918105160000014235899652991813007_);fill:#184285;" d="
			M104.8,174.8c-10.3,0-18.8,8.4-18.8,18.8s8.4,18.8,18.8,18.8c10.3,0,18.8-8.4,18.8-18.8S115.2,174.8,104.8,174.8 M104.8,174
			c10.8,0,19.6,8.8,19.6,19.6c0,10.8-8.8,19.6-19.6,19.6c-10.8,0-19.6-8.8-19.6-19.6C85.3,182.8,94.1,174,104.8,174"/>
	</g>
	<g>
		<defs>
			<rect id="SVGID_00000112594291393618277740000009244625056401523616_" x="-175.3" y="-515.9" width="1207.6" height="858.9"/>
		</defs>
		<clipPath id="SVGID_00000064339971255875620960000006753844989863015590_">
			<use xlink:href="#SVGID_00000112594291393618277740000009244625056401523616_"  style="overflow:visible;"/>
		</clipPath>
		<path id="path3253" style="clip-path:url(#SVGID_00000064339971255875620960000006753844989863015590_);fill:#184285;" d="
			M98,201.9c-1.2-1-2.2-2.3-2.9-3.7c-0.7-1.4-1-3-1-4.6c0-6,4.9-10.8,10.8-10.8c6,0,10.8,4.9,10.8,10.8c0,1.6-0.4,3.2-1,4.6
			c-0.7,1.5-1.7,2.7-2.9,3.7l-0.2-0.3c1.2-1,2.1-2.2,2.8-3.6c0.6-1.3,1-2.8,1-4.4c0-5.7-4.7-10.4-10.4-10.4
			c-5.7,0-10.4,4.7-10.4,10.4c0,1.6,0.4,3.1,1,4.4c0.7,1.4,1.6,2.6,2.8,3.6L98,201.9z"/>
	</g>
	<g>
		<defs>
			<rect id="SVGID_00000056416766344205940890000003485590039247483580_" x="-175.3" y="-515.9" width="1207.6" height="858.9"/>
		</defs>
		<clipPath id="SVGID_00000152962124186242629580000009310048277434846871_">
			<use xlink:href="#SVGID_00000056416766344205940890000003485590039247483580_"  style="overflow:visible;"/>
		</clipPath>
		
			<path id="path3255" style="clip-path:url(#SVGID_00000152962124186242629580000009310048277434846871_);fill-rule:evenodd;clip-rule:evenodd;fill:#184285;" d="
			M88.1,200.1l-0.7-2l0.4-0.1l3.4,0.5l-0.5-1.4l0.4-0.1l0.7,1.8l-0.4,0.1l-3.4-0.5l0.6,1.6L88.1,200.1z"/>
	</g>
	<g>
		<defs>
			<rect id="SVGID_00000106860488226676953090000018279601061040478618_" x="-175.3" y="-515.9" width="1207.6" height="858.9"/>
		</defs>
		<clipPath id="SVGID_00000080189022597764992200000016148629554407383424_">
			<use xlink:href="#SVGID_00000106860488226676953090000018279601061040478618_"  style="overflow:visible;"/>
		</clipPath>
		
			<path id="path3257" style="clip-path:url(#SVGID_00000080189022597764992200000016148629554407383424_);fill-rule:evenodd;clip-rule:evenodd;fill:#184285;" d="
			M89.4,202.8l-0.2-0.4l1.6-0.8l-0.5-1l-1.6,0.8l-0.2-0.4l3.4-1.7l0.2,0.4l-1.4,0.7l0.5,1l1.4-0.7l0.2,0.4L89.4,202.8z"/>
	</g>
	<g>
		<defs>
			<rect id="SVGID_00000180368026163490944610000001494431738825514929_" x="-175.3" y="-515.9" width="1207.6" height="858.9"/>
		</defs>
		<clipPath id="SVGID_00000015325666981905043880000001824902370424466051_">
			<use xlink:href="#SVGID_00000180368026163490944610000001494431738825514929_"  style="overflow:visible;"/>
		</clipPath>
		
			<path id="path3259" style="clip-path:url(#SVGID_00000015325666981905043880000001824902370424466051_);fill-rule:evenodd;clip-rule:evenodd;fill:#184285;" d="
			M91,204.9l-1.2-1.7l3.2-2l1.2,1.6l-0.4,0.2l-0.9-1.2l-1,0.6l0.8,1.1l-0.4,0.2l-0.8-1.1l-1.1,0.7l0.9,1.3L91,204.9z"/>
	</g>
	<g>
		<defs>
			<rect id="SVGID_00000070834194731202948780000003736460442217979023_" x="-175.3" y="-515.9" width="1207.6" height="858.9"/>
		</defs>
		<clipPath id="SVGID_00000045602837036289417230000005671025864314692225_">
			<use xlink:href="#SVGID_00000070834194731202948780000003736460442217979023_"  style="overflow:visible;"/>
		</clipPath>
		
			<path id="path3261" style="clip-path:url(#SVGID_00000045602837036289417230000005671025864314692225_);fill-rule:evenodd;clip-rule:evenodd;fill:#184285;" d="
			M93.7,207.6l-0.4-0.3l2.3-2.9l0.4,0.3L93.7,207.6z"/>
	</g>
	<g>
		<defs>
			<rect id="SVGID_00000113322355364245339310000013813470837553221041_" x="-175.3" y="-515.9" width="1207.6" height="858.9"/>
		</defs>
		<clipPath id="SVGID_00000082360727807153219220000007717463416121655223_">
			<use xlink:href="#SVGID_00000113322355364245339310000013813470837553221041_"  style="overflow:visible;"/>
		</clipPath>
		
			<path id="path3263" style="clip-path:url(#SVGID_00000082360727807153219220000007717463416121655223_);fill-rule:evenodd;clip-rule:evenodd;fill:#184285;" d="
			M96.2,207.3l0.6-1.3l-0.1,0l-1,1L96.2,207.3z M95.5,208.8l0.5-1l-0.6-0.4l-0.9,0.8l-0.4-0.3l2.8-2.7l0.6,0.3l-1.5,3.6L95.5,208.8z
			"/>
	</g>
	<g>
		<defs>
			<rect id="SVGID_00000049935564886258537190000018289543141706726826_" x="-175.3" y="-515.9" width="1207.6" height="858.9"/>
		</defs>
		<clipPath id="SVGID_00000069394925874977529280000000795502778253839003_">
			<use xlink:href="#SVGID_00000049935564886258537190000018289543141706726826_"  style="overflow:visible;"/>
		</clipPath>
		
			<path id="path3265" style="clip-path:url(#SVGID_00000069394925874977529280000000795502778253839003_);fill-rule:evenodd;clip-rule:evenodd;fill:#184285;" d="
			M98.3,210.2l-0.5-0.2l0.3-2.7l-1.1,2.2l-0.5-0.2l1.7-3.4l0.4,0.2l-0.2,2.5l1.1-2.1l0.4,0.2L98.3,210.2z"/>
	</g>
	<g>
		<defs>
			<rect id="SVGID_00000026154327710664117650000016342230538197199023_" x="-175.3" y="-515.9" width="1207.6" height="858.9"/>
		</defs>
		<clipPath id="SVGID_00000157989517501761130720000009112779932673839510_">
			<use xlink:href="#SVGID_00000026154327710664117650000016342230538197199023_"  style="overflow:visible;"/>
		</clipPath>
		
			<path id="path3267" style="clip-path:url(#SVGID_00000157989517501761130720000009112779932673839510_);fill-rule:evenodd;clip-rule:evenodd;fill:#184285;" d="
			M100.8,210.9l-0.3-0.1l0-0.3c-0.1,0.1-0.2,0.1-0.3,0.1c-0.1,0-0.2,0-0.4,0c-0.3-0.1-0.5-0.3-0.6-0.6c-0.1-0.3-0.1-0.8,0.1-1.4
			c0.2-0.6,0.4-1.1,0.7-1.3c0.3-0.2,0.7-0.4,1.1-0.3c0.4,0.1,0.7,0.6,0.6,1.3l-0.5,0c0.1-0.3,0-0.8-0.3-0.9c-0.2-0.1-0.5,0-0.7,0.2
			c-0.2,0.2-0.3,0.5-0.5,1.1c-0.2,0.5-0.2,0.9-0.1,1.1c0.1,0.2,0.2,0.4,0.3,0.4c0.2,0.1,0.3,0,0.4-0.1c0.1-0.1,0.2-0.3,0.3-0.5
			l0.1-0.2l-0.6-0.2l0.1-0.4l1,0.3L100.8,210.9z"/>
	</g>
	<g>
		<defs>
			<rect id="SVGID_00000062186458571959253620000015663610628243229091_" x="-175.3" y="-515.9" width="1207.6" height="858.9"/>
		</defs>
		<clipPath id="SVGID_00000028308253087675440260000003105354363793232292_">
			<use xlink:href="#SVGID_00000062186458571959253620000015663610628243229091_"  style="overflow:visible;"/>
		</clipPath>
		
			<path id="path3269" style="clip-path:url(#SVGID_00000028308253087675440260000003105354363793232292_);fill-rule:evenodd;clip-rule:evenodd;fill:#184285;" d="
			M105.9,210.1c0,0.3-0.1,0.6-0.3,0.8c-0.2,0.2-0.4,0.3-0.8,0.3c-0.4,0-0.6-0.1-0.8-0.3c-0.2-0.2-0.2-0.5-0.2-0.8l0.1-2.6l0.5,0
			l-0.1,2.6c0,0.2,0,0.4,0.1,0.5c0.1,0.1,0.2,0.2,0.4,0.2c0.2,0,0.3,0,0.4-0.2c0.1-0.1,0.2-0.3,0.2-0.5l0.1-2.6l0.5,0L105.9,210.1z"
			/>
	</g>
	<g>
		<defs>
			<rect id="SVGID_00000045597594723237402610000001587851790086115735_" x="-175.3" y="-515.9" width="1207.6" height="858.9"/>
		</defs>
		<clipPath id="SVGID_00000006666065198197956950000010189382226536354999_">
			<use xlink:href="#SVGID_00000045597594723237402610000001587851790086115735_"  style="overflow:visible;"/>
		</clipPath>
		
			<path id="path3271" style="clip-path:url(#SVGID_00000006666065198197956950000010189382226536354999_);fill-rule:evenodd;clip-rule:evenodd;fill:#184285;" d="
			M108.5,210.8l-0.4,0.1l-1.3-2.5l0.2,2.7l-0.5,0.1l-0.3-3.7l0.6-0.1l1.1,1.7l-0.2-1.9l0.4-0.1L108.5,210.8z"/>
	</g>
	<g>
		<defs>
			<rect id="SVGID_00000160169480668078665260000006785167279028914325_" x="-175.3" y="-515.9" width="1207.6" height="858.9"/>
		</defs>
		<clipPath id="SVGID_00000016037438833462775710000006888910248765740934_">
			<use xlink:href="#SVGID_00000160169480668078665260000006785167279028914325_"  style="overflow:visible;"/>
		</clipPath>
		
			<path id="path3273" style="clip-path:url(#SVGID_00000016037438833462775710000006888910248765740934_);fill-rule:evenodd;clip-rule:evenodd;fill:#184285;" d="
			M109.9,210.4l-0.5,0.1l-1-3.5l0.5-0.1L109.9,210.4z"/>
	</g>
	<g>
		<defs>
			<rect id="SVGID_00000101096761906924503620000000874294557775194528_" x="-175.3" y="-515.9" width="1207.6" height="858.9"/>
		</defs>
		<clipPath id="SVGID_00000007391378681508972460000003457880122586737039_">
			<use xlink:href="#SVGID_00000101096761906924503620000000874294557775194528_"  style="overflow:visible;"/>
		</clipPath>
		
			<path id="path3275" style="clip-path:url(#SVGID_00000007391378681508972460000003457880122586737039_);fill-rule:evenodd;clip-rule:evenodd;fill:#184285;" d="
			M111.2,205.9l0.6,3.9l-0.5,0.2l-2.1-3.3l0.5-0.2l1.4,2.3l-0.4-2.7L111.2,205.9z"/>
	</g>
	<g>
		<defs>
			<rect id="SVGID_00000068656678865688430230000012899900340104995978_" x="-175.3" y="-515.9" width="1207.6" height="858.9"/>
		</defs>
		<clipPath id="SVGID_00000033367361102951094550000015390689553817779629_">
			<use xlink:href="#SVGID_00000068656678865688430230000012899900340104995978_"  style="overflow:visible;"/>
		</clipPath>
		
			<path id="path3277" style="clip-path:url(#SVGID_00000033367361102951094550000015390689553817779629_);fill-rule:evenodd;clip-rule:evenodd;fill:#184285;" d="
			M115.1,208.1l-1.7,0.9l-1.9-3.3l1.7-0.9l0.2,0.4L112,206l0.6,1l1.2-0.6l0.2,0.4l-1.2,0.6l0.7,1.2l1.4-0.7L115.1,208.1z"/>
	</g>
	<g>
		<defs>
			<rect id="SVGID_00000132779449602279403940000017036911900066091922_" x="-175.3" y="-515.9" width="1207.6" height="858.9"/>
		</defs>
		<clipPath id="SVGID_00000102509830569996161710000004654744992603985080_">
			<use xlink:href="#SVGID_00000132779449602279403940000017036911900066091922_"  style="overflow:visible;"/>
		</clipPath>
		
			<path id="path3279" style="clip-path:url(#SVGID_00000102509830569996161710000004654744992603985080_);fill-rule:evenodd;clip-rule:evenodd;fill:#184285;" d="
			M114.7,204.5c-0.3-0.1-0.5,0.1-0.7,0.3l0.7,1c0.2-0.2,0.3-0.2,0.5-0.5C115.3,204.9,115.1,204.6,114.7,204.5 M117.1,206.7l-0.4,0.3
			l-1.4-1.1l-0.4,0.3l0.9,1.2l-0.4,0.4l-2.2-3.1l0.7-0.5c0.2-0.2,0.5-0.3,0.8-0.2c0.7,0.1,1,0.6,1,1.1c0,0.2,0,0.3-0.1,0.5
			L117.1,206.7z"/>
	</g>
	<g>
		<defs>
			<rect id="SVGID_00000062906706385320361700000016434345325893178250_" x="-175.3" y="-515.9" width="1207.6" height="858.9"/>
		</defs>
		<clipPath id="SVGID_00000079447722612915686180000012210716851701816745_">
			<use xlink:href="#SVGID_00000062906706385320361700000016434345325893178250_"  style="overflow:visible;"/>
		</clipPath>
		
			<path id="path3281" style="clip-path:url(#SVGID_00000079447722612915686180000012210716851701816745_);fill-rule:evenodd;clip-rule:evenodd;fill:#184285;" d="
			M118.3,203.7c0.8,0.5,0.6,1.8-0.4,2c-0.3,0-0.6,0-0.7-0.1l0.2-0.4c0.2,0,0.3,0.1,0.5,0.1c0.7-0.1,0.6-0.8,0.2-1.1
			c-0.1-0.1-0.3-0.1-0.5-0.1c-0.4,0-0.7,0.4-1.2,0.4c-0.5,0-0.9-0.3-1-0.8c0-0.3,0-0.6,0.2-0.8c0.3-0.5,0.9-0.5,1.3-0.2l-0.2,0.4
			c-0.2-0.1-0.7-0.1-0.8,0.1c-0.1,0.1-0.1,0.3-0.1,0.4c0.1,0.3,0.3,0.5,0.5,0.4c0.5-0.1,0.8-0.5,1.3-0.4
			C117.8,203.5,118,203.6,118.3,203.7"/>
	</g>
	<g>
		<defs>
			<rect id="SVGID_00000051347691327619299480000004185252680270013865_" x="-175.3" y="-515.9" width="1207.6" height="858.9"/>
		</defs>
		<clipPath id="SVGID_00000138531054897592405310000009243010844706044832_">
			<use xlink:href="#SVGID_00000051347691327619299480000004185252680270013865_"  style="overflow:visible;"/>
		</clipPath>
		
			<path id="path3283" style="clip-path:url(#SVGID_00000138531054897592405310000009243010844706044832_);fill-rule:evenodd;clip-rule:evenodd;fill:#184285;" d="
			M119.9,203.2l-0.3,0.3l-3.2-2l0.3-0.3L119.9,203.2z"/>
	</g>
	<g>
		<defs>
			<rect id="SVGID_00000113326047584490792080000010777941675572777602_" x="-175.3" y="-515.9" width="1207.6" height="858.9"/>
		</defs>
		<clipPath id="SVGID_00000111174475243539054180000006989895327243398555_">
			<use xlink:href="#SVGID_00000113326047584490792080000010777941675572777602_"  style="overflow:visible;"/>
		</clipPath>
		
			<path id="path3285" style="clip-path:url(#SVGID_00000111174475243539054180000006989895327243398555_);fill-rule:evenodd;clip-rule:evenodd;fill:#184285;" d="
			M118.3,199.1l-0.4,0.7l3,1.8l-0.2,0.4l-3-1.8l-0.4,0.7l-0.4-0.2l0.9-1.7L118.3,199.1z"/>
	</g>
	<g>
		<defs>
			<rect id="SVGID_00000032608842647022615090000005454161540472244123_" x="-175.3" y="-515.9" width="1207.6" height="858.9"/>
		</defs>
		<clipPath id="SVGID_00000131332853699708950720000016351223964248393107_">
			<use xlink:href="#SVGID_00000032608842647022615090000005454161540472244123_"  style="overflow:visible;"/>
		</clipPath>
		
			<path id="path3287" style="clip-path:url(#SVGID_00000131332853699708950720000016351223964248393107_);fill-rule:evenodd;clip-rule:evenodd;fill:#184285;" d="
			M118.9,196.6l1.9,1.7l1.2,0.5l-0.2,0.4l-1.1-0.4l-2.6-0.1l0.1-0.4l1.8,0l-1.3-1.2L118.9,196.6z"/>
	</g>
	<g>
		<defs>
			<rect id="SVGID_00000027585131973665044830000016692832550245300895_" x="-175.3" y="-515.9" width="1207.6" height="858.9"/>
		</defs>
		<clipPath id="SVGID_00000114756211499108111990000000535074789545091210_">
			<use xlink:href="#SVGID_00000027585131973665044830000016692832550245300895_"  style="overflow:visible;"/>
		</clipPath>
		
			<path id="path3289" style="clip-path:url(#SVGID_00000114756211499108111990000000535074789545091210_);fill-rule:evenodd;clip-rule:evenodd;fill:#184285;" d="
			M93.4,205.9c-0.3,0.3-0.6,0.5-0.9,0.5c-0.3,0-0.5-0.1-0.8-0.3c-0.2-0.2-0.3-0.5-0.3-0.8c0-0.1,0-0.3,0.1-0.4l0.4,0.3
			c0,0.1-0.1,0.1-0.1,0.2c0,0.2,0,0.3,0.1,0.4c0.1,0.1,0.3,0.2,0.4,0.2c0.2,0,0.3-0.1,0.6-0.4l1.9-1.8l0.3,0.4L93.4,205.9z"/>
	</g>
	<g>
		<defs>
			<rect id="SVGID_00000040556331587544760910000005225902671041682048_" x="-175.3" y="-515.9" width="1207.6" height="858.9"/>
		</defs>
		<clipPath id="SVGID_00000143575243272493632430000006246815846250028945_">
			<use xlink:href="#SVGID_00000040556331587544760910000005225902671041682048_"  style="overflow:visible;"/>
		</clipPath>
		
			<path id="path3291" style="clip-path:url(#SVGID_00000143575243272493632430000006246815846250028945_);fill-rule:evenodd;clip-rule:evenodd;fill:#184285;" d="
			M110.5,202.5l-0.1,2.4l-0.4,0.2l0-2.3l-1.4,0.7l-0.1-0.3l1.8-0.9L110.5,202.5z M105.3,204.6c0-0.1,0-0.2,0.1-0.3
			c0.1-0.1,0.1-0.2,0.2-0.3c0.1-0.1,0.2-0.1,0.4-0.2c0.1,0,0.3-0.1,0.4-0.1c0.2,0,0.3,0,0.4,0.1c0.1,0,0.2,0.1,0.3,0.2
			c0.1,0.1,0.2,0.2,0.3,0.3c0.1,0.1,0.1,0.3,0.1,0.5c0,0.2,0,0.4-0.1,0.6c-0.1,0.2-0.2,0.3-0.3,0.4c-0.1,0.1-0.3,0.2-0.5,0.3
			c-0.2,0.1-0.4,0.1-0.7,0.1c-0.1,0-0.1,0-0.2,0c-0.1,0-0.1,0-0.2,0v-0.3h0c0,0,0.1,0,0.2,0c0.1,0,0.2,0,0.3,0
			c0.3,0,0.6-0.1,0.7-0.2c0.2-0.1,0.3-0.3,0.3-0.6c-0.1,0.1-0.2,0.1-0.4,0.1c-0.1,0-0.2,0-0.4,0c-0.1,0-0.2,0-0.4,0
			c-0.1,0-0.2-0.1-0.3-0.1c-0.1-0.1-0.2-0.1-0.3-0.2C105.4,204.8,105.3,204.7,105.3,204.6 M107.2,204.8c0-0.2,0-0.3-0.1-0.4
			c0-0.1-0.1-0.2-0.2-0.2c-0.1-0.1-0.1-0.1-0.2-0.1c-0.1,0-0.1,0-0.2,0c-0.2,0-0.3,0-0.5,0.1c-0.1,0.1-0.2,0.2-0.2,0.4
			c0,0.1,0,0.2,0.1,0.2c0,0.1,0.1,0.1,0.2,0.2c0.1,0,0.1,0.1,0.2,0.1c0.1,0,0.2,0,0.2,0c0.1,0,0.2,0,0.3,0c0.1,0,0.2-0.1,0.3-0.1
			C107.1,204.9,107.1,204.9,107.2,204.8C107.2,204.8,107.2,204.8,107.2,204.8 M102.6,206.2c-0.2,0-0.3-0.1-0.5-0.1
			c-0.1-0.1-0.3-0.1-0.3-0.2c-0.1-0.1-0.1-0.2-0.2-0.3c0-0.1,0-0.2,0-0.3c0-0.1,0.1-0.2,0.2-0.3c0.1-0.1,0.3-0.2,0.5-0.2l0,0
			c-0.2-0.1-0.3-0.2-0.3-0.3c-0.1-0.1-0.1-0.2-0.1-0.3c0-0.2,0.2-0.3,0.4-0.4c0.2-0.1,0.5-0.1,0.8-0.1c0.3,0,0.6,0.1,0.7,0.3
			c0.2,0.1,0.2,0.3,0.2,0.5c0,0.1-0.1,0.2-0.2,0.3c-0.1,0.1-0.3,0.1-0.5,0.2l0,0c0.2,0.1,0.3,0.2,0.4,0.3c0.1,0.1,0.1,0.2,0.1,0.4
			c0,0.2-0.2,0.3-0.4,0.5C103.3,206.2,103,206.2,102.6,206.2 M103.5,205.6c0-0.1,0-0.2,0-0.2c0-0.1-0.1-0.1-0.3-0.2
			c-0.1,0-0.1-0.1-0.2-0.1c-0.1,0-0.2-0.1-0.3-0.1c-0.1,0-0.3,0.1-0.3,0.2c-0.1,0.1-0.1,0.2-0.2,0.3c0,0.1,0,0.3,0.1,0.4
			c0.1,0.1,0.3,0.2,0.5,0.2c0.2,0,0.4,0,0.5-0.1C103.3,205.8,103.4,205.7,103.5,205.6 M103.6,204.4c0-0.1,0-0.2-0.1-0.3
			c-0.1-0.1-0.2-0.1-0.4-0.2c-0.2,0-0.3,0-0.4,0c-0.1,0-0.2,0.1-0.2,0.2c0,0.1,0,0.1,0,0.2c0,0.1,0.1,0.1,0.2,0.2
			c0,0,0.1,0.1,0.2,0.1c0.1,0,0.2,0.1,0.3,0.1c0.2-0.1,0.3-0.1,0.3-0.2C103.6,204.6,103.6,204.5,103.6,204.4 M99.7,205.3l-1.3-0.8
			l0.1-0.2l0.5,0.3l0.8-1.3l-0.5-0.3l0.1-0.2c0.2,0.1,0.3,0.2,0.4,0.2c0.1,0,0.2,0,0.3-0.1l0.3,0.2l-1,1.8l0.5,0.3L99.7,205.3z"/>
	</g>
	<g>
		<defs>
			<rect id="SVGID_00000160157326119687195380000009544305954274776764_" x="-175.3" y="-515.9" width="1207.6" height="858.9"/>
		</defs>
		<clipPath id="SVGID_00000169542870132066741220000014251810120230509221_">
			<use xlink:href="#SVGID_00000160157326119687195380000009544305954274776764_"  style="overflow:visible;"/>
		</clipPath>
		
			<path id="path3293" style="clip-path:url(#SVGID_00000169542870132066741220000014251810120230509221_);fill-rule:evenodd;clip-rule:evenodd;fill:#184285;" d="
			M111.2,183c-0.3-0.1-0.1-0.2-0.1-0.5c0-0.2-0.1-0.5-0.1-0.7c0.1-0.4,0.7-0.3,1,0c0.1,0,0.1,0.1,0.1,0.3c0.1,0.3,0.2,0.6-0.1,0.8
			C111.8,183.1,111.5,183.1,111.2,183"/>
	</g>
	<g>
		<defs>
			<rect id="SVGID_00000040546600891707893670000013917987354181360538_" x="-175.3" y="-515.9" width="1207.6" height="858.9"/>
		</defs>
		<clipPath id="SVGID_00000063598113065339896270000010377385174324831913_">
			<use xlink:href="#SVGID_00000040546600891707893670000013917987354181360538_"  style="overflow:visible;"/>
		</clipPath>
		
			<path id="path3295" style="clip-path:url(#SVGID_00000063598113065339896270000010377385174324831913_);fill-rule:evenodd;clip-rule:evenodd;fill:#184285;" d="
			M107.9,181.7C107.9,181.7,107.9,181.7,107.9,181.7c0-0.1,0-0.1,0-0.1c0.1,0,1-0.3,1-0.4c0.3-0.1,0.5-0.3,0.7-0.6
			c-0.6,0-1.3,0.3-1.9,0.2c-0.3-0.1-0.4-0.3-0.6-0.5c0,0,0,0,0,0c-0.3-0.3-0.2-0.6,0.1-0.6c0.6,0.3,1.6,0.1,2.2,0
			c0.1,0,0.5-0.1,0.7-0.2c0.3-0.8,0.4-1.6,0.7-2.3c0.3-0.5,0.6,0,0.9,0.3c0,0.1,0.1,0.1,0.1,0.2c0,0,0,0,0,0
			c0.1,0.3,0.1,0.4-0.2,0.5c-0.2,0.3-0.4,0.7-0.5,1.2c0.4,0,0.8-0.3,1.3-0.1c0.1,0.3,0,0.4-0.3,0.6c-0.4,0.1-0.8,0.1-1.3,0.2
			c-0.2,0.4-0.5,0.8-0.8,1.1c-0.1,0-0.3,0.2-0.4,0.2c-0.3,0.1-0.6,0.2-0.9,0.2C108.1,181.8,108.1,181.7,107.9,181.7"/>
	</g>
	<g>
		<defs>
			<rect id="SVGID_00000070800773675863732760000002539286997698426509_" x="-175.3" y="-515.9" width="1207.6" height="858.9"/>
		</defs>
		<clipPath id="SVGID_00000175324918103080613450000005408879994057673663_">
			<use xlink:href="#SVGID_00000070800773675863732760000002539286997698426509_"  style="overflow:visible;"/>
		</clipPath>
		
			<path id="path3297" style="clip-path:url(#SVGID_00000175324918103080613450000005408879994057673663_);fill-rule:evenodd;clip-rule:evenodd;fill:#184285;" d="
			M98.4,184.5c-0.3,0-0.8-0.3-1-0.4c0-0.1,0-0.2,0-0.3c0.5-0.8,1-1.5,1.4-2.4c0.1-0.4,0.2-0.8,0.3-1.1c0,0,0,0,0,0c0,0,0,0,0,0
			c0.1-0.2,0.2-0.3,0.4-0.1c0.1,0.2-0.2,0.5-0.2,0.7c0,0.4,0,0.8-0.1,1.2c0,0.1,0,0.1-0.1,0.5c-0.1,0.2-0.2,0.7-0.2,1
			c-0.2,0.2-0.1,0.6-0.3,0.9C98.5,184.5,98.5,184.5,98.4,184.5"/>
	</g>
	<g>
		<defs>
			<rect id="SVGID_00000112629829694167820490000017696851586248153246_" x="-175.3" y="-515.9" width="1207.6" height="858.9"/>
		</defs>
		<clipPath id="SVGID_00000014615003969146885370000007248019500162896792_">
			<use xlink:href="#SVGID_00000112629829694167820490000017696851586248153246_"  style="overflow:visible;"/>
		</clipPath>
		
			<path id="path3299" style="clip-path:url(#SVGID_00000014615003969146885370000007248019500162896792_);fill-rule:evenodd;clip-rule:evenodd;fill:#184285;" d="
			M101.5,180.5c-0.4,0.1-0.7-0.1-1-0.2c-0.1-0.1,0-0.2,0-0.3c0.1-0.1,0.1-0.1,0.1-0.1c0.2-0.1,0.2-0.1,0.4-0.2
			c0.2-0.2,0.7-0.8,1-0.7C102.3,179.4,101.9,180.1,101.5,180.5"/>
	</g>
	<g>
		<defs>
			<rect id="SVGID_00000048491310498579856650000004011527005084843399_" x="-175.3" y="-515.9" width="1207.6" height="858.9"/>
		</defs>
		<clipPath id="SVGID_00000085960176764090575230000005384909596892549514_">
			<use xlink:href="#SVGID_00000048491310498579856650000004011527005084843399_"  style="overflow:visible;"/>
		</clipPath>
		
			<path id="path3301" style="clip-path:url(#SVGID_00000085960176764090575230000005384909596892549514_);fill-rule:evenodd;clip-rule:evenodd;fill:#184285;" d="
			M97.9,180.9c-0.2-0.1-0.5-0.7-0.6-0.9c0-0.4,0.3-0.6,0.7-0.5c0.4,0.2,0.6,0.3,0.5,0.8C98.4,180.7,98.3,180.8,97.9,180.9"/>
	</g>
	<g>
		<defs>
			<rect id="SVGID_00000101063545658314505510000012768256406437069200_" x="-175.3" y="-515.9" width="1207.6" height="858.9"/>
		</defs>
		<clipPath id="SVGID_00000085226589398710901610000004609359805776297135_">
			<use xlink:href="#SVGID_00000101063545658314505510000012768256406437069200_"  style="overflow:visible;"/>
		</clipPath>
		
			<path id="path3303" style="clip-path:url(#SVGID_00000085226589398710901610000004609359805776297135_);fill-rule:evenodd;clip-rule:evenodd;fill:#184285;" d="
			M101,179.4c-0.1-0.2,0-0.7-0.1-0.8c-0.1,0.1-0.2,0.1-0.3,0.2c-0.3,0-0.7-0.2-0.7-0.5c0.1-0.3,0.1-0.2,0.3-0.3
			c0.2-0.2,0.5-0.5,0.7-0.7c0.4-0.3,0.8-0.1,1,0.4c0,0.3-0.1,0.7-0.2,1c-0.2,0.2-0.4,0.5-0.5,0.7C101.1,179.3,101,179.3,101,179.4"
			/>
	</g>
	<g>
		<defs>
			<rect id="SVGID_00000064322507779614258200000006353140734786445954_" x="-175.3" y="-515.9" width="1207.6" height="858.9"/>
		</defs>
		<clipPath id="SVGID_00000041273510243061598650000013464635685347326346_">
			<use xlink:href="#SVGID_00000064322507779614258200000006353140734786445954_"  style="overflow:visible;"/>
		</clipPath>
		
			<path id="path3305" style="clip-path:url(#SVGID_00000041273510243061598650000013464635685347326346_);fill-rule:evenodd;clip-rule:evenodd;fill:#184285;" d="
			M97.8,179.1c-0.1,0-0.1-0.1-0.1-0.2c-0.1-0.2-0.3-0.3-0.4-0.5c-0.1-0.4-0.2-0.5,0-0.8c0.3,0,1.2,0.1,1.2,0.6
			C98.5,178.6,98.1,178.9,97.8,179.1"/>
	</g>
	<g>
		<defs>
			<rect id="SVGID_00000018224185864074305680000001435353760819779471_" x="-175.3" y="-515.9" width="1207.6" height="858.9"/>
		</defs>
		<clipPath id="SVGID_00000071531466424328512860000004487830013068784014_">
			<use xlink:href="#SVGID_00000018224185864074305680000001435353760819779471_"  style="overflow:visible;"/>
		</clipPath>
		
			<path id="path3307" style="clip-path:url(#SVGID_00000071531466424328512860000004487830013068784014_);fill-rule:evenodd;clip-rule:evenodd;fill:#184285;" d="
			M93,191.9c-0.4,0.3-1.4,0.1-1.3-0.5c-0.1-0.1-0.1-0.2-0.1-0.2c0,0,0,0,0,0c-0.1-0.6-0.4-1.2-0.6-1.8c-0.1-0.2-0.2-0.3-0.1-0.5
			c0.1,0,0.3,0.1,0.4,0.2c0.1,0,0.1-0.2,0.2-0.3c0-0.4,0-0.9-0.1-1.3c-0.1-0.1-0.2-0.2-0.3-0.3c-0.1,0.2-0.3,0.9-0.6,0.5
			c0.1-0.3,0.1-0.7-0.1-1c-0.2-0.2-0.5-0.4-0.6-0.6c0-0.3,0.6-0.4,0.9-0.3c0.2,0,0.2-0.4,0.5,0.3c0,0.1,0.1,0.2,0.3,0.3
			c0,0,0-0.1,0.1-0.1c0-0.3,0-0.7,0-1c-0.3-0.3-0.6-0.6-0.7-0.9c0-0.4,0.4-0.6,0.7-0.7c0.1-0.2,0.1-0.4,0.1-0.6c0-0.1,0-0.1,0.1-0.2
			c0.1,0,0.2,0.1,0.4,0.1c0.3,0.4-0.3,1.4,0.2,1.5c0.1-0.2,0-0.4-0.1-0.5c0-0.3,0.4-0.6,0.7-0.7c0.4,0,0.4,0.2,0.4,0.6
			c0,0.1,0,0.1,0.1,0.2c0.6,0.4,0.6,0.4,1.3,0.9c0.1,0.2,0.2,0.4,0.3,0.6c0,0,0,0,0,0c0,0,0,0,0,0c0.1,0.2,0.1,0.6-0.2,0.6
			c-0.6-0.4-1.3-0.9-1.9-1.3c0,0,0,0,0,0c0.3,0.3,0.6,1,0.6,1.3c-0.1,0.3-0.4,0.4-0.7,0.3c0-0.1,0-0.1,0-0.2c-0.2-0.3-0.7-0.6-1-0.8
			c-0.1,0.2,0.1,0.8,0.2,1.1c0,0.2,0,0.3,0,0.5c0.2,0.2,0.4,0.4,0.6,0.7c0.1,0.1,0.2,0.3,0.2,0.4c0,0,0,0,0,0
			c0.1,0.2,0.3,0.8-0.1,0.8c0,0-0.1,0-0.1-0.1c-0.1-0.3-0.3-0.6-0.6-0.8c-0.1,0.3,0,0.6-0.1,0.9c-0.1,0.1-0.3,0.2-0.4,0.3
			c0,0,0,0,0,0c-0.1,0-0.2,0.1-0.2,0.1c0.1,0.1,0.2,0.3,0.3,0.4c0.3,0.6,0.7,1.1,1.2,1.7C93.1,191.8,93.1,191.8,93,191.9"/>
	</g>
	<g>
		<defs>
			<rect id="SVGID_00000129194959654186975150000006948815910044429985_" x="-175.3" y="-515.9" width="1207.6" height="858.9"/>
		</defs>
		<clipPath id="SVGID_00000111153288983363097820000002349283620145096892_">
			<use xlink:href="#SVGID_00000129194959654186975150000006948815910044429985_"  style="overflow:visible;"/>
		</clipPath>
		
			<path id="path3309" style="clip-path:url(#SVGID_00000111153288983363097820000002349283620145096892_);fill-rule:evenodd;clip-rule:evenodd;fill:#184285;" d="
			M90.4,189.4c-0.2,0-0.2-0.2-0.4-0.3c-0.4-0.1-0.8-0.2-0.9-0.6c0,0,0-0.1,0.1-0.1c0.2-0.1,0.6-0.1,0.9-0.1
			C90.6,188.4,90.4,189,90.4,189.4"/>
	</g>
	<g>
		<defs>
			<rect id="SVGID_00000152251491840638910760000013867116014104544436_" x="-175.3" y="-515.9" width="1207.6" height="858.9"/>
		</defs>
		<clipPath id="SVGID_00000021829216970587279230000016729425857067428480_">
			<use xlink:href="#SVGID_00000152251491840638910760000013867116014104544436_"  style="overflow:visible;"/>
		</clipPath>
		
			<path id="path3311" style="clip-path:url(#SVGID_00000021829216970587279230000016729425857067428480_);fill-rule:evenodd;clip-rule:evenodd;fill:#184285;" d="
			M89.2,188.2c-0.1,0.1-0.1,0.1-0.2,0c-0.1-0.1-0.1-0.2-0.2-0.2c-0.5,0-1-0.4-0.9-0.9c0.1-0.1,0.2,0,0.4,0c0.4-0.1,1-0.3,1,0.3
			C89.4,187.7,89.3,187.9,89.2,188.2"/>
	</g>
	<g>
		<defs>
			<rect id="SVGID_00000168801219084498090440000000985731175171568027_" x="-175.3" y="-515.9" width="1207.6" height="858.9"/>
		</defs>
		<clipPath id="SVGID_00000070821284351840867260000011791883426666943372_">
			<use xlink:href="#SVGID_00000168801219084498090440000000985731175171568027_"  style="overflow:visible;"/>
		</clipPath>
		<path id="path3313" style="clip-path:url(#SVGID_00000070821284351840867260000011791883426666943372_);fill:#184285;" d="
			M114,188.8l-4.8,0c-1.4,0-2.1,1.4-2.6,2.6l-0.8-1.8l1.3-0.5c-0.8-0.7-3.2-1.2-3.6,0l-0.6,2.3c-0.5-1.1-1.1-2.6-2.6-2.6h-4.8
			c0.6,1.1,1.2,1.5,3.4,1.4l0.3,0.8l-2.4,0c0.7,1.3,1.1,1.4,3.1,1.3l0.4,0.9l-1.9,0.1c0.4,0.9,0.8,1.3,2.5,1.3l0.3,0.8l-1.5,0
			c0.6,0.9,0.9,1.4,2.1,1.3l0.3,0.9h-1.1c0.5,1,1,1.1,1.6,1.2c0.6,0.1,0.7,1.2,0,1.5l2,3.3l2-3.3c-0.7-0.4-0.6-1.4,0-1.5
			c0.6-0.1,1.2-0.1,1.6-1.2h-1.1l0.3-0.9c1.2,0.1,1.5-0.3,2.1-1.3l-1.5,0l0.3-0.8c1.6,0.1,2.1-0.3,2.5-1.3l-1.9-0.1l0.4-0.9
			c2,0.1,2.4,0,3.1-1.3l-2.4,0l0.3-0.8C112.8,190.3,113.4,189.9,114,188.8"/>
	</g>
	<g>
		<defs>
			<rect id="SVGID_00000011727302343135736240000017298351595939417230_" x="-175.3" y="-515.9" width="1207.6" height="858.9"/>
		</defs>
		<clipPath id="SVGID_00000041258057256632893190000005058439595128974486_">
			<use xlink:href="#SVGID_00000011727302343135736240000017298351595939417230_"  style="overflow:visible;"/>
		</clipPath>
		<path id="path3315" style="clip-path:url(#SVGID_00000041258057256632893190000005058439595128974486_);fill:#184285;" d="
			M119.4,186.8L119.4,186.8c0.2-0.2,0.2-0.2,0.2-0.3c0,0,0,0-0.1-0.1l0,0c0,0,0,0-0.1,0c-0.1,0-0.1,0-0.2-0.1l0,0l0,0l0-0.1l0,0
			l0.1,0c0.3-0.1,0.3-0.1,0.4-0.1l0,0l0.1,0.1c0.1,0.1,0.3,0.3,0.4,0.6l0,0c-0.2,0.2-0.4,0.3-0.7,0.3l-0.1,0L119.4,186.8
			L119.4,186.8L119.4,186.8z M121.3,186.5L121.3,186.5c0.1-0.2,0.1-0.3,0.1-0.3c0,0-0.1-0.1-0.2-0.1c0,0-0.1,0-0.1,0l-0.1,0l0,0
			c0,0,0,0-0.1-0.1l-0.1,0l0,0l0.1-0.1c0.1-0.1,0.2-0.1,0.3-0.1l0,0l0,0c0.2-0.1,0.3-0.4,0.3-0.6c-0.1-0.1-0.1-0.1-0.3-0.1
			c-0.2,0-0.4,0.1-0.6,0.1c-0.1,0-0.2,0.1-0.4,0.1l0,0c-0.3-0.1-0.3-0.2-1-0.5c0,0-0.1,0.1-0.1,0.1c0,0.1,0,0.2,0,0.3l0.1,0l0,0l0,0
			l-0.2,0.1c0,0,0,0,0,0h0l0,0c0,0,0,0,0,0.1l0,0.1c0,0.1,0,0.1-0.1,0.1l0,0.1l0,0l0,0l-0.1-0.1c-0.1-0.1-0.1-0.1-0.2-0.2
			c0,0,0,0-0.1,0c-0.1,0-0.1,0-0.2,0.1c0,0,0,0.1,0,0.2l0,0c0,0.1-0.1,0.2-0.4,0.2l-0.1,0c0,0-0.1,0-0.1,0c0,0.2,0.1,0.2,0.3,0.2
			c0.1,0,0.2,0,0.3,0.1c0,0,0,0,0.1,0c0,0,0.1,0,0.1,0l0.2,0.1l0.1,0l0,0l-0.2,0.1c-0.1,0-0.1,0.1-0.2,0.1c0,0.1,0,0.1-0.1,0.2l0,0
			l-0.1,0c-0.1,0-0.3-0.1-0.4-0.1l-0.2-0.1c-0.4-0.1-0.8-0.2-1.3-0.3c-0.1,0-0.2-0.1-0.3-0.1l-0.2,0l0,0.1c0.1,0,0.1,0.1,0.2,0.2
			l0,0c0.1,0.1,0.2,0.3,0.4,0.4c0.1,0,0.3,0,0.5,0.1c0.5,0.1,1.1,0.1,1.5,0.5l0.1,0.1l0,0l0,0l-0.2,0.1c0,0-0.1,0-0.1,0.1l-0.1,0
			c-0.5-0.1-0.5-0.1-0.7-0.2c-0.2-0.1-0.3-0.2-0.4-0.2c-0.1,0-0.2,0-0.3,0.1c0,0,0,0,0,0l0,0c0,0,0,0,0,0l-0.1,0c-0.1,0-0.1,0-0.2,0
			c-0.1-0.1-0.3-0.1-0.5-0.2c-0.5-0.1-0.9-0.3-1.3-0.6c-0.1-0.1-0.2-0.2-0.3-0.3c0,0,0,0,0,0c0,0,0,0,0,0l0,0c0,0-0.1,0.1-0.2,0.1
			c-0.1,0.3,0.2,0.9,0.4,1.1c0.1,0.1,0.3,0.1,0.5,0.1c0.3,0.1,0.6,0.1,0.8,0.3l0.1,0l0,0v0l-0.1,0.1c-0.1,0.1-0.2,0.2-0.3,0.3
			l-0.1,0c0,0-0.1,0.1-0.1,0.1l-0.1,0c0,0-0.1,0-0.1,0c-0.2,0-0.4-0.1-0.5-0.2c-0.1,0-0.1-0.1-0.2-0.1l0,0.1c0.2,0.4,0.5,0.7,0.9,1
			l0,0.1c0,0,0.1,0,0.1,0h0c0.3,0,0.6-0.4,0.8-0.7c0-0.1,0.1-0.1,0.1-0.2l0.1,0c0.2-0.2,0.2-0.2,0.2-0.2l0.1,0
			c0.2,0,0.3,0.1,0.5,0.2c0.2-0.1,0.3-0.2,0.3-0.4l-0.1-0.1c-0.1-0.1-0.2-0.2-0.3-0.3l-0.1,0l0-0.1c0-0.1,0.1-0.1,0.2-0.2l0,0l0.1,0
			c0.3,0.1,0.6,0.1,0.9,0.2l0.3,0.1l0.1,0.1c0.2,0.1,0.3,0.2,0.5,0.2c0,0,0.1,0,0.1,0c0.2-0.2,0.3-0.3,0.3-0.4v0c0,0,0,0,0,0
			c-0.1-0.1-0.1-0.1-0.1-0.1l0.1-0.1c0,0,0,0,0.1-0.1c0.5-0.2,1-0.3,1.4-0.5c0.2-0.1,0.3-0.2,0.2-0.4
			C121.3,186.6,121.3,186.5,121.3,186.5"/>
	</g>
	<g>
		<defs>
			<rect id="SVGID_00000160912588361678980320000010160978670975338891_" x="-175.3" y="-515.9" width="1207.6" height="858.9"/>
		</defs>
		<clipPath id="SVGID_00000005982475532822418100000010421860863838370722_">
			<use xlink:href="#SVGID_00000160912588361678980320000010160978670975338891_"  style="overflow:visible;"/>
		</clipPath>
		<path id="path3317" style="clip-path:url(#SVGID_00000005982475532822418100000010421860863838370722_);fill:#184285;" d="
			M117.4,185.9c-0.1,0-0.2,0-0.3-0.1c-0.1-0.2,0.1-0.5,0.2-0.6c0-0.1,0.1-0.1,0.1-0.1l0-0.1l0-0.1c0.1-0.1,0.1-0.2,0.1-0.3
			c0-0.1,0-0.1,0-0.2c0.1-0.3,0.1-0.5,0.3-0.5c0.1,0,0.2,0,0.2,0.1c0,0,0,0.1,0,0.2l0,0c0,0,0,0.1,0,0.1c0,0.2,0,0.4,0,0.5l0,0.1
			c0,0.1,0,0.1,0,0.2c-0.1,0.2-0.1,0.5-0.3,0.6l-0.1,0.1l0,0C117.6,185.9,117.5,185.9,117.4,185.9L117.4,185.9z"/>
	</g>
	<g>
		<defs>
			<rect id="SVGID_00000071537264067702471890000002987147868136732053_" x="-175.3" y="-515.9" width="1207.6" height="858.9"/>
		</defs>
		<clipPath id="SVGID_00000117634404482888992320000017105830262720397967_">
			<use xlink:href="#SVGID_00000071537264067702471890000002987147868136732053_"  style="overflow:visible;"/>
		</clipPath>
		<path id="path3319" style="clip-path:url(#SVGID_00000117634404482888992320000017105830262720397967_);fill:#184285;" d="
			M117.4,185.9L117.4,185.9c0.1,0,0.2,0,0.3-0.1l0,0l0.1-0.1c0.2-0.1,0.2-0.4,0.3-0.6c0-0.1,0-0.1,0-0.2l0-0.1c0-0.2,0-0.4,0-0.5
			c0-0.1,0-0.1,0-0.1l0,0l0,0c0-0.1,0-0.2,0-0.2c0,0-0.1-0.1-0.2-0.1c-0.1,0.1-0.2,0.2-0.3,0.5c0,0.1,0,0.1-0.1,0.2
			c0,0.1-0.1,0.2-0.1,0.3l0,0.1l0,0.1c0,0-0.1,0.1-0.1,0.1c-0.1,0.2-0.3,0.4-0.2,0.6C117.2,185.9,117.3,185.9,117.4,185.9"/>
	</g>
	<g>
		<defs>
			<rect id="SVGID_00000026882458735990113420000007260557138811069878_" x="-175.3" y="-515.9" width="1207.6" height="858.9"/>
		</defs>
		<clipPath id="SVGID_00000143593290123945205750000005218907013464350859_">
			<use xlink:href="#SVGID_00000026882458735990113420000007260557138811069878_"  style="overflow:visible;"/>
		</clipPath>
		<path id="path3321" style="clip-path:url(#SVGID_00000143593290123945205750000005218907013464350859_);fill:#184285;" d="
			M116.3,185.7c-0.1,0-0.1,0-0.2-0.1c-0.2-0.4,0.4-0.8,0.5-0.8c0.1,0,0.1,0.1,0.2,0.2c0.1,0.2,0,0.4-0.1,0.6
			C116.5,185.6,116.4,185.7,116.3,185.7L116.3,185.7z"/>
	</g>
	<g>
		<defs>
			<rect id="SVGID_00000022540611820544551200000007033951238993094047_" x="-175.3" y="-515.9" width="1207.6" height="858.9"/>
		</defs>
		<clipPath id="SVGID_00000118392719932063426960000002440671129033607594_">
			<use xlink:href="#SVGID_00000022540611820544551200000007033951238993094047_"  style="overflow:visible;"/>
		</clipPath>
		<path id="path3323" style="clip-path:url(#SVGID_00000118392719932063426960000002440671129033607594_);fill:#184285;" d="
			M116.3,185.7L116.3,185.7c0.1,0,0.1-0.1,0.3-0.2c0.1-0.1,0.2-0.4,0.1-0.6c0-0.1-0.1-0.1-0.2-0.2c-0.1,0-0.6,0.5-0.5,0.8
			C116.2,185.6,116.3,185.7,116.3,185.7"/>
	</g>
</g>
</svg>
