<?xml version="1.0" encoding="utf-8"?>
<!-- Generator: Adobe Illustrator 28.0.0, SVG Export Plug-In . SVG Version: 6.00 Build 0)  -->
<svg version="1.1" id="svg1" xmlns:svg="http://www.w3.org/2000/svg"
	 xmlns="http://www.w3.org/2000/svg" xmlns:xlink="http://www.w3.org/1999/xlink" x="0px" y="0px" viewBox="0 0 39.1 39.1"
	 style="enable-background:new 0 0 39.1 39.1;" xml:space="preserve">
<style type="text/css">
	.st0{clip-path:url(#SVGID_00000148630525557651467870000009229152565927689912_);fill:#953419;}
	.st1{clip-path:url(#SVGID_00000096055086022635790780000000748784861595228310_);fill:#D19D81;}
	.st2{clip-path:url(#SVGID_00000039815138233514960870000004665822694074199227_);fill:#0F5832;}
	
		.st3{clip-path:url(#SVGID_00000121996189023055247310000012634596628412230068_);fill-rule:evenodd;clip-rule:evenodd;fill:#00A650;}
	
		.st4{clip-path:url(#SVGID_00000090293464990712547940000009781753277028584366_);fill-rule:evenodd;clip-rule:evenodd;fill:#00A650;}
	
		.st5{clip-path:url(#SVGID_00000132779821135631622740000008454053418916125113_);fill-rule:evenodd;clip-rule:evenodd;fill:#00A650;}
	
		.st6{clip-path:url(#SVGID_00000031177844103604748480000010622905561372001422_);fill-rule:evenodd;clip-rule:evenodd;fill:#00A650;}
	
		.st7{clip-path:url(#SVGID_00000104678932884575100330000006208630097641413055_);fill-rule:evenodd;clip-rule:evenodd;fill:#00A650;}
	
		.st8{clip-path:url(#SVGID_00000127036721227317287350000004113666384771937426_);fill-rule:evenodd;clip-rule:evenodd;fill:#00A650;}
	
		.st9{clip-path:url(#SVGID_00000000220827242869389160000006273529126946813831_);fill-rule:evenodd;clip-rule:evenodd;fill:#00A650;}
	
		.st10{clip-path:url(#SVGID_00000003089226081416723420000017548901356434029201_);fill-rule:evenodd;clip-rule:evenodd;fill:#00A650;}
	
		.st11{clip-path:url(#SVGID_00000130610608962984131250000012934302177309623948_);fill-rule:evenodd;clip-rule:evenodd;fill:#00A650;}
	
		.st12{clip-path:url(#SVGID_00000033334483842998630650000001076231536652229248_);fill-rule:evenodd;clip-rule:evenodd;fill:#00A650;}
	
		.st13{clip-path:url(#SVGID_00000078040214244825978710000001387103138499261067_);fill-rule:evenodd;clip-rule:evenodd;fill:#00A650;}
	.st14{clip-path:url(#SVGID_00000133511187460065779340000007755614692001702030_);fill:#00A650;}
	.st15{clip-path:url(#SVGID_00000012431578768202486610000018439265666826798265_);fill:#D19D81;}
	
		.st16{clip-path:url(#SVGID_00000029030576946140843060000006731039167314807484_);fill-rule:evenodd;clip-rule:evenodd;fill:#FFFFFF;}
	
		.st17{clip-path:url(#SVGID_00000132075997256913328860000011044948988435707805_);fill-rule:evenodd;clip-rule:evenodd;fill:#FFFFFF;}
	
		.st18{clip-path:url(#SVGID_00000060022908859020964410000005758304847058048911_);fill-rule:evenodd;clip-rule:evenodd;fill:#00A650;}
	
		.st19{clip-path:url(#SVGID_00000008860502295804703270000017421415114844945795_);fill-rule:evenodd;clip-rule:evenodd;fill:#FFFFFF;}
	
		.st20{clip-path:url(#SVGID_00000153664635308082305470000001825439787700276621_);fill-rule:evenodd;clip-rule:evenodd;fill:#00A650;}
	
		.st21{clip-path:url(#SVGID_00000016074715733809072220000008745644597678584473_);fill-rule:evenodd;clip-rule:evenodd;fill:#FFFFFF;}
	
		.st22{clip-path:url(#SVGID_00000057143875547775697460000018282147323946365612_);fill-rule:evenodd;clip-rule:evenodd;fill:#00A650;}
	
		.st23{clip-path:url(#SVGID_00000070803896760716691100000000239740512895789186_);fill-rule:evenodd;clip-rule:evenodd;fill:#FFFFFF;}
	
		.st24{clip-path:url(#SVGID_00000067956909386634457310000011127163798618739899_);fill-rule:evenodd;clip-rule:evenodd;fill:#FFFFFF;}
	
		.st25{clip-path:url(#SVGID_00000029755642763710533760000003654180090461689476_);fill-rule:evenodd;clip-rule:evenodd;fill:#864026;}
	
		.st26{clip-path:url(#SVGID_00000055668409609529966340000015488320577073031336_);fill-rule:evenodd;clip-rule:evenodd;fill:#864026;}
	
		.st27{clip-path:url(#SVGID_00000147899053709871882420000006432304015354082978_);fill-rule:evenodd;clip-rule:evenodd;fill:#864026;}
	
		.st28{clip-path:url(#SVGID_00000105388082829307769670000010329955374027242410_);fill-rule:evenodd;clip-rule:evenodd;fill:#864026;}
	
		.st29{clip-path:url(#SVGID_00000005248294796268283420000008166225696210628761_);fill-rule:evenodd;clip-rule:evenodd;fill:#FFFFFF;}
	
		.st30{clip-path:url(#SVGID_00000088843781079707890870000005177196528007737791_);fill-rule:evenodd;clip-rule:evenodd;fill:#FFFFFF;}
	
		.st31{clip-path:url(#SVGID_00000021117717285118837350000013573401150223294893_);fill-rule:evenodd;clip-rule:evenodd;fill:#FFFFFF;}
	
		.st32{clip-path:url(#SVGID_00000106117028280067066730000003981472724348658606_);fill-rule:evenodd;clip-rule:evenodd;fill:#FFFFFF;}
	
		.st33{clip-path:url(#SVGID_00000031200936086726431660000007237906804565966229_);fill-rule:evenodd;clip-rule:evenodd;fill:#864026;}
	
		.st34{clip-path:url(#SVGID_00000066516549847677497460000017621727237755525561_);fill-rule:evenodd;clip-rule:evenodd;fill:#FFFFFF;}
	
		.st35{clip-path:url(#SVGID_00000154406872920365739180000013842441894844343174_);fill-rule:evenodd;clip-rule:evenodd;fill:#FFFFFF;}
	
		.st36{clip-path:url(#SVGID_00000011021720927627350300000003033074827774811805_);fill-rule:evenodd;clip-rule:evenodd;fill:#FFFFFF;}
	
		.st37{clip-path:url(#SVGID_00000111184152556523691090000010351250928343519126_);fill-rule:evenodd;clip-rule:evenodd;fill:#FFFFFF;}
	
		.st38{clip-path:url(#SVGID_00000134248322241475129170000007516136573902013626_);fill-rule:evenodd;clip-rule:evenodd;fill:#FFFFFF;}
	.st39{clip-path:url(#SVGID_00000158022846239424924530000006124887071824895903_);fill:#00A650;}
	.st40{clip-path:url(#SVGID_00000098941568693186081510000007148295655268428221_);fill:#40BB6A;}
	.st41{clip-path:url(#SVGID_00000105423315674807624470000000189142616748420013_);fill:#80D190;}
	.st42{clip-path:url(#SVGID_00000111895553907855761310000009752074962651424153_);fill:#BFE8C1;}
	.st43{clip-path:url(#SVGID_00000062889467868560265410000001210574166526880901_);fill:#FFFFFF;}
	.st44{clip-path:url(#SVGID_00000098904142585167120340000000363651157002704534_);fill:#0F5832;}
	.st45{clip-path:url(#SVGID_00000106847676826959849110000000881800370540649407_);fill:#FFFFFF;}
	
		.st46{clip-path:url(#SVGID_00000144320747443268855700000014974408827893006513_);fill-rule:evenodd;clip-rule:evenodd;fill:#FFFFFF;}
	
		.st47{clip-path:url(#SVGID_00000036217155113306143720000009000398628842116785_);fill-rule:evenodd;clip-rule:evenodd;fill:#FFFFFF;}
	
		.st48{clip-path:url(#SVGID_00000145777742223422044490000003847047669699733675_);fill-rule:evenodd;clip-rule:evenodd;fill:#FFFFFF;}
	
		.st49{clip-path:url(#SVGID_00000140719661029653234340000004666708997369132426_);fill-rule:evenodd;clip-rule:evenodd;fill:#FFFFFF;}
	
		.st50{clip-path:url(#SVGID_00000153689060230456109370000015023593583277925529_);fill-rule:evenodd;clip-rule:evenodd;fill:#FFFFFF;}
	
		.st51{clip-path:url(#SVGID_00000075871662968119501330000009955066689765687723_);fill-rule:evenodd;clip-rule:evenodd;fill:#FFFFFF;}
	
		.st52{clip-path:url(#SVGID_00000136412569319681024560000010762510810828046734_);fill-rule:evenodd;clip-rule:evenodd;fill:#FFFFFF;}
	.st53{clip-path:url(#SVGID_00000070820240459502171280000003999929535885914522_);fill:#FFFFFF;}
	.st54{clip-path:url(#SVGID_00000016070305196598181340000015454426993602763953_);fill:#FFFFFF;}
	.st55{clip-path:url(#SVGID_00000052812913515105858730000005426907095979929216_);fill:#FFFFFF;}
	.st56{clip-path:url(#SVGID_00000159438103540798675350000003615615285612415406_);fill:#FFFFFF;}
	.st57{clip-path:url(#SVGID_00000142171344930514852020000014489415890220971695_);fill:#FFFFFF;}
	.st58{clip-path:url(#SVGID_00000112620581893577212110000009850557230288253363_);fill:#FFFFFF;}
	.st59{clip-path:url(#SVGID_00000140724891045992613530000007446369951426864272_);fill:#FFFFFF;}
	.st60{clip-path:url(#SVGID_00000021822050031724206680000015634748749008619702_);fill:#FFFFFF;}
	.st61{clip-path:url(#SVGID_00000075841493654353448420000013354359029504370054_);fill:#FFFFFF;}
	.st62{clip-path:url(#SVGID_00000178178771217748278740000018113890036401732748_);fill:#FFFFFF;}
	.st63{clip-path:url(#SVGID_00000178883491779001639540000007298542666335081348_);fill:#FFFFFF;}
	.st64{clip-path:url(#SVGID_00000154399096355191316210000001700756547381488570_);fill:#FFFFFF;}
	.st65{clip-path:url(#SVGID_00000017486338239102137030000000834098408602487701_);fill:#FFFFFF;}
	.st66{clip-path:url(#SVGID_00000075881142685781982310000006378709635017682830_);fill:#FFFFFF;}
	.st67{clip-path:url(#SVGID_00000042008715882142089460000003130702526741579949_);fill:#FFFFFF;}
	.st68{clip-path:url(#SVGID_00000146460965038717996240000004342745636613814700_);fill:#FFFFFF;}
	.st69{clip-path:url(#SVGID_00000152983444304987817870000014449963848787635344_);fill:#FFFFFF;}
	.st70{clip-path:url(#SVGID_00000155856009776738207100000001725470195795145361_);fill:#FFFFFF;}
	.st71{clip-path:url(#SVGID_00000114051861377561864690000000215708012204661663_);fill:#FFFFFF;}
	.st72{clip-path:url(#SVGID_00000049918688382185958770000008087523019151134860_);fill:#FFFFFF;}
	.st73{clip-path:url(#SVGID_00000003078331291934222690000005468573336219056053_);fill:#FFFFFF;}
	.st74{clip-path:url(#SVGID_00000168804930444741160200000004711045692392014002_);fill:#FFFFFF;}
	.st75{clip-path:url(#SVGID_00000052064523479014858030000002454348662753977739_);fill:#FFFFFF;}
	.st76{clip-path:url(#SVGID_00000065785067267458371600000009621133068859739267_);fill:#FFFFFF;}
	.st77{clip-path:url(#SVGID_00000116195083653255351800000007777703848069242769_);fill:#FFFFFF;}
	.st78{clip-path:url(#SVGID_00000037667722037756916520000008876295546745525662_);fill:#FFFFFF;}
	.st79{clip-path:url(#SVGID_00000008107327277694876440000000401737118498312326_);fill:#FFFFFF;}
	.st80{clip-path:url(#SVGID_00000045620364235503413930000014507583299438282386_);fill:#FFFFFF;}
</style>
<g id="layer1" transform="translate(-64.981095,-152.36732)">
	<g>
		<defs>
			<rect id="SVGID_1_" x="-138.1" y="-476.3" width="1207.6" height="858.9"/>
		</defs>
		<clipPath id="SVGID_00000162332600308671935700000015284498971253867143_">
			<use xlink:href="#SVGID_1_"  style="overflow:visible;"/>
		</clipPath>
		<path id="path2493" style="clip-path:url(#SVGID_00000162332600308671935700000015284498971253867143_);fill:#953419;" d="
			M65.2,171.9c0-10.7,8.6-19.3,19.3-19.3s19.3,8.6,19.3,19.3c0,10.7-8.6,19.3-19.3,19.3S65.2,182.6,65.2,171.9"/>
	</g>
	<g>
		<defs>
			<rect id="SVGID_00000116954468304661251280000001231808995028256421_" x="-138.1" y="-476.3" width="1207.6" height="858.9"/>
		</defs>
		<clipPath id="SVGID_00000124159014230426055870000007984591376890489279_">
			<use xlink:href="#SVGID_00000116954468304661251280000001231808995028256421_"  style="overflow:visible;"/>
		</clipPath>
		<path id="path2495" style="clip-path:url(#SVGID_00000124159014230426055870000007984591376890489279_);fill:#D19D81;" d="
			M84.5,152.9c-10.5,0-19,8.5-19,19s8.5,19,19,19s19-8.5,19-19S95,152.9,84.5,152.9 M84.5,191.5c-10.8,0-19.6-8.8-19.6-19.6
			s8.8-19.6,19.6-19.6s19.6,8.8,19.6,19.6S95.3,191.5,84.5,191.5"/>
	</g>
	<g>
		<defs>
			<rect id="SVGID_00000181795812510732807060000000613766606431896251_" x="-138.1" y="-476.3" width="1207.6" height="858.9"/>
		</defs>
		<clipPath id="SVGID_00000072270118852578472560000018090979354751297192_">
			<use xlink:href="#SVGID_00000181795812510732807060000000613766606431896251_"  style="overflow:visible;"/>
		</clipPath>
		<path id="path2497" style="clip-path:url(#SVGID_00000072270118852578472560000018090979354751297192_);fill:#0F5832;" d="
			M69.9,171.9c0-8.1,6.6-14.6,14.6-14.6c8.1,0,14.6,6.6,14.6,14.6s-6.6,14.6-14.6,14.6C76.5,186.6,69.9,180,69.9,171.9"/>
	</g>
	<g>
		<defs>
			<path id="SVGID_00000054257575684887596150000007359894488776255122_" d="M69.9,171.9c0,8.1,6.6,14.6,14.6,14.6l0,0
				c8.1,0,14.6-6.6,14.6-14.6l0,0c0-8.1-6.6-14.6-14.6-14.6l0,0C76.5,157.3,69.9,163.8,69.9,171.9"/>
		</defs>
		<clipPath id="SVGID_00000017492978299230111960000013618540356398676898_">
			<use xlink:href="#SVGID_00000054257575684887596150000007359894488776255122_"  style="overflow:visible;"/>
		</clipPath>
		
			<path id="path2499" style="clip-path:url(#SVGID_00000017492978299230111960000013618540356398676898_);fill-rule:evenodd;clip-rule:evenodd;fill:#00A650;" d="
			M84.5,181.1c0,0-0.1,0.1-0.1,0.2c-0.1,0.1-0.2,0.1-0.2,0.2c0,0,0.1,0.1,0.1,0.1v1.2c0,0-0.5,0-0.6,0c-0.1,0.1-0.3,0.2-0.4,0.2
			c-0.1,0.1-0.3,0.1-0.5,0.1c-0.1,0-0.2,0.2-0.4,0.2s-0.3,0.1-0.4,0.1c-0.2,0.1-0.2,0.3-0.2,0.3c-0.1,0-0.2,0-0.3,0.2
			c-0.1,0.2-0.3,0.1-0.3,0.2c0,0.1-0.2,0.3-0.3,0.3c-0.1,0-0.5,0.2-0.6,0.3c-1,0.1-1.4,0.2-1.4,0.2l11.3,0c0,0-0.7-0.2-1.1-0.2
			c0,0-0.4-0.3-0.6-0.3c-0.1,0-0.3-0.1-0.4-0.2c-0.1,0-0.3,0-0.3,0c-0.1-0.1-0.1-0.1-0.3-0.1c-0.1,0-0.1-0.1-0.1-0.2
			c0-0.1-0.2-0.1-0.3-0.2c-0.1,0-0.3-0.2-0.4-0.3c-0.1,0-0.2,0-0.3,0c-0.1,0-0.1-0.2-0.2-0.2c-0.1,0-0.4-0.1-0.5-0.1
			c-0.1-0.1-0.3-0.2-0.5-0.3c-0.2-0.1-0.6-0.1-0.6-0.1v-1.2c0,0,0,0,0,0c0,0-0.1-0.1-0.2-0.2C84.6,181.3,84.5,181.1,84.5,181.1"/>
	</g>
	<g>
		<defs>
			<path id="SVGID_00000094616856173556510460000017609181606642927791_" d="M69.9,171.9c0,8.1,6.6,14.6,14.6,14.6l0,0
				c8.1,0,14.6-6.6,14.6-14.6l0,0c0-8.1-6.6-14.6-14.6-14.6l0,0C76.5,157.3,69.9,163.8,69.9,171.9"/>
		</defs>
		<clipPath id="SVGID_00000181781607677325933740000003402563694958491779_">
			<use xlink:href="#SVGID_00000094616856173556510460000017609181606642927791_"  style="overflow:visible;"/>
		</clipPath>
		
			<path id="path2501" style="clip-path:url(#SVGID_00000181781607677325933740000003402563694958491779_);fill-rule:evenodd;clip-rule:evenodd;fill:#00A650;" d="
			M79.4,185C79.4,185,79.4,185.1,79.4,185c0.2,0.1,0.5,0.2,0.6,0.3c0.3,0.2,0.4,0.8,0.4,0.8l0.5,0l0,0.2l0.4,0c0,0-0.2,0-0.1,0
			c0.1,0,0.4,0,0.4,0s-0.5,0-0.4,0s0.6,0.1,0.6,0c0.1,0,0-0.3,0-0.3h-0.7c0,0,0-0.1-0.1-0.1c-0.1,0-0.3,0-0.3,0s-0.1-0.7-0.6-0.9
			C79.8,185,79.4,185,79.4,185"/>
	</g>
	<g>
		<defs>
			<path id="SVGID_00000029742428193676660670000014282837741496551562_" d="M69.9,171.9c0,8.1,6.6,14.6,14.6,14.6l0,0
				c8.1,0,14.6-6.6,14.6-14.6l0,0c0-8.1-6.6-14.6-14.6-14.6l0,0C76.5,157.3,69.9,163.8,69.9,171.9"/>
		</defs>
		<clipPath id="SVGID_00000003805121412534390230000005112485668241970328_">
			<use xlink:href="#SVGID_00000029742428193676660670000014282837741496551562_"  style="overflow:visible;"/>
		</clipPath>
		
			<path id="path2503" style="clip-path:url(#SVGID_00000003805121412534390230000005112485668241970328_);fill-rule:evenodd;clip-rule:evenodd;fill:#00A650;" d="
			M81,185.2c0,0,0,0.6,0,0.7c0,0.1,0.1,0.1,0.1,0s0-0.6,0-0.6C81.1,185.2,81,185.2,81,185.2"/>
	</g>
	<g>
		<defs>
			<path id="SVGID_00000003802075967484066170000018070397989147134868_" d="M69.9,171.9c0,8.1,6.6,14.6,14.6,14.6l0,0
				c8.1,0,14.6-6.6,14.6-14.6l0,0c0-8.1-6.6-14.6-14.6-14.6l0,0C76.5,157.3,69.9,163.8,69.9,171.9"/>
		</defs>
		<clipPath id="SVGID_00000039129286543876424660000017512862227598283194_">
			<use xlink:href="#SVGID_00000003802075967484066170000018070397989147134868_"  style="overflow:visible;"/>
		</clipPath>
		
			<path id="path2505" style="clip-path:url(#SVGID_00000039129286543876424660000017512862227598283194_);fill-rule:evenodd;clip-rule:evenodd;fill:#00A650;" d="
			M81.3,185.1c0,0.1,0,0.7,0,0.8c0,0,0.1,0,0.1,0c0,0,0-0.8,0-0.8C81.4,185.1,81.3,185,81.3,185.1"/>
	</g>
	<g>
		<defs>
			<path id="SVGID_00000151540876756874345000000007801862012341139109_" d="M69.9,171.9c0,8.1,6.6,14.6,14.6,14.6l0,0
				c8.1,0,14.6-6.6,14.6-14.6l0,0c0-8.1-6.6-14.6-14.6-14.6l0,0C76.5,157.3,69.9,163.8,69.9,171.9"/>
		</defs>
		<clipPath id="SVGID_00000029003963109687099020000015992309192570098310_">
			<use xlink:href="#SVGID_00000151540876756874345000000007801862012341139109_"  style="overflow:visible;"/>
		</clipPath>
		
			<path id="path2507" style="clip-path:url(#SVGID_00000029003963109687099020000015992309192570098310_);fill-rule:evenodd;clip-rule:evenodd;fill:#00A650;" d="
			M81.6,185.2c-0.1,0-0.1,0.1-0.1,0.2c0,0.1,0,0.5,0.1,0.5s0.1-0.4,0.1-0.5C81.6,185.3,81.6,185.1,81.6,185.2"/>
	</g>
	<g>
		<defs>
			<path id="SVGID_00000145755620564193684840000016924804948051882138_" d="M69.9,171.9c0,8.1,6.6,14.6,14.6,14.6l0,0
				c8.1,0,14.6-6.6,14.6-14.6l0,0c0-8.1-6.6-14.6-14.6-14.6l0,0C76.5,157.3,69.9,163.8,69.9,171.9"/>
		</defs>
		<clipPath id="SVGID_00000158717757963406271580000000121599102327373974_">
			<use xlink:href="#SVGID_00000145755620564193684840000016924804948051882138_"  style="overflow:visible;"/>
		</clipPath>
		
			<path id="path2509" style="clip-path:url(#SVGID_00000158717757963406271580000000121599102327373974_);fill-rule:evenodd;clip-rule:evenodd;fill:#00A650;" d="
			M84.4,185.2c-0.1,0-0.1,0.1-0.1,0.2c0,0.1,0,0.5,0.1,0.5s0.1-0.4,0.1-0.5C84.5,185.3,84.4,185.2,84.4,185.2"/>
	</g>
	<g>
		<defs>
			<path id="SVGID_00000065774545053951981040000010819959659573744563_" d="M69.9,171.9c0,8.1,6.6,14.6,14.6,14.6l0,0
				c8.1,0,14.6-6.6,14.6-14.6l0,0c0-8.1-6.6-14.6-14.6-14.6l0,0C76.5,157.3,69.9,163.8,69.9,171.9"/>
		</defs>
		<clipPath id="SVGID_00000062189248826488952680000011390589137468046001_">
			<use xlink:href="#SVGID_00000065774545053951981040000010819959659573744563_"  style="overflow:visible;"/>
		</clipPath>
		
			<path id="path2511" style="clip-path:url(#SVGID_00000062189248826488952680000011390589137468046001_);fill-rule:evenodd;clip-rule:evenodd;fill:#00A650;" d="
			M84.7,185.1c-0.1,0-0.1,0.1-0.1,0.3s0,0.6,0.1,0.6s0.1-0.4,0.1-0.6S84.8,185.1,84.7,185.1"/>
	</g>
	<g>
		<defs>
			<path id="SVGID_00000073711919762383874920000015072835094199495342_" d="M69.9,171.9c0,8.1,6.6,14.6,14.6,14.6l0,0
				c8.1,0,14.6-6.6,14.6-14.6l0,0c0-8.1-6.6-14.6-14.6-14.6l0,0C76.5,157.3,69.9,163.8,69.9,171.9"/>
		</defs>
		<clipPath id="SVGID_00000013910694213808501970000011356021692374871719_">
			<use xlink:href="#SVGID_00000073711919762383874920000015072835094199495342_"  style="overflow:visible;"/>
		</clipPath>
		
			<path id="path2513" style="clip-path:url(#SVGID_00000013910694213808501970000011356021692374871719_);fill-rule:evenodd;clip-rule:evenodd;fill:#00A650;" d="
			M84.9,185.2c0,0,0,0,0,0.2c0,0.1,0,0.5,0,0.5c0.1,0,0.1-0.4,0.1-0.5C85,185.3,85,185.2,84.9,185.2"/>
	</g>
	<g>
		<defs>
			<path id="SVGID_00000065753507406753993720000008233368599441016473_" d="M69.9,171.9c0,8.1,6.6,14.6,14.6,14.6l0,0
				c8.1,0,14.6-6.6,14.6-14.6l0,0c0-8.1-6.6-14.6-14.6-14.6l0,0C76.5,157.3,69.9,163.8,69.9,171.9"/>
		</defs>
		<clipPath id="SVGID_00000053525300683756723640000003583587865638173094_">
			<use xlink:href="#SVGID_00000065753507406753993720000008233368599441016473_"  style="overflow:visible;"/>
		</clipPath>
		
			<path id="path2515" style="clip-path:url(#SVGID_00000053525300683756723640000003583587865638173094_);fill-rule:evenodd;clip-rule:evenodd;fill:#00A650;" d="
			M87.7,185.2c-0.1,0-0.1,0.1-0.1,0.2c0,0.1,0,0.5,0.1,0.5c0.1,0,0.1-0.4,0.1-0.5C87.8,185.3,87.8,185.2,87.7,185.2"/>
	</g>
	<g>
		<defs>
			<path id="SVGID_00000029763183435907403780000017097406506714518683_" d="M69.9,171.9c0,8.1,6.6,14.6,14.6,14.6l0,0
				c8.1,0,14.6-6.6,14.6-14.6l0,0c0-8.1-6.6-14.6-14.6-14.6l0,0C76.5,157.3,69.9,163.8,69.9,171.9"/>
		</defs>
		<clipPath id="SVGID_00000116213764577331463300000004051096263186592932_">
			<use xlink:href="#SVGID_00000029763183435907403780000017097406506714518683_"  style="overflow:visible;"/>
		</clipPath>
		
			<path id="path2517" style="clip-path:url(#SVGID_00000116213764577331463300000004051096263186592932_);fill-rule:evenodd;clip-rule:evenodd;fill:#00A650;" d="
			M88,185.1c-0.1,0-0.1,0.1-0.1,0.3s0,0.6,0.1,0.6c0.1,0,0.1-0.4,0.1-0.6S88.1,185.1,88,185.1"/>
	</g>
	<g>
		<defs>
			<path id="SVGID_00000141421527707735420330000017948882197289412531_" d="M69.9,171.9c0,8.1,6.6,14.6,14.6,14.6l0,0
				c8.1,0,14.6-6.6,14.6-14.6l0,0c0-8.1-6.6-14.6-14.6-14.6l0,0C76.5,157.3,69.9,163.8,69.9,171.9"/>
		</defs>
		<clipPath id="SVGID_00000126301441589230077090000005917791491916053912_">
			<use xlink:href="#SVGID_00000141421527707735420330000017948882197289412531_"  style="overflow:visible;"/>
		</clipPath>
		
			<path id="path2519" style="clip-path:url(#SVGID_00000126301441589230077090000005917791491916053912_);fill-rule:evenodd;clip-rule:evenodd;fill:#00A650;" d="
			M88.3,185.2c0,0,0,0,0,0.2c0,0.1,0,0.5,0,0.5c0.1,0,0.1-0.4,0.1-0.5C88.4,185.3,88.3,185.2,88.3,185.2"/>
	</g>
	<g>
		<defs>
			<path id="SVGID_00000017514902647290282880000013178285513339606420_" d="M69.9,171.9c0,8.1,6.6,14.6,14.6,14.6l0,0
				c8.1,0,14.6-6.6,14.6-14.6l0,0c0-8.1-6.6-14.6-14.6-14.6l0,0C76.5,157.3,69.9,163.8,69.9,171.9"/>
		</defs>
		<clipPath id="SVGID_00000044161464163032009130000003611461821705597570_">
			<use xlink:href="#SVGID_00000017514902647290282880000013178285513339606420_"  style="overflow:visible;"/>
		</clipPath>
		<path id="path2521" style="clip-path:url(#SVGID_00000044161464163032009130000003611461821705597570_);fill:#00A650;" d="
			M85.1,186.1c0,0.1-0.1,0.2,0,0.3c-0.1,0-0.3,0-0.4,0c-0.1,0,0.2,0,0.2-0.1c0,0-0.1,0-0.1,0c-0.1,0,0.1,0,0.1-0.1c0,0-0.2,0-0.2,0
			c0,0,0.1-0.1,0.1-0.1l-0.3,0l0.1-0.1h-0.7c0,0,0-0.7-0.4-0.9c-0.3-0.1-0.7-0.2-1,0c-0.4,0.1-0.4,0.7-0.5,0.8c-0.1,0-0.1,0-0.1,0
			s0.1-0.5,0.2-0.6c0.1-0.1,0.3-0.3,0.8-0.3c0.5,0,1,0.1,1.2,0.3c0.2,0.2,0.2,0.8,0.2,0.8l0.8,0c0,0,0.2-0.6,0.3-0.7
			c0.1-0.1,0.3-0.3,0.8-0.3c0.5,0,1,0.1,1.2,0.3c0.2,0.2,0.2,0.8,0.2,0.8l0.8,0c0,0,0.2-0.7,0.5-0.9c0.3-0.2,0.8-0.2,0.8-0.2v0.3
			c0,0-0.6,0-0.8,0.1c-0.2,0.2-0.3,0.6-0.3,0.7c0,0.1,0,0.1,0,0.1c0,0-0.3,0.1-0.4,0.1c-0.1,0,0.2-0.1,0.2-0.1c0,0-0.4,0.1-0.4,0.1
			c0,0,0.2,0,0.2,0l-0.4,0l0.1,0h-0.7c0,0,0-0.7-0.4-0.9c-0.3-0.1-0.7-0.2-1,0c-0.4,0.1-0.4,0.7-0.5,0.8
			C85.2,186,85.2,186.1,85.1,186.1"/>
	</g>
	<g>
		<defs>
			<rect id="SVGID_00000128470778648355873420000007839206203182761126_" x="-138.1" y="-476.3" width="1207.6" height="858.9"/>
		</defs>
		<clipPath id="SVGID_00000142146270460308317730000010267530084164387201_">
			<use xlink:href="#SVGID_00000128470778648355873420000007839206203182761126_"  style="overflow:visible;"/>
		</clipPath>
		<path id="path2523" style="clip-path:url(#SVGID_00000142146270460308317730000010267530084164387201_);fill:#D19D81;" d="
			M84.5,157.5c-8,0-14.5,6.5-14.5,14.5c0,8,6.5,14.5,14.5,14.5S99,179.9,99,171.9C99,164,92.5,157.5,84.5,157.5 M84.5,186.8
			c-8.2,0-14.8-6.6-14.8-14.8c0-8.2,6.7-14.8,14.8-14.8s14.8,6.7,14.8,14.8C99.4,180.1,92.7,186.8,84.5,186.8"/>
	</g>
	<g>
		<defs>
			<rect id="SVGID_00000064346769900074318760000007703494456353284480_" x="-138.1" y="-476.3" width="1207.6" height="858.9"/>
		</defs>
		<clipPath id="SVGID_00000088134006679499308630000006201225809870929548_">
			<use xlink:href="#SVGID_00000064346769900074318760000007703494456353284480_"  style="overflow:visible;"/>
		</clipPath>
		
			<path id="path2525" style="clip-path:url(#SVGID_00000088134006679499308630000006201225809870929548_);fill-rule:evenodd;clip-rule:evenodd;fill:#FFFFFF;" d="
			M82.8,183.5h-0.1c-0.1,0.2-0.1,0.2-0.4,0.2v0.1h0.3v0.8h0.2V183.5z"/>
	</g>
	<g>
		<defs>
			<rect id="SVGID_00000107589055486648063310000011165587489438028183_" x="-138.1" y="-476.3" width="1207.6" height="858.9"/>
		</defs>
		<clipPath id="SVGID_00000135678952577092093040000004193270533457653395_">
			<use xlink:href="#SVGID_00000107589055486648063310000011165587489438028183_"  style="overflow:visible;"/>
		</clipPath>
		
			<path id="path2527" style="clip-path:url(#SVGID_00000135678952577092093040000004193270533457653395_);fill-rule:evenodd;clip-rule:evenodd;fill:#FFFFFF;" d="
			M83.8,184.3c0.1,0,0.3-0.1,0.3-0.1l0,0c0,0.3-0.1,0.4-0.3,0.4c-0.1,0-0.2-0.1-0.2-0.2h-0.2c0,0.1,0.1,0.3,0.4,0.3
			c0.5,0,0.5-0.5,0.5-0.7c0-0.2,0-0.5-0.5-0.5c-0.3,0-0.4,0.2-0.4,0.4C83.4,184.1,83.6,184.3,83.8,184.3"/>
	</g>
	<g>
		<defs>
			<rect id="SVGID_00000058583689013367925880000008071120823784539298_" x="-138.1" y="-476.3" width="1207.6" height="858.9"/>
		</defs>
		<clipPath id="SVGID_00000070110286056125070950000010476945264582212783_">
			<use xlink:href="#SVGID_00000058583689013367925880000008071120823784539298_"  style="overflow:visible;"/>
		</clipPath>
		
			<path id="path2529" style="clip-path:url(#SVGID_00000070110286056125070950000010476945264582212783_);fill-rule:evenodd;clip-rule:evenodd;fill:#00A650;" d="
			M83.9,184.2c-0.1,0-0.3,0-0.3-0.3c0-0.2,0.1-0.3,0.3-0.3c0.2,0,0.3,0.1,0.3,0.2C84.1,184.1,84,184.2,83.9,184.2"/>
	</g>
	<g>
		<defs>
			<rect id="SVGID_00000019661163362646496240000008980138167892096144_" x="-138.1" y="-476.3" width="1207.6" height="858.9"/>
		</defs>
		<clipPath id="SVGID_00000033335433030506743470000008540478984753284516_">
			<use xlink:href="#SVGID_00000019661163362646496240000008980138167892096144_"  style="overflow:visible;"/>
		</clipPath>
		
			<path id="path2531" style="clip-path:url(#SVGID_00000033335433030506743470000008540478984753284516_);fill-rule:evenodd;clip-rule:evenodd;fill:#FFFFFF;" d="
			M85.6,184.4v-0.1h-0.2v-0.8h-0.1l-0.6,0.7v0.1h0.6v0.3h0.2v-0.3H85.6z"/>
	</g>
	<g>
		<defs>
			<rect id="SVGID_00000048491772970652573440000001127206439593712571_" x="-138.1" y="-476.3" width="1207.6" height="858.9"/>
		</defs>
		<clipPath id="SVGID_00000060019824275439877620000002045485114325158278_">
			<use xlink:href="#SVGID_00000048491772970652573440000001127206439593712571_"  style="overflow:visible;"/>
		</clipPath>
		
			<path id="path2533" style="clip-path:url(#SVGID_00000060019824275439877620000002045485114325158278_);fill-rule:evenodd;clip-rule:evenodd;fill:#00A650;" d="
			M85.2,183.7L85.2,183.7l0,0.5h-0.4L85.2,183.7z"/>
	</g>
	<g>
		<defs>
			<rect id="SVGID_00000056427291803118604910000005871417728669899677_" x="-138.1" y="-476.3" width="1207.6" height="858.9"/>
		</defs>
		<clipPath id="SVGID_00000016047317900547993180000015932014984773022108_">
			<use xlink:href="#SVGID_00000056427291803118604910000005871417728669899677_"  style="overflow:visible;"/>
		</clipPath>
		
			<path id="path2535" style="clip-path:url(#SVGID_00000016047317900547993180000015932014984773022108_);fill-rule:evenodd;clip-rule:evenodd;fill:#FFFFFF;" d="
			M86.8,184.1c0-0.2-0.1-0.6-0.5-0.6c-0.4,0-0.5,0.4-0.5,0.6s0.1,0.6,0.5,0.6C86.7,184.7,86.8,184.4,86.8,184.1"/>
	</g>
	<g>
		<defs>
			<rect id="SVGID_00000078015115429539301490000001538794572984513950_" x="-138.1" y="-476.3" width="1207.6" height="858.9"/>
		</defs>
		<clipPath id="SVGID_00000173144924998605030940000012734718183806402737_">
			<use xlink:href="#SVGID_00000078015115429539301490000001538794572984513950_"  style="overflow:visible;"/>
		</clipPath>
		
			<path id="path2537" style="clip-path:url(#SVGID_00000173144924998605030940000012734718183806402737_);fill-rule:evenodd;clip-rule:evenodd;fill:#00A650;" d="
			M86.6,184.1c0,0.3-0.1,0.5-0.3,0.5c-0.2,0-0.3-0.2-0.3-0.5s0.1-0.5,0.3-0.5C86.5,183.6,86.6,183.8,86.6,184.1"/>
	</g>
	<g>
		<defs>
			<rect id="SVGID_00000121255933356522865830000007484094337171831743_" x="-138.1" y="-476.3" width="1207.6" height="858.9"/>
		</defs>
		<clipPath id="SVGID_00000142876274456667819150000002771415341427507097_">
			<use xlink:href="#SVGID_00000121255933356522865830000007484094337171831743_"  style="overflow:visible;"/>
		</clipPath>
		
			<path id="path2539" style="clip-path:url(#SVGID_00000142876274456667819150000002771415341427507097_);fill-rule:evenodd;clip-rule:evenodd;fill:#FFFFFF;" d="
			M81.5,154.4c0-0.1,0-0.2,0.1-0.2c0,0,0.1,0.1,0.1,0c0,0,0.1,0,0.1,0c0,0,0.1,0,0.1-0.1c0.1,0,0.1-0.1,0.2-0.1c0.1,0,0.1,0,0.2,0
			c0.1-0.1,0.4-0.2,0.5-0.2c0,0,0.1,0,0.1,0c0.1,0,0.2,0,0.2,0c0,0,0,0.1,0.1,0.1c0,0,0.1,0.1,0.1,0.1c0,0,0,0.1,0,0.1
			c0,0.1,0,0.1,0,0.1c0,0.1-0.1,0.1-0.1,0.2c0,0-0.1,0.1-0.1,0.1c-0.1,0.2-0.1,0.3-0.2,0.5c0,0,0,0.1-0.1,0.1c0,0-0.1,0-0.1,0
			c0,0-0.1,0-0.1,0c0,0-0.1,0-0.1,0.1c0,0,0,0.1,0,0.1c0,0,0.1,0,0.1,0c0,0,0-0.1,0.1-0.1c0,0,0.1,0,0.1,0c0,0,0.1,0,0.1,0
			c0,0.1,0,0.1,0.1,0.1c0,0,0,0,0,0.1c0,0-0.1,0.1-0.1,0.1c0,0-0.1,0-0.1,0.1c0,0,0,0,0,0.1c0,0,0,0,0.1,0c0,0,0.1,0,0.2-0.1
			c0,0,0.1,0,0.1,0c0,0,0.1-0.1,0.2-0.1c0,0,0.1-0.1,0.1,0c0,0.1,0.1,0.1,0.1,0.2c0,0.1,0,0.3-0.2,0.3c0,0,0,0-0.2,0
			c-0.1,0-0.3,0-0.3,0.1c0,0-0.1,0-0.2,0c-0.1,0-0.1,0-0.1,0c0,0-0.1,0-0.2,0c-0.1,0-0.2,0-0.2,0.1c0,0-0.1,0-0.2,0
			c0,0-0.1,0.1-0.2,0.1c0,0-0.1,0-0.1,0c0-0.1-0.1-0.1-0.1-0.2c0,0,0-0.1,0-0.1c0,0,0-0.1,0-0.1c0,0,0,0,0,0c0,0,0,0,0.1,0
			c0,0,0.1-0.1,0.2-0.1c0.1,0,0.2-0.1,0.2-0.1c0,0,0-0.1,0-0.1c0,0-0.1,0-0.1,0c0,0-0.1,0-0.1,0c0,0,0-0.1,0-0.1c0,0,0,0,0-0.1
			c0,0,0-0.1,0-0.1c0,0,0,0,0.1,0c0,0,0,0,0.1,0c0,0,0,0,0.1,0c0,0,0,0,0-0.1c0,0,0-0.1,0-0.1c0,0,0,0-0.1,0c0,0,0,0-0.1,0
			c0,0-0.1,0-0.1,0c0,0,0,0-0.1,0c0,0,0,0,0,0c0,0,0,0,0-0.1c0-0.1-0.1-0.1-0.1-0.1c0,0,0-0.1,0-0.1c0-0.1,0-0.1,0-0.2
			c0,0-0.1-0.2-0.1-0.3c0,0,0-0.1-0.1-0.1c0,0,0-0.1,0-0.1C81.5,154.6,81.5,154.5,81.5,154.4"/>
	</g>
	<g>
		<defs>
			<rect id="SVGID_00000174590577485883099520000015273787201807042202_" x="-138.1" y="-476.3" width="1207.6" height="858.9"/>
		</defs>
		<clipPath id="SVGID_00000107553228242419930320000001710097126439564179_">
			<use xlink:href="#SVGID_00000174590577485883099520000015273787201807042202_"  style="overflow:visible;"/>
		</clipPath>
		
			<path id="path2541" style="clip-path:url(#SVGID_00000107553228242419930320000001710097126439564179_);fill-rule:evenodd;clip-rule:evenodd;fill:#FFFFFF;" d="
			M81.4,154.4c0,0,0,0.1,0,0.1c0,0,0,0.1,0,0.2c0,0,0,0.1-0.1,0.1c0,0-0.1,0.1-0.1,0.2c0,0.1,0,0.1,0,0.2c0,0,0,0.1,0,0.1
			c0,0,0.1,0,0.1,0c0,0,0,0,0,0.1c0.1,0.1,0.1,0.1,0.1,0.1c0,0,0,0,0,0.1c0,0-0.2,0.2-0.2,0.3c0,0,0,0.1,0,0.1c0,0,0.1,0,0.1,0
			c0,0,0.1,0,0.1,0s0,0.1,0,0.1c0,0.1-0.1,0.2-0.2,0.3c-0.1,0.1-0.3,0.2-0.4,0.3c-0.1,0.1-0.1,0.2-0.2,0.2c0,0-0.1,0-0.1,0
			c0,0-0.1,0-0.1,0c0,0,0-0.1-0.1-0.1c0,0-0.1-0.1-0.1-0.1c0-0.1-0.1-0.1-0.1-0.2c0,0,0.1-0.2,0.2-0.2c0,0,0.1-0.1,0.1-0.1
			c0,0,0,0,0.1-0.1c0,0,0-0.1,0-0.1c0,0,0-0.1,0-0.1c0,0,0-0.1,0-0.1c0,0,0,0,0-0.1c0,0-0.1-0.1-0.1-0.1c0-0.1,0-0.1,0.1-0.2
			c0,0,0.1,0,0.1,0c0.1,0,0.1-0.1,0.1-0.1c0,0,0-0.1,0-0.2c0-0.1-0.1-0.1-0.1-0.1c0,0-0.1,0-0.1,0c0,0-0.1,0-0.1-0.1c0,0,0,0-0.1,0
			c0,0,0-0.1,0-0.1c0,0,0,0,0.1,0c0,0,0,0,0-0.1c0,0,0.1-0.1,0.1-0.1c0,0,0.1,0,0.1,0c0.2-0.1,0.3-0.3,0.5-0.3c0.1,0,0.1,0,0.2,0
			C81.4,154.2,81.4,154.3,81.4,154.4"/>
	</g>
	<g>
		<defs>
			<rect id="SVGID_00000042729351937568607650000009400353293399492512_" x="-138.1" y="-476.3" width="1207.6" height="858.9"/>
		</defs>
		<clipPath id="SVGID_00000007388421831483301110000014824060871326880134_">
			<use xlink:href="#SVGID_00000042729351937568607650000009400353293399492512_"  style="overflow:visible;"/>
		</clipPath>
		
			<path id="path2543" style="clip-path:url(#SVGID_00000007388421831483301110000014824060871326880134_);fill-rule:evenodd;clip-rule:evenodd;fill:#864026;" d="
			M82.6,154.2C82.6,154.2,82.6,154.3,82.6,154.2c0,0.1,0,0.2-0.1,0.2c0,0-0.1,0-0.1,0c0,0-0.1-0.1-0.1-0.1
			C82.4,154.3,82.5,154.3,82.6,154.2"/>
	</g>
	<g>
		<defs>
			<rect id="SVGID_00000121244378794596078650000007932166828611247033_" x="-138.1" y="-476.3" width="1207.6" height="858.9"/>
		</defs>
		<clipPath id="SVGID_00000165230445434577935460000014242657631343292842_">
			<use xlink:href="#SVGID_00000121244378794596078650000007932166828611247033_"  style="overflow:visible;"/>
		</clipPath>
		
			<path id="path2545" style="clip-path:url(#SVGID_00000165230445434577935460000014242657631343292842_);fill-rule:evenodd;clip-rule:evenodd;fill:#864026;" d="
			M82,154.5C82.1,154.5,82.1,154.5,82,154.5c0.1,0.1,0,0.2,0,0.2c0,0-0.1,0-0.1,0C81.9,154.7,81.9,154.6,82,154.5
			C81.9,154.5,82,154.5,82,154.5"/>
	</g>
	<g>
		<defs>
			<rect id="SVGID_00000062912100307297677930000006797182614928352154_" x="-138.1" y="-476.3" width="1207.6" height="858.9"/>
		</defs>
		<clipPath id="SVGID_00000176020999619634644280000011214760890441279886_">
			<use xlink:href="#SVGID_00000062912100307297677930000006797182614928352154_"  style="overflow:visible;"/>
		</clipPath>
		
			<path id="path2547" style="clip-path:url(#SVGID_00000176020999619634644280000011214760890441279886_);fill-rule:evenodd;clip-rule:evenodd;fill:#864026;" d="
			M82.5,154.7C82.5,154.7,82.5,154.7,82.5,154.7c0.1,0,0.1,0.1,0.1,0.1c0,0.1-0.1,0.1-0.1,0.1c0,0-0.1,0-0.1,0
			C82.4,154.9,82.4,154.8,82.5,154.7C82.4,154.8,82.5,154.8,82.5,154.7"/>
	</g>
	<g>
		<defs>
			<rect id="SVGID_00000078013124068427189160000006458513319870555031_" x="-138.1" y="-476.3" width="1207.6" height="858.9"/>
		</defs>
		<clipPath id="SVGID_00000034805230290551132130000004445545575879611792_">
			<use xlink:href="#SVGID_00000078013124068427189160000006458513319870555031_"  style="overflow:visible;"/>
		</clipPath>
		
			<path id="path2549" style="clip-path:url(#SVGID_00000034805230290551132130000004445545575879611792_);fill-rule:evenodd;clip-rule:evenodd;fill:#864026;" d="
			M82.1,154.9C82.1,154.9,82.2,154.9,82.1,154.9c0,0.1,0,0.2,0,0.2c0,0-0.1,0-0.1,0c0,0,0,0,0-0.1c0,0,0-0.1,0-0.1
			C82,154.9,82.1,154.9,82.1,154.9"/>
	</g>
	<g>
		<defs>
			<rect id="SVGID_00000026129592524673422420000012424960830926138303_" x="-138.1" y="-476.3" width="1207.6" height="858.9"/>
		</defs>
		<clipPath id="SVGID_00000023980546050869696830000012219316787219727493_">
			<use xlink:href="#SVGID_00000026129592524673422420000012424960830926138303_"  style="overflow:visible;"/>
		</clipPath>
		
			<path id="path2551" style="clip-path:url(#SVGID_00000023980546050869696830000012219316787219727493_);fill-rule:evenodd;clip-rule:evenodd;fill:#FFFFFF;" d="
			M76.4,156.5c0,0,0.1,0,0.1,0c0,0,0.1-0.1,0.1-0.1c0.1,0,0.2,0,0.2,0c0,0,0.1,0.1,0.1,0.1c0,0,0.1,0.1,0.1,0.1c0,0.1,0,0.1,0,0.2
			c0,0,0,0.1,0,0.1c0,0.1,0,0.3,0,0.4c0,0,0,0.1,0,0.1c0,0,0,0-0.1,0c0,0,0,0.1,0,0.1c0,0,0,0.1,0.1,0.1c0.1,0,0.3,0.4,0.3,0.5
			c0,0.1,0,0.2,0,0.2c0,0,0,0.1,0,0.2c0,0,0,0.1-0.1,0.1c0,0,0,0-0.1,0c0,0-0.1,0-0.1,0c0,0,0,0-0.1,0c0,0-0.1,0-0.1,0
			c0,0-0.1,0-0.1-0.1c-0.1,0-0.2,0-0.2-0.1c0,0,0.1-0.1,0.1-0.1c0.1,0,0.1,0,0.2,0c0.1,0,0.1-0.1,0-0.2c0,0,0-0.1,0-0.1
			c0,0-0.1-0.1-0.1-0.1c0,0-0.1-0.1-0.1-0.2c0,0,0,0-0.1,0c0,0-0.1,0-0.1,0c0,0,0,0-0.1,0.1c0,0-0.1,0-0.1,0.1c0,0,0,0-0.1,0
			c0,0,0,0-0.1-0.1c0,0,0,0,0,0c0,0,0-0.1-0.1-0.1c0,0-0.1-0.1-0.1-0.1c0,0-0.1-0.1-0.1-0.1c-0.1-0.1-0.1-0.1-0.1-0.2
			c-0.1-0.1,0-0.2,0-0.2c0,0,0-0.1,0.1-0.1c0,0,0.1,0,0.1,0c0,0,0.1,0,0.1,0c0,0,0.1-0.1,0.1-0.1c0,0,0.1-0.1,0.1-0.1
			c0,0,0.1-0.1,0.1-0.1c0,0,0,0,0.1-0.1c0,0,0.1,0,0.1-0.1c0,0,0,0,0-0.1C76.4,156.6,76.4,156.5,76.4,156.5
			C76.4,156.5,76.4,156.5,76.4,156.5"/>
	</g>
	<g>
		<defs>
			<rect id="SVGID_00000169536132007955097050000000917491231912071614_" x="-138.1" y="-476.3" width="1207.6" height="858.9"/>
		</defs>
		<clipPath id="SVGID_00000109738839213259203960000015763636924397358219_">
			<use xlink:href="#SVGID_00000169536132007955097050000000917491231912071614_"  style="overflow:visible;"/>
		</clipPath>
		
			<path id="path2553" style="clip-path:url(#SVGID_00000109738839213259203960000015763636924397358219_);fill-rule:evenodd;clip-rule:evenodd;fill:#FFFFFF;" d="
			M77.1,157.4C77.1,157.3,77.1,157.4,77.1,157.4c0.1,0,0.2,0,0.2,0c0,0,0.1,0,0.1,0c0,0,0.1,0,0.1,0c0,0,0,0,0.1-0.1
			c0,0,0.2,0,0.2,0c0,0,0,0,0.1,0c0,0,0,0.1,0,0.1c0,0.1,0,0.1,0,0.1c0,0,0,0.1,0,0.1c0,0,0,0.1,0,0.1c0,0,0,0.1-0.1,0.1
			c0,0-0.1,0-0.1,0c0,0,0,0.1-0.1,0.1c0,0-0.1,0-0.1,0c0,0,0-0.1-0.1-0.1c0,0-0.1-0.1-0.1-0.1c0,0-0.1,0-0.1-0.1
			c0-0.1-0.1-0.1-0.1-0.1c0,0,0-0.1,0-0.1C77.1,157.4,77,157.4,77.1,157.4"/>
	</g>
	<g>
		<defs>
			<rect id="SVGID_00000142176209657648149190000009288135673639673767_" x="-138.1" y="-476.3" width="1207.6" height="858.9"/>
		</defs>
		<clipPath id="SVGID_00000156548456367936890660000010741625675588041128_">
			<use xlink:href="#SVGID_00000142176209657648149190000009288135673639673767_"  style="overflow:visible;"/>
		</clipPath>
		
			<path id="path2555" style="clip-path:url(#SVGID_00000156548456367936890660000010741625675588041128_);fill-rule:evenodd;clip-rule:evenodd;fill:#FFFFFF;" d="
			M75.9,158.4c0.1,0,0.1,0.1,0.2,0.1c0,0,0.1-0.1,0.1-0.1c0,0,0.1-0.1,0.1-0.1c0,0,0,0,0.1,0c0,0,0,0.1,0,0.1c0,0,0,0.1,0,0.1
			c0,0,0,0.1,0,0.1c0,0,0,0,0,0.1c0,0.1,0,0.1,0,0.1c0,0,0,0.1,0,0.1c0,0-0.1,0-0.1,0.1c0,0-0.1,0.1-0.1,0.1c-0.1,0-0.2,0.1-0.2,0
			c0,0,0-0.1,0-0.1c0,0,0,0-0.1-0.1c0,0,0-0.1,0-0.1C75.8,158.6,75.8,158.5,75.9,158.4C75.9,158.4,75.9,158.4,75.9,158.4"/>
	</g>
	<g>
		<defs>
			<rect id="SVGID_00000177472917985207925680000016984586659485745024_" x="-138.1" y="-476.3" width="1207.6" height="858.9"/>
		</defs>
		<clipPath id="SVGID_00000132809687250427102750000003692550614794286997_">
			<use xlink:href="#SVGID_00000177472917985207925680000016984586659485745024_"  style="overflow:visible;"/>
		</clipPath>
		
			<path id="path2557" style="clip-path:url(#SVGID_00000132809687250427102750000003692550614794286997_);fill-rule:evenodd;clip-rule:evenodd;fill:#FFFFFF;" d="
			M75.5,155.6C75.6,155.6,75.6,155.6,75.5,155.6c0.1-0.1,0.2-0.1,0.2-0.1c0,0,0,0,0.1,0c0,0,0.1,0,0.1,0c0,0,0.1,0.1,0.1,0.1
			c0,0,0.1,0,0.2,0.1c0.1,0.1,0,0.1,0,0.2c0,0,0,0.1,0,0c0,0,0.2-0.2,0.2-0.2c0.1-0.1,0.1-0.1,0.1-0.1c0,0,0.1,0,0.1,0
			c0,0,0.1,0,0.1,0c0,0,0.1,0,0.1,0c0,0,0.1,0,0.1,0c0,0,0,0,0,0.1c0,0.1-0.1,0.2-0.1,0.2c0,0,0,0-0.1,0c0,0-0.1,0.1-0.1,0.1
			l-0.1,0.1c0,0-0.1,0.1-0.1,0.1c0,0-0.1,0.1-0.1,0.1c0,0-0.1,0-0.1,0.1c0,0-0.1,0.1-0.1,0.2c-0.1,0.1-0.3,0.3-0.3,0.3
			c0,0-0.1,0-0.1,0.1c0,0-0.1,0.1-0.1,0.1c0,0.1-0.1,0-0.1,0.1c0,0,0,0-0.1,0.1c0,0,0,0-0.1,0.1c0,0,0,0-0.1,0c0,0-0.1,0-0.1,0
			c0,0,0,0.1-0.1,0.1c0,0-0.1,0.1-0.1,0.1c0,0,0,0.1,0,0.1c0,0,0,0-0.1,0c0,0-0.1,0-0.1,0.1c0,0-0.1,0-0.1-0.1c0,0,0,0-0.1-0.1
			c0,0,0-0.1,0-0.1c0-0.1,0.1-0.2,0.1-0.2c0,0,0.1,0,0.1,0c0,0,0.1-0.1,0.1-0.1c0.1-0.1,0.2-0.1,0.2-0.2c0,0,0.1,0,0.1-0.1
			c0,0,0.1-0.2,0.2-0.2c0,0,0.1-0.1,0.1-0.1c0,0,0,0,0-0.1c0,0,0,0-0.1,0c0,0-0.1,0-0.1,0c0,0,0,0,0-0.1c0,0,0,0,0-0.1
			c0,0,0-0.1,0-0.1c0,0-0.2-0.1-0.2-0.1c0,0,0,0,0-0.1c0-0.1,0.1-0.1,0.1-0.1c0,0,0-0.1,0-0.1C75.4,155.7,75.5,155.7,75.5,155.6
			C75.5,155.6,75.5,155.6,75.5,155.6"/>
	</g>
	<g>
		<defs>
			<rect id="SVGID_00000042007364394338433680000012491872356945724561_" x="-138.1" y="-476.3" width="1207.6" height="858.9"/>
		</defs>
		<clipPath id="SVGID_00000003063666744829443550000007198267019781353151_">
			<use xlink:href="#SVGID_00000042007364394338433680000012491872356945724561_"  style="overflow:visible;"/>
		</clipPath>
		
			<path id="path2559" style="clip-path:url(#SVGID_00000003063666744829443550000007198267019781353151_);fill-rule:evenodd;clip-rule:evenodd;fill:#864026;" d="
			M76.4,157C76.4,157,76.4,157,76.4,157C76.5,157,76.5,157,76.4,157c0.1,0.1,0.1,0.1,0,0.2c0,0.1,0,0.1-0.1,0.1c0,0-0.1,0.1-0.1,0.1
			c0,0-0.1,0-0.1,0c0,0,0-0.1,0-0.1c0,0,0.1-0.1,0.1-0.1C76.3,157.1,76.3,157.1,76.4,157C76.3,157.1,76.4,157,76.4,157"/>
	</g>
	<g>
		<defs>
			<rect id="SVGID_00000070091206098413785880000014394064591901537719_" x="-138.1" y="-476.3" width="1207.6" height="858.9"/>
		</defs>
		<clipPath id="SVGID_00000097484448466055835380000001281823774744413608_">
			<use xlink:href="#SVGID_00000070091206098413785880000014394064591901537719_"  style="overflow:visible;"/>
		</clipPath>
		
			<path id="path2561" style="clip-path:url(#SVGID_00000097484448466055835380000001281823774744413608_);fill-rule:evenodd;clip-rule:evenodd;fill:#FFFFFF;" d="
			M98.8,159.9c0,0,0,0.1,0,0.2c0,0.1-0.1,0.1-0.1,0.1c-0.1,0-0.1,0-0.2,0c0,0-0.1,0.1-0.1,0.1c0,0,0,0.1,0,0.1c0,0-0.1,0-0.3,0.1
			c0,0-0.2,0-0.2,0c0,0,0,0.1,0,0.1c0,0-0.1,0.1,0,0.1c0,0,0.1,0.1,0.2,0c0,0,0-0.1,0-0.1c0,0,0.1-0.1,0.1-0.1c0,0,0.1,0,0.1,0
			c0,0,0.1,0,0.1,0c0,0,0-0.1,0.1-0.1c0.1,0,0.1,0,0.1,0c0,0,0.1,0,0.1,0c0,0,0.1,0,0.1,0c0.1,0,0-0.1,0.1-0.2
			c0.1-0.1,0.3,0.1,0.4,0.1c0,0,0,0,0.1,0c0,0,0.1,0,0.1,0.1c0,0,0,0.1,0,0.1c0,0,0,0.1,0,0.1c0,0-0.1,0-0.1,0.1c0,0-0.1,0-0.2,0
			c-0.1,0-0.2,0.1-0.3,0.1c0,0-0.1,0-0.1,0c0,0-0.1,0-0.1,0.1c0,0-0.1,0-0.1,0.1c0,0,0,0,0,0.1c0,0,0.1,0,0.1,0c0,0,0.1,0,0.1,0.1
			c0,0,0,0.1,0,0.1c0,0,0,0,0,0.1c0,0,0,0,0,0.1c0,0.1-0.1,0.1-0.1,0.2c0,0-0.1,0.1-0.2,0.1c0,0-0.2-0.1-0.2-0.2c0,0-0.1,0-0.1,0
			c0,0-0.1-0.1-0.1-0.1c0,0-0.1-0.1-0.1-0.1c-0.1-0.1-0.2-0.1-0.3-0.1c0,0-0.1,0-0.1,0c0,0-0.1,0-0.2,0c0,0-0.1,0-0.1,0.1
			c0,0,0,0,0,0.1c0,0,0.1,0,0.1,0.1c0,0,0.1,0,0.1,0c0,0,0,0.1,0,0.2c0,0,0,0.1,0.1,0.1c0,0,0,0.1,0,0.1c0,0-0.1,0.1-0.1,0.1
			c0,0-0.1,0-0.1,0c0,0-0.1-0.1-0.1-0.1c0,0-0.1,0-0.1,0c0,0-0.2-0.1-0.2-0.1c0,0-0.1,0.1-0.1,0.1c0,0-0.1,0.1-0.1,0.1
			c0,0-0.1,0-0.1,0.1c0,0-0.1,0-0.1,0c-0.1,0-0.2,0.1-0.2,0.1c-0.1,0-0.1,0-0.2-0.1c-0.1-0.1-0.1,0-0.1-0.1c-0.1,0-0.1-0.1-0.1-0.1
			c0,0,0.1-0.1,0.1-0.1c0.1-0.1,0-0.2,0-0.3c0,0,0.1,0,0.1,0c0.1,0.1,0.2,0.1,0.2,0.2c0.1,0.1,0.3-0.1,0.4-0.1c0,0,0.1,0,0-0.1
			c0,0-0.1-0.1-0.1-0.1c0,0-0.1-0.1-0.2-0.1c0,0-0.1-0.1-0.1-0.1c0,0-0.1,0-0.1-0.1c0,0,0,0,0-0.1c0,0,0-0.1,0.1-0.1
			c0,0,0.1-0.1,0.1-0.1c0,0,0.2,0,0.2,0.1c0,0,0,0.1,0.1,0.1c0,0,0.1,0,0.1,0c0,0,0.1,0.1,0.1,0.1c0.1,0,0.1,0,0.1,0c0,0,0,0,0.1,0
			c0,0,0.1-0.1,0.1-0.1c0,0,0.1,0,0.1,0c0,0,0-0.1-0.1-0.1s-0.1,0-0.1,0c0,0-0.1,0-0.1,0c0,0-0.1,0-0.1-0.1c0,0,0-0.1,0-0.1
			c0,0,0.1-0.1,0.1-0.1c0,0,0.1-0.1,0.2-0.1c0,0,0.1,0.1,0.1,0.1c0,0,0,0,0.1,0c0,0,0.1,0.1,0.1,0.1c0,0,0.1,0.1,0.1,0.1
			c0,0,0.1,0.1,0.1,0.1c0,0,0,0,0.1,0c0,0,0,0,0.1,0c0,0,0.1,0.1,0.1,0.1c0,0,0.1,0.1,0.1,0.1c0,0,0,0.1,0.1,0.1c0,0,0.1,0,0.1,0
			c0,0,0.1,0,0.1,0c0,0-0.1-0.1-0.1-0.1c0,0-0.1-0.1-0.1-0.1c-0.1,0-0.1-0.1-0.2-0.2c0,0-0.1-0.1-0.1-0.1c0,0-0.1-0.1-0.1-0.1
			c0,0-0.1-0.1-0.2-0.1c0,0-0.1-0.1-0.1-0.1c-0.1,0-0.1-0.1-0.2-0.1c-0.1,0-0.1,0-0.2,0c0,0-0.1,0-0.1,0c-0.1,0-0.2,0-0.3-0.1
			c0,0,0,0,0-0.1c0,0,0.1-0.1,0.1-0.2c0,0,0.1,0,0.2-0.1c0,0,0.1,0,0.1,0c0,0,0,0,0.1,0c0.1,0,0.2,0,0.3-0.1c0,0,0,0,0,0
			c0,0-0.1,0.1-0.1,0.2c0,0,0,0.1,0,0.1c0,0,0.1,0.1,0.1,0.1c0,0,0,0,0.1,0c0,0,0-0.1,0-0.1c0,0,0.1-0.1,0.1-0.1
			c0,0,0.1-0.1,0.2-0.2c0.1,0,0.1-0.1,0.2-0.2c0,0,0.1-0.1,0.1-0.1c0,0,0.1,0,0.1,0c0,0,0,0,0.1,0.1c0,0,0,0,0,0c0,0,0,0,0,0.1
			c0,0,0,0-0.1,0.1c0,0-0.1,0.1-0.1,0.1c0,0,0,0-0.1,0c0,0,0,0-0.1,0.1c0,0-0.1,0-0.1,0.1c0,0-0.1,0.1-0.1,0.1c0,0,0,0.1-0.1,0.1
			c0,0-0.1,0.1-0.1,0.1c0,0-0.1,0-0.1,0c0,0,0,0.1,0,0.1c0,0,0.1,0,0.1,0.1c0,0,0,0,0.1,0.1c0,0,0.1,0.1,0.1,0.1c0,0,0.1,0,0.1,0
			c0,0,0.1,0,0.1,0c0,0,0,0,0,0c0,0,0-0.1-0.1-0.1c0,0-0.1,0-0.1,0c0,0,0-0.1,0-0.1c0,0,0-0.1,0-0.1c0,0-0.1,0-0.1,0c0,0,0,0-0.1,0
			c0,0,0,0-0.1,0c0,0,0-0.1,0-0.1c0,0,0.1-0.1,0.2-0.1c0,0,0.1-0.1,0.1-0.1c0.1-0.1,0.1-0.1,0.2-0.1c0,0,0-0.1,0-0.1
			c0,0,0.1,0,0.1,0c0,0,0.1,0,0.1,0c0,0,0,0.1-0.1,0.1c0,0,0,0,0,0.1c0,0-0.1,0.2-0.2,0.2c0,0,0,0,0,0.1c0,0,0.1,0.1,0.1,0.1
			c0,0,0,0.1,0,0.1c0,0,0.1,0,0.2,0c0.1,0,0.1-0.1,0.1-0.1c0,0-0.1,0-0.1,0c0,0-0.1,0-0.1,0c0,0,0.1-0.1,0.1-0.1c0,0,0.1,0,0.1,0
			c0,0,0-0.1,0.1-0.1c0,0,0.1,0,0.1,0c0,0,0,0.1,0,0.1c0,0,0.1,0,0.2,0C98.6,159.8,98.7,159.8,98.8,159.9
			C98.7,159.8,98.7,159.9,98.8,159.9C98.8,159.9,98.8,159.9,98.8,159.9"/>
	</g>
	<g>
		<defs>
			<rect id="SVGID_00000014607582751336531910000015812745420834228157_" x="-138.1" y="-476.3" width="1207.6" height="858.9"/>
		</defs>
		<clipPath id="SVGID_00000162336777553850736000000012340183191676088450_">
			<use xlink:href="#SVGID_00000014607582751336531910000015812745420834228157_"  style="overflow:visible;"/>
		</clipPath>
		
			<path id="path2563" style="clip-path:url(#SVGID_00000162336777553850736000000012340183191676088450_);fill-rule:evenodd;clip-rule:evenodd;fill:#FFFFFF;" d="
			M70.6,160.6C70.6,160.5,70.7,160.5,70.6,160.6c0.1-0.1,0.2-0.1,0.2-0.1c0,0,0.1-0.1,0.1-0.1c0,0,0,0,0.1,0c0,0,0.1,0,0.1,0
			c0.1,0,0.1,0,0.2,0c0,0,0,0,0.1,0.1c0,0,0.1,0.1,0.1,0.1c0,0,0,0.1,0.1,0.1c0,0,0.1,0.1,0.1,0.1c0,0,0.1,0.1,0.2,0.2
			c0,0,0.1,0.1,0.1,0.1c0,0,0.1,0.1,0.1,0.1c0,0,0.1,0,0.1,0c0,0,0,0,0,0c0,0,0.1,0,0.1,0c0,0,0,0.1,0.1,0.2c0,0,0,0.1,0,0.1
			c0,0.1,0,0.2,0,0.2c0,0.1,0,0.2,0,0.2c0,0.1,0,0.1-0.1,0.2c0,0.1-0.1,0.2-0.1,0.3c0,0,0,0.1-0.1,0.1c0,0,0,0.2,0,0.3
			c0,0-0.1,0-0.2,0c0,0,0,0-0.1,0c0,0-0.1,0-0.1-0.1c0,0-0.1,0-0.1,0c0,0,0-0.1,0-0.1c0,0,0,0,0.1-0.1c0-0.1,0-0.1,0-0.1
			c0-0.1,0-0.1,0.1-0.1c0-0.1,0-0.2,0.1-0.3c0,0,0-0.1,0-0.2c0,0-0.2-0.2-0.2-0.2c0,0-0.1,0-0.1,0c0,0-0.1,0.1-0.1,0.1
			c0,0,0,0.1,0,0.1c0,0,0,0.1,0,0.1c0,0,0,0-0.1,0c-0.1,0-0.1,0-0.1-0.1c0,0,0,0-0.1,0c0,0,0-0.1-0.1-0.1c-0.1,0,0-0.1,0-0.2
			c0,0,0-0.1,0.1-0.1c0,0,0.1-0.1,0.1-0.1c0,0,0.1-0.1,0.1-0.2c0-0.1,0-0.1-0.1-0.1c-0.1-0.1-0.1-0.2-0.2-0.2
			c-0.1-0.1-0.2-0.1-0.2-0.1c0,0,0,0,0,0C70.6,160.7,70.6,160.7,70.6,160.6C70.6,160.6,70.6,160.6,70.6,160.6"/>
	</g>
	<g>
		<defs>
			<rect id="SVGID_00000077291374976926455290000012945408801451863205_" x="-138.1" y="-476.3" width="1207.6" height="858.9"/>
		</defs>
		<clipPath id="SVGID_00000094610782572527095190000002056874821054419883_">
			<use xlink:href="#SVGID_00000077291374976926455290000012945408801451863205_"  style="overflow:visible;"/>
		</clipPath>
		
			<path id="path2565" style="clip-path:url(#SVGID_00000094610782572527095190000002056874821054419883_);fill-rule:evenodd;clip-rule:evenodd;fill:#FFFFFF;" d="
			M71.6,159.3C71.6,159.2,71.7,159.2,71.6,159.3c0.1,0,0.1-0.1,0.2-0.1c0,0,0.1,0,0.1,0c0.1,0,0.1,0.1,0.2,0.1
			c0.1,0.1,0.1,0.2,0.1,0.2c0,0,0,0.1,0.1,0.1c0.1,0,0.1,0,0.1-0.1c0,0,0-0.1,0-0.1c0,0,0.1,0,0.2-0.1c0,0,0.1,0,0.2,0
			c0,0,0.1,0.1,0.1,0.1c0,0,0,0.1,0,0.1c0,0,0,0.1-0.1,0.1c0,0,0,0.1,0,0.1c0,0.1,0,0.1,0,0.2c0,0.1,0,0.2-0.1,0.2
			c0,0,0.1,0.2,0.1,0.2c0,0,0.1,0.1,0.1,0.1c0.1,0,0.1,0.1,0.2,0.1c0.1,0,0.1,0,0.2-0.1c0,0,0.1-0.1,0.1-0.1c0,0,0.1,0,0.1-0.1
			c0,0,0.1,0,0.1,0c0,0,0.1-0.1,0.1-0.1c0.1,0,0.1,0,0.2,0.1c0,0,0.1,0.1,0.1,0.2c0,0,0.1,0.1,0.1,0.1c0,0-0.1,0.1-0.1,0.1
			c0,0.1,0,0.1-0.1,0.1s-0.1,0-0.1,0c-0.1,0-0.1,0.1-0.1,0.1c0,0-0.1,0.1-0.1,0.1c0,0-0.1,0-0.1,0.1c0,0-0.1,0.1-0.1,0.1
			c0,0-0.1,0-0.1,0c0,0-0.1,0-0.2,0c0,0-0.1-0.1-0.1-0.1c0,0-0.2-0.1-0.2-0.1l-0.1-0.1c0,0-0.1-0.1-0.1-0.1c0,0-0.1-0.1-0.1-0.1
			c-0.1-0.1-0.1-0.1-0.2-0.2c0,0,0-0.1,0-0.1c-0.1-0.1,0-0.1-0.1-0.1c0,0-0.1-0.1-0.1-0.1c-0.1-0.1-0.1-0.2-0.2-0.2
			c0,0-0.1-0.1-0.1-0.1c0-0.1-0.1-0.2-0.1-0.2c0,0-0.1-0.1-0.1-0.1c0,0,0-0.1,0-0.1c0,0,0.1,0,0.1-0.1c0,0,0-0.1,0.1-0.1
			C71.5,159.4,71.5,159.4,71.6,159.3C71.5,159.4,71.6,159.3,71.6,159.3"/>
	</g>
	<g>
		<defs>
			<rect id="SVGID_00000029043116990776775670000004842243043683733135_" x="-138.1" y="-476.3" width="1207.6" height="858.9"/>
		</defs>
		<clipPath id="SVGID_00000087384087537758479900000004268640752687537049_">
			<use xlink:href="#SVGID_00000029043116990776775670000004842243043683733135_"  style="overflow:visible;"/>
		</clipPath>
		
			<path id="path2567" style="clip-path:url(#SVGID_00000087384087537758479900000004268640752687537049_);fill-rule:evenodd;clip-rule:evenodd;fill:#FFFFFF;" d="
			M88.9,154.5C89,154.5,89,154.5,88.9,154.5c0.1,0.1,0.1,0.1,0.1,0.2c0,0,0,0.1,0,0.1c0,0,0,0.1,0,0.1c0,0.1-0.1,0.1-0.2,0.1
			c-0.1,0-0.1,0-0.2,0.1c0,0-0.1,0-0.1,0c-0.1,0-0.2,0-0.2,0.1c0,0.1,0,0.1,0,0.2c0,0,0,0.1-0.1,0.1c0,0,0,0,0,0.1c0,0,0,0.1,0,0.1
			c0,0,0,0,0,0.1c0,0.1-0.1,0.2,0,0.2c0.1,0,0.3,0.1,0.4,0.1c0,0,0.1,0,0.1,0c0,0,0.1,0,0.1,0c0,0,0.1,0,0.1,0.1
			c0,0,0.1,0.1,0.1,0.1c0,0,0.1,0.1,0.1,0.1c0,0,0,0.1,0,0.1c0,0,0,0,0,0c0,0,0,0,0,0.1c0,0,0,0.1-0.1,0.1c0,0-0.1,0.1-0.1,0
			c-0.1,0-0.1,0-0.1,0c0,0-0.1,0-0.1-0.1c0,0-0.1,0-0.1,0c-0.1,0-0.2-0.1-0.2-0.1c0,0-0.2,0-0.2-0.1c-0.1,0-0.2,0-0.2,0
			c0,0-0.2,0-0.2,0c-0.1,0-0.2-0.1-0.2-0.1c-0.1,0-0.3,0-0.4,0c-0.2,0-0.5,0.1-0.6,0.1c0,0-0.1-0.1-0.2-0.2c0,0,0-0.1,0-0.1
			c0,0,0-0.1,0-0.1c0,0,0.2-0.1,0.2-0.1c0,0,0.1,0,0.1,0c0,0,0.2,0,0.3,0c0,0,0.1,0,0.1,0c0.1,0,0.2,0,0.3,0c0.2,0,0.3-0.3,0.3-0.3
			c0,0,0-0.1,0.1-0.1c0,0,0-0.1,0-0.1c0,0-0.1,0-0.1,0c0,0-0.1,0-0.1,0c0,0,0-0.1,0-0.1c0-0.1,0-0.1,0-0.2c0,0,0-0.1,0-0.1
			c0,0,0-0.1,0-0.1c0-0.1,0.1-0.1,0.1-0.1c0,0,0.1,0.1,0.2,0.1c0,0,0.3,0,0.5,0c0,0,0.1,0,0.1,0c0,0,0,0,0.1,0c0.1,0,0.2,0,0.4-0.1
			C88.8,154.4,88.8,154.5,88.9,154.5C88.9,154.5,88.9,154.5,88.9,154.5"/>
	</g>
	<g>
		<defs>
			<rect id="SVGID_00000116209693757290176470000016732622696397790876_" x="-138.1" y="-476.3" width="1207.6" height="858.9"/>
		</defs>
		<clipPath id="SVGID_00000062161443288431600920000013322387512621437086_">
			<use xlink:href="#SVGID_00000116209693757290176470000016732622696397790876_"  style="overflow:visible;"/>
		</clipPath>
		
			<path id="path2569" style="clip-path:url(#SVGID_00000062161443288431600920000013322387512621437086_);fill-rule:evenodd;clip-rule:evenodd;fill:#FFFFFF;" d="
			M93.7,156.2c0,0,0.1,0.1,0.1,0.1c0,0.1,0,0.1,0.1,0.2c0,0,0,0.1,0,0.1c0,0,0,0.1,0,0.1c0,0-0.1,0.1-0.1,0.1c0,0-0.1,0.1,0,0.1
			c0,0,0,0,0.1,0c0,0,0.1,0,0.1,0c0,0,0.1,0,0.1,0c0,0,0.1,0,0.1,0c0,0,0.2,0,0.2,0.1c0,0.1,0.1,0.1,0.1,0.1c0.1,0,0,0.2,0,0.2
			c0,0,0,0-0.1,0c0,0-0.1,0-0.1,0c-0.1,0-0.1,0-0.2,0c0,0-0.1,0-0.1,0c0,0-0.1,0-0.1-0.1c0,0-0.2,0-0.2,0c0,0-0.1,0-0.1,0.1
			c0,0-0.1,0.1-0.1,0.1c0,0.1,0,0.2,0.1,0.5c0,0.1,0,0.3,0.1,0.4c0.1,0.1,0.1,0.2,0.1,0.3c0,0,0.1,0.1,0.1,0.1c0,0,0,0.1,0.1,0.1
			c0.1,0.1,0.1,0.1,0.2,0.2c0,0,0.1,0,0.1,0.1c0,0,0,0-0.1,0c0,0,0,0.1-0.1,0.1c-0.1,0-0.1,0-0.2,0c0,0-0.1,0-0.1,0c0,0,0,0-0.1,0
			c0,0-0.1-0.1-0.1-0.1c0,0-0.1,0-0.1-0.1c0,0-0.1,0-0.1-0.1c0-0.1-0.1-0.1-0.1-0.1c0,0-0.1-0.1-0.1-0.1c0-0.1,0.1-0.1,0-0.3
			c0-0.1,0-0.2,0-0.3c0,0,0-0.1,0-0.2c-0.1-0.1-0.1-0.3-0.1-0.3c0,0-0.2,0.1-0.3,0.1c-0.1,0-0.2,0-0.3,0.1c-0.1,0-0.3,0-0.3,0
			c-0.1,0-0.2,0-0.2,0c-0.1,0-0.1,0-0.2-0.1c0,0-0.1,0-0.1,0c0,0,0-0.1,0-0.1c0,0,0-0.1,0-0.1c0,0-0.1-0.1-0.1-0.1c0,0,0,0,0.1,0
			c0.1,0,0.1,0,0.1,0c0,0,0.1,0,0.1,0c0,0,0.1,0,0.1,0c0.1,0,0.4-0.1,0.5-0.1c0.1,0,0.2-0.1,0.3-0.2c0,0,0.1-0.1,0.1-0.1
			c0,0-0.1,0-0.1,0c0,0,0,0-0.1,0c0,0-0.1,0-0.1,0c0,0,0,0-0.1,0c0,0,0-0.1-0.1-0.1c0,0-0.1-0.1,0-0.2c0,0,0-0.1,0.1-0.1
			c0,0,0.1,0,0.1,0c0,0,0.1,0,0.1,0c0,0,0,0,0.1,0c0,0,0.1,0.1,0.2,0.1c0.1,0,0.2,0,0.3,0.1c0-0.1,0.1-0.1,0.2-0.2
			c0,0,0.1-0.1,0.1-0.1c0.1-0.1,0.1-0.1,0.1-0.1c0,0,0,0,0.1,0C93.6,156.2,93.6,156.2,93.7,156.2C93.6,156.2,93.7,156.2,93.7,156.2"
			/>
	</g>
	<g>
		<defs>
			<rect id="SVGID_00000176005454597520243450000010667320190153804221_" x="-138.1" y="-476.3" width="1207.6" height="858.9"/>
		</defs>
		<clipPath id="SVGID_00000072981654258617422770000001589608064090131584_">
			<use xlink:href="#SVGID_00000176005454597520243450000010667320190153804221_"  style="overflow:visible;"/>
		</clipPath>
		<path id="path2571" style="clip-path:url(#SVGID_00000072981654258617422770000001589608064090131584_);fill:#00A650;" d="
			M84.5,180.7l-2-0.4l0.6-2.3c-5.2-0.4-9-1.6-9-1.6c-0.8-0.5-1.4-1.6-1.4-1.6s1.3,0.3,2.3,0.4c2,0.1,5.2-0.2,7.5,0.1
			c0,0,1.1,0,2.1,0s2.1,0,2.1,0c2.3-0.2,5.4,0,7.5-0.1c1,0,2.3-0.4,2.3-0.4s-0.7,1.1-1.4,1.6c0,0-3.8,1.2-9,1.6l0.6,2.3L84.5,180.7z
			"/>
	</g>
	<g>
		<defs>
			<rect id="SVGID_00000055668978995432559990000010181677615495281305_" x="-138.1" y="-476.3" width="1207.6" height="858.9"/>
		</defs>
		<clipPath id="SVGID_00000181779260025375374340000010492708533950242992_">
			<use xlink:href="#SVGID_00000055668978995432559990000010181677615495281305_"  style="overflow:visible;"/>
		</clipPath>
		<path id="path2573" style="clip-path:url(#SVGID_00000181779260025375374340000010492708533950242992_);fill:#40BB6A;" d="
			M84.5,172.4c1.5,0,3.1,0,3,0c2.3-0.4,4.9-0.2,6.2-0.2c0.7,0,1.6-0.2,1.6-0.2c-0.2,0.3-0.7,1-1.5,1.6c-0.5,0.3-1.2,0.6-1.8,0.8
			c-0.6,0.2-3.2,0.8-4.3,1c-0.7,0.1-1.3,0.2-1.9,0.2l0.5,2.2l-1.9,0.3l-1.9-0.3l0.5-2.2c-0.6,0-1.2-0.1-1.9-0.2
			c-1.1-0.1-3.7-0.7-4.3-1c-0.6-0.2-1.2-0.5-1.8-0.8c-0.7-0.5-1.3-1.3-1.5-1.6c0,0,0.9,0.2,1.6,0.2c1.3,0,3.9-0.1,6.2,0.2
			C81.5,172.4,83,172.4,84.5,172.4"/>
	</g>
	<g>
		<defs>
			<rect id="SVGID_00000153703139563721496880000011805558936326696094_" x="-138.1" y="-476.3" width="1207.6" height="858.9"/>
		</defs>
		<clipPath id="SVGID_00000149365184755978821430000013208789942213158053_">
			<use xlink:href="#SVGID_00000153703139563721496880000011805558936326696094_"  style="overflow:visible;"/>
		</clipPath>
		<path id="path2575" style="clip-path:url(#SVGID_00000149365184755978821430000013208789942213158053_);fill:#80D190;" d="
			M84.6,175.3L84.6,175.3L84.6,175.3l-1.9-0.2l0.5-2.1c-0.1,0.1-1,0-1.6-0.1c-1.2-0.2-2.4-0.5-3.5-1c-0.6-0.3-1.2-0.7-1.8-1.2
			c-0.7-0.6-1.2-1.3-1.4-1.6c0,0,1.1,0.2,1.6,0.2c0.9,0,2.7,0.1,5.1,0.3c0,0,1.5,0,3,0c1.5,0,3,0,3,0c2.4-0.2,4.2-0.3,5.1-0.3
			c0.5,0,1.6-0.2,1.6-0.2c-0.2,0.3-0.7,1-1.4,1.6c-0.6,0.5-1.2,0.9-1.8,1.2c-1.1,0.5-2.3,0.8-3.5,1c-0.6,0.1-1.5,0.2-1.6,0.1
			l0.5,2.1L84.6,175.3z"/>
	</g>
	<g>
		<defs>
			<rect id="SVGID_00000003794913370357973240000005914706979980561592_" x="-138.1" y="-476.3" width="1207.6" height="858.9"/>
		</defs>
		<clipPath id="SVGID_00000170255012898469959420000009881935545796424352_">
			<use xlink:href="#SVGID_00000003794913370357973240000005914706979980561592_"  style="overflow:visible;"/>
		</clipPath>
		<path id="path2577" style="clip-path:url(#SVGID_00000170255012898469959420000009881935545796424352_);fill:#BFE8C1;" d="
			M84.5,172.3l-1.7-0.1l0.5-1.9c-0.2,0.1-0.7,0.1-1.2,0c-0.9-0.1-1.8-0.4-2.5-0.8c-0.9-0.5-1.6-1.1-2.3-1.9c-0.5-0.6-1-1.5-1.1-1.8
			c0.1,0,0.5,0.1,0.9,0.2c0.5,0.1,2.7,0.6,5.5,0.7h4c2.8-0.1,5-0.6,5.5-0.7c0.4-0.1,0.8-0.2,0.9-0.2c-0.1,0.3-0.6,1.2-1.1,1.8
			c-0.7,0.8-1.4,1.4-2.3,1.9c-0.8,0.4-1.6,0.7-2.5,0.8c-0.5,0.1-1,0.1-1.2,0l0.5,1.9L84.5,172.3z"/>
	</g>
	<g>
		<defs>
			<rect id="SVGID_00000092416118240824740670000015314508961142111407_" x="-138.1" y="-476.3" width="1207.6" height="858.9"/>
		</defs>
		<clipPath id="SVGID_00000137103670786819964690000010626243931078031750_">
			<use xlink:href="#SVGID_00000092416118240824740670000015314508961142111407_"  style="overflow:visible;"/>
		</clipPath>
		<path id="path2579" style="clip-path:url(#SVGID_00000137103670786819964690000010626243931078031750_);fill:#FFFFFF;" d="
			M83,169.2l0.4-1.7c0,0-0.5,0.2-1.1,0c-0.7-0.2-0.9-0.8-0.9-0.8s-0.8,0.1-1.4-0.4c-0.5-0.4-0.6-1.2-0.6-1.2s-0.9-0.2-1.5-1
			c-0.6-0.7-0.6-1.4-0.6-1.6c1.2,0.4,3.6,1,6.4,0.9c0,0,0.3-1.6,0.3-1.8c0-0.2,0.1-0.7,0.6-0.7h0c0.4,0,0.5,0.5,0.6,0.7
			c0,0.1,0.3,1.8,0.3,1.8c2.8,0,5.2-0.5,6.4-0.9c0,0.2,0,0.9-0.6,1.6c-0.6,0.8-1.5,1-1.5,1s-0.1,0.8-0.6,1.2
			c-0.6,0.5-1.4,0.4-1.4,0.4s-0.2,0.6-0.9,0.8c-0.6,0.2-1.1,0-1.1,0l0.4,1.7H83z"/>
	</g>
	<g>
		<defs>
			<rect id="SVGID_00000101784885601469625960000001329210641235167109_" x="-138.1" y="-476.3" width="1207.6" height="858.9"/>
		</defs>
		<clipPath id="SVGID_00000128443207292732373410000009126504860096056744_">
			<use xlink:href="#SVGID_00000101784885601469625960000001329210641235167109_"  style="overflow:visible;"/>
		</clipPath>
		<path id="path2581" style="clip-path:url(#SVGID_00000128443207292732373410000009126504860096056744_);fill:#0F5832;" d="
			M83.1,169.1H86l-0.4-1.8l0.2,0.1c0,0,0.2,0.1,0.6,0.1c0.2,0,0.3,0,0.4-0.1c0.7-0.2,0.9-0.7,0.9-0.7l0-0.1l0.1,0c0,0,0.1,0,0.2,0
			c0.3,0,0.8,0,1.1-0.4c0.5-0.4,0.5-1.1,0.5-1.1l0-0.1l0.1,0c0,0,0.9-0.2,1.5-0.9c0.4-0.5,0.5-1,0.5-1.4c-0.8,0.3-3.1,0.9-6.2,0.9
			l-0.2,0l0-0.1c0,0-0.3-1.6-0.3-1.8l0,0c-0.1-0.3-0.2-0.6-0.4-0.6h0c-0.3,0-0.4,0.3-0.4,0.6l0,0c0,0.1-0.3,1.8-0.3,1.8l0,0.1
			l-0.2,0c-3,0-5.3-0.6-6.2-0.9c0,0.3,0.1,0.9,0.5,1.4c0.6,0.7,1.5,0.9,1.5,0.9l0.1,0l0,0.1c0,0,0.1,0.7,0.5,1.1
			c0.4,0.3,0.9,0.4,1.1,0.4c0.1,0,0.2,0,0.2,0l0.1,0l0,0.1c0,0,0.2,0.5,0.9,0.7c0.1,0,0.3,0.1,0.4,0.1c0.3,0,0.6-0.1,0.6-0.1
			l0.2-0.1L83.1,169.1z M86.3,169.4h-3.5l0.4-1.6c-0.1,0-0.3,0.1-0.4,0.1c-0.2,0-0.4,0-0.5-0.1c-0.6-0.2-0.9-0.6-1-0.8
			c0,0-0.1,0-0.1,0c-0.3,0-0.8-0.1-1.3-0.4c-0.5-0.4-0.6-1-0.6-1.2c-0.3-0.1-1-0.3-1.5-1c-0.5-0.7-0.6-1.4-0.6-1.7l0-0.2l0.2,0.1
			c0.7,0.2,3,0.9,6.2,0.9h0c0.1-0.4,0.3-1.5,0.3-1.7l0,0c0-0.2,0.2-0.8,0.7-0.8h0c0.5,0,0.6,0.6,0.7,0.8l0,0c0,0.1,0.3,1.3,0.3,1.7
			h0c3.2,0,5.6-0.7,6.2-0.9l0.2-0.1l0,0.2c0,0.4-0.1,1.1-0.6,1.7c-0.5,0.7-1.3,0.9-1.5,1c0,0.2-0.2,0.8-0.6,1.2
			c-0.5,0.4-1.2,0.4-1.4,0.4c-0.1,0.2-0.4,0.6-1,0.8c-0.2,0.1-0.3,0.1-0.5,0.1c-0.2,0-0.3,0-0.4-0.1L86.3,169.4z"/>
	</g>
	<g>
		<defs>
			<rect id="SVGID_00000001632729435236909660000012755715627387941804_" x="-138.1" y="-476.3" width="1207.6" height="858.9"/>
		</defs>
		<clipPath id="SVGID_00000110429299615594126750000011698645449852456581_">
			<use xlink:href="#SVGID_00000001632729435236909660000012755715627387941804_"  style="overflow:visible;"/>
		</clipPath>
		<path id="path2583" style="clip-path:url(#SVGID_00000110429299615594126750000011698645449852456581_);fill:#FFFFFF;" d="
			M84.4,161.9c0,0,0,0,0.4-0.1c1.2-0.3,2.7-1.1,3.5-2c0.1-0.1,0.2-0.2,0.2-0.2c0.1-0.1,0.1,0.1-0.1,0.4c-0.7,0.9-2.3,1.8-3.9,2.1
			C84.2,162.2,84.2,162,84.4,161.9"/>
	</g>
	<g>
		<defs>
			<rect id="SVGID_00000170278582248639816810000017311235319262330270_" x="-138.1" y="-476.3" width="1207.6" height="858.9"/>
		</defs>
		<clipPath id="SVGID_00000019661141178281080340000015832409557654158978_">
			<use xlink:href="#SVGID_00000170278582248639816810000017311235319262330270_"  style="overflow:visible;"/>
		</clipPath>
		
			<path id="path2585" style="clip-path:url(#SVGID_00000019661141178281080340000015832409557654158978_);fill-rule:evenodd;clip-rule:evenodd;fill:#FFFFFF;" d="
			M85.7,161.5c0,0-0.3-0.4-0.2-0.9c0.1-0.5,0.5-0.8,0.5-0.8s0.1,0.4,0.2,0.9C86.2,161.2,85.7,161.5,85.7,161.5"/>
	</g>
	<g>
		<defs>
			<rect id="SVGID_00000051351458883383401570000008563330931489325449_" x="-138.1" y="-476.3" width="1207.6" height="858.9"/>
		</defs>
		<clipPath id="SVGID_00000109745142713326694030000017069819961562071690_">
			<use xlink:href="#SVGID_00000051351458883383401570000008563330931489325449_"  style="overflow:visible;"/>
		</clipPath>
		
			<path id="path2587" style="clip-path:url(#SVGID_00000109745142713326694030000017069819961562071690_);fill-rule:evenodd;clip-rule:evenodd;fill:#FFFFFF;" d="
			M86.8,161c0,0-0.3-0.4-0.2-0.9c0.1-0.5,0.4-0.8,0.4-0.8s0.1,0.4,0.2,0.9C87.2,160.6,86.8,161,86.8,161"/>
	</g>
	<g>
		<defs>
			<rect id="SVGID_00000026155840008960906860000006857668193835293825_" x="-138.1" y="-476.3" width="1207.6" height="858.9"/>
		</defs>
		<clipPath id="SVGID_00000160167958870875971790000002273661109345616794_">
			<use xlink:href="#SVGID_00000026155840008960906860000006857668193835293825_"  style="overflow:visible;"/>
		</clipPath>
		
			<path id="path2589" style="clip-path:url(#SVGID_00000160167958870875971790000002273661109345616794_);fill-rule:evenodd;clip-rule:evenodd;fill:#FFFFFF;" d="
			M85.8,161.8c0,0,0.4-0.2,0.8,0c0.4,0.2,0.8,0.6,0.8,0.6s-0.3,0.2-0.9,0C86,162.2,85.8,161.8,85.8,161.8"/>
	</g>
	<g>
		<defs>
			<rect id="SVGID_00000036240466959946113980000010859259946303548051_" x="-138.1" y="-476.3" width="1207.6" height="858.9"/>
		</defs>
		<clipPath id="SVGID_00000010273269654156289200000004459051327461030028_">
			<use xlink:href="#SVGID_00000036240466959946113980000010859259946303548051_"  style="overflow:visible;"/>
		</clipPath>
		
			<path id="path2591" style="clip-path:url(#SVGID_00000010273269654156289200000004459051327461030028_);fill-rule:evenodd;clip-rule:evenodd;fill:#FFFFFF;" d="
			M87.6,160.4c0,0-0.2-0.4-0.2-0.8c0.1-0.4,0.4-0.8,0.4-0.8s0.1,0.4,0.1,0.9C88,160,87.6,160.4,87.6,160.4"/>
	</g>
	<g>
		<defs>
			<rect id="SVGID_00000127757494353948615550000013403199797485355669_" x="-138.1" y="-476.3" width="1207.6" height="858.9"/>
		</defs>
		<clipPath id="SVGID_00000057116654053190071760000004477450237215757741_">
			<use xlink:href="#SVGID_00000127757494353948615550000013403199797485355669_"  style="overflow:visible;"/>
		</clipPath>
		
			<path id="path2593" style="clip-path:url(#SVGID_00000057116654053190071760000004477450237215757741_);fill-rule:evenodd;clip-rule:evenodd;fill:#FFFFFF;" d="
			M88.4,159.8c0,0,0.4,0,0.5-0.5c0.2-0.4,0.2-0.9,0.2-0.9s-0.3,0.1-0.6,0.6C88.2,159.4,88.4,159.8,88.4,159.8"/>
	</g>
	<g>
		<defs>
			<rect id="SVGID_00000109750778937405506690000016173423612289394106_" x="-138.1" y="-476.3" width="1207.6" height="858.9"/>
		</defs>
		<clipPath id="SVGID_00000181800262274761433630000006244387869855517099_">
			<use xlink:href="#SVGID_00000109750778937405506690000016173423612289394106_"  style="overflow:visible;"/>
		</clipPath>
		
			<path id="path2595" style="clip-path:url(#SVGID_00000181800262274761433630000006244387869855517099_);fill-rule:evenodd;clip-rule:evenodd;fill:#FFFFFF;" d="
			M86.8,161.2c0,0,0.4-0.2,0.8-0.1c0.4,0.1,0.8,0.5,0.8,0.5s-0.4,0.1-0.9,0.1C87.2,161.7,86.8,161.2,86.8,161.2"/>
	</g>
	<g>
		<defs>
			<rect id="SVGID_00000116229790352821955880000003592460498824454299_" x="-138.1" y="-476.3" width="1207.6" height="858.9"/>
		</defs>
		<clipPath id="SVGID_00000035503616330008471160000002027041145110479772_">
			<use xlink:href="#SVGID_00000116229790352821955880000003592460498824454299_"  style="overflow:visible;"/>
		</clipPath>
		
			<path id="path2597" style="clip-path:url(#SVGID_00000035503616330008471160000002027041145110479772_);fill-rule:evenodd;clip-rule:evenodd;fill:#FFFFFF;" d="
			M87.8,160.6c0,0,0.3-0.3,0.8-0.3c0.4,0,0.8,0.1,0.8,0.1s-0.3,0.3-0.8,0.4C88.2,160.9,87.8,160.6,87.8,160.6"/>
	</g>
	<g>
		<defs>
			<rect id="SVGID_00000147918193864271467390000005599067073236942267_" x="-138.1" y="-476.3" width="1207.6" height="858.9"/>
		</defs>
		<clipPath id="SVGID_00000156554115142108979930000015815030269046707339_">
			<use xlink:href="#SVGID_00000147918193864271467390000005599067073236942267_"  style="overflow:visible;"/>
		</clipPath>
		<path id="path2599" style="clip-path:url(#SVGID_00000156554115142108979930000015815030269046707339_);fill:#FFFFFF;" d="
			M67.8,171.4l0,0.4c0,0.1,0,0.2,0.1,0.2c0,0,0.1,0.1,0.2,0.1c0.1,0,0.1,0,0.2-0.1c0,0,0.1-0.1,0.1-0.2l0-0.4L67.8,171.4z
			 M66.9,171.4l0,0.5c0,0.1,0,0.2,0.1,0.2s0.1,0.1,0.2,0.1c0.1,0,0.1,0,0.2-0.1s0.1-0.1,0.1-0.2l0-0.4L66.9,171.4z M68.5,171l0,0.2
			l0,0.7c0,0.2,0,0.3-0.1,0.4c-0.1,0.1-0.2,0.1-0.4,0.1c-0.2,0-0.3-0.1-0.4-0.2c0,0,0,0,0-0.1c0,0,0,0.1-0.1,0.1
			c-0.1,0.1-0.2,0.2-0.4,0.2c-0.2,0-0.3-0.1-0.5-0.2c-0.1-0.1-0.2-0.3-0.1-0.5l0-0.6l0-0.2L68.5,171z"/>
	</g>
	<g>
		<defs>
			<rect id="SVGID_00000021819697543931293440000006553474682820364947_" x="-138.1" y="-476.3" width="1207.6" height="858.9"/>
		</defs>
		<clipPath id="SVGID_00000127728103286376226270000006336737463955544994_">
			<use xlink:href="#SVGID_00000021819697543931293440000006553474682820364947_"  style="overflow:visible;"/>
		</clipPath>
		<path id="path2601" style="clip-path:url(#SVGID_00000127728103286376226270000006336737463955544994_);fill:#FFFFFF;" d="
			M66.6,173.3l1.9-0.2l0.2,1.3l-0.2,0l-0.2,0l-0.1-0.9l-0.4,0.1l0.1,0.9l-0.2,0l-0.2,0l-0.1-0.9l-0.5,0.1l0.1,1l-0.2,0l-0.2,0
			L66.6,173.3z"/>
	</g>
	<g>
		<defs>
			<rect id="SVGID_00000114762214391892624660000005433763267036000654_" x="-138.1" y="-476.3" width="1207.6" height="858.9"/>
		</defs>
		<clipPath id="SVGID_00000040554452486050547180000002622245769642849442_">
			<use xlink:href="#SVGID_00000114762214391892624660000005433763267036000654_"  style="overflow:visible;"/>
		</clipPath>
		<path id="path2603" style="clip-path:url(#SVGID_00000040554452486050547180000002622245769642849442_);fill:#FFFFFF;" d="
			M68.8,174.9l0,0.2l0,0.2l-1.9,0.4l0-0.2l0-0.2L68.8,174.9z"/>
	</g>
	<g>
		<defs>
			<rect id="SVGID_00000016069025544240201020000005108410251436597920_" x="-138.1" y="-476.3" width="1207.6" height="858.9"/>
		</defs>
		<clipPath id="SVGID_00000019672795663462377550000011189248883924751769_">
			<use xlink:href="#SVGID_00000016069025544240201020000005108410251436597920_"  style="overflow:visible;"/>
		</clipPath>
		<path id="path2605" style="clip-path:url(#SVGID_00000019672795663462377550000011189248883924751769_);fill:#FFFFFF;" d="
			M69.1,176.5l0,0.2l0,0.2l-1.4,0.4c-0.2,0.1-0.3,0-0.5,0c-0.1-0.1-0.2-0.2-0.3-0.4c-0.1-0.2,0-0.4,0-0.5c0.1-0.1,0.2-0.2,0.5-0.3
			l0.1,0l0.1,0.3l-0.1,0c-0.1,0-0.2,0.1-0.2,0.1c0,0-0.1,0.1,0,0.2c0,0.1,0.1,0.1,0.1,0.1c0,0,0.1,0,0.2,0L69.1,176.5z"/>
	</g>
	<g>
		<defs>
			<rect id="SVGID_00000065038865106658693300000007977177146543091376_" x="-138.1" y="-476.3" width="1207.6" height="858.9"/>
		</defs>
		<clipPath id="SVGID_00000183228256160976032700000012032730952596975503_">
			<use xlink:href="#SVGID_00000065038865106658693300000007977177146543091376_"  style="overflow:visible;"/>
		</clipPath>
		<path id="path2607" style="clip-path:url(#SVGID_00000183228256160976032700000012032730952596975503_);fill:#FFFFFF;" d="
			M69.5,177.3l0.1,0.2l0.1,0.2l-1.8,0.7l-0.1-0.2l-0.1-0.2L69.5,177.3z"/>
	</g>
	<g>
		<defs>
			<rect id="SVGID_00000127723783212977765750000008042209672006299807_" x="-138.1" y="-476.3" width="1207.6" height="858.9"/>
		</defs>
		<clipPath id="SVGID_00000006687898064100267720000015342794040683711622_">
			<use xlink:href="#SVGID_00000127723783212977765750000008042209672006299807_"  style="overflow:visible;"/>
		</clipPath>
		<path id="path2609" style="clip-path:url(#SVGID_00000006687898064100267720000015342794040683711622_);fill:#FFFFFF;" d="
			M68.2,179.3l-0.1-0.2L68,179l1.8-0.8l0.1,0.2l0.1,0.2l-0.9,1.2l1.2-0.6l0.1,0.2l0.1,0.2l-1.8,0.8l-0.1-0.2l-0.1-0.2l1-1.3
			L68.2,179.3z"/>
	</g>
	<g>
		<defs>
			<rect id="SVGID_00000152259442787581605120000005916824779528467619_" x="-138.1" y="-476.3" width="1207.6" height="858.9"/>
		</defs>
		<clipPath id="SVGID_00000126304314318399973600000014495811795029267871_">
			<use xlink:href="#SVGID_00000152259442787581605120000005916824779528467619_"  style="overflow:visible;"/>
		</clipPath>
		<path id="path2611" style="clip-path:url(#SVGID_00000126304314318399973600000014495811795029267871_);fill:#FFFFFF;" d="
			M69.4,181.8c-0.1-0.2-0.2-0.4-0.1-0.7s0.2-0.4,0.5-0.6c0.3-0.2,0.5-0.2,0.8-0.2c0.2,0,0.4,0.2,0.6,0.4c0.1,0.2,0.2,0.4,0.1,0.5
			c0,0.2-0.1,0.3-0.3,0.5l-0.2-0.3c0.1-0.1,0.1-0.1,0.1-0.2c0-0.1,0-0.2-0.1-0.3c-0.1-0.1-0.2-0.2-0.4-0.2c-0.2,0-0.3,0-0.5,0.2
			c-0.2,0.1-0.3,0.2-0.3,0.4c0,0.1,0,0.3,0.1,0.4v0c0.1,0.1,0.2,0.2,0.3,0.2c0.1,0,0.2,0,0.3,0l0,0l-0.2-0.4l0.3-0.2l0.4,0.6
			l-0.9,0.6l-0.1-0.2l0.2-0.2l0,0C69.7,182.1,69.5,182,69.4,181.8L69.4,181.8z"/>
	</g>
	<g>
		<defs>
			<rect id="SVGID_00000159450647529055988530000000786580828530673313_" x="-138.1" y="-476.3" width="1207.6" height="858.9"/>
		</defs>
		<clipPath id="SVGID_00000163045415732482620750000003547792807848414852_">
			<use xlink:href="#SVGID_00000159450647529055988530000000786580828530673313_"  style="overflow:visible;"/>
		</clipPath>
		<path id="path2613" style="clip-path:url(#SVGID_00000163045415732482620750000003547792807848414852_);fill:#FFFFFF;" d="
			M72.5,182.5l0.1,0.1l0.1,0.1l-1.4,1.3l-0.1-0.1l-0.1-0.1L72.5,182.5z"/>
	</g>
	<g>
		<defs>
			<rect id="SVGID_00000153677729244817505930000000477002604973229233_" x="-138.1" y="-476.3" width="1207.6" height="858.9"/>
		</defs>
		<clipPath id="SVGID_00000176030821859972057520000007841641554416455871_">
			<use xlink:href="#SVGID_00000153677729244817505930000000477002604973229233_"  style="overflow:visible;"/>
		</clipPath>
		<path id="path2615" style="clip-path:url(#SVGID_00000176030821859972057520000007841641554416455871_);fill:#FFFFFF;" d="
			M72,184.8l-0.1-0.1l-0.1-0.1l1.3-1.4l0.1,0.1l0.1,0.1l-0.4,1.5l0.9-1l0.1,0.1l0.1,0.1l-1.3,1.4l-0.1-0.1l-0.1-0.1l0.4-1.5
			L72,184.8z"/>
	</g>
	<g>
		<defs>
			<rect id="SVGID_00000024003802970320127050000004900825389248753792_" x="-138.1" y="-476.3" width="1207.6" height="858.9"/>
		</defs>
		<clipPath id="SVGID_00000077304608114690894910000014566811803553706636_">
			<use xlink:href="#SVGID_00000024003802970320127050000004900825389248753792_"  style="overflow:visible;"/>
		</clipPath>
		<path id="path2617" style="clip-path:url(#SVGID_00000077304608114690894910000014566811803553706636_);fill:#FFFFFF;" d="
			M75.1,185.6c0-0.1,0.1-0.2,0-0.2c0-0.1-0.1-0.2-0.2-0.2c-0.1-0.1-0.2-0.1-0.2-0.1c-0.1,0-0.1,0-0.2,0.1c0,0,0,0.1,0,0.2
			c0,0.1,0.1,0.2,0.2,0.3c0.2,0.2,0.3,0.4,0.3,0.5c0,0.1,0,0.2-0.1,0.4c-0.1,0.1-0.2,0.2-0.4,0.2s-0.3-0.1-0.5-0.2s-0.3-0.3-0.3-0.4
			c0-0.2,0-0.3,0.1-0.5l0.3,0.2c-0.1,0.1-0.1,0.2-0.1,0.3c0,0.1,0.1,0.2,0.2,0.2c0.1,0.1,0.2,0.1,0.3,0.1c0.1,0,0.1,0,0.2-0.1
			c0-0.1,0.1-0.1,0-0.2c0-0.1-0.1-0.1-0.2-0.3c-0.2-0.2-0.3-0.4-0.3-0.5c0-0.1,0-0.2,0.1-0.4c0.1-0.2,0.2-0.2,0.4-0.3
			c0.2,0,0.3,0,0.5,0.2c0.2,0.1,0.3,0.3,0.3,0.4c0,0.2,0,0.3-0.1,0.5L75.1,185.6z"/>
	</g>
	<g>
		<defs>
			<rect id="SVGID_00000121965387027449078160000007784822356136571269_" x="-138.1" y="-476.3" width="1207.6" height="858.9"/>
		</defs>
		<clipPath id="SVGID_00000029731922316626796620000009296220553972744104_">
			<use xlink:href="#SVGID_00000121965387027449078160000007784822356136571269_"  style="overflow:visible;"/>
		</clipPath>
		<path id="path2619" style="clip-path:url(#SVGID_00000029731922316626796620000009296220553972744104_);fill:#FFFFFF;" d="
			M76.3,186.1l-0.5-0.3l0.1-0.2l0.1-0.2l1.3,0.7l-0.1,0.2l-0.1,0.2l-0.5-0.3l-0.8,1.4l-0.2-0.1l-0.2-0.1L76.3,186.1z"/>
	</g>
	<g>
		<defs>
			<rect id="SVGID_00000096035785591882939110000007905140587943259815_" x="-138.1" y="-476.3" width="1207.6" height="858.9"/>
		</defs>
		<clipPath id="SVGID_00000017494240586116133550000016520052450261435047_">
			<use xlink:href="#SVGID_00000096035785591882939110000007905140587943259815_"  style="overflow:visible;"/>
		</clipPath>
		<path id="path2621" style="clip-path:url(#SVGID_00000017494240586116133550000016520052450261435047_);fill:#FFFFFF;" d="
			M77.7,186.4l0.2,0.1l0.2,0.1l-0.8,1.8l-0.2-0.1l-0.2-0.1L77.7,186.4z"/>
	</g>
	<g>
		<defs>
			<rect id="SVGID_00000150103667501662710870000001668998556028252835_" x="-138.1" y="-476.3" width="1207.6" height="858.9"/>
		</defs>
		<clipPath id="SVGID_00000026152401458463740570000001377747065776654727_">
			<use xlink:href="#SVGID_00000150103667501662710870000001668998556028252835_"  style="overflow:visible;"/>
		</clipPath>
		<path id="path2623" style="clip-path:url(#SVGID_00000026152401458463740570000001377747065776654727_);fill:#FFFFFF;" d="
			M78.8,187.3l-0.5-0.2l0.1-0.2l0.1-0.2l1.4,0.5l-0.1,0.2l-0.1,0.2l-0.5-0.2l-0.5,1.5l-0.2-0.1l-0.2-0.1L78.8,187.3z"/>
	</g>
	<g>
		<defs>
			<rect id="SVGID_00000010301378256937432500000014113859117278912907_" x="-138.1" y="-476.3" width="1207.6" height="858.9"/>
		</defs>
		<clipPath id="SVGID_00000020366788398368132210000005435424967046844827_">
			<use xlink:href="#SVGID_00000010301378256937432500000014113859117278912907_"  style="overflow:visible;"/>
		</clipPath>
		<path id="path2625" style="clip-path:url(#SVGID_00000020366788398368132210000005435424967046844827_);fill:#FFFFFF;" d="
			M81.3,188.9c-0.1,0.3-0.2,0.5-0.3,0.5c-0.1,0.1-0.3,0.1-0.6,0c-0.2-0.1-0.4-0.2-0.5-0.3c-0.1-0.2-0.1-0.4,0-0.6l0.3-1.2l0.2,0
			l0.2,0l-0.3,1.2c0,0.1,0,0.2,0,0.3c0,0.1,0.1,0.1,0.2,0.2c0.1,0,0.2,0,0.3,0c0.1,0,0.1-0.1,0.2-0.3l0.3-1.2l0.2,0l0.2,0
			L81.3,188.9z"/>
	</g>
	<g>
		<defs>
			<rect id="SVGID_00000151524318966257553280000008371192003652762778_" x="-138.1" y="-476.3" width="1207.6" height="858.9"/>
		</defs>
		<clipPath id="SVGID_00000126314809985893189050000001993753986034514071_">
			<use xlink:href="#SVGID_00000151524318966257553280000008371192003652762778_"  style="overflow:visible;"/>
		</clipPath>
		<path id="path2627" style="clip-path:url(#SVGID_00000126314809985893189050000001993753986034514071_);fill:#FFFFFF;" d="
			M82.5,188.2l-0.5-0.1l0-0.2l0-0.2l1.4,0.2l0,0.2l0,0.2l-0.5-0.1l-0.2,1.6l-0.2,0l-0.2,0L82.5,188.2z"/>
	</g>
	<g>
		<defs>
			<rect id="SVGID_00000138537553007025745720000007342390679809636009_" x="-138.1" y="-476.3" width="1207.6" height="858.9"/>
		</defs>
		<clipPath id="SVGID_00000036241548520353003790000007157287931776957581_">
			<use xlink:href="#SVGID_00000138537553007025745720000007342390679809636009_"  style="overflow:visible;"/>
		</clipPath>
		<path id="path2629" style="clip-path:url(#SVGID_00000036241548520353003790000007157287931776957581_);fill:#FFFFFF;" d="
			M84,189.9l0-1.9l1.3,0l0,0.2l0,0.2l-0.9,0l0,0.4l0.9,0l0,0.2l0,0.2l-0.9,0l0,0.5l1,0l0,0.2l0,0.2L84,189.9z"/>
	</g>
	<g>
		<defs>
			<rect id="SVGID_00000000919961012490174530000009040181151504520619_" x="-138.1" y="-476.3" width="1207.6" height="858.9"/>
		</defs>
		<clipPath id="SVGID_00000016763144123580290690000012679973520940209539_">
			<use xlink:href="#SVGID_00000000919961012490174530000009040181151504520619_"  style="overflow:visible;"/>
		</clipPath>
		<path id="path2631" style="clip-path:url(#SVGID_00000016763144123580290690000012679973520940209539_);fill:#FFFFFF;" d="
			M88.1,189.1c0.1-0.1,0.1-0.3,0-0.5c0-0.2-0.1-0.4-0.2-0.5c-0.1-0.1-0.2-0.1-0.4-0.1c-0.2,0-0.3,0.1-0.3,0.2
			c-0.1,0.1-0.1,0.3,0,0.5c0,0.2,0.1,0.4,0.2,0.5c0.1,0.1,0.2,0.1,0.4,0.1C88,189.3,88.1,189.2,88.1,189.1 M87.2,189.5
			c-0.2-0.1-0.3-0.4-0.4-0.7c-0.1-0.3,0-0.6,0.1-0.8c0.1-0.2,0.3-0.3,0.6-0.4c0.3-0.1,0.5,0,0.7,0.2c0.2,0.2,0.3,0.4,0.4,0.7
			c0.1,0.3,0,0.6-0.1,0.8c-0.1,0.2-0.3,0.3-0.6,0.4C87.6,189.7,87.4,189.6,87.2,189.5"/>
	</g>
	<g>
		<defs>
			<rect id="SVGID_00000091717363124762977390000008269866805391035027_" x="-138.1" y="-476.3" width="1207.6" height="858.9"/>
		</defs>
		<clipPath id="SVGID_00000097499325150406734520000007339354665818455463_">
			<use xlink:href="#SVGID_00000091717363124762977390000008269866805391035027_"  style="overflow:visible;"/>
		</clipPath>
		<path id="path2633" style="clip-path:url(#SVGID_00000097499325150406734520000007339354665818455463_);fill:#FFFFFF;" d="
			M89.5,189.2l-0.6-1.9l1.2-0.4l0.1,0.2l0.1,0.2l-0.9,0.3l0.1,0.4l0.7-0.2l0.1,0.2l0.1,0.2l-0.7,0.2l0.3,0.8l-0.2,0.1L89.5,189.2z"
			/>
	</g>
	<g>
		<defs>
			<rect id="SVGID_00000040532963449368848330000005386601302258698384_" x="-138.1" y="-476.3" width="1207.6" height="858.9"/>
		</defs>
		<clipPath id="SVGID_00000070807788468454167750000007388544643115087790_">
			<use xlink:href="#SVGID_00000040532963449368848330000005386601302258698384_"  style="overflow:visible;"/>
		</clipPath>
		<path id="path2635" style="clip-path:url(#SVGID_00000070807788468454167750000007388544643115087790_);fill:#FFFFFF;" d="
			M91.8,186.6l-0.5,0.3l-0.1-0.2l-0.1-0.2l1.3-0.7l0.1,0.2l0.1,0.2l-0.5,0.3l0.8,1.4l-0.2,0.1l-0.2,0.1L91.8,186.6z"/>
	</g>
	<g>
		<defs>
			<rect id="SVGID_00000005978819968959671930000005547352044482308270_" x="-138.1" y="-476.3" width="1207.6" height="858.9"/>
		</defs>
		<clipPath id="SVGID_00000037687745261415918590000010820261431118784390_">
			<use xlink:href="#SVGID_00000005978819968959671930000005547352044482308270_"  style="overflow:visible;"/>
		</clipPath>
		<path id="path2637" style="clip-path:url(#SVGID_00000037687745261415918590000010820261431118784390_);fill:#FFFFFF;" d="
			M93.9,187.2l-1.1-1.6l1.1-0.7l0.1,0.1l0.1,0.1l-0.8,0.5l0.2,0.3l0.7-0.5l0.1,0.1l0.1,0.1l-0.7,0.5l0.3,0.4l0.8-0.5l0.1,0.1
			l0.1,0.1L93.9,187.2z"/>
	</g>
	<g>
		<defs>
			<rect id="SVGID_00000145017771090988126500000006555034399560045964_" x="-138.1" y="-476.3" width="1207.6" height="858.9"/>
		</defs>
		<clipPath id="SVGID_00000047767783193606187740000001842157558509369519_">
			<use xlink:href="#SVGID_00000145017771090988126500000006555034399560045964_"  style="overflow:visible;"/>
		</clipPath>
		<path id="path2639" style="clip-path:url(#SVGID_00000047767783193606187740000001842157558509369519_);fill:#FFFFFF;" d="
			M96.4,184.5c0.1,0.2,0.2,0.4,0.2,0.6c0,0.2-0.1,0.4-0.3,0.5c-0.2,0.2-0.4,0.2-0.6,0.2s-0.4-0.2-0.6-0.4c-0.2-0.2-0.3-0.5-0.3-0.7
			c0-0.2,0.1-0.4,0.3-0.6c0.2-0.1,0.3-0.2,0.5-0.2c0.2,0,0.4,0.1,0.5,0.2l-0.3,0.2c-0.1-0.1-0.2-0.1-0.3-0.1c-0.1,0-0.2,0-0.3,0.1
			c-0.1,0.1-0.2,0.2-0.1,0.3c0,0.1,0.1,0.3,0.2,0.5c0.1,0.2,0.3,0.3,0.4,0.3c0.1,0,0.3,0,0.4-0.1c0.1-0.1,0.1-0.2,0.1-0.3
			c0-0.1,0-0.2-0.1-0.3L96.4,184.5z"/>
	</g>
	<g>
		<defs>
			<rect id="SVGID_00000077313104272899258690000010513059199059813563_" x="-138.1" y="-476.3" width="1207.6" height="858.9"/>
		</defs>
		<clipPath id="SVGID_00000008130154048821181180000013040755333696382632_">
			<use xlink:href="#SVGID_00000077313104272899258690000010513059199059813563_"  style="overflow:visible;"/>
		</clipPath>
		<path id="path2641" style="clip-path:url(#SVGID_00000008130154048821181180000013040755333696382632_);fill:#FFFFFF;" d="
			M95.9,183.2l0.1-0.1l0.1-0.1l0.5,0.5l0.5-0.5l-0.5-0.5l0.1-0.1l0.1-0.1l1.4,1.3l-0.1,0.1l-0.1,0.1l-0.7-0.6l-0.5,0.5l0.7,0.6
			l-0.1,0.1l-0.1,0.1L95.9,183.2z"/>
	</g>
	<g>
		<defs>
			<rect id="SVGID_00000168099136854769261950000011610026487926654875_" x="-138.1" y="-476.3" width="1207.6" height="858.9"/>
		</defs>
		<clipPath id="SVGID_00000030447674649471358310000016076654573320795571_">
			<use xlink:href="#SVGID_00000168099136854769261950000011610026487926654875_"  style="overflow:visible;"/>
		</clipPath>
		<path id="path2643" style="clip-path:url(#SVGID_00000030447674649471358310000016076654573320795571_);fill:#FFFFFF;" d="
			M99.1,182.5l-0.1,0.1l-0.1,0.1l-1.6-1.1l0.1-0.2l0.1-0.2l1.5,0.2l-1.1-0.8l0.1-0.1l0.1-0.1l1.6,1.1l-0.1,0.2l-0.1,0.2l-1.6-0.2
			L99.1,182.5z"/>
	</g>
	<g>
		<defs>
			<rect id="SVGID_00000059304853376149810860000013573148333950310302_" x="-138.1" y="-476.3" width="1207.6" height="858.9"/>
		</defs>
		<clipPath id="SVGID_00000140006261817913563460000011746942948457603221_">
			<use xlink:href="#SVGID_00000059304853376149810860000013573148333950310302_"  style="overflow:visible;"/>
		</clipPath>
		<path id="path2645" style="clip-path:url(#SVGID_00000140006261817913563460000011746942948457603221_);fill:#FFFFFF;" d="
			M100.2,179.6c-0.1-0.1-0.2-0.2-0.4-0.3c-0.2-0.1-0.4-0.1-0.5-0.1c-0.1,0-0.3,0.1-0.3,0.2c-0.1,0.1-0.1,0.3,0,0.4s0.2,0.2,0.4,0.4
			c0.2,0.1,0.4,0.1,0.5,0.1c0.1,0,0.3-0.1,0.3-0.2C100.3,179.9,100.3,179.8,100.2,179.6 M100,180.6c-0.2,0.1-0.5,0-0.8-0.1
			c-0.3-0.1-0.5-0.3-0.6-0.6c-0.1-0.2-0.1-0.5,0-0.7c0.1-0.2,0.3-0.4,0.5-0.4c0.2,0,0.5,0,0.8,0.2c0.3,0.1,0.5,0.3,0.5,0.6
			c0.1,0.2,0.1,0.4-0.1,0.7C100.4,180.4,100.2,180.6,100,180.6"/>
	</g>
	<g>
		<defs>
			<rect id="SVGID_00000149375131960665128970000006972314103631699360_" x="-138.1" y="-476.3" width="1207.6" height="858.9"/>
		</defs>
		<clipPath id="SVGID_00000141454381311920885830000009843818168116926373_">
			<use xlink:href="#SVGID_00000149375131960665128970000006972314103631699360_"  style="overflow:visible;"/>
		</clipPath>
		<path id="path2647" style="clip-path:url(#SVGID_00000141454381311920885830000009843818168116926373_);fill:#FFFFFF;" d="
			M101.2,178.7l-1.8-0.7l0.1-0.2l0.1-0.2l1.5,0.6l0.3-0.8l0.2,0.1l0.2,0.1L101.2,178.7z"/>
	</g>
	<g>
		<defs>
			<rect id="SVGID_00000091708554694537279940000013525154757386449556_" x="-138.1" y="-476.3" width="1207.6" height="858.9"/>
		</defs>
		<clipPath id="SVGID_00000039840399739889558520000003142527785790070433_">
			<use xlink:href="#SVGID_00000091708554694537279940000013525154757386449556_"  style="overflow:visible;"/>
		</clipPath>
		<path id="path2649" style="clip-path:url(#SVGID_00000039840399739889558520000003142527785790070433_);fill:#FFFFFF;" d="
			M101.6,175.6c-0.1-0.1-0.2-0.2-0.4-0.2c-0.2-0.1-0.4-0.1-0.5,0c-0.1,0.1-0.2,0.2-0.3,0.3s0,0.3,0.1,0.4c0.1,0.1,0.2,0.2,0.5,0.2
			c0.2,0.1,0.4,0,0.5,0c0.1-0.1,0.2-0.2,0.3-0.3C101.8,175.9,101.7,175.7,101.6,175.6 M101.6,176.6c-0.2,0.1-0.5,0.1-0.8,0
			c-0.3-0.1-0.5-0.2-0.7-0.4c-0.1-0.2-0.2-0.4-0.1-0.7c0.1-0.3,0.2-0.4,0.4-0.5c0.2-0.1,0.5-0.1,0.8,0c0.3,0.1,0.5,0.2,0.7,0.4
			c0.1,0.2,0.2,0.4,0.1,0.7C102,176.4,101.9,176.5,101.6,176.6"/>
	</g>
	<g>
		<defs>
			<rect id="SVGID_00000140705147390188781340000002753324873687290040_" x="-138.1" y="-476.3" width="1207.6" height="858.9"/>
		</defs>
		<clipPath id="SVGID_00000016042923212472232780000013058456512152535975_">
			<use xlink:href="#SVGID_00000140705147390188781340000002753324873687290040_"  style="overflow:visible;"/>
		</clipPath>
		<path id="path2651" style="clip-path:url(#SVGID_00000016042923212472232780000013058456512152535975_);fill:#FFFFFF;" d="
			M102.5,173.6c0,0.3-0.1,0.5-0.3,0.6c-0.2,0.1-0.4,0.2-0.8,0.2c-0.3,0-0.6-0.1-0.7-0.3c-0.2-0.2-0.2-0.4-0.2-0.7
			c0-0.2,0.1-0.4,0.2-0.5c0.1-0.1,0.3-0.2,0.5-0.2l0,0.4c-0.1,0-0.2,0-0.2,0.1c-0.1,0.1-0.1,0.2-0.1,0.2c0,0.2,0,0.3,0.1,0.4
			c0.1,0.1,0.3,0.2,0.5,0.2c0.2,0,0.4,0,0.5-0.1c0.1-0.1,0.2-0.2,0.2-0.4v0c0-0.1,0-0.3-0.2-0.4c-0.1-0.1-0.1-0.1-0.2-0.1h0l0,0.4
			l-0.3,0l0.1-0.7l1,0.1l0,0.2l-0.3,0l0,0C102.4,173.3,102.5,173.4,102.5,173.6L102.5,173.6z"/>
	</g>
	<g>
		<defs>
			<rect id="SVGID_00000120545355849183827060000003237688741846696849_" x="-138.1" y="-476.3" width="1207.6" height="858.9"/>
		</defs>
		<clipPath id="SVGID_00000104707031365052934110000005354975470995309223_">
			<use xlink:href="#SVGID_00000120545355849183827060000003237688741846696849_"  style="overflow:visible;"/>
		</clipPath>
		<path id="path2653" style="clip-path:url(#SVGID_00000104707031365052934110000005354975470995309223_);fill:#FFFFFF;" d="
			M101.8,171.6l-1.2,0.7l0-0.2l0-0.2l0.8-0.4l0,0l-0.9-0.3l0-0.2l0-0.2l1.2,0.5l0.7,0l0,0.2l0,0.2L101.8,171.6z"/>
	</g>
</g>
</svg>
