<?xml version="1.0" encoding="UTF-8" standalone="no"?>
<!-- Created with Inkscape (http://www.inkscape.org/) -->

<svg
   width="13.802428mm"
   height="13.802436mm"
   viewBox="0 0 13.802428 13.802436"
   version="1.1"
   id="svg1"
   xmlns="http://www.w3.org/2000/svg"
   xmlns:svg="http://www.w3.org/2000/svg">
  <defs
     id="defs1">
    <clipPath
       clipPathUnits="userSpaceOnUse"
       id="clipPath3326">
      <path
         d="M 0,858.898 H 1207.558 V 0 H 0 Z"
         transform="translate(-357.25671,-149.4338)"
         id="path3326" />
    </clipPath>
  </defs>
  <g
     id="layer1"
     transform="translate(-105.58293,-173.97595)">
    <path
       id="path3325"
       d="m 0,0 c 0,10.804 -8.758,19.563 -19.562,19.563 -10.804,0 -19.563,-8.759 -19.563,-19.563 0,-10.804 8.759,-19.562 19.563,-19.562 C -8.758,-19.562 0,-10.804 0,0 m -1.694,3.556 0.973,-1.074 -0.66,-1.29 0.823,-1.193 -0.823,-1.192 0.659,-1.287 -0.972,-1.075 0.488,-1.363 -1.103,-0.939 0.304,-1.416 -1.217,-0.786 0.118,-1.443 -1.31,-0.622 -0.072,-1.445 -1.378,-0.444 -0.26,-1.424 -1.425,-0.263 -0.445,-1.378 -1.447,-0.072 -0.62,-1.309 -1.443,0.119 -0.785,-1.217 -1.417,0.303 -0.939,-1.102 -1.363,0.485 -1.073,-0.97 -1.29,0.66 -1.191,-0.823 -1.191,0.823 -1.29,-0.66 -1.074,0.97 -1.364,-0.485 -0.937,1.102 -1.417,-0.304 -0.785,1.218 -1.445,-0.119 -0.62,1.309 -1.447,0.072 -0.444,1.379 -1.424,0.262 -0.263,1.424 -1.376,0.444 -0.072,1.446 -1.31,0.621 0.117,1.443 -1.215,0.787 0.303,1.415 -1.102,0.939 0.486,1.364 -0.972,1.074 0.661,1.287 -0.823,1.192 0.822,1.193 -0.66,1.29 0.972,1.073 -0.486,1.364 1.102,0.939 -0.303,1.415 1.215,0.786 -0.116,1.442 1.309,0.622 0.073,1.445 1.375,0.447 0.263,1.423 1.424,0.261 0.444,1.378 1.447,0.073 0.62,1.309 1.445,-0.117 0.785,1.217 1.416,-0.306 0.939,1.103 1.362,-0.486 1.074,0.972 1.29,-0.661 1.192,0.823 1.191,-0.823 1.29,0.661 1.073,-0.972 1.363,0.486 0.939,-1.103 1.416,0.306 0.786,-1.217 1.442,0.117 0.621,-1.309 1.448,-0.073 0.445,-1.378 1.424,-0.261 0.26,-1.423 1.378,-0.447 0.072,-1.445 1.31,-0.622 -0.118,-1.442 1.216,-0.786 -0.303,-1.415 1.103,-0.939 z m 0.431,-1.146 -0.945,1.042 0.474,1.325 -1.072,0.912 0.294,1.375 -1.18,0.763 0.114,1.4 -1.272,0.605 -0.071,1.404 -1.338,0.433 -0.252,1.383 -1.384,0.253 -0.432,1.338 -1.405,0.07 -0.602,1.271 -1.402,-0.113 -0.763,1.181 -1.375,-0.296 -0.912,1.071 -1.324,-0.472 -1.043,0.944 -1.252,-0.641 -1.157,0.8 -1.046,-0.724 -0.112,-0.076 -1.251,0.641 -1.044,-0.944 -1.324,0.472 -0.911,-1.071 -1.375,0.296 -0.762,-1.182 -1.403,0.114 -0.602,-1.271 -1.406,-0.07 -0.431,-1.339 -1.383,-0.252 -0.256,-1.384 -1.337,-0.433 -0.07,-1.403 -1.271,-0.605 0.114,-1.4 -1.181,-0.763 0.294,-1.375 -1.07,-0.912 0.472,-1.325 -0.945,-1.042 0.643,-1.253 -0.8,-1.158 0.8,-1.156 -0.643,-1.25 0.945,-1.045 -0.472,-1.324 1.07,-0.912 -0.294,-1.374 1.181,-0.764 -0.116,-1.403 1.272,-0.603 0.071,-1.404 1.337,-0.432 0.256,-1.382 1.383,-0.255 0.431,-1.338 1.405,-0.07 0.603,-1.272 1.401,0.116 0.764,-1.182 1.375,0.295 0.911,-1.071 1.324,0.471 1.043,-0.942 1.252,0.642 1.158,-0.8 1.157,0.8 1.252,-0.642 1.043,0.942 1.324,-0.471 0.912,1.071 1.375,-0.295 0.763,1.182 1.402,-0.115 0.601,1.27 1.406,0.071 0.431,1.338 1.385,0.255 0.253,1.382 1.338,0.432 0.07,1.404 1.272,0.604 -0.114,1.402 1.181,0.762 -0.295,1.376 1.072,0.911 -0.474,1.325 0.943,1.043 -0.64,1.251 0.8,1.157 -0.8,1.158 z M -2.446,0.004 c 0,-9.455 -7.653,-17.12 -17.093,-17.12 -9.441,0 -17.094,7.665 -17.094,17.12 0,9.456 7.653,17.12 17.094,17.12 9.44,0 17.093,-7.664 17.093,-17.12 M -7.311,-8.13 c 0.485,-0.306 0.91,-0.406 1.204,-0.428 0.069,0.109 0.136,0.218 0.203,0.328 -0.322,0.048 -0.731,0.184 -1.177,0.465 -0.492,0.31 -0.812,0.663 -0.984,0.951 l -0.008,-0.012 c -0.063,-0.106 -0.127,-0.21 -0.192,-0.313 0.136,-0.265 0.416,-0.649 0.954,-0.991 m 0.486,1.389 1.044,-1.282 c 0.092,0.159 0.182,0.319 0.269,0.482 l 0.031,0.06 -0.449,0.421 c -0.136,0.125 -0.245,0.228 -0.369,0.336 l 0.003,0.005 c 0.17,-0.033 0.304,-0.06 0.494,-0.089 l 0.606,-0.107 0.059,0.115 c 0.071,0.152 0.141,0.305 0.208,0.46 l -1.668,0.111 -0.91,0.458 c -0.081,-0.168 -0.165,-0.334 -0.252,-0.498 z m 1.489,0.907 0.541,-0.189 c 0.042,0.104 0.083,0.208 0.123,0.313 l 0.314,0.898 c 0.036,0.112 0.069,0.225 0.103,0.338 l -0.54,0.188 -0.176,-0.504 -1.881,0.658 C -6.91,-4.311 -6.971,-4.488 -7.037,-4.664 l 1.881,-0.657 z m -1.317,2.374 2.505,-0.618 0.134,0.546 -2.506,0.618 C -6.56,-3.097 -6.605,-3.279 -6.653,-3.46 m 2.635,0.507 c 0.096,0.126 0.178,0.293 0.214,0.542 0.076,0.522 -0.185,0.841 -0.63,0.909 -0.375,0.058 -0.645,-0.137 -0.846,-0.464 -0.131,-0.219 -0.216,-0.301 -0.34,-0.281 -0.127,0.019 -0.192,0.124 -0.165,0.314 0.03,0.205 0.139,0.399 0.236,0.513 l -0.543,0.189 c -0.092,-0.105 -0.21,-0.335 -0.246,-0.584 -0.088,-0.605 0.246,-0.941 0.68,-1.008 0.352,-0.053 0.621,0.079 0.84,0.425 0.158,0.243 0.226,0.345 0.354,0.326 0.112,-0.018 0.174,-0.121 0.149,-0.289 -0.03,-0.209 -0.124,-0.352 -0.186,-0.434 z m 0.205,2.071 c 0.098,0.101 0.185,0.185 0.187,0.402 0.002,0.186 0.006,0.202 0.007,0.303 0.002,0.182 0,0.362 -0.004,0.543 C -3.628,0.415 -3.635,0.46 -3.642,0.5 L -6.211,0.543 C -6.204,0.358 -6.2,0.173 -6.2,-0.013 l 0.95,-0.016 -0.002,-0.09 c -0.003,-0.174 -0.07,-0.25 -0.385,-0.301 -0.289,-0.051 -0.481,-0.095 -0.574,-0.126 -0.008,-0.195 -0.02,-0.39 -0.036,-0.583 0.105,0.039 0.481,0.1 0.748,0.16 0.226,0.049 0.394,0.121 0.47,0.259 h 0.015 c 0.072,-0.166 0.301,-0.365 0.627,-0.371 0.256,-0.004 0.444,0.067 0.574,0.199 m -0.304,0.644 c -0.007,-0.186 -0.117,-0.286 -0.315,-0.283 -0.194,0.003 -0.324,0.127 -0.32,0.338 l 0.002,0.146 0.621,-0.011 c 0.008,-0.028 0.014,-0.084 0.012,-0.19 m -0.091,1.274 0.552,0.063 c -0.011,0.168 -0.026,0.334 -0.041,0.499 l -0.054,0.463 c -0.016,0.131 -0.034,0.261 -0.054,0.39 L -6.374,2.158 c 0.075,-0.457 0.126,-0.923 0.152,-1.395 l 0.557,0.064 -0.095,0.836 0.479,0.055 0.084,-0.747 0.563,0.064 -0.084,0.746 0.42,0.049 z m -2.294,1.802 2.64,-0.045 C -3.897,2.987 -3.935,3.179 -3.975,3.371 L -5.039,3.344 C -5.325,3.339 -5.634,3.324 -5.959,3.299 L -5.96,3.305 c 0.316,0.128 0.582,0.251 0.849,0.387 l 0.946,0.457 -0.01,0.044 c -0.05,0.182 -0.103,0.362 -0.158,0.542 L -6.663,3.497 C -6.603,3.28 -6.55,3.06 -6.502,2.838 m -0.353,1.303 2.44,0.851 C -4.474,5.17 -4.536,5.346 -4.601,5.522 L -7.04,4.671 c 0.065,-0.175 0.128,-0.351 0.185,-0.53 m -0.269,0.751 2.338,1.106 c -0.064,0.159 -0.131,0.316 -0.2,0.471 L -5.546,6.206 C -5.9,6.038 -6.225,5.871 -6.524,5.695 l -0.004,0.008 c 0.238,0.216 0.502,0.474 0.688,0.689 l 0.587,0.647 C -5.351,7.237 -5.452,7.432 -5.558,7.625 L -7.896,6.519 C -7.813,6.37 -7.732,6.22 -7.654,6.066 l 0.552,0.262 c 0.382,0.181 0.738,0.356 1.051,0.518 L -6.047,6.837 C -6.291,6.612 -6.549,6.339 -6.751,6.113 L -7.359,5.45 c 0.082,-0.184 0.161,-0.369 0.235,-0.558 m 0.155,2.445 1.141,0.765 C -5.922,8.261 -6.019,8.419 -6.119,8.575 L -6.122,8.581 -7.356,7.758 C -7.701,7.528 -7.933,7.504 -8.057,7.69 -8.179,7.873 -8.052,8.088 -7.723,8.308 L -6.49,9.13 C -6.598,9.284 -6.708,9.436 -6.82,9.585 L -7.943,8.834 C -8.644,8.366 -8.803,7.898 -8.484,7.42 -8.159,6.932 -7.64,6.89 -6.969,7.337 m -1.308,2.998 0.45,0.296 c -0.031,0.123 -0.139,0.318 -0.34,0.517 -0.482,0.479 -1.169,0.554 -1.811,-0.089 -0.265,-0.267 -0.403,-0.535 -0.428,-0.838 -0.024,-0.293 0.084,-0.581 0.377,-0.872 0.194,-0.193 0.462,-0.338 0.618,-0.4 l 0.979,0.971 -0.582,0.577 -0.382,-0.386 0.198,-0.197 -0.317,-0.319 c -0.026,0.009 -0.087,0.053 -0.14,0.106 -0.245,0.242 -0.224,0.62 0.121,0.968 0.374,0.377 0.736,0.336 0.98,0.093 0.17,-0.168 0.236,-0.3 0.277,-0.427 m -2.713,-0.085 1.521,2.092 c -0.132,0.108 -0.266,0.215 -0.401,0.318 l -0.361,-0.495 c -0.23,-0.316 -0.434,-0.619 -0.613,-0.916 l -0.007,0.005 c 0.105,0.303 0.212,0.657 0.273,0.934 l 0.203,0.844 c -0.18,0.128 -0.364,0.251 -0.549,0.371 l -1.521,-2.092 c 0.144,-0.091 0.287,-0.185 0.428,-0.282 l 0.362,0.498 c 0.249,0.342 0.477,0.665 0.675,0.959 l 0.007,-0.006 c -0.107,-0.315 -0.202,-0.679 -0.271,-0.973 l -0.217,-0.88 c 0.16,-0.122 0.317,-0.248 0.471,-0.377 m -1.544,1.14 0.647,2.588 c -0.221,0.121 -0.444,0.238 -0.671,0.348 l -1.73,-2.024 c 0.18,-0.077 0.359,-0.158 0.535,-0.242 l 0.363,0.457 0.48,-0.249 -0.153,-0.567 c 0.18,-0.1 0.356,-0.204 0.529,-0.311 m 0.072,2.342 c -0.044,-0.153 -0.106,-0.36 -0.147,-0.505 l -0.131,-0.462 -0.344,0.179 0.294,0.371 c 0.096,0.118 0.223,0.296 0.322,0.42 z m -1.792,-0.336 1.174,1.175 c -0.188,0.083 -0.38,0.165 -0.573,0.241 l -0.375,-0.493 c -0.11,-0.149 -0.202,-0.268 -0.296,-0.402 l -0.006,0.002 c 0.016,0.173 0.029,0.309 0.038,0.501 l 0.046,0.614 -0.07,0.026 c -0.175,0.061 -0.352,0.12 -0.53,0.175 l 0.061,-1.665 -0.364,-0.954 c 0.176,-0.061 0.351,-0.127 0.524,-0.195 z m -1.525,-0.577 0.681,2.491 c -0.179,0.052 -0.36,0.101 -0.542,0.148 l -0.682,-2.492 c 0.183,-0.045 0.364,-0.094 0.543,-0.147 m -0.448,2.204 0.097,0.551 c -0.122,0.026 -0.246,0.052 -0.37,0.076 l -0.554,0.098 c -0.138,0.021 -0.276,0.041 -0.416,0.06 l -0.448,-2.546 c 0.468,-0.058 0.93,-0.139 1.382,-0.244 l 0.096,0.548 -0.828,0.146 0.084,0.474 0.74,-0.131 0.098,0.559 -0.74,0.13 0.073,0.417 z m -1.891,-0.599 c 0.139,0.14 0.223,0.368 0.238,0.632 0.014,0.268 -0.069,0.505 -0.204,0.645 -0.138,0.148 -0.328,0.205 -0.628,0.222 -0.32,0.017 -0.562,0.027 -0.715,0.004 l -0.143,-2.565 h 0.008 c 0.183,0 0.366,-0.004 0.548,-0.011 l 0.048,0.856 c 0.034,-0.006 0.083,-0.012 0.136,-0.015 0.282,-0.016 0.531,0.052 0.712,0.232 m -0.315,0.647 c -0.012,-0.224 -0.157,-0.356 -0.377,-0.344 -0.059,0.003 -0.096,0.009 -0.126,0.014 l 0.037,0.667 c 0.028,0.006 0.084,0.011 0.168,0.006 0.211,-0.011 0.309,-0.149 0.298,-0.343 m -1.304,-1.705 c -0.165,0.296 -0.314,0.743 -0.339,1.324 -0.022,0.529 0.065,0.949 0.184,1.25 -0.13,-0.003 -0.26,-0.007 -0.389,-0.012 -0.125,-0.267 -0.244,-0.686 -0.223,-1.256 0.027,-0.637 0.223,-1.075 0.385,-1.321 0.047,0.002 0.095,0.003 0.142,0.004 z m -2.135,0.859 0.393,1.606 c -0.182,-0.022 -0.365,-0.048 -0.547,-0.075 l -0.067,-0.013 -0.064,-0.611 c -0.018,-0.185 -0.034,-0.334 -0.046,-0.498 l -0.006,-0.001 c -0.076,0.156 -0.136,0.279 -0.226,0.448 l -0.281,0.549 -0.127,-0.023 c -0.164,-0.035 -0.329,-0.072 -0.492,-0.112 l 0.918,-1.397 0.183,-1.002 c 0.183,0.036 0.366,0.07 0.55,0.099 z m -1.529,-1.422 -0.611,1.895 0.518,0.167 -0.176,0.545 c -0.108,-0.029 -0.216,-0.059 -0.324,-0.09 l -0.904,-0.291 c -0.111,-0.04 -0.222,-0.08 -0.332,-0.123 l 0.175,-0.543 0.508,0.163 0.611,-1.896 c 0.177,0.062 0.356,0.119 0.535,0.173 m -1.192,-0.421 -1.018,2.371 -0.516,-0.222 1.018,-2.372 c 0.171,0.078 0.343,0.153 0.516,0.223 m -2.286,1.202 c 0.185,0.102 0.355,0.114 0.458,0.114 l -0.166,0.48 c -0.158,0 -0.34,-0.036 -0.561,-0.157 -0.461,-0.254 -0.559,-0.654 -0.344,-1.051 0.18,-0.333 0.498,-0.431 0.88,-0.394 0.254,0.028 0.37,0.009 0.429,-0.101 0.062,-0.113 0.018,-0.229 -0.15,-0.321 -0.183,-0.101 -0.403,-0.131 -0.552,-0.122 l 0.176,-0.547 c 0.139,-0.011 0.394,0.034 0.615,0.156 0.535,0.294 0.602,0.764 0.393,1.151 -0.17,0.313 -0.437,0.447 -0.845,0.413 -0.29,-0.021 -0.412,-0.028 -0.474,0.085 -0.054,0.101 -0.008,0.212 0.141,0.294 m -0.895,-1.553 c 0.088,0.156 0.109,0.46 -0.083,0.723 -0.151,0.207 -0.321,0.313 -0.504,0.338 -0.141,0.017 -0.259,0.036 -0.434,-0.094 -0.15,-0.111 -0.164,-0.118 -0.246,-0.178 -0.146,-0.107 -0.289,-0.217 -0.43,-0.329 -0.036,-0.035 -0.068,-0.067 -0.096,-0.097 l 1.516,-2.074 c 0.142,0.116 0.288,0.231 0.437,0.344 l -0.561,0.767 0.073,0.053 c 0.14,0.102 0.242,0.095 0.472,-0.126 0.215,-0.199 0.367,-0.325 0.448,-0.382 0.16,0.112 0.322,0.219 0.486,0.324 -0.094,0.06 -0.371,0.324 -0.579,0.5 -0.176,0.15 -0.334,0.241 -0.49,0.218 z m -0.578,-0.11 -0.118,-0.086 -0.367,0.502 c 0.019,0.022 0.059,0.061 0.144,0.124 0.153,0.107 0.3,0.079 0.416,-0.08 0.115,-0.157 0.096,-0.335 -0.075,-0.46 m -1.879,-0.852 0.578,0.551 -0.383,0.402 c -0.127,-0.11 -0.251,-0.221 -0.374,-0.335 l -0.337,-0.321 c -0.093,-0.092 -0.186,-0.185 -0.277,-0.279 l 1.783,-1.872 c 0.32,0.336 0.66,0.657 1.021,0.963 l -0.387,0.406 -0.61,-0.58 -0.332,0.348 0.544,0.519 -0.39,0.41 -0.544,-0.518 z m 0.526,-2.366 -1.557,2.132 c -0.134,-0.144 -0.265,-0.291 -0.393,-0.44 l 0.662,-0.831 c 0.178,-0.225 0.376,-0.461 0.592,-0.706 l -0.004,-0.005 c -0.293,0.175 -0.551,0.313 -0.82,0.444 l -0.937,0.478 -0.028,-0.034 c -0.115,-0.149 -0.228,-0.3 -0.337,-0.453 l 2.392,-1.111 c 0.139,0.178 0.281,0.354 0.43,0.526 m -0.827,-1.068 -2.15,1.432 c -0.107,-0.154 -0.211,-0.31 -0.311,-0.468 l 2.15,-1.431 c 0.1,0.158 0.204,0.314 0.311,0.467 m -0.437,-0.668 -2.293,1.198 C -33.349,8.017 -33.434,7.87 -33.516,7.721 l 0.547,-0.288 c 0.348,-0.181 0.678,-0.339 0.998,-0.471 l -0.004,-0.008 c -0.315,0.06 -0.681,0.113 -0.964,0.132 L -33.81,7.164 C -33.909,6.967 -34.003,6.768 -34.094,6.568 L -31.8,5.37 c 0.068,0.156 0.14,0.311 0.214,0.466 l -0.541,0.282 c -0.375,0.197 -0.728,0.374 -1.047,0.527 l 0.004,0.008 c 0.328,-0.059 0.701,-0.1 1.003,-0.125 l 0.895,-0.085 c 0.097,0.177 0.198,0.351 0.303,0.524 M -33.013,5.616 -34.31,6.065 C -34.381,5.893 -34.448,5.72 -34.512,5.547 l -0.003,-0.006 1.401,-0.488 c 0.392,-0.136 0.551,-0.306 0.477,-0.517 -0.072,-0.209 -0.32,-0.237 -0.694,-0.107 l -1.399,0.487 c -0.058,-0.179 -0.113,-0.358 -0.164,-0.538 l 1.276,-0.442 c 0.796,-0.277 1.265,-0.121 1.454,0.421 0.193,0.555 -0.086,0.994 -0.849,1.259 m 0.404,-2.718 -2.557,0.393 c -0.035,-0.167 -0.068,-0.335 -0.097,-0.504 l 0.608,-0.093 c 0.387,-0.058 0.75,-0.102 1.096,-0.124 l -0.002,-0.009 c -0.317,-0.046 -0.68,-0.112 -0.955,-0.187 L -35.36,2.168 C -35.39,1.951 -35.415,1.731 -35.435,1.51 l 2.557,-0.392 c 0.014,0.171 0.031,0.341 0.052,0.511 l -0.608,0.093 c -0.419,0.064 -0.81,0.118 -1.162,0.159 l 0.002,0.009 c 0.33,0.051 0.696,0.132 0.99,0.207 l 0.878,0.209 c 0.034,0.199 0.074,0.397 0.117,0.592 M -32.9,0.824 -35.479,0.929 C -35.49,0.743 -35.497,0.555 -35.502,0.368 l 2.58,-0.106 c 0.004,0.188 0.011,0.375 0.022,0.562 m -1.034,-0.878 -1.572,-0.061 c 0.002,-0.188 0.006,-0.376 0.014,-0.562 l 1.579,0.062 c 0.353,0.013 0.456,-0.101 0.463,-0.281 0.003,-0.09 -0.012,-0.177 -0.033,-0.246 l 0.553,-0.041 c 0.038,0.107 0.051,0.26 0.047,0.375 -0.019,0.503 -0.307,0.783 -1.051,0.754 m 1.07,-1.222 -2.553,-0.421 c 0.018,-0.171 0.039,-0.341 0.062,-0.51 l 0.606,0.1 c 0.387,0.064 0.745,0.136 1.081,0.223 l 10e-4,-0.009 c -0.287,-0.142 -0.612,-0.318 -0.85,-0.474 l -0.738,-0.459 0.011,-0.067 c 0.035,-0.195 0.075,-0.389 0.118,-0.583 l 2.552,0.423 c -0.039,0.166 -0.074,0.333 -0.107,0.501 l -0.605,-0.1 c -0.417,-0.069 -0.807,-0.139 -1.153,-0.209 l -0.002,0.009 c 0.298,0.15 0.62,0.342 0.877,0.504 l 0.77,0.473 c -0.028,0.198 -0.051,0.398 -0.07,0.599 m 0.332,-1.951 -2.289,-1.41 c 0.072,-0.24 0.151,-0.477 0.234,-0.712 l 2.673,0.245 c -0.075,0.18 -0.146,0.363 -0.213,0.547 l -0.578,-0.072 -0.169,0.513 0.503,0.297 c -0.058,0.196 -0.111,0.393 -0.161,0.592 m -0.691,-1.494 -0.47,-0.06 c -0.15,-0.017 -0.366,-0.055 -0.523,-0.074 l -0.002,0.006 c 0.138,0.079 0.328,0.183 0.458,0.259 l 0.416,0.238 z m 1.365,-0.519 -2.353,-1.064 c 0.074,-0.172 0.151,-0.343 0.232,-0.512 l 2.353,1.064 c -0.081,0.169 -0.158,0.34 -0.232,0.512 m -1.477,-1.597 -0.498,-0.28 c 0.245,-0.491 0.515,-0.967 0.808,-1.427 l 0.495,0.279 -0.262,0.465 1.737,0.98 c -0.096,0.161 -0.188,0.324 -0.277,0.49 l -1.736,-0.98 z m 3.956,-4.65 c -0.095,-0.073 0.14,-0.392 0.36,-0.505 0.22,-0.111 0.843,0.052 0.993,0.12 0.151,0.069 0.557,0.427 0.709,0.567 0.151,0.14 0.358,0.31 0.358,0.31 0,0 -0.31,-0.649 -0.428,-0.961 -0.118,-0.312 -0.15,-0.769 -0.049,-0.902 0.1,-0.134 0.382,-0.12 0.435,-0.137 0.053,-0.017 0.331,-0.102 0.475,-0.148 0.144,-0.048 0.182,0.062 0.119,0.105 -0.063,0.043 -0.081,0.058 -0.206,0.137 -0.124,0.08 -0.292,0.212 -0.303,0.238 -0.01,0.025 -0.01,0.171 -0.006,0.276 0.003,0.105 0.003,0.643 0.026,0.811 0.024,0.169 0.137,0.582 0.137,0.582 0,0 0.184,0.011 0.46,-0.03 0.274,-0.041 0.334,0.004 0.37,0.036 0.037,0.031 0.076,0.073 -0.036,0.1 -0.112,0.027 -0.295,0.178 -0.31,0.188 -0.015,0.012 -0.042,0.046 -0.096,0.046 -0.054,0 -0.092,0.054 -0.092,0.054 0,0 -0.014,0.035 0.014,0.072 0.03,0.039 0.015,0.164 0.015,0.164 0.054,-0.091 0.357,-0.122 0.483,-0.106 0.126,0.015 0.372,0.028 0.471,0.047 0.1,0.019 0.139,-0.055 0.278,0.023 0.089,0.05 0.027,0.005 0.114,0.065 0.087,0.059 0.068,0.086 0.038,0.138 -0.028,0.052 -0.12,0.076 -0.197,0.12 -0.076,0.042 -0.177,0.092 -0.221,0.116 -0.046,0.024 -0.024,0.007 -0.157,0.023 -0.132,0.016 -0.296,0.082 -0.461,0.124 -0.165,0.042 -0.235,0.079 -0.27,0.107 -0.037,0.028 -0.056,0.061 -0.147,0.028 -0.091,-0.033 -0.04,-0.155 -0.029,-0.216 0.011,-0.06 -0.035,-0.081 -0.007,-0.134 0.029,-0.052 0.019,-0.101 0.019,-0.101 0,0 -0.033,0.031 -0.09,0.07 -0.056,0.039 -0.102,-0.048 -0.136,-0.092 -0.033,-0.043 -0.134,-0.178 -0.179,-0.214 -0.045,-0.034 -0.088,-0.098 -0.134,-0.156 -0.045,-0.057 -0.198,-0.191 -0.198,-0.191 -0.097,-0.015 -0.796,0.069 -0.916,0.085 -0.121,0.016 -0.216,0.241 -0.216,0.241 -0.123,-0.049 -0.131,-0.229 -0.131,-0.229 -0.131,-0.205 -0.033,-0.281 -0.033,-0.281 0,0 -0.017,-0.066 0.045,-0.18 0.061,-0.114 0.258,-0.179 0.457,-0.142 0.198,0.038 0.499,0.152 0.499,0.152 -0.123,-0.187 -0.229,-0.291 -0.678,-0.548 -0.448,-0.257 -0.65,-0.1 -0.786,-0.041 -0.136,0.058 -0.303,0.213 -0.363,0.169 m 2.693,0.708 c 0.032,0.062 0.086,0.049 0.086,0.049 0,0 0.015,0.037 0.051,0.029 0.085,-0.019 0.074,-0.099 0.06,-0.088 -0.014,0.012 -0.197,0.01 -0.197,0.01 m 2.907,-3.621 c -0.014,-0.094 -0.062,-0.184 -0.067,-0.241 -0.001,-0.017 0.033,-0.086 0.1,-0.096 0.161,-0.028 0.163,0.022 0.276,0.171 0.089,0.117 0.175,0.173 0.258,0.304 0.082,0.13 0.109,0.122 0.13,0.164 0.021,0.043 0.029,0.106 0.079,0.228 0.051,0.121 0.133,0.314 0.16,0.384 0.028,0.07 0.062,0.122 0.108,0.205 0.047,0.085 0.136,0.109 0.204,0.111 0.067,0.004 0.295,-0.09 0.3,-0.122 0.002,-0.008 0.002,-0.027 0,-0.054 -0.002,-0.023 -0.004,-0.036 -0.004,-0.052 -0.002,-0.081 -0.011,-0.104 -0.011,-0.104 0,0 -0.146,-0.024 -0.155,-0.068 -0.009,-0.045 -0.025,-0.082 0.031,-0.105 0.055,-0.024 0.087,-0.054 0.087,-0.054 0,0 0.007,-0.052 -0.008,-0.135 -0.008,-0.043 -0.019,-0.04 -0.022,-0.05 -0.002,-0.015 -0.105,-0.021 -0.122,-0.031 -0.059,-0.034 -0.063,-0.119 0.007,-0.2 0.025,-0.029 0.065,-0.004 0.076,-0.036 0.014,-0.046 -0.044,-0.107 -0.053,-0.121 -0.037,-0.046 -0.104,-0.12 -0.193,-0.137 -0.09,-0.017 -0.181,-0.052 -0.424,10e-4 -0.036,0.007 -0.07,-0.025 -0.091,-0.064 0.003,-0.027 0.002,-0.056 -0.016,-0.091 0.001,-0.003 0.004,-0.006 0.006,-0.009 0.035,-0.034 0.085,-0.075 0.114,-0.123 0.027,-0.048 -0.001,-0.071 0.096,-0.096 0.14,-0.037 0.175,0.066 0.288,0.034 0.114,-0.033 0.005,-0.114 -0.008,-0.16 -0.013,-0.047 -0.169,-0.153 -0.149,-0.235 0.018,-0.084 0.016,-0.186 0.027,-0.232 0.011,-0.046 0.073,-0.109 0.082,-0.168 0.008,-0.058 0.123,-0.138 0.172,-0.116 0.051,0.021 0.232,0.195 0.291,0.261 0.057,0.067 0.086,0.112 0.102,0.17 0.015,0.059 0.054,0.559 0.099,0.585 0.044,0.026 0.292,0.027 0.355,0.048 0.063,0.021 0.227,0.035 0.341,0.056 0.114,0.02 0.174,0.041 0.213,0.048 0.039,0.005 0.107,0.046 0.162,0.06 0.054,0.014 0.152,0.035 0.186,0.073 0.033,0.038 0.064,0.065 0.068,0.104 0.003,0.04 -0.022,0.087 -0.048,0.115 -0.044,0.048 -0.087,0.007 -0.185,0.076 -0.096,0.069 -0.211,0.053 -0.253,0.113 -0.041,0.061 -0.259,0.176 -0.273,0.2 -0.016,-0.008 0,0 -0.006,-0.028 0,-0.015 0.02,-0.058 0.059,-0.17 0.047,-0.138 0.108,-0.261 0.065,-0.274 -0.077,-0.023 -0.214,-0.025 -0.251,-0.035 -0.036,-0.009 -0.066,-0.02 -0.105,-0.031 -0.041,-0.012 -0.07,-0.02 -0.108,-0.032 -0.037,-0.012 -0.052,-0.02 -0.094,-0.009 -0.042,0.01 -0.086,0.049 -0.102,0.103 -0.016,0.055 -0.014,0.079 0.041,0.093 0.055,0.013 0.187,0.067 0.197,0.132 0.011,0.066 -0.014,0.065 -0.041,0.109 -0.025,0.044 -0.145,-0.092 -0.08,0.144 0.002,0.01 0.005,0.038 0.011,0.041 0.007,0.013 0.127,0.01 0.141,0.011 0.011,0.003 0.027,0.008 0.051,0.013 0.061,0.015 0.197,0.044 0.253,0.085 0.016,0.013 0.044,0.093 0.048,0.106 0.006,0.019 0.029,0.053 -0.04,0.087 -0.069,0.034 -0.05,-0.007 -0.133,-0.022 -0.086,-0.015 -0.28,-0.022 -0.28,-0.022 0,0 0.011,0.061 0.016,0.12 10e-4,0.013 0.003,0.031 0.007,0.045 0.002,0.004 0.002,0.006 0.002,0.006 0,0 0.023,0.06 0.144,0.151 0.125,0.091 0.57,0.177 0.72,0.199 0.15,0.022 0.404,0.054 0.453,0.059 0.051,0.004 0.057,0.069 0.026,0.142 -0.031,0.074 -0.101,0.044 -0.119,0.032 -0.017,-0.012 -0.091,0.006 -0.161,0.006 -0.071,10e-4 -0.171,-0.019 -0.264,-0.035 -0.094,-0.016 -0.279,-0.06 -0.339,-0.064 -0.059,-0.006 -0.147,-0.04 -0.19,-0.049 -0.041,-0.008 -0.038,0.007 0.008,0.071 0.047,0.062 0.164,0.065 0.21,0.065 0.046,-10e-4 0.122,0.033 0.205,0.071 0.082,0.037 0.164,0.095 0.219,0.143 0.055,0.047 0.186,0.145 0.202,0.161 0.016,0.015 0.087,0.042 0.161,0.143 0.074,0.101 0.04,0.117 0.007,0.185 -0.032,0.069 -0.13,0.06 -0.174,0.063 -0.047,0.002 -0.159,0.008 -0.172,0.003 -0.014,-0.006 -0.048,-0.044 -0.088,-0.059 -0.041,-0.016 -0.101,-0.034 -0.122,-0.02 -0.021,0.013 0.011,0.137 0.024,0.212 0.011,0.074 -0.062,0.139 -0.134,0.223 -0.072,0.083 -0.162,0.234 -0.286,0.264 -0.126,0.031 -0.217,-0.206 -0.247,-0.291 -0.028,-0.082 -0.055,-0.14 -0.067,-0.204 -0.013,-0.062 -0.041,-0.078 -0.053,-0.102 -0.012,-0.025 -0.041,-0.153 -0.065,-0.219 -0.026,-0.066 -0.07,-0.099 -0.099,-0.103 -0.029,-0.004 -0.039,-0.046 -0.067,-0.075 -0.029,-0.029 -0.124,-0.066 -0.112,-0.114 0.015,-0.047 0.118,0.014 0.136,0.012 0.018,-0.002 0.033,-0.055 0.037,-0.066 0.002,-0.013 -0.027,-0.085 -0.045,-0.17 -0.017,-0.084 -0.046,-0.251 -0.064,-0.305 -0.02,-0.053 -0.076,-0.033 -0.112,-0.041 -0.036,-0.008 -0.149,-0.033 -0.16,-0.027 -0.011,0.005 -0.021,0.03 -0.005,0.108 0.016,0.079 -0.045,0.135 -0.085,0.153 -0.042,0.019 -0.104,0.083 -0.123,0.108 -0.019,0.023 -0.094,0.078 -0.123,0.123 -0.03,0.046 0.033,0.139 0.041,0.172 0.009,0.034 0.171,0.171 0.193,0.185 0.022,0.014 0.068,-0.002 0.087,0.018 0.021,0.019 0.043,0.019 0.091,0.02 0.047,0 0.189,-0.052 0.217,-0.023 0.046,0.05 0.043,0.038 0.082,0.06 0.039,0.021 0.022,0.06 0.042,0.146 0.022,0.087 -0.119,0.23 -0.181,0.282 -0.063,0.051 -0.086,0.094 -0.121,0.12 -0.034,0.026 -0.143,0.107 -0.188,0.148 -0.043,0.041 -0.126,0.116 -0.186,0.094 -0.059,-0.022 -0.021,-0.086 0.043,-0.216 0.063,-0.131 0.025,-0.176 0.004,-0.262 -0.012,-0.046 -0.022,-0.016 0.024,-0.08 0.046,-0.064 0.054,-0.131 0.018,-0.213 -0.036,-0.082 -0.171,-0.24 -0.2,-0.267 -0.031,-0.025 -0.104,-0.041 -0.104,-0.041 -0.026,-0.087 -0.12,-0.107 -0.133,-0.131 -0.013,-0.022 -0.012,-0.126 0.007,-0.245 0.019,-0.119 -0.016,-0.322 -0.041,-0.412 -0.025,-0.089 -0.148,-0.282 -0.188,-0.336 -0.04,-0.055 -0.126,-0.168 -0.249,-0.366 -0.123,-0.197 -0.155,-0.232 -0.177,-0.227 -0.023,0.005 -0.095,-0.075 -0.122,-0.107 -0.026,-0.032 -0.007,-0.06 -0.022,-0.155 m 2.607,2.103 c 0.05,0.064 0.199,0.079 0.199,0.079 0.006,-0.076 -0.111,-0.129 -0.126,-0.139 -0.015,-0.011 -0.021,-0.033 -0.032,-0.053 -0.011,-0.02 -0.064,-0.029 -0.064,-0.029 0,0 -0.029,0.078 0.023,0.142 m -2.075,-1.512 c 0.007,0.032 0.062,0.099 0.15,0.237 0.088,0.138 0.234,0.229 0.234,0.229 -0.012,-0.047 -0.028,-0.047 -0.042,-0.082 -0.013,-0.035 -0.276,-0.374 -0.311,-0.395 -0.035,-0.022 -0.039,-0.022 -0.031,0.011 m 3.291,3.564 0.394,-0.156 0.393,0.156 c 0.878,0.411 4.388,2.191 6.602,6.126 0.971,1.738 1.339,3.598 1.387,5.322 v 0.036 h 10e-4 L -11.158,2 c 0,0 -0.969,0.298 -1.258,0.49 -0.442,0.295 -0.564,0.644 -0.35,1.094 0.205,0.43 1.371,0.792 1.371,0.792 l -0.195,0.886 c -0.013,0.057 -0.025,0.114 -0.039,0.171 v 0 c -0.481,2.081 -1.157,3.491 -1.181,3.541 l -0.394,0.819 -0.813,-0.288 c -0.499,-0.177 -0.991,-0.248 -1.467,-0.248 -1.812,-0.017 -3.421,1.464 -3.494,1.529 l -0.584,0.45 -0.586,-0.45 h 0.002 c -0.073,-0.065 -1.682,-1.546 -3.494,-1.529 -0.477,0 -0.969,0.071 -1.468,0.248 l -0.813,0.288 -0.394,-0.819 C -26.339,8.923 -27.053,7.437 -27.534,5.262 L -27.73,4.376 c 0,0 1.166,-0.362 1.372,-0.792 0.214,-0.45 0.092,-0.799 -0.351,-1.094 C -26.998,2.298 -27.966,2 -27.966,2 l 0.022,-0.797 c 0.048,-1.724 0.415,-3.584 1.387,-5.322 2.213,-3.935 5.724,-5.715 6.601,-6.126 m -6.123,6.436 c -0.911,1.632 -1.261,3.384 -1.307,5.03 l -0.01,0.354 0.312,0.116 c 0.457,0.169 0.829,0.422 1.072,0.7 0.246,0.279 0.359,0.565 0.359,0.847 0,0.017 0,0.033 -0.001,0.048 -0.013,0.24 -0.103,0.468 -0.284,0.693 -0.18,0.223 -0.453,0.433 -0.795,0.59 l -0.344,0.16 0.086,0.394 c 0.465,2.104 1.162,3.551 1.172,3.574 l 0.175,0.365 0.362,-0.129 c 0.561,-0.199 1.112,-0.278 1.643,-0.278 h 0.013 c 1.974,0 3.623,1.503 3.791,1.632 0.011,0.007 0.013,0.01 0.013,0.01 l 0.26,0.198 0.259,-0.198 c 0,0 0.003,-0.003 0.014,-0.01 0.167,-0.129 1.824,-1.639 3.804,-1.632 0.529,0 1.081,0.079 1.643,0.278 l 0.361,0.129 0.175,-0.365 c 0.01,-0.021 0.641,-1.332 1.103,-3.269 0.01,-0.043 0.019,-0.085 0.029,-0.129 0.004,-0.016 0.008,-0.033 0.012,-0.05 0.006,-0.025 0.011,-0.051 0.017,-0.076 0.004,-0.017 0.008,-0.033 0.011,-0.05 l 0.04,-0.183 0.047,-0.211 -0.345,-0.16 c -0.342,-0.157 -0.614,-0.367 -0.794,-0.59 -0.181,-0.225 -0.272,-0.453 -0.284,-0.693 -10e-4,-0.015 -0.002,-0.031 -0.002,-0.048 10e-4,-0.282 0.114,-0.568 0.359,-0.847 0.243,-0.278 0.615,-0.531 1.073,-0.7 l 0.311,-0.116 -0.007,-0.29 -0.002,-0.064 c -0.047,-1.646 -0.396,-3.398 -1.308,-5.03 -2.104,-3.756 -5.52,-5.502 -6.341,-5.883 l -0.175,-0.057 -0.175,0.057 c -0.822,0.381 -4.237,2.127 -6.342,5.883 m -0.86,5.045 c 0.044,-1.585 0.379,-3.25 1.243,-4.797 2.018,-3.613 5.358,-5.332 6.134,-5.688 0,0 3.628,1.204 6.131,5.688 0.865,1.547 1.2,3.212 1.246,4.797 -1.061,0.392 -1.776,1.189 -1.732,2.075 0.033,0.722 0.563,1.337 1.347,1.7 -0.452,2.047 -1.134,3.465 -1.134,3.465 -3.052,-1.08 -5.858,1.43 -5.858,1.43 0,0 -2.808,-2.51 -5.859,-1.43 0,0 -0.683,-1.418 -1.134,-3.465 0.783,-0.363 1.313,-0.978 1.347,-1.7 0.04,-0.886 -0.673,-1.683 -1.731,-2.075 m 6.43,0.543 c 0.011,-0.147 -0.094,-0.275 -0.232,-0.286 -0.006,-0.001 -0.013,-0.001 -0.019,-0.001 -0.131,0 -0.242,0.107 -0.251,0.247 0,0 -0.001,0.005 -0.001,0.013 -0.001,0.01 -0.002,0.024 -0.004,0.042 -0.003,0.038 -0.008,0.092 -0.015,0.16 -0.013,0.138 -0.035,0.333 -0.067,0.562 -0.063,0.457 -0.169,1.048 -0.329,1.572 -0.096,0.312 -0.211,0.599 -0.341,0.815 -0.062,-0.512 -0.102,-1.133 -0.089,-1.862 0.021,-1.224 0.19,-2.753 0.655,-4.581 0.034,-0.135 -0.048,-0.273 -0.183,-0.307 -0.019,-0.005 -0.039,-0.007 -0.058,-0.007 -0.114,-0.003 -0.219,0.074 -0.249,0.189 -0.472,1.865 -0.647,3.433 -0.669,4.697 -0.044,2.529 0.524,3.839 0.536,3.868 0.056,0.127 0.206,0.185 0.333,0.129 0.127,-0.056 0.185,-0.204 0.129,-0.332 v 0 -0.002 c -0.001,-0.002 -0.002,-0.004 -0.004,-0.008 -0.003,-0.008 -0.009,-0.021 -0.015,-0.039 -0.014,-0.035 -0.034,-0.091 -0.059,-0.166 -0.049,-0.15 -0.115,-0.378 -0.18,-0.684 -0.014,-0.064 -0.027,-0.131 -0.04,-0.202 0.096,-0.089 0.182,-0.195 0.259,-0.311 0.111,-0.167 0.205,-0.356 0.287,-0.558 0.165,-0.405 0.285,-0.863 0.374,-1.298 0.178,-0.869 0.232,-1.642 0.232,-1.65 m 1.764,3.393 c 0,-0.32 -0.036,-0.609 -0.086,-0.89 -0.021,-0.123 -0.128,-0.209 -0.248,-0.209 -0.014,0 -0.029,10e-4 -0.043,0.003 -0.138,0.024 -0.23,0.155 -0.206,0.292 0.047,0.266 0.078,0.523 0.078,0.804 0,0.419 -0.07,0.898 -0.285,1.536 -0.044,0.132 0.027,0.275 0.159,0.319 0.132,0.045 0.275,-0.026 0.32,-0.159 0.228,-0.677 0.311,-1.218 0.311,-1.696 m 0.822,0.035 c 0,-0.279 -0.03,-0.538 -0.071,-0.795 -0.042,-0.258 -0.095,-0.515 -0.145,-0.8 -0.084,-0.48 -0.16,-1.053 -0.16,-1.868 0,-0.818 0.077,-1.878 0.307,-3.317 0.022,-0.138 -0.072,-0.267 -0.209,-0.289 -0.014,-0.002 -0.027,-0.003 -0.04,-0.003 -0.122,0 -0.23,0.088 -0.249,0.213 -0.233,1.459 -0.314,2.546 -0.314,3.396 0,0.847 0.081,1.458 0.168,1.956 0.052,0.293 0.104,0.551 0.144,0.793 0.039,0.242 0.064,0.47 0.064,0.714 0,0.405 -0.069,0.861 -0.284,1.501 -0.045,0.132 0.026,0.275 0.158,0.319 0.132,0.045 0.275,-0.026 0.32,-0.159 0.228,-0.676 0.312,-1.195 0.311,-1.661 M -17.1,5.172 c 0,-0.32 -0.037,-0.609 -0.086,-0.89 -0.021,-0.123 -0.128,-0.209 -0.248,-0.209 -0.014,0 -0.029,10e-4 -0.044,0.003 -0.137,0.024 -0.229,0.155 -0.205,0.292 0.046,0.266 0.078,0.523 0.078,0.804 0,0.419 -0.07,0.898 -0.285,1.536 -0.044,0.132 0.027,0.275 0.159,0.319 0.132,0.045 0.275,-0.026 0.319,-0.159 0.229,-0.677 0.312,-1.218 0.312,-1.696 m 1.476,-7.049 c -0.14,0 -0.252,0.113 -0.252,0.252 v 3.106 h -0.796 c -0.142,0 -0.258,0.113 -0.258,0.252 0,0.14 0.116,0.253 0.258,0.253 h 0.796 v 0.981 h -0.796 c -0.142,0 -0.258,0.113 -0.258,0.252 0,0.139 0.116,0.253 0.258,0.253 h 0.796 v 0.985 h -0.796 c -0.142,0 -0.258,0.113 -0.258,0.253 0,0.139 0.116,0.252 0.258,0.252 h 0.314 c 0.005,0.082 0.009,0.164 0.009,0.248 0,0.396 -0.07,0.844 -0.285,1.491 -0.044,0.134 0.026,0.278 0.159,0.322 0.132,0.045 0.275,-0.026 0.32,-0.16 0.227,-0.681 0.311,-1.194 0.311,-1.653 0,-0.085 -0.004,-0.167 -0.009,-0.248 h 0.442 c -0.005,0.081 -0.008,0.163 -0.008,0.248 0,0.459 0.083,0.972 0.311,1.653 0.044,0.134 0.187,0.205 0.319,0.16 0.133,-0.044 0.203,-0.188 0.159,-0.322 -0.215,-0.647 -0.284,-1.095 -0.285,-1.491 0,-0.084 0.004,-0.166 0.01,-0.248 h 0.313 c 0.143,0 0.259,-0.113 0.259,-0.252 0,-0.14 -0.116,-0.253 -0.259,-0.253 h -0.78 V 3.472 h 0.78 c 0.143,0 0.259,-0.114 0.259,-0.253 0,-0.139 -0.116,-0.252 -0.259,-0.252 h -0.78 V 1.986 h 0.78 c 0.143,0 0.259,-0.113 0.259,-0.253 0,-0.139 -0.116,-0.252 -0.259,-0.252 h -0.78 v -3.106 c 0,-0.139 -0.112,-0.252 -0.252,-0.252 m -1.804,-3.775 c 0.038,0.113 0.166,0.175 0.286,0.14 0.081,-0.025 0.191,-0.036 0.32,-0.043 0.022,-0.001 0.044,-0.001 0.066,-0.001 0.16,-0.001 0.329,0.036 0.445,0.101 0.117,0.068 0.177,0.14 0.194,0.253 0.002,0.021 0.003,0.042 0.003,0.06 -0.006,0.152 -0.065,0.209 -0.194,0.28 -0.126,0.062 -0.318,0.09 -0.455,0.089 -0.061,0 -0.114,-0.006 -0.132,-0.01 v 0.001 c -0.07,-0.025 -0.149,-0.017 -0.211,0.023 -0.062,0.041 -0.1,0.106 -0.099,0.178 l 0.011,0.9 c 0.003,0.116 0.104,0.212 0.228,0.212 h 0.899 c 0.126,0 0.228,-0.096 0.228,-0.213 0,-0.119 -0.102,-0.213 -0.228,-0.213 h -0.674 l -0.005,-0.452 c 0.187,-0.003 0.425,-0.032 0.649,-0.138 0.227,-0.102 0.444,-0.337 0.439,-0.657 0,-0.036 -0.002,-0.073 -0.006,-0.112 -0.034,-0.26 -0.21,-0.457 -0.416,-0.567 -0.205,-0.114 -0.446,-0.16 -0.676,-0.162 -0.032,0 -0.063,0.002 -0.095,0.003 -0.136,0.009 -0.28,0.019 -0.427,0.062 -0.121,0.035 -0.187,0.155 -0.15,0.266 m -0.125,4.662 c -0.125,0 -0.234,0.093 -0.25,0.221 -0.13,1.006 -0.178,1.838 -0.178,2.521 0,0.463 0.022,0.857 0.055,1.191 0.015,0.138 0.139,0.24 0.277,0.225 0.139,-0.013 0.24,-0.138 0.225,-0.276 -0.031,-0.316 -0.053,-0.693 -0.053,-1.14 0,-0.659 0.047,-1.47 0.174,-2.457 0.018,-0.138 -0.079,-0.265 -0.217,-0.283 -0.011,-0.002 -0.022,-0.002 -0.033,-0.002 m -1.965,-3.159 c 0.005,0.438 0.423,0.745 0.89,0.746 0.364,0 0.696,-0.188 0.829,-0.476 0.008,-0.012 0.016,-0.024 0.023,-0.038 0.008,-0.018 0.084,-0.187 0.084,-0.447 0.007,-0.421 -0.225,-1.073 -1.172,-1.589 -0.036,-0.02 -0.077,-0.03 -0.116,-0.03 -0.078,0 -0.154,0.037 -0.197,0.105 -0.063,0.101 -0.027,0.232 0.08,0.292 0.469,0.263 0.71,0.526 0.83,0.756 -0.111,-0.041 -0.234,-0.064 -0.361,-0.065 -0.467,10e-4 -0.885,0.308 -0.89,0.746 m -0.109,5.901 c 0,0.463 0.022,0.857 0.057,1.191 0.014,0.138 0.138,0.24 0.276,0.225 0.139,-0.013 0.24,-0.138 0.226,-0.276 -0.032,-0.316 -0.054,-0.693 -0.054,-1.14 0,-0.659 0.047,-1.47 0.175,-2.457 0.017,-0.138 -0.08,-0.265 -0.218,-0.283 -0.011,-0.002 -0.022,-0.002 -0.033,-0.002 -0.125,0 -0.233,0.093 -0.25,0.221 -0.13,1.006 -0.179,1.838 -0.179,2.521 m -2.15,-6.978 c 0,0.225 0.125,0.422 0.3,0.552 l 0.01,0.006 c -0.162,0.128 -0.275,0.316 -0.275,0.531 0,0.219 0.118,0.412 0.287,0.541 0.171,0.13 0.395,0.204 0.638,0.204 0.243,0 0.468,-0.074 0.637,-0.204 0.171,-0.129 0.289,-0.322 0.289,-0.541 0,-0.215 -0.113,-0.403 -0.276,-0.531 l 0.01,-0.006 c 0.176,-0.13 0.3,-0.327 0.3,-0.552 0,-0.225 -0.124,-0.423 -0.3,-0.551 -0.177,-0.131 -0.408,-0.205 -0.66,-0.206 -0.252,10e-4 -0.482,0.075 -0.66,0.206 -0.175,0.128 -0.3,0.326 -0.3,0.551 m -1.004,1.583 c 0,0.118 0.103,0.213 0.228,0.213 0.126,0 0.229,-0.095 0.229,-0.213 V -5.77 c 0,-0.118 -0.103,-0.213 -0.229,-0.213 -0.125,0 -0.228,0.095 -0.228,0.213 z m -2.009,5.422 c 0,0.005 0.023,0.34 0.089,0.815 0.067,0.475 0.176,1.089 0.349,1.659 0.117,0.38 0.262,0.74 0.455,1.033 0.077,0.115 0.163,0.221 0.259,0.31 -0.135,0.717 -0.292,1.086 -0.298,1.101 -0.056,0.127 0.002,0.276 0.129,0.332 0.128,0.056 0.276,-0.002 0.333,-0.129 0.012,-0.029 0.58,-1.339 0.536,-3.868 -0.022,-1.264 -0.197,-2.832 -0.67,-4.697 -0.029,-0.115 -0.134,-0.192 -0.249,-0.189 -0.018,0 -0.038,0.002 -0.057,0.007 -0.135,0.034 -0.217,0.172 -0.183,0.307 0.464,1.828 0.634,3.357 0.655,4.581 0.012,0.729 -0.027,1.35 -0.089,1.863 -0.057,-0.096 -0.112,-0.205 -0.163,-0.324 -0.139,-0.323 -0.252,-0.719 -0.338,-1.109 -0.173,-0.781 -0.24,-1.538 -0.253,-1.7 -0.002,-0.022 -0.003,-0.032 -0.003,-0.032 -0.01,-0.14 -0.12,-0.247 -0.251,-0.247 -0.006,0 -0.012,0 -0.019,0.001 -0.139,0.011 -0.243,0.139 -0.232,0.286 m 3.597,-6.787 c -0.088,-0.067 -0.127,-0.142 -0.127,-0.218 0,-0.075 0.039,-0.15 0.127,-0.218 0.088,-0.065 0.224,-0.113 0.376,-0.113 0.154,0 0.289,0.048 0.377,0.113 0.088,0.068 0.128,0.143 0.128,0.218 0,0.076 -0.04,0.151 -0.128,0.218 -0.088,0.066 -0.223,0.113 -0.377,0.113 h -0.002 c -0.151,0 -0.286,-0.047 -0.374,-0.113 m 0.726,0.658 c 0.083,0.064 0.12,0.138 0.12,0.213 0,0.074 -0.037,0.147 -0.12,0.211 -0.083,0.064 -0.207,0.108 -0.35,0.108 h -0.001 c -0.142,0 -0.266,-0.044 -0.348,-0.108 -0.083,-0.064 -0.12,-0.137 -0.12,-0.211 0,-0.075 0.037,-0.149 0.12,-0.213 0.082,-0.062 0.207,-0.107 0.349,-0.107 0.143,0 0.267,0.045 0.35,0.107 m 1.519,0.417 c -0.077,-0.063 -0.115,-0.137 -0.116,-0.216 0.001,-0.079 0.039,-0.152 0.116,-0.215 0.076,-0.062 0.189,-0.104 0.32,-0.104 0.129,0 0.243,0.042 0.321,0.104 0.077,0.063 0.114,0.136 0.115,0.215 -0.001,0.079 -0.038,0.153 -0.115,0.216 -0.078,0.061 -0.192,0.104 -0.321,0.104 h -0.001 c -0.131,0 -0.243,-0.043 -0.319,-0.104 m 1.397,-10.318 c 0.08,0.099 0.162,0.191 0.255,0.281 0.054,-0.331 -0.044,-0.535 -0.216,-0.705 -0.183,-0.178 -0.453,-0.311 -0.718,-0.48 l -0.012,-0.007 -0.003,-0.014 c 0,-0.009 -0.01,-0.025 -0.003,-0.052 l 0.004,-0.017 0.018,-0.005 c 0.11,-0.029 0.249,0.01 0.353,0.022 0.039,0.007 0.076,0.014 0.111,0.024 0.531,0.14 0.824,0.628 0.871,1.046 0.009,0.215 0.019,0.428 0.029,0.634 0.056,0.057 0.111,0.113 0.167,0.161 l 0.001,0.003 0.003,10e-4 c 0.052,0.063 0.149,0.141 0.246,0.226 l -0.02,0.023 0.021,-0.022 c 0.144,0.135 0.325,0.319 0.364,0.462 l 10e-4,0.005 v 0.005 c 0,0.006 -0.002,0.01 -0.002,0.015 -0.024,0.068 -0.098,0.089 -0.179,0.111 -0.084,0.019 -0.18,0.029 -0.254,0.038 -0.007,0 -0.164,-10e-4 -0.221,-10e-4 h -0.004 l -0.004,-0.002 c -0.008,-10e-4 -0.022,-0.011 -0.024,-0.023 -0.004,-0.01 -0.002,-0.018 -0.001,-0.023 0.01,-0.029 0.033,-0.056 0.059,-0.094 0.026,-0.035 0.05,-0.074 0.055,-0.094 0.001,-0.005 0.001,-0.008 0.002,-0.01 -0.006,-0.059 -0.142,-0.211 -0.22,-0.282 -0.048,0.356 0.081,0.679 0.032,1.04 l -0.002,0.012 -0.008,0.008 c -0.111,0.094 -0.461,0.22 -0.644,0.185 l -0.014,-0.003 -0.007,-0.012 c -0.007,-0.014 -0.006,-0.023 -0.007,-0.03 0,-0.001 -0.001,-0.002 0,-0.004 l -0.003,-0.003 v -0.008 c -0.003,-0.047 0.005,-0.094 0.017,-0.14 0.026,-0.098 0.072,-0.196 0.097,-0.293 0.009,-0.035 0.016,-0.07 0.019,-0.105 0.028,-0.36 0.077,-0.712 0.083,-1.059 -0.17,-0.182 -0.361,-0.361 -0.58,-0.512 -0.084,-0.063 -0.211,-0.084 -0.325,-0.158 -0.009,-0.004 -0.013,-0.009 -0.016,-0.011 v -10e-4 l -0.032,-0.008 0.014,-0.034 c 0.073,-0.154 0.194,-0.382 0.381,-0.342 0.012,0.004 0.023,0.007 0.035,0.013 0.107,0.051 0.197,0.133 0.281,0.239 m 0.821,0.499 c -0.015,-0.044 -0.014,-0.089 -0.002,-0.134 0.063,-0.229 0.401,-0.466 0.519,-0.567 0.034,-0.024 0.058,-0.055 0.098,-0.087 0.03,-0.023 0.071,-0.047 0.125,-0.05 0.037,-0.003 0.072,10e-4 0.105,0.01 l 0.002,10e-4 c 0.198,0.053 0.309,0.258 0.39,0.344 0.018,0.024 0.067,0.064 0.113,0.107 0.044,0.043 0.089,0.085 0.093,0.143 l 0.001,0.033 -0.033,-10e-4 c -0.061,0 -0.111,-0.007 -0.168,-0.007 v -0.031 l -0.002,0.031 c -0.044,-0.003 -0.086,-0.011 -0.125,-0.022 -0.088,-0.022 -0.166,-0.055 -0.246,-0.077 -0.054,-0.014 -0.108,-0.022 -0.164,-0.02 -0.053,-10e-4 -0.114,0.017 -0.179,0.044 -0.166,0.063 -0.332,0.193 -0.44,0.303 l -0.014,0.013 -0.052,-0.014 -0.015,-0.004 z m 3.236,3.297 -0.028,-0.016 0.04,-0.025 c 0.061,-0.037 0.126,-0.08 0.188,-0.118 0.15,-0.115 0.342,-0.257 0.444,-0.43 -0.001,0.001 -0.001,-10e-4 0,-0.002 0.017,-0.03 0.038,-0.06 0.055,-0.088 0.03,-0.054 0.046,-0.1 0.024,-0.145 v -10e-4 l -10e-4,-0.001 c -0.156,0.011 -0.296,0.128 -0.505,0.007 -0.024,-0.014 -0.049,-0.031 -0.074,-0.05 l -0.007,-0.007 -0.003,-0.008 c -0.002,-0.002 -0.007,-0.021 0.002,-0.034 0,0 0.002,-0.003 0.005,-0.006 l 0.004,-0.006 0.007,-0.002 c 0.137,-0.048 0.387,-0.182 0.481,-0.319 0.017,-0.03 0.03,-0.066 0.05,-0.103 0.018,-0.03 0.043,-0.061 0.082,-0.083 l 0.004,-0.002 0.005,-0.002 c 0.06,-0.009 0.118,-0.019 0.177,-0.028 l 0.015,-0.002 0.011,0.01 c 0.028,0.031 0.027,0.067 0.022,0.104 -0.018,0.111 -0.078,0.264 0.008,0.366 0.059,0.026 0.11,0.006 0.183,0.014 l 0.005,0.001 0.006,0.003 c 0.018,0.012 0.022,0.02 0.028,0.023 l 0.016,0.009 -10e-4,0.018 c -0.004,0.044 -0.009,0.091 -0.012,0.133 l 10e-4,0.005 -0.002,0.004 c -0.014,0.03 -0.025,0.07 -0.042,0.108 l 0.027,0.059 0.122,0.266 c 0.005,0.001 0.012,0.003 0.016,0.006 0.021,-0.01 0.055,-0.033 0.067,-0.056 0.006,-0.01 0.007,-0.019 0.006,-0.027 v -10e-4 -0.002 0 c -0.005,-0.009 -0.02,-0.028 -0.031,-0.038 l -0.016,-0.017 0.016,-0.024 0.007,-0.011 0.012,-10e-4 c 0.027,-0.004 0.051,0.004 0.072,0.011 0.031,-0.037 0.055,-0.072 0.093,-0.106 l 0.003,-10e-4 0.002,-10e-4 c 0.043,-0.023 0.118,-0.042 0.117,-0.052 v 0 l -0.003,-0.005 v -0.005 c -0.007,-0.086 -0.122,-0.266 -0.211,-0.388 -0.013,-0.025 -0.024,-0.045 -0.035,-0.056 l -0.003,-0.003 -10e-4,-0.002 c -0.189,-0.308 -0.381,-0.609 -0.574,-0.919 -0.07,-0.131 -0.316,-0.316 -0.213,-0.512 0.004,-0.005 0.008,-0.011 0.013,-0.017 l 0.005,-0.008 0.009,-0.003 c 0.098,-0.025 0.197,-0.042 0.299,-0.05 0.067,0.003 0.129,0.035 0.154,0.022 l 0.02,-0.007 0.014,0.016 c 0.142,0.177 0.097,0.277 0.122,0.341 0.107,0.286 0.268,0.561 0.46,0.834 0.048,0.056 0.091,0.118 0.138,0.174 0.08,0.104 0.161,0.239 0.284,0.31 0.009,0.006 0.019,0.01 0.027,0.014 10e-4,0 0.002,0.001 0.002,0.001 0.01,-0.022 0.016,-0.048 0.016,-0.068 0.003,-0.067 -0.042,-0.135 -0.061,-0.211 -0.021,-0.12 -0.064,-0.247 -0.107,-0.359 -0.021,-0.046 -0.081,-0.113 -0.083,-0.182 0.002,-0.023 0.011,-0.04 0.019,-0.055 0.01,-0.018 0.022,-0.034 0.03,-0.047 0.007,-0.011 0.01,-0.02 0.011,-0.026 v -0.007 l 10e-4,-0.001 c 0,0 -10e-4,-0.002 -0.002,-0.003 -0.024,-0.052 -0.143,-0.173 -0.18,-0.225 -0.052,-0.089 -0.108,-0.18 -0.17,-0.259 -0.14,-0.167 -0.365,-0.302 -0.419,-0.507 l -0.004,-0.016 0.012,-0.011 c 0.039,-0.037 0.133,-0.06 0.241,-0.074 0.106,-0.013 0.221,-0.012 0.296,0.03 0.008,0.005 0.015,0.01 0.022,0.015 0.091,0.086 0.129,0.208 0.162,0.292 0.046,0.111 0.17,0.314 0.289,0.425 0.008,0.008 0.018,0.016 0.03,0.026 0.03,-0.026 0.062,-0.067 0.1,-0.104 0.035,-0.034 0.061,-0.067 0.079,-0.099 0.043,-0.075 0.045,-0.14 0.02,-0.204 -0.029,-0.091 -0.12,-0.182 -0.235,-0.27 -0.013,-0.009 -0.028,-0.018 -0.044,-0.028 -0.054,-0.031 -0.121,-0.059 -0.182,-0.094 -0.024,-0.014 -0.047,-0.029 -0.067,-0.047 -0.011,-0.006 -0.017,-0.024 -0.016,-0.029 v -0.005 l -0.009,-0.037 0.038,0.002 c 0.105,0.007 0.214,0.055 0.305,0.054 0.167,0 0.308,0.005 0.473,0.006 l 0.004,10e-4 h 0.003 c 0.007,0.003 0.018,0.003 0.031,0.011 h 10e-4 c 0.007,0.004 0.015,0.011 0.018,0.021 0.059,0.132 0.058,0.459 -0.05,0.65 -0.012,0.023 -0.027,0.043 -0.043,0.061 -0.082,0.088 -0.182,0.17 -0.236,0.266 -0.009,0.015 -0.016,0.03 -0.022,0.044 0.002,0.011 0.034,0.057 0.071,0.091 0.037,0.039 0.081,0.076 0.092,0.082 l 0.211,0.123 0.003,0.003 c 0.073,0.088 0.047,0.194 0.056,0.264 v 0.003 0.002 c -10e-4,0.015 -0.005,0.028 -0.011,0.038 -0.023,0.038 -0.066,0.033 -0.068,0.036 h -0.003 -0.003 c -0.061,-10e-4 -0.117,-0.023 -0.167,-0.053 -0.035,-0.019 -0.067,-0.043 -0.098,-0.067 -0.033,-0.026 -0.059,-0.05 -0.086,-0.071 l -0.262,-0.153 c 0,0 0,10e-4 -0.001,10e-4 -0.009,10e-4 -0.028,0.019 -0.037,0.035 -0.003,0.005 -0.005,0.01 -0.006,0.013 0,10e-4 -10e-4,0.002 -10e-4,0.002 0.036,0.106 0.161,0.209 0.225,0.331 0.011,0.019 0.029,0.043 0.042,0.067 0.058,0.139 0.099,0.273 0.149,0.404 0.021,0.061 0.092,0.209 0.035,0.316 -0.014,0.023 -0.034,0.042 -0.061,0.056 -0.071,0.045 -0.155,0.026 -0.225,-0.014 -0.095,-0.056 -0.177,-0.153 -0.218,-0.217 -0.01,-0.019 -0.025,-0.033 -0.034,-0.058 -0.127,-0.181 -0.281,-0.358 -0.434,-0.541 -0.053,-0.075 -0.116,-0.148 -0.161,-0.228 -0.034,-0.045 -0.136,-0.216 -0.184,-0.244 -10e-4,0 -10e-4,0 -10e-4,10e-4 -0.027,0.075 0.059,0.19 0.105,0.281 l 0.182,0.317 0.291,0.518 c 0.019,0.022 0.059,0.047 0.103,0.072 0.024,0.012 0.054,0.025 0.083,0.042 0.041,0.024 0.08,0.052 0.104,0.093 0.167,0.26 0.099,0.594 0.123,0.865 0.007,0.107 0.051,0.459 -0.055,0.646 -0.032,0.055 -0.079,0.097 -0.147,0.106 -0.067,0.01 -0.146,-0.01 -0.243,-0.066 l -0.005,-0.003 -0.003,-0.005 c -0.086,-0.109 -0.222,-0.518 -0.385,-0.688 -0.012,0.079 0.025,0.18 0.062,0.286 0.039,0.121 0.077,0.252 0.011,0.37 -0.003,0.003 -0.004,0.006 -0.006,0.008 l -0.001,0.002 c -0.02,0.03 -0.052,0.036 -0.092,0.044 -0.122,0.019 -0.337,0.004 -0.464,-0.051 l -0.021,-0.009 0.003,-0.02 c 0.008,-0.062 0.064,-0.132 0.085,-0.187 l 10e-4,-0.025 0.019,-0.262 c 0.007,-0.086 0.035,-0.189 0.037,-0.284 0.002,-0.095 -0.019,-0.171 -0.106,-0.223 -0.035,-0.02 -0.083,-0.037 -0.146,-0.047 -0.019,-0.002 -0.025,-0.007 -0.038,-0.007 -0.132,-0.01 -0.242,0.048 -0.386,0.052 -0.065,0.01 -0.125,-0.011 -0.181,-0.01 -0.057,-10e-4 -0.13,0.022 -0.21,-0.015 l -0.029,-0.014 z m 1.684,-0.304 0.024,0.013 0.054,0.019 c 0.01,-0.007 0.022,-0.014 0.036,-0.023 0.003,-0.023 0.01,-0.039 0.01,-0.048 -0.007,-0.021 -0.021,-0.038 -0.039,-0.048 -0.02,-0.012 -0.046,-0.017 -0.08,-0.006 -0.014,0.035 -0.012,0.055 -0.005,0.093 m -0.205,0.492 0.028,-0.002 c 0.011,0.171 0.285,0.461 0.419,0.61 0.016,0.013 0.021,0.025 0.035,0.033 0.012,0.006 0.024,0.01 0.047,0.002 0.029,-0.012 0.048,-0.029 0.06,-0.05 0.019,-0.032 0.021,-0.078 0.018,-0.129 -0.004,-0.089 -0.014,-0.183 -0.021,-0.267 l -10e-4,-0.003 0.002,-0.003 c 0.017,-0.152 0.081,-0.462 -0.066,-0.537 -0.008,-0.005 -0.017,-0.009 -0.025,-0.012 -0.047,0.037 -0.087,0.074 -0.127,0.112 l -0.007,0.005 -0.008,0.002 c -0.036,0.005 -0.068,10e-4 -0.091,0.006 -0.025,0.009 -0.074,0.03 -0.118,0.06 -0.05,0.028 -0.086,0.062 -0.104,0.091 -10e-4,0.005 -0.003,0.008 -0.004,0.01 l -0.002,0.004 -10e-4,0.002 -10e-4,10e-4 c -0.008,0.012 -0.009,0.033 -0.005,0.061 z m -0.602,-0.452 c 0.023,0.007 0.042,0.011 0.056,0.011 0.042,0.002 0.075,-0.002 0.112,-0.005 10e-4,-0.035 -0.01,-0.09 -0.025,-0.125 l 0.027,-0.009 -0.027,0.007 c -0.004,-0.008 -0.006,-0.018 -0.009,-0.026 -0.046,0.039 -0.101,0.085 -0.124,0.129 -0.004,0.006 -0.008,0.012 -0.01,0.018"
       style="fill:#0d4d84;fill-opacity:1;fill-rule:nonzero;stroke:none"
       transform="matrix(0.35277776,0,0,-0.35277776,119.38536,180.87734)"
       clip-path="url(#clipPath3326)" />
  </g>
</svg>
