<?xml version="1.0" encoding="utf-8"?>
<!-- Generator: Adobe Illustrator 28.0.0, SVG Export Plug-In . SVG Version: 6.00 Build 0)  -->
<svg version="1.1" id="svg1" xmlns:svg="http://www.w3.org/2000/svg"
	 xmlns="http://www.w3.org/2000/svg" xmlns:xlink="http://www.w3.org/1999/xlink" x="0px" y="0px" viewBox="0 0 76.8 21.9"
	 style="enable-background:new 0 0 76.8 21.9;" xml:space="preserve">
<style type="text/css">
	.st0{clip-path:url(#SVGID_00000153698077853342432060000002455860284942962875_);fill:#DC2227;}
	.st1{clip-path:url(#SVGID_00000139974855490412907030000018361032594798785446_);fill:#DC2227;}
	.st2{clip-path:url(#SVGID_00000047034863156017072560000015189176716591582119_);fill:#DC2227;}
	.st3{clip-path:url(#SVGID_00000032619086562466855580000014619569879584927907_);fill:#DC2227;}
	.st4{clip-path:url(#SVGID_00000017499692461610472060000012164517652351792048_);fill:#DC2227;}
	.st5{clip-path:url(#SVGID_00000106113258422416753880000010663653024818552997_);fill:#DC2227;}
	.st6{clip-path:url(#SVGID_00000072995848700014562040000010179090922423029934_);fill:#DC2227;}
	.st7{clip-path:url(#SVGID_00000018916874991808542540000013435811259527392917_);fill:#676C74;}
	.st8{clip-path:url(#SVGID_00000031902064022687132050000015931344873355655091_);fill:#676C74;}
	.st9{clip-path:url(#SVGID_00000132791721165026265510000006582390776117461660_);fill:#676C74;}
	.st10{clip-path:url(#SVGID_00000072992410014655390570000017907208482140494503_);fill:#676C74;}
	.st11{clip-path:url(#SVGID_00000069388435923721740690000006614673532158170246_);fill:#676C74;}
	.st12{clip-path:url(#SVGID_00000127015030202728722110000017615420103231856544_);fill:#676C74;}
	.st13{clip-path:url(#SVGID_00000127748534965235595260000005459444031557266562_);fill:#676C74;}
	.st14{clip-path:url(#SVGID_00000048462751016178632550000010256946693690553744_);fill:#676C74;}
</style>
<g id="layer1" transform="translate(-125.74357,-94.614873)">
	<g>
		<defs>
			<rect id="SVGID_1_" x="-249.5" y="-370.3" width="1207.6" height="858.9"/>
		</defs>
		<clipPath id="SVGID_00000165941726657966047210000011120511720283295371_">
			<use xlink:href="#SVGID_1_"  style="overflow:visible;"/>
		</clipPath>
		<path id="path912" style="clip-path:url(#SVGID_00000165941726657966047210000011120511720283295371_);fill:#DC2227;" d="
			M149.3,95.7c0.3-0.5,0.7-0.8,1.2-1c0.5-0.1,1-0.1,1.4,0.2c0.5,0.3,0.8,0.9,1,1.5c0.6,2,1.1,3.9,1.7,5.9c0.1,0.1,0.1,0.4,0.3,0.4
			c0.2-0.1,0.2-0.3,0.3-0.4c0.6-2.5,1.2-5,1.9-7.5c0.7,0,1.3,0,2,0c-0.6,2.5-1.3,5-1.9,7.5c-0.1,0.5-0.2,1.1-0.6,1.6
			c-0.6,0.8-1.8,1.1-2.6,0.6c-0.5-0.3-0.8-0.9-0.9-1.5c-0.6-2-1.1-4-1.7-5.9c0-0.2-0.1-0.3-0.3-0.4c-0.2,0.5-0.3,1.1-0.5,1.7
			c-0.5,2.1-1,4.2-1.6,6.2c-0.7,0.1-1.3,0-2,0c0.6-2.6,1.3-5.2,1.9-7.8C149.1,96.4,149.1,96,149.3,95.7"/>
	</g>
	<g>
		<defs>
			<rect id="SVGID_00000092436123207346905350000003607842187729229477_" x="-249.5" y="-370.3" width="1207.6" height="858.9"/>
		</defs>
		<clipPath id="SVGID_00000032615340160619450580000012078386618311110056_">
			<use xlink:href="#SVGID_00000092436123207346905350000003607842187729229477_"  style="overflow:visible;"/>
		</clipPath>
		<path id="path914" style="clip-path:url(#SVGID_00000032615340160619450580000012078386618311110056_);fill:#DC2227;" d="
			M173.7,96.6c-0.3,0.1-0.4,0.3-0.5,0.6c-0.4,1.6-0.8,3.2-1.2,4.9c-0.1,0.2,0.1,0.6,0.4,0.6c1.5,0,3.1,0,4.6,0
			c0.3,0,0.6-0.3,0.6-0.6c0.4-1.5,0.7-3,1.1-4.5c0-0.2,0.2-0.5,0.1-0.7c-0.1-0.2-0.3-0.2-0.5-0.2C176.7,96.7,175.2,96.6,173.7,96.6
			 M173.3,94.7c2,0,4.1,0,6.1,0c0.6,0,1.2,0.3,1.4,0.9c0.2,0.4,0.1,0.9,0,1.4c-0.5,1.9-0.9,3.8-1.4,5.7c-0.2,1.1-1.2,1.9-2.3,2
			c-1.9,0-3.7,0-5.6,0c-0.5,0-1-0.1-1.3-0.4c-0.4-0.4-0.5-1-0.4-1.5c0.5-1.9,1-3.9,1.4-5.8c0.1-0.5,0.3-1.1,0.7-1.5
			C172.3,95,172.7,94.7,173.3,94.7"/>
	</g>
	<g>
		<defs>
			<rect id="SVGID_00000087395606784141337640000003953425792904021942_" x="-249.5" y="-370.3" width="1207.6" height="858.9"/>
		</defs>
		<clipPath id="SVGID_00000047048129461767566840000011033533205853049735_">
			<use xlink:href="#SVGID_00000087395606784141337640000003953425792904021942_"  style="overflow:visible;"/>
		</clipPath>
		<path id="path916" style="clip-path:url(#SVGID_00000047048129461767566840000011033533205853049735_);fill:#DC2227;" d="
			M128.2,95.1c0.4-0.3,1-0.4,1.5-0.4c2.7,0,5.4,0,8.1,0c-0.2,0.6-0.3,1.3-0.5,1.9c-2.3,0-4.5,0-6.8,0c-0.2,0-0.4,0.1-0.5,0.3
			c0,0.1,0.1,0.2,0.2,0.3c1.8,1.4,3.5,2.9,5.3,4.3c0.3,0.2,0.5,0.5,0.6,0.8c0.1,0.7-0.3,1.5-0.9,1.9c-0.4,0.2-0.8,0.3-1.3,0.3
			c-2.7,0-5.5,0-8.2,0c0.2-0.6,0.3-1.3,0.5-1.9c2.2,0,4.4,0,6.6,0c0.2,0,0.4-0.2,0.5-0.4c0-0.2-0.2-0.3-0.4-0.4
			c-1.6-1.3-3.2-2.6-4.8-3.9c-0.3-0.2-0.5-0.5-0.6-0.8C127.2,96.4,127.6,95.5,128.2,95.1"/>
	</g>
	<g>
		<defs>
			<rect id="SVGID_00000063601578940672660830000015204236508149483923_" x="-249.5" y="-370.3" width="1207.6" height="858.9"/>
		</defs>
		<clipPath id="SVGID_00000006708289026232574980000001807195893445305015_">
			<use xlink:href="#SVGID_00000063601578940672660830000015204236508149483923_"  style="overflow:visible;"/>
		</clipPath>
		<path id="path918" style="clip-path:url(#SVGID_00000006708289026232574980000001807195893445305015_);fill:#DC2227;" d="
			M138.8,94.7c0.7,0,1.4,0,2,0c-0.6,2.4-1.2,4.7-1.8,7.1c0,0.2-0.1,0.4-0.1,0.6c0.1,0.2,0.4,0.2,0.6,0.2c1.3,0,2.7,0,4,0
			c0.3,0,0.6,0,0.8-0.2c0.2-0.2,0.3-0.5,0.4-0.8c0.6-2.3,1.1-4.6,1.7-6.9c0.7,0,1.3,0,2,0c-0.5,2.1-1,4.2-1.6,6.3
			c-0.2,0.7-0.3,1.5-0.7,2.2c-0.3,0.6-0.8,1-1.4,1.2c-0.4,0.2-0.9,0.2-1.4,0.2c-1.3,0-2.7,0-4,0c-0.6,0-1.2-0.1-1.7-0.3
			c-0.3-0.2-0.6-0.5-0.7-0.9c-0.2-0.6-0.1-1.1,0-1.7C137.7,99.4,138.3,97,138.8,94.7"/>
	</g>
	<g>
		<defs>
			<rect id="SVGID_00000091005917435305774390000006281885553929838270_" x="-249.5" y="-370.3" width="1207.6" height="858.9"/>
		</defs>
		<clipPath id="SVGID_00000021832312590186922650000001252797549586627468_">
			<use xlink:href="#SVGID_00000091005917435305774390000006281885553929838270_"  style="overflow:visible;"/>
		</clipPath>
		<path id="path920" style="clip-path:url(#SVGID_00000021832312590186922650000001252797549586627468_);fill:#DC2227;" d="
			M159.8,94.7c0.7,0,1.3,0,2,0c-0.3,2.3-0.5,4.7-0.7,7.1c0,0.2-0.1,0.5,0.1,0.7c0.2,0.1,0.5,0,0.7-0.1c0.7-0.4,1.3-0.9,2.1-0.8
			c0.8,0.1,1.2,0.7,1.9,1.1c0.3,0.1,0.5-0.3,0.6-0.5c0.9-2.4,1.7-4.9,2.6-7.3c0.7,0,1.4,0,2,0c-0.9,2.4-1.7,4.9-2.5,7.4
			c-0.3,0.9-0.8,1.7-1.5,2.2c-0.5,0.4-1.3,0.4-1.9,0.2c-0.5-0.2-0.8-0.6-1.2-0.9c-0.3-0.2-0.7,0-0.9,0.2c-0.6,0.4-1.3,0.9-2.1,0.9
			c-0.6,0-1.2-0.2-1.5-0.7c-0.4-0.6-0.4-1.3-0.4-2C159.3,99.5,159.6,97.1,159.8,94.7"/>
	</g>
	<g>
		<defs>
			<rect id="SVGID_00000103222771588855040860000003324047074896673667_" x="-249.5" y="-370.3" width="1207.6" height="858.9"/>
		</defs>
		<clipPath id="SVGID_00000010308089772652917030000015971353880294555785_">
			<use xlink:href="#SVGID_00000103222771588855040860000003324047074896673667_"  style="overflow:visible;"/>
		</clipPath>
		<path id="path922" style="clip-path:url(#SVGID_00000010308089772652917030000015971353880294555785_);fill:#DC2227;" d="
			M183.9,96.6c-0.5,2-1,4-1.5,6c1.3,0,2.7,0,4,0c0.9,0.1,1.9-0.7,2-1.6c0.2-1.1,0.5-2.2,0.8-3.3c0.2-0.5-0.3-1.1-0.8-1.1
			C186.9,96.6,185.4,96.6,183.9,96.6 M182.4,94.7c2.3,0,4.5,0,6.8,0c0.9,0,1.9,0.6,2.1,1.5c0.2,0.5,0.1,1,0,1.5
			c-0.3,1.2-0.6,2.4-0.9,3.6c-0.1,0.5-0.3,1.1-0.6,1.6c-0.6,1-1.6,1.7-2.8,1.7c-2.4,0-4.7,0-7.1,0C180.8,101.3,181.6,98,182.4,94.7"
			/>
	</g>
	<g>
		<defs>
			<rect id="SVGID_00000098899805600462441080000001971285990531141803_" x="-249.5" y="-370.3" width="1207.6" height="858.9"/>
		</defs>
		<clipPath id="SVGID_00000168804238346195272040000001878443341441036694_">
			<use xlink:href="#SVGID_00000098899805600462441080000001971285990531141803_"  style="overflow:visible;"/>
		</clipPath>
		<path id="path924" style="clip-path:url(#SVGID_00000168804238346195272040000001878443341441036694_);fill:#DC2227;" d="
			M193.1,95.4c0.5-0.6,1.3-0.7,2-0.7c1.7,0,3.5,0,5.2,0c0.5,0,1,0,1.5,0.2c0.4,0.2,0.7,0.6,0.7,1.1c0.1,0.6,0,1.3,0,1.9
			c0,2.2,0,4.5,0,6.7c-0.7,0-1.3,0-2,0c0-1.1,0-2.1,0-3.2c-1.7,0-3.4,0-5.2,0c0.2-0.6,0.3-1.3,0.5-2c1.6,0,3.1,0,4.7,0
			c0-0.8,0-1.6,0-2.4c0-0.3-0.3-0.4-0.5-0.4c-1.5,0-2.9,0-4.4,0c-0.3,0-0.7-0.1-1,0.1c-0.2,0.1-0.3,0.4-0.3,0.7
			c-0.6,2.4-1.2,4.8-1.8,7.1c-0.7,0-1.3,0-2,0c0.6-2.6,1.3-5.2,1.9-7.8C192.6,96.3,192.7,95.8,193.1,95.4"/>
	</g>
	<g>
		<defs>
			<rect id="SVGID_00000093888911113288824270000015965142615294243737_" x="-249.5" y="-370.3" width="1207.6" height="858.9"/>
		</defs>
		<clipPath id="SVGID_00000034789035825345780310000012978195604045864068_">
			<use xlink:href="#SVGID_00000093888911113288824270000015965142615294243737_"  style="overflow:visible;"/>
		</clipPath>
		<path id="path926" style="clip-path:url(#SVGID_00000034789035825345780310000012978195604045864068_);fill:#676C74;" d="
			M174.6,106.6c0.5,0,0.9,0,1.4,0c-0.1,0.3-0.3,0.5-0.5,0.8c0.9,0,1.8,0,2.6,0c0.3,0,0.6,0,0.8,0.3c0.2,0.2,0.1,0.5,0,0.8
			c-0.2,0.3-0.4,0.6-0.6,1c-0.5,0-0.9,0-1.4,0c0.1-0.2,0.3-0.5,0.4-0.7c-0.9,0-1.7,0-2.6,0c-0.3,0.4-0.5,0.9-0.8,1.3
			c-0.5,0-0.9,0-1.4,0C173.3,108.8,173.9,107.7,174.6,106.6"/>
	</g>
	<g>
		<defs>
			<rect id="SVGID_00000173871711136966427810000002784771644290352527_" x="-249.5" y="-370.3" width="1207.6" height="858.9"/>
		</defs>
		<clipPath id="SVGID_00000075131955420586977960000007046014379811490454_">
			<use xlink:href="#SVGID_00000173871711136966427810000002784771644290352527_"  style="overflow:visible;"/>
		</clipPath>
		<path id="path928" style="clip-path:url(#SVGID_00000075131955420586977960000007046014379811490454_);fill:#676C74;" d="
			M193.3,106.6c0.5,0,1,0,1.5,0c-0.3,0.4-0.6,0.9-0.9,1.3c-0.2,0.2-0.4,0.4-0.7,0.4c-0.4,0.1-0.8,0-1.1,0
			C192.5,107.8,192.9,107.2,193.3,106.6"/>
	</g>
	<g>
		<defs>
			<rect id="SVGID_00000090985702716126524290000010139049784397049779_" x="-249.5" y="-370.3" width="1207.6" height="858.9"/>
		</defs>
		<clipPath id="SVGID_00000132767409504714048510000010507661089170603695_">
			<use xlink:href="#SVGID_00000090985702716126524290000010139049784397049779_"  style="overflow:visible;"/>
		</clipPath>
		<path id="path930" style="clip-path:url(#SVGID_00000132767409504714048510000010507661089170603695_);fill:#676C74;" d="
			M198.4,106.8c0.3-0.2,0.8-0.2,1,0.1c0.3,0.4,0.2,0.9,0.3,1.4c0.9,0,1.8,0,2.8,0c-0.1,0.4-0.2,0.8-0.3,1.2c-0.8,0-1.6,0-2.3,0
			c0.1,1.7,0.3,3.4,0.4,5c-0.4,0-0.8,0-1.2,0c-0.1-1.7-0.3-3.3-0.4-5c-0.2,0-0.4,0-0.7,0c-0.6,0.9-1.1,1.8-1.7,2.6
			c-0.4,0.7-0.9,1.4-1.3,2.1c-0.1,0.1-0.1,0.2-0.2,0.3c-0.4,0-0.9,0-1.3,0c1-1.7,2.1-3.4,3.1-5c-0.8,0-1.5,0-2.3,0
			c0.1-0.4,0.2-0.8,0.3-1.2c0.9,0,1.9,0,2.8,0C197.6,107.8,197.9,107.2,198.4,106.8"/>
	</g>
	<g>
		<defs>
			<rect id="SVGID_00000051366738598813709090000004675850511494904994_" x="-249.5" y="-370.3" width="1207.6" height="858.9"/>
		</defs>
		<clipPath id="SVGID_00000062900236972855447710000016116371486479761817_">
			<use xlink:href="#SVGID_00000051366738598813709090000004675850511494904994_"  style="overflow:visible;"/>
		</clipPath>
		<path id="path932" style="clip-path:url(#SVGID_00000062900236972855447710000016116371486479761817_);fill:#676C74;" d="
			M184.8,107.2c2,0,4.1,0,6.1,0c-0.1,0.4-0.2,0.8-0.3,1.2c-0.8,0-1.7,0-2.5,0c-0.3,0.8-0.4,1.7-0.6,2.5c0.7,0,1.5,0,2.2,0
			c-0.1,0.4-0.2,0.8-0.3,1.2c-0.7,0-1.5,0-2.2,0c-0.2,1-0.5,2-0.7,3c0.9,0,1.8,0,2.7,0c-0.1,0.4-0.2,0.8-0.3,1.2c-2.2,0-4.4,0-6.6,0
			c0.1-0.4,0.2-0.8,0.3-1.2c0.8,0,1.7,0,2.5,0c0.3-1,0.5-2,0.7-3c-0.7,0-1.3,0-2,0c0.1-0.4,0.2-0.8,0.3-1.2c0.7,0,1.3,0,2,0
			c0.2-0.8,0.4-1.7,0.6-2.5c-0.7,0-1.5,0-2.2,0C184.6,108,184.7,107.6,184.8,107.2"/>
	</g>
	<g>
		<defs>
			<rect id="SVGID_00000014614491010363542410000000362782326207626414_" x="-249.5" y="-370.3" width="1207.6" height="858.9"/>
		</defs>
		<clipPath id="SVGID_00000021112066756794299160000017891742419627001476_">
			<use xlink:href="#SVGID_00000014614491010363542410000000362782326207626414_"  style="overflow:visible;"/>
		</clipPath>
		<path id="path934" style="clip-path:url(#SVGID_00000021112066756794299160000017891742419627001476_);fill:#676C74;" d="
			M181,108.8c-0.5,1.9-1,3.8-1.4,5.7c-0.1,0.1,0,0.3,0.2,0.3c0.4,0,0.8,0,1.3,0c0.2,0,0.3-0.3,0.3-0.5c0.2-0.8,0.4-1.5,0.6-2.3
			c-0.4,0-0.7,0-1.1,0c0.1-0.4,0.2-0.8,0.3-1.2c0.4,0,0.7,0,1.1,0c0.2-0.7,0.4-1.5,0.5-2.2c0-0.1,0.1-0.3-0.1-0.3
			c-0.4-0.1-0.9,0-1.3,0C181.1,108.3,181,108.6,181,108.8 M180.9,107.2c0.6-0.1,1.1,0,1.7-0.1c0.4,0,0.9-0.1,1.2,0.3
			c0.2,0.3,0.2,0.6,0.1,0.9c-0.6,2.2-1.1,4.4-1.7,6.6c-0.1,0.4-0.4,0.8-0.8,1c-0.3,0.1-0.6,0.1-0.9,0.1c-0.5,0-1.1,0-1.6,0
			c-0.5-0.1-0.7-0.6-0.6-1c0.6-2.2,1.1-4.5,1.7-6.7C180.1,107.8,180.5,107.4,180.9,107.2"/>
	</g>
	<g>
		<defs>
			<rect id="SVGID_00000049933675287868808000000010491244648312592526_" x="-249.5" y="-370.3" width="1207.6" height="858.9"/>
		</defs>
		<clipPath id="SVGID_00000027573283624393815580000005775064709924697739_">
			<use xlink:href="#SVGID_00000049933675287868808000000010491244648312592526_"  style="overflow:visible;"/>
		</clipPath>
		<path id="path936" style="clip-path:url(#SVGID_00000027573283624393815580000005775064709924697739_);fill:#676C74;" d="
			M168.9,107.6c0.4-0.3,0.9-0.3,1.4-0.3c0.9,0,1.7,0,2.6,0c-0.1,0.4-0.2,0.8-0.3,1.2c-0.9,0-1.7,0-2.6,0c-0.2,0-0.4,0.1-0.5,0.3
			c-0.1,0.3-0.2,0.6-0.2,0.9c0.5,0,1.1,0,1.6,0c0.4,0,0.8,0.1,1,0.5c0.2,0.4,0.1,0.9,0,1.3c-0.4,1.7-0.8,3.3-1.3,5
			c-0.4,0-0.8,0-1.2,0c0.4-1.7,0.8-3.3,1.3-5c0-0.1,0.1-0.3,0.1-0.4c-0.1-0.1-0.3-0.1-0.4-0.1c-0.4,0-0.9,0-1.3,0
			c-0.5,1.9-0.9,3.7-1.4,5.6c-0.4,0-0.8,0-1.2,0c0.6-2.5,1.3-5,1.9-7.5C168.3,108.5,168.5,108,168.9,107.6"/>
	</g>
	<g>
		<defs>
			<rect id="SVGID_00000152964393926172252670000012187630919621286831_" x="-249.5" y="-370.3" width="1207.6" height="858.9"/>
		</defs>
		<clipPath id="SVGID_00000042016808231250253890000003459850849795936132_">
			<use xlink:href="#SVGID_00000152964393926172252670000012187630919621286831_"  style="overflow:visible;"/>
		</clipPath>
		<path id="path938" style="clip-path:url(#SVGID_00000042016808231250253890000003459850849795936132_);fill:#676C74;" d="
			M191.8,109.1c0.4,0,0.9,0,1.3,0c0.3,0,0.5,0.3,0.5,0.5c0,0.4-0.1,0.7-0.2,1.1c-0.3,1.3-0.7,2.6-1,3.9c-0.1,0.2-0.1,0.4,0.1,0.5
			c0.1,0,0.3,0,0.4,0c2.9,0,5.8,0,8.6,0c-0.1,0.4-0.2,0.8-0.3,1.2c-2.6,0-5.1,0-7.7,0c-0.5,0-1.1,0-1.6-0.1
			c-0.4-0.1-0.7-0.3-0.8-0.7c-0.1-0.4,0-0.8,0.1-1.3c0.3-1.4,0.7-2.7,1-4.1c-0.2,0-0.5-0.1-0.7-0.1
			C191.6,109.9,191.7,109.5,191.8,109.1"/>
	</g>
	<g>
		<defs>
			<rect id="SVGID_00000152977151646418214630000014213523512878815885_" x="-249.5" y="-370.3" width="1207.6" height="858.9"/>
		</defs>
		<clipPath id="SVGID_00000065754501722694240700000006697359229667907774_">
			<use xlink:href="#SVGID_00000152977151646418214630000014213523512878815885_"  style="overflow:visible;"/>
		</clipPath>
		<path id="path940" style="clip-path:url(#SVGID_00000065754501722694240700000006697359229667907774_);fill:#676C74;" d="
			M175.3,109.7c0.3-0.2,0.7-0.1,0.9,0.1c0.2,0.2,0.3,0.5,0.3,0.8c0.2,1.9,0.4,3.9,0.6,5.8c-0.4,0-0.8,0-1.3,0
			c-0.2-1.6-0.3-3.2-0.5-4.8c-1,1.6-2,3.2-3,4.9c-0.5,0-0.9,0-1.4,0c1.2-2,2.4-4,3.6-6C174.8,110.1,175,109.9,175.3,109.7"/>
	</g>
</g>
</svg>
