<?xml version="1.0" encoding="UTF-8" standalone="no"?>
<!-- Created with Inkscape (http://www.inkscape.org/) -->

<svg
   version="1.1"
   id="svg1"
   width="131.52695"
   height="27.591311"
   viewBox="0 0 131.52695 27.591309"
   xmlns="http://www.w3.org/2000/svg"
   xmlns:svg="http://www.w3.org/2000/svg">
  <defs
     id="defs1">
    <clipPath
       clipPathUnits="userSpaceOnUse"
       id="clipPath857">
      <path
         d="M 0,858.898 H 1207.558 V 0 H 0 Z"
         transform="translate(-69.229602,-448.77511)"
         id="path857" />
    </clipPath>
    <clipPath
       clipPathUnits="userSpaceOnUse"
       id="clipPath859">
      <path
         d="M 0,858.898 H 1207.558 V 0 H 0 Z"
         transform="translate(-127.2797,-440.25401)"
         id="path859" />
    </clipPath>
  </defs>
  <g
     id="layer-MC4"
     transform="translate(-75.783429,-531.71402)">
    <path
       id="path856"
       d="m 0,0 c -0.65,-0.486 -0.933,-1.206 -0.633,-1.607 0.3,-0.402 1.072,-0.334 1.721,0.153 0.65,0.486 0.932,1.206 0.632,1.606 C 1.42,0.554 0.649,0.486 0,0 m -0.829,-10.168 c -0.971,0.126 -1.882,-0.716 -2.034,-1.884 -0.152,-1.168 0.512,-2.216 1.484,-2.343 0.971,-0.126 1.882,0.717 2.034,1.885 0.152,1.167 -0.512,2.215 -1.484,2.342 m -0.544,3.301 c 0.471,0.865 0.355,1.836 -0.26,2.171 -0.615,0.334 -1.494,-0.094 -1.966,-0.958 -0.471,-0.864 -0.354,-1.835 0.26,-2.171 0.615,-0.334 1.495,0.095 1.966,0.958 m 13.955,4.985 c 1.067,-0.44 2.193,-0.161 2.518,0.624 0.324,0.783 -0.278,1.777 -1.345,2.217 C 12.688,1.4 11.562,1.12 11.237,0.335 10.913,-0.448 11.515,-1.441 12.582,-1.882 M 4.797,-13.124 c -1.22,0 -2.211,-1.06 -2.211,-2.368 0,-1.308 0.991,-2.368 2.211,-2.368 1.221,0 2.211,1.06 2.211,2.368 0,1.308 -0.99,2.368 -2.211,2.368 M 6.478,2.813 C 5.551,2.697 4.859,2.126 4.933,1.539 5.007,0.952 5.819,0.57 6.745,0.686 7.672,0.803 8.364,1.373 8.29,1.96 8.216,2.547 7.404,2.928 6.478,2.813 m 10.7,-8.06 c -0.715,1.042 -2.045,1.37 -2.972,0.734 -0.927,-0.635 -1.097,-1.996 -0.383,-3.037 0.715,-1.042 2.046,-1.37 2.972,-0.735 0.927,0.636 1.097,1.997 0.383,3.038 m -4.938,-5.281 c -1.324,0 -2.397,-1.073 -2.397,-2.398 0,-1.324 1.073,-2.397 2.397,-2.397 1.324,0 2.397,1.074 2.397,2.397 0,1.323 -1.073,2.398 -2.397,2.398"
       style="fill:#201f20;fill-opacity:1;fill-rule:nonzero;stroke:none"
       transform="matrix(1.3333333,0,0,-1.3333333,80.967547,535.49195)"
       clip-path="url(#clipPath857)" />
    <path
       id="path858"
       d="m 0,0 v -2.588 c 0,-0.528 -0.432,-0.958 -0.962,-0.958 h -4.645 v -1.518 c 0,-0.732 -0.598,-1.327 -1.333,-1.327 h -2.177 l 0.002,1.437 h 1.169 v 1.408 h -4.649 c -0.532,0 -0.964,0.43 -0.964,0.96 V 0 Z m -10.052,-4.255 -1.398,-2.136 h -2.569 l 1.398,2.136 z m 9.128,0 1.399,-2.136 h -2.57 l -1.397,2.136 z m -1.174,2.837 h -9.353 l -0.003,-0.708 h 9.353 z m -9.35,5.447 h 9.342 v 0.705 h -9.342 z m 0,1.894 h 9.342 v 0.705 h -9.342 z m 5.841,-3.08 h 4.64 c 0.532,0 0.963,0.429 0.963,0.958 V 7.813 H -13.558 V 3.801 c 0,-0.53 0.431,-0.958 0.962,-0.958 h 4.649 V 2.147 h -6.072 V 0.711 H 0.473 v 1.436 h -6.08 z m -26.29,3.068 h 3.032 v 1.902 h -3.032 z m 3.038,-2.122 v -5.54 c 0,-1.378 1.001,-2.754 2.464,-2.754 h 8.753 v -1.886 h -9.272 c -1.199,0 -2.277,0.527 -3.021,1.364 -0.268,-0.296 -1.038,-1.048 -2.201,-1.364 v 2.126 l 0.006,0.002 c 0.074,0.024 0.778,0.262 1.278,0.973 -0.082,0.323 -0.125,0.664 -0.125,1.013 v 4.174 h -1.159 V 3.789 Z M -17.642,3.788 V 1.891 h -1.879 v -3.544 h 1.879 v -1.892 h -2.668 c -0.724,0 -1.312,0.594 -1.312,1.326 v 4.11 l -1.869,0.008 c -0.019,-2.363 -1.178,-4.269 -3.026,-5.44 l -1.416,1.415 c 1.494,1.072 2.328,2.342 2.339,4.01 l -1.871,0.007 v 1.897 z m -9.357,1.891 h 8.885 v 1.89 h -8.885 z m 58.91,2.366 V 3.904 c 0,-0.587 0.471,-1.063 1.05,-1.063 h 3.746 V 1.165 h -4.182 c -1.434,0 -2.598,1.178 -2.598,2.63 v 4.25 z m 4.541,-0.663 -1.94,-3.366 h -2.354 l 1.941,3.366 z m -9.682,0 0.229,-2.112 h -2.526 l 0.702,2.776 h -2.22 L 22.253,5.27 h 0.001 C 22.068,4.543 22.609,3.833 23.351,3.833 h 5.904 l -0.386,3.549 z m -2.294,-9.513 h 2.774 v 1.221 h -2.774 z m 0,2.74 H 27.25 V 1.83 H 24.476 Z M 22.463,3.35 v -9.741 h 2.013 v 2.74 H 27.25 V -4.87 h -1.77 v -1.52 l 2.458,-0.001 c 0.727,0 1.317,0.597 1.317,1.333 V 3.35 Z m 9.449,-2.427 v -4.575 c 0,-0.586 0.469,-1.063 1.049,-1.063 h 3.746 V -6.39 h -4.181 c -1.435,0 -2.598,1.177 -2.598,2.63 v 4.683 z m 4.54,-1.054 -1.94,-3.366 h -2.354 l 1.941,3.366 z M 14.107,1.857 h 2.271 V 6.149 H 14.107 Z M 12.129,7.565 V 1.417 c 0,-0.54 0.433,-0.978 0.967,-0.978 h 4.293 c 0.534,0 0.967,0.438 0.967,0.978 V 7.565 Z M 10.723,2.843 11.896,0.439 H 9.821 L 8.649,2.843 Z M 6.486,7.799 6.444,7.565 h 5.01 V 6.148 H 8.928 L 8.926,4.875 C 8.926,4.827 8.923,4.779 8.921,4.731 h 2.734 V 3.314 H 8.545 C 8.482,3.191 8.412,3.07 8.333,2.953 L 6.62,0.439 H 4.341 l 1.96,2.875 H 4.1 V 4.731 H 7.043 C 7.048,4.779 7.051,4.829 7.051,4.879 L 7.053,6.148 H 6.187 L 6.018,5.215 H 4.098 L 4.564,7.799 Z M 6.879,-4.923 h 8.947 v 0.969 H 6.879 Z m 0,2.455 h 8.947 V -1.5 H 6.879 Z M 4.805,-0.01 v -5.032 c 0,-0.742 0.595,-1.345 1.329,-1.345 h 10.437 c 0.734,0 1.329,0.603 1.329,1.345 v 5.032 z"
       style="fill:#201f20;fill-opacity:1;fill-rule:evenodd;stroke:none"
       transform="matrix(1.3333333,0,0,-1.3333333,158.36768,546.85341)"
       clip-path="url(#clipPath859)" />
  </g>
</svg>
