<?xml version="1.0" encoding="UTF-8" standalone="no"?>
<!-- Created with Inkscape (http://www.inkscape.org/) -->

<svg
   width="37.117725mm"
   height="7.6002507mm"
   viewBox="0 0 37.117725 7.6002507"
   version="1.1"
   id="svg1"
   xmlns="http://www.w3.org/2000/svg"
   xmlns:svg="http://www.w3.org/2000/svg">
  <defs
     id="defs1">
    <clipPath
       clipPathUnits="userSpaceOnUse"
       id="clipPath617">
      <path
         d="M 0,858.898 H 1207.558 V 0 H 0 Z"
         transform="translate(2.5000001e-7,-3.5000001e-5)"
         id="path617" />
    </clipPath>
    <clipPath
       clipPathUnits="userSpaceOnUse"
       id="clipPath619">
      <path
         d="M 0,858.898 H 1207.558 V 0 H 0 Z"
         transform="translate(-111.4523,-584.02191)"
         id="path619" />
    </clipPath>
    <clipPath
       clipPathUnits="userSpaceOnUse"
       id="clipPath621">
      <path
         d="M 0,858.898 H 1207.558 V 0 H 0 Z"
         transform="translate(-150.6461,-584.02191)"
         id="path621" />
    </clipPath>
    <clipPath
       clipPathUnits="userSpaceOnUse"
       id="clipPath623">
      <path
         d="M 0,858.898 H 1207.558 V 0 H 0 Z"
         transform="translate(-170.6936,-581.32602)"
         id="path623" />
    </clipPath>
    <clipPath
       clipPathUnits="userSpaceOnUse"
       id="clipPath625">
      <path
         d="M 0,858.898 H 1207.558 V 0 H 0 Z"
         transform="translate(-166.46771,-581.32602)"
         id="path625" />
    </clipPath>
    <clipPath
       clipPathUnits="userSpaceOnUse"
       id="clipPath627">
      <path
         d="M 0,858.898 H 1207.558 V 0 H 0 Z"
         transform="translate(-166.769,-588.79512)"
         id="path627" />
    </clipPath>
    <clipPath
       clipPathUnits="userSpaceOnUse"
       id="clipPath629">
      <path
         d="M 0,858.898 H 1207.558 V 0 H 0 Z"
         transform="translate(-155.753,-588.03481)"
         id="path629" />
    </clipPath>
    <clipPath
       clipPathUnits="userSpaceOnUse"
       id="clipPath631">
      <path
         d="M 0,858.898 H 1207.558 V 0 H 0 Z"
         transform="translate(-163.56401,-588.01531)"
         id="path631" />
    </clipPath>
    <clipPath
       clipPathUnits="userSpaceOnUse"
       id="clipPath633">
      <path
         d="M 0,858.898 H 1207.558 V 0 H 0 Z"
         transform="translate(-162.4964,-582.33231)"
         id="path633" />
    </clipPath>
    <clipPath
       clipPathUnits="userSpaceOnUse"
       id="clipPath635">
      <path
         d="M 0,858.898 H 1207.558 V 0 H 0 Z"
         transform="translate(-120.126,-590.38452)"
         id="path635" />
    </clipPath>
    <clipPath
       clipPathUnits="userSpaceOnUse"
       id="clipPath637">
      <path
         d="M 0,858.898 H 1207.558 V 0 H 0 Z"
         transform="translate(-131.18,-582.71562)"
         id="path637" />
    </clipPath>
  </defs>
  <g
     id="layer1"
     transform="translate(-91.281247,-60.325005)">
    <path
       id="path616"
       d="m 74.435,579.309 h 0.863 v -2.271 h -0.863 z m 0,0.876 h 0.863 v -0.601 h -0.863 z m 15.875,-0.067 h 0.864 v -3.08 H 90.31 Z m -1.376,-2.059 c -0.09,-0.058 -0.242,-0.098 -0.335,-0.102 -0.128,-0.006 -0.239,-0.053 -0.306,-0.137 -0.037,-0.047 -0.069,-0.184 0.059,-0.26 0.116,-0.07 0.326,-0.033 0.446,0.044 0.12,0.077 0.136,0.226 0.136,0.243 z m -0.595,0.54 h -0.838 c 0,0.095 0.017,0.194 0.081,0.315 0.083,0.158 0.235,0.262 0.503,0.359 0.202,0.072 0.587,0.065 0.817,0.053 0.155,-0.009 0.354,-0.026 0.521,-0.124 0.117,-0.068 0.227,-0.166 0.282,-0.249 0.059,-0.091 0.063,-0.254 0.063,-0.291 v -1.295 c 0,-0.05 0.041,-0.149 0.069,-0.188 0.017,-0.024 0.039,-0.045 0.05,-0.054 v -0.089 H 89.01 c -0.028,0.07 -0.034,0.127 -0.035,0.218 0,0.06 0,0.104 0,0.104 0,0 -0.131,-0.172 -0.407,-0.271 -0.265,-0.096 -0.551,-0.073 -0.664,-0.042 -0.102,0.028 -0.452,0.102 -0.515,0.521 -0.063,0.418 0.139,0.579 0.338,0.707 0.182,0.117 0.468,0.12 0.639,0.132 0.172,0.011 0.498,0.027 0.562,0.15 0.058,0.11 -0.01,0.209 -0.132,0.243 -0.124,0.035 -0.261,0.016 -0.369,-0.037 -0.093,-0.047 -0.086,-0.135 -0.088,-0.162 m -2.495,0.15 c -0.27,0.002 -0.371,-0.258 -0.371,-0.577 0,-0.318 0.121,-0.577 0.371,-0.577 0.249,0 0.37,0.259 0.37,0.577 0,0.319 -0.1,0.575 -0.37,0.577 m -0.009,0.567 c 0.855,0 1.235,-0.542 1.235,-1.148 0,-0.607 -0.427,-1.149 -1.235,-1.149 -0.809,0 -1.235,0.579 -1.235,1.149 0,0.569 0.379,1.148 1.235,1.148 m -2.491,-0.387 h 0.922 c 0.004,0.214 -0.118,0.654 -0.462,0.914 -0.34,0.258 -0.788,0.297 -1.163,0.279 -0.463,-0.022 -0.848,-0.225 -1.093,-0.583 -0.245,-0.358 -0.422,-1.205 -0.034,-1.883 0.259,-0.451 0.763,-0.639 1.291,-0.643 0.254,-0.001 0.649,0.049 0.958,0.287 0.309,0.239 0.533,0.664 0.529,0.96 h -0.948 c 0,-0.032 0.015,-0.51 -0.59,-0.498 -0.327,0.007 -0.43,0.295 -0.471,0.418 -0.051,0.157 -0.076,0.565 0.007,0.789 0.068,0.181 0.203,0.435 0.526,0.439 0.348,0.004 0.499,-0.233 0.528,-0.479 m -3.27,-0.87 c -0.09,-0.058 -0.242,-0.098 -0.336,-0.102 -0.127,-0.006 -0.238,-0.053 -0.305,-0.137 -0.037,-0.047 -0.069,-0.184 0.058,-0.26 0.117,-0.07 0.327,-0.033 0.446,0.044 0.12,0.077 0.137,0.226 0.137,0.243 z m -0.595,0.54 h -0.838 c 0,0.095 0.016,0.194 0.08,0.315 0.084,0.158 0.236,0.262 0.504,0.359 0.202,0.072 0.587,0.065 0.817,0.053 0.155,-0.009 0.354,-0.026 0.521,-0.124 0.117,-0.068 0.227,-0.166 0.281,-0.249 0.059,-0.091 0.064,-0.254 0.064,-0.291 v -1.295 c 0,-0.05 0.04,-0.149 0.069,-0.188 0.017,-0.024 0.038,-0.045 0.05,-0.054 v -0.089 h -0.878 c -0.027,0.07 -0.034,0.127 -0.034,0.218 -10e-4,0.06 0,0.104 0,0.104 0,0 -0.131,-0.172 -0.407,-0.271 -0.266,-0.096 -0.551,-0.073 -0.664,-0.042 -0.102,0.028 -0.452,0.102 -0.515,0.521 -0.063,0.418 0.139,0.579 0.338,0.707 0.181,0.117 0.467,0.12 0.639,0.132 0.171,0.011 0.498,0.027 0.561,0.15 0.059,0.11 -0.009,0.209 -0.131,0.243 -0.124,0.035 -0.261,0.016 -0.369,-0.037 -0.093,-0.047 -0.086,-0.135 -0.088,-0.162 m -2.915,0.266 c 0,0.036 0.058,0.16 0.286,0.33 0.134,0.1 0.362,0.127 0.49,0.121 0.296,-0.013 0.483,-0.091 0.661,-0.301 0.165,-0.195 0.151,-0.465 0.151,-0.465 v -1.513 h -0.867 v 1.292 c -10e-4,0.04 -0.009,0.178 -0.127,0.26 -0.104,0.073 -0.25,0.063 -0.321,0.024 -0.071,-0.039 -0.186,-0.152 -0.186,-0.254 v -1.322 h -0.864 v 2.278 h 0.777 z m -4.102,-0.493 c 0,0.102 0.108,0.205 0.179,0.244 0.071,0.039 0.21,0.052 0.33,-0.023 0.122,-0.076 0.126,-0.23 0.127,-0.27 v -1.274 h 0.868 v 1.513 c 0,0 0.008,0.26 -0.158,0.456 -0.178,0.209 -0.359,0.291 -0.654,0.304 -0.129,0.006 -0.297,-0.019 -0.394,-0.072 -0.162,-0.089 -0.298,-0.223 -0.298,-0.28 v 1.137 h -0.867 v -3.058 h 0.867 z m -2.166,0.557 h 0.921 c 0.005,0.214 -0.117,0.654 -0.461,0.914 -0.34,0.258 -0.788,0.297 -1.163,0.279 -0.463,-0.022 -0.848,-0.225 -1.093,-0.583 -0.246,-0.358 -0.422,-1.205 -0.034,-1.883 0.259,-0.451 0.763,-0.639 1.291,-0.643 0.254,-0.001 0.649,0.049 0.958,0.287 0.309,0.239 0.533,0.664 0.529,0.96 h -0.948 c 0,-0.032 0.015,-0.51 -0.59,-0.498 -0.327,0.007 -0.43,0.295 -0.471,0.418 -0.051,0.157 -0.076,0.565 0.007,0.789 0.068,0.181 0.203,0.435 0.526,0.439 0.348,0.004 0.499,-0.233 0.528,-0.479 m 6.495,13.969 c -1.573,0 -2.925,-1.247 -2.925,-2.847 0,-1.487 1.169,-2.707 2.661,-2.837 z m 0.112,-11.315 c -0.267,0 -0.483,0.216 -0.483,0.483 l 0.097,2.308 H 73.91 l -0.09,-10e-4 c -3.132,-0.024 -5.672,2.533 -5.672,5.657 0,3.124 2.54,5.658 5.66,5.658 h 3.173 l 0.081,2.433 c 0,0.24 0.195,0.436 0.436,0.436 h 4.384 c 0.24,0 0.435,-0.196 0.435,-0.436 l 0.082,-2.433 h 3.173 c 2.885,0 5.275,-2.168 5.617,-4.967 h -5.807 c -0.315,1.254 -1.479,2.17 -2.82,2.159 l 0.075,-2.175 h -1.695 v 2.167 H 78.45 v -5.668 h 2.492 v 2.18 h 1.74 l 0.074,-2.176 c 1.286,0.073 2.346,0.98 2.633,2.18 h 5.806 c -0.32,-2.825 -2.722,-5.038 -5.636,-5.015 l -0.09,10e-4 h -2.607 l 0.075,-2.308 c 0,-0.267 -0.233,-0.483 -0.461,-0.483 z"
       style="fill:#0b8ed8;fill-opacity:1;fill-rule:evenodd;stroke:none"
       transform="matrix(0.35277776,0,0,-0.35277776,67.240151,271.4826)"
       clip-path="url(#clipPath617)" />
    <path
       id="path618"
       d="M 0,0 C 0,-0.163 -0.117,-0.295 -0.258,-0.295 H -4.813 V 8.147 H 0 Z m -7.237,-0.295 h -4.767 v 8.442 h 0.377 4.39 z m 2.424,10.463 v 1.145 h -2.424 v -1.145 h -3.281 L -11.852,8.62 h -0.153 v 1.548 h -2.536 V -2.316 h 7.304 v -1.268 h 2.424 v 1.268 h 6.001 c 0.741,0 1.348,0.618 1.348,1.373 v 11.111 z"
       style="fill:#0b8ed8;fill-opacity:1;fill-rule:evenodd;stroke:none"
       transform="matrix(0.35277776,0,0,-0.35277776,106.55805,65.452666)"
       clip-path="url(#clipPath619)" />
    <path
       id="path620"
       d="M 0,0 C 0,-0.163 -0.117,-0.295 -0.259,-0.295 H -4.814 V 8.147 H 0 Z m -7.237,-0.295 h -4.768 v 8.442 h 0.378 4.39 z m 2.423,10.463 v 1.145 h -2.423 v -1.145 h -3.281 L -11.852,8.62 h -0.153 v 1.548 h -2.536 V -2.316 h 7.304 v -1.268 h 2.423 v 1.268 h 6.001 c 0.742,0 1.349,0.618 1.349,1.373 v 11.111 z"
       style="fill:#0b8ed8;fill-opacity:1;fill-rule:evenodd;stroke:none"
       transform="matrix(0.35277776,0,0,-0.35277776,120.38475,65.452666)"
       clip-path="url(#clipPath621)" />
    <path
       id="path622"
       d="M 0,0 -0.663,2.738 H 1.651 L 2.141,1.062 C 2.221,0.788 2.238,0.657 2.502,0.657 H 2.67 V -1.009 H 1.339 C 1.068,-1.009 0.249,-1.027 0,0"
       style="fill:#0b8ed8;fill-opacity:1;fill-rule:evenodd;stroke:none"
       transform="matrix(0.35277776,0,0,-0.35277776,127.45706,66.403719)"
       clip-path="url(#clipPath623)" />
    <path
       id="path624"
       d="M 0,0 0.697,2.738 H -1.615 L -1.964,1.37 C -2.087,0.884 -2.194,0.657 -2.626,0.657 h -0.328 v -1.666 h 1.614 c 0.272,0 1.079,-0.014 1.34,1.009"
       style="fill:#0b8ed8;fill-opacity:1;fill-rule:evenodd;stroke:none"
       transform="matrix(0.35277776,0,0,-0.35277776,125.96626,66.403719)"
       clip-path="url(#clipPath625)" />
    <path
       id="path626"
       d="M 0,0 V 1.219 H 3.643 V 0.421 C 3.643,0.047 3.321,0 3.145,0 Z M 0,4.057 H 3.643 V 2.903 H 1.272 L 0.228,1.567 0,1.565 Z m 2.865,-6.421 v 0.72 h 1.588 c 0.358,0 1.515,0.307 1.515,1.59 V 4.057 H 6.417 V 5.723 H 5.968 V 6.424 H 3.643 V 5.723 H 0 V 6.348 H -2.325 V 5.723 H -2.79 V 4.057 h 0.465 V -1.644 H 0 0.594 v -0.72 H -3.029 V -3.975 H 0.594 V -8.56 h 2.271 v 4.585 h 3.623 v 1.611 z"
       style="fill:#0b8ed8;fill-opacity:1;fill-rule:evenodd;stroke:none"
       transform="matrix(0.35277776,0,0,-0.35277776,126.07255,63.768787)"
       clip-path="url(#clipPath627)" />
    <path
       id="path628"
       d="M 0,0 C 0,-0.617 0.491,-1.123 1.092,-1.123 H 2.184 V 0.323 C 1.96,0.323 1.847,0.434 1.848,0.664 V 6.506 H 0 Z"
       style="fill:#0b8ed8;fill-opacity:1;fill-rule:evenodd;stroke:none"
       transform="matrix(0.35277776,0,0,-0.35277776,122.18635,64.037005)"
       clip-path="url(#clipPath629)" />
    <path
       id="path630"
       d="m 0,0 c 0,-0.617 -0.492,-1.123 -1.093,-1.123 h -1.092 v 1.528 c 0.224,0 0.337,0.111 0.336,0.342 v 5.76 H 0 Z"
       style="fill:#0b8ed8;fill-opacity:1;fill-rule:evenodd;stroke:none"
       transform="matrix(0.35277776,0,0,-0.35277776,124.9419,64.043885)"
       clip-path="url(#clipPath631)" />
    <path
       id="path632"
       d="M 0,0 C 0.14,-0.334 0.306,-0.447 0.418,-0.447 H 0.685 V -2.036 H -1.04 c -0.579,0 -0.862,0.925 -0.862,0.925 l -0.962,2.89 -1.329,-2.918 c 0,0 -0.341,-0.935 -1.099,-0.935 h -1.516 v 1.676 h 0.363 c 0,0 0.31,-0.013 0.514,0.502 l 2.039,5.143 v 7.557 h 2.235 V 5.237 Z"
       style="fill:#0b8ed8;fill-opacity:1;fill-rule:evenodd;stroke:none"
       transform="matrix(0.35277776,0,0,-0.35277776,124.56527,66.04872)"
       clip-path="url(#clipPath633)" />
    <path
       id="path634"
       d="M 0,0 V 1.857 H 10.123 V 0 H 6.027 v -1.473 h 4.019 V -3.268 H 6.027 v -2.177 h 1.391 c 0.256,-0.004 0.309,0.085 0.309,0.384 V -4.1 h 2.319 v -1.922 c 0.039,-0.919 -0.502,-1.28 -1.468,-1.28 H 0 v 1.857 h 3.4 v 2.177 H 0 v 1.795 H 3.4 V 0 Z"
       style="fill:#0b8ed8;fill-opacity:1;fill-rule:nonzero;stroke:none"
       transform="matrix(0.35277776,0,0,-0.35277776,109.61793,63.208082)"
       clip-path="url(#clipPath635)" />
    <path
       id="path636"
       d="M 0,0 C 0,-0.337 -0.272,-0.612 -0.603,-0.612 H -11.961 V 10.495 H 0 Z m -10.721,12.355 -1.239,-1.477 -10e-4,1.477 h -2.55 V -2.369 h 15.25 c 0.994,0 1.808,0.828 1.808,1.842 v 12.882 z"
       style="fill:#0b8ed8;fill-opacity:1;fill-rule:evenodd;stroke:none"
       transform="matrix(0.35277776,0,0,-0.35277776,113.51754,65.913499)"
       clip-path="url(#clipPath637)" />
  </g>
</svg>
