<?xml version="1.0" encoding="UTF-8" standalone="no"?>
<!-- Created with Inkscape (http://www.inkscape.org/) -->

<svg
   width="13.802775mm"
   height="13.80242mm"
   viewBox="0 0 13.802775 13.80242"
   version="1.1"
   id="svg1"
   xmlns="http://www.w3.org/2000/svg"
   xmlns:svg="http://www.w3.org/2000/svg">
  <defs
     id="defs1">
    <clipPath
       clipPathUnits="userSpaceOnUse"
       id="clipPath2894">
      <path
         d="M 0,858.898 H 1207.558 V 0 H 0 Z"
         transform="translate(-403.99741,-199.3179)"
         id="path2894" />
    </clipPath>
    <clipPath
       clipPathUnits="userSpaceOnUse"
       id="clipPath2896">
      <path
         d="M 0,858.898 H 1207.558 V 0 H 0 Z"
         transform="translate(-395.24031,-192.14831)"
         id="path2896" />
    </clipPath>
    <clipPath
       clipPathUnits="userSpaceOnUse"
       id="clipPath2898">
      <path
         d="M 0,858.898 H 1207.558 V 0 H 0 Z"
         transform="translate(-408.74301,-207.7335)"
         id="path2898" />
    </clipPath>
    <clipPath
       clipPathUnits="userSpaceOnUse"
       id="clipPath2900">
      <path
         d="M 0,858.898 H 1207.558 V 0 H 0 Z"
         transform="translate(-396.65721,-206.28251)"
         id="path2900" />
    </clipPath>
    <clipPath
       clipPathUnits="userSpaceOnUse"
       id="clipPath2902">
      <path
         d="M 0,858.898 H 1207.558 V 0 H 0 Z"
         transform="translate(-404.59481,-211.23291)"
         id="path2902" />
    </clipPath>
    <clipPath
       clipPathUnits="userSpaceOnUse"
       id="clipPath2904">
      <path
         d="M 0,858.898 H 1207.558 V 0 H 0 Z"
         transform="translate(-396.94741,-210.27701)"
         id="path2904" />
    </clipPath>
    <clipPath
       clipPathUnits="userSpaceOnUse"
       id="clipPath2906">
      <path
         d="M 0,858.898 H 1207.558 V 0 H 0 Z"
         transform="translate(-397.44241,-213.04241)"
         id="path2906" />
    </clipPath>
    <clipPath
       clipPathUnits="userSpaceOnUse"
       id="clipPath2908">
      <path
         d="M 0,858.898 H 1207.558 V 0 H 0 Z"
         transform="translate(-403.96331,-207.2385)"
         id="path2908" />
    </clipPath>
  </defs>
  <g
     id="layer1"
     transform="translate(-125.88375,-152.36743)">
    <path
       id="path2893"
       d="m 0,0 -0.171,-0.085 -0.17,-0.12 -0.154,-0.119 -0.154,-0.069 v -0.034 l -0.068,0.034 -0.051,0.291 -0.051,0.341 -0.035,0.188 -0.068,0.17 L -0.99,0.734 -1.092,0.871 -1.161,0.922 -1.246,0.956 -1.331,0.99 -1.4,1.024 -1.605,0.922 v -0.12 l 0.017,-0.051 0.035,-0.068 0.119,-0.137 0.12,-0.153 0.051,-0.086 0.034,-0.085 0.085,-0.256 0.052,-0.256 0.068,-0.239 0.034,-0.137 0.068,-0.119 -0.153,-0.205 -0.171,-0.205 -0.324,-0.375 0.034,-0.086 0.051,-0.051 0.119,-0.085 0.137,0.051 0.137,0.085 0.119,0.086 0.119,0.119 0.154,-0.239 -0.051,-0.034 0.034,-0.273 v -0.239 l -0.017,-0.222 -0.034,-0.205 -0.068,-0.205 -0.069,-0.205 -0.17,-0.443 -0.035,-0.018 0.069,-0.034 h 0.068 0.102 l 0.086,0.052 0.068,0.051 0.051,0.085 0.051,0.068 0.035,0.086 0.034,0.136 0.102,0.325 0.051,0.153 0.052,0.154 0.017,0.171 0.017,0.17 -0.034,0.188 -0.052,0.205 0.069,0.051 0.119,-0.034 0.137,-0.068 0.273,-0.171 0.29,-0.188 0.29,-0.171 L 0.956,-2.39 1.11,-2.458 1.263,-2.509 1.417,-2.526 H 1.57 l 0.154,0.034 0.154,0.068 0.153,0.102 0.052,0.069 0.034,0.051 0.051,0.136 0.051,0.069 0.034,0.068 0.069,0.068 0.085,0.052 L 2.373,-1.724 1.912,-1.741 1.485,-1.775 1.058,-1.792 H 0.836 0.615 l -0.137,0.034 -0.102,0.034 -0.222,0.119 -0.103,0.035 -0.119,0.034 h -0.137 l -0.153,-0.052 -0.035,0.069 -0.017,0.068 -0.034,0.137 -0.017,0.136 -0.017,0.103 0.017,0.085 0.017,0.085 0.051,0.069 0.035,0.051 0.119,0.102 0.102,0.103 0.12,0.085 0.034,0.051 0.034,0.068 0.034,0.069 v 0.085 l 0.017,0.051 -0.017,0.069 z m -5.087,-2.492 -0.085,-0.103 -0.086,-0.085 -0.187,-0.154 -0.086,-0.085 -0.068,-0.085 -0.051,-0.103 -0.034,-0.119 0.034,-0.069 0.017,-0.051 0.085,-0.068 h 0.12 l 0.119,0.017 0.085,0.034 0.086,0.068 0.136,0.137 0.069,0.051 0.085,0.051 0.034,-0.034 v -0.102 l -0.017,-0.103 -0.085,-0.153 -0.086,-0.205 -0.085,-0.171 -0.068,-0.068 -0.069,-0.068 -0.102,-0.069 -0.119,-0.068 -0.12,-0.051 -0.119,-0.034 -0.103,-0.051 -0.102,-0.069 -0.188,-0.222 -0.171,-0.239 0.034,-0.119 0.052,-0.085 0.051,-0.052 0.068,-0.068 0.12,0.017 0.102,0.034 0.085,0.051 0.086,0.052 0.188,0.136 0.187,0.12 0.086,0.017 0.085,0.034 0.171,0.102 0.324,0.154 0.393,0.154 0.187,0.068 0.205,0.051 0.205,0.051 0.188,0.017 0.068,0.137 0.068,0.137 0.018,0.068 v 0.068 0.085 l -0.018,0.086 -0.221,0.017 h -0.205 l -0.239,-0.051 -0.308,-0.086 -0.204,-0.085 -0.103,-0.034 -0.119,-0.017 -0.034,0.017 -0.018,0.034 0.086,0.068 0.085,0.086 0.068,0.102 0.052,0.102 0.102,0.239 0.068,0.222 -0.051,0.154 -0.068,0.102 -0.068,0.086 -0.086,0.051 -0.119,0.017 h -0.12 l -0.136,-0.034 z m -6.418,-1.741 v 0 l 0.085,0.068 0.085,0.102 0.069,0.103 0.051,0.119 -0.051,0.017 -0.069,0.017 -0.102,-0.085 -0.103,-0.085 -0.051,-0.052 -0.017,-0.068 v -0.068 l 0.034,-0.086 z m 1.212,0.221 V -4.08 l -0.188,-0.392 -0.256,-0.53 -0.154,-0.256 -0.136,-0.222 -0.086,-0.085 -0.068,-0.068 -0.068,-0.051 -0.086,-0.017 -0.085,0.068 0.017,0.188 0.017,0.187 0.034,0.171 0.051,0.154 0.086,0.307 0.034,0.154 v 0.17 l -0.017,0.034 -0.137,-0.153 -0.222,-0.051 -0.102,0.017 h -0.051 l -0.051,0.034 -0.035,0.017 -0.017,0.034 -0.034,0.102 v 0.103 l 0.017,0.119 0.034,0.12 0.035,0.102 0.034,0.069 0.034,0.051 0.068,0.034 0.068,0.034 0.154,0.017 0.154,0.034 h 0.068 l 0.068,0.034 0.171,0.734 -0.154,-0.017 -0.119,-0.034 -0.12,-0.034 h -0.085 l -0.085,0.017 -0.086,0.103 v 0.17 l 0.086,0.086 0.102,0.085 0.12,0.051 0.136,0.051 0.273,0.103 0.137,0.051 0.119,0.051 h 0.103 0.034 l 0.034,-0.034 0.051,-0.051 v -0.12 l -0.034,-0.102 -0.051,-0.085 -0.068,-0.086 -0.12,-0.153 -0.068,-0.103 -0.069,-0.085 -0.187,-0.683 v -0.051 -0.051 l 0.034,-0.103 0.017,-0.102 v -0.051 -0.069 l -0.051,-0.153 -0.051,-0.154 -0.12,-0.324 -0.068,-0.154 -0.034,-0.188 -0.035,-0.188 -0.017,-0.204 0.086,0.068 0.085,0.068 0.137,0.171 0.119,0.188 0.103,0.205 0.085,0.187 0.119,0.205 0.12,0.171 0.068,0.085 0.086,0.068 z m 0.956,-1.075 v 0 h 0.17 0.171 0.188 0.188 l 0.17,-0.017 0.068,-0.017 0.052,-0.034 0.051,-0.051 0.051,-0.052 0.017,-0.051 0.017,-0.085 -0.051,-0.017 -0.034,-0.034 -0.068,-0.086 -0.069,-0.068 -0.051,-0.034 -0.051,-0.017 h -0.068 -0.069 l -0.136,0.017 -0.12,0.051 -0.136,0.017 -0.154,0.017 h -0.154 l -0.29,-0.034 -0.563,-0.119 -0.051,0.085 -0.034,0.051 -0.052,0.051 -0.017,0.051 v 0.069 l 0.086,0.017 0.068,0.017 0.137,0.068 0.17,0.051 0.086,0.017 0.085,0.018 0.068,0.307 -0.085,0.085 -0.085,0.068 -0.035,0.035 -0.017,0.051 -0.017,0.051 v 0.085 l 0.103,0.017 0.085,0.069 0.085,0.068 0.069,0.085 0.051,0.12 0.034,0.119 0.017,0.137 -0.017,0.136 h -0.12 -0.102 l -0.171,0.052 -0.034,-0.034 -0.034,-0.052 -0.051,-0.017 -0.068,-0.017 -0.154,0.068 v 0.069 l -0.068,0.017 -0.017,0.034 -0.035,0.051 -0.017,0.068 v 0.137 l 0.017,0.137 0.035,0.153 0.051,0.137 0.068,0.136 0.051,0.086 0.069,0.068 h 0.085 l 0.154,-0.068 0.034,-0.717 h 0.051 l 0.034,0.034 0.017,0.034 h 0.051 0.069 l 0.034,0.017 0.034,0.017 0.068,0.068 0.017,0.052 v 0.017 l 0.051,0.068 v 0.051 l -0.017,0.051 -0.051,0.035 -0.102,0.068 -0.051,0.034 -0.035,0.051 v 0.051 0.052 l 0.035,0.085 0.051,0.068 0.068,0.086 0.068,0.068 0.069,0.102 0.051,0.12 0.017,0.068 0.017,0.085 h 0.034 l 0.205,-0.085 v -0.085 h 0.102 l 0.017,-0.052 0.035,-0.034 0.085,-0.051 v -0.136 -0.137 l -0.068,-0.017 -0.052,-0.034 -0.051,-0.051 -0.034,-0.069 -0.085,-0.136 -0.034,-0.12 0.068,-0.051 0.102,0.085 0.12,0.12 0.102,0.154 0.103,0.17 0.085,0.188 0.051,0.188 0.034,0.188 v 0.085 l -0.017,0.085 -0.085,0.103 h -0.239 l -0.188,-0.052 -0.153,-0.068 -0.154,-0.085 -0.256,-0.188 -0.137,-0.085 -0.153,-0.069 -0.052,0.017 -0.034,0.018 v 0.051 0.034 l 0.017,0.085 0.069,0.069 0.034,0.034 h 0.034 v 0.102 l 0.171,0.12 0.187,0.119 0.171,0.137 0.103,0.051 0.102,0.034 0.102,0.034 h 0.103 0.085 l 0.086,-0.017 0.085,-0.034 0.068,-0.051 0.068,-0.051 0.052,-0.069 0.051,-0.068 0.034,-0.085 0.017,-0.086 0.017,-0.102 0.017,-0.103 -0.017,-0.102 -0.017,-0.102 -0.034,-0.103 -0.085,-0.205 -0.12,-0.205 -0.136,-0.221 -0.137,-0.188 -0.12,-0.12 -0.136,-0.119 -0.12,-0.12 -0.102,-0.136 -0.034,-0.478 h 0.273 l 0.017,0.017 0.034,0.017 h 0.086 l 0.153,-0.034 v -0.239 l -0.051,-0.017 v -0.069 l -0.085,0.018 h -0.086 l -0.068,-0.035 -0.085,-0.017 -0.154,-0.085 -0.137,-0.068 v -0.222 l 0.017,-0.103 z m -6.453,1.895 -0.085,-0.205 -0.069,-0.188 -0.068,-0.188 -0.017,-0.102 V -3.96 l 0.017,-0.017 -0.171,0.068 -0.341,0.205 -0.359,0.205 -0.119,0.085 -0.068,0.051 -0.069,0.12 -0.085,0.204 -0.119,0.342 0.034,0.188 0.068,0.153 0.085,0.103 0.103,0.085 0.102,0.068 0.12,0.069 0.102,0.068 0.12,0.068 0.017,0.103 0.017,0.068 -0.017,0.119 -0.103,0.086 -0.136,0.051 -0.069,0.034 h -0.051 -0.068 l -0.051,-0.034 -0.034,-0.051 -0.018,-0.069 0.018,-0.119 v -0.137 l -0.018,-0.068 -0.034,-0.051 -0.119,-0.171 -0.103,-0.119 -0.085,-0.103 -0.068,-0.102 -0.051,-0.103 -0.035,-0.136 v -0.188 -0.239 l -0.051,-0.034 -0.034,-0.017 -0.119,-0.017 -0.103,-0.017 -0.051,-0.017 -0.051,-0.034 v -0.086 l 0.119,-0.051 0.137,-0.034 0.29,-0.051 0.154,-0.034 0.136,-0.035 0.137,-0.068 0.119,-0.068 0.308,-0.273 0.29,-0.273 0.58,-0.547 0.103,-0.068 0.136,-0.051 0.137,-0.034 0.153,-0.034 0.308,-0.035 0.119,-0.017 0.102,-0.017 0.171,0.103 0.017,0.068 v 0.051 l -0.017,0.051 -0.034,0.035 -1.212,0.58 -0.017,0.034 0.034,0.034 0.034,0.017 0.017,0.017 0.034,0.034 0.052,0.086 0.051,0.102 0.068,0.222 0.051,0.205 0.035,0.102 0.051,0.086 0.085,0.017 0.102,0.034 0.12,0.017 0.119,0.034 0.035,0.171 -0.035,0.068 -0.051,0.034 -0.085,0.034 -0.085,0.018 -0.018,0.068 v 0.085 l 0.035,0.086 0.051,0.085 0.051,0.085 0.102,0.154 0.052,0.068 0.034,0.068 0.102,0.017 0.103,0.052 0.102,0.051 0.068,0.085 -0.068,0.12 -0.051,0.068 -0.034,0.051 -0.017,0.051 v 0.069 l 0.017,0.085 -0.137,0.051 -0.102,0.017 -0.051,-0.119 -0.052,-0.12 -0.051,-0.085 -0.085,-0.068 -0.086,-0.051 -0.085,-0.018 h -0.119 l -0.12,0.018 v 0.034 l 0.205,0.239 0.239,0.273 0.119,0.119 0.137,0.103 0.137,0.068 0.136,0.051 0.154,0.017 0.119,-0.017 0.205,-0.017 h 0.085 l 0.103,0.034 0.102,0.051 0.12,0.12 -0.034,0.068 -0.035,0.069 -0.034,0.051 -0.034,0.034 -0.102,0.068 -0.086,0.051 -0.085,0.052 -0.034,0.034 -0.034,0.051 -0.017,0.051 v 0.086 0.085 l 0.017,0.102 -0.086,0.051 -0.068,0.035 -0.171,0.034 -0.085,-0.171 -0.102,-0.205 -0.052,-0.085 -0.051,-0.085 -0.068,-0.052 -0.068,-0.034 -0.222,-0.017 -0.239,-0.017 h -0.103 l -0.119,-0.017 -0.103,-0.034 -0.085,-0.051 -0.034,-0.035 -0.017,-0.034 -0.034,-0.085 v -0.085 l 0.017,-0.069 0.034,-0.034 0.051,-0.034 0.12,-0.034 0.17,-0.034 v -0.017 l -0.068,-0.103 -0.102,-0.119 -0.239,-0.239 -0.12,-0.12 -0.102,-0.136 -0.069,-0.137 -0.017,-0.068 V -2.031 -2.1 l 0.035,-0.051 0.034,-0.051 0.051,-0.017 0.085,-0.068 0.086,-0.018 0.102,-0.017 h 0.085 l 0.171,0.052 0.137,0.034 0.017,-0.017 -0.051,-0.154 -0.069,-0.154 -0.136,-0.29 h -0.12 -0.119 l -0.239,-0.068 -0.103,-0.034 -0.119,-0.017 h -0.137 l -0.136,0.017 -0.017,-0.034 -0.035,-0.052 0.12,-0.051 0.102,-0.034 0.103,-0.017 0.102,-0.017 0.205,-0.017 h 0.102 z m -4.916,3.926 0.085,0.085 0.034,0.086 0.034,0.085 v 0.068 l -0.068,0.103 -0.085,0.068 v 0.034 l 0.017,0.034 0.068,0.052 0.12,0.051 0.136,0.034 0.29,0.068 0.12,0.034 0.102,0.052 0.239,-0.171 0.188,-0.103 0.188,-0.119 0.188,-0.085 0.085,-0.035 0.068,-0.017 h 0.068 l 0.052,0.034 0.051,0.035 0.017,0.085 0.017,0.068 -0.034,0.086 -0.051,0.085 -0.052,0.085 -0.153,0.154 -0.137,0.137 v 0.034 l 0.103,0.085 0.136,0.085 0.29,0.137 0.291,0.171 0.136,0.102 0.137,0.102 -0.017,0.257 -0.256,0.119 -0.086,-0.017 -0.085,-0.034 -0.171,-0.086 -0.17,-0.119 -0.188,-0.12 -0.171,-0.136 -0.171,-0.103 -0.17,-0.085 -0.086,-0.017 -0.085,-0.017 -0.085,0.017 -0.103,0.034 -0.119,0.068 -0.12,0.086 -0.222,0.171 -0.102,0.068 -0.103,0.051 -0.085,0.034 -0.119,0.017 -0.222,0.017 -0.017,-0.187 -0.035,-0.188 0.103,-0.137 0.119,-0.102 0.103,-0.086 0.136,-0.068 -0.017,-0.051 -0.034,-0.051 -0.102,-0.086 -0.12,-0.068 -0.136,-0.034 -0.393,-0.102 -0.41,-0.069 -0.222,-0.034 h -0.204 -0.188 l -0.188,0.034 -0.102,0.034 -0.171,0.069 -0.137,0.051 -0.068,0.017 h -0.034 l 0.034,-0.085 0.051,-0.052 0.034,-0.051 0.052,-0.034 0.102,-0.051 0.12,-0.034 0.119,-0.052 0.12,-0.068 0.119,-0.068 0.051,-0.017 0.069,-0.017 0.17,-0.017 0.154,0.017 0.324,0.034 0.325,0.034 0.17,0.017 h 0.171 V 1.229 l -0.137,-0.375 -0.187,-0.581 -0.086,-0.307 -0.068,-0.273 -0.034,-0.222 v -0.086 -0.051 l 0.068,-0.153 0.103,-0.154 0.239,-0.307 0.204,0.17 -0.017,0.393 -0.034,0.512 v 0.256 l 0.034,0.256 0.017,0.103 0.034,0.102 0.035,0.085 0.051,0.086 z M 5.428,2.168 v 0 L 5.497,2.066 5.582,1.946 5.65,1.809 5.719,1.656 5.753,1.502 V 1.331 L 5.736,1.263 5.719,1.178 5.684,1.11 5.633,1.024 5.565,1.058 5.514,0.99 5.275,1.058 5.292,1.11 5.411,1.144 5.514,1.212 5.462,1.383 5.428,1.553 5.377,1.724 V 1.878 L 5.224,1.98 5.087,2.066 4.967,2.151 4.848,2.202 4.831,2.185 4.66,1.485 4.507,0.871 4.404,0.836 4.353,0.785 4.268,0.836 4.285,0.922 V 0.99 1.075 L 4.268,1.144 4.302,1.417 4.336,1.69 4.387,1.963 4.489,2.253 4.438,2.339 4.387,2.356 H 4.336 L 4.268,2.339 H 4.182 L 4.114,2.356 4.046,2.373 3.943,2.543 3.892,2.629 3.807,2.714 H 3.755 L 3.704,2.646 3.636,2.595 H 3.568 L 3.465,2.629 3.448,2.697 V 2.765 L 3.465,2.868 3.482,2.97 3.516,3.073 3.551,3.175 3.602,3.243 3.653,3.312 3.704,3.346 3.773,3.363 H 3.841 L 3.909,3.346 3.926,3.26 3.96,3.209 4.012,3.158 4.063,3.09 4.131,2.936 4.165,2.868 4.216,2.8 4.268,2.765 4.336,2.731 4.438,2.714 4.558,2.731 4.66,2.97 4.797,3.26 4.865,3.397 4.95,3.499 5.036,3.585 5.087,3.602 5.138,3.619 5.309,3.534 5.36,3.363 5.189,3.004 5.07,2.765 5.019,2.629 5.053,2.561 5.087,2.509 5.206,2.39 5.326,2.287 Z M 2.765,1.605 v 0 L 2.714,1.502 2.731,1.229 2.919,1.058 3.021,0.922 3.124,0.802 3.226,0.734 3.329,0.683 H 3.38 3.431 L 3.482,0.7 3.516,0.751 3.551,0.802 3.585,0.871 3.619,0.973 3.636,1.092 3.431,1.212 3.209,1.349 3.004,1.468 2.817,1.605 Z M 2.748,2.287 v 0 L 2.817,2.031 2.834,1.895 V 1.758 L 2.919,1.741 2.97,1.792 3.004,1.844 3.039,1.929 V 2.014 2.185 L 3.021,2.304 3.004,2.526 2.987,2.748 3.004,2.97 3.039,3.226 3.09,3.465 3.158,3.704 3.26,3.943 3.38,4.182 3.465,4.199 3.568,4.182 3.585,4.114 3.619,4.046 3.687,3.909 3.755,3.773 3.773,3.687 V 3.619 L 3.79,3.585 3.841,3.568 3.892,3.79 3.926,4.012 V 4.114 L 3.909,4.216 3.892,4.319 3.841,4.404 3.807,4.438 3.755,4.489 3.619,4.541 3.551,4.558 3.482,4.575 H 3.414 L 3.363,4.558 3.312,4.524 3.243,4.489 3.158,4.404 3.073,4.268 3.004,4.131 2.868,3.807 2.748,3.209 2.765,3.09 V 2.97 L 2.748,2.748 2.731,2.509 V 2.39 Z M 1.297,2.919 v 0 L 1.246,2.8 1.417,2.561 1.502,2.441 1.605,2.339 1.707,2.253 1.861,2.168 2.014,2.117 2.219,2.1 2.27,2.151 2.322,2.236 2.373,2.424 2.168,2.578 1.929,2.731 1.656,2.851 1.383,2.953 1.349,2.902 Z m 1.161,1.144 v 0 0.153 L 2.424,4.37 2.39,4.524 2.339,4.677 2.253,4.831 2.202,4.882 2.134,4.933 2.065,4.985 1.997,5.019 1.912,5.036 H 1.827 1.758 L 1.707,5.019 1.656,4.985 1.605,4.95 1.536,4.848 1.485,4.711 1.519,4.609 1.588,4.507 1.758,4.319 1.827,4.233 1.895,4.148 1.946,4.046 1.963,3.943 2.048,3.909 V 3.841 3.807 L 2.083,3.721 2.014,3.687 H 1.963 1.861 L 1.707,3.738 H 1.639 1.605 L 1.57,3.704 1.468,3.602 1.366,3.414 1.57,3.192 1.622,3.141 1.69,3.107 1.758,3.073 1.844,3.056 1.946,3.021 2.031,3.039 2.1,3.056 2.134,3.107 2.219,3.226 2.27,3.295 2.339,3.346 2.39,3.363 2.441,3.38 2.492,3.397 2.543,3.448 2.39,3.807 Z"
       style="fill:#3b71b4;fill-opacity:1;fill-rule:evenodd;stroke:none"
       transform="matrix(0.35277776,0,0,-0.35277776,135.87444,163.27934)"
       clip-path="url(#clipPath2894)" />
    <path
       id="path2895"
       d="M 0,0 V 0 H -0.478 L -0.956,0.017 -1.417,0.051 -1.895,0.102 -2.356,0.154 -2.817,0.205 -3.277,0.29 -3.738,0.376 -4.182,0.478 -4.626,0.58 -5.07,0.7 -5.514,0.836 -5.94,0.973 -6.367,1.127 -6.794,1.28 -7.204,1.451 -7.63,1.639 -8.04,1.827 -8.433,2.031 -8.825,2.236 -9.218,2.458 -9.611,2.68 l -0.375,0.239 -0.376,0.239 -0.358,0.256 -0.359,0.273 -0.358,0.273 -0.341,0.273 -0.342,0.291 -0.341,0.29 -0.325,0.307 -0.324,0.307 -0.307,0.325 -0.29,0.324 -0.308,0.324 -0.29,0.342 -0.273,0.341 -0.273,0.359 -0.256,0.358 -0.256,0.376 -0.239,0.358 -0.239,0.393 -0.239,0.375 -0.205,0.393 -0.222,0.393 -0.188,0.409 -0.205,0.41 -0.17,0.41 -0.171,0.426 -0.171,0.41 -0.136,0.427 -0.154,0.444 -0.119,0.426 -0.12,0.444 -0.119,0.444 -0.086,0.461 -0.102,0.444 -0.068,0.461 -0.069,0.461 -0.051,0.478 -0.034,0.46 -0.034,0.478 -0.017,0.478 -0.017,0.478 0.017,0.478 0.017,0.478 0.034,0.461 0.034,0.478 0.051,0.461 0.069,0.461 0.068,0.461 0.102,0.461 0.086,0.444 0.119,0.443 0.12,0.444 0.119,0.444 0.154,0.427 0.136,0.427 0.171,0.426 0.171,0.41 0.17,0.427 0.205,0.392 0.188,0.41 0.222,0.393 0.205,0.392 0.239,0.393 0.239,0.375 0.239,0.376 0.256,0.358 0.256,0.359 0.273,0.358 0.273,0.342 0.29,0.341 0.308,0.342 0.29,0.324 0.307,0.307 0.324,0.325 0.325,0.29 0.341,0.307 0.342,0.273 0.341,0.29 0.358,0.273 0.359,0.257 0.358,0.256 0.376,0.239 0.375,0.239 0.393,0.239 0.393,0.204 0.392,0.222 0.393,0.188 0.41,0.205 0.426,0.171 0.41,0.17 0.427,0.171 0.427,0.137 0.426,0.153 0.444,0.12 0.444,0.119 0.444,0.12 0.444,0.085 0.461,0.085 0.46,0.086 0.461,0.068 0.461,0.051 0.478,0.034 0.461,0.035 0.478,0.017 H 0 0.478 L 0.956,37.043 1.434,37.008 1.895,36.974 2.356,36.923 2.834,36.855 3.277,36.769 3.738,36.684 4.182,36.599 4.643,36.479 5.07,36.36 5.514,36.24 5.94,36.087 6.384,35.95 l 0.41,-0.171 0.427,-0.17 0.409,-0.171 0.41,-0.205 0.393,-0.188 0.409,-0.222 0.393,-0.204 0.376,-0.239 0.375,-0.239 0.376,-0.239 0.375,-0.256 0.359,-0.257 0.358,-0.273 0.342,-0.29 0.341,-0.273 0.324,-0.307 0.325,-0.29 0.324,-0.325 0.307,-0.307 0.308,-0.324 0.29,-0.342 0.29,-0.341 0.273,-0.342 0.273,-0.358 0.273,-0.359 0.256,-0.358 0.239,-0.376 0.239,-0.375 0.222,-0.393 0.222,-0.392 0.205,-0.393 0.205,-0.41 0.188,-0.392 0.187,-0.427 0.171,-0.41 0.154,-0.426 0.153,-0.427 0.137,-0.427 0.136,-0.444 0.12,-0.444 0.102,-0.443 0.103,-0.444 0.085,-0.461 0.068,-0.461 0.069,-0.461 0.051,-0.461 0.051,-0.478 0.034,-0.461 0.017,-0.478 V 18.538 18.06 L 18.521,17.582 18.487,17.104 18.436,16.644 18.385,16.166 18.316,15.705 18.248,15.244 18.163,14.8 18.06,14.339 17.958,13.895 17.838,13.451 17.702,13.025 17.565,12.581 17.412,12.154 17.258,11.744 17.087,11.318 16.9,10.908 16.712,10.498 16.507,10.089 16.302,9.696 16.08,9.303 15.858,8.928 15.619,8.535 15.38,8.177 15.124,7.801 14.851,7.443 14.578,7.084 14.305,6.743 14.015,6.401 13.725,6.077 13.417,5.753 13.11,5.428 12.786,5.121 12.461,4.814 12.137,4.524 11.796,4.233 11.454,3.96 11.096,3.687 10.737,3.414 10.362,3.158 9.986,2.919 9.611,2.68 9.235,2.458 8.842,2.236 8.433,2.031 8.04,1.827 7.63,1.639 7.221,1.451 6.794,1.28 6.384,1.127 5.94,0.973 5.514,0.836 5.07,0.7 4.643,0.58 4.182,0.478 3.738,0.376 3.277,0.29 2.834,0.205 2.356,0.154 1.895,0.102 1.434,0.051 0.956,0.017 0.478,0 Z m 0,38.101 v 0 L -0.495,38.084 -1.007,38.067 -1.502,38.033 -1.997,37.998 -2.492,37.93 -2.97,37.862 -3.465,37.794 -3.943,37.691 -4.421,37.589 -4.882,37.469 -5.343,37.35 -5.821,37.213 -6.265,37.06 -6.726,36.906 -7.169,36.735 -7.613,36.548 -8.04,36.36 -8.484,36.172 -8.894,35.95 -9.32,35.728 l -0.41,-0.222 -0.41,-0.239 -0.392,-0.256 -0.393,-0.256 -0.393,-0.273 -0.375,-0.273 -0.376,-0.29 -0.375,-0.291 -0.359,-0.307 -0.341,-0.307 -0.342,-0.324 -0.341,-0.325 -0.324,-0.341 -0.325,-0.342 -0.307,-0.341 -0.307,-0.358 -0.29,-0.376 -0.291,-0.375 -0.273,-0.376 -0.273,-0.393 -0.256,-0.392 -0.256,-0.393 -0.239,-0.41 -0.222,-0.409 -0.222,-0.427 -0.222,-0.427 -0.187,-0.427 -0.205,-0.426 -0.171,-0.444 -0.171,-0.444 -0.153,-0.461 -0.154,-0.461 -0.136,-0.461 -0.137,-0.461 -0.102,-0.478 -0.103,-0.46 -0.102,-0.478 -0.069,-0.495 -0.068,-0.478 -0.068,-0.495 -0.034,-0.495 -0.034,-0.496 -0.017,-0.512 -0.018,-0.495 0.018,-0.512 0.017,-0.495 0.034,-0.495 0.034,-0.495 0.068,-0.495 0.068,-0.495 0.069,-0.478 0.102,-0.478 0.103,-0.478 0.102,-0.478 0.137,-0.461 0.136,-0.461 0.154,-0.461 0.153,-0.443 0.171,-0.444 0.171,-0.444 0.205,-0.444 0.187,-0.427 0.222,-0.426 0.222,-0.41 0.222,-0.427 0.239,-0.392 0.256,-0.41 0.256,-0.393 0.273,-0.392 0.273,-0.376 0.291,-0.375 0.29,-0.359 0.307,-0.358 0.307,-0.359 0.325,-0.341 0.324,-0.342 0.341,-0.324 0.342,-0.307 0.341,-0.325 0.359,-0.29 0.375,-0.307 0.376,-0.273 0.375,-0.29 0.393,-0.256 0.393,-0.274 L -10.14,1.809 -9.73,1.57 -9.32,1.331 -8.894,1.11 -8.484,0.905 -8.04,0.7 -7.613,0.512 -7.169,0.324 -6.726,0.154 -6.265,0 l 0.444,-0.154 0.478,-0.136 0.461,-0.12 0.461,-0.119 0.478,-0.103 0.478,-0.085 0.495,-0.085 0.478,-0.069 0.495,-0.051 0.495,-0.051 0.495,-0.034 0.512,-0.017 H 0 0.512 l 0.495,0.017 0.495,0.034 0.495,0.051 0.495,0.051 0.495,0.069 0.478,0.085 0.478,0.085 0.478,0.103 0.478,0.119 0.461,0.12 0.461,0.136 L 6.282,0 6.726,0.154 7.17,0.324 7.613,0.512 8.057,0.7 8.484,0.905 8.911,1.11 9.32,1.331 9.747,1.57 l 0.393,0.239 0.409,0.239 0.393,0.274 0.393,0.256 0.375,0.29 0.376,0.273 0.358,0.307 0.359,0.29 0.358,0.325 0.342,0.307 0.324,0.324 0.341,0.342 0.308,0.341 0.324,0.359 0.29,0.358 0.307,0.359 0.274,0.375 0.29,0.376 0.256,0.392 0.273,0.393 0.239,0.41 0.239,0.392 0.239,0.427 0.222,0.41 0.205,0.426 0.204,0.427 0.188,0.444 0.188,0.444 0.154,0.444 0.17,0.443 0.154,0.461 0.137,0.461 0.119,0.461 0.12,0.478 0.102,0.478 0.085,0.478 0.086,0.478 0.068,0.495 0.051,0.495 0.051,0.495 0.035,0.495 0.017,0.495 v 0.512 0.495 l -0.017,0.512 -0.035,0.496 -0.051,0.495 -0.051,0.495 -0.068,0.478 -0.086,0.495 -0.085,0.478 -0.102,0.46 -0.12,0.478 -0.119,0.461 -0.137,0.461 -0.154,0.461 -0.17,0.461 -0.154,0.444 -0.188,0.444 -0.188,0.426 -0.204,0.427 -0.205,0.427 -0.222,0.427 -0.239,0.409 -0.239,0.41 -0.239,0.393 -0.273,0.392 -0.256,0.393 -0.29,0.376 -0.274,0.375 -0.307,0.376 -0.29,0.358 -0.324,0.341 -0.308,0.342 -0.341,0.341 -0.324,0.325 -0.342,0.324 -0.358,0.307 -0.359,0.307 -0.358,0.291 -0.376,0.29 -0.375,0.273 -0.393,0.273 -0.393,0.256 L 10.14,35.267 9.747,35.506 9.32,35.728 8.911,35.95 8.484,36.172 8.057,36.36 7.613,36.548 7.17,36.735 6.726,36.906 6.282,37.06 5.821,37.213 5.36,37.35 4.899,37.469 4.421,37.589 3.943,37.691 3.465,37.794 2.987,37.862 2.492,37.93 1.997,37.998 1.502,38.033 1.007,38.067 0.512,38.084 Z"
       style="fill:#3b71b4;fill-opacity:1;fill-rule:evenodd;stroke:none"
       transform="matrix(0.35277776,0,0,-0.35277776,132.78513,165.80861)"
       clip-path="url(#clipPath2896)" />
    <path
       id="path2897"
       d="M 0,0 1.195,-0.239 2.68,-1.28 2.748,-1.024 1.98,-0.512 1.519,-0.205 2.031,-0.137 2.953,0.034 3.021,0.307 1.246,-0.017 0.034,0.239 Z M 1.366,1.366 0.836,1.4 0.734,1.502 0.632,1.639 0.58,1.792 0.563,1.861 v 0.068 l 0.034,0.137 0.052,0.119 0.102,0.102 0.137,0.086 0.17,0.068 0.205,0.051 0.239,0.017 H 1.775 L 1.946,2.492 2.117,2.458 2.27,2.424 2.407,2.373 2.526,2.322 2.629,2.27 2.714,2.202 2.782,2.134 2.834,2.048 2.868,1.963 2.885,1.878 V 1.792 L 2.868,1.656 2.8,1.553 2.714,1.468 2.595,1.4 2.441,1.349 2.236,1.314 2.304,1.093 2.595,1.144 2.714,1.161 2.8,1.212 2.902,1.246 2.97,1.297 3.039,1.366 3.09,1.434 3.141,1.502 3.175,1.57 3.209,1.673 V 1.758 1.895 L 3.192,2.014 3.141,2.117 3.073,2.219 2.987,2.322 2.885,2.407 2.748,2.492 2.578,2.578 2.407,2.629 2.202,2.68 1.997,2.731 1.758,2.748 H 1.536 1.331 L 1.127,2.714 0.956,2.68 0.785,2.629 0.649,2.561 0.529,2.475 0.427,2.39 0.341,2.287 0.273,2.185 0.239,2.066 0.222,1.946 V 1.844 L 0.239,1.758 0.273,1.656 0.307,1.553 0.376,1.468 0.444,1.366 0.529,1.28 0.632,1.178 1.707,1.11 1.741,1.861 1.4,1.878 Z m 0.239,3.448 v 0 L 1.366,4.78 1.144,4.728 0.956,4.66 0.802,4.558 0.683,4.455 0.597,4.353 0.546,4.233 0.529,4.114 0.563,3.994 0.632,3.875 0.734,3.79 0.871,3.704 1.041,3.636 1.246,3.602 H 1.485 1.758 L 1.946,3.619 2.117,3.653 2.27,3.704 2.424,3.755 2.526,3.79 2.612,3.858 2.697,3.909 2.765,3.994 2.817,4.063 2.851,4.148 2.868,4.216 V 4.302 L 2.851,4.421 2.782,4.541 2.68,4.626 2.543,4.711 2.373,4.78 2.151,4.814 H 1.912 Z m 0,0.239 v 0 L 1.946,5.07 2.253,5.036 2.526,4.985 2.646,4.95 2.748,4.899 2.851,4.848 2.936,4.78 3.021,4.728 3.073,4.66 3.124,4.575 3.158,4.507 3.192,4.421 3.209,4.336 V 4.216 L 3.175,4.097 3.124,3.994 3.056,3.892 2.97,3.79 2.851,3.704 2.731,3.619 2.578,3.534 2.39,3.482 2.202,3.431 1.997,3.397 1.775,3.363 1.468,3.346 1.178,3.363 0.939,3.414 0.7,3.499 0.597,3.551 0.495,3.602 0.427,3.67 0.358,3.738 0.29,3.824 0.256,3.909 0.222,3.994 0.205,4.08 V 4.182 L 0.222,4.268 0.256,4.353 0.29,4.438 0.358,4.524 0.427,4.609 0.512,4.677 0.615,4.746 0.819,4.865 1.058,4.95 1.314,5.019 Z M 0.119,5.292 0.461,5.36 0.273,6.214 2.765,6.76 2.714,6.982 -0.12,6.384 Z m 0.513,3.346 v 0 L 0.393,8.552 0.188,8.433 0.034,8.33 -0.102,8.194 -0.188,8.057 -0.239,7.938 -0.256,7.818 -0.239,7.699 -0.171,7.579 -0.085,7.494 0.034,7.426 0.188,7.391 0.376,7.374 0.58,7.391 0.819,7.443 1.075,7.511 1.246,7.579 1.4,7.665 1.553,7.733 1.673,7.835 1.775,7.904 1.844,7.972 1.912,8.057 1.946,8.143 1.98,8.228 1.997,8.313 V 8.399 L 1.98,8.484 1.912,8.586 1.827,8.689 1.707,8.74 1.553,8.791 1.366,8.808 1.144,8.791 0.905,8.723 Z M 0.546,8.877 v 0 L 0.888,8.979 1.195,9.03 1.331,9.047 h 0.137 0.12 L 1.707,9.03 1.809,8.996 1.912,8.962 1.997,8.928 2.083,8.877 2.151,8.808 2.202,8.74 2.253,8.672 2.287,8.586 2.304,8.484 2.322,8.364 2.304,8.245 2.253,8.125 2.202,8.006 2.117,7.886 2.014,7.784 1.878,7.665 1.724,7.562 1.553,7.46 1.366,7.374 1.161,7.289 0.854,7.204 0.58,7.135 0.324,7.118 0.085,7.135 -0.034,7.17 -0.137,7.187 -0.239,7.238 -0.324,7.289 -0.393,7.34 -0.461,7.409 -0.512,7.494 -0.546,7.579 -0.563,7.665 -0.58,7.767 v 0.085 l 0.034,0.103 0.034,0.085 0.051,0.103 0.051,0.085 0.086,0.102 0.17,0.154 0.205,0.154 0.239,0.119 z m -2.082,0.99 2.014,1.075 -1.57,-1.895 0.102,-0.222 2.56,1.366 -0.102,0.205 -2.014,-1.076 1.57,1.895 -0.102,0.205 -2.561,-1.366 z m -1.076,1.587 1.11,0.802 0.529,-0.734 -1.093,-0.819 0.137,-0.188 2.339,1.707 -0.137,0.188 -0.956,-0.7 -0.546,0.751 0.956,0.7 -0.137,0.188 -2.338,-1.707 z m 0.137,1.417 -0.137,-0.102 -0.136,-0.086 -0.137,-0.051 -0.119,-0.017 h -0.103 l -0.102,0.017 -0.068,0.034 -0.086,0.051 -0.068,0.103 -0.034,0.119 v 0.137 l 0.034,0.153 0.068,0.171 0.12,0.171 0.153,0.188 0.188,0.205 0.137,0.119 0.136,0.119 0.137,0.086 0.119,0.068 0.12,0.051 0.102,0.052 0.103,0.017 h 0.085 l 0.085,-0.017 0.086,-0.018 0.068,-0.051 0.068,-0.051 0.051,-0.068 0.035,-0.069 0.017,-0.085 -0.017,-0.102 -0.018,-0.086 -0.034,-0.119 -0.068,-0.103 -0.068,-0.119 0.222,-0.12 0.102,0.171 0.085,0.171 0.052,0.136 0.034,0.154 v 0.137 l -0.034,0.119 -0.052,0.103 -0.068,0.102 -0.085,0.085 -0.103,0.052 -0.119,0.034 -0.12,0.017 H -1.963 L -2.1,14.732 -2.253,14.68 l -0.154,-0.068 -0.154,-0.085 -0.17,-0.103 -0.171,-0.136 -0.171,-0.154 -0.153,-0.17 -0.154,-0.171 -0.119,-0.154 -0.103,-0.171 -0.068,-0.153 -0.051,-0.154 -0.034,-0.136 -0.018,-0.12 0.018,-0.119 0.034,-0.103 0.051,-0.102 0.085,-0.086 0.103,-0.085 0.119,-0.068 0.137,-0.017 0.136,-0.017 0.171,0.034 0.171,0.068 0.17,0.085 0.205,0.137 z m -1.963,0.512 0.222,0.273 -0.854,0.666 0.598,0.768 0.785,-0.597 0.205,0.273 -0.769,0.597 0.547,0.7 0.819,-0.649 0.222,0.274 -1.007,0.785 -1.792,-2.271 z m -1.844,1.349 1.315,2.185 0.495,-0.308 0.187,0.291 -1.212,0.734 -0.17,-0.291 0.495,-0.307 -1.315,-2.185 z m -2.424,1.178 0.478,1.212 0.768,-0.291 0.137,0.308 -0.768,0.307 0.324,0.836 0.888,-0.358 0.136,0.324 -1.109,0.444 -1.076,-2.697 z m -1.604,1.928 v 0 l -0.052,-0.256 -0.017,-0.222 v -0.187 l 0.034,-0.188 0.052,-0.154 0.085,-0.102 0.085,-0.085 0.12,-0.052 0.119,-0.017 0.137,0.034 0.119,0.069 0.12,0.102 0.119,0.137 0.103,0.187 0.085,0.222 0.068,0.256 0.052,0.188 0.017,0.171 0.017,0.153 v 0.171 l -0.017,0.103 -0.017,0.102 -0.035,0.102 -0.051,0.086 -0.051,0.085 -0.051,0.051 -0.068,0.052 -0.086,0.017 -0.119,0.017 -0.137,-0.034 -0.119,-0.052 -0.12,-0.102 -0.119,-0.154 -0.103,-0.187 -0.085,-0.239 z m -0.239,0.069 v 0 l 0.102,0.324 0.119,0.29 0.069,0.12 0.068,0.119 0.085,0.103 0.086,0.085 0.085,0.068 0.085,0.069 0.086,0.051 0.085,0.034 0.085,0.017 0.086,0.017 h 0.085 l 0.086,-0.017 0.102,-0.034 0.102,-0.068 0.086,-0.086 0.085,-0.085 0.051,-0.12 0.052,-0.136 0.034,-0.154 0.017,-0.17 0.017,-0.188 -0.017,-0.205 -0.034,-0.205 -0.052,-0.222 -0.085,-0.29 -0.102,-0.256 -0.137,-0.222 -0.137,-0.188 -0.102,-0.085 -0.085,-0.068 -0.086,-0.069 -0.085,-0.034 -0.085,-0.034 -0.103,-0.017 -0.085,0.017 h -0.103 l -0.085,0.034 -0.085,0.051 -0.069,0.052 -0.068,0.068 -0.051,0.085 -0.051,0.086 -0.051,0.119 -0.035,0.12 -0.034,0.221 v 0.256 l 0.017,0.257 z m -2.049,-1.178 0.068,1.229 0.803,1.622 -0.273,0.017 -0.393,-0.837 -0.222,-0.495 -0.154,0.495 -0.29,0.905 -0.29,0.017 0.58,-1.724 -0.068,-1.212 z m -1.707,0 -0.171,2.56 0.581,0.035 -0.017,0.341 -1.417,-0.102 0.034,-0.342 0.58,0.051 0.171,-2.56 z m -1.246,-0.12 -0.461,2.851 -0.222,-0.034 0.444,-2.868 z m -2.339,0.427 0.069,-0.205 0.085,-0.17 0.102,-0.154 0.12,-0.12 0.119,-0.085 0.154,-0.051 h 0.137 l 0.153,0.017 0.103,0.034 0.085,0.034 0.068,0.069 0.069,0.051 0.051,0.085 0.051,0.085 0.034,0.086 0.017,0.119 0.017,0.103 v 0.119 l -0.017,0.12 -0.034,0.119 -0.034,0.103 -0.034,0.102 -0.051,0.102 -0.069,0.086 -0.068,0.068 -0.068,0.068 -0.086,0.052 -0.085,0.034 -0.154,0.034 -0.239,0.034 -0.239,0.034 -0.085,0.034 -0.068,0.034 -0.034,0.052 -0.052,0.051 -0.034,0.068 -0.017,0.068 -0.017,0.103 v 0.085 l 0.017,0.068 0.017,0.069 0.051,0.068 0.052,0.051 0.085,0.051 0.085,0.035 0.086,0.017 0.085,-0.017 0.085,-0.017 0.069,-0.052 0.068,-0.051 0.051,-0.085 0.068,-0.103 0.035,-0.119 0.222,0.068 -0.052,0.137 -0.034,0.102 -0.051,0.103 -0.068,0.085 -0.069,0.085 -0.068,0.069 -0.085,0.051 -0.069,0.034 -0.085,0.017 -0.102,0.017 h -0.086 l -0.102,-0.017 -0.12,-0.051 -0.102,-0.069 -0.085,-0.102 -0.069,-0.119 -0.051,-0.12 -0.017,-0.154 0.017,-0.153 0.034,-0.171 0.052,-0.171 0.085,-0.153 0.102,-0.12 0.12,-0.085 0.085,-0.034 0.086,-0.017 0.221,-0.052 0.256,-0.034 0.154,-0.034 0.085,-0.051 0.069,-0.068 0.068,-0.103 0.034,-0.119 0.017,-0.103 v -0.085 l -0.017,-0.102 -0.017,-0.086 -0.051,-0.068 -0.068,-0.051 -0.069,-0.051 -0.102,-0.035 -0.068,-0.017 h -0.069 l -0.068,0.017 -0.068,0.017 -0.12,0.069 -0.102,0.085 -0.085,0.154 -0.086,0.188 z m -1.894,0.017 0.46,0.188 0.137,0.068 0.085,0.069 0.034,0.102 0.018,0.102 v 0.137 l -0.052,0.137 -0.051,0.102 -0.051,0.068 -0.051,0.068 -0.069,0.052 -0.068,0.017 -0.068,0.017 h -0.086 l -0.085,-0.034 -0.512,-0.205 z m 0.392,-1.587 -1.092,2.68 0.717,0.29 0.119,0.051 0.085,0.017 h 0.086 0.085 l 0.068,-0.017 0.069,-0.051 0.068,-0.051 0.068,-0.051 0.069,-0.086 0.068,-0.085 0.102,-0.205 0.051,-0.154 0.035,-0.136 0.017,-0.137 -0.017,-0.119 -0.035,-0.12 -0.051,-0.102 -0.068,-0.086 -0.085,-0.068 0.102,-0.051 0.085,-0.051 0.171,-0.12 0.154,-0.153 0.58,-0.615 -0.273,-0.102 -0.444,0.461 -0.222,0.239 -0.153,0.119 -0.103,0.068 -0.085,0.034 h -0.086 l -0.102,-0.017 -0.256,-0.102 0.495,-1.195 z m -0.427,-0.222 -0.17,0.29 -0.939,-0.529 -0.495,0.853 0.853,0.478 -0.187,0.308 -0.837,-0.495 -0.444,0.768 0.905,0.529 -0.171,0.29 -1.109,-0.649 1.451,-2.509 z m -1.997,-1.28 -1.212,2.731 -0.205,-0.154 0.905,-1.963 0.222,-0.427 -0.359,0.325 -1.655,1.382 -0.205,-0.153 2.321,-1.878 z m -1.007,-0.837 -1.98,2.117 -0.171,-0.154 1.98,-2.117 z m -1.383,-1.451 -1.707,1.502 2.322,-0.802 0.153,0.188 -2.167,1.912 -0.154,-0.171 1.707,-1.502 -2.322,0.802 -0.153,-0.188 2.185,-1.912 z m -1.621,-0.119 0.204,-0.137 0.171,-0.137 0.12,-0.119 0.068,-0.102 0.034,-0.103 v -0.102 l -0.034,-0.103 -0.051,-0.102 -0.034,-0.051 -0.052,-0.052 -0.068,-0.034 -0.051,-0.017 -0.068,-0.017 h -0.086 l -0.068,0.017 -0.085,0.017 -0.222,0.103 -0.29,0.17 -1.4,0.922 -0.12,-0.188 1.4,-0.921 0.273,-0.171 0.256,-0.137 0.222,-0.068 0.085,-0.017 0.086,-0.017 0.153,0.017 0.086,0.017 0.068,0.034 0.12,0.103 0.102,0.119 0.051,0.103 0.034,0.102 0.017,0.119 -0.017,0.103 -0.017,0.102 -0.051,0.12 -0.068,0.102 -0.086,0.103 -0.239,0.205 -0.307,0.221 -1.4,0.922 -0.136,-0.205 z m -0.683,-3.961 -2.117,0.854 2.458,0.017 0.086,0.222 -2.698,1.075 -0.068,-0.205 2.117,-0.853 -2.475,-0.017 -0.086,-0.222 2.697,-1.076 z m -1.622,-1.348 0.137,0.58 -0.82,0.017 -0.614,0.034 0.256,-0.119 0.256,-0.12 z m 1.024,-0.786 -2.646,1.366 0.069,0.239 2.987,0.017 -0.068,-0.256 h -0.905 l -0.171,-0.717 0.803,-0.392 z m -0.034,-0.358 -2.868,0.41 -0.034,-0.222 2.868,-0.427 z m -0.102,-0.7 -0.342,0.017 -0.051,-0.87 -2.56,0.153 V 3.465 l 2.885,-0.17 z m -1.212,-2.646 -0.034,0.598 -0.786,-0.239 -0.597,-0.154 0.273,-0.017 0.29,-0.051 z m 1.229,-0.444 -2.936,0.513 -0.017,0.256 2.85,0.887 0.018,-0.273 -0.871,-0.256 0.051,-0.734 0.888,-0.154 z m -0.068,-1.553 -0.069,0.376 -0.034,0.102 -0.034,0.085 -0.051,0.069 -0.051,0.068 -0.069,0.034 -0.085,0.034 -0.085,0.034 h -0.103 L -28.047,0.58 -28.217,0.563 -28.388,0.546 -28.593,0.512 -28.798,0.478 -28.968,0.427 -29.122,0.358 -29.258,0.29 -29.361,0.222 -29.446,0.154 -29.497,0.085 -29.549,0 v -0.051 l -0.017,-0.068 0.017,-0.171 0.086,-0.376 z m 0.375,-0.171 -2.834,-0.546 -0.119,0.598 -0.034,0.204 0.017,0.154 0.017,0.068 0.051,0.086 0.051,0.068 0.069,0.085 0.085,0.069 0.102,0.068 0.239,0.119 0.291,0.103 0.358,0.085 0.222,0.051 0.222,0.017 h 0.205 l 0.188,-0.017 0.17,-0.017 0.137,-0.034 0.119,-0.051 0.103,-0.068 0.085,-0.086 0.051,-0.085 0.052,-0.103 0.034,-0.136 z"
       style="fill:#3b71b4;fill-opacity:1;fill-rule:evenodd;stroke:none"
       transform="matrix(0.35277776,0,0,-0.35277776,137.54858,160.3105)"
       clip-path="url(#clipPath2898)" />
    <path
       id="path2899"
       d="M 0,0 H -0.188 V 0.58 H -0.512 V 0 h -0.563 l 0.512,1.075 h -0.308 l -0.734,-1.416 h 1.093 V -0.7 h 0.324 v 0.359 H 0 Z M 0.546,0.358 V 0.29 L 0.58,0.222 0.615,0.154 0.666,0.102 0.717,0.051 0.785,0.017 0.853,0 H 0.922 1.007 L 1.075,0.017 1.144,0.051 1.195,0.102 1.246,0.154 1.28,0.222 1.297,0.29 V 0.358 0.444 L 1.28,0.512 1.246,0.563 1.195,0.615 1.144,0.666 1.075,0.7 1.007,0.717 0.922,0.734 0.853,0.717 0.785,0.7 0.717,0.666 0.666,0.615 0.615,0.563 0.58,0.512 0.546,0.444 Z m 1.059,0 v 0 0.137 L 1.553,0.615 1.502,0.734 1.417,0.836 1.314,0.905 1.195,0.973 1.058,1.007 0.922,1.024 0.785,1.007 0.666,0.973 0.546,0.905 0.444,0.836 0.358,0.734 0.29,0.615 0.256,0.495 0.239,0.358 0.256,0.222 0.29,0.102 0.358,-0.017 0.444,-0.102 0.546,-0.188 0.666,-0.256 0.785,-0.29 0.922,-0.307 0.717,-0.666 h 0.358 l 0.393,0.632 0.068,0.085 0.034,0.103 0.035,0.102 z m -4.353,0 V 0.29 L -2.731,0.222 -2.697,0.154 -2.646,0.102 -2.595,0.051 -2.526,0.017 -2.458,0 h 0.085 0.068 l 0.086,0.017 0.051,0.034 0.068,0.051 0.034,0.052 0.035,0.068 0.034,0.068 V 0.358 0.444 L -2.031,0.512 -2.066,0.563 -2.1,0.615 -2.168,0.666 -2.219,0.7 -2.305,0.717 -2.373,0.734 -2.458,0.717 -2.526,0.7 -2.595,0.666 -2.646,0.615 -2.697,0.563 -2.731,0.512 -2.748,0.444 Z m 1.058,0 v 0 L -1.707,0.495 -1.741,0.615 -1.809,0.734 -1.895,0.836 -1.997,0.905 -2.1,0.973 -2.236,1.007 -2.373,1.024 -2.509,1.007 -2.646,0.973 -2.765,0.905 -2.851,0.836 -2.936,0.734 -3.004,0.615 -3.039,0.495 -3.056,0.358 l 0.017,-0.136 0.035,-0.12 0.068,-0.119 0.085,-0.085 0.086,-0.086 0.119,-0.068 0.137,-0.034 0.136,-0.017 -0.205,-0.359 h 0.359 l 0.392,0.632 0.052,0.085 0.051,0.103 0.017,0.102 z m -1.895,-1.007 h -0.324 v 1.622 h 0.324 z"
       style="fill:#3b71b4;fill-opacity:1;fill-rule:evenodd;stroke:none"
       transform="matrix(0.35277776,0,0,-0.35277776,133.28498,160.82238)"
       clip-path="url(#clipPath2900)" />
    <path
       id="path2901"
       d="M 0,0 H 2.39 L 2.356,0.546 2.305,1.075 2.219,1.605 2.1,2.117 1.98,2.629 1.827,3.141 1.656,3.619 1.451,4.114 1.229,4.575 1.007,5.036 0.751,5.48 0.478,5.906 l -0.29,0.427 -0.307,0.41 -0.325,0.392 -0.341,0.376 -0.359,0.375 -0.375,0.342 -0.393,0.324 -0.392,0.325 -0.427,0.29 -0.427,0.29 -0.444,0.256 -0.444,0.239 -0.478,0.222 -0.478,0.205 -0.478,0.187 -0.495,0.154 -0.512,0.137 -0.512,0.119 -0.529,0.086 -0.529,0.085 v 0.495 l -0.051,0.017 -0.188,0.051 -0.171,0.034 -0.222,0.017 -0.29,0.018 -0.358,0.017 -0.376,-0.017 -0.29,-0.018 -0.239,-0.017 -0.171,-0.017 -0.188,-0.051 -0.051,-0.017 V 11.13 l -0.529,-0.068 -0.529,-0.086 -0.512,-0.119 -0.512,-0.137 -0.495,-0.171 -0.478,-0.17 -0.478,-0.205 -0.461,-0.222 -0.461,-0.239 -0.444,-0.273 -0.427,-0.273 -0.409,-0.29 -0.41,-0.325 L -17.19,8.228 -17.565,7.869 -17.907,7.511 -18.248,7.135 -18.59,6.743 -18.897,6.333 -19.187,5.906 -19.46,5.48 -19.699,5.036 -19.938,4.575 -20.16,4.097 -20.348,3.619 -20.518,3.141 -20.672,2.629 -20.809,2.117 -20.911,1.605 -20.996,1.075 -21.065,0.546 -21.099,0 h 2.39 l 0.034,0.427 0.051,0.409 0.069,0.41 0.102,0.393 0.102,0.392 0.12,0.393 0.137,0.376 0.136,0.375 0.171,0.359 0.188,0.358 0.187,0.341 0.222,0.342 0.222,0.324 0.239,0.325 0.239,0.29 0.273,0.307 0.273,0.273 0.291,0.273 0.29,0.273 0.307,0.239 0.324,0.239 0.325,0.222 0.341,0.205 0.342,0.188 0.358,0.188 0.358,0.153 0.376,0.154 0.393,0.136 0.375,0.12 0.393,0.085 0.409,0.086 0.41,0.068 V 7.835 L -10.669,7.716 -10.737,7.613 -10.805,7.494 -10.908,7.391 -11.01,7.306 -11.13,7.221 -11.232,7.17 -11.318,7.135 -11.625,7.05 -11.915,6.948 -12.205,6.845 -12.495,6.726 -12.786,6.589 -13.059,6.453 -13.332,6.316 -13.588,6.145 -13.844,5.975 -14.083,5.804 -14.339,5.616 -14.561,5.428 -14.8,5.224 -15.005,5.002 -15.227,4.78 -15.414,4.558 -15.619,4.319 -15.79,4.063 -15.978,3.824 -16.131,3.551 -16.285,3.295 -16.439,3.021 -16.575,2.748 -16.695,2.458 -16.797,2.168 -16.9,1.878 -17.002,1.57 -17.07,1.263 -17.139,0.956 -17.19,0.649 -17.241,0.324 -17.258,0 h 2.117 l 0.034,0.273 0.051,0.273 0.051,0.273 0.069,0.256 0.085,0.256 0.102,0.257 0.103,0.239 0.102,0.238 0.137,0.239 0.136,0.222 0.137,0.222 0.153,0.222 0.171,0.205 0.171,0.188 0.171,0.188 0.204,0.187 0.188,0.171 0.205,0.171 0.222,0.153 0.205,0.137 0.239,0.137 0.222,0.136 0.239,0.103 0.256,0.102 0.256,0.102 0.256,0.086 0.256,0.068 0.256,0.051 0.273,0.051 0.273,0.035 0.29,0.017 h 0.273 0.291 L -8.791,5.241 -8.518,5.206 -8.245,5.155 -7.972,5.104 -7.716,5.036 -7.46,4.95 -7.204,4.848 -6.965,4.746 -6.726,4.643 -6.487,4.507 -6.265,4.37 -6.043,4.233 -5.838,4.08 -5.633,3.909 -5.428,3.738 -5.241,3.551 -5.053,3.363 -4.882,3.175 -4.728,2.97 -4.575,2.748 -4.421,2.526 -4.285,2.304 -4.165,2.065 -4.046,1.827 -3.943,1.588 -3.858,1.331 -3.773,1.075 -3.704,0.819 -3.636,0.546 -3.602,0.273 -3.568,0 h 2.134 L -1.468,0.324 -1.502,0.649 -1.57,0.956 -1.622,1.263 -1.707,1.57 -1.792,1.861 -1.895,2.151 -1.997,2.441 -2.134,2.731 -2.253,3.004 -2.407,3.277 -2.561,3.534 -2.714,3.79 -2.885,4.046 -3.073,4.285 -3.26,4.524 -3.465,4.746 -3.67,4.967 -3.875,5.189 -4.097,5.394 -4.336,5.582 -4.575,5.77 l -0.239,0.188 -0.256,0.17 -0.256,0.154 -0.273,0.154 -0.273,0.136 -0.273,0.12 -0.29,0.119 -0.291,0.12 -0.29,0.085 -0.29,0.085 -0.102,0.051 -0.12,0.052 -0.119,0.068 -0.137,0.085 -0.102,0.103 -0.086,0.119 -0.068,0.137 -0.017,0.068 v 0.068 0.871 l 0.41,-0.068 0.392,-0.069 0.41,-0.102 0.375,-0.12 0.393,-0.136 0.376,-0.154 0.358,-0.153 0.358,-0.188 0.342,-0.188 0.341,-0.205 0.325,-0.222 0.324,-0.239 0.307,-0.239 0.307,-0.256 0.274,-0.273 0.273,-0.29 0.273,-0.29 0.256,-0.307 0.222,-0.325 0.239,-0.324 0.205,-0.342 0.187,-0.341 0.188,-0.358 0.171,-0.359 0.154,-0.375 0.136,-0.376 0.12,-0.393 0.102,-0.392 0.085,-0.393 0.069,-0.41 0.051,-0.409 z"
       style="fill:#3b71b4;fill-opacity:1;fill-rule:evenodd;stroke:none"
       transform="matrix(0.35277776,0,0,-0.35277776,136.08519,159.07599)"
       clip-path="url(#clipPath2902)" />
    <path
       id="path2903"
       d="m 0,0 v 0 l -0.222,-0.017 -0.222,-0.017 -0.188,-0.051 -0.17,-0.069 -0.171,-0.068 -0.137,-0.068 -0.119,-0.086 -0.12,-0.085 -0.17,-0.171 -0.12,-0.153 -0.068,-0.103 -0.017,-0.034 -0.12,0.171 -0.136,0.136 -0.137,0.137 -0.136,0.102 -0.154,0.086 -0.136,0.085 -0.154,0.051 -0.137,0.052 L -3.09,-0.034 -3.312,0 h -0.153 -0.086 -9.9 l 0.017,-0.529 0.068,-0.512 0.068,-0.529 0.103,-0.513 h 9.866 l -0.017,0.017 0.171,-0.017 0.171,-0.034 0.204,-0.051 0.222,-0.085 0.222,-0.12 0.222,-0.153 0.103,-0.103 0.119,-0.102 0.085,-0.12 0.103,-0.136 0.085,0.136 0.103,0.137 0.153,0.153 0.205,0.154 0.12,0.085 0.136,0.069 0.154,0.068 0.171,0.051 0.187,0.034 0.205,0.034 V -2.083 H 9.798 L 9.884,-1.57 9.969,-1.041 10.02,-0.529 10.054,0 Z"
       style="fill:#3b71b4;fill-opacity:1;fill-rule:evenodd;stroke:none"
       transform="matrix(0.35277776,0,0,-0.35277776,133.38736,159.41321)"
       clip-path="url(#clipPath2904)" />
    <path
       id="path2905"
       d="m 0,0 -1.485,-1.673 h -0.529 v 0.41 l 1.212,1.724 -1.485,1.707 -1.486,-1.707 1.212,-1.724 v -0.41 H -3.09 L -4.575,0 -6.436,-0.461 -5.565,-1.929 h 2.987 v -0.888 h 0.274 0.034 0.273 v 0.888 H 0.99 l 0.871,1.468 z"
       style="fill:#3b71b4;fill-opacity:1;fill-rule:evenodd;stroke:none"
       transform="matrix(0.35277776,0,0,-0.35277776,133.56198,158.43764)"
       clip-path="url(#clipPath2906)" />
    <path
       id="path2907"
       d="m 0,0 v 0 l -0.12,-0.273 -0.136,-0.29 -0.137,-0.273 -0.136,-0.274 -0.325,-0.529 -0.341,-0.495 -0.393,-0.495 -0.409,-0.444 -0.427,-0.426 -0.478,-0.393 -0.495,-0.376 -0.512,-0.324 -0.529,-0.307 -0.29,-0.137 -0.274,-0.119 -0.29,-0.12 -0.29,-0.102 -0.307,-0.103 -0.29,-0.102 -0.308,-0.068 -0.307,-0.069 -0.307,-0.068 -0.325,-0.051 v 1.451 l 0.478,0.102 0.478,0.12 0.444,0.153 0.461,0.171 0.427,0.205 0.41,0.222 0.409,0.256 0.376,0.273 0.375,0.29 0.342,0.325 0.324,0.324 0.324,0.358 0.273,0.376 0.274,0.393 0.239,0.409 L -1.57,0 h -2.459 l -0.204,-0.256 -0.222,-0.256 -0.239,-0.239 -0.256,-0.222 -0.256,-0.205 -0.274,-0.205 -0.273,-0.17 -0.307,-0.171 -0.29,-0.137 -0.324,-0.136 -0.325,-0.12 -0.324,-0.085 -0.342,-0.068 -0.341,-0.052 -0.358,-0.034 -0.359,-0.017 -0.358,0.017 -0.342,0.034 -0.358,0.052 -0.342,0.068 -0.324,0.085 -0.324,0.12 -0.308,0.136 -0.307,0.137 -0.29,0.171 -0.29,0.17 -0.273,0.205 -0.256,0.205 -0.257,0.222 -0.221,0.239 -0.222,0.256 L -13.4,0 h -2.475 l 0.222,-0.41 0.239,-0.409 0.273,-0.393 0.29,-0.376 0.307,-0.341 0.324,-0.341 0.342,-0.325 0.375,-0.29 0.376,-0.273 0.41,-0.256 0.409,-0.222 0.427,-0.205 0.444,-0.171 0.461,-0.153 0.478,-0.12 0.478,-0.102 v -1.451 l -0.325,0.051 -0.307,0.068 -0.307,0.069 -0.307,0.085 -0.308,0.085 -0.29,0.103 -0.29,0.102 -0.29,0.12 -0.273,0.136 -0.291,0.137 -0.529,0.29 -0.512,0.342 -0.495,0.358 -0.461,0.393 -0.444,0.426 -0.409,0.461 -0.376,0.478 -0.358,0.495 -0.308,0.529 -0.29,0.547 -0.119,0.29 -0.12,0.273 h -2.543 l 0.153,-0.444 0.171,-0.444 0.171,-0.426 0.205,-0.427 0.204,-0.41 0.239,-0.392 0.239,-0.393 0.257,-0.393 0.273,-0.375 0.29,-0.359 0.29,-0.341 0.324,-0.342 0.325,-0.324 0.341,-0.307 0.342,-0.307 0.375,-0.274 0.376,-0.273 0.375,-0.256 0.393,-0.239 0.409,-0.222 0.41,-0.222 0.427,-0.187 0.444,-0.171 0.426,-0.171 0.461,-0.136 0.444,-0.137 0.478,-0.102 0.461,-0.086 0.478,-0.068 0.495,-0.051 0.478,-0.034 h 0.495 0.495 l 0.495,0.034 0.478,0.051 0.478,0.068 0.478,0.086 0.461,0.102 0.461,0.137 0.444,0.136 0.444,0.171 0.426,0.171 0.427,0.187 0.41,0.222 0.409,0.222 0.393,0.239 0.393,0.256 0.375,0.273 0.359,0.274 0.358,0.307 0.324,0.307 0.342,0.324 0.307,0.342 0.307,0.341 0.274,0.359 0.273,0.375 0.273,0.393 0.239,0.393 0.222,0.392 0.222,0.41 0.187,0.427 0.188,0.426 0.154,0.444 L 2.526,0 Z"
       style="fill:#3b71b4;fill-opacity:1;fill-rule:evenodd;stroke:none"
       transform="matrix(0.35277776,0,0,-0.35277776,135.86241,160.48513)"
       clip-path="url(#clipPath2908)" />
  </g>
</svg>
