<?xml version="1.0" encoding="utf-8"?>
<!-- Generator: Adobe Illustrator 28.0.0, SVG Export Plug-In . SVG Version: 6.00 Build 0)  -->
<svg version="1.1" id="svg1" xmlns:svg="http://www.w3.org/2000/svg"
	 xmlns="http://www.w3.org/2000/svg" xmlns:xlink="http://www.w3.org/1999/xlink" x="0px" y="0px" viewBox="0 0 39.1 39.1"
	 style="enable-background:new 0 0 39.1 39.1;" xml:space="preserve">
<style type="text/css">
	.st0{clip-path:url(#SVGID_00000060022966672205490730000016461766861642687922_);fill:#335AA7;}
	.st1{clip-path:url(#SVGID_00000005987123888394311230000013522867535507128465_);fill:#335AA7;}
	.st2{clip-path:url(#SVGID_00000025433130289305723830000009467993982316861330_);fill:#335AA7;}
	.st3{clip-path:url(#SVGID_00000029744208827807888340000014309329638052249000_);fill:#335AA7;}
	.st4{clip-path:url(#SVGID_00000083088660240613732460000008403750696473054362_);fill:#335AA7;}
	.st5{clip-path:url(#SVGID_00000065778430027781727520000000991505171552181670_);fill:#335AA7;}
	.st6{clip-path:url(#SVGID_00000163757840142796244210000017797340682889367976_);fill:#335AA7;}
	.st7{clip-path:url(#SVGID_00000093858818345591181650000003119924785449987775_);fill:#335AA7;}
	.st8{clip-path:url(#SVGID_00000159466313949498357880000000538149856300532157_);fill:#335AA7;}
	.st9{clip-path:url(#SVGID_00000057112704192458687860000017878101143829546895_);fill:#335AA7;}
	.st10{clip-path:url(#SVGID_00000072239508622126670520000000882077468361033610_);fill:#335AA7;}
	.st11{clip-path:url(#SVGID_00000108291461958456313300000001308605319409596801_);fill:#335AA7;}
	.st12{clip-path:url(#SVGID_00000055685381265340682330000010530918406690268839_);fill:#335AA7;}
	.st13{clip-path:url(#SVGID_00000124860745935809403700000000314546292227375013_);fill:#335AA7;}
	.st14{clip-path:url(#SVGID_00000073706894537440265660000015710136932812518795_);fill:#335AA7;}
	.st15{clip-path:url(#SVGID_00000080175306264411273550000006553367313227418019_);fill:#335AA7;}
	.st16{clip-path:url(#SVGID_00000074440637508519267850000012582215561235844513_);fill:#335AA7;}
	.st17{clip-path:url(#SVGID_00000170969237264824485900000007730086386852633997_);fill:#335AA7;}
	.st18{clip-path:url(#SVGID_00000011741212714755299770000012742520546276806556_);fill:#335AA7;}
	.st19{clip-path:url(#SVGID_00000054967707424954659210000009390210143498430896_);fill:#335AA7;}
	.st20{clip-path:url(#SVGID_00000129917370097024376040000012021385079289167528_);fill:#335AA7;}
	.st21{clip-path:url(#SVGID_00000146481673309345297200000015671194909543424673_);fill:#335AA7;}
	.st22{clip-path:url(#SVGID_00000146494494353498738640000017667924731575811475_);fill:#335AA7;}
	.st23{clip-path:url(#SVGID_00000073681441880559720120000006520595723245179799_);fill:#335AA7;}
	.st24{clip-path:url(#SVGID_00000081617969972535373280000004312530198305182141_);fill:#335AA7;}
	.st25{clip-path:url(#SVGID_00000121962507142417620590000015253563579113035416_);fill:#335AA7;}
	.st26{clip-path:url(#SVGID_00000049217412441910447070000008856050904538434488_);fill:#335AA7;}
	.st27{clip-path:url(#SVGID_00000059999094440707172720000013420913129040775047_);fill:#335AA7;}
	.st28{clip-path:url(#SVGID_00000065054599252900865470000009894522066497576104_);fill:#335AA7;}
	.st29{clip-path:url(#SVGID_00000145769152377037309920000015136197300791852217_);fill:#335AA7;}
	.st30{clip-path:url(#SVGID_00000059287260838906732640000015355542605545697427_);fill:#335AA7;}
	.st31{clip-path:url(#SVGID_00000094592388198226403740000001618003106015911346_);fill:#335AA7;}
	.st32{clip-path:url(#SVGID_00000041294241730845243680000001070224992125929857_);fill:#335AA7;}
	.st33{clip-path:url(#SVGID_00000093178944092256273230000009747859983522551474_);fill:#335AA7;}
	.st34{clip-path:url(#SVGID_00000036952808238085070620000008353484669451435689_);fill:#335AA7;}
	.st35{clip-path:url(#SVGID_00000047761437414140217860000016329190208763359400_);fill:#335AA7;}
</style>
<g id="layer1" transform="translate(-125.88388,-173.97592)">
	<g>
		<defs>
			<rect id="SVGID_1_" x="-249.8" y="-515.9" width="1207.6" height="858.9"/>
		</defs>
		<clipPath id="SVGID_00000165940190571861961720000012775182031666652599_">
			<use xlink:href="#SVGID_1_"  style="overflow:visible;"/>
		</clipPath>
		<path id="path3327" style="clip-path:url(#SVGID_00000165940190571861961720000012775182031666652599_);fill:#335AA7;" d="
			M141,183l0.6,1.5l0.6-0.3l-0.9-2.1l-0.5,0.2c0,0.1-0.1,0.3-0.2,0.5c-0.1,0.2-0.3,0.3-0.4,0.4l0.2,0.3
			C140.6,183.5,140.8,183.3,141,183"/>
	</g>
	<g>
		<defs>
			<rect id="SVGID_00000106858734552214992740000003222911096049024426_" x="-249.8" y="-515.9" width="1207.6" height="858.9"/>
		</defs>
		<clipPath id="SVGID_00000096766706399669679630000006125551275809997954_">
			<use xlink:href="#SVGID_00000106858734552214992740000003222911096049024426_"  style="overflow:visible;"/>
		</clipPath>
		<path id="path3329" style="clip-path:url(#SVGID_00000096766706399669679630000006125551275809997954_);fill:#335AA7;" d="
			M143.4,182.1c0.1-0.2,0.4-0.2,0.6-0.1c0.1,0.1,0.2,0.2,0.2,0.3c0,0.1,0,0.2-0.1,0.3c-0.2,0.1-0.4,0.2-0.6,0.1
			c-0.1-0.1-0.1-0.2-0.2-0.3C143.3,182.3,143.3,182.2,143.4,182.1 M143.1,183c0.2,0.1,0.4,0.1,0.7,0.1c0.2,0,0.4-0.1,0.6-0.3
			c0,0.3,0,0.4-0.1,0.5c-0.2,0.2-0.6,0.3-0.7,0l-0.6,0.1c0.1,0.2,0.2,0.3,0.4,0.4c0.4,0.2,1.2,0,1.5-0.3c0.2-0.2,0.3-0.5,0.2-0.9
			c-0.1-0.4-0.2-0.7-0.5-0.8c-0.5-0.3-1.2-0.2-1.6,0.2c-0.2,0.2-0.3,0.4-0.2,0.6C142.7,182.7,142.9,182.9,143.1,183"/>
	</g>
	<g>
		<defs>
			<rect id="SVGID_00000111191948035167322570000007351569666678565818_" x="-249.8" y="-515.9" width="1207.6" height="858.9"/>
		</defs>
		<clipPath id="SVGID_00000137098637555678863950000010961635758231905697_">
			<use xlink:href="#SVGID_00000111191948035167322570000007351569666678565818_"  style="overflow:visible;"/>
		</clipPath>
		<path id="path3331" style="clip-path:url(#SVGID_00000137098637555678863950000010961635758231905697_);fill:#335AA7;" d="
			M146.2,182.6c0-0.3,0.1-0.4,0.1-0.6c0.1-0.2,0.4-0.3,0.6-0.1c0.2,0.1,0.2,0.5,0.1,0.7c0,0.3-0.1,0.4-0.1,0.6
			c-0.1,0.2-0.4,0.3-0.6,0.1C146.1,183.2,146.2,182.8,146.2,182.6 M147.3,183.7c0.2-0.1,0.4-0.4,0.4-0.9c0.1-0.4,0-0.7-0.2-1
			c-0.3-0.4-1.1-0.4-1.5-0.2c-0.2,0.2-0.4,0.5-0.4,0.9c0,0.3,0,0.7,0.2,0.9C146.1,183.8,146.8,183.9,147.3,183.7"/>
	</g>
	<g>
		<defs>
			<rect id="SVGID_00000055700001782558381980000001846788714594922141_" x="-249.8" y="-515.9" width="1207.6" height="858.9"/>
		</defs>
		<clipPath id="SVGID_00000151534886415672645460000001850490130109848454_">
			<use xlink:href="#SVGID_00000055700001782558381980000001846788714594922141_"  style="overflow:visible;"/>
		</clipPath>
		<path id="path3333" style="clip-path:url(#SVGID_00000151534886415672645460000001850490130109848454_);fill:#335AA7;" d="
			M148.3,184.1l0.6,0.2c0.1-0.2,0.2-0.4,0.4-0.6c0.2-0.2,0.4-0.4,0.7-0.5c0.3-0.1,0.5-0.2,0.7-0.3l0.1-0.3l-2-0.8l-0.1,0.4l1.4,0.5
			c-0.4,0.1-0.7,0.3-1,0.5C148.6,183.6,148.4,183.8,148.3,184.1"/>
	</g>
	<g>
		<defs>
			<rect id="SVGID_00000175317868344716589170000004877391937129281934_" x="-249.8" y="-515.9" width="1207.6" height="858.9"/>
		</defs>
		<clipPath id="SVGID_00000065772000180177283810000002781097039989963183_">
			<use xlink:href="#SVGID_00000175317868344716589170000004877391937129281934_"  style="overflow:visible;"/>
		</clipPath>
		<path id="path3335" style="clip-path:url(#SVGID_00000065772000180177283810000002781097039989963183_);fill:#335AA7;" d="
			M142.2,176.9c0.1,0,0.2,0,0.4,0.1c0.3,0,0.6,0.1,0.7,0c0.1,0,0.3-0.1,0.3-0.2c0-0.1,0-0.1-0.1-0.2c-0.1,0-0.1,0-0.2,0
			c-0.2,0-0.5,0.1-0.7,0c-0.1,0-0.1,0-0.1-0.1c0-0.1,0-0.1,0-0.2c0-0.1,0-0.2-0.1-0.2c-0.1,0-0.2,0.1-0.2,0.2
			c-0.1,0.1-0.1,0.1-0.1,0.3C142.1,176.8,142.1,176.8,142.2,176.9"/>
	</g>
	<g>
		<defs>
			<rect id="SVGID_00000110458515047073320830000000913860954786744491_" x="-249.8" y="-515.9" width="1207.6" height="858.9"/>
		</defs>
		<clipPath id="SVGID_00000003790750499013610770000014348549517242079398_">
			<use xlink:href="#SVGID_00000110458515047073320830000000913860954786744491_"  style="overflow:visible;"/>
		</clipPath>
		<path id="path3337" style="clip-path:url(#SVGID_00000003790750499013610770000014348549517242079398_);fill:#335AA7;" d="
			M142.7,179.2c0.1,0.1,0.1,0.1,0.2-0.3c0-0.5,0.1-0.5,0-0.8c0-0.3-0.3-0.5-0.4-0.5c-0.1,0-0.1,0-0.2,0.1c-0.1,0.1,0,0.5-0.2,0.7
			c0,0,0-0.1-0.1-0.2c0-0.1-0.1-0.2-0.1-0.2c-0.1,0-0.1,0-0.1,0.1c-0.1,0.1-0.2,0.2-0.2,0.2c-0.2,0.1-0.1-0.2-0.2-0.3
			c-0.1-0.1-0.2,0.1-0.2,0.3c0,0.1,0.1,0.2,0.1,0.3c0,0.1,0,0.2,0,0.3c0,0.2,0.1,0.3,0.2,0.5c0.1,0.1,0.2,0.1,0.2-0.2
			c0-0.1-0.2-0.4-0.1-0.6c0.1-0.1,0.2-0.1,0.2,0c0.1,0.1,0.1,0.3,0.1,0.3c0.1,0.1,0.1-0.1,0.2-0.1c0-0.1,0-0.2,0.1-0.3
			c0-0.1,0.1-0.1,0.1-0.2c0-0.1,0.1-0.2,0.1-0.2c0.1,0,0.2,0.1,0.2,0.2c0,0.1,0,0.2,0.1,0.3c0,0.1,0,0.4,0,0.6
			C142.7,179.1,142.7,179.2,142.7,179.2"/>
	</g>
	<g>
		<defs>
			<rect id="SVGID_00000119082882056056469180000012446404383060796304_" x="-249.8" y="-515.9" width="1207.6" height="858.9"/>
		</defs>
		<clipPath id="SVGID_00000045594009570000835370000004643516491798136505_">
			<use xlink:href="#SVGID_00000119082882056056469180000012446404383060796304_"  style="overflow:visible;"/>
		</clipPath>
		<path id="path3339" style="clip-path:url(#SVGID_00000045594009570000835370000004643516491798136505_);fill:#335AA7;" d="
			M156.6,184.6c0.2,0.1,0.5,0.1,0.7,0.1c0.3,0,0.5-0.3,0.5-0.3c0,0,0.1,0.1,0.1,0.1c0,0,0.1,0.2,0.2,0.2c0.1,0,0.2-0.1,0.2-0.2
			c0-0.1-0.1-0.1-0.2-0.3c0-0.1,0.1-0.2,0.1-0.2c0,0,0.4,0,0.5,0c0,0,0.1-0.2,0.1-0.3c0,0-0.2-0.2-0.3-0.2c0-0.1-0.4-0.5-0.5-0.5
			c-0.1,0-0.1,0-0.2,0c0,0.1-0.1,0.1-0.2,0.2c0,0,0.1,0.1,0.1,0.2c0.1,0.1,0.1,0.2,0.2,0.2c0.1,0,0.2,0,0.2,0.1
			c0,0.1-0.2,0.2-0.3,0.2c-0.2,0-0.3-0.3-0.6-0.4c-0.1-0.1-0.2-0.1-0.2-0.1c-0.1,0-0.1,0-0.1,0.1c0,0.1,0.1,0.1,0.1,0.2
			c0,0.1,0.1,0.1,0.2,0.2c0.1,0.1,0.3,0.3,0.4,0.3c0,0.1,0.1,0.1-0.1,0.2c-0.2,0.1-0.4,0.1-0.6,0.1c-0.2-0.1-0.3-0.2-0.3-0.3
			c0-0.1-0.1,0-0.1,0.1c0,0.1-0.1,0.2-0.1,0.3C156.5,184.5,156.5,184.5,156.6,184.6"/>
	</g>
	<g>
		<defs>
			<rect id="SVGID_00000031913619530206455100000000454747433082949039_" x="-249.8" y="-515.9" width="1207.6" height="858.9"/>
		</defs>
		<clipPath id="SVGID_00000155114633219379429840000001029938534384776866_">
			<use xlink:href="#SVGID_00000031913619530206455100000000454747433082949039_"  style="overflow:visible;"/>
		</clipPath>
		<path id="path3341" style="clip-path:url(#SVGID_00000155114633219379429840000001029938534384776866_);fill:#335AA7;" d="
			M157.7,182.4c0.1,0,0.2-0.1,0.2-0.1c0,0,0.2,0.2,0.3,0.3c0.1,0.1,0.5,0.6,0.6,0.6c0.2,0.1,0.4,0.5,0.5,0.5c0,0,0,0.1,0,0.1
			c-0.1,0.1-0.1,0.1-0.1,0.1c0,0.1,0.3,0.2,0.3,0.3c0.1,0,0.3,0,0.3-0.1c0-0.1,0-0.1-0.1-0.2c-0.1-0.1,0-0.2-0.2-0.3
			c-0.1-0.1-0.5-0.6-0.5-0.6c0,0,0.3-0.1,0.3,0c0.1,0,0.1,0.1,0.2,0.2c0.1,0,0.1,0,0.1,0c0.1,0,0.1,0,0.4,0c0.3,0,0.3-0.1,0.4-0.2
			c0.1-0.1,0.1-0.2,0-0.3c-0.1-0.1-0.5-0.2-0.6-0.3c-0.1-0.1,0-0.2,0-0.2c0,0-0.1,0-0.2-0.1c-0.1-0.1-0.1-0.1,0-0.2c0,0,0-0.1,0-0.1
			c-0.1-0.1-0.1,0-0.2,0c-0.2,0-0.2,0-0.2,0.1c0,0.1,0,0.1-0.1,0.1c-0.1,0-0.2,0.1-0.3,0.2c-0.1,0.1-0.2,0.2-0.2,0.2
			c0,0,0.1,0,0.1,0c0,0,0.3-0.1,0.4-0.1c0.1,0,0.3-0.1,0.3-0.1c0,0,0.1,0.1,0,0.1c0,0-0.1,0-0.1,0c-0.1,0-0.3,0.1-0.4,0.1
			c-0.1,0.1-0.1,0.1-0.1,0.2c0.1,0.1,0.6,0.1,0.7,0.1c0.1,0,0.1-0.2,0.2-0.2c0.1,0,0.2,0.1,0.3,0.1c0.1,0.1,0.1,0,0.1,0.1
			c0,0.1-0.1,0.1-0.2,0.1c-0.1,0-0.1,0-0.1-0.1c0-0.1,0-0.1-0.1-0.1c-0.1,0-0.2,0.1-0.4,0.1c-0.2,0-0.5,0.1-0.5,0.1
			c-0.1,0-0.4-0.5-0.5-0.6c-0.1-0.1,0-0.1,0-0.2c0,0,0.6-0.4,0.8-0.5c0.2-0.1,0.2-0.2,0.2-0.3c0-0.1-0.3-0.1-0.4,0
			c-0.1,0.1-0.4,0.3-0.5,0.4c-0.1,0.1-0.2,0.2-0.2,0.2c-0.1-0.1-0.1-0.2-0.1-0.3c0-0.1-0.1-0.1-0.2-0.1c-0.1,0-0.2,0.1-0.5,0.3
			c-0.1,0.1-0.2,0.1-0.2,0.1c-0.1,0.1,0,0.1,0,0.2C157.5,182.5,157.6,182.4,157.7,182.4"/>
	</g>
	<g>
		<defs>
			<rect id="SVGID_00000039093019604631985170000008129527081686283908_" x="-249.8" y="-515.9" width="1207.6" height="858.9"/>
		</defs>
		<clipPath id="SVGID_00000091727385772358236300000014937176331998620575_">
			<use xlink:href="#SVGID_00000039093019604631985170000008129527081686283908_"  style="overflow:visible;"/>
		</clipPath>
		<path id="path3343" style="clip-path:url(#SVGID_00000091727385772358236300000014937176331998620575_);fill:#335AA7;" d="
			M139.7,177.6c0.1-0.2,0.1-0.4-0.2-0.6c-0.1,0,0,0.2,0,0.3c0,0,0,0.2,0,0.3C139.5,177.7,139.5,177.9,139.7,177.6"/>
	</g>
	<g>
		<defs>
			<rect id="SVGID_00000165933848042501384590000015391481809320605570_" x="-249.8" y="-515.9" width="1207.6" height="858.9"/>
		</defs>
		<clipPath id="SVGID_00000054965441315511071070000010115805661216983433_">
			<use xlink:href="#SVGID_00000165933848042501384590000015391481809320605570_"  style="overflow:visible;"/>
		</clipPath>
		<path id="path3345" style="clip-path:url(#SVGID_00000054965441315511071070000010115805661216983433_);fill:#335AA7;" d="
			M139.6,176.8c0.1,0,0.1,0,0.2,0c0,0,0,0,0-0.1c-0.1-0.1-0.3-0.4-0.4-0.4c0,0-0.1,0.1-0.1,0.1C139.4,176.6,139.4,176.7,139.6,176.8
			"/>
	</g>
	<g>
		<defs>
			<rect id="SVGID_00000176735714829482746620000001886038313769089675_" x="-249.8" y="-515.9" width="1207.6" height="858.9"/>
		</defs>
		<clipPath id="SVGID_00000121985117084738795620000002527099293072745874_">
			<use xlink:href="#SVGID_00000176735714829482746620000001886038313769089675_"  style="overflow:visible;"/>
		</clipPath>
		<path id="path3347" style="clip-path:url(#SVGID_00000121985117084738795620000002527099293072745874_);fill:#335AA7;" d="
			M149.4,179.2c0.1,0,0.2-0.1,0.5-0.2c0.3-0.1,0.5-0.2,0.6-0.3c0.1-0.1,0.4-0.4,0.5-0.4c0.1,0,0.6,0.3,0.7,0.3
			c0.1,0,0.2-0.1,0.3-0.2c0.1-0.1,0-0.2-0.1-0.2c-0.1,0-0.4-0.1-0.6-0.2c-0.2-0.1,0-0.2,0-0.2c0.1-0.1,0.5-0.4,0.7-0.6
			c0.2-0.2,0.2-0.3,0.2-0.4c0-0.1-0.2-0.1-0.3,0c-0.1,0-0.5,0.3-0.8,0.6c-0.2,0.3-0.3,0.4-0.4,0.3c-0.1,0-0.1,0-0.2-0.1
			c-0.2-0.1-0.3-0.1-0.4-0.1c-0.1,0-0.3,0.1-0.4,0.2c-0.1,0.1,0,0.1,0.1,0.2c0.1,0.1,0.4,0.1,0.5,0.1c0.1,0,0.2,0,0.1,0.1
			c0,0-0.4,0.4-0.6,0.5c-0.1,0.1-0.5,0.3-0.5,0.4C149.2,179.1,149.4,179.2,149.4,179.2"/>
	</g>
	<g>
		<defs>
			<rect id="SVGID_00000145740105816863558820000002986534710191986107_" x="-249.8" y="-515.9" width="1207.6" height="858.9"/>
		</defs>
		<clipPath id="SVGID_00000005267542713470576860000014223294609287883172_">
			<use xlink:href="#SVGID_00000145740105816863558820000002986534710191986107_"  style="overflow:visible;"/>
		</clipPath>
		<path id="path3349" style="clip-path:url(#SVGID_00000005267542713470576860000014223294609287883172_);fill:#335AA7;" d="
			M139.6,177.9c0-0.1-0.1-0.1-0.1,0c0,0.1,0.2,0.7,0.2,1c0,0.3,0,0.6,0.1,1c0,0.2,0.3,0.5,0.4,0.5c0.1,0,0.1-0.1,0-0.4
			c-0.1-0.3-0.1-0.6-0.2-0.9v-0.4C140,178.6,139.8,178.4,139.6,177.9"/>
	</g>
	<g>
		<defs>
			<rect id="SVGID_00000125568255287872424640000000821666768149552560_" x="-249.8" y="-515.9" width="1207.6" height="858.9"/>
		</defs>
		<clipPath id="SVGID_00000013189331425557965410000001489026167391555000_">
			<use xlink:href="#SVGID_00000125568255287872424640000000821666768149552560_"  style="overflow:visible;"/>
		</clipPath>
		<path id="path3351" style="clip-path:url(#SVGID_00000013189331425557965410000001489026167391555000_);fill:#335AA7;" d="
			M140.3,178.4c0,0.2,0,0.3,0.2,0.4c0.1,0,0.2-0.2,0.3-0.2c0.1-0.1,0.1-0.3,0.2-0.6c0-0.2,0-0.4,0-0.5c0-0.1,0.1-0.2,0.3-0.3
			c0,0,0.1,0.1,0.1,0.2c0,0.1-0.1,0.2-0.1,0.2c0,0.1,0,0.2,0,0.3c0.2,0.1,0.3-0.3,0.3-0.6c0-0.1,0-0.2,0-0.3c0-0.1,0.2-0.2,0.2-0.2
			c0,0.1,0.1,0.2,0.2,0.4c0.1,0.1,0.2,0.3,0.3,0.3c0.3,0.1,0.2-0.1,0.2-0.3c0-0.1-0.1,0-0.1-0.1c-0.1,0-0.1,0-0.2,0
			c-0.1-0.1-0.2-0.4-0.2-0.5c0-0.1,0.2-0.1,0.2-0.2c0.1-0.1,0-0.2,0-0.2c0,0-0.5,0.5-0.6,0.6c0,0.1-0.1,0-0.1,0c0,0-0.1-0.2,0.3-0.7
			c0.1-0.1,0.1-0.1,0-0.2c0-0.1-0.1,0-0.2,0c-0.1,0-0.2,0-0.2-0.1c0-0.1,0-0.1,0-0.2c-0.1-0.2-0.3-0.1-0.5,0.1
			c-0.1,0.2-0.5,0.9-0.3,1c0.1,0.1,0.3-0.2,0.5-0.4c0.2-0.2,0.3-0.2,0.4-0.2c0.1,0-0.2,0.6-0.1,1c0,0.1-0.2,0.2-0.2,0.2
			c0,0-0.2-0.3-0.3-0.3c-0.1,0-0.2,0.2-0.1,0.4c0.1,0.2,0.4,0.1-0.1,0.7C140.3,178.1,140.3,178.3,140.3,178.4"/>
	</g>
	<g>
		<defs>
			<rect id="SVGID_00000096052885618528854990000016594985311481837968_" x="-249.8" y="-515.9" width="1207.6" height="858.9"/>
		</defs>
		<clipPath id="SVGID_00000176022526522930098970000007580616200338195102_">
			<use xlink:href="#SVGID_00000096052885618528854990000016594985311481837968_"  style="overflow:visible;"/>
		</clipPath>
		<path id="path3353" style="clip-path:url(#SVGID_00000176022526522930098970000007580616200338195102_);fill:#335AA7;" d="
			M132.6,182.8c0-0.1-0.1-0.2-0.2-0.2c-0.2,0-0.4,0.3-0.3,0.4c0,0.1,0,0.2,0.1,0.1C132.2,183.2,132.6,183,132.6,182.8"/>
	</g>
	<g>
		<defs>
			<rect id="SVGID_00000071547631821239351980000012651126859069619375_" x="-249.8" y="-515.9" width="1207.6" height="858.9"/>
		</defs>
		<clipPath id="SVGID_00000027584480295876734690000008542173614581973929_">
			<use xlink:href="#SVGID_00000071547631821239351980000012651126859069619375_"  style="overflow:visible;"/>
		</clipPath>
		<path id="path3355" style="clip-path:url(#SVGID_00000027584480295876734690000008542173614581973929_);fill:#335AA7;" d="
			M131.9,184.3c0,0,0.4,0.4,0.4,0.4c0.3,0.3,0.6,0.6,0.7,0.6c0.1,0.1,0.3,0,0.3-0.1c-0.1-0.3-0.6-0.6-0.8-0.8
			c-0.2-0.3-0.6-0.6-0.8-0.9c-0.1-0.1-0.1-0.2-0.2-0.3c0-0.1,0-0.1,0-0.2c0-0.1,0.1-0.2,0.2-0.3c0.2-0.2,0.3-0.4,0.4-0.7
			c0-0.1,0.2-0.2,0.2-0.2c0.1-0.1,0.3,0,0.4,0c0.1,0,0.5,0.3,0.9,0.8c0.3,0.3,0.4,0.3,0.5,0.6c0,0.1-0.1,0.1-0.1,0.1
			c-0.1,0.2-0.1,0.3,0.3,0.4c0.1,0,0.2,0.1,0.2,0c0.1,0,0-0.1,0-0.2c-0.1-0.4-0.1-0.5-0.4-1c-0.2-0.2-0.5-0.6-0.9-0.9
			c-0.4-0.3-0.7-0.5-1-0.3c-0.2,0.2-0.1,0.3-0.2,0.4c-0.1,0.1-0.1,0.2-0.2,0.3c-0.1,0.1-0.4,0.3-0.5,0.5c-0.1,0.1-0.2,0.1-0.3,0.1
			c0,0.1-0.1,0.2,0,0.3C131,183.4,131.9,184.3,131.9,184.3"/>
	</g>
	<g>
		<defs>
			<rect id="SVGID_00000101081966811016067590000005752378317047231406_" x="-249.8" y="-515.9" width="1207.6" height="858.9"/>
		</defs>
		<clipPath id="SVGID_00000098932610225083504980000015768338620871061156_">
			<use xlink:href="#SVGID_00000101081966811016067590000005752378317047231406_"  style="overflow:visible;"/>
		</clipPath>
		<path id="path3357" style="clip-path:url(#SVGID_00000098932610225083504980000015768338620871061156_);fill:#335AA7;" d="
			M151.1,179c-0.1,0-0.1,0.1-0.2,0.2c0,0.1,0,0.2,0,0.3c0,0.1,0.2,0.4,0.3,0.5c0.1,0,0.2-0.1,0.3-0.2c0.1-0.2,0.1-0.2,0-0.4
			C151.3,179.2,151.2,179,151.1,179"/>
	</g>
	<g>
		<defs>
			<rect id="SVGID_00000033354826893404870630000010655397670527140741_" x="-249.8" y="-515.9" width="1207.6" height="858.9"/>
		</defs>
		<clipPath id="SVGID_00000168824554347757300120000016330158671567975867_">
			<use xlink:href="#SVGID_00000033354826893404870630000010655397670527140741_"  style="overflow:visible;"/>
		</clipPath>
		<path id="path3359" style="clip-path:url(#SVGID_00000168824554347757300120000016330158671567975867_);fill:#335AA7;" d="
			M133.1,183.6c0,0,0.2,0.1,0.3,0.1c0.1-0.1,0.2-0.4,0.1-0.6c-0.1-0.1-0.1,0-0.3,0c-0.1,0-0.3,0-0.4,0.1c-0.1,0.1-0.2,0.2-0.3,0.4
			c0,0,0,0.1,0,0.2c0.1,0.1,0.2,0.2,0.3,0.2c0.1,0,0.4,0.1,0.4-0.1C133.2,183.8,133,183.7,133.1,183.6L133.1,183.6L133.1,183.6z"/>
	</g>
	<g>
		<defs>
			<rect id="SVGID_00000144315306731084101020000013832731334393726872_" x="-249.8" y="-515.9" width="1207.6" height="858.9"/>
		</defs>
		<clipPath id="SVGID_00000134226778566143297570000004580107691066573474_">
			<use xlink:href="#SVGID_00000144315306731084101020000013832731334393726872_"  style="overflow:visible;"/>
		</clipPath>
		<path id="path3361" style="clip-path:url(#SVGID_00000134226778566143297570000004580107691066573474_);fill:#335AA7;" d="
			M137.6,199.7c0.2,0,0.4,0,0.6,0c0.3,0,0.7,0.1,0.7,0.1c0.2,0.1,0,0.3-0.1,0.6c-0.1,0.3-0.2,0.6-0.3,0.6c-0.1,0-0.2-0.1-0.3-0.1
			c-0.2-0.1-0.5-0.5-0.6-0.7C137.4,199.9,137.2,199.8,137.6,199.7 M138.2,197.2c-0.4-0.7-0.6-1.5-0.5-2.3c0.1-0.7,0.1-1,0.2-1.2
			c0.1-0.1,0.2-0.2,0.3-0.2c0.2-0.1,0.3-0.1,0.5,0.1c0.4,0.5,0.6,0.7,0.9,0.9c0.2,0.1,0.5,0.1,0.7,0.1c0.1,0,0.2,0,0.2,0
			c0,0.1-0.1,0.4-0.2,0.8c-0.1,0.3-0.2,0.7-0.3,1c-0.3,0.7-0.4,1.7-0.6,1.7C139.2,198.2,138.7,197.9,138.2,197.2 M139.2,192
			c0.4-0.6,1.3-1,2-1c0.2,0,0.4,0,0.4,0.1c0,0.5-0.3,1-0.4,1.4c-0.1,0.2-0.2,0.5-0.3,0.8c-0.2,0.6,0,0.7-0.5,0.8
			c-0.5,0-0.8-0.2-1-0.7C139.2,193,138.7,192.8,139.2,192 M140.3,198.9c0.5,0,0.7,0,0.9,0.5c0.2,0.4,0.3,0.9,0.2,1.1
			c-0.1,0.4-0.9,1.2-1.2,1.4c-0.1,0-0.1,0.1-0.2,0.1c-0.4,0.1-0.4-0.1-0.7-0.3c-0.2-0.2-0.5-0.1-0.5-0.4c0-0.2,0.2-0.8,0.4-1.4
			c0-0.2,0.5,0.2,0.6-0.2c0.1-0.2-0.3-0.7-0.3-0.9C139.8,198.9,140,198.9,140.3,198.9 M141.7,201.4c0,0,0.1,0,0.1,0
			c0.1,0,0.5,1.1,0.6,1.3c0,0.1,0,0.1,0,0.2c-0.1,0.1-1,0-1.2-0.1c-0.2,0-0.3-0.1-0.2-0.4c0-0.1,0.1-0.3,0.2-0.5
			C141.4,201.7,141.5,201.5,141.7,201.4 M142.4,200.7c0.1-0.2,0.2-0.1,0.5,0.1c0.3,0.1,0.5,0.3,0.8,0.4c0.2,0.1,0.3,0.2,0.1,0.8
			c-0.2,0.6-0.3,0.9-0.5,0.9c-0.4,0.1-0.5-0.5-0.6-0.7c-0.2-0.5-0.3-0.7-0.4-1C142.4,201,142.3,200.9,142.4,200.7 M142.9,194.7
			c0-0.4,0.1-0.9,0.3-1.1l0,0c0,0,0,0,0.1-0.1c0.3-0.1,0.9,0.7,1.3,1c0.2,0.1,0.6,0.1,0.9,0.1c0.1,0,0.2,0,0.2,0.1
			c0,0.1,0,0.4-0.1,0.8c0,0.1,0,0.2-0.1,0.4c-0.2,0.9-0.4,2.1-0.6,2.1c-0.1,0-0.2,0-0.4-0.1C143.5,197.3,142.7,195.9,142.9,194.7
			 M144.4,191.4c0.3-0.4,0.6-0.6,1.1-0.8c0.2-0.1,1.4-0.5,1.4-0.1c0,0,0.1,0.3-0.2,1.2c-0.3,0.9-0.6,2.3-0.8,2.4
			c-0.3,0.1-1-0.1-1.1-0.4C144.3,193,143.8,192.1,144.4,191.4 M145.6,199.3c0.1,0.1,0.2,0.2,0.4,0.3c0.3,0.2,0.6,0.3,0.6,0.9
			c0.1,0.6,0.4,1.1,0.5,1.3c0.1,0.4-0.8,1.1-1.1,1.2c-0.4,0.2-1.5,0.5-1.8,0.1c-0.2-0.3,0-0.7,0.1-1.2c0.1-0.2,0.1-0.3,0.1-0.5
			c0.2-0.8,0.3-0.7,0.4-1.3c0.1-0.6,0.2-0.8,0.3-0.9C145.4,199.2,145.5,199.2,145.6,199.3 M147.3,202.7c0.1,0,0.3,0,0.2,0.3
			c-0.1,0.2-0.1,0.3-0.3,0.3c-0.1,0-0.1,0-0.2,0.1c-0.3,0.1-0.4,0-0.3-0.2c0.1-0.1,0.2-0.3,0.4-0.4
			C147.1,202.7,147.2,202.7,147.3,202.7 M144.1,198.7c0-0.2,0.5,0.2,0.6,0.2c0.2,0.1,0.1,0.2,0,0.6c0,0.2-0.1,0.7-0.2,0.8
			c0,0,0,0,0,0c-0.2,0-0.2-0.6-0.3-0.8C144.1,199.2,144,199.2,144.1,198.7 M148.4,201.7c0.2-0.1,0.4-0.2,0.5-0.4
			c0.2-0.1,0.3-0.2,0.5-0.3c0.1-0.1,0.3-0.1,0.3,0c0,0,0,0.1,0,0.2c0,0.1,0,0.1-0.1,0.2c-0.2,0.6-0.3,1.6-0.7,1.7
			c-0.1,0-0.1,0-0.2,0c-0.3-0.1-0.8-0.3-0.8-0.5C148,202.3,148,202,148.4,201.7 M148.8,196c0.1-0.4,0.2-0.8,0.3-1.2
			c0.1-0.5,0.3-0.9,0.4-1.1c0.1-0.2,0.2-0.1,0.3,0c0.2,0.2,1,0.7,1.2,0.7c0.1,0,0.3,0,0.3-0.1c0,0.5-0.2,1.1-0.3,1.6
			c-0.1,0.3-0.1,1-0.2,1.4c0,0.1-0.1,0.3-0.2,0.3c-0.2,0.1-0.6,0.1-0.9,0.1C148.9,197.6,148.7,196.8,148.8,196 M150.6,191.6
			c0.2-0.3,0.5-0.5,0.7-0.7c0.2-0.2,0.5-0.4,0.6-0.5c0.4-0.2,0.4,0.2,0.3,0.5c-0.1,0.3-0.4,1.2-0.5,1.7c-0.1,0.4-0.2,1.1-0.4,1.2
			c-0.2,0.1-0.5,0-0.6-0.1c-0.2-0.1-0.5-0.5-0.5-0.9C150.2,192.1,150.3,192,150.6,191.6 M149.7,200.2c-0.1,0-0.2-0.2-0.4-0.6
			c-0.2-0.3-0.2-0.7,0-1c0.1-0.1,0.3-0.2,0.4-0.2c0.1,0,0.2,0,0.4,0c0.2,0.1,0.2,0.2,0.1,0.6c-0.1,0.3-0.1,0.5-0.1,0.7
			C150,199.9,149.9,200.2,149.7,200.2 M151.3,198.3c0.3-0.1,0.7-0.2,1-0.2c0.4,0,0.8,1.4,0.8,1.7c0,0.3-0.4,1.2-0.6,1.4
			c-0.2,0.2-0.6,0.6-1.2,0.9c-0.3,0.1-0.9,0.4-1.2,0.5c0,0-0.1,0-0.1,0c-0.1,0-0.1-0.1-0.1-0.4c0-0.2,0.1-0.5,0.1-0.7
			c0-0.1,0.1-0.2,0.1-0.3c0.1-0.3,0.2-0.7,0.3-0.9c0.1-0.4,0.2-1.1,0.4-1.6c0.1-0.1,0.1-0.2,0.2-0.3
			C151.1,198.4,151.2,198.4,151.3,198.3 M153.5,200.7c0.8-1,0.9-2.3,0.9-3.5c0-1.2-0.1-2.4,0-2.2c0.2,0.2,0.5,1.7,0.5,2.5
			c0,1.3,0,1.9-0.5,2.7c-0.2,0.3-0.5,0.6-0.7,0.9C153.1,201.5,153.2,201.2,153.5,200.7 M154.2,191.4c0.2-0.3,0.4-0.6,0.5-0.7
			c0.3-0.3,0.5,0,0.5,0.2c0,0.3-0.3,0.6-0.5,0.8c-0.5,0.4-0.4,0.7-0.5,0.8c0,0-0.1,0.1-0.1,0.1c-0.1,0-0.1-0.3-0.1-0.5
			C153.9,191.9,154.1,191.6,154.2,191.4 M134.7,195.5c-0.2,1.4-0.6,2.3,0,3.6c0.6,1.4,3.1,4,3.1,4s-0.1,0.3-0.2,0.6
			c-0.1,0.3,0.1,0.3,0.3,0.3c0.1,0,0.2-0.2,0.2-0.3c0.1-0.2,0.2-0.4,0.2-0.4c0.3,0.2,1.2,0.8,2,1.1c0.7,0.3,1.4,0.4,2.1,0.4
			c0.4,0,0.6,0.1,0.5,0.2c0,0.1,0,0.2-0.1,0.4c0,0.1-0.1,0.3-0.1,0.3c0.1,0.1,0.4,0.2,0.5,0c0.1-0.1,0.1-0.3,0.2-0.5
			c0.1-0.3,0.1-0.4,0.1-0.4c1.2,0.1,2.4,0,3.6,0h1.4c0,0,0,0.2-0.1,0.4c-0.1,0.2,0,0.1,0,0.3c0,0,0.3,0.1,0.5,0
			c0.2-0.2,0.1-0.6,0.3-0.8c0,0,0.2-0.1,0.5-0.1c1-0.2,1.9-0.7,2.7-1.3c1-0.7,2.3-2,2.9-2.9c0.5-0.8,0.7-1.7,0.8-2.1
			c0.2-0.5,0-1.2-0.3-2.1c-0.3-0.9-0.6-2.1-0.8-2.8c-0.2-0.7-0.2-1.3,0-1.6c0.2-0.3,0.2-0.3,0.5-0.2c0.3,0.1,0.4,0.5,0.3,1.7
			c-0.1,1.4,0,1.7,0.4,0.9c0.3-0.8,0.3-1.6,0.3-2.1c0.1-0.5,0.2-1,0.3-1.3c0.1-0.3-0.2-1.7-0.7-2.4c-0.8-1.2-1.9-2.3-2.9-3.3
			c-0.6-0.5-1.1-0.9-1.7-1.1c-0.2-0.1-0.4-0.2-0.7-0.2c-0.4-0.1-0.4,0,0,0.3c0.2,0.1,0.4,0.2,0.5,0.3c1.1,0.7,2.2,2.1,2.9,3.3
			c0.7,1.1,0.8,1.9,0.8,1.9c-0.8,0.4-1.4,1.1-1.6,2c-0.3,1.4-0.2,7.1-0.2,7.1c0-0.1-0.4-1.3-0.6-1.4c-0.2-0.1-0.9,0.1-1.3,0h0
			c-0.2-0.1,0.3-2.3,0.5-3.1c0-0.2,0.4-0.1,0.5-0.7c0-0.2-0.2-0.3-0.2-0.5c0.4-1.5,0.8-2.7,1-2.8c1.3-0.4,0-0.6,0-0.6
			s-0.4-0.1-0.8,0c-0.1,0-0.3,0.1-0.6,0.3c-0.1-0.1-0.2-0.3-0.3-0.5c-0.3-0.3-0.7-0.7-1.2-0.8c-0.1,0-0.5,0-0.6,0.1
			c-0.4,0.4-0.2,0.7,0.2,0.8c0.3,0.1,0.7,0.1,1,0.3c0.2,0.1,0.3,0.2,0.5,0.3c-0.1,0.1-0.3,0.2-0.5,0.3c-0.5,0.3-1.1,0.7-1.5,1.2
			c-0.7,1.2-1.4,2.4-1.8,3.7c-0.4,1.4,0,3.1,0.2,3.5c0.2,0.4,1,1.1,0.8,1.6c-0.1,0.3-0.6,0.9-0.8,0.9c-0.2,0-0.4-1.5-0.5-1.9
			c0-0.1-0.1-0.2-0.2-0.3c-0.5-0.5-1.5-1.1-1.5-1.1c0,0-0.1-0.1-0.1-0.2V198c0.1-0.7,0.6-2.3,0.7-2.9c0-0.1,0-0.2,0.1-0.4
			c0-0.2,0.5,0,0.4-0.6c0-0.1-0.1-0.4-0.1-0.5c0.2-0.7,0.4-1.5,0.6-2c0,0,0,0,0,0c0.2-0.5,0.3-0.8,0.3-0.9c0.1-0.2,0.5-0.3,0.7-0.4
			c0.3,0,0.3-0.2,0.1-0.4c0,0-0.2-0.1-0.4-0.1c-0.6-0.1-1.3-0.1-1.8,0.1c-0.4,0.1-0.8,0.2-1.2,0.2c-0.2,0.1-0.7-0.8-0.9-1
			c-0.2-0.1-0.6-0.4-0.8-0.1c-0.2,0.2-0.2,0.7,0,0.8c0.2,0.1,0.4,0.1,0.7,0.2c0.3,0.1,0.5,0.4,0.4,0.6c-0.3,0.5-0.6,0.8-0.9,1.2
			c-0.9,1.3-2,3.2-1.5,4.8c0.3,0.8,0.6,1.5,1,2.2c0.1,0.2,0.3,0.8,0.3,1.1c0,0.3-0.6,0.3-0.8,0.3c-0.3,0-0.4,0-0.5-0.7
			c0-0.2-0.1-0.4-0.1-0.5v0c-0.2-0.6-0.9-0.4-1.4-0.4c-0.1,0-0.3,0-0.3,0c-0.1,0,0.1-0.7,0.3-1.6c0.2-0.8,0.5-1.8,0.6-2.3
			c0-0.1,0.2,0,0.3-0.1c0.1,0,0.1,0,0.1-0.1c0-0.1,0-0.3,0-0.4c0-0.1-0.1-0.1-0.2-0.1c0,0-0.1,0,0-0.1c0-0.1,0-0.1,0-0.2
			c0.2-0.5,0.3-1,0.5-1.5c0.1-0.4,0.2-0.7,0.3-0.7c0-0.1,0.2-0.1,0.4-0.1c0.1,0,0.1,0,0.2,0c0.1-0.1,0.2-0.4-0.1-0.6
			c-0.2-0.1-0.5-0.1-0.7-0.1h-0.5c-0.4,0-0.7,0-0.9,0c-0.5-0.2-0.2-0.7-0.6-0.9c-0.8-0.5-1,0.2-0.7,0.5c0.3,0.4,0.6,0.2,0.6,0.7
			c0,0.2-2,1.9-2.3,2.4c-0.3,0.5-0.8,2.2-0.6,3c0.1,0.8,0.2,1.3,0.9,2c0.2,0.2,0.4,0.3,0.6,0.4h0c0.3,0.2,0.6,0.3,0.6,0.4
			c0,0.1-0.2,0.1-0.6,0.1c-0.1,0-0.3,0-0.4,0c-0.3,0-0.6,0.2-0.7,0.2c-0.2,0-1.1-0.8-1.4-1.7c-0.2-0.9,0.5-2.8,0.6-3.3
			c0.1-0.6-0.2-3.9-0.2-4.2c0-0.3,0.4-0.6,1-0.7c0.5,0,0.9,0.3,1.1,0.5l0,0c0.1,0,0.1,0,0.1,0c0.2,0,0.2-0.5-0.1-1c0,0,0,0,0,0
			c0,0-0.1-0.1-0.1-0.1c-0.5-0.6-1-0.3-1.2-0.6c-0.1-0.2,0.3-0.3,0.6-0.7c0.4-0.4,0.3-0.8,0.1-1.3c-0.3-0.5-1.4-0.7-1.3-0.4
			c0.1,0.3,0.4,0.5,0.3,1.1c-0.1,0.7-0.6,0.8-1.2,1.3c-0.5,0.5-1,0.7-0.8,2.3C134.8,191.9,134.9,194.1,134.7,195.5"/>
	</g>
	<g>
		<defs>
			<rect id="SVGID_00000060748376564094622370000011969020373378020247_" x="-249.8" y="-515.9" width="1207.6" height="858.9"/>
		</defs>
		<clipPath id="SVGID_00000027579208178090229510000006978589514380568737_">
			<use xlink:href="#SVGID_00000060748376564094622370000011969020373378020247_"  style="overflow:visible;"/>
		</clipPath>
		<path id="path3363" style="clip-path:url(#SVGID_00000027579208178090229510000006978589514380568737_);fill:#335AA7;" d="
			M155.3,207.4c0,0.2,0,0.5-0.1,0.7c-0.2,0.2-0.4,0.3-0.7,0.4c-0.2,0.1-0.3,0-0.4-0.1l-0.5-0.7l0.5-0.3c0.3-0.2,0.4-0.1,0.6,0.1l0,0
			l-0.5-0.8l-0.1,0c0.2,0.3,0.1,0.4-0.1,0.6l-0.5,0.3l-0.6-0.9l0.6-0.4c0.1-0.1,0.2-0.1,0.2-0.1c0.1,0,0.1,0,0.2,0
			c0.1,0,0.1,0.1,0.2,0.2l0.1,0l-0.3-0.5l-1.8,1.1l0,0.1c0.1-0.1,0.2-0.2,0.3-0.1c0.1,0,0.1,0.1,0.2,0.2l1,1.5
			c0.1,0.1,0.2,0.2,0.1,0.4c0,0.1-0.1,0.1-0.1,0.1l-0.1,0.1l0,0.1l1.8-1.1L155.3,207.4L155.3,207.4z"/>
	</g>
	<g>
		<defs>
			<rect id="SVGID_00000145042634978723633570000003244695718910953144_" x="-249.8" y="-515.9" width="1207.6" height="858.9"/>
		</defs>
		<clipPath id="SVGID_00000157285198286270758780000013294496766030382494_">
			<use xlink:href="#SVGID_00000145042634978723633570000003244695718910953144_"  style="overflow:visible;"/>
		</clipPath>
		<path id="path3365" style="clip-path:url(#SVGID_00000157285198286270758780000013294496766030382494_);fill:#335AA7;" d="
			M161.6,200.7c-0.1,0.2-0.3,0.2-0.5,0.1l-1.6-0.8c-0.2-0.1-0.2-0.1-0.3-0.2c-0.1-0.1,0-0.2,0.1-0.3l-0.1,0l-0.5,1l0.1,0l0-0.1
			c0.1-0.2,0.3-0.2,0.5-0.1l1.6,0.8c0.2,0.1,0.4,0.2,0.2,0.4l-0.1,0.1l0.1,0l0.5-1L161.6,200.7L161.6,200.7z"/>
	</g>
	<g>
		<defs>
			<rect id="SVGID_00000139982348493484358180000000942713324848617396_" x="-249.8" y="-515.9" width="1207.6" height="858.9"/>
		</defs>
		<clipPath id="SVGID_00000069374539577452709170000001149475471142906539_">
			<use xlink:href="#SVGID_00000139982348493484358180000000942713324848617396_"  style="overflow:visible;"/>
		</clipPath>
		<path id="path3367" style="clip-path:url(#SVGID_00000069374539577452709170000001149475471142906539_);fill:#335AA7;" d="
			M128,194.6l2.1-0.1l0,0.4c0,0.1,0,0.2,0,0.3c0,0.1-0.1,0.1-0.2,0.2c0,0-0.1,0.1-0.2,0.1l0,0.1l0.6-0.1l-0.2-2.2l-0.6,0v0.1
			c0.1,0,0.2,0,0.3,0.1c0.1,0.1,0.1,0.1,0.1,0.2c0,0,0,0.1,0.1,0.3l0,0.3l-2.1,0.1c-0.2,0-0.3,0-0.3,0c-0.1,0-0.1-0.1-0.1-0.2l0-0.1
			l-0.1,0l0.1,1.2l0.1,0v-0.1c0-0.1,0-0.2,0-0.3C127.7,194.6,127.8,194.6,128,194.6"/>
	</g>
	<g>
		<defs>
			<rect id="SVGID_00000125587304599554236820000004471201671069214135_" x="-249.8" y="-515.9" width="1207.6" height="858.9"/>
		</defs>
		<clipPath id="SVGID_00000130617927658134098840000006207866139178740910_">
			<use xlink:href="#SVGID_00000125587304599554236820000004471201671069214135_"  style="overflow:visible;"/>
		</clipPath>
		<path id="path3369" style="clip-path:url(#SVGID_00000130617927658134098840000006207866139178740910_);fill:#335AA7;" d="
			M151.1,207.4L151.1,207.4c0.1,0,0.1,0,0.2,0c0.2,0,0.2,0.2,0.2,0.4l-0.1,1.7l-1.2-1.3c-0.2-0.2-0.3-0.4,0-0.5l0-0.1l-1.1,0.4
			l0,0.1c0.2-0.1,0.4,0,0.5,0.2l1.7,1.9l0.1,0l0.1-2.5c0-0.2,0-0.4,0.2-0.5l0-0.1L151.1,207.4z"/>
	</g>
	<g>
		<defs>
			<rect id="SVGID_00000179628715288064484520000014355461101660469144_" x="-249.8" y="-515.9" width="1207.6" height="858.9"/>
		</defs>
		<clipPath id="SVGID_00000114761524617916942260000005380341358883755442_">
			<use xlink:href="#SVGID_00000179628715288064484520000014355461101660469144_"  style="overflow:visible;"/>
		</clipPath>
		<path id="path3371" style="clip-path:url(#SVGID_00000114761524617916942260000005380341358883755442_);fill:#335AA7;" d="
			M132.4,201.6c0.1,0,0.1,0.1,0.2,0.2l0,0.1l0.1,0l-0.4-0.9l-0.1,0c0.1,0.1,0.1,0.2,0.1,0.3c0,0-0.1,0.1-0.3,0.2l-1.4,0.7l1.1-2.4
			l-0.3-0.7l-0.1,0c0.1,0.2,0.1,0.4,0,0.6l-1.7,0.9c-0.1,0.1-0.2,0.1-0.3,0.1c-0.1,0-0.2-0.2-0.2-0.3l-0.1,0l0.4,0.8l0.1,0l-0.1-0.1
			c0-0.1,0-0.2,0-0.3c0,0,0.1-0.1,0.3-0.2l1.5-0.8l-1.1,2.6l0,0.1l2-1C132.2,201.6,132.3,201.6,132.4,201.6"/>
	</g>
	<g>
		<defs>
			<rect id="SVGID_00000041974495887389146130000000559007141795007124_" x="-249.8" y="-515.9" width="1207.6" height="858.9"/>
		</defs>
		<clipPath id="SVGID_00000081622017240884013010000008114218903478825400_">
			<use xlink:href="#SVGID_00000041974495887389146130000000559007141795007124_"  style="overflow:visible;"/>
		</clipPath>
		<path id="path3373" style="clip-path:url(#SVGID_00000081622017240884013010000008114218903478825400_);fill:#335AA7;" d="
			M128.6,198.6c-0.2-0.1-0.4-0.3-0.5-0.5c-0.1-0.2,0-0.4,0.1-0.6c0.4-0.6,2.1-1,2.4,0C130.9,198.3,129.3,198.9,128.6,198.6
			 M130.6,198.4c0.4-0.6,0.2-1.4-0.4-1.8c-0.7-0.4-1.6-0.2-2,0.5c-0.2,0.3-0.2,0.7-0.1,1C128.3,199.3,130,199.3,130.6,198.4"/>
	</g>
	<g>
		<defs>
			<rect id="SVGID_00000165920504035375570650000005797190597639878027_" x="-249.8" y="-515.9" width="1207.6" height="858.9"/>
		</defs>
		<clipPath id="SVGID_00000057150328152382450710000015287797023603186086_">
			<use xlink:href="#SVGID_00000165920504035375570650000005797190597639878027_"  style="overflow:visible;"/>
		</clipPath>
		<path id="path3375" style="clip-path:url(#SVGID_00000057150328152382450710000015287797023603186086_);fill:#335AA7;" d="
			M132.7,205.8l0.6-0.5c0.1-0.1,0.2-0.2,0.2-0.2c0.1,0,0.1,0,0.2,0.1l0,0l0.1,0l-0.7-0.8l-0.1,0.1c0.1,0.1,0.1,0.1,0.1,0.2
			c0,0.1,0,0.1,0,0.1c0,0-0.1,0.1-0.2,0.2l-0.6,0.5c-0.1,0-0.2-0.1-0.3-0.1c-0.1-0.1-0.2-0.1-0.2-0.2c-0.1-0.1-0.2-0.3-0.2-0.5
			c0-0.2,0-0.4,0.1-0.6c0.1-0.2,0.2-0.4,0.4-0.6c0.3-0.2,0.5-0.3,0.8-0.4c0.3,0,0.6,0.1,0.8,0.3c0.2,0.2,0.2,0.4,0.2,0.6
			c0,0.2-0.1,0.3-0.2,0.5l0,0.1l0.6-0.6l-0.1-0.1c0,0-0.1,0.1-0.1,0.1c0,0-0.1,0-0.1,0c0,0,0-0.1-0.1-0.2c-0.1-0.1-0.1-0.2-0.1-0.3
			c0-0.1-0.1-0.1-0.2-0.2c-0.2-0.2-0.4-0.3-0.6-0.4c-0.8-0.3-1.8,0.2-1.9,1.1c-0.1,0.4,0,0.8,0.4,1.3c0.1,0.1,0.2,0.2,0.4,0.3
			C132.4,205.7,132.6,205.8,132.7,205.8"/>
	</g>
	<g>
		<defs>
			<rect id="SVGID_00000070811738047668393580000007955600335109100721_" x="-249.8" y="-515.9" width="1207.6" height="858.9"/>
		</defs>
		<clipPath id="SVGID_00000164480813962117496750000014312176143467657883_">
			<use xlink:href="#SVGID_00000070811738047668393580000007955600335109100721_"  style="overflow:visible;"/>
		</clipPath>
		<path id="path3377" style="clip-path:url(#SVGID_00000164480813962117496750000014312176143467657883_);fill:#335AA7;" d="
			M148.4,210.5l-0.3-1.7c0-0.2,0-0.3,0-0.3c0-0.1,0.1-0.1,0.2-0.1l0.1,0l0-0.1l-1.2,0.2l0,0.1c0.3,0,0.4,0,0.5,0.3l0.3,1.7
			c0.1,0.2,0.1,0.4-0.2,0.5l-0.1,0l0,0.1l1.1-0.2l0-0.1C148.5,210.9,148.5,210.8,148.4,210.5"/>
	</g>
	<g>
		<defs>
			<rect id="SVGID_00000016036687611140114240000001025440511622568594_" x="-249.8" y="-515.9" width="1207.6" height="858.9"/>
		</defs>
		<clipPath id="SVGID_00000093164338724368196930000014253394700148605884_">
			<use xlink:href="#SVGID_00000016036687611140114240000001025440511622568594_"  style="overflow:visible;"/>
		</clipPath>
		<path id="path3379" style="clip-path:url(#SVGID_00000093164338724368196930000014253394700148605884_);fill:#335AA7;" d="
			M136.2,205.6c0.1,0,0.2,0,0.2,0.1l0.1,0l0.1,0l-0.9-0.7l-0.1,0.1l0.1,0.1c0,0,0.1,0.1,0.1,0.1c0,0.1,0,0.1,0,0.1
			c0,0-0.1,0.1-0.1,0.2l-1.2,1.5c-0.1,0.1-0.1,0.1-0.2,0.1c0,0-0.1,0-0.1,0c0,0,0-0.1,0-0.2c0-0.1,0-0.2,0-0.2c0-0.1,0-0.1,0-0.1
			c-0.1,0-0.1-0.1-0.2-0.1c0,0-0.1,0.1-0.1,0.1c-0.1,0.1-0.1,0.1-0.1,0.2c0,0.1,0.1,0.2,0.2,0.3c0.1,0.1,0.2,0.2,0.4,0.1
			c0.1,0,0.3,0,0.4-0.1c0.1-0.1,0.2-0.2,0.4-0.3l0.8-1C136.1,205.7,136.2,205.7,136.2,205.6"/>
	</g>
	<g>
		<defs>
			<rect id="SVGID_00000142163742444308909930000017081365538445944242_" x="-249.8" y="-515.9" width="1207.6" height="858.9"/>
		</defs>
		<clipPath id="SVGID_00000114776406345902334570000017907656721935433093_">
			<use xlink:href="#SVGID_00000142163742444308909930000017081365538445944242_"  style="overflow:visible;"/>
		</clipPath>
		<path id="path3381" style="clip-path:url(#SVGID_00000114776406345902334570000017907656721935433093_);fill:#335AA7;" d="
			M137.2,206.2L137.2,206.2c0.1,0.1,0.2,0.1,0.2,0.2c0,0,0,0.1,0,0.1c0,0,0,0.1-0.1,0.2l-0.9,1.5c-0.1,0.1-0.1,0.2-0.2,0.2
			c-0.1,0-0.2,0-0.3,0l-0.1-0.1l0,0.1l1,0.6l0-0.1l-0.1,0c-0.1,0-0.1-0.1-0.1-0.1c0,0,0-0.1,0-0.1c0-0.1,0-0.1,0.1-0.3l0.9-1.5
			c0.1-0.1,0.1-0.2,0.2-0.2c0.1,0,0.2,0,0.3,0l0.1,0l0-0.1L137.2,206.2L137.2,206.2z"/>
	</g>
	<g>
		<defs>
			<rect id="SVGID_00000166670411751276048450000009636450930445058968_" x="-249.8" y="-515.9" width="1207.6" height="858.9"/>
		</defs>
		<clipPath id="SVGID_00000041984608846245918250000004797818771813443468_">
			<use xlink:href="#SVGID_00000166670411751276048450000009636450930445058968_"  style="overflow:visible;"/>
		</clipPath>
		<path id="path3383" style="clip-path:url(#SVGID_00000041984608846245918250000004797818771813443468_);fill:#335AA7;" d="
			M162.6,197.9c0,0.1-0.1,0.2-0.1,0.2c0,0-0.1,0-0.3,0l-2-0.5l0.1-0.4c0-0.1,0.1-0.2,0.1-0.2c0.1-0.1,0.3-0.1,0.5-0.1l0-0.1
			l-0.6-0.1l-0.6,2.2l0.6,0.2l0-0.1c-0.1,0-0.2-0.1-0.3-0.1c-0.1-0.1-0.1-0.1-0.1-0.2c0-0.2,0.1-0.4,0.1-0.6l2,0.5
			c0.2,0.1,0.4,0.1,0.3,0.4l0,0.1l0.1,0l0.3-1.1L162.6,197.9L162.6,197.9z"/>
	</g>
	<g>
		<defs>
			<rect id="SVGID_00000178185741446920952580000002164383088112902835_" x="-249.8" y="-515.9" width="1207.6" height="858.9"/>
		</defs>
		<clipPath id="SVGID_00000180363478701619657310000001739069903591066015_">
			<use xlink:href="#SVGID_00000178185741446920952580000002164383088112902835_"  style="overflow:visible;"/>
		</clipPath>
		<path id="path3385" style="clip-path:url(#SVGID_00000180363478701619657310000001739069903591066015_);fill:#335AA7;" d="
			M160.7,193L160.7,193l-0.2,0.9l0.1,0c0-0.1,0-0.1,0-0.2c0.1-0.1,0.2-0.1,0.3,0c0,0,0.1,0.1,0.1,0.1l0.8,0.6L161,195
			c-0.1,0.1-0.3,0.2-0.4,0c0-0.1,0-0.1,0-0.2v-0.1h-0.1l-0.1,1.2h0.1c0,0,0-0.1,0-0.1c0.1-0.2,0.2-0.2,0.4-0.3l1.2-0.7l0.6,0
			c0.2,0,0.4,0,0.4,0.3v0.1h0.1l0.1-1.2l-0.1,0l0,0.1c0,0.3-0.1,0.3-0.4,0.3l-0.7,0l-1-0.7C160.9,193.5,160.7,193.3,160.7,193
			L160.7,193z"/>
	</g>
	<g>
		<defs>
			<rect id="SVGID_00000170244665957115876870000003759167551464546961_" x="-249.8" y="-515.9" width="1207.6" height="858.9"/>
		</defs>
		<clipPath id="SVGID_00000036934307195909161910000010612280652984646567_">
			<use xlink:href="#SVGID_00000170244665957115876870000003759167551464546961_"  style="overflow:visible;"/>
		</clipPath>
		<path id="path3387" style="clip-path:url(#SVGID_00000036934307195909161910000010612280652984646567_);fill:#335AA7;" d="
			M142.3,208.3L142.3,208.3c0.2,0.1,0.3,0.1,0.3,0.2c0,0.1,0,0.2,0,0.3l-0.3,1.1c-0.1,0.3-0.1,0.5-0.2,0.6c-0.2,0.2-0.6,0.3-0.8,0.2
			c-0.6-0.1-0.6-0.6-0.5-1.1l0.3-1.2c0-0.2,0.1-0.2,0.1-0.3c0.1-0.1,0.2-0.1,0.3-0.1l0.1,0l0-0.1l-1.1-0.3l0,0.1
			c0.1,0,0.2,0,0.3,0.2c0,0,0,0.2,0,0.3l-0.3,1c-0.1,0.3-0.1,0.5-0.1,0.7c0.1,0.8,1.4,1.2,1.9,0.5c0.1-0.1,0.2-0.3,0.2-0.6l0.3-1.1
			c0-0.1,0.1-0.2,0.1-0.3c0.1-0.1,0.2-0.1,0.3-0.1l0.1,0l0-0.1L142.3,208.3L142.3,208.3z"/>
	</g>
	<g>
		<defs>
			<rect id="SVGID_00000066502113082852805860000002131625297580745899_" x="-249.8" y="-515.9" width="1207.6" height="858.9"/>
		</defs>
		<clipPath id="SVGID_00000170968311169155594870000003288077003374068157_">
			<use xlink:href="#SVGID_00000066502113082852805860000002131625297580745899_"  style="overflow:visible;"/>
		</clipPath>
		<path id="path3389" style="clip-path:url(#SVGID_00000170968311169155594870000003288077003374068157_);fill:#335AA7;" d="
			M159.3,202.4c-0.4,0.1-0.8,0.5-1.2,0.5c-0.1,0-0.2,0-0.2,0c-0.3-0.3-0.1-0.7,0.2-0.9c0.3-0.1,0.5-0.1,0.8,0.1l0-0.1l-0.8-0.5
			l0,0.1c0.1,0.1,0.1,0.1,0.1,0.2c0,0-0.1,0.1-0.1,0.1c-0.3,0.2-0.6,0.5-0.5,0.9c0.1,0.5,0.5,0.7,0.9,0.6c0.1,0,0.3-0.1,0.5-0.2
			c0.2-0.1,0.4-0.2,0.5-0.2c0.1,0,0.3-0.1,0.4,0c0.4,0.3,0.1,0.8-0.2,1c-0.1,0.1-0.2,0.1-0.3,0.1c-0.1,0-0.3-0.1-0.4-0.1l0,0
			l0.8,0.5l0-0.1c0,0-0.1-0.1-0.1-0.1c0,0,0-0.1,0-0.1c0,0,0.1-0.1,0.2-0.2c0.3-0.2,0.6-0.6,0.5-1
			C160.2,202.5,159.8,202.3,159.3,202.4"/>
	</g>
	<g>
		<defs>
			<rect id="SVGID_00000025442418416691058930000017173164941630880168_" x="-249.8" y="-515.9" width="1207.6" height="858.9"/>
		</defs>
		<clipPath id="SVGID_00000120538592816353827990000002714487106520756133_">
			<use xlink:href="#SVGID_00000025442418416691058930000017173164941630880168_"  style="overflow:visible;"/>
		</clipPath>
		<path id="path3391" style="clip-path:url(#SVGID_00000120538592816353827990000002714487106520756133_);fill:#335AA7;" d="
			M156.8,205c0,0.3-0.2,0.4-0.4,0.6l-0.2-0.2l-0.6-0.6c0.2-0.4,0.7-0.6,1-0.2C156.7,204.7,156.8,204.9,156.8,205 M158.4,205.4
			c-0.1,0-0.3,0-0.5,0l-1-0.2c0.2-0.3,0.3-0.7,0-1c-0.4-0.4-0.9-0.1-1.3,0.3l-0.7,0.7l0.1,0.1l0.1-0.1c0.1-0.1,0.1-0.1,0.2-0.1
			c0.1,0,0.2,0.1,0.3,0.2l0.7,0.7l0.6,0.6c0.2,0.3,0.2,0.3,0,0.6l0.1,0l0.8-0.8l-0.1-0.1c-0.2,0.2-0.3,0.2-0.6,0l-0.5-0.6
			c0.1-0.1,0.1-0.1,0.2-0.2l1.6,0.3l0.5-0.5l-0.1,0C158.6,205.3,158.5,205.4,158.4,205.4"/>
	</g>
	<g>
		<defs>
			<rect id="SVGID_00000011005851485501815690000012319811874595762589_" x="-249.8" y="-515.9" width="1207.6" height="858.9"/>
		</defs>
		<clipPath id="SVGID_00000084523114143588277750000002237997916197467537_">
			<use xlink:href="#SVGID_00000011005851485501815690000012319811874595762589_"  style="overflow:visible;"/>
		</clipPath>
		<path id="path3393" style="clip-path:url(#SVGID_00000084523114143588277750000002237997916197467537_);fill:#335AA7;" d="
			M145.7,208.6L145.7,208.6c0.2,0,0.3,0,0.3,0.1c0,0,0,0.1,0,0.3l0,1.6l-1.6-2.1l-0.7,0v0.1c0.2,0,0.4,0.1,0.5,0.3l-0.1,1.9
			c0,0.1,0,0.2,0,0.3c-0.1,0.1-0.2,0.1-0.3,0.1h-0.1v0.1l1,0v-0.1h-0.1c-0.1,0-0.2,0-0.2-0.1c0,0-0.1-0.1,0-0.3l0.1-1.7l1.7,2.3h0.1
			l0.1-2.3c0-0.2,0-0.2,0-0.3c0.1-0.1,0.2-0.1,0.3-0.1l0-0.1L145.7,208.6L145.7,208.6z"/>
	</g>
	<g>
		<defs>
			<rect id="SVGID_00000177452418465679133920000000776478023559169947_" x="-249.8" y="-515.9" width="1207.6" height="858.9"/>
		</defs>
		<clipPath id="SVGID_00000097486590792807944090000018220313956243834243_">
			<use xlink:href="#SVGID_00000177452418465679133920000000776478023559169947_"  style="overflow:visible;"/>
		</clipPath>
		<path id="path3395" style="clip-path:url(#SVGID_00000097486590792807944090000018220313956243834243_);fill:#335AA7;" d="
			M145.4,174.8c10.3,0,18.8,8.4,18.8,18.8s-8.4,18.8-18.8,18.8s-18.8-8.4-18.8-18.8S135.1,174.8,145.4,174.8 M145.4,213.1
			c10.8,0,19.6-8.8,19.6-19.6c0-10.8-8.8-19.6-19.6-19.6s-19.6,8.8-19.6,19.6C125.9,204.3,134.7,213.1,145.4,213.1"/>
	</g>
	<g>
		<defs>
			<rect id="SVGID_00000127037445279658607430000000691932849650918579_" x="-249.8" y="-515.9" width="1207.6" height="858.9"/>
		</defs>
		<clipPath id="SVGID_00000129910873849249385620000013163351963384082355_">
			<use xlink:href="#SVGID_00000127037445279658607430000000691932849650918579_"  style="overflow:visible;"/>
		</clipPath>
		<path id="path3397" style="clip-path:url(#SVGID_00000129910873849249385620000013163351963384082355_);fill:#335AA7;" d="
			M145.4,180c7.5,0,13.6,6.1,13.6,13.6c0,7.5-6.1,13.6-13.6,13.6s-13.6-6.1-13.6-13.6C131.8,186.1,138,180,145.4,180 M145.4,207.7
			c7.8,0,14.1-6.4,14.1-14.1c0-7.8-6.4-14.1-14.1-14.1s-14.1,6.4-14.1,14.1C131.3,201.3,137.7,207.7,145.4,207.7"/>
	</g>
</g>
</svg>
