<?xml version="1.0" encoding="UTF-8" standalone="no"?>
<!-- Created with Inkscape (http://www.inkscape.org/) -->

<svg
   width="59.082409mm"
   height="7.1630077mm"
   viewBox="0 0 59.082409 7.1630077"
   version="1.1"
   id="svg1"
   xmlns="http://www.w3.org/2000/svg"
   xmlns:svg="http://www.w3.org/2000/svg">
  <defs
     id="defs1">
    <clipPath
       clipPathUnits="userSpaceOnUse"
       id="clipPath3975">
      <path
         d="M 0,858.898 H 1207.558 V 0 H 0 Z"
         transform="translate(-155.9801,-546.69192)"
         id="path3975" />
    </clipPath>
    <clipPath
       clipPathUnits="userSpaceOnUse"
       id="clipPath3977">
      <path
         d="M 0,858.898 H 1207.558 V 0 H 0 Z"
         transform="translate(-178.8201,-547.71151)"
         id="path3977" />
    </clipPath>
    <clipPath
       clipPathUnits="userSpaceOnUse"
       id="clipPath3979">
      <path
         d="M 0,858.898 H 1207.558 V 0 H 0 Z"
         transform="translate(-163.28051,-547.33062)"
         id="path3979" />
    </clipPath>
    <clipPath
       clipPathUnits="userSpaceOnUse"
       id="clipPath3981">
      <path
         d="M 0,858.898 H 1207.558 V 0 H 0 Z"
         transform="translate(-214.43591,-537.08472)"
         id="path3981" />
    </clipPath>
    <clipPath
       clipPathUnits="userSpaceOnUse"
       id="clipPath3983">
      <path
         d="M 0,858.898 H 1207.558 V 0 H 0 Z"
         transform="translate(2.5000001e-7,-3.5000001e-5)"
         id="path3983" />
    </clipPath>
    <clipPath
       clipPathUnits="userSpaceOnUse"
       id="clipPath3985">
      <path
         d="M 0,858.898 H 1207.558 V 0 H 0 Z"
         transform="translate(2.5000001e-7,-3.5000001e-5)"
         id="path3985" />
    </clipPath>
    <clipPath
       clipPathUnits="userSpaceOnUse"
       id="clipPath3987">
      <path
         d="M 0,858.898 H 1207.558 V 0 H 0 Z"
         transform="translate(2.5000001e-7,-3.5000001e-5)"
         id="path3987" />
    </clipPath>
    <clipPath
       clipPathUnits="userSpaceOnUse"
       id="clipPath3989">
      <path
         d="M 0,858.898 H 1207.558 V 0 H 0 Z"
         transform="translate(2.5000001e-7,-3.5000001e-5)"
         id="path3989" />
    </clipPath>
    <clipPath
       clipPathUnits="userSpaceOnUse"
       id="clipPath3991">
      <path
         d="M 0,858.898 H 1207.558 V 0 H 0 Z"
         transform="translate(2.5000001e-7,-3.5000001e-5)"
         id="path3991" />
    </clipPath>
    <clipPath
       clipPathUnits="userSpaceOnUse"
       id="clipPath3993">
      <path
         d="M 0,858.898 H 1207.558 V 0 H 0 Z"
         transform="translate(2.5000001e-7,-3.5000001e-5)"
         id="path3993" />
    </clipPath>
    <clipPath
       clipPathUnits="userSpaceOnUse"
       id="clipPath3995">
      <path
         d="M 0,858.898 H 1207.558 V 0 H 0 Z"
         transform="translate(-235.1205,-537.08292)"
         id="path3995" />
    </clipPath>
    <clipPath
       clipPathUnits="userSpaceOnUse"
       id="clipPath3997">
      <path
         d="M 0,858.898 H 1207.558 V 0 H 0 Z"
         transform="translate(-192.92591,-537.08472)"
         id="path3997" />
    </clipPath>
    <clipPath
       clipPathUnits="userSpaceOnUse"
       id="clipPath3999">
      <path
         d="M 0,858.898 H 1207.558 V 0 H 0 Z"
         transform="translate(2.5000001e-7,-3.5000001e-5)"
         id="path3999" />
    </clipPath>
    <clipPath
       clipPathUnits="userSpaceOnUse"
       id="clipPath4001">
      <path
         d="M 0,858.898 H 1207.558 V 0 H 0 Z"
         transform="translate(2.5000001e-7,-3.5000001e-5)"
         id="path4001" />
    </clipPath>
    <clipPath
       clipPathUnits="userSpaceOnUse"
       id="clipPath4003">
      <path
         d="M 0,858.898 H 1207.558 V 0 H 0 Z"
         transform="translate(2.5000001e-7,-3.5000001e-5)"
         id="path4003" />
    </clipPath>
    <clipPath
       clipPathUnits="userSpaceOnUse"
       id="clipPath4005">
      <path
         d="M 0,858.898 H 1207.558 V 0 H 0 Z"
         transform="translate(2.5000001e-7,-3.5000001e-5)"
         id="path4005" />
    </clipPath>
    <clipPath
       clipPathUnits="userSpaceOnUse"
       id="clipPath4007">
      <path
         d="M 0,858.898 H 1207.558 V 0 H 0 Z"
         transform="translate(2.5000001e-7,-3.5000001e-5)"
         id="path4007" />
    </clipPath>
    <clipPath
       clipPathUnits="userSpaceOnUse"
       id="clipPath4009">
      <path
         d="M 0,858.898 H 1207.558 V 0 H 0 Z"
         transform="translate(2.5000001e-7,-3.5000001e-5)"
         id="path4009" />
    </clipPath>
    <clipPath
       clipPathUnits="userSpaceOnUse"
       id="clipPath4011">
      <path
         d="M 0,858.898 H 1207.558 V 0 H 0 Z"
         transform="translate(-297.53061,-530.86992)"
         id="path4011" />
    </clipPath>
    <clipPath
       clipPathUnits="userSpaceOnUse"
       id="clipPath4013">
      <path
         d="M 0,858.898 H 1207.558 V 0 H 0 Z"
         transform="translate(-310.52441,-537.08292)"
         id="path4013" />
    </clipPath>
    <clipPath
       clipPathUnits="userSpaceOnUse"
       id="clipPath4015">
      <path
         d="M 0,858.898 H 1207.558 V 0 H 0 Z"
         transform="translate(-289.31741,-533.51821)"
         id="path4015" />
    </clipPath>
    <clipPath
       clipPathUnits="userSpaceOnUse"
       id="clipPath4017">
      <path
         d="M 0,858.898 H 1207.558 V 0 H 0 Z"
         transform="translate(-293.967,-532.91772)"
         id="path4017" />
    </clipPath>
    <clipPath
       clipPathUnits="userSpaceOnUse"
       id="clipPath4019">
      <path
         d="M 0,858.898 H 1207.558 V 0 H 0 Z"
         transform="translate(2.5000001e-7,-3.5000001e-5)"
         id="path4019" />
    </clipPath>
    <clipPath
       clipPathUnits="userSpaceOnUse"
       id="clipPath4021">
      <path
         d="M 0,858.898 H 1207.558 V 0 H 0 Z"
         transform="translate(2.5000001e-7,-3.5000001e-5)"
         id="path4021" />
    </clipPath>
    <clipPath
       clipPathUnits="userSpaceOnUse"
       id="clipPath4023">
      <path
         d="M 0,858.898 H 1207.558 V 0 H 0 Z"
         transform="translate(2.5000001e-7,-3.5000001e-5)"
         id="path4023" />
    </clipPath>
    <clipPath
       clipPathUnits="userSpaceOnUse"
       id="clipPath4025">
      <path
         d="M 0,858.898 H 1207.558 V 0 H 0 Z"
         transform="translate(-202.3803,-537.07752)"
         id="path4025" />
    </clipPath>
    <clipPath
       clipPathUnits="userSpaceOnUse"
       id="clipPath4027">
      <path
         d="M 0,858.898 H 1207.558 V 0 H 0 Z"
         transform="translate(-224.12951,-537.07752)"
         id="path4027" />
    </clipPath>
    <clipPath
       clipPathUnits="userSpaceOnUse"
       id="clipPath4029">
      <path
         d="M 0,858.898 H 1207.558 V 0 H 0 Z"
         transform="translate(-240.56721,-537.07752)"
         id="path4029" />
    </clipPath>
    <clipPath
       clipPathUnits="userSpaceOnUse"
       id="clipPath4031">
      <path
         d="M 0,858.898 H 1207.558 V 0 H 0 Z"
         transform="translate(-249.8601,-537.07752)"
         id="path4031" />
    </clipPath>
    <clipPath
       clipPathUnits="userSpaceOnUse"
       id="clipPath4033">
      <path
         d="M 0,858.898 H 1207.558 V 0 H 0 Z"
         transform="translate(-259.0338,-537.08472)"
         id="path4033" />
    </clipPath>
    <clipPath
       clipPathUnits="userSpaceOnUse"
       id="clipPath4035">
      <path
         d="M 0,858.898 H 1207.558 V 0 H 0 Z"
         transform="translate(-270.14111,-532.91772)"
         id="path4035" />
    </clipPath>
    <clipPath
       clipPathUnits="userSpaceOnUse"
       id="clipPath4037">
      <path
         d="M 0,858.898 H 1207.558 V 0 H 0 Z"
         transform="translate(-275.74361,-533.81922)"
         id="path4037" />
    </clipPath>
    <clipPath
       clipPathUnits="userSpaceOnUse"
       id="clipPath4039">
      <path
         d="M 0,858.898 H 1207.558 V 0 H 0 Z"
         transform="translate(-265.50981,-535.38171)"
         id="path4039" />
    </clipPath>
    <clipPath
       clipPathUnits="userSpaceOnUse"
       id="clipPath4041">
      <path
         d="M 0,858.898 H 1207.558 V 0 H 0 Z"
         transform="translate(-279.89651,-537.08472)"
         id="path4041" />
    </clipPath>
    <clipPath
       clipPathUnits="userSpaceOnUse"
       id="clipPath4043">
      <path
         d="M 0,858.898 H 1207.558 V 0 H 0 Z"
         transform="translate(-209.72981,-532.13742)"
         id="path4043" />
    </clipPath>
    <clipPath
       clipPathUnits="userSpaceOnUse"
       id="clipPath4045">
      <path
         d="M 0,858.898 H 1207.558 V 0 H 0 Z"
         transform="translate(-201.46961,-542.03421)"
         id="path4045" />
    </clipPath>
    <clipPath
       clipPathUnits="userSpaceOnUse"
       id="clipPath4047">
      <path
         d="M 0,858.898 H 1207.558 V 0 H 0 Z"
         transform="translate(-257.98211,-549.57681)"
         id="path4047" />
    </clipPath>
    <clipPath
       clipPathUnits="userSpaceOnUse"
       id="clipPath4049">
      <path
         d="M 0,858.898 H 1207.558 V 0 H 0 Z"
         transform="translate(-265.24071,-548.59002)"
         id="path4049" />
    </clipPath>
    <clipPath
       clipPathUnits="userSpaceOnUse"
       id="clipPath4051">
      <path
         d="M 0,858.898 H 1207.558 V 0 H 0 Z"
         transform="translate(-220.2549,-542.71771)"
         id="path4051" />
    </clipPath>
    <clipPath
       clipPathUnits="userSpaceOnUse"
       id="clipPath4053">
      <path
         d="M 0,858.898 H 1207.558 V 0 H 0 Z"
         transform="translate(-223.2237,-550.66281)"
         id="path4053" />
    </clipPath>
    <clipPath
       clipPathUnits="userSpaceOnUse"
       id="clipPath4055">
      <path
         d="M 0,858.898 H 1207.558 V 0 H 0 Z"
         transform="translate(-218.96681,-549.11841)"
         id="path4055" />
    </clipPath>
    <clipPath
       clipPathUnits="userSpaceOnUse"
       id="clipPath4057">
      <path
         d="M 0,858.898 H 1207.558 V 0 H 0 Z"
         transform="translate(-217.24211,-547.74792)"
         id="path4057" />
    </clipPath>
    <clipPath
       clipPathUnits="userSpaceOnUse"
       id="clipPath4059">
      <path
         d="M 0,858.898 H 1207.558 V 0 H 0 Z"
         transform="translate(-224.8419,-547.05042)"
         id="path4059" />
    </clipPath>
    <clipPath
       clipPathUnits="userSpaceOnUse"
       id="clipPath4061">
      <path
         d="M 0,858.898 H 1207.558 V 0 H 0 Z"
         transform="translate(-232.79111,-542.11242)"
         id="path4061" />
    </clipPath>
    <clipPath
       clipPathUnits="userSpaceOnUse"
       id="clipPath4063">
      <path
         d="M 0,858.898 H 1207.558 V 0 H 0 Z"
         transform="translate(2.5000001e-7,-3.5000001e-5)"
         id="path4063" />
    </clipPath>
    <clipPath
       clipPathUnits="userSpaceOnUse"
       id="clipPath4065">
      <path
         d="M 0,858.898 H 1207.558 V 0 H 0 Z"
         transform="translate(2.5000001e-7,-3.5000001e-5)"
         id="path4065" />
    </clipPath>
    <clipPath
       clipPathUnits="userSpaceOnUse"
       id="clipPath4067">
      <path
         d="M 0,858.898 H 1207.558 V 0 H 0 Z"
         transform="translate(-249.591,-543.97362)"
         id="path4067" />
    </clipPath>
    <clipPath
       clipPathUnits="userSpaceOnUse"
       id="clipPath4069">
      <path
         d="M 0,858.898 H 1207.558 V 0 H 0 Z"
         transform="translate(-214.7547,-549.11841)"
         id="path4069" />
    </clipPath>
    <clipPath
       clipPathUnits="userSpaceOnUse"
       id="clipPath4071">
      <path
         d="M 0,858.898 H 1207.558 V 0 H 0 Z"
         transform="translate(-205.4022,-545.15541)"
         id="path4071" />
    </clipPath>
    <clipPath
       clipPathUnits="userSpaceOnUse"
       id="clipPath4073">
      <path
         d="M 0,858.898 H 1207.558 V 0 H 0 Z"
         transform="translate(-203.2719,-547.75801)"
         id="path4073" />
    </clipPath>
    <clipPath
       clipPathUnits="userSpaceOnUse"
       id="clipPath4075">
      <path
         d="M 0,858.898 H 1207.558 V 0 H 0 Z"
         transform="translate(-205.26641,-548.23272)"
         id="path4075" />
    </clipPath>
    <clipPath
       clipPathUnits="userSpaceOnUse"
       id="clipPath4077">
      <path
         d="M 0,858.898 H 1207.558 V 0 H 0 Z"
         transform="translate(-212.77251,-545.81791)"
         id="path4077" />
    </clipPath>
    <clipPath
       clipPathUnits="userSpaceOnUse"
       id="clipPath4079">
      <path
         d="M 0,858.898 H 1207.558 V 0 H 0 Z"
         transform="translate(-210.42081,-547.40382)"
         id="path4079" />
    </clipPath>
    <clipPath
       clipPathUnits="userSpaceOnUse"
       id="clipPath4081">
      <path
         d="M 0,858.898 H 1207.558 V 0 H 0 Z"
         transform="translate(-210.28631,-543.24501)"
         id="path4081" />
    </clipPath>
    <clipPath
       clipPathUnits="userSpaceOnUse"
       id="clipPath4083">
      <path
         d="M 0,858.898 H 1207.558 V 0 H 0 Z"
         transform="translate(2.5000001e-7,-3.5000001e-5)"
         id="path4083" />
    </clipPath>
    <clipPath
       clipPathUnits="userSpaceOnUse"
       id="clipPath4085">
      <path
         d="M 0,858.898 H 1207.558 V 0 H 0 Z"
         transform="translate(2.5000001e-7,-3.5000001e-5)"
         id="path4085" />
    </clipPath>
    <clipPath
       clipPathUnits="userSpaceOnUse"
       id="clipPath4087">
      <path
         d="M 0,858.898 H 1207.558 V 0 H 0 Z"
         transform="translate(2.5000001e-7,-3.5000001e-5)"
         id="path4087" />
    </clipPath>
    <clipPath
       clipPathUnits="userSpaceOnUse"
       id="clipPath4089">
      <path
         d="M 0,858.898 H 1207.558 V 0 H 0 Z"
         transform="translate(2.5000001e-7,-3.5000001e-5)"
         id="path4089" />
    </clipPath>
    <clipPath
       clipPathUnits="userSpaceOnUse"
       id="clipPath4091">
      <path
         d="M 0,858.898 H 1207.558 V 0 H 0 Z"
         transform="translate(-275.6793,-540.71841)"
         id="path4091" />
    </clipPath>
    <clipPath
       clipPathUnits="userSpaceOnUse"
       id="clipPath4093">
      <path
         d="M 0,858.898 H 1207.558 V 0 H 0 Z"
         transform="translate(-272.5509,-551.17452)"
         id="path4093" />
    </clipPath>
    <clipPath
       clipPathUnits="userSpaceOnUse"
       id="clipPath4095">
      <path
         d="M 0,858.898 H 1207.558 V 0 H 0 Z"
         transform="translate(2.5000001e-7,-3.5000001e-5)"
         id="path4095" />
    </clipPath>
    <clipPath
       clipPathUnits="userSpaceOnUse"
       id="clipPath4097">
      <path
         d="M 0,858.898 H 1207.558 V 0 H 0 Z"
         transform="translate(-311.67481,-540.71841)"
         id="path4097" />
    </clipPath>
    <clipPath
       clipPathUnits="userSpaceOnUse"
       id="clipPath4099">
      <path
         d="M 0,858.898 H 1207.558 V 0 H 0 Z"
         transform="translate(-306.56761,-545.57881)"
         id="path4099" />
    </clipPath>
    <clipPath
       clipPathUnits="userSpaceOnUse"
       id="clipPath4101">
      <path
         d="M 0,858.898 H 1207.558 V 0 H 0 Z"
         transform="translate(-301.29531,-541.72471)"
         id="path4101" />
    </clipPath>
    <clipPath
       clipPathUnits="userSpaceOnUse"
       id="clipPath4103">
      <path
         d="M 0,858.898 H 1207.558 V 0 H 0 Z"
         transform="translate(-300.39681,-550.85751)"
         id="path4103" />
    </clipPath>
    <clipPath
       clipPathUnits="userSpaceOnUse"
       id="clipPath4105">
      <path
         d="M 0,858.898 H 1207.558 V 0 H 0 Z"
         transform="translate(-293.02271,-546.16581)"
         id="path4105" />
    </clipPath>
    <clipPath
       clipPathUnits="userSpaceOnUse"
       id="clipPath4107">
      <path
         d="M 0,858.898 H 1207.558 V 0 H 0 Z"
         transform="translate(-293.98491,-542.56902)"
         id="path4107" />
    </clipPath>
    <clipPath
       clipPathUnits="userSpaceOnUse"
       id="clipPath4109">
      <path
         d="M 0,858.898 H 1207.558 V 0 H 0 Z"
         transform="translate(-299.14791,-544.73821)"
         id="path4109" />
    </clipPath>
    <clipPath
       clipPathUnits="userSpaceOnUse"
       id="clipPath4111">
      <path
         d="M 0,858.898 H 1207.558 V 0 H 0 Z"
         transform="translate(2.5000001e-7,-3.5000001e-5)"
         id="path4111" />
    </clipPath>
    <clipPath
       clipPathUnits="userSpaceOnUse"
       id="clipPath4113">
      <path
         d="M 0,858.898 H 1207.558 V 0 H 0 Z"
         transform="translate(2.5000001e-7,-3.5000001e-5)"
         id="path4113" />
    </clipPath>
    <clipPath
       clipPathUnits="userSpaceOnUse"
       id="clipPath4115">
      <path
         d="M 0,858.898 H 1207.558 V 0 H 0 Z"
         transform="translate(2.5000001e-7,-3.5000001e-5)"
         id="path4115" />
    </clipPath>
    <clipPath
       clipPathUnits="userSpaceOnUse"
       id="clipPath4117">
      <path
         d="M 0,858.898 H 1207.558 V 0 H 0 Z"
         transform="translate(-285.34941,-540.71841)"
         id="path4117" />
    </clipPath>
    <clipPath
       clipPathUnits="userSpaceOnUse"
       id="clipPath4119">
      <path
         d="M 0,858.898 H 1207.558 V 0 H 0 Z"
         transform="translate(-286.39721,-545.42532)"
         id="path4119" />
    </clipPath>
    <clipPath
       clipPathUnits="userSpaceOnUse"
       id="clipPath4121">
      <path
         d="M 0,858.898 H 1207.558 V 0 H 0 Z"
         transform="translate(-288.3195,-545.73561)"
         id="path4121" />
    </clipPath>
    <clipPath
       clipPathUnits="userSpaceOnUse"
       id="clipPath4123">
      <path
         d="M 0,858.898 H 1207.558 V 0 H 0 Z"
         transform="translate(-289.30041,-542.77662)"
         id="path4123" />
    </clipPath>
    <clipPath
       clipPathUnits="userSpaceOnUse"
       id="clipPath4125">
      <path
         d="M 0,858.898 H 1207.558 V 0 H 0 Z"
         transform="translate(-284.76531,-549.75121)"
         id="path4125" />
    </clipPath>
  </defs>
  <g
     id="layer1"
     transform="translate(-74.877082,-78.845832)">
    <path
       id="path3974"
       d="M 0,0 -4.822,4.046 C -4.899,4.111 -5.015,4.101 -5.08,4.023 L -6.627,2.179 c -3.397,-4.048 -3.168,-9.93 0.338,-13.704 L 0.319,-3.65 C 1.239,-2.554 1.096,-0.92 0,0"
       style="fill:#2e3584;fill-opacity:1;fill-rule:nonzero;stroke:none"
       transform="matrix(0.35277776,0,0,-0.35277776,78.070068,80.427194)"
       clip-path="url(#clipPath3975)" />
    <path
       id="path3976"
       d="m 0,0 -6.608,-7.875 c -0.92,-1.096 -0.777,-2.731 0.319,-3.651 l 4.822,-4.045 c 0.077,-0.065 0.193,-0.055 0.258,0.022 l 1.548,1.845 C 3.736,-9.656 3.506,-3.775 0,0"
       style="fill:#2e3584;fill-opacity:1;fill-rule:nonzero;stroke:none"
       transform="matrix(0.35277776,0,0,-0.35277776,86.127512,80.067503)"
       clip-path="url(#clipPath3977)" />
    <path
       id="path3978"
       d="m 0,0 -1.078,-1.284 -0.47,-0.561 -1.783,-2.125 -1.078,-1.284 -7.195,-8.576 c 4.326,-2.797 10.158,-2.002 13.555,2.047 l 0.587,0.7 0.96,1.144 1.783,2.125 0.588,0.7 7.686,9.16 C 9.229,4.843 3.397,4.048 0,0"
       style="fill:#2e3584;fill-opacity:1;fill-rule:nonzero;stroke:none"
       transform="matrix(0.35277776,0,0,-0.35277776,80.645488,80.201875)"
       clip-path="url(#clipPath3979)" />
    <path
       id="path3980"
       d="M 0,0 H -1.405 C -2.25,0 -2.937,-0.687 -2.937,-1.532 v -2.247 c 0,-0.845 0.687,-1.532 1.532,-1.532 H 0 c 0.845,0 1.532,0.687 1.532,1.532 v 0.213 c 0,0.727 -0.592,1.318 -1.319,1.318 H -1.405 V -3.13 h 1.618 c 0.241,0 0.437,-0.196 0.437,-0.436 v -0.213 c 0,-0.359 -0.292,-0.65 -0.65,-0.65 h -1.405 c -0.359,0 -0.65,0.291 -0.65,0.65 v 2.247 c 0,0.359 0.291,0.65 0.65,0.65 H 0 c 0.358,0 0.65,-0.291 0.65,-0.65 V -1.79 h 0.882 v 0.258 C 1.532,-0.687 0.845,0 0,0"
       style="fill:#0e0f0f;fill-opacity:1;fill-rule:nonzero;stroke:none"
       transform="matrix(0.35277776,0,0,-0.35277776,98.691976,83.816401)"
       clip-path="url(#clipPath3981)" />
    <path
       id="path3982"
       d="m 195.223,531.714 h 0.871 v 5.363 h -0.871 z"
       style="fill:#0e0f0f;fill-opacity:1;fill-rule:nonzero;stroke:none"
       transform="matrix(0.35277776,0,0,-0.35277776,23.043756,273.28793)"
       clip-path="url(#clipPath3983)" />
    <path
       id="path3984"
       d="m 198.717,531.714 h 0.871 v 5.363 h -0.871 z"
       style="fill:#0e0f0f;fill-opacity:1;fill-rule:nonzero;stroke:none"
       transform="matrix(0.35277776,0,0,-0.35277776,23.043756,273.28793)"
       clip-path="url(#clipPath3985)" />
    <path
       id="path3986"
       d="m 196.337,533.96 h 2.137 v 0.871 h -2.137 z"
       style="fill:#0e0f0f;fill-opacity:1;fill-rule:nonzero;stroke:none"
       transform="matrix(0.35277776,0,0,-0.35277776,23.043756,273.28793)"
       clip-path="url(#clipPath3987)" />
    <path
       id="path3988"
       d="m 243.473,536.257 h 4.368 v 0.769 h -4.368 z"
       style="fill:#0e0f0f;fill-opacity:1;fill-rule:nonzero;stroke:none"
       transform="matrix(0.35277776,0,0,-0.35277776,23.043756,273.28793)"
       clip-path="url(#clipPath3989)" />
    <path
       id="path3990"
       d="m 245.221,531.714 h 0.871 v 4.249 h -0.871 z"
       style="fill:#0e0f0f;fill-opacity:1;fill-rule:nonzero;stroke:none"
       transform="matrix(0.35277776,0,0,-0.35277776,23.043756,273.28793)"
       clip-path="url(#clipPath3991)" />
    <path
       id="path3992"
       d="m 228.415,531.714 h 0.871 v 5.363 h -0.871 z"
       style="fill:#0e0f0f;fill-opacity:1;fill-rule:nonzero;stroke:none"
       transform="matrix(0.35277776,0,0,-0.35277776,23.043756,273.28793)"
       clip-path="url(#clipPath3993)" />
    <path
       id="path3994"
       d="M 0,0 H -0.616 V -0.882 H 0 c 0.978,0 1.773,-0.795 1.773,-1.773 C 1.773,-3.632 0.978,-4.428 0,-4.428 H -0.859 V 0 H -1.741 V -5.309 H 0 c 1.464,0 2.654,1.19 2.654,2.654 C 2.654,-1.191 1.464,0 0,0"
       style="fill:#0e0f0f;fill-opacity:1;fill-rule:nonzero;stroke:none"
       transform="matrix(0.35277776,0,0,-0.35277776,105.98904,83.817036)"
       clip-path="url(#clipPath3995)" />
    <path
       id="path3996"
       d="m 0,0 h -1.372 c -0.826,0 -1.497,-0.671 -1.497,-1.497 0,-0.825 0.671,-1.496 1.497,-1.496 H 0 c 0.339,0 0.615,-0.276 0.615,-0.615 V -3.814 C 0.615,-4.154 0.339,-4.429 0,-4.429 h -1.372 c -0.339,0 -0.615,0.275 -0.615,0.615 v 0.26 h -0.882 v -0.26 c 0,-0.826 0.671,-1.497 1.497,-1.497 H 0 c 0.825,0 1.496,0.671 1.496,1.497 v 0.206 c 0,0.825 -0.671,1.497 -1.496,1.497 h -1.372 c -0.339,0 -0.615,0.275 -0.615,0.614 0,0.34 0.276,0.615 0.615,0.615 H 0 c 0.339,0 0.615,-0.275 0.615,-0.615 v -0.157 h 0.881 v 0.157 C 1.496,-0.671 0.825,0 0,0"
       style="fill:#0e0f0f;fill-opacity:1;fill-rule:nonzero;stroke:none"
       transform="matrix(0.35277776,0,0,-0.35277776,91.103726,83.816401)"
       clip-path="url(#clipPath3997)" />
    <path
       id="path3998"
       d="m 300.039,531.714 h 0.871 v 5.363 h -0.871 z"
       style="fill:#0e0f0f;fill-opacity:1;fill-rule:nonzero;stroke:none"
       transform="matrix(0.35277776,0,0,-0.35277776,23.043756,273.28793)"
       clip-path="url(#clipPath3999)" />
    <path
       id="path4000"
       d="m 301.154,531.714 h 2.524 v 0.871 h -2.524 z"
       style="fill:#0e0f0f;fill-opacity:1;fill-rule:nonzero;stroke:none"
       transform="matrix(0.35277776,0,0,-0.35277776,23.043756,273.28793)"
       clip-path="url(#clipPath4001)" />
    <path
       id="path4002"
       d="m 303.606,536.257 h 4.368 v 0.769 h -4.368 z"
       style="fill:#0e0f0f;fill-opacity:1;fill-rule:nonzero;stroke:none"
       transform="matrix(0.35277776,0,0,-0.35277776,23.043756,273.28793)"
       clip-path="url(#clipPath4003)" />
    <path
       id="path4004"
       d="m 305.354,531.714 h 0.871 v 4.249 h -0.871 z"
       style="fill:#0e0f0f;fill-opacity:1;fill-rule:nonzero;stroke:none"
       transform="matrix(0.35277776,0,0,-0.35277776,23.043756,273.28793)"
       clip-path="url(#clipPath4005)" />
    <path
       id="path4006"
       d="m 295.841,531.714 h 0.871 v 0.844 h -0.871 z"
       style="fill:#0e0f0f;fill-opacity:1;fill-rule:nonzero;stroke:none"
       transform="matrix(0.35277776,0,0,-0.35277776,23.043756,273.28793)"
       clip-path="url(#clipPath4007)" />
    <path
       id="path4008"
       d="m 313.526,531.741 h 0.871 v 0.844 h -0.871 z"
       style="fill:#0e0f0f;fill-opacity:1;fill-rule:nonzero;stroke:none"
       transform="matrix(0.35277776,0,0,-0.35277776,23.043756,273.28793)"
       clip-path="url(#clipPath4009)" />
    <path
       id="path4010"
       d="M 0,0 H 0.46 L 0.871,0.844 V 1.689 H 0 V 0.844 h 0.216 z"
       style="fill:#0e0f0f;fill-opacity:1;fill-rule:nonzero;stroke:none"
       transform="matrix(0.35277776,0,0,-0.35277776,128.00594,86.008844)"
       clip-path="url(#clipPath4011)" />
    <path
       id="path4012"
       d="M 0,0 H -0.616 V -0.882 H 0 c 0.978,0 1.773,-0.795 1.773,-1.773 C 1.773,-3.632 0.978,-4.428 0,-4.428 H -0.859 V 0 H -1.741 V -5.309 H 0 c 1.464,0 2.654,1.19 2.654,2.654 C 2.654,-1.191 1.464,0 0,0"
       style="fill:#0e0f0f;fill-opacity:1;fill-rule:nonzero;stroke:none"
       transform="matrix(0.35277776,0,0,-0.35277776,132.58986,83.817036)"
       clip-path="url(#clipPath4013)" />
    <path
       id="path4014"
       d="m 0,0 v -0.213 c 0,-0.845 -0.687,-1.532 -1.532,-1.532 h -1.405 c -0.845,0 -1.532,0.687 -1.532,1.532 v 2.248 c 0,0.844 0.687,1.531 1.532,1.531 h 1.405 C -0.687,3.566 0,2.879 0,2.035 V 1.776 h -0.882 v 0.259 c 0,0.358 -0.291,0.65 -0.65,0.65 h -1.405 c -0.359,0 -0.65,-0.292 -0.65,-0.65 v -2.248 c 0,-0.358 0.291,-0.65 0.65,-0.65 h 1.405 c 0.359,0 0.65,0.292 0.65,0.65 V 0 Z"
       style="fill:#0e0f0f;fill-opacity:1;fill-rule:nonzero;stroke:none"
       transform="matrix(0.35277776,0,0,-0.35277776,125.10851,85.074584)"
       clip-path="url(#clipPath4015)" />
    <path
       id="path4016"
       d="m 0,0 c -0.298,-0.35 -0.719,-0.527 -1.251,-0.527 -0.536,0 -0.956,0.181 -1.25,0.539 -0.288,0.352 -0.434,0.828 -0.434,1.414 0,0.597 0.142,1.062 0.434,1.42 0.299,0.363 0.722,0.547 1.257,0.547 0.541,0 0.947,-0.172 1.242,-0.525 C 0.29,2.509 0.439,2.024 0.439,1.426 0.439,0.837 0.291,0.357 0,0 m 0.672,3.411 c -0.466,0.54 -1.111,0.814 -1.916,0.814 -0.807,0 -1.455,-0.276 -1.923,-0.821 -0.441,-0.508 -0.664,-1.173 -0.664,-1.978 0,-0.801 0.223,-1.465 0.664,-1.972 0.471,-0.54 1.116,-0.814 1.916,-0.814 0.804,0 1.451,0.274 1.924,0.815 0.439,0.516 0.662,1.178 0.662,1.971 0,0.801 -0.223,1.468 -0.663,1.985 z"
       style="fill:#0e0f0f;fill-opacity:1;fill-rule:nonzero;stroke:none"
       transform="matrix(0.35277776,0,0,-0.35277776,126.74878,85.286425)"
       clip-path="url(#clipPath4017)" />
    <path
       id="path4018"
       d="m 216.972,531.714 h 0.871 v 5.363 h -0.871 z"
       style="fill:#0e0f0f;fill-opacity:1;fill-rule:nonzero;stroke:none"
       transform="matrix(0.35277776,0,0,-0.35277776,23.043756,273.28793)"
       clip-path="url(#clipPath4019)" />
    <path
       id="path4020"
       d="m 220.466,531.714 h 0.871 v 5.363 h -0.871 z"
       style="fill:#0e0f0f;fill-opacity:1;fill-rule:nonzero;stroke:none"
       transform="matrix(0.35277776,0,0,-0.35277776,23.043756,273.28793)"
       clip-path="url(#clipPath4021)" />
    <path
       id="path4022"
       d="m 218.086,533.96 h 2.137 v 0.871 h -2.137 z"
       style="fill:#0e0f0f;fill-opacity:1;fill-rule:nonzero;stroke:none"
       transform="matrix(0.35277776,0,0,-0.35277776,23.043756,273.28793)"
       clip-path="url(#clipPath4023)" />
    <path
       id="path4024"
       d="m 0,0 -2.064,-5.363 h 0.894 l 1.619,4.207 0.741,-1.926 h -1.261 l -0.336,-0.871 h 1.932 l 0.543,-1.41 H 2.962 L 0.898,0 Z"
       style="fill:#0e0f0f;fill-opacity:1;fill-rule:nonzero;stroke:none"
       transform="matrix(0.35277776,0,0,-0.35277776,94.439027,83.818941)"
       clip-path="url(#clipPath4025)" />
    <path
       id="path4026"
       d="m 0,0 -2.064,-5.363 h 0.894 l 1.619,4.207 0.741,-1.926 h -1.262 l -0.335,-0.871 h 1.932 l 0.543,-1.41 H 2.961 L 0.898,0 Z"
       style="fill:#0e0f0f;fill-opacity:1;fill-rule:nonzero;stroke:none"
       transform="matrix(0.35277776,0,0,-0.35277776,102.11166,83.818941)"
       clip-path="url(#clipPath4027)" />
    <path
       id="path4028"
       d="m 0,0 -2.064,-5.363 h 0.894 l 1.619,4.207 0.741,-1.926 h -1.261 l -0.335,-0.871 h 1.931 l 0.543,-1.41 H 2.962 L 0.898,0 Z"
       style="fill:#0e0f0f;fill-opacity:1;fill-rule:nonzero;stroke:none"
       transform="matrix(0.35277776,0,0,-0.35277776,107.91052,83.818941)"
       clip-path="url(#clipPath4029)" />
    <path
       id="path4030"
       d="m 0,0 -2.064,-5.363 h 0.894 l 1.619,4.207 0.741,-1.926 h -1.262 l -0.335,-0.871 h 1.932 l 0.543,-1.41 H 2.962 L 0.898,0 Z"
       style="fill:#0e0f0f;fill-opacity:1;fill-rule:nonzero;stroke:none"
       transform="matrix(0.35277776,0,0,-0.35277776,111.18884,83.818941)"
       clip-path="url(#clipPath4031)" />
    <path
       id="path4032"
       d="M 0,0 H -1.406 C -2.25,0 -2.937,-0.687 -2.937,-1.532 v -2.247 c 0,-0.845 0.687,-1.532 1.531,-1.532 H 0 c 0.844,0 1.532,0.687 1.532,1.532 v 0.213 c 0,0.727 -0.592,1.318 -1.319,1.318 H -1.405 V -3.13 h 1.618 c 0.241,0 0.437,-0.196 0.437,-0.436 v -0.213 c 0,-0.359 -0.292,-0.65 -0.65,-0.65 h -1.406 c -0.358,0 -0.65,0.291 -0.65,0.65 v 2.247 c 0,0.359 0.292,0.65 0.65,0.65 H 0 c 0.358,0 0.65,-0.291 0.65,-0.65 V -1.79 h 0.882 v 0.258 C 1.532,-0.687 0.844,0 0,0"
       style="fill:#0e0f0f;fill-opacity:1;fill-rule:nonzero;stroke:none"
       transform="matrix(0.35277776,0,0,-0.35277776,114.42512,83.816401)"
       clip-path="url(#clipPath4033)" />
    <path
       id="path4034"
       d="m 0,0 c -0.298,-0.35 -0.719,-0.527 -1.251,-0.527 -0.536,0 -0.956,0.181 -1.25,0.539 -0.288,0.352 -0.434,0.828 -0.434,1.414 0,0.597 0.142,1.062 0.434,1.42 0.299,0.363 0.722,0.547 1.257,0.547 0.541,0 0.947,-0.172 1.242,-0.525 C 0.29,2.509 0.439,2.024 0.439,1.426 0.439,0.837 0.291,0.357 0,0 m 0.672,3.411 c -0.466,0.54 -1.111,0.814 -1.916,0.814 -0.807,0 -1.455,-0.276 -1.923,-0.821 -0.441,-0.508 -0.664,-1.173 -0.664,-1.978 0,-0.801 0.223,-1.465 0.664,-1.972 0.471,-0.54 1.116,-0.814 1.916,-0.814 0.804,0 1.451,0.274 1.924,0.815 0.439,0.516 0.662,1.178 0.662,1.971 0,0.801 -0.223,1.468 -0.663,1.985 z"
       style="fill:#0e0f0f;fill-opacity:1;fill-rule:nonzero;stroke:none"
       transform="matrix(0.35277776,0,0,-0.35277776,118.34353,85.286425)"
       clip-path="url(#clipPath4035)" />
    <path
       id="path4036"
       d="m 0,0 c 0,-0.454 -0.099,-0.798 -0.293,-1.023 -0.211,-0.231 -0.545,-0.347 -0.992,-0.347 -0.453,0 -0.787,0.116 -0.991,0.345 C -2.474,-0.802 -2.57,-0.467 -2.57,0 V 3.258 H -3.467 V 0.007 c 0,-0.697 0.187,-1.246 0.556,-1.63 0.373,-0.38 0.92,-0.573 1.626,-0.573 0.706,0 1.255,0.195 1.633,0.581 0.364,0.379 0.549,0.925 0.549,1.622 V 3.258 H 0 Z"
       style="fill:#0e0f0f;fill-opacity:1;fill-rule:nonzero;stroke:none"
       transform="matrix(0.35277776,0,0,-0.35277776,120.31997,84.968396)"
       clip-path="url(#clipPath4037)" />
    <path
       id="path4038"
       d="M 0,0 C 0,0.939 -0.764,1.703 -1.703,1.703 H -2.84 c -0.728,0 -1.319,-0.592 -1.319,-1.319 v -4.051 h 0.882 v 4.051 c 0,0.241 0.196,0.437 0.437,0.437 h 1.137 c 0.453,0 0.821,-0.368 0.821,-0.821 0,-0.453 -0.368,-0.821 -0.821,-0.821 h -1.321 v -0.882 h 0.826 l 1.296,-1.964 H 0.135 L -1.21,-1.628 C -0.494,-1.412 0,-0.752 0,0"
       style="fill:#0e0f0f;fill-opacity:1;fill-rule:nonzero;stroke:none"
       transform="matrix(0.35277776,0,0,-0.35277776,116.70971,84.417182)"
       clip-path="url(#clipPath4039)" />
    <path
       id="path4040"
       d="M 0,0 H -1.137 C -1.865,0 -2.456,-0.592 -2.456,-1.319 V -5.37 h 0.882 v 4.051 c 0,0.241 0.196,0.437 0.437,0.437 H 0 c 0.453,0 0.821,-0.368 0.821,-0.821 C 0.821,-2.156 0.453,-2.524 0,-2.524 H -1.321 V -3.406 H 0 c 0.939,0 1.703,0.764 1.703,1.703 C 1.703,-0.764 0.939,0 0,0"
       style="fill:#0e0f0f;fill-opacity:1;fill-rule:nonzero;stroke:none"
       transform="matrix(0.35277776,0,0,-0.35277776,121.78502,83.816401)"
       clip-path="url(#clipPath4041)" />
    <path
       id="path4042"
       d="M 0,0 -1.96,4.906 -1.973,4.938 H -2.83 -2.956 -3.682 v -5.254 h 0.852 v 4.938 l 1.96,-4.906 0.013,-0.032 H 0 0.126 0.852 V 4.938 H 0 Z"
       style="fill:#0e0f0f;fill-opacity:1;fill-rule:nonzero;stroke:none"
       transform="matrix(0.35277776,0,0,-0.35277776,97.031769,85.561698)"
       clip-path="url(#clipPath4043)" />
    <path
       id="path4044"
       d="m 0,0 h -5.414 v 4.55 h 4.706 V 5.866 H -5.414 V 9.128 H -6.655 V 0 h -4.758 V -1.316 H 0 Z"
       style="fill:#0e0f0f;fill-opacity:1;fill-rule:nonzero;stroke:none"
       transform="matrix(0.35277776,0,0,-0.35277776,94.117754,82.070328)"
       clip-path="url(#clipPath4045)" />
    <path
       id="path4046"
       d="m 0,0 h 7.757 v -7.258 c 0,-0.3 -0.23,-0.544 -0.513,-0.544 H 0 Z m 7.595,-8.858 c 0.775,0 1.403,0.666 1.403,1.487 V 0 1.057 H 0 -1.241 V 0 -8.858 H 0 Z"
       style="fill:#0e0f0f;fill-opacity:1;fill-rule:nonzero;stroke:none"
       transform="matrix(0.35277776,0,0,-0.35277776,114.05411,79.409466)"
       clip-path="url(#clipPath4047)" />
    <path
       id="path4048"
       d="M 0,0 H -1.312 V 0.528 H -2.553 V 0 H -6.76 v -1.057 h 2.058 C -4.858,-2.914 -6.2,-3.803 -6.666,-4.111 V -5.3 c 1.614,0.649 3.079,1.881 3.458,4.243 h 0.655 V -4.808 C -2.553,-5.08 -2.76,-5.3 -3.016,-5.3 h -1.54 v -1.056 h 1.843 c 0.774,0 1.401,0.665 1.401,1.485 v 3.814 H 0 Z"
       style="fill:#0e0f0f;fill-opacity:1;fill-rule:nonzero;stroke:none"
       transform="matrix(0.35277776,0,0,-0.35277776,116.61478,79.757586)"
       clip-path="url(#clipPath4049)" />
    <path
       id="path4050"
       d="m 0,0 c -0.558,0.313 -0.934,0.554 -1.125,0.724 l 0.167,0.671 H 0.969 C 0.85,0.854 0.527,0.389 0,0 M 2.25,1.395 H 2.848 V 2.447 H 2.286 V 2.918 H 1.016 V 2.447 h -1.722 l 0.119,0.471 H -1.903 L -2.011,2.447 H -3.015 V 1.395 h 0.776 L -2.477,0.354 c 0.374,-0.296 0.829,-0.591 1.363,-0.887 -0.517,-0.169 -1.152,-0.366 -1.901,-0.459 v -0.963 c 1.244,0.086 2.316,0.348 3.219,0.788 0.772,-0.331 1.622,-0.591 2.548,-0.788 v 0.949 c -0.471,0.094 -0.981,0.304 -1.532,0.498 0.567,0.524 0.91,1.16 1.03,1.903"
       style="fill:#0e0f0f;fill-opacity:1;fill-rule:nonzero;stroke:none"
       transform="matrix(0.35277776,0,0,-0.35277776,100.74479,81.829205)"
       clip-path="url(#clipPath4051)" />
    <path
       id="path4052"
       d="m 0,0 h -1.115 l -0.623,-1.544 h 1.115 z"
       style="fill:#0e0f0f;fill-opacity:1;fill-rule:nonzero;stroke:none"
       transform="matrix(0.35277776,0,0,-0.35277776,101.79211,79.02635)"
       clip-path="url(#clipPath4053)" />
    <path
       id="path4054"
       d="M 0,0 -0.623,1.544 H -1.738 L -1.115,0 Z"
       style="fill:#0e0f0f;fill-opacity:1;fill-rule:nonzero;stroke:none"
       transform="matrix(0.35277776,0,0,-0.35277776,100.29038,79.571179)"
       clip-path="url(#clipPath4055)" />
    <path
       id="path4056"
       d="M 0,0 H 1.108 C 0.896,-0.75 -0.013,-1.135 -0.013,-1.135 V -1.986 C 1.798,-1.688 2.203,-0.001 2.204,0 h 0.16 V -1.842 H 3.605 V 0 h 0.16 c 0,-0.001 0.406,-1.688 2.217,-1.986 v 0.851 c 0,0 -0.91,0.385 -1.121,1.135 H 5.859 V 0.904 H 3.605 v 2.51 H 2.364 V 0.904 H 0 Z"
       style="fill:#0e0f0f;fill-opacity:1;fill-rule:nonzero;stroke:none"
       transform="matrix(0.35277776,0,0,-0.35277776,99.681941,80.054661)"
       clip-path="url(#clipPath4057)" />
    <path
       id="path4058"
       d="M 0,0 V 1.575 H 1.533 V 0 C 1.533,-1.024 1.235,-1.939 0.767,-2.737 0.298,-1.939 0,-1.024 0,0 m 3.337,-5.338 c -0.634,0.415 -1.269,0.937 -1.813,1.559 0.999,1.365 1.251,2.807 1.251,3.686 v 1.668 h 0.562 v 0.986 h -2.8 c 0.341,0.83 0.342,1.551 0.342,1.551 h -1.391 c -0.098,-1.843 -1.02,-2.51 -1.02,-2.51 v -1.13 c 0.102,0.042 0.198,0.087 0.291,0.134 v -0.699 c 0,-0.879 0.252,-2.321 1.251,-3.686 -0.544,-0.622 -1.18,-1.144 -1.814,-1.559 v -0.959 c 1.089,0.454 1.927,1.028 2.571,1.65 0.643,-0.622 1.481,-1.196 2.57,-1.65 z"
       style="fill:#0e0f0f;fill-opacity:1;fill-rule:nonzero;stroke:none"
       transform="matrix(0.35277776,0,0,-0.35277776,102.36298,80.300723)"
       clip-path="url(#clipPath4059)" />
    <path
       id="path4060"
       d="M 0,0 V 2.743 L 1.028,3.035 V 4.057 L 0,3.764 V 6.019 H 1.028 V 7.006 H 0 V 9.05 H -1.241 V 7.006 H -2.646 V 6.019 h 1.405 V 3.412 L -2.646,3.013 V 1.991 l 1.405,0.399 v -2.3 c 0,-0.275 -0.21,-0.497 -0.469,-0.497 h -0.936 v -0.987 h 1.331 C -0.589,-1.394 0,-0.77 0,0"
       style="fill:#0e0f0f;fill-opacity:1;fill-rule:nonzero;stroke:none"
       transform="matrix(0.35277776,0,0,-0.35277776,105.16728,82.04274)"
       clip-path="url(#clipPath4061)" />
    <path
       id="path4062"
       d="m 235.584,549.612 h 4.146 v -0.987 h -4.146 z m 4.172,-6.427 v -0.937 c 0,-0.3 -0.23,-0.543 -0.513,-0.543 h -2.562 v 1.48 z m -6.558,-2.422 c 1.355,0.862 2.226,2.623 2.364,4.584 h 2.036 v -1.175 h -0.917 -1.097 -0.144 v -3.454 h 0.329 v 0 h 3.824 c 0.775,0 1.404,0.666 1.404,1.488 v 1.966 h -0.186 -1.972 v 1.175 h 2.659 v 0.987 h -2.659 v 0.911 h -1.241 v -0.911 h -2.014 v 0.421 0.883 h 4.146 1.241 v 0.987 0.987 0.987 h -1.241 -4.146 -1.241 v -0.987 -0.987 -0.987 -1.304 -0.572 c 0,-2.047 -0.737,-3.543 -1.145,-3.933 z"
       style="fill:#0e0f0f;fill-opacity:1;fill-rule:nonzero;stroke:none"
       transform="matrix(0.35277776,0,0,-0.35277776,23.043756,273.28793)"
       clip-path="url(#clipPath4063)" />
    <path
       id="path4064"
       d="m 245.493,546.158 h 3.477 v -0.493 h -3.477 z m 0,1.48 h 3.477 v -0.493 h -3.477 z m 0,1.48 h 3.477 v -0.493 h -3.477 z m -1.241,-4.64 h 1.241 v 0.2 h 3.477 1.242 3.477 v 0.987 h -3.477 v 0.493 h 3.477 v 0.987 h -3.477 v 0.493 h 3.477 v 0.987 h -3.477 v 0.493 h 3.477 v 0.987 h -3.672 l -0.426,1.057 h -1.115 l 0.426,-1.057 h -2.77 c 0.278,0.466 0.414,0.882 0.478,1.057 h -1.514 c -0.169,-0.623 -0.473,-1.12 -0.836,-1.5 h -0.008 v -0.009 c -0.146,-0.152 -0.301,-0.288 -0.462,-0.402 v -0.887 c 0.16,0.05 0.314,0.104 0.462,0.162 z"
       style="fill:#0e0f0f;fill-opacity:1;fill-rule:nonzero;stroke:none"
       transform="matrix(0.35277776,0,0,-0.35277776,23.043756,273.28793)"
       clip-path="url(#clipPath4065)" />
    <path
       id="path4066"
       d="M 0,0 V 0.346 H -1.241 V 0 h -4.56 -0.128 v -0.987 h 0.128 1.766 c -0.382,-0.582 -1.014,-0.888 -1.894,-1.211 v -1.057 c 1.868,0.179 2.938,1.124 3.479,2.268 h 1.209 V -3.255 H 0 v 2.268 H 1.209 C 1.75,-2.131 2.82,-3.076 4.688,-3.255 v 1.057 c -0.88,0.323 -1.512,0.629 -1.895,1.211 H 4.371 4.688 V 0 H 4.371 Z"
       style="fill:#0e0f0f;fill-opacity:1;fill-rule:nonzero;stroke:none"
       transform="matrix(0.35277776,0,0,-0.35277776,111.09391,81.38615)"
       clip-path="url(#clipPath4067)" />
    <path
       id="path4068"
       d="m 0,0 v 0.987 h -6.115 c 0.279,0.466 0.415,0.881 0.478,1.057 H -7.151 C -7.491,0.788 -8.367,0 -9.199,-0.259 v -0.718 c 0.985,0.175 1.755,0.539 2.264,0.977 z"
       style="fill:#0e0f0f;fill-opacity:1;fill-rule:nonzero;stroke:none"
       transform="matrix(0.35277776,0,0,-0.35277776,98.80444,79.571179)"
       clip-path="url(#clipPath4069)" />
    <path
       id="path4070"
       d="m 0,0 h -1.268 l -0.998,-4.437 h 1.268 z"
       style="fill:#0e0f0f;fill-opacity:1;fill-rule:nonzero;stroke:none"
       transform="matrix(0.35277776,0,0,-0.35277776,95.505086,80.969238)"
       clip-path="url(#clipPath4071)" />
    <path
       id="path4072"
       d="M 0,0 0.85,-2.107 H 2.117 L 1.268,0 Z"
       style="fill:#0e0f0f;fill-opacity:1;fill-rule:nonzero;stroke:none"
       transform="matrix(0.35277776,0,0,-0.35277776,94.753563,80.051099)"
       clip-path="url(#clipPath4073)" />
    <path
       id="path4074"
       d="M 0,0 -0.85,2.107 H -2.117 L -1.268,0 Z"
       style="fill:#0e0f0f;fill-opacity:1;fill-rule:nonzero;stroke:none"
       transform="matrix(0.35277776,0,0,-0.35277776,95.45718,79.883634)"
       clip-path="url(#clipPath4075)" />
    <path
       id="path4076"
       d="m 0,0 h -4.952 l 0.163,1.638 h 0.098 4.125 0.285 0.421 z m -0.224,-2.624 h -4.468 c -0.279,0 -0.496,0.255 -0.467,0.549 l 0.109,1.088 h 4.966 z m 2.206,0 H 1.017 l 0.14,1.637 H 1.982 V 0 H 1.241 L 1.465,2.624 H 0.96 0.224 -4.691 -5.932 L -6.193,0 h -0.57 v -0.987 h 0.471 l -0.126,-1.272 c -0.072,-0.722 0.462,-1.35 1.147,-1.35 h 4.961 c -0.034,-0.287 -0.263,-0.504 -0.537,-0.504 h -2.831 v -0.986 h 3.18 c 0.738,0 1.354,0.596 1.421,1.375 l 0.01,0.115 h 1.049 z"
       style="fill:#0e0f0f;fill-opacity:1;fill-rule:nonzero;stroke:none"
       transform="matrix(0.35277776,0,0,-0.35277776,98.105165,80.735523)"
       clip-path="url(#clipPath4077)" />
    <path
       id="path4078"
       d="m 0,0 c -0.4,0 -0.724,-0.343 -0.724,-0.767 0,-0.424 0.324,-0.767 0.724,-0.767 0.4,0 0.724,0.343 0.724,0.767 C 0.724,-0.343 0.4,0 0,0"
       style="fill:#0e0f0f;fill-opacity:1;fill-rule:nonzero;stroke:none"
       transform="matrix(0.35277776,0,0,-0.35277776,97.275537,80.176051)"
       clip-path="url(#clipPath4079)" />
    <path
       id="path4080"
       d="M 0,0 C 0.4,0 0.724,0.344 0.724,0.767 0.724,1.191 0.4,1.534 0,1.534 -0.4,1.534 -0.724,1.191 -0.724,0.767 -0.724,0.344 -0.4,0 0,0"
       style="fill:#0e0f0f;fill-opacity:1;fill-rule:nonzero;stroke:none"
       transform="matrix(0.35277776,0,0,-0.35277776,97.22809,81.643184)"
       clip-path="url(#clipPath4081)" />
    <path
       id="path4082"
       d="m 279.457,549.223 h -10.239 v 1.057 h 10.239 z"
       style="fill:#0e0f0f;fill-opacity:1;fill-rule:nonzero;stroke:none"
       transform="matrix(0.35277776,0,0,-0.35277776,23.043756,273.28793)"
       clip-path="url(#clipPath4083)" />
    <path
       id="path4084"
       d="m 277.783,544.918 h -6.021 v 1.057 h 6.021 z"
       style="fill:#0e0f0f;fill-opacity:1;fill-rule:nonzero;stroke:none"
       transform="matrix(0.35277776,0,0,-0.35277776,23.043756,273.28793)"
       clip-path="url(#clipPath4085)" />
    <path
       id="path4086"
       d="m 277.783,542.914 h -6.021 v 1.057 h 6.021 z"
       style="fill:#0e0f0f;fill-opacity:1;fill-rule:nonzero;stroke:none"
       transform="matrix(0.35277776,0,0,-0.35277776,23.043756,273.28793)"
       clip-path="url(#clipPath4087)" />
    <path
       id="path4088"
       d="m 272.224,540.718 h -1.241 v 6.413 h 1.241 z"
       style="fill:#0e0f0f;fill-opacity:1;fill-rule:nonzero;stroke:none"
       transform="matrix(0.35277776,0,0,-0.35277776,23.043756,273.28793)"
       clip-path="url(#clipPath4089)" />
    <path
       id="path4090"
       d="M 0,0 H 1.328 C 2.104,0 2.732,0.666 2.732,1.488 V 6.145 7.202 H -4.075 V 6.145 H 1.491 V 1.6 C 1.491,1.3 1.261,1.057 0.978,1.057 H 0 Z"
       style="fill:#0e0f0f;fill-opacity:1;fill-rule:nonzero;stroke:none"
       transform="matrix(0.35277776,0,0,-0.35277776,120.29728,82.534513)"
       clip-path="url(#clipPath4091)" />
    <path
       id="path4092"
       d="m 0,0 c 0,0 -0.435,-2.565 -3.396,-5.332 v -1.586 c 0,0 3.955,2.772 4.919,6.906 z"
       style="fill:#0e0f0f;fill-opacity:1;fill-rule:nonzero;stroke:none"
       transform="matrix(0.35277776,0,0,-0.35277776,119.19365,78.845832)"
       clip-path="url(#clipPath4093)" />
    <path
       id="path4094"
       d="m 313.38,547.72 h -8.664 v 1.057 h 8.664 z"
       style="fill:#0e0f0f;fill-opacity:1;fill-rule:nonzero;stroke:none"
       transform="matrix(0.35277776,0,0,-0.35277776,23.043756,273.28793)"
       clip-path="url(#clipPath4095)" />
    <path
       id="path4096"
       d="m 0,0 h 1.328 c 0.776,0 1.404,0.666 1.404,1.488 v 7.37 1.057 H -6.58 V 8.858 H 1.491 V 1.6 C 1.491,1.3 1.261,1.057 0.978,1.057 H 0 Z"
       style="fill:#0e0f0f;fill-opacity:1;fill-rule:nonzero;stroke:none"
       transform="matrix(0.35277776,0,0,-0.35277776,132.9957,82.534513)"
       clip-path="url(#clipPath4097)" />
    <path
       id="path4098"
       d="m 0,0 h 3.43 v -1.855 c 0,-0.3 -0.23,-0.544 -0.513,-0.544 H 0 Z m 3.268,-3.455 c 0.775,0 1.403,0.666 1.403,1.487 V 0 1.057 H 0 -1.241 V 0 -3.455 H 0 Z"
       style="fill:#0e0f0f;fill-opacity:1;fill-rule:nonzero;stroke:none"
       transform="matrix(0.35277776,0,0,-0.35277776,131.19399,80.819873)"
       clip-path="url(#clipPath4099)" />
    <path
       id="path4100"
       d="m 0,0 -7.31,-0.394 v 1.241 l 6.952,0.395 z"
       style="fill:#0e0f0f;fill-opacity:1;fill-rule:nonzero;stroke:none"
       transform="matrix(0.35277776,0,0,-0.35277776,129.33404,82.179513)"
       clip-path="url(#clipPath4101)" />
    <path
       id="path4102"
       d="M 0,0 -1.525,-0.016 C -0.826,-3.703 1.624,-5.28 2.712,-5.81 v 1.118 C 0.772,-3.289 0,0 0,0"
       style="fill:#0e0f0f;fill-opacity:1;fill-rule:nonzero;stroke:none"
       transform="matrix(0.35277776,0,0,-0.35277776,129.01707,78.957664)"
       clip-path="url(#clipPath4103)" />
    <path
       id="path4104"
       d="m 0,0 v -1.118 c 1.088,0.529 3.539,2.107 4.238,5.794 L 2.712,4.692 C 2.712,4.692 1.941,1.403 0,0"
       style="fill:#0e0f0f;fill-opacity:1;fill-rule:nonzero;stroke:none"
       transform="matrix(0.35277776,0,0,-0.35277776,126.41565,80.612791)"
       clip-path="url(#clipPath4105)" />
    <path
       id="path4106"
       d="m 0,0 v -1.244 c 1.088,0.455 3.373,2.635 4.635,5.713 L 3.012,4.483 C 3.012,4.483 1.915,2 0,0"
       style="fill:#0e0f0f;fill-opacity:1;fill-rule:nonzero;stroke:none"
       transform="matrix(0.35277776,0,0,-0.35277776,126.75509,81.881661)"
       clip-path="url(#clipPath4107)" />
    <path
       id="path4108"
       d="m 0,0 c 0,0 1.159,-2.072 1.523,-3.871 h 1.5 C 2.664,-2.154 1.283,0 1.283,0 Z"
       style="fill:#0e0f0f;fill-opacity:1;fill-rule:nonzero;stroke:none"
       transform="matrix(0.35277776,0,0,-0.35277776,128.57649,81.116418)"
       clip-path="url(#clipPath4109)" />
    <path
       id="path4110"
       d="m 284.765,549.751 h -3.27 v 1.057 h 3.27 z"
       style="fill:#0e0f0f;fill-opacity:1;fill-rule:nonzero;stroke:none"
       transform="matrix(0.35277776,0,0,-0.35277776,23.043756,273.28793)"
       clip-path="url(#clipPath4111)" />
    <path
       id="path4112"
       d="m 290.292,547.671 h -4.275 v 0.89 h 4.275 z"
       style="fill:#0e0f0f;fill-opacity:1;fill-rule:nonzero;stroke:none"
       transform="matrix(0.35277776,0,0,-0.35277776,23.043756,273.28793)"
       clip-path="url(#clipPath4113)" />
    <path
       id="path4114"
       d="m 282.558,540.718 h -1.241 v 10.09 h 1.241 z"
       style="fill:#0e0f0f;fill-opacity:1;fill-rule:nonzero;stroke:none"
       transform="matrix(0.35277776,0,0,-0.35277776,23.043756,273.28793)"
       clip-path="url(#clipPath4115)" />
    <path
       id="path4116"
       d="M 0,0 V 10.09 H 1.241 V 1.233 c 0,0 0.497,0 1.29,0.209 V 0.381 C 1.15,0.035 0,0 0,0"
       style="fill:#0e0f0f;fill-opacity:1;fill-rule:nonzero;stroke:none"
       transform="matrix(0.35277776,0,0,-0.35277776,123.70868,82.534513)"
       clip-path="url(#clipPath4117)" />
    <path
       id="path4118"
       d="M 0,0 H 2.898 C 3.673,0 4.301,0.666 4.301,1.488 V 4.326 5.383 H -0.562 V 4.326 H 3.06 V 1.6 C 3.06,1.3 2.831,1.057 2.548,1.057 H 0 Z"
       style="fill:#0e0f0f;fill-opacity:1;fill-rule:nonzero;stroke:none"
       transform="matrix(0.35277776,0,0,-0.35277776,124.07832,80.874022)"
       clip-path="url(#clipPath4119)" />
    <path
       id="path4120"
       d="M 0,0 -1.283,-0.013 C -0.584,-3.176 2.011,-4.528 3.1,-4.982 v 0.958 C 0.336,-2.604 0,0 0,0"
       style="fill:#0e0f0f;fill-opacity:1;fill-rule:nonzero;stroke:none"
       transform="matrix(0.35277776,0,0,-0.35277776,124.75647,80.764556)"
       clip-path="url(#clipPath4121)" />
    <path
       id="path4122"
       d="M 0,0 C 0.76,0.548 1.574,1.352 2.148,2.497 L 1.015,2.554 C 0.694,1.961 0.196,1.289 -0.571,0.703 -0.85,0.49 -0.585,-0.422 0,0"
       style="fill:#0e0f0f;fill-opacity:1;fill-rule:nonzero;stroke:none"
       transform="matrix(0.35277776,0,0,-0.35277776,125.10251,81.808425)"
       clip-path="url(#clipPath4123)" />
    <path
       id="path4124"
       d="m 0,0 c 0,0 0,-2.036 -0.456,-3.157 0.347,-0.29 0.79,-2.911 0.116,-3.68 -0.674,-0.769 -1.607,-0.535 -1.607,-0.535 v 1.065 c 0.913,-0.2 1.385,1.355 0.298,3.15 0,0 0.588,1.2 0.615,3.511 z"
       style="fill:#0e0f0f;fill-opacity:1;fill-rule:nonzero;stroke:none"
       transform="matrix(0.35277776,0,0,-0.35277776,123.50262,79.347943)"
       clip-path="url(#clipPath4125)" />
  </g>
</svg>
