<?xml version="1.0" encoding="utf-8"?>
<!-- Generator: Adobe Illustrator 28.0.0, SVG Export Plug-In . SVG Version: 6.00 Build 0)  -->
<svg version="1.1" id="svg1" xmlns:svg="http://www.w3.org/2000/svg"
	 xmlns="http://www.w3.org/2000/svg" xmlns:xlink="http://www.w3.org/1999/xlink" x="0px" y="0px" viewBox="0 0 39.1 39.1"
	 style="enable-background:new 0 0 39.1 39.1;" xml:space="preserve">
<style type="text/css">
	.st0{clip-path:url(#SVGID_00000018915903779148551440000006547885668095249029_);fill:#2D4F9E;}
	.st1{clip-path:url(#SVGID_00000005961482870829561920000015618977989642856853_);fill:#2D4F9E;}
	.st2{clip-path:url(#SVGID_00000014627240875864223150000001468204160970733455_);fill:#2D4F9E;}
	.st3{clip-path:url(#SVGID_00000076593008268308737100000001540707640180757659_);fill:#2D4F9E;}
	.st4{clip-path:url(#SVGID_00000096739927007360595230000014362225615840617877_);fill:#2D4F9E;}
	.st5{clip-path:url(#SVGID_00000158729862975288367250000015540354474603355272_);fill:#2D4F9E;}
	.st6{clip-path:url(#SVGID_00000121254734651426341140000011295595575701480636_);fill:#2D4F9E;}
	.st7{clip-path:url(#SVGID_00000023264453936877110630000005680272273974428347_);fill:#2D4F9E;}
	.st8{clip-path:url(#SVGID_00000142884739497799634490000002388584004530054843_);fill:#2D4F9E;}
	.st9{clip-path:url(#SVGID_00000126287158279647819840000001381610447495744947_);fill:#2D4F9E;}
	.st10{clip-path:url(#SVGID_00000145778781101851389790000002763348658816631949_);fill:#2D4F9E;}
	.st11{clip-path:url(#SVGID_00000108999362315301802600000002750324510963971512_);fill:#2D4F9E;}
	.st12{clip-path:url(#SVGID_00000170961940006293163460000004830758338626679714_);fill:#2D4F9E;}
	.st13{clip-path:url(#SVGID_00000116219747261184740200000004348807900221655939_);fill:#2D4F9E;}
	.st14{clip-path:url(#SVGID_00000040565402336042985240000008044890143244313786_);fill:#2D4F9E;}
	.st15{clip-path:url(#SVGID_00000091737620967717388760000000144402810813111487_);fill:#2D4F9E;}
	.st16{clip-path:url(#SVGID_00000151508909323906178900000006437958862139629245_);fill:#2D4F9E;}
	.st17{clip-path:url(#SVGID_00000136413547993784916070000015314607446679560608_);fill:#2D4F9E;}
	.st18{clip-path:url(#SVGID_00000003811109718414247090000005788447801869182082_);fill:#2D4F9E;}
	.st19{clip-path:url(#SVGID_00000163038792850713188810000000146289504878453662_);fill:#2D4F9E;}
	.st20{clip-path:url(#SVGID_00000062162036219850374490000013507187314318391204_);fill:#2D4F9E;}
	.st21{clip-path:url(#SVGID_00000101807322544437688310000003504048796645189259_);fill:#2D4F9E;}
	.st22{clip-path:url(#SVGID_00000056418338420891098020000005829203997501413529_);fill:#2D4F9E;}
	.st23{clip-path:url(#SVGID_00000007387206299384612770000017902926450692941193_);fill:#2D4F9E;}
	.st24{clip-path:url(#SVGID_00000157986640773445275410000018328385568473570693_);fill:#2D4F9E;}
	.st25{clip-path:url(#SVGID_00000024705271698303857250000009796017475529220487_);fill:#2D4F9E;}
	.st26{clip-path:url(#SVGID_00000067199860676425168600000002602628352698709921_);fill:#2D4F9E;}
	.st27{clip-path:url(#SVGID_00000143619396053723699060000001226794874332255890_);fill:#2D4F9E;}
	.st28{clip-path:url(#SVGID_00000042725988029881819730000000225440209268127634_);fill:#2D4F9E;}
	.st29{clip-path:url(#SVGID_00000137089892926307375920000002505975302503472059_);fill:#2D4F9E;}
	.st30{clip-path:url(#SVGID_00000077285681351902369080000006344985339128240009_);fill:#2D4F9E;}
	.st31{clip-path:url(#SVGID_00000080903834843058772200000017275474051917441954_);fill:#2D4F9E;}
	.st32{clip-path:url(#SVGID_00000005261859708028773850000002491047622715463862_);fill:#2D4F9E;}
	.st33{clip-path:url(#SVGID_00000085938730219611242170000014621987579033330055_);fill:#2D4F9E;}
	.st34{clip-path:url(#SVGID_00000117653432923257029710000003338987656990114220_);fill:#2D4F9E;}
	.st35{clip-path:url(#SVGID_00000015319194734030403890000008266605982679725723_);fill:#2D4F9E;}
	.st36{clip-path:url(#SVGID_00000081637320903753409430000014077073976283668386_);fill:#2D4F9E;}
	.st37{clip-path:url(#SVGID_00000068667422484807732360000015918436626224921730_);fill:#2D4F9E;}
	.st38{clip-path:url(#SVGID_00000045582687934999557440000006312958495873582236_);fill:#2D4F9E;}
	.st39{clip-path:url(#SVGID_00000114773079227249394760000010280119432994832037_);fill:#2D4F9E;}
</style>
<g id="layer1" transform="translate(-125.8838,-196.49464)">
	<g>
		<defs>
			<rect id="SVGID_1_" x="-249.8" y="-557.2" width="1207.6" height="858.9"/>
		</defs>
		<clipPath id="SVGID_00000065772191714962239520000002493861421381964948_">
			<use xlink:href="#SVGID_1_"  style="overflow:visible;"/>
		</clipPath>
		<path id="path3667" style="clip-path:url(#SVGID_00000065772191714962239520000002493861421381964948_);fill:#2D4F9E;" d="
			M145.4,235.3c-10.6,0-19.2-8.6-19.2-19.2c0-10.6,8.6-19.2,19.2-19.2c10.6,0,19.2,8.6,19.2,19.2
			C164.7,226.7,156.1,235.3,145.4,235.3 M145.4,196.5c-10.8,0-19.6,8.8-19.6,19.6c0,10.8,8.8,19.6,19.6,19.6
			c10.8,0,19.6-8.8,19.6-19.6C165,205.3,156.2,196.5,145.4,196.5"/>
	</g>
	<g>
		<defs>
			<rect id="SVGID_00000073000617375846994170000004638316313634559623_" x="-249.8" y="-557.2" width="1207.6" height="858.9"/>
		</defs>
		<clipPath id="SVGID_00000161615237479727310900000006912558135273006981_">
			<use xlink:href="#SVGID_00000073000617375846994170000004638316313634559623_"  style="overflow:visible;"/>
		</clipPath>
		<path id="path3669" style="clip-path:url(#SVGID_00000161615237479727310900000006912558135273006981_);fill:#2D4F9E;" d="
			M145.4,203.5c-6.9,0-12.5,5.6-12.5,12.5c0,6.9,5.6,12.5,12.5,12.5S158,223,158,216.1C158,209.1,152.4,203.5,145.4,203.5
			 M145.4,228.9c-7.1,0-12.9-5.8-12.9-12.9s5.8-12.9,12.9-12.9s12.9,5.8,12.9,12.9S152.5,228.9,145.4,228.9"/>
	</g>
	<g>
		<defs>
			<rect id="SVGID_00000101083805688989208660000009173940968652425390_" x="-249.8" y="-557.2" width="1207.6" height="858.9"/>
		</defs>
		<clipPath id="SVGID_00000135663958677711164980000010053905688516040624_">
			<use xlink:href="#SVGID_00000101083805688989208660000009173940968652425390_"  style="overflow:visible;"/>
		</clipPath>
		<path id="path3671" style="clip-path:url(#SVGID_00000135663958677711164980000010053905688516040624_);fill:#2D4F9E;" d="
			M135.4,227.9c0.1-0.1,0.1-0.1,0.2-0.2c-0.1,0.1-0.3,0.2-0.4,0.2C135.3,228,135.4,228,135.4,227.9"/>
	</g>
	<g>
		<defs>
			<rect id="SVGID_00000099626456334854721890000012917800965127809452_" x="-249.8" y="-557.2" width="1207.6" height="858.9"/>
		</defs>
		<clipPath id="SVGID_00000011737925450589617460000000179766547307713700_">
			<use xlink:href="#SVGID_00000099626456334854721890000012917800965127809452_"  style="overflow:visible;"/>
		</clipPath>
		<path id="path3673" style="clip-path:url(#SVGID_00000011737925450589617460000000179766547307713700_);fill:#2D4F9E;" d="
			M144.1,231.4c-0.1,0-0.1,0-0.2,0c-0.1,0-0.1,0.1-0.2,0.1c-0.1,0-0.2,0.1-0.2,0.1c0,0-0.1,0-0.1,0c0,0,0,0,0,0c0,0,0,0,0,0
			c0,0-0.1,0.1-0.1,0.1c0,0,0,0.1,0,0.1c0,0,0,0,0.1,0c0.1-0.1,0.3-0.1,0.4-0.2c0,0,0.1,0,0.2,0c0,0,0,0.1,0,0.1
			c0,0.1-0.1,0.1-0.2,0.1c0,0-0.1,0-0.1,0c-0.1,0-0.2,0.1-0.3,0.1c0,0,0.1,0.1,0.1,0.1c0,0,0,0,0.1-0.1c0,0,0,0,0.1-0.1
			c0-0.1,0.1-0.1,0.2,0c0,0,0.1,0,0.1,0c0.1-0.1,0.2-0.2,0.3-0.3C144.2,231.5,144.2,231.4,144.1,231.4"/>
	</g>
	<g>
		<defs>
			<rect id="SVGID_00000165215040441863139140000014047626203857263505_" x="-249.8" y="-557.2" width="1207.6" height="858.9"/>
		</defs>
		<clipPath id="SVGID_00000150097085798964028090000017573924874408117644_">
			<use xlink:href="#SVGID_00000165215040441863139140000014047626203857263505_"  style="overflow:visible;"/>
		</clipPath>
		<path id="path3675" style="clip-path:url(#SVGID_00000150097085798964028090000017573924874408117644_);fill:#2D4F9E;" d="
			M135.6,228.6c-0.1,0-0.2,0-0.2-0.1c-0.2,0.1-0.2,0.2-0.3,0.3c0.2,0,0.5-0.1,0.7-0.2C135.7,228.6,135.6,228.6,135.6,228.6"/>
	</g>
	<g>
		<defs>
			<rect id="SVGID_00000070116293306035473950000003086010622436281018_" x="-249.8" y="-557.2" width="1207.6" height="858.9"/>
		</defs>
		<clipPath id="SVGID_00000181077860540679935270000003476144853467079069_">
			<use xlink:href="#SVGID_00000070116293306035473950000003086010622436281018_"  style="overflow:visible;"/>
		</clipPath>
		<path id="path3677" style="clip-path:url(#SVGID_00000181077860540679935270000003476144853467079069_);fill:#2D4F9E;" d="
			M139.2,230.5c0,0,0,0.1,0,0.1c0.1,0,0.2-0.1,0.3-0.1c0,0,0,0,0-0.1C139.5,230.5,139.4,230.5,139.2,230.5L139.2,230.5z"/>
	</g>
	<g>
		<defs>
			<rect id="SVGID_00000172411566844803620850000008311154321131311514_" x="-249.8" y="-557.2" width="1207.6" height="858.9"/>
		</defs>
		<clipPath id="SVGID_00000078026013555989272400000015705999784080139688_">
			<use xlink:href="#SVGID_00000172411566844803620850000008311154321131311514_"  style="overflow:visible;"/>
		</clipPath>
		<path id="path3679" style="clip-path:url(#SVGID_00000078026013555989272400000015705999784080139688_);fill:#2D4F9E;" d="
			M130.9,221.7C130.9,221.7,130.9,221.7,130.9,221.7c-0.1,0-0.2,0.1-0.3,0.1c0.1,0,0.2,0,0.3,0C130.9,221.8,130.9,221.8,130.9,221.7
			"/>
	</g>
	<g>
		<defs>
			<rect id="SVGID_00000106134129709123202860000001735257668554689939_" x="-249.8" y="-557.2" width="1207.6" height="858.9"/>
		</defs>
		<clipPath id="SVGID_00000111891821975981094220000002221793412553841818_">
			<use xlink:href="#SVGID_00000106134129709123202860000001735257668554689939_"  style="overflow:visible;"/>
		</clipPath>
		<path id="path3681" style="clip-path:url(#SVGID_00000111891821975981094220000002221793412553841818_);fill:#2D4F9E;" d="
			M138.6,231.4c0.1-0.1,0.1-0.2,0.2-0.3c-0.1,0.1-0.2,0.1-0.3,0.1C138.5,231.3,138.6,231.4,138.6,231.4"/>
	</g>
	<g>
		<defs>
			<rect id="SVGID_00000156571479925344501310000012787476031156518802_" x="-249.8" y="-557.2" width="1207.6" height="858.9"/>
		</defs>
		<clipPath id="SVGID_00000145741383244627253520000010428276320003055793_">
			<use xlink:href="#SVGID_00000156571479925344501310000012787476031156518802_"  style="overflow:visible;"/>
		</clipPath>
		<path id="path3683" style="clip-path:url(#SVGID_00000145741383244627253520000010428276320003055793_);fill:#2D4F9E;" d="
			M135.8,228.8c-0.1,0.1-0.2,0.1-0.4,0.2c-0.1,0-0.1,0-0.1,0.1c0.3,0,0.5-0.1,0.7-0.4c0.1,0.1,0,0.2,0.1,0.2c0,0.1,0,0.1-0.1,0.1
			c-0.2,0.2-0.4,0.3-0.7,0.3c0,0.2,0,0.2,0.2,0.2c0.1,0,0.1,0,0.2,0c0.3,0,0.7-0.3,0.8-0.6c0-0.1,0-0.1-0.1-0.2
			c-0.2-0.1-0.3-0.1-0.4-0.2C135.8,228.7,135.8,228.7,135.8,228.8"/>
	</g>
	<g>
		<defs>
			<rect id="SVGID_00000016045474152555248280000012535822802389156502_" x="-249.8" y="-557.2" width="1207.6" height="858.9"/>
		</defs>
		<clipPath id="SVGID_00000078013288252213364100000010279042103769101697_">
			<use xlink:href="#SVGID_00000016045474152555248280000012535822802389156502_"  style="overflow:visible;"/>
		</clipPath>
		<path id="path3685" style="clip-path:url(#SVGID_00000078013288252213364100000010279042103769101697_);fill:#2D4F9E;" d="
			M131.4,221.8C131.4,221.8,131.4,221.8,131.4,221.8c-0.1-0.1-0.2-0.1-0.3-0.2c0,0.1,0,0.1,0,0.2
			C131.2,221.8,131.3,221.8,131.4,221.8"/>
	</g>
	<g>
		<defs>
			<rect id="SVGID_00000112595857735905821260000013157259058611258027_" x="-249.8" y="-557.2" width="1207.6" height="858.9"/>
		</defs>
		<clipPath id="SVGID_00000044135606208523452300000014585196120304870333_">
			<use xlink:href="#SVGID_00000112595857735905821260000013157259058611258027_"  style="overflow:visible;"/>
		</clipPath>
		<path id="path3687" style="clip-path:url(#SVGID_00000044135606208523452300000014585196120304870333_);fill:#2D4F9E;" d="
			M130.7,221.6c-0.1,0-0.2,0.1-0.4,0.2c0,0,0.1,0.1,0.1,0.1C130.5,221.8,130.6,221.7,130.7,221.6
			C130.7,221.6,130.7,221.6,130.7,221.6"/>
	</g>
	<g>
		<defs>
			<rect id="SVGID_00000142876426532883406110000009284201187849224863_" x="-249.8" y="-557.2" width="1207.6" height="858.9"/>
		</defs>
		<clipPath id="SVGID_00000114789833929087873380000008012820120318978438_">
			<use xlink:href="#SVGID_00000142876426532883406110000009284201187849224863_"  style="overflow:visible;"/>
		</clipPath>
		<path id="path3689" style="clip-path:url(#SVGID_00000114789833929087873380000008012820120318978438_);fill:#2D4F9E;" d="
			M136.5,203.6C136.5,203.6,136.5,203.6,136.5,203.6C136.5,203.6,136.5,203.6,136.5,203.6C136.6,203.6,136.6,203.6,136.5,203.6
			c0.1,0,0.1,0,0.1,0c0,0,0,0,0,0c0,0,0-0.1,0-0.1c0,0,0-0.1,0-0.1c0,0,0,0,0,0c0,0,0,0,0,0c0,0,0,0,0,0.1c0,0,0,0.1,0,0.1
			C136.5,203.5,136.5,203.5,136.5,203.6"/>
	</g>
	<g>
		<defs>
			<rect id="SVGID_00000002384354287642050350000009112380717640943256_" x="-249.8" y="-557.2" width="1207.6" height="858.9"/>
		</defs>
		<clipPath id="SVGID_00000158724162682078894660000017523672600143411085_">
			<use xlink:href="#SVGID_00000002384354287642050350000009112380717640943256_"  style="overflow:visible;"/>
		</clipPath>
		<path id="path3691" style="clip-path:url(#SVGID_00000158724162682078894660000017523672600143411085_);fill:#2D4F9E;" d="
			M136.1,202.3L136.1,202.3c0,0,0.1,0,0.1,0c0,0,0.1,0,0.1,0c0,0,0,0,0.1,0c0,0,0,0,0,0c0,0,0,0.1,0,0.1c0,0,0,0,0,0
			c0,0-0.1,0-0.1,0c0,0,0,0-0.1,0s0,0-0.1,0c0,0,0,0,0,0c0,0,0-0.1,0-0.1c0,0,0,0,0,0C136.1,202.4,136.1,202.3,136.1,202.3
			C136.1,202.3,136.1,202.3,136.1,202.3 M135.6,202.5c0.1,0,0.1,0,0.2,0c0,0,0,0,0.1,0c0,0,0.1-0.1,0.1-0.1c0,0,0,0,0,0
			c0,0,0,0.1,0,0.1c0,0,0.1,0.1,0.1,0.1c0,0,0,0,0.1,0c0,0,0,0,0,0c0,0,0.1,0.1,0.1,0.1c0,0,0.1,0.1,0.1,0.1c0,0,0,0.1,0,0.1
			c0,0,0,0.1,0,0.1c0,0,0,0,0,0c0,0,0,0,0,0c0,0,0,0,0,0c0,0,0.1,0,0.1-0.1c0,0,0-0.1,0-0.1c0,0,0-0.1-0.1-0.1c0,0,0,0,0,0
			c0,0,0,0,0,0c0,0,0,0,0,0c0,0,0-0.1,0-0.1c0,0,0-0.1,0.1-0.1c0,0,0.1,0,0.1,0c0,0,0.1,0,0.1,0c0,0,0,0,0,0.1c0,0,0,0.1,0,0.1
			c0,0,0,0-0.1,0.1c0,0,0,0,0,0.1c0,0,0,0.1,0,0.1c0,0,0,0.1,0,0.1c0,0,0.1,0.1,0.1,0.1c0,0,0,0.1,0.1,0.1c0,0,0,0.1,0,0.1
			c0,0.1-0.1,0.1-0.1,0.1c0,0-0.1,0-0.1,0.1c0,0-0.1,0.1-0.1,0.1c0,0,0,0.1,0,0.1c0,0,0,0,0,0c0,0,0.1,0,0.1,0c0.1,0,0.1,0,0.2,0
			c0,0,0.1,0,0.1-0.1c0,0,0.1-0.1,0.1-0.1c0.1,0,0.1-0.1,0.1-0.1c0,0,0.1-0.1,0.2-0.1c0,0,0,0,0-0.1c0-0.1,0-0.1-0.1-0.2
			c-0.1-0.1-0.1-0.1-0.2-0.2c0,0-0.1-0.1-0.1-0.1c0,0,0,0,0-0.1c0-0.1-0.1-0.2-0.2-0.3c0,0-0.1-0.1-0.1-0.1c0-0.1-0.1-0.1-0.1-0.2
			c-0.1-0.1-0.1-0.1-0.2-0.2c-0.1-0.1-0.1-0.1-0.2-0.2c-0.1,0-0.1-0.1-0.2-0.1c0,0,0,0-0.1,0c0,0-0.1,0-0.1,0c0,0-0.1,0-0.1,0.1
			c-0.1,0-0.1,0.1-0.1,0.2c0,0.1-0.1,0.2-0.1,0.2c0,0,0,0.1-0.1,0.1C135.5,202.4,135.6,202.5,135.6,202.5
			C135.6,202.5,135.6,202.5,135.6,202.5"/>
	</g>
	<g>
		<defs>
			<rect id="SVGID_00000136408432334361660330000016655545936605188499_" x="-249.8" y="-557.2" width="1207.6" height="858.9"/>
		</defs>
		<clipPath id="SVGID_00000085941948380049246600000005381211622315773069_">
			<use xlink:href="#SVGID_00000136408432334361660330000016655545936605188499_"  style="overflow:visible;"/>
		</clipPath>
		<path id="path3693" style="clip-path:url(#SVGID_00000085941948380049246600000005381211622315773069_);fill:#2D4F9E;" d="
			M145.9,199.5C145.9,199.5,145.9,199.5,145.9,199.5c0,0.1,0,0.1,0,0.1c0,0,0,0,0,0.1c0,0,0,0,0,0c0,0,0,0,0,0c0-0.1,0-0.3,0-0.4
			c0,0,0,0,0,0c0,0,0,0,0,0c0,0,0,0,0,0c0,0,0,0,0,0.1c0,0,0,0,0,0C145.9,199.4,145.9,199.4,145.9,199.5
			C145.9,199.4,145.9,199.4,145.9,199.5"/>
	</g>
	<g>
		<defs>
			<rect id="SVGID_00000165201691715520491360000002540015598265884326_" x="-249.8" y="-557.2" width="1207.6" height="858.9"/>
		</defs>
		<clipPath id="SVGID_00000123438727647891647390000010422124625564767123_">
			<use xlink:href="#SVGID_00000165201691715520491360000002540015598265884326_"  style="overflow:visible;"/>
		</clipPath>
		<path id="path3695" style="clip-path:url(#SVGID_00000123438727647891647390000010422124625564767123_);fill:#2D4F9E;" d="
			M145.7,200C145.7,200,145.7,200.1,145.7,200C145.7,200.1,145.8,200,145.7,200L145.7,200C145.8,200,145.8,200,145.7,200
			C145.8,200,145.8,200,145.7,200c0.1-0.1,0.1-0.1,0.2-0.1c0,0,0,0,0.1,0c0,0,0,0,0.1,0c0,0,0,0,0-0.1c0,0,0-0.1,0-0.1
			c0,0,0,0,0-0.1c0,0,0,0,0,0c0,0,0,0,0,0c0,0,0,0,0,0c0,0,0,0-0.1,0.1c0,0.1-0.1,0.1-0.1,0.1C145.8,199.9,145.7,199.9,145.7,200
			C145.7,200,145.7,200,145.7,200C145.7,200,145.7,200,145.7,200C145.7,200,145.7,200,145.7,200C145.7,200,145.7,200,145.7,200"/>
	</g>
	<g>
		<defs>
			<rect id="SVGID_00000041988075869665322260000014646134092762358951_" x="-249.8" y="-557.2" width="1207.6" height="858.9"/>
		</defs>
		<clipPath id="SVGID_00000041995343030292245940000014749825572953658015_">
			<use xlink:href="#SVGID_00000041988075869665322260000014646134092762358951_"  style="overflow:visible;"/>
		</clipPath>
		<path id="path3697" style="clip-path:url(#SVGID_00000041995343030292245940000014749825572953658015_);fill:#2D4F9E;" d="
			M128.8,217.8C128.8,217.8,128.8,217.8,128.8,217.8C128.8,217.9,128.8,217.9,128.8,217.8c0.1,0,0.1-0.1,0.2-0.1c0.1,0,0.1,0,0.2,0
			c0,0,0,0,0,0c0,0-0.1-0.1-0.1-0.1c-0.1,0-0.3,0.1-0.4,0.1C128.7,217.9,128.8,217.8,128.8,217.8"/>
	</g>
	<g>
		<defs>
			<rect id="SVGID_00000093151857345834282690000012896383182811416244_" x="-249.8" y="-557.2" width="1207.6" height="858.9"/>
		</defs>
		<clipPath id="SVGID_00000181055904710144992710000000717099451911184531_">
			<use xlink:href="#SVGID_00000093151857345834282690000012896383182811416244_"  style="overflow:visible;"/>
		</clipPath>
		<path id="path3699" style="clip-path:url(#SVGID_00000181055904710144992710000000717099451911184531_);fill:#2D4F9E;" d="
			M136.1,203.4C136.1,203.4,136.1,203.4,136.1,203.4C136.1,203.4,136.1,203.4,136.1,203.4C136.1,203.4,136.1,203.4,136.1,203.4
			c0.1-0.1,0.1-0.1,0-0.1c0,0,0,0,0,0C136,203.3,136,203.3,136.1,203.4C136,203.4,136,203.4,136.1,203.4
			C136,203.4,136,203.4,136.1,203.4C136.1,203.4,136.1,203.4,136.1,203.4"/>
	</g>
	<g>
		<defs>
			<rect id="SVGID_00000061431199662591873950000015251056366919602064_" x="-249.8" y="-557.2" width="1207.6" height="858.9"/>
		</defs>
		<clipPath id="SVGID_00000106841110910222548620000010228019074127560886_">
			<use xlink:href="#SVGID_00000061431199662591873950000015251056366919602064_"  style="overflow:visible;"/>
		</clipPath>
		<path id="path3701" style="clip-path:url(#SVGID_00000106841110910222548620000010228019074127560886_);fill:#2D4F9E;" d="
			M136.3,203.9C136.3,203.9,136.3,203.9,136.3,203.9C136.4,203.9,136.4,203.8,136.3,203.9C136.4,203.8,136.4,203.8,136.3,203.9
			c0.1-0.1,0.1-0.2,0.1-0.2c0,0,0-0.1,0-0.1c0,0,0,0,0,0c0,0,0,0,0-0.1s0,0,0-0.1c0,0,0,0,0,0c0,0,0,0-0.1,0c0,0,0,0,0,0.1
			c0,0,0,0.1,0,0.1c0,0,0,0-0.1,0c0,0,0,0-0.1,0c0,0-0.1,0-0.1,0c0,0,0,0-0.1,0c0,0,0,0,0,0c0,0,0,0,0,0c0,0,0,0,0-0.1
			c0,0,0,0,0-0.1c0,0,0,0,0-0.1c0,0,0,0,0,0c0,0,0,0-0.1,0c0,0,0,0,0,0c0,0,0,0,0,0c0,0,0,0,0,0c0,0,0,0,0,0c0,0,0,0,0,0
			c0,0,0,0,0,0c0,0,0-0.1,0-0.1c0,0-0.1-0.1-0.1-0.1c0,0,0,0,0,0c0,0-0.1,0-0.1,0c0,0,0,0,0,0c0,0,0,0,0-0.1c0,0,0-0.1,0-0.1
			c0,0,0,0,0-0.1c0,0,0,0,0,0c0,0,0,0,0,0c0,0,0,0,0,0.1c0,0.1,0,0.1,0,0.2c0,0,0,0,0,0c0,0,0,0.1,0,0.1c0,0,0,0.1,0,0.1
			c0,0,0,0.1,0,0.1c0,0,0,0,0,0.1c0,0.1,0.1,0.1,0.2,0.2c0.1,0.1,0.2,0.1,0.2,0.2c0,0,0.1,0.1,0.2,0.1
			C136.2,203.8,136.2,203.8,136.3,203.9"/>
	</g>
	<g>
		<defs>
			<rect id="SVGID_00000030454567162880772710000012634595285495666561_" x="-249.8" y="-557.2" width="1207.6" height="858.9"/>
		</defs>
		<clipPath id="SVGID_00000117661908274497026310000014987965742968683174_">
			<use xlink:href="#SVGID_00000030454567162880772710000012634595285495666561_"  style="overflow:visible;"/>
		</clipPath>
		<path id="path3703" style="clip-path:url(#SVGID_00000117661908274497026310000014987965742968683174_);fill:#2D4F9E;" d="
			M136.1,202.8C136.1,202.8,136.1,202.8,136.1,202.8C136.1,202.7,136,202.7,136.1,202.8C136,202.7,136,202.7,136.1,202.8
			C136,202.8,136,202.8,136.1,202.8C136,202.8,136,202.8,136.1,202.8C136,202.8,136,202.8,136.1,202.8
			C136.1,202.8,136.1,202.8,136.1,202.8"/>
	</g>
	<g>
		<defs>
			<rect id="SVGID_00000137823151420165324630000003498307084424783756_" x="-249.8" y="-557.2" width="1207.6" height="858.9"/>
		</defs>
		<clipPath id="SVGID_00000170249693627668048850000014872274659674040209_">
			<use xlink:href="#SVGID_00000137823151420165324630000003498307084424783756_"  style="overflow:visible;"/>
		</clipPath>
		<path id="path3705" style="clip-path:url(#SVGID_00000170249693627668048850000014872274659674040209_);fill:#2D4F9E;" d="
			M130,209.3c0,0,0.1,0.1,0.1,0.1c0,0,0,0,0,0c0,0,0,0,0.1,0c0,0,0,0,0,0c0,0,0,0,0,0c0,0,0-0.1,0-0.1c0,0,0,0,0-0.1c0,0,0,0,0,0
			c0,0,0,0,0-0.1c0,0,0,0,0,0c0,0,0,0,0,0c0,0,0,0,0,0c0,0,0,0,0-0.1c0,0,0,0,0,0c0,0,0,0,0,0c0,0,0,0,0,0.1c0,0,0,0,0,0.1
			C130,209.2,130,209.2,130,209.3C130,209.3,130,209.3,130,209.3C130,209.3,130,209.3,130,209.3"/>
	</g>
	<g>
		<defs>
			<rect id="SVGID_00000065754752164102050560000007523662126018542482_" x="-249.8" y="-557.2" width="1207.6" height="858.9"/>
		</defs>
		<clipPath id="SVGID_00000023277320943766450490000017418379218785895092_">
			<use xlink:href="#SVGID_00000065754752164102050560000007523662126018542482_"  style="overflow:visible;"/>
		</clipPath>
		<path id="path3707" style="clip-path:url(#SVGID_00000023277320943766450490000017418379218785895092_);fill:#2D4F9E;" d="
			M136.2,203.2L136.2,203.2C136.2,203.2,136.2,203.1,136.2,203.2c0-0.1,0-0.1,0-0.1c0,0,0,0,0-0.1c0,0,0,0,0,0c0,0,0,0,0,0
			c0,0,0,0,0,0c0,0,0,0,0,0c0,0,0,0,0,0.1c0,0,0,0,0,0C136.1,203.1,136.1,203.1,136.2,203.2C136.2,203.2,136.2,203.2,136.2,203.2"/>
	</g>
	<g>
		<defs>
			<rect id="SVGID_00000132785916959800837790000005018649455206603904_" x="-249.8" y="-557.2" width="1207.6" height="858.9"/>
		</defs>
		<clipPath id="SVGID_00000078766128293902167830000007735818994985477277_">
			<use xlink:href="#SVGID_00000132785916959800837790000005018649455206603904_"  style="overflow:visible;"/>
		</clipPath>
		<path id="path3709" style="clip-path:url(#SVGID_00000078766128293902167830000007735818994985477277_);fill:#2D4F9E;" d="
			M129.8,218c-0.1-0.1-0.1-0.1-0.2-0.2c0,0,0,0,0-0.1c0,0,0,0,0,0c0,0,0.1,0,0.1,0c-0.1-0.1-0.2-0.1-0.3-0.1c0,0.1,0.1,0.1,0.1,0.2
			c0,0,0,0.1,0,0.1c0,0-0.1,0-0.1,0c-0.1,0-0.2,0-0.2,0c0,0-0.1,0-0.1,0c0,0,0,0.1,0,0.1c0,0,0,0.1,0,0.1c0,0,0,0.1,0,0.1
			c0,0-0.1,0-0.1,0c0,0-0.1-0.1-0.1-0.1c-0.1-0.1-0.1-0.1-0.2-0.2c-0.1,0.1-0.2,0.2-0.2,0.3c0,0,0,0.1,0.1,0.1c0,0,0.1,0,0.1,0
			c0.1,0,0.2,0,0.3,0C129.2,218.3,129.5,218.2,129.8,218C129.8,218.1,129.8,218.1,129.8,218"/>
	</g>
	<g>
		<defs>
			<rect id="SVGID_00000075132670151621356750000015306470410674259626_" x="-249.8" y="-557.2" width="1207.6" height="858.9"/>
		</defs>
		<clipPath id="SVGID_00000062874819255711726330000002056135357586435769_">
			<use xlink:href="#SVGID_00000075132670151621356750000015306470410674259626_"  style="overflow:visible;"/>
		</clipPath>
		<path id="path3711" style="clip-path:url(#SVGID_00000062874819255711726330000002056135357586435769_);fill:#2D4F9E;" d="
			M162.8,217.2c-0.1,0-0.2,0.1-0.2,0.1c0,0,0,0,0,0c0,0,0,0-0.1,0c-0.2,0-0.4,0-0.6,0c-0.2,0-0.4,0-0.6-0.1c0,0-0.1,0-0.1,0
			c0,0,0.1,0,0.1,0.1c0.1,0.1,0.1,0.1,0.2,0.2c0,0,0,0,0,0.1c0,0.1,0.1,0.1,0.2,0.1c0.1,0,0.1,0,0.2,0c0,0,0.1,0,0.1,0
			c0.1,0,0.1,0.1,0.1,0.1c-0.1,0.1-0.3,0.2-0.4,0.1c-0.1,0-0.1,0-0.2-0.1c-0.2-0.1-0.5-0.2-0.7-0.2c0,0,0,0-0.1,0c0,0,0,0,0,0.1
			c-0.1,0.1-0.2,0.1-0.2,0c0-0.1-0.1-0.1-0.1-0.2c-0.1-0.1-0.1-0.2-0.2-0.3c0-0.1,0-0.1,0-0.2c0,0,0,0,0,0c0.1,0,0.1,0,0.2,0
			c0.1,0,0.1,0.1,0.1,0.1c0,0.1,0.1,0.2,0.2,0.2c0.1,0.2,0.3,0.3,0.5,0.3c-0.1-0.2-0.3-0.3-0.4-0.5c-0.1-0.1-0.1-0.2-0.2-0.3
			c0-0.1,0-0.2,0.1-0.2c0.1,0,0.2,0,0.3,0.1c0.1,0.2,0.3,0.3,0.6,0.3c0.2,0,0.4,0,0.6,0c0.1,0,0.2,0,0.3,0c0.1,0,0.1,0,0.2-0.1
			c0.1,0,0.1-0.1,0.2,0c0.1,0,0.2,0.1,0.1,0.2C162.8,217.1,162.8,217.2,162.8,217.2 M162.2,218.8c-0.1,0-0.1,0.1-0.2,0.1
			c-0.1,0-0.1,0-0.2,0c0,0,0,0,0-0.1c0,0,0-0.1-0.1-0.1c-0.1,0-0.3,0-0.4,0c-0.1,0-0.3,0-0.4,0.1c0,0,0,0-0.1,0c0,0,0,0,0-0.1
			c0,0,0,0,0,0c0,0-0.1,0-0.1-0.1c-0.1-0.1-0.2-0.1-0.2-0.2c-0.2-0.1-0.3-0.2-0.5-0.3c-0.1,0-0.1-0.1-0.1-0.1c0,0,0,0,0-0.1
			c0-0.1,0.1-0.2,0.2-0.2c0.1,0,0.2,0,0.3,0c0.1,0,0.1,0,0.1,0.1c0,0,0,0,0,0c0,0.2,0,0.3,0.1,0.4c0.1,0.1,0.1,0.2,0.2,0.3
			c0,0,0,0,0,0c0-0.1,0.1-0.1,0.1-0.1c0,0,0,0,0-0.1c-0.1-0.1-0.2-0.2-0.2-0.3c-0.1-0.2-0.1-0.4,0.2-0.5c0,0,0,0,0,0
			c-0.1,0-0.1-0.1-0.2-0.1c0,0,0,0,0,0c0.1,0,0.1,0,0.2,0c0.3,0.1,0.6,0.2,0.8,0.5c0,0,0.1,0.1,0.1,0.1c0,0,0,0.1,0,0.1
			c-0.1,0.1-0.2,0.1-0.3,0.1c0,0,0,0-0.1,0c-0.1-0.1-0.1-0.1-0.2-0.2c0,0-0.1,0-0.1,0c0.1,0,0.1,0.1,0.1,0.2c0,0,0,0,0,0
			c0.1,0,0.1,0,0.2,0c0.2,0,0.4,0.1,0.6,0.1c0,0,0.1,0,0.1,0.1C162.2,218.7,162.2,218.8,162.2,218.8 M161.9,221.7
			c0,0.2-0.1,0.3-0.2,0.5c-0.1,0.2-0.3,0.3-0.4,0.2c-0.1,0-0.2-0.1-0.3-0.1c-0.1-0.1-0.1-0.1-0.2-0.2c0,0.1,0,0.2,0,0.3
			c0.1,0.1,0.2,0.2,0.3,0.4c0.1,0.1,0.1,0.2,0.1,0.3c0,0.1,0,0.2-0.1,0.3c0,0,0,0,0-0.1c0,0,0-0.1,0-0.1c-0.1-0.1-0.1-0.3-0.2-0.4
			c0,0.1-0.1,0.2-0.2,0.2c0-0.1,0-0.1,0-0.1c0-0.1,0-0.2,0-0.2c0-0.2-0.1-0.3-0.2-0.4c-0.1-0.1-0.1-0.2-0.1-0.3c0,0,0,0,0-0.1
			c-0.1,0.1-0.2,0-0.3-0.1c0,0-0.1,0-0.1,0c-0.1,0-0.1-0.1,0-0.1c0-0.1,0.1-0.1,0.2-0.1c0.1,0,0.1,0.1,0.2,0.1c0,0,0-0.1,0-0.1
			c0,0,0-0.1,0.1-0.1c0,0,0.1,0,0.1,0.1c0,0.1,0,0.2,0,0.2c0,0,0,0.1,0,0.1c0.1,0.1,0.1,0.1,0.2,0.2c0-0.1,0.1-0.2,0.2-0.2
			c0.1,0,0.2,0,0.2,0.1c0.1,0.1,0.2,0.2,0.3,0.3c0.1,0,0.2,0,0.2-0.1c0.1-0.2,0.1-0.4,0.1-0.6c0-0.1-0.1-0.1-0.2-0.2
			c-0.1,0-0.2-0.1-0.3-0.1c-0.1,0-0.1,0-0.2,0c0.1,0,0.1-0.1,0.2-0.1c0,0,0.1,0,0.1,0c0.1,0,0.2,0,0.3,0c0.1,0,0.1,0,0.2,0
			c0.1,0,0.1,0,0.1,0.1C161.9,221.4,161.9,221.6,161.9,221.7 M160.4,222.2c0,0.1-0.1,0.1-0.2,0.2c-0.1,0-0.1,0.1-0.2,0
			c0,0,0,0.1,0,0.1c0,0.1,0,0.2,0,0.2c-0.1,0.1-0.2,0.1-0.3,0.1c0,0-0.1,0-0.1-0.1c0-0.1-0.1-0.2-0.2-0.3c0-0.1-0.1-0.1-0.1-0.2
			c0-0.1,0-0.1,0-0.2c0-0.1,0-0.1,0.1-0.1c0.1,0,0.1,0,0.2,0c0-0.1,0-0.2,0-0.3c0-0.1-0.2-0.2-0.4-0.2c-0.1,0-0.1,0-0.2,0
			c0,0-0.1,0-0.1,0c0,0,0-0.1,0-0.1c0.1-0.1,0.2-0.2,0.3-0.2c0.1,0,0.2,0,0.3,0.1c0-0.1,0.1-0.2,0.1-0.3c0-0.1,0.2-0.3,0.3-0.3
			c0.1,0,0.2,0.1,0.3,0.2c0.1,0.1,0.1,0.3,0,0.4c0,0-0.1,0-0.1,0.1c0-0.1,0-0.1,0-0.2c0-0.1,0-0.1-0.1-0.2c-0.1-0.1-0.1-0.1-0.2-0.1
			c-0.1,0-0.1,0.1-0.1,0.2c0,0.3,0.1,0.6,0.2,0.9c0,0,0.1,0,0.1,0c0-0.1,0-0.1,0-0.2c0.1,0,0.1,0,0.1,0c0,0.1,0.1,0.1,0.2,0.2
			c0.1,0,0.1,0.1,0.2,0.1C160.4,222.2,160.4,222.2,160.4,222.2 M160,225.5C160,225.5,160,225.5,160,225.5c-0.1,0-0.2,0-0.2,0
			c-0.1,0-0.2,0-0.3-0.1c-0.2-0.2-0.4-0.3-0.6-0.4c-0.1-0.1-0.2-0.2-0.4-0.3c0,0.2,0,0.3,0,0.5c0,0.1,0.1,0.1,0.1,0.2c0,0,0,0,0,0
			c0,0,0-0.1-0.1-0.1c0,0,0,0,0,0c0,0.1,0.1,0.1,0.1,0.2c0,0,0,0,0,0c0,0,0,0,0-0.1c0,0,0,0,0,0c0.1,0.1,0.2,0.2,0.2,0.4
			c0,0,0,0,0,0c0,0,0,0.1,0,0.1c0,0-0.1,0-0.1,0c-0.1,0-0.1,0-0.2,0c0,0-0.1-0.1-0.1-0.1c0,0,0,0,0,0c0,0,0,0,0,0c0,0,0,0.1,0,0.1
			c0.1,0.1,0.1,0.2,0.1,0.4c0,0.1,0,0.2,0,0.2c0,0,0,0.1-0.1,0c-0.1,0-0.1,0-0.2,0c0,0,0,0,0,0c0,0,0,0,0,0c-0.1,0-0.2,0-0.3-0.1
			c0,0.1,0,0.1,0,0.1c0,0.1,0,0.2,0,0.3c0,0,0,0,0,0.1c0,0-0.1,0.1-0.1,0.1c0,0-0.1,0-0.1,0c-0.1,0-0.1,0-0.1-0.1
			c0-0.3,0-0.5-0.1-0.8c-0.1-0.2-0.1-0.4-0.2-0.6c0,0,0,0,0,0c-0.1,0-0.2,0.1-0.2,0.1c-0.1,0-0.2,0-0.2,0c-0.1,0,0-0.1,0-0.1
			c0.1,0,0.1-0.1,0.2-0.1c0,0,0.1-0.1,0.1-0.1c0-0.1,0-0.1,0-0.2c0-0.1,0.1-0.3,0.2-0.3c0.1,0,0.1,0.1,0.2,0.1
			c0,0.1,0.1,0.3,0.1,0.4c0.1,0.1,0.1,0.3,0.2,0.4c0,0,0,0.1,0.1,0.1c0-0.1,0-0.3,0-0.4c0-0.1,0.1-0.1,0.2-0.1c0,0,0.1,0,0.1,0
			c0-0.2-0.1-0.3-0.1-0.5c0,0.1-0.1,0.1-0.1,0.1c-0.1,0.1-0.2,0.1-0.3,0.1c-0.1,0,0-0.1,0-0.1c0,0,0.1,0,0.1,0
			c0.1-0.1,0.1-0.2,0.2-0.3c0-0.1,0-0.2,0-0.2c0,0,0-0.1,0-0.1c0,0,0-0.1,0-0.1c0,0,0-0.1,0-0.1c0,0,0.1-0.1,0.1-0.1
			c0,0,0.1-0.1,0.1,0c0,0,0,0,0.1,0c0,0.1,0,0.1,0,0.2c0,0,0,0.1,0.1,0.1c0.1,0,0.1,0.1,0.2,0.1c0,0,0.1-0.1,0.1-0.1
			c0,0,0.1,0,0.1,0c0,0,0,0,0,0.1c0,0.1,0,0.1,0.1,0.2c0.1,0.1,0.2,0.1,0.2,0.2c0.2,0.2,0.5,0.4,0.7,0.5c0.1,0,0.1,0.1,0.2,0.1
			C159.9,225.4,159.9,225.4,160,225.5C160,225.4,160,225.5,160,225.5 M156.7,228.8c0,0.1-0.1,0.1-0.1,0.1c0,0-0.1,0.1-0.1,0.1
			c0,0,0,0.1-0.1,0.1c0,0,0,0,0,0c0,0.1-0.1,0.1-0.2,0.1c0,0-0.1,0-0.1,0c-0.1,0-0.1,0-0.1-0.1c0,0,0-0.1,0-0.1c0,0-0.1,0-0.1,0
			c0,0-0.1,0-0.1,0c0,0,0-0.1,0-0.1c0-0.1,0.1-0.1,0.1-0.2c0-0.1,0-0.1-0.1-0.2c0,0,0,0,0,0.1c0,0.1,0,0.1-0.1,0.1
			c-0.1,0-0.2,0-0.2,0c0,0,0-0.1,0-0.1c0,0,0.1-0.1,0.1-0.1c0-0.1,0.1-0.2,0.1-0.2c0-0.2,0.2-0.2,0.3-0.1c0,0,0,0,0,0.1
			c0,0.1,0,0.1,0.1,0.2c0,0,0.1,0,0.1,0c0.1,0,0.1,0,0.2,0c0,0,0.1,0.1,0.1,0.1c0,0.1,0,0.2,0,0.3c0,0,0,0,0,0c0,0,0,0,0.1-0.1
			c0.1-0.1,0.2-0.1,0.3-0.1C156.7,228.7,156.8,228.8,156.7,228.8 M155.7,229.8C155.7,229.8,155.6,229.8,155.7,229.8
			c-0.2,0-0.3,0-0.3-0.1c0-0.1-0.1-0.1-0.1-0.2c0,0,0,0,0,0c0,0.1,0,0.2,0,0.4c0,0.1,0,0.2,0,0.3c0,0,0,0.1-0.1,0.1c0,0-0.1,0-0.1,0
			c0,0-0.1,0-0.1,0c0,0-0.1-0.1-0.1-0.1c0,0,0,0,0-0.1c0-0.1,0-0.3,0.1-0.4c-0.1,0.1-0.1,0.1-0.2,0.1c-0.1,0-0.1-0.1-0.2-0.1
			c0.2,0,0.2-0.2,0.2-0.3c0-0.2,0-0.4,0.1-0.5c0-0.1,0-0.1-0.1-0.2c0-0.1-0.1-0.1-0.1-0.2c-0.1,0.2-0.1,0.4-0.2,0.5c0,0,0,0,0,0
			c0-0.1,0-0.1,0-0.2c0,0,0,0,0,0c0,0.2-0.1,0.3-0.1,0.5c0,0,0,0,0,0c0,0,0-0.1,0-0.1c0,0,0,0,0,0c0,0,0-0.1,0-0.1
			c0-0.1,0-0.2,0-0.2c0-0.1,0-0.1,0-0.2c0-0.2,0-0.5,0.1-0.7c0-0.1,0-0.1,0-0.2c0,0,0,0,0,0c0.1-0.1,0.1-0.1,0.2,0
			c0.1,0,0.1,0.1,0.2,0.1c0.1,0.1,0.1,0.2,0,0.3c0,0.1-0.1,0.1-0.1,0.2c0,0,0.1,0,0.1,0c0.1,0,0.1,0,0.1,0.1c0,0,0,0,0,0
			c0.1,0.1,0.1,0.2,0.2,0.3c0-0.1,0-0.2,0-0.3c0,0,0,0,0,0c-0.1-0.1-0.1-0.1-0.2-0.2c0.1-0.1,0.2,0,0.3,0c0.1-0.2,0.1-0.4,0.1-0.6
			c0,0,0,0,0,0c0,0.1-0.1,0.1-0.1,0.2c0,0.1-0.1,0.2-0.2,0.2c0,0,0,0-0.1,0c0,0,0,0,0-0.1c0.1-0.3,0.2-0.5,0.4-0.7
			c0.1-0.1,0.3-0.1,0.3,0.1c0,0.1,0,0.3,0,0.4c0,0.2-0.1,0.3-0.1,0.5c0,0,0,0.1-0.1,0.1c0,0,0,0,0,0c0,0.1-0.2,0.1-0.4,0.1
			c0,0.1,0,0.2,0,0.3c0,0.1,0,0.2,0.1,0.2c0,0,0,0,0,0.1c0,0.1,0,0.2,0.1,0.2c0.1,0.2,0.3,0.3,0.4,0.5
			C155.7,229.7,155.7,229.7,155.7,229.8C155.8,229.8,155.8,229.8,155.7,229.8 M153.3,231.3c0,0.1-0.1,0.1-0.1,0.2
			c-0.1,0.1-0.2,0.2-0.3,0.2c-0.1,0-0.2,0.1-0.3,0.1c-0.2,0-0.4,0-0.6,0c-0.2,0-0.4,0.1-0.6,0.2c-0.1,0.1-0.3,0.2-0.4,0.2
			c-0.1,0-0.1,0-0.1-0.1c0,0,0,0,0-0.1c0-0.1,0-0.1,0-0.1c0.1,0,0.1-0.1,0.2-0.1c0,0,0.1,0,0.1,0c0,0,0.1,0,0.1,0
			c0.1,0,0.2-0.1,0.3-0.1c0.2-0.1,0.3-0.1,0.5-0.1c0.2,0,0.4-0.1,0.7-0.2c0.2-0.1,0.4-0.1,0.6-0.2c0,0,0.1,0,0.1,0
			C153.3,231.2,153.3,231.3,153.3,231.3 M150.7,230.6C150.7,230.5,150.8,230.5,150.7,230.6c0.2,0,0.3,0,0.4,0.1
			c0.1,0,0.1,0.1,0.1,0.1c0,0-0.1,0.1-0.1,0.1c-0.1,0-0.1,0-0.2,0c-0.1,0-0.2-0.1-0.2-0.2C150.7,230.7,150.7,230.6,150.7,230.6
			 M148.4,232.3c0,0,0,0.1,0,0.1c0,0.1-0.1,0.2-0.1,0.4c0,0,0,0,0.1,0c0,0,0,0.1-0.1,0.1c0,0.1-0.1,0.1-0.2,0.1c0,0,0,0,0,0
			c0,0,0,0,0,0c-0.1,0-0.1,0-0.2,0.1c-0.1,0-0.2-0.1-0.3-0.1c-0.1-0.1-0.2-0.2-0.3-0.3c-0.1,0-0.2-0.1-0.2,0c-0.1,0-0.3,0.1-0.4,0.1
			c-0.1,0-0.3,0-0.4-0.1c-0.1-0.1-0.1-0.2,0-0.2c0,0,0,0,0,0c0.1-0.1,0.2,0,0.3,0c0.1,0,0.1,0,0.2,0c0,0,0.1,0,0.1,0
			c0.1,0,0.2-0.1,0.3-0.1c0.2-0.1,0.3-0.1,0.5-0.2c0.1-0.1,0.2-0.1,0.4,0c0,0,0,0,0,0c0-0.1,0-0.1,0-0.2c0-0.1-0.1,0-0.1,0
			c-0.1,0-0.2,0.1-0.3,0.1c-0.1,0.1-0.3,0.1-0.4,0.1c-0.2,0-0.3-0.2-0.3-0.3c0,0,0,0,0-0.1c0.2-0.2,0.3-0.4,0.2-0.7
			c0-0.2,0-0.3,0-0.4c0,0,0-0.1,0-0.1c0-0.1,0-0.1,0.1,0c0.1,0.1,0.2,0.1,0.2,0.2c0,0,0,0.1,0,0.2c0,0.1,0,0.1,0,0.2
			c0.1,0,0.2-0.1,0.3-0.2c0,0,0,0,0-0.1c0-0.1,0.1-0.1,0.2-0.1c0.1,0.1,0.1,0.1,0.2,0.2c0,0,0,0,0,0.1c0,0.1-0.1,0.2-0.1,0.3
			c0,0,0,0,0,0c-0.1,0.1-0.2,0.2-0.4,0.2c-0.1,0-0.1,0-0.2,0c0,0.1-0.1,0.2-0.1,0.2c0,0,0,0,0.1,0c0.1-0.1,0.3-0.1,0.4-0.2
			c0.2-0.1,0.3,0,0.5,0.1c0,0,0,0.1,0.1,0.1C148.4,231.9,148.4,232.2,148.4,232.3 M151.3,231.4C151.3,231.4,151.3,231.4,151.3,231.4
			c0.2,0,0.2,0.1,0.1,0.2c0,0.1-0.1,0.1-0.1,0c0,0,0,0-0.1,0c-0.1,0-0.2-0.1-0.3-0.2c0,0,0,0,0-0.1c-0.1,0-0.1-0.1-0.1-0.1
			c0,0,0-0.1,0.1-0.1c0,0,0.1,0,0.1,0c0.1,0,0.1,0,0.1,0.1C151,231.3,151.2,231.4,151.3,231.4 M151.8,231c0.1,0,0.1,0.1,0.2,0.1
			c0,0,0.1,0,0.1,0c0,0,0-0.1,0-0.1c-0.1-0.2-0.1-0.4-0.2-0.6c0,0,0,0,0-0.1c-0.1,0.1-0.2,0.2-0.3,0.3c-0.1,0.1-0.1,0.1-0.2,0
			c-0.1,0-0.1-0.1-0.2-0.2c-0.1-0.1,0-0.2,0-0.2c0.2,0,0.2-0.1,0.3-0.2c0.1-0.1,0.2-0.2,0.1-0.4c0-0.1,0-0.2,0-0.3
			c0-0.1,0-0.1,0-0.2c0,0,0,0,0.1,0c0.1,0,0.1,0.1,0.2,0.2c0,0.1,0.1,0.1,0.1,0.1c0.1,0.1,0.1,0.2,0.2,0.2c0,0,0,0.1,0,0.1
			c0,0,0,0.1-0.1,0.1c-0.1,0.1-0.1,0.2-0.1,0.4c0.1,0.3,0.2,0.6,0.3,0.8c0,0,0,0.1,0,0.1c0,0.1-0.1,0.1-0.2,0.1
			c-0.1,0-0.3,0-0.4-0.1c-0.1,0-0.2-0.1-0.2-0.1c0,0,0-0.1-0.1-0.1c0-0.1-0.1-0.2-0.1-0.3c0-0.1,0-0.1,0.1-0.2
			c0.1-0.1,0.1-0.1,0.2-0.1c0,0,0,0,0.1,0c0.1,0,0.1,0.2,0.1,0.2C151.9,230.9,151.8,230.9,151.8,231C151.8,231,151.8,231,151.8,231
			 M132.1,216.1c0-7.4,6-13.4,13.4-13.4c7.4,0,13.4,6,13.4,13.4c0,7.4-6,13.4-13.4,13.4C138.1,229.4,132.1,223.4,132.1,216.1
			 M144.4,233.1c0,0.1-0.1,0.1-0.2,0c0,0,0,0,0,0c-0.1,0-0.1-0.1-0.2-0.2c0,0-0.1-0.1-0.1-0.1c0-0.1-0.1-0.2-0.1-0.2
			c0,0-0.1-0.1,0-0.1c0,0,0.1,0,0.1,0c0.1,0,0.2,0.1,0.3,0.1c0.1,0,0.2,0.1,0.2,0.2c0,0,0,0,0,0.1c0,0,0,0,0,0.1
			C144.4,233,144.4,233,144.4,233.1 M142.7,230.7C142.7,230.6,142.8,230.6,142.7,230.7c0.1-0.1,0.1-0.1,0.1-0.1c0,0,0.1,0.1,0.1,0.1
			c0,0,0,0.1,0.1,0.1c0,0,0,0.1,0,0.1c0,0,0,0.1,0,0.1c-0.1,0-0.1,0-0.2,0c-0.1,0-0.2,0-0.2,0c0,0,0,0-0.1,0c0,0,0,0,0,0
			C142.7,230.9,142.8,230.8,142.7,230.7 M143.6,232.2C143.6,232.2,143.6,232.3,143.6,232.2c0,0.2,0,0.2,0,0.3c0,0.1,0,0.3,0,0.4
			c0,0.1,0,0.3-0.1,0.3c0,0-0.1,0-0.1,0c-0.1-0.1-0.1-0.1-0.2-0.2c-0.1,0-0.1-0.1-0.1-0.2c0,0,0-0.1,0-0.1c0,0,0,0,0,0
			c0,0.1-0.1,0.1-0.2,0.1c0,0,0,0,0,0c0-0.1,0-0.1-0.1-0.1c0,0,0-0.1,0-0.2c0,0,0,0,0.1,0c0.1-0.1,0.2-0.2,0.3-0.3c0,0,0.1,0,0.1,0
			c0,0.1,0,0.2,0,0.2c-0.1,0.1-0.1,0.2,0,0.2c0,0.1,0.1,0.1,0.2,0.1c0-0.1,0-0.2,0-0.3c0-0.1,0-0.2,0-0.2c0-0.1,0-0.1,0-0.1
			c-0.1-0.1-0.1-0.2-0.2-0.3c0,0,0-0.1,0-0.1c-0.1,0.1-0.1,0.2-0.2,0.3c0,0.1-0.1,0.1-0.1,0.2c-0.1,0.1-0.2,0.2-0.4,0.4
			c-0.1,0.1-0.1,0.1-0.2,0.2c0,0.1-0.1,0.1-0.2,0.1c-0.1-0.1-0.2-0.2-0.2-0.3c0-0.1,0-0.2,0.2-0.2c0.1,0,0.2-0.1,0.3-0.2
			c0,0,0,0,0,0c0-0.1,0-0.1,0-0.2c0.1-0.1,0-0.2-0.1-0.3c0-0.1-0.1-0.1-0.1-0.2c0,0,0-0.1,0-0.2c0,0,0-0.1,0-0.1c0,0,0.1,0,0.1,0
			c0,0.1,0.1,0.2,0.2,0.2c0,0,0,0.1,0.1,0.1c0,0,0,0.1,0.1,0.1s0,0.1,0,0.1c0,0-0.1,0-0.1,0.1c0,0,0.1,0,0.1,0
			c0.1-0.1,0.2-0.2,0.4-0.3c0.1-0.1,0.2-0.2,0.3-0.3c0.1-0.1,0.1-0.1,0-0.1c-0.1-0.1-0.1-0.2-0.1-0.3c0-0.1,0.1-0.1,0.2,0
			c0.1,0.1,0.2,0,0.4,0c0.1,0,0.1-0.1,0.2-0.1c0.1,0,0.1,0,0.2,0c0,0,0.1,0,0.1,0.1c0.1,0,0.1,0.1,0,0.1c-0.1,0.1-0.1,0.2-0.3,0.2
			c-0.1,0-0.1,0.1-0.2,0.1c0,0-0.1,0.1-0.1,0.1c-0.1,0-0.1,0.1-0.2,0.1c0,0,0,0,0,0c0.1,0,0.2-0.1,0.3-0.1c0.2-0.1,0.4,0.1,0.5,0.3
			c0,0.1,0,0.2-0.1,0.2c-0.1,0.2-0.3,0.4-0.6,0.5C143.7,232.3,143.7,232.3,143.6,232.2 M140.5,230.9c0,0-0.1,0-0.1,0
			c-0.1,0-0.3-0.1-0.4-0.1c0,0-0.1,0-0.1,0l-0.1,0.1c0,0.1-0.1,0.1-0.1,0.2c0.1,0,0.2,0,0.3,0.1c0-0.1,0-0.1,0-0.2
			c0.1,0.1,0.1,0.1,0.2,0.2c0.1,0.1,0.1,0.2,0.1,0.2c0,0,0,0.1-0.1,0.1c-0.2-0.1-0.4-0.1-0.7-0.1c-0.1,0.1-0.1,0.2-0.2,0.3
			c0,0,0.1,0,0.2,0l0.3,0c0,0,0.1,0,0.1,0c0,0,0,0.1,0,0.1c0,0.1,0,0.1,0,0.1c0,0,0,0-0.1,0.1c-0.1,0.1-0.1,0.1-0.2,0.1
			c-0.1,0-0.2,0-0.3-0.1c0,0,0.1,0,0.2-0.1c0.1-0.1,0.1-0.1,0.2-0.2v0c0,0,0-0.1-0.1,0c-0.1,0.1-0.2,0.1-0.3,0.1
			c-0.2,0.1-0.3,0.1-0.4,0.1c0,0,0,0,0-0.1c0,0,0-0.1,0-0.1c0,0,0-0.1,0-0.1c0,0,0.1-0.1,0.3-0.3l-0.1,0c-0.1-0.1-0.1-0.2-0.1-0.3
			c0.1,0,0.2,0,0.3,0c0.1-0.1,0.1-0.2,0.2-0.3c0,0-0.1-0.1-0.1-0.2l0,0c-0.1,0.1-0.2,0.2-0.3,0.2c-0.4,0.7-0.6,1.1-0.8,1
			c0-0.2,0-0.4,0-0.6c0,0,0,0,0-0.1c0,0,0-0.1,0-0.1c0,0,0.1-0.1,0.2-0.1c0.1,0,0.1-0.1,0.2-0.1l0.1,0l0.1-0.1c-0.1,0-0.2,0-0.3,0
			c-0.1,0-0.2,0.1-0.2,0.2c-0.2,0.3-0.4,0.5-0.5,0.6c0-0.1-0.1-0.2,0-0.2c0.2-0.4,0.4-0.6,0.6-0.7c0.1,0,0.1-0.1,0.2-0.1
			c0.1,0,0.2,0,0.2,0l0.1,0c-0.1,0-0.3-0.1-0.4-0.1c-0.3,0-0.5,0-0.5-0.1c0-0.1,0-0.2,0.1-0.3c0,0,0.9-0.7,1.1-0.6
			c0.2,0,0.1,0.4-0.1,0.4c-0.4,0.1-0.6,0.3-0.6,0.3l0.2,0c0.1,0,0.3,0.1,0.6,0.1c0-0.1,0-0.1,0-0.1c0.1,0.1,0.1,0.1,0.2,0.2
			c0,0.1,0.1,0.2,0,0.2c0,0,0,0-0.1,0l0,0c0,0,0.1,0,0.1,0c0.2-0.3,0.3-0.5,0.4-0.6c0,0,0-0.1,0-0.1c0,0,0.1,0,0.1,0
			c0,0,0.1,0.1,0.1,0.2c0,0.1,0,0.2,0,0.2c0,0.1-0.1,0.1-0.1,0.2c0,0-0.1,0.1-0.1,0.1l0.2,0c0.1,0,0.1,0,0.2,0
			C140.4,230.7,140.5,230.7,140.5,230.9C140.5,230.8,140.5,230.9,140.5,230.9 M136.9,228.1c0,0-0.1,0.1-0.1,0.1
			c-0.1,0-0.1,0-0.2,0.1c-0.1,0-0.1,0-0.2,0.1c-0.1,0-0.2,0.1-0.3,0.1c0,0,0,0-0.1,0c0.1,0,0.2,0.1,0.3,0.1c0.1,0,0.1,0.1,0.2,0.1
			c0.1,0.1,0.1,0.1,0.1,0.2c0,0.1,0,0.2-0.1,0.3c0,0.1-0.1,0.2-0.1,0.2c-0.1,0.1-0.2,0.2-0.4,0.3c-0.1,0.1-0.2,0.1-0.3,0.1
			c-0.1,0-0.2,0-0.3,0c-0.2,0-0.3-0.1-0.4-0.3c0-0.1-0.1-0.2,0-0.4c0,0,0,0,0-0.1c0-0.1,0-0.1,0.1-0.2c0,0,0,0,0,0
			c-0.1,0-0.2,0-0.2-0.1c-0.1,0.1-0.1,0.2-0.2,0.3c0,0.1-0.1,0.1-0.1,0.1c0,0-0.1,0-0.1,0c-0.1-0.1-0.1-0.2,0-0.3c0,0,0-0.1,0.1-0.1
			c0.1,0,0.2-0.2,0.3-0.3c0,0,0,0,0,0c0,0,0,0,0,0c-0.1,0-0.3,0.1-0.4,0.1c0,0-0.1,0-0.1,0.1c-0.1,0.1-0.1,0-0.2,0
			c-0.1-0.1-0.1-0.2,0-0.3c0-0.1,0.1-0.1,0.1-0.1c0.1,0,0.1,0,0.2,0c0.1,0,0.2,0,0.2,0c0,0,0,0,0,0.1c0.1,0,0.1,0,0.2,0
			c0.2,0,0.3-0.1,0.4-0.3c-0.1-0.1-0.1-0.1-0.2-0.2c0,0,0,0,0,0c0,0-0.1,0-0.1,0c-0.1,0-0.2,0-0.2-0.1c0,0,0,0,0-0.1
			c0-0.1,0-0.2,0.1-0.2c0,0,0.1,0,0.1,0c0.1,0,0.1,0,0.2-0.1c0.1,0,0.2-0.1,0.2-0.1c0,0,0.1,0,0.1-0.1c0,0,0.1-0.1,0.1-0.2
			c0,0.1,0.1,0.1,0.1,0.2c0,0.1,0.1,0.2,0,0.2l0,0c0,0,0,0,0.1-0.1c0.1-0.1,0.2-0.2,0.3-0.4c0,0,0.1,0,0.1,0c0,0,0,0,0.1,0
			c0,0,0.1,0,0.1,0c0,0.2,0,0.3-0.2,0.5c-0.1,0.1-0.1,0.1-0.2,0.2c0,0,0.1,0,0.1,0.1c0.1,0.1,0,0.1,0,0.1c-0.1,0.1-0.1,0-0.2,0
			c-0.1,0-0.1,0.1-0.1,0.1c0,0,0.1,0,0.1,0c0.1,0,0.3-0.1,0.4-0.1c0.2,0,0.4-0.2,0.6-0.3c0.1,0,0.1-0.1,0.1-0.1
			c0.1-0.1,0.1-0.1,0.1,0C136.9,227.9,136.9,228,136.9,228.1 M133.6,225.5C133.6,225.5,133.6,225.5,133.6,225.5
			c0.1,0.2,0.1,0.3-0.1,0.3c-0.1,0-0.3,0-0.4-0.1c0,0.1,0,0.1,0,0.2c0,0.1,0,0.1-0.1,0.1c-0.1,0-0.2,0.1-0.2,0.1
			c-0.1,0-0.1-0.1-0.2-0.1c0,0-0.1,0-0.1,0c-0.1,0-0.2,0.1-0.2,0.1c-0.1,0-0.2,0.1-0.3,0.1c0.1,0.1,0.1,0.1,0.2,0.1
			c0.1,0.1,0.3,0.2,0.4,0.4c0.1,0.1,0.1,0.2,0,0.4c0,0.1-0.1,0.1-0.1,0.1c0,0,0,0,0,0c-0.1,0-0.1,0-0.2,0c-0.1-0.1-0.2-0.2-0.3-0.4
			c0-0.1-0.1-0.2-0.2-0.3c-0.1-0.1-0.3-0.3-0.5-0.4c-0.1-0.1-0.2-0.1-0.2-0.2c-0.1-0.1-0.2-0.2-0.1-0.3c0-0.1,0.1-0.1,0.2-0.1
			c0.1,0,0.1,0.1,0.1,0.1c0,0.1,0.1,0.2,0.2,0.2c0,0,0,0,0,0c0,0,0.1,0,0.1,0c0.1,0.1,0.2,0,0.3,0c0,0,0.1-0.1,0-0.1
			c0-0.1,0-0.2,0.1-0.3c0.1-0.1,0.1,0,0.2,0c0,0.1,0.1,0.1,0.2,0.1c0,0,0.1,0,0.1-0.1c0-0.1,0-0.1,0-0.2c0-0.1,0-0.1-0.1-0.1
			c-0.1,0-0.3,0-0.4,0c-0.1,0-0.3,0-0.4,0c-0.1,0-0.1-0.1-0.2-0.2c0-0.1,0-0.2,0.1-0.3c0.1-0.1,0.2-0.1,0.4,0c0.2,0.1,0.4,0.1,0.5,0
			c0.1,0,0.1-0.1,0.2-0.1c0.1-0.1,0.1-0.1,0.2-0.1c0.1,0,0.1,0.1,0.2,0.2c0,0.2,0,0.3-0.1,0.5c0,0,0,0,0,0.1
			c0.1,0.1,0.1,0.1,0.2,0.1c0.2-0.1,0.4-0.3,0.5-0.4c0,0,0,0,0.1,0c0.1,0,0.1,0,0.1,0.1c0,0.2-0.1,0.4-0.3,0.5c0,0-0.1,0-0.1,0.1
			C133.5,225.4,133.5,225.4,133.6,225.5 M130.8,222.9c0,0.1-0.1,0.1-0.2,0.1c-0.2,0-0.4,0.1-0.6,0.1c-0.1,0-0.3,0-0.4-0.1
			c-0.1,0-0.1-0.1-0.2-0.2c0-0.1-0.1-0.2,0-0.2c0,0,0-0.1,0.1-0.1c0,0,0-0.1,0.1-0.1c0,0,0,0,0-0.1c0,0,0-0.1,0-0.1c0,0,0,0.1,0,0.1
			c0,0,0,0.1,0,0.1c0,0,0,0.1,0,0.1c0,0.2,0.1,0.2,0.2,0.2c0.3,0,0.5,0,0.7-0.1c0.1,0,0.1-0.1,0.1-0.2c0-0.1,0-0.2-0.1-0.2
			c-0.1-0.1-0.3-0.2-0.4-0.4c0,0-0.1,0-0.1,0c-0.1,0-0.1,0.1-0.2,0.1c0.1,0.1,0.1,0.1,0.2,0.1c0,0,0,0,0,0c0,0,0,0,0,0
			c0.1,0,0.1,0,0.2-0.1c0.1,0,0.1,0,0.1,0.1c0,0.1-0.1,0.2-0.2,0.3c-0.1,0-0.1,0.1-0.2,0.1c0,0-0.1,0-0.1,0c-0.1,0-0.2-0.1-0.1-0.2
			c0,0,0-0.1,0.1-0.1c0,0,0-0.1,0-0.1c-0.1-0.1-0.1-0.1-0.2-0.2c0,0,0,0-0.1,0c0,0,0-0.1,0-0.1c-0.1-0.1-0.2-0.3-0.4-0.4
			c0,0,0,0-0.1,0c-0.1,0-0.1-0.2,0-0.2c0,0,0,0,0,0c0-0.1,0.1-0.1,0.2-0.1c0.1,0,0.1,0,0.2,0.1c0.1,0,0.1,0,0.1,0.1
			c0,0.1,0,0.1-0.1,0.1c0,0-0.1,0-0.1,0.1c0.1,0.1,0.1,0.2,0.3,0.3c0,0,0.1,0,0.1,0c0,0,0.1,0,0.1,0c0,0,0,0,0,0c0,0-0.1,0-0.1,0
			c0,0-0.1,0-0.1,0c0,0,0,0,0-0.1c0,0,0-0.1,0.1-0.1c0,0,0,0,0,0c0-0.1,0.1-0.1,0.1-0.1c0,0,0.1,0,0.1,0c0.1,0,0.1,0.1,0.1,0.1
			c0,0,0,0.1,0,0.1c0-0.1,0-0.1,0.1-0.1c0.1-0.1,0.2-0.2,0.3-0.2c0.1,0,0.2-0.1,0.3-0.1c0.1,0,0.1,0,0.2-0.1c0,0,0,0,0,0.1
			c0,0.1-0.1,0.1-0.1,0.2c0.3,0,0.5,0.1,0.7,0.3c0.1,0.1,0.1,0.3,0,0.4c0,0-0.1,0-0.1,0c-0.2-0.1-0.3-0.1-0.5-0.1
			c-0.1,0-0.2,0-0.4,0c0,0.1,0.1,0.1,0.1,0.2C131,222.5,130.9,222.7,130.8,222.9 M128.3,218.5c-0.1-0.1-0.1-0.1,0-0.2
			c0,0,0-0.1,0-0.1c0.1-0.1,0.1-0.2,0.2-0.2c0,0,0.1-0.1,0.1-0.1c0,0,0,0-0.1-0.1c0,0-0.1,0-0.1,0c-0.1,0-0.2,0-0.2-0.1
			c0,0,0-0.1,0-0.1c0-0.1,0-0.1,0.1-0.1c0.1,0,0.1,0,0.2,0c0.1,0,0.2,0,0.2,0c0.2,0,0.3,0,0.5,0c0.1,0,0.2,0.1,0.3,0.1
			c0,0,0-0.1-0.1-0.1c0-0.1-0.1-0.2-0.1-0.3c0-0.1-0.1-0.2-0.2-0.3c-0.1-0.1-0.2-0.2-0.2-0.3c0,0,0-0.1,0.1-0.1c0,0,0,0,0,0
			c0,0,0.1,0.1,0.1,0.1c0,0.1,0,0.2,0.1,0.2c0.1,0.2,0.2,0.4,0.4,0.6c0,0,0,0,0.1,0.1c0-0.1,0-0.1,0-0.2c0,0,0-0.1,0.1-0.1
			c0,0,0.1,0,0.1,0.1c0,0,0,0,0,0.1c0,0,0,0.1,0,0.1c0,0.1,0.1,0,0.1,0c0,0,0-0.1,0-0.1c0,0,0-0.1,0-0.1c0-0.1,0.1-0.1,0.1-0.1
			c0,0,0,0,0,0c0,0.1,0,0.1,0.1,0.2c0,0.1,0.1,0.1,0.1,0.1c0.1,0,0.2,0,0.3-0.1c0.1,0,0.1,0,0.1,0.1c0,0.1,0,0.1-0.1,0.2
			c0,0,0,0,0,0.1c0,0.1,0.1,0.1,0,0.2c0,0.1-0.1,0.1-0.2,0c-0.1-0.1-0.1-0.1-0.2-0.2c0,0.1,0,0.1,0,0.1c0,0.1-0.1,0.1-0.2,0.1
			c0,0,0,0-0.1,0c-0.1,0-0.1-0.1-0.1-0.1c0,0,0,0,0,0c0.1,0.2,0.2,0.4,0.3,0.6c0,0.1,0,0.2,0,0.2c0,0.1-0.1,0.1-0.1,0
			c0-0.1-0.1-0.1-0.1-0.2c0-0.1,0-0.1-0.1-0.2c0-0.1-0.1-0.2-0.2-0.3c-0.1,0.1-0.2,0.2-0.4,0.3c-0.1,0-0.2,0.1-0.3,0.1
			c-0.2,0-0.5,0.1-0.7,0.1C128.5,218.6,128.4,218.6,128.3,218.5 M129,209.4C129.1,209.4,129.1,209.4,129,209.4
			C129.1,209.3,129.1,209.3,129,209.4C129.1,209.3,129.1,209.3,129,209.4c0-0.1,0.1-0.1,0.1-0.1c0,0,0,0,0.1,0c0,0,0,0,0.1,0
			c0,0,0-0.1,0.1-0.1c0,0,0.1-0.1,0.2-0.1c0,0,0.1,0,0.1,0c0,0,0.1,0,0.1,0.1c0,0,0.1,0,0.1,0c0,0,0,0,0.1,0c0-0.1,0-0.1,0-0.2
			c0-0.1,0-0.1,0-0.2c0,0,0-0.1,0-0.1c0-0.1,0.1-0.1,0.1-0.1c0,0,0.1,0,0.1,0c0,0,0,0,0,0.1c0,0,0,0.1,0,0.1c0,0,0,0,0,0.1
			c0,0,0,0.1,0,0.1c0,0,0,0,0,0.1c0,0,0,0,0,0.1c0,0,0,0.1,0,0.1c0,0,0,0,0,0c0,0,0,0.1,0,0.1c0,0,0,0.1,0,0.1c0,0,0,0,0.1,0.1
			c0,0,0,0,0,0c0,0,0,0,0,0c0,0,0,0,0-0.1c0,0,0-0.1,0-0.1c0,0,0-0.1,0-0.1c0,0,0-0.1,0-0.1c0,0,0,0,0,0c0,0,0,0,0,0c0,0,0,0,0,0
			c0,0,0,0.1,0,0.1c0,0,0,0,0,0.1c0,0,0,0,0,0c0,0,0,0,0,0.1c0,0,0,0.1,0,0.1c0,0,0,0.1,0,0.1c0,0,0,0.1,0,0.1c0,0,0,0,0,0.1
			c0,0,0,0,0,0c0,0,0,0.1,0.1,0.1c0,0,0.1,0,0.1,0c0,0,0,0,0.1,0.1c0,0,0,0.1,0,0.1c0,0,0.1,0.1,0.1,0.1c0.1,0,0.1,0.1,0.2,0.1
			c0,0,0,0,0.1,0.1c0.1,0,0.1,0.1,0.2,0.1c0,0,0.1,0,0.1,0.1c0,0,0,0,0,0c0,0,0,0,0,0c0,0,0,0-0.1,0c-0.1,0-0.1,0-0.2,0
			c-0.1,0-0.1,0-0.2,0c-0.1,0-0.1,0-0.2-0.1c-0.1,0-0.1-0.1-0.2-0.1c0,0-0.1,0-0.1,0c0,0,0,0-0.1,0c0,0,0,0,0,0c0,0,0,0,0,0
			c0,0,0,0,0,0.1c0,0,0,0-0.1,0.1c0,0-0.1,0-0.1,0c0,0-0.1,0-0.1,0c0,0,0,0,0,0c0,0,0,0,0,0c0,0,0,0,0,0c0,0,0-0.1,0-0.1
			c0,0,0,0,0-0.1c0,0,0,0,0,0c-0.1,0-0.1-0.1-0.2-0.1c0,0-0.1,0-0.1,0c0,0-0.1,0-0.1,0c0,0,0,0.1,0,0.1c0,0,0,0,0,0.1c0,0,0,0,0,0
			c0,0,0,0,0,0.1c0,0,0,0,0,0.1c0,0,0,0.1,0,0.1c0,0,0.1,0,0.1,0.1c0,0,0.1,0,0.1,0.1c0,0,0,0.1,0,0.1c0,0,0,0.1,0,0.1
			c0,0-0.1,0.1-0.1,0.1c-0.1,0-0.2,0-0.3,0c0,0,0,0-0.1,0c0,0-0.1,0-0.1,0c-0.1,0-0.1,0-0.2,0c0,0-0.1,0-0.1-0.1
			c0,0-0.1-0.1-0.1-0.1c0,0,0,0,0,0c0,0,0,0,0.1,0c0,0,0.1,0,0.1,0c0,0,0.1,0,0.1,0c0,0,0.1,0,0.1,0c0,0,0.1,0,0.1,0
			c0,0,0,0,0.1-0.1c0,0,0-0.1,0-0.1c0,0,0-0.1-0.1-0.1c0-0.1-0.1-0.2-0.1-0.3c0-0.1-0.1-0.2-0.1-0.2c0,0,0-0.1-0.1-0.1c0,0,0,0,0,0
			c-0.1,0-0.1-0.1-0.2-0.1c-0.1,0-0.1-0.1-0.2-0.1c0,0-0.1,0-0.1,0c0,0,0,0,0,0c0,0,0,0,0,0c0,0,0,0-0.1,0c0,0-0.1,0-0.1-0.1
			C129,209.5,129,209.4,129,209.4 M131.9,221.2C131.9,221.2,131.9,221.2,131.9,221.2c0.1,0,0.1,0.1,0.1,0.1c0,0,0,0.1,0,0.1
			c0,0.1,0,0.2-0.1,0.3c0,0.1-0.1,0.1-0.1,0c-0.1,0-0.2-0.1-0.2-0.2c0-0.1-0.1-0.1-0.1-0.1c-0.1,0-0.1-0.1-0.2-0.1c0,0,0,0,0-0.1
			c0,0,0,0,0,0c0,0-0.1-0.1-0.1-0.1c0,0,0,0,0.1,0c0,0,0-0.1,0-0.1c0.1,0,0.2,0,0.4,0.1c0.1,0,0.2,0.1,0.3,0.1
			C131.8,221.2,131.8,221.2,131.9,221.2 M135.2,203C135.2,203,135.2,203,135.2,203c0.1,0,0.1,0,0.1,0.1c0,0,0,0,0,0.1
			c0,0.1,0.1,0.1,0.1,0.2c0,0.1,0.1,0.1,0.1,0.2c0,0,0,0.1,0.1,0.1c0,0,0,0,0.1,0.1c0,0,0,0,0,0c0,0,0,0,0,0.1c0,0,0.1,0.1,0.1,0.1
			c0,0.1,0.1,0.1,0.1,0.2c0,0.1,0.1,0.1,0.1,0.2c0,0,0,0,0,0c0,0,0,0,0,0c0,0,0,0,0,0c0,0,0,0,0,0c0-0.1,0-0.1,0-0.2
			c0-0.1,0-0.2-0.1-0.2c-0.1-0.1-0.1-0.2-0.2-0.3c0-0.1-0.1-0.1-0.1-0.2c-0.1-0.1-0.1-0.2-0.1-0.2c0-0.1,0-0.1,0-0.2
			c0-0.1,0-0.2,0-0.3c0-0.1,0-0.2,0-0.3c0-0.1,0-0.1,0.1-0.1c0-0.1,0.1-0.1,0.1-0.2c0-0.1,0.1-0.1,0.1-0.2c0.1-0.1,0.1-0.1,0.2-0.2
			c0.1,0,0.1,0,0.2,0c0,0,0.1,0,0.1,0c0,0,0.1,0,0.1,0c0,0.1,0.1,0.1,0.2,0.1c0,0,0.1,0.1,0.1,0.1c0.1,0.1,0.1,0.2,0.2,0.3
			c0,0.1,0.1,0.1,0.1,0.2c0,0,0.1,0.1,0.1,0.1c0,0.1,0.1,0.2,0.1,0.2c0.1,0.1,0.2,0.3,0.3,0.4c0,0,0.1,0.1,0.1,0.1c0,0,0,0,0,0.1
			c0,0,0,0.1,0,0.1c0,0-0.1,0.1-0.1,0.1c0,0-0.1,0-0.1,0.1c-0.1,0-0.2,0.1-0.2,0.2c-0.1,0.1-0.1,0.1-0.2,0.1c-0.1,0-0.2,0-0.3,0
			c-0.1,0-0.2,0-0.3,0c-0.1,0-0.1,0-0.2-0.1c0,0-0.1,0-0.1-0.1c0,0,0,0,0,0c0,0,0,0,0,0c0,0,0,0,0,0c0,0,0,0.1,0,0.1
			c0,0.1,0,0.2,0.1,0.3c0,0,0,0.1,0,0.1c0,0,0,0,0,0.1c0,0,0,0.1,0,0.1c0,0,0,0.1,0,0.2c0,0,0,0-0.1,0c0,0-0.1,0-0.1,0
			c-0.1,0-0.1-0.1-0.1-0.2c-0.1-0.1-0.2-0.3-0.2-0.4c-0.1-0.2-0.2-0.3-0.2-0.5c0-0.1-0.1-0.2-0.1-0.2c0,0,0,0,0-0.1
			C135.2,203.1,135.2,203,135.2,203C135.2,203,135.2,203,135.2,203 M144.4,199.8C144.4,199.8,144.4,199.8,144.4,199.8
			c0-0.1,0-0.1,0-0.1c0,0,0-0.1,0-0.1c0.1,0,0.1-0.1,0.2-0.1c0.1-0.1,0.1-0.1,0.2-0.2c0.1-0.1,0.1-0.2,0.2-0.2c0,0,0.1-0.1,0.1-0.1
			c0,0,0.1-0.1,0-0.1c0,0,0-0.1,0-0.1c0,0,0,0,0.1,0c0,0,0,0,0.1,0c0,0,0.1,0,0.1,0.1c0,0,0,0,0.1,0.1c0,0,0,0,0,0.1c0,0,0,0,0,0
			c0,0-0.1,0-0.1,0.1c0,0-0.1,0-0.1,0.1c0,0,0,0.1,0,0.1c0,0-0.1,0.1-0.1,0.1c0,0-0.1,0-0.1,0.1c-0.1,0.1-0.1,0.2-0.2,0.2
			c0,0,0,0-0.1,0.1c0,0,0,0,0,0.1c0,0,0,0,0,0c0,0,0,0,0.1,0c0.1,0,0.1,0,0.2,0c0,0,0.1,0,0.1,0c0,0,0,0,0.1,0c0,0,0,0,0-0.1
			c0,0,0,0,0,0c0,0,0-0.1,0-0.1c0,0,0,0,0-0.1c0,0,0,0,0,0c0,0,0.1,0,0.1,0c0,0,0.1,0,0.1,0.1c0,0,0,0,0,0c0,0,0,0,0,0
			c0,0,0,0,0,0.1c0,0-0.1,0-0.1,0.1c0,0-0.1,0-0.1,0.1c0,0,0,0,0,0c0,0,0,0.1,0,0.1c0,0,0,0,0,0c0,0,0.1,0,0.1,0c0,0,0,0,0,0
			c0,0,0,0,0-0.1c0,0,0,0,0.1,0c0,0,0,0,0,0c0,0,0,0.1,0,0.1c0,0-0.1,0.1-0.1,0.1c0,0,0,0.1,0,0.1c0,0.1,0,0.1,0,0.2
			c0,0.1,0,0.1,0,0.2c0,0,0,0.1,0,0.1c0,0,0,0.1,0,0.1c0,0,0,0-0.1,0c0,0-0.1,0-0.1,0c0,0-0.1,0-0.1-0.1c0,0,0-0.1,0-0.1
			c0,0,0-0.1,0-0.1c0,0,0,0,0,0c0,0,0,0-0.1,0c0,0-0.1,0-0.1,0c0,0,0,0-0.1,0c0,0,0,0-0.1,0c0,0,0,0.1-0.1,0.1c0,0-0.1,0-0.1,0
			c0,0,0,0-0.1,0c0,0,0-0.1,0-0.1c0,0,0-0.1,0-0.1c0,0,0-0.1,0-0.1c0,0,0,0,0.1-0.1c0,0,0.1,0,0.1-0.1c0,0,0-0.1,0.1-0.1
			c0,0,0,0,0,0l0,0c0,0,0,0,0,0c0,0,0,0,0,0.1c0,0,0,0.1,0,0.1c0,0,0,0.1,0,0.1c0,0,0,0,0.1,0c0,0,0,0,0,0c0,0,0,0,0.1-0.1
			c0,0,0,0,0-0.1c0-0.1,0-0.1,0-0.2c0,0,0,0,0,0c0,0,0,0,0,0c0,0,0,0-0.1,0c0,0,0,0,0,0c-0.1,0-0.2,0-0.3,0c0,0-0.1,0-0.1,0
			c0,0,0,0,0,0c0,0,0,0,0,0.1C144.4,199.9,144.4,199.9,144.4,199.8C144.3,199.8,144.3,199.8,144.4,199.8 M145.5,200.1
			C145.5,200.1,145.5,200,145.5,200.1c0-0.1,0-0.1,0.1-0.1c0,0,0.1-0.1,0.1-0.1c0,0,0-0.1,0.1-0.1c0,0,0,0,0,0c0,0,0-0.1,0-0.1
			c0,0,0-0.1,0-0.1c0,0,0,0,0-0.1c0,0,0,0,0,0c0,0,0,0,0,0c0,0,0.1,0,0.1-0.1c0,0,0,0,0-0.1c0,0,0,0,0,0c0,0,0,0,0,0
			c0,0-0.1-0.1-0.1-0.1c0,0,0,0,0-0.1c0,0,0,0,0,0c0,0,0,0,0,0c0,0,0,0,0.1,0c0,0,0,0,0,0c0,0,0,0,0,0c0,0,0,0,0,0c0,0,0,0,0,0
			c0,0,0,0,0.1,0c0,0,0,0,0-0.1c0,0,0,0,0-0.1c0,0,0,0,0,0c0,0,0,0,0,0c0,0,0,0,0,0c0,0,0,0,0.1,0c0,0,0,0,0,0c0,0,0,0,0.1,0
			c0,0,0,0,0,0.1c0,0,0,0.1,0,0.1c0,0,0,0,0,0c0,0,0,0,0,0c0,0,0,0,0,0c0,0,0,0.1,0,0.1c0,0,0,0.1,0,0.1c0,0.1,0,0.1,0,0.2
			c0,0,0,0.1,0,0.1c0,0,0,0.1,0,0.1c0,0,0,0,0,0c0,0,0.1,0.1,0.1,0.1c0,0,0,0,0,0.1c0,0,0,0,0,0c0,0,0,0,0,0c0,0,0,0,0,0
			c0,0,0,0-0.1,0c0,0-0.1,0-0.1,0.1c0,0,0,0,0,0.1c0,0.1,0,0.1,0,0.2c0,0.1,0,0.1,0,0.1c0,0,0,0.1,0,0.1c0,0.1-0.1,0.3-0.1,0.4
			c0,0.1,0,0.1-0.1,0.2c0,0.1,0,0.1,0,0.2c0,0,0,0.1-0.1,0.1c0,0,0,0,0,0c0,0,0,0,0,0c0-0.1,0-0.2,0-0.3c0-0.1,0-0.3,0-0.4
			c0,0,0-0.1,0-0.1c0,0,0-0.1,0-0.1c0,0,0-0.1,0-0.1c0,0,0,0,0-0.1c0,0,0-0.1,0-0.1c0,0,0,0,0,0c0,0,0,0,0,0c0,0,0,0-0.1,0
			c0,0,0,0,0,0c0,0,0,0-0.1,0c0,0,0,0,0,0c0,0-0.1,0.1-0.1,0.1c0,0,0,0-0.1,0c0,0-0.1,0-0.1,0c0,0,0,0,0,0c0,0,0-0.1,0-0.1
			C145.4,200.2,145.5,200.1,145.5,200.1 M153.3,203.3C153.3,203.3,153.3,203.3,153.3,203.3C153.3,203.3,153.3,203.3,153.3,203.3
			c0.1,0,0.1,0,0.1,0.1c0,0,0.1,0.1,0.1,0.1c0,0.1,0.1,0.1,0.2,0.1c0.1,0,0.1,0,0.2,0c0,0,0.1,0,0.1-0.1c0,0,0,0,0-0.1
			c0,0,0-0.1-0.1-0.1c-0.1,0-0.1,0-0.2-0.1c-0.1,0-0.1-0.1-0.1-0.1c-0.1-0.1-0.1-0.1-0.2-0.1c0,0,0,0,0,0c0,0,0,0,0,0c0,0,0,0,0,0
			c0,0,0,0,0-0.1c0,0,0,0,0-0.1c0,0,0,0,0,0c0,0,0.1,0,0.1,0c0,0,0,0,0.1,0c0,0,0,0,0,0.1c0,0,0,0,0,0c0,0,0,0,0,0.1
			c0,0,0.1,0.1,0.1,0.1c0.1,0.1,0.1,0.1,0.2,0.1c0.1,0,0.1,0,0.2,0.1c0,0,0.1,0,0.1,0c0,0,0,0,0-0.1c0,0,0,0,0,0c0,0,0,0,0-0.1
			c0,0,0-0.1,0-0.1c0,0,0.1,0,0.1-0.1c0,0,0.1,0,0.1-0.1c0,0,0.1,0,0.1,0c0,0,0,0,0-0.1c0,0,0,0,0,0c0,0,0,0,0,0c0,0,0-0.1-0.1-0.1
			c0,0-0.1,0-0.1-0.1c0,0,0,0-0.1,0c0,0,0,0,0-0.1c0,0,0,0,0,0c0,0,0,0,0,0c0,0,0.1,0,0.1,0c0,0,0.1,0,0.1,0c0,0,0.1,0,0.1,0.1
			c0,0,0.1,0.1,0.1,0.1c0,0,0,0.1,0,0.1c0,0,0,0.1,0,0.1c0,0,0,0,0,0c0,0,0,0,0,0c0,0,0,0-0.1,0c0,0-0.1,0-0.1,0c0,0-0.1,0-0.1,0
			c0,0,0,0.1,0,0.1c0,0,0,0.1,0,0.1c0,0,0,0.1,0,0.1c0,0,0,0,0,0.1c0,0,0,0,0,0.1c0,0,0,0,0,0c0,0,0,0,0.1,0c0,0,0.1,0,0.1,0
			c0,0,0,0,0,0c0,0,0,0,0,0c0,0,0,0,0,0.1c0,0,0,0,0,0c0,0,0,0,0,0c0,0,0,0,0,0c0,0,0,0,0,0c0,0,0,0,0,0c0,0,0,0,0,0c0,0,0,0,0,0
			c0,0,0,0,0,0c0,0-0.1,0-0.1,0c0,0,0,0-0.1,0c0,0-0.1,0-0.1-0.1c0,0,0,0-0.1-0.1c0,0,0,0,0,0c0,0,0,0,0,0c0,0,0,0,0,0
			c0,0-0.1,0.1-0.1,0.1c0,0-0.1,0-0.1,0.1s-0.1,0-0.1,0c0,0,0,0-0.1,0c0,0-0.1-0.1-0.1-0.1c0,0-0.1-0.1-0.1-0.1c0,0-0.1-0.1-0.1-0.1
			C153.3,203.4,153.3,203.4,153.3,203.3C153.2,203.3,153.2,203.3,153.3,203.3 M153.8,202.4C153.8,202.4,153.8,202.4,153.8,202.4
			c0.1-0.1,0.1-0.2,0.1-0.2c0,0,0,0,0.1-0.1c0,0,0,0,0,0c0,0,0-0.1,0-0.1c0,0,0,0,0,0c0,0,0,0,0,0c0,0,0,0,0,0c0,0,0,0,0,0
			c0,0,0,0,0,0c0,0,0,0,0,0c0,0,0,0,0,0c0,0,0,0,0,0c0,0,0,0,0,0c0,0,0,0,0.1,0c0,0,0,0,0,0c0,0,0,0,0,0c0,0,0,0.1,0,0.1
			c0,0,0,0,0.1,0c0,0,0.1,0,0.1,0c0,0,0.1,0,0.1,0c0,0,0.1,0,0.1,0c0.1,0,0.2,0,0.3,0c0,0,0.1,0,0.1,0c0,0,0,0,0.1,0
			c0,0,0.1,0,0.1,0c0,0,0.1,0,0.1,0c0,0,0.1,0,0.1,0c0,0,0.1-0.1,0.1-0.1c0,0,0,0,0.1-0.1c0,0,0,0,0,0c0,0,0,0,0,0c0,0,0,0,0,0
			c0,0,0,0,0,0c0,0,0,0.1,0,0.1c0,0,0,0.1,0,0.1c0,0,0,0.1,0,0.1c0,0,0,0,0,0c0,0,0,0,0,0c0,0,0,0-0.1,0c0,0-0.1,0-0.1,0
			c0,0-0.1,0-0.1,0c0,0,0,0-0.1,0c-0.1,0-0.1,0-0.2,0c0,0,0,0,0,0c0,0,0,0,0,0c0,0,0,0.1,0,0.1c0,0,0,0.1,0,0.1c0,0,0,0.1-0.1,0.1
			c0,0,0,0,0,0c0,0,0,0.1-0.1,0.1c0,0-0.1,0-0.1,0.1c0,0-0.1,0-0.1,0c0,0,0,0-0.1,0c0,0,0,0,0,0c0,0,0,0,0,0c0,0,0,0,0,0
			c0,0,0,0,0,0c0,0,0,0,0.1,0c0,0,0,0,0,0c0,0,0,0,0.1-0.1c0,0,0,0,0,0c0,0,0,0,0-0.1c0,0,0,0,0,0c0,0,0,0,0,0c0,0,0,0,0-0.1
			c0,0,0-0.1,0-0.1c0,0,0-0.1,0-0.1c0,0,0-0.1-0.1-0.1c0,0-0.1,0-0.1,0c-0.1,0-0.1,0-0.2,0c-0.1,0-0.2,0-0.2,0c0,0-0.1,0-0.1,0.1
			c0,0.1-0.1,0.1-0.2,0.1c0,0-0.1,0-0.1,0c0,0-0.1,0-0.1,0c0,0,0,0-0.1,0C153.9,202.5,153.9,202.5,153.8,202.4
			C153.8,202.5,153.8,202.5,153.8,202.4C153.8,202.5,153.8,202.5,153.8,202.4 M154.5,201.6c0-0.1,0.1-0.1,0.1-0.2
			c0-0.1,0.1-0.2,0.2-0.2c0,0,0,0,0,0c0,0,0,0,0,0c0,0,0,0,0,0c0,0.1,0,0.2,0,0.3c0,0,0,0.1,0,0.1c0,0,0,0.1-0.1,0.1
			c0,0-0.1,0-0.1,0c0,0-0.1,0-0.1-0.1C154.5,201.7,154.5,201.7,154.5,201.6C154.5,201.7,154.5,201.6,154.5,201.6 M155.1,201.8
			C155.1,201.8,155.1,201.7,155.1,201.8c0.1-0.1,0.1-0.1,0.1-0.1c0,0,0,0,0.1,0c0,0,0,0,0,0c0,0,0,0.1,0,0.1c0,0,0,0,0,0
			c0,0,0,0,0,0c0,0,0,0,0,0c0,0,0,0,0,0s0,0,0,0c0,0,0,0,0,0c0,0,0.1,0,0.1,0c0,0,0.1,0,0.1,0c0,0,0,0,0,0c0,0,0,0,0,0
			c0,0-0.1,0-0.1,0c-0.1,0-0.1,0-0.2,0c0,0-0.1,0-0.1,0c0,0-0.1,0-0.1,0c0,0,0,0,0,0C155.1,202,155.1,201.9,155.1,201.8
			C155.1,201.8,155.1,201.8,155.1,201.8 M158.3,208.6c0,0,0.1-0.1,0.1-0.1c0-0.1,0-0.1,0.1-0.2c0,0,0.1-0.1,0.1-0.1c0,0,0.1,0,0.1,0
			c0,0,0.1,0,0.1,0c0,0,0.1-0.1,0.1-0.1c0,0,0.1,0,0.1,0c0,0,0.1,0,0.1,0c0,0,0.1,0,0.1,0c0.1,0,0.1,0,0.2,0c0,0,0.1,0,0.1,0
			c0,0,0.1,0,0.1,0c0,0,0.1,0.1,0.1,0.1c0,0,0,0.1,0,0.1c0,0,0,0.1,0,0.1c0,0,0,0,0.1,0c0,0,0,0,0,0c0,0,0,0,0.1,0c0,0,0,0,0,0
			c0,0,0-0.1,0-0.1c0,0,0.1-0.1,0.1-0.1c0,0,0,0,0.1-0.1c0,0,0,0,0-0.1c0,0-0.1,0-0.1-0.1c0,0,0,0,0-0.1c0,0,0-0.1,0.1-0.1
			c0,0,0.1,0,0.1,0c0,0,0.1,0,0.1,0c0,0,0,0.1,0,0.1c0,0,0,0.1,0,0.1c0,0,0.1,0.1,0.1,0.1c0,0,0,0.1,0,0.1c0,0,0,0.1-0.1,0.1
			c0,0-0.1,0-0.1,0c0,0-0.1,0-0.1,0c0,0-0.1,0.1-0.1,0.1c0,0,0,0.1-0.1,0.1c0,0,0,0.1-0.1,0.1c0,0-0.1,0.1-0.1,0.1
			c0,0-0.1,0.1-0.2,0c0,0-0.1,0-0.1,0c0,0-0.1,0-0.1,0c0,0,0,0,0-0.1c0,0,0-0.1,0-0.1c0,0,0-0.1,0-0.1c0,0,0,0,0,0c0,0,0,0,0,0
			c0,0,0,0,0,0.1c0,0,0,0,0,0.1c0,0,0,0,0,0h0c0,0,0,0,0,0c0,0-0.1,0.1-0.1,0.1c0,0-0.1,0-0.1,0.1c0,0-0.1,0.1-0.1,0.1
			c-0.1,0-0.1,0-0.2,0c0,0-0.1,0-0.1,0c0,0-0.1,0-0.1,0c0,0-0.1,0.1-0.1,0.1c0,0-0.1,0-0.1,0c0,0,0,0,0,0c0,0-0.1,0-0.1,0
			c0,0,0-0.1,0-0.1c0,0,0-0.1,0-0.1C158.2,208.7,158.2,208.7,158.3,208.6 M160.6,208.7C160.6,208.7,160.6,208.7,160.6,208.7
			C160.6,208.8,160.6,208.8,160.6,208.7c0,0.1,0,0.1,0,0.1c0,0,0,0-0.1,0c0,0,0,0-0.1,0c0,0-0.1,0-0.1,0c0,0,0,0-0.1,0c0,0,0,0,0,0
			c0,0,0,0,0,0c0,0,0.1,0,0.1,0c0,0,0.1,0.1,0.2,0.1c0.1,0.1,0.2,0.1,0.3,0.2c0.1,0,0.1,0.1,0.2,0.2c0,0,0.1,0.1,0,0.2
			c0,0.1-0.1,0.1-0.1,0.1c0,0-0.1,0-0.1,0c0,0-0.1,0-0.1,0c0,0,0,0-0.1,0c-0.1,0-0.1,0-0.2-0.1c-0.1,0-0.2-0.1-0.2-0.1
			c0,0-0.1,0-0.1,0c0,0-0.1,0-0.1,0c0,0,0,0-0.1-0.1c0,0-0.1-0.1-0.1-0.1c-0.1,0-0.1-0.1-0.2-0.1c0,0,0,0-0.1,0c0,0,0,0,0,0
			c0,0,0,0,0,0.1c0,0,0,0,0,0c0,0,0,0,0.1,0c0,0,0.1,0,0.1,0c0,0,0,0,0,0.1c0,0,0,0.1,0.1,0.1c0,0,0.1,0,0.1,0.1c0,0,0,0,0,0
			c0,0,0,0,0,0.1c0,0,0,0,0,0.1c0,0,0,0,0,0c0,0,0,0,0,0c0,0-0.1,0-0.1,0c0,0-0.1,0-0.1-0.1c0,0,0,0-0.1,0c0,0,0,0-0.1,0
			c0,0-0.1,0.1-0.1,0.1c0,0,0,0-0.1,0c-0.1,0-0.1,0-0.2,0c-0.1,0-0.1,0-0.2,0.1c0,0-0.1,0-0.1,0.1c0,0,0,0,0,0c0,0,0.1,0.1,0.1,0.1
			c0,0,0,0.1,0,0.1c0,0,0,0.1,0.1,0.1c0,0,0,0,0.1,0c0,0,0.1,0,0.1-0.1c0,0,0,0,0.1,0c0,0,0,0,0,0c0,0,0,0,0,0.1c0,0,0,0.1,0,0.1
			c0,0-0.1,0.1-0.1,0.1c0,0,0,0,0,0c0,0,0,0,0,0.1c0,0,0,0.1,0,0.1c0,0,0,0.1,0,0.1c0,0,0,0-0.1,0c0,0,0,0-0.1,0c0,0,0,0-0.1-0.1
			c0,0,0,0,0-0.1c0,0,0-0.1,0-0.1c0,0,0-0.1-0.1-0.1c0-0.1-0.1-0.1-0.1-0.1c0,0-0.1,0-0.1-0.1c0,0,0,0,0-0.1c0,0,0-0.1,0.1-0.1
			c0,0,0.1-0.1,0.1-0.1c0,0,0.1-0.1,0.1-0.1c0,0,0,0,0.1,0c0,0,0.1,0,0.1,0c0,0,0.1,0,0.1,0c0,0,0,0,0,0c0,0,0,0,0-0.1c0,0,0,0,0,0
			c-0.1,0-0.1,0-0.2,0c-0.1,0-0.2,0-0.2-0.1c-0.1,0-0.1-0.1-0.2-0.1c0,0,0,0,0,0c0,0,0,0,0,0c0,0,0,0,0,0c0,0,0.1,0,0.1,0
			c0.1,0,0.1,0,0.2,0c0.1,0,0.1,0,0.2,0c0,0,0,0,0.1,0c0,0,0-0.1,0-0.1c0,0,0-0.1,0.1-0.1c0,0,0.1,0,0.1,0c0,0,0.1,0,0.1,0.1
			c0,0,0.1,0,0.1,0c0,0,0,0,0,0c0,0,0,0,0-0.1c0,0,0,0,0,0c0,0,0,0,0,0c0,0,0,0,0,0c0,0,0,0,0,0c0,0,0,0.1,0,0.1c0,0,0,0,0,0
			c0,0,0,0,0,0c0,0,0,0,0,0.1c0,0,0,0,0,0c0,0,0,0,0.1,0c0,0,0,0,0.1,0c0.1,0.1,0.2,0.1,0.3,0.2c0,0,0.1,0,0.1,0c0,0,0.1,0,0.1,0
			c0,0,0,0,0,0c0,0,0,0,0.1,0c0,0,0,0,0-0.1c0,0,0,0,0,0c0,0,0,0-0.1-0.1c0,0-0.1,0-0.1-0.1c0,0-0.1,0-0.1-0.1c0,0,0,0,0,0
			c0,0-0.1,0-0.1,0c0,0,0,0-0.1,0c0,0-0.1,0-0.1,0c0,0,0,0-0.1,0c0,0-0.1,0-0.1,0c0,0-0.1,0-0.1,0c0,0,0,0-0.1,0c0,0-0.1,0-0.1,0
			c0,0-0.1,0-0.1,0c0,0,0,0,0,0c0,0,0-0.1,0-0.1c0-0.1,0.1-0.1,0.1-0.1c0,0,0.1,0,0.1-0.1c0,0,0.1,0,0.1,0c0,0,0.1,0,0.1,0
			c0,0,0.1,0,0.1,0C160.4,208.7,160.4,208.7,160.6,208.7C160.5,208.7,160.5,208.7,160.6,208.7 M160.9,208.9
			C160.9,208.9,160.9,208.9,160.9,208.9c0.1,0,0.1,0,0.1,0c0,0,0,0,0,0c0,0,0,0,0,0c0,0,0-0.1,0.1-0.1c0,0,0,0,0,0c0,0,0,0,0,0
			c0,0,0,0,0-0.1c0,0,0,0,0,0c0,0,0,0,0,0c0,0,0,0,0,0c0,0,0,0.1,0,0.1c0,0,0,0,0,0.1c0,0,0,0.1,0,0.1c0,0,0,0,0,0.1
			c0,0,0,0.1,0,0.1c0,0,0,0-0.1,0c0,0-0.1,0-0.1,0c0,0,0,0-0.1-0.1c0,0,0,0,0,0c0,0,0,0-0.1,0C160.9,209,160.8,209,160.9,208.9
			C160.8,208.9,160.8,208.9,160.9,208.9 M145.4,197.3c-10.3,0-18.7,8.4-18.7,18.7c0,10.3,8.4,18.7,18.7,18.7
			c10.3,0,18.7-8.4,18.7-18.7C164.2,205.7,155.8,197.3,145.4,197.3"/>
	</g>
	<g>
		<defs>
			<rect id="SVGID_00000124143364831659544080000004023670866949269438_" x="-249.8" y="-557.2" width="1207.6" height="858.9"/>
		</defs>
		<clipPath id="SVGID_00000013878123499023732760000001329330147302004634_">
			<use xlink:href="#SVGID_00000124143364831659544080000004023670866949269438_"  style="overflow:visible;"/>
		</clipPath>
		<path id="path3713" style="clip-path:url(#SVGID_00000013878123499023732760000001329330147302004634_);fill:#2D4F9E;" d="
			M146.4,232.5c0.1,0,0.2,0,0.2,0C146.5,232.5,146.5,232.5,146.4,232.5C146.4,232.5,146.4,232.5,146.4,232.5"/>
	</g>
	<g>
		<defs>
			<rect id="SVGID_00000044172504378211888030000003625587902273811359_" x="-249.8" y="-557.2" width="1207.6" height="858.9"/>
		</defs>
		<clipPath id="SVGID_00000005984867472738732620000006316223062931405731_">
			<use xlink:href="#SVGID_00000044172504378211888030000003625587902273811359_"  style="overflow:visible;"/>
		</clipPath>
		<path id="path3715" style="clip-path:url(#SVGID_00000005984867472738732620000006316223062931405731_);fill:#2D4F9E;" d="
			M147.9,232.4c-0.1,0-0.2,0.1-0.3,0.1c-0.1,0-0.2,0.1-0.3,0.1c-0.1,0-0.1,0.1-0.2,0.1c0,0,0,0,0,0c0,0,0.1,0,0.1,0
			c0.1,0,0.1,0,0.2,0c0.1,0,0.2,0.1,0.2,0c0.2,0,0.3-0.2,0.3-0.3c0,0,0,0,0-0.1C148,232.3,147.9,232.4,147.9,232.4"/>
	</g>
	<g>
		<defs>
			<rect id="SVGID_00000099662591450050444850000001940424731209623485_" x="-249.8" y="-557.2" width="1207.6" height="858.9"/>
		</defs>
		<clipPath id="SVGID_00000158745460659365143330000005115690206318332057_">
			<use xlink:href="#SVGID_00000099662591450050444850000001940424731209623485_"  style="overflow:visible;"/>
		</clipPath>
		<path id="path3717" style="clip-path:url(#SVGID_00000158745460659365143330000005115690206318332057_);fill:#2D4F9E;" d="
			M158.3,224.5c0,0.2,0,0.4,0.1,0.6c0,0,0,0,0,0c0,0,0-0.1,0-0.1c0-0.1,0-0.2,0-0.3C158.5,224.6,158.5,224.6,158.3,224.5"/>
	</g>
	<g>
		<defs>
			<rect id="SVGID_00000068636950855798989790000002963510984599826311_" x="-249.8" y="-557.2" width="1207.6" height="858.9"/>
		</defs>
		<clipPath id="SVGID_00000115516915810861647200000017212045102596422542_">
			<use xlink:href="#SVGID_00000068636950855798989790000002963510984599826311_"  style="overflow:visible;"/>
		</clipPath>
		<path id="path3719" style="clip-path:url(#SVGID_00000115516915810861647200000017212045102596422542_);fill:#2D4F9E;" d="
			M158.1,225.5C158.1,225.6,158.1,225.6,158.1,225.5c0,0.2,0.1,0.3,0.1,0.5c0,0.1,0.1,0.2,0.2,0.2
			C158.4,226,158.2,225.6,158.1,225.5"/>
	</g>
	<g>
		<defs>
			<rect id="SVGID_00000059308447497064721300000010768989795420652190_" x="-249.8" y="-557.2" width="1207.6" height="858.9"/>
		</defs>
		<clipPath id="SVGID_00000021803811730584798620000015053425450183194013_">
			<use xlink:href="#SVGID_00000059308447497064721300000010768989795420652190_"  style="overflow:visible;"/>
		</clipPath>
		<path id="path3721" style="clip-path:url(#SVGID_00000021803811730584798620000015053425450183194013_);fill:#2D4F9E;" d="
			M149.6,215c-0.2,0.3-1.2,0.1-2.8-0.5c0-0.3,0.1-0.7,0.1-1c0.3-0.2,0.6-0.4,0.9-0.6C149.1,213.8,149.7,214.7,149.6,215
			 M145.4,217.4c-0.3,0-0.7-1-0.9-2.7c0.3-0.1,0.6-0.3,0.9-0.5c0.3,0.2,0.6,0.3,0.9,0.5C146.2,216.4,145.8,217.4,145.4,217.4
			 M142.8,214.9c-1,0.3-1.4,0.2-1.5,0.1c-0.1-0.1,0-0.5,0.8-1.2c0.3-0.3,0.7-0.6,1.1-0.9c0.3,0.2,0.6,0.4,0.9,0.6c0,0.3,0,0.7,0.1,1
			C143.6,214.6,143.2,214.8,142.8,214.9 M142.1,211.5c-0.8-0.7-0.9-1.1-0.8-1.2c0-0.1,0.2-0.1,0.4-0.1c0.2,0,0.6,0,1,0.2
			c0.4,0.1,0.8,0.3,1.3,0.5c0,0.3-0.1,0.7-0.1,1c-0.3,0.2-0.6,0.4-0.9,0.6C142.8,212,142.4,211.7,142.1,211.5 M145.4,207.8
			c0.3,0,0.7,1,0.9,2.7c-0.3,0.1-0.6,0.3-0.9,0.5c-0.3-0.2-0.6-0.3-0.9-0.5C144.7,208.8,145.1,207.8,145.4,207.8 M146.9,212.2
			c0.2,0.1,0.3,0.2,0.5,0.3c-0.2,0.1-0.3,0.2-0.5,0.3c0-0.1,0-0.2,0-0.3C146.9,212.5,146.9,212.4,146.9,212.2 M145.9,211.2
			c0.2-0.1,0.4-0.2,0.6-0.3c0,0.2,0,0.4,0,0.6c-0.1-0.1-0.2-0.1-0.3-0.2C146.1,211.3,146,211.2,145.9,211.2 M144.4,211.5
			c0-0.2,0-0.4,0-0.6c0.2,0.1,0.4,0.2,0.6,0.3c-0.1,0.1-0.2,0.1-0.3,0.2C144.6,211.4,144.5,211.5,144.4,211.5 M144,212.9
			c-0.2-0.1-0.3-0.2-0.5-0.3c0.2-0.1,0.3-0.2,0.5-0.3c0,0.1,0,0.2,0,0.3C144,212.7,144,212.8,144,212.9 M145,214
			c-0.2,0.1-0.4,0.2-0.6,0.3c0-0.2,0-0.4,0-0.6c0.1,0.1,0.2,0.1,0.3,0.2C144.8,213.9,144.9,213.9,145,214 M146.5,213.7
			c0,0.2,0,0.4,0,0.6c-0.2-0.1-0.4-0.2-0.6-0.3c0.1-0.1,0.2-0.1,0.3-0.2C146.3,213.8,146.4,213.7,146.5,213.7 M146,213.5
			c-0.2,0.1-0.3,0.2-0.5,0.3c-0.2-0.1-0.3-0.2-0.5-0.3c-0.2-0.1-0.3-0.2-0.5-0.3c0-0.2,0-0.4,0-0.6c0-0.2,0-0.4,0-0.6
			c0.2-0.1,0.3-0.2,0.5-0.3c0.2-0.1,0.4-0.2,0.5-0.3c0.2,0.1,0.3,0.2,0.5,0.3c0.2,0.1,0.3,0.2,0.5,0.3c0,0.2,0,0.4,0,0.6
			c0,0.2,0,0.4,0,0.6C146.3,213.3,146.1,213.4,146,213.5 M149.2,210.1c0.2,0,0.4,0,0.4,0.1c0.2,0.3-0.5,1.1-1.8,2.1
			c-0.3-0.2-0.6-0.4-0.9-0.6c0-0.4,0-0.7-0.1-1C147.8,210.3,148.7,210.1,149.2,210.1 M148,212.6c1.3-1,2.2-2,1.9-2.6
			c-0.3-0.6-1.6-0.3-3.2,0.3c-0.2-1.6-0.6-2.9-1.3-2.9s-1.1,1.3-1.3,2.9c-0.4-0.2-0.9-0.3-1.2-0.4c-1.1-0.3-1.7-0.3-1.9,0.1
			c-0.2,0.4,0.1,1,0.9,1.7c0.3,0.3,0.6,0.6,1,0.9c-0.4,0.3-0.7,0.6-1,0.9c-0.8,0.8-1.1,1.3-0.9,1.7c0.1,0.2,0.4,0.3,0.8,0.3
			c0.3,0,0.7-0.1,1.2-0.2c0.4-0.1,0.8-0.3,1.2-0.4c0.2,1.6,0.6,2.9,1.3,2.9s1.1-1.3,1.3-2.9c0.9,0.4,1.8,0.6,2.4,0.6
			c0.4,0,0.6-0.1,0.8-0.3C150.2,214.6,149.4,213.6,148,212.6"/>
	</g>
	<g>
		<defs>
			<rect id="SVGID_00000057127276537530585080000006700127697850730162_" x="-249.8" y="-557.2" width="1207.6" height="858.9"/>
		</defs>
		<clipPath id="SVGID_00000138560939191119190590000012343337598380328629_">
			<use xlink:href="#SVGID_00000057127276537530585080000006700127697850730162_"  style="overflow:visible;"/>
		</clipPath>
		<path id="path3723" style="clip-path:url(#SVGID_00000138560939191119190590000012343337598380328629_);fill:#2D4F9E;" d="
			M137.6,224.9c0.3,0.3,0.6,0.5,1,0.8C138.3,225.4,137.9,225.2,137.6,224.9"/>
	</g>
	<g>
		<defs>
			<rect id="SVGID_00000074423586743052532090000009350006284996599223_" x="-249.8" y="-557.2" width="1207.6" height="858.9"/>
		</defs>
		<clipPath id="SVGID_00000048476968136822773040000016516941459956538290_">
			<use xlink:href="#SVGID_00000074423586743052532090000009350006284996599223_"  style="overflow:visible;"/>
		</clipPath>
		<path id="path3725" style="clip-path:url(#SVGID_00000048476968136822773040000016516941459956538290_);fill:#2D4F9E;" d="
			M138.6,225.6c0.2,0.1,0.4,0.3,0.6,0.4C139,225.9,138.8,225.8,138.6,225.6"/>
	</g>
	<g>
		<defs>
			<rect id="SVGID_00000031168314468474194660000014414509900319467965_" x="-249.8" y="-557.2" width="1207.6" height="858.9"/>
		</defs>
		<clipPath id="SVGID_00000133527659277266345200000009856850242956144306_">
			<use xlink:href="#SVGID_00000031168314468474194660000014414509900319467965_"  style="overflow:visible;"/>
		</clipPath>
		<path id="path3727" style="clip-path:url(#SVGID_00000133527659277266345200000009856850242956144306_);fill:#2D4F9E;" d="
			M151.7,226.1c0.2-0.1,0.4-0.3,0.6-0.4C152.1,225.8,151.9,225.9,151.7,226.1"/>
	</g>
	<g>
		<defs>
			<rect id="SVGID_00000001651540350153881770000018012270953566920853_" x="-249.8" y="-557.2" width="1207.6" height="858.9"/>
		</defs>
		<clipPath id="SVGID_00000019653097651973726350000007826971359639729553_">
			<use xlink:href="#SVGID_00000001651540350153881770000018012270953566920853_"  style="overflow:visible;"/>
		</clipPath>
		<path id="path3729" style="clip-path:url(#SVGID_00000019653097651973726350000007826971359639729553_);fill:#2D4F9E;" d="
			M152.3,225.6c0.3-0.2,0.7-0.5,1-0.8C152.9,225.2,152.6,225.4,152.3,225.6"/>
	</g>
	<g>
		<defs>
			<rect id="SVGID_00000168106992560747125020000003934937451088515515_" x="-249.8" y="-557.2" width="1207.6" height="858.9"/>
		</defs>
		<clipPath id="SVGID_00000073696297491522285700000001936256754340107454_">
			<use xlink:href="#SVGID_00000168106992560747125020000003934937451088515515_"  style="overflow:visible;"/>
		</clipPath>
		<path id="path3731" style="clip-path:url(#SVGID_00000073696297491522285700000001936256754340107454_);fill:#2D4F9E;" d="
			M151.7,226.1c0.2-0.1,0.4-0.3,0.6-0.4C152.1,225.8,151.9,225.9,151.7,226.1 M138.6,225.6c0.2,0.1,0.4,0.3,0.6,0.4
			C139,225.9,138.8,225.8,138.6,225.6 M137.9,225.1c0.2,0.2,0.5,0.4,0.7,0.6C138.3,225.5,138.1,225.3,137.9,225.1"/>
	</g>
	<g>
		<defs>
			<rect id="SVGID_00000134243101166905188380000014317128794635438232_" x="-249.8" y="-557.2" width="1207.6" height="858.9"/>
		</defs>
		<clipPath id="SVGID_00000179643969607672022200000014198738066859596475_">
			<use xlink:href="#SVGID_00000134243101166905188380000014317128794635438232_"  style="overflow:visible;"/>
		</clipPath>
		<path id="path3733" style="clip-path:url(#SVGID_00000179643969607672022200000014198738066859596475_);fill:#2D4F9E;" d="
			M145.4,204.3c-6.5,0-11.8,5.3-11.8,11.8c0,0.2,0,0.4,0,0.7h1.9c0-0.2,0-0.4,0-0.7c0-5.5,4.4-9.9,9.9-9.9s9.9,4.4,9.9,9.9
			c0,0.2,0,0.4,0,0.7h1.9c0-0.2,0-0.4,0-0.7C157.2,209.6,151.9,204.3,145.4,204.3"/>
	</g>
	<g>
		<defs>
			<rect id="SVGID_00000090276129395198691640000012137437001784430742_" x="-249.8" y="-557.2" width="1207.6" height="858.9"/>
		</defs>
		<clipPath id="SVGID_00000010298785938765208010000018199924463920581802_">
			<use xlink:href="#SVGID_00000090276129395198691640000012137437001784430742_"  style="overflow:visible;"/>
		</clipPath>
		<path id="path3735" style="clip-path:url(#SVGID_00000010298785938765208010000018199924463920581802_);fill:#2D4F9E;" d="
			M149.6,221.8c0.1,0,0.1-0.1,0.1-0.2c0-0.1,0-0.1-0.1-0.2s-0.1-0.1-0.3-0.1H149v0.5h0.4C149.4,221.9,149.5,221.8,149.6,221.8"/>
	</g>
	<g>
		<defs>
			<rect id="SVGID_00000152226437592084734020000006498743046964327818_" x="-249.8" y="-557.2" width="1207.6" height="858.9"/>
		</defs>
		<clipPath id="SVGID_00000132772588501307260150000004883054791990458047_">
			<use xlink:href="#SVGID_00000152226437592084734020000006498743046964327818_"  style="overflow:visible;"/>
		</clipPath>
		<path id="path3737" style="clip-path:url(#SVGID_00000132772588501307260150000004883054791990458047_);fill:#2D4F9E;" d="
			M143.6,222.4h-0.4v0.5h0.4c0.1,0,0.2,0,0.3-0.1c0.1,0,0.1-0.1,0.1-0.2c0-0.1,0-0.1-0.1-0.2C143.8,222.4,143.7,222.4,143.6,222.4"
			/>
	</g>
	<g>
		<defs>
			<rect id="SVGID_00000011748064926169561560000003665460212661554842_" x="-249.8" y="-557.2" width="1207.6" height="858.9"/>
		</defs>
		<clipPath id="SVGID_00000078763779130228661570000000607281957769858231_">
			<use xlink:href="#SVGID_00000011748064926169561560000003665460212661554842_"  style="overflow:visible;"/>
		</clipPath>
		<path id="path3739" style="clip-path:url(#SVGID_00000078763779130228661570000000607281957769858231_);fill:#2D4F9E;" d="
			M138.8,221.4c-0.2,0-0.3,0.1-0.4,0.2c-0.1,0.1-0.2,0.3-0.2,0.5c0,0.3,0,0.5,0.1,0.6c0.1,0.1,0.2,0.2,0.4,0.2c0.1,0,0.1,0,0.2,0
			c-0.1-0.1-0.2-0.1-0.3-0.2l0.1-0.3c0.1,0,0.1,0,0.2,0c0,0,0.1,0.1,0.2,0.2c0,0,0.1,0,0.1,0.1c0.1-0.1,0.1-0.3,0.1-0.5
			c0-0.3,0-0.5-0.1-0.6C139.1,221.4,139,221.4,138.8,221.4"/>
	</g>
	<g>
		<defs>
			<rect id="SVGID_00000041975351607495259030000003044437846107274624_" x="-249.8" y="-557.2" width="1207.6" height="858.9"/>
		</defs>
		<clipPath id="SVGID_00000026855513975201879070000000368819063180704951_">
			<use xlink:href="#SVGID_00000041975351607495259030000003044437846107274624_"  style="overflow:visible;"/>
		</clipPath>
		<path id="path3741" style="clip-path:url(#SVGID_00000026855513975201879070000000368819063180704951_);fill:#2D4F9E;" d="
			M143.8,221.8c0.1,0,0.1-0.1,0.1-0.2c0-0.1,0-0.1-0.1-0.2s-0.1-0.1-0.3-0.1h-0.4v0.5h0.4C143.6,221.9,143.7,221.8,143.8,221.8"/>
	</g>
	<g>
		<defs>
			<rect id="SVGID_00000045592829020835163350000002946853572245453488_" x="-249.8" y="-557.2" width="1207.6" height="858.9"/>
		</defs>
		<clipPath id="SVGID_00000080917098305454654180000014015537361473541564_">
			<use xlink:href="#SVGID_00000045592829020835163350000002946853572245453488_"  style="overflow:visible;"/>
		</clipPath>
		<path id="path3743" style="clip-path:url(#SVGID_00000080917098305454654180000014015537361473541564_);fill:#2D4F9E;" d="
			M149.4,222.4H149v0.5h0.4c0.1,0,0.2,0,0.3-0.1c0.1,0,0.1-0.1,0.1-0.2c0-0.1,0-0.1-0.1-0.2C149.6,222.4,149.5,222.4,149.4,222.4"/>
	</g>
	<g>
		<defs>
			<rect id="SVGID_00000085953294231218010260000002920160169728034697_" x="-249.8" y="-557.2" width="1207.6" height="858.9"/>
		</defs>
		<clipPath id="SVGID_00000150808482224587520190000017630008653600314302_">
			<use xlink:href="#SVGID_00000085953294231218010260000002920160169728034697_"  style="overflow:visible;"/>
		</clipPath>
		<path id="path3745" style="clip-path:url(#SVGID_00000150808482224587520190000017630008653600314302_);fill:#2D4F9E;" d="
			M153.4,221.5h-0.8v2h-0.8v-2H151v-0.6h2.5V221.5z M150.5,223.1c-0.1,0.1-0.2,0.2-0.3,0.3c-0.1,0-0.2,0.1-0.3,0.1
			c-0.2,0-0.3,0-0.4,0h-1.4v-2.6h1.5c0.3,0,0.4,0.1,0.6,0.2c0.1,0.1,0.2,0.3,0.2,0.5c0,0.2,0,0.3-0.1,0.4c-0.1,0.1-0.2,0.1-0.3,0.2
			c0.2,0,0.3,0.1,0.4,0.2c0.1,0.1,0.1,0.2,0.1,0.4C150.6,222.8,150.5,223,150.5,223.1 M147.6,223.5h-2.2v-2.6h2.2v0.6h-1.4v0.4h1.3
			v0.5h-1.3v0.5h1.4V223.5z M144.7,223.1c-0.1,0.1-0.1,0.2-0.3,0.3c-0.1,0-0.2,0.1-0.3,0.1c-0.2,0-0.3,0-0.4,0h-1.4v-2.6h1.5
			c0.3,0,0.4,0.1,0.6,0.2c0.1,0.1,0.2,0.3,0.2,0.5c0,0.2,0,0.3-0.1,0.4c-0.1,0.1-0.2,0.1-0.3,0.2c0.2,0,0.3,0.1,0.4,0.2
			c0.1,0.1,0.1,0.2,0.1,0.4C144.8,222.8,144.7,223,144.7,223.1 M141.6,223.5h-0.8v-2.6h0.8V223.5z M140.1,223.7
			c-0.1-0.1-0.2-0.1-0.3-0.2c-0.1-0.1-0.2-0.1-0.2-0.2c-0.2,0.1-0.4,0.1-0.7,0.1c-0.4,0-0.7-0.1-0.9-0.3c-0.3-0.2-0.4-0.6-0.4-1
			c0-0.4,0.1-0.8,0.4-1c0.2-0.2,0.6-0.4,1-0.4c0.4,0,0.8,0.1,1,0.4c0.2,0.2,0.4,0.6,0.4,1c0,0.4-0.1,0.7-0.3,0.9
			c0.1,0.1,0.2,0.1,0.2,0.1c0,0,0.1,0.1,0.2,0.1L140.1,223.7z M155.2,217.8c-0.4-0.1-0.9-0.1-1.3,0.2c-0.6,0.4-1.4,0.6-2.2,0.6
			c-0.8,0-1.6-0.2-2.2-0.6c-0.6-0.4-1.2-0.4-1.8,0c-0.6,0.4-1.4,0.6-2.2,0.6c-0.8,0-1.6-0.2-2.2-0.6c-0.6-0.4-1.2-0.4-1.8,0
			c-0.6,0.4-1.4,0.6-2.2,0.6c-0.8,0-1.6-0.2-2.2-0.6c-0.4-0.3-0.9-0.4-1.3-0.2h-1.9c0.5,3.1,2.2,5.8,4.6,7.7c0,0,0,0,0,0
			c0.1,0.1,0.2,0.2,0.4,0.3c0,0,0,0,0,0c0.1,0.1,0.2,0.2,0.3,0.2c0,0,0.1,0,0.1,0.1c0.1,0.1,0.2,0.1,0.3,0.2c0,0,0.1,0,0.1,0.1
			c0.1,0.1,0.2,0.1,0.3,0.2c0,0,0.1,0,0.1,0.1c0.1,0.1,0.2,0.1,0.3,0.2c0,0,0.1,0,0.2,0.1c0.1,0,0.2,0.1,0.3,0.1
			c0.1,0,0.1,0,0.2,0.1c0.1,0,0.2,0.1,0.3,0.1c0.1,0,0.1,0,0.2,0.1c0.1,0,0.2,0.1,0.3,0.1c0.1,0,0.1,0,0.2,0.1
			c0.1,0,0.2,0.1,0.3,0.1c0.1,0,0.2,0,0.2,0.1c0.1,0,0.2,0,0.3,0.1c0.1,0,0.2,0,0.2,0.1c0.1,0,0.2,0,0.3,0.1c0.1,0,0.2,0,0.3,0
			c0.1,0,0.2,0,0.3,0c0.1,0,0.2,0,0.3,0c0.1,0,0.2,0,0.2,0c0.1,0,0.2,0,0.3,0c0.1,0,0.1,0,0.2,0c0.2,0,0.3,0,0.5,0c0,0,0,0,0,0h0
			l0,0c0.2,0,0.4,0,0.5,0c0.1,0,0.1,0,0.2,0c0.1,0,0.2,0,0.4,0c0.1,0,0.1,0,0.2,0c0.1,0,0.2,0,0.3,0c0.1,0,0.1,0,0.2,0
			c0.1,0,0.2,0,0.3,0c0.1,0,0.2,0,0.2,0c0.1,0,0.2,0,0.3-0.1c0.1,0,0.2,0,0.2-0.1c0.1,0,0.2,0,0.3-0.1c0.1,0,0.2,0,0.2-0.1
			c0.1,0,0.2-0.1,0.3-0.1c0.1,0,0.2-0.1,0.2-0.1c0.1,0,0.2-0.1,0.2-0.1c0.1,0,0.2-0.1,0.3-0.1c0.1,0,0.1-0.1,0.2-0.1
			c0.1,0,0.2-0.1,0.3-0.1c0.1,0,0.1-0.1,0.2-0.1c0.1,0,0.2-0.1,0.3-0.1c0.1,0,0.1-0.1,0.2-0.1c0.1,0,0.2-0.1,0.3-0.1
			c0.1,0,0.1-0.1,0.2-0.1c0.1-0.1,0.2-0.1,0.3-0.2c0,0,0.1-0.1,0.1-0.1c0.1-0.1,0.2-0.1,0.3-0.2c0,0,0.1-0.1,0.1-0.1
			c0.1-0.1,0.2-0.1,0.3-0.2c0,0,0.1,0,0.1-0.1c0.1-0.1,0.2-0.2,0.3-0.2c0,0,0,0,0,0c0.1-0.1,0.2-0.2,0.3-0.3c0,0,0,0,0,0
			c2-1.8,3.4-4.2,3.8-7H155.2z"/>
	</g>
</g>
</svg>
