<?xml version="1.0" encoding="UTF-8" standalone="no"?>
<!-- Created with Inkscape (http://www.inkscape.org/) -->

<svg
   width="13.802783mm"
   height="13.802775mm"
   viewBox="0 0 13.802783 13.802775"
   version="1.1"
   id="svg1"
   xmlns="http://www.w3.org/2000/svg"
   xmlns:svg="http://www.w3.org/2000/svg">
  <defs
     id="defs1">
    <clipPath
       clipPathUnits="userSpaceOnUse"
       id="clipPath3572">
      <path
         d="M 0,858.898 H 1207.558 V 0 H 0 Z"
         transform="translate(-208.99601,-79.017937)"
         id="path3572" />
    </clipPath>
    <clipPath
       clipPathUnits="userSpaceOnUse"
       id="clipPath3574">
      <path
         d="M 0,858.898 H 1207.558 V 0 H 0 Z"
         transform="translate(-209.7798,-79.514887)"
         id="path3574" />
    </clipPath>
    <clipPath
       clipPathUnits="userSpaceOnUse"
       id="clipPath3576">
      <path
         d="M 0,858.898 H 1207.558 V 0 H 0 Z"
         transform="translate(-224.68571,-77.674912)"
         id="path3576" />
    </clipPath>
    <clipPath
       clipPathUnits="userSpaceOnUse"
       id="clipPath3578">
      <path
         d="M 0,858.898 H 1207.558 V 0 H 0 Z"
         transform="translate(-224.26191,-78.129712)"
         id="path3578" />
    </clipPath>
    <clipPath
       clipPathUnits="userSpaceOnUse"
       id="clipPath3580">
      <path
         d="M 0,858.898 H 1207.558 V 0 H 0 Z"
         transform="translate(-224.2932,-78.304012)"
         id="path3580" />
    </clipPath>
    <clipPath
       clipPathUnits="userSpaceOnUse"
       id="clipPath3582">
      <path
         d="M 0,858.898 H 1207.558 V 0 H 0 Z"
         transform="translate(-224.22461,-75.381937)"
         id="path3582" />
    </clipPath>
    <clipPath
       clipPathUnits="userSpaceOnUse"
       id="clipPath3584">
      <path
         d="M 0,858.898 H 1207.558 V 0 H 0 Z"
         transform="translate(-224.7792,-78.671812)"
         id="path3584" />
    </clipPath>
    <clipPath
       clipPathUnits="userSpaceOnUse"
       id="clipPath3586">
      <path
         d="M 0,858.898 H 1207.558 V 0 H 0 Z"
         transform="translate(-232.10061,-78.216937)"
         id="path3586" />
    </clipPath>
    <clipPath
       clipPathUnits="userSpaceOnUse"
       id="clipPath3588">
      <path
         d="M 0,858.898 H 1207.558 V 0 H 0 Z"
         transform="translate(-216.41111,-75.967612)"
         id="path3588" />
    </clipPath>
    <clipPath
       clipPathUnits="userSpaceOnUse"
       id="clipPath3590">
      <path
         d="M 0,858.898 H 1207.558 V 0 H 0 Z"
         transform="translate(-237.28361,-88.847437)"
         id="path3590" />
    </clipPath>
    <clipPath
       clipPathUnits="userSpaceOnUse"
       id="clipPath3592">
      <path
         d="M 0,858.898 H 1207.558 V 0 H 0 Z"
         transform="translate(-237.57111,-84.379912)"
         id="path3592" />
    </clipPath>
    <clipPath
       clipPathUnits="userSpaceOnUse"
       id="clipPath3594">
      <path
         d="M 0,858.898 H 1207.558 V 0 H 0 Z"
         transform="translate(-226.89711,-99.074437)"
         id="path3594" />
    </clipPath>
    <clipPath
       clipPathUnits="userSpaceOnUse"
       id="clipPath3596">
      <path
         d="M 0,858.898 H 1207.558 V 0 H 0 Z"
         transform="translate(-216.5907,-99.463687)"
         id="path3596" />
    </clipPath>
    <clipPath
       clipPathUnits="userSpaceOnUse"
       id="clipPath3598">
      <path
         d="M 0,858.898 H 1207.558 V 0 H 0 Z"
         transform="translate(-224.70201,-73.640812)"
         id="path3598" />
    </clipPath>
    <clipPath
       clipPathUnits="userSpaceOnUse"
       id="clipPath3600">
      <path
         d="M 0,858.898 H 1207.558 V 0 H 0 Z"
         transform="translate(-238.49811,-85.939312)"
         id="path3600" />
    </clipPath>
    <clipPath
       clipPathUnits="userSpaceOnUse"
       id="clipPath3602">
      <path
         d="M 0,858.898 H 1207.558 V 0 H 0 Z"
         transform="translate(-221.70281,-73.640812)"
         id="path3602" />
    </clipPath>
    <clipPath
       clipPathUnits="userSpaceOnUse"
       id="clipPath3604">
      <path
         d="M 0,858.898 H 1207.558 V 0 H 0 Z"
         transform="translate(-223.2168,-73.015237)"
         id="path3604" />
    </clipPath>
    <clipPath
       clipPathUnits="userSpaceOnUse"
       id="clipPath3606">
      <path
         d="M 0,858.898 H 1207.558 V 0 H 0 Z"
         transform="translate(-235.54601,-72.658987)"
         id="path3606" />
    </clipPath>
  </defs>
  <g
     id="layer1"
     transform="translate(-64.981133,-196.49442)">
    <path
       id="path3571"
       d="M 0,0 C -0.083,0.187 -0.171,0.31 -0.262,0.367 -0.353,0.424 -0.461,0.425 -0.585,0.37 -0.704,0.317 -0.775,0.241 -0.797,0.144 c -0.022,-0.098 0.003,-0.227 0.075,-0.389 0.041,-0.092 0.074,-0.145 0.098,-0.157 0.024,-0.012 0.066,-0.005 0.124,0.021 l 0.454,0.202 c 0.05,0.022 0.078,0.04 0.084,0.053 0.006,0.014 -0.001,0.042 -0.02,0.086 z"
       style="fill:#4290b7;fill-opacity:1;fill-rule:evenodd;stroke:none"
       transform="matrix(0.35277776,0,0,-0.35277776,67.082281,205.71849)"
       clip-path="url(#clipPath3572)" />
    <path
       id="path3573"
       d="M 0,0 C -0.067,0.15 -0.151,0.25 -0.251,0.301 -0.351,0.35 -0.462,0.348 -0.585,0.293 -0.711,0.237 -0.786,0.153 -0.81,0.039 c -0.024,-0.113 0.002,-0.256 0.078,-0.427 l 0.043,-0.097 c 0.022,-0.049 0.04,-0.076 0.056,-0.083 0.015,-0.007 0.042,-0.001 0.081,0.016 l 0.542,0.241 c 0.048,0.022 0.076,0.047 0.084,0.077 0.007,0.029 -0.01,0.089 -0.05,0.179 z"
       style="fill:#4290b7;fill-opacity:1;fill-rule:evenodd;stroke:none"
       transform="matrix(0.35277776,0,0,-0.35277776,67.358787,205.54318)"
       clip-path="url(#clipPath3574)" />
    <path
       id="path3575"
       d="m 0,0 c -0.084,-0.054 -0.106,-0.008 -0.181,-0.031 -0.13,-0.041 -0.446,-0.237 -0.392,-0.43 0.011,-0.027 0.017,-0.026 0.043,-0.038 0.098,0.044 0.607,0.374 0.586,0.462 C 0.047,-0.004 0.042,-0.001 0,0"
       style="fill:#4290b7;fill-opacity:1;fill-rule:evenodd;stroke:none"
       transform="matrix(0.35277776,0,0,-0.35277776,72.617259,206.19228)"
       clip-path="url(#clipPath3576)" />
    <path
       id="path3577"
       d="m 0,0 c -0.012,0.002 -0.025,0.004 -0.037,0.006 l -0.019,-0.025 c 0.004,-0.023 0.008,-0.045 0.012,-0.068 0.009,-0.013 0.008,-0.01 0.019,-0.019 0.012,0.009 0.01,0.006 0.019,0.019 C 0.009,-0.065 0.007,-0.03 0,0"
       style="fill:#4290b7;fill-opacity:1;fill-rule:evenodd;stroke:none"
       transform="matrix(0.35277776,0,0,-0.35277776,72.46775,206.03184)"
       clip-path="url(#clipPath3578)" />
    <path
       id="path3579"
       d="M 0,0 C 0.055,0.037 0.139,0.12 0.094,0.199 H 0.075 C 0.025,0.166 -0.048,0.143 -0.075,0.087 -0.092,0.054 -0.081,0.027 -0.062,0 Z"
       style="fill:#4290b7;fill-opacity:1;fill-rule:evenodd;stroke:none"
       transform="matrix(0.35277776,0,0,-0.35277776,72.478791,205.97035)"
       clip-path="url(#clipPath3580)" />
    <path
       id="path3581"
       d="m 0,0 h -0.044 c -0.067,-0.054 -0.153,-0.087 -0.168,-0.193 0.015,-0.019 0.029,-0.038 0.044,-0.056 0.1,-0.004 0.165,0.008 0.212,0.056 0.002,0.081 -0.003,0.141 -0.032,0.187 C 0.008,-0.004 0.004,-0.002 0,0"
       style="fill:#4290b7;fill-opacity:1;fill-rule:evenodd;stroke:none"
       transform="matrix(0.35277776,0,0,-0.35277776,72.454593,207.00119)"
       clip-path="url(#clipPath3582)" />
    <path
       id="path3583"
       d="M 0,0 C 0.057,0.072 0.293,0.235 0.243,0.349 H 0.224 C 0.125,0.277 -0.163,0.206 -0.037,0 Z"
       style="fill:#4290b7;fill-opacity:1;fill-rule:evenodd;stroke:none"
       transform="matrix(0.35277776,0,0,-0.35277776,72.650241,205.8406)"
       clip-path="url(#clipPath3584)" />
    <path
       id="path3585"
       d="m 0,0 c -0.076,-0.049 -0.119,-0.145 -0.087,-0.262 0.02,-0.012 0.041,-0.025 0.062,-0.037 C 0.072,-0.262 0.1,-0.101 0.031,0 Z"
       style="fill:#4290b7;fill-opacity:1;fill-rule:evenodd;stroke:none"
       transform="matrix(0.35277776,0,0,-0.35277776,75.23307,206.00107)"
       clip-path="url(#clipPath3586)" />
    <path
       id="path3587"
       d="M 0,0 C -0.05,-0.032 -0.338,-0.209 -0.268,-0.268 -0.143,-0.323 0.186,-0.013 0,0"
       style="fill:#4290b7;fill-opacity:1;fill-rule:evenodd;stroke:none"
       transform="matrix(0.35277776,0,0,-0.35277776,69.698164,206.79458)"
       clip-path="url(#clipPath3588)" />
    <path
       id="path3589"
       d="m 0,0 c -0.267,-0.047 -0.468,-0.142 -0.604,-0.285 -0.135,-0.142 -0.186,-0.311 -0.151,-0.506 0.034,-0.196 0.14,-0.338 0.316,-0.426 0.176,-0.088 0.398,-0.108 0.664,-0.061 0.265,0.047 0.465,0.141 0.6,0.284 0.136,0.143 0.186,0.312 0.151,0.508 C 0.942,-0.291 0.837,-0.15 0.661,-0.062 0.485,0.026 0.265,0.047 0,0"
       style="fill:#4290b7;fill-opacity:1;fill-rule:evenodd;stroke:none"
       transform="matrix(0.35277776,0,0,-0.35277776,77.061518,202.25086)"
       clip-path="url(#clipPath3590)" />
    <path
       id="path3591"
       d="m 0,0 c -0.269,0.033 -0.489,0.001 -0.66,-0.096 -0.172,-0.097 -0.269,-0.244 -0.294,-0.44 -0.024,-0.197 0.036,-0.364 0.178,-0.499 0.143,-0.136 0.349,-0.22 0.618,-0.253 0.267,-0.033 0.486,-10e-4 0.657,0.096 0.171,0.097 0.268,0.244 0.292,0.442 0.025,0.196 -0.034,0.362 -0.177,0.498 C 0.472,-0.117 0.267,-0.033 0,0"
       style="fill:#4290b7;fill-opacity:1;fill-rule:evenodd;stroke:none"
       transform="matrix(0.35277776,0,0,-0.35277776,77.16294,203.82691)"
       clip-path="url(#clipPath3592)" />
    <path
       id="path3593"
       d="M 0,0 C 0.188,-0.065 0.363,-0.041 0.525,0.07 0.688,0.182 0.813,0.365 0.901,0.622 0.989,0.876 1.003,1.097 0.943,1.284 0.884,1.472 0.76,1.598 0.572,1.662 0.385,1.727 0.211,1.704 0.048,1.592 -0.114,1.481 -0.238,1.299 -0.326,1.044 -0.414,0.788 -0.429,0.566 -0.369,0.378 -0.31,0.191 -0.187,0.064 0,0"
       style="fill:#4290b7;fill-opacity:1;fill-rule:evenodd;stroke:none"
       transform="matrix(0.35277776,0,0,-0.35277776,73.39739,198.64301)"
       clip-path="url(#clipPath3594)" />
    <path
       id="path3595"
       d="M 0,0 C 0.01,-0.024 0.022,-0.038 0.036,-0.044 0.051,-0.049 0.07,-0.048 0.094,-0.038 0.304,0.047 0.443,0.14 0.512,0.242 0.581,0.343 0.588,0.463 0.532,0.601 0.48,0.728 0.403,0.805 0.301,0.833 0.198,0.86 0.061,0.839 -0.109,0.77 -0.186,0.739 -0.231,0.711 -0.244,0.687 -0.256,0.662 -0.251,0.621 -0.227,0.562 Z"
       style="fill:#4290b7;fill-opacity:1;fill-rule:evenodd;stroke:none"
       transform="matrix(0.35277776,0,0,-0.35277776,69.761521,198.50569)"
       clip-path="url(#clipPath3596)" />
    <path
       id="path3597"
       d="m 0,0 c -0.129,0 -0.23,-0.04 -0.303,-0.119 -0.073,-0.08 -0.109,-0.19 -0.109,-0.333 V -1.03 c 0,-0.142 0.036,-0.252 0.109,-0.331 0.073,-0.079 0.174,-0.118 0.303,-0.118 0.129,0 0.229,0.039 0.302,0.117 0.073,0.078 0.109,0.188 0.109,0.328 v 0.589 c 0,0.139 -0.036,0.248 -0.11,0.327 C 0.228,-0.039 0.128,0 0,0"
       style="fill:#4290b7;fill-opacity:1;fill-rule:evenodd;stroke:none"
       transform="matrix(0.35277776,0,0,-0.35277776,72.623008,207.61542)"
       clip-path="url(#clipPath3598)" />
    <path
       id="path3599"
       d="M 0,0 C -0.002,0.1 -0.022,0.169 -0.06,0.207 -0.098,0.246 -0.165,0.264 -0.262,0.262 L -1.526,0.24 C -1.611,0.239 -1.663,0.226 -1.684,0.202 -1.705,0.177 -1.715,0.126 -1.713,0.048 l 0.006,-0.325 c 0.002,-0.139 0.035,-0.254 0.098,-0.343 0.063,-0.089 0.161,-0.16 0.295,-0.213 l 0.001,-0.057 -0.498,0.146 -0.027,1.555 0.057,0.001 10e-4,-0.013 c 0.001,-0.1 0.022,-0.168 0.062,-0.204 0.039,-0.035 0.115,-0.052 0.227,-0.05 l 1.224,0.021 c 0.11,0.002 0.18,0.022 0.209,0.058 0.03,0.036 0.044,0.109 0.043,0.218 L 0.042,0.844 0.057,-0.012 0,-0.013 Z m -0.032,-2.322 c -0.036,-0.292 -0.154,-0.515 -0.353,-0.67 -0.199,-0.154 -0.446,-0.213 -0.74,-0.177 -0.295,0.036 -0.521,0.153 -0.677,0.351 -0.157,0.199 -0.217,0.444 -0.181,0.735 0.035,0.291 0.153,0.513 0.353,0.668 0.2,0.154 0.448,0.213 0.743,0.177 0.294,-0.036 0.519,-0.153 0.674,-0.351 0.156,-0.199 0.216,-0.443 0.181,-0.733 m -0.547,-2.636 c -0.033,-0.115 -0.085,-0.224 -0.155,-0.327 -0.07,-0.104 -0.106,-0.161 -0.109,-0.171 -0.006,-0.021 -0.003,-0.042 0.01,-0.062 0.012,-0.02 0.033,-0.038 0.062,-0.055 l -0.011,-0.045 -0.565,0.132 0.015,0.055 c 0.186,0.016 0.328,0.062 0.427,0.135 0.099,0.074 0.17,0.188 0.214,0.342 0.061,0.214 0.034,0.408 -0.082,0.582 -0.116,0.174 -0.302,0.297 -0.555,0.37 -0.257,0.073 -0.481,0.066 -0.672,-0.022 -0.19,-0.088 -0.317,-0.241 -0.38,-0.46 -0.023,-0.08 -0.033,-0.161 -0.029,-0.241 0.005,-0.08 0.022,-0.151 0.052,-0.213 l 0.488,-0.14 c 0.105,-0.03 0.173,-0.033 0.206,-0.01 0.031,0.023 0.067,0.095 0.107,0.215 l 0.058,-0.017 -0.222,-0.773 -0.057,0.017 c 0.022,0.088 0.025,0.15 0.008,0.186 -0.017,0.035 -0.071,0.066 -0.163,0.093 l -0.526,0.15 c -0.04,0.136 -0.061,0.272 -0.063,0.406 -0.002,0.134 0.016,0.268 0.054,0.401 0.085,0.296 0.239,0.51 0.46,0.644 0.222,0.133 0.471,0.16 0.746,0.081 0.286,-0.081 0.491,-0.24 0.618,-0.477 0.127,-0.237 0.148,-0.502 0.064,-0.796 m -0.78,-1.955 -0.051,0.023 c 0.027,0.078 0.041,0.134 0.042,0.169 0.002,0.034 -0.008,0.057 -0.03,0.066 -0.025,0.011 -0.066,0.012 -0.123,0.002 -0.004,-0.002 -0.007,-0.002 -0.008,-0.003 l -0.769,-0.148 0.379,-0.586 c 0.036,-0.058 0.062,-0.096 0.078,-0.115 0.015,-0.018 0.029,-0.03 0.042,-0.036 0.024,-0.01 0.047,-0.005 0.071,0.016 0.024,0.021 0.055,0.065 0.093,0.133 l 0.052,-0.023 -0.239,-0.538 -0.053,0.023 c 0.02,0.053 0.025,0.105 0.015,0.155 -0.01,0.051 -0.043,0.121 -0.099,0.209 l -0.486,0.765 -0.522,0.232 c -0.072,0.032 -0.131,0.037 -0.174,0.014 -0.044,-0.023 -0.089,-0.084 -0.136,-0.182 l -0.052,0.023 0.348,0.782 0.052,-0.024 -0.005,-0.012 c -0.04,-0.088 -0.051,-0.157 -0.034,-0.207 0.016,-0.05 0.064,-0.092 0.143,-0.128 l 0.474,-0.211 1.037,0.214 c 0.061,0.014 0.112,0.037 0.152,0.069 0.041,0.032 0.075,0.077 0.104,0.135 l 0.052,-0.023 z M -2.566,6.509 -2.967,7.204 C -2.982,7.23 -2.998,7.245 -3.015,7.249 -3.032,7.253 -3.055,7.248 -3.082,7.232 L -3.528,6.974 C -3.612,6.926 -3.66,6.877 -3.671,6.828 -3.683,6.78 -3.662,6.707 -3.609,6.611 l -0.05,-0.029 -0.425,0.736 0.05,0.028 c 0.057,-0.095 0.109,-0.15 0.157,-0.165 0.047,-0.015 0.114,0.002 0.199,0.052 l 1.093,0.631 c 0.084,0.048 0.131,0.097 0.142,0.148 0.011,0.05 -0.009,0.123 -0.06,0.219 L -2.455,8.259 -2.03,7.522 -2.078,7.494 C -2.139,7.588 -2.192,7.642 -2.239,7.656 -2.286,7.671 -2.352,7.654 -2.435,7.605 L -2.841,7.371 C -2.871,7.354 -2.888,7.337 -2.892,7.322 -2.897,7.306 -2.89,7.284 -2.874,7.254 l 0.4,-0.692 c 0.015,-0.025 0.03,-0.039 0.045,-0.042 0.015,-0.002 0.039,0.006 0.072,0.025 l 0.4,0.231 c 0.083,0.048 0.13,0.097 0.141,0.146 0.011,0.049 -0.009,0.121 -0.06,0.219 l 0.049,0.03 0.426,-0.739 -0.049,-0.028 c -0.057,0.093 -0.11,0.148 -0.157,0.163 -0.048,0.016 -0.115,-0.001 -0.2,-0.05 L -2.9,5.886 C -2.983,5.837 -3.031,5.789 -3.042,5.739 -3.053,5.689 -3.032,5.616 -2.98,5.521 l -0.049,-0.029 -0.427,0.739 0.05,0.027 C -3.349,6.165 -3.296,6.11 -3.248,6.095 -3.2,6.08 -3.135,6.096 -3.052,6.144 l 0.448,0.259 c 0.031,0.018 0.049,0.033 0.053,0.047 0.005,0.014 0,0.034 -0.015,0.059 m -2.133,1.609 c -0.186,0.23 -0.267,0.471 -0.242,0.722 0.025,0.251 0.151,0.468 0.378,0.652 0.226,0.183 0.47,0.261 0.732,0.233 0.263,-0.028 0.486,-0.155 0.67,-0.382 0.07,-0.087 0.128,-0.188 0.175,-0.303 0.047,-0.116 0.074,-0.179 0.083,-0.19 0.017,-0.021 0.038,-0.032 0.062,-0.034 0.024,-0.002 0.047,0.006 0.07,0.024 L -2.739,8.8 -3.178,8.374 -3.214,8.419 c 0.099,0.148 0.149,0.293 0.15,0.432 10e-4,0.139 -0.048,0.27 -0.145,0.39 -0.136,0.169 -0.309,0.254 -0.518,0.256 -0.209,10e-4 -0.415,-0.081 -0.621,-0.248 -0.197,-0.16 -0.317,-0.342 -0.36,-0.547 -0.043,-0.205 0,-0.388 0.13,-0.548 0.09,-0.11 0.192,-0.191 0.306,-0.241 0.114,-0.051 0.254,-0.076 0.419,-0.078 L -3.862,7.768 C -4.04,7.757 -4.198,7.781 -4.336,7.839 -4.474,7.896 -4.595,7.99 -4.699,8.118 M -5.126,-8.289 c -0.024,-0.057 -0.092,-0.073 -0.125,-0.119 -0.185,-0.255 -0.377,-0.507 -0.686,-0.635 -0.099,-0.021 -0.199,-0.042 -0.299,-0.063 -0.162,-0.068 -0.338,-0.2 -0.542,-0.224 l -0.006,0.006 v 0.031 c 0.197,0.204 0.816,0.522 0.854,0.81 l -0.025,0.019 c -0.096,0.028 -0.246,-0.115 -0.324,-0.149 -0.027,-0.002 -0.054,-0.005 -0.081,-0.007 -0.056,-0.037 -0.112,-0.075 -0.168,-0.112 -0.258,-0.158 -0.479,-0.336 -0.717,-0.504 -0.086,-0.061 -0.462,-0.01 -0.517,0.043 0.002,0.013 0.004,0.025 0.006,0.038 0.025,0.035 0.089,0.051 0.125,0.074 0.009,0.032 0.014,0.046 0,0.075 -0.382,0.118 -0.268,0.167 -0.355,0.536 -0.023,0.094 -0.141,0.194 -0.057,0.28 0.256,-0.001 0.44,-0.343 0.505,-0.554 0.019,-0.063 0.005,-0.16 0.031,-0.212 0.222,-0.057 0.751,0.323 0.929,0.405 0.102,0.047 0.252,0.068 0.299,0.168 0.023,0.079 -0.041,0.137 -0.081,0.175 h -0.031 c -0.116,-0.086 -0.141,-0.079 -0.337,-0.075 -0.053,-0.071 -0.376,-0.372 -0.498,-0.324 -0.009,0.004 -0.017,0.008 -0.025,0.012 0.019,0.134 0.267,0.361 0.224,0.505 -0.027,0.055 -0.091,0.065 -0.143,0.093 -0.01,0.052 0.006,0.102 0.018,0.15 0.073,0.033 0.19,0.014 0.281,0.031 0.047,0.065 0.168,0.259 0.125,0.355 h -0.007 c -0.066,-0.013 -0.057,-0.057 -0.099,-0.087 -0.056,-0.017 -0.113,-0.033 -0.169,-0.05 -0.064,-0.039 -0.128,-0.079 -0.193,-0.118 -0.019,0.002 -0.037,0.004 -0.056,0.006 -0.002,0.006 -0.004,0.012 -0.006,0.019 v 0.062 c 0.054,0.07 0.146,0.124 0.181,0.212 v 0.019 c -0.036,0.066 -0.142,0.06 -0.187,0.124 0.002,0.011 0.004,0.021 0.006,0.031 0.085,0.11 0.298,0.084 0.368,0.175 0.031,0.041 0.156,0.303 0.168,0.349 0.023,0.092 -0.094,0.133 -0.056,0.236 0.018,0.038 0.053,0.042 0.087,0.063 0.134,0.003 0.191,-0.049 0.262,-0.106 0.197,-0.16 0.152,-0.344 -0.013,-0.505 0,-0.039 0.005,-0.047 0.019,-0.068 0.14,-0.031 0.206,-0.118 0.168,-0.281 -0.008,-0.027 -0.017,-0.054 -0.025,-0.081 0.008,-0.04 0.151,-0.061 0.187,-0.131 -0.016,-0.093 -0.035,-0.193 -0.006,-0.286 0.006,0.004 0.012,0.008 0.019,0.012 0.108,0.167 0.193,0.351 0.28,0.549 0.023,0.052 0.098,0.121 0.075,0.211 -0.025,0.042 -0.05,0.084 -0.075,0.125 0.023,0.056 0.046,0.112 0.068,0.168 0.144,0.025 0.302,0.058 0.418,-0.012 0.018,-0.089 0.071,-0.167 0.037,-0.287 C -5.333,-7.249 -5.468,-7.368 -5.538,-7.479 -5.544,-7.506 -5.55,-7.533 -5.556,-7.56 -5.579,-7.579 -5.602,-7.598 -5.625,-7.616 -5.65,-7.664 -5.675,-7.712 -5.7,-7.76 c -0.076,-0.107 -0.255,-0.254 -0.218,-0.424 0.004,-0.002 0.009,-0.004 0.013,-0.006 0.179,0.008 0.163,0.165 0.274,0.225 0.202,0.104 0.581,-0.142 0.505,-0.324 m -0.555,-1.726 c -0.088,-0.064 -0.208,-0.079 -0.318,-0.125 -0.081,-0.034 -0.155,-0.095 -0.224,-0.143 -0.056,-0.039 -0.097,-0.129 -0.187,-0.112 0.012,0.056 0.06,0.071 0.05,0.13 h -0.031 c -0.05,-0.019 -0.079,-0.044 -0.106,-0.087 0.021,-0.088 0.082,-0.221 0.106,-0.33 0.057,-0.268 -0.24,-0.477 -0.405,-0.542 -0.246,-0.097 -0.819,0.077 -0.835,0.286 l 0.006,0.019 c 0.309,0.134 0.686,-0.258 0.816,0.187 0.013,0.043 0.049,0.112 0.031,0.162 -0.01,0.021 -0.012,0.02 -0.031,0.031 -0.106,-0.052 -0.212,-0.104 -0.318,-0.156 -0.221,-0.063 -0.458,0.038 -0.567,0.131 v 0.025 c 0.083,0.081 0.249,0.053 0.362,0.106 0.023,0.021 0.046,0.042 0.068,0.063 0.127,0.078 0.261,0.129 0.38,0.205 0.011,0.04 0.002,0.102 0.013,0.156 0.015,0.071 0.097,0.159 0.075,0.224 -0.077,0.146 -0.315,0.07 -0.194,0.393 l 0.032,0.018 c 0.205,-0.018 0.503,-0.036 0.548,-0.218 0.043,-0.173 -0.164,-0.246 -0.1,-0.373 0.21,-0.056 0.337,0.206 0.493,0.249 0.062,0.017 0.097,-0.029 0.13,-0.044 0.112,-0.05 0.241,-0.1 0.206,-0.255 m -2.648,-0.243 c -0.116,-0.034 -0.302,0.111 -0.337,0.187 -0.046,0.155 0.106,0.332 0.156,0.448 0.011,0.052 0.021,0.104 0.031,0.156 0.038,0.025 0.075,0.05 0.112,0.075 0.381,0.008 0.255,-0.773 0.038,-0.866 m -0.748,-0.019 c -0.232,-0.045 -0.525,-0.044 -0.61,0.131 -0.054,0.108 -0.041,0.21 -0.106,0.305 -0.073,0.107 -0.262,0.214 -0.15,0.393 0.04,0.01 0.079,0.02 0.118,0.031 0.158,0.002 0.183,-0.068 0.281,-0.106 0.106,-0.042 0.418,-0.176 0.467,-0.249 0.036,-0.053 0.034,-0.115 0.05,-0.187 0.039,-0.169 0.039,-0.184 -0.05,-0.318 m -1.084,1.688 c -0.111,-0.055 -0.242,-0.123 -0.312,-0.217 -0.037,-0.051 -0.009,-0.143 -0.031,-0.212 -0.063,-0.199 -0.082,-0.402 -0.137,-0.624 -0.023,-0.093 -0.101,-0.185 -0.149,-0.261 -0.22,-0.349 -0.434,-0.502 -0.898,-0.605 -0.043,0.005 -0.087,0.009 -0.13,0.013 -0.152,-0.023 -0.377,-0.042 -0.524,-0.006 -0.006,0.014 -0.012,0.029 -0.019,0.043 0.073,0.16 0.326,0.094 0.493,0.15 0.341,0.115 0.582,0.36 0.735,0.673 0.052,0.107 0.144,0.284 0.075,0.399 -0.015,0.002 -0.029,0.004 -0.044,0.006 -0.171,-0.095 -0.436,-0.29 -0.573,-0.424 -0.16,-0.157 -0.347,-0.345 -0.58,-0.424 -0.372,-0.125 -0.548,0.03 -0.467,0.418 0.061,0.04 0.121,0.009 0.206,0.031 0.114,0.046 0.228,0.091 0.342,0.137 0.278,0.119 0.532,0.289 0.773,0.449 0.102,0.067 0.375,0.193 0.424,0.293 0.07,0.142 -0.02,0.947 -0.081,1.09 -0.098,0.226 -0.325,0.35 -0.137,0.673 0.016,0.008 0.033,0.016 0.049,0.025 0.18,-0.03 0.658,-0.33 0.692,-0.505 0.042,-0.212 0.001,-0.399 0,-0.611 0,-0.086 -0.05,-0.211 0.013,-0.261 0.075,-0.043 0.121,0.042 0.168,0.068 0.178,0.098 0.253,0.3 0.417,0.405 0.108,0.069 0.283,0.043 0.324,-0.068 0.059,-0.16 -0.106,-0.273 -0.18,-0.33 -0.083,-0.065 -0.18,-0.111 -0.268,-0.175 -0.061,-0.05 -0.121,-0.1 -0.181,-0.15 m -2.954,0.742 c -0.043,0.006 -0.087,0.012 -0.13,0.019 -0.173,-0.05 -0.332,-0.179 -0.474,-0.268 l -0.006,-0.031 h 0.019 c 0.069,0.023 0.081,0.063 0.13,0.087 0.16,0.079 0.369,-0.068 0.374,-0.193 -0.079,-0.154 -0.334,-0.302 -0.473,-0.405 -0.033,-0.024 -0.072,-0.034 -0.094,-0.069 -0.044,-0.07 0.008,-0.137 -0.006,-0.224 -0.013,-0.011 -0.025,-0.021 -0.037,-0.031 -0.037,0.009 -0.047,0.024 -0.081,0.018 V -8.95 c 0.035,-0.06 0.07,-0.12 0.105,-0.181 0.039,-0.026 0.099,-0.018 0.125,-0.056 0.013,-0.062 0.025,-0.124 0.038,-0.187 0.022,-0.146 -0.101,-0.297 -0.144,-0.398 -0.083,-0.199 -0.181,-0.444 -0.143,-0.723 l 0.019,-0.019 c 0.014,0.002 0.029,0.004 0.043,0.006 0.161,0.082 0.103,0.393 0.256,0.468 0.132,-0.048 0.392,-0.247 0.268,-0.455 -0.119,-0.029 -0.533,-0.203 -0.574,-0.287 -0.068,-0.138 0.106,-0.413 -0.187,-0.355 -0.033,0.037 -0.066,0.075 -0.099,0.112 -0.09,0.068 -0.267,0.169 -0.393,0.181 -0.12,-0.067 -0.079,-0.228 -0.18,-0.324 -0.149,0.014 -0.567,0.325 -0.318,0.48 0.052,0.032 0.1,-0.012 0.162,0 0.087,0.017 0.554,0.169 0.592,0.211 0.135,0.151 -0.148,0.247 -0.1,0.368 0.018,0.046 0.15,0.094 0.187,0.131 -0.002,0.015 -0.004,0.029 -0.006,0.044 -0.058,0.111 -0.257,0.108 -0.193,0.286 0.043,0.019 0.171,0.024 0.199,0.063 0.004,0.018 0.008,0.037 0.012,0.056 -0.01,0.02 -0.011,0.026 -0.031,0.037 -0.108,0.065 -0.149,-0.012 -0.255,0.1 l 0.006,0.037 c 0.032,0.064 0.082,0.064 0.15,0.094 0.142,0.062 0.191,0.143 0.224,0.324 0.043,0.017 0.111,0.017 0.124,0.068 -0.01,0.006 -0.02,0.013 -0.031,0.019 -0.055,0.013 -0.08,-0.015 -0.118,-0.031 -0.095,-0.043 -0.166,-0.09 -0.243,-0.15 -0.112,-0.087 -0.141,-0.31 -0.343,-0.268 -0.124,0.16 -0.045,0.244 0,0.405 l -0.018,0.019 c -0.145,-0.007 -0.229,-0.141 -0.324,-0.206 -0.098,-0.066 -0.186,-0.119 -0.281,-0.187 -0.19,-0.135 -0.318,-0.35 -0.554,-0.442 -0.115,-0.019 -0.229,-0.037 -0.343,-0.056 -0.092,-0.018 -0.163,-0.042 -0.262,-0.019 -0.01,0.017 -0.021,0.033 -0.031,0.05 -0.05,0.2 0.401,0.388 0.53,0.467 0.154,0.095 0.291,0.234 0.442,0.331 0.243,0.155 0.516,0.292 0.766,0.436 0.112,0.064 0.525,0.234 0.574,0.317 0.012,0.03 0,0.043 -0.013,0.063 h -0.006 c -0.075,-0.005 -0.1,-0.044 -0.162,-0.056 -0.144,-0.029 -0.214,0.091 -0.287,0.143 -0.078,-0.017 -0.105,-0.067 -0.193,-0.081 -0.186,-0.031 -0.467,0.15 -0.423,0.318 0.162,0.107 0.472,0.095 0.579,0.255 0.032,0.049 0.008,0.126 0.025,0.193 0.023,0.061 0.046,0.121 0.068,0.181 0.026,0.102 -0.041,0.163 0,0.237 0.285,0.094 0.283,-0.172 0.368,-0.368 0.015,-0.002 0.029,-0.004 0.044,-0.006 0.067,0.069 0.207,0.179 0.23,0.28 -0.004,0.036 -0.008,0.071 -0.012,0.106 -0.016,0.186 -0.009,0.315 0.1,0.424 0.284,-0.004 0.157,-0.317 0.286,-0.336 0.105,0.07 0.219,0.173 0.361,0.199 0.178,0.033 0.394,-0.136 0.437,-0.256 -0.095,-0.249 -0.501,-0.52 -0.748,-0.622 -0.064,-0.019 -0.129,-0.038 -0.193,-0.057 -0.048,-0.032 -0.095,-0.229 -0.063,-0.311 0.037,-0.067 0.285,0.099 0.349,0.137 0.169,0.1 0.35,0.189 0.518,0.299 0.077,0.051 0.136,0.124 0.236,0.162 0.154,0.059 0.312,0.069 0.393,-0.075 0.089,-0.157 -0.137,-0.27 -0.212,-0.318 -0.121,-0.077 -0.181,-0.022 -0.312,-0.062 -0.08,-0.037 -0.161,-0.075 -0.243,-0.112 m -0.102,-5.452 c 0,-0.092 -0.008,-0.169 -0.022,-0.229 -0.015,-0.061 -0.039,-0.114 -0.072,-0.16 -0.054,-0.077 -0.123,-0.135 -0.208,-0.177 -0.084,-0.041 -0.177,-0.062 -0.277,-0.062 -0.098,0 -0.187,0.02 -0.269,0.059 -0.081,0.04 -0.151,0.097 -0.21,0.172 -0.035,0.044 -0.059,0.098 -0.075,0.161 -0.016,0.063 -0.024,0.144 -0.024,0.243 v 0.507 c 0,0.111 0.008,0.194 0.024,0.25 0.016,0.056 0.041,0.108 0.077,0.157 0.057,0.074 0.126,0.131 0.208,0.171 0.081,0.04 0.171,0.06 0.269,0.06 0.179,0 0.321,-0.056 0.424,-0.167 0.103,-0.111 0.155,-0.265 0.155,-0.461 z m -1.658,-0.462 c -0.11,-0.111 -0.25,-0.166 -0.419,-0.166 -0.166,0 -0.303,0.054 -0.412,0.163 -0.11,0.108 -0.164,0.242 -0.164,0.401 0,0.136 0.07,0.313 0.211,0.53 0.014,0.021 0.025,0.037 0.032,0.049 l 0.387,0.601 h 0.209 l -0.399,-0.618 c 0.037,0.009 0.07,0.015 0.101,0.02 0.031,0.004 0.058,0.006 0.083,0.006 0.155,0 0.283,-0.054 0.385,-0.162 0.101,-0.108 0.152,-0.244 0.152,-0.408 0,-0.167 -0.056,-0.306 -0.166,-0.416 m -1.54,0.521 c -0.014,-0.021 -0.023,-0.037 -0.031,-0.049 l -0.387,-0.604 h -0.21 l 0.399,0.62 c -0.037,-0.009 -0.07,-0.015 -0.101,-0.019 -0.031,-0.005 -0.058,-0.007 -0.083,-0.007 -0.155,0 -0.283,0.054 -0.385,0.162 -0.101,0.108 -0.152,0.244 -0.152,0.408 0,0.168 0.055,0.307 0.165,0.417 0.109,0.11 0.248,0.165 0.418,0.165 0.166,0 0.303,-0.054 0.413,-0.163 0.11,-0.108 0.165,-0.241 0.165,-0.399 0,-0.137 -0.07,-0.314 -0.211,-0.531 m -1.666,3.711 c -0.024,0.012 -0.024,0.013 -0.037,0.037 0.042,0.058 0.084,0.091 0.137,0.137 v 0.019 l -0.006,0.006 c -0.137,-0.003 -0.395,-0.223 -0.505,-0.293 -0.414,-0.263 -0.841,-0.501 -1.258,-0.754 -0.245,-0.148 -0.577,0.11 -0.599,0.306 0.08,0.143 0.428,0.221 0.605,0.286 0.307,0.114 0.585,0.253 0.86,0.393 0.11,0.056 0.45,0.131 0.467,0.255 -0.056,0.07 -0.01,0.19 0.006,0.281 0.05,0.284 0.082,0.499 0.175,0.722 0.029,0.072 0.122,0.185 0.081,0.281 l -0.038,-0.006 c -0.105,-0.055 -0.168,-0.198 -0.305,-0.225 -0.232,-0.046 -0.67,0.417 -0.579,0.574 0.055,0.028 0.112,0.058 0.168,0.087 h 0.268 c 0.256,-0.001 0.485,-0.002 0.666,0.081 0.202,0.004 0.56,-0.198 0.499,-0.405 -0.064,-0.216 -0.218,-0.379 -0.33,-0.549 -0.061,-0.12 -0.121,-0.241 -0.181,-0.361 -0.033,-0.068 -0.159,-0.324 -0.137,-0.374 l 0.019,-0.006 c 0.207,0.087 0.415,0.174 0.623,0.262 0.083,0.047 0.186,0.077 0.274,0.13 0.033,0.025 0.066,0.05 0.1,0.075 0.18,0.045 0.425,-0.186 0.404,-0.324 -0.117,-0.163 -0.385,-0.258 -0.592,-0.33 -0.062,-0.01 -0.124,-0.021 -0.186,-0.031 -0.199,-0.075 -0.408,-0.187 -0.599,-0.274 m -0.083,-4.364 h -0.179 v 1.563 h -0.298 v 0.147 h 0.477 z m -2.421,6.507 -0.169,0.031 c -0.177,-0.043 -0.255,-0.173 -0.392,-0.243 -0.17,-0.086 -0.307,-0.147 -0.443,-0.261 -0.07,-0.06 -0.13,-0.168 -0.218,-0.206 -0.06,-0.027 -0.475,-0.138 -0.542,-0.125 -0.065,0.013 -0.111,0.048 -0.156,0.081 0.003,0.017 0.005,0.033 0.007,0.05 0.054,0.124 0.203,0.151 0.317,0.218 0.106,0.062 0.205,0.163 0.306,0.231 0.083,0.056 0.174,0.093 0.243,0.162 -0.002,0.012 -0.004,0.025 -0.006,0.037 -0.089,0.171 -0.286,0.164 -0.312,0.436 0.025,0.049 0.055,0.065 0.1,0.094 0.103,0 0.194,-0.024 0.274,-0.044 l 0.318,-0.019 c 0.082,-0.027 0.088,-0.12 0.155,-0.155 0.142,-0.063 0.321,0.215 0.599,0.099 0.051,-0.021 0.085,-0.028 0.105,-0.081 0.048,-0.115 -0.132,-0.254 -0.186,-0.305 m -0.449,-2.804 c -0.143,0.088 -0.182,0.184 -0.262,0.337 -0.018,0.029 -0.037,0.058 -0.056,0.087 -0.016,0.06 0.032,0.12 0.019,0.199 -0.013,0.08 -0.017,0.184 0,0.256 0.012,0.01 0.025,0.021 0.037,0.031 0.227,0.002 0.284,-0.163 0.38,-0.293 0.059,-0.079 0.14,-0.147 0.181,-0.249 0.082,-0.204 -0.126,-0.365 -0.299,-0.368 m -0.399,1.172 c -0.085,-0.038 -0.17,-0.075 -0.255,-0.113 -0.073,-0.051 -0.146,-0.103 -0.218,-0.155 -0.065,-0.029 -0.155,0.013 -0.193,-0.038 -0.057,-0.094 -0.064,-0.18 -0.206,-0.187 -0.069,0.034 -0.137,0.067 -0.206,0.1 -0.012,0.054 -0.025,0.108 -0.037,0.162 -0.038,0.137 -0.146,0.265 -0.162,0.418 0.041,0.08 0.157,0.084 0.28,0.081 0.039,-0.082 0.1,-0.105 0.15,-0.169 0.035,-0.054 0.07,-0.108 0.106,-0.162 h 0.012 c 0.138,0.204 0.302,0.338 0.492,0.486 0.054,0.042 0.101,0.132 0.057,0.2 -0.215,0.011 -0.349,-0.229 -0.568,-0.094 l 0.007,0.038 c 0.036,0.061 0.233,0.127 0.305,0.168 0.19,0.109 0.382,0.219 0.573,0.33 0.093,0.054 0.142,0.128 0.25,0.181 0.137,0.001 0.284,-0.161 0.199,-0.299 -0.092,-0.034 -0.301,-0.292 -0.324,-0.399 -0.015,-0.072 0.023,-0.111 0,-0.175 -0.045,-0.125 -0.16,-0.298 -0.262,-0.373 m -0.255,-1.409 c -0.05,-0.086 -0.228,-0.043 -0.349,-0.024 -0.173,0.025 -0.318,-0.011 -0.468,-0.044 -0.076,-0.017 -0.136,0.003 -0.187,-0.025 -0.027,-0.08 -0.337,-0.49 -0.404,-0.517 -0.321,-0.129 -0.53,0.135 -0.499,0.38 0.046,0.049 0.125,0.046 0.187,0.081 0.037,0.033 0.075,0.066 0.112,0.099 0.073,0.04 0.146,0.08 0.218,0.119 0.21,0.128 0.408,0.293 0.623,0.417 0.089,0.052 0.19,0.098 0.274,0.137 0.034,0.007 0.067,0.013 0.1,0.019 0.105,0.053 0.071,0.268 0.181,0.324 0.025,0.006 0.05,0.013 0.075,0.019 0.078,0.002 0.126,-0.029 0.149,-0.081 0.041,-0.078 -0.024,-0.224 -0.025,-0.324 0,-0.17 0.108,-0.414 0.013,-0.58 m -2.044,0.455 c -0.049,-0.209 -0.398,-0.213 -0.605,-0.274 -0.107,-0.041 -0.215,-0.083 -0.323,-0.124 -0.08,-0.033 -0.168,-0.011 -0.225,0.031 -0.288,0.21 0.037,0.728 0.125,0.959 0.032,0.085 0.117,0.188 0.062,0.281 -0.067,0.006 -0.12,0.015 -0.162,0.043 0.004,0.023 0.009,0.046 0.013,0.069 0.027,0.012 0.054,0.025 0.081,0.037 0.111,0.073 0.225,0.157 0.299,0.268 0.072,0.108 0.091,0.25 0.143,0.38 0.089,0.224 0.184,0.499 0.256,0.729 0.002,0.073 0.004,0.145 0.006,0.218 0.02,0.098 0.145,0.187 0.224,0.231 0.336,0 0.457,-0.604 0.305,-0.904 -0.025,-0.05 -0.134,-0.19 -0.093,-0.268 0.021,-0.04 0.081,-0.025 0.118,-0.049 0.059,-0.04 0.094,-0.177 0.063,-0.268 -0.062,-0.182 -0.367,-0.211 -0.468,-0.362 -0.043,-0.064 -0.039,-0.138 -0.068,-0.218 -0.068,-0.182 -0.204,-0.365 -0.281,-0.554 0.007,-0.019 0.013,-0.038 0.019,-0.057 0.188,-0.017 0.322,0.194 0.474,-0.037 0.018,-0.029 0.051,-0.073 0.037,-0.131 m -1.309,2.617 c -0.057,-0.25 -0.198,-0.465 -0.28,-0.71 -0.105,-0.313 -0.116,-0.665 -0.181,-1.028 0.009,-0.067 0.017,-0.133 0.025,-0.2 0.017,-0.098 -0.029,-0.159 -0.012,-0.261 0.028,-0.169 0.074,-0.332 0.106,-0.474 0.027,-0.124 -0.006,-0.353 -0.087,-0.392 -0.138,-0.078 -0.202,0.12 -0.268,0.162 -0.121,0.031 -0.212,-0.182 -0.262,-0.256 -0.046,-0.067 -0.054,-0.174 -0.1,-0.249 -0.102,-0.169 -0.425,-0.629 -0.623,-0.673 -0.088,-0.02 -0.124,0.038 -0.174,0.056 -0.101,0.037 -0.11,0.033 -0.162,0.112 0.044,0.311 0.257,0.435 0.467,0.58 0.204,0.14 0.411,0.339 0.554,0.542 0.069,0.096 0.213,0.145 0.25,0.274 0.035,0.124 -0.011,0.503 -0.031,0.636 -0.002,0.145 -0.005,0.29 -0.007,0.436 -0.034,0.472 0.069,0.979 0.138,1.389 0.008,0.1 0.016,0.199 0.024,0.299 -0.041,0.169 -0.139,0.366 0.044,0.467 0.311,10e-4 0.459,-0.265 0.53,-0.51 0.016,-0.057 0.07,-0.112 0.049,-0.2 m -2.763,14.691 -0.044,0.036 c 0.064,0.092 0.096,0.161 0.095,0.207 -0.002,0.046 -0.044,0.101 -0.125,0.167 L -28.9,8.574 c -0.071,0.011 -0.132,0.009 -0.183,-0.005 -0.05,-0.014 -0.096,-0.043 -0.138,-0.086 l -0.044,0.036 0.305,0.377 1.739,0.024 -0.794,0.643 c -0.081,0.066 -0.144,0.095 -0.189,0.087 -0.044,-0.007 -0.105,-0.052 -0.18,-0.134 l -0.045,0.036 0.425,0.524 0.044,-0.036 c -0.064,-0.091 -0.096,-0.159 -0.095,-0.205 0.002,-0.046 0.044,-0.102 0.125,-0.167 l 1.217,-0.986 -0.036,-0.044 -1.978,-0.033 0.933,-0.756 c 0.081,-0.065 0.144,-0.095 0.189,-0.087 0.045,0.009 0.106,0.054 0.183,0.136 l 0.045,-0.036 z m -0.521,-1.195 c -0.062,-0.118 -0.133,-0.215 -0.213,-0.292 -0.08,-0.076 -0.165,-0.129 -0.253,-0.157 -0.082,-0.025 -0.168,-0.028 -0.26,-0.01 -0.091,0.018 -0.201,0.062 -0.329,0.13 l -0.624,0.331 c -0.148,0.079 -0.251,0.113 -0.31,0.102 -0.058,-0.011 -0.113,-0.065 -0.165,-0.163 l -0.051,0.027 0.393,0.739 0.05,-0.026 c -0.047,-0.095 -0.062,-0.166 -0.046,-0.214 0.016,-0.047 0.077,-0.099 0.181,-0.154 l 0.712,-0.379 c 0.195,-0.104 0.361,-0.141 0.496,-0.113 0.136,0.029 0.247,0.125 0.333,0.288 0.089,0.167 0.108,0.323 0.057,0.467 -0.051,0.145 -0.166,0.265 -0.347,0.361 l -0.712,0.379 c -0.101,0.054 -0.178,0.073 -0.232,0.058 -0.054,-0.014 -0.107,-0.069 -0.159,-0.163 l -0.051,0.026 0.312,0.586 0.049,-0.026 c -0.041,-0.085 -0.051,-0.153 -0.031,-0.205 0.021,-0.052 0.08,-0.104 0.179,-0.156 l 0.679,-0.362 c 0.234,-0.124 0.38,-0.277 0.438,-0.459 0.058,-0.182 0.026,-0.387 -0.096,-0.615 m 10e-4,-13.325 c -0.046,0.101 -0.092,0.16 -0.138,0.18 -0.045,0.02 -0.113,0.01 -0.201,-0.029 l -1.156,-0.515 c -0.09,-0.04 -0.142,-0.083 -0.157,-0.13 -0.015,-0.047 -0.002,-0.122 0.038,-0.226 l -0.051,-0.023 -0.367,0.825 c -0.09,0.202 -0.123,0.375 -0.1,0.519 0.024,0.144 0.102,0.245 0.234,0.304 0.09,0.04 0.182,0.046 0.276,0.017 0.094,-0.029 0.181,-0.091 0.262,-0.186 -0.034,0.15 -0.031,0.276 0.009,0.379 0.039,0.102 0.115,0.178 0.227,0.228 0.167,0.074 0.318,0.067 0.454,-0.021 0.136,-0.088 0.261,-0.262 0.376,-0.52 l 0.347,-0.78 z m -2.531,1.568 c -0.022,-0.044 -0.02,-0.12 0.006,-0.23 l -0.053,-0.015 -0.444,1.546 0.393,0.139 0.015,-0.055 c -0.109,-0.052 -0.177,-0.109 -0.203,-0.171 -0.027,-0.062 -0.021,-0.158 0.016,-0.287 l 0.131,-0.457 c 0.015,-0.055 0.033,-0.089 0.051,-0.101 0.018,-0.013 0.056,-0.011 0.114,0.006 l 0.486,0.139 c 0.038,0.011 0.06,0.023 0.068,0.035 0.007,0.012 0.005,0.038 -0.006,0.077 l -0.103,0.36 c -0.041,0.141 -0.085,0.228 -0.132,0.261 -0.048,0.033 -0.122,0.038 -0.222,0.015 l -0.016,0.055 0.621,0.178 0.016,-0.055 c -0.102,-0.037 -0.165,-0.081 -0.189,-0.134 -0.024,-0.052 -0.015,-0.149 0.025,-0.29 l 0.104,-0.363 c 0.01,-0.035 0.021,-0.056 0.034,-0.064 0.013,-0.008 0.038,-0.006 0.077,0.005 l 0.541,0.155 c 0.066,0.019 0.106,0.04 0.122,0.063 0.015,0.023 0.015,0.06 0,0.111 l -0.121,0.423 c -0.049,0.171 -0.109,0.287 -0.179,0.349 -0.071,0.062 -0.185,0.102 -0.34,0.119 l 0.01,0.057 0.484,-0.015 0.454,-1.583 -0.055,-0.014 c -0.033,0.105 -0.07,0.171 -0.111,0.197 -0.041,0.027 -0.11,0.027 -0.205,-10e-4 l -1.215,-0.348 c -0.094,-0.027 -0.152,-0.063 -0.174,-0.107 m -0.597,2.202 c -0.028,-0.043 -0.035,-0.118 -0.021,-0.225 l -0.056,-0.009 -0.134,0.845 0.057,0.008 c 0.021,-0.109 0.052,-0.179 0.09,-0.21 0.039,-0.03 0.107,-0.038 0.202,-0.023 l 1.246,0.197 c 0.096,0.015 0.158,0.044 0.186,0.087 0.028,0.042 0.034,0.117 0.02,0.225 l 0.056,0.01 0.134,-0.845 -0.056,-0.009 c -0.02,0.108 -0.049,0.178 -0.088,0.209 -0.038,0.032 -0.107,0.04 -0.205,0.024 l -1.246,-0.197 c -0.095,-0.015 -0.157,-0.044 -0.185,-0.087 m -0.259,1.262 -0.057,-0.004 -0.06,0.852 0.056,0.003 c 0.01,-0.106 0.034,-0.177 0.073,-0.211 0.039,-0.035 0.113,-0.048 0.221,-0.041 l 1.005,0.07 c 0.19,0.014 0.338,-0.018 0.443,-0.095 0.106,-0.077 0.164,-0.195 0.175,-0.355 0.007,-0.099 -0.011,-0.181 -0.054,-0.248 -0.043,-0.068 -0.102,-0.103 -0.175,-0.108 -0.033,-0.003 -0.062,0.007 -0.085,0.029 -0.022,0.022 -0.035,0.051 -0.038,0.088 -0.002,0.036 0.006,0.067 0.024,0.094 0.018,0.028 0.047,0.052 0.086,0.072 0.004,0.002 0.01,0.005 0.018,0.008 0.077,0.039 0.114,0.081 0.111,0.127 -0.003,0.041 -0.019,0.071 -0.047,0.09 -0.028,0.019 -0.07,0.026 -0.125,0.022 l -1.317,-0.092 c -0.111,-0.007 -0.183,-0.031 -0.216,-0.072 -0.034,-0.041 -0.046,-0.118 -0.038,-0.229 m -0.154,2.129 0.057,-0.002 c 0.005,-0.111 0.024,-0.185 0.057,-0.221 0.034,-0.036 0.099,-0.055 0.196,-0.055 h 1.261 c 0.098,0 0.163,0.019 0.197,0.057 0.035,0.037 0.053,0.111 0.056,0.219 l 0.057,0.002 v -0.856 h -0.057 c -0.003,0.109 -0.021,0.183 -0.054,0.22 -0.033,0.037 -0.1,0.056 -0.199,0.056 h -1.261 c -0.097,0 -0.163,-0.019 -0.197,-0.057 -0.034,-0.038 -0.053,-0.111 -0.056,-0.219 h -0.057 z m 0.041,1.018 1.479,0.916 -1.012,0.143 C -31.46,2.068 -31.53,2.06 -31.564,2.031 -31.598,2.001 -31.627,1.932 -31.65,1.822 l -0.056,0.008 0.094,0.668 0.056,-0.008 c -0.008,-0.111 0,-0.186 0.025,-0.224 0.025,-0.039 0.089,-0.065 0.192,-0.08 l 1.551,-0.218 -0.008,-0.056 -1.678,-1.047 1.189,-0.167 c 0.103,-0.015 0.172,-0.007 0.207,0.023 0.034,0.03 0.063,0.1 0.087,0.211 l 0.056,-0.008 -0.094,-0.671 -0.056,0.008 c 0.007,0.112 -0.002,0.188 -0.026,0.226 -0.025,0.039 -0.089,0.065 -0.193,0.079 l -1.302,0.183 c -0.067,-0.027 -0.119,-0.06 -0.155,-0.098 -0.035,-0.038 -0.06,-0.086 -0.074,-0.144 l -0.056,0.008 z m 0.56,3.11 c 0.035,0.115 0.088,0.223 0.16,0.325 0.072,0.102 0.11,0.158 0.113,0.168 0.006,0.021 0.003,0.042 -0.009,0.062 -0.012,0.021 -0.033,0.039 -0.062,0.057 l 0.013,0.045 0.563,-0.142 -0.017,-0.055 c -0.186,-0.013 -0.329,-0.056 -0.429,-0.128 -0.1,-0.072 -0.173,-0.185 -0.22,-0.338 -0.065,-0.213 -0.041,-0.407 0.072,-0.583 0.113,-0.176 0.296,-0.303 0.548,-0.38 0.256,-0.078 0.48,-0.075 0.672,0.01 0.192,0.085 0.322,0.236 0.388,0.454 0.025,0.08 0.036,0.16 0.033,0.24 -0.003,0.08 -0.019,0.151 -0.048,0.214 l -0.486,0.148 c -0.104,0.032 -0.172,0.037 -0.204,0.014 -0.033,-0.022 -0.07,-0.093 -0.112,-0.213 l -0.057,0.018 0.235,0.769 0.057,-0.018 c -0.024,-0.088 -0.028,-0.149 -0.012,-0.185 0.017,-0.036 0.071,-0.068 0.162,-0.096 l 0.523,-0.16 c 0.038,-0.137 0.056,-0.272 0.056,-0.407 0,-0.134 -0.021,-0.268 -0.061,-0.399 -0.09,-0.295 -0.247,-0.507 -0.471,-0.637 -0.225,-0.129 -0.474,-0.152 -0.748,-0.068 -0.284,0.087 -0.486,0.249 -0.609,0.488 -0.123,0.239 -0.139,0.505 -0.05,0.797 m 4.516,-13.479 c 0.079,0.023 0.158,0.046 0.237,0.069 0.246,0.005 0.605,-0.171 0.604,-0.405 -0.094,-0.186 -0.28,-0.262 -0.436,-0.386 -0.041,-0.033 -0.045,-0.079 -0.075,-0.125 -0.057,-0.089 -0.145,-0.185 -0.224,-0.256 -0.033,0.005 -0.066,0.009 -0.1,0.013 -0.075,0.205 0.211,0.428 0.175,0.698 -0.026,0.196 -0.334,0.14 -0.181,0.392 m -0.374,20.367 0.04,-0.041 c -0.075,-0.083 -0.112,-0.149 -0.113,-0.199 -0.001,-0.049 0.033,-0.107 0.103,-0.174 l 0.907,-0.877 c 0.07,-0.068 0.13,-0.1 0.181,-0.096 0.051,0.003 0.115,0.043 0.192,0.119 l 0.042,-0.038 -0.594,-0.616 -0.041,0.04 c 0.074,0.08 0.112,0.146 0.114,0.195 0.002,0.05 -0.033,0.109 -0.104,0.178 l -0.908,0.877 c -0.069,0.067 -0.13,0.099 -0.181,0.095 -0.051,-0.003 -0.115,-0.043 -0.192,-0.118 l -0.041,0.039 z m 0.996,0.943 0.033,-0.047 c -0.07,-0.06 -0.112,-0.105 -0.126,-0.134 -0.014,-0.03 -0.01,-0.058 0.012,-0.087 0.023,-0.03 0.123,-0.097 0.301,-0.2 0.179,-0.104 0.482,-0.271 0.91,-0.5 l -0.267,1.18 c -0.009,0.042 -0.02,0.078 -0.03,0.107 -0.01,0.029 -0.02,0.05 -0.031,0.065 -0.024,0.032 -0.054,0.046 -0.088,0.042 -0.034,-0.004 -0.086,-0.03 -0.154,-0.076 l -0.036,0.045 0.454,0.342 0.034,-0.045 c -0.039,-0.034 -0.061,-0.076 -0.068,-0.126 -0.006,-0.051 0.005,-0.136 0.033,-0.255 l 0.388,-1.691 -0.047,-0.037 -1.458,0.819 c -0.125,0.07 -0.22,0.11 -0.285,0.119 -0.064,0.008 -0.124,-0.007 -0.177,-0.046 l -0.035,0.046 z m 2.766,1.834 0.223,-0.351 -0.049,-0.028 c -0.075,0.095 -0.146,0.149 -0.213,0.16 -0.067,0.012 -0.158,-0.015 -0.276,-0.08 l -0.416,-0.231 c -0.05,-0.028 -0.079,-0.052 -0.087,-0.072 -0.008,-0.021 0.003,-0.057 0.032,-0.11 l 0.245,-0.443 c 0.019,-0.034 0.035,-0.053 0.049,-0.058 0.014,-0.004 0.038,0.004 0.074,0.023 l 0.328,0.182 c 0.128,0.071 0.203,0.134 0.224,0.187 0.021,0.054 0.01,0.127 -0.036,0.219 l 0.05,0.028 0.314,-0.565 -0.05,-0.027 c -0.059,0.09 -0.117,0.142 -0.173,0.153 -0.056,0.012 -0.149,-0.018 -0.277,-0.089 l -0.331,-0.183 c -0.031,-0.018 -0.049,-0.033 -0.054,-0.048 -0.005,-0.014 0.002,-0.038 0.022,-0.073 l 0.273,-0.492 c 0.033,-0.061 0.063,-0.095 0.088,-0.105 0.026,-0.009 0.063,-10e-4 0.109,0.025 l 0.385,0.213 c 0.155,0.086 0.255,0.17 0.3,0.253 0.044,0.083 0.058,0.203 0.039,0.358 l 0.058,0.003 0.094,-0.475 -1.44,-0.799 -0.027,0.051 c 0.096,0.056 0.152,0.106 0.168,0.153 0.017,0.046 10e-4,0.112 -0.047,0.199 l -0.613,1.106 c -0.047,0.085 -0.095,0.133 -0.143,0.145 -0.048,0.011 -0.122,-0.008 -0.223,-0.058 l -0.027,0.049 z m 1.483,0.69 c 0.195,0.079 0.361,0.101 0.495,0.066 0.135,-0.036 0.232,-0.126 0.29,-0.272 0.047,-0.115 0.048,-0.224 0.006,-0.329 -0.042,-0.105 -0.128,-0.202 -0.255,-0.292 0.345,-0.2 0.596,-0.336 0.754,-0.407 0.158,-0.072 0.263,-0.099 0.317,-0.083 l 0.021,-0.053 -0.395,-0.16 c -0.155,0.073 -0.314,0.153 -0.476,0.241 -0.162,0.089 -0.328,0.185 -0.498,0.289 l -0.159,-0.065 c -0.024,-0.009 -0.04,-0.021 -0.046,-0.035 -0.007,-0.013 -0.005,-0.032 0.004,-0.054 l 0.174,-0.431 c 0.038,-0.094 0.082,-0.152 0.132,-0.173 0.05,-0.021 0.123,-0.012 0.217,0.026 l 0.023,0.009 0.021,-0.053 -0.806,-0.325 -0.021,0.053 0.032,0.013 c 0.087,0.035 0.141,0.077 0.161,0.126 0.019,0.049 0.01,0.12 -0.029,0.215 l -0.473,1.171 c -0.034,0.085 -0.075,0.134 -0.122,0.15 -0.047,0.015 -0.124,0.003 -0.231,-0.038 l -0.021,0.053 z m 1.687,0.513 c 0.078,0.111 0.197,0.185 0.357,0.222 0.074,0.017 0.156,0.022 0.246,0.013 0.089,-0.008 0.142,-0.011 0.157,-0.007 0.02,0.004 0.034,0.015 0.043,0.032 0.008,0.016 0.011,0.038 0.008,0.067 l 0.048,0.011 0.188,-0.539 -0.055,-0.013 c -0.087,0.138 -0.182,0.236 -0.284,0.295 -0.101,0.059 -0.206,0.077 -0.312,0.052 -0.091,-0.021 -0.159,-0.064 -0.204,-0.128 -0.046,-0.065 -0.059,-0.137 -0.041,-0.218 0.015,-0.064 0.048,-0.116 0.1,-0.159 0.051,-0.042 0.132,-0.081 0.241,-0.117 l 0.361,-0.114 c 0.148,-0.048 0.257,-0.105 0.327,-0.169 0.07,-0.063 0.116,-0.148 0.141,-0.253 0.036,-0.158 0.012,-0.296 -0.073,-0.415 -0.084,-0.119 -0.216,-0.199 -0.396,-0.241 -0.083,-0.019 -0.172,-0.027 -0.267,-0.023 -0.094,0.003 -0.145,0.004 -0.154,0.002 -0.025,-0.006 -0.043,-0.015 -0.056,-0.03 -0.012,-0.015 -0.017,-0.034 -0.016,-0.057 l -0.047,-0.011 -0.237,0.568 0.055,0.013 c 0.101,-0.143 0.209,-0.248 0.327,-0.313 0.118,-0.065 0.232,-0.086 0.342,-0.06 0.097,0.022 0.172,0.072 0.224,0.15 0.051,0.077 0.066,0.162 0.045,0.255 -0.016,0.068 -0.053,0.127 -0.11,0.176 -0.058,0.048 -0.139,0.089 -0.243,0.121 l -0.326,0.107 c -0.14,0.044 -0.246,0.099 -0.317,0.162 -0.072,0.064 -0.119,0.145 -0.142,0.245 -0.032,0.139 -0.009,0.265 0.07,0.376 m 2.382,0.527 0.006,-0.057 c -0.11,-0.018 -0.181,-0.046 -0.213,-0.084 -0.032,-0.037 -0.042,-0.105 -0.031,-0.2 l 0.154,-1.252 c 0.012,-0.097 0.039,-0.16 0.08,-0.189 0.042,-0.03 0.117,-0.039 0.225,-0.028 l 0.008,-0.057 -0.849,-0.104 -0.007,0.057 c 0.108,0.016 0.179,0.042 0.212,0.08 0.033,0.037 0.043,0.105 0.031,0.204 l -0.154,1.252 c -0.012,0.096 -0.038,0.159 -0.08,0.188 -0.042,0.03 -0.117,0.039 -0.224,0.029 l -0.007,0.056 z m 0.521,0.116 h 1.704 v -0.483 h -0.06 c -0.015,0.148 -0.052,0.247 -0.112,0.298 -0.059,0.051 -0.197,0.076 -0.411,0.076 -0.063,0 -0.1,-0.004 -0.111,-0.014 -0.011,-0.009 -0.016,-0.032 -0.016,-0.07 v -1.332 c 0,-0.135 0.019,-0.217 0.056,-0.248 0.038,-0.031 0.114,-0.048 0.23,-0.051 l 0.002,-0.057 h -0.874 v 0.057 c 0.119,0 0.196,0.018 0.232,0.053 0.036,0.036 0.054,0.114 0.054,0.236 v 1.342 c 0,0.04 -0.006,0.064 -0.017,0.072 -0.012,0.008 -0.045,0.012 -0.1,0.012 h -0.046 c -0.182,0 -0.305,-0.026 -0.369,-0.077 -0.065,-0.052 -0.105,-0.151 -0.121,-0.297 h -0.057 z m 2.132,0.036 0.863,-0.106 -0.007,-0.056 c -0.082,0.003 -0.14,0 -0.174,-0.008 -0.033,-0.009 -0.052,-0.026 -0.054,-0.049 -0.004,-0.027 0.008,-0.067 0.034,-0.118 0.003,-0.004 0.004,-0.006 0.005,-0.007 l 0.367,-0.693 0.449,0.535 c 0.045,0.052 0.073,0.087 0.087,0.108 0.013,0.02 0.02,0.037 0.022,0.051 0.003,0.025 -0.009,0.046 -0.035,0.063 -0.027,0.017 -0.079,0.033 -0.155,0.05 l 0.007,0.057 0.585,-0.072 -0.007,-0.057 c -0.057,0.003 -0.108,-0.007 -0.153,-0.031 -0.046,-0.024 -0.103,-0.077 -0.171,-0.156 l -0.589,-0.689 -0.069,-0.566 c -0.01,-0.079 0.002,-0.136 0.037,-0.171 0.035,-0.036 0.107,-0.061 0.214,-0.077 l -0.007,-0.056 -0.849,0.104 0.007,0.056 0.013,-10e-4 c 0.095,-0.012 0.165,-0.003 0.208,0.028 0.043,0.03 0.069,0.088 0.08,0.174 l 0.063,0.516 -0.507,0.928 c -0.031,0.055 -0.068,0.097 -0.111,0.126 -0.042,0.03 -0.096,0.049 -0.16,0.06 z m 2.922,-1.367 c 0.096,0.28 0.258,0.476 0.484,0.587 0.226,0.111 0.477,0.119 0.754,0.023 0.278,-0.095 0.471,-0.256 0.582,-0.483 0.109,-0.227 0.116,-0.481 0.019,-0.761 -0.096,-0.281 -0.258,-0.478 -0.484,-0.589 -0.227,-0.113 -0.479,-0.121 -0.757,-0.025 -0.277,0.095 -0.47,0.257 -0.579,0.484 -0.11,0.228 -0.116,0.483 -0.019,0.764 m 2.084,-1.644 c 0.044,0.012 0.09,0.064 0.136,0.154 l 0.572,1.123 c 0.045,0.087 0.058,0.155 0.04,0.203 -0.018,0.049 -0.076,0.098 -0.173,0.147 l 0.028,0.053 1.39,-0.708 -0.175,-0.408 -0.051,0.026 c 0.038,0.122 0.043,0.217 0.012,0.286 -0.03,0.068 -0.105,0.133 -0.227,0.195 l -0.356,0.182 c -0.049,0.025 -0.088,0.034 -0.116,0.025 -0.028,-0.008 -0.054,-0.034 -0.077,-0.079 l -0.23,-0.453 c -0.02,-0.038 -0.027,-0.064 -0.022,-0.078 0.005,-0.014 0.023,-0.03 0.056,-0.047 l 0.223,-0.113 c 0.127,-0.065 0.22,-0.092 0.279,-0.08 0.058,0.012 0.11,0.064 0.157,0.157 l 0.051,-0.026 -0.302,-0.594 -0.051,0.026 c 0.046,0.109 0.06,0.188 0.042,0.239 -0.019,0.052 -0.095,0.111 -0.227,0.178 l -0.225,0.115 c -0.029,0.015 -0.051,0.02 -0.067,0.015 -0.016,-0.005 -0.031,-0.021 -0.045,-0.049 l -0.237,-0.464 c -0.045,-0.089 -0.057,-0.158 -0.037,-0.209 0.02,-0.05 0.082,-0.102 0.186,-0.157 l -0.025,-0.052 -0.78,0.398 0.027,0.05 c 0.105,-0.048 0.179,-0.066 0.224,-0.055 m -9.652,-10.497 0.011,0.659 h 4.195 l -0.011,-0.659 z m 0,-3.81 0.011,0.658 h 4.195 l -0.011,-0.658 z m 12.175,0.723 c 0.335,-2.222 -1.685,-3.033 -2.389,-3.009 l -13.373,-0.002 0.028,1.379 9.772,-0.008 c 1.98,0.189 1.616,2.482 0,2.532 l -9.753,-0.024 -0.007,1.303 9.655,-0.034 c 1.201,0.119 1.861,1.563 1.469,2.473 L -19.819,3.661 V 4.18 l 7.265,-0.016 c -0.331,0.389 -1.061,0.599 -1.696,0.585 l -9.111,-0.005 0.013,1.217 12.609,0.025 C -8.807,5.937 -7.922,4.371 -8.129,2.965 -8.273,1.982 -9.136,1.196 -9.492,1.113 -8.516,0.829 -7.771,0.021 -7.626,-0.943 m -0.142,-6.661 c 0.01,0.008 0.02,0.017 0.031,0.025 0.196,-0.007 0.494,-0.36 0.554,-0.511 0.026,-0.065 0.021,-0.163 0.007,-0.237 -0.038,-0.043 -0.368,-0.055 -0.443,-0.062 -0.002,0.002 -0.004,0.004 -0.006,0.006 0,0.091 0.034,0.133 0.05,0.212 -0.102,0.12 -0.245,0.36 -0.193,0.567 m -0.181,18.943 c 0.098,-0.068 0.171,-0.098 0.221,-0.089 0.049,0.008 0.109,0.062 0.179,0.161 l 0.77,1.1 c 0.023,0.033 0.032,0.056 0.027,0.069 -0.005,0.013 -0.03,0.035 -0.075,0.067 l -0.038,0.026 c -0.149,0.105 -0.264,0.154 -0.347,0.149 -0.082,-0.006 -0.172,-0.064 -0.269,-0.174 l -0.046,0.032 0.29,0.387 1.395,-0.977 -0.277,-0.396 -0.049,0.035 c 0.073,0.129 0.099,0.232 0.08,0.308 -0.02,0.075 -0.118,0.175 -0.293,0.298 -0.052,0.036 -0.085,0.053 -0.099,0.052 -0.014,-0.001 -0.032,-0.017 -0.054,-0.048 l -0.764,-1.091 c -0.077,-0.11 -0.109,-0.189 -0.096,-0.236 0.013,-0.047 0.066,-0.104 0.16,-0.173 l -0.032,-0.048 -0.715,0.501 z m 2.455,0.415 1.176,-1.097 -0.265,-0.321 -0.042,0.039 c 0.068,0.101 0.097,0.184 0.087,0.251 -0.01,0.067 -0.063,0.146 -0.162,0.238 l -0.347,0.324 c -0.042,0.04 -0.074,0.06 -0.096,0.061 -0.022,10e-4 -0.054,-0.02 -0.095,-0.064 l -0.345,-0.371 c -0.027,-0.028 -0.04,-0.049 -0.04,-0.064 0,-0.014 0.015,-0.035 0.044,-0.063 l 0.274,-0.256 c 0.108,-0.1 0.191,-0.152 0.248,-0.155 0.058,-0.004 0.124,0.03 0.198,0.102 L -4.818,10.339 -5.258,9.866 -5.3,9.905 c 0.068,0.084 0.099,0.154 0.093,0.212 -0.006,0.057 -0.063,0.136 -0.171,0.236 l -0.276,0.257 c -0.026,0.025 -0.047,0.037 -0.062,0.037 -0.015,10e-4 -0.036,-0.014 -0.063,-0.043 l -0.384,-0.412 c -0.047,-0.05 -0.071,-0.089 -0.072,-0.116 -10e-4,-0.028 0.018,-0.06 0.057,-0.096 l 0.321,-0.3 C -5.726,9.559 -5.615,9.49 -5.523,9.473 -5.43,9.456 -5.312,9.48 -5.17,9.546 l 0.02,-0.054 -0.422,-0.237 -1.205,1.124 0.04,0.04 c 0.083,-0.073 0.148,-0.11 0.197,-0.112 0.049,-0.001 0.107,0.034 0.175,0.107 l 0.862,0.924 c 0.067,0.072 0.098,0.132 0.095,0.181 -0.004,0.049 -0.046,0.113 -0.124,0.194 z m 4.318,-6.095 c 0.016,0.05 0.017,0.104 0.003,0.162 l 0.055,0.018 0.149,-0.461 -0.926,-1.472 0.972,0.315 c 0.099,0.033 0.158,0.07 0.175,0.111 0.018,0.042 0.014,0.117 -0.014,0.225 L -0.708,4.575 -0.499,3.933 -0.554,3.916 C -0.595,4.019 -0.635,4.083 -0.674,4.107 -0.713,4.131 -0.783,4.126 -0.882,4.094 L -2.371,3.61 -2.389,3.664 -1.339,5.341 -2.481,4.97 C -2.581,4.938 -2.639,4.9 -2.657,4.858 -2.675,4.816 -2.67,4.74 -2.643,4.631 L -2.698,4.613 -2.907,5.257 -2.853,5.275 C -2.81,5.171 -2.769,5.107 -2.73,5.083 -2.691,5.059 -2.622,5.064 -2.522,5.096 l 1.25,0.407 c 0.049,0.053 0.081,0.106 0.096,0.156 M -0.136,2.44 C -0.085,2.151 -0.132,1.903 -0.277,1.697 -0.422,1.491 -0.641,1.362 -0.933,1.311 -1.226,1.259 -1.476,1.305 -1.684,1.449 c -0.208,0.144 -0.337,0.36 -0.388,0.65 -0.051,0.288 -0.003,0.535 0.143,0.741 0.146,0.207 0.365,0.335 0.658,0.387 0.292,0.052 0.542,0.005 0.748,-0.139 0.207,-0.144 0.336,-0.36 0.387,-0.648 m -3.333,9.649 c -3.18,3.18 -7.573,5.147 -12.426,5.147 -4.853,0 -9.246,-1.967 -12.427,-5.147 -3.18,-3.18 -5.147,-7.573 -5.147,-12.426 0,-4.853 1.967,-9.246 5.147,-12.426 3.181,-3.18 7.574,-5.147 12.427,-5.147 4.853,0 9.246,1.967 12.426,5.147 3.18,3.18 5.147,7.573 5.147,12.426 0,4.853 -1.967,9.246 -5.147,12.426"
       style="fill:#4290b7;fill-opacity:1;fill-rule:evenodd;stroke:none"
       transform="matrix(0.35277776,0,0,-0.35277776,77.489965,203.27679)"
       clip-path="url(#clipPath3600)" />
    <path
       id="path3601"
       d="m 0,0 c -0.112,0 -0.206,-0.04 -0.281,-0.12 -0.076,-0.08 -0.113,-0.182 -0.113,-0.306 0,-0.124 0.037,-0.226 0.112,-0.305 0.074,-0.08 0.169,-0.12 0.284,-0.12 0.118,0 0.216,0.041 0.295,0.122 0.08,0.081 0.119,0.182 0.119,0.301 0,0.12 -0.04,0.222 -0.121,0.304 C 0.214,-0.041 0.116,0 0,0"
       style="fill:#4290b7;fill-opacity:1;fill-rule:evenodd;stroke:none"
       transform="matrix(0.35277776,0,0,-0.35277776,71.564958,207.61542)"
       clip-path="url(#clipPath3602)" />
    <path
       id="path3603"
       d="m 0,0 c -0.117,0 -0.215,-0.041 -0.295,-0.122 -0.079,-0.082 -0.119,-0.182 -0.119,-0.301 0,-0.12 0.041,-0.222 0.122,-0.306 0.081,-0.083 0.179,-0.125 0.294,-0.125 0.112,0 0.206,0.041 0.281,0.121 0.076,0.081 0.114,0.183 0.114,0.308 0,0.124 -0.037,0.225 -0.112,0.305 C 0.21,-0.04 0.115,0 0,0"
       style="fill:#4290b7;fill-opacity:1;fill-rule:evenodd;stroke:none"
       transform="matrix(0.35277776,0,0,-0.35277776,72.099061,207.83611)"
       clip-path="url(#clipPath3604)" />
    <path
       id="path3605"
       d="m 0,0 c -3.312,-3.312 -7.889,-5.361 -12.943,-5.361 -5.055,0 -9.631,2.049 -12.943,5.361 -3.313,3.312 -5.362,7.889 -5.362,12.943 0,5.055 2.049,9.631 5.362,12.943 3.312,3.313 7.888,5.362 12.943,5.362 5.054,0 9.631,-2.049 12.943,-5.362 C 3.312,22.574 5.361,17.998 5.361,12.943 5.361,7.889 3.312,3.312 0,0 m -12.943,32.506 c -10.804,0 -19.563,-8.759 -19.563,-19.563 0,-10.804 8.759,-19.563 19.563,-19.563 10.804,0 19.563,8.759 19.563,19.563 0,10.804 -8.759,19.563 -19.563,19.563"
       style="fill:#4290b7;fill-opacity:1;fill-rule:evenodd;stroke:none"
       transform="matrix(0.35277776,0,0,-0.35277776,76.448531,207.96179)"
       clip-path="url(#clipPath3606)" />
  </g>
</svg>
