<?xml version="1.0" encoding="utf-8"?>
<!-- Generator: Adobe Illustrator 28.0.0, SVG Export Plug-In . SVG Version: 6.00 Build 0)  -->
<svg version="1.1" id="svg1" xmlns:svg="http://www.w3.org/2000/svg"
	 xmlns="http://www.w3.org/2000/svg" xmlns:xlink="http://www.w3.org/1999/xlink" x="0px" y="0px" viewBox="0 0 39.1 39.1"
	 style="enable-background:new 0 0 39.1 39.1;" xml:space="preserve">
<style type="text/css">
	.st0{clip-path:url(#SVGID_00000113348790585166964080000005613891663262989476_);fill:#E03822;}
	.st1{clip-path:url(#SVGID_00000171698742442258719720000005325841873825010576_);fill:#E03822;}
	.st2{clip-path:url(#SVGID_00000036238915246102578080000000024689256724060032_);fill:#E03822;}
	.st3{clip-path:url(#SVGID_00000053547494167934360020000006451169623574901904_);fill:#E03822;}
	.st4{clip-path:url(#SVGID_00000127755103739454677760000011169754278649964681_);fill:#E03822;}
	.st5{clip-path:url(#SVGID_00000131339827231303942980000001179333484765471381_);fill:#E03822;}
	.st6{clip-path:url(#SVGID_00000080194451953335216520000013861856556659725484_);fill:#E03822;}
	.st7{clip-path:url(#SVGID_00000095327694367856106320000000044948636574195364_);fill:#E03822;}
	.st8{clip-path:url(#SVGID_00000111903157106346031380000007330389594471079577_);fill:#E03822;}
	.st9{clip-path:url(#SVGID_00000003073085469907418630000000952874012810056109_);fill:#E03822;}
	.st10{clip-path:url(#SVGID_00000067917042713140339940000001209583114989342111_);fill:#E03822;}
	.st11{clip-path:url(#SVGID_00000116225817764989664670000007973336037394500509_);fill:#E03822;}
	.st12{clip-path:url(#SVGID_00000107570582349854235350000011717398951312399758_);fill:#E03822;}
	.st13{clip-path:url(#SVGID_00000004538599319975768540000010099319918615656085_);fill:#E03822;}
	.st14{clip-path:url(#SVGID_00000180329741471284357460000015131694261443879055_);fill:#E03822;}
	.st15{clip-path:url(#SVGID_00000096052273099799939560000001696931285357814699_);fill:#E03822;}
	.st16{clip-path:url(#SVGID_00000131329540875812758190000006227880361511540369_);fill:#E03822;}
	.st17{clip-path:url(#SVGID_00000093895832714521634960000015376015510824613273_);fill:#E03822;}
	.st18{clip-path:url(#SVGID_00000062184123507033318550000016647061056642106539_);fill:#E03822;}
	.st19{clip-path:url(#SVGID_00000168809856052625357720000008020965364902326937_);fill:#E03822;}
	.st20{clip-path:url(#SVGID_00000151526832005116694630000007921252830782907273_);fill:#E03822;}
	.st21{clip-path:url(#SVGID_00000142151843954124296570000015110403425856462230_);fill:#E03822;}
	.st22{clip-path:url(#SVGID_00000017488134031486176760000016657504879410995355_);fill:#E03822;}
	.st23{clip-path:url(#SVGID_00000152244745427252925070000006018445817057017523_);fill:#E03822;}
	.st24{clip-path:url(#SVGID_00000119836156605748285390000005236558943051765673_);fill:#E03822;}
	.st25{clip-path:url(#SVGID_00000126321021581440771000000001020904041365679550_);fill:#E03822;}
	.st26{clip-path:url(#SVGID_00000129911086733658649700000010865822597648125578_);fill:#E03822;}
	.st27{clip-path:url(#SVGID_00000054986548219430010140000014969051221885299619_);fill:#E03822;}
	.st28{clip-path:url(#SVGID_00000067229768842696371340000001046846752092216988_);fill:#E03822;}
	.st29{clip-path:url(#SVGID_00000036228598422449260580000005665702074290841005_);fill:#E03822;}
	.st30{clip-path:url(#SVGID_00000067916906380986584010000011165803021105498001_);fill:#E03822;}
	.st31{clip-path:url(#SVGID_00000129181894540185940260000016778366333219355521_);fill:#E03822;}
	.st32{clip-path:url(#SVGID_00000032651062304384856850000007940640678837961882_);fill:#E03822;}
	.st33{clip-path:url(#SVGID_00000013163088928269144020000010394900617905832854_);fill:#E03822;}
	.st34{clip-path:url(#SVGID_00000000190176190607188160000012803658811065560220_);fill:#E03822;}
	.st35{clip-path:url(#SVGID_00000173137677903310501810000014997904352493914251_);fill:#E03822;}
	.st36{clip-path:url(#SVGID_00000015313324352882605080000015879420142052103304_);fill:#E03822;}
	.st37{clip-path:url(#SVGID_00000042695497705932540290000006889285472458539667_);fill:#E03822;}
	.st38{clip-path:url(#SVGID_00000183236055519776355190000000086129373643478408_);fill:#E03822;}
	.st39{clip-path:url(#SVGID_00000116954946112280118030000010640979319393244086_);fill:#E03822;}
	.st40{clip-path:url(#SVGID_00000152232639682261478310000011848070573934434966_);fill:#E03822;}
	.st41{clip-path:url(#SVGID_00000079482409685117525340000016670018781393050255_);fill:#E03822;}
	.st42{clip-path:url(#SVGID_00000128477059862125421990000015122637247902678692_);fill:#E03822;}
	.st43{clip-path:url(#SVGID_00000145770626299127584170000008415436759906854306_);fill:#E03822;}
</style>
<g id="layer1" transform="translate(-146.18365,-173.97595)">
	<g>
		<defs>
			<rect id="SVGID_1_" x="-287" y="-515.9" width="1207.6" height="858.9"/>
		</defs>
		<clipPath id="SVGID_00000018940314731212683730000005700473948058649474_">
			<use xlink:href="#SVGID_1_"  style="overflow:visible;"/>
		</clipPath>
		<path id="path3399" style="clip-path:url(#SVGID_00000018940314731212683730000005700473948058649474_);fill:#E03822;" d="
			M165.8,203.4c-2.3,0-4.4-0.8-6.1-2.1h12.1C170.2,202.6,168.1,203.4,165.8,203.4 M159,200.6c-1.9-1.8-3-4.3-3-7.1
			c0-5.4,4.4-9.9,9.9-9.9c5.4,0,9.8,4.4,9.8,9.9c0,2.8-1.2,5.3-3,7.1H159z M169.5,203.9c0.4-0.1,0.8-0.3,1.2-0.5l0.7,1.2l1.4-0.8
			l-0.7-1.2c0.2-0.1,0.4-0.3,0.6-0.5l1,1l1.1-1.1l-0.9-1c0.3-0.3,0.6-0.7,0.8-1l1.2,0.7l0.8-1.4l-1.1-0.7c0.2-0.4,0.4-0.8,0.6-1.2
			l1.3,0.4l0.5-1.5l-1.3-0.4c0.1-0.3,0.1-0.7,0.2-1c0-0.1,0-0.2,0-0.3l1.4,0l0-1.6l-1.4,0c0-0.5-0.1-1-0.2-1.5l1.4-0.3l-0.4-1.5
			l-1.4,0.4c-0.1-0.4-0.3-0.8-0.5-1.2l1.2-0.7l-0.8-1.4l-1.2,0.7c-0.2-0.4-0.5-0.7-0.8-1l1-1l-1.1-1.1l-1,1c-0.3-0.3-0.7-0.6-1-0.8
			l0.7-1.2l-1.4-0.8l-0.7,1.2c-0.4-0.2-0.8-0.4-1.1-0.5l0.4-1.3l-1.5-0.4l-0.4,1.3c-0.4-0.1-0.9-0.2-1.3-0.2l0-1.3l-1.6,0l0,1.3
			c-0.5,0-0.9,0.1-1.3,0.2l-0.3-1.3l-1.5,0.4l0.3,1.4c-0.4,0.1-0.8,0.3-1.2,0.5l-0.7-1.2l-1.4,0.7l0.7,1.3c-0.1,0.1-0.2,0.2-0.4,0.3
			c-0.3,0.2-0.5,0.4-0.8,0.6l-1-1l-0.9,0.9c-0.1,0.1-0.1,0.1-0.2,0.2l1,1c-0.3,0.3-0.5,0.7-0.8,1l-1.2-0.7c-0.3,0.4-0.5,0.9-0.8,1.4
			l1.2,0.7c-0.2,0.4-0.3,0.8-0.5,1.2l-1.3-0.4c-0.2,0.5-0.3,1-0.4,1.5l1.3,0.3c-0.1,0.4-0.1,0.8-0.2,1.3h-1.4c0,0.2,0,0.5,0,0.7
			c0,0.3,0,0.6,0,0.9h1.4c0,0.3,0.1,0.6,0.1,0.9c0,0,0,0.1,0,0.1l-1.3,0.3c0,0,0,0,0,0.1l0.3,1.3c0,0,0,0.1,0.1,0.2l1.3-0.3
			c0.1,0.4,0.3,0.8,0.5,1.2l-1.2,0.7l0.8,1.4l1.2-0.7c0.2,0.4,0.5,0.7,0.8,1l-1,1l1.1,1.1l1-1c0.2,0.2,0.4,0.3,0.6,0.5
			c0.1,0.1,0.3,0.2,0.4,0.3l-0.7,1.2l1.4,0.8l0.8-1.2c0.5,0.2,0.9,0.4,1.4,0.6l-0.3,1.3l1.5,0.4l0.3-1.3c0.4,0.1,0.9,0.1,1.3,0.2
			v1.4h1.6v-1.4c0.4,0,0.9-0.1,1.3-0.2l0.4,1.3l1.5-0.4L169.5,203.9z"/>
	</g>
	<g>
		<defs>
			<rect id="SVGID_00000091714569040090183330000018323558524956219778_" x="-287" y="-515.9" width="1207.6" height="858.9"/>
		</defs>
		<clipPath id="SVGID_00000088121850980207685510000010233269072679009977_">
			<use xlink:href="#SVGID_00000091714569040090183330000018323558524956219778_"  style="overflow:visible;"/>
		</clipPath>
		<path id="path3401" style="clip-path:url(#SVGID_00000088121850980207685510000010233269072679009977_);fill:#E03822;" d="
			M162.2,198h7.5v-0.6h-7.5V198z"/>
	</g>
	<g>
		<defs>
			<rect id="SVGID_00000022549734374888229760000016905598143036720021_" x="-287" y="-515.9" width="1207.6" height="858.9"/>
		</defs>
		<clipPath id="SVGID_00000111181946513001192750000002507585958745161629_">
			<use xlink:href="#SVGID_00000022549734374888229760000016905598143036720021_"  style="overflow:visible;"/>
		</clipPath>
		<path id="path3403" style="clip-path:url(#SVGID_00000111181946513001192750000002507585958745161629_);fill:#E03822;" d="
			M166.8,199.3c0.1,0,0.2-0.1,0.2-0.2c0-0.1-0.1-0.2-0.2-0.2c-0.1,0-0.2,0.1-0.2,0.2C166.6,199.2,166.7,199.3,166.8,199.3"/>
	</g>
	<g>
		<defs>
			<rect id="SVGID_00000100347868151639151770000003062133622550330006_" x="-287" y="-515.9" width="1207.6" height="858.9"/>
		</defs>
		<clipPath id="SVGID_00000072973248163765219280000008119667049595257223_">
			<use xlink:href="#SVGID_00000100347868151639151770000003062133622550330006_"  style="overflow:visible;"/>
		</clipPath>
		<path id="path3405" style="clip-path:url(#SVGID_00000072973248163765219280000008119667049595257223_);fill:#E03822;" d="
			M165.2,199.2c0.1,0,0.2-0.1,0.2-0.2c0-0.1-0.1-0.2-0.2-0.2s-0.2,0.1-0.2,0.2C165,199.1,165.1,199.2,165.2,199.2"/>
	</g>
	<g>
		<defs>
			<rect id="SVGID_00000054235243720905552500000016236862149350094003_" x="-287" y="-515.9" width="1207.6" height="858.9"/>
		</defs>
		<clipPath id="SVGID_00000079484725892450015350000007406108233905109418_">
			<use xlink:href="#SVGID_00000054235243720905552500000016236862149350094003_"  style="overflow:visible;"/>
		</clipPath>
		<path id="path3407" style="clip-path:url(#SVGID_00000079484725892450015350000007406108233905109418_);fill:#E03822;" d="
			M165.3,199.8c0.1,0,0.2-0.1,0.2-0.2c0-0.1-0.1-0.2-0.2-0.2c-0.1,0-0.2,0.1-0.2,0.2C165,199.8,165.1,199.8,165.3,199.8"/>
	</g>
	<g>
		<defs>
			<rect id="SVGID_00000078002613240806531930000002985998835982917046_" x="-287" y="-515.9" width="1207.6" height="858.9"/>
		</defs>
		<clipPath id="SVGID_00000088130565936658874120000004383237345003316404_">
			<use xlink:href="#SVGID_00000078002613240806531930000002985998835982917046_"  style="overflow:visible;"/>
		</clipPath>
		<path id="path3409" style="clip-path:url(#SVGID_00000088130565936658874120000004383237345003316404_);fill:#E03822;" d="
			M168.5,199.8c0.1,0,0.2-0.1,0.2-0.2c0-0.1-0.1-0.2-0.2-0.2s-0.2,0.1-0.2,0.2C168.3,199.8,168.3,199.8,168.5,199.8"/>
	</g>
	<g>
		<defs>
			<rect id="SVGID_00000145017221592992801290000004971760611204179110_" x="-287" y="-515.9" width="1207.6" height="858.9"/>
		</defs>
		<clipPath id="SVGID_00000170255600864617608800000015097862175541956790_">
			<use xlink:href="#SVGID_00000145017221592992801290000004971760611204179110_"  style="overflow:visible;"/>
		</clipPath>
		<path id="path3411" style="clip-path:url(#SVGID_00000170255600864617608800000015097862175541956790_);fill:#E03822;" d="
			M163,198.9c0.3,0,0.4-0.1,0.5-0.4h0.3v1.6h-0.4v-0.9H163V198.9z M164.6,199c0-0.3,0.2-0.4,0.7-0.5c0.4,0,0.6,0.2,0.6,0.4
			c0,0.2-0.1,0.3-0.2,0.3c0.2,0.1,0.3,0.2,0.3,0.4c0,0.3-0.2,0.5-0.7,0.5c-0.4,0-0.7-0.2-0.7-0.5c0-0.2,0.1-0.3,0.3-0.3
			C164.6,199.2,164.6,199.1,164.6,199 M166.8,198.5c0.5,0,0.7,0.3,0.7,0.8c0,0.5-0.2,0.8-0.7,0.8c-0.4,0-0.6-0.1-0.6-0.4l0.4,0
			c0,0.1,0.1,0.1,0.2,0.1c0.2,0,0.2-0.1,0.2-0.4c-0.1,0.1-0.2,0.1-0.4,0.1c-0.3,0-0.5-0.2-0.5-0.5
			C166.1,198.7,166.4,198.6,166.8,198.5 M168.5,198.5c0.4,0,0.6,0.1,0.6,0.4l-0.4,0c0-0.1-0.1-0.1-0.2-0.1c-0.2,0-0.2,0.1-0.2,0.4
			c0.1-0.1,0.2-0.1,0.4-0.1c0.3,0,0.5,0.2,0.5,0.5c0,0.3-0.2,0.5-0.6,0.5c-0.5,0-0.7-0.3-0.7-0.8C167.8,198.8,168,198.6,168.5,198.5
			 M161,200.4h10v-2.2h-10V200.4z"/>
	</g>
	<g>
		<defs>
			<rect id="SVGID_00000165913065810744639860000015721768217925542833_" x="-287" y="-515.9" width="1207.6" height="858.9"/>
		</defs>
		<clipPath id="SVGID_00000010311697379828248990000004395853885090275479_">
			<use xlink:href="#SVGID_00000165913065810744639860000015721768217925542833_"  style="overflow:visible;"/>
		</clipPath>
		<path id="path3413" style="clip-path:url(#SVGID_00000010311697379828248990000004395853885090275479_);fill:#E03822;" d="
			M166.7,190.8h0.1v-0.2v-1.3v-3.3c0-0.1-0.1-0.2-0.1-0.2H166c-0.1,0-0.1,0.1-0.1,0.2v3.3v1.3v0.2h0.1H166.7z"/>
	</g>
	<g>
		<defs>
			<rect id="SVGID_00000155106342846128182610000000207365644356464775_" x="-287" y="-515.9" width="1207.6" height="858.9"/>
		</defs>
		<clipPath id="SVGID_00000086691658617748799010000017610187338788797831_">
			<use xlink:href="#SVGID_00000155106342846128182610000000207365644356464775_"  style="overflow:visible;"/>
		</clipPath>
		<path id="path3415" style="clip-path:url(#SVGID_00000086691658617748799010000017610187338788797831_);fill:#E03822;" d="
			M165.2,188.6L165.2,188.6l-0.1-0.6h0.1V188.6z M165.6,188c0-0.1-0.1-0.1-0.1-0.1h-2.4h-0.9h-0.1v0.1v0.6v0.1h0.1h0h0.9h2.4
			c0.1,0,0.1-0.1,0.1-0.1V188z"/>
	</g>
	<g>
		<defs>
			<rect id="SVGID_00000163769499073123603570000008865386922181755568_" x="-287" y="-515.9" width="1207.6" height="858.9"/>
		</defs>
		<clipPath id="SVGID_00000091697905976144387790000004857445920286756020_">
			<use xlink:href="#SVGID_00000163769499073123603570000008865386922181755568_"  style="overflow:visible;"/>
		</clipPath>
		<path id="path3417" style="clip-path:url(#SVGID_00000091697905976144387790000004857445920286756020_);fill:#E03822;" d="
			M165.2,189.6L165.2,189.6l-0.1-0.6h0.1V189.6z M165.6,189c0-0.1-0.1-0.1-0.1-0.1h-2.4h-0.9h-0.1v0.1v0.6v0.1h0.1h0h0.9h2.4
			c0.1,0,0.1-0.1,0.1-0.1V189z"/>
	</g>
	<g>
		<defs>
			<rect id="SVGID_00000114040106345991150320000015464794720172866183_" x="-287" y="-515.9" width="1207.6" height="858.9"/>
		</defs>
		<clipPath id="SVGID_00000053537577617136513060000013495310769036429224_">
			<use xlink:href="#SVGID_00000114040106345991150320000015464794720172866183_"  style="overflow:visible;"/>
		</clipPath>
		<path id="path3419" style="clip-path:url(#SVGID_00000053537577617136513060000013495310769036429224_);fill:#E03822;" d="
			M165.2,190.7L165.2,190.7l-0.1-0.7h0.1V190.7z M163.1,189.9h-0.9h-0.1v0.1v0.6v0.1h0.1h0h0.9h2.4c0.1,0,0.1-0.1,0.1-0.1V190
			c0-0.1-0.1-0.1-0.1-0.1H163.1z"/>
	</g>
	<g>
		<defs>
			<rect id="SVGID_00000012468478989800166000000001387633618775451808_" x="-287" y="-515.9" width="1207.6" height="858.9"/>
		</defs>
		<clipPath id="SVGID_00000116208610749651429070000014158896749439653289_">
			<use xlink:href="#SVGID_00000012468478989800166000000001387633618775451808_"  style="overflow:visible;"/>
		</clipPath>
		<path id="path3421" style="clip-path:url(#SVGID_00000116208610749651429070000014158896749439653289_);fill:#E03822;" d="
			M165.2,186.9c0.1,0,0.1,0.1,0.1,0.2c0,0.3-0.3,0.4-0.4,0.4c0.1-0.1,0.2-0.1,0.2-0.3C164.8,187.2,164.9,186.9,165.2,186.9
			 M164.7,187.4C164.7,187.4,164.7,187.5,164.7,187.4l-1.7,0.1v0.1h2.2c0.3,0,0.5-0.2,0.5-0.5c0-0.3-0.2-0.5-0.5-0.5
			c-0.2,0-0.4,0.1-0.5,0.3c-1.2-0.1-1.6-0.2-3.1,0.1c-0.1,0.2-0.3,0.8-0.3,0.8C161.6,187.8,162.6,187.3,164.7,187.4"/>
	</g>
	<g>
		<defs>
			<rect id="SVGID_00000119082726794270984790000013058083220504724141_" x="-287" y="-515.9" width="1207.6" height="858.9"/>
		</defs>
		<clipPath id="SVGID_00000080927291487000301330000002117231180539216284_">
			<use xlink:href="#SVGID_00000119082726794270984790000013058083220504724141_"  style="overflow:visible;"/>
		</clipPath>
		<path id="path3423" style="clip-path:url(#SVGID_00000080927291487000301330000002117231180539216284_);fill:#E03822;" d="
			M172.9,196.1c0,0.1-0.1,0.2-0.1,0.2h-0.3c-0.1,0-0.1-0.1-0.1-0.2v-0.8c0-0.1,0.1-0.2,0.1-0.2h0.3c0.1,0,0.1,0.1,0.1,0.2V196.1z
			 M172.5,194.1c-0.1,0-0.1-0.1-0.1-0.2v-0.8c0-0.1,0.1-0.2,0.1-0.2h0.3c0.1,0,0.1,0.1,0.1,0.2v0.8c0,0.1-0.1,0.2-0.1,0.2H172.5z
			 M173.2,196.3v-1c0-0.1-0.1-0.2-0.2-0.2h-0.2v-0.7h0.2c0.1,0,0.2-0.1,0.2-0.2v-1c0-0.1-0.1-0.2-0.2-0.2h-0.2v-0.7
			c0.1,0,0.2-0.1,0.2-0.2v-0.3c0.2-0.2,0.3-0.3,0.5-0.5H173V191c0-0.1-0.1-0.2-0.3-0.2h-0.2c-0.2,0-0.3,0.1-0.3,0.2v0.1h-1.8l0,0
			l0.5-0.3l0.1-0.1l-0.1-0.1l-0.7-1l-1.8-2.5c-0.1-0.1-0.1-0.1-0.2-0.1l-0.4,0.2v-0.9c0-0.1-0.1-0.2-0.1-0.2h-0.5
			c-0.1,0-0.1,0.1-0.1,0.2v3.1v1.2v0.2h0.1h0.5h0.1v-0.2v-1.2v-1.8l1.7,2.4l0.7,1l0,0.1h-0.8c0,0.7,0,1.5,0,2.2
			c1.4-0.3,2.2-0.7,2.9-1.2c0,0,0.1,0,0.1,0h0v0.7h-0.2c-0.1,0-0.2,0.1-0.2,0.2v1c0,0.1,0.1,0.2,0.2,0.2h0.2v0.7h-0.2
			c-0.1,0-0.2,0.1-0.2,0.2v1c0,0.1,0.1,0.2,0.2,0.2h0.6C173.1,196.5,173.2,196.4,173.2,196.3"/>
	</g>
	<g>
		<defs>
			<rect id="SVGID_00000109750681851497155260000003534796604560227244_" x="-287" y="-515.9" width="1207.6" height="858.9"/>
		</defs>
		<clipPath id="SVGID_00000148661981950477847600000008695145494949844886_">
			<use xlink:href="#SVGID_00000109750681851497155260000003534796604560227244_"  style="overflow:visible;"/>
		</clipPath>
		<path id="path3425" style="clip-path:url(#SVGID_00000148661981950477847600000008695145494949844886_);fill:#E03822;" d="
			M160.7,199.5l-0.8-0.3l2.7-7.4c0-0.1,0-0.2-0.1-0.2l-0.1,0c-0.1,0-0.2,0-0.2,0.1l-2.6,7.4l-0.8-0.4c-0.1-0.1-0.3,0-0.3,0.1
			l-0.3,0.7c-0.1,0.1,0,0.3,0.1,0.3l1.9,0.9c0.1,0.1,0.3,0,0.3-0.1l0.3-0.7C160.8,199.7,160.8,199.6,160.7,199.5"/>
	</g>
	<g>
		<defs>
			<rect id="SVGID_00000067216907005963311890000000870014600778201009_" x="-287" y="-515.9" width="1207.6" height="858.9"/>
		</defs>
		<clipPath id="SVGID_00000170998433399569890040000008703983873047224989_">
			<use xlink:href="#SVGID_00000067216907005963311890000000870014600778201009_"  style="overflow:visible;"/>
		</clipPath>
		<path id="path3427" style="clip-path:url(#SVGID_00000170998433399569890040000008703983873047224989_);fill:#E03822;" d="
			M161.4,193.1c0.2-0.6,0.5-1.3,0.7-1.8c0.3-0.2,0.4-0.1,0.5,0.2l-0.4,1.9c0.2,0.1,0.4,0.2,0.6,0.3c1.6,0.6,1,3.2-0.2,3.4h6.7
			c-1.2-0.5-2.3-3.3-0.2-3.6c0-0.3,0.1-1,0-2.5H160l0,1.9C160.5,193,161,193,161.4,193.1"/>
	</g>
	<g>
		<defs>
			<rect id="SVGID_00000088113851217210883230000001308689735664601255_" x="-287" y="-515.9" width="1207.6" height="858.9"/>
		</defs>
		<clipPath id="SVGID_00000132073427003513388700000012968806966708247172_">
			<use xlink:href="#SVGID_00000088113851217210883230000001308689735664601255_"  style="overflow:visible;"/>
		</clipPath>
		<path id="path3429" style="clip-path:url(#SVGID_00000132073427003513388700000012968806966708247172_);fill:#E03822;" d="
			M183.4,193.5c0,4.9-2,9.3-5.2,12.4c-3.2,3.2-7.6,5.2-12.4,5.2c-4.9,0-9.3-2-12.4-5.2c-3.2-3.2-5.2-7.6-5.2-12.4v0
			c0-4.9,2-9.3,5.2-12.4c3.2-3.2,7.6-5.2,12.4-5.2c4.9,0,9.3,2,12.4,5.2C181.4,184.3,183.4,188.7,183.4,193.5L183.4,193.5z
			 M165.7,175.5c-5,0-9.5,2-12.7,5.3c-3.3,3.3-5.3,7.8-5.3,12.7v0c0,5,2,9.5,5.3,12.7c3.3,3.3,7.8,5.3,12.7,5.3c5,0,9.5-2,12.7-5.3
			c3.3-3.3,5.3-7.8,5.3-12.7v0c0-5-2-9.5-5.3-12.7C175.2,177.5,170.7,175.5,165.7,175.5"/>
	</g>
	<g>
		<defs>
			<rect id="SVGID_00000124133800190714545740000011562752717946176160_" x="-287" y="-515.9" width="1207.6" height="858.9"/>
		</defs>
		<clipPath id="SVGID_00000016753408792090411290000010827464383969209999_">
			<use xlink:href="#SVGID_00000124133800190714545740000011562752717946176160_"  style="overflow:visible;"/>
		</clipPath>
		<path id="path3431" style="clip-path:url(#SVGID_00000016753408792090411290000010827464383969209999_);fill:#E03822;" d="
			M184.5,193.5c0,5.2-2.1,9.9-5.5,13.3c-3.4,3.4-8.1,5.5-13.2,5.5c-5.2,0-9.9-2.1-13.3-5.5c-3.4-3.4-5.5-8.1-5.5-13.3v0
			c0-5.2,2.1-9.8,5.5-13.3c3.4-3.4,8.1-5.5,13.3-5.5c5.2,0,9.9,2.1,13.2,5.5C182.4,183.7,184.5,188.4,184.5,193.5L184.5,193.5z
			 M185.3,193.5c0-5.4-2.2-10.3-5.7-13.8c-3.5-3.6-8.4-5.7-13.8-5.7c-5.4,0-10.3,2.2-13.8,5.7c-3.5,3.5-5.7,8.4-5.7,13.8v0
			c0,5.4,2.2,10.3,5.7,13.8c3.5,3.6,8.4,5.7,13.8,5.7c5.4,0,10.3-2.2,13.8-5.7C183.1,203.8,185.3,198.9,185.3,193.5L185.3,193.5
			L185.3,193.5L185.3,193.5z"/>
	</g>
	<g>
		<defs>
			<rect id="SVGID_00000029003463861332185660000009470643000372965027_" x="-287" y="-515.9" width="1207.6" height="858.9"/>
		</defs>
		<clipPath id="SVGID_00000083051473068554431650000010834776735410700991_">
			<use xlink:href="#SVGID_00000029003463861332185660000009470643000372965027_"  style="overflow:visible;"/>
		</clipPath>
		<path id="path3433" style="clip-path:url(#SVGID_00000083051473068554431650000010834776735410700991_);fill:#E03822;" d="
			M161.2,207.8L161.2,207.8l0.1-0.5l-1.5-0.6l0,0l-0.3,0.4l0.1,0.1l0,0c0.2-0.2,0.3-0.2,0.3-0.2c0.1,0,0.2,0,0.3,0.1
			c0.1,0,0.1,0.1,0.1,0.1c0,0,0,0,0,0.1l-0.6,1.6c0,0,0,0-0.1,0h0l0,0c0,0,0,0-0.1,0c0,0,0,0,0,0l-0.2-0.1l0,0.1l0.9,0.4l0,0l0-0.1
			l-0.2-0.1c0,0,0,0-0.1,0c0,0,0,0,0,0c0,0,0-0.1,0-0.1l0.6-1.6c0-0.1,0.1-0.1,0.1-0.1c0,0,0.1,0,0.2,0.1c0.2,0.1,0.2,0.1,0.3,0.2
			C161.2,207.5,161.2,207.6,161.2,207.8L161.2,207.8z"/>
	</g>
	<g>
		<defs>
			<rect id="SVGID_00000109729196946626291550000002937606545296957103_" x="-287" y="-515.9" width="1207.6" height="858.9"/>
		</defs>
		<clipPath id="SVGID_00000042710062364877616080000013842845082355682485_">
			<use xlink:href="#SVGID_00000109729196946626291550000002937606545296957103_"  style="overflow:visible;"/>
		</clipPath>
		<path id="path3435" style="clip-path:url(#SVGID_00000042710062364877616080000013842845082355682485_);fill:#E03822;" d="
			M177.7,204.2L177.7,204.2c0.1,0.2,0.1,0.3,0,0.4c0,0.1-0.1,0.3-0.2,0.4l-0.3,0.3c0,0,0,0-0.1,0c0,0,0,0,0,0c0,0-0.1,0-0.1,0
			l-0.7-0.6l0.3-0.4c0.1-0.1,0.2-0.1,0.2-0.1c0.1,0,0.1,0,0.2,0.1l0,0.1l0.1-0.1l-0.5-0.5l-0.1,0.1l0,0c0.1,0.1,0.1,0.1,0.1,0.2
			c0,0.1,0,0.1-0.1,0.2l-0.3,0.4l-0.5-0.5l0,0c0,0,0,0,0-0.1c0,0,0-0.1,0.1-0.1l0.3-0.4c0.1-0.1,0.2-0.2,0.3-0.2c0.1,0,0.3,0,0.4,0
			l0,0l0.1-0.1l-0.4-0.1l-1.1,1.2l0,0l-0.5,0.4l0.1,0.1l0-0.1c0.1,0,0.1-0.1,0.1,0l0,0c0,0,0.1,0,0.1,0.1l0.4,1.4l0,0l-1.2-0.8
			c0,0-0.1-0.1-0.1-0.1c0,0,0-0.1,0.1-0.1l0.1,0l-0.1-0.1l-0.6,0.5l0.1,0.1l0.1-0.1c0.1,0,0.1,0,0.1,0c0,0,0.1,0,0.1,0.1l1.7,1l0,0
			l0.1-0.1l-0.6-1.9c0-0.1,0-0.1,0-0.2c0,0,0,0,0-0.1l0,0l0.1-0.1c0,0,0.1-0.1,0.1-0.1h0l0,0c0,0,0,0,0.1,0l1.3,1.2c0,0,0,0.1,0,0.1
			l0,0c0,0,0,0.1-0.1,0.1l-0.1,0.1l0.1,0.1l1.2-1.3l0,0L177.7,204.2L177.7,204.2z"/>
	</g>
	<g>
		<defs>
			<rect id="SVGID_00000168117716509194673000000003781144437494302084_" x="-287" y="-515.9" width="1207.6" height="858.9"/>
		</defs>
		<clipPath id="SVGID_00000033335385788474898360000014260145326367411599_">
			<use xlink:href="#SVGID_00000168117716509194673000000003781144437494302084_"  style="overflow:visible;"/>
		</clipPath>
		<path id="path3437" style="clip-path:url(#SVGID_00000033335385788474898360000014260145326367411599_);fill:#E03822;" d="
			M174.3,207.6C174.2,207.6,174.2,207.7,174.3,207.6c-0.1,0-0.2,0-0.2,0l-0.9-1.5c0,0,0-0.1,0-0.1l0,0c0,0,0-0.1,0.1-0.1l0.3-0.2
			l0,0l0-0.1l-1.2,0.7l0,0l0.1,0.1l0.4-0.2c0,0,0.1,0,0.1,0c0,0,0,0,0.1,0l0.9,1.5c0,0,0,0.1,0,0.1c0,0,0,0.1-0.1,0.1l-0.4,0.2
			l0,0.1l1.2-0.7l0,0l-0.1-0.1L174.3,207.6z"/>
	</g>
	<g>
		<defs>
			<rect id="SVGID_00000066504727063115564830000008634937621344659849_" x="-287" y="-515.9" width="1207.6" height="858.9"/>
		</defs>
		<clipPath id="SVGID_00000072244323258865547180000017222422476211534225_">
			<use xlink:href="#SVGID_00000066504727063115564830000008634937621344659849_"  style="overflow:visible;"/>
		</clipPath>
		<path id="path3439" style="clip-path:url(#SVGID_00000072244323258865547180000017222422476211534225_);fill:#E03822;" d="
			M172.1,206.6C172.2,206.6,172.2,206.6,172.1,206.6l0.2-0.1l0-0.1l-0.7,0.3l0,0.1l0.1,0c0.1,0,0.1,0,0.1,0c0,0,0,0,0.1,0.1l0.5,1.3
			l0,0l-1.7-1l0,0l-0.4,0.2l-0.6,0.2l0,0.1l0.1,0c0.1,0,0.1,0,0.1,0c0,0,0,0,0.1,0.1l0.4,1.4c0,0.1,0,0.2-0.1,0.3
			c-0.1,0.1-0.2,0.2-0.4,0.2c-0.1,0-0.3,0-0.4,0c-0.1,0-0.2-0.1-0.2-0.3l-0.4-1.4c0,0,0-0.1,0-0.1l0,0c0,0,0.1,0,0.1-0.1l0.1,0
			l0-0.1l-0.7,0.2l0,0l0,0.1l0.1,0c0.1,0,0.1,0,0.1,0l0,0h0c0,0,0,0,0.1,0.1l0.4,1.4c0.1,0.2,0.2,0.3,0.3,0.3c0.1,0,0.2,0,0.2,0
			c0.1,0,0.2,0,0.3,0c0.2-0.1,0.3-0.2,0.5-0.3c0.1-0.1,0.2-0.3,0.1-0.4l-0.4-1.4c0,0,0-0.1,0-0.1l0,0l0,0c0,0,0.1,0,0.1-0.1l0.1,0
			l0,0c0,0,0.1,0,0.1,0c0,0,0,0,0.1,0.1l0.7,1.6c0,0,0,0.1,0,0.1l0,0c0,0,0,0-0.1,0.1l-0.1,0l0,0.1l0.7-0.3l0-0.1l-0.1,0.1
			c0,0-0.1,0-0.1,0h0c0,0-0.1,0-0.1,0l-0.6-1.5h0l1.9,1.2l0,0l0.1-0.1L172.1,206.6C172.1,206.7,172.1,206.6,172.1,206.6"/>
	</g>
	<g>
		<defs>
			<rect id="SVGID_00000122704588895479028460000002296125816241662860_" x="-287" y="-515.9" width="1207.6" height="858.9"/>
		</defs>
		<clipPath id="SVGID_00000036252269024862196470000008207528693980874627_">
			<use xlink:href="#SVGID_00000122704588895479028460000002296125816241662860_"  style="overflow:visible;"/>
		</clipPath>
		<path id="path3441" style="clip-path:url(#SVGID_00000036252269024862196470000008207528693980874627_);fill:#E03822;" d="
			M180,200.7c-0.1-0.1-0.3-0.1-0.4,0c-0.2,0.1-0.3,0.2-0.5,0.4c-0.3,0.3-0.4,0.4-0.5,0.4c-0.1,0-0.1,0-0.2,0
			c-0.1-0.1-0.1-0.1-0.2-0.2c0-0.1,0-0.2,0.1-0.5c0.1-0.2,0.2-0.3,0.3-0.3c0.1-0.1,0.3-0.1,0.5-0.1h0l0-0.1l-0.5-0.2l0,0
			c0,0,0,0.1,0,0.1c0,0,0,0.1,0,0.1c0,0,0,0-0.1,0.1c0,0,0,0.1-0.1,0.1c-0.1,0.1-0.2,0.2-0.2,0.3c-0.2,0.3-0.2,0.5-0.2,0.6
			c0,0.2,0.1,0.3,0.2,0.4c0.1,0.1,0.3,0.1,0.4,0c0.1-0.1,0.3-0.2,0.5-0.4v0c0.2-0.2,0.3-0.3,0.4-0.3c0.1-0.1,0.2-0.1,0.3,0
			c0.1,0.1,0.2,0.2,0.2,0.3c0,0.1,0,0.3-0.1,0.4c-0.1,0.2-0.2,0.3-0.3,0.4c-0.1,0.1-0.3,0.1-0.5,0.1l0,0l0,0.1l0.6,0.2v-0.1
			c0,0,0-0.1,0-0.1c0,0,0,0,0,0c0,0,0.1-0.1,0.2-0.2c0.1-0.1,0.1-0.1,0.2-0.3c0.1-0.3,0.2-0.5,0.2-0.6
			C180.2,200.9,180.1,200.8,180,200.7"/>
	</g>
	<g>
		<defs>
			<rect id="SVGID_00000173123896351392906430000012232818803530759600_" x="-287" y="-515.9" width="1207.6" height="858.9"/>
		</defs>
		<clipPath id="SVGID_00000019653170809141742040000012083902010830172335_">
			<use xlink:href="#SVGID_00000173123896351392906430000012232818803530759600_"  style="overflow:visible;"/>
		</clipPath>
		<path id="path3443" style="clip-path:url(#SVGID_00000019653170809141742040000012083902010830172335_);fill:#E03822;" d="
			M178.1,202.5c0,0.1-0.1,0.3-0.2,0.4l-0.2,0.3l-0.6-0.5c0,0,0,0,0-0.1c0,0,0,0,0-0.1c0,0,0,0,0,0l0.1-0.1c0.1-0.2,0.3-0.3,0.4-0.3
			c0,0,0.1,0,0.1,0c0.1,0,0.2,0,0.2,0.1C178.1,202.2,178.2,202.3,178.1,202.5 M179.4,202.8L179.4,202.8
			C179.4,202.8,179.4,202.8,179.4,202.8c-0.1,0.1-0.1,0.1-0.2,0.1l-1-0.1c0.1-0.1,0.1-0.3,0.1-0.4c0-0.2-0.1-0.3-0.2-0.4
			c-0.1-0.1-0.3-0.1-0.4,0c-0.2,0.1-0.3,0.2-0.5,0.4l-0.6,0.8l0,0l0.1,0.1l0.1-0.1c0,0,0.1-0.1,0.1-0.1h0c0,0,0.1,0,0.1,0l1.4,1.1
			c0,0,0,0,0,0.1c0,0,0,0.1-0.1,0.1l-0.1,0.1l0.1,0.1l0.5-0.6l0,0l-0.1-0.1l-0.1,0.1c0,0-0.1,0.1-0.1,0.1c0,0-0.1,0-0.1,0l-0.7-0.5
			l0.2-0.3l1.2,0.2l0,0l0.3-0.4L179.4,202.8L179.4,202.8z"/>
	</g>
	<g>
		<defs>
			<rect id="SVGID_00000155125856026886441020000011018920491375248304_" x="-287" y="-515.9" width="1207.6" height="858.9"/>
		</defs>
		<clipPath id="SVGID_00000013884500088201905760000007909214241785845165_">
			<use xlink:href="#SVGID_00000155125856026886441020000011018920491375248304_"  style="overflow:visible;"/>
		</clipPath>
		<path id="path3445" style="clip-path:url(#SVGID_00000013884500088201905760000007909214241785845165_);fill:#E03822;" d="
			M181,199.6C181,199.7,181,199.7,181,199.6c-0.1,0.1-0.1,0.1-0.1,0.1l-1.6-0.6c0,0-0.1,0-0.1-0.1c0,0,0-0.1,0-0.1l0.1-0.4l-0.1,0
			l-0.5,1.3l0.1,0l0.1-0.4c0,0,0-0.1,0.1-0.1c0,0,0.1,0,0.1,0l1.6,0.6c0,0,0.1,0,0.1,0.1l0,0c0,0,0,0.1,0,0.1l-0.1,0.4l0.1,0
			l0.5-1.3l0,0l-0.1,0L181,199.6z"/>
	</g>
	<g>
		<defs>
			<rect id="SVGID_00000067952615496061556240000007571031759538419079_" x="-287" y="-515.9" width="1207.6" height="858.9"/>
		</defs>
		<clipPath id="SVGID_00000114071339760837011950000003506643891590490800_">
			<use xlink:href="#SVGID_00000067952615496061556240000007571031759538419079_"  style="overflow:visible;"/>
		</clipPath>
		<path id="path3447" style="clip-path:url(#SVGID_00000114071339760837011950000003506643891590490800_);fill:#E03822;" d="
			M180.2,194.6L180.2,194.6c0,0,0-0.1,0-0.2v-0.1h-0.1l-0.1,0.7h0.1v0c0-0.1,0-0.1,0.1-0.2l0,0c0,0,0.1,0,0.1,0l0.8,0.6v0l-0.9,0.4
			c-0.1,0-0.1,0-0.1,0c0,0,0-0.1,0-0.1l0-0.1H180l-0.1,0.8l0.1,0v-0.1c0,0,0-0.1,0-0.1c0,0,0,0,0,0c0,0,0.1-0.1,0.1-0.1l1.1-0.5
			l0.6,0.1c0,0,0,0,0.1,0l0,0c0,0,0,0.1,0,0.1l0,0.2h0.1l0.1-0.9h-0.1l0,0.2c0,0.1,0,0.1,0,0.1c0,0,0,0,0,0c0,0,0,0,0,0l-0.7-0.1
			l-0.9-0.6C180.3,194.7,180.3,194.7,180.2,194.6"/>
	</g>
	<g>
		<defs>
			<rect id="SVGID_00000024683738459013142880000009818570995164862910_" x="-287" y="-515.9" width="1207.6" height="858.9"/>
		</defs>
		<clipPath id="SVGID_00000026884634042481820290000003538674077372412339_">
			<use xlink:href="#SVGID_00000024683738459013142880000009818570995164862910_"  style="overflow:visible;"/>
		</clipPath>
		<path id="path3449" style="clip-path:url(#SVGID_00000026884634042481820290000003538674077372412339_);fill:#E03822;" d="
			M162.8,208.7c-0.1,0.3-0.2,0.6-0.3,0.7c-0.2,0.1-0.3,0.2-0.5,0.1c-0.2,0-0.3-0.2-0.4-0.3c-0.1-0.2-0.1-0.4,0-0.8l0,0
			c0.1-0.3,0.2-0.6,0.3-0.7c0.1-0.1,0.2-0.1,0.4-0.1c0,0,0.1,0,0.1,0c0.2,0.1,0.4,0.2,0.4,0.4C162.9,208.2,162.8,208.5,162.8,208.7
			 M163.1,208.8c0.1-0.3,0-0.6-0.1-0.8c-0.1-0.2-0.3-0.4-0.6-0.5c-0.3-0.1-0.5,0-0.8,0.1c-0.2,0.1-0.4,0.4-0.4,0.7
			c-0.1,0.3,0,0.6,0.1,0.8c0.1,0.2,0.3,0.4,0.6,0.5c0.1,0,0.2,0,0.2,0c0.2,0,0.4-0.1,0.5-0.2C162.9,209.4,163,209.1,163.1,208.8z"/>
	</g>
	<g>
		<defs>
			<rect id="SVGID_00000088090643876229154060000005074472970017033875_" x="-287" y="-515.9" width="1207.6" height="858.9"/>
		</defs>
		<clipPath id="SVGID_00000042696660884072695030000003869225413810599095_">
			<use xlink:href="#SVGID_00000088090643876229154060000005074472970017033875_"  style="overflow:visible;"/>
		</clipPath>
		<path id="path3451" style="clip-path:url(#SVGID_00000042696660884072695030000003869225413810599095_);fill:#E03822;" d="
			M181.7,197.7C181.7,197.8,181.6,197.8,181.7,197.7c0,0.1-0.1,0.1-0.1,0.1c0,0,0,0-0.1,0l-1.6-0.5c-0.1,0-0.1,0-0.1,0v0l0,0
			c0,0,0,0,0-0.2c0.1-0.2,0.1-0.3,0.2-0.3c0.1,0,0.2-0.1,0.4-0.1l0,0l0-0.1l-0.5,0h0l-0.5,1.6l0.4,0.3l0-0.1l0,0
			c-0.1-0.1-0.2-0.2-0.2-0.3c0-0.1,0-0.2,0-0.3c0-0.1,0-0.1,0.1-0.1c0,0,0,0,0.1,0l1.7,0.5c0,0,0,0,0.1,0.1l0,0c0,0,0,0,0,0.1
			c0,0,0,0,0,0l0,0.2l0.1,0l0.2-0.9l0,0l-0.1,0L181.7,197.7z"/>
	</g>
	<g>
		<defs>
			<rect id="SVGID_00000171714887970223914850000013951011102928441227_" x="-287" y="-515.9" width="1207.6" height="858.9"/>
		</defs>
		<clipPath id="SVGID_00000006672231824629227190000001457709266610495928_">
			<use xlink:href="#SVGID_00000171714887970223914850000013951011102928441227_"  style="overflow:visible;"/>
		</clipPath>
		<path id="path3453" style="clip-path:url(#SVGID_00000006672231824629227190000001457709266610495928_);fill:#E03822;" d="
			M151,198.8l1.1,0l-0.8,0.7L151,198.8z M150.6,199.9C150.6,199.9,150.5,199.8,150.6,199.9l-0.1-0.2l-0.1,0l0.3,0.7l0,0l0.1,0l0,0
			c0,0,0-0.1,0-0.1v0c0,0,0-0.1,0.1-0.1l1.6-1.3l0,0l-0.2-0.2l-2,0c-0.1,0-0.1,0-0.1,0c0,0-0.1-0.1-0.1-0.1l0-0.1l-0.1,0l0.2,0.6
			l0.1,0l0-0.1c0-0.1,0-0.1,0-0.2c0,0,0.1-0.1,0.2-0.1l0.5,0l0.3,0.7l-0.4,0.4C150.7,199.9,150.6,199.9,150.6,199.9"/>
	</g>
	<g>
		<defs>
			<rect id="SVGID_00000181770178729623870850000012875875469144032664_" x="-287" y="-515.9" width="1207.6" height="858.9"/>
		</defs>
		<clipPath id="SVGID_00000052783269720532647650000002130810757208617662_">
			<use xlink:href="#SVGID_00000181770178729623870850000012875875469144032664_"  style="overflow:visible;"/>
		</clipPath>
		<path id="path3455" style="clip-path:url(#SVGID_00000052783269720532647650000002130810757208617662_);fill:#E03822;" d="
			M154.8,203.2C154.8,203.2,154.9,203.2,154.8,203.2l0.3,0.4l0.1-0.1l-0.9-1.2l0,0l-0.1,0.1l0.3,0.3c0.1,0.1,0.1,0.1,0.1,0.1
			c0,0,0,0.1,0,0.1l-1.4,1c-0.2,0.1-0.3,0.2-0.4,0.1c-0.1,0-0.2-0.1-0.3-0.2c0,0-0.1-0.1-0.1-0.1v0c0,0,0-0.1,0-0.1c0,0,0,0,0.1,0h0
			l0,0c0,0,0,0,0,0c0,0,0,0,0,0c0,0,0.1-0.1,0.1-0.1c0-0.1,0-0.1-0.1-0.1c0-0.1-0.1-0.1-0.1-0.1c-0.1,0-0.1,0-0.1,0
			c0,0-0.1,0.1,0,0.2c0,0.1,0.1,0.2,0.2,0.4c0.1,0.2,0.3,0.3,0.5,0.4c0.1,0,0.1,0,0.2,0c0.1,0,0.2,0,0.3-0.1L154.8,203.2
			C154.7,203.1,154.8,203.1,154.8,203.2"/>
	</g>
	<g>
		<defs>
			<rect id="SVGID_00000084529110418069521230000013106285548571439506_" x="-287" y="-515.9" width="1207.6" height="858.9"/>
		</defs>
		<clipPath id="SVGID_00000008135367051754485860000007863889878528030359_">
			<use xlink:href="#SVGID_00000084529110418069521230000013106285548571439506_"  style="overflow:visible;"/>
		</clipPath>
		<path id="path3457" style="clip-path:url(#SVGID_00000008135367051754485860000007863889878528030359_);fill:#E03822;" d="
			M153.4,201.2C153.4,201.2,153.4,201.2,153.4,201.2l0.1,0.2l0.1,0l-0.4-0.6l-0.1,0.1l0.1,0.1c0,0.1,0,0.1,0,0.1c0,0,0,0.1-0.1,0.1
			l-1.2,0.7l0,0l0.8-1.8l0,0l-0.3-0.5l-0.1,0l0.1,0.1c0,0,0,0.1,0,0.1c0,0,0,0,0,0.1l-1.5,0.9c0,0,0,0-0.1,0c0,0-0.1,0-0.1-0.1
			l-0.1-0.1l-0.1,0.1l0.4,0.6l0,0l0.1-0.1l-0.1-0.1c0,0,0-0.1,0-0.1c0,0,0-0.1,0-0.1l1.4-0.8l0,0l-0.9,2.1l0,0v0.1l0,0l0,0.1
			L153.4,201.2C153.3,201.1,153.3,201.1,153.4,201.2"/>
	</g>
	<g>
		<defs>
			<rect id="SVGID_00000145765321119127912150000000597175231811756438_" x="-287" y="-515.9" width="1207.6" height="858.9"/>
		</defs>
		<clipPath id="SVGID_00000102504477336215243150000016498658999703871132_">
			<use xlink:href="#SVGID_00000145765321119127912150000000597175231811756438_"  style="overflow:visible;"/>
		</clipPath>
		<path id="path3459" style="clip-path:url(#SVGID_00000102504477336215243150000016498658999703871132_);fill:#E03822;" d="
			M165.1,208.1c0,0,0.1,0,0.1,0l0.2,0l0-0.1l-0.7-0.1l0,0l0,0.1l0.2,0c0.1,0,0.1,0,0.1,0c0,0,0,0,0,0.1l-0.2,1.4l0,0l-0.9-1.7l0,0
			l-0.6-0.1l0,0.1l0.1,0c0.1,0,0.1,0,0.1,0l0,0l0,0c0,0,0,0,0,0.1l0,0l-0.2,1.7c0,0,0,0.1,0,0.1c0,0-0.1,0-0.1,0l-0.2,0v0.1l0.7,0.1
			l0,0l0-0.1l-0.1,0c-0.1,0-0.1,0-0.1,0c0,0,0,0,0-0.1l0.2-1.6h0l1.1,2h0l0,0l0.1,0L165.1,208.1
			C165.1,208.2,165.1,208.1,165.1,208.1L165.1,208.1z"/>
	</g>
	<g>
		<defs>
			<rect id="SVGID_00000142140755363211817330000012947494794395837575_" x="-287" y="-515.9" width="1207.6" height="858.9"/>
		</defs>
		<clipPath id="SVGID_00000098943520829295229110000008042464927702871226_">
			<use xlink:href="#SVGID_00000142140755363211817330000012947494794395837575_"  style="overflow:visible;"/>
		</clipPath>
		<path id="path3461" style="clip-path:url(#SVGID_00000098943520829295229110000008042464927702871226_);fill:#E03822;" d="
			M159,207.4c-0.2,0.3-0.3,0.5-0.5,0.6c-0.2,0.1-0.4,0.1-0.5,0c-0.2-0.1-0.3-0.2-0.3-0.4c0-0.2,0-0.4,0.2-0.8
			c0.2-0.3,0.3-0.5,0.5-0.6c0.2-0.1,0.4-0.1,0.5,0c0.2,0.1,0.3,0.3,0.3,0.5C159.2,207,159.1,207.2,159,207.4 M159.4,206.8
			c0-0.3-0.2-0.5-0.5-0.6c-0.3-0.1-0.5-0.2-0.8-0.1c-0.2,0.1-0.5,0.3-0.6,0.6c-0.2,0.3-0.2,0.6-0.1,0.8c0.1,0.3,0.2,0.5,0.5,0.6
			c0.2,0.1,0.3,0.1,0.5,0.1c0.1,0,0.2,0,0.3-0.1c0.3-0.1,0.5-0.3,0.6-0.6l0,0C159.4,207.3,159.4,207.1,159.4,206.8"/>
	</g>
	<g>
		<defs>
			<rect id="SVGID_00000059302832221115304160000013930750407478610825_" x="-287" y="-515.9" width="1207.6" height="858.9"/>
		</defs>
		<clipPath id="SVGID_00000099663728471553092280000000355886354567078789_">
			<use xlink:href="#SVGID_00000059302832221115304160000013930750407478610825_"  style="overflow:visible;"/>
		</clipPath>
		<path id="path3463" style="clip-path:url(#SVGID_00000099663728471553092280000000355886354567078789_);fill:#E03822;" d="
			M156.2,206l0.9-0.6l-0.3,1L156.2,206z M156.9,207.4C156.9,207.4,156.8,207.4,156.9,207.4C156.8,207.4,156.8,207.3,156.9,207.4
			c-0.1-0.1-0.1-0.2-0.1-0.2l0.6-1.9l0,0l-0.3-0.1l0,0l-1.7,1.1l0,0c0,0-0.1,0.1-0.1,0l0,0c0,0-0.1,0-0.1,0l0,0l-0.1,0.1l0.5,0.4
			l0.1-0.1l-0.1,0c-0.1,0-0.1-0.1-0.1-0.1c0,0,0-0.1,0.1-0.1l0.4-0.3l0.6,0.4l-0.2,0.5c0,0.1,0,0.1-0.1,0.1c0,0-0.1,0-0.1,0l-0.1,0
			l-0.1,0.1l0.6,0.5l0,0L156.9,207.4L156.9,207.4L156.9,207.4z"/>
	</g>
	<g>
		<defs>
			<rect id="SVGID_00000091731031452141514030000007191738456512092345_" x="-287" y="-515.9" width="1207.6" height="858.9"/>
		</defs>
		<clipPath id="SVGID_00000117677909515728875680000013158137945549355450_">
			<use xlink:href="#SVGID_00000091731031452141514030000007191738456512092345_"  style="overflow:visible;"/>
		</clipPath>
		<path id="path3465" style="clip-path:url(#SVGID_00000117677909515728875680000013158137945549355450_);fill:#E03822;" d="
			M154.6,205.7C154.6,205.6,154.6,205.6,154.6,205.7L154.6,205.7c-0.1-0.1,0-0.1,0-0.1l1.2-1.3l0,0c0,0,0,0,0,0c0,0,0,0,0,0
			c0,0,0.1,0,0.1,0.1l0.3,0.3l0,0l0.1-0.1l-1-1l0,0l-0.1,0.1l0.3,0.3c0,0,0.1,0.1,0.1,0.1c0,0,0,0.1,0,0.1l-1.2,1.3c0,0,0,0,0,0
			c0,0,0,0,0,0c0,0,0,0,0,0c0,0-0.1,0-0.1-0.1L154,205l0,0l-0.1,0.1l1,1l0,0l0.1-0.1L154.6,205.7
			C154.7,205.7,154.7,205.7,154.6,205.7"/>
	</g>
	<g>
		<defs>
			<rect id="SVGID_00000043439835501421686510000011127976305621797272_" x="-287" y="-515.9" width="1207.6" height="858.9"/>
		</defs>
		<clipPath id="SVGID_00000008836833010622651390000004205132544591551120_">
			<use xlink:href="#SVGID_00000043439835501421686510000011127976305621797272_"  style="overflow:visible;"/>
		</clipPath>
		<path id="path3467" style="clip-path:url(#SVGID_00000008836833010622651390000004205132544591551120_);fill:#E03822;" d="
			M166.3,209.1L166.3,209.1l0.1,0.1c0.1,0,0.1,0,0.2,0c0,0,0.1,0.1,0.1,0.1l0,0.4c0,0.1-0.1,0.1-0.1,0.2c-0.1,0-0.2,0.1-0.3,0.1
			c-0.2,0-0.4-0.1-0.5-0.3c-0.1-0.2-0.2-0.4-0.2-0.6c0-0.3,0-0.6,0.2-0.8c0.1-0.2,0.3-0.3,0.5-0.3l0,0c0.1,0,0.3,0,0.4,0.1
			c0.1,0.1,0.2,0.2,0.3,0.4l0,0l0.1,0l-0.2-0.6l0,0c0,0,0,0-0.1,0.1c0,0-0.1,0-0.1,0c0,0,0,0-0.1,0c0,0-0.1,0-0.1,0
			c-0.1,0-0.2,0-0.2,0c-0.3,0-0.5,0.1-0.7,0.4c-0.2,0.2-0.3,0.5-0.3,0.8c0,0.3,0.1,0.5,0.3,0.7c0.2,0.2,0.4,0.3,0.7,0.3
			c0,0,0,0,0.1,0c0.1,0,0.2,0,0.2,0l0,0c0.1,0,0.1,0,0.2-0.1c0,0,0,0,0,0c0,0,0,0,0,0h0.1c0,0,0,0,0.1,0l0,0l0-0.6c0,0,0-0.1,0-0.1
			c0,0,0.1,0,0.1,0h0.1v-0.1L166.3,209.1L166.3,209.1z"/>
	</g>
	<g>
		<defs>
			<rect id="SVGID_00000077318903803107093480000000467410061815472567_" x="-287" y="-515.9" width="1207.6" height="858.9"/>
		</defs>
		<clipPath id="SVGID_00000121258523314510902710000007917134836964493699_">
			<use xlink:href="#SVGID_00000077318903803107093480000000467410061815472567_"  style="overflow:visible;"/>
		</clipPath>
		<path id="path3469" style="clip-path:url(#SVGID_00000121258523314510902710000007917134836964493699_);fill:#E03822;" d="
			M152,198c-0.4,0-0.7,0.1-0.8,0.1c0,0-0.1,0-0.1,0c0,0,0,0-0.1,0c0,0,0,0,0,0c0,0,0,0,0,0.1l0,0c0,0,0,0,0.1,0h0l0.9,0.1
			c0,0,0,0,0.1,0c0,0,0.1,0,0.1,0c0,0,0,0,0-0.1c0,0,0-0.1,0-0.1C152.2,198,152.1,198,152,198"/>
	</g>
	<g>
		<defs>
			<rect id="SVGID_00000005253663342252034240000015720369807518509221_" x="-287" y="-515.9" width="1207.6" height="858.9"/>
		</defs>
		<clipPath id="SVGID_00000047039111415996657020000012354846218304355491_">
			<use xlink:href="#SVGID_00000005253663342252034240000015720369807518509221_"  style="overflow:visible;"/>
		</clipPath>
		<path id="path3471" style="clip-path:url(#SVGID_00000047039111415996657020000012354846218304355491_);fill:#E03822;" d="
			M149.6,196.1l0.9-0.7l0.8,0.4c0,0,0.1,0.1,0.1,0.1l0,0c0,0,0,0,0,0.1c0,0,0,0,0,0v0.1l0.1,0l-0.1-0.7h-0.1l0,0.1
			c0,0.1,0,0.1,0,0.1c0,0-0.1,0-0.1,0l-0.6-0.3l0.6-0.5c0,0,0.1,0,0.1,0l0,0c0,0,0,0,0.1,0.1v0.1l0.1,0l-0.1-0.8l-0.1,0v0.1
			c0,0.1,0,0.1,0,0.1c0,0,0,0.1,0,0.1l-0.8,0.7l-0.9-0.5c0,0-0.1-0.1-0.1-0.1c0,0,0-0.1-0.1-0.1v-0.1l-0.1,0l0.1,0.7h0.1l0-0.1
			c0,0,0-0.1,0-0.1c0,0,0-0.1,0.1-0.1c0,0,0,0,0.1,0c0,0,0,0,0,0c0,0,0.1,0,0.1,0l0.6,0.3l-0.7,0.5c0,0,0,0-0.1,0c0,0,0,0,0-0.1
			l0-0.1l-0.1,0l0.1,0.8l0.1,0v0c0,0,0-0.1,0-0.1C149.5,196.2,149.6,196.1,149.6,196.1"/>
	</g>
	<g>
		<defs>
			<rect id="SVGID_00000013152588903129100650000007702142925994882966_" x="-287" y="-515.9" width="1207.6" height="858.9"/>
		</defs>
		<clipPath id="SVGID_00000016071235859948040740000016799499265830076295_">
			<use xlink:href="#SVGID_00000013152588903129100650000007702142925994882966_"  style="overflow:visible;"/>
		</clipPath>
		<path id="path3473" style="clip-path:url(#SVGID_00000016071235859948040740000016799499265830076295_);fill:#E03822;" d="
			M149.9,197.8c0,0,0-0.1,0-0.1c0,0,0-0.1,0.1-0.1l1.7-0.4l0,0c0,0,0,0,0,0c0,0,0,0,0,0l0,0l0,0c0,0,0,0,0,0.1l0.1,0.4l0.1,0
			l-0.3-1.4l-0.1,0l0.1,0.4c0,0.1,0,0.1,0,0.1c0,0,0,0,0,0c0,0,0,0-0.1,0l-1.7,0.4l0,0c0,0-0.1,0-0.1,0c0,0,0,0,0,0c0,0,0,0,0-0.1
			l-0.1-0.4l-0.1,0l0.3,1.4l0.1,0L149.9,197.8z"/>
	</g>
	<g>
		<defs>
			<rect id="SVGID_00000156547102516205012540000005598401494180271032_" x="-287" y="-515.9" width="1207.6" height="858.9"/>
		</defs>
		<clipPath id="SVGID_00000108309303218975866600000007791899883029684390_">
			<use xlink:href="#SVGID_00000156547102516205012540000005598401494180271032_"  style="overflow:visible;"/>
		</clipPath>
		<path id="path3475" style="clip-path:url(#SVGID_00000108309303218975866600000007791899883029684390_);fill:#E03822;" d="
			M156.9,180.2c0.3-0.2,1.4-0.9,1.6-0.9c0.2,0,0.2,0.1,0.2,0.3c-0.3,0.4-1.5,1.2-1.6,2.8c0,0.6,0.4,0.6,0.5,0.1
			c0.4-3.2,2.9-3.6,4.5-1.9c0.2,0.1,0.6-0.2,0.3-0.5c-0.4-0.5-1.6-1-2.8-0.9c-0.3,0-0.5-0.2-0.1-0.3c0.5-0.1,1-0.3,1.5-0.4
			c0.5-0.2,0.3-0.8-0.5-0.4c-0.3,0.1-0.6,0.3-0.8,0.4c-0.2,0.1-0.7,0.2-0.8-0.1c-0.1-0.1-0.2-0.3-0.2-0.3c-0.1-0.1-0.3,0-0.3,0.2
			c0.1,0.2,0.1,0.3,0.1,0.6c0.1,0.5-1.4,0.9-1.7,1.1C156.3,180.1,156.4,180.5,156.9,180.2"/>
	</g>
	<g>
		<defs>
			<rect id="SVGID_00000123417827344510454240000002734859640872394656_" x="-287" y="-515.9" width="1207.6" height="858.9"/>
		</defs>
		<clipPath id="SVGID_00000063631079042879264020000008439477054801159581_">
			<use xlink:href="#SVGID_00000123417827344510454240000002734859640872394656_"  style="overflow:visible;"/>
		</clipPath>
		<path id="path3477" style="clip-path:url(#SVGID_00000063631079042879264020000008439477054801159581_);fill:#E03822;" d="
			M168.9,180c0-0.2,0-0.4,0.2-0.5c0.2-0.1,0.3,0,0.2,0.4c0,0.1-0.1,0.2-0.1,0.3c0,0.1-0.1,0.1-0.2,0.1
			C168.9,180.3,168.9,180.2,168.9,180 M169.8,180.1c0.1,0,0.2,0,0.2,0c0,0,0,0.3,0,0.3c0,0.1-0.2,0.1-0.2,0
			C169.6,180.5,169.7,180.1,169.8,180.1 M170.8,180.3c0.1,0,0.3,0.1,0.4,0.1c0.1,0.1,0,0.2,0,0.3c-0.1,0.3-0.5,0-0.5-0.1
			C170.6,180.5,170.6,180.4,170.8,180.3 M171.2,179.8c0,0,0.3,0.1,0.3,0.1c0,0,0,0.2,0,0.2c-0.1,0.2-0.4,0-0.4-0.1
			C171.1,179.9,171.1,179.8,171.2,179.8 M171.5,179.3c0,0,0.2,0,0.2,0.1c0,0,0,0.1,0,0.1c-0.1,0.1-0.3,0-0.3-0.1
			C171.5,179.4,171.5,179.4,171.5,179.3 M172.1,180.9c0.1,0.1,0.1,0.1,0.2,0.2c0,0,0.1,0.1,0.1,0.2c0,0.2-0.2,0.2-0.4,0.1
			c-0.1,0-0.3-0.1-0.4-0.3C171.5,180.9,171.7,180.6,172.1,180.9 M171.9,178.6c-0.2-0.2,0-0.4,0.2-0.3c0.4,0.2,0.7,0.4,1.1,0.6
			c0.2,0.1,0.1,0.3-0.2,0.3C172.6,178.9,172.2,178.7,171.9,178.6 M172.3,179.7c0,0,0.2,0.1,0.2,0.1c0,0,0,0.1,0,0.2
			c-0.1,0.1-0.3,0-0.3-0.1C172.3,179.8,172.3,179.7,172.3,179.7 M172.6,180.4c0.1,0.1,0.1,0.2,0,0.3c-0.1,0.1-0.5-0.1-0.5-0.3
			c0-0.1,0.1-0.2,0.2-0.2C172.4,180.2,172.6,180.3,172.6,180.4 M169.2,180.7c1.4,0.3,2.6,0.7,3.1,1.7c0.1,0.1,0.1,0.2,0.2,0.3
			c0.4,0.2,0.5-0.2,0.2-0.5c-0.2-0.2-0.1-0.2,0-0.5c0.3-0.6,0.9-1.2,0.4-1.8c-0.2-0.1-0.3-0.2-0.5-0.3c-0.1-0.2,0.1-0.2,0.2-0.2
			c0.2,0.1,0.4,0.2,0.7,0.3c0.5-0.2,0.5-0.8,0-1c-0.6-0.4-1.5-1-1.9-0.8c-0.6,0.7-0.1,0.8,0.3,1c0.2,0.1,0.1,0.2-0.1,0.2
			c-0.8-0.2-0.7,0-1.3,0.5c-0.3,0.2-0.6,0.1-0.7,0c-0.1-0.2,0-0.2,0.1-0.3c0.3-0.1,0.5-0.3,0.4-0.5c0-0.3,0.1-0.5,0.3-0.7
			c0.3-0.1,0.5-0.2,0.4-0.7c-0.2-0.4-0.8-0.5-0.6-0.1c0.1,0.3-0.2,0.5-0.3,0.4c-0.7-0.2-1.4-0.4-1.4-0.2c-0.2,0.3,0.4,0.4,1,0.5
			c0.1,0.1,0.1,0.2,0,0.2c-0.4,0-0.7,0-1.1,0c-0.2,0-0.3,0.4,0.1,0.4c0.3,0,0.7,0,1,0c0.2,0,0.1,0.3-0.1,0.3c-1.1,0-0.9,0.1-1,0.2
			c-0.1,0.2-0.1,0.5-0.3,0.7C168.1,180.5,168.5,180.7,169.2,180.7"/>
	</g>
	<g>
		<defs>
			<rect id="SVGID_00000077283263815936930430000002368573289812283826_" x="-287" y="-515.9" width="1207.6" height="858.9"/>
		</defs>
		<clipPath id="SVGID_00000109725733669553540070000009288410888593275832_">
			<use xlink:href="#SVGID_00000077283263815936930430000002368573289812283826_"  style="overflow:visible;"/>
		</clipPath>
		<path id="path3479" style="clip-path:url(#SVGID_00000109725733669553540070000009288410888593275832_);fill:#E03822;" d="
			M179.9,185.6c0.2-0.2,0.4,0.1,0.5,0.4c0,0.2-0.1,0.4-0.3,0.6c-0.3,0.3-0.6,0.3-0.9,0c-0.1-0.3-0.1-0.6,0-0.7
			C179.3,185.8,179.7,185.7,179.9,185.6 M178.3,184.4c0.3,0.2,0.6,0.4,0.8,0.6c0.1,0.1,0.1,0.2-0.1,0.2c-0.2,0-0.6-0.4-0.8-0.5
			c-0.2-0.3-0.6-0.1-0.5,0.2c0.2,0.2,0.5,0.4,0.7,0.6c0.3,0.2,0,0.6-0.3,0.4c-0.4-0.2-0.8-0.5-1.2-0.8c-0.5-0.2-0.6,0-0.5,0.3
			c0.4,0.7,2.2,0.4,2.2,1.7c0.1,0.6-0.1,1.4-0.4,1.9c-0.1,0.5,0.5,0.6,0.6,0.2c0.1-0.6,0.2-1.3,0.3-1.9c0-0.2,0.3-0.2,0.4-0.1
			c0.2,0.3-0.1,0.8,0.2,1.2c0.2,0.2,0.4,0,0.4-0.2c0-0.3,0-0.7,0-1c0-0.1,0.1-0.2,0.2-0.1c0.2,0.2-0.1,1.3,0.2,1.5
			c0.3,0.2,0.6,0.1,0.5-0.2c-0.2-0.7-0.2-1.3-0.1-1.8c0-0.1,0-0.3,0-0.5c0-0.4,0.8-0.7-0.5-0.7c-0.4,0.1-1.1-0.7-1.6-1.1
			C178.2,183.8,178,183.9,178.3,184.4"/>
	</g>
	<g>
		<defs>
			<rect id="SVGID_00000155143229479781431830000008813157903229819777_" x="-287" y="-515.9" width="1207.6" height="858.9"/>
		</defs>
		<clipPath id="SVGID_00000117675443157747781500000006399779519420703125_">
			<use xlink:href="#SVGID_00000155143229479781431830000008813157903229819777_"  style="overflow:visible;"/>
		</clipPath>
		<path id="path3481" style="clip-path:url(#SVGID_00000117675443157747781500000006399779519420703125_);fill:#E03822;" d="
			M152.9,186.8c-0.1,0.1-0.3,0.1-0.2-0.1c0-0.2,0.1-0.3,0.2-0.6c0.1-0.2,0.2-0.2,0.3,0.2C153.2,186.5,153.1,186.7,152.9,186.8
			 M153.9,185.6c0,0.3,0,0.6-0.1,0.8c-0.1,0.1-0.3,0.1-0.2-0.1c0-0.5,0-0.8-0.4-0.8c-0.4,0.2-0.8,1.2-0.7,1.5
			c0.1,0.4,0.5,0.2,0.7-0.1c0.1-0.2,0.4,0.1,0.2,0.2c-0.3,0.2-0.5,0.4-0.7,0.6c-0.1,0.5,0.5,0.2,0.6,0c0.3-0.5,0.4-0.4,0.5,0
			c0,0.5,0.5,0.1,0.5-0.1c0.1-0.4-0.3-0.7,0-1C154.6,185.2,153.8,185.3,153.9,185.6"/>
	</g>
	<g>
		<defs>
			<rect id="SVGID_00000075841970721856526360000015162683277290899593_" x="-287" y="-515.9" width="1207.6" height="858.9"/>
		</defs>
		<clipPath id="SVGID_00000029042341539892495770000017011453921507035026_">
			<use xlink:href="#SVGID_00000075841970721856526360000015162683277290899593_"  style="overflow:visible;"/>
		</clipPath>
		<path id="path3483" style="clip-path:url(#SVGID_00000029042341539892495770000017011453921507035026_);fill:#E03822;" d="
			M151.2,185c0-0.2,0.1-0.1,0.1-0.4c0.1-0.1,0.1-0.1,0.2-0.2c0.1-0.2,0.5-0.3,0.4,0.1c0,0.1,0,0.1-0.1,0.2c0,0.1,0,0.3,0.1,0.2
			c0.1-0.1,0.1-0.2,0.2-0.2c0.1-0.1,0.2,0,0.2,0.1c0.1,0.2,0,0.1-0.1,0.3c-0.1,0.1-0.1,0.2-0.2,0.4c-0.1,0.2-0.4,0.1-0.4,0
			c0-0.4-0.1-0.4-0.2-0.3c-0.2,0.1,0,0.4-0.4,0.2C151.2,185.2,151.2,185.1,151.2,185 M152.2,186c0,0.1-0.1,0.2-0.2,0.2
			c-0.1,0-0.2,0-0.2-0.1c0-0.1,0-0.2,0.1-0.3C152.2,185.8,152.3,185.8,152.2,186 M150.7,185.9c0.1,0,0.3,0,0.3,0.1
			c0.1,0.4,0,0.4,0.4,0.3c0.1,0,0.1,0,0.3,0c0.1,0.1,0.2,0.2,0.1,0.3c-0.3,0.8-0.7,1.6,0.2,2.4c0.5,0.1,0.4-0.1,0.2-0.5
			c-0.3-0.3-0.4-0.7-0.3-1.4c0.5-1.6,1.6-2.4,2.3-2.3c0.6,0,0.7-0.1,0.6-0.3c0-0.3-0.4-0.3-0.8-0.3c-0.7,0.1-1.1,0.5-1.4,1.1
			c-0.1,0.1-0.2,0.1-0.3,0c0.4-0.5,0.6-1,0.1-1.4c-0.5-0.5-0.7-0.3-0.8-0.2c-0.2,0.2-0.3,0.5-0.5,0.7c-0.1,0.1-0.1,0.3-0.2,0.4
			c0,0.3-0.1,0.5-0.3,0.7C150.5,185.9,150.5,185.9,150.7,185.9"/>
	</g>
	<g>
		<defs>
			<rect id="SVGID_00000126299266496249418670000015576139399557592489_" x="-287" y="-515.9" width="1207.6" height="858.9"/>
		</defs>
		<clipPath id="SVGID_00000044140561789730768090000000111835213067089042_">
			<use xlink:href="#SVGID_00000126299266496249418670000015576139399557592489_"  style="overflow:visible;"/>
		</clipPath>
		<path id="path3485" style="clip-path:url(#SVGID_00000044140561789730768090000000111835213067089042_);fill:#E03822;" d="
			M150.2,187.3c0.3,0.2,0.6,0.2,0.8,0.2c0.3,0,0.6-0.6,0.6-0.9c0-0.2-0.2-0.1-0.3,0c-0.1,0.1-0.1,0.3-0.1,0.3c0,0.1-0.1,0.1-0.1,0.1
			c-0.2,0-0.1-0.3,0-0.4c0-0.1,0.1-0.1,0-0.2c-0.2-0.2-0.3,0.5-0.4,0.5c-0.4,0.2-0.3-0.3-0.1-0.5c0.1-0.1,0-0.4-0.1-0.3
			c-0.2,0.1-0.3,0.8-0.3,0.8C150,187.2,150.1,187.3,150.2,187.3"/>
	</g>
</g>
</svg>
