<?xml version="1.0" encoding="UTF-8" standalone="no"?>
<!-- Created with Inkscape (http://www.inkscape.org/) -->

<svg
   width="13.802783mm"
   height="13.802775mm"
   viewBox="0 0 13.802783 13.802775"
   version="1.1"
   id="svg1"
   xmlns="http://www.w3.org/2000/svg"
   xmlns:svg="http://www.w3.org/2000/svg">
  <defs
     id="defs1">
    <clipPath
       clipPathUnits="userSpaceOnUse"
       id="clipPath3510">
      <path
         d="M 0,858.898 H 1207.558 V 0 H 0 Z"
         transform="translate(-184.3232,-85.602037)"
         id="path3510" />
    </clipPath>
    <clipPath
       clipPathUnits="userSpaceOnUse"
       id="clipPath3512">
      <path
         d="M 0,858.898 H 1207.558 V 0 H 0 Z"
         transform="translate(-179.45321,-85.602037)"
         id="path3512" />
    </clipPath>
    <clipPath
       clipPathUnits="userSpaceOnUse"
       id="clipPath3514">
      <path
         d="M 0,858.898 H 1207.558 V 0 H 0 Z"
         transform="translate(-162.339,-82.842637)"
         id="path3514" />
    </clipPath>
    <clipPath
       clipPathUnits="userSpaceOnUse"
       id="clipPath3516">
      <path
         d="M 0,858.898 H 1207.558 V 0 H 0 Z"
         transform="translate(-155.0024,-73.300312)"
         id="path3516" />
    </clipPath>
    <clipPath
       clipPathUnits="userSpaceOnUse"
       id="clipPath3518">
      <path
         d="M 0,858.898 H 1207.558 V 0 H 0 Z"
         transform="translate(-159.0425,-70.931437)"
         id="path3518" />
    </clipPath>
    <clipPath
       clipPathUnits="userSpaceOnUse"
       id="clipPath3520">
      <path
         d="M 0,858.898 H 1207.558 V 0 H 0 Z"
         transform="translate(-162.1631,-70.287412)"
         id="path3520" />
    </clipPath>
    <clipPath
       clipPathUnits="userSpaceOnUse"
       id="clipPath3522">
      <path
         d="M 0,858.898 H 1207.558 V 0 H 0 Z"
         transform="translate(-169.14281,-69.523987)"
         id="path3522" />
    </clipPath>
    <clipPath
       clipPathUnits="userSpaceOnUse"
       id="clipPath3524">
      <path
         d="M 0,858.898 H 1207.558 V 0 H 0 Z"
         transform="translate(-170.93981,-70.599637)"
         id="path3524" />
    </clipPath>
    <clipPath
       clipPathUnits="userSpaceOnUse"
       id="clipPath3526">
      <path
         d="M 0,858.898 H 1207.558 V 0 H 0 Z"
         transform="translate(-175.8524,-72.115087)"
         id="path3526" />
    </clipPath>
    <clipPath
       clipPathUnits="userSpaceOnUse"
       id="clipPath3528">
      <path
         d="M 0,858.898 H 1207.558 V 0 H 0 Z"
         transform="translate(-149.5193,-79.742437)"
         id="path3528" />
    </clipPath>
    <clipPath
       clipPathUnits="userSpaceOnUse"
       id="clipPath3530">
      <path
         d="M 0,858.898 H 1207.558 V 0 H 0 Z"
         transform="translate(-150.2279,-83.359087)"
         id="path3530" />
    </clipPath>
    <clipPath
       clipPathUnits="userSpaceOnUse"
       id="clipPath3532">
      <path
         d="M 0,858.898 H 1207.558 V 0 H 0 Z"
         transform="translate(-150.08501,-84.685987)"
         id="path3532" />
    </clipPath>
    <clipPath
       clipPathUnits="userSpaceOnUse"
       id="clipPath3534">
      <path
         d="M 0,858.898 H 1207.558 V 0 H 0 Z"
         transform="translate(-148.2599,-88.442137)"
         id="path3534" />
    </clipPath>
    <clipPath
       clipPathUnits="userSpaceOnUse"
       id="clipPath3536">
      <path
         d="M 0,858.898 H 1207.558 V 0 H 0 Z"
         transform="translate(-149.88011,-89.681887)"
         id="path3536" />
    </clipPath>
    <clipPath
       clipPathUnits="userSpaceOnUse"
       id="clipPath3538">
      <path
         d="M 0,858.898 H 1207.558 V 0 H 0 Z"
         transform="translate(-153.5655,-96.490912)"
         id="path3538" />
    </clipPath>
    <clipPath
       clipPathUnits="userSpaceOnUse"
       id="clipPath3540">
      <path
         d="M 0,858.898 H 1207.558 V 0 H 0 Z"
         transform="translate(-154.26161,-99.514087)"
         id="path3540" />
    </clipPath>
    <clipPath
       clipPathUnits="userSpaceOnUse"
       id="clipPath3542">
      <path
         d="M 0,858.898 H 1207.558 V 0 H 0 Z"
         transform="translate(-155.6237,-100.49741)"
         id="path3542" />
    </clipPath>
    <clipPath
       clipPathUnits="userSpaceOnUse"
       id="clipPath3544">
      <path
         d="M 0,858.898 H 1207.558 V 0 H 0 Z"
         transform="translate(-158.4975,-102.0458)"
         id="path3544" />
    </clipPath>
    <clipPath
       clipPathUnits="userSpaceOnUse"
       id="clipPath3546">
      <path
         d="M 0,858.898 H 1207.558 V 0 H 0 Z"
         transform="translate(-160.8542,-100.72511)"
         id="path3546" />
    </clipPath>
    <clipPath
       clipPathUnits="userSpaceOnUse"
       id="clipPath3548">
      <path
         d="M 0,858.898 H 1207.558 V 0 H 0 Z"
         transform="translate(-164.3309,-102.89171)"
         id="path3548" />
    </clipPath>
    <clipPath
       clipPathUnits="userSpaceOnUse"
       id="clipPath3550">
      <path
         d="M 0,858.898 H 1207.558 V 0 H 0 Z"
         transform="translate(-166.94681,-103.3983)"
         id="path3550" />
    </clipPath>
    <clipPath
       clipPathUnits="userSpaceOnUse"
       id="clipPath3552">
      <path
         d="M 0,858.898 H 1207.558 V 0 H 0 Z"
         transform="translate(-168.5277,-100.6338)"
         id="path3552" />
    </clipPath>
    <clipPath
       clipPathUnits="userSpaceOnUse"
       id="clipPath3554">
      <path
         d="M 0,858.898 H 1207.558 V 0 H 0 Z"
         transform="translate(-170.3648,-102.2997)"
         id="path3554" />
    </clipPath>
    <clipPath
       clipPathUnits="userSpaceOnUse"
       id="clipPath3556">
      <path
         d="M 0,858.898 H 1207.558 V 0 H 0 Z"
         transform="translate(-174.6638,-100.8092)"
         id="path3556" />
    </clipPath>
    <clipPath
       clipPathUnits="userSpaceOnUse"
       id="clipPath3558">
      <path
         d="M 0,858.898 H 1207.558 V 0 H 0 Z"
         transform="translate(-179.06171,-96.114412)"
         id="path3558" />
    </clipPath>
    <clipPath
       clipPathUnits="userSpaceOnUse"
       id="clipPath3560">
      <path
         d="M 0,858.898 H 1207.558 V 0 H 0 Z"
         transform="translate(-180.0929,-92.944987)"
         id="path3560" />
    </clipPath>
    <clipPath
       clipPathUnits="userSpaceOnUse"
       id="clipPath3562">
      <path
         d="M 0,858.898 H 1207.558 V 0 H 0 Z"
         transform="translate(-180.4599,-90.160687)"
         id="path3562" />
    </clipPath>
    <clipPath
       clipPathUnits="userSpaceOnUse"
       id="clipPath3564">
      <path
         d="M 0,858.898 H 1207.558 V 0 H 0 Z"
         transform="translate(-180.7025,-87.050887)"
         id="path3564" />
    </clipPath>
    <clipPath
       clipPathUnits="userSpaceOnUse"
       id="clipPath3566">
      <path
         d="M 0,858.898 H 1207.558 V 0 H 0 Z"
         transform="translate(-180.69761,-84.188737)"
         id="path3566" />
    </clipPath>
    <clipPath
       clipPathUnits="userSpaceOnUse"
       id="clipPath3568">
      <path
         d="M 0,858.898 H 1207.558 V 0 H 0 Z"
         transform="translate(-180.52661,-82.867687)"
         id="path3568" />
    </clipPath>
    <clipPath
       clipPathUnits="userSpaceOnUse"
       id="clipPath3570">
      <path
         d="M 0,858.898 H 1207.558 V 0 H 0 Z"
         transform="translate(-180.5385,-79.100137)"
         id="path3570" />
    </clipPath>
  </defs>
  <g
     id="layer1"
     transform="translate(-44.806198,-196.49439)">
    <path
       id="path3509"
       d="m 0,0 c 0,-5.22 -2.117,-9.947 -5.54,-13.369 -3.422,-3.422 -8.149,-5.54 -13.369,-5.54 v 10e-4 0 0 -10e-4 c -5.22,0 -9.947,2.118 -13.369,5.54 -3.423,3.422 -5.54,8.149 -5.54,13.369 h 10e-4 v 0 h -10e-4 c 0,5.22 2.117,9.947 5.54,13.37 3.422,3.422 8.149,5.539 13.369,5.539 v -10e-4 0 0 10e-4 c 5.22,0 9.947,-2.117 13.369,-5.539 C -2.117,9.947 0,5.22 0,0.001 H -0.001 V 0 0 Z m 0.653,0.001 c 0,5.401 -2.19,10.292 -5.73,13.831 -3.539,3.54 -8.43,5.73 -13.832,5.73 v 10e-4 0 0 -10e-4 c -5.402,0 -10.292,-2.19 -13.832,-5.73 -3.54,-3.539 -5.73,-8.43 -5.73,-13.832 h -0.001 v 0 h 0.001 c 0,-5.402 2.19,-10.292 5.73,-13.832 3.54,-3.539 8.43,-5.729 13.832,-5.729 v -0.002 0 0 0.002 c 5.402,0 10.293,2.19 13.832,5.729 3.54,3.54 5.73,8.43 5.73,13.832 h 0.001 v 0 0.001 z"
       style="fill:#c8212b;fill-opacity:1;fill-rule:nonzero;stroke:none"
       transform="matrix(0.35277776,0,0,-0.35277776,58.378265,203.39577)"
       clip-path="url(#clipPath3510)" />
    <path
       id="path3511"
       d="m 0,0 c 0,-3.875 -1.572,-7.385 -4.113,-9.926 -2.541,-2.541 -6.05,-4.113 -9.926,-4.113 v 10e-4 0 0 -10e-4 c -3.875,0 -7.385,1.572 -9.926,4.113 -2.541,2.541 -4.113,6.051 -4.113,9.926 h 10e-4 v 0 h -10e-4 c 0,3.876 1.572,7.385 4.113,9.926 2.541,2.542 6.051,4.113 9.926,4.113 v -10e-4 0 0 10e-4 c 3.876,0 7.385,-1.571 9.926,-4.113 C -1.572,7.385 0,3.876 0,0.001 H -0.001 V 0 0 Z m 0.564,0.001 c 0,4.032 -1.634,7.683 -4.277,10.325 -2.642,2.642 -6.293,4.277 -10.326,4.277 v 10e-4 0 0 -10e-4 c -4.033,0 -7.684,-1.635 -10.326,-4.277 C -27.007,7.684 -28.642,4.033 -28.642,0 h -0.001 v 0 h 0.001 c 0,-4.032 1.635,-7.683 4.277,-10.326 2.642,-2.642 6.294,-4.277 10.326,-4.277 v -10e-4 0 0 10e-4 c 4.033,0 7.684,1.635 10.326,4.277 C -1.07,-7.683 0.564,-4.032 0.564,0 h 0.001 v 0 0.001 z"
       style="fill:#c8212b;fill-opacity:1;fill-rule:nonzero;stroke:none"
       transform="matrix(0.35277776,0,0,-0.35277776,56.660238,203.39577)"
       clip-path="url(#clipPath3512)" />
    <path
       id="path3513"
       d="m 0,0 h 4.274 v -1.471 c 0,-0.662 -0.573,-1.204 -1.273,-1.204 H 0.636 C 0.287,-2.675 0,-2.28 0,-1.949 Z M 0,5.473 H 4.274 V 2.644 H 0 Z m 6.949,0 h 4.058 V 2.644 H 6.949 Z m 4.255,5.323 -2.616,2.756 H -2.961 c -2.512,0 -2.512,-2.582 -2.512,-2.582 v -15.7 c 0,-3.245 2.721,-3.384 2.721,-3.384 0,0 5.494,-0.124 6.149,0 0.653,0.123 0.969,1.131 0.969,1.131 0.228,-1.135 1.086,-1.206 1.086,-1.206 h 3.17 l 2.799,2.761 c 0,0 -4.086,-0.139 -4.923,0 -0.838,0.139 -1.021,1.454 -1.021,1.454 0,0 -0.43,-0.773 -0.832,-1.14 C 4.243,-5.481 3.76,-5.463 3.76,-5.463 h -4.279 c -2.512,0.314 -2.338,2.477 -2.338,2.477 0,0 -0.048,11.715 0,12.729 0.048,1.013 0.861,1.053 0.861,1.053 z M 6.949,0 h 4.058 V -2.675 H 8.158 c -0.665,0 -1.209,0.542 -1.209,1.204 z"
       style="fill:#c8212b;fill-opacity:1;fill-rule:evenodd;stroke:none"
       transform="matrix(0.35277776,0,0,-0.35277776,50.622727,204.36922)"
       clip-path="url(#clipPath3514)" />
    <path
       id="path3515"
       d="m 0,0 -0.498,0.473 -0.454,-0.478 0.498,-0.473 z m -1.786,0.787 0.498,-0.473 0.454,0.478 -0.498,0.473 z m 1.614,0.702 0.336,-0.319 -0.372,-0.392 0.825,-0.784 -1.179,-1.241 -0.327,0.311 0.145,0.153 -0.498,0.473 -0.677,-0.713 -0.336,0.319 0.677,0.713 -0.498,0.473 -0.151,-0.16 -0.328,0.311 1.185,1.248 0.826,-0.784 z"
       style="fill:#c8212b;fill-opacity:1;fill-rule:nonzero;stroke:none"
       transform="matrix(0.35277776,0,0,-0.35277776,48.034538,207.73554)"
       clip-path="url(#clipPath3516)" />
    <path
       id="path3517"
       d="M 0,0 -0.51,0.252 C -0.631,0.021 -0.739,-0.18 -0.834,-0.351 l 0.531,-0.262 z M -1.709,0.082 -1.24,-0.15 c 0.101,0.161 0.213,0.36 0.334,0.598 l -0.5,0.247 z M -2.327,0.388 -2.087,0.269 -1.611,1.232 -0.726,0.794 -0.53,1.181 -0.136,0.986 -0.332,0.6 0.551,0.164 0.075,-0.799 l 0.263,-0.13 -0.173,-0.35 -1.027,0.507 c 0.078,-0.404 0.327,-0.777 0.748,-1.119 -0.015,-0.008 -0.182,-0.083 -0.5,-0.226 -0.394,0.4 -0.601,0.861 -0.619,1.381 -0.324,-0.276 -0.822,-0.393 -1.493,-0.351 -0.045,0.179 -0.091,0.345 -0.139,0.498 0.648,-0.109 1.097,-0.062 1.348,0.141 L -2.5,0.037 Z"
       style="fill:#c8212b;fill-opacity:1;fill-rule:nonzero;stroke:none"
       transform="matrix(0.35277776,0,0,-0.35277776,49.459796,208.57123)"
       clip-path="url(#clipPath3518)" />
    <path
       id="path3519"
       d="m 0,0 -0.05,-0.317 1.664,-0.262 0.05,0.317 z m -0.164,-1.043 0.811,-0.128 c -0.001,0.114 0.002,0.234 0.008,0.36 l -0.764,0.12 z m -0.14,-0.886 c 0.214,0.038 0.458,0.084 0.73,0.138 C 0.392,-1.95 0.364,-2.103 0.341,-2.247 -0.137,-2.312 -0.484,-2.386 -0.698,-2.47 l -0.193,0.398 c 0.1,0.077 0.163,0.191 0.186,0.342 L -0.363,0.44 2.145,0.045 1.978,-1.019 1.094,-0.88 C 1.088,-1.008 1.086,-1.129 1.087,-1.24 L 2.094,-1.398 2.035,-1.772 1.107,-1.626 c 0.021,-0.193 0.056,-0.344 0.106,-0.454 0.051,-0.11 0.108,-0.17 0.174,-0.18 0.063,-0.01 0.115,0.022 0.155,0.096 0.041,0.074 0.079,0.187 0.114,0.34 0.124,-0.1 0.248,-0.193 0.37,-0.281 C 1.879,-2.588 1.659,-2.807 1.367,-2.761 0.965,-2.697 0.731,-2.296 0.665,-1.557 l -0.888,0.14 z"
       style="fill:#c8212b;fill-opacity:1;fill-rule:nonzero;stroke:none"
       transform="matrix(0.35277776,0,0,-0.35277776,50.560674,208.79843)"
       clip-path="url(#clipPath3520)" />
    <path
       id="path3521"
       d="m 0,0 -0.562,-0.08 c 0.015,-0.127 0.027,-0.246 0.038,-0.359 l 0.687,0.099 0.052,-0.363 -0.626,-0.089 c 0.215,-0.243 0.457,-0.405 0.726,-0.486 -0.056,-0.112 -0.118,-0.256 -0.188,-0.43 -0.293,0.135 -0.538,0.342 -0.735,0.622 -0.089,-0.303 -0.266,-0.575 -0.532,-0.816 -0.166,0.139 -0.287,0.236 -0.365,0.29 0.319,0.225 0.506,0.472 0.56,0.743 l -0.593,-0.084 -0.052,0.362 0.673,0.096 c -0.003,0.109 -0.014,0.228 -0.032,0.36 l -0.16,-0.023 c -0.05,-0.137 -0.104,-0.256 -0.162,-0.356 -0.091,0.048 -0.205,0.1 -0.343,0.157 0.145,0.228 0.252,0.487 0.324,0.777 L -0.946,0.386 C -0.959,0.332 -0.972,0.279 -0.987,0.229 l 0.935,0.134 z m -2.264,-1.575 0.205,0.02 c 0.073,0.01 0.11,0.055 0.113,0.134 0.002,0.079 -0.029,0.378 -0.094,0.898 l -0.214,-0.031 c 0.037,-0.39 0.034,-0.73 -0.01,-1.021 m 0.708,2.69 0.384,0.009 C -1.19,1.033 -1.211,0.941 -1.237,0.847 L -0.062,1.015 -0.009,0.646 -1.358,0.453 C -1.409,0.308 -1.469,0.16 -1.536,0.009 c -0.091,0.059 -0.201,0.122 -0.33,0.19 l -0.474,-0.068 0.045,-0.333 0.579,0.083 c 0.04,-0.298 0.075,-0.591 0.107,-0.882 0.031,-0.29 0.045,-0.472 0.043,-0.544 -0.003,-0.072 -0.02,-0.139 -0.052,-0.201 -0.033,-0.063 -0.08,-0.11 -0.142,-0.142 -0.062,-0.032 -0.19,-0.062 -0.383,-0.089 -0.039,0.128 -0.081,0.249 -0.126,0.364 -0.029,-0.174 -0.073,-0.329 -0.131,-0.466 -0.117,0.169 -0.22,0.305 -0.311,0.409 0.044,0.14 0.075,0.29 0.091,0.451 0.016,0.16 0.019,0.317 0.009,0.47 -0.01,0.154 -0.043,0.429 -0.098,0.827 l -0.211,-0.03 -0.052,0.363 0.396,0.056 c -0.062,0.116 -0.13,0.231 -0.204,0.347 l 0.396,0.183 c 0.106,-0.164 0.189,-0.299 0.249,-0.405 l -0.18,-0.087 0.473,0.067 0.03,-0.207 c 0.114,0.245 0.199,0.495 0.256,0.75"
       style="fill:#c8212b;fill-opacity:1;fill-rule:nonzero;stroke:none"
       transform="matrix(0.35277776,0,0,-0.35277776,53.022958,209.06775)"
       clip-path="url(#clipPath3522)" />
    <path
       id="path3523"
       d="M 0,0 1.088,0.519 C 1.005,0.725 0.9,0.959 0.773,1.221 l 0.419,0.2 C 1.317,1.145 1.42,0.91 1.501,0.716 L 2.639,1.259 2.82,0.879 1.714,0.351 C 2.165,-0.187 2.743,-0.417 3.449,-0.339 3.389,-0.55 3.345,-0.727 3.316,-0.869 2.704,-0.873 2.174,-0.66 1.729,-0.232 1.804,-0.783 1.636,-1.336 1.224,-1.891 1.106,-1.832 0.946,-1.765 0.744,-1.687 1.268,-1.066 1.43,-0.463 1.229,0.12 l -1.047,-0.5 z"
       style="fill:#c8212b;fill-opacity:1;fill-rule:nonzero;stroke:none"
       transform="matrix(0.35277776,0,0,-0.35277776,53.6569,208.68828)"
       clip-path="url(#clipPath3524)" />
    <path
       id="path3525"
       d="M 0,0 0.98,0.905 0.926,0.963 1.047,1.436 0.226,0.678 -0.027,0.951 1.236,2.117 1.486,1.845 1.336,1.234 2.173,2.006 2.429,1.728 1.559,0.924 1.771,0.696 C 1.866,0.593 1.911,0.486 1.907,0.375 1.902,0.265 1.841,0.154 1.723,0.044 1.606,-0.066 1.484,-0.179 1.36,-0.294 1.243,-0.21 1.127,-0.135 1.01,-0.069 1.129,0.03 1.236,0.123 1.33,0.21 1.435,0.307 1.445,0.401 1.361,0.492 L 1.237,0.626 0.257,-0.278 Z M -0.814,1.782 C -0.631,1.763 -0.435,1.734 -0.226,1.694 L -0.264,1.534 0.111,1.88 c -0.174,0.062 -0.326,0.11 -0.455,0.144 l 0.161,0.374 C -0.039,2.362 0.141,2.309 0.355,2.238 L 0.267,2.024 0.541,2.277 C 0.508,2.519 0.476,2.727 0.446,2.9 L 0.902,3.013 0.921,2.628 1.244,2.926 1.753,2.375 1.44,2.085 1.183,2.363 -0.281,1.011 -0.025,0.733 -0.339,0.443 -0.848,0.995 -0.481,1.333 c -0.149,0.03 -0.29,0.054 -0.422,0.072 z"
       style="fill:#c8212b;fill-opacity:1;fill-rule:nonzero;stroke:none"
       transform="matrix(0.35277776,0,0,-0.35277776,55.389955,208.15366)"
       clip-path="url(#clipPath3526)" />
    <path
       id="path3527"
       d="M 0,0 1.338,0.986 1.218,1.359 -0.414,1.393 1.055,1.865 0.917,2.297 -1.441,1.541 -1.273,1.02 0.485,0.984 C 0.535,0.983 0.581,0.983 0.625,0.982 0.598,0.963 0.569,0.941 0.537,0.918 l -1.439,-1.056 0.183,-0.57 2.357,0.756 -0.139,0.433 z"
       style="fill:#c8212b;fill-opacity:1;fill-rule:nonzero;stroke:none"
       transform="matrix(0.35277776,0,0,-0.35277776,46.100222,205.46291)"
       clip-path="url(#clipPath3528)" />
    <path
       id="path3529"
       d="m 0,0 -2.444,-0.397 0.076,-0.465 2.444,0.396 z"
       style="fill:#c8212b;fill-opacity:1;fill-rule:nonzero;stroke:none"
       transform="matrix(0.35277776,0,0,-0.35277776,46.350201,204.18703)"
       clip-path="url(#clipPath3530)" />
    <path
       id="path3531"
       d="m 0,0 -1.634,-0.039 1.608,1.126 -0.01,0.44 -2.475,-0.058 0.011,-0.457 1.633,0.039 -1.608,-1.126 0.011,-0.438 2.475,0.059 z"
       style="fill:#c8212b;fill-opacity:1;fill-rule:nonzero;stroke:none"
       transform="matrix(0.35277776,0,0,-0.35277776,46.29979,203.71893)"
       clip-path="url(#clipPath3532)" />
    <path
       id="path3533"
       d="M 0,0 C 0.01,-0.012 0.02,-0.023 0.031,-0.035 0.082,-0.093 0.108,-0.124 0.127,-0.14 l 1.304,-1.401 0.394,-0.058 0.288,1.971 -0.434,0.063 -0.2,-1.367 -1.44,1.567 -0.381,0.056 -0.264,-1.801 0.434,-0.063 z"
       style="fill:#c8212b;fill-opacity:1;fill-rule:nonzero;stroke:none"
       transform="matrix(0.35277776,0,0,-0.35277776,45.655934,202.39384)"
       clip-path="url(#clipPath3534)" />
    <path
       id="path3535"
       d="m 0,0 c 0.05,-0.008 0.101,-0.013 0.152,-0.013 v 0 c 0.069,0 0.14,0.008 0.211,0.024 0.128,0.028 0.249,0.098 0.36,0.21 C 0.83,0.33 0.919,0.49 0.987,0.697 1.057,0.91 1.077,1.098 1.047,1.253 1.016,1.411 0.952,1.54 0.857,1.638 0.767,1.731 0.671,1.803 0.57,1.851 0.475,1.896 0.368,1.939 0.253,1.976 L -1.095,2.418 -1.242,1.97 0.102,1.529 C 0.251,1.481 0.368,1.429 0.451,1.375 0.525,1.327 0.573,1.262 0.598,1.175 0.624,1.087 0.612,0.964 0.561,0.81 0.513,0.662 0.446,0.564 0.365,0.518 0.28,0.47 0.195,0.451 0.112,0.461 0.016,0.473 -0.096,0.5 -0.222,0.541 L -1.566,0.982 -1.713,0.535 -0.364,0.092 C -0.233,0.05 -0.11,0.018 0,0"
       style="fill:#c8212b;fill-opacity:1;fill-rule:nonzero;stroke:none"
       transform="matrix(0.35277776,0,0,-0.35277776,46.227506,201.95649)"
       clip-path="url(#clipPath3536)" />
    <path
       id="path3537"
       d="m 0,0 c -0.071,0.075 -0.156,0.153 -0.251,0.231 l -1.1,0.896 -0.298,-0.366 1.096,-0.893 c 0.121,-0.098 0.212,-0.189 0.271,-0.27 0.052,-0.071 0.073,-0.149 0.066,-0.239 -0.008,-0.091 -0.064,-0.202 -0.166,-0.327 -0.098,-0.121 -0.195,-0.189 -0.288,-0.203 -0.096,-0.014 -0.181,-0.002 -0.256,0.038 -0.085,0.045 -0.181,0.111 -0.283,0.194 l -1.097,0.894 -0.297,-0.365 1.1,-0.896 c 0.106,-0.087 0.209,-0.16 0.307,-0.217 0.103,-0.061 0.218,-0.102 0.342,-0.121 0.031,-0.004 0.062,-0.007 0.094,-0.007 0.102,0 0.208,0.025 0.317,0.074 0.14,0.064 0.281,0.181 0.418,0.35 0.142,0.174 0.228,0.342 0.255,0.498 0.028,0.158 0.015,0.302 -0.038,0.427 C 0.141,-0.182 0.076,-0.081 0,0"
       style="fill:#c8212b;fill-opacity:1;fill-rule:nonzero;stroke:none"
       transform="matrix(0.35277776,0,0,-0.35277776,47.527631,199.55442)"
       clip-path="url(#clipPath3538)" />
    <path
       id="path3539"
       d="m 0,0 1.061,-1.244 -1.888,0.539 -0.334,-0.285 1.606,-1.884 0.346,0.295 -1.061,1.244 1.889,-0.539 0.334,0.286 -1.606,1.884 z"
       style="fill:#c8212b;fill-opacity:1;fill-rule:nonzero;stroke:none"
       transform="matrix(0.35277776,0,0,-0.35277776,47.773201,198.48791)"
       clip-path="url(#clipPath3540)" />
    <path
       id="path3541"
       d="M 0,0 1.334,-2.085 1.731,-1.831 0.397,0.254 Z"
       style="fill:#c8212b;fill-opacity:1;fill-rule:nonzero;stroke:none"
       transform="matrix(0.35277776,0,0,-0.35277776,48.253719,198.14101)"
       clip-path="url(#clipPath3542)" />
    <path
       id="path3543"
       d="M 0,0 0.149,-1.843 C 0.152,-1.887 0.156,-1.931 0.161,-1.974 0.129,-1.941 0.097,-1.91 0.066,-1.883 l -1.296,1.308 -0.46,-0.215 1.918,-1.836 0.385,0.18 -0.171,2.653 z"
       style="fill:#c8212b;fill-opacity:1;fill-rule:nonzero;stroke:none"
       transform="matrix(0.35277776,0,0,-0.35277776,49.267531,197.59477)"
       clip-path="url(#clipPath3544)" />
    <path
       id="path3545"
       d="M 0,0 -0.162,0.596 1.072,0.931 0.957,1.354 -0.277,1.019 -0.419,1.542 0.9,1.901 0.785,2.324 -0.988,1.843 l 0.649,-2.39 1.825,0.496 -0.115,0.423 z"
       style="fill:#c8212b;fill-opacity:1;fill-rule:nonzero;stroke:none"
       transform="matrix(0.35277776,0,0,-0.35277776,50.098923,198.06069)"
       clip-path="url(#clipPath3546)" />
    <path
       id="path3547"
       d="M 0,0 C 0.065,-0.052 0.101,-0.118 0.108,-0.2 0.113,-0.264 0.101,-0.321 0.069,-0.376 0.038,-0.429 -0.005,-0.465 -0.063,-0.488 -0.131,-0.514 -0.227,-0.533 -0.351,-0.544 l -0.571,-0.05 -0.053,0.596 0.646,0.057 C -0.178,0.072 -0.065,0.052 0,0 m 0.125,-0.864 c 0.131,0.052 0.236,0.123 0.313,0.211 0.115,0.132 0.165,0.299 0.148,0.495 C 0.576,-0.051 0.545,0.051 0.494,0.144 0.442,0.239 0.372,0.316 0.285,0.375 0.198,0.433 0.098,0.468 -0.011,0.479 -0.111,0.488 -0.233,0.487 -0.378,0.474 l -1.102,-0.096 0.217,-2.467 0.468,0.042 -0.089,1.016 0.27,0.024 c 0.08,0.007 0.146,0.005 0.193,-0.004 0.042,-0.008 0.092,-0.036 0.147,-0.08 0.061,-0.05 0.122,-0.112 0.182,-0.185 0.062,-0.078 0.224,-0.287 0.484,-0.629 l 0.027,-0.036 0.579,0.051 -0.549,0.71 c -0.105,0.137 -0.214,0.242 -0.324,0.316"
       style="fill:#c8212b;fill-opacity:1;fill-rule:nonzero;stroke:none"
       transform="matrix(0.35277776,0,0,-0.35277776,51.325426,197.29636)"
       clip-path="url(#clipPath3548)" />
    <path
       id="path3549"
       d="m 0,0 c -0.268,0.023 -0.49,-0.025 -0.66,-0.144 -0.175,-0.121 -0.273,-0.289 -0.292,-0.498 -0.016,-0.186 0.038,-0.346 0.159,-0.474 0.117,-0.124 0.305,-0.224 0.575,-0.308 C 0.028,-1.5 0.202,-1.57 0.301,-1.633 0.379,-1.683 0.412,-1.751 0.404,-1.846 0.396,-1.939 0.351,-2.005 0.264,-2.053 0.167,-2.106 0.04,-2.126 -0.113,-2.112 c -0.165,0.014 -0.304,0.065 -0.411,0.15 -0.102,0.079 -0.15,0.195 -0.147,0.355 l 0.001,0.083 -0.453,0.001 -0.004,-0.079 c -0.012,-0.253 0.065,-0.47 0.228,-0.644 0.162,-0.173 0.418,-0.276 0.761,-0.306 0.042,-0.004 0.084,-0.006 0.124,-0.006 0.218,0 0.408,0.055 0.563,0.163 0.19,0.131 0.295,0.311 0.315,0.533 0.015,0.177 -0.023,0.325 -0.114,0.442 -0.085,0.11 -0.193,0.196 -0.321,0.256 -0.119,0.055 -0.275,0.114 -0.465,0.173 -0.25,0.079 -0.355,0.136 -0.398,0.17 -0.049,0.038 -0.069,0.089 -0.063,0.16 0.007,0.083 0.047,0.139 0.124,0.176 0.089,0.043 0.207,0.059 0.348,0.047 0.154,-0.013 0.269,-0.055 0.341,-0.124 0.071,-0.066 0.105,-0.159 0.104,-0.284 v -0.082 l 0.455,-0.003 0.004,0.079 C 0.89,-0.606 0.813,-0.405 0.65,-0.255 0.492,-0.109 0.273,-0.024 0,0"
       style="fill:#c8212b;fill-opacity:1;fill-rule:nonzero;stroke:none"
       transform="matrix(0.35277776,0,0,-0.35277776,52.248258,197.11764)"
       clip-path="url(#clipPath3550)" />
    <path
       id="path3551"
       d="M 0,0 0.461,-0.102 0.997,2.315 0.537,2.417 Z"
       style="fill:#c8212b;fill-opacity:1;fill-rule:nonzero;stroke:none"
       transform="matrix(0.35277776,0,0,-0.35277776,52.805963,198.0929)"
       clip-path="url(#clipPath3552)" />
    <path
       id="path3553"
       d="m 0,0 0.713,-0.257 -0.689,-1.917 0.444,-0.159 0.69,1.916 0.719,-0.258 0.149,0.412 -1.878,0.676 z"
       style="fill:#c8212b;fill-opacity:1;fill-rule:nonzero;stroke:none"
       transform="matrix(0.35277776,0,0,-0.35277776,53.454051,197.5052)"
       clip-path="url(#clipPath3554)" />
    <path
       id="path3555"
       d="m 0,0 c -0.515,-0.265 -0.849,-0.44 -1.023,-0.536 -0.001,0.087 -0.004,0.16 -0.008,0.223 l -0.065,0.971 -0.497,0.279 0.134,-1.726 -0.507,-0.904 0.411,-0.231 0.507,0.903 1.573,0.768 -0.486,0.273 z"
       style="fill:#c8212b;fill-opacity:1;fill-rule:nonzero;stroke:none"
       transform="matrix(0.35277776,0,0,-0.35277776,54.970643,198.03102)"
       clip-path="url(#clipPath3556)" />
    <path
       id="path3557"
       d="m 0,0 c -0.028,-0.195 -0.151,-0.384 -0.366,-0.56 -0.2,-0.163 -0.398,-0.246 -0.587,-0.246 l -0.026,0.001 c -0.197,0.008 -0.357,0.091 -0.491,0.255 -0.134,0.163 -0.183,0.337 -0.151,0.532 0.032,0.197 0.144,0.376 0.335,0.532 0.22,0.18 0.426,0.272 0.61,0.272 0.013,0 0.026,-0.001 0.039,-0.002 0.195,-0.013 0.355,-0.098 0.488,-0.26 C -0.021,0.367 0.028,0.196 0,0 M 0.445,-0.09 C 0.487,0.23 0.397,0.529 0.178,0.796 -0.043,1.067 -0.319,1.216 -0.64,1.238 -0.959,1.26 -1.277,1.143 -1.586,0.89 -1.853,0.671 -2.014,0.399 -2.063,0.079 c -0.05,-0.323 0.039,-0.626 0.265,-0.901 0.218,-0.266 0.491,-0.413 0.813,-0.437 0.028,-0.002 0.057,-0.003 0.085,-0.003 0.29,0 0.572,0.111 0.839,0.329 0.293,0.241 0.464,0.524 0.506,0.843"
       style="fill:#c8212b;fill-opacity:1;fill-rule:nonzero;stroke:none"
       transform="matrix(0.35277776,0,0,-0.35277776,56.522125,199.68724)"
       clip-path="url(#clipPath3558)" />
    <path
       id="path3559"
       d="M 0,0 0.383,0.214 -0.147,1.162 0.334,1.431 0.946,0.338 1.329,0.552 0.487,2.056 -1.674,0.847 -1.444,0.437 -0.53,0.948 Z"
       style="fill:#c8212b;fill-opacity:1;fill-rule:nonzero;stroke:none"
       transform="matrix(0.35277776,0,0,-0.35277776,56.885909,200.80534)"
       clip-path="url(#clipPath3560)" />
    <path
       id="path3561"
       d="m 0,0 c -0.205,-0.245 -0.261,-0.568 -0.164,-0.961 0.061,-0.244 0.182,-0.441 0.359,-0.584 0.179,-0.143 0.414,-0.217 0.699,-0.22 l 0.083,-0.001 0.003,0.48 -0.104,-10e-4 c -0.174,0 -0.314,0.037 -0.417,0.109 -0.106,0.075 -0.176,0.188 -0.215,0.346 -0.048,0.191 -0.019,0.359 0.087,0.51 0.106,0.153 0.308,0.267 0.599,0.339 C 1.181,0.079 1.396,0.071 1.57,-0.008 1.739,-0.084 1.848,-0.229 1.903,-0.45 1.935,-0.583 1.929,-0.698 1.882,-0.801 1.836,-0.904 1.747,-0.997 1.618,-1.075 l -0.066,-0.04 0.216,-0.418 0.074,0.043 c 0.215,0.124 0.364,0.288 0.443,0.487 0.079,0.198 0.09,0.417 0.032,0.652 C 2.235,-0.02 2.057,0.228 1.787,0.386 1.518,0.544 1.189,0.577 0.812,0.484 0.472,0.4 0.199,0.237 0,0"
       style="fill:#c8212b;fill-opacity:1;fill-rule:nonzero;stroke:none"
       transform="matrix(0.35277776,0,0,-0.35277776,57.015377,201.78758)"
       clip-path="url(#clipPath3562)" />
    <path
       id="path3563"
       d="M 0,0 1.086,0.065 1.148,-0.97 0.062,-1.035 0.09,-1.506 2.561,-1.359 2.533,-0.888 1.585,-0.944 1.524,0.091 2.471,0.147 2.443,0.617 -0.028,0.47 Z"
       style="fill:#c8212b;fill-opacity:1;fill-rule:nonzero;stroke:none"
       transform="matrix(0.35277776,0,0,-0.35277776,57.100962,202.88465)"
       clip-path="url(#clipPath3564)" />
    <path
       id="path3565"
       d="M 0,0 2.469,-0.188 2.505,0.283 0.036,0.471 Z"
       style="fill:#c8212b;fill-opacity:1;fill-rule:nonzero;stroke:none"
       transform="matrix(0.35277776,0,0,-0.35277776,57.099235,203.89435)"
       clip-path="url(#clipPath3566)" />
    <path
       id="path3567"
       d="m 0,0 1.597,-0.345 -1.827,-0.718 -0.093,-0.43 2.42,-0.523 0.096,0.445 -1.597,0.346 1.827,0.718 0.093,0.428 -2.42,0.523 z"
       style="fill:#c8212b;fill-opacity:1;fill-rule:nonzero;stroke:none"
       transform="matrix(0.35277776,0,0,-0.35277776,57.03891,204.36039)"
       clip-path="url(#clipPath3568)" />
    <path
       id="path3569"
       d="M 0,0 0.209,0.507 0.663,0.084 C 0.703,0.047 0.745,0.011 0.79,-0.025 0.719,-0.022 0.455,-0.013 0,0 m -0.665,1.302 0.553,-0.504 -0.324,-0.787 -0.753,0.018 -0.2,-0.485 2.674,-0.009 0.168,0.408 -1.927,1.822 z"
       style="fill:#c8212b;fill-opacity:1;fill-rule:nonzero;stroke:none"
       transform="matrix(0.35277776,0,0,-0.35277776,57.043106,205.68949)"
       clip-path="url(#clipPath3570)" />
  </g>
</svg>
