<?xml version="1.0" encoding="utf-8"?>
<!-- Generator: Adobe Illustrator 28.0.0, SVG Export Plug-In . SVG Version: 6.00 Build 0)  -->
<svg version="1.1" id="svg1" xmlns:svg="http://www.w3.org/2000/svg"
	 xmlns="http://www.w3.org/2000/svg" xmlns:xlink="http://www.w3.org/1999/xlink" x="0px" y="0px" viewBox="0 0 44.4 34"
	 style="enable-background:new 0 0 44.4 34;" xml:space="preserve">
<style type="text/css">
	.st0{clip-path:url(#SVGID_00000041976112561487967080000015786447662599648643_);fill:#FFFFFF;}
	.st1{clip-path:url(#SVGID_00000055676597853561733320000002143181554823082658_);fill:#FFFFFF;}
	.st2{clip-path:url(#SVGID_00000146496713984433462690000009374152721747256511_);fill:#E41B2F;}
	.st3{clip-path:url(#SVGID_00000036932818714930053730000001350530474117163199_);fill:#E41B2F;}
	.st4{clip-path:url(#SVGID_00000073683040465011369110000018387723714693423761_);fill:#E41B2F;}
	.st5{clip-path:url(#SVGID_00000044136811945312188620000009937608023121761213_);fill:#E41B2F;}
	.st6{clip-path:url(#SVGID_00000078018252605914019860000010766065910509118143_);fill:#E41B2F;}
	.st7{clip-path:url(#SVGID_00000010302701181261448550000012472032595032086183_);fill:#E41B2F;}
	.st8{clip-path:url(#SVGID_00000134972197818532519290000003960558003774708128_);fill:#E41B2F;}
	.st9{clip-path:url(#SVGID_00000045598224002798583300000004192078300960414909_);fill:#76BD22;}
	.st10{clip-path:url(#SVGID_00000046319097255694324630000013178664264585331587_);fill:#2A8DD4;}
	.st11{clip-path:url(#SVGID_00000090997815441504019550000002875248552614834831_);fill:#2A8DD4;}
</style>
<g id="layer1" transform="translate(-20.599837,-108.94587)">
	<g>
		<defs>
			<rect id="SVGID_1_" x="-56.6" y="-396.6" width="1207.6" height="858.9"/>
		</defs>
		<clipPath id="SVGID_00000168839312385755650840000017560004375476860576_">
			<use xlink:href="#SVGID_1_"  style="overflow:visible;"/>
		</clipPath>
		<path id="path948" style="clip-path:url(#SVGID_00000168839312385755650840000017560004375476860576_);fill:#FFFFFF;" d="
			M62,114.9c-6.6-7.5-18.1-5.8-18.1-5.8c-10.7,1.1-16.1,7.7-16.1,7.7c-11.6,8.8-5.6,18.1-5.6,18.1c5.1,8.5,16.4,8,16.4,8
			c12.9,0,19.3-7.9,19.3-7.9c3.4-2.3,5.3-5.8,5.3-5.8C67.9,120.8,62,114.9,62,114.9"/>
	</g>
	<g>
		<defs>
			<rect id="SVGID_00000098931718612551452450000002411341252138013335_" x="-56.6" y="-396.6" width="1207.6" height="858.9"/>
		</defs>
		<clipPath id="SVGID_00000108286660303517529170000002363600742859012781_">
			<use xlink:href="#SVGID_00000098931718612551452450000002411341252138013335_"  style="overflow:visible;"/>
		</clipPath>
		<path id="path950" style="clip-path:url(#SVGID_00000108286660303517529170000002363600742859012781_);fill:#FFFFFF;" d="
			M45.1,110c-6.8,0.4-13,3.4-16.7,7.5l0,0l0,0c0,0,0,0,0,0v0l0,0l0,0c-4,2.9-6.5,6.8-6.8,11c-0.4,8.1,8,14.1,18.9,13.4
			c6.8-0.4,13-3.4,16.7-7.6l0,0l0,0l0,0l0,0l0,0l0,0c3.9-2.9,6.5-6.8,6.7-11C64.4,115.3,56,109.3,45.1,110"/>
	</g>
	<g>
		<defs>
			<rect id="SVGID_00000091736546962455936260000012089797190747029927_" x="-56.6" y="-396.6" width="1207.6" height="858.9"/>
		</defs>
		<clipPath id="SVGID_00000064349870745966428630000017956979668322858923_">
			<use xlink:href="#SVGID_00000091736546962455936260000012089797190747029927_"  style="overflow:visible;"/>
		</clipPath>
		<path id="path952" style="clip-path:url(#SVGID_00000064349870745966428630000017956979668322858923_);fill:#E41B2F;" d="M51,123
			H49c-0.1,0-0.2-0.1-0.2-0.3l0.2-1.2c0-0.1,0.1-0.2,0.2-0.2h2c0.1,0,0.2-0.1,0.2-0.2l0.2-0.9c0-0.1-0.1-0.2-0.2-0.2h-6.2
			c-0.1,0-0.2,0.1-0.2,0.2l-0.2,0.9c0,0.1,0.1,0.3,0.2,0.3h1.8c0.1,0,0.2,0.1,0.2,0.3l-0.2,1.2c0,0.1-0.1,0.2-0.2,0.2l-2.3,0
			c-0.1,0-0.2,0.1-0.2,0.2l-0.2,0.9c0,0.1,0.1,0.2,0.2,0.2h2.1c0.1,0,0.2,0.1,0.2,0.2c0,0-1,5.7-1.2,7c0,0.1,0.1,0.2,0.2,0.2H47
			c0.1,0,0.2-0.1,0.2-0.2l1.3-7.1c0-0.1,0.1-0.2,0.2-0.2h2.2c0.1,0,0.2-0.1,0.2-0.2l0.2-0.9C51.3,123.2,51.2,123,51,123"/>
	</g>
	<g>
		<defs>
			<rect id="SVGID_00000013910668445628497100000008121797932691577758_" x="-56.6" y="-396.6" width="1207.6" height="858.9"/>
		</defs>
		<clipPath id="SVGID_00000088834502753970506340000014364210527309229995_">
			<use xlink:href="#SVGID_00000013910668445628497100000008121797932691577758_"  style="overflow:visible;"/>
		</clipPath>
		<path id="path954" style="clip-path:url(#SVGID_00000088834502753970506340000014364210527309229995_);fill:#E41B2F;" d="
			M57.2,119.8h-1.4c-0.1,0-0.2,0.1-0.2,0.2c-0.2,1.3-1.7,9.5-1.7,9.7c-0.1,0.5-0.5,1.4-1,1.9c-0.1,0.1,0,0.4,0.2,0.4
			c1.3-0.1,2.5-1.5,2.7-2.6c0.3-2,1.4-8.1,1.6-9.3C57.4,120,57.3,119.8,57.2,119.8"/>
	</g>
	<g>
		<defs>
			<rect id="SVGID_00000093153017352063915870000009312967056538692745_" x="-56.6" y="-396.6" width="1207.6" height="858.9"/>
		</defs>
		<clipPath id="SVGID_00000049922165256189760630000011672562250702648469_">
			<use xlink:href="#SVGID_00000093153017352063915870000009312967056538692745_"  style="overflow:visible;"/>
		</clipPath>
		<path id="path956" style="clip-path:url(#SVGID_00000049922165256189760630000011672562250702648469_);fill:#E41B2F;" d="
			M45.6,125.3c0-0.1-0.1-0.2-0.2-0.2h-1.1c-0.1,0-0.2,0.1-0.2,0.2c-0.1,0.4-0.3,1.8-0.4,2.2c-0.4,1.7-0.7,2.3-1.2,2.8
			c-0.1,0.2,0,0.4,0.3,0.3c2-0.5,2.3-2.2,2.4-3.2C45.3,127,45.5,125.7,45.6,125.3"/>
	</g>
	<g>
		<defs>
			<rect id="SVGID_00000060715018668276637980000014384019864940843173_" x="-56.6" y="-396.6" width="1207.6" height="858.9"/>
		</defs>
		<clipPath id="SVGID_00000129202146012384112110000010858741329638836926_">
			<use xlink:href="#SVGID_00000060715018668276637980000014384019864940843173_"  style="overflow:visible;"/>
		</clipPath>
		<path id="path958" style="clip-path:url(#SVGID_00000129202146012384112110000010858741329638836926_);fill:#E41B2F;" d="
			M50.6,125.3c0-0.1-0.1-0.2-0.2-0.2h-1.1c-0.1,0-0.2,0.1-0.2,0.2c-0.1,0.4-0.3,1.8-0.4,2.1c-0.2,1-0.4,2.7,1.4,3.2
			c0.2,0.1,0.4-0.1,0.3-0.3c-0.6-1.1-0.3-2.6-0.2-2.9C50.3,127,50.6,125.7,50.6,125.3"/>
	</g>
	<g>
		<defs>
			<rect id="SVGID_00000049222965216963302500000012559528722449486511_" x="-56.6" y="-396.6" width="1207.6" height="858.9"/>
		</defs>
		<clipPath id="SVGID_00000143616679843705666160000014391015355532673961_">
			<use xlink:href="#SVGID_00000049222965216963302500000012559528722449486511_"  style="overflow:visible;"/>
		</clipPath>
		<path id="path960" style="clip-path:url(#SVGID_00000143616679843705666160000014391015355532673961_);fill:#E41B2F;" d="
			M53.1,128.3l1.1-6.2c0-0.1-0.1-0.2-0.2-0.2h-1.4c-0.1,0-0.2,0.1-0.2,0.2l-1.1,6.2c0,0.1,0.1,0.3,0.2,0.3h1.4
			C53,128.5,53.1,128.4,53.1,128.3"/>
	</g>
	<g>
		<defs>
			<rect id="SVGID_00000156570525243081896360000001832237418007653278_" x="-56.6" y="-396.6" width="1207.6" height="858.9"/>
		</defs>
		<clipPath id="SVGID_00000070810551064069270420000001839016476508139180_">
			<use xlink:href="#SVGID_00000156570525243081896360000001832237418007653278_"  style="overflow:visible;"/>
		</clipPath>
		<path id="path962" style="clip-path:url(#SVGID_00000070810551064069270420000001839016476508139180_);fill:#E41B2F;" d="
			M31.2,124.2h-0.6c1.2-1.5,1.9-3.2,2.1-4c0-0.1-0.1-0.3-0.2-0.3H31c-0.1,0-0.2,0.1-0.2,0.2c-0.8,2.8-2.5,5.3-3.4,6.3
			c-0.2,0.2,0,0.4,0.3,0.3c0.6-0.3,1.1-0.6,1.6-1.1l-1,5.9c0,0.1,0.1,0.3,0.2,0.3h1.5c0.1,0,0.2-0.1,0.2-0.2l1.3-7.3
			C31.4,124.3,31.3,124.2,31.2,124.2"/>
	</g>
	<g>
		<defs>
			<rect id="SVGID_00000106116048282137195090000003350855083139187633_" x="-56.6" y="-396.6" width="1207.6" height="858.9"/>
		</defs>
		<clipPath id="SVGID_00000059278971460879105820000014073202949373881272_">
			<use xlink:href="#SVGID_00000106116048282137195090000003350855083139187633_"  style="overflow:visible;"/>
		</clipPath>
		<path id="path964" style="clip-path:url(#SVGID_00000059278971460879105820000014073202949373881272_);fill:#E41B2F;" d="M42,123
			h-0.5c-0.1,0-0.2-0.1-0.2-0.3l0.3-1.7c0.1-0.5-0.3-1-0.8-1h-7.5c-0.1,0-0.2,0.1-0.2,0.2l-0.2,0.9c0,0.1,0.1,0.2,0.2,0.2h2.4
			c0.1,0,0.2,0.1,0.2,0.2l-0.2,1.2c0,0.1-0.1,0.2-0.2,0.2h-2.6c-0.1,0-0.2,0.1-0.2,0.2l-0.2,0.9c0,0.1,0.1,0.2,0.2,0.2h2.4
			c0.1,0,0.2,0.1,0.2,0.3l-0.2,1.3c0,0.1-0.1,0.2-0.2,0.2l-2.5,0c-0.1,0-0.2,0.1-0.2,0.2l-0.2,0.9c0,0.1,0.1,0.3,0.2,0.3l2.4,0
			c0.1,0,0.2,0.1,0.2,0.3c-0.1,0.7-0.7,2.8-2.1,4c-0.2,0.1-0.1,0.4,0.2,0.4c2.8-0.4,3.5-3,3.8-4.5c0-0.1,0.1-0.2,0.2-0.2h2.3
			c0.8,0,1.5-0.6,1.7-1.4l0.3-1.4c0-0.1,0.1-0.2,0.2-0.2h0.6c0.1,0,0.2-0.1,0.2-0.2l0.2-0.9C42.3,123.2,42.2,123,42,123 M39,125.7
			c0,0.2-0.2,0.3-0.4,0.3h-1.4c-0.1,0-0.2-0.1-0.2-0.2l0.2-1.3c0-0.1,0.1-0.2,0.2-0.2H39c0.1,0,0.2,0.1,0.2,0.3L39,125.7z
			 M39.5,122.9c0,0.1-0.1,0.2-0.2,0.2h-1.6c-0.1,0-0.2-0.1-0.2-0.2l0.2-1.2c0-0.1,0.1-0.2,0.2-0.2c0.5,0,1.2,0,1.6,0
			c0.1,0,0.2,0.1,0.2,0.3L39.5,122.9z"/>
	</g>
	<g>
		<defs>
			<rect id="SVGID_00000183934328653979884400000001198530422168671924_" x="-56.6" y="-396.6" width="1207.6" height="858.9"/>
		</defs>
		<clipPath id="SVGID_00000132051358178435618710000016383018030881510322_">
			<use xlink:href="#SVGID_00000183934328653979884400000001198530422168671924_"  style="overflow:visible;"/>
		</clipPath>
		<path id="path966" style="clip-path:url(#SVGID_00000132051358178435618710000016383018030881510322_);fill:#76BD22;" d="
			M24.7,125.8c0.2-3,1.5-5.8,3.7-8.3c-4,2.9-6.5,6.8-6.8,11c-0.4,8.1,8,14.1,18.9,13.4c6.8-0.4,13-3.4,16.7-7.6
			c-3.6,2.7-8.5,4.5-13.7,4.8C32.7,139.9,24.2,133.9,24.7,125.8"/>
	</g>
	<g>
		<defs>
			<rect id="SVGID_00000078747766716718314120000002495020968348904619_" x="-56.6" y="-396.6" width="1207.6" height="858.9"/>
		</defs>
		<clipPath id="SVGID_00000047026754765420012760000001179455397694613923_">
			<use xlink:href="#SVGID_00000078747766716718314120000002495020968348904619_"  style="overflow:visible;"/>
		</clipPath>
		<path id="path968" style="clip-path:url(#SVGID_00000047026754765420012760000001179455397694613923_);fill:#2A8DD4;" d="
			M45.1,110c-6.8,0.4-13,3.4-16.7,7.6c3.6-2.7,8.5-4.5,13.7-4.8c10.9-0.7,19.3,5.3,18.9,13.4c-0.2,3-1.5,5.8-3.7,8.3
			c4-2.9,6.5-6.8,6.8-11C64.4,115.3,56,109.3,45.1,110"/>
	</g>
	<g>
		<defs>
			<rect id="SVGID_00000157267087139433323880000012222840739221423509_" x="-56.6" y="-396.6" width="1207.6" height="858.9"/>
		</defs>
		<clipPath id="SVGID_00000067207649999495339790000010292028763297051050_">
			<use xlink:href="#SVGID_00000157267087139433323880000012222840739221423509_"  style="overflow:visible;"/>
		</clipPath>
		<path id="path970" style="clip-path:url(#SVGID_00000067207649999495339790000010292028763297051050_);fill:#2A8DD4;" d="
			M61.1,138c-0.1,0-0.2-0.1-0.4-0.1h-0.3v0.7h0.3c0.1,0,0.2,0,0.3,0c0.1-0.1,0.2-0.1,0.2-0.3C61.2,138.1,61.2,138,61.1,138
			 M60.7,137.7c0.2,0,0.4,0,0.5,0.1c0.2,0.1,0.3,0.2,0.3,0.5c0,0.2-0.1,0.3-0.2,0.4c-0.1,0-0.2,0.1-0.3,0.1c0.1,0,0.3,0.1,0.3,0.2
			c0.1,0.1,0.1,0.2,0.1,0.3v0.1c0,0,0,0.1,0,0.1c0,0.1,0,0.1,0,0.1l0,0h-0.3c0,0,0,0,0,0c0,0,0,0,0,0l0-0.1v-0.1
			c0-0.2-0.1-0.4-0.2-0.4c-0.1,0-0.2-0.1-0.4-0.1h-0.3v0.7h-0.3v-1.9H60.7z M59.7,137.6c-0.3,0.3-0.4,0.6-0.4,1c0,0.4,0.1,0.8,0.4,1
			c0.3,0.3,0.6,0.4,1,0.4c0.4,0,0.8-0.1,1-0.4c0.3-0.3,0.4-0.6,0.4-1c0-0.4-0.1-0.7-0.4-1c-0.3-0.3-0.6-0.4-1-0.4
			C60.3,137.1,60,137.3,59.7,137.6 M62,139.8c-0.3,0.3-0.7,0.5-1.2,0.5c-0.5,0-0.9-0.2-1.2-0.5c-0.3-0.3-0.5-0.7-0.5-1.2
			c0-0.5,0.2-0.9,0.5-1.2c0.3-0.3,0.7-0.5,1.2-0.5c0.5,0,0.9,0.2,1.2,0.5c0.3,0.3,0.5,0.7,0.5,1.2C62.5,139.1,62.3,139.5,62,139.8"
			/>
	</g>
</g>
</svg>
