<?xml version="1.0" encoding="UTF-8" standalone="no"?>
<!-- Created with Inkscape (http://www.inkscape.org/) -->

<svg
   width="22.210474mm"
   height="9.0000076mm"
   viewBox="0 0 22.210474 9.0000076"
   version="1.1"
   id="svg1"
   xmlns="http://www.w3.org/2000/svg"
   xmlns:svg="http://www.w3.org/2000/svg">
  <defs
     id="defs1">
    <clipPath
       clipPathUnits="userSpaceOnUse"
       id="clipPath825">
      <path
         d="M 0,858.898 H 1207.558 V 0 H 0 Z"
         transform="translate(-501.32922,-492.63141)"
         id="path825" />
    </clipPath>
    <clipPath
       clipPathUnits="userSpaceOnUse"
       id="clipPath827">
      <path
         d="M 0,858.898 H 1207.558 V 0 H 0 Z"
         transform="translate(-510.78121,-497.42921)"
         id="path827" />
    </clipPath>
    <clipPath
       clipPathUnits="userSpaceOnUse"
       id="clipPath829">
      <path
         d="M 0,858.898 H 1207.558 V 0 H 0 Z"
         transform="translate(-527.64462,-497.42881)"
         id="path829" />
    </clipPath>
    <clipPath
       clipPathUnits="userSpaceOnUse"
       id="clipPath831">
      <path
         d="M 0,858.898 H 1207.558 V 0 H 0 Z"
         transform="translate(-500.99931,-480.02971)"
         id="path831" />
    </clipPath>
    <clipPath
       clipPathUnits="userSpaceOnUse"
       id="clipPath833">
      <path
         d="M 0,858.898 H 1207.558 V 0 H 0 Z"
         transform="translate(-517.51641,-480.02401)"
         id="path833" />
    </clipPath>
    <clipPath
       clipPathUnits="userSpaceOnUse"
       id="clipPath835">
      <path
         d="M 0,858.898 H 1207.558 V 0 H 0 Z"
         transform="translate(-521.61822,-480.02891)"
         id="path835" />
    </clipPath>
    <clipPath
       clipPathUnits="userSpaceOnUse"
       id="clipPath837">
      <path
         d="M 0,858.898 H 1207.558 V 0 H 0 Z"
         transform="translate(-525.00901,-480.02661)"
         id="path837" />
    </clipPath>
    <clipPath
       clipPathUnits="userSpaceOnUse"
       id="clipPath839">
      <path
         d="M 0,858.898 H 1207.558 V 0 H 0 Z"
         transform="translate(-493.21041,-479.98341)"
         id="path839" />
    </clipPath>
    <clipPath
       clipPathUnits="userSpaceOnUse"
       id="clipPath841">
      <path
         d="M 0,858.898 H 1207.558 V 0 H 0 Z"
         transform="translate(-507.00271,-477.63971)"
         id="path841" />
    </clipPath>
    <clipPath
       clipPathUnits="userSpaceOnUse"
       id="clipPath843">
      <path
         d="M 0,858.898 H 1207.558 V 0 H 0 Z"
         transform="translate(-511.50381,-475.49211)"
         id="path843" />
    </clipPath>
    <clipPath
       clipPathUnits="userSpaceOnUse"
       id="clipPath845">
      <path
         d="M 0,858.898 H 1207.558 V 0 H 0 Z"
         transform="translate(-514.68792,-477.24491)"
         id="path845" />
    </clipPath>
    <clipPath
       clipPathUnits="userSpaceOnUse"
       id="clipPath847">
      <path
         d="M 0,858.898 H 1207.558 V 0 H 0 Z"
         transform="translate(-489.39881,-476.73751)"
         id="path847" />
    </clipPath>
    <clipPath
       clipPathUnits="userSpaceOnUse"
       id="clipPath849">
      <path
         d="M 0,858.898 H 1207.558 V 0 H 0 Z"
         transform="translate(-502.48321,-475.39051)"
         id="path849" />
    </clipPath>
    <clipPath
       clipPathUnits="userSpaceOnUse"
       id="clipPath851">
      <path
         d="M 0,858.898 H 1207.558 V 0 H 0 Z"
         transform="translate(-506.66581,-474.44501)"
         id="path851" />
    </clipPath>
    <clipPath
       clipPathUnits="userSpaceOnUse"
       id="clipPath853">
      <path
         d="M 0,858.898 H 1207.558 V 0 H 0 Z"
         transform="translate(-502.29642,-474.26571)"
         id="path853" />
    </clipPath>
    <clipPath
       clipPathUnits="userSpaceOnUse"
       id="clipPath855">
      <path
         d="M 0,858.898 H 1207.558 V 0 H 0 Z"
         transform="translate(-503.62431,-474.26701)"
         id="path855" />
    </clipPath>
  </defs>
  <g
     id="layer1"
     transform="translate(-101.07083,-87.57709)">
    <path
       id="path824"
       d="m 0,0 c -0.118,-0.142 -0.197,-0.31 -0.281,-0.473 -0.403,-0.778 -0.841,-1.538 -1.237,-2.318 1.48,0.025 2.962,0 4.442,0.013 C 2.557,-1.957 2.197,-1.132 1.816,-0.317 1.674,0.01 1.379,0.281 1.023,0.344 0.654,0.42 0.245,0.289 0,0 m -16.731,4.418 c 0.654,0.221 1.339,0.359 2.029,0.399 1.162,0.017 2.326,0.015 3.489,0.01 1.842,0.004 3.684,-0.004 5.526,-0.021 0.006,-0.464 0.01,-0.93 -0.008,-1.395 -1.868,0.011 -3.737,0.004 -5.605,0.004 -0.648,0.007 -1.298,-0.09 -1.908,-0.31 -1.45,-0.552 -2.603,-1.823 -3.006,-3.323 -0.433,-1.486 -0.061,-3.165 0.918,-4.358 0.49,-0.581 1.087,-1.085 1.789,-1.389 0.621,-0.284 1.303,-0.436 1.986,-0.437 1.516,0.002 3.032,0.002 4.547,0.003 0.282,-0.002 0.574,0.007 0.835,0.129 0.356,0.127 0.643,0.396 0.824,0.726 1.67,3.142 3.339,6.285 5.012,9.425 0.284,0.467 0.757,0.866 1.319,0.904 C 2.062,4.807 3.109,4.801 4.157,4.793 4.482,4.792 4.807,4.708 5.091,4.55 5.409,4.368 5.636,4.06 5.769,3.724 7.346,-0.112 8.931,-3.944 10.509,-7.778 9.348,-7.763 8.187,-7.777 7.026,-7.774 6.705,-7.769 6.383,-7.794 6.063,-7.77 5.545,-7.727 5.027,-7.43 4.817,-6.94 4.395,-6.021 3.98,-5.097 3.572,-4.172 c -1.908,0.028 -3.821,-0.013 -5.731,0.011 -0.11,0.03 -0.141,-0.092 -0.187,-0.164 -0.396,-0.752 -0.816,-1.493 -1.181,-2.26 -0.37,-0.765 -1.236,-1.242 -2.078,-1.19 -2.753,0.007 -5.506,0.01 -8.259,0.002 -0.527,0.006 -1.057,-0.028 -1.579,0.061 -1.485,0.206 -2.925,0.847 -4.007,1.895 -0.501,0.46 -0.904,1.02 -1.202,1.63 -0.574,1.112 -0.725,2.421 -0.489,3.644 0.172,0.952 0.603,1.846 1.179,2.619 0.828,1.064 1.963,1.885 3.231,2.342"
       style="fill:#2a4491;fill-opacity:1;fill-rule:nonzero;stroke:none"
       transform="matrix(0.35277776,0,0,-0.35277776,108.56663,89.281188)"
       clip-path="url(#clipPath825)" />
    <path
       id="path826"
       d="m 0,0 c 1.149,0.042 2.3,0.014 3.449,0.019 0.427,-0.004 0.854,0.01 1.28,-0.007 0.176,0.014 0.353,0.007 0.529,-0.008 0.574,-0.01 1.147,0.004 1.721,0.016 2.636,0.003 5.271,0 7.907,0 0.251,-0.006 0.503,0.009 0.754,-0.017 0.015,-0.445 10e-4,-0.89 0.004,-1.335 -1.531,-0.007 -3.063,0 -4.594,-0.006 -0.197,0.006 -0.422,-0.156 -0.397,-0.371 10e-4,-1.885 -0.009,-3.771 0.004,-5.656 0.012,-1.471 0.022,-2.942 0.033,-4.414 -0.002,-0.263 0.007,-0.526 -0.007,-0.788 -0.674,-0.032 -1.348,0.009 -2.022,-0.003 C 7.493,-12.571 6.325,-12.575 5.158,-12.581 5.131,-9.047 5.157,-5.512 5.145,-1.978 5.137,-1.819 5.178,-1.645 5.09,-1.502 5.039,-1.419 4.944,-1.388 4.863,-1.347 3.817,-1.323 2.77,-1.338 1.724,-1.337 1.16,-1.336 0.595,-1.365 0.033,-1.33 -0.003,-0.888 -0.004,-0.443 0,0"
       style="fill:#2a4491;fill-opacity:1;fill-rule:nonzero;stroke:none"
       transform="matrix(0.35277776,0,0,-0.35277776,111.90109,87.588629)"
       clip-path="url(#clipPath827)" />
    <path
       id="path828"
       d="M 0,0 C 1.047,0.037 2.095,0.02 3.143,0.022 4.236,0.017 5.33,0.03 6.423,0.013 6.415,-2.445 6.415,-4.903 6.416,-7.362 6.419,-8.466 6.41,-9.571 6.427,-10.676 c -0.027,-0.28 0.235,-0.542 0.515,-0.52 2.813,-0.005 5.627,0.007 8.441,-0.01 0.015,-0.452 0.02,-0.905 -0.005,-1.356 -2.4,-0.011 -4.799,10e-4 -7.198,-0.003 -2.209,-0.007 -4.418,-0.013 -6.626,-0.008 -0.381,0.006 -0.738,0.188 -1.027,0.426 -0.325,0.31 -0.544,0.751 -0.527,1.207 -0.01,2.531 -0.003,5.062 -0.004,7.593 C 0.001,-2.232 -0.015,-1.116 0,0"
       style="fill:#2a4491;fill-opacity:1;fill-rule:nonzero;stroke:none"
       transform="matrix(0.35277776,0,0,-0.35277776,117.85012,87.588772)"
       clip-path="url(#clipPath829)" />
    <path
       id="path830"
       d="M 0,0 C 0.387,-0.006 0.774,-0.003 1.161,-0.008 1.066,-0.408 0.994,-0.823 0.783,-1.183 0.672,-1.365 0.563,-1.549 0.424,-1.711 0.378,-1.761 0.349,-1.821 0.325,-1.882 0.613,-1.886 0.899,-1.864 1.187,-1.869 1.138,-2.209 1.031,-2.54 0.901,-2.858 0.836,-3.026 0.697,-3.162 0.671,-3.344 0.665,-4.806 0.677,-6.268 0.664,-7.73 0.675,-7.85 0.61,-7.951 0.542,-8.042 0.178,-8.076 -0.192,-8.063 -0.557,-8.051 c -0.006,1.244 0.011,2.488 -0.005,3.731 -0.196,-0.071 -0.362,-0.205 -0.563,-0.266 0.002,0.446 -0.003,0.893 0,1.339 0.443,0.24 0.821,0.594 1.098,1.014 0.012,0.028 0.034,0.083 0.045,0.111 -0.377,-0.218 -0.733,-0.476 -1.14,-0.637 -0.008,0.456 0.003,0.912 -0.007,1.367 0.25,0.154 0.506,0.31 0.691,0.543 C -0.242,-0.597 -0.075,-0.313 0,0"
       style="fill:#2a4491;fill-opacity:1;fill-rule:nonzero;stroke:none"
       transform="matrix(0.35277776,0,0,-0.35277776,108.45025,93.726788)"
       clip-path="url(#clipPath831)" />
    <path
       id="path832"
       d="M 0,0 C 0.435,0.008 0.872,0 1.308,-0.001 1.314,-0.208 1.286,-0.416 1.316,-0.622 1.558,-0.636 1.801,-0.628 2.043,-0.643 2.028,-0.941 2.048,-1.24 2.028,-1.538 1.793,-1.539 1.552,-1.498 1.322,-1.539 1.285,-2.035 1.309,-2.534 1.299,-3.031 1.29,-4.003 1.302,-4.974 1.305,-5.946 1.298,-6.429 1.328,-6.915 1.276,-7.397 1.167,-7.759 0.817,-8.073 0.424,-8.049 c -0.948,10e-4 -1.896,-0.015 -2.844,0.01 -0.085,0.255 -0.046,0.529 -0.061,0.794 0.675,0.011 1.35,-0.002 2.024,0.009 0.089,0.002 0.176,0.03 0.26,0.058 0.172,0.098 0.193,0.304 0.189,0.482 0.002,1.339 0.005,2.678 0.001,4.017 -0.011,0.312 0.018,0.626 -0.03,0.936 -0.044,0.158 -0.225,0.222 -0.375,0.222 -0.899,0.013 -1.797,0.002 -2.696,0.003 -0.058,0.011 -0.138,-0.02 -0.182,0.027 -0.004,0.286 0.006,0.572 10e-4,0.859 1.093,0.013 2.186,-0.011 3.278,0.013 C -0.008,-0.412 -0.006,-0.206 0,0"
       style="fill:#2a4491;fill-opacity:1;fill-rule:nonzero;stroke:none"
       transform="matrix(0.35277776,0,0,-0.35277776,114.27712,93.728799)"
       clip-path="url(#clipPath833)" />
    <path
       id="path834"
       d="M 0,0 C 0.391,-0.007 0.782,0 1.173,0.002 1.224,-0.779 1.031,-1.563 0.654,-2.245 0.639,-3.979 0.647,-5.715 0.645,-7.449 0.637,-7.658 0.696,-7.917 0.488,-8.051 c -0.378,-0.023 -0.757,0 -1.135,-0.005 -0.014,1.583 -0.008,3.166 -0.003,4.749 -0.217,-0.058 -0.402,-0.199 -0.613,-0.274 -0.004,0.431 -0.005,0.863 -0.002,1.294 0.008,0.086 -0.016,0.201 0.074,0.251 0.411,0.299 0.746,0.708 0.935,1.181 C -0.145,-0.579 -0.065,-0.291 0,0"
       style="fill:#2a4491;fill-opacity:1;fill-rule:nonzero;stroke:none"
       transform="matrix(0.35277776,0,0,-0.35277776,115.72414,93.727069)"
       clip-path="url(#clipPath835)" />
    <path
       id="path836"
       d="m 0,0 c 0.458,0.011 0.915,-0.007 1.373,0.006 0.082,-0.629 0.143,-1.262 0.226,-1.891 0.364,-0.026 0.73,0.004 1.095,-0.014 0.135,-0.012 0.233,0.102 0.315,0.193 0.016,0.336 -0.156,0.648 -0.271,0.956 0.405,-0.017 0.811,0.01 1.216,0.001 C 4.028,-0.822 4.044,-0.93 4.083,-1.022 4.202,-1.369 4.341,-1.734 4.274,-2.107 4.173,-2.518 3.794,-2.892 3.352,-2.867 2.86,-2.865 2.367,-2.885 1.876,-2.865 2.049,-3.288 2.247,-3.7 2.437,-4.116 2.803,-4.965 3.213,-5.794 3.58,-6.643 3.8,-7.084 3.991,-7.538 4.2,-7.985 4.204,-8.004 4.213,-8.044 4.217,-8.064 3.701,-8.053 3.181,-8.081 2.667,-8.047 1.922,-6.368 1.177,-4.688 0.405,-3.021 0.379,-2.962 0.348,-2.905 0.315,-2.851 0.048,-2.887 -0.222,-2.863 -0.49,-2.868 -0.96,-2.862 -1.429,-2.882 -1.898,-2.87 -1.9,-2.544 -1.9,-2.218 -1.892,-1.893 -1.198,-1.899 -0.503,-1.895 0.191,-1.896 0.14,-1.263 0.036,-0.634 0,0"
       style="fill:#2a4491;fill-opacity:1;fill-rule:nonzero;stroke:none"
       transform="matrix(0.35277776,0,0,-0.35277776,116.92034,93.727881)"
       clip-path="url(#clipPath837)" />
    <path
       id="path838"
       d="m 0,0 c 0.567,-0.011 1.134,0.011 1.701,-0.004 0,-0.159 -0.01,-0.318 0.009,-0.476 0.901,-0.027 1.803,0.007 2.704,-0.019 0.278,-0.023 0.595,-0.066 0.791,-0.288 0.172,-0.177 0.248,-0.424 0.281,-0.664 0.001,-0.382 0.006,-0.764 -10e-4,-1.147 -0.539,-0.004 -1.079,0.003 -1.619,0.025 -0.023,0.285 0.059,0.595 -0.074,0.861 -0.165,0.238 -0.484,0.252 -0.747,0.254 -1.717,0.01 -3.435,-0.002 -5.153,-0.001 -0.037,-0.381 0.025,-0.768 -0.034,-1.145 -0.531,-0.004 -1.06,0.032 -1.591,0.024 0.003,0.696 -0.007,1.392 0.004,2.087 1.236,-0.004 2.473,0.009 3.71,0.002 C 0.001,-0.328 -0.012,-0.163 0,0"
       style="fill:#2a4491;fill-opacity:1;fill-rule:nonzero;stroke:none"
       transform="matrix(0.35277776,0,0,-0.35277776,105.7025,93.743121)"
       clip-path="url(#clipPath839)" />
    <path
       id="path840"
       d="M 0,0 C -0.05,-0.087 -0.019,-0.197 -0.027,-0.293 -0.015,-0.568 -0.053,-0.846 -0.006,-1.118 0.243,-1.12 0.495,-1.14 0.742,-1.106 0.734,-0.818 0.737,-0.53 0.725,-0.242 0.728,-0.108 0.598,-0.008 0.473,-0.001 0.316,0.007 0.157,0.011 0,0 m -1.71,-0.007 c -0.001,-0.317 -0.002,-0.634 0,-0.952 0.008,-0.051 -0.019,-0.159 0.062,-0.161 0.232,-0.014 0.466,-0.003 0.698,0 0.028,0.26 -0.006,0.521 -0.001,0.782 0.018,0.166 -0.12,0.353 -0.296,0.344 -0.155,0.002 -0.31,0.001 -0.463,-0.013 M -3.4,0.004 c -0.009,-0.373 -0.021,-0.747 0.004,-1.12 0.251,-0.013 0.503,-0.011 0.754,-0.004 0.003,0.276 -10e-4,0.553 -0.005,0.829 0.006,0.116 -0.069,0.233 -0.175,0.276 -0.191,0.032 -0.386,0.023 -0.578,0.019 m 1.519,2.31 c 0.367,0 0.733,0.006 1.1,-0.002 C -0.784,2.212 -0.784,2.111 -0.779,2.01 0.181,1.994 1.142,2.016 2.102,2.004 2.099,1.795 2.121,1.581 2.069,1.377 2.046,1.276 1.928,1.261 1.842,1.26 0.969,1.223 0.095,1.277 -0.778,1.248 -0.777,1.079 -0.792,0.909 -0.755,0.743 c 0.57,-0.01 1.14,0.005 1.71,-0.005 0.457,-0.01 0.842,-0.447 0.829,-0.897 0.009,-0.567 0.013,-1.136 0.003,-1.703 -2.078,-0.01 -4.157,0.009 -6.235,-0.011 0.004,0.87 -0.027,1.741 0.008,2.61 0.85,0.012 1.7,-0.003 2.55,0.01 0.002,0.167 0.004,0.333 -0.005,0.499 -0.889,0.015 -1.779,0 -2.668,0.008 -0.064,0.009 -0.139,-0.012 -0.195,0.025 -0.018,0.242 -0.002,0.484 -0.005,0.726 0.958,-0.006 1.915,-0.002 2.873,0.007 0.003,0.1 0.006,0.201 0.009,0.302"
       style="fill:#2a4491;fill-opacity:1;fill-rule:nonzero;stroke:none"
       transform="matrix(0.35277776,0,0,-0.35277776,110.56811,94.569925)"
       clip-path="url(#clipPath841)" />
    <path
       id="path842"
       d="m 0,0 c 0.007,-0.893 0.006,-1.787 0.005,-2.681 0.067,-0.02 0.136,-0.032 0.207,-0.028 0.323,0.007 0.647,-0.002 0.97,0.007 0.093,-0.005 0.051,0.126 0.062,0.181 C 1.231,-1.74 1.252,-0.959 1.235,-0.178 1.247,-0.012 1.081,0.145 0.916,0.131 0.635,0.141 0.353,0.147 0.072,0.141 -0.015,0.155 0.004,0.053 0,0 M 0.008,3.602 C -0.002,2.731 0.007,1.859 0.005,0.987 0.173,0.942 0.348,0.963 0.52,0.96 0.76,0.963 0.999,0.957 1.239,0.964 1.252,1.716 1.237,2.469 1.24,3.221 1.256,3.39 1.142,3.579 0.964,3.596 0.646,3.62 0.326,3.61 0.008,3.602 M -1.091,4.418 C -0.437,4.399 0.218,4.409 0.873,4.403 1.207,4.402 1.57,4.436 1.871,4.261 2.146,4.086 2.364,3.781 2.349,3.443 2.353,1.127 2.344,-1.19 2.354,-3.506 2.337,-3.515 2.303,-3.533 2.286,-3.542 1.92,-3.499 1.55,-3.53 1.182,-3.52 c -0.758,0.002 -1.516,-0.012 -2.274,0.005 -0.012,2.113 -0.003,4.227 -0.007,6.341 10e-4,0.531 -0.008,1.062 0.008,1.592"
       style="fill:#2a4491;fill-opacity:1;fill-rule:nonzero;stroke:none"
       transform="matrix(0.35277776,0,0,-0.35277776,112.156,95.327552)"
       clip-path="url(#clipPath843)" />
    <path
       id="path844"
       d="M 0,0 C 0.317,-0.008 0.635,0.015 0.952,-0.002 1.157,-0.036 1.198,-0.268 1.247,-0.434 1.405,-1.078 1.536,-1.729 1.705,-2.372 1.744,-2.584 1.823,-2.789 1.838,-3.006 1.432,-3.014 1.025,-3.003 0.618,-3.014 0.514,-2.631 0.455,-2.237 0.373,-1.849 0.24,-1.234 0.107,-0.62 0,0"
       style="fill:#2a4491;fill-opacity:1;fill-rule:nonzero;stroke:none"
       transform="matrix(0.35277776,0,0,-0.35277776,113.27928,94.709202)"
       clip-path="url(#clipPath845)" />
    <path
       id="path846"
       d="M 0,0 C 2.461,0.008 4.922,-0.001 7.383,-0.002 8.033,-0.004 8.682,0.008 9.331,-0.008 9.339,-0.242 9.342,-0.479 9.32,-0.714 9.283,-0.805 9.228,-0.932 9.108,-0.912 7.939,-0.922 6.77,-0.901 5.602,-0.922 5.572,-1.927 5.612,-2.934 5.578,-3.94 5.574,-4.366 5.17,-4.671 4.782,-4.738 4.105,-4.749 3.427,-4.739 2.749,-4.744 2.594,-4.741 2.436,-4.761 2.285,-4.722 c 0.008,0.299 -0.001,0.597 0.005,0.896 0.507,-0.003 1.013,-10e-4 1.52,0.005 0.097,0.002 0.214,0.08 0.197,0.189 0.009,0.693 0.01,1.386 0.001,2.079 0.007,0.199 -0.093,0.398 -0.261,0.506 C 3.578,-0.949 3.378,-0.941 3.189,-0.928 2.126,-0.897 1.063,-0.914 0,-0.917 -0.001,-0.611 -0.009,-0.306 0,0"
       style="fill:#2a4491;fill-opacity:1;fill-rule:nonzero;stroke:none"
       transform="matrix(0.35277776,0,0,-0.35277776,104.35785,94.888203)"
       clip-path="url(#clipPath847)" />
    <path
       id="path848"
       d="M 0,0 C 1.06,-0.007 2.12,0.014 3.18,0.004 4.248,-0.008 5.315,0.006 6.382,-0.008 6.365,-0.215 6.469,-0.473 6.301,-0.639 6.214,-0.733 6.072,-0.697 5.959,-0.707 3.969,-0.699 1.978,-0.713 -0.011,-0.704 -0.013,-0.469 -0.01,-0.234 0,0"
       style="fill:#2a4491;fill-opacity:1;fill-rule:nonzero;stroke:none"
       transform="matrix(0.35277776,0,0,-0.35277776,108.97374,95.363395)"
       clip-path="url(#clipPath849)" />
    <path
       id="path850"
       d="M 0,0 C 0.258,0.127 0.548,0.008 0.808,-0.054 1.396,-0.251 1.972,-0.483 2.55,-0.705 2.568,-0.949 2.554,-1.194 2.561,-1.439 2.007,-1.251 1.459,-1.043 0.919,-0.821 0.87,-1.02 0.944,-1.254 0.801,-1.425 0.641,-1.596 0.389,-1.517 0.19,-1.477 c -0.494,0.138 -0.989,0.27 -1.48,0.42 -0.139,0.041 -0.28,0.096 -0.388,0.195 -0.048,0.227 -0.023,0.463 -0.012,0.692 0.533,-0.132 1.056,-0.305 1.583,-0.455 C -0.092,-0.423 -0.21,-0.133 0,0"
       style="fill:#2a4491;fill-opacity:1;fill-rule:nonzero;stroke:none"
       transform="matrix(0.35277776,0,0,-0.35277776,110.44926,95.696944)"
       clip-path="url(#clipPath851)" />
    <path
       id="path852"
       d="M 0,0 C 0.33,0.005 0.66,0.005 0.99,0.001 0.999,-0.563 0.988,-1.127 0.993,-1.691 1.002,-1.876 0.911,-2.07 0.749,-2.165 0.524,-2.315 0.241,-2.233 -0.011,-2.247 0.005,-1.498 -0.011,-0.749 0,0"
       style="fill:#2a4491;fill-opacity:1;fill-rule:nonzero;stroke:none"
       transform="matrix(0.35277776,0,0,-0.35277776,108.90784,95.760198)"
       clip-path="url(#clipPath853)" />
    <path
       id="path854"
       d="m 0,0 c 0.327,-0.007 0.654,0.016 0.98,0.002 l 0.021,-0.023 c 0.034,-0.41 0,-0.823 0.026,-1.234 0.008,-0.077 0.02,-0.169 0.088,-0.219 0.099,-0.024 0.202,-0.022 0.304,-0.025 1.28,-0.005 2.56,0.008 3.84,-0.004 C 5.266,-1.702 5.279,-1.917 5.18,-2.098 5.118,-2.182 5.02,-2.256 4.911,-2.252 3.629,-2.257 2.347,-2.249 1.065,-2.258 0.851,-2.253 0.635,-2.273 0.424,-2.242 0.215,-2.161 0.017,-1.981 0.012,-1.742 -0.019,-1.162 0.001,-0.581 0,0"
       style="fill:#2a4491;fill-opacity:1;fill-rule:nonzero;stroke:none"
       transform="matrix(0.35277776,0,0,-0.35277776,109.37629,95.759741)"
       clip-path="url(#clipPath855)" />
  </g>
</svg>
