<?xml version="1.0" encoding="utf-8"?>
<!-- Generator: Adobe Illustrator 28.0.0, SVG Export Plug-In . SVG Version: 6.00 Build 0)  -->
<svg version="1.1" id="svg1" xmlns:svg="http://www.w3.org/2000/svg"
	 xmlns="http://www.w3.org/2000/svg" xmlns:xlink="http://www.w3.org/1999/xlink" x="0px" y="0px" viewBox="0 0 136 26.5"
	 style="enable-background:new 0 0 136 26.5;" xml:space="preserve">
<style type="text/css">
	.st0{clip-path:url(#SVGID_00000119805281830162845890000007756415113614727057_);fill:#727070;}
	.st1{clip-path:url(#SVGID_00000164496856962162343010000016229071778807973507_);fill:#EE222E;}
	.st2{clip-path:url(#SVGID_00000033370649918491691100000017584225343883880845_);fill:#EE222E;}
	.st3{clip-path:url(#SVGID_00000102505743826028112870000014814076459783130256_);fill:#EE222E;}
</style>
<g id="layer-MC4" transform="translate(-243.07151,-532.84786)">
	<g>
		<defs>
			<rect id="SVGID_1_" x="-11.3" y="-11.3" width="1610.1" height="1145.2"/>
		</defs>
		<clipPath id="SVGID_00000008120702122659641670000007181167703382937483_">
			<use xlink:href="#SVGID_1_"  style="overflow:visible;"/>
		</clipPath>
		<path id="path860" style="clip-path:url(#SVGID_00000008120702122659641670000007181167703382937483_);fill:#727070;" d="
			M347,554.1c-0.4-0.4-1.1-0.4-1.5,0l-1.7,1.7v-4.3h2.1c0.6,0,1-0.5,1-1s-0.5-1-1-1h-2.1v-2.2h1.6c0.6,0,1-0.5,1-1c0-0.6-0.5-1-1-1
			h-5.4c-0.6,0-1,0.5-1,1c0,0.6,0.5,1,1,1h1.6v2.2h-2.1c-0.6,0-1,0.5-1,1s0.5,1,1,1h2.1v5c0,0.7,0.4,1.4,1.1,1.7
			c0.2,0.1,0.5,0.1,0.7,0.1c0.5,0,0.9-0.2,1.3-0.5l2.2-2.2C347.4,555.2,347.4,554.5,347,554.1 M368,540.4c-0.3-0.5-0.9-0.7-1.4-0.4
			c-0.5,0.3-0.7,0.9-0.4,1.4c0,0,0.4,0.6,0.8,1.5l-4.1,0.2c1.2-1.8,1.9-3.4,1.9-3.4c0.2-0.5,0-1.1-0.5-1.4c-0.5-0.2-1.1,0-1.4,0.5
			c0,0-1.1,2.4-2.8,4.6c0,0,0,0.1-0.1,0.1c-0.2,0.3-0.2,0.4-0.1,0.8c0,0.3,0.1,0.6,0.3,0.8c0.2,0.2,0.5,0.3,0.7,0.3c0,0,0,0,0.1,0
			l6.8-0.4c0.1,0.2,0.1,0.3,0.2,0.5c0.1,0.5,0.5,0.8,1,0.8c0.1,0,0.2,0,0.3,0c0.6-0.2,0.9-0.7,0.7-1.3
			C369.2,542.5,368,540.5,368,540.4 M340,544.6c0,0,0.5-0.5,1-1.3h4.7c0.6,0,1-0.5,1-1s-0.5-1-1-1h-3.5c0.2-0.5,0.4-1,0.6-1.5
			c0.2-0.6-0.1-1.1-0.7-1.3c-0.6-0.2-1.1,0.1-1.3,0.7c-0.8,2.6-2.2,4-2.2,4.1c-0.4,0.4-0.4,1.1,0,1.5c0.2,0.2,0.5,0.3,0.7,0.3
			C339.5,544.9,339.8,544.8,340,544.6 M324.5,554.2l-6.2,1.6c-0.6,0.1-0.9,0.7-0.8,1.3c0.1,0.5,0.5,0.8,1,0.8c0.1,0,0.2,0,0.3,0
			l6.2-1.6c0.6-0.1,0.9-0.7,0.8-1.3C325.6,554.4,325,554,324.5,554.2 M318.1,548.1l2.8-0.3c-1.5,2.1-2.9,3.8-2.9,3.8
			c-0.3,0.4-0.3,0.9-0.1,1.2c0.2,0.3,0.5,0.5,0.9,0.5c0.1,0,0.2,0,0.3,0l5.1-1.4c0.6-0.2,0.9-0.7,0.7-1.3c-0.2-0.6-0.7-0.9-1.3-0.7
			l-2.1,0.6c1.1-1.5,2.5-3.5,3.6-5.4c0.3-0.5,0.1-1.1-0.4-1.4c-0.5-0.3-1.1-0.1-1.4,0.4c-0.3,0.5-0.6,1-0.9,1.5l-2.2,0.2
			c1-1.5,2.3-3.6,3.3-5.7c0.2-0.5,0-1.1-0.5-1.4c-0.5-0.2-1.1,0-1.4,0.5c-1.6,3.4-4.3,7.2-4.3,7.2c-0.2,0.3-0.3,0.8-0.1,1.1
			C317.3,548,317.6,548.2,318.1,548.1C318,548.2,318.1,548.2,318.1,548.1 M314.8,552.2c-0.6,0-1,0.5-1,1v1.4c0,0.6-0.5,1.1-1.1,1.1
			h-6.6c-0.5,0-0.7-0.4-0.8-0.5c-0.1-0.1-0.2-0.5,0.2-0.9l9.3-10.2c0.6-0.6,0.7-1.5,0.4-2.3s-1.1-1.2-1.9-1.2h-8.3c-0.6,0-1,0.5-1,1
			s0.5,1,1,1l8.3,0l-9.3,10.2c-0.8,0.9-1,2.1-0.5,3.2s1.5,1.8,2.7,1.8h6.6c1.8,0,3.2-1.4,3.2-3.2v-1.4
			C315.8,552.6,315.4,552.2,314.8,552.2 M302.8,538.4c-0.5-0.2-1.1,0.1-1.4,0.6c0,0-1.4,3.6-4.8,7.5c-0.4,0.4-0.3,1.1,0.1,1.5
			c0.2,0.2,0.4,0.3,0.7,0.3c0.3,0,0.6-0.1,0.8-0.4c0.4-0.5,0.8-1,1.2-1.5v11.4c0,0.6,0.5,1,1,1c0.6,0,1-0.5,1-1v-14.5
			c1.2-2.1,1.8-3.5,1.8-3.6C303.6,539.2,303.4,538.6,302.8,538.4 M334.9,549.4h-3.3v-2.1h2.9c0.6,0,1-0.5,1-1c0-0.6-0.5-1-1-1h-2.9
			v-1.9h3.6c0.6,0,1-0.5,1-1s-0.5-1-1-1h-3.6v-1.8c0-0.6-0.5-1-1-1c-0.6,0-1,0.5-1,1v1.8H326c-0.6,0-1,0.5-1,1s0.5,1,1,1h3.6v1.9
			h-2.9c-0.6,0-1,0.5-1,1c0,0.6,0.5,1,1,1h2.9v2.1H326c-0.6,0-1,0.5-1,1s0.5,1,1,1h3.5v6.2c0,0.6,0.5,1,1,1s1-0.5,1-1v-6.2h3.3
			c0,0,0,0,0,0l-0.4,3.1c0,0,0,0,0,0c0,0.2-0.1,0.2-0.2,0.2h-0.6c-0.6,0-1,0.5-1,1s0.5,1,1,1h0.6c1.2,0,2.2-0.9,2.3-2.1l0.4-3.1
			c0.1-0.7-0.1-1.3-0.4-1.7C336.1,549.6,335.6,549.4,334.9,549.4 M351.5,543.4h-2.3v-2.3c0-0.1,0.1-0.2,0.2-0.2h2.1V543.4z
			 M351.5,548h-2.1c-0.1,0-0.2-0.1-0.2-0.2v-2.3h2.3V548z M353.6,545.5h2.3v2.3c0,0.1-0.1,0.2-0.2,0.2h-2.1V545.5z M353.6,540.9h2.1
			c0.1,0,0.2,0.1,0.2,0.2v2.3h-2.3V540.9z M357.8,556.3h-4.3v-2.1h2.8c0.6,0,1-0.5,1-1c0-0.6-0.5-1-1-1h-2.8v-1.9h2.1
			c1.3,0,2.3-1,2.3-2.3v-6.8c0-1.3-1-2.3-2.3-2.3h-6.3c-1.3,0-2.3,1-2.3,2.3v6.8c0,1.3,1,2.3,2.3,2.3h2.1v1.9h-3c-0.6,0-1,0.5-1,1
			c0,0.6,0.5,1,1,1h3v2.1h-4.3c-0.6,0-1,0.5-1,1s0.5,1,1,1h10.6c0.6,0,1-0.5,1-1S358.4,556.3,357.8,556.3 M366.7,549.9h-3.8v-1.2
			h3.8V549.9z M366.7,553.2h-3.8V552h3.8V553.2z M367.1,546.7h-4.6c-0.9,0-1.7,0.8-1.7,1.7v9.5c0,0.6,0.5,1,1,1s1-0.5,1-1v-2.5h3.8
			v1.4h-1c-0.6,0-1,0.5-1,1c0,0.6,0.5,1,1,1h1.1c1.1,0,2-0.9,2-2v-8.4C368.8,547.4,368,546.7,367.1,546.7 M373.5,548.2h2.1
			c0.8,0,1.5-0.3,2-0.9c0.5-0.6,0.8-1.3,0.7-2.1c-0.1-0.6-0.6-1-1.1-1c-0.6,0.1-1,0.6-1,1.1c0,0.3-0.1,0.4-0.2,0.5
			c-0.1,0.1-0.2,0.2-0.5,0.2h-2.1c-0.5,0-0.9-0.4-0.9-0.9v-1c2.5-0.7,3.7-2.5,3.7-2.6c0.3-0.5,0.2-1.1-0.3-1.4
			c-0.5-0.3-1.1-0.2-1.4,0.3c0,0.1-0.7,1-2,1.5v-2.4c0-0.6-0.5-1-1-1c-0.6,0-1,0.5-1,1v5.6C370.5,546.9,371.9,548.2,373.5,548.2
			 M379.1,555.7C379.1,555.7,379.1,555.7,379.1,555.7l-0.1-0.9c-0.1-0.6-0.6-1-1.2-0.9c-0.6,0.1-1,0.6-0.9,1.2l0.1,0.9
			c0,0.2-0.1,0.4-0.2,0.6c-0.1,0.2-0.4,0.3-0.6,0.3h-3.1c-0.5,0-0.9-0.4-0.9-0.9v-1.8c2.7-0.7,4.4-2.6,4.4-2.7
			c0.4-0.4,0.3-1.1-0.1-1.5c-0.4-0.4-1.1-0.3-1.5,0.1c0,0-1.1,1.3-2.9,1.9v-2.6c0-0.6-0.5-1-1-1c-0.6,0-1,0.5-1,1v6.5
			c0,1.7,1.4,3,3,3h3.1c0.8,0,1.6-0.3,2.1-0.9C378.9,557.3,379.2,556.5,379.1,555.7"/>
	</g>
	<g>
		<defs>
			<rect id="SVGID_00000154414733108721811190000009367522311903734710_" x="-11.3" y="-11.3" width="1610.1" height="1145.2"/>
		</defs>
		<clipPath id="SVGID_00000114785546290713438780000005252922373976343988_">
			<use xlink:href="#SVGID_00000154414733108721811190000009367522311903734710_"  style="overflow:visible;"/>
		</clipPath>
		<path id="path862" style="clip-path:url(#SVGID_00000114785546290713438780000005252922373976343988_);fill:#EE222E;" d="
			M291.5,555.9h-9.1c-0.3,0-0.5-0.2-0.5-0.5l0.6-6c0-0.1,0.1-0.1,0.2-0.1h7.2c0.7,0,1.3-0.6,1.3-1.3c0-0.7-0.5-1.3-1.2-1.3h-6.9
			c-0.1,0-0.2-0.1-0.2-0.2l0.5-5.3c0-0.2,0.2-0.4,0.5-0.4h7.3c0.7,0,1.2-0.5,1.2-1.2l0,0c0-0.7-0.5-1.2-1.2-1.2h-13.8c0,0,0,0,0,0
			l3.7-5.4c0,0,0-0.1,0,0l-9.6,7.8c0,0,0,0.1,0,0.1h4.2c0,0,0,0,0,0c-0.3,0.4-6.8,9.8-6.9,10c0,0-0.1,0-0.1,0
			c-0.1-0.1-4.7-8.9-5.6-10.7c-0.5-0.9-1.6-1.7-2.9-1.7c-1.5,0-11.4,0-12.9,0c-1.4,0-2.4,1.2-2.5,2.2c-0.1,1.5-1.2,13.3-1.4,15.3
			c-0.2,1.5,1,3,2.7,3h12.3c0.8,0,1.5-0.7,1.5-1.5v0c0-0.8-0.7-1.5-1.5-1.5c-3.6,0-8.1,0-9.1,0c-0.3,0-0.5-0.2-0.5-0.5l0.6-6
			c0-0.1,0.1-0.1,0.2-0.1c0.7,0,4.1,0,7.1,0c0.7,0,1.3-0.6,1.3-1.3c0-0.7-0.6-1.3-1.3-1.3c-3,0-6.1,0-6.9,0c-0.1,0-0.2-0.1-0.2-0.2
			l0.5-5.3c0-0.2,0.2-0.4,0.5-0.4h6.3c0.4,0,0.9,0.2,1.1,0.8c1.4,2.8,6.8,14,8.1,16.6c0.4,0.8,1.1,1.1,1.8,1.1
			c0.8,0,1.4-0.4,1.8-1.2c0.8-1.7,7.8-16.1,8.4-17.3c0,0,0,0,0,0c-0.1,1.3-1.3,14.1-1.4,15.2c-0.1,1.6,1.2,2.9,2.7,2.9h12.3
			c0.8,0,1.5-0.7,1.5-1.5v0C293,556.6,292.3,555.9,291.5,555.9"/>
	</g>
	<g>
		<defs>
			<rect id="SVGID_00000026149990553057604130000000747626719773751956_" x="-11.3" y="-11.3" width="1610.1" height="1145.2"/>
		</defs>
		<clipPath id="SVGID_00000060014412767874412470000007516155432966999743_">
			<use xlink:href="#SVGID_00000026149990553057604130000000747626719773751956_"  style="overflow:visible;"/>
		</clipPath>
		<path id="path864" style="clip-path:url(#SVGID_00000060014412767874412470000007516155432966999743_);fill:#EE222E;" d="
			M295.9,536.9c-0.8,0-1.5,0.7-1.5,1.5s0.7,1.5,1.5,1.5c0.8,0,1.5-0.7,1.5-1.5S296.8,536.9,295.9,536.9 M295.9,540.1
			c-0.9,0-1.7-0.8-1.7-1.7c0-0.9,0.8-1.7,1.7-1.7c0.9,0,1.7,0.8,1.7,1.7C297.6,539.3,296.9,540.1,295.9,540.1"/>
	</g>
	<g>
		<defs>
			<rect id="SVGID_00000080911851251873636210000006039383108248872357_" x="-11.3" y="-11.3" width="1610.1" height="1145.2"/>
		</defs>
		<clipPath id="SVGID_00000096780846488162637900000013643915431288680613_">
			<use xlink:href="#SVGID_00000080911851251873636210000006039383108248872357_"  style="overflow:visible;"/>
		</clipPath>
		<path id="path866" style="clip-path:url(#SVGID_00000096780846488162637900000013643915431288680613_);fill:#EE222E;" d="
			M295.5,538.2h0.5c0.1,0,0.2,0,0.3,0c0.1,0,0.1-0.1,0.1-0.1c0-0.1,0-0.1,0-0.2c0-0.1,0-0.2-0.1-0.2c-0.1-0.1-0.2-0.1-0.3-0.1h-0.6
			V538.2z M295.3,539.3v-1.9h0.8c0.2,0,0.3,0,0.4,0.1c0.1,0,0.2,0.1,0.2,0.2c0.1,0.1,0.1,0.2,0.1,0.3c0,0.1,0,0.2-0.1,0.3
			c-0.1,0.1-0.2,0.1-0.4,0.2c0.1,0,0.1,0.1,0.1,0.1c0.1,0.1,0.1,0.1,0.2,0.2l0.3,0.5h-0.3l-0.2-0.4c-0.1-0.1-0.1-0.2-0.2-0.3
			c0-0.1-0.1-0.1-0.1-0.1c0,0-0.1,0-0.1,0c0,0-0.1,0-0.1,0h-0.3v0.8H295.3z"/>
	</g>
</g>
</svg>
