<?xml version="1.0" encoding="utf-8"?>
<!-- Generator: Adobe Illustrator 28.0.0, SVG Export Plug-In . SVG Version: 6.00 Build 0)  -->
<svg version="1.1" id="svg1" xmlns:svg="http://www.w3.org/2000/svg"
	 xmlns="http://www.w3.org/2000/svg" xmlns:xlink="http://www.w3.org/1999/xlink" x="0px" y="0px" viewBox="0 0 155.2 26.8"
	 style="enable-background:new 0 0 155.2 26.8;" xml:space="preserve">
<style type="text/css">
	.st0{clip-path:url(#SVGID_00000120529365368764407710000017050651974090186625_);fill:#28375F;}
	.st1{clip-path:url(#SVGID_00000101787994161465506170000008657396256789961630_);fill:#27345A;}
	.st2{clip-path:url(#SVGID_00000083081375921007171480000000573412459797942963_);fill:#27345A;}
	.st3{clip-path:url(#SVGID_00000163044964820724649900000016085618483327281337_);fill:#27345A;}
	.st4{clip-path:url(#SVGID_00000045619862945313427600000005616139299758406554_);fill:#27345A;}
	.st5{clip-path:url(#SVGID_00000160906686476888163050000007306730009429402250_);fill:#27345A;}
	.st6{clip-path:url(#SVGID_00000046313888764541246800000018208955865750284733_);fill:#27345A;}
	.st7{clip-path:url(#SVGID_00000165235840645711202510000000671733682778712478_);fill:#27345A;}
	.st8{clip-path:url(#SVGID_00000063602863502884282520000018128606348044299664_);fill:#27345A;}
	.st9{clip-path:url(#SVGID_00000117648303816634395470000010307870128795701645_);fill:#27345A;}
</style>
<g id="layer-MC4" transform="translate(-414.87703,-532.47067)">
	<g>
		<defs>
			<rect id="SVGID_1_" x="-11.3" y="-11.3" width="1610.1" height="1145.2"/>
		</defs>
		<clipPath id="SVGID_00000127003280511722437570000001486443222619189171_">
			<use xlink:href="#SVGID_1_"  style="overflow:visible;"/>
		</clipPath>
		<path id="path868" style="clip-path:url(#SVGID_00000127003280511722437570000001486443222619189171_);fill:#28375F;" d="
			M419.9,549.5c-0.4-0.3-1.4-1-1.4-2.1c0-0.4,0.1-0.7,0.3-1.1c2.1-3.9,14.5-8.8,32.6-9.3c0,0,0,0,0.1,0l3.4-4.3
			c0.1-0.1,0-0.2-0.1-0.2c-28.5,0.9-39.6,9.3-39.8,13c-0.1,1.9,2.8,3.6,5,4.6c0.1,1.9,3.3,3.7,4.9,4.4c0.2,1.9,3.5,4.1,7.4,4.9
			c0.2,0,0.3-0.2,0.1-0.2c-2.9-1.3-3.8-2.5-3.6-3.7c0.2-1,1.2-2,3.2-2.8c3.3-1.4,7.8-1.9,11.8-2.2l3.1-4c0.1-0.1,0-0.2-0.1-0.2
			c-13.2,0.5-20.9,4-21.8,7.3c0,0.1,0,0.2-0.1,0.3c-0.8-0.5-1.4-1.2-1.4-2c0-0.3,0.1-0.6,0.2-0.9c1.4-2.8,9.1-6.7,23.8-7l3.2-4.1
			c0.1-0.1,0-0.2-0.1-0.2C432.3,539.8,420.5,545.2,419.9,549.5"/>
	</g>
	<g>
		<defs>
			<rect id="SVGID_00000117663574707694664510000016671007492068697534_" x="-11.3" y="-11.3" width="1610.1" height="1145.2"/>
		</defs>
		<clipPath id="SVGID_00000149363209156885796860000000090601104327487932_">
			<use xlink:href="#SVGID_00000117663574707694664510000016671007492068697534_"  style="overflow:visible;"/>
		</clipPath>
		<path id="path870" style="clip-path:url(#SVGID_00000149363209156885796860000000090601104327487932_);fill:#27345A;" d="
			M503.4,553.1c-2.3,0-4.1-1.9-4.1-4.1c0-2.3,1.9-4.1,4.1-4.1s4.1,1.9,4.1,4.1C507.6,551.2,505.7,553.1,503.4,553.1 M507.8,543.3
			c-1.2-0.9-2.7-1.5-4.4-1.5c-3.9,0-7.1,3.2-7.1,7.1c0,3.9,3.2,7.1,7.1,7.1c1.6,0,3.1-0.6,4.4-1.5v1.4h3.3v-18.4h-3.3V543.3z"/>
	</g>
	<g>
		<defs>
			<rect id="SVGID_00000080188027459772035170000016619471428979195321_" x="-11.3" y="-11.3" width="1610.1" height="1145.2"/>
		</defs>
		<clipPath id="SVGID_00000151537075459903131340000004421706359086708136_">
			<use xlink:href="#SVGID_00000080188027459772035170000016619471428979195321_"  style="overflow:visible;"/>
		</clipPath>
		<path id="path872" style="clip-path:url(#SVGID_00000151537075459903131340000004421706359086708136_);fill:#27345A;" d="
			M562.4,553.1c-2.3,0-4.1-1.9-4.1-4.1c0-2.3,1.9-4.1,4.1-4.1s4.1,1.9,4.1,4.1C566.6,551.2,564.7,553.1,562.4,553.1 M566.8,543.3
			c-1.2-0.9-2.7-1.5-4.4-1.5c-3.9,0-7.1,3.2-7.1,7.1c0,3.9,3.2,7.1,7.1,7.1c1.6,0,3.1-0.6,4.4-1.5v1.4h3.3v-18.4h-3.3V543.3z"/>
	</g>
	<g>
		<defs>
			<rect id="SVGID_00000052787553670374229660000007679678189577271467_" x="-11.3" y="-11.3" width="1610.1" height="1145.2"/>
		</defs>
		<clipPath id="SVGID_00000003808668097406599030000013959838731332068492_">
			<use xlink:href="#SVGID_00000052787553670374229660000007679678189577271467_"  style="overflow:visible;"/>
		</clipPath>
		<path id="path874" style="clip-path:url(#SVGID_00000003808668097406599030000013959838731332068492_);fill:#27345A;" d="
			M550.6,556.1h3.3l0-8.2c0-1.3-0.4-2.5-1.1-3.5c-1.6-2.4-6.2-3-8.4-0.4c-0.1,0.1-0.2,0.2-0.4,0.4v-1.9h-3.3v13.5h3.3
			c0-0.2,0-0.3,0-0.4c0-2,0-4.1,0-6.1c0-0.4,0-0.8,0.1-1.3c0.1-1,0.6-2.1,1.5-2.7c1.8-1.2,4.6-0.4,5,1.7c0.1,0.7,0.1,1.9,0.1,2.3
			L550.6,556.1z"/>
	</g>
	<g>
		<defs>
			<rect id="SVGID_00000163068983680834626200000004076781380315061950_" x="-11.3" y="-11.3" width="1610.1" height="1145.2"/>
		</defs>
		<clipPath id="SVGID_00000177463827509185234220000011833529512661702821_">
			<use xlink:href="#SVGID_00000163068983680834626200000004076781380315061950_"  style="overflow:visible;"/>
		</clipPath>
		<path id="path876" style="clip-path:url(#SVGID_00000177463827509185234220000011833529512661702821_);fill:#27345A;" d="
			M491.6,556.1h3.3v-18.4h-3.3V556.1z"/>
	</g>
	<g>
		<defs>
			<rect id="SVGID_00000171692416206533317990000007586832649978223785_" x="-11.3" y="-11.3" width="1610.1" height="1145.2"/>
		</defs>
		<clipPath id="SVGID_00000102522591964274957090000012625738428820086153_">
			<use xlink:href="#SVGID_00000171692416206533317990000007586832649978223785_"  style="overflow:visible;"/>
		</clipPath>
		<path id="path878" style="clip-path:url(#SVGID_00000102522591964274957090000012625738428820086153_);fill:#27345A;" d="
			M534.9,556.1h3.3v-13.5h-3.3V556.1z"/>
	</g>
	<g>
		<defs>
			<rect id="SVGID_00000109015461852613259680000014703102164262637697_" x="-11.3" y="-11.3" width="1610.1" height="1145.2"/>
		</defs>
		<clipPath id="SVGID_00000021806184934500788120000015313613888167293618_">
			<use xlink:href="#SVGID_00000109015461852613259680000014703102164262637697_"  style="overflow:visible;"/>
		</clipPath>
		<path id="path880" style="clip-path:url(#SVGID_00000021806184934500788120000015313613888167293618_);fill:#27345A;" d="
			M527.3,552.1l-2.7-9.4h-3.5l-2.7,9.4l-2.7-9.4h-3.4l4.3,13.4h3.6l2.6-9.2l2.7,9.2h3.7l4.2-13.4H530L527.3,552.1z"/>
	</g>
	<g>
		<defs>
			<rect id="SVGID_00000100378644024930643720000000255879974558715831_" x="-11.3" y="-11.3" width="1610.1" height="1145.2"/>
		</defs>
		<clipPath id="SVGID_00000026162718815328825110000003650689554882952377_">
			<use xlink:href="#SVGID_00000100378644024930643720000000255879974558715831_"  style="overflow:visible;"/>
		</clipPath>
		<path id="path882" style="clip-path:url(#SVGID_00000026162718815328825110000003650689554882952377_);fill:#27345A;" d="
			M534.9,541h3.3v-3.3h-3.3V541z"/>
	</g>
	<g>
		<defs>
			<rect id="SVGID_00000078028071973042100900000007750076278895072439_" x="-11.3" y="-11.3" width="1610.1" height="1145.2"/>
		</defs>
		<clipPath id="SVGID_00000111162855157620769870000008011078188307211950_">
			<use xlink:href="#SVGID_00000078028071973042100900000007750076278895072439_"  style="overflow:visible;"/>
		</clipPath>
		<path id="path884" style="clip-path:url(#SVGID_00000111162855157620769870000008011078188307211950_);fill:#27345A;" d="M474,546
			l-10.8,0v2.8h7.5c-0.8,2.6-3.2,4.4-6,4.4c-3.4,0-6.2-2.8-6.2-6.2c0-3.4,2.8-6.2,6.2-6.2c2.1,0,4,1.1,5.1,2.7h3.5
			c-1.4-3.4-4.7-5.8-8.6-5.8c-5.2,0-9.4,4.2-9.4,9.4c0,5.2,4.2,9.4,9.4,9.4s9.4-4.2,9.4-9.4c0-0.2,0-0.4,0-0.7L474,546z"/>
	</g>
	<g>
		<defs>
			<rect id="SVGID_00000162333549668624101130000005369833005316073912_" x="-11.3" y="-11.3" width="1610.1" height="1145.2"/>
		</defs>
		<clipPath id="SVGID_00000154396211125709952310000016571289468050426512_">
			<use xlink:href="#SVGID_00000162333549668624101130000005369833005316073912_"  style="overflow:visible;"/>
		</clipPath>
		<path id="path886" style="clip-path:url(#SVGID_00000154396211125709952310000016571289468050426512_);fill:#27345A;" d="
			M482.9,553.5c-2.4,0-4.4-2-4.4-4.4c0-2.4,2-4.4,4.4-4.4s4.4,2,4.4,4.4C487.3,551.5,485.3,553.5,482.9,553.5 M482.9,541.7
			c-4,0-7.3,3.3-7.3,7.3s3.3,7.3,7.3,7.3s7.3-3.3,7.3-7.3S486.9,541.7,482.9,541.7"/>
	</g>
</g>
</svg>
