<?xml version="1.0" encoding="UTF-8" standalone="no"?>
<!-- Created with Inkscape (http://www.inkscape.org/) -->

<svg
   width="13.802785mm"
   height="13.802436mm"
   viewBox="0 0 13.802785 13.802436"
   version="1.1"
   id="svg1"
   xmlns="http://www.w3.org/2000/svg"
   xmlns:svg="http://www.w3.org/2000/svg">
  <defs
     id="defs1">
    <clipPath
       clipPathUnits="userSpaceOnUse"
       id="clipPath3054">
      <path
         d="M 0,858.898 H 1207.558 V 0 H 0 Z"
         transform="translate(-82.972502,-149.9141)"
         id="path3054" />
    </clipPath>
    <clipPath
       clipPathUnits="userSpaceOnUse"
       id="clipPath3056">
      <path
         d="M 0,858.898 H 1207.558 V 0 H 0 Z"
         transform="translate(-84.194205,-150.6753)"
         id="path3056" />
    </clipPath>
    <clipPath
       clipPathUnits="userSpaceOnUse"
       id="clipPath3058">
      <path
         d="M 0,858.898 H 1207.558 V 0 H 0 Z"
         transform="translate(-84.669405,-153.017)"
         id="path3058" />
    </clipPath>
    <clipPath
       clipPathUnits="userSpaceOnUse"
       id="clipPath3060">
      <path
         d="M 0,858.898 H 1207.558 V 0 H 0 Z"
         transform="translate(-84.8148,-153.72)"
         id="path3060" />
    </clipPath>
    <clipPath
       clipPathUnits="userSpaceOnUse"
       id="clipPath3062">
      <path
         d="M 0,858.898 H 1207.558 V 0 H 0 Z"
         transform="translate(-85.7796,-156.0471)"
         id="path3062" />
    </clipPath>
    <clipPath
       clipPathUnits="userSpaceOnUse"
       id="clipPath3064">
      <path
         d="M 0,858.898 H 1207.558 V 0 H 0 Z"
         transform="translate(-87.786802,-160.04201)"
         id="path3064" />
    </clipPath>
    <clipPath
       clipPathUnits="userSpaceOnUse"
       id="clipPath3066">
      <path
         d="M 0,858.898 H 1207.558 V 0 H 0 Z"
         transform="translate(-90.8412,-161.0844)"
         id="path3066" />
    </clipPath>
    <clipPath
       clipPathUnits="userSpaceOnUse"
       id="clipPath3068">
      <path
         d="M 0,858.898 H 1207.558 V 0 H 0 Z"
         transform="translate(-91.616902,-161.5692)"
         id="path3068" />
    </clipPath>
    <clipPath
       clipPathUnits="userSpaceOnUse"
       id="clipPath3070">
      <path
         d="M 0,858.898 H 1207.558 V 0 H 0 Z"
         transform="translate(-92.828902,-165.98111)"
         id="path3070" />
    </clipPath>
    <clipPath
       clipPathUnits="userSpaceOnUse"
       id="clipPath3072">
      <path
         d="M 0,858.898 H 1207.558 V 0 H 0 Z"
         transform="translate(-96.6105,-163.1546)"
         id="path3072" />
    </clipPath>
    <clipPath
       clipPathUnits="userSpaceOnUse"
       id="clipPath3074">
      <path
         d="M 0,858.898 H 1207.558 V 0 H 0 Z"
         transform="translate(-98.947402,-165.8211)"
         id="path3074" />
    </clipPath>
    <clipPath
       clipPathUnits="userSpaceOnUse"
       id="clipPath3076">
      <path
         d="M 0,858.898 H 1207.558 V 0 H 0 Z"
         transform="translate(-102.1908,-163.5764)"
         id="path3076" />
    </clipPath>
    <clipPath
       clipPathUnits="userSpaceOnUse"
       id="clipPath3078">
      <path
         d="M 0,858.898 H 1207.558 V 0 H 0 Z"
         transform="translate(-102.5981,-162.2819)"
         id="path3078" />
    </clipPath>
    <clipPath
       clipPathUnits="userSpaceOnUse"
       id="clipPath3080">
      <path
         d="M 0,858.898 H 1207.558 V 0 H 0 Z"
         transform="translate(-106.33121,-164.31821)"
         id="path3080" />
    </clipPath>
    <clipPath
       clipPathUnits="userSpaceOnUse"
       id="clipPath3082">
      <path
         d="M 0,858.898 H 1207.558 V 0 H 0 Z"
         transform="translate(-109.1577,-162.90251)"
         id="path3082" />
    </clipPath>
    <clipPath
       clipPathUnits="userSpaceOnUse"
       id="clipPath3084">
      <path
         d="M 0,858.898 H 1207.558 V 0 H 0 Z"
         transform="translate(-110.9904,-157.56461)"
         id="path3084" />
    </clipPath>
    <clipPath
       clipPathUnits="userSpaceOnUse"
       id="clipPath3086">
      <path
         d="M 0,858.898 H 1207.558 V 0 H 0 Z"
         transform="translate(-111.09701,-154.0254)"
         id="path3086" />
    </clipPath>
    <clipPath
       clipPathUnits="userSpaceOnUse"
       id="clipPath3088">
      <path
         d="M 0,858.898 H 1207.558 V 0 H 0 Z"
         transform="translate(-111.3588,-153.22541)"
         id="path3088" />
    </clipPath>
    <clipPath
       clipPathUnits="userSpaceOnUse"
       id="clipPath3090">
      <path
         d="M 0,858.898 H 1207.558 V 0 H 0 Z"
         transform="translate(-112.00361,-150.65591)"
         id="path3090" />
    </clipPath>
    <clipPath
       clipPathUnits="userSpaceOnUse"
       id="clipPath3092">
      <path
         d="M 0,858.898 H 1207.558 V 0 H 0 Z"
         transform="translate(-113.3805,-148.57121)"
         id="path3092" />
    </clipPath>
    <clipPath
       clipPathUnits="userSpaceOnUse"
       id="clipPath3094">
      <path
         d="M 0,858.898 H 1207.558 V 0 H 0 Z"
         transform="translate(-109.01231,-160.745)"
         id="path3094" />
    </clipPath>
    <clipPath
       clipPathUnits="userSpaceOnUse"
       id="clipPath3096">
      <path
         d="M 0,858.898 H 1207.558 V 0 H 0 Z"
         transform="translate(-106.7045,-133.9926)"
         id="path3096" />
    </clipPath>
    <clipPath
       clipPathUnits="userSpaceOnUse"
       id="clipPath3098">
      <path
         d="M 0,858.898 H 1207.558 V 0 H 0 Z"
         transform="translate(-84.378502,-137.4833)"
         id="path3098" />
    </clipPath>
    <clipPath
       clipPathUnits="userSpaceOnUse"
       id="clipPath3100">
      <path
         d="M 0,858.898 H 1207.558 V 0 H 0 Z"
         transform="translate(-84.533602,-137.4833)"
         id="path3100" />
    </clipPath>
    <clipPath
       clipPathUnits="userSpaceOnUse"
       id="clipPath3102">
      <path
         d="M 0,858.898 H 1207.558 V 0 H 0 Z"
         transform="translate(-85.9008,-139.2092)"
         id="path3102" />
    </clipPath>
    <clipPath
       clipPathUnits="userSpaceOnUse"
       id="clipPath3104">
      <path
         d="M 0,858.898 H 1207.558 V 0 H 0 Z"
         transform="translate(-94.3125,-135.5246)"
         id="path3104" />
    </clipPath>
    <clipPath
       clipPathUnits="userSpaceOnUse"
       id="clipPath3106">
      <path
         d="M 0,858.898 H 1207.558 V 0 H 0 Z"
         transform="translate(-108.7068,-140.2274)"
         id="path3106" />
    </clipPath>
    <clipPath
       clipPathUnits="userSpaceOnUse"
       id="clipPath3108">
      <path
         d="M 0,858.898 H 1207.558 V 0 H 0 Z"
         transform="translate(-97.968,-130.8267)"
         id="path3108" />
    </clipPath>
    <clipPath
       clipPathUnits="userSpaceOnUse"
       id="clipPath3110">
      <path
         d="M 0,858.898 H 1207.558 V 0 H 0 Z"
         transform="translate(-97.968,-137.9826)"
         id="path3110" />
    </clipPath>
    <clipPath
       clipPathUnits="userSpaceOnUse"
       id="clipPath3112">
      <path
         d="M 0,858.898 H 1207.558 V 0 H 0 Z"
         transform="translate(-94.8264,-156.7598)"
         id="path3112" />
    </clipPath>
    <clipPath
       clipPathUnits="userSpaceOnUse"
       id="clipPath3114">
      <path
         d="M 0,858.898 H 1207.558 V 0 H 0 Z"
         transform="translate(-95.9463,-158.43731)"
         id="path3114" />
    </clipPath>
    <clipPath
       clipPathUnits="userSpaceOnUse"
       id="clipPath3116">
      <path
         d="M 0,858.898 H 1207.558 V 0 H 0 Z"
         transform="translate(-99.587302,-157.8797)"
         id="path3116" />
    </clipPath>
    <clipPath
       clipPathUnits="userSpaceOnUse"
       id="clipPath3118">
      <path
         d="M 0,858.898 H 1207.558 V 0 H 0 Z"
         transform="translate(-102.4332,-157.5549)"
         id="path3118" />
    </clipPath>
    <clipPath
       clipPathUnits="userSpaceOnUse"
       id="clipPath3120">
      <path
         d="M 0,858.898 H 1207.558 V 0 H 0 Z"
         transform="translate(-97.555905,-149.8317)"
         id="path3120" />
    </clipPath>
  </defs>
  <g
     id="layer1"
     transform="translate(-21.012677,-173.97598)">
    <path
       id="path3053"
       d="m 0,0 0.126,0.005 0.121,-0.01 0.136,-0.01 0.121,-0.009 0.068,-0.01 0.073,-0.019 0.068,-0.02 L 0.776,-0.092 0.839,-0.126 0.902,-0.15 0.955,-0.189 1.008,-0.228 1.062,-0.271 1.101,-0.32 1.139,-0.368 1.168,-0.422 1.202,-0.475 1.236,-0.543 1.265,-0.63 1.285,-0.713 1.29,-0.805 V -0.863 L 1.285,-0.926 1.27,-0.994 1.251,-1.057 1.231,-1.12 1.202,-1.178 1.168,-1.236 1.13,-1.299 1.091,-1.353 1.038,-1.401 0.989,-1.445 0.936,-1.479 0.878,-1.518 0.815,-1.547 0.747,-1.571 0.621,-1.61 0.495,-1.634 0.378,-1.653 l -0.126,-0.01 -0.121,-0.01 -0.233,-0.009 -0.019,0.373 0.296,0.01 0.218,0.019 0.053,0.01 0.053,0.009 0.054,0.02 0.048,0.024 0.049,0.024 0.038,0.029 0.039,0.034 0.039,0.039 0.029,0.039 0.024,0.039 0.02,0.043 0.014,0.044 0.01,0.092 -0.01,0.073 -0.048,0.136 -0.015,0.034 -0.029,0.043 -0.034,0.034 -0.039,0.034 -0.043,0.019 -0.034,0.025 -0.053,0.019 -0.102,0.024 -0.136,0.02 -0.272,0.005 -2.438,-0.088 -0.02,0.374 z"
       style="fill:#00adef;fill-opacity:1;fill-rule:evenodd;stroke:none"
       transform="matrix(0.35277776,0,0,-0.35277776,22.62399,180.7079)"
       clip-path="url(#clipPath3054)" />
    <path
       id="path3055"
       d="m 0,0 -0.034,-0.451 -3.622,0.257 0.034,0.451 z"
       style="fill:#00adef;fill-opacity:1;fill-rule:evenodd;stroke:none"
       transform="matrix(0.35277776,0,0,-0.35277776,23.05498,180.43937)"
       clip-path="url(#clipPath3056)" />
    <path
       id="path3057"
       d="m 0,0 -0.412,-2.138 -3.568,0.688 0.087,0.446 3.19,-0.61 0.325,1.687 z"
       style="fill:#00adef;fill-opacity:1;fill-rule:evenodd;stroke:none"
       transform="matrix(0.35277776,0,0,-0.35277776,23.22262,179.61327)"
       clip-path="url(#clipPath3058)" />
    <path
       id="path3059"
       d="m 0,0 -0.112,-0.446 -3.524,0.853 0.111,0.446 z"
       style="fill:#00adef;fill-opacity:1;fill-rule:evenodd;stroke:none"
       transform="matrix(0.35277776,0,0,-0.35277776,23.273912,179.36527)"
       clip-path="url(#clipPath3060)" />
    <path
       id="path3061"
       d="m 0,0 -0.204,-0.461 -2.87,-0.019 -0.009,-0.019 2.404,-1.057 -0.184,-0.417 -3.331,1.459 0.209,0.461 2.87,0.019 0.01,0.015 -2.4,1.052 0.179,0.426 z"
       style="fill:#00adef;fill-opacity:1;fill-rule:evenodd;stroke:none"
       transform="matrix(0.35277776,0,0,-0.35277776,23.614272,178.54432)"
       clip-path="url(#clipPath3062)" />
    <path
       id="path3063"
       d="M 0,0 0.068,-0.073 0.126,-0.141 0.184,-0.223 0.238,-0.305 0.33,-0.47 0.359,-0.543 0.378,-0.616 0.393,-0.688 0.402,-0.756 V -0.829 L 0.398,-0.907 0.388,-0.979 0.364,-1.057 0.335,-1.12 0.305,-1.183 0.247,-1.28 0.184,-1.377 0.121,-1.454 0.048,-1.542 -0.024,-1.619 -0.112,-1.692 -0.199,-1.76 -0.257,-1.804 -0.32,-1.837 -0.383,-1.867 -0.451,-1.891 -0.528,-1.91 -0.596,-1.925 -0.664,-1.934 h -0.078 l -0.072,0.004 -0.073,0.005 -0.073,0.02 -0.063,0.024 -0.141,0.053 -0.092,0.054 -0.092,0.058 -0.077,0.068 -0.088,0.077 -1.842,1.77 0.31,0.329 1.862,-1.789 0.078,-0.063 0.072,-0.058 0.078,-0.048 0.053,-0.02 0.058,-0.024 0.059,-0.014 0.053,-0.01 h 0.058 l 0.058,0.01 0.073,0.014 0.063,0.024 0.058,0.025 0.063,0.034 0.054,0.033 0.043,0.049 0.049,0.044 0.038,0.053 0.039,0.058 0.029,0.063 0.025,0.053 0.024,0.068 0.01,0.063 0.004,0.068 -0.004,0.058 -0.005,0.059 -0.02,0.053 -0.019,0.053 -0.029,0.049 -0.058,0.082 -0.122,0.136 -1.861,1.789 0.31,0.33 z"
       style="fill:#00adef;fill-opacity:1;fill-rule:evenodd;stroke:none"
       transform="matrix(0.35277776,0,0,-0.35277776,24.322369,177.135)"
       clip-path="url(#clipPath3064)" />
    <path
       id="path3065"
       d="m 0,0 -0.402,-0.296 -2.497,1.435 -0.015,-0.014 1.547,-2.124 -0.369,-0.266 -2.138,2.933 0.403,0.296 2.492,-1.431 0.019,0.01 -1.551,2.119 0.368,0.276 z"
       style="fill:#00adef;fill-opacity:1;fill-rule:evenodd;stroke:none"
       transform="matrix(0.35277776,0,0,-0.35277776,25.399892,176.76727)"
       clip-path="url(#clipPath3066)" />
    <path
       id="path3067"
       d="m 0,0 -0.402,-0.213 -1.697,3.209 0.402,0.218 z"
       style="fill:#00adef;fill-opacity:1;fill-rule:evenodd;stroke:none"
       transform="matrix(0.35277776,0,0,-0.35277776,25.673543,176.59624)"
       clip-path="url(#clipPath3068)" />
    <path
       id="path3069"
       d="m 0,0 0.194,-3.801 -0.402,-0.136 -2.177,3.123 0.446,0.155 1.609,-2.386 0.073,0.029 -0.189,2.861 z"
       style="fill:#00adef;fill-opacity:1;fill-rule:evenodd;stroke:none"
       transform="matrix(0.35277776,0,0,-0.35277776,26.101109,175.03982)"
       clip-path="url(#clipPath3070)" />
    <path
       id="path3071"
       d="M 0,0 -2.104,-0.422 -2.817,3.142 -0.819,3.539 -0.742,3.171 -2.298,2.86 -2.061,1.716 -0.645,2.002 -0.567,1.624 -1.988,1.343 -1.726,0.039 -0.063,0.378 Z"
       style="fill:#00adef;fill-opacity:1;fill-rule:evenodd;stroke:none"
       transform="matrix(0.35277776,0,0,-0.35277776,27.435173,176.03695)"
       clip-path="url(#clipPath3072)" />
    <path
       id="path3073"
       d="m 0,0 -0.005,0.073 -0.01,0.072 -0.019,0.078 -0.024,0.048 -0.029,0.059 -0.034,0.053 -0.044,0.048 -0.043,0.044 -0.059,0.044 -0.058,0.034 -0.053,0.029 -0.136,0.034 -0.111,0.014 -0.228,0.015 -0.519,0.005 -0.005,-1.271 0.659,-0.004 0.078,0.004 0.073,0.005 0.077,0.015 0.073,0.024 0.068,0.024 0.068,0.029 0.058,0.034 0.048,0.029 0.044,0.044 0.034,0.044 0.029,0.053 0.02,0.049 0.024,0.087 z M 0.606,-2.613 H 0.048 l -0.819,1.605 -0.606,0.004 -0.005,-1.599 H -1.881 L -1.871,1.028 -0.737,1.023 -0.63,1.018 -0.524,1.013 -0.422,0.999 -0.315,0.975 -0.213,0.96 -0.116,0.921 -0.019,0.887 0.044,0.853 0.112,0.814 0.17,0.776 0.233,0.727 0.281,0.669 0.33,0.616 0.368,0.553 0.427,0.422 0.456,0.335 0.47,0.242 0.485,0.145 0.49,0.053 V -0.048 -0.136 L 0.475,-0.233 0.456,-0.33 0.427,-0.398 0.402,-0.465 0.364,-0.538 0.31,-0.596 0.257,-0.659 0.194,-0.713 0.136,-0.771 0.053,-0.814 -0.024,-0.858 -0.102,-0.887 -0.271,-0.945 Z"
       style="fill:#00adef;fill-opacity:1;fill-rule:evenodd;stroke:none"
       transform="matrix(0.35277776,0,0,-0.35277776,28.25958,175.09627)"
       clip-path="url(#clipPath3074)" />
    <path
       id="path3075"
       d="M 0,0 -0.034,-0.097 -0.068,-0.204 -0.121,-0.301 -0.16,-0.364 -0.204,-0.427 -0.247,-0.48 -0.296,-0.538 -0.354,-0.587 -0.417,-0.635 -0.48,-0.674 l -0.068,-0.034 -0.073,-0.029 -0.067,-0.024 -0.073,-0.02 -0.078,-0.009 -0.072,-0.005 -0.093,-0.01 -0.101,0.01 -0.097,0.01 -0.097,0.019 -0.092,0.019 -0.093,0.029 -0.097,0.039 -0.164,0.083 -0.068,0.048 -0.068,0.044 -0.053,0.058 -0.059,0.053 -0.087,0.136 -0.044,0.073 -0.029,0.077 -0.029,0.073 -0.014,0.082 -0.02,0.078 -0.004,0.082 v 0.083 l 0.004,0.082 0.029,0.16 0.034,0.146 0.442,-0.112 -0.03,-0.126 -0.014,-0.092 -0.01,-0.092 V 0.165 l 0.01,-0.058 0.014,-0.063 0.02,-0.059 0.019,-0.053 0.039,-0.048 0.034,-0.044 0.039,-0.048 0.048,-0.039 0.049,-0.034 0.072,-0.034 0.064,-0.029 0.067,-0.029 0.078,-0.02 0.073,-0.014 0.145,-0.01 h 0.058 l 0.058,0.015 0.059,0.014 0.097,0.053 0.058,0.039 0.043,0.054 0.044,0.053 0.039,0.058 0.034,0.053 0.029,0.063 0.019,0.068 0.01,0.059 0.005,0.058 -0.005,0.058 -0.01,0.048 L -0.48,0.349 -0.509,0.417 -0.548,0.48 -0.63,0.587 -0.713,0.679 -0.81,0.776 -0.907,0.863 -1.004,0.945 -1.178,1.067 -1.353,1.202 -1.411,1.261 -1.469,1.324 -1.527,1.382 -1.581,1.459 -1.624,1.527 -1.658,1.595 -1.682,1.663 -1.707,1.731 -1.716,1.799 -1.721,1.867 v 0.077 l 0.005,0.073 0.005,0.073 0.019,0.072 0.019,0.078 0.029,0.068 0.039,0.068 0.034,0.067 0.044,0.054 0.053,0.058 0.053,0.053 0.064,0.049 0.058,0.043 0.063,0.034 0.072,0.044 0.083,0.029 0.082,0.015 0.073,0.019 0.087,0.01 0.083,0.005 h 0.087 L -0.596,2.851 -0.509,2.841 -0.427,2.817 -0.344,2.797 -0.271,2.773 -0.204,2.73 -0.131,2.691 -0.063,2.642 0.005,2.594 0.068,2.536 0.112,2.482 0.15,2.434 0.184,2.371 0.213,2.308 0.242,2.225 0.271,2.148 0.291,2.065 0.301,1.978 0.305,1.891 V 1.813 1.731 L 0.296,1.644 0.276,1.556 -0.17,1.673 -0.15,1.731 -0.141,1.794 V 1.857 1.925 L -0.15,1.993 -0.17,2.056 -0.189,2.114 -0.223,2.162 -0.252,2.216 -0.291,2.264 -0.335,2.303 -0.388,2.332 -0.446,2.361 -0.509,2.39 -0.577,2.405 -0.645,2.424 -0.718,2.429 -0.79,2.434 -0.848,2.429 -0.907,2.419 -0.96,2.4 -1.004,2.376 -1.057,2.347 -1.101,2.313 -1.139,2.274 -1.173,2.235 -1.202,2.182 -1.227,2.128 -1.241,2.085 -1.261,2.031 V 1.973 1.915 L -1.256,1.862 -1.241,1.804 -1.222,1.755 -1.198,1.707 -1.168,1.663 -1.125,1.619 -1.086,1.581 -0.96,1.469 -0.824,1.367 -0.684,1.275 -0.577,1.188 -0.47,1.086 -0.364,0.994 -0.271,0.892 -0.184,0.781 -0.141,0.718 -0.097,0.655 -0.063,0.591 -0.034,0.524 -0.01,0.446 0.005,0.373 0.019,0.296 V 0.228 0.15 Z"
       style="fill:#00adef;fill-opacity:1;fill-rule:evenodd;stroke:none"
       transform="matrix(0.35277776,0,0,-0.35277776,29.403779,175.88815)"
       clip-path="url(#clipPath3076)" />
    <path
       id="path3077"
       d="M 0,0 -0.412,0.184 1.071,3.5 1.488,3.321 Z"
       style="fill:#00adef;fill-opacity:1;fill-rule:evenodd;stroke:none"
       transform="matrix(0.35277776,0,0,-0.35277776,29.547466,176.34482)"
       clip-path="url(#clipPath3078)" />
    <path
       id="path3079"
       d="m 0,0 -0.737,0.388 -1.508,-2.88 -0.402,0.208 1.503,2.885 -0.732,0.388 0.169,0.335 1.882,-0.989 z"
       style="fill:#00adef;fill-opacity:1;fill-rule:evenodd;stroke:none"
       transform="matrix(0.35277776,0,0,-0.35277776,30.864422,175.62645)"
       clip-path="url(#clipPath3080)" />
    <path
       id="path3081"
       d="m 0,0 -1.944,-1.081 -0.946,-1.333 -0.368,0.261 0.945,1.339 0.359,2.186 0.417,-0.291 -0.33,-1.619 0.03,-0.015 1.42,0.844 z"
       style="fill:#00adef;fill-opacity:1;fill-rule:evenodd;stroke:none"
       transform="matrix(0.35277776,0,0,-0.35277776,31.861546,176.12588)"
       clip-path="url(#clipPath3082)" />
    <path
       id="path3083"
       d="m 0,0 -0.121,-0.087 -0.117,-0.083 -0.126,-0.072 -0.257,-0.131 -0.077,-0.029 -0.073,-0.025 -0.082,-0.019 -0.068,-0.005 -0.087,-0.005 -0.078,0.005 -0.087,0.01 -0.078,0.014 -0.077,0.025 -0.078,0.024 -0.078,0.039 -0.077,0.034 -0.073,0.043 -0.073,0.049 -0.063,0.048 -0.067,0.058 -0.059,0.068 -0.058,0.068 -0.053,0.068 -0.044,0.068 -0.043,0.082 -0.034,0.078 -0.054,0.16 -0.029,0.092 -0.014,0.102 -0.005,0.097 -0.005,0.092 0.005,0.097 0.01,0.097 0.014,0.092 0.029,0.092 0.024,0.082 0.034,0.088 0.039,0.077 0.102,0.151 0.102,0.126 0.116,0.126 0.121,0.121 0.121,0.116 0.131,0.112 0.131,0.097 0.141,0.102 0.14,0.087 0.291,0.169 0.088,0.034 0.097,0.039 0.092,0.029 0.092,0.025 0.102,0.009 0.097,0.01 0.101,0.005 L 0.082,2.846 0.165,2.841 0.242,2.827 0.33,2.802 0.407,2.778 0.485,2.744 0.558,2.705 0.63,2.662 0.703,2.618 0.776,2.565 0.834,2.507 0.897,2.439 0.955,2.371 1.004,2.313 1.052,2.235 1.091,2.157 1.134,2.08 1.164,1.997 1.188,1.92 1.212,1.837 1.222,1.755 1.231,1.668 1.236,1.585 1.231,1.508 1.222,1.425 1.207,1.348 1.193,1.265 1.164,1.193 1.13,1.12 1.047,0.984 0.97,0.887 0.878,0.785 0.781,0.693 0.688,0.616 0.359,1.013 0.499,1.13 0.621,1.265 0.669,1.328 0.713,1.391 0.747,1.45 0.776,1.522 0.8,1.595 0.805,1.658 0.81,1.716 0.814,1.774 0.8,1.837 0.79,1.896 0.771,1.959 0.742,2.017 0.708,2.075 0.674,2.128 0.625,2.177 0.587,2.22 0.533,2.254 0.48,2.293 0.427,2.317 0.368,2.342 0.31,2.356 0.242,2.366 0.16,2.371 H 0.058 L -0.034,2.356 -0.126,2.342 -0.213,2.317 -0.301,2.279 -0.378,2.235 -0.533,2.148 -0.684,2.046 -0.834,1.944 -0.975,1.837 -1.115,1.716 -1.246,1.595 -1.372,1.464 -1.614,1.202 -1.658,1.139 -1.692,1.071 -1.731,1.008 -1.75,0.936 -1.765,0.863 -1.779,0.79 -1.789,0.708 -1.77,0.548 -1.76,0.49 -1.741,0.431 -1.716,0.368 -1.682,0.31 -1.648,0.262 -1.61,0.208 l 0.049,-0.033 0.048,-0.044 0.054,-0.034 0.048,-0.034 0.063,-0.024 0.063,-0.02 0.068,-0.014 0.063,-0.015 0.068,0.005 0.063,0.005 0.058,0.01 0.117,0.048 0.14,0.073 0.131,0.082 0.126,0.088 0.116,0.097 z"
       style="fill:#00adef;fill-opacity:1;fill-rule:evenodd;stroke:none"
       transform="matrix(0.35277776,0,0,-0.35277776,32.508082,178.00897)"
       clip-path="url(#clipPath3084)" />
    <path
       id="path3085"
       d="M 0,0 -0.223,0.49 1.353,1.217 0.742,2.531 -0.829,1.804 -1.057,2.298 2.245,3.816 2.473,3.321 1.091,2.691 1.697,1.377 3.074,2.012 3.297,1.527 Z"
       style="fill:#00adef;fill-opacity:1;fill-rule:evenodd;stroke:none"
       transform="matrix(0.35277776,0,0,-0.35277776,32.54569,179.25753)"
       clip-path="url(#clipPath3086)" />
    <path
       id="path3087"
       d="M 0,0 -0.15,0.427 3.292,1.605 3.433,1.173 Z"
       style="fill:#00adef;fill-opacity:1;fill-rule:evenodd;stroke:none"
       transform="matrix(0.35277776,0,0,-0.35277776,32.638045,179.53975)"
       clip-path="url(#clipPath3088)" />
    <path
       id="path3089"
       d="M 0,0 -0.126,0.524 2.104,2.41 2.099,2.419 -0.441,1.784 -0.567,2.264 2.957,3.151 3.088,2.628 0.863,0.747 0.868,0.737 3.408,1.372 3.525,0.887 Z"
       style="fill:#00adef;fill-opacity:1;fill-rule:evenodd;stroke:none"
       transform="matrix(0.35277776,0,0,-0.35277776,32.865518,180.44621)"
       clip-path="url(#clipPath3090)" />
    <path
       id="path3091"
       d="M 0,0 1.328,0.378 1.324,0.475 0.01,0.882 Z m -1.513,-0.926 0.01,0.524 1.12,0.286 0.015,1.124 -1.111,0.311 0.005,0.523 L 2.172,0.65 2.167,0.189 Z"
       style="fill:#00adef;fill-opacity:1;fill-rule:evenodd;stroke:none"
       transform="matrix(0.35277776,0,0,-0.35277776,33.351256,181.18165)"
       clip-path="url(#clipPath3092)" />
    <path
       id="path3093"
       d="m 0,0 v -0.039 l -0.005,-0.034 -0.01,-0.039 -0.014,-0.033 -0.015,-0.034 -0.024,-0.034 -0.024,-0.034 -0.02,-0.024 -0.033,-0.03 -0.03,-0.019 -0.033,-0.019 -0.034,-0.015 -0.039,-0.01 -0.039,-0.009 -0.034,-0.005 h -0.039 l -0.039,0.005 -0.038,0.009 -0.039,0.01 -0.034,0.015 -0.034,0.019 -0.029,0.019 -0.029,0.03 -0.029,0.024 -0.02,0.034 -0.019,0.034 -0.019,0.034 -0.015,0.033 -0.01,0.039 -0.004,0.034 -0.005,0.039 0.005,0.039 0.004,0.039 0.01,0.038 0.015,0.039 0.019,0.029 0.019,0.029 0.02,0.034 0.029,0.029 0.029,0.025 0.029,0.024 0.034,0.014 0.034,0.02 0.039,0.009 0.038,0.01 h 0.039 0.039 0.034 l 0.039,-0.01 0.039,-0.009 0.034,-0.02 0.033,-0.014 0.03,-0.024 0.033,-0.025 0.02,-0.029 0.024,-0.034 0.024,-0.029 0.015,-0.029 0.014,-0.039 0.01,-0.038 L 0,0.039 Z"
       style="fill:#00adef;fill-opacity:1;fill-rule:evenodd;stroke:none"
       transform="matrix(0.35277776,0,0,-0.35277776,31.810254,176.887)"
       clip-path="url(#clipPath3094)" />
    <path
       id="path3095"
       d="M 0,0 -0.145,-0.092 -0.218,-0.15 -0.281,-0.213 -0.305,-0.247 -0.33,-0.286 -0.344,-0.32 l -0.02,-0.034 -0.014,-0.063 -0.005,-0.019 -0.005,-0.005 -0.01,-0.015 -0.004,-0.009 -0.01,-0.005 -0.01,-0.01 -0.024,-0.019 -0.039,-0.029 -0.102,-0.049 -0.14,-0.073 -0.083,-0.034 -0.038,-0.009 -0.039,-0.005 -0.039,-0.005 -0.572,0.179 -0.213,0.165 -0.02,0.005 -0.073,0.034 -0.32,0.092 -0.092,0.02 -0.038,0.009 h -0.015 -0.005 -0.005 -0.005 l -0.004,-0.009 h -0.015 l -0.005,-0.01 -0.009,-0.01 v -0.01 l -0.01,-0.014 v -0.005 l -0.005,-0.024 v -0.024 l 0.015,-0.049 0.038,-0.136 0.039,-0.261 0.068,-0.248 0.015,-0.053 v -0.024 l -0.005,-0.039 -0.005,-0.034 -0.005,-0.024 -0.015,-0.029 -0.019,-0.029 -0.024,-0.025 -0.024,-0.024 -0.03,-0.019 -0.038,-0.025 -0.029,-0.009 -0.078,-0.029 -0.058,-0.01 -0.131,-0.015 -0.32,0.005 -0.548,0.073 -0.014,0.005 -0.025,0.005 h -0.101 -0.107 l -0.053,0.005 -0.02,0.009 H -3.82 l -0.015,0.01 -0.005,0.005 -0.009,0.009 -0.005,0.005 -0.005,0.005 v 0.005 0.01 l -0.005,0.005 v 0.004 l 0.005,0.039 0.005,0.029 0.005,0.02 0.009,0.029 0.02,0.029 0.038,0.053 0.083,0.087 0.169,0.16 0.044,0.054 0.02,0.024 0.014,0.019 0.015,0.025 0.009,0.038 0.015,0.034 0.005,0.068 v 0.306 l -0.005,0.295 -0.015,0.02 -0.005,0.005 -0.019,0.014 -0.005,0.01 H -3.471 L -3.476,0.136 -3.491,0.141 H -3.496 -3.51 -3.515 -3.52 l -0.01,-0.01 -0.019,-0.005 -0.014,-0.01 -0.03,-0.019 -0.189,-0.184 -0.043,-0.029 -0.015,-0.01 -0.014,-0.01 -0.02,-0.005 -0.014,-0.004 -0.015,-0.005 -0.01,0.005 -0.014,0.004 h -0.015 l -0.019,0.01 -0.01,0.01 -0.014,0.005 -0.01,0.009 -0.029,0.039 -0.087,0.141 v 0.005 l -0.005,0.014 0.005,0.01 0.005,0.01 0.009,0.014 0.005,0.015 0.019,0.029 0.03,0.024 0.067,0.063 0.253,0.189 0.101,0.102 0.039,0.039 0.015,0.024 0.009,0.014 0.005,0.015 0.005,0.01 V 0.669 L -3.544,0.684 -3.549,0.756 -3.588,0.902 -3.762,1.348 -3.791,1.474 -3.835,1.726 -3.874,1.852 -3.903,1.91 V 1.92 L -3.917,1.944 -3.961,2.09 -4.111,2.739 -4.16,2.991 V 3.04 l -0.005,0.01 v 0.004 l 0.01,0.025 0.01,0.024 0.014,0.024 0.029,0.049 0.029,0.043 0.02,0.02 0.019,0.014 0.049,0.034 0.024,0.005 0.01,0.01 h 0.009 l 0.02,0.004 h 0.019 l 0.01,-0.004 h 0.014 l 0.015,-0.005 0.015,-0.01 0.014,-0.005 0.01,-0.019 0.014,-0.015 0.029,-0.043 0.054,-0.122 0.029,-0.072 0.014,-0.034 0.18,-0.34 0.019,-0.058 0.034,-0.126 0.034,-0.111 0.019,-0.063 0.417,-0.834 0.112,-0.223 0.005,-0.024 0.005,-0.005 0.004,-0.005 0.01,-0.005 h 0.005 0.01 l 0.009,0.005 0.005,-0.005 0.02,0.005 h 0.009 l 0.015,0.01 0.034,0.014 0.068,0.049 0.106,0.101 0.107,0.117 0.092,0.111 0.034,0.063 0.019,0.029 0.005,0.02 0.005,0.014 v 0.015 0.01 0.014 0.005 l -0.01,0.005 v 0.009 0.005 l -0.009,0.005 -0.01,0.01 -0.005,0.005 -0.029,0.009 -0.048,0.034 -0.015,0.005 -0.01,0.005 -0.009,0.01 -0.005,0.005 v 0.004 l -0.01,0.005 V 1.881 1.891 1.9 1.905 l 0.005,0.01 -0.005,0.005 h 0.01 v 0.01 0.004 l 0.005,0.01 0.009,0.005 0.005,0.005 0.02,0.01 0.019,0.004 0.044,0.01 0.116,0.015 0.063,0.009 0.175,0.049 0.198,0.058 0.092,0.015 0.078,0.009 0.034,-0.005 0.029,-0.004 0.015,-0.005 0.014,-0.005 0.01,0.005 0.009,-0.015 h 0.005 L -1.508,2.09 -1.503,2.094 -1.498,2.085 V 2.08 L -1.503,2.075 V 2.07 L -1.498,2.06 -1.503,2.056 -1.508,2.046 -1.527,2.027 -1.547,2.002 -1.6,1.944 -2.051,1.605 -2.187,1.479 -2.444,1.183 -2.458,1.173 -2.497,1.149 -2.604,1.076 -2.637,1.052 -2.647,1.042 -2.667,1.018 -2.691,0.979 -2.71,0.941 -2.73,0.887 -2.739,0.829 V 0.766 l -0.005,-0.063 0.024,-0.116 0.063,-0.17 0.073,-0.15 0.01,-0.01 0.014,-0.029 0.034,-0.102 0.01,-0.029 0.009,-0.01 0.01,-0.009 V 0.073 l 0.01,-0.005 0.005,-0.005 0.014,-0.01 0.039,-0.009 0.078,-0.005 0.203,-0.01 0.766,0.034 0.175,0.019 0.053,0.005 0.039,0.015 0.087,0.034 0.165,0.082 0.087,0.029 0.058,0.015 0.068,0.009 h 0.068 L -0.49,0.267 -0.388,0.247 -0.291,0.218 -0.194,0.175 -0.145,0.15 -0.092,0.116 -0.048,0.073 -0.024,0.039 Z"
       style="fill:#00adef;fill-opacity:1;fill-rule:evenodd;stroke:none"
       transform="matrix(0.35277776,0,0,-0.35277776,30.996113,186.32465)"
       clip-path="url(#clipPath3096)" />
    <path
       id="path3097"
       d="m 0,0 v 0.024 0.015 0.005 0.009 0.005 0.01 h -0.01 l -0.005,0.005 -0.004,0.005 -0.049,0.034 0.02,0.077 0.009,0.034 0.005,0.019 0.005,0.005 0.01,0.01 0.009,0.019 0.015,0.015 0.039,0.019 V 0.315 0.33 0.388 l 0.019,0.3 0.015,0.112 v 0.014 l 0.004,0.005 0.02,0.029 0.019,0.02 0.029,0.019 0.025,0.015 0.029,0.005 0.029,0.014 0.082,0.01 0.209,0.029 0.092,0.024 0.145,0.054 0.024,0.014 0.059,0.039 0.126,0.092 0.058,0.039 0.048,0.019 0.02,0.005 0.034,0.01 0.024,0.005 H 1.173 L 1.193,1.256 H 1.212 L 1.227,1.246 1.241,1.236 1.251,1.227 1.27,1.217 1.28,1.202 1.294,1.183 1.304,1.164 1.324,1.115 1.353,1.023 1.372,0.984 1.382,0.96 1.391,0.95 1.406,0.931 1.416,0.926 1.43,0.921 1.469,0.902 1.566,0.868 1.789,0.829 1.881,0.8 2.027,0.756 2.153,0.698 2.288,0.606 2.584,0.368 2.715,0.262 2.763,0.223 2.783,0.204 2.802,0.179 2.817,0.15 2.827,0.126 2.841,0.107 2.851,0.087 V 0.073 0.058 L 2.856,0.039 2.851,0.024 V 0.015 0 L 2.841,-0.015 2.836,-0.019 2.822,-0.039 2.807,-0.053 2.788,-0.073 2.744,-0.107 2.71,-0.126 2.633,-0.165 2.414,-0.223 1.983,-0.291 1.881,-0.301 1.852,-0.31 H 1.842 V -0.315 H 1.837 V -0.32 H 1.833 v -0.01 -0.005 l 0.004,-0.004 v -0.01 -0.005 l 0.005,-0.01 v -0.009 l 0.02,-0.029 0.029,-0.03 0.073,-0.063 0.378,-0.3 0.058,-0.044 0.014,-0.024 0.01,-0.005 0.005,-0.005 V -0.882 -0.887 -0.902 L 2.424,-0.907 V -0.911 L 2.414,-0.926 2.4,-0.941 2.39,-0.945 2.38,-0.96 2.356,-0.975 2.288,-0.999 2.167,-1.038 2.104,-1.062 2.094,-1.071 H 2.085 L 2.075,-1.091 2.06,-1.105 2.056,-1.115 2.041,-1.134 V -1.149 L 2.036,-1.183 2.027,-1.275 2.022,-1.29 V -1.299 L 2.017,-1.314 V -1.319 L 2.007,-1.328 2.002,-1.333 1.993,-1.338 H 1.988 L 1.983,-1.348 1.973,-1.353 H 1.964 1.954 1.944 1.934 L 1.925,-1.348 H 1.915 L 1.9,-1.338 1.871,-1.319 1.799,-1.256 1.765,-1.236 1.697,-1.198 1.474,-1.096 1.411,-1.062 1.377,-1.042 1.333,-1.004 1.314,-0.984 1.28,-0.941 1.212,-0.848 1.178,-0.8 0.955,-0.606 0.853,-0.495 0.805,-0.446 0.771,-0.383 0.761,-0.354 0.747,-0.32 0.742,-0.296 v 0.034 0.02 l 0.005,0.019 v 0.019 l 0.004,0.015 0.015,0.029 0.019,0.024 0.015,0.02 0.034,0.024 0.029,0.019 0.044,0.025 0.232,0.043 0.146,0.049 0.072,0.024 0.034,0.005 0.039,0.005 0.034,-0.005 0.024,-0.005 0.029,-0.01 0.02,-0.005 0.019,-0.014 0.029,-0.02 0.063,-0.043 0.029,-0.015 0.015,-0.009 0.019,-0.01 0.03,-0.01 0.029,-0.005 h 0.029 l 0.053,0.005 0.17,0.034 0.106,0.034 0.063,0.024 0.034,0.015 0.034,0.029 0.01,0.01 0.015,0.014 0.004,0.015 0.01,0.009 0.005,0.015 v 0.005 0.009 0.01 0.01 0.005 L 2.298,0.184 2.288,0.199 2.284,0.208 2.269,0.223 2.24,0.267 2.191,0.315 2.128,0.359 2.056,0.402 1.973,0.431 1.9,0.465 1.745,0.504 1.265,0.577 1.222,0.591 1.11,0.616 1.023,0.635 H 0.999 0.97 L 0.945,0.63 H 0.931 L 0.911,0.625 0.892,0.611 0.858,0.591 0.824,0.562 0.747,0.485 0.393,0.039 0.32,-0.039 0.286,-0.068 0.252,-0.092 0.233,-0.107 0.213,-0.116 H 0.208 L 0.194,-0.126 H 0.189 0.175 0.17 l -0.015,0.01 H 0.141 l -0.01,0.009 -0.019,0.01 -0.039,0.029 z"
       style="fill:#00adef;fill-opacity:1;fill-rule:evenodd;stroke:none"
       transform="matrix(0.35277776,0,0,-0.35277776,23.119996,185.09321)"
       clip-path="url(#clipPath3098)" />
    <path
       id="path3099"
       d="M 0,0 H 0.078 L 0.048,0.078 Z"
       style="fill:#00adef;fill-opacity:1;fill-rule:evenodd;stroke:none"
       transform="matrix(0.35277776,0,0,-0.35277776,23.174712,185.09321)"
       clip-path="url(#clipPath3100)" />
    <path
       id="path3101"
       d="m 0,0 -0.039,-0.019 h -0.014 v -0.005 h -0.005 -0.01 -0.005 v 0.005 h -0.005 l -0.009,0.009 -0.044,0.039 0.034,0.044 0.005,0.014 v 0.005 h 0.005 V 0.107 0.165 L -0.131,0.053 -0.17,0.121 -0.184,0.145 -0.199,0.165 v 0.014 l -0.005,0.015 v 0.01 0.009 l 0.005,0.005 v 0.005 0.01 h 0.01 v 0.005 l 0.01,0.004 0.034,0.02 0.014,0.014 0.005,0.005 0.014,0.01 0.005,0.014 0.01,0.01 0.005,0.015 0.005,0.034 -0.063,-0.068 -0.015,0.034 -0.014,0.038 -0.02,0.078 -0.005,0.049 v 0.038 0.025 l 0.005,0.019 0.01,0.029 0.005,0.015 0.005,0.019 0.014,0.019 0.02,0.01 0.014,0.015 0.015,0.004 0.024,0.01 0.019,0.005 h 0.025 L 0.073,0.698 H 0.112 L 0.145,0.688 0.165,0.684 0.189,0.669 0.204,0.659 0.228,0.63 0.32,0.533 0.388,0.465 0.562,0.364 0.577,0.349 0.611,0.315 0.635,0.291 0.655,0.281 0.669,0.271 0.684,0.262 0.703,0.257 0.718,0.252 H 0.742 0.766 L 0.785,0.257 H 0.81 L 0.829,0.262 0.853,0.276 0.868,0.281 0.902,0.31 0.926,0.335 0.945,0.368 0.989,0.436 1.057,0.567 1.168,0.761 1.188,0.81 1.193,0.834 1.202,0.853 V 0.868 L 1.193,0.907 1.188,0.945 1.173,0.999 1.164,1.033 1.13,1.096 1.062,1.188 0.911,1.382 0.848,1.479 0.819,1.527 0.8,1.566 0.795,1.605 0.781,1.644 V 1.682 1.721 L 0.795,1.779 0.81,1.813 0.819,1.862 0.848,1.9 0.868,1.891 0.887,1.886 h 0.02 0.019 L 0.96,1.891 1.018,1.9 1.038,1.905 1.062,1.9 H 1.091 L 1.11,1.891 1.144,1.881 1.164,1.867 1.222,1.833 1.261,1.808 1.333,1.736 1.556,1.479 1.6,1.425 1.629,1.406 1.663,1.387 1.682,1.372 1.702,1.367 H 1.711 L 1.741,1.362 H 1.76 l 0.039,0.005 0.068,0.02 0.038,0.019 0.078,0.048 0.364,0.248 0.048,0.039 0.029,0.014 h 0.01 0.014 0.01 0.005 0.005 L 2.487,1.75 2.516,1.731 2.574,1.687 2.778,1.517 2.817,1.493 2.836,1.484 2.87,1.474 2.894,1.464 2.923,1.459 H 2.962 L 3.069,1.474 H 3.093 3.098 3.113 L 3.127,1.464 H 3.132 L 3.137,1.459 H 3.146 L 3.161,1.454 3.166,1.44 3.18,1.425 3.185,1.411 3.2,1.387 3.258,1.362 3.277,1.353 3.282,1.348 3.292,1.343 3.297,1.333 V 1.328 H 3.302 V 1.324 L 3.311,1.314 V 1.309 1.299 1.29 1.275 1.251 H 3.336 L 3.35,1.241 H 3.37 L 3.384,1.236 3.389,1.231 3.394,1.222 3.408,1.217 H 3.413 V 1.207 L 3.423,1.202 3.428,1.188 3.442,1.164 3.447,1.149 3.452,1.144 h 0.01 V 1.139 L 3.476,1.13 H 3.481 L 3.486,1.125 H 3.5 3.52 L 3.505,1.086 3.486,1.047 3.466,1.013 3.442,0.974 3.408,0.945 3.292,0.834 3.258,0.805 3.243,0.781 3.229,0.771 3.224,0.756 3.219,0.732 V 0.718 L 3.21,0.703 V 0.688 0.679 L 3.219,0.659 V 0.645 L 3.224,0.63 3.239,0.611 3.248,0.591 3.258,0.587 3.273,0.567 3.292,0.553 3.34,0.528 3.539,0.427 3.646,0.354 3.728,0.296 3.801,0.233 3.874,0.141 3.83,0.111 3.811,0.102 H 3.801 3.791 L 3.767,0.092 3.728,0.102 3.738,-0.01 3.452,0.034 3.258,0.092 H 3.243 L 3.229,0.087 H 3.21 L 3.185,0.073 3.113,0.034 3.079,0.019 3.045,0.01 3.006,0 H 2.977 L 2.89,0.015 2.647,0.068 2.57,0.078 2.536,0.073 H 2.507 L 2.482,0.068 2.468,0.058 2.458,0.048 2.443,0.039 2.434,0.034 2.429,0.029 2.414,0.015 2.41,0 V -0.01 L 2.405,-0.044 V -0.063 -0.112 -0.136 L 2.41,-0.175 2.429,-0.223 2.468,-0.315 2.56,-0.461 2.773,-0.727 2.817,-0.805 2.836,-0.848 2.851,-0.878 2.865,-0.907 2.87,-0.936 V -0.95 -0.979 L 2.783,-0.97 H 2.725 L 2.458,-1.008 H 2.414 L 2.39,-1.004 2.347,-0.999 2.187,-0.945 H 2.133 L 2.109,-0.936 1.876,-0.945 1.726,-0.911 1.43,-0.8 1.13,-0.684 0.979,-0.645 H 0.945 0.878 L 0.742,-0.669 0.684,-0.674 H 0.635 0.616 l -0.034,0.005 -0.02,0.014 -0.019,0.005 -0.019,0.015 -0.005,0.005 -0.005,0.014 -0.01,0.005 v 0.015 l -0.005,0.005 v 0.009 0.005 0.024 l 0.005,0.063 v 0.039 l -0.005,0.034 -0.004,0.019 -0.01,0.02 -0.005,0.01 -0.015,0.019 -0.019,0.029 -0.024,0.024 -0.034,0.029 -0.049,0.039 -0.043,0.024 -0.121,0.049 -0.039,0.019 -0.02,0.01 -0.019,0.01 -0.019,0.014 -0.025,0.029 -0.019,0.02 z"
       style="fill:#00adef;fill-opacity:1;fill-rule:evenodd;stroke:none"
       transform="matrix(0.35277776,0,0,-0.35277776,23.657029,184.48435)"
       clip-path="url(#clipPath3102)" />
    <path
       id="path3103"
       d="M 0,0 0.058,0.005 0.116,0.01 0.199,0.024 0.281,0.048 0.364,0.082 0.465,0.155 0.572,0.233 0.669,0.325 0.751,0.417 0.79,0.48 0.829,0.543 0.848,0.601 0.868,0.645 0.873,0.684 V 0.718 L 0.868,0.747 0.863,0.776 0.858,0.785 0.853,0.8 0.844,0.819 0.829,0.834 0.814,0.848 0.795,0.863 0.776,0.873 0.751,0.882 0.708,0.892 H 0.703 L 0.688,0.897 0.679,0.892 H 0.664 L 0.65,0.887 H 0.63 L 0.601,0.873 0.572,0.858 0.509,0.814 0.451,0.771 0.344,0.674 0.189,0.495 0.058,0.305 0.005,0.199 -0.015,0.145 -0.019,0.097 -0.024,0.078 V 0.063 L -0.019,0.048 -0.024,0.039 -0.019,0.029 -0.015,0.024 -0.01,0.015 -0.005,0.01 Z m -1.212,-1.755 h 0.044 l 0.038,0.005 0.044,0.014 0.029,0.02 0.024,0.009 0.025,0.015 0.033,0.034 0.03,0.039 0.024,0.038 0.014,0.039 0.01,0.044 0.01,0.029 -0.005,0.015 v 0.024 0.009 0.005 l -0.005,0.01 -0.005,0.005 v 0.01 h -0.005 -0.004 v 0.004 l -0.005,0.005 h -0.005 -0.005 l -0.01,0.005 h -0.005 l -0.014,-0.005 -0.01,0.005 -0.024,-0.005 -0.019,-0.009 -0.034,-0.015 -0.039,-0.024 -0.073,-0.049 -0.068,-0.068 -0.029,-0.029 -0.019,-0.034 -0.005,-0.014 -0.01,-0.02 -0.005,-0.004 v -0.015 l 0.005,-0.01 -0.005,-0.004 v -0.005 l 0.005,-0.01 0.005,-0.005 0.005,-0.01 0.01,-0.009 0.004,-0.005 0.01,-0.01 z m 0.073,-1.328 -0.044,0.033 -0.034,0.034 -0.034,0.025 -0.019,0.038 -0.024,0.039 -0.015,0.063 v 0.039 l -0.01,0.078 0.01,0.067 0.024,0.122 0.117,0.344 0.024,0.082 0.01,0.034 v 0.015 0.005 l -0.005,0.009 v 0.015 l -0.005,0.005 -0.005,0.005 -0.015,0.009 h -0.004 l -0.01,0.005 h -0.015 -0.019 -0.019 l -0.054,-0.005 -0.126,-0.043 -0.194,-0.073 -0.116,-0.039 -0.073,-0.014 h -0.043 l -0.025,-0.01 -0.024,0.01 H -1.91 l -0.024,0.004 -0.025,0.015 -0.029,0.01 -0.019,0.014 -0.01,0.015 -0.019,0.009 -0.01,0.025 -0.015,0.024 -0.014,0.029 -0.005,0.019 -0.01,0.02 v 0.034 l -0.004,0.116 0.019,0.116 0.01,0.068 0.014,0.029 0.015,0.025 v 0.005 l 0.024,0.019 0.019,0.014 0.034,0.015 0.122,0.053 0.038,0.015 0.015,0.014 0.213,0.17 0.727,0.63 0.253,0.248 0.024,0.034 v 0.009 l 0.005,0.015 h 0.004 l -0.004,0.005 0.004,0.014 -0.004,0.005 v 0.005 l -0.005,0.01 v 0.009 l -0.015,0.005 -0.005,0.005 -0.004,0.005 -0.01,0.005 h -0.005 l -0.015,0.005 -0.009,0.004 -0.025,0.005 h -0.029 l -0.063,-0.009 -0.16,-0.02 -0.334,-0.092 -0.087,-0.019 h -0.034 l -0.02,-0.005 -0.005,0.005 h -0.004 l -0.02,0.009 -0.01,0.005 -0.024,0.01 -0.043,0.034 -0.054,0.058 -0.053,0.073 -0.015,0.034 -0.014,0.043 -0.005,0.02 -0.01,0.029 v 0.019 0.015 0.009 l 0.005,0.015 v 0.01 l 0.01,0.009 0.005,0.015 0.097,0.048 h 0.004 l 0.015,0.005 0.015,-0.005 0.034,-0.009 0.101,-0.034 h 0.029 l 0.02,-0.005 0.635,-0.024 0.194,0.009 0.043,0.01 0.01,0.005 h 0.015 l 0.005,0.005 0.009,0.005 0.02,0.014 0.038,0.049 0.165,0.261 0.393,0.471 0.272,0.257 0.116,0.082 0.048,0.034 0.054,0.024 0.029,0.01 0.024,0.005 0.024,0.01 H 0.814 L 0.834,1.193 0.844,1.188 H 0.858 L 0.868,1.183 0.887,1.178 0.897,1.168 0.907,1.159 0.916,1.149 0.936,1.125 0.979,1.042 1.052,0.921 1.071,0.868 1.076,0.834 1.091,0.766 V 0.645 L 1.076,0.533 1.047,0.422 1.008,0.325 0.931,0.199 0.839,0.087 0.727,-0.005 0.606,-0.087 0.461,-0.155 0.305,-0.204 0.194,-0.218 -0.116,-0.267 -0.199,-0.286 -0.233,-0.305 -0.257,-0.32 h -0.01 l -0.009,-0.015 -0.015,-0.004 -0.019,-0.039 -0.029,-0.054 -0.059,-0.13 -0.208,-0.64 -0.102,-0.286 -0.005,-0.059 -0.009,-0.024 0.004,-0.01 0.005,-0.009 0.005,-0.01 v -0.01 l 0.01,-0.014 0.01,-0.01 0.009,-0.01 0.02,-0.004 0.019,-0.005 0.01,-0.005 0.029,-0.005 h 0.034 l 0.072,0.01 0.141,0.024 0.044,0.005 h 0.019 0.024 0.02 l 0.058,-0.015 h 0.034 l 0.01,-0.005 h 0.019 l 0.019,0.005 0.015,0.005 0.882,0.475 0.015,0.01 0.009,0.01 0.01,0.009 0.005,0.015 0.005,0.01 0.019,0.053 H 0.785 0.761 L 0.727,-1.057 0.708,-1.067 0.684,-1.071 0.664,-1.086 0.64,-1.091 0.562,-1.154 0.524,-1.173 0.504,-1.178 0.485,-1.188 H 0.47 0.456 0.446 0.431 l -0.009,0.005 -0.02,0.005 -0.019,0.01 -0.019,0.014 -0.025,0.01 -0.024,0.034 -0.014,0.029 -0.025,0.034 -0.009,0.034 -0.01,0.019 v 0.019 0.03 0.024 l 0.005,0.024 0.014,0.015 0.01,0.019 0.015,0.005 0.019,0.024 0.029,0.015 0.029,0.019 0.039,0.015 0.039,0.009 0.034,0.01 0.082,0.019 0.257,0.015 0.078,0.01 0.043,0.014 0.044,0.029 0.039,0.02 0.034,0.034 0.019,0.019 0.034,0.034 0.034,0.058 0.063,0.112 0.208,0.426 0.117,0.204 0.087,0.107 0.034,0.048 0.053,0.039 0.02,0.014 0.043,0.015 0.039,0.005 0.024,0.009 h 0.02 0.009 L 1.91,0.461 1.964,0.446 1.993,0.431 2.022,0.417 2.036,0.407 2.046,0.398 2.06,0.388 2.065,0.373 2.07,0.364 2.075,0.359 2.085,0.344 V 0.325 L 2.09,0.31 V 0.286 L 2.08,0.247 2.06,0.17 V 0.145 L 2.056,0.141 V 0.121 L 2.065,0.073 2.09,-0.024 2.206,-0.349 2.23,-0.446 2.24,-0.485 V -0.524 L 2.235,-0.543 V -0.577 L 2.225,-0.611 2.216,-0.64 2.196,-0.679 2.177,-0.693 2.157,-0.722 2.138,-0.742 2.109,-0.761 2.08,-0.771 2.046,-0.79 1.954,-0.815 1.677,-0.863 1.59,-0.892 1.556,-0.911 1.532,-0.921 1.513,-0.936 1.474,-0.975 1.459,-0.989 1.445,-1.008 1.435,-1.028 1.421,-1.062 1.387,-1.173 1.202,-1.547 1.149,-1.668 1.13,-1.726 1.125,-1.779 1.12,-1.794 v -0.034 l 0.005,-0.014 0.009,-0.02 v -0.009 l 0.015,-0.01 0.005,-0.005 0.01,-0.01 0.014,-0.014 0.015,-0.01 0.029,-0.014 0.15,-0.049 0.024,-0.01 0.02,-0.009 0.014,-0.02 0.02,-0.009 0.014,-0.015 0.029,-0.048 0.058,-0.102 0.136,-0.344 0.015,-0.034 0.043,-0.054 0.092,-0.116 0.034,-0.058 0.02,-0.039 0.014,-0.034 0.01,-0.044 L 1.92,-2.987 1.93,-3.054 1.925,-3.122 1.905,-3.195 1.896,-3.239 1.881,-3.282 1.862,-3.321 1.847,-3.336 1.833,-3.345 1.823,-3.36 1.808,-3.37 1.794,-3.374 1.779,-3.379 1.765,-3.384 1.755,-3.379 H 1.741 1.721 L 1.692,-3.365 1.668,-3.36 1.629,-3.336 1.576,-3.302 1.484,-3.214 1.314,-3.03 1.27,-2.957 1.256,-2.948 1.241,-2.914 1.202,-2.793 1.149,-2.657 1.115,-2.599 1.096,-2.565 1.081,-2.55 l -0.019,0.019 -0.02,0.01 -0.009,0.01 -0.02,0.004 -0.009,0.005 H 0.989 l -0.01,0.005 H 0.974 L 0.97,-2.502 H 0.965 L 0.955,-2.507 0.95,-2.502 0.941,-2.511 0.936,-2.516 0.916,-2.531 0.907,-2.555 0.868,-2.604 0.824,-2.696 0.747,-2.87 0.722,-2.943 0.718,-2.962 0.713,-2.991 0.718,-3.025 0.722,-3.054 0.742,-3.161 0.751,-3.219 V -3.258 L 0.742,-3.302 0.703,-3.447 0.693,-3.51 0.688,-3.554 0.674,-3.578 V -3.593 H 0.664 V -3.602 L 0.654,-3.607 0.645,-3.617 0.64,-3.622 0.63,-3.626 0.625,-3.631 H 0.611 0.591 0.577 0.558 l -0.025,0.005 -0.029,0.009 -0.029,0.015 -0.029,0.014 -0.029,0.015 -0.019,0.014 -0.025,0.029 -0.009,0.01 -0.01,0.005 -0.005,0.01 -0.131,0.708 v 0.019 0.005 0.024 l 0.015,0.082 0.009,0.03 -0.004,0.014 0.004,0.01 -0.004,0.009 -0.005,0.005 -0.005,0.01 H 0.223 l -0.005,0.01 H 0.213 l -0.024,0.014 -0.019,0.01 -0.039,0.01 H 0.107 L 0.063,-2.54 -0.068,-2.545 -0.335,-2.589 h -0.077 l -0.029,0.005 -0.039,0.01 h -0.01 l -0.024,0.014 -0.005,0.01 h -0.009 l -0.01,0.01 -0.005,0.009 -0.005,0.005 v 0.005 l -0.005,0.01 -0.005,0.019 -0.004,0.034 v 0.024 l 0.004,0.054 0.059,0.286 v 0.058 0.024 0.019 l -0.005,0.01 -0.015,0.058 -0.014,0.029 -0.005,0.015 -0.01,0.014 -0.005,0.01 -0.009,0.01 -0.01,0.01 -0.015,0.009 h -0.004 -0.005 l -0.015,0.005 H -0.63 L -0.635,-1.828 H -0.65 l -0.014,-0.005 -0.02,-0.009 -0.019,-0.015 -0.029,-0.024 -0.034,-0.034 -0.063,-0.082 -0.049,-0.088 -0.009,-0.043 -0.155,-0.684 -0.059,-0.204 -0.024,-0.043 z"
       style="fill:#00adef;fill-opacity:1;fill-rule:evenodd;stroke:none"
       transform="matrix(0.35277776,0,0,-0.35277776,26.62449,185.7842)"
       clip-path="url(#clipPath3104)" />
    <path
       id="path3105"
       d="M 0,0 0.01,0.005 0.015,0.01 0.019,0.015 0.034,0.048 0.053,0.087 0.082,0.204 0.102,0.417 0.092,0.606 0.082,0.679 0.078,0.703 0.068,0.727 0.063,0.742 0.053,0.751 0.039,0.766 0.034,0.771 0.024,0.776 0.015,0.785 h -0.02 L -0.015,0.79 -0.039,0.795 H -0.087 L -0.184,0.79 -0.228,0.795 -0.359,0.81 H -0.398 -0.417 L -0.441,0.8 -0.465,0.795 -0.49,0.785 -0.514,0.771 -0.524,0.766 V 0.761 L -0.533,0.747 -0.548,0.727 -0.558,0.703 -0.562,0.688 -0.577,0.655 -0.582,0.582 V 0.475 l 0.02,-0.126 0.029,-0.107 0.019,-0.063 0.01,-0.024 0.019,-0.01 0.005,-0.014 0.005,-0.005 0.014,-0.005 0.02,-0.014 0.034,-0.025 0.082,-0.029 0.18,-0.048 0.072,-0.015 h 0.039 0.024 z m -1.43,0.432 0.034,0.033 0.014,0.015 0.025,0.01 0.019,0.009 0.019,0.005 0.025,0.005 h 0.024 0.024 L -1.222,0.504 -1.198,0.49 -1.13,0.456 -1.004,0.373 -0.96,0.359 -0.936,0.344 -0.907,0.339 h 0.025 l 0.024,0.005 0.019,0.005 0.02,0.01 0.024,0.009 0.01,0.015 0.038,0.024 0.02,0.029 0.014,0.025 0.015,0.019 0.005,0.019 0.009,0.025 0.005,0.014 V 0.562 0.587 0.64 l -0.019,0.145 v 0.034 0.025 l 0.005,0.014 v 0.01 l 0.009,0.005 0.005,0.014 0.005,0.005 0.019,0.019 0.044,0.03 0.15,0.116 0.044,0.039 0.019,0.024 0.456,0.81 0.485,0.15 0.039,0.014 0.106,0.01 L 0.994,2.119 1.139,2.099 1.227,2.08 1.256,2.07 1.285,2.056 1.299,2.051 1.314,2.046 1.319,2.036 1.328,2.027 V 2.022 L 1.338,2.007 V 2.002 1.997 L 1.328,1.978 1.324,1.939 1.294,1.862 1.227,1.726 1.154,1.61 1.125,1.571 1.11,1.556 1.101,1.547 1.091,1.537 1.081,1.532 1.067,1.527 1.042,1.513 0.97,1.488 0.936,1.474 0.916,1.459 0.902,1.454 0.897,1.45 0.892,1.44 0.887,1.43 0.873,1.416 V 1.411 L 0.868,1.387 0.863,1.362 V 1.314 L 0.868,1.154 V 1.125 L 0.863,1.101 0.853,1.076 0.829,1.023 0.814,0.984 0.771,0.926 0.635,0.737 0.616,0.688 0.591,0.63 0.577,0.572 0.538,0.407 0.475,-0.044 v -0.218 l 0.015,-0.136 0.009,-0.063 0.015,-0.048 0.005,-0.024 0.014,-0.015 0.01,-0.019 0.015,-0.02 0.004,-0.004 0.015,-0.015 0.01,-0.005 H 0.601 0.606 L 0.611,-0.616 H 0.625 0.63 l 0.005,0.005 H 0.64 0.65 l 0.009,0.005 0.005,0.01 0.01,0.009 0.01,0.015 0.019,0.034 0.01,0.024 0.019,0.063 0.044,0.218 0.043,0.141 0.117,0.267 0.082,0.198 0.049,0.088 0.024,0.038 0.024,0.029 0.024,0.025 0.02,0.019 0.019,0.01 0.02,0.014 0.014,0.005 0.019,0.005 0.025,0.005 0.024,0.01 0.024,-0.01 H 1.338 L 1.367,0.601 1.391,0.587 1.425,0.572 1.474,0.538 1.581,0.461 1.585,0.456 1.61,0.427 1.707,0.272 1.925,-0.126 1.968,-0.213 1.983,-0.233 2.08,-0.8 2.109,-0.916 2.124,-0.96 2.133,-0.984 2.138,-0.994 h 0.01 v -0.005 h 0.005 l 0.004,-0.009 0.02,-0.005 0.029,-0.005 0.024,-0.005 h 0.063 l 0.151,0.015 0.14,0.024 0.049,0.014 0.019,0.01 0.019,0.01 0.005,0.005 0.029,0.024 0.029,0.029 0.034,0.048 0.015,0.039 0.039,0.073 0.087,0.223 0.039,0.111 0.039,0.068 0.024,0.029 0.034,0.044 0.043,0.024 0.083,0.054 0.266,0.135 0.025,-0.043 0.004,-0.01 V -0.111 L 3.471,-0.126 V -0.136 -0.141 -0.16 L 3.462,-0.213 v -0.039 l 0.004,-0.044 0.02,-0.097 V -0.422 -0.436 -0.451 L 3.481,-0.465 3.466,-0.495 3.457,-0.519 3.408,-0.582 3.122,-0.902 3.064,-0.984 3.04,-1.013 3.011,-1.067 3.006,-1.096 2.996,-1.12 2.991,-1.154 v -0.005 -0.014 l 0.005,-0.01 0.01,-0.024 0.01,-0.024 L 3.03,-1.251 3.045,-1.28 3.098,-1.343 3.399,-1.653 3.491,-1.77 3.53,-1.828 3.554,-1.871 3.563,-1.915 3.578,-1.959 3.583,-1.993 V -2.022 -2.08 L 3.573,-2.128 3.544,-2.177 3.53,-2.211 3.505,-2.245 3.471,-2.279 3.054,-2.778 2.957,-2.875 2.919,-2.909 2.899,-2.923 2.89,-2.933 2.885,-2.938 H 2.875 L 2.754,-2.986 2.608,-3.03 2.463,-3.059 2.4,-3.064 2.376,-3.059 H 2.342 L 2.322,-3.054 2.317,-3.045 2.303,-3.04 2.298,-3.035 2.293,-3.02 H 2.284 v 0.004 l -0.005,0.01 v 0.01 0.01 l 0.005,0.019 v 0.01 l 0.014,0.024 0.024,0.043 0.025,0.034 0.067,0.083 0.505,0.611 0.097,0.14 0.038,0.058 0.01,0.039 0.01,0.015 0.005,0.024 0.004,0.029 v 0.029 L 3.079,-1.784 3.064,-1.75 3.054,-1.702 3.035,-1.663 3.011,-1.629 2.982,-1.59 2.957,-1.571 2.933,-1.556 2.909,-1.537 H 2.899 L 2.885,-1.532 H 2.87 l -0.01,0.01 -0.019,-0.01 H 2.827 L 2.802,-1.537 2.783,-1.542 2.759,-1.556 2.574,-1.818 2.371,-2.109 2.254,-2.25 2.099,-2.434 2.046,-2.497 2.031,-2.521 2.012,-2.555 1.988,-2.618 1.925,-2.856 1.896,-2.919 1.886,-2.948 1.871,-2.962 1.867,-2.967 1.852,-2.982 1.828,-2.996 1.804,-3.011 1.779,-3.02 1.76,-3.03 1.745,-3.035 H 1.697 l -0.044,0.005 -0.024,0.01 -0.019,0.004 -0.025,0.01 -0.024,0.02 -0.019,0.019 -0.01,0.019 -0.014,0.015 v 0.01 l -0.005,0.004 v 0.01 0.01 0.005 l 0.005,0.009 0.004,0.039 0.015,0.024 0.029,0.068 0.145,0.233 0.606,0.8 0.141,0.213 0.024,0.058 0.005,0.015 0.024,0.063 v 0.029 0.019 0.015 0.005 l -0.004,0.005 v 0.005 l -0.01,0.009 V -1.28 L 2.492,-1.275 H 2.487 L 2.473,-1.27 H 2.468 l -0.02,0.009 H 2.424 L 2.361,-1.275 2.206,-1.319 2.157,-1.324 H 2.138 2.109 2.099 L 2.08,-1.319 2.065,-1.309 2.056,-1.304 2.041,-1.294 2.036,-1.285 2.031,-1.28 2.022,-1.27 1.983,-1.178 1.91,-0.926 1.76,-0.286 1.673,0.005 1.585,0.17 1.537,0.242 1.498,0.286 1.459,0.32 1.411,0.349 1.367,0.368 1.338,0.383 H 1.314 1.299 1.285 1.275 L 1.261,0.373 1.251,0.368 1.231,0.364 1.222,0.349 1.207,0.339 1.183,0.315 1.164,0.291 1.134,0.242 1.086,0.15 1.008,-0.073 0.97,-0.257 0.965,-0.325 0.96,-0.417 0.97,-0.596 0.984,-0.781 0.975,-0.873 0.965,-0.926 0.95,-0.974 0.897,-1.173 0.887,-1.256 v -0.043 l 0.005,-0.044 0.005,-0.024 0.005,-0.01 0.014,-0.024 0.029,-0.049 0.112,-0.155 0.034,-0.043 0.014,-0.025 0.01,-0.029 0.01,-0.019 V -1.731 -1.736 -1.75 -1.755 H 1.115 V -1.77 L 1.11,-1.774 V -1.779 L 1.101,-1.794 1.091,-1.804 1.081,-1.808 1.067,-1.823 1.047,-1.833 1.033,-1.847 1.008,-1.857 0.989,-1.867 H 0.965 L 0.916,-1.871 0.776,-1.867 H 0.737 l -0.078,0.015 -0.135,0.044 -0.136,0.053 -0.083,0.048 -0.029,0.025 -0.024,0.024 -0.014,0.019 -0.219,0.955 v 0.025 0.063 l 0.015,0.155 v 0.082 l -0.01,0.049 -0.005,0.024 -0.009,0.029 -0.015,0.019 -0.019,0.01 -0.005,0.005 -0.005,0.01 -0.005,0.005 h -0.014 l -0.01,0.004 h -0.01 -0.024 l -0.029,-0.004 -0.053,-0.02 -0.097,-0.034 -0.209,-0.106 -0.053,-0.025 -0.024,-0.005 -0.025,-0.004 h -0.014 -0.01 -0.024 l -0.024,0.009 -0.083,0.025 -0.237,0.111 -0.054,0.024 -0.019,0.01 -0.053,0.058 -0.049,0.049 -0.039,0.048 -0.029,0.053 -0.121,0.291 -0.039,0.073 z"
       style="fill:#00adef;fill-opacity:1;fill-rule:evenodd;stroke:none"
       transform="matrix(0.35277776,0,0,-0.35277776,31.702479,184.12515)"
       clip-path="url(#clipPath3106)" />
    <path
       id="path3107"
       d="m 0,0 c 10.273,0 18.607,8.334 18.607,18.607 0,10.274 -8.334,18.608 -18.607,18.608 -10.273,0 -18.607,-8.334 -18.607,-18.608 C -18.607,8.334 -10.273,0 0,0 m 0,-0.955 c -10.802,0 -19.563,8.761 -19.563,19.562 0,10.802 8.761,19.563 19.563,19.563 10.802,0 19.563,-8.761 19.563,-19.563 C 19.563,7.806 10.802,-0.955 0,-0.955"
       style="fill:#00adef;fill-opacity:1;fill-rule:evenodd;stroke:none"
       transform="matrix(0.35277776,0,0,-0.35277776,27.914069,187.44151)"
       clip-path="url(#clipPath3108)" />
    <path
       id="path3109"
       d="m 0,0 c 6.322,0 11.451,5.129 11.451,11.451 0,6.323 -5.129,11.452 -11.451,11.452 -6.322,0 -11.451,-5.129 -11.451,-11.452 C -11.451,5.129 -6.322,0 0,0 m 0,-0.955 c -6.851,0 -12.407,5.556 -12.407,12.406 0,6.851 5.556,12.407 12.407,12.407 6.851,0 12.407,-5.556 12.407,-12.407 C 12.407,4.601 6.851,-0.955 0,-0.955"
       style="fill:#00adef;fill-opacity:1;fill-rule:evenodd;stroke:none"
       transform="matrix(0.35277776,0,0,-0.35277776,27.914069,184.91707)"
       clip-path="url(#clipPath3110)" />
    <path
       id="path3111"
       d="m 0,0 h -1.207 v 0.252 h 0.451 V 1.92 h -0.451 v 0.228 c 0.169,0 0.296,0.024 0.373,0.072 0.083,0.049 0.126,0.136 0.136,0.272 h 0.262 V 0.252 H 0 Z"
       style="fill:#00adef;fill-opacity:1;fill-rule:nonzero;stroke:none"
       transform="matrix(0.35277776,0,0,-0.35277776,26.805782,178.29289)"
       clip-path="url(#clipPath3112)" />
    <path
       id="path3113"
       d="M 0,0 C 0,0.126 0.019,0.242 0.063,0.349 0.107,0.456 0.16,0.548 0.233,0.625 0.301,0.698 0.388,0.756 0.485,0.795 0.587,0.839 0.688,0.858 0.79,0.858 0.902,0.858 1.008,0.839 1.101,0.8 1.193,0.761 1.275,0.708 1.343,0.635 1.425,0.543 1.493,0.422 1.542,0.276 1.59,0.126 1.61,-0.058 1.61,-0.286 1.61,-0.49 1.59,-0.688 1.542,-0.873 1.498,-1.057 1.43,-1.207 1.338,-1.328 1.241,-1.459 1.13,-1.556 0.994,-1.624 0.858,-1.692 0.693,-1.726 0.499,-1.726 c -0.048,0 -0.092,0.005 -0.145,0.01 -0.049,0.005 -0.097,0.014 -0.141,0.024 v 0.32 h 0.02 C 0.262,-1.387 0.305,-1.401 0.364,-1.416 0.422,-1.43 0.48,-1.44 0.543,-1.44 c 0.218,0 0.388,0.073 0.514,0.218 0.126,0.141 0.194,0.349 0.213,0.616 C 1.178,-0.669 1.096,-0.713 1.013,-0.742 0.931,-0.766 0.844,-0.781 0.751,-0.781 c -0.092,0 -0.174,0.01 -0.252,0.03 -0.077,0.019 -0.15,0.058 -0.228,0.116 C 0.179,-0.567 0.116,-0.48 0.068,-0.378 0.024,-0.271 0,-0.145 0,0 m 1.275,-0.213 c 0,0.169 -0.014,0.305 -0.044,0.412 C 1.198,0.305 1.154,0.388 1.101,0.446 1.052,0.499 1.004,0.533 0.955,0.553 0.902,0.577 0.848,0.587 0.785,0.587 0.65,0.587 0.543,0.538 0.461,0.436 0.378,0.339 0.339,0.199 0.339,0.015 c 0,-0.107 0.015,-0.194 0.039,-0.262 0.029,-0.068 0.073,-0.126 0.131,-0.175 0.044,-0.034 0.092,-0.058 0.145,-0.068 0.054,-0.014 0.107,-0.019 0.17,-0.019 0.073,0 0.15,0.014 0.228,0.039 0.082,0.024 0.155,0.058 0.218,0.097 0,0.019 0,0.038 0.005,0.068 z"
       style="fill:#00adef;fill-opacity:1;fill-rule:nonzero;stroke:none"
       transform="matrix(0.35277776,0,0,-0.35277776,27.200858,177.70111)"
       clip-path="url(#clipPath3114)" />
    <path
       id="path3115"
       d="M 0,0 V 0.97 L -0.834,0 Z M 0.616,-0.267 H 0.32 V -1.12 H 0 v 0.853 H -1.096 V 0.087 L 0.015,1.362 H 0.32 V 0 h 0.296 z"
       style="fill:#00adef;fill-opacity:1;fill-rule:nonzero;stroke:none"
       transform="matrix(0.35277776,0,0,-0.35277776,28.485323,177.89781)"
       clip-path="url(#clipPath3116)" />
    <path
       id="path3117"
       d="M 0,0 C 0,0.102 -0.015,0.184 -0.039,0.257 -0.068,0.325 -0.112,0.383 -0.17,0.431 -0.213,0.465 -0.262,0.49 -0.315,0.504 -0.373,0.514 -0.427,0.519 -0.485,0.519 -0.562,0.519 -0.64,0.504 -0.713,0.485 -0.785,0.461 -0.858,0.427 -0.931,0.383 -0.931,0.359 -0.936,0.335 -0.936,0.31 V 0.223 c 0,-0.17 0.015,-0.31 0.049,-0.417 0.034,-0.107 0.077,-0.184 0.126,-0.238 0.048,-0.053 0.097,-0.092 0.15,-0.111 0.049,-0.019 0.102,-0.029 0.165,-0.029 0.131,0 0.238,0.044 0.325,0.14 C -0.039,-0.335 0,-0.194 0,0 m 0.339,0.01 c 0,-0.126 -0.019,-0.243 -0.063,-0.354 -0.043,-0.107 -0.097,-0.199 -0.169,-0.267 -0.078,-0.077 -0.16,-0.136 -0.252,-0.174 -0.093,-0.044 -0.194,-0.063 -0.306,-0.063 -0.111,0 -0.213,0.019 -0.305,0.058 -0.092,0.039 -0.175,0.097 -0.243,0.169 -0.087,0.088 -0.15,0.209 -0.199,0.359 -0.048,0.15 -0.072,0.34 -0.072,0.558 0,0.218 0.019,0.412 0.063,0.586 0.048,0.175 0.116,0.325 0.208,0.451 0.088,0.126 0.204,0.228 0.349,0.296 0.141,0.073 0.306,0.107 0.49,0.107 0.058,0 0.112,-0.005 0.155,-0.01 C 0.044,1.721 0.087,1.711 0.126,1.702 V 1.382 H 0.112 C 0.078,1.401 0.034,1.416 -0.019,1.43 -0.078,1.44 -0.141,1.45 -0.204,1.45 -0.407,1.45 -0.577,1.377 -0.703,1.241 -0.829,1.101 -0.907,0.892 -0.931,0.616 c 0.078,0.058 0.16,0.102 0.243,0.131 0.087,0.029 0.174,0.043 0.276,0.043 0.097,0 0.179,-0.009 0.252,-0.029 C -0.087,0.742 -0.01,0.703 0.068,0.645 0.16,0.577 0.228,0.49 0.271,0.383 0.315,0.276 0.339,0.155 0.339,0.01"
       style="fill:#00adef;fill-opacity:1;fill-rule:nonzero;stroke:none"
       transform="matrix(0.35277776,0,0,-0.35277776,29.489292,178.0124)"
       clip-path="url(#clipPath3118)" />
    <path
       id="path3119"
       d="m 0,0 c -0.892,-0.718 -1.697,-0.824 -2.715,-0.868 -0.902,-0.034 -1.571,0.063 -2.347,0.63 V 5.638 H 0 Z M 6.007,2.604 V 5.638 H 0.95 V 0.97 c 0.068,0.087 0.141,0.174 0.209,0.266 0.868,1.12 1.638,1.329 2.118,1.319 0.146,-0.005 0.316,0 0.509,0 L 0.95,-0.732 v -0.616 l 3.379,3.913 c 0.524,0.014 1.12,0.034 1.678,0.039 m 0,-3.719 v 2.56 C 4.625,0.902 3.219,-0.504 4.082,-1.067 4.557,-1.377 5.28,-1.348 6.007,-1.115 M 6.962,-2.153 C 8.15,-1.532 9.163,-0.674 9.173,0.315 9.187,1.522 8.067,0.136 7.694,-0.184 7.476,-0.373 7.229,-0.543 6.962,-0.693 v 2.39 C 7.457,1.837 8.475,2.211 7.927,2.458 7.757,2.536 7.403,2.574 6.962,2.594 v 4 H -6.012 V 0.645 c -0.053,0.053 -0.102,0.111 -0.15,0.165 -0.79,0.897 -1.547,1.289 -2.904,0.514 l 3.054,-1.92 v -2.662 c 0,-3.568 2.919,-6.492 6.482,-6.492 3.569,0 6.492,2.924 6.492,6.492 z M 3.869,-3.21 c 0.548,0.078 1.333,0.291 2.138,0.616 v -0.47 c 0,-3.151 -2.492,-5.731 -5.537,-5.731 -3.04,0 -5.532,2.58 -5.532,5.731 v 1.866 l 1.169,-0.736 c 1.066,-0.636 1.876,-1.052 2.691,-1.295 L 0,-1.837 V -2.453 L -0.766,-3.345 C -0.519,-3.399 -0.267,-3.437 0,-3.462 V -5.58 h 0.95 v 2.08 c 0.791,0.014 1.721,0.116 2.919,0.29"
       style="fill:#00adef;fill-opacity:1;fill-rule:evenodd;stroke:none"
       transform="matrix(0.35277776,0,0,-0.35277776,27.768691,180.73697)"
       clip-path="url(#clipPath3120)" />
  </g>
</svg>
