<?xml version="1.0" encoding="UTF-8" standalone="no"?>
<!-- Created with Inkscape (http://www.inkscape.org/) -->

<svg
   width="27.10507mm"
   height="7.7142096mm"
   viewBox="0 0 27.10507 7.7142096"
   version="1.1"
   id="svg1"
   xmlns="http://www.w3.org/2000/svg"
   xmlns:svg="http://www.w3.org/2000/svg">
  <defs
     id="defs1">
    <clipPath
       clipPathUnits="userSpaceOnUse"
       id="clipPath913">
      <path
         d="M 0,858.898 H 1207.558 V 0 H 0 Z"
         transform="translate(-398.86941,-392.84981)"
         id="path913" />
    </clipPath>
    <clipPath
       clipPathUnits="userSpaceOnUse"
       id="clipPath915">
      <path
         d="M 0,858.898 H 1207.558 V 0 H 0 Z"
         transform="translate(-423.19081,-391.92701)"
         id="path915" />
    </clipPath>
    <clipPath
       clipPathUnits="userSpaceOnUse"
       id="clipPath917">
      <path
         d="M 0,858.898 H 1207.558 V 0 H 0 Z"
         transform="translate(-377.73301,-393.47001)"
         id="path917" />
    </clipPath>
    <clipPath
       clipPathUnits="userSpaceOnUse"
       id="clipPath919">
      <path
         d="M 0,858.898 H 1207.558 V 0 H 0 Z"
         transform="translate(-388.38271,-393.86391)"
         id="path919" />
    </clipPath>
    <clipPath
       clipPathUnits="userSpaceOnUse"
       id="clipPath921">
      <path
         d="M 0,858.898 H 1207.558 V 0 H 0 Z"
         transform="translate(-409.34981,-393.86391)"
         id="path921" />
    </clipPath>
    <clipPath
       clipPathUnits="userSpaceOnUse"
       id="clipPath923">
      <path
         d="M 0,858.898 H 1207.558 V 0 H 0 Z"
         transform="translate(-433.47771,-391.95741)"
         id="path923" />
    </clipPath>
    <clipPath
       clipPathUnits="userSpaceOnUse"
       id="clipPath925">
      <path
         d="M 0,858.898 H 1207.558 V 0 H 0 Z"
         transform="translate(-442.59301,-393.13221)"
         id="path925" />
    </clipPath>
    <clipPath
       clipPathUnits="userSpaceOnUse"
       id="clipPath927">
      <path
         d="M 0,858.898 H 1207.558 V 0 H 0 Z"
         transform="translate(-424.11131,-381.97241)"
         id="path927" />
    </clipPath>
    <clipPath
       clipPathUnits="userSpaceOnUse"
       id="clipPath929">
      <path
         d="M 0,858.898 H 1207.558 V 0 H 0 Z"
         transform="translate(-442.82701,-381.97471)"
         id="path929" />
    </clipPath>
    <clipPath
       clipPathUnits="userSpaceOnUse"
       id="clipPath931">
      <path
         d="M 0,858.898 H 1207.558 V 0 H 0 Z"
         transform="translate(-447.91321,-381.72741)"
         id="path931" />
    </clipPath>
    <clipPath
       clipPathUnits="userSpaceOnUse"
       id="clipPath933">
      <path
         d="M 0,858.898 H 1207.558 V 0 H 0 Z"
         transform="translate(-434.35461,-381.40761)"
         id="path933" />
    </clipPath>
    <clipPath
       clipPathUnits="userSpaceOnUse"
       id="clipPath935">
      <path
         d="M 0,858.898 H 1207.558 V 0 H 0 Z"
         transform="translate(-430.51111,-379.72261)"
         id="path935" />
    </clipPath>
    <clipPath
       clipPathUnits="userSpaceOnUse"
       id="clipPath937">
      <path
         d="M 0,858.898 H 1207.558 V 0 H 0 Z"
         transform="translate(-418.43541,-380.93721)"
         id="path937" />
    </clipPath>
    <clipPath
       clipPathUnits="userSpaceOnUse"
       id="clipPath939">
      <path
         d="M 0,858.898 H 1207.558 V 0 H 0 Z"
         transform="translate(-441.34491,-379.49641)"
         id="path939" />
    </clipPath>
    <clipPath
       clipPathUnits="userSpaceOnUse"
       id="clipPath941">
      <path
         d="M 0,858.898 H 1207.558 V 0 H 0 Z"
         transform="translate(-424.82121,-378.83871)"
         id="path941" />
    </clipPath>
  </defs>
  <g
     id="layer1"
     transform="translate(-125.74357,-94.614873)">
    <path
       id="path912"
       d="M 0,0 C 0.256,0.479 0.704,0.845 1.212,1.027 1.676,1.166 2.215,1.136 2.621,0.851 3.138,0.509 3.432,-0.073 3.599,-0.654 4.159,-2.607 4.71,-4.562 5.286,-6.511 5.348,-6.637 5.37,-6.899 5.56,-6.862 c 0.176,0.061 0.21,0.27 0.264,0.424 0.631,2.494 1.248,4.993 1.891,7.484 C 8.38,1.043 9.044,1.05 9.709,1.041 9.097,-1.473 8.449,-3.978 7.829,-6.49 7.691,-7.038 7.597,-7.628 7.232,-8.082 6.645,-8.856 5.471,-9.221 4.601,-8.714 4.079,-8.41 3.843,-7.82 3.711,-7.26 3.149,-5.282 2.598,-3.301 2.034,-1.324 1.994,-1.157 1.918,-0.997 1.748,-0.932 1.527,-1.47 1.43,-2.047 1.282,-2.606 0.748,-4.677 0.268,-6.763 -0.293,-8.826 c -0.653,-0.065 -1.315,0.035 -1.97,-0.026 0.618,2.607 1.281,5.203 1.91,7.807 C -0.267,-0.687 -0.186,-0.322 0,0"
       style="fill:#dc2227;fill-opacity:1;fill-rule:nonzero;stroke:none"
       transform="matrix(0.35277776,0,0,-0.35277776,134.0654,95.005585)"
       clip-path="url(#clipPath913)" />
    <path
       id="path914"
       d="m 0,0 c -0.261,-0.08 -0.424,-0.324 -0.478,-0.58 -0.421,-1.616 -0.815,-3.239 -1.229,-4.856 -0.096,-0.244 0.062,-0.579 0.35,-0.561 1.534,-0.003 3.068,0.003 4.602,0.002 0.335,-0.021 0.583,0.272 0.648,0.574 0.378,1.492 0.716,2.993 1.093,4.486 0.048,0.24 0.156,0.489 0.095,0.735 C 5.009,0.006 4.758,0.028 4.573,0.02 3.049,-0.005 1.521,0.033 0,0 M -0.392,1.952 C 1.652,1.97 3.698,1.953 5.742,1.956 6.319,1.964 6.905,1.649 7.131,1.103 7.354,0.662 7.266,0.156 7.142,-0.3 6.684,-2.184 6.239,-4.071 5.788,-5.957 5.544,-7.01 4.589,-7.901 3.486,-7.932 1.612,-7.96 -0.262,-7.954 -2.136,-7.94 c -0.464,-0.003 -0.966,0.081 -1.318,0.407 -0.404,0.37 -0.535,0.971 -0.404,1.493 0.476,1.948 0.968,3.891 1.445,5.839 0.125,0.523 0.312,1.053 0.688,1.452 0.338,0.39 0.815,0.662 1.333,0.701"
       style="fill:#dc2227;fill-opacity:1;fill-rule:nonzero;stroke:none"
       transform="matrix(0.35277776,0,0,-0.35277776,142.64544,95.331129)"
       clip-path="url(#clipPath915)" />
    <path
       id="path916"
       d="M 0,0 C 0.435,0.313 0.981,0.415 1.509,0.406 4.205,0.395 6.901,0.388 9.597,0.401 9.425,-0.233 9.284,-0.875 9.118,-1.511 6.866,-1.518 4.612,-1.538 2.361,-1.5 2.165,-1.492 1.924,-1.596 1.907,-1.815 1.882,-1.961 2.006,-2.063 2.099,-2.153 3.857,-3.597 5.607,-5.049 7.365,-6.493 7.631,-6.701 7.873,-6.974 7.925,-7.32 8.05,-8.055 7.617,-8.799 7.002,-9.182 6.624,-9.427 6.164,-9.487 5.723,-9.479 2.998,-9.48 0.272,-9.482 -2.453,-9.477 c 0.152,0.632 0.306,1.264 0.458,1.895 2.184,0.007 4.368,-0.004 6.552,0.007 0.229,-0.026 0.421,0.157 0.456,0.375 -0.033,0.193 -0.226,0.292 -0.355,0.416 -1.611,1.305 -3.205,2.631 -4.826,3.925 -0.27,0.218 -0.539,0.475 -0.633,0.821 C -1.017,-1.278 -0.642,-0.433 0,0"
       style="fill:#dc2227;fill-opacity:1;fill-rule:nonzero;stroke:none"
       transform="matrix(0.35277776,0,0,-0.35277776,126.60894,94.786793)"
       clip-path="url(#clipPath917)" />
    <path
       id="path918"
       d="M 0,0 C 0.68,0.009 1.36,0.008 2.041,0.001 1.445,-2.35 0.864,-4.704 0.274,-7.057 0.226,-7.256 0.168,-7.463 0.204,-7.67 c 0.113,-0.242 0.418,-0.227 0.642,-0.246 1.326,-0.003 2.652,0.002 3.978,-0.004 0.258,0.015 0.555,0.002 0.763,0.183 0.224,0.205 0.284,0.517 0.362,0.797 0.557,2.315 1.122,4.627 1.682,6.941 0.674,0.006 1.347,0.002 2.021,0 C 9.128,-2.09 8.621,-4.185 8.096,-6.276 7.909,-7.011 7.783,-7.783 7.389,-8.445 7.069,-9.002 6.557,-9.453 5.948,-9.666 5.514,-9.827 5.047,-9.866 4.588,-9.873 3.262,-9.886 1.937,-9.89 0.611,-9.88 c -0.564,0.016 -1.154,0.056 -1.662,0.326 -0.348,0.182 -0.619,0.5 -0.736,0.876 -0.191,0.555 -0.096,1.15 0.042,1.705 C -1.159,-4.649 -0.59,-2.322 0,0"
       style="fill:#dc2227;fill-opacity:1;fill-rule:nonzero;stroke:none"
       transform="matrix(0.35277776,0,0,-0.35277776,130.36592,94.647834)"
       clip-path="url(#clipPath919)" />
    <path
       id="path920"
       d="M 0,0 C 0.664,0.002 1.328,-0.005 1.992,0.001 1.723,-2.348 1.498,-4.702 1.246,-7.052 1.236,-7.294 1.19,-7.59 1.385,-7.775 c 0.227,-0.131 0.484,0.03 0.692,0.132 0.67,0.37 1.337,0.888 2.147,0.835 0.758,-0.065 1.238,-0.737 1.876,-1.065 0.349,-0.126 0.528,0.29 0.638,0.544 0.862,2.438 1.699,4.885 2.558,7.324 0.683,0.023 1.365,0.004 2.048,0.01 C 10.48,-2.439 9.653,-4.896 8.806,-7.347 8.52,-8.206 8.036,-9.045 7.258,-9.544 6.709,-9.897 5.994,-9.973 5.39,-9.717 4.908,-9.533 4.588,-9.1 4.152,-8.843 3.843,-8.688 3.485,-8.824 3.228,-9.018 2.596,-9.462 1.894,-9.889 1.1,-9.911 c -0.567,-0.023 -1.155,0.222 -1.477,0.701 -0.4,0.586 -0.437,1.334 -0.357,2.018 C -0.474,-4.797 -0.261,-2.396 0,0"
       style="fill:#dc2227;fill-opacity:1;fill-rule:nonzero;stroke:none"
       transform="matrix(0.35277776,0,0,-0.35277776,137.76265,94.647834)"
       clip-path="url(#clipPath921)" />
    <path
       id="path922"
       d="m 0,0 c -0.526,-2.009 -1.016,-4.026 -1.531,-6.038 1.337,-0.005 2.673,0.013 4.009,-0.004 0.95,-0.075 1.868,0.68 2.032,1.609 0.249,1.116 0.517,2.229 0.768,3.344 C 5.43,-0.56 4.982,0.026 4.429,-0.003 2.953,-0.005 1.476,-0.007 0,0 m -1.547,1.928 c 2.251,0 4.503,0.003 6.754,-0.004 C 6.14,1.956 7.068,1.346 7.35,0.446 7.511,-0.045 7.488,-0.582 7.35,-1.076 7.064,-2.264 6.758,-3.447 6.481,-4.638 6.356,-5.188 6.2,-5.741 5.903,-6.227 5.327,-7.21 4.269,-7.975 3.097,-7.95 c -2.372,-0.015 -4.745,-0.037 -7.115,0.01 0.838,3.285 1.643,6.58 2.471,9.868"
       style="fill:#dc2227;fill-opacity:1;fill-rule:nonzero;stroke:none"
       transform="matrix(0.35277776,0,0,-0.35277776,146.27443,95.320405)"
       clip-path="url(#clipPath923)" />
    <path
       id="path924"
       d="M 0,0 C 0.504,0.559 1.294,0.74 2.02,0.74 3.762,0.739 5.505,0.739 7.249,0.734 7.758,0.728 8.292,0.745 8.768,0.53 9.187,0.353 9.44,-0.092 9.482,-0.532 9.544,-1.158 9.51,-1.786 9.518,-2.414 9.483,-4.652 9.501,-6.892 9.507,-9.132 c -0.655,10e-4 -1.311,0 -1.967,-0.004 0.004,1.062 0,2.125 -0.003,3.187 -1.724,0.013 -3.448,-0.018 -5.172,-0.001 0.187,0.649 0.329,1.311 0.506,1.963 1.554,0.038 3.11,0.02 4.665,0.03 -0.004,0.796 0.017,1.593 -0.004,2.389 -0.004,0.264 -0.283,0.406 -0.52,0.389 -1.455,0.003 -2.91,-0.008 -4.365,0.001 -0.326,0.005 -0.687,0.077 -0.982,-0.1 -0.24,-0.145 -0.269,-0.446 -0.337,-0.69 -0.603,-2.381 -1.185,-4.767 -1.794,-7.146 -0.665,-0.004 -1.331,-10e-4 -1.995,-10e-4 0.643,2.593 1.278,5.187 1.914,7.782 C -0.435,-0.867 -0.344,-0.36 0,0"
       style="fill:#dc2227;fill-opacity:1;fill-rule:nonzero;stroke:none"
       transform="matrix(0.35277776,0,0,-0.35277776,149.49011,94.905962)"
       clip-path="url(#clipPath925)" />
    <path
       id="path926"
       d="m 0,0 c 0.466,-0.002 0.933,-0.001 1.399,-0.001 -0.145,-0.26 -0.294,-0.516 -0.456,-0.767 0.878,0.004 1.755,0.001 2.634,0.003 0.269,-0.004 0.58,-0.031 0.767,-0.253 0.185,-0.216 0.12,-0.53 0.01,-0.766 C 4.19,-2.12 3.974,-2.426 3.79,-2.751 c -0.462,-0.009 -0.925,0 -1.387,0.003 0.142,0.242 0.285,0.485 0.411,0.737 C 1.948,-1.986 1.083,-2.007 0.218,-1.99 -0.069,-2.415 -0.287,-2.886 -0.59,-3.299 -1.05,-3.333 -1.513,-3.295 -1.974,-3.301 -1.323,-2.197 -0.659,-1.099 0,0"
       style="fill:#676c74;fill-opacity:1;fill-rule:nonzero;stroke:none"
       transform="matrix(0.35277776,0,0,-0.35277776,142.97018,98.84289)"
       clip-path="url(#clipPath927)" />
    <path
       id="path928"
       d="M 0,0 C 0.498,-0.005 0.995,-0.001 1.492,-0.003 1.201,-0.44 0.904,-0.874 0.6,-1.302 0.443,-1.532 0.2,-1.702 -0.078,-1.742 -0.459,-1.797 -0.845,-1.762 -1.228,-1.768 -0.824,-1.176 -0.409,-0.59 0,0"
       style="fill:#676c74;fill-opacity:1;fill-rule:nonzero;stroke:none"
       transform="matrix(0.35277776,0,0,-0.35277776,149.57266,98.842081)"
       clip-path="url(#clipPath929)" />
    <path
       id="path930"
       d="m 0,0 c 0.309,0.227 0.792,0.229 1.047,-0.081 0.334,-0.373 0.247,-0.91 0.324,-1.368 0.92,-0.008 1.84,-0.004 2.76,-0.006 -0.11,-0.416 -0.213,-0.833 -0.326,-1.248 -0.777,-0.003 -1.554,0.004 -2.331,10e-4 0.125,-1.681 0.268,-3.359 0.398,-5.039 -0.405,0 -0.81,-0.001 -1.214,0.002 -0.146,1.672 -0.314,3.342 -0.433,5.017 -0.217,0.014 -0.436,0.024 -0.652,0.035 -0.586,-0.862 -1.094,-1.773 -1.658,-2.647 -0.424,-0.692 -0.862,-1.375 -1.279,-2.073 -0.072,-0.112 -0.139,-0.232 -0.24,-0.321 -0.448,-0.04 -0.899,-0.003 -1.348,-0.005 1.028,1.682 2.071,3.355 3.103,5.035 -0.769,-0.01 -1.538,0 -2.307,0 0.1,0.415 0.204,0.83 0.308,1.246 0.927,0.006 1.853,-0.009 2.78,0.007 C -0.736,-0.949 -0.508,-0.347 0,0"
       style="fill:#676c74;fill-opacity:1;fill-rule:nonzero;stroke:none"
       transform="matrix(0.35277776,0,0,-0.35277776,151.36696,98.929322)"
       clip-path="url(#clipPath931)" />
    <path
       id="path932"
       d="M 0,0 C 2.047,0.001 4.093,-0.009 6.14,0.008 6.035,-0.392 5.94,-0.793 5.837,-1.192 5.01,-1.202 4.184,-1.19 3.357,-1.193 3.106,-2.024 2.928,-2.875 2.708,-3.716 3.45,-3.754 4.192,-3.696 4.934,-3.712 4.843,-4.114 4.741,-4.513 4.638,-4.911 3.897,-4.922 3.155,-4.918 2.414,-4.916 2.164,-5.908 1.897,-6.897 1.668,-7.895 2.579,-7.908 3.49,-7.901 4.401,-7.899 4.302,-8.297 4.208,-8.696 4.102,-9.093 c -2.212,0.002 -4.423,0 -6.634,0.004 0.092,0.398 0.189,0.794 0.282,1.192 0.836,0 1.673,-0.011 2.51,-0.006 0.263,0.993 0.494,1.993 0.742,2.989 -0.664,-0.003 -1.329,-0.003 -1.993,0.003 0.099,0.394 0.195,0.789 0.29,1.185 0.673,0.027 1.346,-0.026 2.019,0.014 0.189,0.843 0.414,1.677 0.619,2.515 C 1.194,-1.194 0.452,-1.196 -0.29,-1.194 -0.204,-0.793 -0.105,-0.396 0,0"
       style="fill:#676c74;fill-opacity:1;fill-rule:nonzero;stroke:none"
       transform="matrix(0.35277776,0,0,-0.35277776,146.58379,99.04214)"
       clip-path="url(#clipPath933)" />
    <path
       id="path934"
       d="m 0,0 c -0.467,-1.9 -0.956,-3.794 -1.418,-5.695 -0.059,-0.122 -0.003,-0.323 0.152,-0.326 0.417,-0.019 0.839,-0.036 1.256,0.003 0.236,0.038 0.289,0.307 0.342,0.499 0.178,0.765 0.373,1.527 0.558,2.29 -0.364,-10e-4 -0.728,-0.004 -1.091,-10e-4 0.103,0.391 0.203,0.784 0.299,1.178 0.366,0.025 0.732,0.032 1.099,0.026 0.174,0.729 0.369,1.454 0.543,2.184 C 1.749,0.274 1.829,0.471 1.656,0.495 1.237,0.564 0.804,0.535 0.381,0.518 0.115,0.505 0.057,0.205 0,0 M -0.068,1.6 C 0.482,1.734 1.056,1.641 1.617,1.669 2.032,1.655 2.557,1.752 2.851,1.381 3.074,1.129 3.01,0.769 2.936,0.47 2.369,-1.716 1.846,-3.914 1.282,-6.102 1.179,-6.539 0.856,-6.912 0.44,-7.077 c -0.293,-0.12 -0.617,-0.078 -0.924,-0.087 -0.536,0.016 -1.074,-0.027 -1.607,0.026 -0.459,0.073 -0.717,0.605 -0.556,1.027 0.563,2.244 1.131,4.488 1.68,6.735 0.115,0.447 0.463,0.826 0.899,0.976"
       style="fill:#676c74;fill-opacity:1;fill-rule:nonzero;stroke:none"
       transform="matrix(0.35277776,0,0,-0.35277776,145.22788,99.636572)"
       clip-path="url(#clipPath935)" />
    <path
       id="path936"
       d="M 0,0 C 0.405,0.322 0.949,0.348 1.445,0.349 2.309,0.347 3.174,0.346 4.038,0.357 3.931,-0.046 3.834,-0.452 3.727,-0.856 2.861,-0.867 1.995,-0.848 1.13,-0.862 0.917,-0.855 0.693,-0.956 0.607,-1.161 0.484,-1.435 0.44,-1.735 0.364,-2.024 c 0.535,-0.01 1.07,0.012 1.604,-0.01 0.368,-0.03 0.797,-0.137 0.982,-0.491 0.23,-0.417 0.092,-0.912 -0.004,-1.347 -0.418,-1.658 -0.83,-3.316 -1.252,-4.973 -0.411,-10e-4 -0.822,0 -1.232,0.009 0.437,1.665 0.83,3.341 1.261,5.007 0.032,0.142 0.065,0.286 0.066,0.432 -0.092,0.138 -0.272,0.107 -0.413,0.118 -0.441,0.003 -0.881,-0.004 -1.321,0.004 -0.49,-1.852 -0.949,-3.711 -1.421,-5.568 -0.412,-0.006 -0.824,-0.002 -1.236,0.003 0.634,2.503 1.275,5.004 1.907,7.508 C -0.573,-0.846 -0.42,-0.316 0,0"
       style="fill:#676c74;fill-opacity:1;fill-rule:nonzero;stroke:none"
       transform="matrix(0.35277776,0,0,-0.35277776,140.96785,99.208087)"
       clip-path="url(#clipPath937)" />
    <path
       id="path938"
       d="M 0,0 C 0.44,-0.009 0.882,0.022 1.321,-0.019 1.592,-0.037 1.793,-0.292 1.795,-0.555 1.785,-0.938 1.665,-1.304 1.575,-1.673 1.233,-2.967 0.915,-4.266 0.576,-5.561 0.523,-5.746 0.512,-5.98 0.687,-6.106 0.811,-6.15 0.947,-6.143 1.079,-6.15 3.956,-6.161 6.834,-6.159 9.711,-6.153 9.599,-6.568 9.495,-6.984 9.397,-7.402 6.835,-7.399 4.272,-7.398 1.711,-7.401 1.189,-7.39 0.659,-7.437 0.145,-7.327 c -0.36,0.071 -0.698,0.324 -0.8,0.686 -0.125,0.415 -0.017,0.847 0.071,1.258 0.322,1.364 0.675,2.722 0.969,4.093 -0.238,0.036 -0.478,0.053 -0.717,0.064 C -0.222,-0.818 -0.105,-0.411 0,0"
       style="fill:#676c74;fill-opacity:1;fill-rule:nonzero;stroke:none"
       transform="matrix(0.35277776,0,0,-0.35277776,149.04981,99.71637)"
       clip-path="url(#clipPath939)" />
    <path
       id="path940"
       d="M 0,0 C 0.295,0.161 0.697,0.143 0.942,-0.103 1.162,-0.311 1.204,-0.626 1.235,-0.913 1.43,-2.858 1.63,-4.803 1.84,-6.747 1.422,-6.75 1.004,-6.748 0.587,-6.743 c -0.176,1.617 -0.333,3.236 -0.533,4.85 -0.997,-1.612 -1.967,-3.241 -2.968,-4.851 -0.454,-0.004 -0.907,-0.002 -1.36,0.015 1.2,2.02 2.416,4.032 3.629,6.046 C -0.487,-0.412 -0.294,-0.137 0,0"
       style="fill:#676c74;fill-opacity:1;fill-rule:nonzero;stroke:none"
       transform="matrix(0.35277776,0,0,-0.35277776,143.22061,99.948391)"
       clip-path="url(#clipPath941)" />
  </g>
</svg>
