<?xml version="1.0" encoding="utf-8"?>
<!-- Generator: Adobe Illustrator 28.0.0, SVG Export Plug-In . SVG Version: 6.00 Build 0)  -->
<svg version="1.1" id="svg1" xmlns:svg="http://www.w3.org/2000/svg"
	 xmlns="http://www.w3.org/2000/svg" xmlns:xlink="http://www.w3.org/1999/xlink" x="0px" y="0px" viewBox="0 0 105.2 21.5"
	 style="enable-background:new 0 0 105.2 21.5;" xml:space="preserve">
<style type="text/css">
	
		.st0{clip-path:url(#SVGID_00000127036055757633362350000006568956796599481237_);fill-rule:evenodd;clip-rule:evenodd;fill:#0B8ED8;}
	
		.st1{clip-path:url(#SVGID_00000171712949140233098610000014115004896645931444_);fill-rule:evenodd;clip-rule:evenodd;fill:#0B8ED8;}
	
		.st2{clip-path:url(#SVGID_00000170990609607243233140000011969911086480104372_);fill-rule:evenodd;clip-rule:evenodd;fill:#0B8ED8;}
	
		.st3{clip-path:url(#SVGID_00000027576718904547091080000009527314067088835234_);fill-rule:evenodd;clip-rule:evenodd;fill:#0B8ED8;}
	
		.st4{clip-path:url(#SVGID_00000098201315776949180540000009355542317886055593_);fill-rule:evenodd;clip-rule:evenodd;fill:#0B8ED8;}
	
		.st5{clip-path:url(#SVGID_00000158016179954770721170000010490690208040790714_);fill-rule:evenodd;clip-rule:evenodd;fill:#0B8ED8;}
	
		.st6{clip-path:url(#SVGID_00000112632035999832331010000004717683814647654578_);fill-rule:evenodd;clip-rule:evenodd;fill:#0B8ED8;}
	
		.st7{clip-path:url(#SVGID_00000065781886454448268040000016048668928388273793_);fill-rule:evenodd;clip-rule:evenodd;fill:#0B8ED8;}
	
		.st8{clip-path:url(#SVGID_00000076592758949799295880000005491489274296787627_);fill-rule:evenodd;clip-rule:evenodd;fill:#0B8ED8;}
	.st9{clip-path:url(#SVGID_00000026854880370263714350000005601744343900443323_);fill:#0B8ED8;}
	
		.st10{clip-path:url(#SVGID_00000161590986560409681230000005934973808056276102_);fill-rule:evenodd;clip-rule:evenodd;fill:#0B8ED8;}
</style>
<g id="layer1" transform="translate(-91.281247,-60.325005)">
	<g>
		<defs>
			<rect id="SVGID_1_" x="23.1" y="-200" width="1207.6" height="858.9"/>
		</defs>
		<clipPath id="SVGID_00000082327979751518388160000009959457055614587315_">
			<use xlink:href="#SVGID_1_"  style="overflow:visible;"/>
		</clipPath>
		
			<path id="path616" style="clip-path:url(#SVGID_00000082327979751518388160000009959457055614587315_);fill-rule:evenodd;clip-rule:evenodd;fill:#0B8ED8;" d="
			M97.6,79.6h0.9v2.3h-0.9V79.6z M97.6,78.7h0.9v0.6h-0.9V78.7z M113.4,78.8h0.9v3.1h-0.9V78.8z M112.1,80.8
			c-0.1,0.1-0.2,0.1-0.3,0.1c-0.1,0-0.2,0.1-0.3,0.1c0,0-0.1,0.2,0.1,0.3c0.1,0.1,0.3,0,0.4,0s0.1-0.2,0.1-0.2V80.8z M111.5,80.3
			h-0.8c0-0.1,0-0.2,0.1-0.3c0.1-0.2,0.2-0.3,0.5-0.4c0.2-0.1,0.6-0.1,0.8-0.1c0.2,0,0.4,0,0.5,0.1c0.1,0.1,0.2,0.2,0.3,0.2
			c0.1,0.1,0.1,0.3,0.1,0.3v1.3c0,0,0,0.1,0.1,0.2c0,0,0,0,0.1,0.1v0.1h-0.9c0-0.1,0-0.1,0-0.2c0-0.1,0-0.1,0-0.1s-0.1,0.2-0.4,0.3
			c-0.3,0.1-0.6,0.1-0.7,0c-0.1,0-0.5-0.1-0.5-0.5c-0.1-0.4,0.1-0.6,0.3-0.7c0.2-0.1,0.5-0.1,0.6-0.1c0.2,0,0.5,0,0.6-0.2
			c0.1-0.1,0-0.2-0.1-0.2c-0.1,0-0.3,0-0.4,0C111.5,80.2,111.5,80.3,111.5,80.3 M109,80.1c-0.3,0-0.4,0.3-0.4,0.6
			c0,0.3,0.1,0.6,0.4,0.6c0.2,0,0.4-0.3,0.4-0.6C109.3,80.4,109.2,80.1,109,80.1 M109,79.6c0.9,0,1.2,0.5,1.2,1.1
			c0,0.6-0.4,1.1-1.2,1.1c-0.8,0-1.2-0.6-1.2-1.1C107.7,80.1,108.1,79.6,109,79.6 M106.5,80h0.9c0-0.2-0.1-0.7-0.5-0.9
			c-0.3-0.3-0.8-0.3-1.2-0.3c-0.5,0-0.8,0.2-1.1,0.6c-0.2,0.4-0.4,1.2,0,1.9c0.3,0.5,0.8,0.6,1.3,0.6c0.3,0,0.6,0,1-0.3
			c0.3-0.2,0.5-0.7,0.5-1h-0.9c0,0,0,0.5-0.6,0.5c-0.3,0-0.4-0.3-0.5-0.4c-0.1-0.2-0.1-0.6,0-0.8c0.1-0.2,0.2-0.4,0.5-0.4
			C106.3,79.5,106.4,79.7,106.5,80 M103.2,80.8c-0.1,0.1-0.2,0.1-0.3,0.1c-0.1,0-0.2,0.1-0.3,0.1c0,0-0.1,0.2,0.1,0.3
			c0.1,0.1,0.3,0,0.4,0c0.1-0.1,0.1-0.2,0.1-0.2V80.8z M102.6,80.3h-0.8c0-0.1,0-0.2,0.1-0.3c0.1-0.2,0.2-0.3,0.5-0.4
			c0.2-0.1,0.6-0.1,0.8-0.1c0.2,0,0.4,0,0.5,0.1c0.1,0.1,0.2,0.2,0.3,0.2c0.1,0.1,0.1,0.3,0.1,0.3v1.3c0,0,0,0.1,0.1,0.2
			c0,0,0,0,0.1,0.1v0.1h-0.9c0-0.1,0-0.1,0-0.2c0-0.1,0-0.1,0-0.1s-0.1,0.2-0.4,0.3c-0.3,0.1-0.6,0.1-0.7,0c-0.1,0-0.5-0.1-0.5-0.5
			c-0.1-0.4,0.1-0.6,0.3-0.7c0.2-0.1,0.5-0.1,0.6-0.1c0.2,0,0.5,0,0.6-0.2c0.1-0.1,0-0.2-0.1-0.2c-0.1,0-0.3,0-0.4,0
			C102.6,80.2,102.6,80.3,102.6,80.3 M99.7,80c0,0,0.1-0.2,0.3-0.3c0.1-0.1,0.4-0.1,0.5-0.1c0.3,0,0.5,0.1,0.7,0.3
			c0.2,0.2,0.2,0.5,0.2,0.5v1.5h-0.9v-1.3c0,0,0-0.2-0.1-0.3c-0.1-0.1-0.2-0.1-0.3,0s-0.2,0.2-0.2,0.3v1.3h-0.9v-2.3h0.8L99.7,80z
			 M95.6,80.5c0-0.1,0.1-0.2,0.2-0.2s0.2-0.1,0.3,0c0.1,0.1,0.1,0.2,0.1,0.3v1.3h0.9v-1.5c0,0,0-0.3-0.2-0.5
			c-0.2-0.2-0.4-0.3-0.7-0.3c-0.1,0-0.3,0-0.4,0.1c-0.2,0.1-0.3,0.2-0.3,0.3v-1.1h-0.9v3.1h0.9L95.6,80.5z M93.4,80h0.9
			c0-0.2-0.1-0.7-0.5-0.9c-0.3-0.3-0.8-0.3-1.2-0.3c-0.5,0-0.8,0.2-1.1,0.6c-0.2,0.4-0.4,1.2,0,1.9c0.3,0.5,0.8,0.6,1.3,0.6
			c0.3,0,0.6,0,1-0.3c0.3-0.2,0.5-0.7,0.5-1h-0.9c0,0,0,0.5-0.6,0.5c-0.3,0-0.4-0.3-0.5-0.4c-0.1-0.2-0.1-0.6,0-0.8
			c0.1-0.2,0.2-0.4,0.5-0.4C93.2,79.5,93.4,79.7,93.4,80 M99.9,66c-1.6,0-2.9,1.2-2.9,2.8c0,1.5,1.2,2.7,2.7,2.8L99.9,66z M100,77.3
			c-0.3,0-0.5-0.2-0.5-0.5l0.1-2.3H97l-0.1,0c-3.1,0-5.7-2.5-5.7-5.7c0-3.1,2.5-5.7,5.7-5.7h3.2l0.1-2.4c0-0.2,0.2-0.4,0.4-0.4h4.4
			c0.2,0,0.4,0.2,0.4,0.4l0.1,2.4h3.2c2.9,0,5.3,2.2,5.6,5h-5.8c-0.3-1.3-1.5-2.2-2.8-2.2l0.1,2.2h-1.7V66h-2.5v5.7h2.5v-2.2h1.7
			l0.1,2.2c1.3-0.1,2.3-1,2.6-2.2h5.8c-0.3,2.8-2.7,5-5.6,5l-0.1,0H106l0.1,2.3c0,0.3-0.2,0.5-0.5,0.5L100,77.3z"/>
	</g>
	<g>
		<defs>
			<rect id="SVGID_00000012458666315538312940000005964397422293030052_" x="23.1" y="-200" width="1207.6" height="858.9"/>
		</defs>
		<clipPath id="SVGID_00000094612053423525590280000001504783601994207902_">
			<use xlink:href="#SVGID_00000012458666315538312940000005964397422293030052_"  style="overflow:visible;"/>
		</clipPath>
		
			<path id="path618" style="clip-path:url(#SVGID_00000094612053423525590280000001504783601994207902_);fill-rule:evenodd;clip-rule:evenodd;fill:#0B8ED8;" d="
			M134.6,74.9c0,0.2-0.1,0.3-0.3,0.3h-4.6v-8.4h4.8V74.9z M127.3,75.2h-4.8v-8.4h0.4h4.4V75.2z M129.8,64.7v-1.1h-2.4v1.1h-3.3
			l-1.3,1.5h-0.2v-1.5H120v12.5h7.3v1.3h2.4v-1.3h6c0.7,0,1.3-0.6,1.3-1.4V64.7H129.8z"/>
	</g>
	<g>
		<defs>
			<rect id="SVGID_00000005952652459144603540000010676184091781445539_" x="23.1" y="-200" width="1207.6" height="858.9"/>
		</defs>
		<clipPath id="SVGID_00000125580332908622756160000016776464877759315632_">
			<use xlink:href="#SVGID_00000005952652459144603540000010676184091781445539_"  style="overflow:visible;"/>
		</clipPath>
		
			<path id="path620" style="clip-path:url(#SVGID_00000125580332908622756160000016776464877759315632_);fill-rule:evenodd;clip-rule:evenodd;fill:#0B8ED8;" d="
			M173.8,74.9c0,0.2-0.1,0.3-0.3,0.3H169v-8.4h4.8V74.9z M166.5,75.2h-4.8v-8.4h0.4h4.4V75.2z M169,64.7v-1.1h-2.4v1.1h-3.3
			l-1.3,1.5h-0.2v-1.5h-2.5v12.5h7.3v1.3h2.4v-1.3h6c0.7,0,1.3-0.6,1.3-1.4V64.7H169z"/>
	</g>
	<g>
		<defs>
			<rect id="SVGID_00000028290274043281890530000016088076602370210948_" x="23.1" y="-200" width="1207.6" height="858.9"/>
		</defs>
		<clipPath id="SVGID_00000171702775864269362040000011660915822698046647_">
			<use xlink:href="#SVGID_00000028290274043281890530000016088076602370210948_"  style="overflow:visible;"/>
		</clipPath>
		
			<path id="path622" style="clip-path:url(#SVGID_00000171702775864269362040000011660915822698046647_);fill-rule:evenodd;clip-rule:evenodd;fill:#0B8ED8;" d="
			M193.8,77.6l-0.7-2.7h2.3l0.5,1.7c0.1,0.3,0.1,0.4,0.4,0.4h0.2v1.7h-1.3C194.9,78.6,194.1,78.6,193.8,77.6"/>
	</g>
	<g>
		<defs>
			<rect id="SVGID_00000176735612617877942590000015965504099587147648_" x="23.1" y="-200" width="1207.6" height="858.9"/>
		</defs>
		<clipPath id="SVGID_00000137109443619801967490000011509450423863565977_">
			<use xlink:href="#SVGID_00000176735612617877942590000015965504099587147648_"  style="overflow:visible;"/>
		</clipPath>
		
			<path id="path624" style="clip-path:url(#SVGID_00000137109443619801967490000011509450423863565977_);fill-rule:evenodd;clip-rule:evenodd;fill:#0B8ED8;" d="
			M189.6,77.6l0.7-2.7H188l-0.3,1.4c-0.1,0.5-0.2,0.7-0.7,0.7h-0.3v1.7h1.6C188.5,78.6,189.3,78.6,189.6,77.6"/>
	</g>
	<g>
		<defs>
			<rect id="SVGID_00000129928425686051717000000013354718114943618983_" x="23.1" y="-200" width="1207.6" height="858.9"/>
		</defs>
		<clipPath id="SVGID_00000145757411839445806280000000912804032272991924_">
			<use xlink:href="#SVGID_00000129928425686051717000000013354718114943618983_"  style="overflow:visible;"/>
		</clipPath>
		
			<path id="path626" style="clip-path:url(#SVGID_00000145757411839445806280000000912804032272991924_);fill-rule:evenodd;clip-rule:evenodd;fill:#0B8ED8;" d="
			M189.9,70.1v-1.2h3.6v0.8c0,0.4-0.3,0.4-0.5,0.4H189.9z M189.9,66h3.6v1.2h-2.4l-1,1.3l-0.2,0V66z M192.8,72.5v-0.7h1.6
			c0.4,0,1.5-0.3,1.5-1.6V66h0.4v-1.7h-0.4v-0.7h-2.3v0.7h-3.6v-0.6h-2.3v0.6h-0.5V66h0.5v5.7h2.3h0.6v0.7h-3.6v1.6h3.6v4.6h2.3
			v-4.6h3.6v-1.6H192.8z"/>
	</g>
	<g>
		<defs>
			<rect id="SVGID_00000117669546846585248360000008539696734486322572_" x="23.1" y="-200" width="1207.6" height="858.9"/>
		</defs>
		<clipPath id="SVGID_00000089558004567029271400000002382563308922587798_">
			<use xlink:href="#SVGID_00000117669546846585248360000008539696734486322572_"  style="overflow:visible;"/>
		</clipPath>
		
			<path id="path628" style="clip-path:url(#SVGID_00000089558004567029271400000002382563308922587798_);fill-rule:evenodd;clip-rule:evenodd;fill:#0B8ED8;" d="
			M178.9,70.8c0,0.6,0.5,1.1,1.1,1.1h1.1v-1.4c-0.2,0-0.3-0.1-0.3-0.3v-5.8h-1.8V70.8z"/>
	</g>
	<g>
		<defs>
			<rect id="SVGID_00000054262394883479144860000009999215986329803173_" x="23.1" y="-200" width="1207.6" height="858.9"/>
		</defs>
		<clipPath id="SVGID_00000080896762559628127790000009761955532549471106_">
			<use xlink:href="#SVGID_00000054262394883479144860000009999215986329803173_"  style="overflow:visible;"/>
		</clipPath>
		
			<path id="path630" style="clip-path:url(#SVGID_00000080896762559628127790000009761955532549471106_);fill-rule:evenodd;clip-rule:evenodd;fill:#0B8ED8;" d="
			M186.7,70.9c0,0.6-0.5,1.1-1.1,1.1h-1.1v-1.5c0.2,0,0.3-0.1,0.3-0.3v-5.8h1.8V70.9z"/>
	</g>
	<g>
		<defs>
			<rect id="SVGID_00000136411876906701507680000008199779264403759537_" x="23.1" y="-200" width="1207.6" height="858.9"/>
		</defs>
		<clipPath id="SVGID_00000047048473481908289180000009899187728159048343_">
			<use xlink:href="#SVGID_00000136411876906701507680000008199779264403759537_"  style="overflow:visible;"/>
		</clipPath>
		
			<path id="path632" style="clip-path:url(#SVGID_00000047048473481908289180000009899187728159048343_);fill-rule:evenodd;clip-rule:evenodd;fill:#0B8ED8;" d="
			M185.6,76.5c0.1,0.3,0.3,0.4,0.4,0.4h0.3v1.6h-1.7c-0.6,0-0.9-0.9-0.9-0.9l-1-2.9l-1.3,2.9c0,0-0.3,0.9-1.1,0.9h-1.5v-1.7h0.4
			c0,0,0.3,0,0.5-0.5l2-5.1v-7.6h2.2v7.6L185.6,76.5z"/>
	</g>
	<g>
		<defs>
			<rect id="SVGID_00000074400616398217567970000017283993560103148427_" x="23.1" y="-200" width="1207.6" height="858.9"/>
		</defs>
		<clipPath id="SVGID_00000044864865300070393980000014765761922128767628_">
			<use xlink:href="#SVGID_00000074400616398217567970000017283993560103148427_"  style="overflow:visible;"/>
		</clipPath>
		<path id="path634" style="clip-path:url(#SVGID_00000044864865300070393980000014765761922128767628_);fill:#0B8ED8;" d="
			M143.3,68.5v-1.9h10.1v1.9h-4.1V70h4v1.8h-4v2.2h1.4c0.3,0,0.3-0.1,0.3-0.4v-1h2.3v1.9c0,0.9-0.5,1.3-1.5,1.3h-8.6v-1.9h3.4v-2.2
			h-3.4V70h3.4v-1.5H143.3z"/>
	</g>
	<g>
		<defs>
			<rect id="SVGID_00000158720563175563873290000011342553002958873776_" x="23.1" y="-200" width="1207.6" height="858.9"/>
		</defs>
		<clipPath id="SVGID_00000173145554690943582270000009522574997754163335_">
			<use xlink:href="#SVGID_00000158720563175563873290000011342553002958873776_"  style="overflow:visible;"/>
		</clipPath>
		
			<path id="path636" style="clip-path:url(#SVGID_00000173145554690943582270000009522574997754163335_);fill-rule:evenodd;clip-rule:evenodd;fill:#0B8ED8;" d="
			M154.3,76.2c0,0.3-0.3,0.6-0.6,0.6h-11.4V65.7h12V76.2z M143.6,63.8l-1.2,1.5l0-1.5h-2.5v14.7h15.2c1,0,1.8-0.8,1.8-1.8V63.8
			H143.6z"/>
	</g>
</g>
</svg>
