<?xml version="1.0" encoding="utf-8"?>
<!-- Generator: Adobe Illustrator 28.0.0, SVG Export Plug-In . SVG Version: 6.00 Build 0)  -->
<svg version="1.1" id="svg1" xmlns:svg="http://www.w3.org/2000/svg"
	 xmlns="http://www.w3.org/2000/svg" xmlns:xlink="http://www.w3.org/1999/xlink" x="0px" y="0px" viewBox="0 0 63 25.5"
	 style="enable-background:new 0 0 63 25.5;" xml:space="preserve">
<style type="text/css">
	.st0{clip-path:url(#SVGID_00000152251503218624212940000006402784287308552119_);fill:#2A4491;}
	.st1{clip-path:url(#SVGID_00000150790605590307164640000012985804832593363109_);fill:#2A4491;}
	.st2{clip-path:url(#SVGID_00000169546387697193654890000000026372436668691617_);fill:#2A4491;}
	.st3{clip-path:url(#SVGID_00000005261358516015191390000009478685107271070876_);fill:#2A4491;}
	.st4{clip-path:url(#SVGID_00000006709146746903520320000003593203529586837154_);fill:#2A4491;}
	.st5{clip-path:url(#SVGID_00000159432170314282749470000005433145500105517961_);fill:#2A4491;}
	.st6{clip-path:url(#SVGID_00000092432677428446821470000006495022415147207822_);fill:#2A4491;}
	.st7{clip-path:url(#SVGID_00000176760456068098978510000017572626061334459048_);fill:#2A4491;}
	.st8{clip-path:url(#SVGID_00000082359104601733942610000003618011535671098246_);fill:#2A4491;}
	.st9{clip-path:url(#SVGID_00000144303076590638316570000017485940733931553972_);fill:#2A4491;}
	.st10{clip-path:url(#SVGID_00000096017266249954909150000014878044702274085552_);fill:#2A4491;}
	.st11{clip-path:url(#SVGID_00000087412167324624828540000015869196276627153842_);fill:#2A4491;}
	.st12{clip-path:url(#SVGID_00000035530013509503103560000015283433115758952614_);fill:#2A4491;}
	.st13{clip-path:url(#SVGID_00000018919129181099080750000013930164611925158296_);fill:#2A4491;}
	.st14{clip-path:url(#SVGID_00000090290984550844454210000015749967967916337850_);fill:#2A4491;}
	.st15{clip-path:url(#SVGID_00000165227930797798938000000009515292571044412814_);fill:#2A4491;}
</style>
<g id="layer1" transform="translate(-101.07083,-87.57709)">
	<g>
		<defs>
			<rect id="SVGID_1_" x="-379" y="-273.9" width="1207.6" height="858.9"/>
		</defs>
		<clipPath id="SVGID_00000052088797804812287030000002629383403513354427_">
			<use xlink:href="#SVGID_1_"  style="overflow:visible;"/>
		</clipPath>
		<path id="path824" style="clip-path:url(#SVGID_00000052088797804812287030000002629383403513354427_);fill:#2A4491;" d="
			M122.3,92.4c-0.1,0.1-0.2,0.3-0.3,0.5c-0.4,0.8-0.8,1.5-1.2,2.3c1.5,0,3,0,4.4,0c-0.4-0.8-0.7-1.6-1.1-2.5
			c-0.1-0.3-0.4-0.6-0.8-0.7C123,92,122.6,92.1,122.3,92.4 M105.6,88c0.7-0.2,1.3-0.4,2-0.4c1.2,0,2.3,0,3.5,0c1.8,0,3.7,0,5.5,0
			c0,0.5,0,0.9,0,1.4c-1.9,0-3.7,0-5.6,0c-0.6,0-1.3,0.1-1.9,0.3c-1.4,0.6-2.6,1.8-3,3.3c-0.4,1.5-0.1,3.2,0.9,4.4
			c0.5,0.6,1.1,1.1,1.8,1.4c0.6,0.3,1.3,0.4,2,0.4c1.5,0,3,0,4.5,0c0.3,0,0.6,0,0.8-0.1c0.4-0.1,0.6-0.4,0.8-0.7
			c1.7-3.1,3.3-6.3,5-9.4c0.3-0.5,0.8-0.9,1.3-0.9c1,0,2.1,0,3.1,0c0.3,0,0.6,0.1,0.9,0.2c0.3,0.2,0.5,0.5,0.7,0.8
			c1.6,3.8,3.2,7.7,4.7,11.5c-1.2,0-2.3,0-3.5,0c-0.3,0-0.6,0-1,0c-0.5,0-1-0.3-1.2-0.8c-0.4-0.9-0.8-1.8-1.2-2.8
			c-1.9,0-3.8,0-5.7,0c-0.1,0-0.1,0.1-0.2,0.2c-0.4,0.8-0.8,1.5-1.2,2.3c-0.4,0.8-1.2,1.2-2.1,1.2c-2.8,0-5.5,0-8.3,0
			c-0.5,0-1.1,0-1.6-0.1c-1.5-0.2-2.9-0.8-4-1.9c-0.5-0.5-0.9-1-1.2-1.6c-0.6-1.1-0.7-2.4-0.5-3.6c0.2-1,0.6-1.8,1.2-2.6
			C103.2,89.3,104.3,88.4,105.6,88"/>
	</g>
	<g>
		<defs>
			<rect id="SVGID_00000142152218791595344360000016122396389090472607_" x="-379" y="-273.9" width="1207.6" height="858.9"/>
		</defs>
		<clipPath id="SVGID_00000088815021235569022100000002647352538223452833_">
			<use xlink:href="#SVGID_00000142152218791595344360000016122396389090472607_"  style="overflow:visible;"/>
		</clipPath>
		<path id="path826" style="clip-path:url(#SVGID_00000088815021235569022100000002647352538223452833_);fill:#2A4491;" d="
			M131.8,87.6c1.1,0,2.3,0,3.4,0c0.4,0,0.9,0,1.3,0c0.2,0,0.4,0,0.5,0c0.6,0,1.1,0,1.7,0c2.6,0,5.3,0,7.9,0c0.3,0,0.5,0,0.8,0
			c0,0.4,0,0.9,0,1.3c-1.5,0-3.1,0-4.6,0c-0.2,0-0.4,0.2-0.4,0.4c0,1.9,0,3.8,0,5.7c0,1.5,0,2.9,0,4.4c0,0.3,0,0.5,0,0.8
			c-0.7,0-1.3,0-2,0c-1.2,0-2.3,0-3.5,0c0-3.5,0-7.1,0-10.6c0-0.2,0-0.3-0.1-0.5c-0.1-0.1-0.1-0.1-0.2-0.2c-1,0-2.1,0-3.1,0
			c-0.6,0-1.1,0-1.7,0C131.8,88.5,131.8,88.1,131.8,87.6"/>
	</g>
	<g>
		<defs>
			<rect id="SVGID_00000132087112931291613830000017140626472608441750_" x="-379" y="-273.9" width="1207.6" height="858.9"/>
		</defs>
		<clipPath id="SVGID_00000036222434205823995550000016712144833099046036_">
			<use xlink:href="#SVGID_00000132087112931291613830000017140626472608441750_"  style="overflow:visible;"/>
		</clipPath>
		<path id="path828" style="clip-path:url(#SVGID_00000036222434205823995550000016712144833099046036_);fill:#2A4491;" d="
			M148.6,87.6c1,0,2.1,0,3.1,0c1.1,0,2.2,0,3.3,0c0,2.5,0,4.9,0,7.4c0,1.1,0,2.2,0,3.3c0,0.3,0.2,0.5,0.5,0.5c2.8,0,5.6,0,8.4,0
			c0,0.5,0,0.9,0,1.4c-2.4,0-4.8,0-7.2,0c-2.2,0-4.4,0-6.6,0c-0.4,0-0.7-0.2-1-0.4c-0.3-0.3-0.5-0.8-0.5-1.2c0-2.5,0-5.1,0-7.6
			C148.6,89.8,148.6,88.7,148.6,87.6"/>
	</g>
	<g>
		<defs>
			<rect id="SVGID_00000128462239260170190470000007519361397313766801_" x="-379" y="-273.9" width="1207.6" height="858.9"/>
		</defs>
		<clipPath id="SVGID_00000101804591405866161060000014192099938336926874_">
			<use xlink:href="#SVGID_00000128462239260170190470000007519361397313766801_"  style="overflow:visible;"/>
		</clipPath>
		<path id="path830" style="clip-path:url(#SVGID_00000101804591405866161060000014192099938336926874_);fill:#2A4491;" d="M122,105
			c0.4,0,0.8,0,1.2,0c-0.1,0.4-0.2,0.8-0.4,1.2c-0.1,0.2-0.2,0.4-0.4,0.5c0,0-0.1,0.1-0.1,0.2c0.3,0,0.6,0,0.9,0
			c0,0.3-0.2,0.7-0.3,1c-0.1,0.2-0.2,0.3-0.2,0.5c0,1.5,0,2.9,0,4.4c0,0.1-0.1,0.2-0.1,0.3c-0.4,0-0.7,0-1.1,0c0-1.2,0-2.5,0-3.7
			c-0.2,0.1-0.4,0.2-0.6,0.3c0-0.4,0-0.9,0-1.3c0.4-0.2,0.8-0.6,1.1-1c0,0,0-0.1,0-0.1c-0.4,0.2-0.7,0.5-1.1,0.6c0-0.5,0-0.9,0-1.4
			c0.2-0.2,0.5-0.3,0.7-0.5C121.7,105.6,121.9,105.3,122,105"/>
	</g>
	<g>
		<defs>
			<rect id="SVGID_00000019636975866904624810000001877945048740589244_" x="-379" y="-273.9" width="1207.6" height="858.9"/>
		</defs>
		<clipPath id="SVGID_00000165922727238232030450000012288648256096270723_">
			<use xlink:href="#SVGID_00000019636975866904624810000001877945048740589244_"  style="overflow:visible;"/>
		</clipPath>
		<path id="path832" style="clip-path:url(#SVGID_00000165922727238232030450000012288648256096270723_);fill:#2A4491;" d="
			M138.5,105c0.4,0,0.9,0,1.3,0c0,0.2,0,0.4,0,0.6c0.2,0,0.5,0,0.7,0c0,0.3,0,0.6,0,0.9c-0.2,0-0.5,0-0.7,0c0,0.5,0,1,0,1.5
			c0,1,0,1.9,0,2.9c0,0.5,0,1,0,1.5c-0.1,0.4-0.5,0.7-0.9,0.7c-0.9,0-1.9,0-2.8,0c-0.1-0.3,0-0.5-0.1-0.8c0.7,0,1.3,0,2,0
			c0.1,0,0.2,0,0.3-0.1c0.2-0.1,0.2-0.3,0.2-0.5c0-1.3,0-2.7,0-4c0-0.3,0-0.6,0-0.9c0-0.2-0.2-0.2-0.4-0.2c-0.9,0-1.8,0-2.7,0
			c-0.1,0-0.1,0-0.2,0c0-0.3,0-0.6,0-0.9c1.1,0,2.2,0,3.3,0C138.5,105.4,138.5,105.2,138.5,105"/>
	</g>
	<g>
		<defs>
			<rect id="SVGID_00000054235645716820225180000015173747569625719206_" x="-379" y="-273.9" width="1207.6" height="858.9"/>
		</defs>
		<clipPath id="SVGID_00000129906292029813349600000001817077958833239483_">
			<use xlink:href="#SVGID_00000054235645716820225180000015173747569625719206_"  style="overflow:visible;"/>
		</clipPath>
		<path id="path834" style="clip-path:url(#SVGID_00000129906292029813349600000001817077958833239483_);fill:#2A4491;" d="
			M142.6,105c0.4,0,0.8,0,1.2,0c0.1,0.8-0.1,1.6-0.5,2.2c0,1.7,0,3.5,0,5.2c0,0.2,0.1,0.5-0.2,0.6c-0.4,0-0.8,0-1.1,0
			c0-1.6,0-3.2,0-4.7c-0.2,0.1-0.4,0.2-0.6,0.3c0-0.4,0-0.9,0-1.3c0-0.1,0-0.2,0.1-0.3c0.4-0.3,0.7-0.7,0.9-1.2
			C142.5,105.6,142.5,105.3,142.6,105"/>
	</g>
	<g>
		<defs>
			<rect id="SVGID_00000127038362343465654060000006287361666472250034_" x="-379" y="-273.9" width="1207.6" height="858.9"/>
		</defs>
		<clipPath id="SVGID_00000046303335057634447500000013103064595181378465_">
			<use xlink:href="#SVGID_00000127038362343465654060000006287361666472250034_"  style="overflow:visible;"/>
		</clipPath>
		<path id="path836" style="clip-path:url(#SVGID_00000046303335057634447500000013103064595181378465_);fill:#2A4491;" d="M146,105
			c0.5,0,0.9,0,1.4,0c0.1,0.6,0.1,1.3,0.2,1.9c0.4,0,0.7,0,1.1,0c0.1,0,0.2-0.1,0.3-0.2c0-0.3-0.2-0.6-0.3-1c0.4,0,0.8,0,1.2,0
			c0.1,0.1,0.1,0.2,0.1,0.3c0.1,0.3,0.3,0.7,0.2,1.1c-0.1,0.4-0.5,0.8-0.9,0.8c-0.5,0-1,0-1.5,0c0.2,0.4,0.4,0.8,0.6,1.3
			c0.4,0.8,0.8,1.7,1.1,2.5c0.2,0.4,0.4,0.9,0.6,1.3c0,0,0,0.1,0,0.1c-0.5,0-1,0-1.6,0c-0.7-1.7-1.5-3.4-2.3-5
			c0-0.1-0.1-0.1-0.1-0.2c-0.3,0-0.5,0-0.8,0c-0.5,0-0.9,0-1.4,0c0-0.3,0-0.7,0-1c0.7,0,1.4,0,2.1,0C146.1,106.3,146,105.6,146,105"
			/>
	</g>
	<g>
		<defs>
			<rect id="SVGID_00000026137439453210422000000016588734460962520473_" x="-379" y="-273.9" width="1207.6" height="858.9"/>
		</defs>
		<clipPath id="SVGID_00000087379013096936380750000012904482243259880635_">
			<use xlink:href="#SVGID_00000026137439453210422000000016588734460962520473_"  style="overflow:visible;"/>
		</clipPath>
		<path id="path838" style="clip-path:url(#SVGID_00000087379013096936380750000012904482243259880635_);fill:#2A4491;" d="
			M114.2,105.1c0.6,0,1.1,0,1.7,0c0,0.2,0,0.3,0,0.5c0.9,0,1.8,0,2.7,0c0.3,0,0.6,0.1,0.8,0.3c0.2,0.2,0.2,0.4,0.3,0.7
			c0,0.4,0,0.8,0,1.1c-0.5,0-1.1,0-1.6,0c0-0.3,0.1-0.6-0.1-0.9c-0.2-0.2-0.5-0.3-0.7-0.3c-1.7,0-3.4,0-5.2,0c0,0.4,0,0.8,0,1.1
			c-0.5,0-1.1,0-1.6,0c0-0.7,0-1.4,0-2.1c1.2,0,2.5,0,3.7,0C114.2,105.4,114.2,105.2,114.2,105.1"/>
	</g>
	<g>
		<defs>
			<rect id="SVGID_00000088823316983375975880000002153469833293780380_" x="-379" y="-273.9" width="1207.6" height="858.9"/>
		</defs>
		<clipPath id="SVGID_00000012464965493215603930000015869402635838849164_">
			<use xlink:href="#SVGID_00000088823316983375975880000002153469833293780380_"  style="overflow:visible;"/>
		</clipPath>
		<path id="path840" style="clip-path:url(#SVGID_00000012464965493215603930000015869402635838849164_);fill:#2A4491;" d="
			M128,107.4c-0.1,0.1,0,0.2,0,0.3c0,0.3,0,0.6,0,0.8c0.2,0,0.5,0,0.7,0c0-0.3,0-0.6,0-0.9c0-0.1-0.1-0.2-0.3-0.2
			C128.3,107.4,128.1,107.4,128,107.4 M126.3,107.4c0,0.3,0,0.6,0,1c0,0.1,0,0.2,0.1,0.2c0.2,0,0.5,0,0.7,0c0-0.3,0-0.5,0-0.8
			c0-0.2-0.1-0.4-0.3-0.3C126.6,107.4,126.4,107.4,126.3,107.4 M124.6,107.4c0,0.4,0,0.7,0,1.1c0.3,0,0.5,0,0.8,0c0-0.3,0-0.6,0-0.8
			c0-0.1-0.1-0.2-0.2-0.3C125,107.4,124.8,107.4,124.6,107.4 M126.1,105.1c0.4,0,0.7,0,1.1,0c0,0.1,0,0.2,0,0.3c1,0,1.9,0,2.9,0
			c0,0.2,0,0.4,0,0.6c0,0.1-0.1,0.1-0.2,0.1c-0.9,0-1.7,0-2.6,0c0,0.2,0,0.3,0,0.5c0.6,0,1.1,0,1.7,0c0.5,0,0.8,0.4,0.8,0.9
			c0,0.6,0,1.1,0,1.7c-2.1,0-4.2,0-6.2,0c0-0.9,0-1.7,0-2.6c0.8,0,1.7,0,2.5,0c0-0.2,0-0.3,0-0.5c-0.9,0-1.8,0-2.7,0
			c-0.1,0-0.1,0-0.2,0c0-0.2,0-0.5,0-0.7c1,0,1.9,0,2.9,0C126.1,105.3,126.1,105.2,126.1,105.1"/>
	</g>
	<g>
		<defs>
			<rect id="SVGID_00000183233774887335377060000005122979236612767368_" x="-379" y="-273.9" width="1207.6" height="858.9"/>
		</defs>
		<clipPath id="SVGID_00000134969554909401628990000011275344820344244117_">
			<use xlink:href="#SVGID_00000183233774887335377060000005122979236612767368_"  style="overflow:visible;"/>
		</clipPath>
		<path id="path842" style="clip-path:url(#SVGID_00000134969554909401628990000011275344820344244117_);fill:#2A4491;" d="
			M132.5,109.5c0,0.9,0,1.8,0,2.7c0.1,0,0.1,0,0.2,0c0.3,0,0.6,0,1,0c0.1,0,0.1-0.1,0.1-0.2c0-0.8,0-1.6,0-2.3
			c0-0.2-0.2-0.3-0.3-0.3c-0.3,0-0.6,0-0.8,0C132.5,109.4,132.5,109.5,132.5,109.5 M132.5,105.9c0,0.9,0,1.7,0,2.6
			c0.2,0,0.3,0,0.5,0c0.2,0,0.5,0,0.7,0c0-0.8,0-1.5,0-2.3c0-0.2-0.1-0.4-0.3-0.4C133.1,105.9,132.8,105.9,132.5,105.9 M131.4,105.1
			c0.7,0,1.3,0,2,0c0.3,0,0.7,0,1,0.1c0.3,0.2,0.5,0.5,0.5,0.8c0,2.3,0,4.6,0,6.9c0,0-0.1,0-0.1,0c-0.4,0-0.7,0-1.1,0
			c-0.8,0-1.5,0-2.3,0c0-2.1,0-4.2,0-6.3C131.4,106.2,131.4,105.7,131.4,105.1"/>
	</g>
	<g>
		<defs>
			<rect id="SVGID_00000171705980271036161810000013829088503461377176_" x="-379" y="-273.9" width="1207.6" height="858.9"/>
		</defs>
		<clipPath id="SVGID_00000121241708796033860200000017925517498888027807_">
			<use xlink:href="#SVGID_00000171705980271036161810000013829088503461377176_"  style="overflow:visible;"/>
		</clipPath>
		<path id="path844" style="clip-path:url(#SVGID_00000121241708796033860200000017925517498888027807_);fill:#2A4491;" d="
			M135.7,107.8c0.3,0,0.6,0,1,0c0.2,0,0.2,0.3,0.3,0.4c0.2,0.6,0.3,1.3,0.5,1.9c0,0.2,0.1,0.4,0.1,0.6c-0.4,0-0.8,0-1.2,0
			c-0.1-0.4-0.2-0.8-0.2-1.2C135.9,109,135.8,108.4,135.7,107.8"/>
	</g>
	<g>
		<defs>
			<rect id="SVGID_00000011004591751720944360000015686999760302830498_" x="-379" y="-273.9" width="1207.6" height="858.9"/>
		</defs>
		<clipPath id="SVGID_00000034077772473558611040000010745479841847945631_">
			<use xlink:href="#SVGID_00000011004591751720944360000015686999760302830498_"  style="overflow:visible;"/>
		</clipPath>
		<path id="path846" style="clip-path:url(#SVGID_00000034077772473558611040000010745479841847945631_);fill:#2A4491;" d="
			M110.4,108.3c2.5,0,4.9,0,7.4,0c0.7,0,1.3,0,1.9,0c0,0.2,0,0.5,0,0.7c0,0.1-0.1,0.2-0.2,0.2c-1.2,0-2.3,0-3.5,0c0,1,0,2,0,3
			c0,0.4-0.4,0.7-0.8,0.8c-0.7,0-1.4,0-2,0c-0.2,0-0.3,0-0.5,0c0-0.3,0-0.6,0-0.9c0.5,0,1,0,1.5,0c0.1,0,0.2-0.1,0.2-0.2
			c0-0.7,0-1.4,0-2.1c0-0.2-0.1-0.4-0.3-0.5c-0.2-0.1-0.4-0.1-0.6-0.1c-1.1,0-2.1,0-3.2,0C110.4,108.9,110.4,108.6,110.4,108.3"/>
	</g>
	<g>
		<defs>
			<rect id="SVGID_00000065054210372081885130000012237394150550644137_" x="-379" y="-273.9" width="1207.6" height="858.9"/>
		</defs>
		<clipPath id="SVGID_00000039849807658668602710000003732395335702314898_">
			<use xlink:href="#SVGID_00000065054210372081885130000012237394150550644137_"  style="overflow:visible;"/>
		</clipPath>
		<path id="path848" style="clip-path:url(#SVGID_00000039849807658668602710000003732395335702314898_);fill:#2A4491;" d="
			M123.5,109.6c1.1,0,2.1,0,3.2,0c1.1,0,2.1,0,3.2,0c0,0.2,0.1,0.5-0.1,0.6c-0.1,0.1-0.2,0.1-0.3,0.1c-2,0-4,0-6,0
			C123.5,110.1,123.5,109.9,123.5,109.6"/>
	</g>
	<g>
		<defs>
			<rect id="SVGID_00000132084573007037970080000003294675295586290570_" x="-379" y="-273.9" width="1207.6" height="858.9"/>
		</defs>
		<clipPath id="SVGID_00000062164686483660354400000001830609643543896741_">
			<use xlink:href="#SVGID_00000132084573007037970080000003294675295586290570_"  style="overflow:visible;"/>
		</clipPath>
		<path id="path850" style="clip-path:url(#SVGID_00000062164686483660354400000001830609643543896741_);fill:#2A4491;" d="
			M127.7,110.6c0.3-0.1,0.5,0,0.8,0.1c0.6,0.2,1.2,0.4,1.7,0.7c0,0.2,0,0.5,0,0.7c-0.6-0.2-1.1-0.4-1.6-0.6c0,0.2,0,0.4-0.1,0.6
			c-0.2,0.2-0.4,0.1-0.6,0.1c-0.5-0.1-1-0.3-1.5-0.4c-0.1,0-0.3-0.1-0.4-0.2c0-0.2,0-0.5,0-0.7c0.5,0.1,1.1,0.3,1.6,0.5
			C127.6,111,127.4,110.7,127.7,110.6"/>
	</g>
	<g>
		<defs>
			<rect id="SVGID_00000042014837435705596700000013715126105120164794_" x="-379" y="-273.9" width="1207.6" height="858.9"/>
		</defs>
		<clipPath id="SVGID_00000060011739772460857860000018317451591526262927_">
			<use xlink:href="#SVGID_00000042014837435705596700000013715126105120164794_"  style="overflow:visible;"/>
		</clipPath>
		<path id="path852" style="clip-path:url(#SVGID_00000060011739772460857860000018317451591526262927_);fill:#2A4491;" d="
			M123.3,110.8c0.3,0,0.7,0,1,0c0,0.6,0,1.1,0,1.7c0,0.2-0.1,0.4-0.2,0.5c-0.2,0.1-0.5,0.1-0.8,0.1
			C123.3,112.3,123.3,111.5,123.3,110.8"/>
	</g>
	<g>
		<defs>
			<rect id="SVGID_00000147933979497093596200000002579457076642789508_" x="-379" y="-273.9" width="1207.6" height="858.9"/>
		</defs>
		<clipPath id="SVGID_00000120534049901390513660000000199007158104560269_">
			<use xlink:href="#SVGID_00000147933979497093596200000002579457076642789508_"  style="overflow:visible;"/>
		</clipPath>
		<path id="path854" style="clip-path:url(#SVGID_00000120534049901390513660000000199007158104560269_);fill:#2A4491;" d="
			M124.6,110.8c0.3,0,0.7,0,1,0l0,0c0,0.4,0,0.8,0,1.2c0,0.1,0,0.2,0.1,0.2c0.1,0,0.2,0,0.3,0c1.3,0,2.6,0,3.8,0
			c0,0.2,0,0.4-0.1,0.6c-0.1,0.1-0.2,0.2-0.3,0.2c-1.3,0-2.6,0-3.8,0c-0.2,0-0.4,0-0.6,0c-0.2-0.1-0.4-0.3-0.4-0.5
			C124.6,111.9,124.6,111.4,124.6,110.8"/>
	</g>
</g>
</svg>
