<?xml version="1.0" encoding="UTF-8" standalone="no"?>
<!-- Created with Inkscape (http://www.inkscape.org/) -->

<svg
   width="27.206785mm"
   height="9.000412mm"
   viewBox="0 0 27.206785 9.000412"
   version="1.1"
   id="svg1"
   xmlns="http://www.w3.org/2000/svg"
   xmlns:svg="http://www.w3.org/2000/svg">
  <defs
     id="defs1">
    <linearGradient
       x1="0"
       y1="0"
       x2="1"
       y2="0"
       gradientUnits="userSpaceOnUse"
       gradientTransform="matrix(1.3153358,-2.4737865,-2.4737865,-1.3153358,124.56151,98.605866)"
       spreadMethod="pad"
       id="linearGradient723">
      <stop
         style="stop-opacity:1;stop-color:#3f65b9"
         offset="0"
         id="stop719" />
      <stop
         style="stop-opacity:1;stop-color:#3f65b9"
         offset="0.00157155"
         id="stop720" />
      <stop
         style="stop-opacity:1;stop-color:#436ebf"
         offset="0.2"
         id="stop721" />
      <stop
         style="stop-opacity:1;stop-color:#436ebf"
         offset="0.20616807"
         id="stop722" />
      <stop
         style="stop-opacity:1;stop-color:#4983cc"
         offset="1"
         id="stop723" />
    </linearGradient>
    <linearGradient
       x1="0"
       y1="0"
       x2="1"
       y2="0"
       gradientUnits="userSpaceOnUse"
       gradientTransform="matrix(6.4669667,-2.3537835,-2.3537835,-6.4669667,120.84489,102.75277)"
       spreadMethod="pad"
       id="linearGradient728">
      <stop
         style="stop-opacity:1;stop-color:#3f65b9"
         offset="0"
         id="stop724" />
      <stop
         style="stop-opacity:1;stop-color:#3f65b9"
         offset="0.00157155"
         id="stop725" />
      <stop
         style="stop-opacity:1;stop-color:#436ebf"
         offset="0.2"
         id="stop726" />
      <stop
         style="stop-opacity:1;stop-color:#436ebf"
         offset="0.20616807"
         id="stop727" />
      <stop
         style="stop-opacity:1;stop-color:#4983cc"
         offset="1"
         id="stop728" />
    </linearGradient>
    <linearGradient
       x1="0"
       y1="0"
       x2="1"
       y2="0"
       gradientUnits="userSpaceOnUse"
       gradientTransform="matrix(-0.71859666,-2.6818391,-2.6818391,0.71859666,122.42789,99.311369)"
       spreadMethod="pad"
       id="linearGradient733">
      <stop
         style="stop-opacity:1;stop-color:#3f65b9"
         offset="0"
         id="stop729" />
      <stop
         style="stop-opacity:1;stop-color:#3f65b9"
         offset="0.00157155"
         id="stop730" />
      <stop
         style="stop-opacity:1;stop-color:#436ebf"
         offset="0.2"
         id="stop731" />
      <stop
         style="stop-opacity:1;stop-color:#436ebf"
         offset="0.20616807"
         id="stop732" />
      <stop
         style="stop-opacity:1;stop-color:#4983cc"
         offset="1"
         id="stop733" />
    </linearGradient>
    <clipPath
       clipPathUnits="userSpaceOnUse"
       id="clipPath735">
      <path
         d="M 0,858.898 H 1207.558 V 0 H 0 Z"
         transform="translate(-211.05101,-482.63201)"
         id="path735" />
    </clipPath>
    <clipPath
       clipPathUnits="userSpaceOnUse"
       id="clipPath737">
      <path
         d="M 0,858.898 H 1207.558 V 0 H 0 Z"
         transform="translate(-244.42241,-492.42491)"
         id="path737" />
    </clipPath>
    <clipPath
       clipPathUnits="userSpaceOnUse"
       id="clipPath739">
      <path
         d="M 0,858.898 H 1207.558 V 0 H 0 Z"
         transform="translate(-259.287,-487.03621)"
         id="path739" />
    </clipPath>
    <clipPath
       clipPathUnits="userSpaceOnUse"
       id="clipPath741">
      <path
         d="M 0,858.898 H 1207.558 V 0 H 0 Z"
         transform="translate(-252.82071,-488.62551)"
         id="path741" />
    </clipPath>
    <clipPath
       clipPathUnits="userSpaceOnUse"
       id="clipPath743">
      <path
         d="M 0,858.898 H 1207.558 V 0 H 0 Z"
         transform="translate(-227.274,-486.83241)"
         id="path743" />
    </clipPath>
    <clipPath
       clipPathUnits="userSpaceOnUse"
       id="clipPath745">
      <path
         d="M 0,858.898 H 1207.558 V 0 H 0 Z"
         transform="translate(2.5000001e-7,-3.5000001e-5)"
         id="path745" />
    </clipPath>
    <clipPath
       clipPathUnits="userSpaceOnUse"
       id="clipPath747">
      <path
         d="M 0,858.898 H 1207.558 V 0 H 0 Z"
         transform="translate(-235.54661,-491.84651)"
         id="path747" />
    </clipPath>
    <clipPath
       clipPathUnits="userSpaceOnUse"
       id="clipPath749">
      <path
         d="M 0,858.898 H 1207.558 V 0 H 0 Z"
         transform="translate(2.5000001e-7,-3.5000001e-5)"
         id="path749" />
    </clipPath>
    <clipPath
       clipPathUnits="userSpaceOnUse"
       id="clipPath751">
      <path
         d="M 0,858.898 H 1207.558 V 0 H 0 Z"
         transform="translate(-220.31811,-479.25761)"
         id="path751" />
    </clipPath>
    <clipPath
       clipPathUnits="userSpaceOnUse"
       id="clipPath753">
      <path
         d="M 0,858.898 H 1207.558 V 0 H 0 Z"
         transform="translate(-255.02271,-477.61911)"
         id="path753" />
    </clipPath>
    <clipPath
       clipPathUnits="userSpaceOnUse"
       id="clipPath755">
      <path
         d="M 0,858.898 H 1207.558 V 0 H 0 Z"
         transform="translate(-248.2254,-480.00861)"
         id="path755" />
    </clipPath>
    <clipPath
       clipPathUnits="userSpaceOnUse"
       id="clipPath757">
      <path
         d="M 0,858.898 H 1207.558 V 0 H 0 Z"
         transform="translate(-263.59281,-483.00131)"
         id="path757" />
    </clipPath>
    <clipPath
       clipPathUnits="userSpaceOnUse"
       id="clipPath759">
      <path
         d="M 0,858.898 H 1207.558 V 0 H 0 Z"
         transform="translate(-268.64321,-479.69621)"
         id="path759" />
    </clipPath>
    <clipPath
       clipPathUnits="userSpaceOnUse"
       id="clipPath761">
      <path
         d="M 0,858.898 H 1207.558 V 0 H 0 Z"
         transform="translate(-241.46961,-482.10521)"
         id="path761" />
    </clipPath>
    <clipPath
       clipPathUnits="userSpaceOnUse"
       id="clipPath763">
      <path
         d="M 0,858.898 H 1207.558 V 0 H 0 Z"
         transform="translate(-228.49391,-483.01731)"
         id="path763" />
    </clipPath>
    <clipPath
       clipPathUnits="userSpaceOnUse"
       id="clipPath765">
      <path
         d="M 0,858.898 H 1207.558 V 0 H 0 Z"
         transform="translate(-230.52851,-481.98641)"
         id="path765" />
    </clipPath>
  </defs>
  <g
     id="layer1"
     transform="translate(-120.65,-96.04375)">
    <path
       id="path723"
       d="m 125.5213,96.058214 c -0.20779,0.05186 -0.38771,0.198967 -0.51188,0.370417 v 0 c -0.17216,0.238125 -0.26635,0.519642 -0.33303,0.802922 v 0 c -0.0825,0.350309 -0.1397,0.704145 -0.2032,1.057275 v 0 c -0.0123,0.06879 -0.0191,0.140759 0.003,0.206728 v 0 c 0.025,0.07514 0.0783,0.117475 0.13617,0.129469 v 0 c 0.0857,0.01799 0.18097,-0.0321 0.20567,-0.14358 v 0 c 0.0977,-0.44062 0.20355,-0.991306 0.54222,-1.317625 v 0 c 0.18521,-0.178858 0.43709,-0.3048 0.54116,-0.553156 v 0 c 0.10971,-0.262466 0.004,-0.566913 -0.27129,-0.566913 v 0 c -0.0335,0 -0.0698,0.0046 -0.10865,0.01446"
       style="fill:url(#linearGradient723);stroke:none;stroke-width:0.352778" />
    <path
       id="path728"
       d="m 123.21448,97.962509 c -0.1464,0.05115 -0.2032,0.254705 -0.31679,0.354189 v 0 c -0.16016,0.140052 -0.3549,0.216252 -0.53517,0.32385 v 0 c -0.15628,0.09278 -0.30585,0.19438 -0.44696,0.309386 v 0 c -0.28011,0.228247 -0.52423,0.500591 -0.72002,0.804333 v 0 c -0.37995,0.589143 -0.57045,1.289053 -0.54293,1.989313 v 0 c 0.0762,1.94875 1.76565,3.45511 3.73486,3.28789 v 0 c 1.7586,-0.14958 3.13231,-1.63195 3.14466,-3.39337 v 0 c 0.004,-0.59584 -0.1464,-1.18851 -0.43921,-1.708502 v 0 c -0.28293,-0.502356 -0.69285,-0.930275 -1.18251,-1.235075 v 0 c -0.50094,-0.311856 -1.0802,-0.490714 -1.6697,-0.515761 v 0 c -0.0949,-0.0039 -0.19014,-3.53e-4 -0.28363,-0.0039 v 0 c -0.12382,-0.0046 -0.24518,-0.02223 -0.35913,-0.08714 v 0 c -0.09,-0.05151 -0.20355,-0.136525 -0.31573,-0.136525 v 0 c -0.0229,0 -0.0455,0.0035 -0.0677,0.01129"
       style="fill:url(#linearGradient728);stroke:none;stroke-width:0.352778" />
    <path
       id="path733"
       d="m 121.74657,96.650176 c -0.0737,0.06032 -0.12347,0.14605 -0.15522,0.240241 v 0 c -0.0395,0.117122 -0.0515,0.248003 -0.0473,0.360186 v 0 c 0.002,0.04657 0.005,0.09278 0.01,0.138995 v 0 c 0.005,0.0508 0.0116,0.101953 0.0205,0.1524 v 0 c 0.0459,0.281869 0.1397,0.553155 0.25082,0.815269 v 0 c 0.10795,0.254706 0.2219,0.515056 0.3556,0.756708 v 0 c 0.0575,0.104775 0.14711,0.252237 0.28752,0.182739 v 0 c 0.0829,-0.04057 0.12876,-0.129116 0.11606,-0.236008 v 0 c -0.008,-0.0635 -0.0508,-0.120297 -0.0762,-0.176036 v 0 c -0.13123,-0.28822 -0.24095,-0.625122 -0.23142,-0.951089 v 0 c 0.0113,-0.386644 0.22401,-0.9017 -0.0571,-1.237897 v 0 c -0.0667,-0.07973 -0.16263,-0.121356 -0.26,-0.121356 v 0 c -0.0748,0 -0.14993,0.0247 -0.21273,0.07585"
       style="fill:url(#linearGradient733);stroke:none;stroke-width:0.352778" />
    <path
       id="path734"
       d="m 0,0 c -0.84,-0.941 -1.987,-1.477 -3.228,-1.516 -1.398,-0.042 -2.771,0.525 -3.873,1.597 -1.105,1.075 -1.799,2.525 -1.958,4.089 -0.167,1.657 0.307,3.246 1.308,4.364 0.842,0.939 1.985,1.474 3.236,1.511 0.048,0.002 0.097,0.003 0.145,0.002 C -2.996,10.046 -1.646,9.45 -0.573,8.368 0.501,7.285 1.173,5.842 1.316,4.312 1.47,2.679 0.988,1.106 0,0 m 1.702,4.127 c -0.314,3.641 -3.222,6.587 -6.484,6.582 -3.253,-0.004 -5.631,-2.942 -5.32,-6.562 0.311,-3.621 3.196,-6.57 6.452,-6.586 3.266,-0.015 5.666,2.925 5.352,6.566"
       style="fill:#ffffff;fill-opacity:1;fill-rule:nonzero;stroke:none"
       transform="matrix(0.35277776,0,0,-0.35277776,126.68159,102.62412)"
       clip-path="url(#clipPath735)" />
    <path
       id="path736"
       d="m 0,0 h -2.753 v 0.389 c 0.016,0.019 0.031,0.037 0.047,0.056 H 0 Z m 0,-1.33 h -2.753 v 0.467 H 0 Z m 0,-1.286 h -2.565 c -0.163,0 -0.188,0.025 -0.188,0.188 v 0.234 H 0 Z m 4.75,-4.452 0.179,0.935 C 3.663,-5.89 2.918,-5.354 2.499,-4.912 H 4.96 v 0.93 H 0.819 v 0.48 h 3.826 v 0.886 H 0.996 v 0.422 h 3.4 v 0.864 h -3.4 v 0.466 h 3.4 V 0 h -3.4 V 0.445 H 4.645 V 1.33 H 1.13 c 0.222,0.14 0.402,0.316 0.531,0.513 0.11,0.174 0.168,0.28 0.174,0.291 L 0.961,2.611 C 0.959,2.607 0.876,2.445 0.634,2.095 0.18,1.465 -0.217,1.33 -0.907,1.33 H -2.01 c 0.331,0.463 0.503,0.775 0.519,0.804 L -2.365,2.611 C -2.374,2.596 -3.206,1.096 -4.84,-0.272 l 0.639,-0.764 c 0.167,0.139 0.323,0.28 0.474,0.42 v -1.945 c 0,-0.638 0.303,-0.941 0.941,-0.941 h 2.609 v -0.48 h -4.141 v -0.93 h 2.461 C -2.275,-5.354 -3.02,-5.89 -4.286,-6.133 l 0.179,-0.935 c 2.14,0.41 3.088,1.573 3.439,2.156 h 0.491 v -2.255 h 0.996 v 2.255 H 1.31 c 0.351,-0.583 1.3,-1.746 3.44,-2.156"
       style="fill:#0e0f0f;fill-opacity:1;fill-rule:nonzero;stroke:none"
       transform="matrix(0.35277776,0,0,-0.35277776,138.45427,99.169402)"
       clip-path="url(#clipPath737)" />
    <path
       id="path738"
       d="M 0,0 C 0,-0.492 -0.293,-0.785 -0.785,-0.785 H -7.028 V 6.502 H 0 Z m 0.996,0 v 7.498 h -9.021 v -9.28 h 7.24 c 1.159,0 1.781,0.622 1.781,1.782"
       style="fill:#0e0f0f;fill-opacity:1;fill-rule:nonzero;stroke:none"
       transform="matrix(0.35277776,0,0,-0.35277776,143.69817,101.07042)"
       clip-path="url(#clipPath739)" />
    <path
       id="path740"
       d="m 0,0 0.346,-0.934 c 1.455,0.539 2.871,1.604 3.687,2.716 v -1.886 c 0,-0.388 -0.34,-0.704 -0.757,-0.704 H 2.381 V -1.76 h 0.984 c 0.966,0 1.664,0.674 1.664,1.612 V 2.329 H 5.752 V 3.281 H 5.029 V 4.304 H 4.033 V 3.281 H 0.173 V 2.329 H 3.257 C 2.537,1.397 1.231,0.456 0,0"
       style="fill:#0e0f0f;fill-opacity:1;fill-rule:nonzero;stroke:none"
       transform="matrix(0.35277776,0,0,-0.35277776,141.41701,100.50975)"
       clip-path="url(#clipPath741)" />
    <path
       id="path742"
       d="m 0,0 c 0.21,0.574 0.238,1.859 0.238,3.062 v 0.432 h -1.331 l 0.27,4.095 h -4.348 v -0.93 h 3.284 L -2.092,3.494 h -1.7 l 0.189,2.663 H -4.558 L -4.819,2.564 H -0.76 C -0.772,1.374 -0.831,0.672 -0.936,0.387 -1.085,-0.02 -1.345,-0.475 -2.345,-0.475 H -3.901 V -1.426 H -2.3 c 1.213,0 1.944,0.453 2.3,1.426"
       style="fill:#0e0f0f;fill-opacity:1;fill-rule:nonzero;stroke:none"
       transform="matrix(0.35277776,0,0,-0.35277776,132.4047,101.14231)"
       clip-path="url(#clipPath743)" />
    <path
       id="path744"
       d="m 219.213,489.092 h -0.551 v 3.393 h 0.551 z m 0.997,3.393 h 0.594 v -3.255 c 0,-0.076 -0.062,-0.138 -0.138,-0.138 h -0.456 z m 1.79,-6.267 v 1.187 h 3.442 v 0.996 h -3.444 v -0.982 h -0.995 v -0.871 c 0,-0.056 -0.045,-0.102 -0.101,-0.102 h -0.692 v 1.672 h 0.456 c 0.685,0 1.135,0.45 1.135,1.135 v 4.206 h -1.591 v 1.327 h -0.997 v -1.327 h -1.546 v -5.341 h 1.546 v -1.672 h -1.566 v -1.04 h 3.541 c 0.507,0 0.812,0.305 0.812,0.812"
       style="fill:#0e0f0f;fill-opacity:1;fill-rule:nonzero;stroke:none"
       transform="matrix(0.35277776,0,0,-0.35277776,52.227484,272.88595)"
       clip-path="url(#clipPath745)" />
    <path
       id="path746"
       d="M 0,0 0.818,0.105 C 0.808,1.557 0.609,2.951 0.6,3.011 L -0.386,2.869 C -0.385,2.866 -0.38,2.826 -0.371,2.76 -0.312,2.459 -0.087,1.259 0,0"
       style="fill:#0e0f0f;fill-opacity:1;fill-rule:nonzero;stroke:none"
       transform="matrix(0.35277776,0,0,-0.35277776,135.32309,99.373449)"
       clip-path="url(#clipPath747)" />
    <path
       id="path748"
       d="m 230.412,489.092 h -0.551 v 3.393 h 0.551 z m 0.996,3.393 h 0.595 v -3.255 c 0,-0.076 -0.062,-0.138 -0.138,-0.138 h -0.457 z m 7.521,-6.495 c -0.91,0.764 -1.701,1.484 -2.361,2.239 0.34,0.451 0.642,0.922 0.902,1.427 0.675,1.31 0.732,2.712 0.732,4.036 h -1.041 c 0,-1.196 -0.047,-2.456 -0.616,-3.559 -0.19,-0.369 -0.407,-0.719 -0.647,-1.058 -0.241,0.339 -0.458,0.689 -0.648,1.058 -0.568,1.103 -0.616,2.363 -0.616,3.559 h -1.04 c 0,-1.266 0.056,-2.726 0.732,-4.036 0.26,-0.505 0.562,-0.976 0.901,-1.427 -0.578,-0.661 -1.257,-1.296 -2.029,-1.957 v 0.108 1.039 h -0.996 v -0.871 c 0,-0.056 -0.045,-0.102 -0.101,-0.102 h -0.693 v 1.672 h 0.457 c 0.684,0 1.134,0.45 1.134,1.135 v 4.206 h -1.591 v 1.327 h -0.996 v -1.327 h -1.547 v -5.341 h 1.547 v -1.672 h -1.566 v -1.04 h 3.541 c 0.317,0 0.556,0.12 0.689,0.335 l 0.46,-0.548 c 0.897,0.754 1.687,1.471 2.362,2.224 0.675,-0.753 1.464,-1.47 2.362,-2.224 z"
       style="fill:#0e0f0f;fill-opacity:1;fill-rule:nonzero;stroke:none"
       transform="matrix(0.35277776,0,0,-0.35277776,52.227484,272.88595)"
       clip-path="url(#clipPath749)" />
    <path
       id="path750"
       d="m 0,0 c -0.472,0 -1.026,-0.08 -1.358,-0.19 0.393,1.208 1.033,2.699 1.143,2.946 0.032,0.072 0.064,0.094 0.098,0.094 0.031,0 0.063,-0.019 0.09,-0.08 C 0.092,2.509 0.732,1.018 1.107,-0.102 0.848,-0.062 0.491,0 0,0 m -0.869,3.776 c -0.933,-1.971 -1.733,-4.114 -2.403,-6.381 0,0 0.229,-0.056 0.574,-0.056 0.328,0 0.557,0.056 0.56,0.056 0.209,0.741 0.546,1.741 0.546,1.741 0,0 0.881,0.104 1.471,0.054 0.693,-0.059 1.05,-0.156 1.38,-0.303 0.144,-0.064 0.219,-0.11 0.258,-0.228 0.077,-0.238 0.215,-0.693 0.378,-1.263 0,0 0.238,-0.057 0.57,-0.057 0.345,0 0.562,0.054 0.562,0.054 C 2.372,-0.338 1.58,1.805 0.63,3.776 Z"
       style="fill:#0e0f0f;fill-opacity:1;fill-rule:nonzero;stroke:none"
       transform="matrix(0.35277776,0,0,-0.35277776,129.95081,103.81453)"
       clip-path="url(#clipPath751)" />
    <path
       id="path752"
       d="M 0,0 C -1.215,0 -2.2,0.985 -2.2,2.2 -2.2,3.415 -1.215,4.4 0,4.4 1.215,4.4 2.2,3.415 2.2,2.2 2.2,0.985 1.215,0 0,0 m 0,5.503 c -1.825,0 -3.304,-1.479 -3.304,-3.303 0,-1.825 1.479,-3.304 3.304,-3.304 1.824,0 3.303,1.479 3.303,3.304 0,1.824 -1.479,3.303 -3.303,3.303"
       style="fill:#0e0f0f;fill-opacity:1;fill-rule:nonzero;stroke:none"
       transform="matrix(0.35277776,0,0,-0.35277776,142.19382,104.39256)"
       clip-path="url(#clipPath753)" />
    <path
       id="path754"
       d="M 0,0 H -1.458 V 2.066 H 0.197 C 1.156,2.066 1.602,1.878 1.602,1.099 1.602,0.27 0.958,0 0,0 m 1.51,-1.143 c -0.334,0.264 -0.629,0.314 -0.62,0.38 0.008,0.056 0.165,0.03 0.444,0.114 0.864,0.249 1.375,0.898 1.375,1.748 0,1.495 -1.035,1.902 -2.53,1.902 h -2.746 v -6.364 c 0,0 0.228,-0.055 0.555,-0.055 0.321,0 0.553,0.055 0.554,0.055 v 2.416 h 0.714 c 0.509,0 0.892,-0.064 1.166,-0.272 0.295,-0.224 0.528,-0.53 0.837,-1.012 0.18,-0.282 0.63,-1.131 0.631,-1.132 0,0 0.265,-0.055 0.65,-0.055 0.378,0 0.633,0.086 0.633,0.086 -0.723,1.154 -1.112,1.753 -1.663,2.189"
       style="fill:#0e0f0f;fill-opacity:1;fill-rule:nonzero;stroke:none"
       transform="matrix(0.35277776,0,0,-0.35277776,139.79589,103.5496)"
       clip-path="url(#clipPath755)" />
    <path
       id="path756"
       d="m 0,0 v -3.775 c 0,-1.023 -0.605,-1.671 -1.605,-1.671 -1,0 -1.605,0.648 -1.605,1.671 V 0 c 0,0 -0.23,0.056 -0.559,0.056 C -4.092,0.056 -4.323,0 -4.323,0 v -3.813 c 0,-1.859 1.192,-2.673 2.718,-2.673 1.525,0 2.717,0.814 2.717,2.673 V 0 c 0,0 -0.23,0.056 -0.554,0.056 C 0.23,0.056 0.001,0 0.001,0"
       style="fill:#0e0f0f;fill-opacity:1;fill-rule:nonzero;stroke:none"
       transform="matrix(0.35277776,0,0,-0.35277776,145.21717,102.49384)"
       clip-path="url(#clipPath757)" />
    <path
       id="path758"
       d="M 0,0 H -1.532 V 2.313 H 0 C 0.959,2.313 1.371,1.997 1.371,1.151 1.371,0.306 0.857,0 0,0 m 0.186,3.305 h -2.835 v -6.352 c 0,0 0.23,-0.055 0.558,-0.055 0.324,0 0.558,0.055 0.559,0.055 v 2.055 h 1.756 c 1.319,0 2.208,0.852 2.208,2.173 0,1.32 -0.876,2.124 -2.246,2.124"
       style="fill:#0e0f0f;fill-opacity:1;fill-rule:nonzero;stroke:none"
       transform="matrix(0.35277776,0,0,-0.35277776,146.99883,103.6598)"
       clip-path="url(#clipPath759)" />
    <path
       id="path760"
       d="m 0,0 c 0.896,0 1.568,-0.328 2.125,-1.097 l 0.819,0.603 c -0.735,1.015 -1.537,1.511 -3.033,1.511 -1.827,0 -3.237,-1.409 -3.237,-3.317 0,-1.917 1.355,-3.29 3.033,-3.29 0.472,0 0.9,0.103 1.26,0.255 0.329,0.133 0.514,0.234 0.727,0.379 0.089,0.06 0.192,0.131 0.259,0.107 0.057,-0.02 0.061,-0.083 0.061,-0.151 0,-0.202 0.001,-0.444 0.001,-0.444 0,0 0.174,-0.055 0.424,-0.055 0.243,0 0.423,0.07 0.423,0.07 L 2.861,-2.037 H 0.01 v -0.906 h 1.872 c -0.005,-0.679 -0.619,-1.63 -2.024,-1.63 -1.325,0 -2.1,1.053 -2.1,2.273 0,1.378 1.087,2.3 2.242,2.3"
       style="fill:#0e0f0f;fill-opacity:1;fill-rule:nonzero;stroke:none"
       transform="matrix(0.35277776,0,0,-0.35277776,137.41259,102.80996)"
       clip-path="url(#clipPath761)" />
    <path
       id="path762"
       d="m 0,0 v -4.615 c -1.092,1.759 -2.186,3.351 -3.251,4.615 0,0 -0.226,0.055 -0.548,0.055 C -4.116,0.055 -4.345,0 -4.346,0 v -6.365 c 0.001,0 0.225,-0.055 0.544,-0.055 0.315,0 0.543,0.055 0.545,0.055 v 4.931 c 1.163,-1.601 2.256,-3.252 3.238,-4.931 0,0 0.23,-0.055 0.555,-0.055 0.32,0 0.553,0.055 0.553,0.055 V 0 C 1.089,0 0.865,0.055 0.545,0.055 0.229,0.055 0,0 0,0"
       style="fill:#0e0f0f;fill-opacity:1;fill-rule:nonzero;stroke:none"
       transform="matrix(0.35277776,0,0,-0.35277776,132.83505,102.4882)"
       clip-path="url(#clipPath763)" />
    <path
       id="path764"
       d="m 0,0 h 2.308 v -5.334 c 0.001,0 0.243,-0.055 0.591,-0.055 0.343,0 0.59,0.055 0.592,0.055 V 0 H 5.799 V 1.026 H 0 Z"
       style="fill:#0e0f0f;fill-opacity:1;fill-rule:nonzero;stroke:none"
       transform="matrix(0.35277776,0,0,-0.35277776,133.55282,102.85187)"
       clip-path="url(#clipPath765)" />
  </g>
</svg>
