<?xml version="1.0" encoding="UTF-8" standalone="no"?>
<!-- Created with Inkscape (http://www.inkscape.org/) -->

<svg
   width="54.837471mm"
   height="8.0001984mm"
   viewBox="0 0 54.837471 8.0001984"
   version="1.1"
   id="svg1"
   xmlns="http://www.w3.org/2000/svg"
   xmlns:svg="http://www.w3.org/2000/svg">
  <defs
     id="defs1">
    <clipPath
       clipPathUnits="userSpaceOnUse"
       id="clipPath525">
      <path
         d="M 0,858.898 H 1207.558 V 0 H 0 Z"
         transform="translate(2.5000001e-7,-3.5000001e-5)"
         id="path525" />
    </clipPath>
    <clipPath
       clipPathUnits="userSpaceOnUse"
       id="clipPath527">
      <path
         d="M 0,858.898 H 1207.558 V 0 H 0 Z"
         transform="translate(-243.5022,-588.75291)"
         id="path527" />
    </clipPath>
    <clipPath
       clipPathUnits="userSpaceOnUse"
       id="clipPath529">
      <path
         d="M 0,858.898 H 1207.558 V 0 H 0 Z"
         transform="translate(-255.3369,-592.68372)"
         id="path529" />
    </clipPath>
    <clipPath
       clipPathUnits="userSpaceOnUse"
       id="clipPath531">
      <path
         d="M 0,858.898 H 1207.558 V 0 H 0 Z"
         transform="translate(-263.19801,-585.81091)"
         id="path531" />
    </clipPath>
    <clipPath
       clipPathUnits="userSpaceOnUse"
       id="clipPath533">
      <path
         d="M 0,858.898 H 1207.558 V 0 H 0 Z"
         transform="translate(2.5000001e-7,-3.5000001e-5)"
         id="path533" />
    </clipPath>
    <clipPath
       clipPathUnits="userSpaceOnUse"
       id="clipPath535">
      <path
         d="M 0,858.898 H 1207.558 V 0 H 0 Z"
         transform="translate(-291.1332,-589.62852)"
         id="path535" />
    </clipPath>
    <clipPath
       clipPathUnits="userSpaceOnUse"
       id="clipPath537">
      <path
         d="M 0,858.898 H 1207.558 V 0 H 0 Z"
         transform="translate(-309.18141,-589.75992)"
         id="path537" />
    </clipPath>
    <clipPath
       clipPathUnits="userSpaceOnUse"
       id="clipPath539">
      <path
         d="M 0,858.898 H 1207.558 V 0 H 0 Z"
         transform="translate(2.5000001e-7,-3.5000001e-5)"
         id="path539" />
    </clipPath>
    <clipPath
       clipPathUnits="userSpaceOnUse"
       id="clipPath541">
      <path
         d="M 0,858.898 H 1207.558 V 0 H 0 Z"
         transform="translate(-333.11361,-596.26041)"
         id="path541" />
    </clipPath>
    <clipPath
       clipPathUnits="userSpaceOnUse"
       id="clipPath543">
      <path
         d="M 0,858.898 H 1207.558 V 0 H 0 Z"
         transform="translate(2.5000001e-7,-3.5000001e-5)"
         id="path543" />
    </clipPath>
    <clipPath
       clipPathUnits="userSpaceOnUse"
       id="clipPath545">
      <path
         d="M 0,858.898 H 1207.558 V 0 H 0 Z"
         transform="translate(-201.7308,-576.44631)"
         id="path545" />
    </clipPath>
    <clipPath
       clipPathUnits="userSpaceOnUse"
       id="clipPath547">
      <path
         d="M 0,858.898 H 1207.558 V 0 H 0 Z"
         transform="translate(-218.9442,-576.70651)"
         id="path547" />
    </clipPath>
    <clipPath
       clipPathUnits="userSpaceOnUse"
       id="clipPath549">
      <path
         d="M 0,858.898 H 1207.558 V 0 H 0 Z"
         transform="translate(-218.76861,-584.21781)"
         id="path549" />
    </clipPath>
    <linearGradient
       x1="0"
       y1="0"
       x2="1"
       y2="0"
       gradientUnits="userSpaceOnUse"
       gradientTransform="matrix(0,2.5779717,-2.5779717,0,63.286095,73.423177)"
       spreadMethod="pad"
       id="linearGradient551">
      <stop
         style="stop-opacity:1;stop-color:#71cc81"
         offset="0"
         id="stop549" />
      <stop
         style="stop-opacity:1;stop-color:#38833f"
         offset="0.55359644"
         id="stop550" />
      <stop
         style="stop-opacity:1;stop-color:#38833f"
         offset="1"
         id="stop551" />
    </linearGradient>
    <linearGradient
       x1="0"
       y1="0"
       x2="1"
       y2="0"
       gradientUnits="userSpaceOnUse"
       gradientTransform="matrix(0,5.1406447,-5.1406447,0,63.343732,70.773703)"
       spreadMethod="pad"
       id="linearGradient554">
      <stop
         style="stop-opacity:1;stop-color:#71cc81"
         offset="0"
         id="stop552" />
      <stop
         style="stop-opacity:1;stop-color:#38833f"
         offset="0.55359644"
         id="stop553" />
      <stop
         style="stop-opacity:1;stop-color:#38833f"
         offset="1"
         id="stop554" />
    </linearGradient>
    <linearGradient
       x1="0"
       y1="0"
       x2="1"
       y2="0"
       gradientUnits="userSpaceOnUse"
       gradientTransform="matrix(0,5.0103597,-5.0103597,0,63.279953,68.262705)"
       spreadMethod="pad"
       id="linearGradient557">
      <stop
         style="stop-opacity:1;stop-color:#71cc81"
         offset="0"
         id="stop555" />
      <stop
         style="stop-opacity:1;stop-color:#38833f"
         offset="0.55359644"
         id="stop556" />
      <stop
         style="stop-opacity:1;stop-color:#38833f"
         offset="1"
         id="stop557" />
    </linearGradient>
    <clipPath
       clipPathUnits="userSpaceOnUse"
       id="clipPath559">
      <path
         d="M 0,858.898 H 1207.558 V 0 H 0 Z"
         transform="translate(-226.08981,-577.64412)"
         id="path559" />
    </clipPath>
    <clipPath
       clipPathUnits="userSpaceOnUse"
       id="clipPath561">
      <path
         d="M 0,858.898 H 1207.558 V 0 H 0 Z"
         transform="translate(-227.57631,-577.42251)"
         id="path561" />
    </clipPath>
    <clipPath
       clipPathUnits="userSpaceOnUse"
       id="clipPath563">
      <path
         d="M 0,858.898 H 1207.558 V 0 H 0 Z"
         transform="translate(2.5000001e-7,-3.5000001e-5)"
         id="path563" />
    </clipPath>
    <clipPath
       clipPathUnits="userSpaceOnUse"
       id="clipPath565">
      <path
         d="M 0,858.898 H 1207.558 V 0 H 0 Z"
         transform="translate(-234.4275,-577.42251)"
         id="path565" />
    </clipPath>
    <clipPath
       clipPathUnits="userSpaceOnUse"
       id="clipPath567">
      <path
         d="M 0,858.898 H 1207.558 V 0 H 0 Z"
         transform="translate(-239.56581,-578.51551)"
         id="path567" />
    </clipPath>
    <clipPath
       clipPathUnits="userSpaceOnUse"
       id="clipPath569">
      <path
         d="M 0,858.898 H 1207.558 V 0 H 0 Z"
         transform="translate(-245.24691,-577.42251)"
         id="path569" />
    </clipPath>
    <clipPath
       clipPathUnits="userSpaceOnUse"
       id="clipPath571">
      <path
         d="M 0,858.898 H 1207.558 V 0 H 0 Z"
         transform="translate(-249.77031,-579.12591)"
         id="path571" />
    </clipPath>
    <clipPath
       clipPathUnits="userSpaceOnUse"
       id="clipPath573">
      <path
         d="M 0,858.898 H 1207.558 V 0 H 0 Z"
         transform="translate(-255.27681,-579.27051)"
         id="path573" />
    </clipPath>
    <clipPath
       clipPathUnits="userSpaceOnUse"
       id="clipPath575">
      <path
         d="M 0,858.898 H 1207.558 V 0 H 0 Z"
         transform="translate(-259.2762,-577.42251)"
         id="path575" />
    </clipPath>
    <clipPath
       clipPathUnits="userSpaceOnUse"
       id="clipPath577">
      <path
         d="M 0,858.898 H 1207.558 V 0 H 0 Z"
         transform="translate(-263.31491,-578.17741)"
         id="path577" />
    </clipPath>
    <clipPath
       clipPathUnits="userSpaceOnUse"
       id="clipPath579">
      <path
         d="M 0,858.898 H 1207.558 V 0 H 0 Z"
         transform="translate(-268.9932,-580.30722)"
         id="path579" />
    </clipPath>
    <clipPath
       clipPathUnits="userSpaceOnUse"
       id="clipPath581">
      <path
         d="M 0,858.898 H 1207.558 V 0 H 0 Z"
         transform="translate(-272.7033,-579.27051)"
         id="path581" />
    </clipPath>
    <clipPath
       clipPathUnits="userSpaceOnUse"
       id="clipPath583">
      <path
         d="M 0,858.898 H 1207.558 V 0 H 0 Z"
         transform="translate(-277.31781,-577.42251)"
         id="path583" />
    </clipPath>
    <clipPath
       clipPathUnits="userSpaceOnUse"
       id="clipPath585">
      <path
         d="M 0,858.898 H 1207.558 V 0 H 0 Z"
         transform="translate(-285.89961,-579.95781)"
         id="path585" />
    </clipPath>
    <clipPath
       clipPathUnits="userSpaceOnUse"
       id="clipPath587">
      <path
         d="M 0,858.898 H 1207.558 V 0 H 0 Z"
         transform="translate(-288.38331,-579.27051)"
         id="path587" />
    </clipPath>
    <clipPath
       clipPathUnits="userSpaceOnUse"
       id="clipPath589">
      <path
         d="M 0,858.898 H 1207.558 V 0 H 0 Z"
         transform="translate(-292.18551,-579.12591)"
         id="path589" />
    </clipPath>
    <clipPath
       clipPathUnits="userSpaceOnUse"
       id="clipPath591">
      <path
         d="M 0,858.898 H 1207.558 V 0 H 0 Z"
         transform="translate(-297.09561,-580.82541)"
         id="path591" />
    </clipPath>
    <clipPath
       clipPathUnits="userSpaceOnUse"
       id="clipPath593">
      <path
         d="M 0,858.898 H 1207.558 V 0 H 0 Z"
         transform="translate(-301.63021,-579.25161)"
         id="path593" />
    </clipPath>
    <clipPath
       clipPathUnits="userSpaceOnUse"
       id="clipPath595">
      <path
         d="M 0,858.898 H 1207.558 V 0 H 0 Z"
         transform="translate(-309.54161,-577.64412)"
         id="path595" />
    </clipPath>
    <clipPath
       clipPathUnits="userSpaceOnUse"
       id="clipPath597">
      <path
         d="M 0,858.898 H 1207.558 V 0 H 0 Z"
         transform="translate(-311.59991,-579.12591)"
         id="path597" />
    </clipPath>
    <clipPath
       clipPathUnits="userSpaceOnUse"
       id="clipPath599">
      <path
         d="M 0,858.898 H 1207.558 V 0 H 0 Z"
         transform="translate(-316.62471,-579.27051)"
         id="path599" />
    </clipPath>
    <clipPath
       clipPathUnits="userSpaceOnUse"
       id="clipPath601">
      <path
         d="M 0,858.898 H 1207.558 V 0 H 0 Z"
         transform="translate(-320.73761,-579.25161)"
         id="path601" />
    </clipPath>
    <clipPath
       clipPathUnits="userSpaceOnUse"
       id="clipPath603">
      <path
         d="M 0,858.898 H 1207.558 V 0 H 0 Z"
         transform="translate(-324.37461,-579.12591)"
         id="path603" />
    </clipPath>
    <clipPath
       clipPathUnits="userSpaceOnUse"
       id="clipPath605">
      <path
         d="M 0,858.898 H 1207.558 V 0 H 0 Z"
         transform="translate(-329.40021,-579.27051)"
         id="path605" />
    </clipPath>
    <clipPath
       clipPathUnits="userSpaceOnUse"
       id="clipPath607">
      <path
         d="M 0,858.898 H 1207.558 V 0 H 0 Z"
         transform="translate(-333.50851,-578.51551)"
         id="path607" />
    </clipPath>
    <clipPath
       clipPathUnits="userSpaceOnUse"
       id="clipPath609">
      <path
         d="M 0,858.898 H 1207.558 V 0 H 0 Z"
         transform="translate(-338.12761,-580.30722)"
         id="path609" />
    </clipPath>
    <clipPath
       clipPathUnits="userSpaceOnUse"
       id="clipPath611">
      <path
         d="M 0,858.898 H 1207.558 V 0 H 0 Z"
         transform="translate(2.5000001e-7,-3.5000001e-5)"
         id="path611" />
    </clipPath>
    <clipPath
       clipPathUnits="userSpaceOnUse"
       id="clipPath613">
      <path
         d="M 0,858.898 H 1207.558 V 0 H 0 Z"
         transform="translate(-343.68111,-579.12591)"
         id="path613" />
    </clipPath>
    <clipPath
       clipPathUnits="userSpaceOnUse"
       id="clipPath615">
      <path
         d="M 0,858.898 H 1207.558 V 0 H 0 Z"
         transform="translate(-348.11981,-577.42251)"
         id="path615" />
    </clipPath>
  </defs>
  <g
     id="layer1"
     transform="translate(-59.266667,-68.262506)">
    <path
       id="path524"
       d="m 232.04,592.757 h -2.722 v -2.179 h 2.722 z m -7.025,-2.179 h 2.661 v 2.179 h -2.661 z m -1.606,-1.709 0.037,1.459 v 2.728 l -0.037,1.233 1.27,-0.049 h 2.997 v 0.763 l -0.049,1.508 h 1.74 l -0.049,-1.508 v -0.763 h 3.07 l 1.312,0.049 -0.043,-1.233 v -2.728 l 0.043,-1.477 h -1.678 l 0.018,0.207 h -2.722 v -2.478 l 0.049,-1.428 h -1.74 l 0.049,1.428 v 2.478 h -2.661 l 0.03,-0.189 z"
       style="fill:#388941;fill-opacity:1;fill-rule:nonzero;stroke:none"
       transform="matrix(0.35277776,0,0,-0.35277776,-9.7066784,279.62012)"
       clip-path="url(#clipPath525)" />
    <path
       id="path526"
       d="m 0,0 c -0.073,0.102 -0.159,0.216 -0.256,0.342 -0.098,0.126 -0.354,0.366 -0.769,0.72 0.219,0.134 0.445,0.316 0.677,0.543 h -0.83 V 0 Z M -5.359,0.031 -4.291,0 h 1.679 v 1.605 h -1.239 l -1.038,-0.03 v 1.3 L -3.851,2.85 h 1.239 V 4.022 H -4.163 L -5.2,3.986 V 5.298 L -4.163,5.267 H 0.324 L 1.447,5.298 V 3.967 L 0.397,4.022 H -1.178 V 2.85 H 0.324 L 1.099,2.875 V 1.556 L 0.195,1.605 C 0.317,1.463 0.413,1.359 0.482,1.294 L 0.903,0.891 1.196,0.598 C 1.021,0.419 0.834,0.22 0.635,0 l 0.903,0.031 v -1.276 l -1.123,0.03 h -4.718 l -1.056,-0.03 z M -5.56,-1.941 h 7.3 v 7.898 h -7.3 z M -7.019,7.3 -5.811,7.257 H 2.033 L 3.229,7.3 3.186,6.006 V -2.087 L 3.229,-3.473 H 1.74 v 0.25 h -7.3 v -0.165 h -1.459 l 0.036,1.386 v 8.008 z"
       style="fill:#388941;fill-opacity:1;fill-rule:nonzero;stroke:none"
       transform="matrix(0.35277776,0,0,-0.35277776,76.195485,71.9212)"
       clip-path="url(#clipPath527)" />
    <path
       id="path528"
       d="M 0,0 -0.989,-0.049 V 1.477 L 0,1.428 H 0.934 V 2.966 L 0.891,3.986 H 2.38 L 2.338,2.966 V 1.428 H 3.65 L 4.73,1.477 V -0.049 L 3.668,0 H 2.393 C 2.49,-0.342 2.587,-0.649 2.682,-0.922 2.778,-1.194 3.006,-1.686 3.366,-2.396 3.727,-3.106 4.035,-3.591 4.291,-3.851 4.547,-4.112 4.848,-4.35 5.194,-4.566 4.881,-5.091 4.688,-5.428 4.614,-5.579 L 4.395,-6.037 C 3.898,-5.622 3.507,-5.235 3.219,-4.877 2.933,-4.519 2.73,-4.21 2.612,-3.949 L 2.338,-3.388 V -6.647 L 2.38,-7.697 H 0.891 l 0.043,1.062 v 3.26 C 0.608,-3.851 0.29,-4.274 -0.021,-4.642 -0.333,-5.01 -0.574,-5.269 -0.745,-5.42 l -0.653,-0.586 c -0.065,0.122 -0.151,0.277 -0.259,0.467 -0.108,0.189 -0.339,0.487 -0.693,0.894 0.362,0.195 0.679,0.408 0.952,0.638 0.273,0.23 0.562,0.581 0.867,1.053 0.305,0.472 0.555,0.907 0.751,1.306 0.195,0.399 0.327,0.716 0.396,0.952 L 0.83,0 Z m -6.8,-3.919 c 0.192,0.106 0.392,0.236 0.602,0.388 0.209,0.153 0.441,0.428 0.696,0.827 0.254,0.399 0.468,0.77 0.643,1.114 0.176,0.344 0.3,0.638 0.373,0.882 l 0.238,0.763 H -5.622 L -6.397,0.024 V 1.477 L -5.664,1.44 h 1.501 v 1.343 l -0.036,1.233 h 1.471 L -2.771,2.765 V 1.44 h 0.787 l 0.727,0.037 V 0.024 l -0.727,0.031 h -0.787 l 0.006,-1.502 c 0.269,0.212 0.535,0.448 0.8,0.708 0.142,-0.183 0.25,-0.319 0.323,-0.409 l 0.452,-0.616 c 0.293,-0.403 0.496,-0.684 0.61,-0.842 -0.159,-0.155 -0.368,-0.367 -0.629,-0.638 -0.26,-0.271 -0.41,-0.424 -0.451,-0.461 -0.106,0.216 -0.219,0.439 -0.339,0.669 -0.12,0.229 -0.377,0.615 -0.772,1.156 v -4.291 l 0.043,-1.477 h -1.471 l 0.036,1.489 v 2.906 c -0.203,-0.313 -0.44,-0.66 -0.711,-1.041 -0.27,-0.38 -0.638,-0.805 -1.102,-1.273 -0.081,0.184 -0.169,0.38 -0.265,0.59 -0.096,0.209 -0.282,0.562 -0.559,1.058"
       style="fill:#388941;fill-opacity:1;fill-rule:nonzero;stroke:none"
       transform="matrix(0.35277776,0,0,-0.35277776,80.370504,70.5345)"
       clip-path="url(#clipPath529)" />
    <path
       id="path530"
       d="M 0,0 -1.282,-0.043 V 1.471 L 0,1.422 H 2.203 V 3.497 C 1.711,3.29 1.386,3.135 1.226,3.034 L 0.8,2.765 C 0.424,4.079 0.133,5.062 -0.077,5.713 -0.286,6.364 -0.46,6.862 -0.598,7.208 l -0.397,0.995 c 0.501,0.151 0.847,0.279 1.038,0.385 l 0.41,0.22 C 0.565,8.49 0.751,7.987 1.007,7.297 1.264,6.607 1.429,6.157 1.502,5.945 L 1.831,4.938 C 1.995,4.445 2.085,4.155 2.105,4.065 L 2.203,3.644 V 8.905 L 2.162,10.407 H 3.784 L 3.741,8.905 V 1.422 h 1.05 V 8.887 L 4.75,10.389 H 6.367 L 6.323,8.887 V 3.613 c 0.139,0.269 0.248,0.492 0.331,0.669 0.081,0.177 0.199,0.462 0.357,0.857 0.156,0.395 0.31,0.845 0.464,1.349 0.152,0.505 0.266,0.954 0.343,1.349 L 7.984,8.661 C 8.402,8.527 8.938,8.387 9.589,8.24 9.415,7.573 9.259,7.03 9.126,6.61 8.99,6.191 8.819,5.71 8.613,5.167 8.404,4.623 8.22,4.176 8.061,3.824 7.899,3.472 7.647,2.96 7.306,2.289 7.001,2.541 6.673,2.779 6.323,3.003 V 1.422 h 2.094 l 1.46,0.049 V -0.043 L 8.417,0 Z"
       style="fill:#388941;fill-opacity:1;fill-rule:nonzero;stroke:none"
       transform="matrix(0.35277776,0,0,-0.35277776,83.143726,72.959073)"
       clip-path="url(#clipPath531)" />
    <path
       id="path532"
       d="m 278.164,590.694 h 2.135 v 0.36 h -2.135 z m 0,1.477 h 2.135 v 0.36 h -2.135 z m 2.136,1.837 h -2.135 v -0.366 h 2.135 z m -1.434,2.271 0.427,-0.19 c -0.256,-0.288 -0.511,-0.569 -0.763,-0.842 l 2.033,0.006 c -0.187,0.342 -0.383,0.674 -0.586,0.995 0.15,0.045 0.289,0.094 0.415,0.147 0.125,0.053 0.357,0.189 0.695,0.409 0.107,-0.175 0.187,-0.304 0.245,-0.385 l 0.427,-0.653 0.232,-0.36 -0.238,-0.159 h 2.984 l 0.818,0.031 v -1.282 l -0.964,0.024 h -2.893 v -0.378 h 2.472 l 0.964,0.03 v -1.171 l -0.977,0.03 h -2.459 v -0.36 h 2.576 l 0.873,0.024 v -1.165 l -0.934,0.024 h -2.515 v -0.36 h 3.216 l 0.806,0.024 v -1.196 l -1.056,0.03 h -3.155 v -0.439 h 4.004 l 0.787,0.03 v -1.312 l -0.849,0.031 h -2.612 c 0.257,-0.183 0.485,-0.337 0.687,-0.461 0.201,-0.124 0.577,-0.3 1.126,-0.528 0.549,-0.228 0.959,-0.364 1.227,-0.409 l 0.524,-0.104 c -0.122,-0.151 -0.241,-0.305 -0.359,-0.464 -0.119,-0.158 -0.293,-0.445 -0.525,-0.86 -0.778,0.252 -1.45,0.532 -2.017,0.839 -0.568,0.307 -1.232,0.754 -1.993,1.34 v -1.136 l 0.03,-0.946 h -1.47 l 0.024,1.007 v 0.806 c -0.875,-0.553 -1.616,-0.959 -2.222,-1.217 -0.606,-0.259 -1.278,-0.482 -2.015,-0.669 -0.081,0.195 -0.155,0.359 -0.222,0.491 -0.067,0.133 -0.276,0.437 -0.626,0.913 0.277,0.012 0.535,0.031 0.775,0.058 0.24,0.026 0.64,0.129 1.2,0.308 0.56,0.179 0.973,0.356 1.241,0.531 l 0.8,0.501 h -3.241 l -0.653,-0.031 v 1.312 l 0.715,-0.03 h 4.248 v 0.439 h -1.929 v -0.244 h -1.331 l 0.049,1.02 v 3.253 c -0.435,-0.342 -0.883,-0.653 -1.343,-0.934 -0.212,0.456 -0.374,0.773 -0.489,0.952 l -0.255,0.397 c 0.166,0.065 0.363,0.152 0.592,0.259 0.228,0.108 0.607,0.398 1.138,0.87 0.531,0.472 0.912,0.92 1.144,1.343 l 0.232,0.409 c 0.521,-0.35 0.843,-0.549 0.965,-0.598"
       style="fill:#388941;fill-opacity:1;fill-rule:nonzero;stroke:none"
       transform="matrix(0.35277776,0,0,-0.35277776,-9.7066784,279.62012)"
       clip-path="url(#clipPath533)" />
    <path
       id="path534"
       d="m 0,0 c 0.382,0.348 0.832,1.053 1.349,2.115 h -1.08 l -1.27,-0.03 V 3.446 L 0.208,3.415 h 2.251 v 0.397 l -0.03,1.05 h 1.49 L 3.889,3.812 V 3.415 h 0.89 L 5.762,3.446 V 2.085 L 4.779,2.115 H 3.913 V -1.687 C 3.913,-1.915 3.864,-2.093 3.766,-2.222 3.669,-2.349 3.43,-2.455 3.052,-2.536 2.673,-2.617 2.195,-2.641 1.618,-2.609 1.613,-2.499 1.609,-2.386 1.605,-2.271 1.601,-2.154 1.583,-2.006 1.55,-1.825 1.517,-1.644 1.473,-1.504 1.416,-1.407 l -0.14,0.251 c 0.382,-0.053 0.626,-0.078 0.733,-0.074 0.3,0 0.45,0.106 0.45,0.318 V 1.297 C 2.077,0.642 1.674,0.028 1.252,-0.546 0.828,-1.12 0.301,-1.628 -0.33,-2.072 c -0.155,0.366 -0.311,0.624 -0.469,0.775 l -0.41,0.403 C -0.785,-0.646 -0.382,-0.347 0,0 m -1.276,-2.872 h 7.331 v 7.953 h -7.331 z m -1.52,9.296 1.185,-0.042 H 6.463 L 7.513,6.424 7.471,5.277 V -2.987 L 7.513,-4.336 H 6.055 v 0.177 h -7.331 v -0.177 h -1.501 l 0.036,1.538 -0.018,7.794 z"
       style="fill:#388941;fill-opacity:1;fill-rule:nonzero;stroke:none"
       transform="matrix(0.35277776,0,0,-0.35277776,92.998643,71.612307)"
       clip-path="url(#clipPath535)" />
    <path
       id="path536"
       d="M 0,0 -4.028,-0.006 V -0.708 L 0,-0.714 Z M 0,1.941 H -4.028 V 1.215 L 0,1.227 Z m -6.241,0.21 c 0.625,0.548 1.088,1.078 1.389,1.591 l 0.22,0.366 H -7.33 L -8.179,4.071 v 1.477 l 0.83,-0.042 h 3.334 c 0.154,0.427 0.246,0.695 0.274,0.805 L -3.6,6.873 c 0.561,-0.13 0.898,-0.197 1.012,-0.202 L -1.989,6.616 C -2.1,6.262 -2.224,5.892 -2.362,5.506 H 1.984 L 2.93,5.536 V 4.071 L 1.953,4.108 H -2.935 C -3.09,3.798 -3.242,3.516 -3.394,3.259 H 0.495 L 1.514,3.284 1.471,1.929 v -5.603 c 0,-0.257 -0.073,-0.478 -0.219,-0.666 -0.147,-0.187 -0.822,-0.335 -2.027,-0.445 -0.094,0.529 -0.187,0.893 -0.28,1.092 L -1.3,-3.162 c 0.538,-0.032 0.839,-0.047 0.904,-0.042 C -0.131,-3.188 0,-3.084 0,-2.893 v 0.922 h -4.015 v -1.386 l 0.042,-1.27 h -1.563 l 0.037,1.27 0.006,4.181 C -5.623,0.702 -5.77,0.57 -5.936,0.427 -6.1,0.285 -6.645,-0.043 -7.569,-0.555 -7.824,-0.059 -8.024,0.267 -8.166,0.421 l -0.348,0.385 c 0.891,0.35 1.649,0.798 2.273,1.345"
       style="fill:#388941;fill-opacity:1;fill-rule:nonzero;stroke:none"
       transform="matrix(0.35277776,0,0,-0.35277776,99.365648,71.565952)"
       clip-path="url(#clipPath537)" />
    <path
       id="path538"
       d="m 320.193,592.122 h 2.789 v 0.848 h -2.789 z m 2.788,2.838 h -2.789 v -0.806 h 2.789 z m -0.653,-4.065 c 0.037,-0.175 0.08,-0.37 0.129,-0.586 0.048,-0.215 0.108,-0.38 0.177,-0.494 l 0.133,-0.244 c 0.188,0.102 0.369,0.208 0.544,0.32 0.175,0.112 0.49,0.376 0.946,0.791 0.252,-0.346 0.557,-0.722 0.916,-1.13 -0.143,-0.114 -0.302,-0.234 -0.48,-0.363 -0.176,-0.128 -0.611,-0.381 -1.302,-0.76 0.117,-0.195 0.234,-0.368 0.347,-0.518 0.114,-0.151 0.323,-0.347 0.629,-0.59 0.305,-0.242 0.533,-0.383 0.684,-0.424 l 0.426,-0.146 c -0.109,-0.13 -0.217,-0.268 -0.325,-0.412 -0.108,-0.145 -0.277,-0.481 -0.505,-1.01 -0.39,0.199 -0.713,0.405 -0.97,0.619 -0.256,0.214 -0.532,0.485 -0.827,0.815 -0.295,0.33 -0.545,0.658 -0.75,0.986 -0.206,0.327 -0.414,0.755 -0.627,1.285 -0.211,0.529 -0.331,0.874 -0.359,1.037 l -0.129,0.58 c 0.261,0.029 0.415,0.053 0.464,0.073 l 0.526,0.171 h -1.782 v -3.314 c 0.415,0.264 0.664,0.433 0.75,0.507 l 0.598,0.482 c 0.187,-0.521 0.317,-0.853 0.391,-0.995 l 0.134,-0.281 c -0.346,-0.273 -0.778,-0.61 -1.294,-1.013 -0.517,-0.403 -0.837,-0.664 -0.959,-0.781 l -0.439,-0.409 c -0.301,0.573 -0.475,0.901 -0.524,0.982 l -0.293,0.464 c 0.089,0.078 0.157,0.148 0.203,0.211 0.047,0.063 0.086,0.147 0.117,0.253 0.03,0.106 0.046,0.218 0.046,0.336 v 7.3 l -0.043,1.666 1.226,-0.03 h 3.022 l 1.245,0.03 -0.03,-1.172 v -2.887 l 0.03,-1.373 -1.08,0.024 z m -5.738,-1.55 c 0.213,0.045 0.384,0.172 0.513,0.381 0.131,0.21 0.167,0.469 0.111,0.779 -0.082,0.402 -0.282,0.763 -0.599,1.08 l -0.482,0.494 v 0.794 c 0.15,0.386 0.234,0.604 0.251,0.653 l 0.451,1.465 h -1.013 v -8.185 l 0.043,-1.435 h -1.459 l 0.036,1.416 v 8.173 l -0.036,1.313 1.208,-0.031 h 2.577 l 0.426,-0.659 c -0.459,-1.115 -0.888,-2.126 -1.288,-3.034 0.159,-0.142 0.33,-0.304 0.513,-0.485 0.183,-0.181 0.366,-0.459 0.549,-0.833 0.184,-0.374 0.272,-0.768 0.266,-1.181 -0.006,-0.413 -0.1,-0.778 -0.284,-1.096 -0.182,-0.317 -0.427,-0.573 -0.733,-0.766 -0.304,-0.193 -0.724,-0.332 -1.256,-0.418 -0.09,0.468 -0.178,0.806 -0.263,1.013 l -0.208,0.513 c 0.241,-0.012 0.466,0.004 0.677,0.049"
       style="fill:#388941;fill-opacity:1;fill-rule:nonzero;stroke:none"
       transform="matrix(0.35277776,0,0,-0.35277776,-9.7066784,279.62012)"
       clip-path="url(#clipPath539)" />
    <path
       id="path540"
       d="M 0,0 C 0.509,-0.073 1.054,-0.098 1.636,-0.073 1.624,-0.244 1.619,-0.398 1.621,-0.534 1.623,-0.67 1.64,-0.841 1.672,-1.047 1.705,-1.252 1.816,-1.604 2.005,-2.103 2.195,-2.601 2.465,-3.012 2.817,-3.336 3.169,-3.659 3.456,-3.896 3.677,-4.047 3.899,-4.198 4.094,-4.313 4.263,-4.395 4.432,-4.476 4.751,-4.58 5.218,-4.706 5.113,-4.84 5.013,-4.975 4.917,-5.109 4.821,-5.243 4.614,-5.63 4.297,-6.269 3.638,-5.963 3.052,-5.598 2.539,-5.173 2.026,-4.748 1.625,-4.32 1.333,-3.891 1.042,-3.462 0.809,-3.027 0.632,-2.588 0.454,-2.149 0.331,-1.783 0.259,-1.493 0.188,-1.202 0.101,-0.704 0,0 m -4.197,-8.408 c 0.194,0.157 0.434,0.396 0.721,0.717 0.287,0.322 0.574,0.677 0.864,1.066 0.289,0.388 0.553,0.819 0.793,1.294 0.24,0.473 0.387,0.784 0.44,0.93 l 0.109,0.311 c 0.505,-0.362 1.032,-0.679 1.581,-0.952 -0.158,-0.215 -0.276,-0.376 -0.353,-0.482 l -0.617,-0.861 c -0.302,-0.41 -0.609,-0.804 -0.921,-1.18 -0.314,-0.377 -0.717,-0.807 -1.21,-1.292 1.543,0.045 3.057,0.1 4.541,0.165 -0.361,0.542 -0.605,0.887 -0.732,1.038 l -0.506,0.61 c 0.582,0.236 0.952,0.417 1.111,0.544 l 0.249,0.189 c 1.092,-1.473 1.958,-2.684 2.601,-3.632 -0.688,-0.508 -1.04,-0.771 -1.056,-0.787 l -0.335,-0.306 c -0.073,0.167 -0.143,0.315 -0.209,0.443 -0.064,0.128 -0.202,0.363 -0.415,0.705 -0.757,-0.041 -1.835,-0.122 -3.234,-0.244 -1.4,-0.122 -2.26,-0.204 -2.579,-0.244 -0.319,-0.041 -0.683,-0.112 -1.09,-0.214 -0.17,0.582 -0.325,0.983 -0.463,1.202 l -0.227,0.367 c 0.432,0.252 0.744,0.457 0.937,0.613 m -1.07,2.316 c -0.404,0.538 -0.701,0.887 -0.892,1.05 l -0.304,0.263 c 0.483,0.195 0.983,0.533 1.497,1.013 0.515,0.48 0.972,0.995 1.37,1.544 0.4,0.55 0.705,1.111 0.917,1.685 l 0.133,0.354 c 0.502,-0.305 1.008,-0.539 1.521,-0.702 -0.456,-0.765 -0.845,-1.406 -1.166,-1.923 -0.322,-0.517 -0.786,-1.084 -1.391,-1.703 -0.607,-0.618 -1.169,-1.145 -1.685,-1.581"
       style="fill:#388941;fill-opacity:1;fill-rule:nonzero;stroke:none"
       transform="matrix(0.35277776,0,0,-0.35277776,107.8084,69.272721)"
       clip-path="url(#clipPath541)" />
    <path
       id="path542"
       d="m 346.022,589.967 h -3.198 v -1.624 h 3.198 z m -4.676,1.368 1.21,-0.043 h 3.637 l 1.319,0.043 -0.049,-1.093 v -2.087 l 0.049,-1.178 -1.319,0.042 h -3.637 l -1.21,-0.042 0.056,1.178 v 2.087 z m -0.64,3.247 v 1.44 l 1.574,-0.042 h 7.039 l 1.354,0.042 -0.043,-1.269 v -8.216 c 0,-0.366 -0.031,-0.614 -0.091,-0.744 -0.062,-0.131 -0.244,-0.272 -0.55,-0.425 -0.304,-0.152 -0.944,-0.263 -1.916,-0.332 -0.02,0.171 -0.047,0.355 -0.079,0.552 -0.033,0.198 -0.105,0.416 -0.214,0.656 l -0.195,0.44 c 0.187,-0.008 0.386,-0.017 0.597,-0.025 0.213,-0.008 0.363,-0.01 0.453,-0.006 0.244,0.004 0.395,0.043 0.454,0.116 0.06,0.073 0.089,0.224 0.089,0.452 v 7.404 h -6.898 z m 7.636,-1.056 v -1.416 l -1.508,0.043 h -5.109 l -1.367,-0.049 v 1.422 l 1.367,-0.043 h 5.109 z"
       style="fill:#388941;fill-opacity:1;fill-rule:nonzero;stroke:none"
       transform="matrix(0.35277776,0,0,-0.35277776,-9.7066784,279.62012)"
       clip-path="url(#clipPath543)" />
    <path
       id="path544"
       d="M 0,0 H 11.358 L 5.89,7.308 Z"
       style="fill:#94969b;fill-opacity:1;fill-rule:nonzero;stroke:none"
       transform="matrix(0.35277776,0,0,-0.35277776,61.459463,76.262695)"
       clip-path="url(#clipPath545)" />
    <path
       id="path546"
       d="m 0,0 -0.026,4.16 c 0,0 -2.641,-1.285 -11.403,10.398 0,0 -5.495,-9.062 -11.313,-10.397 v -4.175 c 0,0 8.763,4.349 11.357,8.524 0,0 4.584,-6.133 11.385,-8.51"
       style="fill:#94969b;fill-opacity:1;fill-rule:nonzero;stroke:none"
       transform="matrix(0.35277776,0,0,-0.35277776,67.531968,76.170903)"
       clip-path="url(#clipPath547)" />
    <path
       id="path548"
       d="m 0,0 v 6.612 c 0,0 -3.191,-2.364 -11.183,7.552 0,0 -6.364,-9.539 -11.57,-7.552 V 0 c 0,0 3.576,-1.153 11.57,9.195 0,0 5.82,-8.616 11.183,-9.195"
       style="fill:#94969b;fill-opacity:1;fill-rule:nonzero;stroke:none"
       transform="matrix(0.35277776,0,0,-0.35277776,67.470021,73.521082)"
       clip-path="url(#clipPath549)" />
    <path
       id="path551"
       d="m 61.28279,76.00103 h 4.006497 l -1.928636,-2.577747 z"
       style="fill:url(#linearGradient551);stroke:none;stroke-width:0.352778" />
    <path
       id="path554"
       d="m 59.332282,74.4414 v 1.472847 c 0,0 3.091392,-1.534231 4.00685,-3.007078 v 0 c 0,0 1.61678,2.163939 4.016022,3.002139 v 0 l -0.0092,-1.467555 c 0,0 -0.931334,0.453319 -4.022725,-3.668184 v 0 c 0,0 -1.938514,3.196872 -3.990975,3.667831"
       style="fill:url(#linearGradient554);stroke:none;stroke-width:0.352778" />
    <path
       id="path557"
       d="m 59.266665,70.927028 v 2.332566 c 0,0 1.261534,0.406753 4.081639,-3.244144 v 0 c 0,0 2.053167,3.039886 3.945114,3.244144 v 0 -2.332566 c 0,0 -1.125714,0.833966 -3.945114,-2.664531 v 0 c 0,0 -2.245078,3.3655 -4.081639,2.664531"
       style="fill:url(#linearGradient557);stroke:none;stroke-width:0.352778" />
    <path
       id="path558"
       d="m 0,0 c -0.152,-0.107 -0.315,-0.19 -0.488,-0.246 -0.174,-0.056 -0.352,-0.085 -0.536,-0.085 -0.194,0 -0.382,0.032 -0.562,0.095 -0.181,0.064 -0.347,0.156 -0.497,0.276 -0.211,0.17 -0.374,0.38 -0.487,0.628 -0.114,0.249 -0.17,0.519 -0.17,0.814 0,0.52 0.164,0.954 0.494,1.298 0.329,0.345 0.742,0.518 1.237,0.518 0.179,0 0.352,-0.026 0.517,-0.08 0.165,-0.053 0.326,-0.134 0.483,-0.242 L -0.07,2.31 C -0.207,2.456 -0.349,2.565 -0.498,2.638 -0.646,2.71 -0.804,2.746 -0.969,2.746 -1.307,2.746 -1.584,2.628 -1.8,2.393 -2.016,2.157 -2.124,1.855 -2.124,1.486 c 0,-0.358 0.105,-0.654 0.315,-0.886 0.211,-0.232 0.479,-0.348 0.804,-0.348 0.185,0 0.362,0.04 0.531,0.122 0.169,0.08 0.339,0.208 0.51,0.381 z"
       style="fill:#388941;fill-opacity:1;fill-rule:nonzero;stroke:none"
       transform="matrix(0.35277776,0,0,-0.35277776,70.052778,75.840137)"
       clip-path="url(#clipPath559)" />
    <path
       id="path560"
       d="m 0,0 v 3.403 h 0.593 v -1.36 h 1.623 v 1.36 H 2.802 V 0 H 2.216 V 1.521 H 0.593 V 0 Z"
       style="fill:#388941;fill-opacity:1;fill-rule:nonzero;stroke:none"
       transform="matrix(0.35277776,0,0,-0.35277776,70.577182,75.918313)"
       clip-path="url(#clipPath561)" />
    <path
       id="path562"
       d="m 232.097,580.825 h 0.601 v -3.403 h -0.601 z"
       style="fill:#388941;fill-opacity:1;fill-rule:nonzero;stroke:none"
       transform="matrix(0.35277776,0,0,-0.35277776,-9.7066784,279.62012)"
       clip-path="url(#clipPath563)" />
    <path
       id="path564"
       d="M 0,0 V 3.516 H 0.063 L 2.257,1.239 V 3.403 H 2.84 V -0.109 H 2.776 L 0.578,2.164 V 0 Z"
       style="fill:#388941;fill-opacity:1;fill-rule:nonzero;stroke:none"
       transform="matrix(0.35277776,0,0,-0.35277776,72.994132,75.918313)"
       clip-path="url(#clipPath565)" />
    <path
       id="path566"
       d="M 0,0 H 1.116 L 0.563,1.27 Z M -0.501,-1.093 H -1.104 L 0.568,2.423 H 0.615 L 2.231,-1.093 H 1.602 l -0.275,0.608 h -1.548 z"
       style="fill:#388941;fill-opacity:1;fill-rule:nonzero;stroke:none"
       transform="matrix(0.35277776,0,0,-0.35277776,74.806811,75.532728)"
       clip-path="url(#clipPath567)" />
    <path
       id="path568"
       d="M 0,0 V 3.403 H 2.006 V 2.881 H 0.593 V 2.017 H 1.848 V 1.499 H 0.593 V 0 Z"
       style="fill:#388941;fill-opacity:1;fill-rule:nonzero;stroke:none"
       transform="matrix(0.35277776,0,0,-0.35277776,76.810977,75.918313)"
       clip-path="url(#clipPath569)" />
    <path
       id="path570"
       d="m 0,0 c 0,-0.352 0.103,-0.645 0.311,-0.881 0.206,-0.236 0.462,-0.353 0.765,-0.353 0.304,0 0.561,0.117 0.768,0.353 C 2.053,-0.645 2.156,-0.352 2.156,0 2.156,0.353 2.053,0.647 1.847,0.882 1.641,1.117 1.384,1.234 1.076,1.234 0.77,1.234 0.514,1.117 0.308,0.882 0.103,0.647 0,0.353 0,0 m -0.616,0 c 0,0.211 0.029,0.411 0.088,0.599 0.058,0.188 0.146,0.361 0.262,0.52 0.16,0.22 0.357,0.39 0.593,0.511 0.235,0.121 0.485,0.182 0.749,0.182 0.225,0 0.442,-0.045 0.651,-0.135 C 1.934,1.587 2.117,1.459 2.273,1.294 2.435,1.121 2.557,0.926 2.642,0.706 2.726,0.487 2.768,0.252 2.768,0 2.768,-0.252 2.726,-0.487 2.642,-0.706 2.557,-0.926 2.435,-1.119 2.273,-1.288 2.112,-1.456 1.928,-1.585 1.722,-1.676 1.516,-1.767 1.301,-1.812 1.076,-1.812 c -0.225,0 -0.44,0.045 -0.645,0.133 -0.205,0.09 -0.387,0.218 -0.546,0.385 -0.165,0.173 -0.29,0.368 -0.374,0.586 -0.085,0.219 -0.127,0.454 -0.127,0.708"
       style="fill:#388941;fill-opacity:1;fill-rule:nonzero;stroke:none"
       transform="matrix(0.35277776,0,0,-0.35277776,78.406732,75.317391)"
       clip-path="url(#clipPath571)" />
    <path
       id="path572"
       d="m 0,0 h 0.274 c 0.257,0 0.455,0.047 0.59,0.14 0.135,0.093 0.203,0.228 0.203,0.405 0,0.181 -0.069,0.313 -0.204,0.399 C 0.727,1.028 0.513,1.07 0.22,1.07 H 0 Z M -0.586,-1.848 V 1.555 H 0.201 C 0.482,1.555 0.699,1.536 0.853,1.5 1.007,1.463 1.144,1.403 1.265,1.32 1.39,1.231 1.487,1.123 1.558,0.996 1.628,0.87 1.664,0.735 1.664,0.593 1.664,0.368 1.599,0.176 1.471,0.012 1.343,-0.15 1.158,-0.272 0.916,-0.354 L 2.017,-1.848 H 1.32 L 0.288,-0.436 H 0 v -1.412 z"
       style="fill:#388941;fill-opacity:1;fill-rule:nonzero;stroke:none"
       transform="matrix(0.35277776,0,0,-0.35277776,80.349303,75.26638)"
       clip-path="url(#clipPath573)" />
    <path
       id="path574"
       d="M 0,0 V 3.403 H 1.983 V 2.881 H 0.582 V 2.04 H 1.784 V 1.521 H 0.582 V 0.53 H 2.006 V 0 Z"
       style="fill:#388941;fill-opacity:1;fill-rule:nonzero;stroke:none"
       transform="matrix(0.35277776,0,0,-0.35277776,81.760201,75.918313)"
       clip-path="url(#clipPath575)" />
    <path
       id="path576"
       d="m 0,0 c 0.184,-0.119 0.353,-0.207 0.507,-0.265 0.153,-0.056 0.299,-0.084 0.437,-0.084 0.178,0 0.323,0.044 0.434,0.133 0.111,0.088 0.167,0.203 0.167,0.345 0,0.117 -0.038,0.223 -0.112,0.316 C 1.359,0.538 1.229,0.641 1.045,0.75 L 0.79,0.905 C 0.53,1.058 0.345,1.21 0.236,1.357 0.127,1.505 0.072,1.674 0.072,1.865 c 0,0.267 0.095,0.483 0.287,0.65 0.19,0.166 0.439,0.25 0.746,0.25 0.149,0 0.293,-0.017 0.433,-0.051 C 1.678,2.68 1.819,2.628 1.962,2.558 L 1.943,2.017 C 1.774,2.109 1.625,2.177 1.496,2.22 1.367,2.262 1.252,2.284 1.15,2.284 0.994,2.284 0.871,2.249 0.781,2.18 0.692,2.11 0.647,2.014 0.647,1.894 0.647,1.8 0.68,1.715 0.746,1.639 0.81,1.562 0.932,1.471 1.111,1.366 L 1.357,1.223 C 1.641,1.054 1.844,0.886 1.964,0.718 2.086,0.551 2.146,0.36 2.146,0.144 c 0,-0.305 -0.107,-0.55 -0.321,-0.736 -0.214,-0.186 -0.498,-0.279 -0.853,-0.279 -0.164,0 -0.321,0.017 -0.475,0.05 -0.155,0.033 -0.303,0.084 -0.444,0.151 z"
       style="fill:#388941;fill-opacity:1;fill-rule:nonzero;stroke:none"
       transform="matrix(0.35277776,0,0,-0.35277776,83.184967,75.652002)"
       clip-path="url(#clipPath577)" />
    <path
       id="path578"
       d="M 0,0 V -2.885 H -0.601 V 0 H -1.75 V 0.518 H 1.142 V 0 Z"
       style="fill:#388941;fill-opacity:1;fill-rule:nonzero;stroke:none"
       transform="matrix(0.35277776,0,0,-0.35277776,85.188143,74.900654)"
       clip-path="url(#clipPath579)" />
    <path
       id="path580"
       d="m 0,0 h 0.274 c 0.258,0 0.455,0.047 0.59,0.14 0.135,0.093 0.203,0.228 0.203,0.405 0,0.181 -0.068,0.313 -0.204,0.399 C 0.727,1.028 0.513,1.07 0.221,1.07 H 0 Z M -0.586,-1.848 V 1.555 H 0.202 C 0.482,1.555 0.699,1.536 0.853,1.5 1.007,1.463 1.145,1.403 1.265,1.32 1.39,1.231 1.487,1.123 1.559,0.996 1.628,0.87 1.664,0.735 1.664,0.593 1.664,0.368 1.6,0.176 1.471,0.012 1.343,-0.15 1.158,-0.272 0.917,-0.354 l 1.1,-1.494 H 1.32 L 0.288,-0.436 H 0 v -1.412 z"
       style="fill:#388941;fill-opacity:1;fill-rule:nonzero;stroke:none"
       transform="matrix(0.35277776,0,0,-0.35277776,86.496984,75.26638)"
       clip-path="url(#clipPath581)" />
    <path
       id="path582"
       d="m 0,0 v 1.547 l -1.262,1.856 h 0.701 L 0.343,2.058 1.322,3.403 H 1.968 L 0.601,1.559 V 0 Z"
       style="fill:#388941;fill-opacity:1;fill-rule:nonzero;stroke:none"
       transform="matrix(0.35277776,0,0,-0.35277776,88.124878,75.918313)"
       clip-path="url(#clipPath583)" />
    <path
       id="path584"
       d="m 0,0 c -0.16,0.147 -0.325,0.257 -0.496,0.331 -0.171,0.072 -0.346,0.108 -0.527,0.108 -0.356,0 -0.645,-0.117 -0.867,-0.352 -0.222,-0.233 -0.333,-0.54 -0.333,-0.916 0,-0.373 0.111,-0.673 0.334,-0.904 0.222,-0.23 0.512,-0.344 0.873,-0.344 0.099,0 0.204,0.011 0.311,0.034 0.107,0.022 0.224,0.059 0.353,0.109 v 0.71 h -0.823 v 0.522 H 0.234 V -2.31 c -0.202,-0.114 -0.409,-0.198 -0.62,-0.255 -0.211,-0.058 -0.423,-0.087 -0.636,-0.087 -0.535,0 -0.972,0.17 -1.31,0.51 -0.338,0.339 -0.507,0.776 -0.507,1.308 0,0.531 0.171,0.966 0.512,1.309 0.341,0.342 0.776,0.513 1.303,0.513 0.188,0 0.371,-0.024 0.55,-0.071 C -0.296,0.87 -0.12,0.799 0.053,0.703 Z"
       style="fill:#388941;fill-opacity:1;fill-rule:nonzero;stroke:none"
       transform="matrix(0.35277776,0,0,-0.35277776,91.152346,75.023916)"
       clip-path="url(#clipPath585)" />
    <path
       id="path586"
       d="m 0,0 h 0.274 c 0.258,0 0.455,0.047 0.59,0.14 0.135,0.093 0.203,0.228 0.203,0.405 0,0.181 -0.068,0.313 -0.204,0.399 C 0.727,1.028 0.513,1.07 0.221,1.07 H 0 Z M -0.586,-1.848 V 1.555 H 0.202 C 0.482,1.555 0.699,1.536 0.853,1.5 1.007,1.463 1.145,1.403 1.265,1.32 1.39,1.231 1.487,1.123 1.559,0.996 1.628,0.87 1.664,0.735 1.664,0.593 1.664,0.368 1.6,0.176 1.471,0.012 1.343,-0.15 1.158,-0.272 0.916,-0.354 L 2.017,-1.848 H 1.32 L 0.288,-0.436 H 0 v -1.412 z"
       style="fill:#388941;fill-opacity:1;fill-rule:nonzero;stroke:none"
       transform="matrix(0.35277776,0,0,-0.35277776,92.02854,75.26638)"
       clip-path="url(#clipPath587)" />
    <path
       id="path588"
       d="m 0,0 c 0,-0.352 0.103,-0.645 0.311,-0.881 0.206,-0.236 0.462,-0.353 0.764,-0.353 0.305,0 0.562,0.117 0.769,0.353 C 2.052,-0.645 2.156,-0.352 2.156,0 2.156,0.353 2.053,0.647 1.847,0.882 1.64,1.117 1.383,1.234 1.075,1.234 0.769,1.234 0.514,1.117 0.308,0.882 0.102,0.647 0,0.353 0,0 m -0.616,0 c 0,0.211 0.029,0.411 0.088,0.599 0.058,0.188 0.146,0.361 0.261,0.52 0.16,0.22 0.358,0.39 0.593,0.511 0.236,0.121 0.485,0.182 0.75,0.182 0.225,0 0.442,-0.045 0.65,-0.135 C 1.934,1.587 2.117,1.459 2.273,1.294 2.434,1.121 2.557,0.926 2.641,0.706 2.726,0.487 2.768,0.252 2.768,0 2.768,-0.252 2.726,-0.487 2.641,-0.706 2.557,-0.926 2.434,-1.119 2.273,-1.288 2.112,-1.456 1.928,-1.585 1.721,-1.676 1.515,-1.767 1.3,-1.812 1.076,-1.812 c -0.225,0 -0.44,0.045 -0.645,0.133 -0.206,0.09 -0.388,0.218 -0.547,0.385 -0.165,0.173 -0.289,0.368 -0.373,0.586 -0.085,0.219 -0.127,0.454 -0.127,0.708"
       style="fill:#388941;fill-opacity:1;fill-rule:nonzero;stroke:none"
       transform="matrix(0.35277776,0,0,-0.35277776,93.369872,75.317391)"
       clip-path="url(#clipPath589)" />
    <path
       id="path590"
       d="m 0,0 v -1.984 c 0,-0.327 0.07,-0.574 0.208,-0.743 0.139,-0.167 0.345,-0.252 0.617,-0.252 0.269,0 0.473,0.086 0.61,0.256 0.138,0.171 0.207,0.421 0.207,0.753 V 0 h 0.537 v -1.979 c 0,-0.479 -0.122,-0.854 -0.367,-1.125 -0.244,-0.273 -0.577,-0.408 -0.999,-0.408 -0.452,0 -0.802,0.132 -1.048,0.395 -0.247,0.264 -0.37,0.64 -0.37,1.128 V 0 Z"
       style="fill:#388941;fill-opacity:1;fill-rule:nonzero;stroke:none"
       transform="matrix(0.35277776,0,0,-0.35277776,95.102046,74.717846)"
       clip-path="url(#clipPath591)" />
    <path
       id="path592"
       d="m 0,0 h 0.269 c 0.257,0 0.453,0.046 0.588,0.139 0.135,0.092 0.202,0.228 0.202,0.407 0,0.18 -0.067,0.312 -0.204,0.398 C 0.72,1.028 0.506,1.07 0.215,1.07 H 0 Z M -0.593,-1.829 V 1.574 H 0.196 C 0.465,1.574 0.679,1.555 0.838,1.517 0.996,1.478 1.136,1.416 1.258,1.33 1.383,1.239 1.481,1.127 1.551,0.993 1.622,0.859 1.656,0.717 1.656,0.569 1.656,0.235 1.533,-0.028 1.285,-0.218 1.038,-0.408 0.694,-0.503 0.255,-0.503 H 0.124 0 v -1.326 z"
       style="fill:#388941;fill-opacity:1;fill-rule:nonzero;stroke:none"
       transform="matrix(0.35277776,0,0,-0.35277776,96.701751,75.273047)"
       clip-path="url(#clipPath593)" />
    <path
       id="path594"
       d="m 0,0 c -0.152,-0.107 -0.315,-0.19 -0.488,-0.246 -0.174,-0.056 -0.352,-0.085 -0.536,-0.085 -0.194,0 -0.381,0.032 -0.562,0.095 -0.181,0.064 -0.347,0.156 -0.497,0.276 -0.211,0.17 -0.374,0.38 -0.487,0.628 -0.114,0.249 -0.17,0.519 -0.17,0.814 0,0.52 0.164,0.954 0.494,1.298 0.329,0.345 0.742,0.518 1.237,0.518 0.179,0 0.352,-0.026 0.517,-0.08 0.165,-0.053 0.326,-0.134 0.483,-0.242 L -0.07,2.31 C -0.207,2.456 -0.349,2.565 -0.498,2.638 -0.646,2.71 -0.804,2.746 -0.969,2.746 -1.307,2.746 -1.584,2.628 -1.8,2.393 -2.016,2.157 -2.124,1.855 -2.124,1.486 c 0,-0.358 0.105,-0.654 0.315,-0.886 0.211,-0.232 0.479,-0.348 0.804,-0.348 0.185,0 0.363,0.04 0.532,0.122 0.169,0.08 0.338,0.208 0.509,0.381 z"
       style="fill:#388941;fill-opacity:1;fill-rule:nonzero;stroke:none"
       transform="matrix(0.35277776,0,0,-0.35277776,99.492719,75.840137)"
       clip-path="url(#clipPath595)" />
    <path
       id="path596"
       d="m 0,0 c 0,-0.352 0.103,-0.645 0.311,-0.881 0.206,-0.236 0.462,-0.353 0.765,-0.353 0.304,0 0.561,0.117 0.768,0.353 C 2.052,-0.645 2.156,-0.352 2.156,0 2.156,0.353 2.053,0.647 1.847,0.882 1.641,1.117 1.383,1.234 1.076,1.234 0.769,1.234 0.514,1.117 0.308,0.882 0.102,0.647 0,0.353 0,0 m -0.616,0 c 0,0.211 0.029,0.411 0.088,0.599 0.058,0.188 0.146,0.361 0.261,0.52 0.16,0.22 0.358,0.39 0.593,0.511 0.236,0.121 0.485,0.182 0.75,0.182 0.225,0 0.442,-0.045 0.65,-0.135 C 1.934,1.587 2.117,1.459 2.273,1.294 2.434,1.121 2.557,0.926 2.642,0.706 2.726,0.487 2.768,0.252 2.768,0 2.768,-0.252 2.726,-0.487 2.642,-0.706 2.557,-0.926 2.434,-1.119 2.273,-1.288 2.112,-1.456 1.928,-1.585 1.721,-1.676 1.515,-1.767 1.3,-1.812 1.076,-1.812 c -0.225,0 -0.44,0.045 -0.645,0.133 -0.206,0.09 -0.388,0.218 -0.547,0.385 -0.165,0.173 -0.289,0.368 -0.373,0.586 -0.085,0.219 -0.127,0.454 -0.127,0.708"
       style="fill:#388941;fill-opacity:1;fill-rule:nonzero;stroke:none"
       transform="matrix(0.35277776,0,0,-0.35277776,100.21884,75.317391)"
       clip-path="url(#clipPath597)" />
    <path
       id="path598"
       d="m 0,0 h 0.274 c 0.258,0 0.455,0.047 0.59,0.14 0.135,0.093 0.203,0.228 0.203,0.405 0,0.181 -0.068,0.313 -0.204,0.399 C 0.727,1.028 0.513,1.07 0.221,1.07 H 0 Z M -0.586,-1.848 V 1.555 H 0.202 C 0.482,1.555 0.699,1.536 0.853,1.5 1.007,1.463 1.145,1.403 1.265,1.32 1.39,1.231 1.488,1.123 1.558,0.996 1.629,0.87 1.664,0.735 1.664,0.593 1.664,0.368 1.6,0.176 1.471,0.012 1.343,-0.15 1.158,-0.272 0.916,-0.354 L 2.017,-1.848 H 1.32 L 0.288,-0.436 H 0 v -1.412 z"
       style="fill:#388941;fill-opacity:1;fill-rule:nonzero;stroke:none"
       transform="matrix(0.35277776,0,0,-0.35277776,101.99148,75.26638)"
       clip-path="url(#clipPath599)" />
    <path
       id="path600"
       d="m 0,0 h 0.269 c 0.257,0 0.453,0.046 0.588,0.139 0.135,0.092 0.202,0.228 0.202,0.407 0,0.18 -0.067,0.312 -0.203,0.398 C 0.72,1.028 0.506,1.07 0.215,1.07 H 0 Z M -0.593,-1.829 V 1.574 H 0.196 C 0.465,1.574 0.679,1.555 0.838,1.517 0.996,1.478 1.136,1.416 1.258,1.33 1.383,1.239 1.481,1.127 1.551,0.993 1.622,0.859 1.657,0.717 1.657,0.569 1.657,0.235 1.533,-0.028 1.285,-0.218 1.038,-0.408 0.694,-0.503 0.255,-0.503 H 0.124 0 v -1.326 z"
       style="fill:#388941;fill-opacity:1;fill-rule:nonzero;stroke:none"
       transform="matrix(0.35277776,0,0,-0.35277776,103.44242,75.273047)"
       clip-path="url(#clipPath601)" />
    <path
       id="path602"
       d="m 0,0 c 0,-0.352 0.103,-0.645 0.311,-0.881 0.206,-0.236 0.462,-0.353 0.765,-0.353 0.304,0 0.561,0.117 0.768,0.353 C 2.052,-0.645 2.156,-0.352 2.156,0 2.156,0.353 2.053,0.647 1.847,0.882 1.64,1.117 1.383,1.234 1.076,1.234 0.769,1.234 0.514,1.117 0.308,0.882 0.102,0.647 0,0.353 0,0 m -0.616,0 c 0,0.211 0.029,0.411 0.088,0.599 0.058,0.188 0.146,0.361 0.261,0.52 0.16,0.22 0.358,0.39 0.593,0.511 0.235,0.121 0.485,0.182 0.75,0.182 0.225,0 0.442,-0.045 0.65,-0.135 C 1.934,1.587 2.117,1.459 2.273,1.294 2.434,1.121 2.557,0.926 2.641,0.706 2.726,0.487 2.768,0.252 2.768,0 2.768,-0.252 2.726,-0.487 2.641,-0.706 2.557,-0.926 2.434,-1.119 2.273,-1.288 2.112,-1.456 1.928,-1.585 1.721,-1.676 1.515,-1.767 1.3,-1.812 1.076,-1.812 c -0.225,0 -0.44,0.045 -0.645,0.133 -0.206,0.09 -0.388,0.218 -0.547,0.385 -0.165,0.173 -0.289,0.368 -0.373,0.586 -0.085,0.219 -0.127,0.454 -0.127,0.708"
       style="fill:#388941;fill-opacity:1;fill-rule:nonzero;stroke:none"
       transform="matrix(0.35277776,0,0,-0.35277776,104.72547,75.317391)"
       clip-path="url(#clipPath603)" />
    <path
       id="path604"
       d="m 0,0 h 0.274 c 0.258,0 0.455,0.047 0.59,0.14 0.135,0.093 0.203,0.228 0.203,0.405 0,0.181 -0.068,0.313 -0.204,0.399 C 0.727,1.028 0.513,1.07 0.221,1.07 H 0 Z M -0.586,-1.848 V 1.555 H 0.202 C 0.482,1.555 0.699,1.536 0.853,1.5 1.007,1.463 1.145,1.403 1.265,1.32 1.39,1.231 1.487,1.123 1.559,0.996 1.628,0.87 1.664,0.735 1.664,0.593 1.664,0.368 1.6,0.176 1.471,0.012 1.343,-0.15 1.158,-0.272 0.916,-0.354 L 2.017,-1.848 H 1.32 L 0.288,-0.436 H 0 v -1.412 z"
       style="fill:#388941;fill-opacity:1;fill-rule:nonzero;stroke:none"
       transform="matrix(0.35277776,0,0,-0.35277776,106.49839,75.26638)"
       clip-path="url(#clipPath605)" />
    <path
       id="path606"
       d="M 0,0 H 1.116 L 0.564,1.27 Z M -0.5,-1.093 H -1.104 L 0.568,2.423 H 0.615 L 2.231,-1.093 H 1.602 l -0.275,0.608 h -1.548 z"
       style="fill:#388941;fill-opacity:1;fill-rule:nonzero;stroke:none"
       transform="matrix(0.35277776,0,0,-0.35277776,107.94771,75.532728)"
       clip-path="url(#clipPath607)" />
    <path
       id="path608"
       d="M 0,0 V -2.885 H -0.601 V 0 H -1.75 V 0.518 H 1.142 V 0 Z"
       style="fill:#388941;fill-opacity:1;fill-rule:nonzero;stroke:none"
       transform="matrix(0.35277776,0,0,-0.35277776,109.57722,74.900654)"
       clip-path="url(#clipPath609)" />
    <path
       id="path610"
       d="m 340.779,580.825 h 0.601 v -3.403 h -0.601 z"
       style="fill:#388941;fill-opacity:1;fill-rule:nonzero;stroke:none"
       transform="matrix(0.35277776,0,0,-0.35277776,-9.7066784,279.62012)"
       clip-path="url(#clipPath611)" />
    <path
       id="path612"
       d="m 0,0 c 0,-0.352 0.103,-0.645 0.311,-0.881 0.206,-0.236 0.462,-0.353 0.765,-0.353 0.304,0 0.561,0.117 0.768,0.353 C 2.052,-0.645 2.156,-0.352 2.156,0 2.156,0.353 2.053,0.647 1.847,0.882 1.64,1.117 1.383,1.234 1.076,1.234 0.769,1.234 0.514,1.117 0.308,0.882 0.102,0.647 0,0.353 0,0 m -0.616,0 c 0,0.211 0.029,0.411 0.088,0.599 0.058,0.188 0.146,0.361 0.261,0.52 0.16,0.22 0.358,0.39 0.593,0.511 0.236,0.121 0.485,0.182 0.75,0.182 0.225,0 0.442,-0.045 0.65,-0.135 C 1.934,1.587 2.117,1.459 2.273,1.294 2.434,1.121 2.557,0.926 2.642,0.706 2.726,0.487 2.768,0.252 2.768,0 2.768,-0.252 2.726,-0.487 2.642,-0.706 2.557,-0.926 2.434,-1.119 2.273,-1.288 2.112,-1.456 1.928,-1.585 1.721,-1.676 1.515,-1.767 1.3,-1.812 1.076,-1.812 c -0.225,0 -0.44,0.045 -0.645,0.133 -0.206,0.09 -0.388,0.218 -0.547,0.385 -0.165,0.173 -0.289,0.368 -0.373,0.586 -0.085,0.219 -0.127,0.454 -0.127,0.708"
       style="fill:#388941;fill-opacity:1;fill-rule:nonzero;stroke:none"
       transform="matrix(0.35277776,0,0,-0.35277776,111.53637,75.317391)"
       clip-path="url(#clipPath613)" />
    <path
       id="path614"
       d="M 0,0 V 3.516 H 0.064 L 2.257,1.239 V 3.403 H 2.84 V -0.109 H 2.777 L 0.578,2.164 V 0 Z"
       style="fill:#388941;fill-opacity:1;fill-rule:nonzero;stroke:none"
       transform="matrix(0.35277776,0,0,-0.35277776,113.10225,75.918313)"
       clip-path="url(#clipPath615)" />
  </g>
</svg>
