<?xml version="1.0" encoding="utf-8"?>
<!-- Generator: Adobe Illustrator 28.0.0, SVG Export Plug-In . SVG Version: 6.00 Build 0)  -->
<svg version="1.1" id="svg1" xmlns:svg="http://www.w3.org/2000/svg"
	 xmlns="http://www.w3.org/2000/svg" xmlns:xlink="http://www.w3.org/1999/xlink" x="0px" y="0px" viewBox="0 0 39.1 39.1"
	 style="enable-background:new 0 0 39.1 39.1;" xml:space="preserve">
<style type="text/css">
	.st0{clip-path:url(#SVGID_00000043428656956077190580000009044378406433401741_);fill:#0D4D84;}
</style>
<g id="layer1" transform="translate(-105.58293,-173.97595)">
	<g>
		<defs>
			<rect id="SVGID_1_" x="-212.5" y="-515.9" width="1207.6" height="858.9"/>
		</defs>
		<clipPath id="SVGID_00000173153767758203764390000000103157376879578553_">
			<use xlink:href="#SVGID_1_"  style="overflow:visible;"/>
		</clipPath>
		<path id="path3325" style="clip-path:url(#SVGID_00000173153767758203764390000000103157376879578553_);fill:#0D4D84;" d="
			M144.7,193.5c0-10.8-8.8-19.6-19.6-19.6s-19.6,8.8-19.6,19.6s8.8,19.6,19.6,19.6S144.7,204.3,144.7,193.5 M143,190l1,1.1l-0.7,1.3
			l0.8,1.2l-0.8,1.2l0.7,1.3l-1,1.1l0.5,1.4l-1.1,0.9l0.3,1.4l-1.2,0.8l0.1,1.4l-1.3,0.6l-0.1,1.4l-1.4,0.4l-0.3,1.4l-1.4,0.3
			l-0.4,1.4l-1.4,0.1l-0.6,1.3l-1.4-0.1l-0.8,1.2l-1.4-0.3l-0.9,1.1l-1.4-0.5l-1.1,1l-1.3-0.7l-1.2,0.8l-1.2-0.8l-1.3,0.7l-1.1-1
			l-1.4,0.5l-0.9-1.1l-1.4,0.3l-0.8-1.2l-1.4,0.1l-0.6-1.3l-1.4-0.1l-0.4-1.4l-1.4-0.3l-0.3-1.4l-1.4-0.4l-0.1-1.4l-1.3-0.6l0.1-1.4
			l-1.2-0.8l0.3-1.4l-1.1-0.9l0.5-1.4l-1-1.1l0.7-1.3l-0.8-1.2l0.8-1.2l-0.7-1.3l1-1.1l-0.5-1.4l1.1-0.9l-0.3-1.4l1.2-0.8l-0.1-1.4
			l1.3-0.6l0.1-1.4l1.4-0.4l0.3-1.4l1.4-0.3l0.4-1.4l1.4-0.1l0.6-1.3l1.4,0.1l0.8-1.2l1.4,0.3l0.9-1.1l1.4,0.5l1.1-1l1.3,0.7
			l1.2-0.8l1.2,0.8l1.3-0.7l1.1,1l1.4-0.5l0.9,1.1l1.4-0.3l0.8,1.2l1.4-0.1l0.6,1.3l1.4,0.1l0.4,1.4l1.4,0.3l0.3,1.4l1.4,0.4
			l0.1,1.4l1.3,0.6l-0.1,1.4l1.2,0.8l-0.3,1.4l1.1,0.9L143,190z M143.4,191.1l-0.9-1l0.5-1.3l-1.1-0.9l0.3-1.4l-1.2-0.8l0.1-1.4
			l-1.3-0.6l-0.1-1.4l-1.3-0.4l-0.3-1.4l-1.4-0.3l-0.4-1.3l-1.4-0.1l-0.6-1.3l-1.4,0.1l-0.8-1.2l-1.4,0.3l-0.9-1.1l-1.3,0.5l-1-0.9
			l-1.3,0.6l-1.2-0.8l-1,0.7l-0.1,0.1l-1.3-0.6l-1,0.9l-1.3-0.5l-0.9,1.1l-1.4-0.3l-0.8,1.2l-1.4-0.1l-0.6,1.3l-1.4,0.1l-0.4,1.3
			l-1.4,0.3l-0.3,1.4l-1.3,0.4l-0.1,1.4l-1.3,0.6l0.1,1.4l-1.2,0.8l0.3,1.4l-1.1,0.9l0.5,1.3l-0.9,1l0.6,1.3l-0.8,1.2l0.8,1.2
			l-0.6,1.2l0.9,1l-0.5,1.3l1.1,0.9l-0.3,1.4l1.2,0.8l-0.1,1.4l1.3,0.6l0.1,1.4l1.3,0.4l0.3,1.4l1.4,0.3l0.4,1.3l1.4,0.1l0.6,1.3
			l1.4-0.1l0.8,1.2l1.4-0.3l0.9,1.1l1.3-0.5l1,0.9l1.3-0.6l1.2,0.8l1.2-0.8l1.3,0.6l1-0.9l1.3,0.5l0.9-1.1l1.4,0.3l0.8-1.2l1.4,0.1
			l0.6-1.3l1.4-0.1l0.4-1.3l1.4-0.3l0.3-1.4l1.3-0.4l0.1-1.4l1.3-0.6l-0.1-1.4l1.2-0.8l-0.3-1.4l1.1-0.9l-0.5-1.3l0.9-1l-0.6-1.3
			l0.8-1.2l-0.8-1.2L143.4,191.1z M142.3,193.5c0,9.5-7.7,17.1-17.1,17.1c-9.4,0-17.1-7.7-17.1-17.1c0-9.5,7.7-17.1,17.1-17.1
			C134.6,176.4,142.3,184.1,142.3,193.5 M137.4,201.7c0.5,0.3,0.9,0.4,1.2,0.4c0.1-0.1,0.1-0.2,0.2-0.3c-0.3,0-0.7-0.2-1.2-0.5
			c-0.5-0.3-0.8-0.7-1-1l0,0c-0.1,0.1-0.1,0.2-0.2,0.3C136.6,200.9,136.9,201.3,137.4,201.7 M137.9,200.3l1,1.3
			c0.1-0.2,0.2-0.3,0.3-0.5l0-0.1l-0.4-0.4c-0.1-0.1-0.2-0.2-0.4-0.3l0,0c0.2,0,0.3,0.1,0.5,0.1l0.6,0.1l0.1-0.1
			c0.1-0.2,0.1-0.3,0.2-0.5l-1.7-0.1l-0.9-0.5c-0.1,0.2-0.2,0.3-0.3,0.5L137.9,200.3z M139.4,199.4l0.5,0.2c0-0.1,0.1-0.2,0.1-0.3
			l0.3-0.9c0-0.1,0.1-0.2,0.1-0.3l-0.5-0.2l-0.2,0.5l-1.9-0.7c-0.1,0.2-0.1,0.4-0.2,0.5l1.9,0.7L139.4,199.4z M138.1,197l2.5,0.6
			l0.1-0.5l-2.5-0.6C138.1,196.6,138.1,196.8,138.1,197 M140.7,196.5c0.1-0.1,0.2-0.3,0.2-0.5c0.1-0.5-0.2-0.8-0.6-0.9
			c-0.4-0.1-0.6,0.1-0.8,0.5c-0.1,0.2-0.2,0.3-0.3,0.3c-0.1,0-0.2-0.1-0.2-0.3c0-0.2,0.1-0.4,0.2-0.5l-0.5-0.2
			c-0.1,0.1-0.2,0.3-0.2,0.6c-0.1,0.6,0.2,0.9,0.7,1c0.4,0.1,0.6-0.1,0.8-0.4c0.2-0.2,0.2-0.3,0.4-0.3c0.1,0,0.2,0.1,0.1,0.3
			c0,0.2-0.1,0.4-0.2,0.4L140.7,196.5z M140.9,194.4c0.1-0.1,0.2-0.2,0.2-0.4c0-0.2,0-0.2,0-0.3c0-0.2,0-0.4,0-0.5c0,0,0-0.1,0-0.1
			l-2.6,0c0,0.2,0,0.4,0,0.6l1,0l0,0.1c0,0.2-0.1,0.2-0.4,0.3c-0.3,0.1-0.5,0.1-0.6,0.1c0,0.2,0,0.4,0,0.6c0.1,0,0.5-0.1,0.7-0.2
			c0.2,0,0.4-0.1,0.5-0.3h0c0.1,0.2,0.3,0.4,0.6,0.4C140.6,194.6,140.8,194.6,140.9,194.4 M140.6,193.8c0,0.2-0.1,0.3-0.3,0.3
			c-0.2,0-0.3-0.1-0.3-0.3l0-0.1l0.6,0C140.6,193.6,140.6,193.7,140.6,193.8 M140.5,192.5l0.6-0.1c0-0.2,0-0.3,0-0.5l-0.1-0.5
			c0-0.1,0-0.3-0.1-0.4l-2.6,0.3c0.1,0.5,0.1,0.9,0.2,1.4l0.6-0.1l-0.1-0.8l0.5-0.1l0.1,0.7l0.6-0.1l-0.1-0.7l0.4,0L140.5,192.5z
			 M138.2,190.7l2.6,0c0-0.2-0.1-0.4-0.1-0.6l-1.1,0c-0.3,0-0.6,0-0.9,0l0,0c0.3-0.1,0.6-0.3,0.8-0.4l0.9-0.5l0,0
			c-0.1-0.2-0.1-0.4-0.2-0.5L138,190C138.1,190.3,138.2,190.5,138.2,190.7 M137.9,189.4l2.4-0.9c-0.1-0.2-0.1-0.4-0.2-0.5l-2.4,0.9
			C137.7,189,137.8,189.2,137.9,189.4 M137.6,188.6l2.3-1.1c-0.1-0.2-0.1-0.3-0.2-0.5l-0.6,0.3c-0.4,0.2-0.7,0.3-1,0.5l0,0
			c0.2-0.2,0.5-0.5,0.7-0.7l0.6-0.6c-0.1-0.2-0.2-0.4-0.3-0.6l-2.3,1.1c0.1,0.1,0.2,0.3,0.2,0.5l0.6-0.3c0.4-0.2,0.7-0.4,1.1-0.5
			l0,0c-0.2,0.2-0.5,0.5-0.7,0.7l-0.6,0.7C137.4,188.3,137.5,188.5,137.6,188.6 M137.7,186.2l1.1-0.8c-0.1-0.2-0.2-0.3-0.3-0.5l0,0
			l-1.2,0.8c-0.3,0.2-0.6,0.3-0.7,0.1c-0.1-0.2,0-0.4,0.3-0.6l1.2-0.8c-0.1-0.2-0.2-0.3-0.3-0.5l-1.1,0.8c-0.7,0.5-0.9,0.9-0.5,1.4
			C136.5,186.6,137.1,186.6,137.7,186.2 M136.4,183.2l0.4-0.3c0-0.1-0.1-0.3-0.3-0.5c-0.5-0.5-1.2-0.6-1.8,0.1
			c-0.3,0.3-0.4,0.5-0.4,0.8c0,0.3,0.1,0.6,0.4,0.9c0.2,0.2,0.5,0.3,0.6,0.4l1-1l-0.6-0.6l-0.4,0.4l0.2,0.2l-0.3,0.3
			c0,0-0.1-0.1-0.1-0.1c-0.2-0.2-0.2-0.6,0.1-1c0.4-0.4,0.7-0.3,1-0.1C136.3,182.9,136.4,183.1,136.4,183.2 M133.7,183.3l1.5-2.1
			c-0.1-0.1-0.3-0.2-0.4-0.3l-0.4,0.5c-0.2,0.3-0.4,0.6-0.6,0.9l0,0c0.1-0.3,0.2-0.7,0.3-0.9l0.2-0.8c-0.2-0.1-0.4-0.3-0.5-0.4
			l-1.5,2.1c0.1,0.1,0.3,0.2,0.4,0.3l0.4-0.5c0.2-0.3,0.5-0.7,0.7-1l0,0c-0.1,0.3-0.2,0.7-0.3,1l-0.2,0.9
			C133.4,183,133.6,183.2,133.7,183.3 M132.2,182.1l0.6-2.6c-0.2-0.1-0.4-0.2-0.7-0.3l-1.7,2c0.2,0.1,0.4,0.2,0.5,0.2l0.4-0.5
			l0.5,0.2l-0.2,0.6C131.8,181.9,132,182,132.2,182.1 M132.2,179.8c0,0.2-0.1,0.4-0.1,0.5l-0.1,0.5l-0.3-0.2l0.3-0.4
			C132,180.1,132.1,179.9,132.2,179.8L132.2,179.8z M130.5,180.1l1.2-1.2c-0.2-0.1-0.4-0.2-0.6-0.2l-0.4,0.5
			c-0.1,0.1-0.2,0.3-0.3,0.4l0,0c0-0.2,0-0.3,0-0.5l0-0.6l-0.1,0c-0.2-0.1-0.4-0.1-0.5-0.2l0.1,1.7l-0.4,1c0.2,0.1,0.4,0.1,0.5,0.2
			L130.5,180.1z M128.9,180.7l0.7-2.5c-0.2-0.1-0.4-0.1-0.5-0.1l-0.7,2.5C128.6,180.6,128.7,180.7,128.9,180.7 M128.5,178.5l0.1-0.6
			c-0.1,0-0.2-0.1-0.4-0.1l-0.6-0.1c-0.1,0-0.3,0-0.4-0.1l-0.4,2.5c0.5,0.1,0.9,0.1,1.4,0.2l0.1-0.5l-0.8-0.1l0.1-0.5l0.7,0.1
			l0.1-0.6l-0.7-0.1l0.1-0.4L128.5,178.5z M126.6,179.1c0.1-0.1,0.2-0.4,0.2-0.6c0-0.3-0.1-0.5-0.2-0.6c-0.1-0.1-0.3-0.2-0.6-0.2
			c-0.3,0-0.6,0-0.7,0l-0.1,2.6h0c0.2,0,0.4,0,0.5,0l0-0.9c0,0,0.1,0,0.1,0C126.2,179.4,126.4,179.3,126.6,179.1 M126.3,178.5
			c0,0.2-0.2,0.4-0.4,0.3c-0.1,0-0.1,0-0.1,0l0-0.7c0,0,0.1,0,0.2,0C126.2,178.1,126.3,178.3,126.3,178.5 M125,180.2
			c-0.2-0.3-0.3-0.7-0.3-1.3c0-0.5,0.1-0.9,0.2-1.2c-0.1,0-0.3,0-0.4,0c-0.1,0.3-0.2,0.7-0.2,1.3c0,0.6,0.2,1.1,0.4,1.3
			c0,0,0.1,0,0.1,0L125,180.2z M122.8,179.3l0.4-1.6c-0.2,0-0.4,0-0.5,0.1l-0.1,0l-0.1,0.6c0,0.2,0,0.3,0,0.5l0,0
			c-0.1-0.2-0.1-0.3-0.2-0.4l-0.3-0.5l-0.1,0c-0.2,0-0.3,0.1-0.5,0.1l0.9,1.4l0.2,1c0.2,0,0.4-0.1,0.5-0.1L122.8,179.3z
			 M121.3,180.7l-0.6-1.9l0.5-0.2l-0.2-0.5c-0.1,0-0.2,0.1-0.3,0.1l-0.9,0.3c-0.1,0-0.2,0.1-0.3,0.1l0.2,0.5l0.5-0.2l0.6,1.9
			C120.9,180.8,121.1,180.8,121.3,180.7 M120.1,181.2l-1-2.4l-0.5,0.2l1,2.4C119.8,181.3,119.9,181.2,120.1,181.2 M117.8,180
			c0.2-0.1,0.4-0.1,0.5-0.1l-0.2-0.5c-0.2,0-0.3,0-0.6,0.2c-0.5,0.3-0.6,0.7-0.3,1.1c0.2,0.3,0.5,0.4,0.9,0.4c0.3,0,0.4,0,0.4,0.1
			c0.1,0.1,0,0.2-0.2,0.3c-0.2,0.1-0.4,0.1-0.6,0.1l0.2,0.5c0.1,0,0.4,0,0.6-0.2c0.5-0.3,0.6-0.8,0.4-1.2c-0.2-0.3-0.4-0.4-0.8-0.4
			c-0.3,0-0.4,0-0.5-0.1C117.6,180.1,117.7,180,117.8,180 M116.9,181.5c0.1-0.2,0.1-0.5-0.1-0.7c-0.2-0.2-0.3-0.3-0.5-0.3
			c-0.1,0-0.3,0-0.4,0.1c-0.2,0.1-0.2,0.1-0.2,0.2c-0.1,0.1-0.3,0.2-0.4,0.3c0,0-0.1,0.1-0.1,0.1l1.5,2.1c0.1-0.1,0.3-0.2,0.4-0.3
			l-0.6-0.8l0.1-0.1c0.1-0.1,0.2-0.1,0.5,0.1c0.2,0.2,0.4,0.3,0.4,0.4c0.2-0.1,0.3-0.2,0.5-0.3c-0.1-0.1-0.4-0.3-0.6-0.5
			C117.3,181.6,117.1,181.5,116.9,181.5L116.9,181.5z M116.4,181.6l-0.1,0.1l-0.4-0.5c0,0,0.1-0.1,0.1-0.1c0.2-0.1,0.3-0.1,0.4,0.1
			C116.5,181.3,116.5,181.5,116.4,181.6 M114.5,182.5l0.6-0.6l-0.4-0.4c-0.1,0.1-0.3,0.2-0.4,0.3l-0.3,0.3c-0.1,0.1-0.2,0.2-0.3,0.3
			l1.8,1.9c0.3-0.3,0.7-0.7,1-1l-0.4-0.4l-0.6,0.6l-0.3-0.3l0.5-0.5l-0.4-0.4l-0.5,0.5L114.5,182.5z M115,184.8l-1.6-2.1
			c-0.1,0.1-0.3,0.3-0.4,0.4l0.7,0.8c0.2,0.2,0.4,0.5,0.6,0.7l0,0c-0.3-0.2-0.6-0.3-0.8-0.4l-0.9-0.5l0,0c-0.1,0.1-0.2,0.3-0.3,0.5
			l2.4,1.1C114.7,185.2,114.9,185,115,184.8 M114.2,185.9l-2.2-1.4c-0.1,0.2-0.2,0.3-0.3,0.5l2.2,1.4
			C114,186.2,114.1,186.1,114.2,185.9 M113.7,186.6l-2.3-1.2c-0.1,0.1-0.2,0.3-0.3,0.4l0.5,0.3c0.3,0.2,0.7,0.3,1,0.5l0,0
			c-0.3-0.1-0.7-0.1-1-0.1l-0.9-0.1c-0.1,0.2-0.2,0.4-0.3,0.6l2.3,1.2c0.1-0.2,0.1-0.3,0.2-0.5l-0.5-0.3c-0.4-0.2-0.7-0.4-1-0.5l0,0
			c0.3,0.1,0.7,0.1,1,0.1l0.9,0.1C113.5,186.9,113.6,186.7,113.7,186.6 M111.7,187.9l-1.3-0.4c-0.1,0.2-0.1,0.3-0.2,0.5l0,0l1.4,0.5
			c0.4,0.1,0.6,0.3,0.5,0.5c-0.1,0.2-0.3,0.2-0.7,0.1l-1.4-0.5c-0.1,0.2-0.1,0.4-0.2,0.5l1.3,0.4c0.8,0.3,1.3,0.1,1.5-0.4
			C112.7,188.6,112.5,188.2,111.7,187.9 M112.1,190.6l-2.6-0.4c0,0.2-0.1,0.3-0.1,0.5l0.6,0.1c0.4,0.1,0.8,0.1,1.1,0.1l0,0
			c-0.3,0-0.7,0.1-1,0.2l-0.8,0.2c0,0.2-0.1,0.4-0.1,0.7l2.6,0.4c0-0.2,0-0.3,0.1-0.5l-0.6-0.1c-0.4-0.1-0.8-0.1-1.2-0.2l0,0
			c0.3-0.1,0.7-0.1,1-0.2l0.9-0.2C112,191,112.1,190.8,112.1,190.6 M111.8,192.7l-2.6-0.1c0,0.2,0,0.4,0,0.6l2.6,0.1
			C111.8,193.1,111.8,192.9,111.8,192.7 M110.8,193.6l-1.6,0.1c0,0.2,0,0.4,0,0.6l1.6-0.1c0.4,0,0.5,0.1,0.5,0.3c0,0.1,0,0.2,0,0.2
			l0.6,0c0-0.1,0.1-0.3,0-0.4C111.8,193.8,111.5,193.6,110.8,193.6 M111.8,194.8l-2.6,0.4c0,0.2,0,0.3,0.1,0.5l0.6-0.1
			c0.4-0.1,0.7-0.1,1.1-0.2l0,0c-0.3,0.1-0.6,0.3-0.8,0.5l-0.7,0.5l0,0.1c0,0.2,0.1,0.4,0.1,0.6l2.6-0.4c0-0.2-0.1-0.3-0.1-0.5
			l-0.6,0.1c-0.4,0.1-0.8,0.1-1.2,0.2l0,0c0.3-0.2,0.6-0.3,0.9-0.5l0.8-0.5C111.9,195.2,111.9,195,111.8,194.8 M112.2,196.8
			l-2.3,1.4c0.1,0.2,0.2,0.5,0.2,0.7l2.7-0.2c-0.1-0.2-0.1-0.4-0.2-0.5l-0.6,0.1l-0.2-0.5l0.5-0.3
			C112.3,197.2,112.2,197,112.2,196.8 M111.5,198.3l-0.5,0.1c-0.2,0-0.4,0.1-0.5,0.1l0,0c0.1-0.1,0.3-0.2,0.5-0.3l0.4-0.2
			L111.5,198.3z M112.8,198.8l-2.4,1.1c0.1,0.2,0.2,0.3,0.2,0.5l2.4-1.1C113,199.1,112.9,199,112.8,198.8 M111.4,200.4l-0.5,0.3
			c0.2,0.5,0.5,1,0.8,1.4l0.5-0.3l-0.3-0.5l1.7-1c-0.1-0.2-0.2-0.3-0.3-0.5l-1.7,1L111.4,200.4z M115.3,205
			c-0.1,0.1,0.1,0.4,0.4,0.5c0.2,0.1,0.8-0.1,1-0.1c0.2-0.1,0.6-0.4,0.7-0.6c0.2-0.1,0.4-0.3,0.4-0.3s-0.3,0.6-0.4,1
			c-0.1,0.3-0.2,0.8,0,0.9c0.1,0.1,0.4,0.1,0.4,0.1c0.1,0,0.3,0.1,0.5,0.1c0.1,0,0.2-0.1,0.1-0.1c-0.1,0-0.1-0.1-0.2-0.1
			c-0.1-0.1-0.3-0.2-0.3-0.2c0,0,0-0.2,0-0.3c0-0.1,0-0.6,0-0.8c0-0.2,0.1-0.6,0.1-0.6s0.2,0,0.5,0c0.3,0,0.3,0,0.4,0
			c0,0,0.1-0.1,0-0.1c-0.1,0-0.3-0.2-0.3-0.2c0,0,0,0-0.1,0s-0.1-0.1-0.1-0.1s0,0,0-0.1c0,0,0-0.2,0-0.2c0.1,0.1,0.4,0.1,0.5,0.1
			c0.1,0,0.4,0,0.5,0c0.1,0,0.1,0.1,0.3,0c0.1-0.1,0,0,0.1-0.1c0.1-0.1,0.1-0.1,0-0.1c0-0.1-0.1-0.1-0.2-0.1c-0.1,0-0.2-0.1-0.2-0.1
			c0,0,0,0-0.2,0c-0.1,0-0.3-0.1-0.5-0.1c-0.2,0-0.2-0.1-0.3-0.1c0,0-0.1-0.1-0.1,0c-0.1,0,0,0.2,0,0.2c0,0.1,0,0.1,0,0.1
			c0,0.1,0,0.1,0,0.1s0,0-0.1-0.1c-0.1,0-0.1,0-0.1,0.1c0,0-0.1,0.2-0.2,0.2c0,0-0.1,0.1-0.1,0.2c0,0.1-0.2,0.2-0.2,0.2
			c-0.1,0-0.8-0.1-0.9-0.1c-0.1,0-0.2-0.2-0.2-0.2c-0.1,0-0.1,0.2-0.1,0.2c-0.1,0.2,0,0.3,0,0.3s0,0.1,0,0.2
			c0.1,0.1,0.3,0.2,0.5,0.1c0.2,0,0.5-0.2,0.5-0.2c-0.1,0.2-0.2,0.3-0.7,0.5c-0.4,0.3-0.7,0.1-0.8,0
			C115.6,205.1,115.4,205,115.3,205 M118,204.3C118.1,204.3,118.1,204.3,118,204.3c0.1,0,0.1-0.1,0.1-0.1c0.1,0,0.1,0.1,0.1,0.1
			C118.2,204.3,118,204.3,118,204.3 M120.9,207.9c0,0.1-0.1,0.2-0.1,0.2c0,0,0,0.1,0.1,0.1c0.2,0,0.2,0,0.3-0.2
			c0.1-0.1,0.2-0.2,0.3-0.3c0.1-0.1,0.1-0.1,0.1-0.2c0,0,0-0.1,0.1-0.2c0.1-0.1,0.1-0.3,0.2-0.4c0-0.1,0.1-0.1,0.1-0.2
			c0-0.1,0.1-0.1,0.2-0.1c0.1,0,0.3,0.1,0.3,0.1c0,0,0,0,0,0.1c0,0,0,0,0,0.1c0,0.1,0,0.1,0,0.1s-0.1,0-0.2,0.1c0,0,0,0.1,0,0.1
			c0.1,0,0.1,0.1,0.1,0.1s0,0.1,0,0.1c0,0,0,0,0,0.1c0,0-0.1,0-0.1,0c-0.1,0-0.1,0.1,0,0.2c0,0,0.1,0,0.1,0c0,0,0,0.1-0.1,0.1
			c0,0-0.1,0.1-0.2,0.1c-0.1,0-0.2,0.1-0.4,0c0,0-0.1,0-0.1,0.1c0,0,0,0.1,0,0.1c0,0,0,0,0,0c0,0,0.1,0.1,0.1,0.1c0,0,0,0.1,0.1,0.1
			c0.1,0,0.2-0.1,0.3,0c0.1,0,0,0.1,0,0.2c0,0-0.2,0.2-0.1,0.2c0,0.1,0,0.2,0,0.2c0,0,0.1,0.1,0.1,0.2c0,0.1,0.1,0.1,0.2,0.1
			c0.1,0,0.2-0.2,0.3-0.3c0.1-0.1,0.1-0.1,0.1-0.2c0-0.1,0.1-0.6,0.1-0.6c0,0,0.3,0,0.4,0c0.1,0,0.2,0,0.3-0.1c0.1,0,0.2,0,0.2,0
			c0,0,0.1,0,0.2-0.1c0.1,0,0.2,0,0.2-0.1c0,0,0.1-0.1,0.1-0.1c0,0,0-0.1,0-0.1c0,0-0.1,0-0.2-0.1c-0.1-0.1-0.2-0.1-0.3-0.1
			c0-0.1-0.3-0.2-0.3-0.2c0,0,0,0,0,0c0,0,0,0.1,0.1,0.2c0,0.1,0.1,0.3,0.1,0.3c-0.1,0-0.2,0-0.3,0c0,0-0.1,0-0.1,0c0,0-0.1,0-0.1,0
			c0,0-0.1,0-0.1,0c0,0-0.1,0-0.1-0.1c0-0.1,0-0.1,0-0.1c0.1,0,0.2-0.1,0.2-0.1c0-0.1,0-0.1,0-0.1c0,0-0.1,0.1-0.1-0.1c0,0,0,0,0,0
			c0,0,0.1,0,0.1,0c0,0,0,0,0.1,0c0.1,0,0.2,0,0.3-0.1c0,0,0-0.1,0-0.1c0,0,0-0.1,0-0.1s0,0-0.1,0c-0.1,0-0.3,0-0.3,0s0-0.1,0-0.1
			c0,0,0,0,0,0c0,0,0,0,0,0s0-0.1,0.1-0.2c0.1-0.1,0.6-0.2,0.7-0.2c0.2,0,0.4-0.1,0.5-0.1c0.1,0,0.1-0.1,0-0.1c0-0.1-0.1,0-0.1,0
			c0,0-0.1,0-0.2,0c-0.1,0-0.2,0-0.3,0c-0.1,0-0.3,0.1-0.3,0.1c-0.1,0-0.1,0-0.2,0c0,0,0,0,0-0.1c0-0.1,0.2-0.1,0.2-0.1
			c0,0,0.1,0,0.2-0.1c0.1,0,0.2-0.1,0.2-0.1c0.1,0,0.2-0.1,0.2-0.2c0,0,0.1,0,0.2-0.1c0.1-0.1,0-0.1,0-0.2c0-0.1-0.1-0.1-0.2-0.1
			c0,0-0.2,0-0.2,0c0,0,0,0-0.1,0.1c0,0-0.1,0-0.1,0c0,0,0-0.1,0-0.2c0-0.1-0.1-0.1-0.1-0.2c-0.1-0.1-0.2-0.2-0.3-0.3
			c-0.1,0-0.2,0.2-0.2,0.3c0,0.1-0.1,0.1-0.1,0.2c0,0.1,0,0.1-0.1,0.1c0,0,0,0.2-0.1,0.2c0,0.1-0.1,0.1-0.1,0.1s0,0-0.1,0.1
			c0,0-0.1,0.1-0.1,0.1c0,0,0.1,0,0.1,0s0,0.1,0,0.1c0,0,0,0.1,0,0.2c0,0.1,0,0.3-0.1,0.3c0,0.1-0.1,0-0.1,0c0,0-0.1,0-0.2,0
			c0,0,0,0,0-0.1c0-0.1,0-0.1-0.1-0.2c0,0-0.1-0.1-0.1-0.1c0,0-0.1-0.1-0.1-0.1c0,0,0-0.1,0-0.2c0,0,0.2-0.2,0.2-0.2
			c0,0,0.1,0,0.1,0c0,0,0,0,0.1,0c0,0,0.2,0.1,0.2,0c0,0,0,0,0.1-0.1c0,0,0-0.1,0-0.1c0-0.1-0.1-0.2-0.2-0.3
			c-0.1-0.1-0.1-0.1-0.1-0.1c0,0-0.1-0.1-0.2-0.1c0,0-0.1-0.1-0.2-0.1c-0.1,0,0,0.1,0,0.2c0.1,0.1,0,0.2,0,0.3c0,0,0,0,0,0.1
			c0,0.1,0.1,0.1,0,0.2c0,0.1-0.2,0.2-0.2,0.3c0,0-0.1,0-0.1,0c0,0.1-0.1,0.1-0.1,0.1c0,0,0,0.1,0,0.2c0,0.1,0,0.3,0,0.4
			c0,0.1-0.1,0.3-0.2,0.3c0,0.1-0.1,0.2-0.2,0.4c-0.1,0.2-0.2,0.2-0.2,0.2c0,0-0.1,0.1-0.1,0.1C120.9,207.8,120.9,207.8,120.9,207.9
			 M123.5,205.8c0-0.1,0.2-0.1,0.2-0.1C123.7,205.8,123.6,205.9,123.5,205.8c0.1,0.1,0.1,0.1,0,0.1c0,0-0.1,0-0.1,0
			S123.5,205.9,123.5,205.8 M121.5,207.3c0,0,0.1-0.1,0.1-0.2c0.1-0.1,0.2-0.2,0.2-0.2c0,0,0,0,0,0.1
			C121.8,207,121.5,207.3,121.5,207.3C121.5,207.4,121.5,207.4,121.5,207.3 M124.8,203.8l0.4,0.2l0.4-0.2c0.9-0.4,4.4-2.2,6.6-6.1
			c1-1.7,1.3-3.6,1.4-5.3v0h0l0-0.8c0,0-1-0.3-1.3-0.5c-0.4-0.3-0.6-0.6-0.4-1.1c0.2-0.4,1.4-0.8,1.4-0.8l-0.2-0.9
			c0-0.1,0-0.1,0-0.2l0,0c-0.5-2.1-1.2-3.5-1.2-3.5l-0.4-0.8l-0.8,0.3c-0.5,0.2-1,0.2-1.5,0.2c-1.8,0-3.4-1.5-3.5-1.5l-0.6-0.4
			l-0.6,0.4h0c-0.1,0.1-1.7,1.5-3.5,1.5c-0.5,0-1-0.1-1.5-0.2l-0.8-0.3l-0.4,0.8c0,0.1-0.7,1.5-1.2,3.7l-0.2,0.9
			c0,0,1.2,0.4,1.4,0.8c0.2,0.4,0.1,0.8-0.4,1.1c-0.3,0.2-1.3,0.5-1.3,0.5l0,0.8c0,1.7,0.4,3.6,1.4,5.3
			C120.4,201.6,123.9,203.4,124.8,203.8 M118.6,197.3c-0.9-1.6-1.3-3.4-1.3-5l0-0.4l0.3-0.1c0.5-0.2,0.8-0.4,1.1-0.7
			c0.2-0.3,0.4-0.6,0.4-0.8c0,0,0,0,0,0c0-0.2-0.1-0.5-0.3-0.7c-0.2-0.2-0.5-0.4-0.8-0.6l-0.3-0.2l0.1-0.4c0.5-2.1,1.2-3.6,1.2-3.6
			l0.2-0.4l0.4,0.1c0.6,0.2,1.1,0.3,1.6,0.3h0c2,0,3.6-1.5,3.8-1.6c0,0,0,0,0,0l0.3-0.2l0.3,0.2c0,0,0,0,0,0
			c0.2,0.1,1.8,1.6,3.8,1.6c0.5,0,1.1-0.1,1.6-0.3l0.4-0.1l0.2,0.4c0,0,0.6,1.3,1.1,3.3c0,0,0,0.1,0,0.1c0,0,0,0,0,0.1
			c0,0,0,0.1,0,0.1c0,0,0,0,0,0.1l0,0.2l0,0.2l-0.3,0.2c-0.3,0.2-0.6,0.4-0.8,0.6c-0.2,0.2-0.3,0.5-0.3,0.7c0,0,0,0,0,0
			c0,0.3,0.1,0.6,0.4,0.8c0.2,0.3,0.6,0.5,1.1,0.7l0.3,0.1l0,0.3l0,0.1c0,1.6-0.4,3.4-1.3,5c-2.1,3.8-5.5,5.5-6.3,5.9l-0.2,0.1
			l-0.2-0.1C124.1,202.8,120.7,201.1,118.6,197.3 M117.8,192.3c0,1.6,0.4,3.2,1.2,4.8c2,3.6,5.4,5.3,6.1,5.7c0,0,3.6-1.2,6.1-5.7
			c0.9-1.5,1.2-3.2,1.2-4.8c-1.1-0.4-1.8-1.2-1.7-2.1c0-0.7,0.6-1.3,1.3-1.7c-0.5-2-1.1-3.5-1.1-3.5c-3.1,1.1-5.9-1.4-5.9-1.4
			s-2.8,2.5-5.9,1.4c0,0-0.7,1.4-1.1,3.5c0.8,0.4,1.3,1,1.3,1.7C119.5,191.1,118.8,191.9,117.8,192.3 M124.2,191.8
			c0,0.1-0.1,0.3-0.2,0.3c0,0,0,0,0,0c-0.1,0-0.2-0.1-0.3-0.2c0,0,0,0,0,0c0,0,0,0,0,0c0,0,0-0.1,0-0.2c0-0.1,0-0.3-0.1-0.6
			c-0.1-0.5-0.2-1-0.3-1.6c-0.1-0.3-0.2-0.6-0.3-0.8c-0.1,0.5-0.1,1.1-0.1,1.9c0,1.2,0.2,2.8,0.7,4.6c0,0.1,0,0.3-0.2,0.3
			c0,0,0,0-0.1,0c-0.1,0-0.2-0.1-0.2-0.2c-0.5-1.9-0.6-3.4-0.7-4.7c0-2.5,0.5-3.8,0.5-3.9c0.1-0.1,0.2-0.2,0.3-0.1
			c0.1,0.1,0.2,0.2,0.1,0.3l0,0v0c0,0,0,0,0,0c0,0,0,0,0,0c0,0,0,0.1-0.1,0.2c0,0.1-0.1,0.4-0.2,0.7c0,0.1,0,0.1,0,0.2
			c0.1,0.1,0.2,0.2,0.3,0.3c0.1,0.2,0.2,0.4,0.3,0.6c0.2,0.4,0.3,0.9,0.4,1.3C124.1,191,124.2,191.8,124.2,191.8 M126,188.4
			c0,0.3,0,0.6-0.1,0.9c0,0.1-0.1,0.2-0.2,0.2c0,0,0,0,0,0c-0.1,0-0.2-0.2-0.2-0.3c0-0.3,0.1-0.5,0.1-0.8c0-0.4-0.1-0.9-0.3-1.5
			c0-0.1,0-0.3,0.2-0.3c0.1,0,0.3,0,0.3,0.2C125.9,187.3,126,187.9,126,188.4 M126.8,188.3c0,0.3,0,0.5-0.1,0.8
			c0,0.3-0.1,0.5-0.1,0.8c-0.1,0.5-0.2,1.1-0.2,1.9c0,0.8,0.1,1.9,0.3,3.3c0,0.1-0.1,0.3-0.2,0.3c0,0,0,0,0,0
			c-0.1,0-0.2-0.1-0.2-0.2c-0.2-1.5-0.3-2.5-0.3-3.4c0-0.8,0.1-1.5,0.2-2c0.1-0.3,0.1-0.6,0.1-0.8c0-0.2,0.1-0.5,0.1-0.7
			c0-0.4-0.1-0.9-0.3-1.5c0-0.1,0-0.3,0.2-0.3c0.1,0,0.3,0,0.3,0.2C126.7,187.3,126.8,187.9,126.8,188.3 M127.6,188.4
			c0,0.3,0,0.6-0.1,0.9c0,0.1-0.1,0.2-0.2,0.2c0,0,0,0,0,0c-0.1,0-0.2-0.2-0.2-0.3c0-0.3,0.1-0.5,0.1-0.8c0-0.4-0.1-0.9-0.3-1.5
			c0-0.1,0-0.3,0.2-0.3c0.1,0,0.3,0,0.3,0.2C127.5,187.3,127.6,187.9,127.6,188.4 M129.1,195.4c-0.1,0-0.3-0.1-0.3-0.3v-3.1H128
			c-0.1,0-0.3-0.1-0.3-0.3c0-0.1,0.1-0.3,0.3-0.3h0.8v-1H128c-0.1,0-0.3-0.1-0.3-0.3c0-0.1,0.1-0.3,0.3-0.3h0.8v-1H128
			c-0.1,0-0.3-0.1-0.3-0.3c0-0.1,0.1-0.3,0.3-0.3h0.3c0-0.1,0-0.2,0-0.2c0-0.4-0.1-0.8-0.3-1.5c0-0.1,0-0.3,0.2-0.3
			c0.1,0,0.3,0,0.3,0.2c0.2,0.7,0.3,1.2,0.3,1.7c0,0.1,0,0.2,0,0.2h0.4c0-0.1,0-0.2,0-0.2c0-0.5,0.1-1,0.3-1.7
			c0-0.1,0.2-0.2,0.3-0.2c0.1,0,0.2,0.2,0.2,0.3c-0.2,0.6-0.3,1.1-0.3,1.5c0,0.1,0,0.2,0,0.2h0.3c0.1,0,0.3,0.1,0.3,0.3
			c0,0.1-0.1,0.3-0.3,0.3h-0.8v1h0.8c0.1,0,0.3,0.1,0.3,0.3c0,0.1-0.1,0.3-0.3,0.3h-0.8v1h0.8c0.1,0,0.3,0.1,0.3,0.3
			c0,0.1-0.1,0.3-0.3,0.3h-0.8v3.1C129.3,195.3,129.2,195.4,129.1,195.4 M127.3,199.2c0-0.1,0.2-0.2,0.3-0.1c0.1,0,0.2,0,0.3,0
			c0,0,0,0,0.1,0c0.2,0,0.3,0,0.4-0.1c0.1-0.1,0.2-0.1,0.2-0.3c0,0,0,0,0-0.1c0-0.2-0.1-0.2-0.2-0.3c-0.1-0.1-0.3-0.1-0.5-0.1
			c-0.1,0-0.1,0-0.1,0v0c-0.1,0-0.1,0-0.2,0c-0.1,0-0.1-0.1-0.1-0.2l0-0.9c0-0.1,0.1-0.2,0.2-0.2h0.9c0.1,0,0.2,0.1,0.2,0.2
			c0,0.1-0.1,0.2-0.2,0.2H128l0,0.5c0.2,0,0.4,0,0.6,0.1c0.2,0.1,0.4,0.3,0.4,0.7c0,0,0,0.1,0,0.1c0,0.3-0.2,0.5-0.4,0.6
			c-0.2,0.1-0.4,0.2-0.7,0.2c0,0-0.1,0-0.1,0c-0.1,0-0.3,0-0.4-0.1C127.3,199.4,127.2,199.3,127.3,199.2 M127.2,194.5
			c-0.1,0-0.2-0.1-0.2-0.2c-0.1-1-0.2-1.8-0.2-2.5c0-0.5,0-0.9,0.1-1.2c0-0.1,0.1-0.2,0.3-0.2c0.1,0,0.2,0.1,0.2,0.3
			c0,0.3-0.1,0.7-0.1,1.1c0,0.7,0,1.5,0.2,2.5C127.4,194.4,127.3,194.5,127.2,194.5C127.2,194.5,127.2,194.5,127.2,194.5
			 M125.2,197.7c0-0.4,0.4-0.7,0.9-0.7c0.4,0,0.7,0.2,0.8,0.5c0,0,0,0,0,0c0,0,0.1,0.2,0.1,0.4c0,0.4-0.2,1.1-1.2,1.6
			c0,0-0.1,0-0.1,0c-0.1,0-0.2,0-0.2-0.1c-0.1-0.1,0-0.2,0.1-0.3c0.5-0.3,0.7-0.5,0.8-0.8c-0.1,0-0.2,0.1-0.4,0.1
			C125.6,198.4,125.2,198.1,125.2,197.7 M125.1,191.8c0-0.5,0-0.9,0.1-1.2c0-0.1,0.1-0.2,0.3-0.2c0.1,0,0.2,0.1,0.2,0.3
			c0,0.3-0.1,0.7-0.1,1.1c0,0.7,0,1.5,0.2,2.5c0,0.1-0.1,0.3-0.2,0.3c0,0,0,0,0,0c-0.1,0-0.2-0.1-0.2-0.2
			C125.1,193.3,125.1,192.5,125.1,191.8 M122.9,198.8c0-0.2,0.1-0.4,0.3-0.6l0,0c-0.2-0.1-0.3-0.3-0.3-0.5c0-0.2,0.1-0.4,0.3-0.5
			c0.2-0.1,0.4-0.2,0.6-0.2c0.2,0,0.5,0.1,0.6,0.2c0.2,0.1,0.3,0.3,0.3,0.5c0,0.2-0.1,0.4-0.3,0.5l0,0c0.2,0.1,0.3,0.3,0.3,0.6
			c0,0.2-0.1,0.4-0.3,0.6c-0.2,0.1-0.4,0.2-0.7,0.2c-0.3,0-0.5-0.1-0.7-0.2C123.1,199.2,122.9,199,122.9,198.8 M121.9,197.2
			c0-0.1,0.1-0.2,0.2-0.2c0.1,0,0.2,0.1,0.2,0.2v2.1c0,0.1-0.1,0.2-0.2,0.2c-0.1,0-0.2-0.1-0.2-0.2V197.2z M119.9,191.8
			c0,0,0-0.3,0.1-0.8c0.1-0.5,0.2-1.1,0.3-1.7c0.1-0.4,0.3-0.7,0.5-1c0.1-0.1,0.2-0.2,0.3-0.3c-0.1-0.7-0.3-1.1-0.3-1.1
			c-0.1-0.1,0-0.3,0.1-0.3c0.1-0.1,0.3,0,0.3,0.1c0,0,0.6,1.3,0.5,3.9c0,1.3-0.2,2.8-0.7,4.7c0,0.1-0.1,0.2-0.2,0.2c0,0,0,0-0.1,0
			c-0.1,0-0.2-0.2-0.2-0.3c0.5-1.8,0.6-3.4,0.7-4.6c0-0.7,0-1.3-0.1-1.9c-0.1,0.1-0.1,0.2-0.2,0.3c-0.1,0.3-0.3,0.7-0.3,1.1
			c-0.2,0.8-0.2,1.5-0.3,1.7c0,0,0,0,0,0c0,0.1-0.1,0.2-0.3,0.2c0,0,0,0,0,0C120,192,119.9,191.9,119.9,191.8 M123.5,198.5
			c-0.1,0.1-0.1,0.1-0.1,0.2c0,0.1,0,0.2,0.1,0.2c0.1,0.1,0.2,0.1,0.4,0.1c0.2,0,0.3,0,0.4-0.1c0.1-0.1,0.1-0.1,0.1-0.2
			c0-0.1,0-0.2-0.1-0.2c-0.1-0.1-0.2-0.1-0.4-0.1h0C123.7,198.4,123.6,198.5,123.5,198.5 M124.2,197.9c0.1-0.1,0.1-0.1,0.1-0.2
			c0-0.1,0-0.1-0.1-0.2c-0.1-0.1-0.2-0.1-0.4-0.1h0c-0.1,0-0.3,0-0.3,0.1c-0.1,0.1-0.1,0.1-0.1,0.2c0,0.1,0,0.1,0.1,0.2
			c0.1,0.1,0.2,0.1,0.3,0.1C124,198,124.2,198,124.2,197.9 M125.8,197.5c-0.1,0.1-0.1,0.1-0.1,0.2c0,0.1,0,0.2,0.1,0.2
			c0.1,0.1,0.2,0.1,0.3,0.1c0.1,0,0.2,0,0.3-0.1c0.1-0.1,0.1-0.1,0.1-0.2c0-0.1,0-0.2-0.1-0.2c-0.1-0.1-0.2-0.1-0.3-0.1h0
			C125.9,197.4,125.8,197.4,125.8,197.5 M127.2,207.8c0.1-0.1,0.2-0.2,0.3-0.3c0.1,0.3,0,0.5-0.2,0.7c-0.2,0.2-0.5,0.3-0.7,0.5l0,0
			l0,0c0,0,0,0,0,0.1l0,0l0,0c0.1,0,0.2,0,0.4,0c0,0,0.1,0,0.1,0c0.5-0.1,0.8-0.6,0.9-1c0-0.2,0-0.4,0-0.6c0.1-0.1,0.1-0.1,0.2-0.2
			l0,0l0,0c0.1-0.1,0.1-0.1,0.2-0.2l0,0l0,0c0.1-0.1,0.3-0.3,0.4-0.5l0,0v0c0,0,0,0,0,0c0-0.1-0.1-0.1-0.2-0.1c-0.1,0-0.2,0-0.3,0
			c0,0-0.2,0-0.2,0h0l0,0c0,0,0,0,0,0c0,0,0,0,0,0c0,0,0,0.1,0.1,0.1c0,0,0,0.1,0.1,0.1c0,0,0,0,0,0c0,0.1-0.1,0.2-0.2,0.3
			c0-0.4,0.1-0.7,0-1l0,0l0,0c-0.1-0.1-0.5-0.2-0.6-0.2l0,0l0,0c0,0,0,0,0,0c0,0,0,0,0,0l0,0v0c0,0,0,0.1,0,0.1
			c0,0.1,0.1,0.2,0.1,0.3c0,0,0,0.1,0,0.1c0,0.4,0.1,0.7,0.1,1.1c-0.2,0.2-0.4,0.4-0.6,0.5c-0.1,0.1-0.2,0.1-0.3,0.2c0,0,0,0,0,0v0
			l0,0l0,0c0.1,0.2,0.2,0.4,0.4,0.3c0,0,0,0,0,0C127,208,127.1,207.9,127.2,207.8 M128,207.3c0,0,0,0.1,0,0.1
			c0.1,0.2,0.4,0.5,0.5,0.6c0,0,0.1,0.1,0.1,0.1c0,0,0.1,0,0.1,0.1c0,0,0.1,0,0.1,0l0,0c0.2-0.1,0.3-0.3,0.4-0.3
			c0,0,0.1-0.1,0.1-0.1c0,0,0.1-0.1,0.1-0.1l0,0l0,0c-0.1,0-0.1,0-0.2,0v0l0,0c0,0-0.1,0-0.1,0c-0.1,0-0.2,0.1-0.2,0.1
			c-0.1,0-0.1,0-0.2,0c-0.1,0-0.1,0-0.2,0C128.3,207.5,128.2,207.4,128,207.3L128,207.3L128,207.3L128,207.3L128,207.3z M131.2,204
			L131.2,204L131.2,204c0.1,0.1,0.1,0.1,0.2,0.2c0.1,0.1,0.3,0.3,0.4,0.4c0,0,0,0,0,0c0,0,0,0.1,0.1,0.1c0,0.1,0,0.1,0,0.1v0l0,0
			c-0.2,0-0.3-0.1-0.5,0c0,0,0,0-0.1,0.1l0,0l0,0c0,0,0,0,0,0c0,0,0,0,0,0l0,0l0,0c0.1,0,0.4,0.2,0.5,0.3c0,0,0,0.1,0.1,0.1
			c0,0,0,0.1,0.1,0.1l0,0l0,0c0.1,0,0.1,0,0.2,0l0,0l0,0c0,0,0-0.1,0-0.1c0-0.1-0.1-0.3,0-0.4c0.1,0,0.1,0,0.2,0l0,0l0,0
			c0,0,0,0,0,0l0,0l0,0c0,0,0-0.1,0-0.1l0,0l0,0c0,0,0-0.1,0-0.1l0-0.1l0.1-0.3c0,0,0,0,0,0c0,0,0.1,0,0.1,0.1c0,0,0,0,0,0v0v0l0,0
			c0,0,0,0,0,0l0,0l0,0l0,0l0,0c0,0,0.1,0,0.1,0c0,0,0.1,0.1,0.1,0.1l0,0l0,0c0,0,0.1,0,0.1,0.1l0,0l0,0v0c0,0.1-0.1,0.3-0.2,0.4
			c0,0,0,0,0,0.1l0,0l0,0c-0.2,0.3-0.4,0.6-0.6,0.9c-0.1,0.1-0.3,0.3-0.2,0.5c0,0,0,0,0,0l0,0l0,0c0.1,0,0.2,0,0.3,0.1
			c0.1,0,0.1,0,0.2,0l0,0l0,0c0.1-0.2,0.1-0.3,0.1-0.3c0.1-0.3,0.3-0.6,0.5-0.8c0-0.1,0.1-0.1,0.1-0.2c0.1-0.1,0.2-0.2,0.3-0.3
			c0,0,0,0,0,0c0,0,0,0,0,0c0,0,0,0,0,0.1c0,0.1,0,0.1-0.1,0.2c0,0.1-0.1,0.2-0.1,0.4c0,0-0.1,0.1-0.1,0.2c0,0,0,0,0,0.1
			c0,0,0,0,0,0c0,0,0,0,0,0v0l0,0c0,0,0,0,0,0c0,0.1-0.1,0.2-0.2,0.2c-0.1,0.1-0.1,0.2-0.2,0.3c-0.1,0.2-0.4,0.3-0.4,0.5l0,0l0,0
			c0,0,0.1,0.1,0.2,0.1c0.1,0,0.2,0,0.3,0c0,0,0,0,0,0c0.1-0.1,0.1-0.2,0.2-0.3c0-0.1,0.2-0.3,0.3-0.4c0,0,0,0,0,0
			c0,0,0.1,0.1,0.1,0.1c0,0,0.1,0.1,0.1,0.1c0,0.1,0,0.1,0,0.2c0,0.1-0.1,0.2-0.2,0.3c0,0,0,0,0,0c-0.1,0-0.1,0.1-0.2,0.1
			c0,0,0,0-0.1,0c0,0,0,0,0,0v0l0,0l0,0c0.1,0,0.2-0.1,0.3-0.1c0.2,0,0.3,0,0.5,0l0,0h0c0,0,0,0,0,0h0c0,0,0,0,0,0
			c0.1-0.1,0.1-0.5-0.1-0.6c0,0,0,0,0-0.1c-0.1-0.1-0.2-0.2-0.2-0.3c0,0,0,0,0,0c0,0,0-0.1,0.1-0.1c0,0,0.1-0.1,0.1-0.1l0.2-0.1l0,0
			c0.1-0.1,0-0.2,0.1-0.3v0v0c0,0,0,0,0,0c0,0-0.1,0-0.1,0h0h0c-0.1,0-0.1,0-0.2,0.1c0,0-0.1,0-0.1,0.1c0,0-0.1,0.1-0.1,0.1
			l-0.3,0.2c0,0,0,0,0,0c0,0,0,0,0,0c0,0,0,0,0,0c0,0,0,0,0,0c0-0.1,0.2-0.2,0.2-0.3c0,0,0,0,0-0.1c0.1-0.1,0.1-0.3,0.1-0.4
			c0-0.1,0.1-0.2,0-0.3c0,0,0,0-0.1-0.1c-0.1,0-0.2,0-0.2,0c-0.1,0.1-0.2,0.2-0.2,0.2c0,0,0,0,0,0.1c-0.1,0.2-0.3,0.4-0.4,0.5
			c-0.1,0.1-0.1,0.1-0.2,0.2c0,0-0.1,0.2-0.2,0.2c0,0,0,0,0,0c0-0.1,0.1-0.2,0.1-0.3l0.2-0.3l0.3-0.5c0,0,0.1,0,0.1-0.1
			c0,0,0.1,0,0.1,0c0,0,0.1-0.1,0.1-0.1c0.2-0.3,0.1-0.6,0.1-0.9c0-0.1,0.1-0.5-0.1-0.6c0-0.1-0.1-0.1-0.1-0.1c-0.1,0-0.1,0-0.2,0.1
			l0,0l0,0c-0.1,0.1-0.2,0.5-0.4,0.7c0-0.1,0-0.2,0.1-0.3c0-0.1,0.1-0.3,0-0.4c0,0,0,0,0,0l0,0c0,0-0.1,0-0.1,0
			c-0.1,0-0.3,0-0.5,0.1l0,0l0,0c0,0.1,0.1,0.1,0.1,0.2l0,0l0,0.3c0,0.1,0,0.2,0,0.3s0,0.2-0.1,0.2c0,0-0.1,0-0.1,0c0,0,0,0,0,0
			c-0.1,0-0.2,0-0.4-0.1c-0.1,0-0.1,0-0.2,0C131.4,204,131.3,203.9,131.2,204L131.2,204L131.2,204z M132.9,204.3L132.9,204.3
			L132.9,204.3c0.1,0,0.1,0,0.1,0c0,0,0,0,0,0C133,204.4,133,204.4,132.9,204.3C133,204.4,132.9,204.4,132.9,204.3
			C132.9,204.4,132.9,204.3,132.9,204.3 M132.7,203.8L132.7,203.8c0-0.2,0.3-0.5,0.4-0.6c0,0,0,0,0,0c0,0,0,0,0,0c0,0,0,0,0.1,0.1
			c0,0,0,0.1,0,0.1c0,0.1,0,0.2,0,0.3l0,0l0,0c0,0.2,0.1,0.5-0.1,0.5c0,0,0,0,0,0c0,0-0.1-0.1-0.1-0.1l0,0l0,0c0,0-0.1,0-0.1,0
			c0,0-0.1,0-0.1-0.1C132.8,204,132.8,203.9,132.7,203.8C132.7,203.9,132.7,203.9,132.7,203.8L132.7,203.8L132.7,203.8L132.7,203.8
			C132.7,203.9,132.7,203.8,132.7,203.8L132.7,203.8z M132.1,204.3C132.1,204.3,132.1,204.2,132.1,204.3c0.1,0,0.1,0,0.2,0
			c0,0,0,0.1,0,0.1l0,0l0,0c0,0,0,0,0,0C132.2,204.4,132.1,204.3,132.1,204.3C132.1,204.3,132.1,204.3,132.1,204.3"/>
	</g>
</g>
</svg>
