<?xml version="1.0" encoding="utf-8"?>
<!-- Generator: Adobe Illustrator 28.0.0, SVG Export Plug-In . SVG Version: 6.00 Build 0)  -->
<svg version="1.1" id="svg1" xmlns:svg="http://www.w3.org/2000/svg"
	 xmlns="http://www.w3.org/2000/svg" xmlns:xlink="http://www.w3.org/1999/xlink" x="0px" y="0px" viewBox="0 0 155.4 22.7"
	 style="enable-background:new 0 0 155.4 22.7;" xml:space="preserve">
<style type="text/css">
	.st0{clip-path:url(#SVGID_00000183247879588700336770000012995466999059533745_);fill:#388941;}
	.st1{clip-path:url(#SVGID_00000054251449782644236330000003491835314115356052_);fill:#388941;}
	.st2{clip-path:url(#SVGID_00000074403337472319081300000015553994790586084029_);fill:#388941;}
	.st3{clip-path:url(#SVGID_00000155112272637919829830000014451724167612061067_);fill:#388941;}
	.st4{clip-path:url(#SVGID_00000024689393037836581280000015004118873396013722_);fill:#388941;}
	.st5{clip-path:url(#SVGID_00000031201283508579470740000012953798119094449026_);fill:#388941;}
	.st6{clip-path:url(#SVGID_00000101102104748273755550000014929748381381673134_);fill:#388941;}
	.st7{clip-path:url(#SVGID_00000143595789587480817900000006676270759625961394_);fill:#388941;}
	.st8{clip-path:url(#SVGID_00000082327340627472412870000004956577758608571293_);fill:#388941;}
	.st9{clip-path:url(#SVGID_00000132770070963775335170000007004029061451894428_);fill:#388941;}
	.st10{clip-path:url(#SVGID_00000070105657683922748490000012323965533853607833_);fill:#94969B;}
	.st11{clip-path:url(#SVGID_00000148656466432999916330000005280163504398598325_);fill:#94969B;}
	.st12{clip-path:url(#SVGID_00000061442985044926485550000001679592907038190503_);fill:#94969B;}
	.st13{fill:url(#path551_00000082328201980552752020000009049431356960440964_);}
	.st14{fill:url(#path554_00000036247933529075796740000016688140488128589225_);}
	.st15{fill:url(#path557_00000134945288133233985160000011002619760103376828_);}
	.st16{clip-path:url(#SVGID_00000165916349298533651810000001851258834394245033_);fill:#388941;}
	.st17{clip-path:url(#SVGID_00000137131277867657800680000002564284725643558546_);fill:#388941;}
	.st18{clip-path:url(#SVGID_00000076586671956823007930000015106257692835134105_);fill:#388941;}
	.st19{clip-path:url(#SVGID_00000122686737018773000540000010553215766959130246_);fill:#388941;}
	.st20{clip-path:url(#SVGID_00000000181036139794431070000015872930859137626009_);fill:#388941;}
	.st21{clip-path:url(#SVGID_00000137844088056577699940000008748271484802394036_);fill:#388941;}
	.st22{clip-path:url(#SVGID_00000067236155880611716710000008604903820721783725_);fill:#388941;}
	.st23{clip-path:url(#SVGID_00000148639291780072744220000002640396692101921982_);fill:#388941;}
	.st24{clip-path:url(#SVGID_00000181051245177073798340000006451235854295736723_);fill:#388941;}
	.st25{clip-path:url(#SVGID_00000008844501998621037610000016666670711660631213_);fill:#388941;}
	.st26{clip-path:url(#SVGID_00000030489196857087622210000011314890929751352250_);fill:#388941;}
	.st27{clip-path:url(#SVGID_00000177479333926652448990000013114788949124607898_);fill:#388941;}
	.st28{clip-path:url(#SVGID_00000031182266669288376580000004649682499640864406_);fill:#388941;}
	.st29{clip-path:url(#SVGID_00000034769328383325373830000000579542123475984574_);fill:#388941;}
	.st30{clip-path:url(#SVGID_00000005226027638860528080000014668124568226509994_);fill:#388941;}
	.st31{clip-path:url(#SVGID_00000031190259292931480680000016943078917892013226_);fill:#388941;}
	.st32{clip-path:url(#SVGID_00000103950133333910283590000009079528205864056193_);fill:#388941;}
	.st33{clip-path:url(#SVGID_00000183232204655522381900000001166150200535665802_);fill:#388941;}
	.st34{clip-path:url(#SVGID_00000160168845511581470210000010111258080413329292_);fill:#388941;}
	.st35{clip-path:url(#SVGID_00000149345946060602004060000006584724348964072638_);fill:#388941;}
	.st36{clip-path:url(#SVGID_00000070107647089778700860000017230543434888980381_);fill:#388941;}
	.st37{clip-path:url(#SVGID_00000083782289139760545130000000349640357941279126_);fill:#388941;}
	.st38{clip-path:url(#SVGID_00000132792884769233331930000012033741274212117925_);fill:#388941;}
	.st39{clip-path:url(#SVGID_00000070077190698583190380000012153532363378443140_);fill:#388941;}
	.st40{clip-path:url(#SVGID_00000175293031111297032410000013640334450120111807_);fill:#388941;}
	.st41{clip-path:url(#SVGID_00000052819219743732260860000010900516931341376949_);fill:#388941;}
	.st42{clip-path:url(#SVGID_00000080182859456927480660000009446131580600872832_);fill:#388941;}
	.st43{clip-path:url(#SVGID_00000125585104451247694100000004647733310278966712_);fill:#388941;}
	.st44{clip-path:url(#SVGID_00000116206299513477253240000017436967287606201231_);fill:#388941;}
</style>
<g id="layer1" transform="translate(-59.266667,-68.262506)">
	<g>
		<defs>
			<rect id="SVGID_1_" x="-136.2" y="-191.5" width="1207.6" height="858.9"/>
		</defs>
		<clipPath id="SVGID_00000163789776122502573770000012543399253130830482_">
			<use xlink:href="#SVGID_1_"  style="overflow:visible;"/>
		</clipPath>
		<path id="path524" style="clip-path:url(#SVGID_00000163789776122502573770000012543399253130830482_);fill:#388941;" d="
			M95.8,74.6h-2.7v2.2h2.7V74.6z M88.8,76.8h2.7v-2.2h-2.7V76.8z M87.2,78.5l0-1.5v-2.7l0-1.2l1.3,0h3v-0.8l0-1.5h1.7l0,1.5v0.8h3.1
			l1.3,0l0,1.2v2.7l0,1.5h-1.7l0-0.2h-2.7v2.5l0,1.4h-1.7l0-1.4v-2.5h-2.7l0,0.2L87.2,78.5z"/>
	</g>
	<g>
		<defs>
			<rect id="SVGID_00000081609008650302291470000007787105898013227693_" x="-136.2" y="-191.5" width="1207.6" height="858.9"/>
		</defs>
		<clipPath id="SVGID_00000118388460762274429080000009078754790558098873_">
			<use xlink:href="#SVGID_00000081609008650302291470000007787105898013227693_"  style="overflow:visible;"/>
		</clipPath>
		<path id="path526" style="clip-path:url(#SVGID_00000118388460762274429080000009078754790558098873_);fill:#388941;" d="
			M107.3,78.6c-0.1-0.1-0.2-0.2-0.3-0.3c-0.1-0.1-0.4-0.4-0.8-0.7c0.2-0.1,0.4-0.3,0.7-0.5h-0.8v1.6H107.3z M101.9,78.6l1.1,0h1.7
			V77h-1.2l-1,0v-1.3l1,0h1.2v-1.2h-1.6l-1,0v-1.3l1,0h4.5l1.1,0v1.3l-1.1-0.1h-1.6v1.2h1.5l0.8,0v1.3l-0.9,0
			c0.1,0.1,0.2,0.2,0.3,0.3l0.4,0.4l0.3,0.3c-0.2,0.2-0.4,0.4-0.6,0.6l0.9,0v1.3l-1.1,0H103l-1.1,0V78.6z M101.7,80.6h7.3v-7.9h-7.3
			V80.6z M100.2,71.3l1.2,0h7.8l1.2,0l0,1.3v8.1l0,1.4H109v-0.2h-7.3V82h-1.5l0-1.4v-8L100.2,71.3z"/>
	</g>
	<g>
		<defs>
			<rect id="SVGID_00000143601320306565555360000007115345338394660755_" x="-136.2" y="-191.5" width="1207.6" height="858.9"/>
		</defs>
		<clipPath id="SVGID_00000112609719992903418810000013927830319685904303_">
			<use xlink:href="#SVGID_00000143601320306565555360000007115345338394660755_"  style="overflow:visible;"/>
		</clipPath>
		<path id="path528" style="clip-path:url(#SVGID_00000112609719992903418810000013927830319685904303_);fill:#388941;" d="
			M119.1,74.7l-1,0v-1.5l1,0h0.9v-1.5l0-1h1.5l0,1v1.5h1.3l1.1,0v1.5l-1.1,0h-1.3c0.1,0.3,0.2,0.6,0.3,0.9c0.1,0.3,0.3,0.8,0.7,1.5
			c0.4,0.7,0.7,1.2,0.9,1.5c0.3,0.3,0.6,0.5,0.9,0.7c-0.3,0.5-0.5,0.9-0.6,1l-0.2,0.5c-0.5-0.4-0.9-0.8-1.2-1.2
			c-0.3-0.4-0.5-0.7-0.6-0.9l-0.3-0.6v3.3l0,1.1H120l0-1.1v-3.3c-0.3,0.5-0.6,0.9-1,1.3c-0.3,0.4-0.6,0.6-0.7,0.8l-0.7,0.6
			c-0.1-0.1-0.2-0.3-0.3-0.5c-0.1-0.2-0.3-0.5-0.7-0.9c0.4-0.2,0.7-0.4,1-0.6c0.3-0.2,0.6-0.6,0.9-1.1s0.6-0.9,0.8-1.3
			c0.2-0.4,0.3-0.7,0.4-1l0.2-0.7H119.1z M112.3,78.6c0.2-0.1,0.4-0.2,0.6-0.4c0.2-0.2,0.4-0.4,0.7-0.8c0.3-0.4,0.5-0.8,0.6-1.1
			c0.2-0.3,0.3-0.6,0.4-0.9l0.2-0.8h-1.4l-0.8,0v-1.5l0.7,0h1.5v-1.3l0-1.2h1.5l0,1.3v1.3h0.8l0.7,0v1.5l-0.7,0h-0.8l0,1.5
			c0.3-0.2,0.5-0.4,0.8-0.7c0.1,0.2,0.2,0.3,0.3,0.4l0.5,0.6c0.3,0.4,0.5,0.7,0.6,0.8c-0.2,0.2-0.4,0.4-0.6,0.6
			c-0.3,0.3-0.4,0.4-0.5,0.5c-0.1-0.2-0.2-0.4-0.3-0.7c-0.1-0.2-0.4-0.6-0.8-1.2v4.3l0,1.5h-1.5l0-1.5V78c-0.2,0.3-0.4,0.7-0.7,1
			c-0.3,0.4-0.6,0.8-1.1,1.3c-0.1-0.2-0.2-0.4-0.3-0.6C112.8,79.5,112.6,79.1,112.3,78.6"/>
	</g>
	<g>
		<defs>
			<rect id="SVGID_00000008120995987477522900000006160977110429434815_" x="-136.2" y="-191.5" width="1207.6" height="858.9"/>
		</defs>
		<clipPath id="SVGID_00000000901298235554424990000004186374497107189651_">
			<use xlink:href="#SVGID_00000008120995987477522900000006160977110429434815_"  style="overflow:visible;"/>
		</clipPath>
		<path id="path530" style="clip-path:url(#SVGID_00000000901298235554424990000004186374497107189651_);fill:#388941;" d="
			M126.9,81.6l-1.3,0v-1.5l1.3,0h2.2v-2.1c-0.5,0.2-0.8,0.4-1,0.5l-0.4,0.3c-0.4-1.3-0.7-2.3-0.9-2.9c-0.2-0.7-0.4-1.1-0.5-1.5
			l-0.4-1c0.5-0.2,0.8-0.3,1-0.4l0.4-0.2c0.1,0.3,0.3,0.8,0.6,1.5c0.3,0.7,0.4,1.1,0.5,1.4l0.3,1c0.2,0.5,0.3,0.8,0.3,0.9l0.1,0.4
			v-5.3l0-1.5h1.6l0,1.5v7.5h1.1v-7.5l0-1.5h1.6l0,1.5V78c0.1-0.3,0.2-0.5,0.3-0.7c0.1-0.2,0.2-0.5,0.4-0.9c0.2-0.4,0.3-0.8,0.5-1.3
			c0.2-0.5,0.3-1,0.3-1.3l0.2-0.8c0.4,0.1,1,0.3,1.6,0.4c-0.2,0.7-0.3,1.2-0.5,1.6c-0.1,0.4-0.3,0.9-0.5,1.4c-0.2,0.5-0.4,1-0.6,1.3
			c-0.2,0.4-0.4,0.9-0.8,1.5c-0.3-0.3-0.6-0.5-1-0.7v1.6h2.1l1.5,0v1.5l-1.5,0H126.9z"/>
	</g>
	<g>
		<defs>
			<rect id="SVGID_00000136401569800736142620000004459180897665934226_" x="-136.2" y="-191.5" width="1207.6" height="858.9"/>
		</defs>
		<clipPath id="SVGID_00000122694974314175975280000017402808810584193679_">
			<use xlink:href="#SVGID_00000136401569800736142620000004459180897665934226_"  style="overflow:visible;"/>
		</clipPath>
		<path id="path532" style="clip-path:url(#SVGID_00000122694974314175975280000017402808810584193679_);fill:#388941;" d="
			M141.9,76.7h2.1v-0.4h-2.1V76.7z M141.9,75.2h2.1v-0.4h-2.1V75.2z M144.1,73.4h-2.1v0.4h2.1V73.4z M142.6,71.1l0.4,0.2
			c-0.3,0.3-0.5,0.6-0.8,0.8l2,0c-0.2-0.3-0.4-0.7-0.6-1c0.1,0,0.3-0.1,0.4-0.1c0.1-0.1,0.4-0.2,0.7-0.4c0.1,0.2,0.2,0.3,0.2,0.4
			l0.4,0.7l0.2,0.4l-0.2,0.2h3l0.8,0v1.3l-1,0h-2.9v0.4h2.5l1,0v1.2l-1,0h-2.5v0.4h2.6l0.9,0v1.2l-0.9,0h-2.5v0.4h3.2l0.8,0v1.2
			l-1.1,0h-3.2v0.4h4l0.8,0v1.3l-0.8,0h-2.6c0.3,0.2,0.5,0.3,0.7,0.5c0.2,0.1,0.6,0.3,1.1,0.5s1,0.4,1.2,0.4l0.5,0.1
			c-0.1,0.2-0.2,0.3-0.4,0.5c-0.1,0.2-0.3,0.4-0.5,0.9c-0.8-0.3-1.5-0.5-2-0.8c-0.6-0.3-1.2-0.8-2-1.3v1.1l0,0.9h-1.5l0-1v-0.8
			c-0.9,0.6-1.6,1-2.2,1.2c-0.6,0.3-1.3,0.5-2,0.7c-0.1-0.2-0.2-0.4-0.2-0.5c-0.1-0.1-0.3-0.4-0.6-0.9c0.3,0,0.5,0,0.8-0.1
			c0.2,0,0.6-0.1,1.2-0.3c0.6-0.2,1-0.4,1.2-0.5l0.8-0.5h-3.2l-0.7,0v-1.3l0.7,0h4.2v-0.4h-1.9v0.2h-1.3l0-1v-3.3
			c-0.4,0.3-0.9,0.7-1.3,0.9c-0.2-0.5-0.4-0.8-0.5-1l-0.3-0.4c0.2-0.1,0.4-0.2,0.6-0.3c0.2-0.1,0.6-0.4,1.1-0.9s0.9-0.9,1.1-1.3
			l0.2-0.4C142.2,70.9,142.5,71.1,142.6,71.1"/>
	</g>
	<g>
		<defs>
			<rect id="SVGID_00000137826679015449409230000013904581621657182637_" x="-136.2" y="-191.5" width="1207.6" height="858.9"/>
		</defs>
		<clipPath id="SVGID_00000142167997812170012620000010475177797123908536_">
			<use xlink:href="#SVGID_00000137826679015449409230000013904581621657182637_"  style="overflow:visible;"/>
		</clipPath>
		<path id="path534" style="clip-path:url(#SVGID_00000142167997812170012620000010475177797123908536_);fill:#388941;" d="
			M154.9,77.8c0.4-0.3,0.8-1.1,1.3-2.1h-1.1l-1.3,0v-1.4l1.2,0h2.3v-0.4l0-1h1.5l0,1v0.4h0.9l1,0v1.4l-1,0h-0.9v3.8
			c0,0.2,0,0.4-0.1,0.5c-0.1,0.1-0.3,0.2-0.7,0.3c-0.4,0.1-0.9,0.1-1.4,0.1c0-0.1,0-0.2,0-0.3c0-0.1,0-0.3-0.1-0.4s-0.1-0.3-0.1-0.4
			l-0.1-0.3c0.4,0.1,0.6,0.1,0.7,0.1c0.3,0,0.4-0.1,0.4-0.3v-2.2c-0.4,0.7-0.8,1.3-1.2,1.8c-0.4,0.6-1,1.1-1.6,1.5
			c-0.2-0.4-0.3-0.6-0.5-0.8l-0.4-0.4C154.1,78.4,154.5,78.1,154.9,77.8 M153.6,80.6h7.3v-8h-7.3V80.6z M152.1,71.3l1.2,0h8.1l1.1,0
			l0,1.1v8.3l0,1.3h-1.5v-0.2h-7.3v0.2h-1.5l0-1.5l0-7.8L152.1,71.3z"/>
	</g>
	<g>
		<defs>
			<rect id="SVGID_00000183223072300955101670000006442341365152640677_" x="-136.2" y="-191.5" width="1207.6" height="858.9"/>
		</defs>
		<clipPath id="SVGID_00000083803145512207505350000005486844837382023808_">
			<use xlink:href="#SVGID_00000183223072300955101670000006442341365152640677_"  style="overflow:visible;"/>
		</clipPath>
		<path id="path536" style="clip-path:url(#SVGID_00000083803145512207505350000005486844837382023808_);fill:#388941;" d="
			M172.9,77.6l-4,0v0.7l4,0V77.6z M172.9,75.7h-4v0.7l4,0V75.7z M166.7,75.5c0.6-0.5,1.1-1.1,1.4-1.6l0.2-0.4h-2.7l-0.8,0v-1.5
			l0.8,0h3.3c0.2-0.4,0.2-0.7,0.3-0.8l0.1-0.6c0.6,0.1,0.9,0.2,1,0.2l0.6,0.1c-0.1,0.4-0.2,0.7-0.4,1.1h4.3l0.9,0v1.5l-1,0H170
			c-0.2,0.3-0.3,0.6-0.5,0.8h3.9l1,0l0,1.4v5.6c0,0.3-0.1,0.5-0.2,0.7c-0.1,0.2-0.8,0.3-2,0.4c-0.1-0.5-0.2-0.9-0.3-1.1l-0.2-0.5
			c0.5,0,0.8,0,0.9,0c0.3,0,0.4-0.1,0.4-0.3v-0.9h-4V81l0,1.3h-1.6l0-1.3l0-4.2c-0.1,0.1-0.3,0.3-0.4,0.4c-0.2,0.1-0.7,0.5-1.6,1
			c-0.3-0.5-0.5-0.8-0.6-1l-0.3-0.4C165.3,76.5,166.1,76,166.7,75.5"/>
	</g>
	<g>
		<defs>
			<rect id="SVGID_00000146477541376811714860000011369552919699161490_" x="-136.2" y="-191.5" width="1207.6" height="858.9"/>
		</defs>
		<clipPath id="SVGID_00000106108469990857535150000006262686602008266378_">
			<use xlink:href="#SVGID_00000146477541376811714860000011369552919699161490_"  style="overflow:visible;"/>
		</clipPath>
		<path id="path538" style="clip-path:url(#SVGID_00000106108469990857535150000006262686602008266378_);fill:#388941;" d="
			M183.9,75.3h2.8v-0.8h-2.8V75.3z M186.7,72.4h-2.8v0.8h2.8V72.4z M186.1,76.5c0,0.2,0.1,0.4,0.1,0.6c0,0.2,0.1,0.4,0.2,0.5
			l0.1,0.2c0.2-0.1,0.4-0.2,0.5-0.3c0.2-0.1,0.5-0.4,0.9-0.8c0.3,0.3,0.6,0.7,0.9,1.1c-0.1,0.1-0.3,0.2-0.5,0.4
			c-0.2,0.1-0.6,0.4-1.3,0.8c0.1,0.2,0.2,0.4,0.3,0.5c0.1,0.2,0.3,0.3,0.6,0.6c0.3,0.2,0.5,0.4,0.7,0.4l0.4,0.1
			c-0.1,0.1-0.2,0.3-0.3,0.4c-0.1,0.1-0.3,0.5-0.5,1c-0.4-0.2-0.7-0.4-1-0.6c-0.3-0.2-0.5-0.5-0.8-0.8c-0.3-0.3-0.5-0.7-0.8-1
			c-0.2-0.3-0.4-0.8-0.6-1.3c-0.2-0.5-0.3-0.9-0.4-1l-0.1-0.6c0.3,0,0.4-0.1,0.5-0.1l0.5-0.2h-1.8v3.3c0.4-0.3,0.7-0.4,0.8-0.5
			l0.6-0.5c0.2,0.5,0.3,0.9,0.4,1l0.1,0.3c-0.3,0.3-0.8,0.6-1.3,1c-0.5,0.4-0.8,0.7-1,0.8l-0.4,0.4c-0.3-0.6-0.5-0.9-0.5-1l-0.3-0.5
			c0.1-0.1,0.2-0.1,0.2-0.2c0-0.1,0.1-0.1,0.1-0.3c0-0.1,0-0.2,0-0.3v-7.3l0-1.7l1.2,0h3l1.2,0l0,1.2v2.9l0,1.4l-1.1,0L186.1,76.5z
			 M180.3,78c0.2,0,0.4-0.2,0.5-0.4c0.1-0.2,0.2-0.5,0.1-0.8c-0.1-0.4-0.3-0.8-0.6-1.1l-0.5-0.5v-0.8c0.1-0.4,0.2-0.6,0.3-0.7
			l0.5-1.5h-1v8.2l0,1.4h-1.5l0-1.4v-8.2l0-1.3l1.2,0h2.6l0.4,0.7c-0.5,1.1-0.9,2.1-1.3,3c0.2,0.1,0.3,0.3,0.5,0.5
			c0.2,0.2,0.4,0.5,0.5,0.8c0.2,0.4,0.3,0.8,0.3,1.2s-0.1,0.8-0.3,1.1c-0.2,0.3-0.4,0.6-0.7,0.8c-0.3,0.2-0.7,0.3-1.3,0.4
			c-0.1-0.5-0.2-0.8-0.3-1l-0.2-0.5C179.9,78.1,180.1,78.1,180.3,78"/>
	</g>
	<g>
		<defs>
			<rect id="SVGID_00000163755305132542005100000003307041550066260650_" x="-136.2" y="-191.5" width="1207.6" height="858.9"/>
		</defs>
		<clipPath id="SVGID_00000066503301214073866670000011937193448638570407_">
			<use xlink:href="#SVGID_00000163755305132542005100000003307041550066260650_"  style="overflow:visible;"/>
		</clipPath>
		<path id="path540" style="clip-path:url(#SVGID_00000066503301214073866670000011937193448638570407_);fill:#388941;" d="
			M196.9,71.1c0.5,0.1,1.1,0.1,1.6,0.1c0,0.2,0,0.3,0,0.5s0,0.3,0.1,0.5c0,0.2,0.1,0.6,0.3,1.1c0.2,0.5,0.5,0.9,0.8,1.2
			c0.4,0.3,0.6,0.6,0.9,0.7c0.2,0.2,0.4,0.3,0.6,0.3c0.2,0.1,0.5,0.2,1,0.3c-0.1,0.1-0.2,0.3-0.3,0.4c-0.1,0.1-0.3,0.5-0.6,1.2
			c-0.7-0.3-1.2-0.7-1.8-1.1c-0.5-0.4-0.9-0.9-1.2-1.3c-0.3-0.4-0.5-0.9-0.7-1.3c-0.2-0.4-0.3-0.8-0.4-1.1
			C197.1,72.3,197,71.8,196.9,71.1 M192.7,79.5c0.2-0.2,0.4-0.4,0.7-0.7c0.3-0.3,0.6-0.7,0.9-1.1c0.3-0.4,0.6-0.8,0.8-1.3
			c0.2-0.5,0.4-0.8,0.4-0.9l0.1-0.3c0.5,0.4,1,0.7,1.6,1c-0.2,0.2-0.3,0.4-0.4,0.5l-0.6,0.9c-0.3,0.4-0.6,0.8-0.9,1.2
			c-0.3,0.4-0.7,0.8-1.2,1.3c1.5,0,3.1-0.1,4.5-0.2c-0.4-0.5-0.6-0.9-0.7-1l-0.5-0.6c0.6-0.2,1-0.4,1.1-0.5l0.2-0.2
			c1.1,1.5,2,2.7,2.6,3.6c-0.7,0.5-1,0.8-1.1,0.8l-0.3,0.3c-0.1-0.2-0.1-0.3-0.2-0.4c-0.1-0.1-0.2-0.4-0.4-0.7
			c-0.8,0-1.8,0.1-3.2,0.2c-1.4,0.1-2.3,0.2-2.6,0.2c-0.3,0-0.7,0.1-1.1,0.2c-0.2-0.6-0.3-1-0.5-1.2l-0.2-0.4
			C192.2,79.9,192.5,79.7,192.7,79.5 M191.6,77.2c-0.4-0.5-0.7-0.9-0.9-1.1l-0.3-0.3c0.5-0.2,1-0.5,1.5-1c0.5-0.5,1-1,1.4-1.5
			c0.4-0.5,0.7-1.1,0.9-1.7l0.1-0.4c0.5,0.3,1,0.5,1.5,0.7c-0.5,0.8-0.8,1.4-1.2,1.9c-0.3,0.5-0.8,1.1-1.4,1.7
			C192.7,76.3,192.1,76.8,191.6,77.2"/>
	</g>
	<g>
		<defs>
			<rect id="SVGID_00000073696535181952800130000002214509159918885823_" x="-136.2" y="-191.5" width="1207.6" height="858.9"/>
		</defs>
		<clipPath id="SVGID_00000146486484884379670150000002593677079077875614_">
			<use xlink:href="#SVGID_00000073696535181952800130000002214509159918885823_"  style="overflow:visible;"/>
		</clipPath>
		<path id="path542" style="clip-path:url(#SVGID_00000146486484884379670150000002593677079077875614_);fill:#388941;" d="
			M209.8,77.4h-3.2V79h3.2V77.4z M205.1,76.1l1.2,0h3.6l1.3,0l0,1.1v2.1l0,1.2l-1.3,0h-3.6l-1.2,0l0.1-1.2v-2.1L205.1,76.1z
			 M204.5,72.8v-1.4l1.6,0h7l1.4,0l0,1.3v8.2c0,0.4,0,0.6-0.1,0.7c-0.1,0.1-0.2,0.3-0.5,0.4c-0.3,0.2-0.9,0.3-1.9,0.3
			c0-0.2,0-0.4-0.1-0.6c0-0.2-0.1-0.4-0.2-0.7l-0.2-0.4c0.2,0,0.4,0,0.6,0c0.2,0,0.4,0,0.5,0c0.2,0,0.4,0,0.5-0.1
			c0.1-0.1,0.1-0.2,0.1-0.5v-7.4H206L204.5,72.8z M212.1,73.9v1.4l-1.5,0h-5.1l-1.4,0v-1.4l1.4,0h5.1L212.1,73.9z"/>
	</g>
	<g>
		<defs>
			<rect id="SVGID_00000051357121797514898590000012398526596378755471_" x="-136.2" y="-191.5" width="1207.6" height="858.9"/>
		</defs>
		<clipPath id="SVGID_00000118361913736741699550000009894498248895048886_">
			<use xlink:href="#SVGID_00000051357121797514898590000012398526596378755471_"  style="overflow:visible;"/>
		</clipPath>
		<path id="path544" style="clip-path:url(#SVGID_00000118361913736741699550000009894498248895048886_);fill:#94969B;" d="
			M65.5,90.9h11.4l-5.5-7.3L65.5,90.9z"/>
	</g>
	<g>
		<defs>
			<rect id="SVGID_00000047051702134324782470000016232660479352040119_" x="-136.2" y="-191.5" width="1207.6" height="858.9"/>
		</defs>
		<clipPath id="SVGID_00000024687033105568926360000005788147981700201360_">
			<use xlink:href="#SVGID_00000047051702134324782470000016232660479352040119_"  style="overflow:visible;"/>
		</clipPath>
		<path id="path546" style="clip-path:url(#SVGID_00000024687033105568926360000005788147981700201360_);fill:#94969B;" d="
			M82.7,90.7l0-4.2c0,0-2.6,1.3-11.4-10.4c0,0-5.5,9.1-11.3,10.4v4.2c0,0,8.8-4.3,11.4-8.5C71.3,82.2,75.9,88.3,82.7,90.7"/>
	</g>
	<g>
		<defs>
			<rect id="SVGID_00000136391486676502314780000008783063156130581179_" x="-136.2" y="-191.5" width="1207.6" height="858.9"/>
		</defs>
		<clipPath id="SVGID_00000126320234245701388970000004080017583608820157_">
			<use xlink:href="#SVGID_00000136391486676502314780000008783063156130581179_"  style="overflow:visible;"/>
		</clipPath>
		<path id="path548" style="clip-path:url(#SVGID_00000126320234245701388970000004080017583608820157_);fill:#94969B;" d="
			M82.5,83.2v-6.6c0,0-3.2,2.4-11.2-7.6c0,0-6.4,9.5-11.6,7.6v6.6c0,0,3.6,1.2,11.6-9.2C71.3,74,77.2,82.6,82.5,83.2"/>
	</g>
	
		<linearGradient id="path551_00000116211148326022304900000008509329167478226861_" gradientUnits="userSpaceOnUse" x1="-749.4801" y1="740.8213" x2="-748.4802" y2="740.8213" gradientTransform="matrix(0 7.3076 7.3076 0 -5342.9922 5559.8193)">
		<stop  offset="0" style="stop-color:#71CC81"/>
		<stop  offset="0.5536" style="stop-color:#38833F"/>
		<stop  offset="1" style="stop-color:#38833F"/>
	</linearGradient>
	<path id="path551" style="fill:url(#path551_00000116211148326022304900000008509329167478226861_);" d="M65,90.2h11.4l-5.5-7.3
		L65,90.2z"/>
	
		<linearGradient id="path554_00000110441233557852952170000002589495889414171288_" gradientUnits="userSpaceOnUse" x1="-785.4993" y1="680.7213" x2="-784.4993" y2="680.7213" gradientTransform="matrix(0 14.5719 14.5719 0 -9848.583 11521.6006)">
		<stop  offset="0" style="stop-color:#71CC81"/>
		<stop  offset="0.5536" style="stop-color:#38833F"/>
		<stop  offset="1" style="stop-color:#38833F"/>
	</linearGradient>
	<path id="path554" style="fill:url(#path554_00000110441233557852952170000002589495889414171288_);" d="M59.5,85.8V90
		c0,0,8.8-4.3,11.4-8.5l0,0c0,0,4.6,6.1,11.4,8.5l0,0l0-4.2c0,0-2.6,1.3-11.4-10.4l0,0C70.8,75.4,65.3,84.4,59.5,85.8"/>
	
		<linearGradient id="path557_00000152947007417883679470000007301929074969190298_" gradientUnits="userSpaceOnUse" x1="-784.5571" y1="682.2935" x2="-783.557" y2="682.2935" gradientTransform="matrix(0 14.2026 14.2026 0 -9619.6934 11211.0078)">
		<stop  offset="0" style="stop-color:#71CC81"/>
		<stop  offset="0.5536" style="stop-color:#38833F"/>
		<stop  offset="1" style="stop-color:#38833F"/>
	</linearGradient>
	<path id="path557" style="fill:url(#path557_00000152947007417883679470000007301929074969190298_);" d="M59.3,75.8v6.6
		c0,0,3.6,1.2,11.6-9.2l0,0c0,0,5.8,8.6,11.2,9.2l0,0v-6.6c0,0-3.2,2.4-11.2-7.6l0,0C70.8,68.3,64.5,77.8,59.3,75.8"/>
	<g>
		<defs>
			<rect id="SVGID_00000049934369842809997580000013409667165754784171_" x="-136.2" y="-191.5" width="1207.6" height="858.9"/>
		</defs>
		<clipPath id="SVGID_00000068664588042482229180000011632348298002169479_">
			<use xlink:href="#SVGID_00000049934369842809997580000013409667165754784171_"  style="overflow:visible;"/>
		</clipPath>
		<path id="path558" style="clip-path:url(#SVGID_00000068664588042482229180000011632348298002169479_);fill:#388941;" d="
			M89.8,89.7c-0.2,0.1-0.3,0.2-0.5,0.2c-0.2,0.1-0.4,0.1-0.5,0.1c-0.2,0-0.4,0-0.6-0.1c-0.2-0.1-0.3-0.2-0.5-0.3
			c-0.2-0.2-0.4-0.4-0.5-0.6c-0.1-0.2-0.2-0.5-0.2-0.8c0-0.5,0.2-1,0.5-1.3c0.3-0.3,0.7-0.5,1.2-0.5c0.2,0,0.4,0,0.5,0.1
			c0.2,0.1,0.3,0.1,0.5,0.2l-0.1,0.7c-0.1-0.1-0.3-0.3-0.4-0.3C89.2,87,89,87,88.9,87c-0.3,0-0.6,0.1-0.8,0.4
			c-0.2,0.2-0.3,0.5-0.3,0.9c0,0.4,0.1,0.7,0.3,0.9c0.2,0.2,0.5,0.3,0.8,0.3c0.2,0,0.4,0,0.5-0.1c0.2-0.1,0.3-0.2,0.5-0.4L89.8,89.7
			z"/>
	</g>
	<g>
		<defs>
			<rect id="SVGID_00000073681492735392687000000009283907983740360344_" x="-136.2" y="-191.5" width="1207.6" height="858.9"/>
		</defs>
		<clipPath id="SVGID_00000007420836028369279610000004390155245979177142_">
			<use xlink:href="#SVGID_00000073681492735392687000000009283907983740360344_"  style="overflow:visible;"/>
		</clipPath>
		<path id="path560" style="clip-path:url(#SVGID_00000007420836028369279610000004390155245979177142_);fill:#388941;" d="M91.3,90
			v-3.4h0.6v1.4h1.6v-1.4h0.6V90h-0.6v-1.5h-1.6V90H91.3z"/>
	</g>
	<g>
		<defs>
			<rect id="SVGID_00000098205885730523893950000018424784142595837577_" x="-136.2" y="-191.5" width="1207.6" height="858.9"/>
		</defs>
		<clipPath id="SVGID_00000144331569598134800570000014545487530611196095_">
			<use xlink:href="#SVGID_00000098205885730523893950000018424784142595837577_"  style="overflow:visible;"/>
		</clipPath>
		<path id="path562" style="clip-path:url(#SVGID_00000144331569598134800570000014545487530611196095_);fill:#388941;" d="
			M95.8,86.6h0.6V90h-0.6V86.6z"/>
	</g>
	<g>
		<defs>
			<rect id="SVGID_00000173132473468273387750000018297631670935695748_" x="-136.2" y="-191.5" width="1207.6" height="858.9"/>
		</defs>
		<clipPath id="SVGID_00000138538889596037978790000013309608198867251643_">
			<use xlink:href="#SVGID_00000173132473468273387750000018297631670935695748_"  style="overflow:visible;"/>
		</clipPath>
		<path id="path564" style="clip-path:url(#SVGID_00000138538889596037978790000013309608198867251643_);fill:#388941;" d="M98.2,90
			v-3.5h0.1l2.2,2.3v-2.2h0.6v3.5H101l-2.2-2.3V90H98.2z"/>
	</g>
	<g>
		<defs>
			<rect id="SVGID_00000030460862764505183080000017432243169208162950_" x="-136.2" y="-191.5" width="1207.6" height="858.9"/>
		</defs>
		<clipPath id="SVGID_00000093889222962152895520000009193120410516934061_">
			<use xlink:href="#SVGID_00000030460862764505183080000017432243169208162950_"  style="overflow:visible;"/>
		</clipPath>
		<path id="path566" style="clip-path:url(#SVGID_00000093889222962152895520000009193120410516934061_);fill:#388941;" d="
			M103.3,88.9h1.1l-0.6-1.3L103.3,88.9z M102.8,90h-0.6l1.7-3.5h0l1.6,3.5h-0.6l-0.3-0.6h-1.5L102.8,90z"/>
	</g>
	<g>
		<defs>
			<rect id="SVGID_00000086688453309200376250000009357851750600905140_" x="-136.2" y="-191.5" width="1207.6" height="858.9"/>
		</defs>
		<clipPath id="SVGID_00000145739915103289625420000016567700057744756119_">
			<use xlink:href="#SVGID_00000086688453309200376250000009357851750600905140_"  style="overflow:visible;"/>
		</clipPath>
		<path id="path568" style="clip-path:url(#SVGID_00000145739915103289625420000016567700057744756119_);fill:#388941;" d="M109,90
			v-3.4h2v0.5h-1.4v0.9h1.3v0.5h-1.3V90H109z"/>
	</g>
	<g>
		<defs>
			<rect id="SVGID_00000085937556334821941090000017331283144866811567_" x="-136.2" y="-191.5" width="1207.6" height="858.9"/>
		</defs>
		<clipPath id="SVGID_00000130615173426774622350000015591833942586511496_">
			<use xlink:href="#SVGID_00000085937556334821941090000017331283144866811567_"  style="overflow:visible;"/>
		</clipPath>
		<path id="path570" style="clip-path:url(#SVGID_00000130615173426774622350000015591833942586511496_);fill:#388941;" d="
			M113.5,88.3c0,0.4,0.1,0.6,0.3,0.9c0.2,0.2,0.5,0.4,0.8,0.4c0.3,0,0.6-0.1,0.8-0.4c0.2-0.2,0.3-0.5,0.3-0.9c0-0.4-0.1-0.6-0.3-0.9
			s-0.5-0.4-0.8-0.4c-0.3,0-0.6,0.1-0.8,0.4C113.6,87.6,113.5,87.9,113.5,88.3 M112.9,88.3c0-0.2,0-0.4,0.1-0.6
			c0.1-0.2,0.1-0.4,0.3-0.5c0.2-0.2,0.4-0.4,0.6-0.5c0.2-0.1,0.5-0.2,0.7-0.2c0.2,0,0.4,0,0.7,0.1c0.2,0.1,0.4,0.2,0.5,0.4
			c0.2,0.2,0.3,0.4,0.4,0.6c0.1,0.2,0.1,0.5,0.1,0.7s0,0.5-0.1,0.7c-0.1,0.2-0.2,0.4-0.4,0.6c-0.2,0.2-0.3,0.3-0.6,0.4
			c-0.2,0.1-0.4,0.1-0.6,0.1s-0.4,0-0.6-0.1c-0.2-0.1-0.4-0.2-0.5-0.4c-0.2-0.2-0.3-0.4-0.4-0.6C112.9,88.7,112.9,88.5,112.9,88.3"
			/>
	</g>
	<g>
		<defs>
			<rect id="SVGID_00000150073102078929486070000012103944906564231348_" x="-136.2" y="-191.5" width="1207.6" height="858.9"/>
		</defs>
		<clipPath id="SVGID_00000020384679513756521760000008725057268105762189_">
			<use xlink:href="#SVGID_00000150073102078929486070000012103944906564231348_"  style="overflow:visible;"/>
		</clipPath>
		<path id="path572" style="clip-path:url(#SVGID_00000020384679513756521760000008725057268105762189_);fill:#388941;" d="
			M119,88.1h0.3c0.3,0,0.5,0,0.6-0.1c0.1-0.1,0.2-0.2,0.2-0.4c0-0.2-0.1-0.3-0.2-0.4c-0.1-0.1-0.3-0.1-0.6-0.1H119V88.1z M118.4,90
			v-3.4h0.8c0.3,0,0.5,0,0.7,0.1c0.2,0,0.3,0.1,0.4,0.2c0.1,0.1,0.2,0.2,0.3,0.3c0.1,0.1,0.1,0.3,0.1,0.4c0,0.2-0.1,0.4-0.2,0.6
			c-0.1,0.2-0.3,0.3-0.6,0.4L121,90h-0.7l-1-1.4H119V90H118.4z"/>
	</g>
	<g>
		<defs>
			<rect id="SVGID_00000145044018054026842630000012817609362744955570_" x="-136.2" y="-191.5" width="1207.6" height="858.9"/>
		</defs>
		<clipPath id="SVGID_00000083796745720646134710000010482630829347457429_">
			<use xlink:href="#SVGID_00000145044018054026842630000012817609362744955570_"  style="overflow:visible;"/>
		</clipPath>
		<path id="path574" style="clip-path:url(#SVGID_00000083796745720646134710000010482630829347457429_);fill:#388941;" d="M123,90
			v-3.4h2v0.5h-1.4v0.8h1.2v0.5h-1.2v1h1.4V90H123z"/>
	</g>
	<g>
		<defs>
			<rect id="SVGID_00000182490214309852664210000009914468801963856530_" x="-136.2" y="-191.5" width="1207.6" height="858.9"/>
		</defs>
		<clipPath id="SVGID_00000070808244348929529880000010740365699577583255_">
			<use xlink:href="#SVGID_00000182490214309852664210000009914468801963856530_"  style="overflow:visible;"/>
		</clipPath>
		<path id="path576" style="clip-path:url(#SVGID_00000070808244348929529880000010740365699577583255_);fill:#388941;" d="
			M127.1,89.2c0.2,0.1,0.4,0.2,0.5,0.3c0.2,0.1,0.3,0.1,0.4,0.1c0.2,0,0.3,0,0.4-0.1c0.1-0.1,0.2-0.2,0.2-0.3c0-0.1,0-0.2-0.1-0.3
			c-0.1-0.1-0.2-0.2-0.4-0.3l-0.3-0.2c-0.3-0.2-0.4-0.3-0.6-0.5c-0.1-0.1-0.2-0.3-0.2-0.5c0-0.3,0.1-0.5,0.3-0.7
			c0.2-0.2,0.4-0.2,0.7-0.2c0.1,0,0.3,0,0.4,0.1c0.1,0,0.3,0.1,0.4,0.2l0,0.5c-0.2-0.1-0.3-0.2-0.4-0.2c-0.1,0-0.2-0.1-0.3-0.1
			c-0.2,0-0.3,0-0.4,0.1c-0.1,0.1-0.1,0.2-0.1,0.3c0,0.1,0,0.2,0.1,0.3c0.1,0.1,0.2,0.2,0.4,0.3l0.2,0.1c0.3,0.2,0.5,0.3,0.6,0.5
			c0.1,0.2,0.2,0.4,0.2,0.6c0,0.3-0.1,0.5-0.3,0.7c-0.2,0.2-0.5,0.3-0.9,0.3c-0.2,0-0.3,0-0.5-0.1c-0.2,0-0.3-0.1-0.4-0.2
			L127.1,89.2z"/>
	</g>
	<g>
		<defs>
			<rect id="SVGID_00000084501264147189846490000008157285271970854844_" x="-136.2" y="-191.5" width="1207.6" height="858.9"/>
		</defs>
		<clipPath id="SVGID_00000133501814939777098960000005167467453980422285_">
			<use xlink:href="#SVGID_00000084501264147189846490000008157285271970854844_"  style="overflow:visible;"/>
		</clipPath>
		<path id="path578" style="clip-path:url(#SVGID_00000133501814939777098960000005167467453980422285_);fill:#388941;" d="
			M132.7,87.1V90h-0.6v-2.9H131v-0.5h2.9v0.5H132.7z"/>
	</g>
	<g>
		<defs>
			<rect id="SVGID_00000183234942658539065750000003158965917754148528_" x="-136.2" y="-191.5" width="1207.6" height="858.9"/>
		</defs>
		<clipPath id="SVGID_00000090265829171671508700000002590702880834058900_">
			<use xlink:href="#SVGID_00000183234942658539065750000003158965917754148528_"  style="overflow:visible;"/>
		</clipPath>
		<path id="path580" style="clip-path:url(#SVGID_00000090265829171671508700000002590702880834058900_);fill:#388941;" d="
			M136.5,88.1h0.3c0.3,0,0.5,0,0.6-0.1c0.1-0.1,0.2-0.2,0.2-0.4c0-0.2-0.1-0.3-0.2-0.4c-0.1-0.1-0.3-0.1-0.6-0.1h-0.2V88.1z
			 M135.9,90v-3.4h0.8c0.3,0,0.5,0,0.7,0.1c0.2,0,0.3,0.1,0.4,0.2c0.1,0.1,0.2,0.2,0.3,0.3c0.1,0.1,0.1,0.3,0.1,0.4
			c0,0.2-0.1,0.4-0.2,0.6c-0.1,0.2-0.3,0.3-0.6,0.4l1.1,1.5h-0.7l-1-1.4h-0.3V90H135.9z"/>
	</g>
	<g>
		<defs>
			<rect id="SVGID_00000098221897828695175620000008603003765038580392_" x="-136.2" y="-191.5" width="1207.6" height="858.9"/>
		</defs>
		<clipPath id="SVGID_00000048488054062132174580000014126789639155192763_">
			<use xlink:href="#SVGID_00000098221897828695175620000008603003765038580392_"  style="overflow:visible;"/>
		</clipPath>
		<path id="path582" style="clip-path:url(#SVGID_00000048488054062132174580000014126789639155192763_);fill:#388941;" d="
			M141.1,90v-1.5l-1.3-1.9h0.7l0.9,1.3l1-1.3h0.6l-1.4,1.8V90H141.1z"/>
	</g>
	<g>
		<defs>
			<rect id="SVGID_00000113340442912795172200000010679234271464655035_" x="-136.2" y="-191.5" width="1207.6" height="858.9"/>
		</defs>
		<clipPath id="SVGID_00000108272142928401098010000010491606464141312655_">
			<use xlink:href="#SVGID_00000113340442912795172200000010679234271464655035_"  style="overflow:visible;"/>
		</clipPath>
		<path id="path584" style="clip-path:url(#SVGID_00000108272142928401098010000010491606464141312655_);fill:#388941;" d="
			M149.7,87.4c-0.2-0.1-0.3-0.3-0.5-0.3c-0.2-0.1-0.3-0.1-0.5-0.1c-0.4,0-0.6,0.1-0.9,0.4c-0.2,0.2-0.3,0.5-0.3,0.9
			c0,0.4,0.1,0.7,0.3,0.9c0.2,0.2,0.5,0.3,0.9,0.3c0.1,0,0.2,0,0.3,0c0.1,0,0.2-0.1,0.4-0.1v-0.7h-0.8v-0.5h1.4v1.6
			c-0.2,0.1-0.4,0.2-0.6,0.3c-0.2,0.1-0.4,0.1-0.6,0.1c-0.5,0-1-0.2-1.3-0.5c-0.3-0.3-0.5-0.8-0.5-1.3c0-0.5,0.2-1,0.5-1.3
			c0.3-0.3,0.8-0.5,1.3-0.5c0.2,0,0.4,0,0.6,0.1c0.2,0,0.4,0.1,0.5,0.2L149.7,87.4z"/>
	</g>
	<g>
		<defs>
			<rect id="SVGID_00000098216135462324198910000013770712451254860679_" x="-136.2" y="-191.5" width="1207.6" height="858.9"/>
		</defs>
		<clipPath id="SVGID_00000127739002383341481950000007070049548060013990_">
			<use xlink:href="#SVGID_00000098216135462324198910000013770712451254860679_"  style="overflow:visible;"/>
		</clipPath>
		<path id="path586" style="clip-path:url(#SVGID_00000127739002383341481950000007070049548060013990_);fill:#388941;" d="
			M152.1,88.1h0.3c0.3,0,0.5,0,0.6-0.1c0.1-0.1,0.2-0.2,0.2-0.4c0-0.2-0.1-0.3-0.2-0.4c-0.1-0.1-0.4-0.1-0.6-0.1h-0.2V88.1z
			 M151.5,90v-3.4h0.8c0.3,0,0.5,0,0.7,0.1c0.2,0,0.3,0.1,0.4,0.2c0.1,0.1,0.2,0.2,0.3,0.3c0.1,0.1,0.1,0.3,0.1,0.4
			c0,0.2-0.1,0.4-0.2,0.6c-0.1,0.2-0.3,0.3-0.6,0.4l1.1,1.5h-0.7l-1-1.4h-0.3V90H151.5z"/>
	</g>
	<g>
		<defs>
			<rect id="SVGID_00000022525553766731217920000002669603094044503444_" x="-136.2" y="-191.5" width="1207.6" height="858.9"/>
		</defs>
		<clipPath id="SVGID_00000027587301702282495680000017383125640152045721_">
			<use xlink:href="#SVGID_00000022525553766731217920000002669603094044503444_"  style="overflow:visible;"/>
		</clipPath>
		<path id="path588" style="clip-path:url(#SVGID_00000027587301702282495680000017383125640152045721_);fill:#388941;" d="
			M155.9,88.3c0,0.4,0.1,0.6,0.3,0.9c0.2,0.2,0.5,0.4,0.8,0.4c0.3,0,0.6-0.1,0.8-0.4c0.2-0.2,0.3-0.5,0.3-0.9c0-0.4-0.1-0.6-0.3-0.9
			c-0.2-0.2-0.5-0.4-0.8-0.4c-0.3,0-0.6,0.1-0.8,0.4C156,87.6,155.9,87.9,155.9,88.3 M155.3,88.3c0-0.2,0-0.4,0.1-0.6
			c0.1-0.2,0.1-0.4,0.3-0.5c0.2-0.2,0.4-0.4,0.6-0.5c0.2-0.1,0.5-0.2,0.8-0.2c0.2,0,0.4,0,0.6,0.1c0.2,0.1,0.4,0.2,0.5,0.4
			c0.2,0.2,0.3,0.4,0.4,0.6c0.1,0.2,0.1,0.5,0.1,0.7s0,0.5-0.1,0.7c-0.1,0.2-0.2,0.4-0.4,0.6c-0.2,0.2-0.3,0.3-0.6,0.4
			c-0.2,0.1-0.4,0.1-0.6,0.1c-0.2,0-0.4,0-0.6-0.1c-0.2-0.1-0.4-0.2-0.5-0.4c-0.2-0.2-0.3-0.4-0.4-0.6
			C155.4,88.7,155.3,88.5,155.3,88.3"/>
	</g>
	<g>
		<defs>
			<rect id="SVGID_00000167387890438130353540000009640638575723562655_" x="-136.2" y="-191.5" width="1207.6" height="858.9"/>
		</defs>
		<clipPath id="SVGID_00000034055121791378534370000010077681400070066330_">
			<use xlink:href="#SVGID_00000167387890438130353540000009640638575723562655_"  style="overflow:visible;"/>
		</clipPath>
		<path id="path590" style="clip-path:url(#SVGID_00000034055121791378534370000010077681400070066330_);fill:#388941;" d="
			M160.8,86.6v2c0,0.3,0.1,0.6,0.2,0.7c0.1,0.2,0.3,0.3,0.6,0.3c0.3,0,0.5-0.1,0.6-0.3c0.1-0.2,0.2-0.4,0.2-0.8v-2h0.5v2
			c0,0.5-0.1,0.9-0.4,1.1c-0.2,0.3-0.6,0.4-1,0.4c-0.5,0-0.8-0.1-1-0.4c-0.2-0.3-0.4-0.6-0.4-1.1v-2H160.8z"/>
	</g>
	<g>
		<defs>
			<rect id="SVGID_00000054227257498620134280000005019101665068247482_" x="-136.2" y="-191.5" width="1207.6" height="858.9"/>
		</defs>
		<clipPath id="SVGID_00000119840012517981800080000004527784246326341807_">
			<use xlink:href="#SVGID_00000054227257498620134280000005019101665068247482_"  style="overflow:visible;"/>
		</clipPath>
		<path id="path592" style="clip-path:url(#SVGID_00000119840012517981800080000004527784246326341807_);fill:#388941;" d="
			M165.4,88.1h0.3c0.3,0,0.5,0,0.6-0.1c0.1-0.1,0.2-0.2,0.2-0.4c0-0.2-0.1-0.3-0.2-0.4c-0.1-0.1-0.3-0.1-0.6-0.1h-0.2V88.1z
			 M164.8,90v-3.4h0.8c0.3,0,0.5,0,0.6,0.1c0.2,0,0.3,0.1,0.4,0.2c0.1,0.1,0.2,0.2,0.3,0.3c0.1,0.1,0.1,0.3,0.1,0.4
			c0,0.3-0.1,0.6-0.4,0.8c-0.2,0.2-0.6,0.3-1,0.3h-0.1h-0.1V90H164.8z"/>
	</g>
	<g>
		<defs>
			<rect id="SVGID_00000093178485403584906150000010673128639909820318_" x="-136.2" y="-191.5" width="1207.6" height="858.9"/>
		</defs>
		<clipPath id="SVGID_00000136404814633675726830000012010542261915313541_">
			<use xlink:href="#SVGID_00000093178485403584906150000010673128639909820318_"  style="overflow:visible;"/>
		</clipPath>
		<path id="path594" style="clip-path:url(#SVGID_00000136404814633675726830000012010542261915313541_);fill:#388941;" d="
			M173.3,89.7c-0.2,0.1-0.3,0.2-0.5,0.2c-0.2,0.1-0.4,0.1-0.5,0.1c-0.2,0-0.4,0-0.6-0.1c-0.2-0.1-0.3-0.2-0.5-0.3
			c-0.2-0.2-0.4-0.4-0.5-0.6c-0.1-0.2-0.2-0.5-0.2-0.8c0-0.5,0.2-1,0.5-1.3c0.3-0.3,0.7-0.5,1.2-0.5c0.2,0,0.4,0,0.5,0.1
			c0.2,0.1,0.3,0.1,0.5,0.2l-0.1,0.7c-0.1-0.1-0.3-0.3-0.4-0.3c-0.1-0.1-0.3-0.1-0.5-0.1c-0.3,0-0.6,0.1-0.8,0.4
			c-0.2,0.2-0.3,0.5-0.3,0.9c0,0.4,0.1,0.7,0.3,0.9c0.2,0.2,0.5,0.3,0.8,0.3c0.2,0,0.4,0,0.5-0.1c0.2-0.1,0.3-0.2,0.5-0.4
			L173.3,89.7z"/>
	</g>
	<g>
		<defs>
			<rect id="SVGID_00000081639390198112881560000008001555486303754908_" x="-136.2" y="-191.5" width="1207.6" height="858.9"/>
		</defs>
		<clipPath id="SVGID_00000146469291480378783910000007387728639099144635_">
			<use xlink:href="#SVGID_00000081639390198112881560000008001555486303754908_"  style="overflow:visible;"/>
		</clipPath>
		<path id="path596" style="clip-path:url(#SVGID_00000146469291480378783910000007387728639099144635_);fill:#388941;" d="
			M175.4,88.3c0,0.4,0.1,0.6,0.3,0.9c0.2,0.2,0.5,0.4,0.8,0.4c0.3,0,0.6-0.1,0.8-0.4c0.2-0.2,0.3-0.5,0.3-0.9c0-0.4-0.1-0.6-0.3-0.9
			c-0.2-0.2-0.5-0.4-0.8-0.4c-0.3,0-0.6,0.1-0.8,0.4C175.5,87.6,175.4,87.9,175.4,88.3 M174.7,88.3c0-0.2,0-0.4,0.1-0.6
			c0.1-0.2,0.1-0.4,0.3-0.5c0.2-0.2,0.4-0.4,0.6-0.5c0.2-0.1,0.5-0.2,0.8-0.2c0.2,0,0.4,0,0.6,0.1c0.2,0.1,0.4,0.2,0.5,0.4
			c0.2,0.2,0.3,0.4,0.4,0.6c0.1,0.2,0.1,0.5,0.1,0.7s0,0.5-0.1,0.7c-0.1,0.2-0.2,0.4-0.4,0.6c-0.2,0.2-0.3,0.3-0.6,0.4
			c-0.2,0.1-0.4,0.1-0.6,0.1c-0.2,0-0.4,0-0.6-0.1c-0.2-0.1-0.4-0.2-0.5-0.4c-0.2-0.2-0.3-0.4-0.4-0.6
			C174.8,88.7,174.7,88.5,174.7,88.3"/>
	</g>
	<g>
		<defs>
			<rect id="SVGID_00000104679175279269945990000013801297054885006214_" x="-136.2" y="-191.5" width="1207.6" height="858.9"/>
		</defs>
		<clipPath id="SVGID_00000093135638189089267520000009448188667765532305_">
			<use xlink:href="#SVGID_00000104679175279269945990000013801297054885006214_"  style="overflow:visible;"/>
		</clipPath>
		<path id="path598" style="clip-path:url(#SVGID_00000093135638189089267520000009448188667765532305_);fill:#388941;" d="
			M180.4,88.1h0.3c0.3,0,0.5,0,0.6-0.1c0.1-0.1,0.2-0.2,0.2-0.4c0-0.2-0.1-0.3-0.2-0.4c-0.1-0.1-0.4-0.1-0.6-0.1h-0.2V88.1z
			 M179.8,90v-3.4h0.8c0.3,0,0.5,0,0.7,0.1c0.2,0,0.3,0.1,0.4,0.2c0.1,0.1,0.2,0.2,0.3,0.3c0.1,0.1,0.1,0.3,0.1,0.4
			c0,0.2-0.1,0.4-0.2,0.6c-0.1,0.2-0.3,0.3-0.6,0.4l1.1,1.5h-0.7l-1-1.4h-0.3V90H179.8z"/>
	</g>
	<g>
		<defs>
			<rect id="SVGID_00000179637070029232318930000014459132878093900460_" x="-136.2" y="-191.5" width="1207.6" height="858.9"/>
		</defs>
		<clipPath id="SVGID_00000142173954951623929230000005784295681381816217_">
			<use xlink:href="#SVGID_00000179637070029232318930000014459132878093900460_"  style="overflow:visible;"/>
		</clipPath>
		<path id="path600" style="clip-path:url(#SVGID_00000142173954951623929230000005784295681381816217_);fill:#388941;" d="
			M184.5,88.1h0.3c0.3,0,0.5,0,0.6-0.1c0.1-0.1,0.2-0.2,0.2-0.4c0-0.2-0.1-0.3-0.2-0.4c-0.1-0.1-0.4-0.1-0.6-0.1h-0.2V88.1z
			 M183.9,90v-3.4h0.8c0.3,0,0.5,0,0.6,0.1c0.2,0,0.3,0.1,0.4,0.2c0.1,0.1,0.2,0.2,0.3,0.3c0.1,0.1,0.1,0.3,0.1,0.4
			c0,0.3-0.1,0.6-0.4,0.8c-0.2,0.2-0.6,0.3-1,0.3h-0.1h-0.1V90H183.9z"/>
	</g>
	<g>
		<defs>
			<rect id="SVGID_00000041973684220894615310000014759792450541848718_" x="-136.2" y="-191.5" width="1207.6" height="858.9"/>
		</defs>
		<clipPath id="SVGID_00000043441692026917846790000015579714591173503148_">
			<use xlink:href="#SVGID_00000041973684220894615310000014759792450541848718_"  style="overflow:visible;"/>
		</clipPath>
		<path id="path602" style="clip-path:url(#SVGID_00000043441692026917846790000015579714591173503148_);fill:#388941;" d="
			M188.1,88.3c0,0.4,0.1,0.6,0.3,0.9c0.2,0.2,0.5,0.4,0.8,0.4c0.3,0,0.6-0.1,0.8-0.4c0.2-0.2,0.3-0.5,0.3-0.9c0-0.4-0.1-0.6-0.3-0.9
			c-0.2-0.2-0.5-0.4-0.8-0.4c-0.3,0-0.6,0.1-0.8,0.4C188.2,87.6,188.1,87.9,188.1,88.3 M187.5,88.3c0-0.2,0-0.4,0.1-0.6
			c0.1-0.2,0.1-0.4,0.3-0.5c0.2-0.2,0.4-0.4,0.6-0.5c0.2-0.1,0.5-0.2,0.8-0.2c0.2,0,0.4,0,0.6,0.1c0.2,0.1,0.4,0.2,0.5,0.4
			c0.2,0.2,0.3,0.4,0.4,0.6c0.1,0.2,0.1,0.5,0.1,0.7s0,0.5-0.1,0.7c-0.1,0.2-0.2,0.4-0.4,0.6c-0.2,0.2-0.3,0.3-0.6,0.4
			c-0.2,0.1-0.4,0.1-0.6,0.1c-0.2,0-0.4,0-0.6-0.1c-0.2-0.1-0.4-0.2-0.5-0.4c-0.2-0.2-0.3-0.4-0.4-0.6
			C187.6,88.7,187.5,88.5,187.5,88.3"/>
	</g>
	<g>
		<defs>
			<rect id="SVGID_00000157302123993958126630000001546079731545045638_" x="-136.2" y="-191.5" width="1207.6" height="858.9"/>
		</defs>
		<clipPath id="SVGID_00000164511421858788226410000007978338928370897298_">
			<use xlink:href="#SVGID_00000157302123993958126630000001546079731545045638_"  style="overflow:visible;"/>
		</clipPath>
		<path id="path604" style="clip-path:url(#SVGID_00000164511421858788226410000007978338928370897298_);fill:#388941;" d="
			M193.2,88.1h0.3c0.3,0,0.5,0,0.6-0.1c0.1-0.1,0.2-0.2,0.2-0.4c0-0.2-0.1-0.3-0.2-0.4c-0.1-0.1-0.4-0.1-0.6-0.1h-0.2V88.1z
			 M192.6,90v-3.4h0.8c0.3,0,0.5,0,0.7,0.1c0.2,0,0.3,0.1,0.4,0.2c0.1,0.1,0.2,0.2,0.3,0.3c0.1,0.1,0.1,0.3,0.1,0.4
			c0,0.2-0.1,0.4-0.2,0.6c-0.1,0.2-0.3,0.3-0.6,0.4l1.1,1.5h-0.7l-1-1.4h-0.3V90H192.6z"/>
	</g>
	<g>
		<defs>
			<rect id="SVGID_00000118376053491335342180000011448335467598033573_" x="-136.2" y="-191.5" width="1207.6" height="858.9"/>
		</defs>
		<clipPath id="SVGID_00000148630678277857500670000003410812951923743155_">
			<use xlink:href="#SVGID_00000118376053491335342180000011448335467598033573_"  style="overflow:visible;"/>
		</clipPath>
		<path id="path606" style="clip-path:url(#SVGID_00000148630678277857500670000003410812951923743155_);fill:#388941;" d="
			M197.3,88.9h1.1l-0.6-1.3L197.3,88.9z M196.8,90h-0.6l1.7-3.5h0l1.6,3.5h-0.6l-0.3-0.6H197L196.8,90z"/>
	</g>
	<g>
		<defs>
			<rect id="SVGID_00000023252610896822408680000015299878574527454605_" x="-136.2" y="-191.5" width="1207.6" height="858.9"/>
		</defs>
		<clipPath id="SVGID_00000021078319337007106450000010650562808301420162_">
			<use xlink:href="#SVGID_00000023252610896822408680000015299878574527454605_"  style="overflow:visible;"/>
		</clipPath>
		<path id="path608" style="clip-path:url(#SVGID_00000021078319337007106450000010650562808301420162_);fill:#388941;" d="
			M201.9,87.1V90h-0.6v-2.9h-1.1v-0.5h2.9v0.5H201.9z"/>
	</g>
	<g>
		<defs>
			<rect id="SVGID_00000092457924570174055790000003368549441401920399_" x="-136.2" y="-191.5" width="1207.6" height="858.9"/>
		</defs>
		<clipPath id="SVGID_00000001625739843978352030000009052501775437075115_">
			<use xlink:href="#SVGID_00000092457924570174055790000003368549441401920399_"  style="overflow:visible;"/>
		</clipPath>
		<path id="path610" style="clip-path:url(#SVGID_00000001625739843978352030000009052501775437075115_);fill:#388941;" d="
			M204.5,86.6h0.6V90h-0.6V86.6z"/>
	</g>
	<g>
		<defs>
			<rect id="SVGID_00000145054250950140044560000017774835848642450100_" x="-136.2" y="-191.5" width="1207.6" height="858.9"/>
		</defs>
		<clipPath id="SVGID_00000088111114070470156750000001349638500516209853_">
			<use xlink:href="#SVGID_00000145054250950140044560000017774835848642450100_"  style="overflow:visible;"/>
		</clipPath>
		<path id="path612" style="clip-path:url(#SVGID_00000088111114070470156750000001349638500516209853_);fill:#388941;" d="
			M207.4,88.3c0,0.4,0.1,0.6,0.3,0.9c0.2,0.2,0.5,0.4,0.8,0.4c0.3,0,0.6-0.1,0.8-0.4c0.2-0.2,0.3-0.5,0.3-0.9c0-0.4-0.1-0.6-0.3-0.9
			c-0.2-0.2-0.5-0.4-0.8-0.4c-0.3,0-0.6,0.1-0.8,0.4C207.5,87.6,207.4,87.9,207.4,88.3 M206.8,88.3c0-0.2,0-0.4,0.1-0.6
			c0.1-0.2,0.1-0.4,0.3-0.5c0.2-0.2,0.4-0.4,0.6-0.5c0.2-0.1,0.5-0.2,0.8-0.2c0.2,0,0.4,0,0.6,0.1c0.2,0.1,0.4,0.2,0.5,0.4
			c0.2,0.2,0.3,0.4,0.4,0.6c0.1,0.2,0.1,0.5,0.1,0.7s0,0.5-0.1,0.7c-0.1,0.2-0.2,0.4-0.4,0.6c-0.2,0.2-0.3,0.3-0.6,0.4
			c-0.2,0.1-0.4,0.1-0.6,0.1c-0.2,0-0.4,0-0.6-0.1c-0.2-0.1-0.4-0.2-0.5-0.4c-0.2-0.2-0.3-0.4-0.4-0.6
			C206.9,88.7,206.8,88.5,206.8,88.3"/>
	</g>
	<g>
		<defs>
			<rect id="SVGID_00000124138904725852778100000007316995741508393382_" x="-136.2" y="-191.5" width="1207.6" height="858.9"/>
		</defs>
		<clipPath id="SVGID_00000026886196996817442090000002848562698846118037_">
			<use xlink:href="#SVGID_00000124138904725852778100000007316995741508393382_"  style="overflow:visible;"/>
		</clipPath>
		<path id="path614" style="clip-path:url(#SVGID_00000026886196996817442090000002848562698846118037_);fill:#388941;" d="
			M211.9,90v-3.5h0.1l2.2,2.3v-2.2h0.6v3.5h-0.1l-2.2-2.3V90H211.9z"/>
	</g>
</g>
</svg>
