<?xml version="1.0" encoding="utf-8"?>
<!-- Generator: Adobe Illustrator 28.0.0, SVG Export Plug-In . SVG Version: 6.00 Build 0)  -->
<svg version="1.1" id="svg1" xmlns:svg="http://www.w3.org/2000/svg"
	 xmlns="http://www.w3.org/2000/svg" xmlns:xlink="http://www.w3.org/1999/xlink" x="0px" y="0px" viewBox="0 0 52.2 49.2"
	 style="enable-background:new 0 0 52.2 49.2;" xml:space="preserve">
<style type="text/css">
	.st0{clip-path:url(#SVGID_00000181780295535380248490000004186921919809478283_);fill:#CB232C;}
	.st1{clip-path:url(#SVGID_00000082347267938127986050000017397808588072162177_);fill:#CB232C;}
	.st2{clip-path:url(#SVGID_00000138554987833661525080000008357740046800667777_);fill:#CB232C;}
	.st3{clip-path:url(#SVGID_00000037677421641733425660000016368546088395573898_);fill:#CB232C;}
	.st4{clip-path:url(#SVGID_00000096776963196039200740000001221854732540914357_);fill:#CB232C;}
	.st5{clip-path:url(#SVGID_00000181799060166467397670000007954741136527806652_);fill:#CB232C;}
	.st6{clip-path:url(#SVGID_00000142168342608257694140000007219999112001832582_);fill:#0F0F0F;}
	.st7{clip-path:url(#SVGID_00000000195230401816426610000004780210917896732057_);fill:#0F0F0F;}
	.st8{clip-path:url(#SVGID_00000011717472565828289220000009120635490588627090_);fill:#0F0F0F;}
	.st9{clip-path:url(#SVGID_00000122718192906267464660000006949524672799131304_);fill:#0F0F0F;}
	.st10{clip-path:url(#SVGID_00000172399004118138308740000000746573783544640409_);fill:#0F0F0F;}
	.st11{clip-path:url(#SVGID_00000135689997620701793840000013522082295860446103_);fill:#0F0F0F;}
	.st12{clip-path:url(#SVGID_00000085948080643835416240000017245451899528163236_);fill:#0F0F0F;}
	.st13{clip-path:url(#SVGID_00000102507737456149532110000002049626703780686740_);fill:#0F0F0F;}
	.st14{clip-path:url(#SVGID_00000121252662578729251030000007810270878919509904_);fill:#0F0F0F;}
	.st15{clip-path:url(#SVGID_00000060715672987898656520000017092465452106544809_);fill:#0F0F0F;}
	.st16{clip-path:url(#SVGID_00000061440954199166719940000004648394755089081990_);fill:#0F0F0F;}
	.st17{clip-path:url(#SVGID_00000167356869611961508380000002617182618633919891_);fill:#0F0F0F;}
	.st18{clip-path:url(#SVGID_00000144308468920831870120000016859769799881148296_);fill:#0F0F0F;}
	.st19{clip-path:url(#SVGID_00000061454912480488391780000006941860384013147310_);fill:#0F0F0F;}
	.st20{clip-path:url(#SVGID_00000030477298735506911180000003645442278546209939_);fill:#0F0F0F;}
	.st21{clip-path:url(#SVGID_00000098924877573681822170000003893377779430335632_);fill:#0F0F0F;}
	.st22{clip-path:url(#SVGID_00000069392811145381496890000002613928402322207393_);fill:#0F0F0F;}
	.st23{clip-path:url(#SVGID_00000032619147613463075130000000729061307082453415_);fill:#0F0F0F;}
	.st24{clip-path:url(#SVGID_00000022556808813424737840000013897754841791596691_);fill:#0F0F0F;}
	.st25{clip-path:url(#SVGID_00000024001081880056667190000002719440556989440952_);fill:#0F0F0F;}
</style>
<g id="layer1" transform="translate(-145.78542,-29.897919)">
	<g>
		<defs>
			<rect id="SVGID_1_" x="77.7" y="-167.1" width="1207.6" height="858.9"/>
		</defs>
		<clipPath id="SVGID_00000037653747308298937280000017194676118447687810_">
			<use xlink:href="#SVGID_1_"  style="overflow:visible;"/>
		</clipPath>
		<path id="path4146" style="clip-path:url(#SVGID_00000037653747308298937280000017194676118447687810_);fill:#CB232C;" d="
			M169.8,31.1c-0.9,0.2-1.8,0.5-2.6,0.9c-0.6,0.2-1.1,0.5-1.6,0.9c-0.3,0.2-0.6,0.5-0.9,0.7c-0.4,0.3-0.7,0.7-1.1,1.1
			c-0.3,0.4-0.7,0.8-0.9,1.2c-0.2,0.3-0.3,0.5-0.5,0.8c-0.2,0.3-0.3,0.6-0.5,1c-0.4,0.9-0.7,1.8-0.8,2.7c-0.2,1.3-0.1,2.6,0.1,3.8
			c0.2,0.9,0.5,1.7,0.8,2.5c0.4,0.7,0.8,1.4,1.3,2.1c0.2,0.2,0.4,0.4,0.6,0.6c0.2,0.2,0.4,0.5,0.6,0.7c0.2,0.2,0.6,0.3,0.8,0.6
			c0.3,0.3,0.7,0.5,1,0.7c0.3,0.2,0.7,0.4,1.2,0.5c0.1,0.1,0.3,0.1,0.5,0.2c0.8,0.4,1.8,0.6,2.7,0.7c1.5,0.2,3,0,4.5-0.3
			c0.5-0.1,0.9-0.3,1.3-0.5c0.1,0,0.2-0.1,0.2-0.2c0.4-0.2,1-0.3,1.3-0.7c0.4-0.3,0.8-0.6,1.2-0.9c0.4-0.4,0.8-0.8,1.1-1.2
			c0.3-0.3,0.5-0.7,0.8-1c0.2-0.2,0.3-0.5,0.5-0.8c0.5-0.7,0.8-1.6,1-2.4c0.2-0.7,0.4-1.5,0.4-2.2c0.1-1.2,0-2.4-0.4-3.5
			c-0.1-0.4-0.2-0.9-0.4-1.3c-0.2-0.4-0.3-0.8-0.6-1.2c-0.2-0.2-0.3-0.5-0.4-0.7c-0.7-1-1.4-1.9-2.4-2.6c-0.3-0.2-0.7-0.5-1-0.8
			c-0.4-0.3-0.9-0.4-1.3-0.6c-0.4-0.2-0.7-0.3-1.1-0.5c-0.5-0.2-1-0.3-1.5-0.4C172.5,30.9,171.1,30.9,169.8,31.1 M169.5,30.1
			c1-0.2,2.1-0.3,3.1-0.2c0.6,0,1.3,0.1,1.9,0.3c0.6,0.1,1.2,0.4,1.8,0.6c0.5,0.2,0.9,0.3,1.4,0.6c0.3,0.2,0.6,0.5,1,0.7
			c0.6,0.3,1,0.8,1.5,1.2c0.5,0.4,0.9,0.8,1.2,1.3c0.3,0.4,0.6,0.7,0.8,1.1c0.1,0.2,0.2,0.4,0.3,0.7c0.1,0.3,0.3,0.5,0.4,0.7
			c0.3,0.6,0.6,1.2,0.6,1.9c0.2,1,0.4,2.1,0.4,3.1c0,1.1-0.2,2.1-0.4,3.2c-0.1,0.5-0.3,0.9-0.5,1.3c-0.2,0.6-0.6,1.1-0.9,1.7
			c-0.2,0.4-0.5,0.8-0.8,1.1c-0.2,0.3-0.4,0.5-0.6,0.8c-0.2,0.3-0.5,0.4-0.7,0.6c-0.2,0.2-0.4,0.3-0.6,0.5c-0.3,0.3-0.6,0.5-0.9,0.7
			c-0.3,0.2-0.5,0.3-0.8,0.5c0,0-0.1,0.1-0.1,0.1c0,0-0.1,0-0.1,0l0,0.1c-0.2,0.1-0.5,0.2-0.7,0.3c-0.3,0.1-0.5,0.3-0.8,0.4
			c-0.6,0.1-1.2,0.4-1.8,0.5c-1.5,0.3-3,0.3-4.4,0.1c-0.7-0.1-1.4-0.3-2.1-0.5c-0.5-0.2-1-0.4-1.5-0.6c-0.4-0.2-0.9-0.5-1.2-0.8
			c-0.3-0.2-0.6-0.3-0.9-0.6c-0.3-0.3-0.5-0.6-0.9-0.9c-0.3-0.2-0.5-0.6-0.7-0.8c-0.1-0.2-0.3-0.4-0.5-0.6c-0.3-0.3-0.4-0.6-0.6-0.9
			c-0.2-0.3-0.4-0.5-0.5-0.9c-0.6-1.5-1.2-3.1-1.2-4.8c0-1,0-2,0.3-3c0.1-0.4,0.2-0.9,0.4-1.3c0.2-0.6,0.4-1.2,0.7-1.7
			c0.2-0.4,0.5-0.8,0.7-1.2c0.3-0.5,0.7-0.9,1-1.4c0.3-0.3,0.7-0.6,1-0.9c0.3-0.3,0.6-0.6,0.9-0.7c0.1-0.1,0.3-0.1,0.4-0.3
			c0.1,0,0.1,0,0.2-0.1l0-0.1c0.2,0,0.3-0.1,0.5-0.2c0.2-0.1,0.4-0.2,0.5-0.3c0.4-0.3,0.8-0.3,1.2-0.5c0.1,0,0.2-0.1,0.3-0.1l0,0
			c0.1,0,0.2-0.1,0.3-0.1l0-0.1c0.1,0,0.1,0,0.2,0l0-0.1c0,0,0.1,0,0.2,0c0,0,0,0,0-0.1c0.1,0,0.1,0,0.2-0.1c0,0,0.1,0,0.1,0
			C169.1,30.2,169.3,30.2,169.5,30.1"/>
	</g>
	<g>
		<defs>
			<rect id="SVGID_00000024695923702028043120000009827340097275559353_" x="77.7" y="-167.1" width="1207.6" height="858.9"/>
		</defs>
		<clipPath id="SVGID_00000158018986849592523550000010801089960321436559_">
			<use xlink:href="#SVGID_00000024695923702028043120000009827340097275559353_"  style="overflow:visible;"/>
		</clipPath>
		<path id="path4148" style="clip-path:url(#SVGID_00000158018986849592523550000010801089960321436559_);fill:#CB232C;" d="
			M170.4,31.8c0.3,0,0.5-0.1,0.8-0.1c0.7,0,1.4,0,2.1,0.1c0.4,0.1,0.8,0.1,1.2,0.3c0.6,0.1,1.1,0.2,1.6,0.5c0.3,0.2,0.4,0.6,0.2,0.8
			c-0.3,0.2-0.7,0.3-1,0.5c-0.3,0.2-0.7,0.4-1,0.7c-0.3,0.4-0.7,0.7-0.8,1.2c-0.1,0.5-0.2,1-0.2,1.5c0,5,0,9.9,0,14.9
			c-1,0.1-2,0.2-2.9,0c0-4.9,0-9.9,0-14.8c0-0.7-0.1-1.4-0.4-1.9c-0.2-0.4-0.5-0.8-0.9-1.1c-0.3-0.2-0.6-0.5-1-0.6
			c-0.3-0.1-0.6-0.2-0.7-0.4c-0.1-0.3,0-0.6,0.3-0.7c0.5-0.3,1.1-0.4,1.7-0.5C169.7,31.9,170.1,31.9,170.4,31.8"/>
	</g>
	<g>
		<defs>
			<rect id="SVGID_00000063631587051926514740000015746471903611100814_" x="77.7" y="-167.1" width="1207.6" height="858.9"/>
		</defs>
		<clipPath id="SVGID_00000109002118417345363720000013743428613085709220_">
			<use xlink:href="#SVGID_00000063631587051926514740000015746471903611100814_"  style="overflow:visible;"/>
		</clipPath>
		<path id="path4150" style="clip-path:url(#SVGID_00000109002118417345363720000013743428613085709220_);fill:#CB232C;" d="
			M177.4,33.3c0.2,0.1,0.3,0.2,0.4,0.3c0.5,0.4,1,0.7,1.4,1.2c0.2,0.3,0.5,0.5,0.8,0.8c0.3,0.5,0.7,1,1,1.6c0.3,0.8,0.7,1.5,0.9,2.3
			c0.1,0.6,0.2,1.2,0.2,1.8c-0.3-0.1-0.7-0.1-1-0.3c-0.2-0.1-0.3-0.2-0.5-0.4c-0.2-0.3-0.3-0.7-0.6-0.9c-0.2,0.2-0.4,0.4-0.4,0.6
			c-0.1,0.4-0.2,0.8-0.2,1.3c0,0.6,0,1.3,0.2,1.9c0.1,0.3,0.2,0.5,0.4,0.7c0.1-0.1,0.2-0.2,0.3-0.3c0.3-0.7,1-1.2,1.7-1.2
			c0,0.6-0.1,1.2-0.3,1.8c-0.3,0.9-0.6,1.8-1.1,2.7c-0.2,0.4-0.5,0.8-0.8,1.1c-0.3,0.4-0.7,0.8-1.1,1.2c-0.4,0.4-0.9,0.8-1.4,1.1
			c0-3.5,0-6.9,0-10.4C177.4,37.9,177.4,35.6,177.4,33.3"/>
	</g>
	<g>
		<defs>
			<rect id="SVGID_00000143596225268199135910000012827404962531290812_" x="77.7" y="-167.1" width="1207.6" height="858.9"/>
		</defs>
		<clipPath id="SVGID_00000032607589790127241120000002629590948474663065_">
			<use xlink:href="#SVGID_00000143596225268199135910000012827404962531290812_"  style="overflow:visible;"/>
		</clipPath>
		<path id="path4152" style="clip-path:url(#SVGID_00000032607589790127241120000002629590948474663065_);fill:#CB232C;" d="
			M165.4,33.9c0.3-0.2,0.6-0.4,1-0.6c0,2.7,0,5.4,0,8.1c-0.4,0-0.7-0.1-1.1-0.2c-0.1-0.1-0.3-0.3-0.4-0.4c-0.1-0.2-0.2-0.4-0.4-0.6
			l-0.1,0c0,0,0-0.1,0-0.1c0,0-0.1,0-0.1,0c0,0,0-0.2-0.1-0.1c-0.1,0.1-0.2,0.3-0.3,0.5c-0.2,0.6-0.2,1.3-0.2,1.9c0,0.5,0,1,0.2,1.5
			c0.1,0.2,0.1,0.4,0.2,0.5c0.1,0,0.2,0,0.3-0.1c0,0,0-0.1,0-0.1l0.1,0c0.1-0.2,0.2-0.4,0.4-0.6c0.2-0.1,0.3-0.3,0.4-0.4
			c0.3-0.2,0.7-0.3,1.1-0.3c0,2.6,0,5.2,0,7.9c-0.3-0.2-0.6-0.3-0.9-0.5c-0.2-0.1-0.3-0.4-0.5-0.5c-0.3-0.3-0.6-0.4-0.8-0.7
			c-0.2-0.2-0.3-0.5-0.5-0.8c-0.4-0.4-0.7-0.9-0.9-1.4c-0.3-0.6-0.6-1.3-0.8-2c-0.4-1.7-0.4-3.5,0-5.3c0.3-0.9,0.6-1.8,1.1-2.6
			c0.4-0.5,0.7-1.1,1.1-1.6c0.3-0.3,0.6-0.6,0.9-0.8C165.2,34.2,165.2,34,165.4,33.9"/>
	</g>
	<g>
		<defs>
			<rect id="SVGID_00000127732197055409462920000014658925005105441408_" x="77.7" y="-167.1" width="1207.6" height="858.9"/>
		</defs>
		<clipPath id="SVGID_00000023970098519110895980000004362896994583984826_">
			<use xlink:href="#SVGID_00000127732197055409462920000014658925005105441408_"  style="overflow:visible;"/>
		</clipPath>
		<path id="path4154" style="clip-path:url(#SVGID_00000023970098519110895980000004362896994583984826_);fill:#CB232C;" d="
			M167.4,34.5c0.6,0.3,1.2,0.7,1.6,1.2c0.2,0.3,0.4,0.7,0.4,1.1c0,0.4,0,0.9,0,1.3c0,4.6,0,9.2,0,13.8c-0.7-0.1-1.4-0.3-2-0.7
			c0-3.1,0-6.1,0-9.2C167.4,39.5,167.4,37,167.4,34.5"/>
	</g>
	<g>
		<defs>
			<rect id="SVGID_00000124127622025712788500000008092979028433293461_" x="77.7" y="-167.1" width="1207.6" height="858.9"/>
		</defs>
		<clipPath id="SVGID_00000152967393728216952360000005126437921035212200_">
			<use xlink:href="#SVGID_00000124127622025712788500000008092979028433293461_"  style="overflow:visible;"/>
		</clipPath>
		<path id="path4156" style="clip-path:url(#SVGID_00000152967393728216952360000005126437921035212200_);fill:#CB232C;" d="
			M175.2,35.3c0.4-0.3,0.8-0.6,1.2-0.8c0,3.4,0,6.7,0,10.1c0,2.2,0,4.4,0,6.6c0,0.1-0.1,0.2-0.2,0.2c-0.6,0.3-1.2,0.5-1.9,0.6
			c0-4.8,0-9.6,0-14.4c0-0.5,0-1,0.2-1.4C174.7,35.8,175,35.5,175.2,35.3"/>
	</g>
	<g>
		<defs>
			<rect id="SVGID_00000089537488505757337710000004052197259363913148_" x="77.7" y="-167.1" width="1207.6" height="858.9"/>
		</defs>
		<clipPath id="SVGID_00000100376265288023649810000005239908013497065375_">
			<use xlink:href="#SVGID_00000089537488505757337710000004052197259363913148_"  style="overflow:visible;"/>
		</clipPath>
		<path id="path4158" style="clip-path:url(#SVGID_00000100376265288023649810000005239908013497065375_);fill:#0F0F0F;" d="
			M161,57.2c0.7,0.1,1.3,0.2,2,0.4c0,0.4-0.2,0.8-0.4,1.2c-0.2,0.5-0.4,1.2-0.8,1.6c0.1,0.1,0.1,0.1,0.2,0.2
			c-0.1,0.2-0.2,0.4-0.2,0.6c0,2.3,0,4.6,0,6.9c0,0.2,0,0.4-0.2,0.5c-0.5,0.1-1,0-1.4,0c0-2.1,0-4.2,0-6.3c-0.3,0.3-0.6,0.7-0.9,1
			c-0.2,0.2-0.4,0.3-0.5,0.6c0,0,0-0.1,0-0.1c-0.1,0-0.2,0-0.2-0.1c0.1-0.3,0.3-0.5,0.5-0.8c0.2-0.3,0.3-0.6,0.4-0.9
			c0.2-0.6,0.4-1.1,0.6-1.6C160.5,59.3,160.8,58.3,161,57.2"/>
	</g>
	<g>
		<defs>
			<rect id="SVGID_00000018214010682406934840000008219005253274037951_" x="77.7" y="-167.1" width="1207.6" height="858.9"/>
		</defs>
		<clipPath id="SVGID_00000036930740794632803610000006948212089690578561_">
			<use xlink:href="#SVGID_00000018214010682406934840000008219005253274037951_"  style="overflow:visible;"/>
		</clipPath>
		<path id="path4160" style="clip-path:url(#SVGID_00000036930740794632803610000006948212089690578561_);fill:#0F0F0F;" d="
			M165,57.2c0.5,0,1,0,1.6,0.2c0.5,0.1,0.8,0.6,0.8,1.1c0,0.3-0.3,0.6-0.6,0.8c0.5,0,1,0,1.5,0c0.1,0,0.2-0.1,0.3-0.2
			c0.3-0.3,0.7-0.5,0.9-0.9c0.4,0.4,0.9,0.7,1.3,1.1c0.2,0.1,0.2,0.4,0.1,0.5c-1,0-1.9,0-2.9,0c-1.7,0-3.5,0-5.2,0
			c0-0.2,0-0.3,0-0.5c1,0,2,0,3,0c-0.2-0.2-0.2-0.6-0.3-0.9c-0.1-0.3-0.2-0.6-0.2-0.8C165.1,57.4,165,57.4,165,57.2"/>
	</g>
	<g>
		<defs>
			<rect id="SVGID_00000152972912137798237790000014235842898866634661_" x="77.7" y="-167.1" width="1207.6" height="858.9"/>
		</defs>
		<clipPath id="SVGID_00000044150718227417340410000012681610531267841724_">
			<use xlink:href="#SVGID_00000152972912137798237790000014235842898866634661_"  style="overflow:visible;"/>
		</clipPath>
		<path id="path4162" style="clip-path:url(#SVGID_00000044150718227417340410000012681610531267841724_);fill:#0F0F0F;" d="
			M176.1,62.1c0,0.4,0,0.7,0,1.1c0.7,0,1.5,0,2.2,0c0-0.4,0-0.7,0-1.1C177.6,62.1,176.8,62.1,176.1,62.1 M176.1,60.7
			c0,0.4,0,0.7,0,1.1c0.7,0,1.5,0,2.2,0c0-0.4,0-0.7,0-1.1C177.6,60.7,176.8,60.7,176.1,60.7 M176.1,59.4c0,0.3,0,0.7,0,1
			c0.7,0,1.5,0,2.2,0c0-0.3,0-0.6,0-1C177.6,59.4,176.8,59.4,176.1,59.4 M174.8,58.8c0.3-0.5,0.4-1.1,0.6-1.6
			c0.6,0.1,1.1,0.2,1.7,0.4c0,0.3-0.2,0.5-0.3,0.7c-0.2,0.2-0.3,0.4-0.4,0.6c0.7,0,1.4,0,2.1,0c-0.3-0.5-0.1-1.2-0.5-1.7
			c0.5,0,1,0,1.5,0.2c0.4,0.2,0.6,0.8,0.4,1.2c-0.1,0.2-0.3,0.2-0.4,0.3c0.7,0,1.4,0,2.1,0c0.4-0.2,0.7-0.7,1-1
			c0.2,0.2,0.5,0.4,0.7,0.6c0.1,0.2,0.4,0.3,0.6,0.5c0.1,0.1,0.1,0.2,0.1,0.4c-0.1,0.1-0.2,0.1-0.3,0.1c-1.3,0-2.7,0-4,0
			c0,0.3,0,0.6,0,1c0.5,0,1,0,1.6,0c0.4-0.2,0.6-0.6,1-0.9c0.4,0.3,0.7,0.6,1,0.8c0.1,0.1,0.1,0.3,0.1,0.4c-1.2,0-2.5,0-3.7,0
			c0,0.4,0,0.7,0,1.1c0.4,0,0.9,0,1.3,0c0.1,0,0.2,0,0.3,0c0.4-0.2,0.6-0.6,1-0.9c0.4,0.3,0.8,0.7,1.1,1c0.1,0.1,0.1,0.2,0,0.3
			c-1.2,0-2.4,0-3.7,0c0,0.4,0,0.7,0,1.1c0.6,0,1.1,0,1.7,0c0.3,0,0.5-0.2,0.7-0.4c0.2-0.2,0.4-0.4,0.6-0.6c0.1,0.1,0.3,0.2,0.4,0.3
			c0.2,0.1,0.3,0.4,0.5,0.5c0.2,0.1,0.5,0.2,0.5,0.4c0,0.1-0.1,0.1-0.2,0.1c-2.6,0-5.3,0-7.9,0c0,0.2,0,0.3,0,0.5
			c-0.1,0.1-0.3,0.1-0.4,0.1c-0.4,0-0.7,0-1.1,0c0-1.2,0-2.4,0-3.6c-0.4,0.3-0.8,0.5-1.1,0.8c-0.2,0.1-0.3,0.3-0.6,0.3
			c0.4-0.5,0.7-1.1,1.2-1.6C174.3,59.7,174.5,59.2,174.8,58.8"/>
	</g>
	<g>
		<defs>
			<rect id="SVGID_00000150819935254187848970000015249188892085207432_" x="77.7" y="-167.1" width="1207.6" height="858.9"/>
		</defs>
		<clipPath id="SVGID_00000180336047046449197730000016181820855666777781_">
			<use xlink:href="#SVGID_00000150819935254187848970000015249188892085207432_"  style="overflow:visible;"/>
		</clipPath>
		<path id="path4164" style="clip-path:url(#SVGID_00000180336047046449197730000016181820855666777781_);fill:#0F0F0F;" d="
			M151.9,60.7c0,1.1,0,2.1,0,3.2c0.9,0,1.7,0,2.6,0c0-1.1,0-2.1,0-3.2C153.7,60.7,152.8,60.7,151.9,60.7 M147.6,60.7
			c0,1.1,0,2.1,0,3.2c0.8,0,1.7,0,2.5,0c0-1.1,0-2.1,0-3.2C149.3,60.7,148.5,60.7,147.6,60.7 M150.2,57.3c0.6,0.1,1.2,0.1,1.9,0.3
			c0.2,0.2-0.1,0.5-0.1,0.8c0,0.6,0,1.2,0,1.8c0.8,0,1.6,0,2.3,0c0.1,0,0.1-0.1,0.2-0.1c0.2-0.2,0.4-0.4,0.6-0.7c0,0,0.1,0,0.1,0
			c0.3,0.2,0.8,0.3,1.1,0.5c0.2,0.1,0.4,0.1,0.4,0.4c-0.1,0.2-0.3,0.4-0.5,0.6c0,1.3,0,2.7,0,4c0,0.2-0.1,0.3-0.3,0.4
			c-0.5,0.1-1,0.1-1.4,0.1c0-0.3,0-0.6,0-0.9c-0.9,0-1.7,0-2.6,0c0,1.3,0,2.5,0,3.8c0,0.2-0.1,0.4-0.2,0.5c-0.5,0-1,0-1.6,0
			c0-1.4,0-2.8,0-4.3c-0.8,0-1.7,0-2.5,0c0,0.2,0.1,0.5-0.2,0.7c-0.5,0.2-1.1,0.4-1.6,0.6c0-2,0-4,0-6c0.7,0.1,1.3,0.3,2,0.4
			c0.8,0,1.5,0,2.3,0C150.2,59.2,150.2,58.2,150.2,57.3"/>
	</g>
	<g>
		<defs>
			<rect id="SVGID_00000155832454934404828250000000673968407269467821_" x="77.7" y="-167.1" width="1207.6" height="858.9"/>
		</defs>
		<clipPath id="SVGID_00000157271607666726849730000009273561702070095788_">
			<use xlink:href="#SVGID_00000155832454934404828250000000673968407269467821_"  style="overflow:visible;"/>
		</clipPath>
		<path id="path4166" style="clip-path:url(#SVGID_00000157271607666726849730000009273561702070095788_);fill:#0F0F0F;" d="
			M188.5,58.9c0,2.9,0,5.8,0,8.6c2.5,0,4.9,0,7.4,0c0-2.9,0-5.7,0-8.6C193.5,58.9,191,58.9,188.5,58.9 M195.7,58.4
			c0.3-0.3,0.4-0.7,0.6-1c0.4,0.1,0.8,0.4,1.2,0.6c0.2,0.1,0.3,0.1,0.4,0.3c0,0.1-0.1,0.1-0.1,0.2c-0.1,0.1-0.2,0.3-0.4,0.4
			c0,2.2,0,4.4,0,6.6c0,1.1,0,2.1,0,3.2c-0.5,0.1-1,0-1.5,0c0-0.2,0-0.4,0-0.6c-2.5,0-4.9,0-7.4,0c0,0.2,0,0.5-0.2,0.5
			c-0.5,0-1,0-1.5,0c0-3.6,0-7.3,0-10.9c0.7,0.2,1.4,0.5,2.2,0.6C191.2,58.4,193.5,58.4,195.7,58.4"/>
	</g>
	<g>
		<defs>
			<rect id="SVGID_00000149383740785420633590000014766363736801624237_" x="77.7" y="-167.1" width="1207.6" height="858.9"/>
		</defs>
		<clipPath id="SVGID_00000025419699018343169520000015217356064569447321_">
			<use xlink:href="#SVGID_00000149383740785420633590000014766363736801624237_"  style="overflow:visible;"/>
		</clipPath>
		<path id="path4168" style="clip-path:url(#SVGID_00000025419699018343169520000015217356064569447321_);fill:#0F0F0F;" d="
			M192.2,59.4c0.5,0,1.1,0.1,1.6,0.1c0,0.6,0,1.2,0,1.9c0.1,0,0.2,0,0.2,0c0.3-0.2,0.5-0.5,0.8-0.7c0.3,0.4,0.8,0.7,1,1.1
			c-0.1,0.1-0.2,0.1-0.3,0.1c-0.6,0-1.2,0-1.8,0c0,1.2,0,2.4,0,3.6c0,0.3,0,0.6-0.2,0.9c-0.4,0.5-1.1,0.8-1.8,0.9
			c0-0.4-0.2-0.9-0.5-1.2c-0.3-0.2-0.6-0.2-0.9-0.4c0.1-0.1,0.3,0,0.4,0c0.4,0,0.7,0,1.1,0c0.2,0,0.4-0.2,0.4-0.4c0-0.8,0-1.7,0-2.5
			c0,0-0.1,0.1-0.1,0.1c-0.2,0.3-0.4,0.7-0.6,1c-0.2,0.4-0.6,0.6-0.9,0.9c-0.2,0.2-0.3,0.4-0.6,0.6c-0.2,0.1-0.5,0.3-0.7,0.4
			c-0.2,0.1-0.4,0.3-0.6,0.2c0.4-0.6,0.8-1.2,1.3-1.8c0.2-0.3,0.3-0.8,0.5-1.1c0.2-0.4,0.3-0.8,0.4-1.2c-0.6,0-1.3,0-1.9,0
			c0-0.2,0-0.3,0-0.5c1,0,2.1,0,3.1,0C192.2,60.7,192.2,60,192.2,59.4"/>
	</g>
	<g>
		<defs>
			<rect id="SVGID_00000067196314279481358890000017596165281438607237_" x="77.7" y="-167.1" width="1207.6" height="858.9"/>
		</defs>
		<clipPath id="SVGID_00000159456475184407067640000010173269697817084857_">
			<use xlink:href="#SVGID_00000067196314279481358890000017596165281438607237_"  style="overflow:visible;"/>
		</clipPath>
		<path id="path4170" style="clip-path:url(#SVGID_00000159456475184407067640000010173269697817084857_);fill:#0F0F0F;" d="
			M167.7,61.1c0.4-0.4,0.8-0.7,1.2-1c0.4,0.3,0.8,0.7,1.2,1c0.1,0.1,0.2,0.2,0.2,0.4c0,0.1-0.1,0.2-0.2,0.2c-1.2,0-2.5,0-3.7,0
			c-1.2,0-2.3,0-3.5,0c0-0.2,0-0.4,0-0.6C164.6,61.1,166.1,61.1,167.7,61.1"/>
	</g>
	<g>
		<defs>
			<rect id="SVGID_00000007418046458690280420000016997784592348501140_" x="77.7" y="-167.1" width="1207.6" height="858.9"/>
		</defs>
		<clipPath id="SVGID_00000062878849035198616930000004479744377369237941_">
			<use xlink:href="#SVGID_00000007418046458690280420000016997784592348501140_"  style="overflow:visible;"/>
		</clipPath>
		<path id="path4172" style="clip-path:url(#SVGID_00000062878849035198616930000004479744377369237941_);fill:#0F0F0F;" d="
			M168.8,61.8c0.1-0.1,0.2,0.1,0.3,0.1c0.4,0.4,0.8,0.8,1.3,1.1c0,0.1-0.1,0.2-0.2,0.3c-2.4,0-4.8,0-7.2,0c0-0.2,0-0.3,0-0.5
			c1.6,0,3.2,0,4.8,0c0.2-0.2,0.3-0.4,0.5-0.5C168.5,62.2,168.6,62,168.8,61.8"/>
	</g>
	<g>
		<defs>
			<rect id="SVGID_00000147941850721805666020000012681651668021904283_" x="77.7" y="-167.1" width="1207.6" height="858.9"/>
		</defs>
		<clipPath id="SVGID_00000044139637374557371920000000509815625688902786_">
			<use xlink:href="#SVGID_00000147941850721805666020000012681651668021904283_"  style="overflow:visible;"/>
		</clipPath>
		<path id="path4174" style="clip-path:url(#SVGID_00000044139637374557371920000000509815625688902786_);fill:#0F0F0F;" d="
			M182.8,64.4c0.2-0.2,0.5-0.4,0.7-0.6c0,0.1,0.1,0.2,0.3,0.3c0.2,0.2,0.5,0.3,0.7,0.5c0.1,0.1,0.1,0.2,0.2,0.2c0,0-0.1,0.1-0.1,0.2
			c-1.5,0-3,0-4.4,0c0.5,0.4,1,0.8,1.6,1c0.4,0.1,0.7,0.3,1.1,0.4c0.7,0.2,1.4,0.3,2.1,0.4c-0.3,0.3-0.7,0.6-1,0.9
			c-0.1,0.1-0.2,0.3-0.2,0.4c0,0.1-0.1,0.3-0.1,0.4c-0.5-0.2-1.1-0.4-1.5-0.8c-0.2-0.2-0.4-0.2-0.6-0.4c-0.4-0.3-0.7-0.7-1-1.1
			c-0.2-0.3-0.4-0.6-0.5-0.9c0,1,0,2,0,3c0,0.2-0.1,0.3-0.3,0.3c-0.5,0-1,0-1.4,0c0-0.8,0-1.6,0-2.4c-0.2,0.1-0.4,0.4-0.6,0.5
			c-0.4,0.3-0.8,0.4-1.2,0.6c-0.7,0.2-1.4,0.5-2.2,0.7c-0.4,0.1-0.7,0.2-1,0.2c0-0.1,0.1-0.1,0.1-0.2c0.5-0.3,1-0.6,1.5-0.9
			c0.3-0.1,0.5-0.3,0.7-0.5c0.3-0.3,0.7-0.5,1-0.8c0.3-0.4,0.6-0.7,0.9-1c-1.4,0-2.8,0-4.2,0c0-0.2,0-0.4,0-0.5c0.4,0,0.7,0,1.1,0
			c1.3,0,2.5,0,3.8,0c0-0.2,0-0.4,0-0.6c0.6,0,1.2,0.1,1.8,0.2c0,0.1,0,0.3,0,0.4C180.8,64.4,181.8,64.5,182.8,64.4"/>
	</g>
	<g>
		<defs>
			<rect id="SVGID_00000089567458280725000610000018167241937453657729_" x="77.7" y="-167.1" width="1207.6" height="858.9"/>
		</defs>
		<clipPath id="SVGID_00000122001845844669456560000013053169154273573529_">
			<use xlink:href="#SVGID_00000089567458280725000610000018167241937453657729_"  style="overflow:visible;"/>
		</clipPath>
		<path id="path4176" style="clip-path:url(#SVGID_00000122001845844669456560000013053169154273573529_);fill:#0F0F0F;" d="
			M164.7,65.3c0,0.7,0,1.5,0,2.2c1.1,0,2.2,0,3.3,0c0-0.7,0-1.5,0-2.2C167,65.3,165.9,65.3,164.7,65.3 M168.6,64.1
			c0.1-0.1,0.1-0.1,0.2-0.2c0.5,0.2,0.9,0.5,1.4,0.7c0,0.1,0.1,0.1,0.1,0.2c-0.1,0.2-0.3,0.3-0.4,0.5c0,1,0,2,0,3
			c0,0.2-0.1,0.4-0.3,0.4c-0.5,0-0.9,0-1.4,0c0-0.2,0-0.4,0-0.6c-1.1,0-2.2,0-3.3,0c0,0.2,0,0.5-0.2,0.6c-0.5,0.1-1,0-1.5,0
			c0-1.5,0-2.9,0-4.4c0.7,0.1,1.3,0.3,1.9,0.4c1,0,2,0,2.9,0C168.1,64.4,168.4,64.3,168.6,64.1"/>
	</g>
	<g>
		<defs>
			<rect id="SVGID_00000165943564718621658980000009934453666415824310_" x="77.7" y="-167.1" width="1207.6" height="858.9"/>
		</defs>
		<clipPath id="SVGID_00000140726150007580700510000005479226298202280593_">
			<use xlink:href="#SVGID_00000165943564718621658980000009934453666415824310_"  style="overflow:visible;"/>
		</clipPath>
		<path id="path4178" style="clip-path:url(#SVGID_00000140726150007580700510000005479226298202280593_);fill:#0F0F0F;" d="
			M147.7,71c0.4-0.1,0.9-0.2,1.3-0.2c0.7,0,1.4,0.2,2,0.6c0.4,0.2,0.4,0.6,0.7,0.9c0,0,0,0.1,0,0.2c-0.1,0.1-0.3,0.2-0.3,0.3
			c-0.1,0-0.2,0-0.2,0c0-0.1-0.1-0.1-0.1-0.2H151c0-0.1-0.1-0.2-0.2-0.3c-0.1-0.1-0.3-0.2-0.5-0.4c-0.4-0.4-1-0.5-1.5-0.4
			c-0.3,0-0.6,0.2-0.8,0.4c-1,0.9-1,2.4-0.3,3.5c0.4,0.5,1,0.9,1.6,0.8c0.5,0,0.8-0.4,1.2-0.7c0.2-0.1,0.4-0.4,0.5-0.6
			c0.1,0,0.1,0,0.2,0c0.1,0.1,0.2,0.3,0.3,0.3c0,0,0.1,0.1,0.1,0.1c-0.2,0.2-0.3,0.3-0.5,0.5c-0.2,0.2-0.4,0.4-0.6,0.6
			c-0.4,0.2-0.8,0.4-1.2,0.4c-0.6,0.1-1.2,0-1.7-0.2c-0.3-0.1-0.6-0.2-0.8-0.4c-0.3-0.3-0.6-0.6-0.9-0.9c-0.4-0.7-0.4-1.5-0.3-2.2
			c0.1-0.8,0.7-1.5,1.3-2C147.3,71.2,147.5,71.1,147.7,71"/>
	</g>
	<g>
		<defs>
			<rect id="SVGID_00000023261502010571529410000006889482630623022237_" x="77.7" y="-167.1" width="1207.6" height="858.9"/>
		</defs>
		<clipPath id="SVGID_00000111896032577101594190000000146720402568904098_">
			<use xlink:href="#SVGID_00000023261502010571529410000006889482630623022237_"  style="overflow:visible;"/>
		</clipPath>
		<path id="path4180" style="clip-path:url(#SVGID_00000111896032577101594190000000146720402568904098_);fill:#0F0F0F;" d="
			M166.5,70.8c0.7-0.2,1.5-0.1,2.2,0.2c0.3,0.2,0.7,0.4,0.9,0.7c0.1,0.1,0.2,0.3,0.3,0.4c0.1,0.1,0,0.2,0,0.3c0,0-0.1,0-0.1,0
			c0,0,0,0.1-0.1,0.1c-0.1,0.1-0.2,0.2-0.4,0.1c-0.1-0.1-0.2-0.3-0.3-0.4c0,0-0.1-0.1-0.1-0.1c-0.3-0.2-0.5-0.5-0.8-0.6
			c-0.4-0.2-0.9-0.2-1.4,0c-0.3,0.1-0.5,0.4-0.7,0.6c-0.2,0.3-0.4,0.7-0.5,1.1c-0.1,0.7,0,1.5,0.4,2.2c0,0.1,0.1,0.1,0.2,0.2
			c0.2,0.2,0.4,0.4,0.6,0.5c0.4,0.2,0.9,0.2,1.2,0.1c0.4-0.2,0.7-0.5,1.1-0.8c0-0.1,0.1-0.2,0.2-0.3c0-0.1,0.2-0.1,0.2-0.1
			c0.1,0.2,0.4,0.3,0.4,0.5c-0.3,0.3-0.5,0.7-0.9,0.9c-0.2,0.2-0.5,0.3-0.8,0.4c-0.7,0.3-1.5,0.2-2.2,0c-0.3-0.1-0.6-0.2-0.9-0.4
			c-0.3-0.3-0.6-0.6-0.9-0.9c-0.3-0.4-0.4-0.9-0.4-1.3c-0.1-0.7,0-1.5,0.5-2.1c0.3-0.3,0.6-0.6,0.9-0.9
			C165.7,71,166.1,71,166.5,70.8"/>
	</g>
	<g>
		<defs>
			<rect id="SVGID_00000154399307924577791430000013324858331052923326_" x="77.7" y="-167.1" width="1207.6" height="858.9"/>
		</defs>
		<clipPath id="SVGID_00000041270855952969985610000016443547879377005712_">
			<use xlink:href="#SVGID_00000154399307924577791430000013324858331052923326_"  style="overflow:visible;"/>
		</clipPath>
		<path id="path4182" style="clip-path:url(#SVGID_00000041270855952969985610000016443547879377005712_);fill:#0F0F0F;" d="
			M174.3,71c0.7-0.2,1.4-0.4,2.1-0.2c0.5,0.2,1.1,0.4,1.5,0.8c0.1,0.2,0.3,0.3,0.4,0.5c-0.2,0.2-0.3,0.3-0.5,0.5
			c-0.2-0.1-0.3-0.4-0.5-0.5c-0.4-0.3-0.8-0.7-1.3-0.7c-0.4,0-0.8,0-1.1,0.3c-0.2,0.1-0.4,0.3-0.6,0.5c-0.2,0.4-0.4,0.8-0.4,1.3
			c-0.1,0.5,0,1.1,0.3,1.6c0.1,0.2,0.1,0.4,0.3,0.5c0.3,0.2,0.6,0.4,0.9,0.5c0.4,0.1,0.8,0.1,1.2-0.1c0.1,0,0.2-0.1,0.2-0.1
			c0-0.5,0-0.9,0-1.4c0-0.1-0.1-0.2-0.2-0.2c-0.4,0-0.7,0-1.1,0c0-0.2,0-0.3,0-0.5c0.8,0,1.5,0,2.3,0c0.2,0,0.3,0.1,0.3,0.3
			c0,0.6,0,1.2,0,1.8c0,0.1-0.1,0.2-0.2,0.3c-0.2,0.1-0.5,0.3-0.7,0.4c-0.5,0.1-1,0.2-1.5,0.2c-0.5,0-0.9-0.1-1.4-0.2
			c-0.3-0.1-0.7-0.2-0.9-0.5c-0.3-0.2-0.5-0.5-0.7-0.7c-0.6-0.9-0.6-2.1-0.1-3C173,71.8,173.6,71.2,174.3,71"/>
	</g>
	<g>
		<defs>
			<rect id="SVGID_00000159428209644278488470000017000826307982952075_" x="77.7" y="-167.1" width="1207.6" height="858.9"/>
		</defs>
		<clipPath id="SVGID_00000007420406730407165540000016681440790105804420_">
			<use xlink:href="#SVGID_00000159428209644278488470000017000826307982952075_"  style="overflow:visible;"/>
		</clipPath>
		<path id="path4184" style="clip-path:url(#SVGID_00000007420406730407165540000016681440790105804420_);fill:#0F0F0F;" d="
			M152.7,70.9c0.5,0,1,0,1.4,0c0,2,0,4,0,6c-0.5,0-1,0-1.4,0c0-1.7,0-3.3,0-5C152.7,71.5,152.7,71.2,152.7,70.9"/>
	</g>
	<g>
		<defs>
			<rect id="SVGID_00000077319709780488673470000015760126858458442654_" x="77.7" y="-167.1" width="1207.6" height="858.9"/>
		</defs>
		<clipPath id="SVGID_00000111901842995887068350000014531367550167673237_">
			<use xlink:href="#SVGID_00000077319709780488673470000015760126858458442654_"  style="overflow:visible;"/>
		</clipPath>
		<path id="path4186" style="clip-path:url(#SVGID_00000111901842995887068350000014531367550167673237_);fill:#0F0F0F;" d="
			M155.1,70.9c1.8,0,3.7,0,5.5,0c0,0.3,0,0.5,0,0.8c-0.7,0-1.4,0-2.1,0c0,1.7,0,3.5,0,5.2c-0.5,0-0.9,0-1.4,0c0-1.7,0-3.5,0-5.2
			c-0.7,0-1.4,0-2,0C155.1,71.4,155.1,71.2,155.1,70.9"/>
	</g>
	<g>
		<defs>
			<rect id="SVGID_00000036953924780282490050000004451325731432671648_" x="77.7" y="-167.1" width="1207.6" height="858.9"/>
		</defs>
		<clipPath id="SVGID_00000108282233131676863640000015913350836861240763_">
			<use xlink:href="#SVGID_00000036953924780282490050000004451325731432671648_"  style="overflow:visible;"/>
		</clipPath>
		<path id="path4188" style="clip-path:url(#SVGID_00000108282233131676863640000015913350836861240763_);fill:#0F0F0F;" d="
			M161.5,70.9c0.5,0,0.9,0,1.4,0c0,2,0,4,0,6c-0.5,0-0.9,0-1.4,0C161.5,74.9,161.5,72.9,161.5,70.9"/>
	</g>
	<g>
		<defs>
			<rect id="SVGID_00000139283976230466114640000018186485176693511064_" x="77.7" y="-167.1" width="1207.6" height="858.9"/>
		</defs>
		<clipPath id="SVGID_00000060000525491091874210000012220371308028876177_">
			<use xlink:href="#SVGID_00000139283976230466114640000018186485176693511064_"  style="overflow:visible;"/>
		</clipPath>
		<path id="path4190" style="clip-path:url(#SVGID_00000060000525491091874210000012220371308028876177_);fill:#0F0F0F;" d="
			M179.4,72.1c0.4,0,0.9,0,1.3,0c0,0.2,0,0.4,0,0.6c0.3-0.2,0.5-0.4,0.8-0.5c0.3-0.1,0.6-0.1,0.9,0.1c0.2,0.1,0.4,0.4,0.3,0.7
			c-0.1,0.3-0.5,0.4-0.8,0.3c-0.2-0.1-0.4-0.3-0.7-0.3c-0.2,0.2-0.5,0.3-0.5,0.6c0,1.1,0,2.1,0,3.2c-0.4,0-0.9,0-1.3,0
			C179.4,75.2,179.4,73.7,179.4,72.1"/>
	</g>
	<g>
		<defs>
			<rect id="SVGID_00000006689269023707019430000013321964463757126306_" x="77.7" y="-167.1" width="1207.6" height="858.9"/>
		</defs>
		<clipPath id="SVGID_00000015337843721598788120000008671420509620814218_">
			<use xlink:href="#SVGID_00000006689269023707019430000013321964463757126306_"  style="overflow:visible;"/>
		</clipPath>
		<path id="path4192" style="clip-path:url(#SVGID_00000015337843721598788120000008671420509620814218_);fill:#0F0F0F;" d="
			M188.5,72.1c0.4,0,0.9,0,1.3,0c0,1.1,0,2.3,0,3.4c0.1,0.2,0.3,0.5,0.6,0.5c0.3,0,0.6-0.3,0.8-0.5c0.1-1.1,0-2.3,0-3.4
			c0.4,0,0.9,0,1.3,0c0,1.6,0,3.1,0,4.7c-0.4,0-0.9,0-1.3,0c0-0.2,0-0.4,0-0.6c-0.2,0.2-0.3,0.4-0.6,0.5c-0.2,0.1-0.3,0.1-0.5,0.2
			c-0.3,0-0.6,0-0.9-0.1c-0.1,0-0.2-0.1-0.3-0.2c-0.3-0.3-0.5-0.7-0.5-1.1C188.5,74.2,188.5,73.2,188.5,72.1"/>
	</g>
	<g>
		<defs>
			<rect id="SVGID_00000121279434490412531760000007481636489183701163_" x="77.7" y="-167.1" width="1207.6" height="858.9"/>
		</defs>
		<clipPath id="SVGID_00000000216152484119350720000000320254832224884618_">
			<use xlink:href="#SVGID_00000121279434490412531760000007481636489183701163_"  style="overflow:visible;"/>
		</clipPath>
		<path id="path4194" style="clip-path:url(#SVGID_00000000216152484119350720000000320254832224884618_);fill:#0F0F0F;" d="
			M195.3,73c-0.3,0.1-0.5,0.4-0.5,0.7c0,0.6,0,1.3,0,1.9c0,0.2,0.2,0.4,0.3,0.5c0.2,0.2,0.5,0.3,0.8,0.2c0.2-0.1,0.2-0.3,0.3-0.5
			c0.2-0.3,0.2-0.7,0.2-1c0-0.6-0.1-1.3-0.6-1.7C195.8,72.9,195.5,72.9,195.3,73 M193.5,72.1c0.4,0,0.9,0,1.3,0c0,0.2,0,0.4-0.1,0.6
			c0.1-0.2,0.4-0.3,0.6-0.4c0.6-0.3,1.5-0.2,1.9,0.3c0.3,0.3,0.5,0.7,0.6,1.1c0.1,0.6,0.1,1.2-0.2,1.7c-0.2,0.3-0.4,0.7-0.6,0.9
			c-0.3,0.2-0.6,0.3-0.9,0.4c-0.4,0.1-0.8,0.1-1.1-0.1c-0.1,0-0.2-0.1-0.2-0.2c0,0.9,0,1.7,0,2.6c-0.4,0-0.9,0-1.3,0
			C193.5,76.7,193.5,74.4,193.5,72.1"/>
	</g>
	<g>
		<defs>
			<rect id="SVGID_00000081617869586865513000000005868133835241613967_" x="77.7" y="-167.1" width="1207.6" height="858.9"/>
		</defs>
		<clipPath id="SVGID_00000098913609268161505570000015709067883734350267_">
			<use xlink:href="#SVGID_00000081617869586865513000000005868133835241613967_"  style="overflow:visible;"/>
		</clipPath>
		<path id="path4196" style="clip-path:url(#SVGID_00000098913609268161505570000015709067883734350267_);fill:#0F0F0F;" d="
			M185,72.8c-0.1,0.1-0.2,0.2-0.3,0.4c-0.2,0.5-0.2,0.9-0.2,1.4c0.1,0.4,0.1,0.9,0.4,1.2c0.2,0.3,0.5,0.5,0.9,0.4
			c0.3-0.1,0.5-0.5,0.5-0.8c0.1-0.6,0.1-1.2-0.1-1.8c0-0.3-0.3-0.5-0.5-0.7C185.5,72.8,185.2,72.7,185,72.8 M183.9,72.8
			c0.5-0.3,0.9-0.6,1.5-0.6c0.8,0,1.6,0.4,2.1,1c0.2,0.3,0.3,0.7,0.3,1c0,0.3,0,0.6-0.1,0.8c0,0.2-0.1,0.4-0.2,0.6
			c-0.2,0.2-0.4,0.5-0.6,0.7c-0.4,0.3-0.9,0.4-1.4,0.5c-0.7,0-1.4-0.2-1.8-0.7c-0.1-0.2-0.1-0.4-0.3-0.5c-0.2-0.4-0.3-0.9-0.2-1.3
			c0.1-0.4,0.2-0.8,0.4-1.2C183.6,72.9,183.7,72.9,183.9,72.8"/>
	</g>
</g>
</svg>
