<?xml version="1.0" encoding="utf-8"?>
<!-- Generator: Adobe Illustrator 28.0.0, SVG Export Plug-In . SVG Version: 6.00 Build 0)  -->
<svg version="1.1" id="svg1" xmlns:svg="http://www.w3.org/2000/svg"
	 xmlns="http://www.w3.org/2000/svg" xmlns:xlink="http://www.w3.org/1999/xlink" x="0px" y="0px" viewBox="0 0 39.1 39.1"
	 style="enable-background:new 0 0 39.1 39.1;" xml:space="preserve">
<style type="text/css">
	.st0{clip-path:url(#SVGID_00000096756784692785470140000008739512363807415430_);fill:#2F6B39;}
	.st1{clip-path:url(#SVGID_00000178911135390563232430000004556788499792526268_);fill:#2F6B39;}
	.st2{clip-path:url(#SVGID_00000178924339513308285380000009747983405405851789_);fill:#2F6B39;}
	.st3{clip-path:url(#SVGID_00000117658006661216798930000016750570736944630407_);fill:#2F6B39;}
	.st4{clip-path:url(#SVGID_00000145772385490129509850000014445983658522586245_);fill:#2F6B39;}
	.st5{clip-path:url(#SVGID_00000031903761563392075150000001947531931519413693_);fill:#2F6B39;}
	.st6{clip-path:url(#SVGID_00000148646092109793586410000004224339942547530922_);fill:#2F6B39;}
	.st7{clip-path:url(#SVGID_00000024692698086920786040000010427735954578666168_);fill:#2F6B39;}
	.st8{clip-path:url(#SVGID_00000145022416948368104920000003558513340560807561_);fill:#2F6B39;}
	.st9{clip-path:url(#SVGID_00000074400513634836349690000006272673897598142095_);fill:#2F6B39;}
	.st10{clip-path:url(#SVGID_00000174579402761373727040000008149714725732699787_);fill:#2F6B39;}
	.st11{clip-path:url(#SVGID_00000082328833619523437290000016157266665879904676_);fill:#2F6B39;}
	.st12{clip-path:url(#SVGID_00000040544864179518126400000007654880499240363450_);fill:#2F6B39;}
	.st13{clip-path:url(#SVGID_00000168822813988146046740000003727448457358998188_);fill:#2F6B39;}
	.st14{clip-path:url(#SVGID_00000082366161246022064220000000921224337019716242_);fill:#2F6B39;}
	.st15{clip-path:url(#SVGID_00000050653601936265762880000006853958189599858049_);fill:#2F6B39;}
	.st16{clip-path:url(#SVGID_00000097466056032745182230000018033834702440773780_);fill:#2F6B39;}
	.st17{clip-path:url(#SVGID_00000026846368838307476830000015776355252246417073_);fill:#2F6B39;}
	.st18{clip-path:url(#SVGID_00000000906696524480629450000003642013370543516824_);fill:#2F6B39;}
	.st19{clip-path:url(#SVGID_00000076567652267495246650000012231486739318888346_);fill:#2F6B39;}
</style>
<g id="layer1" transform="translate(-105.58275,-196.4947)">
	<g>
		<defs>
			<rect id="SVGID_1_" x="-212.5" y="-557.2" width="1207.6" height="858.9"/>
		</defs>
		<clipPath id="SVGID_00000099641715932822048890000016904447256415076025_">
			<use xlink:href="#SVGID_1_"  style="overflow:visible;"/>
		</clipPath>
		<path id="path3627" style="clip-path:url(#SVGID_00000099641715932822048890000016904447256415076025_);fill:#2F6B39;" d="
			M124.1,197.3c-2,0.1-4.1,0.6-6,1.3c-2.3,0.9-4.3,2.3-6.1,3.9c-1.9,1.8-3.3,4-4.3,6.3c-1.4,3.5-1.8,7.4-1,11.1
			c0.4,1.9,1.1,3.8,2.1,5.5c1.5,2.7,3.8,5,6.4,6.6c3,1.8,6.4,2.8,9.9,2.8c3.6,0,7.2-1.1,10.2-3.1c2.8-1.8,5-4.3,6.5-7.3
			c1.7-3.4,2.4-7.4,1.8-11.2c-0.5-3.2-1.8-6.2-3.7-8.8c-2-2.6-4.7-4.7-7.8-5.9C129.7,197.6,126.9,197.1,124.1,197.3 M124.8,196.5
			h0.7c2.5,0,4.9,0.5,7.2,1.5c3,1.2,5.6,3.2,7.6,5.7c2,2.4,3.3,5.3,4,8.3c0.3,1.2,0.4,2.5,0.4,3.7v0.7c-0.1,3.4-1,6.9-2.8,9.8
			c-1.7,2.8-4.1,5.2-6.9,6.8c-2.9,1.7-6.1,2.6-9.4,2.6h-0.6c-3.5,0-6.9-1-9.8-2.8c-2.8-1.7-5.1-4-6.8-6.8c-1.7-2.9-2.6-6.2-2.7-9.6
			v-0.7c0.1-2.7,0.7-5.4,1.8-7.9c1.3-2.7,3.1-5.1,5.5-7c2-1.6,4.2-2.8,6.6-3.5C121.2,196.8,123,196.5,124.8,196.5"/>
	</g>
	<g>
		<defs>
			<rect id="SVGID_00000106123920816577384450000009888959661347564195_" x="-212.5" y="-557.2" width="1207.6" height="858.9"/>
		</defs>
		<clipPath id="SVGID_00000098934297647815605150000001122182536526606756_">
			<use xlink:href="#SVGID_00000106123920816577384450000009888959661347564195_"  style="overflow:visible;"/>
		</clipPath>
		<path id="path3629" style="clip-path:url(#SVGID_00000098934297647815605150000001122182536526606756_);fill:#2F6B39;" d="
			M124.9,231.2c0,0.5,0,0.9,0,1.4c0.1,0,0.3,0,0.4,0c0-0.3,0-0.5,0-0.8c0.2,0.2,0.3,0.5,0.5,0.7c0.1,0,0.3,0,0.4,0
			c0-0.5,0-0.9,0-1.4c-0.1,0-0.3,0-0.4,0c0,0.3,0,0.5,0,0.8c-0.2-0.3-0.4-0.5-0.5-0.8C125.2,231.2,125,231.2,124.9,231.2
			 M123.7,231.1c-0.2,0.5-0.4,0.9-0.6,1.4c0.1,0,0.3,0,0.4,0c0-0.1,0.1-0.2,0.1-0.2c0.2,0,0.3,0,0.5,0c0,0.1,0,0.2,0.1,0.2
			c0.1,0,0.3,0,0.4,0c-0.2-0.5-0.3-0.9-0.5-1.4C124,231.2,123.9,231.2,123.7,231.1 M127,231.1c0.1,0.5,0.1,0.9,0.2,1.4
			c0.4-0.1,0.8-0.1,1.2-0.2c0-0.1,0-0.2,0-0.3c-0.2,0-0.5,0.1-0.7,0.1c0-0.1,0-0.2,0-0.3c0.2,0,0.4-0.1,0.7-0.1c0-0.1,0-0.2,0-0.3
			c-0.2,0-0.4,0.1-0.7,0.1c0-0.1,0-0.1,0-0.2c0.2,0,0.5-0.1,0.7-0.1c0-0.1,0-0.2,0-0.3C127.7,231,127.3,231,127,231.1 M121.9,230.9
			c-0.1,0.5-0.1,0.9-0.2,1.4c0.4,0,0.7,0.1,1.1,0.1c0.3-0.1,0.4-0.6,0.1-0.7c0.1,0,0.2-0.1,0.2-0.2c0.1-0.2-0.1-0.4-0.3-0.4
			C122.5,231,122.2,230.9,121.9,230.9 M129.2,230.6c0.1,0.2,0.1,0.5,0.2,0.7c-0.2-0.2-0.5-0.4-0.7-0.6c-0.1,0-0.3,0.1-0.4,0.1
			c0.1,0.4,0.2,0.9,0.4,1.3c0.1,0,0.3-0.1,0.4-0.1c-0.1-0.2-0.1-0.5-0.2-0.7c0.2,0.2,0.5,0.4,0.7,0.6c0.1,0,0.3-0.1,0.4-0.1
			c-0.1-0.4-0.2-0.9-0.4-1.3C129.4,230.6,129.3,230.6,129.2,230.6 M120.5,230.5c-0.1,0.4-0.2,0.9-0.4,1.3c0.1,0,0.3,0.1,0.4,0.1
			c0.1-0.2,0.1-0.4,0.2-0.6c0.1,0,0.1,0.1,0.2,0.1c0.1,0.2,0.1,0.4,0.1,0.5c0.2,0,0.3,0.1,0.5,0.1c-0.1-0.2-0.1-0.5-0.3-0.7
			c0.1,0,0.2,0,0.3-0.1c0.2-0.2,0.2-0.5-0.1-0.6C121.1,230.6,120.8,230.6,120.5,230.5 M130.6,230.2c0,0.3,0,0.7,0.1,1
			c-0.2-0.3-0.4-0.5-0.7-0.8c-0.1,0.1-0.3,0.1-0.4,0.2c0.3,0.4,0.7,0.7,1,1.1c0.1-0.1,0.3-0.1,0.4-0.2c0-0.5,0-1,0-1.5
			C130.9,230.1,130.8,230.1,130.6,230.2 M119,229.9c-0.1,0.3-0.2,0.6-0.3,0.9c-0.1,0.2,0,0.5,0.2,0.6c0.2,0.1,0.5,0.2,0.7,0.1
			c0.2-0.1,0.3-0.2,0.3-0.4c0.1-0.2,0.2-0.5,0.3-0.7c-0.1-0.1-0.3-0.1-0.4-0.2c-0.1,0.3-0.2,0.6-0.3,0.9c-0.1,0.2-0.5,0.1-0.4-0.2
			c0.1-0.3,0.2-0.6,0.3-0.9C119.2,230,119.1,229.9,119,229.9 M131.2,229.9c0.2,0.4,0.4,0.9,0.5,1.3c0.1-0.1,0.3-0.1,0.4-0.2
			c-0.2-0.4-0.4-0.9-0.5-1.3C131.4,229.8,131.3,229.9,131.2,229.9 M131.8,229.7c0.2,0.4,0.4,0.8,0.7,1.2c0.1-0.1,0.3-0.1,0.4-0.2
			c-0.1-0.2-0.2-0.3-0.3-0.5c0.3-0.1,0.5,0.2,0.7,0.3c0.1-0.1,0.3-0.2,0.4-0.2c-0.2-0.1-0.4-0.3-0.7-0.3c0.1-0.1,0.1-0.1,0.1-0.2
			c0.1-0.2-0.2-0.5-0.4-0.5C132.3,229.3,132.1,229.5,131.8,229.7 M116.8,230.3c0.1,0.1,0.2,0.1,0.4,0.2c0.1-0.2,0.2-0.3,0.3-0.5
			c0.2,0.1,0.3,0.2,0.5,0.3c0-0.1,0.1-0.2,0.1-0.2c-0.2-0.1-0.3-0.2-0.5-0.3c0-0.1,0.1-0.1,0.1-0.2c0.2,0.1,0.4,0.2,0.5,0.3
			c0-0.1,0.1-0.2,0.1-0.3c-0.3-0.2-0.6-0.4-0.9-0.5C117.2,229.5,117,229.9,116.8,230.3 M133.8,228.5c-0.3,0.1-0.6,0.4-0.6,0.7
			c0,0.4,0.4,0.8,0.8,0.7c0.4-0.1,0.7-0.4,0.7-0.8C134.6,228.7,134.2,228.3,133.8,228.5 M116,228.4c-0.4,0.2-0.6,0.6-0.4,1
			c0.2,0.3,0.6,0.6,1,0.4c0.3-0.2,0.6-0.6,0.4-1C116.7,228.5,116.4,228.3,116,228.4 M135,227.5c0.2,0.2,0.3,0.4,0.5,0.6
			c-0.3-0.1-0.6-0.2-0.9-0.2c-0.1,0.1-0.2,0.2-0.3,0.3c0.3,0.4,0.6,0.7,0.9,1.1c0.1-0.1,0.2-0.2,0.3-0.3c-0.2-0.2-0.3-0.4-0.5-0.6
			c0.3,0.1,0.6,0.2,0.9,0.2c0.1-0.1,0.2-0.2,0.3-0.3c-0.3-0.4-0.6-0.7-0.9-1.1C135.2,227.3,135.1,227.4,135,227.5 M113.8,228
			c0.3,0.3,0.6,0.5,0.9,0.8c0.1-0.1,0.1-0.2,0.2-0.2c-0.2-0.2-0.4-0.3-0.6-0.5c0.1-0.1,0.1-0.1,0.2-0.2c0.2,0.1,0.3,0.3,0.5,0.4
			c0.1-0.1,0.1-0.1,0.2-0.2c-0.2-0.1-0.3-0.3-0.5-0.4c0-0.1,0.1-0.1,0.1-0.2c0.2,0.2,0.4,0.3,0.5,0.5c0.1-0.1,0.1-0.2,0.2-0.2
			c-0.3-0.3-0.6-0.5-0.9-0.8C114.4,227.3,114.1,227.7,113.8,228 M136.1,226.4c0.1,0.2,0.3,0.5,0.5,0.7c-0.3-0.1-0.5-0.3-0.8-0.4
			c-0.1,0.1-0.3,0.3-0.4,0.4c0.3,0.3,0.7,0.6,1,1c0.1-0.1,0.2-0.2,0.2-0.2c-0.2-0.2-0.5-0.5-0.7-0.7c0.3,0.2,0.6,0.4,0.9,0.5
			c0.1-0.1,0.1-0.2,0.2-0.2c-0.2-0.3-0.4-0.6-0.6-0.9c0.3,0.2,0.5,0.5,0.7,0.7c0.1-0.1,0.2-0.2,0.2-0.3c-0.3-0.3-0.7-0.6-1-1
			C136.4,226.1,136.3,226.3,136.1,226.4 M113.4,226.1c0.1,0.1,0.2,0.2,0.3,0.3c-0.3,0.2-0.5,0.5-0.8,0.7c0.1,0.1,0.2,0.2,0.3,0.3
			c0.3-0.2,0.5-0.5,0.8-0.7c0.1,0.1,0.2,0.2,0.3,0.3c0.1-0.1,0.2-0.2,0.2-0.2c-0.3-0.3-0.6-0.6-0.9-1
			C113.6,225.9,113.5,226,113.4,226.1 M136.7,225.8c0.4,0.3,0.7,0.6,1.1,0.9c0.2-0.3,0.5-0.6,0.7-0.9c-0.1-0.1-0.2-0.1-0.2-0.2
			c-0.2,0.2-0.3,0.4-0.5,0.6c-0.1-0.1-0.1-0.1-0.2-0.2c0.1-0.2,0.3-0.3,0.4-0.5c-0.1-0.1-0.1-0.1-0.2-0.2c-0.1,0.2-0.3,0.3-0.4,0.5
			c-0.1,0-0.1-0.1-0.2-0.1c0.2-0.2,0.3-0.4,0.5-0.6c-0.1-0.1-0.2-0.1-0.2-0.2C137.1,225.2,136.9,225.5,136.7,225.8 M112,225.2
			c-0.2,0.1-0.3,0.4-0.2,0.6c0.1,0.2,0.2,0.3,0.3,0.4c0.2,0.1,0.4,0.1,0.6,0c0.2-0.2,0.5-0.4,0.7-0.5c-0.1-0.1-0.2-0.2-0.3-0.3
			c-0.2,0.2-0.5,0.4-0.7,0.6c-0.2,0.1-0.5-0.2-0.3-0.4c0.2-0.2,0.5-0.4,0.7-0.6c-0.1-0.1-0.2-0.2-0.3-0.3
			C112.5,224.8,112.3,225,112,225.2 M138,224c0.2,0.1,0.4,0.3,0.6,0.4c-0.3,0-0.6,0-0.9,0c-0.1,0.1-0.1,0.2-0.2,0.3
			c0.4,0.3,0.8,0.5,1.2,0.8c0.1-0.1,0.1-0.2,0.2-0.3c-0.2-0.1-0.4-0.3-0.6-0.4c0.3,0,0.6,0,0.9,0c0.1-0.1,0.1-0.2,0.2-0.3
			c-0.4-0.2-0.8-0.5-1.2-0.8C138.1,223.8,138,223.9,138,224 M111.7,223.6c0.1,0.1,0.2,0.2,0.2,0.4c-0.3,0.2-0.6,0.4-0.9,0.6
			c0.1,0.1,0.2,0.2,0.2,0.4c0.3-0.2,0.6-0.4,0.9-0.6c0.1,0.1,0.2,0.2,0.2,0.4c0.1-0.1,0.2-0.1,0.3-0.2c-0.2-0.4-0.5-0.7-0.7-1.1
			C111.9,223.4,111.8,223.5,111.7,223.6 M110.4,223.4c0.1,0.1,0.1,0.3,0.2,0.4c0.4-0.2,0.8-0.4,1.2-0.6c-0.1-0.1-0.1-0.3-0.2-0.4
			C111.3,223,110.9,223.2,110.4,223.4 M138.8,222.4c-0.2,0.4-0.4,0.8-0.6,1.1c0.1,0.1,0.2,0.1,0.3,0.2c0.1-0.1,0.1-0.3,0.2-0.4
			c0.3,0.2,0.6,0.3,0.9,0.5c0.1-0.1,0.1-0.3,0.2-0.4c-0.3-0.2-0.6-0.3-0.9-0.5c0.1-0.1,0.1-0.3,0.2-0.4
			C139,222.5,138.9,222.4,138.8,222.4 M110.7,221.5c0.1,0.1,0.1,0.3,0.2,0.4c-0.3,0.1-0.6,0.3-1,0.4c0.1,0.1,0.1,0.3,0.2,0.4
			c0.3-0.1,0.6-0.3,1-0.4c0.1,0.1,0.1,0.3,0.2,0.4c0.1,0,0.2-0.1,0.3-0.1c-0.2-0.4-0.4-0.8-0.5-1.2
			C110.9,221.4,110.8,221.4,110.7,221.5 M139.4,220.9c-0.2,0.3-0.3,0.6-0.1,0.9c0.2,0.2,0.5,0.3,0.8,0.3c0.3-0.1,0.5-0.5,0.5-0.8
			c0-0.2-0.1-0.4-0.3-0.5c-0.1,0.1-0.2,0.2-0.2,0.3c0.1,0.1,0.2,0.1,0.2,0.2c0,0.1-0.1,0.3-0.2,0.3c-0.2,0-0.3,0-0.5-0.1
			c-0.1-0.1-0.2-0.2-0.1-0.4c0-0.1,0.2-0.1,0.2-0.1c0-0.1,0-0.3,0-0.4C139.7,220.7,139.5,220.8,139.4,220.9 M110.1,220.4
			c-0.1,0.2,0,0.5-0.1,0.7c0,0.1-0.2,0.1-0.2,0c-0.1-0.1,0-0.3,0.1-0.4c-0.1-0.1-0.1-0.2-0.2-0.4c-0.1,0.1-0.2,0.1-0.3,0.2
			c-0.1,0.1-0.1,0.3,0,0.5c0.1,0.2,0.2,0.4,0.3,0.5c0.2,0.1,0.5,0,0.6-0.2c0.1-0.2,0-0.5,0-0.7l0.1,0c0.2,0,0.2,0.3,0,0.4
			c0,0.1,0.1,0.2,0.1,0.4c0.1-0.1,0.2-0.2,0.3-0.3c0-0.2-0.1-0.5-0.2-0.7C110.5,220.1,110.2,220.1,110.1,220.4 M139.8,219.5
			c-0.1,0.1-0.1,0.3-0.1,0.4c0.4,0.3,0.8,0.6,1.2,0.9c0-0.1,0.1-0.3,0.1-0.4c-0.1,0-0.1-0.1-0.2-0.1c0-0.2,0.1-0.3,0.1-0.5
			c0.1,0,0.2,0,0.2,0c0-0.1,0.1-0.3,0.1-0.4C140.8,219.4,140.3,219.4,139.8,219.5 M108.9,218.9c0,0.1,0.1,0.3,0.1,0.4
			c0.2-0.1,0.5-0.1,0.7-0.2c-0.2,0.2-0.4,0.5-0.6,0.7c0,0.1,0.1,0.3,0.1,0.4c0.4-0.1,0.9-0.2,1.3-0.3c0-0.1-0.1-0.3-0.1-0.4
			c-0.2,0.1-0.5,0.1-0.7,0.2c0.2-0.2,0.4-0.5,0.6-0.7c0-0.1-0.1-0.3-0.1-0.4C109.8,218.7,109.4,218.8,108.9,218.9 M140.2,217.9
			c-0.1,0.1-0.2,0.3-0.2,0.5c0,0.2,0,0.4,0.1,0.5c0.1,0.1,0.4,0.1,0.5,0c0.2-0.1,0.2-0.4,0.3-0.6c0.1-0.1,0.2,0,0.2,0.2
			c0,0.2-0.1,0.2-0.3,0.2c0,0.1,0,0.3,0,0.4c0.2,0,0.4-0.1,0.5-0.2c0.1-0.2,0.2-0.5,0.1-0.7c-0.1-0.3-0.4-0.4-0.6-0.3
			c-0.2,0.1-0.2,0.5-0.4,0.7c-0.2,0-0.1-0.4,0.1-0.4c0-0.1,0-0.3,0-0.4C140.4,217.8,140.2,217.8,140.2,217.9 M108.9,218
			c0,0.1,0,0.3,0.1,0.4c0.5-0.1,0.9-0.1,1.4-0.2c0-0.1,0-0.3-0.1-0.4C109.8,217.9,109.3,217.9,108.9,218 M139.2,210
			c-0.3,0.1-0.7,0.1-1-0.1c0,0.1,0,0.2,0,0.2c0.2,0,0.4,0.1,0.6,0.1c0.4,0,0.7-0.1,1-0.2c0.1,0.1,0.1,0.3,0.2,0.4
			c-0.5,0.2-0.9,0.4-1.4,0.5c0,0.1,0.1,0.1,0.1,0.2c0.4-0.2,0.9-0.4,1.4-0.6c0,0.1,0.1,0.2,0.1,0.3c0.1,0,0.1-0.1,0.2-0.1
			c-0.1-0.3-0.3-0.6-0.4-0.9c0.2-0.1,0.3-0.1,0.5-0.2c0.1,0.3,0.3,0.6,0.4,0.8c0.1-0.1,0.1-0.1,0.2-0.2c-0.2-0.3-0.4-0.6-0.5-0.9
			C140.1,209.7,139.7,209.9,139.2,210 M110.3,208.7c-0.1,0.3-0.2,0.6-0.3,0.9c-0.2-0.1-0.3-0.1-0.5-0.2c0,0.1-0.1,0.2-0.1,0.2
			c0.2,0.1,0.3,0.1,0.5,0.2c-0.1,0.3-0.2,0.6-0.3,0.8c0.4,0.1,0.8,0.3,1.2,0.5c0-0.1,0.1-0.1,0.1-0.2c-0.1,0-0.1-0.1-0.2-0.1
			c0.1-0.2,0.2-0.4,0.3-0.6c0.3,0.1,0.6,0.2,0.9,0.4c0-0.1,0.1-0.2,0.1-0.2c-0.3-0.1-0.6-0.2-0.9-0.3c0.1-0.2,0.2-0.4,0.3-0.6
			c0.1,0,0.1,0,0.2,0.1c0-0.1,0.1-0.1,0.1-0.2C111.1,209,110.7,208.8,110.3,208.7 M138.7,209.1c-0.2,0.1-0.5,0.1-0.7,0
			c0,0.1,0,0.2,0,0.2c0.3,0,0.6,0,0.9-0.1c0.1,0.2,0.2,0.4,0.2,0.6c0.3-0.1,0.5-0.2,0.8-0.3c-0.1-0.2-0.2-0.4-0.2-0.6
			c0.1-0.1,0.3-0.1,0.4-0.2c0.1,0.2,0.2,0.4,0.4,0.6c0.1-0.1,0.1-0.1,0.2-0.2c-0.2-0.2-0.3-0.5-0.5-0.7
			C139.6,208.7,139.2,208.9,138.7,209.1 M138.4,206.8c0,0.3,0.1,0.6,0.1,0.9c0.1,0,0.2,0,0.2,0c0-0.3,0-0.6-0.1-0.9
			C138.5,206.8,138.4,206.8,138.4,206.8 M137.1,206.3c0.1,0.2,0.3,0.4,0.4,0.5c-0.2,0.1-0.4,0.1-0.5,0.1c-0.2,0-0.4-0.2-0.6-0.4
			c0,0.1-0.1,0.2-0.1,0.3c0.2,0.1,0.4,0.2,0.6,0.3c0.3,0.1,0.5,0,0.8-0.1c0.1,0.1,0.2,0.2,0.3,0.4c-0.2,0.1-0.4,0.2-0.5,0.4
			c-0.1,0.1-0.2,0.2-0.1,0.3c0.1,0.2,0.2,0.3,0.3,0.4c0.1,0,0.2,0,0.3-0.1c0-0.1,0-0.2,0-0.3c-0.1,0-0.2,0.1-0.3,0.1
			c-0.1-0.1-0.1-0.2-0.2-0.2c0.2-0.2,0.5-0.4,0.7-0.5c-0.1-0.2-0.3-0.4-0.4-0.6c0.1-0.1,0.2-0.1,0.3-0.2c0-0.1-0.1-0.1-0.1-0.2
			c-0.1,0.1-0.2,0.1-0.3,0.2c-0.1-0.2-0.3-0.4-0.4-0.6C137.2,206.2,137.1,206.3,137.1,206.3 M137.4,206c0,0.1,0,0.2-0.1,0.2
			c0.3,0.1,0.6,0.2,0.8,0.3c0-0.1,0-0.2,0-0.2C137.9,206.2,137.6,206.1,137.4,206 M137.6,205.7c0,0.1,0.1,0.1,0.1,0.2
			c0.1-0.1,0.2-0.1,0.3-0.2c0.4,0.5,0.7,1,1.1,1.5c-0.1,0.1-0.2,0.1-0.2,0.2c0,0.1,0.1,0.1,0.1,0.2c0.1-0.1,0.2-0.2,0.4-0.3
			c-0.2-0.3-0.5-0.6-0.7-0.9c0,0,0.1,0.1,0.1,0.1c0.1-0.1,0.1-0.2,0.2-0.3c-0.1,0-0.1-0.1-0.2-0.1c-0.1,0.1-0.1,0.2-0.2,0.3
			c-0.2-0.3-0.4-0.6-0.6-0.8C137.9,205.6,137.7,205.6,137.6,205.7 M110.7,207.1c0.7,0.5,1.3,0.9,1.9,1.4c0-0.1,0.1-0.1,0.1-0.2
			c0,0-0.1-0.1-0.1-0.1c0.4-0.5,0.7-1,1.1-1.5c0,0,0.1,0.1,0.1,0.1c0-0.1,0.1-0.1,0.1-0.2c-0.6-0.5-1.3-0.9-1.9-1.4
			C111.5,205.9,111.1,206.5,110.7,207.1 M114,204.8c0.1,0,0.3,0.1,0.4,0.2c0-0.1,0.1-0.2,0.1-0.2c-0.1,0-0.3-0.1-0.4-0.1
			C114.1,204.7,114.1,204.8,114,204.8 M114.3,204.1c0,0.1,0,0.1,0,0.2c0.2,0,0.3,0,0.5,0.1c0-0.1,0-0.2,0.1-0.2
			C114.6,204.2,114.4,204.1,114.3,204.1 M113.3,203.7c-0.1,0.3-0.3,0.6-0.5,0.9c0.1,0,0.1,0,0.2,0.1c0.1-0.1,0.2-0.2,0.2-0.3
			c0.1,0.1,0.2,0.2,0.3,0.3c-0.1,0.1-0.2,0.2-0.4,0.3c0,0.1,0.1,0.1,0.2,0.2c0.1-0.1,0.2-0.2,0.3-0.3c0.1,0.3,0.2,0.7,0.2,1
			c0.1,0,0.2,0,0.3,0c0-0.3-0.1-0.5-0.2-0.7c0.2,0.3,0.5,0.5,0.7,0.8c0.1-0.1,0.1-0.1,0.2-0.2c-0.4-0.4-0.7-0.7-1-1.1
			c0.1-0.1,0.2-0.2,0.3-0.3c0-0.1-0.1-0.1-0.1-0.2c-0.1,0.1-0.2,0.2-0.3,0.3c-0.1-0.1-0.2-0.2-0.3-0.4c0.1-0.1,0.2-0.2,0.2-0.3
			C113.5,203.8,113.4,203.7,113.3,203.7 M113.8,203.5c0,0.1,0,0.1-0.1,0.2c0.2,0,0.3,0.1,0.5,0.1c0-0.1,0-0.1,0.1-0.2
			C114.1,203.6,114,203.6,113.8,203.5 M136.3,203.6c0.1,0.1,0.1,0.1,0.2,0.2c-0.2,0.2-0.4,0.4-0.5,0.6c-0.1-0.1-0.1-0.2-0.2-0.2
			c0,0-0.1,0.1-0.1,0.1c0.1,0.1,0.2,0.1,0.2,0.2c-0.3,0.3-0.7,0.5-1.1,0.5c0,0.1,0,0.2,0.1,0.2c0.2,0,0.4,0,0.6-0.1
			c0.3-0.1,0.5-0.3,0.7-0.5c0.1,0.1,0.2,0.2,0.3,0.3c-0.3,0.3-0.6,0.6-0.9,0.9c0.1,0,0.1,0.1,0.2,0.1c0.3-0.3,0.6-0.6,0.9-0.9
			c0.1,0.1,0.2,0.2,0.3,0.3c0,0,0.1-0.1,0.1-0.1c-0.1-0.1-0.2-0.2-0.3-0.2c0.2-0.2,0.4-0.4,0.5-0.6c0.1,0.1,0.1,0.1,0.2,0.2
			c0,0,0.1-0.1,0.1-0.1c-0.3-0.3-0.7-0.6-1-0.9C136.4,203.5,136.3,203.6,136.3,203.6 M114,203.1c0.4,0.4,0.7,0.8,1.1,1.2
			c-0.2,0.3-0.4,0.5-0.6,0.8c0.1,0,0.1,0.1,0.2,0.1c0.2-0.3,0.3-0.5,0.5-0.8c0.2,0.2,0.3,0.4,0.5,0.6c0.1-0.1,0.1-0.1,0.2-0.2
			c-0.2-0.2-0.4-0.4-0.5-0.6c0.1-0.1,0.2-0.3,0.3-0.4c-0.1,0-0.1-0.1-0.2-0.1c-0.1,0.1-0.1,0.2-0.2,0.4c-0.3-0.4-0.7-0.8-1.1-1.1
			C114.1,203,114.1,203,114,203.1 M135.5,202.9c0.1,0.1,0.2,0.2,0.3,0.2c-0.3,0.2-0.6,0.4-1,0.3c0,0.1,0,0.2,0,0.2
			c0.1,0,0.2,0,0.3,0c-0.3,0.3-0.5,0.6-0.8,0.8c0,0,0.1,0.1,0.1,0.1c0.1-0.1,0.2-0.2,0.3-0.3c0.1,0.1,0.2,0.1,0.2,0.2
			c-0.1,0.1-0.1,0.1-0.2,0.2c0,0,0.1,0.1,0.1,0.1c0.3-0.3,0.6-0.6,0.9-0.9c-0.1-0.1-0.2-0.2-0.4-0.4c0.2-0.1,0.3-0.2,0.5-0.3
			c0.1,0.1,0.2,0.2,0.3,0.3c0,0,0.1-0.1,0.1-0.1c-0.2-0.2-0.5-0.4-0.7-0.6C135.5,202.8,135.5,202.9,135.5,202.9 M123.6,202.5
			c-2.1,0.2-4.1,0.9-5.8,2.1c-2.5,1.6-4.5,4.1-5.5,7c-0.7,2.1-0.9,4.3-0.6,6.4c0.3,2.1,1.1,4.2,2.3,5.9c0.9,1.3,2.1,2.5,3.5,3.4
			c0.3-0.1,0.5-0.2,0.8-0.3c0.9-0.3,1.9-0.6,2.8-0.9c1-0.3,2-0.5,3.1-0.6c1.7-0.1,3.3-0.4,4.9-0.7c2-0.4,4-0.9,5.9-1.6
			c0.9-0.4,1.7-0.7,2.4-1.4c-0.1,0.3-0.3,0.6-0.5,0.8c-0.5,0.5-1.2,0.9-1.8,1.2c-0.9,0.5-1.8,1-2.7,1.3c1,0.1,1.9-0.2,2.9-0.3
			c-1.1,0.8-2.3,1.5-3.7,1.6c-0.7,0.1-1.5,0.1-2.3,0.2c-0.3,0-0.7,0.1-1,0.2c0.2,0.1,0.5,0.1,0.8,0.2c0.8,0.1,1.5,0.1,2.3,0.2
			c0.2,0,0.3,0,0.5,0.1c-0.1,0.1-0.2,0.1-0.3,0.1c-0.4,0.1-0.7,0.1-1.1,0.2c-1.4,0.2-2.7,0.4-4.1,0.4c-1,0.1-2.1,0.1-3.1,0
			c-0.5,0-1-0.2-1.5-0.3c-0.9-0.1-1.8-0.2-2.7-0.2c-0.4,0-0.9,0-1.3-0.1c1.7,1.1,3.6,1.8,5.5,2.1c2.3,0.3,4.6,0.1,6.7-0.7
			c2.8-1.1,5.3-3.1,6.9-5.7c1.1-1.8,1.7-3.8,1.9-5.8c0.2-2.2-0.1-4.5-1-6.5c-1.2-2.9-3.5-5.4-6.3-6.8
			C129.1,202.7,126.3,202.2,123.6,202.5 M132.8,202c-0.1,0.2-0.3,0.5-0.4,0.7c0.1,0.1,0.2,0.1,0.3,0.2c-0.1,0.1-0.2,0.2-0.4,0.2
			c-0.2,0-0.4-0.1-0.5-0.1v0.3c0.2,0,0.5,0.1,0.7,0c0.2,0,0.3-0.2,0.4-0.3c0.1,0,0.1,0.1,0.2,0.1c-0.1,0.1-0.2,0.3-0.2,0.4
			c0,0.1,0.1,0.2,0.1,0.2c0.1,0.1,0.3,0.2,0.4,0.2c0.1,0,0.2-0.1,0.3-0.2c-0.1-0.1-0.1-0.1-0.2-0.2c-0.1,0-0.1,0.1-0.2,0.1
			c-0.1,0-0.2-0.1-0.3-0.2c0-0.1,0.1-0.2,0.2-0.4c0.1,0.1,0.2,0.1,0.4,0.2c0.1-0.2,0.2-0.5,0.4-0.7
			C133.6,202.4,133.2,202.2,132.8,202 M116.3,202.6c0,0.1,0.1,0.1,0.1,0.2c0.3-0.2,0.6-0.4,0.9-0.5c-0.1,0.1-0.2,0.2-0.2,0.4
			c0,0.1,0.1,0.1,0.1,0.2c-0.3,0.2-0.7,0.4-1,0.6c0,0.1,0.1,0.1,0.1,0.2c0.3-0.2,0.7-0.4,1-0.6c0.1,0.1,0.1,0.2,0.2,0.4
			c0,0.1-0.2,0.1-0.3,0.2c0.1,0.1,0.1,0.1,0.2,0.2c0.1-0.1,0.3-0.2,0.3-0.3c0-0.2-0.2-0.3-0.3-0.5c0.3-0.2,0.6-0.3,0.9-0.5
			c0-0.1-0.1-0.1-0.1-0.2c-0.3,0.2-0.6,0.4-0.9,0.5c0,0,0-0.1-0.1-0.1c0.1-0.2,0.2-0.4,0.4-0.5c0-0.1-0.1-0.1-0.1-0.2
			C117.2,202.1,116.8,202.3,116.3,202.6 M115.7,201.8c0.1,0.1,0.2,0.2,0.4,0.2c0.1-0.1,0.1-0.1,0.2-0.2c-0.1-0.1-0.2-0.2-0.4-0.2
			C115.8,201.7,115.8,201.8,115.7,201.8 M133.3,201.6c0,0.1,0,0.1,0,0.2l0,0c-0.1-0.1-0.2-0.1-0.4-0.2c0,0-0.1,0.1-0.1,0.2
			c0.5,0.3,1,0.5,1.5,0.8c0-0.1,0.1-0.1,0.1-0.2c-0.2-0.1-0.3-0.2-0.5-0.3c0.1,0,0.1-0.1,0.2-0.1c-0.1-0.1-0.1-0.1-0.2-0.2
			c-0.1,0.1-0.2,0.2-0.2,0.2c-0.1-0.1-0.2-0.1-0.3-0.2c0,0,0,0,0,0c0,0,0.1,0,0.1,0c0-0.1,0-0.1,0-0.2
			C133.4,201.6,133.4,201.6,133.3,201.6 M116.3,201.4c0.1,0.1,0.2,0.2,0.3,0.3c0.1-0.1,0.1-0.1,0.2-0.2c-0.1-0.1-0.2-0.2-0.3-0.3
			C116.4,201.3,116.4,201.4,116.3,201.4 M133.2,201.2c0,0.1-0.1,0.1-0.1,0.2c0.5,0.2,0.9,0.5,1.4,0.8c0-0.1,0.1-0.1,0.1-0.2
			c-0.2-0.1-0.4-0.2-0.5-0.3c0-0.1,0.1-0.2,0.1-0.3c-0.1,0-0.2-0.1-0.2-0.1c0,0.1,0,0.2-0.1,0.2
			C133.6,201.5,133.4,201.3,133.2,201.2 M130.6,201.1c0.1,0.3,0.2,0.6,0.2,1c0.1,0,0.2,0,0.2-0.1c-0.1-0.3-0.2-0.7-0.2-1
			C130.7,201,130.7,201,130.6,201.1 M117,200.9c0,0.2,0,0.4,0,0.7c-0.4,0.3-0.9,0.5-1.3,0.8c0.1,0.1,0.2,0.3,0.2,0.4
			c0.1,0,0.1-0.1,0.2-0.1c-0.1-0.1-0.1-0.2-0.2-0.3c0.5-0.3,1.1-0.6,1.6-0.9c0.1,0.1,0.1,0.2,0.2,0.3c0.1,0,0.1-0.1,0.2-0.1
			c-0.1-0.1-0.2-0.3-0.3-0.4c-0.2,0.1-0.3,0.2-0.5,0.3c0-0.2,0-0.4,0.1-0.6C117.2,200.9,117.1,200.9,117,200.9 M132.7,200.8
			c-0.1,0.2-0.2,0.4-0.3,0.6c-0.1,0-0.2-0.1-0.2-0.1c0,0.1-0.1,0.1-0.1,0.2c0.1,0,0.2,0.1,0.2,0.1c-0.1,0.3-0.3,0.5-0.4,0.8
			c-0.1,0-0.2-0.1-0.3-0.1c0,0.1,0,0.2,0,0.2c0.3,0,0.5,0.1,0.8,0.1c0-0.1,0-0.1,0.1-0.2c-0.1,0-0.2,0-0.3,0
			c0.1-0.2,0.3-0.5,0.4-0.7c0.1,0,0.1,0.1,0.2,0.1c0-0.1,0.1-0.1,0.1-0.2c-0.1,0-0.1-0.1-0.2-0.1c0.1-0.2,0.2-0.4,0.3-0.6
			C132.8,200.9,132.8,200.8,132.7,200.8 M119.9,201.1c0,0,0,0.1,0,0.2c0.1,0,0.2-0.1,0.3-0.1c0,0.2,0.1,0.3,0.1,0.5
			c0,0.2-0.2,0.3-0.4,0.5c0.1,0,0.1,0.1,0.2,0.1c0.1-0.1,0.3-0.3,0.3-0.5c0.1-0.2,0-0.5-0.1-0.7c0.1,0,0.2,0,0.2-0.1
			c0.1,0.2,0.1,0.5,0.2,0.7c0,0.1,0.1,0.2,0.2,0.2c0.2,0,0.3-0.1,0.4-0.1c0.1-0.1,0.1-0.3,0.1-0.4c-0.1,0-0.2,0-0.2,0
			c0,0.1,0,0.2,0,0.3c-0.1,0.1-0.2,0.1-0.3,0.1c-0.2-0.2-0.2-0.5-0.3-0.8c0.1,0,0.3-0.1,0.4-0.1c0-0.1,0-0.1-0.1-0.2
			C120.8,200.8,120.3,200.9,119.9,201.1 M119.9,200.6c0,0.1,0,0.1,0.1,0.2c0.3-0.1,0.7-0.2,1-0.3c0-0.1,0-0.1-0.1-0.2
			C120.6,200.4,120.2,200.5,119.9,200.6 M118.7,200.3c0.3,0.7,0.5,1.5,0.7,2.2c0.1,0,0.1,0,0.2-0.1c-0.2-0.7-0.4-1.4-0.7-2.1
			c0.1,0,0.2-0.1,0.3-0.1c0,0.2,0,0.5,0,0.7c0.2,0.1,0.4,0.3,0.4,0.5c0,0.1-0.1,0.1-0.2,0.2c0,0.1,0.1,0.1,0.1,0.2
			c0.2-0.1,0.3-0.2,0.3-0.4c0-0.3-0.3-0.5-0.5-0.6c0-0.3,0-0.6,0-0.8C119.2,200.2,118.9,200.2,118.7,200.3 M130,200.1
			c0.2,0.1,0.4,0.1,0.6,0.2c-0.3,0.6-0.7,1.1-1.3,1.3c0.1,0.1,0.1,0.1,0.2,0.2c0.3-0.2,0.6-0.4,0.9-0.7c-0.1,0.4-0.2,0.8-0.4,1.2
			c0.1,0,0.1,0,0.2,0.1c0.1-0.5,0.3-1,0.5-1.5c0.1-0.2,0.2-0.4,0.2-0.5c0.2,0.1,0.4,0.1,0.6,0.2c0-0.1,0-0.1,0.1-0.2
			c-0.5-0.1-0.9-0.3-1.4-0.4C130.1,200,130,200,130,200.1 M120,199.7c0.1,0.1,0.1,0.1,0.2,0.2c0,0,0,0.1,0,0.1
			c-0.2,0.1-0.4,0.1-0.6,0.2c0,0.1,0.1,0.2,0.1,0.4c0.1,0,0.1,0,0.2-0.1c0-0.1,0-0.1-0.1-0.2c0.3-0.1,0.7-0.2,1-0.3
			c0,0.1,0,0.2,0.1,0.2c0.1,0,0.1,0,0.2-0.1c0-0.1-0.1-0.3-0.1-0.4c-0.2,0.1-0.4,0.1-0.7,0.2c0,0-0.1,0-0.1-0.1c0,0,0.1,0,0.1-0.1
			c-0.1-0.1-0.2-0.1-0.2-0.2C120.1,199.7,120,199.7,120,199.7 M129.1,199.6c0,0.1,0,0.1-0.1,0.2c0.1,0,0.2,0.1,0.4,0.1
			c-0.1,0.2-0.1,0.3-0.2,0.5c-0.1,0-0.2-0.1-0.3-0.1c0,0.1,0,0.1-0.1,0.2c0.1,0,0.2,0.1,0.3,0.1c-0.1,0.2-0.1,0.4-0.2,0.6
			c-0.2,0-0.3,0-0.5-0.1c0,0.1,0,0.2,0,0.2c0.3,0,0.6,0,0.9,0c0-0.1,0.1-0.1,0.1-0.2c-0.1,0-0.2,0-0.3,0c0.1-0.2,0.1-0.4,0.2-0.6
			c0.1,0,0.2,0.1,0.3,0.1c0-0.1,0-0.1,0.1-0.2c-0.1,0-0.2-0.1-0.3-0.1c0.1-0.2,0.1-0.3,0.2-0.5c0.1,0,0.2,0.1,0.3,0.1
			c0-0.1,0-0.1,0.1-0.2C129.7,199.8,129.4,199.7,129.1,199.6 M125.6,199.3c0,0.1,0,0.1,0,0.2c0.4,0,0.7,0.1,1.1,0.1
			c0,0.1,0,0.3,0,0.4c-0.3,0-0.5-0.1-0.8-0.1c0,0.4-0.1,0.9-0.2,1.3c0.1,0,0.2,0,0.2,0c0-0.4,0.1-0.7,0.1-1.1c0.2,0,0.4,0,0.6,0.1
			c-0.1,0.5-0.1,0.9-0.2,1.4c0.1,0,0.2,0,0.3,0c0-0.5,0.1-0.9,0.2-1.4c0.2,0,0.4,0,0.6,0.1c-0.1,0.3,0,0.6-0.1,0.8
			c-0.1,0-0.2,0-0.3,0c0,0.1,0,0.2,0.1,0.3c0.1,0,0.3,0,0.4-0.1c0.1-0.1,0.1-0.2,0.1-0.3c0-0.3,0.1-0.6,0.1-0.9
			c-0.3,0-0.5-0.1-0.8-0.1c0-0.1,0-0.2,0-0.4c0.4,0,0.7,0.1,1.1,0.1c0-0.1,0-0.1,0-0.2C127.3,199.5,126.5,199.4,125.6,199.3
			 M122.2,199.2c0,0.2,0.1,0.4,0.1,0.7c-0.1,0-0.2,0-0.3,0c0,0.1,0,0.1,0,0.2c0.1,0,0.2,0,0.3,0c0,0.3,0.1,0.6,0.1,0.9
			c-0.1,0-0.2,0.1-0.3,0.1c0,0.1,0.1,0.1,0.1,0.2c0.2-0.1,0.4-0.2,0.6-0.3c0,0,0-0.1,0-0.2c-0.1,0-0.2,0.1-0.2,0.1
			c0-0.3-0.1-0.5-0.1-0.8c0.1,0,0.2,0,0.3,0c0-0.1,0-0.1,0-0.2c-0.1,0-0.2,0-0.3,0c0-0.2-0.1-0.4-0.1-0.7
			C122.4,199.2,122.3,199.2,122.2,199.2 M126.7,199c0,0.1,0.1,0.2,0.1,0.3c0.1,0,0.2-0.1,0.2-0.1c0-0.1-0.1-0.2-0.1-0.3
			C126.9,199,126.8,199,126.7,199 M124,199.1c0.1,0.1,0.1,0.2,0.2,0.2c0.1,0,0.1-0.1,0.2-0.1c-0.1-0.1-0.1-0.2-0.2-0.2
			C124.1,199,124,199,124,199.1 M123.6,199c0,0.2,0.1,0.3,0.1,0.5c-0.3,0-0.5,0.1-0.8,0.1c0.1,0.4,0.1,0.7,0.1,1.1
			c0,0.3-0.1,0.6-0.3,0.8c0.1,0,0.2,0.1,0.2,0.1c0.2-0.4,0.3-0.9,0.3-1.3c0.1,0,0.2,0,0.3,0c0,0.2,0.1,0.4,0.1,0.6
			c0,0.1-0.2,0.1-0.2,0.1c0,0.1,0.1,0.2,0.1,0.2c0.1-0.1,0.3-0.1,0.3-0.3c0-0.3-0.1-0.6-0.1-0.9c-0.2,0-0.3,0-0.5,0.1
			c0-0.1,0-0.2,0-0.4c0.2,0,0.4,0,0.6-0.1c0.1,0.4,0.2,0.9,0.4,1.2c-0.1,0.2-0.3,0.4-0.5,0.5c0.1,0,0.1,0.1,0.2,0.1
			c0.2-0.1,0.3-0.3,0.4-0.5c0.1,0.1,0.2,0.3,0.4,0.3c0.2-0.1,0.1-0.3,0.2-0.4c-0.1,0-0.1-0.1-0.2-0.1c0,0.1,0,0.2-0.1,0.3
			c-0.1-0.1-0.2-0.2-0.2-0.2c0.1-0.3,0.1-0.7,0.2-1c-0.1,0-0.2,0-0.2,0c0,0.3,0,0.6-0.1,0.8c-0.1-0.3-0.2-0.7-0.3-1
			c0.2,0,0.4,0,0.6-0.1c0-0.1,0-0.2,0-0.2c-0.2,0-0.4,0.1-0.6,0.1c0-0.2,0-0.3,0-0.5C123.7,199,123.6,199,123.6,199 M123.7,197.9
			c3.1-0.2,6.3,0.3,9.1,1.6c3.2,1.5,5.9,3.9,7.8,6.8c1,1.6,1.8,3.4,2.3,5.3c0.6,2.4,0.7,5,0.3,7.4c-0.6,3.6-2.4,7.1-4.9,9.7
			c-2.6,2.7-6.1,4.5-9.7,5.2c-2.5,0.5-5.1,0.4-7.5-0.2c-3.5-0.8-6.7-2.7-9.1-5.3c-1.2-1.3-2.3-2.8-3.1-4.4c-1.1-2.1-1.7-4.5-1.8-6.9
			c-0.2-2.3,0.1-4.6,0.8-6.8c0.7-2.1,1.8-4.1,3.2-5.8c1.6-2,3.7-3.7,6.1-4.9C119.1,198.7,121.4,198.1,123.7,197.9"/>
	</g>
	<g>
		<defs>
			<rect id="SVGID_00000034087616789490354960000006047851982498313097_" x="-212.5" y="-557.2" width="1207.6" height="858.9"/>
		</defs>
		<clipPath id="SVGID_00000080926397038006223570000002610795627159651718_">
			<use xlink:href="#SVGID_00000034087616789490354960000006047851982498313097_"  style="overflow:visible;"/>
		</clipPath>
		<path id="path3631" style="clip-path:url(#SVGID_00000080926397038006223570000002610795627159651718_);fill:#2F6B39;" d="
			M132.9,202.2c0.3,0.2,0.6,0.3,0.9,0.5c0,0.1-0.1,0.1-0.1,0.2c-0.3-0.2-0.6-0.3-0.9-0.5C132.9,202.3,132.9,202.3,132.9,202.2"/>
	</g>
	<g>
		<defs>
			<rect id="SVGID_00000178183587995087760560000012004373245900211095_" x="-212.5" y="-557.2" width="1207.6" height="858.9"/>
		</defs>
		<clipPath id="SVGID_00000081607084042032707770000002449647493201981593_">
			<use xlink:href="#SVGID_00000178183587995087760560000012004373245900211095_"  style="overflow:visible;"/>
		</clipPath>
		<path id="path3633" style="clip-path:url(#SVGID_00000081607084042032707770000002449647493201981593_);fill:#2F6B39;" d="
			M132.8,202.5c0.3,0.2,0.6,0.3,0.9,0.5c0,0-0.1,0.1-0.1,0.1c-0.3-0.2-0.6-0.3-0.9-0.5C132.7,202.6,132.7,202.5,132.8,202.5"/>
	</g>
	<g>
		<defs>
			<rect id="SVGID_00000010309868527701792470000007799404147455983550_" x="-212.5" y="-557.2" width="1207.6" height="858.9"/>
		</defs>
		<clipPath id="SVGID_00000089536131765725627170000006061097562331899029_">
			<use xlink:href="#SVGID_00000010309868527701792470000007799404147455983550_"  style="overflow:visible;"/>
		</clipPath>
		<path id="path3635" style="clip-path:url(#SVGID_00000089536131765725627170000006061097562331899029_);fill:#2F6B39;" d="
			M134.8,204.2c0.2-0.2,0.3-0.3,0.5-0.5c0.1,0.1,0.2,0.1,0.2,0.2c-0.2,0.2-0.3,0.3-0.5,0.5C134.9,204.3,134.9,204.3,134.8,204.2"/>
	</g>
	<g>
		<defs>
			<rect id="SVGID_00000109730879886694620710000016046552383218851993_" x="-212.5" y="-557.2" width="1207.6" height="858.9"/>
		</defs>
		<clipPath id="SVGID_00000070109599801518647590000016710489665281108159_">
			<use xlink:href="#SVGID_00000109730879886694620710000016046552383218851993_"  style="overflow:visible;"/>
		</clipPath>
		<path id="path3637" style="clip-path:url(#SVGID_00000070109599801518647590000016710489665281108159_);fill:#2F6B39;" d="
			M136.1,204.5c0.2-0.2,0.4-0.4,0.5-0.6c0.1,0.1,0.2,0.2,0.3,0.3c-0.2,0.2-0.4,0.4-0.5,0.6C136.3,204.7,136.2,204.6,136.1,204.5"/>
	</g>
	<g>
		<defs>
			<rect id="SVGID_00000034050324846096068610000007031812549585035963_" x="-212.5" y="-557.2" width="1207.6" height="858.9"/>
		</defs>
		<clipPath id="SVGID_00000023240015833505428900000008941062088593873084_">
			<use xlink:href="#SVGID_00000034050324846096068610000007031812549585035963_"  style="overflow:visible;"/>
		</clipPath>
		<path id="path3639" style="clip-path:url(#SVGID_00000023240015833505428900000008941062088593873084_);fill:#2F6B39;" d="
			M112.5,206.6c0,0.1,0,0.1,0,0.2c0.1,0,0.2,0,0.3,0c0-0.1,0-0.1,0-0.2C112.7,206.6,112.6,206.6,112.5,206.6 M112.1,205.9
			c-0.2,0.4-0.5,0.7-0.8,1.1c0,0,0.1,0.1,0.1,0.1c0.1-0.1,0.2-0.3,0.3-0.4c0.1,0.1,0.2,0.1,0.3,0.2c-0.1,0.1-0.2,0.3-0.3,0.4
			c0,0,0.1,0.1,0.1,0.1c0.1-0.1,0.2-0.3,0.3-0.4c0.1,0.1,0.3,0.2,0.4,0.3c-0.1,0.2-0.2,0.3-0.4,0.5c0,0,0.1,0.1,0.1,0.1
			c0.3-0.4,0.6-0.8,0.9-1.2c0,0-0.1-0.1-0.1-0.1c-0.1,0.2-0.2,0.4-0.4,0.5c-0.1-0.1-0.3-0.2-0.4-0.3c0.1-0.1,0.2-0.3,0.3-0.4
			c0,0-0.1-0.1-0.1-0.1c-0.1,0.2-0.2,0.3-0.3,0.4c-0.1-0.1-0.2-0.1-0.3-0.2c0.1-0.2,0.2-0.3,0.4-0.5
			C112.2,206,112.1,206,112.1,205.9 M112,205.6c0.5,0.4,1,0.8,1.6,1.1c-0.4,0.5-0.7,1-1.1,1.5c-0.5-0.4-1-0.8-1.5-1.1
			C111.3,206.5,111.6,206.1,112,205.6"/>
	</g>
	<g>
		<defs>
			<rect id="SVGID_00000167374505826092424670000001577487187764956066_" x="-212.5" y="-557.2" width="1207.6" height="858.9"/>
		</defs>
		<clipPath id="SVGID_00000099662841527495358020000009366206938030815646_">
			<use xlink:href="#SVGID_00000167374505826092424670000001577487187764956066_"  style="overflow:visible;"/>
		</clipPath>
		<path id="path3641" style="clip-path:url(#SVGID_00000099662841527495358020000009366206938030815646_);fill:#2F6B39;" d="
			M110.1,209.6c0.1-0.2,0.2-0.4,0.3-0.6c0.2,0.1,0.4,0.2,0.6,0.3c-0.1,0.2-0.2,0.4-0.3,0.6C110.5,209.8,110.3,209.7,110.1,209.6"/>
	</g>
	<g>
		<defs>
			<rect id="SVGID_00000163074348157515109790000000088801115866136218_" x="-212.5" y="-557.2" width="1207.6" height="858.9"/>
		</defs>
		<clipPath id="SVGID_00000021828308799921995790000011836607096189185454_">
			<use xlink:href="#SVGID_00000163074348157515109790000000088801115866136218_"  style="overflow:visible;"/>
		</clipPath>
		<path id="path3643" style="clip-path:url(#SVGID_00000021828308799921995790000011836607096189185454_);fill:#2F6B39;" d="
			M139,209.2c0.2-0.1,0.3-0.1,0.5-0.2c0.1,0.1,0.1,0.3,0.2,0.4c-0.2,0.1-0.3,0.1-0.5,0.2C139.1,209.4,139.1,209.3,139,209.2"/>
	</g>
	<g>
		<defs>
			<rect id="SVGID_00000114784187357729945510000010101974182953499783_" x="-212.5" y="-557.2" width="1207.6" height="858.9"/>
		</defs>
		<clipPath id="SVGID_00000145055272063012455380000009627044026191243958_">
			<use xlink:href="#SVGID_00000114784187357729945510000010101974182953499783_"  style="overflow:visible;"/>
		</clipPath>
		<path id="path3645" style="clip-path:url(#SVGID_00000145055272063012455380000009627044026191243958_);fill:#2F6B39;" d="
			M114.3,209.1c2.6,0,5.2,0,7.7,0c0,2.6,0,5.2,0.1,7.8c0,0.5,0.2,1,0.5,1.4c0.5,0.6,1.3,0.8,2.1,0.8c0.7,0,1.4-0.1,2-0.5
			c0.4-0.3,0.7-0.8,0.7-1.3c0-2.7,0.1-5.5,0.1-8.2c2.8,0,5.7,0,8.5,0c0,0.5,0,1,0,1.5c-0.8,0-1.6,0-2.4,0c0,1.2,0,2.4,0,3.6
			c0.5,0,1,0,1.6,0c0,0.6,0,1.1,0,1.7c-0.5,0-1,0-1.6,0c0,1.1,0,2.3,0,3.4c0.8,0,1.7,0,2.5,0c0,0.5,0,1,0,1.6c-1.6,0-3.1,0-4.7,0
			c0-3.4,0-6.8,0-10.2c-0.5,0-0.9,0-1.4,0c0,2.3,0,4.7-0.1,7c-0.1,0.8-0.4,1.5-1,2.1c-0.7,0.7-1.6,1.1-2.5,1.3
			c-0.9,0.2-1.9,0.2-2.9,0.1c-1.1-0.1-2.3-0.6-3.1-1.4c-0.4-0.4-0.7-0.9-0.8-1.5c0-2.5-0.1-5-0.1-7.5h-1.5c0,2.9,0,5.8,0,8.7
			c0.3,0,0.7,0,1,0c0,0.5,0,1,0,1.6c-1.6,0-3.2,0-4.8,0c0-0.5,0-1,0-1.5c0.5,0,1,0,1.5,0c0-2.9,0-5.8,0-8.6c-0.5,0-1,0-1.5,0
			C114.3,210.1,114.3,209.6,114.3,209.1"/>
	</g>
	<g>
		<defs>
			<rect id="SVGID_00000042711400714372560510000000959280677695595669_" x="-212.5" y="-557.2" width="1207.6" height="858.9"/>
		</defs>
		<clipPath id="SVGID_00000005265919286087677100000000568626124845670580_">
			<use xlink:href="#SVGID_00000042711400714372560510000000959280677695595669_"  style="overflow:visible;"/>
		</clipPath>
		<path id="path3647" style="clip-path:url(#SVGID_00000005265919286087677100000000568626124845670580_);fill:#2F6B39;" d="
			M109.8,210.4c0.1-0.2,0.2-0.4,0.2-0.6c0.2,0.1,0.4,0.2,0.6,0.3c-0.1,0.2-0.2,0.4-0.2,0.6C110.2,210.6,110,210.5,109.8,210.4"/>
	</g>
	<g>
		<defs>
			<rect id="SVGID_00000137102035942125744180000017433513652438385813_" x="-212.5" y="-557.2" width="1207.6" height="858.9"/>
		</defs>
		<clipPath id="SVGID_00000063611081104301586900000010250188349402535574_">
			<use xlink:href="#SVGID_00000137102035942125744180000017433513652438385813_"  style="overflow:visible;"/>
		</clipPath>
		<path id="path3649" style="clip-path:url(#SVGID_00000063611081104301586900000010250188349402535574_);fill:#2F6B39;" d="
			M140.1,219.8c0.2,0,0.3,0,0.5,0c0,0.1-0.1,0.2-0.1,0.3C140.4,220,140.2,219.9,140.1,219.8"/>
	</g>
	<g>
		<defs>
			<rect id="SVGID_00000080198702832986314220000014001632073307538855_" x="-212.5" y="-557.2" width="1207.6" height="858.9"/>
		</defs>
		<clipPath id="SVGID_00000045619598390171182050000016481005775437911956_">
			<use xlink:href="#SVGID_00000080198702832986314220000014001632073307538855_"  style="overflow:visible;"/>
		</clipPath>
		<path id="path3651" style="clip-path:url(#SVGID_00000045619598390171182050000016481005775437911956_);fill:#2F6B39;" d="
			M120.3,225.2c2.6-1.7,5.6-2.9,8.6-3.6c-0.5,0.5-1.1,0.9-1.6,1.4c-0.1,0.1-0.3,0.2-0.3,0.4c0.3,0,0.7,0,1-0.1
			c1.1-0.2,2.2-0.4,3.2-0.6c0.4-0.1,0.7-0.1,1.1-0.1c-0.3,0.3-0.8,0.4-1.2,0.6c-0.1,0.1-0.3,0.1-0.3,0.2c-0.1,0.1,0,0.2,0.1,0.2
			c0.2,0.1,0.5,0,0.7,0c0.8-0.1,1.5-0.2,2.3-0.4c1.2-0.3,2.3-0.8,3.3-1.5c-0.6,0.7-1.4,1.1-2.3,1.4c-1.8,0.7-3.7,1.1-5.6,1.5
			c-1.3,0.2-2.7,0.4-4,0.6c-2.4,0.2-4.7,0.8-7,1.6C118.9,226.1,119.6,225.6,120.3,225.2"/>
	</g>
	<g>
		<defs>
			<rect id="SVGID_00000029724120544737196400000000827115316549562522_" x="-212.5" y="-557.2" width="1207.6" height="858.9"/>
		</defs>
		<clipPath id="SVGID_00000062154373832424387360000013666460298169613719_">
			<use xlink:href="#SVGID_00000029724120544737196400000000827115316549562522_"  style="overflow:visible;"/>
		</clipPath>
		<path id="path3653" style="clip-path:url(#SVGID_00000062154373832424387360000013666460298169613719_);fill:#2F6B39;" d="
			M116.2,228.8c0.2-0.1,0.5,0.1,0.4,0.3c0,0.1-0.1,0.3-0.3,0.4c-0.2,0.1-0.5-0.1-0.4-0.3C116,229,116.1,228.9,116.2,228.8"/>
	</g>
	<g>
		<defs>
			<rect id="SVGID_00000041291365669349725390000003902267451780519817_" x="-212.5" y="-557.2" width="1207.6" height="858.9"/>
		</defs>
		<clipPath id="SVGID_00000180353245349473956760000003443470107800834192_">
			<use xlink:href="#SVGID_00000041291365669349725390000003902267451780519817_"  style="overflow:visible;"/>
		</clipPath>
		<path id="path3655" style="clip-path:url(#SVGID_00000180353245349473956760000003443470107800834192_);fill:#2F6B39;" d="
			M133.8,228.8c0.3-0.1,0.4,0.2,0.5,0.4c0.1,0.2-0.2,0.4-0.4,0.3c-0.1-0.1-0.2-0.2-0.3-0.4C133.6,229,133.6,228.9,133.8,228.8"/>
	</g>
	<g>
		<defs>
			<rect id="SVGID_00000081618920274657073890000006479876529495333042_" x="-212.5" y="-557.2" width="1207.6" height="858.9"/>
		</defs>
		<clipPath id="SVGID_00000159429319942335248090000004913189403735825087_">
			<use xlink:href="#SVGID_00000081618920274657073890000006479876529495333042_"  style="overflow:visible;"/>
		</clipPath>
		<path id="path3657" style="clip-path:url(#SVGID_00000159429319942335248090000004913189403735825087_);fill:#2F6B39;" d="
			M132.3,229.7c0.1,0,0.2-0.1,0.3-0.1c0.1,0,0.2,0.1,0.1,0.2c-0.1,0.1-0.2,0.1-0.3,0.2C132.4,229.9,132.3,229.8,132.3,229.7"/>
	</g>
	<g>
		<defs>
			<rect id="SVGID_00000144320081594749104170000001878216343067859872_" x="-212.5" y="-557.2" width="1207.6" height="858.9"/>
		</defs>
		<clipPath id="SVGID_00000071547884882944155230000002062685350487457682_">
			<use xlink:href="#SVGID_00000144320081594749104170000001878216343067859872_"  style="overflow:visible;"/>
		</clipPath>
		<path id="path3659" style="clip-path:url(#SVGID_00000071547884882944155230000002062685350487457682_);fill:#2F6B39;" d="
			M120.8,230.9c0.1,0,0.3,0,0.4,0.2c0,0.2-0.3,0.1-0.4,0.1C120.8,231,120.8,230.9,120.8,230.9"/>
	</g>
	<g>
		<defs>
			<rect id="SVGID_00000057845984698639979440000016144756564731991963_" x="-212.5" y="-557.2" width="1207.6" height="858.9"/>
		</defs>
		<clipPath id="SVGID_00000032613220435370708750000006513586821671285938_">
			<use xlink:href="#SVGID_00000057845984698639979440000016144756564731991963_"  style="overflow:visible;"/>
		</clipPath>
		<path id="path3661" style="clip-path:url(#SVGID_00000032613220435370708750000006513586821671285938_);fill:#2F6B39;" d="
			M122.3,231.5c0-0.1,0-0.2,0-0.3c0.1,0,0.2,0,0.3,0.1c0.1,0.1,0,0.2,0,0.2C122.5,231.5,122.4,231.5,122.3,231.5"/>
	</g>
	<g>
		<defs>
			<rect id="SVGID_00000108296319150178910350000014190909470933442477_" x="-212.5" y="-557.2" width="1207.6" height="858.9"/>
		</defs>
		<clipPath id="SVGID_00000112611582233219897510000015799387789312166066_">
			<use xlink:href="#SVGID_00000108296319150178910350000014190909470933442477_"  style="overflow:visible;"/>
		</clipPath>
		<path id="path3663" style="clip-path:url(#SVGID_00000112611582233219897510000015799387789312166066_);fill:#2F6B39;" d="
			M123.9,231.5c0,0.2,0.1,0.3,0.1,0.5c-0.1,0-0.2,0-0.3,0C123.8,231.8,123.9,231.7,123.9,231.5"/>
	</g>
	<g>
		<defs>
			<rect id="SVGID_00000013188505938161380290000006367988318694084524_" x="-212.5" y="-557.2" width="1207.6" height="858.9"/>
		</defs>
		<clipPath id="SVGID_00000157287142603259896730000001752527551271753395_">
			<use xlink:href="#SVGID_00000013188505938161380290000006367988318694084524_"  style="overflow:visible;"/>
		</clipPath>
		<path id="path3665" style="clip-path:url(#SVGID_00000157287142603259896730000001752527551271753395_);fill:#2F6B39;" d="
			M122.2,231.7c0.1,0,0.2,0,0.3,0.1c0.1,0,0.1,0.2,0,0.2c-0.1,0-0.2,0-0.3,0C122.2,231.9,122.2,231.8,122.2,231.7"/>
	</g>
</g>
</svg>
