<?xml version="1.0" encoding="utf-8"?>
<!-- Generator: Adobe Illustrator 28.0.0, SVG Export Plug-In . SVG Version: 6.00 Build 0)  -->
<svg version="1.1" id="svg1" xmlns:svg="http://www.w3.org/2000/svg"
	 xmlns="http://www.w3.org/2000/svg" xmlns:xlink="http://www.w3.org/1999/xlink" x="0px" y="0px" viewBox="0 0 39.1 39.1"
	 style="enable-background:new 0 0 39.1 39.1;" xml:space="preserve">
<style type="text/css">
	.st0{clip-path:url(#SVGID_00000067947424533362108550000001548726920696031638_);fill:#293D9B;}
	.st1{clip-path:url(#SVGID_00000158730358812767309990000009433092827702820025_);fill:#293D9B;}
	.st2{clip-path:url(#SVGID_00000049913033755350673630000006860036261162060975_);fill:#293D9B;}
	.st3{clip-path:url(#SVGID_00000014608702127023920710000012213678080253361032_);fill:#293D9B;}
	.st4{clip-path:url(#SVGID_00000163062884840997709120000018357666302165983660_);fill:#293D9B;}
	.st5{clip-path:url(#SVGID_00000057842860778348024580000004087924439468594357_);fill:#293D9B;}
	.st6{clip-path:url(#SVGID_00000079461039758404007010000017525127589405210288_);fill:#293D9B;}
	.st7{clip-path:url(#SVGID_00000106852776280882303860000007274298853461726642_);fill:#293D9B;}
	.st8{clip-path:url(#SVGID_00000118381015128185019180000015053459414934425474_);fill:#293D9B;}
	.st9{clip-path:url(#SVGID_00000018942519307629535870000004921862706223468724_);fill:#293D9B;}
	.st10{clip-path:url(#SVGID_00000026165643863402178380000014660116800727918995_);fill:#293D9B;}
	.st11{clip-path:url(#SVGID_00000075164294208889938660000016914693660962015127_);fill:#293D9B;}
	.st12{clip-path:url(#SVGID_00000078737113716950012090000005025470018356130480_);fill:#293D9B;}
	.st13{clip-path:url(#SVGID_00000021083485669891255550000006541558892618977931_);fill:#293D9B;}
	.st14{clip-path:url(#SVGID_00000182503008786348305010000016211001361873033912_);fill:#293D9B;}
	.st15{clip-path:url(#SVGID_00000038389392124571563750000012447195673420559762_);fill:#293D9B;}
	.st16{clip-path:url(#SVGID_00000137093940960937983550000017120017795678253192_);fill:#293D9B;}
	.st17{clip-path:url(#SVGID_00000139282274695760450820000004778745844921150353_);fill:#293D9B;}
	.st18{clip-path:url(#SVGID_00000149378920875026255890000017609367025847970475_);fill:#293D9B;}
	.st19{clip-path:url(#SVGID_00000080196587753559893770000018125354144116992439_);fill:#293D9B;}
	.st20{clip-path:url(#SVGID_00000178165227334775910740000001849671848283257230_);fill:#293D9B;}
	.st21{clip-path:url(#SVGID_00000019636462070640736050000002444773105819492775_);fill:#293D9B;}
	.st22{clip-path:url(#SVGID_00000036251606310441700480000005854597779465377197_);fill:#293D9B;}
	.st23{clip-path:url(#SVGID_00000173122225125827923320000018361092188566476734_);fill:#293D9B;}
	.st24{clip-path:url(#SVGID_00000106132123598611382370000007920078897453760944_);fill:#293D9B;}
</style>
<g id="layer1" transform="translate(-146.1849,-152.36749)">
	<g>
		<defs>
			<rect id="SVGID_1_" x="-287" y="-476.3" width="1207.6" height="858.9"/>
		</defs>
		<clipPath id="SVGID_00000053508195038408635540000005898930868817460910_">
			<use xlink:href="#SVGID_1_"  style="overflow:visible;"/>
		</clipPath>
		<path id="path2909" style="clip-path:url(#SVGID_00000053508195038408635540000005898930868817460910_);fill:#293D9B;" d="
			M173.3,160.5c-0.2-0.1-0.2-0.2-0.1-0.3c0.1-0.2,0.4,0.1,0.6-0.1l1.9-2.3c0.2-0.2-0.1-0.5,0-0.6c0.1-0.1,0.2-0.1,0.4,0.1l2,1.7
			c0.3,0.2,0.3,0.4-0.1,0.8c-0.1,0.1-0.2,0.2-0.3,0.1c-0.1-0.1,0-0.2-0.1-0.4c0-0.2-0.1-0.3-0.3-0.4l-0.6-0.5
			c-0.2-0.1-0.4-0.1-0.5,0.1l-0.7,0.8l0.9,0.7c0.2,0.2,0.4-0.1,0.6,0c0.1,0.1-0.1,0.3-0.2,0.5c-0.2,0.3-0.4,0.5-0.5,0.4
			c-0.1-0.1,0.1-0.4-0.1-0.6l-0.9-0.7l-0.7,0.8c-0.1,0.2-0.1,0.4,0,0.5l0.7,0.6c0.2,0.2,0.4,0.2,0.5,0.1c0.2,0,0.3-0.1,0.4,0
			c0.1,0.1,0.1,0.2,0,0.3c-0.4,0.4-0.6,0.5-0.8,0.3L173.3,160.5z"/>
	</g>
	<g>
		<defs>
			<rect id="SVGID_00000143587993830199861630000004913000603609311631_" x="-287" y="-476.3" width="1207.6" height="858.9"/>
		</defs>
		<clipPath id="SVGID_00000119828245155780553400000018273015142839934133_">
			<use xlink:href="#SVGID_00000143587993830199861630000004913000603609311631_"  style="overflow:visible;"/>
		</clipPath>
		<path id="path2911" style="clip-path:url(#SVGID_00000119828245155780553400000018273015142839934133_);fill:#293D9B;" d="
			M165.7,153.4c-10.2,0-18.6,8.3-18.6,18.6c0,10.2,8.3,18.6,18.6,18.6s18.6-8.3,18.6-18.6C184.3,161.7,176,153.4,165.7,153.4
			 M165.7,191.5c-10.8,0-19.6-8.8-19.6-19.6c0-10.8,8.8-19.6,19.6-19.6c10.8,0,19.6,8.8,19.6,19.6
			C185.3,182.7,176.5,191.5,165.7,191.5"/>
	</g>
	<g>
		<defs>
			<rect id="SVGID_00000088830079055888674800000000789979671808071354_" x="-287" y="-476.3" width="1207.6" height="858.9"/>
		</defs>
		<clipPath id="SVGID_00000081642638263976221170000004188255931391894173_">
			<use xlink:href="#SVGID_00000088830079055888674800000000789979671808071354_"  style="overflow:visible;"/>
		</clipPath>
		<path id="path2913" style="clip-path:url(#SVGID_00000081642638263976221170000004188255931391894173_);fill:#293D9B;" d="
			M165.7,159.9c-6.7,0-12.1,5.4-12.1,12.1c0,6.7,5.4,12.1,12.1,12.1c6.7,0,12.1-5.4,12.1-12.1C177.8,165.3,172.4,159.9,165.7,159.9
			 M165.7,185c-7.2,0-13.1-5.9-13.1-13.1s5.9-13.1,13.1-13.1c7.2,0,13.1,5.9,13.1,13.1S173,185,165.7,185"/>
	</g>
	<g>
		<defs>
			<rect id="SVGID_00000026873324152723682570000017248187335593445280_" x="-287" y="-476.3" width="1207.6" height="858.9"/>
		</defs>
		<clipPath id="SVGID_00000078014605374536409200000004911964727536698507_">
			<use xlink:href="#SVGID_00000026873324152723682570000017248187335593445280_"  style="overflow:visible;"/>
		</clipPath>
		<path id="path2915" style="clip-path:url(#SVGID_00000078014605374536409200000004911964727536698507_);fill:#293D9B;" d="
			M180,171.9c-0.3,0-0.2,0.3-0.4,0.4c-0.1,0-0.2-0.1-0.2-0.3l0-1.1c0-0.2,0-0.3,0.2-0.3c0.2,0,0.2,0.4,0.5,0.3l3.1-0.1
			c0.3,0,0.3-0.4,0.5-0.4c0.1,0,0.2,0.1,0.2,0.3l0,1.1c0,0.2-0.1,0.3-0.2,0.3c-0.2,0-0.2-0.3-0.5-0.3L180,171.9z"/>
	</g>
	<g>
		<defs>
			<rect id="SVGID_00000076575375821722674940000013792158128758587822_" x="-287" y="-476.3" width="1207.6" height="858.9"/>
		</defs>
		<clipPath id="SVGID_00000181770099989541286170000013616218442377072304_">
			<use xlink:href="#SVGID_00000076575375821722674940000013792158128758587822_"  style="overflow:visible;"/>
		</clipPath>
		<path id="path2917" style="clip-path:url(#SVGID_00000181770099989541286170000013616218442377072304_);fill:#293D9B;" d="
			M183.1,167c0.1,0.4,0.1,0.7,0.1,0.9c0,0.1-0.1,0.3,0.1,0.4c0.2,0.1,0.1,0.3-0.1,0.4c-0.1,0.1-0.5,0.2-0.8,0.3
			c-0.1,0-0.2,0-0.3-0.1c-0.1-0.2,0.2-0.3,0.4-0.7c0.2-0.3,0.2-0.7,0.1-1.1c-0.1-0.5-0.4-0.7-0.8-0.5c-0.7,0.4,0.4,2.5-1.2,3
			c-0.9,0.3-1.6-0.2-1.9-1.2c-0.1-0.4-0.1-0.8,0-1.1c0-0.2-0.2-0.2-0.2-0.3c0-0.1,0.1-0.2,0.3-0.4c0.3-0.2,0.6-0.4,0.9-0.5
			c0.2-0.1,0.4,0,0.4,0.1c0.1,0.3-0.9,0.9-0.7,1.9c0.1,0.6,0.4,0.8,0.8,0.7c0.9-0.3-0.3-2.5,1.2-3.1
			C182.1,165.6,182.9,166,183.1,167"/>
	</g>
	<g>
		<defs>
			<rect id="SVGID_00000109748532296362259180000018349656956169861550_" x="-287" y="-476.3" width="1207.6" height="858.9"/>
		</defs>
		<clipPath id="SVGID_00000181059854080479637130000014493506603334919044_">
			<use xlink:href="#SVGID_00000109748532296362259180000018349656956169861550_"  style="overflow:visible;"/>
		</clipPath>
		<path id="path2919" style="clip-path:url(#SVGID_00000181059854080479637130000014493506603334919044_);fill:#293D9B;" d="
			M182.9,176.6c0.1,0,0.2-0.1,0.3-0.2l0.6-3c0-0.1,0-0.2-0.2-0.3c-0.1-0.1-0.5-0.2-0.6-0.2c-0.1,0-0.2,0-0.2,0.1
			c-0.1,0.2,0.5,0.6,0.4,0.9l0,0.2c0,0.1-0.1,0.2-0.3,0.2l-3-0.6c-0.3-0.1-0.2-0.4-0.4-0.4c-0.1,0-0.2,0-0.2,0.2l-0.2,1.1
			c0,0.2,0,0.3,0.1,0.3c0.2,0,0.2-0.3,0.5-0.3l3,0.6c0.1,0,0.2,0.1,0.2,0.3l0,0.2c-0.1,0.3-0.7,0.5-0.7,0.7c0,0.1,0.1,0.2,0.2,0.2
			C182.4,176.6,182.8,176.6,182.9,176.6"/>
	</g>
	<g>
		<defs>
			<rect id="SVGID_00000159448159628768671810000011105162395334098080_" x="-287" y="-476.3" width="1207.6" height="858.9"/>
		</defs>
		<clipPath id="SVGID_00000046300898966260261460000011537930994351948199_">
			<use xlink:href="#SVGID_00000159448159628768671810000011105162395334098080_"  style="overflow:visible;"/>
		</clipPath>
		<path id="path2921" style="clip-path:url(#SVGID_00000046300898966260261460000011537930994351948199_);fill:#293D9B;" d="
			M178.4,176.8c0.1-0.2,0.2-0.2,0.3-0.2c0.2,0.1,0,0.3,0.3,0.5l1.1,0.5l2.3-0.3c0,0,0.2,0,0.3-0.1c0.2-0.1,0.3-0.2,0.4-0.2
			c0.1,0,0.1,0.1,0.1,0.2l-0.5,1.3c-0.1,0.1-0.2,0.2-0.2,0.1c-0.1-0.1-0.1-0.2-0.2-0.3c-0.1-0.1-0.2-0.1-0.2-0.1l-1.6,0.2l0.9,1.3
			c0,0,0.1,0.1,0.2,0.1c0.1,0,0.3-0.3,0.4-0.2c0.1,0,0.1,0.1,0.1,0.2l-0.4,1c0,0.1-0.1,0.2-0.2,0.1c-0.1-0.1-0.1-0.3-0.1-0.5
			c-0.1-0.2-0.1-0.2-0.1-0.2l-1.3-1.8l-1.1-0.5c-0.3-0.1-0.3,0.2-0.5,0.1c-0.1,0-0.1-0.1-0.1-0.3L178.4,176.8z"/>
	</g>
	<g>
		<defs>
			<rect id="SVGID_00000048488918615934464280000003649961412890101402_" x="-287" y="-476.3" width="1207.6" height="858.9"/>
		</defs>
		<clipPath id="SVGID_00000021806695534398406330000013901043760891695028_">
			<use xlink:href="#SVGID_00000048488918615934464280000003649961412890101402_"  style="overflow:visible;"/>
		</clipPath>
		<path id="path2923" style="clip-path:url(#SVGID_00000021806695534398406330000013901043760891695028_);fill:#293D9B;" d="
			M151.3,170.7c0.2,0,0.4-0.1,0.4-0.3c0,0,0-0.1,0-0.3c0.1-0.5-0.3-1.2-1.5-1.3c-1.1-0.1-1.7,0.2-1.8,0.8c0,0.2,0,0.4,0,0.4
			c0,0.2,0.1,0.4,0.3,0.4L151.3,170.7z M148.5,171.3c-0.3,0-0.4,0.3-0.6,0.3c-0.1,0-0.2-0.1-0.1-0.3l0.2-1.5c0.2-1.5,1.2-2,2.4-1.9
			c1.3,0.2,2.1,1.1,2,2.4l-0.2,1.6c0,0.2-0.1,0.3-0.2,0.3c-0.2,0-0.2-0.4-0.5-0.4L148.5,171.3z"/>
	</g>
	<g>
		<defs>
			<rect id="SVGID_00000096741777632974481080000002473923775284710834_" x="-287" y="-476.3" width="1207.6" height="858.9"/>
		</defs>
		<clipPath id="SVGID_00000035531936606947731650000009121331281945373362_">
			<use xlink:href="#SVGID_00000096741777632974481080000002473923775284710834_"  style="overflow:visible;"/>
		</clipPath>
		<path id="path2925" style="clip-path:url(#SVGID_00000035531936606947731650000009121331281945373362_);fill:#293D9B;" d="
			M148.1,175.6c0-0.1,0-0.3,0.1-0.3c0.2,0,0.3,0.3,0.5,0.3c0.2,0,1.4-0.2,2.1-0.4c0.6-0.1,1-0.4,0.9-1.2c-0.1-0.6-0.7-0.9-1.3-0.8
			c-0.4,0.1-2.1,0.4-2.1,0.4c-0.1,0-0.2,0-0.2,0.1c-0.1,0.1-0.1,0.3-0.2,0.3c-0.1,0-0.2,0-0.2-0.1l-0.2-0.9c0-0.2,0-0.2,0.1-0.2
			c0.1,0,0.2,0.1,0.3,0.2c0.1,0,0.2,0,0.2,0c0.1,0,1.4-0.2,2-0.3c0.8-0.1,1.7,0,2,1.4c0.2,1.3-0.5,1.9-1.4,2.1
			c-0.8,0.1-1.9,0.3-2.1,0.4c-0.3,0-0.2,0.4-0.4,0.4c-0.1,0-0.2-0.1-0.2-0.2L148.1,175.6z"/>
	</g>
	<g>
		<defs>
			<rect id="SVGID_00000012446204609306807350000012535113732250375097_" x="-287" y="-476.3" width="1207.6" height="858.9"/>
		</defs>
		<clipPath id="SVGID_00000112626069125141713990000012498661792552562335_">
			<use xlink:href="#SVGID_00000012446204609306807350000012535113732250375097_"  style="overflow:visible;"/>
		</clipPath>
		<path id="path2927" style="clip-path:url(#SVGID_00000112626069125141713990000012498661792552562335_);fill:#293D9B;" d="
			M154.6,164c-0.2,0.2-0.3,0.2-0.3,0.1c-0.1-0.1,0.2-0.4,0-0.6l-2.3-2.1c-0.2-0.2-0.4,0.2-0.7,0c-0.1-0.1-0.1-0.2,0-0.3l0.5-0.6
			c0.3-0.3,0.4-0.3,0.8-0.3c0.5,0.1,2.7,0.3,2.7,0.3l-1.5-1.3c-0.2-0.2-0.5,0.1-0.7,0c-0.1-0.1-0.1-0.2,0-0.3l0.6-0.7
			c0.1-0.1,0.2-0.1,0.3,0c0.1,0.2-0.1,0.4,0.1,0.6l2.6,2.2c0.2,0.2,0.2,0.3,0.1,0.5c-0.1,0.1-0.2,0.1-0.4,0.1l-3.8-0.5l2,1.8
			c0.2,0.2,0.5-0.1,0.6,0c0.1,0.1,0.1,0.2-0.1,0.3L154.6,164z"/>
	</g>
	<g>
		<defs>
			<rect id="SVGID_00000055672905734338169380000011762825612584474528_" x="-287" y="-476.3" width="1207.6" height="858.9"/>
		</defs>
		<clipPath id="SVGID_00000170983078817310508040000007892319176998716312_">
			<use xlink:href="#SVGID_00000055672905734338169380000011762825612584474528_"  style="overflow:visible;"/>
		</clipPath>
		<path id="path2929" style="clip-path:url(#SVGID_00000170983078817310508040000007892319176998716312_);fill:#293D9B;" d="
			M168.9,158c-0.1,0.3,0.3,0.4,0.3,0.5c0,0.1-0.1,0.2-0.3,0.1l-1.1-0.2c-0.2,0-0.3-0.1-0.2-0.2c0-0.2,0.4-0.1,0.4-0.4l0.5-3
			c0.1-0.3-0.3-0.3-0.3-0.5c0-0.1,0.1-0.2,0.3-0.1l1.1,0.2c0.2,0,0.3,0.1,0.2,0.2c-0.1,0.2-0.4,0.1-0.4,0.4L168.9,158z"/>
	</g>
	<g>
		<defs>
			<rect id="SVGID_00000021804360552362919810000007697781107850711705_" x="-287" y="-476.3" width="1207.6" height="858.9"/>
		</defs>
		<clipPath id="SVGID_00000005265604283890598920000007849564194906779827_">
			<use xlink:href="#SVGID_00000021804360552362919810000007697781107850711705_"  style="overflow:visible;"/>
		</clipPath>
		<path id="path2931" style="clip-path:url(#SVGID_00000005265604283890598920000007849564194906779827_);fill:#293D9B;" d="
			M178.6,162.5c0,0,0.2,0.3,0.3,0.5c0.3,0.5,0.7,0.7,1.3,0.4c0.4-0.2,0.5-0.6,0.1-1.2c-0.2-0.3-0.4-0.4-0.6-0.3L178.6,162.5z
			 M176.2,163c-0.1-0.2-0.1-0.3,0-0.3c0.1-0.1,0.3,0.2,0.6,0l2.6-1.7c0.3-0.2,0.1-0.5,0.3-0.6c0.1-0.1,0.2,0,0.3,0.2l1.1,1.7
			c0.5,0.7,0.5,1.5-0.3,2c-0.5,0.3-1.1,0.1-1.5-0.2c0,0-0.6,1.1-0.7,1.3c-0.1,0.3,0,0.5-0.1,0.7c-0.1,0.1-0.2,0-0.2-0.1l-0.8-1.2
			c0-0.1-0.1-0.2,0-0.2c0.1-0.1,0.2,0.1,0.4,0.1c0.1,0,0.2-0.1,0.2-0.2c0-0.1,0.6-1.1,0.6-1.1l-0.4-0.6l-1,0.6
			c-0.3,0.2-0.1,0.4-0.2,0.5c-0.1,0.1-0.2,0-0.3-0.1L176.2,163z"/>
	</g>
	<g>
		<defs>
			<rect id="SVGID_00000167356200920636799180000012452834945824106401_" x="-287" y="-476.3" width="1207.6" height="858.9"/>
		</defs>
		<clipPath id="SVGID_00000012432837174957294920000011459856924719921536_">
			<use xlink:href="#SVGID_00000167356200920636799180000012452834945824106401_"  style="overflow:visible;"/>
		</clipPath>
		<path id="path2933" style="clip-path:url(#SVGID_00000012432837174957294920000011459856924719921536_);fill:#293D9B;" d="
			M158.9,155.3c0.1-0.1,0.3,0,0.3,0.1c0.1,0.2-0.2,0.3-0.2,0.6c0.1,0.2,0.5,1.3,0.7,2c0.2,0.6,0.6,0.9,1.3,0.7
			c0.6-0.2,0.7-0.8,0.5-1.3c-0.2-0.4-0.7-2-0.7-2c0-0.1-0.1-0.2-0.2-0.2c-0.1-0.1-0.3,0-0.4-0.2c-0.1-0.1,0-0.2,0.1-0.2l0.9-0.3
			c0.1-0.1,0.2,0,0.2,0.1c0,0.1-0.1,0.2-0.2,0.4c0,0.1,0,0.2,0,0.2c0,0.1,0.5,1.3,0.7,1.9c0.3,0.8,0.3,1.7-1,2.2
			c-1.2,0.4-2-0.1-2.3-1c-0.3-0.7-0.7-1.8-0.7-2c-0.1-0.3-0.4-0.1-0.5-0.3c0-0.1,0-0.2,0.2-0.3L158.9,155.3z"/>
	</g>
	<g>
		<defs>
			<rect id="SVGID_00000042712274551815197220000000380494968315517601_" x="-287" y="-476.3" width="1207.6" height="858.9"/>
		</defs>
		<clipPath id="SVGID_00000171683687879883580690000008571249283241217921_">
			<use xlink:href="#SVGID_00000042712274551815197220000000380494968315517601_"  style="overflow:visible;"/>
		</clipPath>
		<path id="path2935" style="clip-path:url(#SVGID_00000171683687879883580690000008571249283241217921_);fill:#293D9B;" d="
			M163.2,158.4c-0.2,0-0.3-0.1-0.3-0.2c0-0.2,0.5-0.2,0.4-0.5l-0.1-3.1c0-0.3-0.4-0.2-0.5-0.4c0-0.1,0.1-0.2,0.2-0.2l0.7,0
			c0.4,0,0.5,0.1,0.7,0.4c0.3,0.4,1.6,2.2,1.6,2.2l-0.1-2c0-0.3-0.4-0.3-0.5-0.5c0-0.1,0.1-0.2,0.3-0.2l0.9,0c0.2,0,0.2,0.1,0.2,0.2
			c0,0.2-0.4,0.2-0.4,0.5l0.1,3.4c0,0.3-0.1,0.4-0.3,0.4c-0.1,0-0.2,0-0.3-0.2l-2.2-3.1l0.1,2.7c0,0.3,0.4,0.3,0.4,0.4
			c0,0.1-0.1,0.2-0.3,0.2L163.2,158.4z"/>
	</g>
	<g>
		<defs>
			<rect id="SVGID_00000068679794681499258670000007862124486027752345_" x="-287" y="-476.3" width="1207.6" height="858.9"/>
		</defs>
		<clipPath id="SVGID_00000181805411673157553660000001726507497199208637_">
			<use xlink:href="#SVGID_00000068679794681499258670000007862124486027752345_"  style="overflow:visible;"/>
		</clipPath>
		<path id="path2937" style="clip-path:url(#SVGID_00000181805411673157553660000001726507497199208637_);fill:#293D9B;" d="
			M160.3,173.1c-0.2,0.2-0.5,0.2-0.8,0.2c-0.7,0.1-1.3,0.1-1.9-0.2c-0.5-0.3-0.6-0.8-0.7-1.4c1.4-0.2,2.6-0.5,4-0.2
			C160.9,172.2,160.8,172.7,160.3,173.1 M157.3,168.5c0.5-0.4,1-0.4,1.6-0.5c0.4,0,0.8,0,1.1,0.1c0.3,0,0.6,0.3,0.7,0.6
			c0.2,0.4,0.2,0.7,0.1,1.1c-1.4,0.1-2.8,0.2-4.2,0.2C156.7,169.4,156.8,168.9,157.3,168.5 M172.9,163.8c-0.6-0.1-1.5-0.1-2.1,0
			c-2,0.1-2.9,0.4-4.9,0.5c-0.3,0-0.4-0.4-0.4-0.7c0.2-0.7,0.5-0.9,0.6-1.6c0.1-0.4-0.1-0.8-0.4-1c-0.6-0.4-1.5,0-1.6,0.7
			c-0.2,0.6-0.3,0.9-0.6,1.5c-0.5,0.8-1.2,1.4-1.8,2.1c-0.1,0.2-0.3,0.3-0.3,0.6c0,0.4,0.4,0.7,0.8,0.7c0.7-0.1,1.3-0.5,1.8-1
			c0.1,0.1,0.2,0.1,0.3,0.2c-0.5,0.8-1.3,1.4-1.7,2.2c-0.1,0.2-0.2,0.4-0.4,0.6c-0.1-0.6-0.2-1.3-0.8-1.7c-1.1-0.6-3.2-0.8-4.6-0.2
			c-0.3,0.1-0.5,0.2-0.8,0.5c-0.4,0.3-0.5,0.7-0.6,1.1c-0.4,1.4-0.5,2.8-0.3,4.2c0.1,1.1,1,2.1,2.1,2.5c0.7,0.2,1.4,0.1,2,0.1
			c1,0,1.9-0.2,2.6-0.9c0.6-0.6,0.7-1.5,0.8-2.4c0-0.7,0.6-1.2,0.8-1.8c0.2-0.5,0.5-1.1,0.7-1.3c0.2-0.2,0.4,0.1,0.3,0.2
			c-0.9,2-1.2,4.7-1.2,6.8c-1.1-0.1-2.3,0-3.4,0c-0.6,0-1.5,0.1-2.6,0.3c-0.2,0-0.9,0.3-1.1,0.4c-0.6,0.3-0.3,1.1,0.1,1.5
			c0.3,0.2,1.4,0,1.6,0c2.2-0.5,3.4-0.5,5.4-0.4c0,1.1,0,2.3,0.3,3.6c0.1,0.7,0.1,1.3,0.6,1.8c0.2,0.3,0.6,0.3,1,0.2
			c0.4-0.1,0.4-0.6,0.4-0.9c0-0.6-0.2-1.1-0.2-1.7c-0.1-0.9-0.1-1.8-0.1-2.7c0-1.4-0.2-2.8,0-4.2c0-0.3,0.1-0.7,0.1-1
			c0.1-0.6,0.2-1.3,0.3-1.9c0.2-0.7,0.5-1.3,0.6-2c0-0.6-0.4-1.1-0.5-1.7c0-0.3,0.2-0.5,0.4-0.7c0.3-0.2,0.8-0.3,1.2-0.4
			c0.6-0.2,1.2-0.2,1.7-0.2c1.1,0,1.7-0.2,2.7-0.1c0.7,0,1.3,0.1,1.9,0.1c0.4,0,0.6-0.2,0.7-0.5
			C174.2,164.5,173.7,163.8,172.9,163.8"/>
	</g>
	<g>
		<defs>
			<rect id="SVGID_00000123401866818334474520000008596426574653887147_" x="-287" y="-476.3" width="1207.6" height="858.9"/>
		</defs>
		<clipPath id="SVGID_00000062179391341749900880000016230219409029473440_">
			<use xlink:href="#SVGID_00000123401866818334474520000008596426574653887147_"  style="overflow:visible;"/>
		</clipPath>
		<path id="path2939" style="clip-path:url(#SVGID_00000062179391341749900880000016230219409029473440_);fill:#293D9B;" d="
			M172.4,168c-1.5,0-2.8,0.1-4.3,0.1c-0.1,0-0.2,0-0.3-0.1c-0.1-0.1-0.1-0.2,0.1-0.4c0.3-0.2,0.6-0.1,0.9-0.1
			c1.4-0.1,2.4-0.1,3.8-0.1c0.1,0,0.3,0,0.4,0c0.2,0,0.3,0.2,0.2,0.4C173.1,168,172.7,168,172.4,168 M174.2,166.6
			c-0.8-0.5-1.7-0.6-2.6-0.5c-0.7,0-1.4,0-2.1,0c-0.8,0.1-1.4,0-2.2,0.3c-0.4,0.2-0.8,0.5-0.8,0.9c0,0.4,0,0.7,0.1,1.1
			c0.1,0.3,0.4,0.6,0.7,0.6c1.7,0.2,3.1,0,4.7,0.1c0.8,0,1.7,0,2.3-0.6c0.2-0.1,0.3-0.4,0.3-0.7
			C174.7,167.5,174.6,166.9,174.2,166.6"/>
	</g>
	<g>
		<defs>
			<rect id="SVGID_00000176744577374162410470000013124494457482417799_" x="-287" y="-476.3" width="1207.6" height="858.9"/>
		</defs>
		<clipPath id="SVGID_00000157998407335383934870000014999426683556887689_">
			<use xlink:href="#SVGID_00000176744577374162410470000013124494457482417799_"  style="overflow:visible;"/>
		</clipPath>
		<path id="path2941" style="clip-path:url(#SVGID_00000157998407335383934870000014999426683556887689_);fill:#293D9B;" d="
			M172.8,171.5c-0.1,0-0.3,0-0.4,0c-1.2,0.1-1.7,0.1-3.4,0.1c-0.5,0-0.9,0-1.3,0c-0.2,0-0.3-0.1-0.3-0.2c0-0.1,0.1-0.2,0.2-0.2
			c0.2-0.1,0.6-0.1,1-0.1c0.9,0,1.8-0.1,2.7-0.1c0.5,0,1-0.1,1.5,0c0.3,0,0.3,0.3,0.3,0.3C173.1,171.4,172.9,171.5,172.8,171.5
			 M174.8,170.6c-0.1-0.4-0.3-0.7-0.8-0.8c-0.7-0.2-1.6-0.2-2.7-0.2c-0.9,0-2,0.1-2.5,0.1c-0.5,0-0.8,0.1-1.2,0.1
			c-0.5,0.1-0.8,0.3-1,0.5c-0.2,0.2-0.3,0.4-0.4,0.6c-0.2,0.7,0,1.3,0.5,1.7c0.3,0.2,0.7,0.3,1.1,0.3c2-0.1,3.9,0,5.9-0.2
			c0.5,0,0.9-0.4,1.1-0.8C175,171.5,174.9,171,174.8,170.6"/>
	</g>
	<g>
		<defs>
			<rect id="SVGID_00000059290469593832501760000006611325871986882474_" x="-287" y="-476.3" width="1207.6" height="858.9"/>
		</defs>
		<clipPath id="SVGID_00000096042141789086952140000015906617243128659890_">
			<use xlink:href="#SVGID_00000059290469593832501760000006611325871986882474_"  style="overflow:visible;"/>
		</clipPath>
		<path id="path2943" style="clip-path:url(#SVGID_00000096042141789086952140000015906617243128659890_);fill:#293D9B;" d="
			M172.6,176.7c-0.5,0.1-1.2,0.1-1.7,0.2c0-0.3,0-0.6,0-0.9c0.6,0,1.4-0.2,1.9-0.2C172.7,176.2,172.8,176.4,172.6,176.7
			 M174.4,173.6c-0.3-0.1-0.5,0.1-0.7,0.2c-0.3,0.3-0.5,0.8-0.9,0.8c-0.5,0.1-1.3,0.2-1.9,0.2c0.1-0.2,0.3-0.4,0.5-0.6
			c0.3-0.3,0.4-0.6,0.3-0.8c-0.1-0.1-0.3-0.2-0.5-0.2c-1.3,0.1-2.7,0.1-4,0.2c-0.4,0-0.3,0.8,0.1,1c0.5,0.2,1.3,0,1.8,0
			c0,0.2-0.1,0.4-0.1,0.6c-0.6,0.1-0.9,0.1-1.5,0.2c-0.7,0.1-1.3,0.2-1.6,0.5c-0.2,0.2-0.3,0.5-0.2,0.9c0.1,0.2,0.4,0.6,1,0.4
			c0.4-0.1,0.8-0.3,1.1-0.4c0.4-0.2,0.8-0.3,1.2-0.3c0,0.3,0.1,0.4,0.1,0.8c-0.6,0.1-1.1,0.2-1.7,0.4c-0.4,0.1-0.9,0.3-1.1,0.5
			c-0.2,0.2-0.5,0.4-0.6,0.6c-0.1,0.6,0.4,1.1,0.6,1.1c0.4-0.1,0.9-0.4,1.3-0.6c0.6-0.3,1.1-0.6,1.7-0.6c0.1,0.2,0.2,0.8,0.3,1.1
			c0.2,0.6,0.5,1.1,0.9,1.7c0.3,0.4,0.8,0.6,1.1,0.4c0.4-0.2,0.3-0.9,0.2-1.2c-0.3-0.8-0.5-0.8-0.7-1.7c0-0.1-0.2-0.5-0.1-0.6
			c0.3-0.1,0.9-0.2,1.3-0.2c0.7,0,0.9,0.2,1.3,0c0.3-0.1,0.3-0.3,0.4-0.3c0.4-1,0.7-2,0.9-3.1C175,174.3,174.8,173.7,174.4,173.6"/>
	</g>
	<g>
		<defs>
			<rect id="SVGID_00000127756778036405585070000007442648308558985135_" x="-287" y="-476.3" width="1207.6" height="858.9"/>
		</defs>
		<clipPath id="SVGID_00000091000941800889520230000013582035355649589636_">
			<use xlink:href="#SVGID_00000127756778036405585070000007442648308558985135_"  style="overflow:visible;"/>
		</clipPath>
		<path id="path2945" style="clip-path:url(#SVGID_00000091000941800889520230000013582035355649589636_);fill:#293D9B;" d="
			M151.7,165.3l-1.5-0.1l1.1,1.1L151.7,165.3z M151.6,166.6c0,0,0.5,0.5,0.6,0.6c0.2,0.2,0.4-0.2,0.5-0.1c0.1,0,0.1,0.1,0.1,0.2
			l-0.4,0.8c0,0.1-0.1,0.2-0.2,0.1c-0.2-0.1,0-0.4-0.3-0.6c-0.2-0.2-2.6-2.6-2.7-2.8c-0.1-0.1-0.2-0.3-0.1-0.5
			c0.1-0.2,0.3-0.2,0.4-0.2c0.4,0,3.7,0.2,3.9,0.2c0.2,0,0.3-0.2,0.5-0.2c0.1,0,0.1,0.2,0.1,0.3l-0.5,1.1c-0.1,0.1-0.2,0.1-0.3-0.1
			c0-0.2-0.1-0.3-0.3-0.3c-0.1,0-0.9-0.1-0.9-0.1L151.6,166.6z"/>
	</g>
	<g>
		<defs>
			<rect id="SVGID_00000130645976263015456900000006474410159017152939_" x="-287" y="-476.3" width="1207.6" height="858.9"/>
		</defs>
		<clipPath id="SVGID_00000046313256697192499150000011865893191585954228_">
			<use xlink:href="#SVGID_00000130645976263015456900000006474410159017152939_"  style="overflow:visible;"/>
		</clipPath>
		<path id="path2947" style="clip-path:url(#SVGID_00000046313256697192499150000011865893191585954228_);fill:#293D9B;" d="
			M174.8,156.3c0.2,0.1,0.2,0.2,0.2,0.3c-0.1,0.1-0.3,0.1-0.5,0.2c-0.1,0.1-0.3,0.2-0.3,0.2s-2.2,2.3-2.4,2.4
			c-0.2,0.2-0.4,0.3-0.7,0.2c-0.3-0.1-0.3-0.4-0.3-0.6c0-0.2,0.2-3.2,0.2-3.2s0-0.2,0-0.4c0-0.3-0.3-0.5-0.2-0.6
			c0-0.1,0.2-0.1,0.3,0l1.2,0.5c0.2,0.1,0.2,0.2,0.2,0.3c-0.1,0.1-0.3,0.1-0.4,0.2c-0.1,0.1-0.1,0.3-0.1,0.3l-0.2,2.7l1.9-2
			c0,0,0.1-0.1,0.1-0.3c0-0.2-0.3-0.3-0.2-0.5c0-0.1,0.1-0.1,0.3,0L174.8,156.3z"/>
	</g>
	<g>
		<defs>
			<rect id="SVGID_00000018233645078672213570000002148504443871453887_" x="-287" y="-476.3" width="1207.6" height="858.9"/>
		</defs>
		<clipPath id="SVGID_00000026846140215732120500000011682460361591334020_">
			<use xlink:href="#SVGID_00000018233645078672213570000002148504443871453887_"  style="overflow:visible;"/>
		</clipPath>
		<path id="path2949" style="clip-path:url(#SVGID_00000026846140215732120500000011682460361591334020_);fill:#293D9B;" d="
			M154,178.9c0.1,0.2,0.1,0.3,0,0.3c-0.2,0.1-0.3-0.3-0.6-0.1l-2.8,1.2c-0.3,0.1-0.1,0.4-0.3,0.5c-0.1,0-0.2,0-0.3-0.2l-1.1-2.4
			c-0.2-0.4,0.2-0.6,0.4-0.7c0.2-0.1,0.3-0.1,0.3,0c0,0.1,0,0.2-0.1,0.4c-0.1,0.2-0.1,0.3,0,0.5l0.3,0.8c0.1,0.2,0.3,0.2,0.4,0.2
			l1-0.5l-0.4-0.9c-0.1-0.3-0.5-0.1-0.6-0.3c0-0.1,0.2-0.3,0.4-0.4c0.3-0.2,0.6-0.3,0.7-0.1c0.1,0.2-0.3,0.3-0.1,0.6l0.4,0.9
			l1.2-0.5c0.3-0.1,0.1-0.5,0.3-0.5c0.1,0,0.2,0,0.3,0.2L154,178.9z"/>
	</g>
	<g>
		<defs>
			<rect id="SVGID_00000065761803219070238660000004634447823865867691_" x="-287" y="-476.3" width="1207.6" height="858.9"/>
		</defs>
		<clipPath id="SVGID_00000168109986041921383030000004696134940487788461_">
			<use xlink:href="#SVGID_00000065761803219070238660000004634447823865867691_"  style="overflow:visible;"/>
		</clipPath>
		<path id="path2951" style="clip-path:url(#SVGID_00000168109986041921383030000004696134940487788461_);fill:#293D9B;" d="
			M157.2,186.8c-0.2,0.2-0.1,0.4,0.1,0.6c0.2,0.2,0.2,0.3,0.2,0.4c-0.1,0.1-0.2,0.1-0.3,0l-1.7-1.1c-0.2-0.1-0.2-0.2-0.2-0.3
			c0.1-0.1,0.3-0.1,0.5,0c0.4,0.1,0.5,0,0.6-0.2l1.2-1.9c0.2-0.3,0.1-0.5-0.1-0.6c-0.1-0.1-0.2-0.1-0.2-0.2
			c-0.1-0.1-0.2-0.2-0.1-0.3c0.1-0.1,0.4,0,0.7,0.1c0.5,0.1,0.7,0.1,1,0.2c0.2,0.1,0.2,0.3,0.1,0.5L157.2,186.8z"/>
	</g>
	<g>
		<defs>
			<rect id="SVGID_00000063608067107637337060000002354836074723271589_" x="-287" y="-476.3" width="1207.6" height="858.9"/>
		</defs>
		<clipPath id="SVGID_00000167391112025122325080000012744174785463333816_">
			<use xlink:href="#SVGID_00000063608067107637337060000002354836074723271589_"  style="overflow:visible;"/>
		</clipPath>
		<path id="path2953" style="clip-path:url(#SVGID_00000167391112025122325080000012744174785463333816_);fill:#293D9B;" d="
			M163.1,186.7c0.1-0.5,0.1-1-0.5-1.2c-0.5-0.1-0.8,0.3-0.9,0.9c-0.1,0.4,0,1,0.5,1.1C162.7,187.6,163,187.3,163.1,186.7 M161.8,188
			c-0.9-0.2-1.4-0.8-1.2-1.7c0.2-1.1,1.2-1.4,2.1-1.2c1.1,0.2,1.7,1.2,1.5,2.3c-0.3,1.6-1.8,2.4-3.3,2.2c-0.2,0-0.4-0.1-0.4-0.2
			c0-0.2,0.4-0.2,0.7-0.3c1-0.3,1.3-0.6,1.5-1.1C162.4,188.1,162,188,161.8,188"/>
	</g>
	<g>
		<defs>
			<rect id="SVGID_00000083776437756377461250000012974114828037933723_" x="-287" y="-476.3" width="1207.6" height="858.9"/>
		</defs>
		<clipPath id="SVGID_00000153690680863470580340000012402470633055500675_">
			<use xlink:href="#SVGID_00000083776437756377461250000012974114828037933723_"  style="overflow:visible;"/>
		</clipPath>
		<path id="path2955" style="clip-path:url(#SVGID_00000153690680863470580340000012402470633055500675_);fill:#293D9B;" d="
			M173,185.5c0.2-0.3,0.4-0.6,0.7-0.8c0.7-0.5,1.6-0.6,2.2,0.1c0.7,1,0.2,2.1-0.9,2.7c-0.7,0.4-1.3,0.3-1.6,0
			c-0.2-0.2-0.1-0.5,0.1-0.6c0.2-0.1,0.4,0,0.6,0.1c0.3,0.2,0.6,0.2,0.8,0.1c0.4-0.3,0.6-0.8,0.1-1.4c-0.3-0.5-0.8-0.5-1.2-0.2
			c-0.4,0.3-0.5,0.7-0.7,0.9c-0.1,0.1-0.3,0-0.3-0.1l-1-1.8c-0.1-0.1,0-0.2,0.1-0.3l2.2-1.5c0.1-0.1,0.2,0,0.2,0.1l0.2,0.5
			c0,0.1,0,0.2-0.1,0.3l-1.8,1.2L173,185.5z"/>
	</g>
	<g>
		<defs>
			<rect id="SVGID_00000051348841683492818920000014489574576201350034_" x="-287" y="-476.3" width="1207.6" height="858.9"/>
		</defs>
		<clipPath id="SVGID_00000080171292412140243160000004339608805432177320_">
			<use xlink:href="#SVGID_00000051348841683492818920000014489574576201350034_"  style="overflow:visible;"/>
		</clipPath>
		<path id="path2957" style="clip-path:url(#SVGID_00000080171292412140243160000004339608805432177320_);fill:#293D9B;" d="
			M169,189.3c0.5-0.1,0.6-0.8,0.4-2c-0.2-1.2-0.6-1.8-1.1-1.7c-0.5,0.1-0.7,0.8-0.4,2C168,188.8,168.5,189.4,169,189.3 M168.1,185.2
			c1.2-0.2,2.2,0.5,2.4,1.9c0.3,1.3-0.2,2.4-1.5,2.7c-1.1,0.2-2.2-0.4-2.5-1.9C166.3,186.3,167.1,185.4,168.1,185.2"/>
	</g>
</g>
</svg>
