<?xml version="1.0" encoding="UTF-8" standalone="no"?>
<!-- Created with Inkscape (http://www.inkscape.org/) -->

<svg
   width="66.722694mm"
   height="7.7141409mm"
   viewBox="0 0 66.722694 7.7141409"
   version="1.1"
   id="svg1"
   xmlns="http://www.w3.org/2000/svg"
   xmlns:svg="http://www.w3.org/2000/svg">
  <defs
     id="defs1">
    <clipPath
       clipPathUnits="userSpaceOnUse"
       id="clipPath429">
      <path
         d="M 0,858.898 H 1207.558 V 0 H 0 Z"
         transform="translate(-284.16311,-638.66692)"
         id="path429" />
    </clipPath>
    <clipPath
       clipPathUnits="userSpaceOnUse"
       id="clipPath431">
      <path
         d="M 0,858.898 H 1207.558 V 0 H 0 Z"
         transform="translate(2.5000001e-7,-3.5000001e-5)"
         id="path431" />
    </clipPath>
    <clipPath
       clipPathUnits="userSpaceOnUse"
       id="clipPath433">
      <path
         d="M 0,858.898 H 1207.558 V 0 H 0 Z"
         transform="translate(2.5000001e-7,-3.5000001e-5)"
         id="path433" />
    </clipPath>
    <clipPath
       clipPathUnits="userSpaceOnUse"
       id="clipPath435">
      <path
         d="M 0,858.898 H 1207.558 V 0 H 0 Z"
         transform="translate(-324.88261,-636.21642)"
         id="path435" />
    </clipPath>
    <clipPath
       clipPathUnits="userSpaceOnUse"
       id="clipPath437">
      <path
         d="M 0,858.898 H 1207.558 V 0 H 0 Z"
         transform="translate(-337.65311,-640.42741)"
         id="path437" />
    </clipPath>
    <clipPath
       clipPathUnits="userSpaceOnUse"
       id="clipPath439">
      <path
         d="M 0,858.898 H 1207.558 V 0 H 0 Z"
         transform="translate(-339.90521,-636.68881)"
         id="path439" />
    </clipPath>
    <clipPath
       clipPathUnits="userSpaceOnUse"
       id="clipPath441">
      <path
         d="M 0,858.898 H 1207.558 V 0 H 0 Z"
         transform="translate(-334.26751,-639.94452)"
         id="path441" />
    </clipPath>
    <clipPath
       clipPathUnits="userSpaceOnUse"
       id="clipPath443">
      <path
         d="M 0,858.898 H 1207.558 V 0 H 0 Z"
         transform="translate(2.5000001e-7,-3.5000001e-5)"
         id="path443" />
    </clipPath>
    <clipPath
       clipPathUnits="userSpaceOnUse"
       id="clipPath445">
      <path
         d="M 0,858.898 H 1207.558 V 0 H 0 Z"
         transform="translate(2.5000001e-7,-3.5000001e-5)"
         id="path445" />
    </clipPath>
    <clipPath
       clipPathUnits="userSpaceOnUse"
       id="clipPath447">
      <path
         d="M 0,858.898 H 1207.558 V 0 H 0 Z"
         transform="translate(2.5000001e-7,-3.5000001e-5)"
         id="path447" />
    </clipPath>
    <clipPath
       clipPathUnits="userSpaceOnUse"
       id="clipPath449">
      <path
         d="M 0,858.898 H 1207.558 V 0 H 0 Z"
         transform="translate(-385.74331,-640.51921)"
         id="path449" />
    </clipPath>
    <clipPath
       clipPathUnits="userSpaceOnUse"
       id="clipPath451">
      <path
         d="M 0,858.898 H 1207.558 V 0 H 0 Z"
         transform="translate(-397.90841,-637.22131)"
         id="path451" />
    </clipPath>
    <clipPath
       clipPathUnits="userSpaceOnUse"
       id="clipPath453">
      <path
         d="M 0,858.898 H 1207.558 V 0 H 0 Z"
         transform="translate(-409.19111,-632.82672)"
         id="path453" />
    </clipPath>
    <clipPath
       clipPathUnits="userSpaceOnUse"
       id="clipPath455">
      <path
         d="M 0,858.898 H 1207.558 V 0 H 0 Z"
         transform="translate(2.5000001e-7,-3.5000001e-5)"
         id="path455" />
    </clipPath>
    <clipPath
       clipPathUnits="userSpaceOnUse"
       id="clipPath457">
      <path
         d="M 0,858.898 H 1207.558 V 0 H 0 Z"
         transform="translate(-431.58291,-637.22722)"
         id="path457" />
    </clipPath>
    <clipPath
       clipPathUnits="userSpaceOnUse"
       id="clipPath459">
      <path
         d="M 0,858.898 H 1207.558 V 0 H 0 Z"
         transform="translate(-434.22991,-639.33792)"
         id="path459" />
    </clipPath>
    <clipPath
       clipPathUnits="userSpaceOnUse"
       id="clipPath461">
      <path
         d="M 0,858.898 H 1207.558 V 0 H 0 Z"
         transform="translate(-424.67321,-637.63672)"
         id="path461" />
    </clipPath>
    <clipPath
       clipPathUnits="userSpaceOnUse"
       id="clipPath463">
      <path
         d="M 0,858.898 H 1207.558 V 0 H 0 Z"
         transform="translate(-448.06841,-642.10492)"
         id="path463" />
    </clipPath>
    <clipPath
       clipPathUnits="userSpaceOnUse"
       id="clipPath465">
      <path
         d="M 0,858.898 H 1207.558 V 0 H 0 Z"
         transform="translate(-445.71841,-639.62592)"
         id="path465" />
    </clipPath>
    <clipPath
       clipPathUnits="userSpaceOnUse"
       id="clipPath467">
      <path
         d="M 0,858.898 H 1207.558 V 0 H 0 Z"
         transform="translate(2.5000001e-7,-3.5000001e-5)"
         id="path467" />
    </clipPath>
    <clipPath
       clipPathUnits="userSpaceOnUse"
       id="clipPath469">
      <path
         d="M 0,858.898 H 1207.558 V 0 H 0 Z"
         transform="translate(-273.8649,-629.99542)"
         id="path469" />
    </clipPath>
    <clipPath
       clipPathUnits="userSpaceOnUse"
       id="clipPath471">
      <path
         d="M 0,858.898 H 1207.558 V 0 H 0 Z"
         transform="translate(-437.29541,-624.33151)"
         id="path471" />
    </clipPath>
    <clipPath
       clipPathUnits="userSpaceOnUse"
       id="clipPath473">
      <path
         d="M 0,858.898 H 1207.558 V 0 H 0 Z"
         transform="translate(-449.65511,-624.79291)"
         id="path473" />
    </clipPath>
    <clipPath
       clipPathUnits="userSpaceOnUse"
       id="clipPath475">
      <path
         d="M 0,858.898 H 1207.558 V 0 H 0 Z"
         transform="translate(-309.04731,-624.61462)"
         id="path475" />
    </clipPath>
    <clipPath
       clipPathUnits="userSpaceOnUse"
       id="clipPath477">
      <path
         d="M 0,858.898 H 1207.558 V 0 H 0 Z"
         transform="translate(-309.76491,-629.71272)"
         id="path477" />
    </clipPath>
    <clipPath
       clipPathUnits="userSpaceOnUse"
       id="clipPath479">
      <path
         d="M 0,858.898 H 1207.558 V 0 H 0 Z"
         transform="translate(-316.26491,-629.71272)"
         id="path479" />
    </clipPath>
    <clipPath
       clipPathUnits="userSpaceOnUse"
       id="clipPath481">
      <path
         d="M 0,858.898 H 1207.558 V 0 H 0 Z"
         transform="translate(-318.71321,-629.71272)"
         id="path481" />
    </clipPath>
    <clipPath
       clipPathUnits="userSpaceOnUse"
       id="clipPath483">
      <path
         d="M 0,858.898 H 1207.558 V 0 H 0 Z"
         transform="translate(-332.35291,-629.71272)"
         id="path483" />
    </clipPath>
    <clipPath
       clipPathUnits="userSpaceOnUse"
       id="clipPath485">
      <path
         d="M 0,858.898 H 1207.558 V 0 H 0 Z"
         transform="translate(-338.83571,-629.71272)"
         id="path485" />
    </clipPath>
    <clipPath
       clipPathUnits="userSpaceOnUse"
       id="clipPath487">
      <path
         d="M 0,858.898 H 1207.558 V 0 H 0 Z"
         transform="translate(-348.14741,-625.44592)"
         id="path487" />
    </clipPath>
    <clipPath
       clipPathUnits="userSpaceOnUse"
       id="clipPath489">
      <path
         d="M 0,858.898 H 1207.558 V 0 H 0 Z"
         transform="translate(-328.04181,-625.44592)"
         id="path489" />
    </clipPath>
    <clipPath
       clipPathUnits="userSpaceOnUse"
       id="clipPath491">
      <path
         d="M 0,858.898 H 1207.558 V 0 H 0 Z"
         transform="translate(-350.72861,-629.71272)"
         id="path491" />
    </clipPath>
    <clipPath
       clipPathUnits="userSpaceOnUse"
       id="clipPath493">
      <path
         d="M 0,858.898 H 1207.558 V 0 H 0 Z"
         transform="translate(-357.23751,-629.71272)"
         id="path493" />
    </clipPath>
    <clipPath
       clipPathUnits="userSpaceOnUse"
       id="clipPath495">
      <path
         d="M 0,858.898 H 1207.558 V 0 H 0 Z"
         transform="translate(-362.58451,-625.44592)"
         id="path495" />
    </clipPath>
    <clipPath
       clipPathUnits="userSpaceOnUse"
       id="clipPath497">
      <path
         d="M 0,858.898 H 1207.558 V 0 H 0 Z"
         transform="translate(-365.15701,-629.71272)"
         id="path497" />
    </clipPath>
    <clipPath
       clipPathUnits="userSpaceOnUse"
       id="clipPath499">
      <path
         d="M 0,858.898 H 1207.558 V 0 H 0 Z"
         transform="translate(-378.40601,-624.61462)"
         id="path499" />
    </clipPath>
    <clipPath
       clipPathUnits="userSpaceOnUse"
       id="clipPath501">
      <path
         d="M 0,858.898 H 1207.558 V 0 H 0 Z"
         transform="translate(-385.44761,-626.68932)"
         id="path501" />
    </clipPath>
    <clipPath
       clipPathUnits="userSpaceOnUse"
       id="clipPath503">
      <path
         d="M 0,858.898 H 1207.558 V 0 H 0 Z"
         transform="translate(-385.97081,-623.57662)"
         id="path503" />
    </clipPath>
    <clipPath
       clipPathUnits="userSpaceOnUse"
       id="clipPath505">
      <path
         d="M 0,858.898 H 1207.558 V 0 H 0 Z"
         transform="translate(-392.24831,-626.26872)"
         id="path505" />
    </clipPath>
    <clipPath
       clipPathUnits="userSpaceOnUse"
       id="clipPath507">
      <path
         d="M 0,858.898 H 1207.558 V 0 H 0 Z"
         transform="translate(-401.85301,-626.68932)"
         id="path507" />
    </clipPath>
    <clipPath
       clipPathUnits="userSpaceOnUse"
       id="clipPath509">
      <path
         d="M 0,858.898 H 1207.558 V 0 H 0 Z"
         transform="translate(-402.37581,-623.57662)"
         id="path509" />
    </clipPath>
    <clipPath
       clipPathUnits="userSpaceOnUse"
       id="clipPath511">
      <path
         d="M 0,858.898 H 1207.558 V 0 H 0 Z"
         transform="translate(-410.33071,-625.44592)"
         id="path511" />
    </clipPath>
    <clipPath
       clipPathUnits="userSpaceOnUse"
       id="clipPath513">
      <path
         d="M 0,858.898 H 1207.558 V 0 H 0 Z"
         transform="translate(-414.82701,-623.57662)"
         id="path513" />
    </clipPath>
    <clipPath
       clipPathUnits="userSpaceOnUse"
       id="clipPath515">
      <path
         d="M 0,858.898 H 1207.558 V 0 H 0 Z"
         transform="translate(-416.96501,-629.71272)"
         id="path515" />
    </clipPath>
    <clipPath
       clipPathUnits="userSpaceOnUse"
       id="clipPath517">
      <path
         d="M 0,858.898 H 1207.558 V 0 H 0 Z"
         transform="translate(-425.75391,-626.68932)"
         id="path517" />
    </clipPath>
    <clipPath
       clipPathUnits="userSpaceOnUse"
       id="clipPath519">
      <path
         d="M 0,858.898 H 1207.558 V 0 H 0 Z"
         transform="translate(-426.35581,-629.71272)"
         id="path519" />
    </clipPath>
    <clipPath
       clipPathUnits="userSpaceOnUse"
       id="clipPath521">
      <path
         d="M 0,858.898 H 1207.558 V 0 H 0 Z"
         transform="translate(-440.27381,-623.56782)"
         id="path521" />
    </clipPath>
    <clipPath
       clipPathUnits="userSpaceOnUse"
       id="clipPath523">
      <path
         d="M 0,858.898 H 1207.558 V 0 H 0 Z"
         transform="translate(-442.74061,-629.67061)"
         id="path523" />
    </clipPath>
  </defs>
  <g
     id="layer1"
     transform="translate(-38.364583,-47.624999)">
    <path
       id="path428"
       d="m 0,0 c 0.14,-0.059 0.222,-0.096 0.222,-0.096 -0.035,-0.03 -0.072,-0.06 -0.104,-0.095 -2.3,-2.493 -2.597,-6.69 -4.435,-8.195 -0.595,-0.489 -1.213,-0.742 -1.813,-0.844 -0.339,-0.701 -0.702,-1.399 -1.103,-2.09 -0.384,-0.654 -0.92,-1.231 -1.461,-1.828 0,0 0.956,-0.673 2.421,-1.264 2.427,-0.98 6.103,-1.567 9.435,1.16 4.043,3.313 4.692,12.543 9.75,18.021 0.072,0.077 0.151,0.143 0.226,0.209 0,0 -0.179,0.082 -0.487,0.209 C 11.29,5.748 7.796,6.972 5.242,6.482 1.54,5.77 -0.459,3.529 -1.98,0.572 -1.168,0.441 -0.39,0.161 0,0"
       style="fill:#173e7d;fill-opacity:1;fill-rule:nonzero;stroke:none"
       transform="matrix(0.35277776,0,0,-0.35277776,46.635883,49.951676)"
       clip-path="url(#clipPath429)" />
    <path
       id="path430"
       d="m 305.522,640.232 h 2.668 v -2.185 h -2.668 z m 4.313,0 h 2.73 v -2.185 h -2.73 z m -5.924,-3.898 h 1.64 l -0.029,0.189 h 2.666 v -2.485 l -0.048,-1.431 h 1.745 l -0.05,1.431 v 2.485 h 2.73 l -0.019,-0.208 h 1.683 l -0.043,1.482 v 2.735 l 0.043,1.236 -1.315,-0.049 h -3.079 v 0.765 l 0.05,1.513 h -1.745 l 0.048,-1.513 v -0.765 h -3.005 l -1.272,0.049 0.036,-1.236 v -2.735 z"
       style="fill:#173e7d;fill-opacity:1;fill-rule:nonzero;stroke:none"
       transform="matrix(0.35277776,0,0,-0.35277776,-53.610544,275.25915)"
       clip-path="url(#clipPath431)" />
    <path
       id="path432"
       d="m 320.488,642.191 h 7.319 v -7.92 h -7.319 z m -1.463,-9.371 h 1.463 v 0.166 h 7.319 v -0.252 h 1.494 l -0.043,1.391 v 8.114 l 0.043,1.297 -1.2,-0.042 h -7.864 l -1.212,0.042 0.038,-1.297 v -8.029 z"
       style="fill:#173e7d;fill-opacity:1;fill-rule:nonzero;stroke:none"
       transform="matrix(0.35277776,0,0,-0.35277776,-53.610544,275.25915)"
       clip-path="url(#clipPath433)" />
    <path
       id="path434"
       d="M 0,0 V 1.611 H 0.831 C 0.6,1.382 0.374,1.199 0.153,1.066 0.569,0.711 0.826,0.469 0.924,0.344 1.021,0.216 1.107,0.103 1.181,0 Z M 2.38,0.601 2.085,0.895 1.664,1.298 C 1.595,1.362 1.498,1.467 1.376,1.611 L 2.283,1.562 V 2.883 L 1.505,2.859 H 0 V 4.033 H 1.578 L 2.632,3.978 V 5.312 L 1.505,5.281 H -2.994 L -4.033,5.312 V 3.998 l 1.039,0.035 h 1.555 V 2.859 H -2.681 L -3.723,2.883 V 1.58 l 1.042,0.031 h 1.242 V 0 h -1.683 l -1.071,0.031 v -1.279 l 1.059,0.031 H 1.597 L 2.723,-1.248 V 0.031 L 1.817,0 c 0.2,0.22 0.388,0.421 0.563,0.601"
       style="fill:#173e7d;fill-opacity:1;fill-rule:nonzero;stroke:none"
       transform="matrix(0.35277776,0,0,-0.35277776,61.000815,50.816157)"
       clip-path="url(#clipPath435)" />
    <path
       id="path436"
       d="m 0,0 c 0.093,-0.138 0.247,-0.518 0.458,-1.138 0.387,0.097 0.806,0.21 1.254,0.336 v -0.953 c 0,-0.304 0.049,-0.517 0.144,-0.641 0.097,-0.125 0.323,-0.244 0.68,-0.358 0.358,-0.114 1.219,-0.18 2.585,-0.195 0.295,-0.004 0.533,0.015 0.714,0.058 0.181,0.043 0.344,0.125 0.487,0.248 0.142,0.122 0.278,0.305 0.406,0.551 0.129,0.244 0.222,0.464 0.279,0.66 0.058,0.196 0.114,0.407 0.17,0.63 C 6.689,-0.663 6.364,-0.556 6.205,-0.483 6.047,-0.41 5.877,-0.32 5.697,-0.214 5.627,-0.671 5.53,-0.973 5.406,-1.119 5.281,-1.267 5.145,-1.362 4.994,-1.404 4.842,-1.448 4.627,-1.467 4.345,-1.462 c -0.332,0 -0.572,0.013 -0.723,0.039 -0.151,0.027 -0.257,0.078 -0.321,0.153 -0.063,0.075 -0.095,0.184 -0.095,0.328 v 0.672 c 0.833,0.295 1.512,0.601 2.042,0.919 0.528,0.319 0.827,0.495 0.896,0.532 0.07,0.038 0.202,0.104 0.397,0.202 L 6.12,1.769 C 5.944,1.92 5.684,2.229 5.343,2.693 L 4.853,2.241 C 4.751,2.143 4.558,2.005 4.275,1.83 3.991,1.654 3.634,1.482 3.206,1.31 V 2.559 L 3.237,3.483 H 1.682 L 1.712,2.559 V 0.76 L 1.156,0.563 C 1.071,0.527 0.864,0.482 0.535,0.43 0.206,0.375 -0.049,0.352 -0.233,0.355 Z"
       style="fill:#173e7d;fill-opacity:1;fill-rule:nonzero;stroke:none"
       transform="matrix(0.35277776,0,0,-0.35277776,65.505966,49.330612)"
       clip-path="url(#clipPath437)" />
    <path
       id="path438"
       d="M 0,0 0.029,0.88 H -1.623 L -1.591,0 H -4.988 L -6.342,0.049 V -1.5 l 1.354,0.044 h 3.397 v -1.36 L -1.64,-4.174 H 0.049 L 0,-2.816 v 1.36 H 3.249 L 4.687,-1.5 V 0.049 L 3.249,0 Z"
       style="fill:#173e7d;fill-opacity:1;fill-rule:nonzero;stroke:none"
       transform="matrix(0.35277776,0,0,-0.35277776,66.300456,50.649507)"
       clip-path="url(#clipPath439)" />
    <path
       id="path440"
       d="M 0,0 1.225,0.875 V -1.274 L 1.188,-2.552 H 2.724 L 2.7,-1.274 V 0.795 L 2.724,1.762 H 2.229 C 2.824,2.338 3.174,2.679 3.282,2.787 3.387,2.896 3.553,3.074 3.776,3.323 3.247,3.613 2.769,3.921 2.345,4.247 2.12,3.88 1.775,3.407 1.307,2.831 0.84,2.252 0.1,1.782 -0.917,1.42 L -0.556,1.017 C -0.397,0.844 -0.212,0.505 0,0"
       style="fill:#173e7d;fill-opacity:1;fill-rule:nonzero;stroke:none"
       transform="matrix(0.35277776,0,0,-0.35277776,64.311599,49.500966)"
       clip-path="url(#clipPath441)" />
    <path
       id="path442"
       d="m 352.969,639.676 h -2.302 v 1.401 h 2.302 z m 0,-2.675 h -2.302 v 1.378 h 2.302 z m 1.462,1.376 h 2.626 v -1.378 h -2.626 z m 0,2.699 h 2.626 v -1.401 h -2.626 z m 4.982,-8.02 c 0.16,0.178 0.361,0.684 0.605,1.515 -0.424,0.143 -0.908,0.379 -1.454,0.709 l -0.075,-0.476 c -0.041,-0.314 -0.137,-0.532 -0.291,-0.656 -0.153,-0.122 -0.351,-0.196 -0.596,-0.223 -0.245,-0.026 -0.652,-0.031 -1.218,-0.015 l -1.323,0.031 c -0.285,0.012 -0.46,0.06 -0.529,0.146 -0.066,0.085 -0.101,0.182 -0.101,0.288 v 1.292 h 2.626 v -0.227 h 1.518 l -0.037,1.2 v 4.773 l 0.037,1.071 -0.98,-0.042 h -3.164 v 0.685 l 0.031,0.967 h -1.524 l 0.031,-0.967 v -0.685 h -2.681 l -1.139,0.042 0.038,-1.071 v -4.682 l -0.038,-1.248 h 1.518 v 0.184 h 2.302 v -1.768 c 0,-0.279 0.028,-0.502 0.086,-0.669 0.057,-0.167 0.199,-0.319 0.428,-0.452 0.229,-0.135 0.576,-0.204 1.043,-0.205 0.468,-0.003 1.072,-0.011 1.815,-0.028 0.772,-0.024 1.343,-0.027 1.717,-0.007 0.372,0.021 0.653,0.069 0.838,0.142 0.186,0.073 0.358,0.199 0.517,0.376"
       style="fill:#173e7d;fill-opacity:1;fill-rule:nonzero;stroke:none"
       transform="matrix(0.35277776,0,0,-0.35277776,-53.610544,275.25915)"
       clip-path="url(#clipPath443)" />
    <path
       id="path444"
       d="m 368.976,641.119 h -2.142 v 0.368 h 2.142 z m 0,-1.476 h -2.142 v 0.361 h 2.142 z m 0,-1.48 h -2.142 v 0.361 h 2.142 z m 5.761,-4.809 c 0.117,0.158 0.237,0.313 0.36,0.463 l -0.526,0.105 c -0.27,0.045 -0.68,0.182 -1.23,0.411 -0.551,0.227 -0.929,0.404 -1.129,0.529 -0.204,0.125 -0.433,0.278 -0.69,0.462 h 2.621 l 0.85,-0.031 v 1.316 l -0.789,-0.031 h -4.014 v 0.441 h 3.163 l 1.058,-0.03 v 1.198 l -0.808,-0.024 h -3.224 v 0.361 h 2.521 l 0.936,-0.024 v 1.169 l -0.876,-0.026 h -2.581 v 0.363 h 2.466 l 0.979,-0.031 v 1.175 l -0.968,-0.031 h -2.477 v 0.379 h 2.9 l 0.967,-0.023 v 1.284 l -0.82,-0.029 h -2.992 l 0.239,0.159 -0.234,0.361 -0.428,0.654 c -0.057,0.081 -0.139,0.211 -0.246,0.385 -0.338,-0.219 -0.57,-0.357 -0.696,-0.409 -0.128,-0.053 -0.266,-0.102 -0.417,-0.147 0.203,-0.322 0.4,-0.655 0.588,-0.999 l -2.037,-0.004 c 0.252,0.272 0.507,0.553 0.765,0.844 l -0.43,0.19 c -0.122,0.047 -0.443,0.248 -0.967,0.599 l -0.231,-0.41 c -0.233,-0.425 -0.616,-0.873 -1.148,-1.347 -0.533,-0.473 -0.914,-0.763 -1.142,-0.872 -0.229,-0.108 -0.427,-0.195 -0.594,-0.259 l 0.257,-0.399 c 0.115,-0.179 0.278,-0.497 0.49,-0.954 0.461,0.281 0.909,0.594 1.345,0.937 v -3.262 l -0.047,-1.023 h 1.334 v 0.245 h 1.935 v -0.441 h -4.261 l -0.716,0.031 v -1.316 l 0.654,0.031 h 3.25 l -0.801,-0.503 c -0.269,-0.175 -0.683,-0.352 -1.245,-0.532 -0.562,-0.18 -0.962,-0.282 -1.204,-0.309 -0.24,-0.027 -0.499,-0.046 -0.778,-0.058 0.353,-0.477 0.562,-0.782 0.63,-0.915 0.066,-0.132 0.141,-0.298 0.223,-0.493 0.739,0.188 1.411,0.411 2.019,0.67 0.608,0.26 1.351,0.667 2.229,1.221 v -0.807 l -0.027,-1.01 h 1.476 l -0.029,0.948 v 1.139 c 0.761,-0.588 1.428,-1.036 1.998,-1.344 0.567,-0.307 1.243,-0.588 2.022,-0.841 0.232,0.417 0.407,0.704 0.527,0.864"
       style="fill:#173e7d;fill-opacity:1;fill-rule:nonzero;stroke:none"
       transform="matrix(0.35277776,0,0,-0.35277776,-53.610544,275.25915)"
       clip-path="url(#clipPath445)" />
    <path
       id="path446"
       d="m 380.567,642.191 h 7.35 v -7.975 h -7.35 z m -1.469,-7.902 -0.038,-1.542 h 1.507 v 0.177 h 7.349 v -0.177 h 1.463 l -0.042,1.352 v 8.287 l 0.042,1.15 -1.052,-0.042 h -8.097 l -1.188,0.042 0.037,-1.431 z"
       style="fill:#173e7d;fill-opacity:1;fill-rule:nonzero;stroke:none"
       transform="matrix(0.35277776,0,0,-0.35277776,-53.610544,275.25915)"
       clip-path="url(#clipPath447)" />
    <path
       id="path448"
       d="M 0,0 V 0.399 L 0.031,1.451 H -1.463 L -1.432,0.399 V 0 H -3.69 l -1.212,0.031 v -1.365 l 1.273,0.029 h 1.083 c -0.518,-1.064 -0.969,-1.77 -1.352,-2.119 -0.384,-0.348 -0.788,-0.648 -1.212,-0.897 l 0.41,-0.404 c 0.159,-0.151 0.316,-0.409 0.472,-0.777 0.632,0.445 1.16,0.955 1.584,1.531 0.425,0.575 0.828,1.191 1.212,1.848 v -2.216 c 0,-0.212 -0.151,-0.319 -0.453,-0.319 -0.106,-0.003 -0.351,0.021 -0.734,0.075 l 0.14,-0.252 c 0.058,-0.097 0.103,-0.237 0.135,-0.418 0.033,-0.183 0.051,-0.33 0.055,-0.447 0.004,-0.118 0.008,-0.23 0.013,-0.34 0.58,-0.033 1.059,-0.008 1.438,0.073 0.379,0.082 0.619,0.187 0.716,0.315 0.098,0.129 0.147,0.307 0.147,0.535 v 3.812 H 0.893 L 1.88,-1.334 V 0.031 L 0.893,0 Z"
       style="fill:#173e7d;fill-opacity:1;fill-rule:nonzero;stroke:none"
       transform="matrix(0.35277776,0,0,-0.35277776,82.471118,49.298227)"
       clip-path="url(#clipPath449)" />
    <path
       id="path450"
       d="M 0,0 4.039,0.006 V -0.709 L 0,-0.705 Z M 0,1.952 H 4.039 V 1.236 L 0,1.223 Z M -2.219,2.163 C -2.845,1.615 -3.606,1.164 -4.499,0.814 L -4.15,0.428 c 0.144,-0.154 0.343,-0.481 0.6,-0.979 0.925,0.514 1.472,0.842 1.637,0.985 0.166,0.143 0.314,0.275 0.444,0.399 L -1.476,-3.36 -1.512,-4.633 H 0.055 L 0.011,-3.36 v 1.388 h 4.028 v -0.922 c 0,-0.193 -0.132,-0.297 -0.398,-0.313 -0.066,-0.005 -0.366,0.009 -0.905,0.042 L 2.98,-3.698 c 0.094,-0.199 0.188,-0.564 0.282,-1.095 1.208,0.111 1.885,0.26 2.031,0.447 0.147,0.188 0.222,0.41 0.222,0.667 V 1.939 L 5.557,3.299 4.534,3.275 H 0.636 c 0.152,0.257 0.303,0.54 0.459,0.849 H 5.996 L 6.976,4.088 V 5.557 L 6.029,5.526 H 1.67 C 1.809,5.915 1.934,6.284 2.043,6.641 L 1.444,6.695 C 1.33,6.7 0.991,6.766 0.428,6.898 L 0.286,6.335 C 0.258,6.224 0.167,5.954 0.011,5.526 H -3.33 l -0.832,0.042 v -1.48 l 0.851,0.036 h 2.704 L -0.826,3.758 C -1.129,3.244 -1.592,2.712 -2.219,2.163"
       style="fill:#173e7d;fill-opacity:1;fill-rule:nonzero;stroke:none"
       transform="matrix(0.35277776,0,0,-0.35277776,86.762696,50.461652)"
       clip-path="url(#clipPath451)" />
    <path
       id="path452"
       d="M 0,0 H 1.463 L 1.421,1.438 V 9.646 H 2.435 L 1.983,8.177 C 1.966,8.127 1.883,7.909 1.731,7.521 V 6.726 L 2.216,6.229 C 2.533,5.912 2.734,5.551 2.816,5.147 2.873,4.838 2.837,4.576 2.706,4.367 2.575,4.157 2.404,4.029 2.191,3.984 1.98,3.939 1.753,3.922 1.511,3.936 L 1.72,3.421 C 1.806,3.213 1.893,2.875 1.983,2.404 2.516,2.491 2.938,2.63 3.244,2.824 3.55,3.019 3.794,3.275 3.978,3.592 4.161,3.911 4.258,4.277 4.262,4.69 4.269,5.106 4.181,5.499 3.998,5.875 3.813,6.25 3.629,6.528 3.446,6.711 3.264,6.892 3.091,7.054 2.932,7.197 c 0.4,0.91 0.83,1.925 1.291,3.042 L 3.794,10.9 H 1.212 L 0,10.931 0.036,9.615 V 1.42 Z"
       style="fill:#173e7d;fill-opacity:1;fill-rule:nonzero;stroke:none"
       transform="matrix(0.35277776,0,0,-0.35277776,90.742982,52.011968)"
       clip-path="url(#clipPath453)" />
    <path
       id="path454"
       d="m 414.994,640.447 h 2.797 v -0.851 h -2.797 z m 0,1.994 h 2.797 v -0.807 h -2.797 z m 4.973,-8.645 c 0.106,0.146 0.216,0.284 0.327,0.414 l -0.428,0.146 c -0.152,0.042 -0.381,0.183 -0.687,0.426 -0.305,0.241 -0.516,0.439 -0.631,0.591 -0.113,0.15 -0.23,0.323 -0.348,0.52 0.694,0.379 1.129,0.633 1.306,0.762 0.178,0.128 0.338,0.25 0.48,0.364 -0.358,0.407 -0.664,0.785 -0.917,1.132 -0.456,-0.416 -0.773,-0.68 -0.948,-0.792 -0.175,-0.113 -0.358,-0.221 -0.544,-0.322 l -0.137,0.246 c -0.068,0.114 -0.127,0.279 -0.175,0.494 -0.049,0.216 -0.093,0.413 -0.129,0.589 h 0.966 l 1.084,-0.026 -0.031,1.378 v 2.894 l 0.031,1.175 -1.249,-0.029 h -3.029 l -1.231,0.029 0.043,-1.669 v -7.321 c 0,-0.119 -0.015,-0.23 -0.046,-0.337 -0.031,-0.105 -0.069,-0.191 -0.116,-0.252 -0.047,-0.064 -0.114,-0.135 -0.205,-0.213 l 0.293,-0.464 c 0.051,-0.082 0.226,-0.41 0.527,-0.986 l 0.441,0.411 c 0.122,0.117 0.443,0.378 0.96,0.782 0.518,0.403 0.952,0.743 1.299,1.017 l -0.136,0.281 c -0.073,0.143 -0.204,0.475 -0.391,0.998 l -0.601,-0.484 c -0.085,-0.073 -0.335,-0.243 -0.751,-0.508 v 3.324 h 1.786 l -0.526,-0.172 c -0.049,-0.021 -0.204,-0.045 -0.465,-0.073 l 0.128,-0.583 c 0.029,-0.162 0.15,-0.508 0.361,-1.04 0.213,-0.53 0.421,-0.959 0.627,-1.288 0.207,-0.328 0.458,-0.657 0.753,-0.987 0.296,-0.331 0.573,-0.604 0.83,-0.819 0.257,-0.213 0.581,-0.421 0.973,-0.62 0.229,0.53 0.397,0.867 0.506,1.012"
       style="fill:#173e7d;fill-opacity:1;fill-rule:nonzero;stroke:none"
       transform="matrix(0.35277776,0,0,-0.35277776,-53.610544,275.25915)"
       clip-path="url(#clipPath455)" />
    <path
       id="path456"
       d="m 0,0 c -0.159,-0.126 -0.531,-0.309 -1.114,-0.545 l 0.507,-0.612 c 0.127,-0.15 0.371,-0.497 0.735,-1.041 -1.49,-0.064 -3.007,-0.12 -4.554,-0.164 0.494,0.484 0.898,0.916 1.213,1.295 0.315,0.376 0.622,0.771 0.924,1.182 l 0.618,0.864 c 0.077,0.106 0.195,0.267 0.355,0.484 -0.552,0.273 -1.08,0.591 -1.585,0.954 L -3.011,2.105 C -3.066,1.958 -3.212,1.647 -3.452,1.173 -3.693,0.696 -3.959,0.264 -4.248,-0.126 -4.537,-0.515 -4.827,-0.872 -5.114,-1.194 -5.401,-1.517 -5.642,-1.755 -5.836,-1.913 -6.03,-2.07 -6.343,-2.275 -6.776,-2.528 l 0.228,-0.366 c 0.138,-0.222 0.293,-0.624 0.465,-1.206 0.407,0.102 0.771,0.172 1.092,0.213 0.32,0.041 1.183,0.122 2.585,0.246 1.405,0.12 2.486,0.203 3.243,0.244 C 1.05,-3.74 1.189,-3.976 1.254,-4.103 1.32,-4.232 1.389,-4.38 1.463,-4.547 l 0.336,0.305 c 0.017,0.017 0.369,0.279 1.06,0.79 -0.646,0.951 -1.515,2.164 -2.608,3.642 z"
       style="fill:#173e7d;fill-opacity:1;fill-rule:nonzero;stroke:none"
       transform="matrix(0.35277776,0,0,-0.35277776,98.64231,50.45957)"
       clip-path="url(#clipPath457)" />
    <path
       id="path458"
       d="m 0,0 c -0.169,0.083 -0.367,0.198 -0.588,0.35 -0.222,0.15 -0.51,0.387 -0.864,0.713 -0.353,0.323 -0.622,0.736 -0.812,1.236 -0.191,0.5 -0.302,0.852 -0.334,1.059 -0.034,0.205 -0.05,0.376 -0.052,0.514 -0.003,0.136 0.003,0.29 0.014,0.462 -0.583,-0.024 -1.129,0 -1.639,0.073 0.102,-0.705 0.189,-1.205 0.26,-1.497 0.072,-0.293 0.195,-0.658 0.374,-1.097 0.177,-0.442 0.411,-0.878 0.703,-1.308 0.291,-0.429 0.694,-0.859 1.209,-1.284 0.514,-0.427 1.101,-0.794 1.761,-1.1 0.32,0.64 0.525,1.029 0.622,1.163 0.097,0.135 0.197,0.269 0.304,0.404 C 0.489,-0.185 0.169,-0.081 0,0"
       style="fill:#173e7d;fill-opacity:1;fill-rule:nonzero;stroke:none"
       transform="matrix(0.35277776,0,0,-0.35277776,99.576112,49.714961)"
       clip-path="url(#clipPath459)" />
    <path
       id="path460"
       d="M 0,0 C 0.518,0.437 1.081,0.965 1.689,1.585 2.297,2.206 2.762,2.775 3.085,3.293 3.407,3.811 3.796,4.453 4.254,5.221 3.74,5.384 3.231,5.618 2.73,5.925 L 2.595,5.569 C 2.383,4.994 2.077,4.432 1.677,3.881 1.276,3.33 0.819,2.813 0.302,2.331 -0.213,1.851 -0.713,1.512 -1.199,1.316 L -0.893,1.053 C -0.702,0.889 -0.403,0.538 0,0"
       style="fill:#173e7d;fill-opacity:1;fill-rule:nonzero;stroke:none"
       transform="matrix(0.35277776,0,0,-0.35277776,96.204723,50.315108)"
       clip-path="url(#clipPath461)" />
    <path
       id="path462"
       d="m 0,0 v -7.424 c 0,-0.228 -0.03,-0.38 -0.088,-0.453 -0.061,-0.074 -0.213,-0.112 -0.457,-0.116 -0.09,-0.004 -0.241,-0.002 -0.452,0.007 -0.214,0.007 -0.413,0.015 -0.601,0.022 l 0.197,-0.439 c 0.109,-0.24 0.181,-0.461 0.213,-0.657 0.032,-0.198 0.059,-0.384 0.08,-0.555 0.975,0.07 1.615,0.181 1.922,0.334 0.307,0.152 0.489,0.295 0.551,0.424 0.06,0.132 0.091,0.381 0.091,0.747 V 0.128 L 1.498,1.401 0.14,1.358 h -7.056 l -1.58,0.043 V -0.042 L -6.916,0 Z"
       style="fill:#173e7d;fill-opacity:1;fill-rule:nonzero;stroke:none"
       transform="matrix(0.35277776,0,0,-0.35277776,104.45803,48.738826)"
       clip-path="url(#clipPath463)" />
    <path
       id="path464"
       d="m 0,0 1.511,-0.042 v 1.42 L 0,1.334 h -5.123 l -1.37,0.044 V -0.049 L -5.123,0 Z"
       style="fill:#173e7d;fill-opacity:1;fill-rule:nonzero;stroke:none"
       transform="matrix(0.35277776,0,0,-0.35277776,103.629,49.613361)"
       clip-path="url(#clipPath465)" />
    <path
       id="path466"
       d="m 444.904,635.807 h -3.207 v 1.628 h 3.207 z m 1.494,2.999 -1.322,-0.043 h -3.648 l -1.212,0.043 0.055,-1.096 v -2.093 l -0.055,-1.181 1.212,0.043 h 3.648 l 1.322,-0.043 -0.049,1.181 v 2.093 z"
       style="fill:#173e7d;fill-opacity:1;fill-rule:nonzero;stroke:none"
       transform="matrix(0.35277776,0,0,-0.35277776,-53.610544,275.25915)"
       clip-path="url(#clipPath467)" />
    <path
       id="path468"
       d="m 0,0 c -0.14,0.058 -0.223,0.094 -0.223,0.094 0.035,0.031 0.071,0.062 0.104,0.096 2.303,2.494 2.599,6.695 4.439,8.203 0.595,0.488 1.214,0.742 1.814,0.844 0.338,0.701 0.703,1.399 1.104,2.09 0.383,0.657 0.919,1.233 1.461,1.83 0,0 -0.956,0.674 -2.421,1.265 C 3.85,15.402 0.169,15.99 -3.164,13.26 -7.21,9.946 -7.861,0.708 -12.923,-4.772 c -0.069,-0.077 -0.149,-0.143 -0.225,-0.212 0,0 0.18,-0.081 0.487,-0.208 1.362,-0.561 4.857,-1.786 7.413,-1.294 3.706,0.712 5.707,2.953 7.229,5.914 C 1.168,-0.442 0.39,-0.161 0,0"
       style="fill:#35b6ed;fill-opacity:1;fill-rule:nonzero;stroke:none"
       transform="matrix(0.35277776,0,0,-0.35277776,43.002905,53.010789)"
       clip-path="url(#clipPath469)" />
    <path
       id="path470"
       d="m 0,0 c -0.25,-0.035 -0.515,-0.066 -0.793,-0.09 -0.3,-0.024 -0.586,-0.038 -0.854,-0.043 V 5.404 C -1.724,5.392 -1.821,5.381 -1.937,5.371 -1.973,5.369 -2.116,5.359 -2.304,5.359 c -0.109,0 -0.234,0.003 -0.37,0.012 -0.115,0.009 -0.216,0.02 -0.303,0.033 v -6.168 h 2.974 C -0.03,-0.653 -0.052,-0.504 -0.045,-0.33 -0.041,-0.202 -0.022,-0.09 0,0"
       style="fill:#173e7d;fill-opacity:1;fill-rule:nonzero;stroke:none"
       transform="matrix(0.35277776,0,0,-0.35277776,100.65755,55.008887)"
       clip-path="url(#clipPath471)" />
    <path
       id="path472"
       d="M 0,0 C -0.132,0.131 -0.291,0.197 -0.476,0.197 -0.661,0.197 -0.82,0.131 -0.951,0 c -0.132,-0.131 -0.196,-0.289 -0.196,-0.475 0,-0.185 0.064,-0.34 0.196,-0.463 0.131,-0.121 0.29,-0.183 0.475,-0.183 0.185,0 0.344,0.062 0.476,0.183 0.132,0.123 0.197,0.278 0.197,0.463 C 0.197,-0.289 0.132,-0.131 0,0"
       style="fill:#173e7d;fill-opacity:1;fill-rule:nonzero;stroke:none"
       transform="matrix(0.35277776,0,0,-0.35277776,105.01778,54.846116)"
       clip-path="url(#clipPath473)" />
    <path
       id="path474"
       d="m 0,0 -0.195,-0.77 c -0.534,-0.278 -1.163,-0.384 -1.757,-0.384 -1.898,0 -3.334,1.181 -3.334,3.015 0,2.334 1.597,3.398 3.529,3.398 0.584,0 1.295,-0.152 1.809,-0.438 C -0.027,4.516 -0.081,4.213 -0.152,3.9 h -0.123 c -0.329,0.483 -0.898,0.823 -1.473,0.823 -1.472,0 -2.066,-1.423 -2.066,-2.737 0,-1.53 0.746,-2.604 2.111,-2.604 0.549,0 1.188,0.288 1.588,0.671 z"
       style="fill:#173e7d;fill-opacity:1;fill-rule:nonzero;stroke:none"
       transform="matrix(0.35277776,0,0,-0.35277776,55.414474,54.909015)"
       clip-path="url(#clipPath475)" />
    <path
       id="path476"
       d="m 0,0 c 0.222,-0.018 0.444,-0.045 0.664,-0.045 0.224,0 0.444,0.027 0.666,0.045 v -2.424 c 0.453,-0.018 0.904,-0.045 1.356,-0.045 0.453,0 0.905,0.027 1.358,0.045 V 0 c 0.222,-0.018 0.443,-0.045 0.665,-0.045 0.221,0 0.443,0.027 0.665,0.045 V -6.137 C 5.152,-6.117 4.93,-6.09 4.709,-6.09 4.487,-6.09 4.266,-6.117 4.044,-6.137 v 2.998 c -0.453,0.017 -0.905,0.044 -1.358,0.044 -0.452,0 -0.903,-0.027 -1.356,-0.044 V -6.137 C 1.108,-6.117 0.888,-6.09 0.664,-6.09 0.444,-6.09 0.222,-6.117 0,-6.137 Z"
       style="fill:#173e7d;fill-opacity:1;fill-rule:nonzero;stroke:none"
       transform="matrix(0.35277776,0,0,-0.35277776,55.667628,53.110518)"
       clip-path="url(#clipPath477)" />
    <path
       id="path478"
       d="m 0,0 c 0.223,-0.018 0.444,-0.045 0.666,-0.045 0.222,0 0.442,0.027 0.665,0.045 V -6.137 C 1.108,-6.117 0.888,-6.09 0.666,-6.09 0.444,-6.09 0.223,-6.117 0,-6.137 Z"
       style="fill:#173e7d;fill-opacity:1;fill-rule:nonzero;stroke:none"
       transform="matrix(0.35277776,0,0,-0.35277776,57.960684,53.110518)"
       clip-path="url(#clipPath479)" />
    <path
       id="path480"
       d="m 0,0 h 0.878 c 1.258,-1.386 2.579,-2.745 3.83,-4.186 V 0 c 0.116,-0.018 0.241,-0.027 0.356,-0.027 0.114,0 0.238,0.009 0.354,0.027 v -6.137 l -0.753,0.01 c -1.031,1.154 -1.988,2.254 -2.99,3.318 l -0.966,1.02 V -6.117 C 0.594,-6.109 0.469,-6.09 0.354,-6.09 0.239,-6.09 0.115,-6.109 0,-6.117 Z"
       style="fill:#173e7d;fill-opacity:1;fill-rule:nonzero;stroke:none"
       transform="matrix(0.35277776,0,0,-0.35277776,58.82439,53.110518)"
       clip-path="url(#clipPath481)" />
    <path
       id="path482"
       d="m 0,0 c 0.222,-0.018 0.444,-0.045 0.666,-0.045 0.221,0 0.442,0.027 0.665,0.045 v -2.424 c 0.452,-0.018 0.905,-0.045 1.357,-0.045 0.452,0 0.904,0.027 1.356,0.045 V 0 c 0.222,-0.018 0.444,-0.045 0.664,-0.045 0.222,0 0.446,0.027 0.666,0.045 v -6.137 c -0.22,0.02 -0.444,0.047 -0.666,0.047 -0.22,0 -0.442,-0.027 -0.664,-0.047 v 2.998 c -0.452,0.017 -0.904,0.044 -1.356,0.044 -0.452,0 -0.905,-0.027 -1.357,-0.044 V -6.137 C 1.108,-6.117 0.887,-6.09 0.666,-6.09 0.444,-6.09 0.222,-6.117 0,-6.137 Z"
       style="fill:#173e7d;fill-opacity:1;fill-rule:nonzero;stroke:none"
       transform="matrix(0.35277776,0,0,-0.35277776,63.636171,53.110518)"
       clip-path="url(#clipPath483)" />
    <path
       id="path484"
       d="m 0,0 c 0.222,-0.018 0.444,-0.045 0.664,-0.045 0.223,0 0.444,0.027 0.667,0.045 v -2.54 c 0,-0.492 -0.019,-1.226 0.061,-1.691 0.081,-0.438 0.151,-0.715 0.471,-1.028 0.283,-0.268 0.621,-0.385 1.012,-0.385 0.824,0 1.268,0.305 1.577,1.082 0.16,0.394 0.16,1.414 0.16,1.852 V 0 c 0.115,-0.018 0.24,-0.027 0.355,-0.027 0.115,0 0.239,0.009 0.354,0.027 V -3.184 C 5.294,-4.204 5.304,-5.134 4.381,-5.779 3.902,-6.127 3.29,-6.252 2.706,-6.252 1.632,-6.252 0.47,-5.912 0.142,-4.749 0.044,-4.401 0,-4.008 0,-3.65 Z"
       style="fill:#173e7d;fill-opacity:1;fill-rule:nonzero;stroke:none"
       transform="matrix(0.35277776,0,0,-0.35277776,65.923161,53.110518)"
       clip-path="url(#clipPath485)" />
    <path
       id="path486"
       d="m 0,0 c 0.239,-0.598 0.425,-1.208 0.629,-1.869 0.258,0.018 0.506,0.045 0.764,0.045 0.257,0 0.504,-0.027 0.763,-0.045 L -0.319,4.348 C -0.434,4.329 -0.541,4.321 -0.656,4.321 c -0.116,0 -0.223,0.008 -0.337,0.027 l -2.536,-6.199 c 0.142,0.009 0.282,0.027 0.426,0.027 0.141,0 0.275,-0.018 0.415,-0.027 0.17,0.617 0.391,1.173 0.622,1.851 z m -1.826,0.546 0.833,2.083 0.789,-2.083 z"
       style="fill:#173e7d;fill-opacity:1;fill-rule:nonzero;stroke:none"
       transform="matrix(0.35277776,0,0,-0.35277776,69.208121,54.615751)"
       clip-path="url(#clipPath487)" />
    <path
       id="path488"
       d="m 0,0 c 0.24,-0.598 0.425,-1.208 0.63,-1.869 0.257,0.018 0.505,0.045 0.763,0.045 0.257,0 0.504,-0.027 0.763,-0.045 L -0.319,4.348 C -0.434,4.329 -0.541,4.321 -0.656,4.321 c -0.116,0 -0.223,0.008 -0.337,0.027 l -2.536,-6.199 c 0.142,0.009 0.284,0.027 0.426,0.027 0.141,0 0.275,-0.018 0.415,-0.027 0.17,0.617 0.391,1.173 0.622,1.851 z m -1.826,0.546 0.833,2.083 0.789,-2.083 z"
       style="fill:#173e7d;fill-opacity:1;fill-rule:nonzero;stroke:none"
       transform="matrix(0.35277776,0,0,-0.35277776,62.115312,54.615751)"
       clip-path="url(#clipPath489)" />
    <path
       id="path490"
       d="m 0,0 v -6.09 h 2.483 c 1.817,0 3.227,1.197 3.227,3.218 0,1.468 -0.78,2.8 -2.677,2.872 z m 1.33,-0.52 h 0.868 c 1.251,0 2.04,-0.661 2.04,-2.342 0,-2.094 -0.93,-2.71 -2.154,-2.71 H 1.33 Z"
       style="fill:#173e7d;fill-opacity:1;fill-rule:nonzero;stroke:none"
       transform="matrix(0.35277776,0,0,-0.35277776,70.118711,53.110518)"
       clip-path="url(#clipPath491)" />
    <path
       id="path492"
       d="m 0,0 c 0.222,-0.018 0.444,-0.045 0.664,-0.045 0.222,0 0.444,0.027 0.667,0.045 V -6.137 C 1.108,-6.117 0.886,-6.09 0.664,-6.09 0.444,-6.09 0.222,-6.117 0,-6.137 Z"
       style="fill:#173e7d;fill-opacity:1;fill-rule:nonzero;stroke:none"
       transform="matrix(0.35277776,0,0,-0.35277776,72.414906,53.110518)"
       clip-path="url(#clipPath493)" />
    <path
       id="path494"
       d="m 0,0 c 0.24,-0.598 0.427,-1.208 0.629,-1.869 0.258,0.018 0.507,0.045 0.763,0.045 0.258,0 0.507,-0.027 0.764,-0.045 L -0.319,4.348 C -0.434,4.329 -0.541,4.321 -0.656,4.321 c -0.115,0 -0.22,0.008 -0.337,0.027 l -2.536,-6.199 c 0.142,0.009 0.284,0.027 0.426,0.027 0.141,0 0.273,-0.018 0.417,-0.027 0.168,0.617 0.39,1.173 0.62,1.851 z m -1.827,0.546 0.834,2.083 0.789,-2.083 z"
       style="fill:#173e7d;fill-opacity:1;fill-rule:nonzero;stroke:none"
       transform="matrix(0.35277776,0,0,-0.35277776,74.301208,54.615751)"
       clip-path="url(#clipPath495)" />
    <path
       id="path496"
       d="M 0,0 H 0.876 C 2.137,-1.386 3.459,-2.745 4.708,-4.186 V 0 c 0.116,-0.018 0.241,-0.027 0.356,-0.027 0.115,0 0.24,0.009 0.354,0.027 v -6.137 l -0.753,0.01 c -1.029,1.154 -1.987,2.254 -2.99,3.318 l -0.966,1.02 V -6.117 C 0.594,-6.109 0.47,-6.09 0.355,-6.09 0.239,-6.09 0.115,-6.109 0,-6.117 Z"
       style="fill:#173e7d;fill-opacity:1;fill-rule:nonzero;stroke:none"
       transform="matrix(0.35277776,0,0,-0.35277776,75.208728,53.110518)"
       clip-path="url(#clipPath497)" />
    <path
       id="path498"
       d="m 0,0 -0.195,-0.77 c -0.532,-0.278 -1.162,-0.384 -1.757,-0.384 -1.896,0 -3.334,1.181 -3.334,3.015 0,2.334 1.597,3.398 3.529,3.398 0.587,0 1.295,-0.152 1.809,-0.438 C -0.027,4.516 -0.079,4.213 -0.152,3.9 h -0.123 c -0.327,0.483 -0.895,0.823 -1.472,0.823 -1.473,0 -2.066,-1.423 -2.066,-2.737 0,-1.53 0.745,-2.604 2.11,-2.604 0.55,0 1.188,0.288 1.588,0.671 z"
       style="fill:#173e7d;fill-opacity:1;fill-rule:nonzero;stroke:none"
       transform="matrix(0.35277776,0,0,-0.35277776,79.882683,54.909015)"
       clip-path="url(#clipPath499)" />
    <path
       id="path500"
       d="m 0,0 c -0.008,1.386 -0.754,3.183 -3.282,3.183 -2.209,0 -3.494,-1.439 -3.494,-3.219 0,-2.03 1.322,-3.192 3.281,-3.192 2.172,0 3.503,1.484 3.495,3.228 m -3.334,2.648 c 1.33,0 1.861,-1.324 1.861,-2.477 0,-1.485 -0.611,-2.863 -1.977,-2.863 -1.33,0 -1.854,1.234 -1.854,2.397 0,2.004 0.737,2.943 1.97,2.943"
       style="fill:#173e7d;fill-opacity:1;fill-rule:nonzero;stroke:none"
       transform="matrix(0.35277776,0,0,-0.35277776,82.366803,54.177106)"
       clip-path="url(#clipPath501)" />
    <path
       id="path502"
       d="M 0,0 C 0.222,0.018 0.442,0.045 0.663,0.045 0.886,0.045 1.108,0.018 1.33,0 V 2.872 H 1.392 C 1.587,2.532 1.835,2.12 1.967,1.879 L 3.023,0 C 3.289,0.018 3.556,0.045 3.822,0.045 4.098,0.045 4.363,0.018 4.628,0 L 4.282,0.555 C 3.751,1.386 3.2,2.209 2.712,3.068 c 0.825,0.179 1.386,0.733 1.386,1.61 0,0.608 -0.267,1.011 -0.774,1.279 -0.372,0.197 -1.02,0.18 -1.435,0.18 H 0 Z m 1.33,5.654 c 0.539,0 1.205,0.07 1.348,-0.672 C 2.712,4.794 2.723,4.659 2.723,4.534 2.723,3.613 2.261,3.167 1.33,3.256 Z"
       style="fill:#173e7d;fill-opacity:1;fill-rule:nonzero;stroke:none"
       transform="matrix(0.35277776,0,0,-0.35277776,82.551376,55.275198)"
       clip-path="url(#clipPath503)" />
    <path
       id="path504"
       d="m 0,0 c 1.597,0 2.75,0.34 2.75,1.932 0,1.011 -0.666,1.511 -1.898,1.511 H -1.33 v -6.135 c 0.221,0.018 0.444,0.045 0.664,0.045 0.224,0 0.444,-0.027 0.666,-0.045 z m 0,2.962 h 0.55 c 0.461,0 0.825,-0.474 0.825,-1.19 C 1.375,1.224 1.163,0.716 0.586,0.555 0.4,0.51 0.195,0.501 0,0.493 Z"
       style="fill:#173e7d;fill-opacity:1;fill-rule:nonzero;stroke:none"
       transform="matrix(0.35277776,0,0,-0.35277776,84.765939,54.325485)"
       clip-path="url(#clipPath505)" />
    <path
       id="path506"
       d="m 0,0 c -0.008,1.386 -0.754,3.183 -3.28,3.183 -2.209,0 -3.496,-1.439 -3.496,-3.219 0,-2.03 1.322,-3.192 3.282,-3.192 2.173,0 3.502,1.484 3.494,3.228 m -3.334,2.648 c 1.33,0 1.862,-1.324 1.862,-2.477 0,-1.485 -0.612,-2.863 -1.977,-2.863 -1.331,0 -1.855,1.234 -1.855,2.397 0,2.004 0.736,2.943 1.97,2.943"
       style="fill:#173e7d;fill-opacity:1;fill-rule:nonzero;stroke:none"
       transform="matrix(0.35277776,0,0,-0.35277776,88.154262,54.177106)"
       clip-path="url(#clipPath507)" />
    <path
       id="path508"
       d="M 0,0 C 0.222,0.018 0.444,0.045 0.666,0.045 0.887,0.045 1.108,0.018 1.33,0 V 2.872 H 1.393 C 1.588,2.532 1.837,2.12 1.97,1.879 L 3.023,0 C 3.29,0.018 3.557,0.045 3.822,0.045 4.098,0.045 4.364,0.018 4.63,0 L 4.284,0.555 C 3.752,1.386 3.202,2.209 2.714,3.068 3.539,3.247 4.098,3.801 4.098,4.678 4.098,5.286 3.831,5.689 3.325,5.957 2.953,6.154 2.307,6.137 1.89,6.137 H 0 Z m 1.33,5.654 c 0.542,0 1.206,0.07 1.348,-0.672 C 2.714,4.794 2.724,4.659 2.724,4.534 2.724,3.613 2.262,3.167 1.33,3.256 Z"
       style="fill:#173e7d;fill-opacity:1;fill-rule:nonzero;stroke:none"
       transform="matrix(0.35277776,0,0,-0.35277776,88.338695,55.275198)"
       clip-path="url(#clipPath509)" />
    <path
       id="path510"
       d="m 0,0 c 0.24,-0.598 0.427,-1.208 0.631,-1.869 0.256,0.018 0.505,0.045 0.762,0.045 0.257,0 0.506,-0.027 0.761,-0.045 L -0.32,4.348 C -0.434,4.329 -0.541,4.321 -0.656,4.321 c -0.115,0 -0.222,0.008 -0.337,0.027 l -2.536,-6.199 c 0.142,0.009 0.284,0.027 0.426,0.027 0.141,0 0.275,-0.018 0.417,-0.027 0.168,0.617 0.39,1.173 0.62,1.851 z m -1.826,0.546 0.833,2.083 0.789,-2.083 z"
       style="fill:#173e7d;fill-opacity:1;fill-rule:nonzero;stroke:none"
       transform="matrix(0.35277776,0,0,-0.35277776,91.145006,54.615751)"
       clip-path="url(#clipPath511)" />
    <path
       id="path512"
       d="M 0,0 C -0.22,0.018 -0.442,0.045 -0.664,0.045 -0.886,0.045 -1.108,0.018 -1.33,0 v 5.502 c -0.629,0 -1.188,-0.063 -1.648,-0.127 0.016,0.127 0.043,0.252 0.043,0.385 0,0.125 -0.027,0.25 -0.043,0.377 H 1.588 C 1.571,6.01 1.543,5.885 1.543,5.76 1.543,5.627 1.571,5.502 1.588,5.375 1.064,5.439 0.541,5.502 0,5.502 Z"
       style="fill:#173e7d;fill-opacity:1;fill-rule:nonzero;stroke:none"
       transform="matrix(0.35277776,0,0,-0.35277776,92.731201,55.275198)"
       clip-path="url(#clipPath513)" />
    <path
       id="path514"
       d="m 0,0 c 0.222,-0.018 0.444,-0.045 0.664,-0.045 0.223,0 0.444,0.027 0.666,0.045 V -6.137 C 1.108,-6.117 0.887,-6.09 0.664,-6.09 0.444,-6.09 0.222,-6.117 0,-6.137 Z"
       style="fill:#173e7d;fill-opacity:1;fill-rule:nonzero;stroke:none"
       transform="matrix(0.35277776,0,0,-0.35277776,93.485441,53.110518)"
       clip-path="url(#clipPath515)" />
    <path
       id="path516"
       d="m 0,0 c -0.008,1.386 -0.754,3.183 -3.28,3.183 -2.211,0 -3.497,-1.439 -3.497,-3.219 0,-2.03 1.323,-3.192 3.282,-3.192 2.174,0 3.503,1.484 3.495,3.228 m -3.335,2.648 c 1.331,0 1.862,-1.324 1.862,-2.477 0,-1.485 -0.611,-2.863 -1.977,-2.863 -1.33,0 -1.854,1.234 -1.854,2.397 0,2.004 0.737,2.943 1.969,2.943"
       style="fill:#173e7d;fill-opacity:1;fill-rule:nonzero;stroke:none"
       transform="matrix(0.35277776,0,0,-0.35277776,96.585969,54.177106)"
       clip-path="url(#clipPath517)" />
    <path
       id="path518"
       d="M 0,0 H 0.878 C 2.137,-1.386 3.459,-2.745 4.71,-4.186 V 0 c 0.115,-0.018 0.24,-0.027 0.355,-0.027 0.115,0 0.239,0.009 0.354,0.027 v -6.137 l -0.753,0.01 c -1.029,1.154 -1.987,2.254 -2.989,3.318 l -0.966,1.02 V -6.117 C 0.595,-6.109 0.47,-6.09 0.354,-6.09 0.24,-6.09 0.115,-6.109 0,-6.117 Z"
       style="fill:#173e7d;fill-opacity:1;fill-rule:nonzero;stroke:none"
       transform="matrix(0.35277776,0,0,-0.35277776,96.798305,53.110518)"
       clip-path="url(#clipPath519)" />
    <path
       id="path520"
       d="M 0,0 C -0.22,0.018 -0.442,0.045 -0.664,0.045 -0.886,0.045 -1.108,0.018 -1.33,0 v 5.502 c -0.629,0 -1.188,-0.063 -1.648,-0.127 0.016,0.127 0.043,0.252 0.043,0.385 0,0.125 -0.027,0.25 -0.043,0.377 H 1.588 C 1.571,6.01 1.543,5.885 1.543,5.76 1.543,5.627 1.571,5.502 1.588,5.375 1.064,5.439 0.541,5.502 0,5.502 Z"
       style="fill:#173e7d;fill-opacity:1;fill-rule:nonzero;stroke:none"
       transform="matrix(0.35277776,0,0,-0.35277776,101.70827,55.278302)"
       clip-path="url(#clipPath521)" />
    <path
       id="path522"
       d="m 0,0 v -6.09 h 2.483 c 1.817,0 3.227,1.197 3.227,3.218 0,1.468 -0.78,2.8 -2.677,2.872 z m 1.33,-0.52 h 0.868 c 1.251,0 2.04,-0.661 2.04,-2.342 0,-2.094 -0.93,-2.71 -2.154,-2.71 H 1.33 Z"
       style="fill:#173e7d;fill-opacity:1;fill-rule:nonzero;stroke:none"
       transform="matrix(0.35277776,0,0,-0.35277776,102.5785,53.125372)"
       clip-path="url(#clipPath523)" />
  </g>
</svg>
