<?xml version="1.0" encoding="UTF-8" standalone="no"?>
<!-- Created with Inkscape (http://www.inkscape.org/) -->

<svg
   width="15.661144mm"
   height="12.000141mm"
   viewBox="0 0 15.661144 12.000141"
   version="1.1"
   id="svg1"
   xmlns="http://www.w3.org/2000/svg"
   xmlns:svg="http://www.w3.org/2000/svg">
  <defs
     id="defs1">
    <clipPath
       clipPathUnits="userSpaceOnUse"
       id="clipPath949">
      <path
         d="M 0,858.898 H 1207.558 V 0 H 0 Z"
         transform="translate(-118.5927,-347.34351)"
         id="path949" />
    </clipPath>
    <clipPath
       clipPathUnits="userSpaceOnUse"
       id="clipPath951">
      <path
         d="M 0,858.898 H 1207.558 V 0 H 0 Z"
         transform="translate(-101.7312,-352.32501)"
         id="path951" />
    </clipPath>
    <clipPath
       clipPathUnits="userSpaceOnUse"
       id="clipPath953">
      <path
         d="M 0,858.898 H 1207.558 V 0 H 0 Z"
         transform="translate(-107.6823,-339.24481)"
         id="path953" />
    </clipPath>
    <clipPath
       clipPathUnits="userSpaceOnUse"
       id="clipPath955">
      <path
         d="M 0,858.898 H 1207.558 V 0 H 0 Z"
         transform="translate(-113.81711,-342.43041)"
         id="path955" />
    </clipPath>
    <clipPath
       clipPathUnits="userSpaceOnUse"
       id="clipPath957">
      <path
         d="M 0,858.898 H 1207.558 V 0 H 0 Z"
         transform="translate(-102.2568,-336.99821)"
         id="path957" />
    </clipPath>
    <clipPath
       clipPathUnits="userSpaceOnUse"
       id="clipPath959">
      <path
         d="M 0,858.898 H 1207.558 V 0 H 0 Z"
         transform="translate(-107.27471,-336.99911)"
         id="path959" />
    </clipPath>
    <clipPath
       clipPathUnits="userSpaceOnUse"
       id="clipPath961">
      <path
         d="M 0,858.898 H 1207.558 V 0 H 0 Z"
         transform="translate(-109.72751,-333.97801)"
         id="path961" />
    </clipPath>
    <clipPath
       clipPathUnits="userSpaceOnUse"
       id="clipPath963">
      <path
         d="M 0,858.898 H 1207.558 V 0 H 0 Z"
         transform="translate(-87.8028,-338.12761)"
         id="path963" />
    </clipPath>
    <clipPath
       clipPathUnits="userSpaceOnUse"
       id="clipPath965">
      <path
         d="M 0,858.898 H 1207.558 V 0 H 0 Z"
         transform="translate(-98.676202,-339.24281)"
         id="path965" />
    </clipPath>
    <clipPath
       clipPathUnits="userSpaceOnUse"
       id="clipPath967">
      <path
         d="M 0,858.898 H 1207.558 V 0 H 0 Z"
         transform="translate(-81.295702,-336.47831)"
         id="path967" />
    </clipPath>
    <clipPath
       clipPathUnits="userSpaceOnUse"
       id="clipPath969">
      <path
         d="M 0,858.898 H 1207.558 V 0 H 0 Z"
         transform="translate(-101.7312,-352.32501)"
         id="path969" />
    </clipPath>
    <clipPath
       clipPathUnits="userSpaceOnUse"
       id="clipPath971">
      <path
         d="M 0,858.898 H 1207.558 V 0 H 0 Z"
         transform="translate(-117.70841,-324.31891)"
         id="path971" />
    </clipPath>
  </defs>
  <g
     id="layer1"
     transform="translate(-20.599837,-108.94587)">
    <path
       id="path948"
       d="m 0,0 c -6.58,7.518 -18.147,5.828 -18.147,5.828 -10.66,-1.075 -16.096,-7.711 -16.096,-7.711 -11.566,-8.849 -5.552,-18.096 -5.552,-18.096 5.104,-8.544 16.435,-8.041 16.435,-8.041 12.933,-0.045 19.287,7.869 19.287,7.869 3.382,2.269 5.298,5.802 5.298,5.802 C 5.921,-5.828 0,0 0,0"
       style="fill:#ffffff;fill-opacity:1;fill-rule:nonzero;stroke:none"
       transform="matrix(0.35277776,0,0,-0.35277776,35.190004,111.0592)"
       clip-path="url(#clipPath949)" />
    <path
       id="path950"
       d="m 0,0 c -6.827,-0.428 -12.974,-3.391 -16.707,-7.536 v 0 l -0.03,-0.033 c -0.002,-0.002 -0.003,-0.004 -0.005,-0.006 v 0.001 l -0.002,-0.003 0.002,0.002 c -3.958,-2.905 -6.544,-6.838 -6.764,-11.037 -0.423,-8.065 8.041,-14.065 18.904,-13.374 6.848,0.425 13.015,3.405 16.745,7.572 l -0.001,-10e-4 0.001,10e-4 v 0 l 0.002,0.001 0.032,0.024 v 0 c 3.938,2.903 6.511,6.825 6.73,11.01 C 19.33,-5.311 10.862,0.676 0,0"
       style="fill:#ffffff;fill-opacity:1;fill-rule:nonzero;stroke:none"
       transform="matrix(0.35277776,0,0,-0.35277776,29.241642,109.30183)"
       clip-path="url(#clipPath951)" />
    <path
       id="path952"
       d="m 0,0 h -2.07 c -0.134,0 -0.235,0.121 -0.211,0.252 l 0.217,1.185 c 0.019,0.102 0.107,0.176 0.211,0.176 h 1.982 c 0.104,0 0.193,0.075 0.211,0.178 l 0.156,0.902 c 0.023,0.131 -0.078,0.25 -0.211,0.25 h -6.221 c -0.105,0 -0.193,-0.075 -0.211,-0.177 L -6.303,1.864 C -6.326,1.733 -6.225,1.613 -6.092,1.613 h 1.838 c 0.134,0 0.235,-0.12 0.211,-0.251 L -4.258,0.176 C -4.277,0.074 -4.365,0 -4.469,0 L -6.76,-0.005 c -0.104,0 -0.193,-0.075 -0.211,-0.177 L -7.132,-1.08 c -0.022,-0.13 0.079,-0.25 0.211,-0.25 h 2.139 c 0.132,0 0.233,-0.12 0.211,-0.25 0,0 -1.026,-5.743 -1.24,-6.983 -0.022,-0.13 0.078,-0.249 0.211,-0.249 h 1.538 c 0.104,0 0.193,0.074 0.211,0.176 l 1.268,7.129 c 0.018,0.103 0.107,0.177 0.211,0.177 h 2.216 c 0.104,0 0.193,0.075 0.211,0.178 L 0.211,-0.25 C 0.233,-0.12 0.133,0 0,0"
       style="fill:#e41b2f;fill-opacity:1;fill-rule:nonzero;stroke:none"
       transform="matrix(0.35277776,0,0,-0.35277776,31.341058,113.91624)"
       clip-path="url(#clipPath953)" />
    <path
       id="path954"
       d="m 0,0 h -1.413 c -0.104,0 -0.193,-0.075 -0.211,-0.177 -0.22,-1.265 -1.695,-9.534 -1.736,-9.726 -0.11,-0.512 -0.529,-1.449 -0.955,-1.94 -0.127,-0.146 -0.009,-0.37 0.183,-0.352 1.348,0.121 2.49,1.456 2.694,2.613 0.348,1.973 1.437,8.099 1.649,9.333 C 0.233,-0.118 0.133,0 0,0"
       style="fill:#e41b2f;fill-opacity:1;fill-rule:nonzero;stroke:none"
       transform="matrix(0.35277776,0,0,-0.35277776,33.505281,112.79243)"
       clip-path="url(#clipPath955)" />
    <path
       id="path956"
       d="m 0,0 c 0.022,0.13 -0.079,0.249 -0.211,0.249 h -1.108 c -0.104,0 -0.194,-0.076 -0.211,-0.179 -0.066,-0.401 -0.308,-1.79 -0.39,-2.161 -0.371,-1.666 -0.677,-2.283 -1.173,-2.843 -0.139,-0.158 0.007,-0.418 0.264,-0.349 1.99,0.529 2.268,2.191 2.443,3.192 C -0.323,-1.737 -0.073,-0.433 0,0"
       style="fill:#e41b2f;fill-opacity:1;fill-rule:nonzero;stroke:none"
       transform="matrix(0.35277776,0,0,-0.35277776,29.427062,114.70879)"
       clip-path="url(#clipPath957)" />
    <path
       id="path958"
       d="M 0,0 C 0.022,0.131 -0.078,0.249 -0.211,0.249 H -1.32 c -0.105,0 -0.194,-0.075 -0.211,-0.179 -0.067,-0.399 -0.295,-1.761 -0.361,-2.135 -0.179,-1.018 -0.408,-2.692 1.446,-3.212 0.235,-0.067 0.383,0.135 0.296,0.301 -0.585,1.114 -0.255,2.621 -0.204,2.911 C -0.292,-1.712 -0.074,-0.433 0,0"
       style="fill:#e41b2f;fill-opacity:1;fill-rule:nonzero;stroke:none"
       transform="matrix(0.35277776,0,0,-0.35277776,31.197267,114.70847)"
       clip-path="url(#clipPath959)" />
    <path
       id="path960"
       d="M 0,0 1.097,6.153 C 1.12,6.284 1.019,6.403 0.886,6.403 H -0.52 c -0.103,0 -0.192,-0.074 -0.21,-0.176 L -1.826,0.074 c -0.024,-0.131 0.077,-0.251 0.21,-0.251 h 1.405 c 0.104,0 0.193,0.074 0.211,0.177"
       style="fill:#e41b2f;fill-opacity:1;fill-rule:nonzero;stroke:none"
       transform="matrix(0.35277776,0,0,-0.35277776,32.062561,115.77425)"
       clip-path="url(#clipPath961)" />
    <path
       id="path962"
       d="m 0,0 h -0.568 c 1.17,1.546 1.87,3.233 2.105,3.977 0.044,0.141 -0.054,0.285 -0.202,0.285 h -1.54 c -0.096,0 -0.179,-0.064 -0.205,-0.155 -0.804,-2.808 -2.457,-5.344 -3.369,-6.349 -0.159,-0.175 0.042,-0.439 0.254,-0.336 0.568,0.279 1.088,0.643 1.562,1.059 l -1.038,-5.924 c -0.023,-0.131 0.078,-0.251 0.211,-0.251 h 1.503 c 0.104,0 0.193,0.075 0.211,0.177 l 1.287,7.266 C 0.234,-0.12 0.133,0 0,0"
       style="fill:#e41b2f;fill-opacity:1;fill-rule:nonzero;stroke:none"
       transform="matrix(0.35277776,0,0,-0.35277776,24.328012,114.31036)"
       clip-path="url(#clipPath963)" />
    <path
       id="path964"
       d="m 0,0 h -0.468 c -0.134,0 -0.234,0.121 -0.211,0.252 l 0.3,1.688 c 0.094,0.524 -0.309,1.006 -0.842,1.006 h -7.47 c -0.104,0 -0.193,-0.075 -0.211,-0.178 L -9.058,1.863 c -0.023,-0.13 0.078,-0.25 0.211,-0.25 h 2.403 c 0.133,0 0.233,-0.119 0.211,-0.25 L -6.436,0.178 C -6.453,0.075 -6.542,0 -6.646,0 h -2.56 C -9.311,0 -9.4,-0.075 -9.417,-0.178 L -9.573,-1.08 c -0.023,-0.13 0.078,-0.25 0.211,-0.25 h 2.398 c 0.133,0 0.234,-0.12 0.211,-0.252 l -0.223,-1.287 c -0.019,-0.102 -0.107,-0.176 -0.211,-0.176 l -2.547,0.007 c -0.104,0 -0.193,-0.075 -0.211,-0.178 l -0.156,-0.902 c -0.022,-0.131 0.079,-0.251 0.211,-0.251 l 2.412,-0.006 c 0.134,0 0.236,-0.121 0.21,-0.254 -0.14,-0.735 -0.705,-2.848 -2.089,-4 -0.166,-0.139 -0.052,-0.41 0.162,-0.38 2.778,0.391 3.525,3.036 3.784,4.459 0.018,0.102 0.106,0.175 0.21,0.175 h 2.296 c 0.841,0 1.474,0.563 1.663,1.436 l 0.254,1.429 c 0.016,0.104 0.106,0.18 0.211,0.18 h 0.621 c 0.104,0 0.193,0.075 0.211,0.178 L 0.211,-0.25 C 0.233,-0.12 0.133,0 0,0 m -3.036,-2.696 c -0.038,-0.202 -0.215,-0.349 -0.421,-0.349 h -1.419 c -0.133,0 -0.234,0.119 -0.211,0.25 l 0.217,1.288 c 0.018,0.102 0.107,0.177 0.211,0.177 h 1.612 c 0.134,0 0.235,-0.122 0.21,-0.253 z M -2.53,0.175 C -2.549,0.074 -2.637,0 -2.741,0 H -4.35 c -0.133,0 -0.233,0.119 -0.212,0.249 l 0.214,1.185 c 0.018,0.103 0.106,0.179 0.211,0.179 0.533,0 1.229,-10e-4 1.611,-0.002 0.133,0 0.233,-0.121 0.209,-0.252 z"
       style="fill:#e41b2f;fill-opacity:1;fill-rule:nonzero;stroke:none"
       transform="matrix(0.35277776,0,0,-0.35277776,28.163907,113.91694)"
       clip-path="url(#clipPath965)" />
    <path
       id="path966"
       d="M 0,0 C 0.156,2.982 1.507,5.83 3.693,8.272 -0.264,5.367 -2.851,1.434 -3.071,-2.765 -3.494,-10.831 4.97,-16.83 15.833,-16.139 c 6.848,0.424 13.015,3.405 16.746,7.571 -3.65,-2.678 -8.464,-4.483 -13.675,-4.806 C 8.041,-14.065 -0.423,-8.065 0,0"
       style="fill:#76bd22;fill-opacity:1;fill-rule:nonzero;stroke:none"
       transform="matrix(0.35277776,0,0,-0.35277776,22.032453,114.8922)"
       clip-path="url(#clipPath967)" />
    <path
       id="path968"
       d="m 0,0 c -6.848,-0.429 -13.013,-3.409 -16.742,-7.575 3.648,2.678 8.461,4.483 13.671,4.81 10.862,0.676 19.33,-5.312 18.907,-13.379 -0.156,-2.981 -1.507,-5.829 -3.693,-8.27 3.958,2.905 6.544,6.838 6.764,11.035 C 19.33,-5.311 10.862,0.676 0,0"
       style="fill:#2a8dd4;fill-opacity:1;fill-rule:nonzero;stroke:none"
       transform="matrix(0.35277776,0,0,-0.35277776,29.241642,109.30183)"
       clip-path="url(#clipPath969)" />
    <path
       id="path970"
       d="m 0,0 c -0.083,0.046 -0.215,0.069 -0.398,0.069 h -0.281 v -0.675 h 0.297 c 0.139,0 0.244,0.013 0.314,0.041 0.128,0.051 0.192,0.148 0.192,0.292 C 0.124,-0.137 0.083,-0.046 0,0 m -0.355,0.294 c 0.232,0 0.401,-0.022 0.509,-0.067 0.193,-0.081 0.29,-0.238 0.29,-0.473 0,-0.167 -0.061,-0.29 -0.182,-0.368 -0.065,-0.042 -0.155,-0.072 -0.27,-0.091 0.146,-0.023 0.253,-0.084 0.32,-0.182 0.068,-0.099 0.101,-0.195 0.101,-0.289 v -0.137 c 0,-0.043 0.002,-0.089 0.005,-0.138 0.003,-0.05 0.009,-0.082 0.016,-0.098 L 0.446,-1.572 H 0.138 C 0.137,-1.565 0.135,-1.559 0.133,-1.553 0.132,-1.547 0.13,-1.54 0.129,-1.532 l -0.007,0.06 v 0.147 c 0,0.216 -0.059,0.358 -0.176,0.427 -0.069,0.04 -0.191,0.06 -0.366,0.06 h -0.259 v -0.734 h -0.329 v 1.866 z m -1,0.095 c -0.284,-0.286 -0.426,-0.631 -0.426,-1.035 0,-0.407 0.141,-0.754 0.424,-1.041 0.284,-0.287 0.629,-0.431 1.034,-0.431 0.406,0 0.751,0.144 1.035,0.431 0.284,0.287 0.426,0.634 0.426,1.041 0,0.404 -0.142,0.749 -0.426,1.035 -0.285,0.287 -0.63,0.43 -1.035,0.43 -0.402,0 -0.746,-0.143 -1.032,-0.43 m 2.236,-2.238 c -0.332,-0.334 -0.733,-0.5 -1.204,-0.5 -0.47,0 -0.871,0.166 -1.201,0.5 -0.328,0.331 -0.493,0.733 -0.493,1.206 0,0.467 0.166,0.867 0.498,1.198 0.33,0.331 0.729,0.496 1.196,0.496 0.471,0 0.872,-0.165 1.204,-0.496 0.332,-0.33 0.498,-0.729 0.498,-1.198 0,-0.471 -0.166,-0.873 -0.498,-1.206"
       style="fill:#2a8dd4;fill-opacity:1;fill-rule:nonzero;stroke:none"
       transform="matrix(0.35277776,0,0,-0.35277776,34.878045,119.18177)"
       clip-path="url(#clipPath971)" />
  </g>
</svg>
