<?xml version="1.0" encoding="UTF-8" standalone="no"?>
<!-- Created with Inkscape (http://www.inkscape.org/) -->

<svg
   width="13.802428mm"
   height="13.80242mm"
   viewBox="0 0 13.802428 13.80242"
   version="1.1"
   id="svg1"
   xmlns="http://www.w3.org/2000/svg"
   xmlns:svg="http://www.w3.org/2000/svg">
  <defs
     id="defs1">
    <clipPath
       clipPathUnits="userSpaceOnUse"
       id="clipPath3628">
      <path
         d="M 0,858.898 H 1207.558 V 0 H 0 Z"
         transform="translate(-336.67821,-104.3771)"
         id="path3628" />
    </clipPath>
    <clipPath
       clipPathUnits="userSpaceOnUse"
       id="clipPath3630">
      <path
         d="M 0,858.898 H 1207.558 V 0 H 0 Z"
         transform="translate(-337.43931,-70.462687)"
         id="path3630" />
    </clipPath>
    <clipPath
       clipPathUnits="userSpaceOnUse"
       id="clipPath3632">
      <path
         d="M 0,858.898 H 1207.558 V 0 H 0 Z"
         transform="translate(-345.47641,-99.453637)"
         id="path3632" />
    </clipPath>
    <clipPath
       clipPathUnits="userSpaceOnUse"
       id="clipPath3634">
      <path
         d="M 0,858.898 H 1207.558 V 0 H 0 Z"
         transform="translate(-345.31561,-99.160912)"
         id="path3634" />
    </clipPath>
    <clipPath
       clipPathUnits="userSpaceOnUse"
       id="clipPath3636">
      <path
         d="M 0,858.898 H 1207.558 V 0 H 0 Z"
         transform="translate(-347.34851,-97.467487)"
         id="path3636" />
    </clipPath>
    <clipPath
       clipPathUnits="userSpaceOnUse"
       id="clipPath3638">
      <path
         d="M 0,858.898 H 1207.558 V 0 H 0 Z"
         transform="translate(-348.65371,-97.165312)"
         id="path3638" />
    </clipPath>
    <clipPath
       clipPathUnits="userSpaceOnUse"
       id="clipPath3640">
      <path
         d="M 0,858.898 H 1207.558 V 0 H 0 Z"
         transform="translate(-325.07461,-95.033437)"
         id="path3640" />
    </clipPath>
    <clipPath
       clipPathUnits="userSpaceOnUse"
       id="clipPath3642">
      <path
         d="M 0,858.898 H 1207.558 V 0 H 0 Z"
         transform="translate(-322.66341,-92.073637)"
         id="path3642" />
    </clipPath>
    <clipPath
       clipPathUnits="userSpaceOnUse"
       id="clipPath3644">
      <path
         d="M 0,858.898 H 1207.558 V 0 H 0 Z"
         transform="translate(-351.55921,-92.464837)"
         id="path3644" />
    </clipPath>
    <clipPath
       clipPathUnits="userSpaceOnUse"
       id="clipPath3646">
      <path
         d="M 0,858.898 H 1207.558 V 0 H 0 Z"
         transform="translate(-326.86411,-92.554912)"
         id="path3646" />
    </clipPath>
    <clipPath
       clipPathUnits="userSpaceOnUse"
       id="clipPath3648">
      <path
         d="M 0,858.898 H 1207.558 V 0 H 0 Z"
         transform="translate(-322.33131,-91.241812)"
         id="path3648" />
    </clipPath>
    <clipPath
       clipPathUnits="userSpaceOnUse"
       id="clipPath3650">
      <path
         d="M 0,858.898 H 1207.558 V 0 H 0 Z"
         transform="translate(-352.61851,-81.847837)"
         id="path3650" />
    </clipPath>
    <clipPath
       clipPathUnits="userSpaceOnUse"
       id="clipPath3652">
      <path
         d="M 0,858.898 H 1207.558 V 0 H 0 Z"
         transform="translate(-332.86531,-76.493737)"
         id="path3652" />
    </clipPath>
    <clipPath
       clipPathUnits="userSpaceOnUse"
       id="clipPath3654">
      <path
         d="M 0,858.898 H 1207.558 V 0 H 0 Z"
         transform="translate(-328.75661,-72.879412)"
         id="path3654" />
    </clipPath>
    <clipPath
       clipPathUnits="userSpaceOnUse"
       id="clipPath3656">
      <path
         d="M 0,858.898 H 1207.558 V 0 H 0 Z"
         transform="translate(-346.32311,-72.838087)"
         id="path3656" />
    </clipPath>
    <clipPath
       clipPathUnits="userSpaceOnUse"
       id="clipPath3658">
      <path
         d="M 0,858.898 H 1207.558 V 0 H 0 Z"
         transform="translate(-344.83971,-71.969437)"
         id="path3658" />
    </clipPath>
    <clipPath
       clipPathUnits="userSpaceOnUse"
       id="clipPath3660">
      <path
         d="M 0,858.898 H 1207.558 V 0 H 0 Z"
         transform="translate(-333.37351,-70.805587)"
         id="path3660" />
    </clipPath>
    <clipPath
       clipPathUnits="userSpaceOnUse"
       id="clipPath3662">
      <path
         d="M 0,858.898 H 1207.558 V 0 H 0 Z"
         transform="translate(-334.80361,-70.173487)"
         id="path3662" />
    </clipPath>
    <clipPath
       clipPathUnits="userSpaceOnUse"
       id="clipPath3664">
      <path
         d="M 0,858.898 H 1207.558 V 0 H 0 Z"
         transform="translate(-336.48711,-70.141087)"
         id="path3664" />
    </clipPath>
    <clipPath
       clipPathUnits="userSpaceOnUse"
       id="clipPath3666">
      <path
         d="M 0,858.898 H 1207.558 V 0 H 0 Z"
         transform="translate(-334.76381,-69.919087)"
         id="path3666" />
    </clipPath>
  </defs>
  <g
     id="layer1"
     transform="translate(-105.58275,-196.4947)">
    <path
       id="path3627"
       d="m 0,0 c -2.04,-0.108 -4.062,-0.551 -5.958,-1.31 -2.263,-0.902 -4.344,-2.254 -6.094,-3.948 -1.853,-1.79 -3.335,-3.963 -4.317,-6.344 -1.447,-3.487 -1.792,-7.414 -1.005,-11.104 0.408,-1.921 1.123,-3.777 2.108,-5.477 1.549,-2.681 3.772,-4.967 6.407,-6.594 2.959,-1.839 6.44,-2.817 9.924,-2.8 3.609,-0.001 7.208,1.072 10.225,3.053 2.758,1.8 5.031,4.334 6.514,7.275 1.747,3.432 2.378,7.411 1.815,11.219 -0.461,3.186 -1.769,6.243 -3.749,8.782 -2.017,2.601 -4.727,4.662 -7.78,5.898 C 5.537,-0.309 2.752,0.149 0,0 m 0.682,0.787 h 0.664 c 2.47,-0.046 4.933,-0.55 7.212,-1.508 2.963,-1.236 5.608,-3.22 7.634,-5.711 1.96,-2.401 3.337,-5.276 3.97,-8.311 0.257,-1.218 0.389,-2.46 0.416,-3.704 v -0.661 c -0.057,-3.448 -1.038,-6.876 -2.838,-9.82 -1.699,-2.798 -4.111,-5.157 -6.947,-6.793 -2.856,-1.66 -6.141,-2.56 -9.443,-2.617 H 0.732 c -3.453,0.048 -6.888,1.024 -9.838,2.821 -2.769,1.675 -5.112,4.048 -6.751,6.839 -1.707,2.887 -2.634,6.223 -2.69,9.576 v 0.707 c 0.059,2.708 0.669,5.406 1.817,7.861 1.255,2.702 3.14,5.108 5.458,6.979 1.951,1.579 4.208,2.778 6.61,3.505 1.731,0.526 3.536,0.8 5.344,0.837"
       style="fill:#2f6b39;fill-opacity:1;fill-rule:nonzero;stroke:none"
       transform="matrix(0.35277776,0,0,-0.35277776,112.12572,196.77234)"
       clip-path="url(#clipPath3628)" />
    <path
       id="path3629"
       d="M 0,0 C 0.009,-0.462 0.018,-0.924 0.026,-1.386 0.161,-1.385 0.295,-1.382 0.43,-1.38 0.425,-1.126 0.42,-0.872 0.415,-0.618 0.594,-0.86 0.755,-1.116 0.944,-1.35 1.07,-1.394 1.219,-1.354 1.354,-1.36 1.344,-0.898 1.337,-0.436 1.327,0.025 1.192,0.023 1.058,0.02 0.923,0.018 0.928,-0.238 0.933,-0.493 0.938,-0.749 0.758,-0.497 0.58,-0.244 0.401,0.007 0.267,0.005 0.133,0.003 0,0 m -1.165,0.051 c -0.191,-0.454 -0.391,-0.903 -0.587,-1.355 0.146,-0.009 0.292,-0.018 0.438,-0.024 0.026,0.076 0.052,0.15 0.078,0.225 0.162,-0.008 0.325,-0.017 0.487,-0.025 0.02,-0.077 0.04,-0.155 0.06,-0.233 0.148,-0.006 0.297,-0.014 0.446,-0.022 -0.152,0.472 -0.299,0.944 -0.453,1.414 -0.157,0.007 -0.313,0.015 -0.469,0.02 m 3.231,0.052 c 0.072,-0.457 0.146,-0.913 0.219,-1.37 0.385,0.061 0.77,0.123 1.155,0.185 -0.017,0.103 -0.033,0.206 -0.049,0.309 -0.244,-0.038 -0.488,-0.077 -0.732,-0.116 -0.014,0.091 -0.029,0.181 -0.043,0.27 0.22,0.035 0.439,0.07 0.659,0.105 -0.015,0.094 -0.03,0.187 -0.044,0.28 -0.22,-0.035 -0.44,-0.071 -0.659,-0.105 -0.013,0.072 -0.025,0.144 -0.036,0.216 0.236,0.04 0.474,0.077 0.71,0.115 C 3.231,0.09 3.215,0.187 3.2,0.284 2.822,0.224 2.444,0.163 2.066,0.103 M -2.979,0.32 c -0.071,-0.457 -0.143,-0.914 -0.214,-1.371 0.351,-0.04 0.7,-0.149 1.056,-0.115 0.326,0.066 0.376,0.571 0.058,0.69 0.108,0.041 0.222,0.109 0.244,0.235 0.057,0.187 -0.087,0.381 -0.271,0.417 -0.288,0.062 -0.582,0.093 -0.873,0.144 M 4.264,0.558 C 4.33,0.311 4.397,0.064 4.464,-0.183 4.228,0.018 3.994,0.222 3.758,0.422 3.629,0.386 3.501,0.352 3.373,0.317 c 0.12,-0.447 0.241,-0.893 0.361,-1.339 0.13,0.034 0.26,0.07 0.39,0.105 -0.066,0.244 -0.133,0.487 -0.197,0.732 0.232,-0.197 0.464,-0.393 0.692,-0.595 0.132,0.031 0.264,0.067 0.397,0.102 C 4.897,-0.231 4.774,0.214 4.656,0.66 4.525,0.628 4.394,0.593 4.264,0.558 m -8.672,0.167 c -0.118,-0.447 -0.237,-0.894 -0.356,-1.341 0.139,-0.037 0.277,-0.073 0.415,-0.111 0.051,0.185 0.099,0.37 0.15,0.554 0.058,-0.035 0.137,-0.062 0.154,-0.139 0.055,-0.173 0.087,-0.354 0.131,-0.53 0.156,-0.042 0.312,-0.083 0.468,-0.124 -0.068,0.237 -0.055,0.527 -0.258,0.701 0.103,0.016 0.216,0.027 0.294,0.104 C -3.222,0 -3.237,0.36 -3.483,0.457 -3.781,0.579 -4.1,0.635 -4.408,0.725 M 5.725,1.041 C 5.748,0.694 5.774,0.347 5.797,0 5.578,0.271 5.364,0.547 5.145,0.817 5.01,0.765 4.872,0.717 4.74,0.658 5.049,0.275 5.394,-0.08 5.718,-0.45 5.862,-0.393 6.006,-0.337 6.15,-0.283 6.144,0.211 6.138,0.704 6.131,1.198 5.996,1.145 5.86,1.094 5.725,1.041 M -5.915,1.314 C -6.021,1.02 -6.152,0.735 -6.239,0.435 -6.3,0.221 -6.208,-0.026 -6.012,-0.136 c 0.216,-0.122 0.484,-0.245 0.732,-0.142 0.161,0.062 0.262,0.215 0.322,0.371 0.097,0.247 0.189,0.498 0.285,0.746 -0.133,0.051 -0.266,0.102 -0.4,0.153 -0.114,-0.282 -0.205,-0.574 -0.333,-0.85 -0.107,-0.211 -0.489,-0.065 -0.427,0.164 0.089,0.291 0.215,0.569 0.317,0.855 -0.133,0.051 -0.266,0.102 -0.399,0.153 M 6.289,1.275 C 6.473,0.851 6.653,0.425 6.834,0 6.966,0.056 7.098,0.112 7.229,0.168 7.048,0.594 6.866,1.019 6.685,1.445 6.553,1.389 6.421,1.333 6.289,1.275 M 6.89,1.542 C 7.111,1.135 7.339,0.733 7.564,0.328 7.689,0.398 7.815,0.467 7.94,0.538 7.845,0.708 7.746,0.877 7.661,1.053 7.927,1.113 8.114,0.861 8.333,0.756 8.474,0.834 8.615,0.913 8.756,0.991 8.541,1.117 8.348,1.33 8.08,1.318 8.135,1.388 8.201,1.457 8.216,1.548 8.27,1.794 8.028,2.078 7.77,1.999 7.457,1.888 7.185,1.69 6.89,1.542 M -8.112,0.915 c 0.124,-0.071 0.249,-0.143 0.375,-0.214 0.092,0.164 0.186,0.327 0.28,0.491 0.155,-0.089 0.31,-0.178 0.465,-0.268 0.047,0.081 0.094,0.161 0.142,0.241 -0.156,0.091 -0.312,0.18 -0.467,0.272 0.041,0.07 0.081,0.139 0.122,0.208 0.181,-0.105 0.363,-0.209 0.545,-0.314 0.05,0.086 0.099,0.172 0.149,0.258 -0.307,0.177 -0.613,0.353 -0.92,0.529 C -7.651,1.717 -7.882,1.316 -8.112,0.915 M 8.879,2.733 C 8.576,2.623 8.276,2.348 8.311,1.999 8.358,1.618 8.699,1.224 9.111,1.282 9.465,1.355 9.843,1.66 9.798,2.057 9.738,2.469 9.323,2.904 8.879,2.733 M -8.886,2.769 c -0.362,-0.165 -0.628,-0.645 -0.42,-1.021 0.197,-0.306 0.618,-0.553 0.974,-0.361 0.323,0.192 0.575,0.639 0.366,0.999 -0.188,0.292 -0.572,0.521 -0.92,0.383 M 10.1,3.689 C 10.262,3.492 10.428,3.3 10.59,3.103 10.293,3.183 9.997,3.267 9.702,3.352 9.598,3.266 9.496,3.18 9.393,3.093 9.691,2.739 9.989,2.386 10.287,2.032 10.39,2.118 10.492,2.205 10.595,2.291 10.432,2.485 10.268,2.679 10.106,2.873 10.402,2.792 10.698,2.707 10.995,2.626 11.097,2.714 11.199,2.8 11.302,2.886 11.004,3.24 10.706,3.594 10.408,3.947 10.305,3.861 10.203,3.775 10.1,3.689 M -11.129,3.191 c 0.294,-0.256 0.589,-0.511 0.884,-0.767 0.069,0.08 0.137,0.16 0.204,0.241 -0.186,0.159 -0.37,0.321 -0.557,0.48 0.058,0.07 0.116,0.139 0.175,0.208 0.171,-0.142 0.339,-0.291 0.508,-0.437 0.062,0.072 0.123,0.144 0.185,0.216 -0.169,0.144 -0.338,0.29 -0.505,0.436 0.049,0.056 0.097,0.111 0.145,0.166 0.181,-0.157 0.362,-0.314 0.544,-0.471 0.064,0.075 0.129,0.15 0.193,0.224 -0.288,0.251 -0.579,0.501 -0.866,0.753 -0.305,-0.349 -0.607,-0.7 -0.91,-1.049 m 22.383,1.616 c 0.149,-0.25 0.305,-0.494 0.455,-0.743 -0.253,0.141 -0.505,0.285 -0.757,0.426 -0.13,-0.134 -0.261,-0.27 -0.391,-0.406 0.333,-0.32 0.666,-0.641 0.999,-0.961 0.081,0.083 0.162,0.166 0.244,0.248 -0.245,0.247 -0.501,0.481 -0.747,0.726 0.315,-0.17 0.623,-0.352 0.935,-0.526 0.073,0.076 0.146,0.152 0.22,0.228 -0.183,0.3 -0.372,0.596 -0.552,0.898 0.256,-0.224 0.492,-0.469 0.741,-0.702 0.08,0.084 0.161,0.168 0.242,0.252 -0.333,0.32 -0.667,0.641 -1,0.962 C 11.514,5.074 11.385,4.94 11.254,4.807 m -22.743,0.297 c 0.1,-0.105 0.2,-0.211 0.299,-0.317 -0.254,-0.238 -0.507,-0.476 -0.762,-0.712 0.096,-0.106 0.194,-0.211 0.292,-0.316 0.253,0.239 0.508,0.477 0.763,0.714 0.099,-0.106 0.199,-0.212 0.299,-0.319 0.083,0.079 0.166,0.157 0.25,0.234 -0.297,0.317 -0.594,0.635 -0.891,0.952 -0.084,-0.079 -0.167,-0.157 -0.25,-0.236 m 23.26,0.295 c 0.36,-0.289 0.719,-0.581 1.08,-0.87 0.244,0.303 0.489,0.606 0.734,0.91 -0.082,0.065 -0.163,0.131 -0.244,0.197 -0.155,-0.192 -0.31,-0.384 -0.465,-0.576 -0.071,0.058 -0.142,0.115 -0.213,0.172 0.139,0.173 0.279,0.346 0.419,0.519 -0.074,0.06 -0.147,0.119 -0.22,0.178 -0.14,-0.174 -0.28,-0.347 -0.421,-0.521 -0.056,0.048 -0.113,0.096 -0.169,0.144 0.152,0.183 0.301,0.37 0.451,0.556 C 12.645,6.17 12.568,6.232 12.492,6.293 12.251,5.996 12.01,5.698 11.771,5.399 m -24.624,0.598 c -0.174,-0.143 -0.262,-0.398 -0.161,-0.609 0.081,-0.167 0.194,-0.324 0.34,-0.441 0.178,-0.139 0.442,-0.13 0.621,0.001 0.244,0.172 0.47,0.367 0.708,0.547 -0.088,0.112 -0.176,0.224 -0.263,0.337 -0.245,-0.182 -0.473,-0.387 -0.726,-0.557 -0.207,-0.128 -0.457,0.212 -0.271,0.371 0.224,0.198 0.47,0.371 0.703,0.558 -0.087,0.113 -0.176,0.225 -0.263,0.338 -0.229,-0.183 -0.466,-0.355 -0.688,-0.545 M 13.078,7.218 C 13.291,7.079 13.506,6.943 13.718,6.802 13.41,6.793 13.102,6.787 12.794,6.779 12.722,6.668 12.649,6.555 12.577,6.443 12.965,6.192 13.353,5.94 13.742,5.689 c 0.072,0.113 0.145,0.226 0.218,0.339 -0.208,0.137 -0.422,0.266 -0.625,0.411 0.302,0.014 0.605,0.017 0.908,0.026 0.073,0.113 0.146,0.226 0.22,0.339 -0.389,0.25 -0.777,0.502 -1.166,0.753 C 13.224,7.444 13.151,7.331 13.078,7.218 m -26.306,0.409 c 0.077,-0.123 0.154,-0.246 0.232,-0.37 -0.295,-0.185 -0.59,-0.37 -0.885,-0.554 0.075,-0.122 0.151,-0.243 0.227,-0.364 0.295,0.185 0.59,0.37 0.885,0.555 0.078,-0.123 0.155,-0.247 0.234,-0.371 0.096,0.061 0.193,0.122 0.289,0.183 -0.231,0.367 -0.461,0.736 -0.692,1.103 -0.097,-0.06 -0.194,-0.121 -0.29,-0.182 m -1.223,0.143 c 0.064,-0.128 0.13,-0.256 0.196,-0.384 0.411,0.213 0.823,0.422 1.234,0.634 -0.065,0.127 -0.13,0.255 -0.195,0.381 -0.412,-0.21 -0.823,-0.421 -1.235,-0.631 M 13.921,8.818 C 13.735,8.434 13.528,8.06 13.349,7.674 c 0.063,-0.089 0.196,-0.114 0.29,-0.173 0.066,0.131 0.131,0.261 0.198,0.39 0.311,-0.157 0.621,-0.316 0.933,-0.472 0.063,0.127 0.127,0.254 0.193,0.38 -0.31,0.16 -0.622,0.316 -0.932,0.474 0.065,0.13 0.132,0.261 0.198,0.391 -0.103,0.052 -0.205,0.103 -0.308,0.154 m -28.088,0.884 c 0.059,-0.133 0.118,-0.266 0.178,-0.399 -0.318,-0.142 -0.637,-0.283 -0.954,-0.427 0.059,-0.13 0.117,-0.26 0.175,-0.39 0.318,0.141 0.636,0.284 0.954,0.427 0.059,-0.133 0.119,-0.267 0.179,-0.4 0.104,0.047 0.208,0.094 0.313,0.141 -0.179,0.396 -0.354,0.793 -0.534,1.189 -0.104,-0.047 -0.208,-0.094 -0.311,-0.141 m 28.658,0.559 c -0.174,-0.254 -0.258,-0.634 -0.053,-0.895 0.203,-0.232 0.547,-0.339 0.846,-0.274 0.339,0.08 0.491,0.459 0.496,0.776 -0.003,0.2 -0.15,0.352 -0.299,0.466 -0.076,-0.107 -0.15,-0.214 -0.224,-0.321 0.071,-0.071 0.18,-0.134 0.182,-0.248 0.003,-0.123 -0.072,-0.262 -0.204,-0.28 -0.158,-0.006 -0.319,0.041 -0.454,0.124 -0.118,0.071 -0.16,0.234 -0.089,0.352 0.042,0.098 0.154,0.114 0.243,0.144 0.012,0.127 0.024,0.253 0.034,0.38 -0.178,-0.02 -0.371,-0.067 -0.478,-0.224 m -29.307,0.583 c -0.13,-0.224 -0.011,-0.492 -0.063,-0.731 -0.046,-0.105 -0.199,-0.087 -0.242,0.011 -0.099,0.136 -0.014,0.296 0.111,0.378 -0.052,0.122 -0.102,0.243 -0.153,0.365 -0.094,-0.058 -0.197,-0.117 -0.252,-0.218 -0.094,-0.147 -0.059,-0.334 -0.013,-0.493 0.057,-0.183 0.15,-0.377 0.331,-0.464 0.194,-0.097 0.467,-0.029 0.561,0.174 0.11,0.238 -0.015,0.504 0.04,0.748 l 0.061,0.029 c 0.179,-0.046 0.173,-0.297 0.031,-0.387 0.048,-0.121 0.097,-0.243 0.148,-0.364 0.12,0.071 0.241,0.172 0.254,0.321 0.016,0.234 -0.069,0.476 -0.213,0.66 -0.147,0.19 -0.48,0.187 -0.601,-0.029 m 29.731,0.864 c -0.078,-0.131 -0.094,-0.299 -0.144,-0.446 0.397,-0.294 0.794,-0.588 1.192,-0.881 0.039,0.141 0.079,0.281 0.119,0.422 -0.067,0.042 -0.134,0.084 -0.201,0.126 0.043,0.154 0.087,0.309 0.13,0.465 0.081,0.005 0.163,0.006 0.243,0.022 0.048,0.137 0.081,0.279 0.121,0.418 -0.487,-0.045 -0.975,-0.071 -1.46,-0.126 m -30.862,0.621 c 0.031,-0.13 0.062,-0.26 0.091,-0.391 0.248,0.056 0.494,0.115 0.742,0.171 -0.207,-0.228 -0.419,-0.452 -0.624,-0.682 0.032,-0.129 0.062,-0.259 0.093,-0.39 0.45,0.105 0.9,0.21 1.35,0.314 -0.029,0.131 -0.06,0.262 -0.089,0.393 -0.25,-0.055 -0.498,-0.115 -0.748,-0.172 0.209,0.228 0.419,0.455 0.628,0.682 -0.03,0.13 -0.06,0.261 -0.091,0.39 -0.45,-0.105 -0.901,-0.209 -1.352,-0.315 M 15.26,13.32 c -0.131,-0.121 -0.172,-0.306 -0.195,-0.475 -0.024,-0.169 -0.005,-0.366 0.132,-0.485 0.129,-0.121 0.35,-0.126 0.477,0.001 0.168,0.149 0.201,0.387 0.339,0.556 0.108,0.096 0.248,-0.048 0.212,-0.166 -0.002,-0.15 -0.149,-0.216 -0.278,-0.23 -0.015,-0.135 -0.03,-0.27 -0.042,-0.406 0.181,0.013 0.393,0.059 0.48,0.238 0.101,0.212 0.156,0.462 0.097,0.694 -0.065,0.257 -0.392,0.416 -0.624,0.27 -0.229,-0.15 -0.246,-0.455 -0.416,-0.651 -0.233,0.029 -0.1,0.374 0.094,0.361 0.016,0.133 0.032,0.267 0.045,0.4 -0.11,-0.023 -0.236,-0.024 -0.321,-0.107 m -31.291,-0.114 c 0.02,-0.141 0.04,-0.283 0.06,-0.425 0.458,0.065 0.915,0.131 1.373,0.196 -0.019,0.141 -0.04,0.282 -0.059,0.423 -0.459,-0.06 -0.916,-0.13 -1.374,-0.194 m 30.371,7.956 c -0.315,-0.082 -0.655,-0.059 -0.953,0.076 -0.016,-0.078 -0.031,-0.156 -0.048,-0.233 0.182,-0.047 0.366,-0.096 0.555,-0.097 0.358,-0.006 0.699,0.117 1.033,0.229 0.053,-0.131 0.105,-0.263 0.158,-0.394 -0.456,-0.18 -0.907,-0.374 -1.369,-0.539 0.028,-0.069 0.055,-0.138 0.083,-0.208 0.448,0.202 0.907,0.376 1.361,0.563 0.041,-0.112 0.082,-0.224 0.124,-0.335 0.061,0.024 0.123,0.05 0.185,0.075 -0.137,0.297 -0.254,0.602 -0.377,0.905 0.157,0.064 0.315,0.127 0.472,0.193 0.143,-0.274 0.278,-0.553 0.422,-0.827 0.056,0.062 0.114,0.124 0.172,0.186 -0.235,0.259 -0.381,0.581 -0.526,0.894 -0.425,-0.177 -0.845,-0.372 -1.292,-0.488 m -28.935,1.373 c -0.115,-0.286 -0.231,-0.571 -0.345,-0.857 -0.171,0.071 -0.343,0.144 -0.513,0.219 -0.031,-0.076 -0.062,-0.152 -0.094,-0.228 0.174,-0.066 0.347,-0.132 0.521,-0.197 -0.11,-0.28 -0.223,-0.558 -0.337,-0.837 0.39,-0.146 0.777,-0.301 1.158,-0.469 0.029,0.071 0.058,0.142 0.087,0.213 -0.062,0.026 -0.123,0.053 -0.185,0.08 0.084,0.207 0.165,0.415 0.254,0.619 0.287,-0.12 0.579,-0.229 0.856,-0.371 0.032,0.079 0.064,0.158 0.097,0.236 -0.294,0.11 -0.586,0.221 -0.874,0.344 0.088,0.211 0.174,0.422 0.256,0.636 0.06,-0.022 0.12,-0.045 0.18,-0.066 0.029,0.071 0.058,0.143 0.087,0.214 -0.387,0.143 -0.77,0.297 -1.148,0.464 m 28.381,-0.413 c -0.23,-0.069 -0.473,-0.078 -0.71,-0.046 -0.01,-0.076 -0.019,-0.152 -0.029,-0.227 0.304,-0.033 0.611,0.003 0.899,0.106 0.081,-0.199 0.161,-0.398 0.242,-0.597 0.259,0.121 0.528,0.22 0.796,0.319 -0.078,0.194 -0.156,0.386 -0.234,0.58 0.131,0.053 0.262,0.106 0.393,0.159 0.121,-0.207 0.242,-0.413 0.35,-0.626 0.052,0.065 0.103,0.129 0.156,0.193 -0.188,0.206 -0.322,0.452 -0.455,0.694 -0.46,-0.207 -0.921,-0.417 -1.408,-0.555 m -0.301,2.246 c 0.041,-0.297 0.07,-0.596 0.061,-0.896 0.083,-0.007 0.165,-0.015 0.248,-0.022 -0.017,0.301 -0.047,0.601 -0.089,0.9 -0.074,0.006 -0.147,0.012 -0.22,0.018 m -1.301,0.502 c 0.142,-0.178 0.278,-0.361 0.409,-0.548 -0.175,-0.057 -0.36,-0.117 -0.545,-0.077 -0.245,0.042 -0.44,0.211 -0.61,0.381 -0.032,-0.097 -0.067,-0.194 -0.105,-0.289 0.194,-0.115 0.384,-0.249 0.608,-0.3 0.265,-0.068 0.54,-0.002 0.785,0.107 0.088,-0.123 0.177,-0.245 0.266,-0.368 -0.174,-0.13 -0.356,-0.25 -0.525,-0.386 -0.08,-0.062 -0.168,-0.169 -0.101,-0.273 0.083,-0.163 0.202,-0.311 0.344,-0.427 0.114,-0.045 0.233,0.031 0.344,0.058 -0.021,0.09 -0.032,0.184 -0.036,0.276 -0.086,-0.037 -0.168,-0.125 -0.268,-0.104 -0.085,0.059 -0.133,0.155 -0.19,0.238 0.212,0.209 0.469,0.365 0.713,0.534 -0.134,0.184 -0.268,0.367 -0.401,0.552 0.097,0.059 0.194,0.116 0.294,0.169 -0.042,0.074 -0.083,0.148 -0.123,0.222 -0.096,-0.077 -0.194,-0.15 -0.292,-0.224 -0.14,0.19 -0.277,0.38 -0.406,0.577 -0.054,-0.039 -0.109,-0.078 -0.161,-0.118 m 0.289,0.375 c -0.021,-0.079 -0.04,-0.158 -0.06,-0.237 0.272,-0.12 0.556,-0.209 0.834,-0.312 0.003,0.082 0.006,0.164 0.009,0.247 -0.278,0.046 -0.541,0.159 -0.783,0.302 m 0.234,0.202 c 0.038,-0.065 0.083,-0.125 0.126,-0.186 0.091,0.066 0.182,0.132 0.274,0.197 0.352,-0.484 0.704,-0.968 1.055,-1.453 -0.075,-0.054 -0.15,-0.108 -0.224,-0.162 0.045,-0.066 0.091,-0.131 0.137,-0.196 0.123,0.091 0.246,0.183 0.374,0.267 -0.228,0.317 -0.462,0.631 -0.687,0.95 0.036,-0.026 0.109,-0.079 0.145,-0.105 0.065,0.092 0.129,0.186 0.194,0.278 -0.061,0.047 -0.122,0.094 -0.183,0.141 -0.065,-0.088 -0.132,-0.176 -0.197,-0.264 -0.198,0.281 -0.405,0.556 -0.604,0.836 -0.134,-0.106 -0.277,-0.197 -0.41,-0.303 M -14.22,24.084 c 0.657,-0.456 1.302,-0.928 1.94,-1.409 0.041,0.056 0.083,0.113 0.123,0.17 -0.044,0.034 -0.089,0.068 -0.133,0.101 0.352,0.483 0.703,0.967 1.054,1.451 0.03,-0.021 0.088,-0.064 0.117,-0.085 0.042,0.057 0.084,0.114 0.126,0.171 -0.649,0.454 -1.293,0.914 -1.922,1.396 -0.436,-0.598 -0.869,-1.197 -1.305,-1.795 m 3.368,2.287 c 0.148,-0.046 0.293,-0.1 0.435,-0.162 0.031,0.075 0.063,0.15 0.096,0.224 -0.149,0.043 -0.297,0.087 -0.445,0.133 -0.029,-0.065 -0.057,-0.13 -0.086,-0.195 m 0.233,0.699 c -0.014,-0.073 -0.027,-0.145 -0.04,-0.218 0.153,-0.016 0.305,-0.044 0.455,-0.082 0.018,0.078 0.036,0.156 0.054,0.234 -0.156,0.022 -0.313,0.046 -0.469,0.066 m -0.957,0.411 c -0.112,-0.319 -0.316,-0.592 -0.518,-0.858 0.07,-0.021 0.14,-0.042 0.21,-0.063 0.075,0.112 0.151,0.224 0.228,0.335 0.106,-0.105 0.207,-0.214 0.309,-0.324 -0.122,-0.11 -0.245,-0.219 -0.369,-0.327 0.05,-0.051 0.1,-0.102 0.15,-0.153 0.109,0.111 0.22,0.221 0.332,0.329 0.14,-0.314 0.23,-0.654 0.204,-1 0.091,-0.01 0.181,-0.02 0.273,-0.032 -0.031,0.254 -0.086,0.504 -0.179,0.742 0.247,-0.272 0.511,-0.529 0.736,-0.821 0.057,0.053 0.114,0.105 0.17,0.158 -0.358,0.358 -0.697,0.734 -1.043,1.105 0.102,0.092 0.204,0.183 0.308,0.273 -0.046,0.05 -0.092,0.1 -0.139,0.15 -0.097,-0.097 -0.197,-0.193 -0.297,-0.287 -0.115,0.123 -0.23,0.246 -0.344,0.369 0.073,0.118 0.151,0.233 0.235,0.343 -0.089,0.019 -0.178,0.039 -0.266,0.061 m 0.511,0.177 c -0.018,-0.069 -0.036,-0.139 -0.055,-0.209 0.159,-0.023 0.316,-0.06 0.47,-0.104 0.024,0.072 0.047,0.145 0.07,0.218 -0.161,0.034 -0.323,0.066 -0.485,0.095 m 22.462,-0.06 c 0.073,-0.062 0.145,-0.124 0.218,-0.187 -0.179,-0.196 -0.359,-0.39 -0.543,-0.581 -0.075,0.076 -0.15,0.152 -0.225,0.228 -0.044,-0.046 -0.088,-0.092 -0.131,-0.138 0.079,-0.069 0.158,-0.138 0.238,-0.207 -0.288,-0.313 -0.699,-0.542 -1.136,-0.476 0.019,-0.083 0.037,-0.166 0.053,-0.25 0.195,0.021 0.392,0.043 0.574,0.119 0.252,0.103 0.457,0.289 0.655,0.471 0.092,-0.086 0.184,-0.172 0.276,-0.257 -0.28,-0.303 -0.559,-0.607 -0.852,-0.899 0.051,-0.048 0.102,-0.096 0.154,-0.144 0.275,0.314 0.56,0.62 0.85,0.92 0.088,-0.087 0.175,-0.176 0.262,-0.265 0.04,0.044 0.081,0.087 0.124,0.129 -0.096,0.082 -0.191,0.165 -0.285,0.249 0.179,0.195 0.36,0.387 0.54,0.581 0.068,-0.068 0.136,-0.137 0.205,-0.206 0.042,0.047 0.085,0.092 0.128,0.139 -0.336,0.292 -0.663,0.595 -0.977,0.912 -0.043,-0.046 -0.086,-0.092 -0.128,-0.138 m -22.271,0.529 c 0.375,-0.378 0.732,-0.774 1.094,-1.165 -0.197,-0.272 -0.392,-0.547 -0.589,-0.82 0.073,-0.029 0.145,-0.057 0.217,-0.086 0.15,0.267 0.328,0.517 0.509,0.763 0.173,-0.18 0.336,-0.37 0.506,-0.553 0.055,0.053 0.111,0.107 0.166,0.16 -0.187,0.188 -0.37,0.377 -0.548,0.571 0.086,0.131 0.176,0.259 0.267,0.387 -0.06,0.04 -0.12,0.081 -0.18,0.122 -0.073,-0.122 -0.148,-0.242 -0.223,-0.363 -0.35,0.381 -0.712,0.75 -1.051,1.141 -0.056,-0.053 -0.113,-0.105 -0.168,-0.157 m 21.441,0.153 c 0.088,-0.076 0.175,-0.152 0.262,-0.229 -0.283,-0.209 -0.624,-0.357 -0.981,-0.339 -0.004,-0.057 -0.011,-0.171 -0.014,-0.228 0.102,0.013 0.205,0.028 0.308,0.042 -0.265,-0.28 -0.526,-0.563 -0.798,-0.836 0.048,-0.046 0.096,-0.091 0.145,-0.137 0.102,0.108 0.204,0.216 0.305,0.325 0.075,-0.069 0.151,-0.139 0.227,-0.209 -0.053,-0.058 -0.105,-0.117 -0.157,-0.175 0.049,-0.046 0.097,-0.091 0.146,-0.136 0.274,0.312 0.553,0.62 0.851,0.911 -0.123,0.119 -0.248,0.236 -0.374,0.352 0.169,0.088 0.335,0.183 0.495,0.286 0.09,-0.084 0.177,-0.17 0.263,-0.258 0.042,0.046 0.084,0.091 0.126,0.136 -0.237,0.198 -0.457,0.414 -0.675,0.632 C 10.652,28.372 10.61,28.326 10.567,28.28 M -1.29,28.673 c -2.068,-0.231 -4.08,-0.95 -5.828,-2.08 -2.536,-1.629 -4.506,-4.121 -5.492,-6.971 -0.718,-2.052 -0.925,-4.278 -0.617,-6.428 0.299,-2.117 1.114,-4.157 2.348,-5.902 0.942,-1.336 2.127,-2.499 3.478,-3.419 0.251,0.129 0.515,0.23 0.779,0.328 0.921,0.335 1.861,0.618 2.808,0.873 1.014,0.268 2.038,0.513 3.084,0.62 1.652,0.09 3.288,0.366 4.912,0.671 2.008,0.402 4.015,0.865 5.924,1.617 0.851,0.356 1.733,0.746 2.357,1.45 C 12.396,9.109 12.149,8.87 11.916,8.655 11.367,8.175 10.748,7.782 10.122,7.411 9.251,6.906 8.356,6.434 7.414,6.073 8.398,5.992 9.361,6.24 10.327,6.376 9.247,5.562 7.99,4.924 6.634,4.767 5.885,4.701 5.131,4.691 4.383,4.614 4.039,4.577 3.689,4.548 3.363,4.424 3.606,4.318 3.873,4.287 4.134,4.252 4.899,4.161 5.668,4.128 6.434,4.055 6.604,4.039 6.775,4.015 6.939,3.963 6.86,3.911 6.771,3.877 6.679,3.858 6.319,3.777 5.954,3.718 5.589,3.661 4.233,3.461 2.87,3.31 1.502,3.218 0.459,3.152 -0.588,3.109 -1.631,3.189 c -0.523,0.037 -1.03,0.18 -1.548,0.251 -0.907,0.139 -1.825,0.182 -2.742,0.213 -0.433,0.019 -0.868,0.028 -1.296,0.098 1.659,-1.094 3.562,-1.815 5.53,-2.095 2.256,-0.322 4.595,-0.077 6.729,0.728 2.838,1.059 5.291,3.1 6.859,5.689 1.073,1.761 1.735,3.768 1.918,5.82 0.202,2.206 -0.137,4.461 -0.996,6.504 -1.211,2.909 -3.468,5.363 -6.263,6.818 -2.392,1.259 -5.166,1.766 -7.85,1.458 m 9.228,0.552 C 7.817,28.982 7.685,28.746 7.544,28.515 7.643,28.458 7.743,28.402 7.842,28.343 7.732,28.26 7.616,28.162 7.471,28.159 7.291,28.155 7.119,28.216 6.949,28.266 V 28.013 C 7.171,27.976 7.4,27.931 7.623,27.98 7.785,28.018 7.906,28.139 8.025,28.246 8.085,28.212 8.146,28.179 8.207,28.145 8.134,28.006 8.043,27.876 7.988,27.728 7.95,27.626 8.039,27.539 8.12,27.494 8.265,27.41 8.408,27.317 8.57,27.266 c 0.118,0.002 0.2,0.109 0.292,0.172 -0.052,0.068 -0.102,0.137 -0.151,0.206 -0.06,-0.047 -0.1,-0.14 -0.182,-0.148 -0.118,0.038 -0.23,0.101 -0.322,0.184 0.024,0.136 0.113,0.248 0.175,0.368 0.123,-0.068 0.247,-0.137 0.371,-0.205 0.124,0.241 0.248,0.482 0.394,0.711 -0.403,0.224 -0.806,0.447 -1.209,0.671 M -8.579,28.616 c 0.033,-0.059 0.067,-0.116 0.1,-0.174 0.307,0.19 0.618,0.372 0.932,0.549 -0.079,-0.12 -0.159,-0.24 -0.24,-0.358 0.044,-0.06 0.086,-0.12 0.129,-0.181 -0.335,-0.194 -0.668,-0.391 -1.011,-0.571 0.033,-0.058 0.066,-0.116 0.1,-0.174 0.327,0.206 0.664,0.395 0.998,0.589 0.068,-0.12 0.149,-0.235 0.197,-0.365 -0.016,-0.121 -0.176,-0.144 -0.259,-0.213 0.068,-0.056 0.135,-0.111 0.203,-0.168 0.103,0.106 0.266,0.18 0.309,0.33 -0.04,0.194 -0.181,0.349 -0.265,0.525 0.301,0.169 0.596,0.348 0.902,0.506 -0.033,0.059 -0.066,0.116 -0.099,0.174 -0.292,-0.186 -0.594,-0.355 -0.893,-0.529 -0.016,0.028 -0.047,0.083 -0.063,0.111 0.108,0.182 0.236,0.35 0.381,0.504 -0.039,0.062 -0.079,0.125 -0.118,0.187 -0.431,-0.255 -0.863,-0.505 -1.303,-0.742 m -0.578,0.738 c 0.124,-0.072 0.244,-0.153 0.358,-0.241 0.05,0.068 0.1,0.136 0.151,0.203 -0.12,0.082 -0.243,0.161 -0.368,0.235 -0.047,-0.065 -0.094,-0.13 -0.141,-0.197 M 8.401,29.562 C 8.404,29.499 8.396,29.438 8.376,29.378 L 8.366,29.343 C 8.24,29.413 8.118,29.491 7.992,29.56 7.972,29.522 7.932,29.446 7.912,29.408 8.419,29.141 8.922,28.867 9.413,28.573 9.441,28.625 9.47,28.677 9.5,28.729 9.326,28.817 9.153,28.906 8.985,29.002 9.058,29.043 9.13,29.083 9.204,29.123 9.15,29.191 9.095,29.259 9.042,29.327 8.964,29.251 8.888,29.175 8.812,29.099 8.7,29.16 8.587,29.218 8.476,29.279 c 10e-4,0.009 0.002,0.028 0.003,0.038 0.034,0.012 0.103,0.036 0.137,0.048 C 8.611,29.433 8.607,29.502 8.602,29.57 8.535,29.567 8.468,29.565 8.401,29.562 m -17,0.228 c 0.102,-0.095 0.202,-0.192 0.299,-0.292 0.057,0.054 0.115,0.109 0.172,0.164 -0.098,0.097 -0.197,0.195 -0.296,0.292 C -8.482,29.899 -8.54,29.845 -8.599,29.79 M 8.279,29.978 C 8.25,29.927 8.222,29.875 8.193,29.824 8.653,29.587 9.105,29.337 9.55,29.073 9.578,29.124 9.606,29.176 9.635,29.227 9.456,29.319 9.278,29.412 9.103,29.511 9.131,29.6 9.16,29.689 9.189,29.779 9.11,29.806 9.031,29.832 8.953,29.859 8.931,29.782 8.91,29.706 8.889,29.629 8.684,29.742 8.478,29.855 8.279,29.978 M 5.713,30.139 C 5.8,29.821 5.876,29.5 5.925,29.174 c 0.081,0.021 0.161,0.042 0.242,0.062 -0.082,0.326 -0.155,0.653 -0.244,0.976 -0.071,-0.024 -0.14,-0.049 -0.21,-0.073 m -13.616,0.116 c 0.017,-0.223 0.036,-0.447 0.042,-0.671 -0.441,-0.254 -0.881,-0.51 -1.323,-0.763 0.091,-0.141 0.173,-0.287 0.25,-0.436 0.068,0.039 0.134,0.077 0.202,0.116 -0.054,0.094 -0.108,0.187 -0.162,0.28 0.549,0.315 1.093,0.637 1.645,0.947 0.051,-0.09 0.101,-0.179 0.153,-0.269 0.067,0.039 0.135,0.077 0.202,0.116 -0.093,0.136 -0.18,0.275 -0.251,0.424 -0.172,-0.102 -0.345,-0.201 -0.519,-0.3 10e-4,0.193 0.019,0.385 0.056,0.574 -0.099,-0.006 -0.197,-0.012 -0.295,-0.018 M 7.824,30.398 C 7.727,30.201 7.622,30.009 7.514,29.818 7.437,29.864 7.359,29.91 7.282,29.956 7.251,29.897 7.219,29.839 7.188,29.78 7.268,29.741 7.348,29.701 7.427,29.661 7.279,29.393 7.131,29.126 6.982,28.858 6.878,28.883 6.775,28.909 6.673,28.938 6.659,28.856 6.645,28.774 6.631,28.692 6.903,28.688 7.17,28.641 7.437,28.597 c 0.021,0.061 0.041,0.122 0.062,0.182 -0.106,0.016 -0.212,0.033 -0.317,0.049 0.136,0.247 0.274,0.493 0.409,0.74 0.07,-0.042 0.139,-0.085 0.21,-0.128 0.032,0.059 0.065,0.117 0.099,0.175 -0.074,0.037 -0.147,0.074 -0.22,0.111 0.105,0.192 0.211,0.384 0.328,0.57 -0.062,0.034 -0.123,0.068 -0.184,0.102 m -12.815,-0.28 c 0.007,-0.045 0.022,-0.134 0.029,-0.178 0.106,0.037 0.212,0.074 0.319,0.111 0.049,-0.171 0.102,-0.348 0.079,-0.528 -0.048,-0.21 -0.24,-0.337 -0.396,-0.467 0.073,-0.039 0.146,-0.08 0.216,-0.124 0.133,0.138 0.283,0.272 0.345,0.459 0.074,0.24 0.01,0.49 -0.053,0.724 0.076,0.024 0.153,0.048 0.23,0.071 0.081,-0.238 0.149,-0.481 0.237,-0.717 0.033,-0.084 0.095,-0.194 0.203,-0.176 0.152,0.019 0.306,0.062 0.437,0.144 0.14,0.075 0.081,0.259 0.087,0.387 -0.08,0.009 -0.16,0.018 -0.239,0.028 0,-0.088 0.046,-0.184 0.006,-0.266 -0.071,-0.061 -0.169,-0.073 -0.252,-0.108 -0.152,0.233 -0.191,0.516 -0.288,0.773 0.141,0.045 0.283,0.086 0.427,0.126 -0.02,0.059 -0.039,0.119 -0.058,0.178 C -4.1,30.394 -4.547,30.26 -4.991,30.118 m -0.006,0.461 c 0.019,-0.055 0.04,-0.111 0.061,-0.166 0.333,0.125 0.671,0.234 1.013,0.33 -0.018,0.056 -0.035,0.112 -0.053,0.167 -0.336,-0.123 -0.676,-0.234 -1.021,-0.331 m -1.217,0.286 c 0.257,-0.734 0.496,-1.473 0.722,-2.217 0.066,0.022 0.133,0.044 0.2,0.066 -0.224,0.69 -0.448,1.379 -0.672,2.068 0.096,0.032 0.192,0.063 0.288,0.094 0.023,-0.23 0.027,-0.461 0.025,-0.692 0.179,-0.132 0.421,-0.264 0.444,-0.511 0.018,-0.119 -0.135,-0.127 -0.21,-0.167 0.043,-0.072 0.085,-0.145 0.127,-0.218 0.15,0.075 0.325,0.191 0.31,0.384 0,0.293 -0.277,0.458 -0.491,0.604 0.005,0.277 -0.002,0.556 0.009,0.833 -0.25,-0.081 -0.501,-0.162 -0.752,-0.244 m 11.35,0.25 C 5.323,31.062 5.509,31.007 5.693,30.947 5.406,30.383 4.955,29.87 4.35,29.645 c 0.053,-0.066 0.106,-0.133 0.158,-0.2 0.314,0.197 0.616,0.417 0.873,0.684 -0.137,-0.403 -0.25,-0.816 -0.415,-1.21 0.073,-0.024 0.146,-0.048 0.22,-0.071 0.143,0.505 0.32,1 0.476,1.502 0.053,0.187 0.154,0.354 0.242,0.525 0.203,-0.06 0.403,-0.131 0.602,-0.205 0.02,0.064 0.041,0.127 0.062,0.191 -0.46,0.132 -0.916,0.278 -1.364,0.445 C 5.181,31.242 5.159,31.179 5.136,31.115 M -4.916,31.45 c 0.061,-0.052 0.121,-0.105 0.182,-0.157 0.009,-0.024 0.027,-0.071 0.036,-0.095 -0.217,-0.058 -0.428,-0.132 -0.64,-0.202 0.044,-0.122 0.084,-0.245 0.12,-0.37 0.066,0.022 0.132,0.043 0.198,0.064 -0.024,0.074 -0.048,0.149 -0.072,0.223 0.347,0.113 0.693,0.225 1.04,0.338 0.025,-0.077 0.05,-0.155 0.076,-0.233 0.066,0.022 0.132,0.043 0.198,0.064 -0.046,0.126 -0.088,0.253 -0.124,0.382 -0.222,-0.074 -0.446,-0.141 -0.665,-0.222 -0.028,0.025 -0.057,0.049 -0.086,0.074 0.032,0.015 0.096,0.048 0.128,0.064 -0.077,0.069 -0.156,0.137 -0.235,0.203 -0.052,-0.044 -0.104,-0.088 -0.156,-0.133 m 9.161,0.165 C 4.224,31.551 4.204,31.488 4.184,31.425 4.305,31.39 4.426,31.356 4.547,31.32 4.494,31.156 4.442,30.993 4.388,30.83 4.28,30.869 4.172,30.908 4.064,30.947 4.041,30.881 4.02,30.815 3.998,30.748 4.11,30.721 4.222,30.693 4.334,30.663 4.266,30.453 4.197,30.244 4.131,30.035 3.969,30.053 3.807,30.072 3.647,30.097 3.648,30.015 3.649,29.933 3.65,29.852 c 0.301,0.015 0.601,-0.005 0.902,-0.026 0.028,0.061 0.055,0.123 0.083,0.184 -0.099,0.003 -0.198,0.008 -0.297,0.013 0.061,0.192 0.124,0.384 0.186,0.575 0.109,-0.039 0.217,-0.078 0.326,-0.117 0.02,0.064 0.04,0.128 0.061,0.191 -0.11,0.032 -0.221,0.064 -0.331,0.096 0.052,0.164 0.105,0.328 0.161,0.49 0.104,-0.038 0.208,-0.077 0.311,-0.116 0.021,0.064 0.041,0.127 0.063,0.19 -0.295,0.08 -0.585,0.175 -0.87,0.283 M 0.748,31.942 C 0.739,31.869 0.73,31.795 0.722,31.721 1.096,31.686 1.468,31.642 1.841,31.595 1.825,31.469 1.81,31.344 1.794,31.218 1.522,31.252 1.249,31.286 0.976,31.318 0.938,30.877 0.883,30.438 0.815,30.001 0.892,29.992 0.969,29.982 1.046,29.974 1.092,30.346 1.137,30.718 1.183,31.091 1.379,31.067 1.574,31.043 1.77,31.019 1.713,30.561 1.662,30.102 1.593,29.646 1.677,29.637 1.761,29.627 1.845,29.617 1.886,30.076 1.947,30.533 2.003,30.99 2.191,30.968 2.379,30.944 2.567,30.921 2.514,30.646 2.537,30.349 2.434,30.087 2.334,30.077 2.235,30.1 2.137,30.114 2.156,30.02 2.174,29.925 2.191,29.83 c 0.128,0.01 0.266,-10e-4 0.382,0.064 0.094,0.057 0.112,0.177 0.127,0.277 0.038,0.307 0.074,0.615 0.123,0.921 -0.265,0.032 -0.53,0.065 -0.796,0.098 0.015,0.125 0.031,0.25 0.046,0.375 0.369,-0.041 0.738,-0.091 1.106,-0.145 0.009,0.073 0.018,0.146 0.028,0.22 -0.822,0.085 -1.642,0.184 -2.459,0.302 m -3.417,0.029 c 0.037,-0.219 0.067,-0.44 0.092,-0.662 -0.097,-0.008 -0.193,-0.016 -0.289,-0.025 0.008,-0.066 0.016,-0.132 0.024,-0.198 0.095,0.015 0.191,0.03 0.286,0.046 0.037,-0.292 0.073,-0.585 0.109,-0.878 -0.104,-0.039 -0.208,-0.076 -0.313,-0.111 0.04,-0.073 0.079,-0.148 0.118,-0.221 0.204,0.131 0.425,0.232 0.644,0.335 -0.004,0.049 -0.01,0.148 -0.013,0.197 -0.082,-0.036 -0.163,-0.073 -0.245,-0.109 -0.034,0.271 -0.069,0.542 -0.098,0.814 0.084,0.005 0.168,0.011 0.253,0.016 -0.008,0.066 -0.016,0.133 -0.023,0.199 -0.085,-0.013 -0.17,-0.026 -0.255,-0.04 -0.027,0.222 -0.053,0.443 -0.072,0.666 -0.054,-0.007 -0.163,-0.021 -0.218,-0.029 m 4.484,0.188 c 0.043,-0.11 0.078,-0.223 0.108,-0.338 0.076,0.026 0.153,0.051 0.229,0.076 C 2.12,32.006 2.082,32.114 2.04,32.22 1.965,32.2 1.89,32.179 1.815,32.159 m -2.734,-0.041 c 0.061,-0.08 0.123,-0.161 0.183,-0.242 0.062,0.042 0.125,0.084 0.187,0.125 -0.06,0.077 -0.122,0.153 -0.183,0.229 -0.062,-0.037 -0.125,-0.075 -0.187,-0.112 m -0.421,0.103 c 0.03,-0.159 0.057,-0.32 0.082,-0.481 -0.259,-0.032 -0.517,-0.064 -0.775,-0.095 0.054,-0.372 0.118,-0.745 0.117,-1.121 -0.005,-0.296 -0.134,-0.573 -0.315,-0.801 0.08,-0.034 0.158,-0.069 0.237,-0.103 0.247,0.399 0.342,0.88 0.259,1.343 0.091,0.011 0.183,0.022 0.275,0.033 0.02,-0.194 0.058,-0.386 0.063,-0.581 -0.004,-0.119 -0.16,-0.094 -0.239,-0.131 0.037,-0.077 0.072,-0.154 0.107,-0.232 0.12,0.065 0.314,0.099 0.328,0.264 -10e-4,0.296 -0.07,0.586 -0.082,0.881 -0.159,-0.019 -0.317,-0.038 -0.476,-0.058 -0.014,0.119 -0.029,0.237 -0.042,0.355 0.19,0.024 0.381,0.047 0.572,0.071 0.083,-0.423 0.152,-0.857 0.357,-1.243 -0.123,-0.197 -0.292,-0.357 -0.48,-0.492 0.064,-0.048 0.127,-0.095 0.191,-0.143 0.153,0.143 0.303,0.289 0.424,0.46 0.124,-0.135 0.245,-0.31 0.442,-0.334 0.156,0.073 0.141,0.284 0.188,0.425 -0.071,0.036 -0.142,0.072 -0.212,0.111 -0.015,-0.089 -0.03,-0.179 -0.059,-0.264 -0.091,0.071 -0.173,0.152 -0.249,0.239 0.116,0.326 0.119,0.675 0.186,1.011 -0.082,0.015 -0.164,0.03 -0.246,0.046 -0.004,-0.28 -0.01,-0.562 -0.072,-0.836 -0.145,0.331 -0.219,0.688 -0.269,1.045 0.207,0.024 0.414,0.044 0.622,0.064 -0.006,0.05 -0.018,0.15 -0.024,0.2 -0.211,-0.032 -0.422,-0.065 -0.633,-0.089 -0.019,0.155 -0.032,0.311 -0.037,0.466 -0.08,-0.003 -0.16,-0.007 -0.24,-0.01 m 0.175,1.096 c 3.107,0.242 6.277,-0.318 9.102,-1.639 3.169,-1.47 5.894,-3.875 7.753,-6.832 1.026,-1.626 1.791,-3.416 2.256,-5.282 0.605,-2.423 0.702,-4.97 0.293,-7.434 C 17.642,8.481 15.884,5.038 13.295,2.399 10.689,-0.279 7.242,-2.127 3.564,-2.793 c -2.49,-0.456 -5.076,-0.392 -7.539,0.194 -3.458,0.815 -6.654,2.682 -9.078,5.278 -1.228,1.31 -2.262,2.802 -3.055,4.413 -1.054,2.133 -1.678,4.477 -1.83,6.852 -0.15,2.3 0.134,4.63 0.847,6.824 0.683,2.111 1.761,4.093 3.156,5.818 1.643,2.038 3.73,3.718 6.075,4.883 2.085,1.041 4.372,1.67 6.695,1.848"
       style="fill:#2f6b39;fill-opacity:1;fill-rule:nonzero;stroke:none"
       transform="matrix(0.35277776,0,0,-0.35277776,112.39422,208.73659)"
       clip-path="url(#clipPath3630)" />
    <path
       id="path3631"
       d="M 0,0 C 0.287,-0.158 0.572,-0.318 0.859,-0.475 0.83,-0.528 0.801,-0.58 0.773,-0.632 0.486,-0.473 0.2,-0.315 -0.086,-0.156 -0.058,-0.104 -0.029,-0.052 0,0"
       style="fill:#2f6b39;fill-opacity:1;fill-rule:nonzero;stroke:none"
       transform="matrix(0.35277776,0,0,-0.35277776,115.22953,198.50923)"
       clip-path="url(#clipPath3632)" />
    <path
       id="path3633"
       d="M 0,0 C 0.286,-0.159 0.571,-0.317 0.858,-0.476 0.83,-0.524 0.803,-0.573 0.777,-0.622 0.49,-0.463 0.202,-0.305 -0.083,-0.144 -0.063,-0.108 -0.021,-0.036 0,0"
       style="fill:#2f6b39;fill-opacity:1;fill-rule:nonzero;stroke:none"
       transform="matrix(0.35277776,0,0,-0.35277776,115.1728,198.6125)"
       clip-path="url(#clipPath3634)" />
    <path
       id="path3635"
       d="M 0,0 C 0.156,0.163 0.309,0.33 0.464,0.494 0.54,0.423 0.616,0.352 0.692,0.281 0.537,0.115 0.382,-0.053 0.225,-0.218 0.149,-0.145 0.074,-0.073 0,0"
       style="fill:#2f6b39;fill-opacity:1;fill-rule:nonzero;stroke:none"
       transform="matrix(0.35277776,0,0,-0.35277776,115.88997,199.2099)"
       clip-path="url(#clipPath3636)" />
    <path
       id="path3637"
       d="M 0,0 C 0.181,0.191 0.359,0.384 0.539,0.576 0.632,0.49 0.724,0.404 0.816,0.318 0.637,0.124 0.456,-0.068 0.277,-0.262 0.183,-0.176 0.091,-0.089 0,0"
       style="fill:#2f6b39;fill-opacity:1;fill-rule:nonzero;stroke:none"
       transform="matrix(0.35277776,0,0,-0.35277776,116.35041,199.3165)"
       clip-path="url(#clipPath3638)" />
    <path
       id="path3639"
       d="m 0,0 c -0.003,-0.067 -0.006,-0.134 -0.009,-0.202 0.097,0.007 0.194,0.015 0.292,0.022 0.005,0.069 0.011,0.139 0.016,0.207 C 0.2,0.019 0.1,0.009 0,0 m -0.446,0.694 c -0.246,-0.366 -0.505,-0.725 -0.779,-1.073 0.048,-0.035 0.096,-0.07 0.144,-0.105 0.097,0.145 0.196,0.289 0.298,0.431 0.097,-0.07 0.194,-0.141 0.291,-0.211 -0.098,-0.132 -0.198,-0.261 -0.298,-0.39 0.035,-0.026 0.107,-0.078 0.143,-0.105 0.091,0.136 0.184,0.271 0.279,0.405 0.132,-0.097 0.265,-0.193 0.398,-0.289 -0.115,-0.16 -0.235,-0.317 -0.356,-0.473 0.048,-0.034 0.096,-0.069 0.144,-0.104 0.27,0.403 0.56,0.791 0.852,1.178 C 0.621,-0.009 0.573,0.023 0.525,0.056 0.403,-0.125 0.278,-0.304 0.15,-0.48 c -0.134,0.095 -0.266,0.191 -0.399,0.287 0.105,0.148 0.217,0.292 0.329,0.434 -0.048,0.036 -0.095,0.072 -0.143,0.107 -0.102,-0.151 -0.205,-0.302 -0.312,-0.45 -0.096,0.071 -0.193,0.141 -0.29,0.211 0.117,0.163 0.239,0.323 0.363,0.48 C -0.35,0.625 -0.398,0.66 -0.446,0.694 M -0.552,1.045 C -0.031,0.672 0.484,0.293 1.003,-0.082 0.65,-0.566 0.301,-1.054 -0.056,-1.535 c -0.514,0.378 -1.031,0.752 -1.548,1.126 0.348,0.486 0.704,0.967 1.052,1.454"
       style="fill:#2f6b39;fill-opacity:1;fill-rule:nonzero;stroke:none"
       transform="matrix(0.35277776,0,0,-0.35277776,108.03223,200.06858)"
       clip-path="url(#clipPath3640)" />
    <path
       id="path3641"
       d="M 0,0 C 0.085,0.21 0.17,0.42 0.253,0.63 0.468,0.546 0.681,0.458 0.895,0.372 0.812,0.161 0.726,-0.049 0.641,-0.259 0.427,-0.173 0.214,-0.087 0,0"
       style="fill:#2f6b39;fill-opacity:1;fill-rule:nonzero;stroke:none"
       transform="matrix(0.35277776,0,0,-0.35277776,107.18161,201.11273)"
       clip-path="url(#clipPath3642)" />
    <path
       id="path3643"
       d="M 0,0 C 0.155,0.063 0.31,0.125 0.466,0.188 0.517,0.06 0.568,-0.067 0.62,-0.195 0.464,-0.257 0.31,-0.32 0.155,-0.383 0.103,-0.255 0.051,-0.127 0,0"
       style="fill:#2f6b39;fill-opacity:1;fill-rule:nonzero;stroke:none"
       transform="matrix(0.35277776,0,0,-0.35277776,117.37541,200.97473)"
       clip-path="url(#clipPath3644)" />
    <path
       id="path3645"
       d="m 0,0 c 2.578,0.003 5.157,0.006 7.736,0.01 0.021,-2.603 0.041,-5.206 0.063,-7.809 0.002,-0.498 0.186,-0.997 0.528,-1.362 0.519,-0.568 1.303,-0.821 2.057,-0.844 0.684,-0.019 1.409,0.107 1.967,0.528 0.4,0.295 0.664,0.775 0.661,1.276 0.026,2.745 0.05,5.491 0.073,8.237 2.827,-0.007 5.653,-0.018 8.48,-0.027 -0.003,-0.515 -0.002,-1.03 -0.007,-1.545 -0.793,0.002 -1.585,0.001 -2.377,0.002 -0.005,-1.19 -0.01,-2.38 -0.014,-3.57 0.52,-0.002 1.04,-0.005 1.56,-0.008 -0.001,-0.553 -0.001,-1.106 -0.001,-1.659 -0.517,0 -1.035,0.003 -1.553,0.001 0.003,-1.131 0.002,-2.261 0.004,-3.392 0.828,0.003 1.655,0.006 2.483,0.01 0,-0.518 0.001,-1.036 0,-1.554 -1.556,0 -3.113,-0.001 -4.669,-0.001 0.012,3.388 0.023,6.776 0.036,10.163 -0.461,0.002 -0.922,0.004 -1.382,0 -0.017,-2.33 -0.031,-4.66 -0.053,-6.99 -0.08,-0.781 -0.45,-1.522 -0.991,-2.087 -0.657,-0.689 -1.562,-1.091 -2.485,-1.275 -0.946,-0.186 -1.923,-0.201 -2.878,-0.081 -1.128,0.148 -2.267,0.577 -3.055,1.425 -0.383,0.423 -0.71,0.935 -0.794,1.508 -0.035,2.511 -0.055,5.022 -0.085,7.533 H 3.837 C 3.834,-4.395 3.832,-7.279 3.83,-10.163 c 0.342,0.002 0.684,0.002 1.026,0.004 0,-0.516 0.001,-1.033 -10e-4,-1.55 -1.615,0.002 -3.23,-0.001 -4.846,0 0.006,0.517 0.006,1.033 0.016,1.549 0.51,-0.004 1.02,-0.002 1.53,-0.006 C 1.55,-7.289 1.54,-4.412 1.533,-1.535 1.023,-1.538 0.513,-1.54 0.003,-1.544 0.001,-1.029 0.001,-0.515 0,0"
       style="fill:#2f6b39;fill-opacity:1;fill-rule:nonzero;stroke:none"
       transform="matrix(0.35277776,0,0,-0.35277776,108.66353,200.94295)"
       clip-path="url(#clipPath3646)" />
    <path
       id="path3647"
       d="M 0,0 C 0.078,0.21 0.164,0.417 0.249,0.625 0.462,0.538 0.676,0.452 0.89,0.365 0.806,0.159 0.722,-0.048 0.64,-0.255 0.426,-0.17 0.215,-0.081 0,0"
       style="fill:#2f6b39;fill-opacity:1;fill-rule:nonzero;stroke:none"
       transform="matrix(0.35277776,0,0,-0.35277776,107.06445,201.40618)"
       clip-path="url(#clipPath3648)" />
    <path
       id="path3649"
       d="M 0,0 C 0.174,0.003 0.347,0.007 0.522,0.01 0.493,-0.087 0.466,-0.186 0.439,-0.284 0.292,-0.19 0.145,-0.095 0,0"
       style="fill:#2f6b39;fill-opacity:1;fill-rule:nonzero;stroke:none"
       transform="matrix(0.35277776,0,0,-0.35277776,117.74911,204.72017)"
       clip-path="url(#clipPath3650)" />
    <path
       id="path3651"
       d="M 0,0 C 2.627,1.702 5.578,2.87 8.616,3.594 8.092,3.115 7.516,2.696 6.98,2.232 6.849,2.113 6.703,1.991 6.659,1.81 7.001,1.776 7.337,1.858 7.673,1.905 8.751,2.095 9.824,2.316 10.904,2.496 11.26,2.55 11.616,2.614 11.976,2.627 11.635,2.338 11.197,2.213 10.795,2.036 10.674,1.98 10.542,1.93 10.45,1.829 c -0.072,-0.069 -0.004,-0.18 0.079,-0.2 0.234,-0.067 0.483,-0.045 0.724,-0.032 0.774,0.062 1.537,0.226 2.285,0.431 1.171,0.328 2.315,0.786 3.332,1.46 C 16.269,2.809 15.422,2.423 14.602,2.079 12.804,1.367 10.906,0.949 9.01,0.595 7.672,0.357 6.326,0.166 4.973,0.042 2.587,-0.169 0.235,-0.717 -2.016,-1.532 -1.395,-0.958 -0.704,-0.466 0,0"
       style="fill:#2f6b39;fill-opacity:1;fill-rule:nonzero;stroke:none"
       transform="matrix(0.35277776,0,0,-0.35277776,110.78062,206.60897)"
       clip-path="url(#clipPath3652)" />
    <path
       id="path3653"
       d="M 0,0 C 0.193,0.104 0.455,-0.111 0.383,-0.322 0.335,-0.47 0.236,-0.606 0.107,-0.696 -0.089,-0.822 -0.374,-0.589 -0.288,-0.372 -0.234,-0.223 -0.138,-0.081 0,0"
       style="fill:#2f6b39;fill-opacity:1;fill-rule:nonzero;stroke:none"
       transform="matrix(0.35277776,0,0,-0.35277776,109.33116,207.88403)"
       clip-path="url(#clipPath3654)" />
    <path
       id="path3655"
       d="M 0,0 C 0.251,0.099 0.435,-0.182 0.508,-0.384 0.588,-0.603 0.299,-0.821 0.107,-0.696 -0.021,-0.61 -0.116,-0.475 -0.165,-0.33 -0.214,-0.196 -0.126,-0.05 0,0"
       style="fill:#2f6b39;fill-opacity:1;fill-rule:nonzero;stroke:none"
       transform="matrix(0.35277776,0,0,-0.35277776,115.52823,207.89861)"
       clip-path="url(#clipPath3656)" />
    <path
       id="path3657"
       d="M 0,0 C 0.091,0.048 0.179,0.105 0.279,0.133 0.389,0.164 0.481,-0.004 0.393,-0.08 0.32,-0.152 0.227,-0.198 0.139,-0.251 0.093,-0.167 0.046,-0.084 0,0"
       style="fill:#2f6b39;fill-opacity:1;fill-rule:nonzero;stroke:none"
       transform="matrix(0.35277776,0,0,-0.35277776,115.00492,208.20505)"
       clip-path="url(#clipPath3658)" />
    <path
       id="path3659"
       d="M 0,0 C 0.118,-0.047 0.31,-0.033 0.354,-0.182 0.341,-0.413 0.071,-0.305 -0.07,-0.277 -0.046,-0.185 -0.023,-0.092 0,0"
       style="fill:#2f6b39;fill-opacity:1;fill-rule:nonzero;stroke:none"
       transform="matrix(0.35277776,0,0,-0.35277776,110.9599,208.61563)"
       clip-path="url(#clipPath3660)" />
    <path
       id="path3661"
       d="M 0,0 C 0.013,0.09 0.027,0.178 0.041,0.267 0.144,0.245 0.255,0.243 0.348,0.191 0.413,0.129 0.385,0.006 0.302,-0.026 0.201,-0.03 0.1,-0.011 0,0"
       style="fill:#2f6b39;fill-opacity:1;fill-rule:nonzero;stroke:none"
       transform="matrix(0.35277776,0,0,-0.35277776,111.4644,208.83862)"
       clip-path="url(#clipPath3662)" />
    <path
       id="path3663"
       d="M 0,0 C 0.046,-0.166 0.088,-0.334 0.129,-0.502 0.028,-0.496 -0.074,-0.491 -0.176,-0.486 -0.117,-0.324 -0.059,-0.162 0,0"
       style="fill:#2f6b39;fill-opacity:1;fill-rule:nonzero;stroke:none"
       transform="matrix(0.35277776,0,0,-0.35277776,112.05831,208.85005)"
       clip-path="url(#clipPath3664)" />
    <path
       id="path3665"
       d="M 0,0 C 0.108,-0.019 0.219,-0.03 0.323,-0.069 0.434,-0.109 0.409,-0.296 0.295,-0.314 0.18,-0.325 0.067,-0.295 -0.045,-0.281 -0.03,-0.187 -0.015,-0.094 0,0"
       style="fill:#2f6b39;fill-opacity:1;fill-rule:nonzero;stroke:none"
       transform="matrix(0.35277776,0,0,-0.35277776,111.45037,208.92836)"
       clip-path="url(#clipPath3666)" />
  </g>
</svg>
