<?xml version="1.0" encoding="utf-8"?>
<!-- Generator: Adobe Illustrator 28.0.0, SVG Export Plug-In . SVG Version: 6.00 Build 0)  -->
<svg version="1.1" id="svg1" xmlns:svg="http://www.w3.org/2000/svg"
	 xmlns="http://www.w3.org/2000/svg" xmlns:xlink="http://www.w3.org/1999/xlink" x="0px" y="0px" viewBox="0 0 34 34"
	 style="enable-background:new 0 0 34 34;" xml:space="preserve">
<style type="text/css">
	.st0{clip-path:url(#SVGID_00000122681300801295617490000016738883615713959572_);fill:#F25726;}
</style>
<g id="layer1" transform="translate(-59.3853,-88.904115)">
	<g>
		<defs>
			<rect id="SVGID_1_" x="-127.8" y="-359.8" width="1207.6" height="858.9"/>
		</defs>
		<clipPath id="SVGID_00000023988507947298057370000003997929611138995628_">
			<use xlink:href="#SVGID_1_"  style="overflow:visible;"/>
		</clipPath>
		<path id="path900" style="clip-path:url(#SVGID_00000023988507947298057370000003997929611138995628_);fill:#F25726;" d="
			M86.5,112.2c0,0.1-0.1,0.2-0.2,0.2h-2.8c-0.1,0-0.2-0.1-0.2-0.2V99.6c0-0.1,0.1-0.2,0.2-0.2h2.8c0.1,0,0.2,0.1,0.2,0.2V112.2z
			 M80.8,112.2c0,0.1-0.1,0.2-0.2,0.2h-2.8c-0.1,0-0.2-0.1-0.2-0.2v0v-6.5c0-1.1-0.1-2.3-0.7-2.9c-0.5-0.5-1.5-0.6-2.4-0.7h-5
			c-0.1,0-0.2,0.1-0.2,0.2v9.2v0.7c0,0.1-0.1,0.2-0.2,0.2h-2.8c-0.1,0-0.2-0.1-0.2-0.2V99.6c0-0.1,0.1-0.2,0.2-0.2h8
			c2.1,0,4.3,0.1,5.3,1.2c1.1,1.1,1.2,3.3,1.2,5.3L80.8,112.2z M75.1,112.2c0,0.1-0.1,0.2-0.2,0.2H72c-0.1,0-0.2-0.1-0.2-0.2v-7.6
			c0-0.1,0.1-0.2,0.2-0.2h2.9c0.1,0,0.2,0.1,0.2,0.2V112.2z M89.9,92.5c-3.2-3.2-7.8-3.6-13.5-3.6c-5.6,0-10.3,0.4-13.5,3.6
			c-3.2,3.2-3.5,7.8-3.5,13.5c0,5.6,0.3,10.3,3.5,13.5c3.2,3.2,7.8,3.5,13.5,3.5c5.6,0,10.3-0.3,13.5-3.5s3.5-7.8,3.5-13.5
			C93.4,100.3,93.1,95.7,89.9,92.5"/>
	</g>
</g>
</svg>
