<?xml version="1.0" encoding="UTF-8" standalone="no"?>
<!-- Created with Inkscape (http://www.inkscape.org/) -->

<svg
   version="1.1"
   id="svg1"
   width="155.20633"
   height="26.834045"
   viewBox="0 0 155.20633 26.834044"
   xmlns="http://www.w3.org/2000/svg"
   xmlns:svg="http://www.w3.org/2000/svg">
  <defs
     id="defs1">
    <clipPath
       clipPathUnits="userSpaceOnUse"
       id="clipPath869">
      <path
         d="M 0,858.898 H 1207.558 V 0 H 0 Z"
         transform="translate(-323.41071,-438.25101)"
         id="path869" />
    </clipPath>
    <clipPath
       clipPathUnits="userSpaceOnUse"
       id="clipPath871">
      <path
         d="M 0,858.898 H 1207.558 V 0 H 0 Z"
         transform="translate(-386.06971,-435.56681)"
         id="path871" />
    </clipPath>
    <clipPath
       clipPathUnits="userSpaceOnUse"
       id="clipPath873">
      <path
         d="M 0,858.898 H 1207.558 V 0 H 0 Z"
         transform="translate(-430.33851,-435.56681)"
         id="path873" />
    </clipPath>
    <clipPath
       clipPathUnits="userSpaceOnUse"
       id="clipPath875">
      <path
         d="M 0,858.898 H 1207.558 V 0 H 0 Z"
         transform="translate(-421.44521,-433.31851)"
         id="path875" />
    </clipPath>
    <clipPath
       clipPathUnits="userSpaceOnUse"
       id="clipPath877">
      <path
         d="M 0,858.898 H 1207.558 V 0 H 0 Z"
         transform="translate(2.5000001e-7,-3.5000001e-5)"
         id="path877" />
    </clipPath>
    <clipPath
       clipPathUnits="userSpaceOnUse"
       id="clipPath879">
      <path
         d="M 0,858.898 H 1207.558 V 0 H 0 Z"
         transform="translate(2.5000001e-7,-3.5000001e-5)"
         id="path879" />
    </clipPath>
    <clipPath
       clipPathUnits="userSpaceOnUse"
       id="clipPath881">
      <path
         d="M 0,858.898 H 1207.558 V 0 H 0 Z"
         transform="translate(-403.94381,-436.34471)"
         id="path881" />
    </clipPath>
    <clipPath
       clipPathUnits="userSpaceOnUse"
       id="clipPath883">
      <path
         d="M 0,858.898 H 1207.558 V 0 H 0 Z"
         transform="translate(2.5000001e-7,-3.5000001e-5)"
         id="path883" />
    </clipPath>
    <clipPath
       clipPathUnits="userSpaceOnUse"
       id="clipPath885">
      <path
         d="M 0,858.898 H 1207.558 V 0 H 0 Z"
         transform="translate(-364.03401,-440.88921)"
         id="path885" />
    </clipPath>
    <clipPath
       clipPathUnits="userSpaceOnUse"
       id="clipPath887">
      <path
         d="M 0,858.898 H 1207.558 V 0 H 0 Z"
         transform="translate(-370.64871,-435.27771)"
         id="path887" />
    </clipPath>
  </defs>
  <g
     id="layer-MC4"
     transform="translate(-414.87703,-532.47067)">
    <path
       id="path868"
       d="m 0,0 c -0.272,0.201 -1.021,0.779 -1.021,1.61 0,0.27 0.082,0.553 0.241,0.844 1.589,2.897 10.91,6.614 24.437,6.948 0.011,0 0.027,0.001 0.045,0.001 l 2.515,3.222 c 0.053,0.068 0.001,0.168 -0.085,0.165 C 4.768,12.092 -3.536,5.824 -3.745,3.06 c -0.11,-1.45 2.11,-2.732 3.729,-3.454 0.093,-1.428 2.468,-2.794 3.679,-3.279 0.145,-1.388 2.636,-3.04 5.551,-3.659 0.13,-0.028 0.195,0.122 0.075,0.175 -2.149,0.958 -2.816,1.904 -2.677,2.744 0.121,0.73 0.902,1.473 2.372,2.079 2.493,1.027 5.885,1.434 8.826,1.639 l 2.327,2.982 c 0.052,0.066 0.001,0.164 -0.083,0.16 C 10.12,2.037 4.392,-0.52 3.714,-3.025 3.694,-3.099 3.678,-3.173 3.667,-3.247 3.103,-2.882 2.641,-2.34 2.632,-1.733 c -0.004,0.235 0.049,0.426 0.166,0.658 1.048,2.084 6.836,5.008 17.846,5.286 l 2.405,3.081 C 23.102,7.359 23.052,7.458 22.967,7.457 9.319,7.3 0.478,3.26 0,0"
       style="fill:#28375f;fill-opacity:1;fill-rule:nonzero;stroke:none"
       transform="matrix(1.3333333,0,0,-1.3333333,419.87568,549.52408)"
       clip-path="url(#clipPath869)" />
    <path
       id="path870"
       d="m 0,0 c -1.712,0 -3.104,1.393 -3.104,3.104 0,1.712 1.392,3.105 3.104,3.105 1.712,0 3.104,-1.393 3.104,-3.105 C 3.104,1.393 1.712,0 0,0 M 3.264,7.342 C 2.36,8.04 1.228,8.457 0,8.457 c -2.951,0 -5.353,-2.401 -5.353,-5.353 0,-2.951 2.402,-5.352 5.353,-5.352 1.228,0 2.36,0.416 3.264,1.115 V -2.205 H 5.728 V 11.583 H 3.264 Z"
       style="fill:#27345a;fill-opacity:1;fill-rule:nonzero;stroke:none"
       transform="matrix(1.3333333,0,0,-1.3333333,503.42101,553.10301)"
       clip-path="url(#clipPath871)" />
    <path
       id="path872"
       d="m 0,0 c -1.712,0 -3.104,1.393 -3.104,3.104 0,1.712 1.392,3.105 3.104,3.105 1.712,0 3.104,-1.393 3.104,-3.105 C 3.104,1.393 1.712,0 0,0 M 3.264,7.342 C 2.36,8.04 1.228,8.457 0,8.457 c -2.951,0 -5.353,-2.401 -5.353,-5.353 0,-2.951 2.402,-5.352 5.353,-5.352 1.228,0 2.36,0.416 3.264,1.115 V -2.205 H 5.728 V 11.583 H 3.264 Z"
       style="fill:#27345a;fill-opacity:1;fill-rule:nonzero;stroke:none"
       transform="matrix(1.3333333,0,0,-1.3333333,562.44608,553.10301)"
       clip-path="url(#clipPath873)" />
    <path
       id="path874"
       d="M 0,0 H 2.465 L 2.455,6.116 C 2.447,7.073 2.172,7.958 1.643,8.767 0.466,10.567 -2.992,11.041 -4.693,9.03 -4.768,8.941 -4.847,8.857 -4.972,8.717 v 1.398 H -7.44 V 0.003 h 2.495 c 0,0.114 -10e-4,0.21 0,0.306 0,1.522 -0.003,3.044 0.003,4.567 0.001,0.317 0.018,0.637 0.061,0.952 0.1,0.739 0.464,1.569 1.107,2 1.347,0.903 3.444,0.28 3.717,-1.31 0.093,-0.545 0.049,-1.395 0.051,-1.729 z"
       style="fill:#27345a;fill-opacity:1;fill-rule:nonzero;stroke:none"
       transform="matrix(1.3333333,0,0,-1.3333333,550.58835,556.10075)"
       clip-path="url(#clipPath875)" />
    <path
       id="path876"
       d="m 377.197,433.318 h 2.469 v 13.831 h -2.469 z"
       style="fill:#27345a;fill-opacity:1;fill-rule:nonzero;stroke:none"
       transform="matrix(1.3333333,0,0,-1.3333333,-11.338587,1133.8587)"
       clip-path="url(#clipPath877)" />
    <path
       id="path878"
       d="m 409.695,433.318 h 2.469 v 10.115 h -2.469 z"
       style="fill:#27345a;fill-opacity:1;fill-rule:nonzero;stroke:none"
       transform="matrix(1.3333333,0,0,-1.3333333,-11.338587,1133.8587)"
       clip-path="url(#clipPath879)" />
    <path
       id="path880"
       d="M 0,0 -2.027,7.032 H -4.615 L -6.607,0 -8.643,7.032 h -2.544 L -7.976,-3.026 H -5.3 l 1.922,6.88 2,-6.88 H 1.421 L 4.536,7.032 h -2.5 z"
       style="fill:#27345a;fill-opacity:1;fill-rule:nonzero;stroke:none"
       transform="matrix(1.3333333,0,0,-1.3333333,527.25315,552.06581)"
       clip-path="url(#clipPath881)" />
    <path
       id="path882"
       d="m 409.695,444.681 h 2.469 v 2.469 h -2.469 z"
       style="fill:#27345a;fill-opacity:1;fill-rule:nonzero;stroke:none"
       transform="matrix(1.3333333,0,0,-1.3333333,-11.338587,1133.8587)"
       clip-path="url(#clipPath883)" />
    <path
       id="path884"
       d="m 0,0 -8.111,-0.028 v -2.133 h 5.607 c -0.611,-1.933 -2.434,-3.275 -4.466,-3.275 -2.583,0 -4.684,2.101 -4.684,4.683 0,2.583 2.101,4.684 4.684,4.684 1.567,0 2.983,-0.79 3.837,-2.009 h 2.65 c -1.05,2.573 -3.561,4.338 -6.487,4.338 -3.867,0 -7.013,-3.146 -7.013,-7.013 0,-3.867 3.146,-7.013 7.013,-7.013 3.867,0 7.013,3.146 7.013,7.013 0,0.158 -0.007,0.324 -0.021,0.522 z"
       style="fill:#27345a;fill-opacity:1;fill-rule:nonzero;stroke:none"
       transform="matrix(1.3333333,0,0,-1.3333333,474.04008,546.00648)"
       clip-path="url(#clipPath885)" />
    <path
       id="path886"
       d="m 0,0 c -1.833,0 -3.325,1.491 -3.325,3.325 0,1.833 1.492,3.324 3.325,3.324 1.833,0 3.325,-1.491 3.325,-3.324 C 3.325,1.491 1.833,0 0,0 m 0,8.813 c -3.026,0 -5.488,-2.462 -5.488,-5.488 0,-3.026 2.462,-5.488 5.488,-5.488 3.026,0 5.488,2.462 5.488,5.488 0,3.026 -2.462,5.488 -5.488,5.488"
       style="fill:#27345a;fill-opacity:1;fill-rule:nonzero;stroke:none"
       transform="matrix(1.3333333,0,0,-1.3333333,482.85968,553.48848)"
       clip-path="url(#clipPath887)" />
  </g>
</svg>
