<?xml version="1.0" encoding="utf-8"?>
<!-- Generator: Adobe Illustrator 28.0.0, SVG Export Plug-In . SVG Version: 6.00 Build 0)  -->
<svg version="1.1" id="svg1" xmlns:svg="http://www.w3.org/2000/svg"
	 xmlns="http://www.w3.org/2000/svg" xmlns:xlink="http://www.w3.org/1999/xlink" x="0px" y="0px" viewBox="0 0 161.7 23.3"
	 style="enable-background:new 0 0 161.7 23.3;" xml:space="preserve">
<style type="text/css">
	.st0{clip-path:url(#SVGID_00000176729415780825742140000005862778150059933347_);fill:#3B8B42;}
	.st1{clip-path:url(#SVGID_00000137117925797823106270000000147373269444191393_);fill:#B8B9B8;}
	.st2{clip-path:url(#SVGID_00000131358712954885808730000015069517339372019629_);fill:#3B8B42;}
	.st3{clip-path:url(#SVGID_00000057844678581230117030000015549842931001402780_);fill:#3B8B42;}
	.st4{clip-path:url(#SVGID_00000114035415612380961490000001938810931231131036_);fill:#3B8B42;}
	.st5{clip-path:url(#SVGID_00000152976528446380239920000000482159565116701344_);fill:#3B8B42;}
	.st6{clip-path:url(#SVGID_00000142145225089229948130000016829361440938944423_);fill:#3B8B42;}
	.st7{clip-path:url(#SVGID_00000104666617147407979540000010109174603894093745_);fill:#3B8B42;}
	.st8{clip-path:url(#SVGID_00000054249642043645771170000014552950917230460078_);fill:#2E396F;}
	.st9{clip-path:url(#SVGID_00000085973368431172110290000007159702283659427770_);fill:#2E396F;}
	.st10{clip-path:url(#SVGID_00000031907241105112040190000017240182363273650363_);fill:#2E396F;}
	.st11{clip-path:url(#SVGID_00000137112020128014104810000010174798757508833718_);fill:#2E396F;}
	.st12{clip-path:url(#SVGID_00000027602934048875742710000017628737836281322422_);fill:#2E396F;}
	.st13{clip-path:url(#SVGID_00000160909469045561465640000017180402655536028068_);fill:#2E396F;}
	.st14{clip-path:url(#SVGID_00000041285241785136474390000004647847672772925593_);fill:#2E396F;}
	.st15{clip-path:url(#SVGID_00000132047080910825946960000014183548474629397675_);fill:#2E396F;}
	.st16{clip-path:url(#SVGID_00000074428679404886318350000009276060011245634991_);fill:#2E396F;}
	.st17{clip-path:url(#SVGID_00000114770634870949370560000009630553095398238651_);fill:#2E396F;}
	.st18{clip-path:url(#SVGID_00000165224657259398814800000008125437535577578920_);fill:#2E396F;}
	.st19{clip-path:url(#SVGID_00000147198885702240946100000011051984324563773077_);fill:#2E396F;}
	.st20{clip-path:url(#SVGID_00000047751412209744237280000008288214602488725396_);fill:#2E396F;}
	.st21{clip-path:url(#SVGID_00000049218431393477811370000004883911844455668873_);fill:#2E396F;}
	.st22{clip-path:url(#SVGID_00000110442954116933691350000007539119011673601205_);fill:#2E396F;}
	.st23{clip-path:url(#SVGID_00000137099115553966082790000005488439283907056062_);fill:#2E396F;}
	.st24{clip-path:url(#SVGID_00000004505807086953061860000003358405352896509089_);fill:#2E396F;}
	.st25{clip-path:url(#SVGID_00000051359672325914186880000004369914520205351304_);fill:#2E396F;}
	.st26{clip-path:url(#SVGID_00000153701638056949925850000018114612862004867470_);fill:#2E396F;}
	.st27{clip-path:url(#SVGID_00000179613232995239609640000014948799542407696823_);fill:#2E396F;}
	.st28{clip-path:url(#SVGID_00000106834612459752678900000012270886680693038471_);fill:#2E396F;}
	.st29{clip-path:url(#SVGID_00000131361448137071547390000000034519904743859088_);fill:#2E396F;}
	.st30{clip-path:url(#SVGID_00000138573897387982677120000008994368602050446468_);fill:#2E396F;}
	.st31{clip-path:url(#SVGID_00000062897934479156952150000006781014564056454278_);fill:#2E396F;}
	.st32{clip-path:url(#SVGID_00000083800331624209367960000008813015983231097002_);fill:#2E396F;}
	.st33{clip-path:url(#SVGID_00000127767016585658273790000003350975576602667160_);fill:#2E396F;}
	.st34{clip-path:url(#SVGID_00000111190375902334790750000011023408982933255818_);fill:#2E396F;}
	.st35{clip-path:url(#SVGID_00000137091914237171685700000017384305731404651928_);fill:#2E396F;}
	.st36{clip-path:url(#SVGID_00000027589689153768815090000005778111977285900425_);fill:#2E396F;}
	.st37{clip-path:url(#SVGID_00000121963442140977679120000002196178432820098977_);fill:#2E396F;}
	.st38{clip-path:url(#SVGID_00000161597466426680828890000008920481226774690448_);fill:#2E396F;}
	.st39{clip-path:url(#SVGID_00000004511350651114323600000008075275669460399784_);fill:#2E396F;}
	.st40{clip-path:url(#SVGID_00000060711422506395908540000017282063682379304892_);fill:#2E396F;}
	.st41{clip-path:url(#SVGID_00000104667927555519232650000008375595910069011600_);fill:#2E396F;}
	.st42{clip-path:url(#SVGID_00000149341227396273702200000014159053231804000954_);fill:#2E396F;}
	.st43{clip-path:url(#SVGID_00000103231543021718268560000012657407527548059532_);fill:#2E396F;}
	.st44{clip-path:url(#SVGID_00000066482534730753881090000006846395637653709724_);fill:#2E396F;}
	.st45{clip-path:url(#SVGID_00000016071035889184401640000003096414991038292668_);fill:#2E396F;}
	.st46{clip-path:url(#SVGID_00000124840723691761475360000001792062867571537315_);fill:#2E396F;}
</style>
<g id="layer1" transform="translate(-128.01884,-131.96575)">
	<g>
		<defs>
			<rect id="SVGID_1_" x="-253.7" y="-438.9" width="1207.6" height="858.9"/>
		</defs>
		<clipPath id="SVGID_00000170993660567123299260000001296296165318187679_">
			<use xlink:href="#SVGID_1_"  style="overflow:visible;"/>
		</clipPath>
		<path id="path2039" style="clip-path:url(#SVGID_00000170993660567123299260000001296296165318187679_);fill:#3B8B42;" d="
			M149.1,148c-1.6,2.7-4.5,4.5-7.9,4.5c-5.1,0-9.2-4-9.2-9c0-4.9,4.1-9,9.2-9c3.3,0,6.2,1.7,7.8,4.3h1.3c-1.9-3.8-5.9-6.4-10.6-6.4
			c-6.5,0-11.7,5-11.7,11.1c0,6.1,5.2,11.1,11.7,11.1c4.8,0,8.9-2.7,10.7-6.6H149.1z"/>
	</g>
	<g>
		<defs>
			<rect id="SVGID_00000043417730020209220360000003721918796549569166_" x="-253.7" y="-438.9" width="1207.6" height="858.9"/>
		</defs>
		<clipPath id="SVGID_00000070813319419769624480000001805931174198426282_">
			<use xlink:href="#SVGID_00000043417730020209220360000003721918796549569166_"  style="overflow:visible;"/>
		</clipPath>
		<path id="path2041" style="clip-path:url(#SVGID_00000070813319419769624480000001805931174198426282_);fill:#B8B9B8;" d="
			M142.3,136.1l-1.1,2l4.8-1.4l-6.5,3.7l0.8-1.4l-4.9,1.3L142.3,136.1z"/>
	</g>
	<g>
		<defs>
			<rect id="SVGID_00000032643680960510485390000014195126692145010847_" x="-253.7" y="-438.9" width="1207.6" height="858.9"/>
		</defs>
		<clipPath id="SVGID_00000010995529307237075830000003737279422846796692_">
			<use xlink:href="#SVGID_00000032643680960510485390000014195126692145010847_"  style="overflow:visible;"/>
		</clipPath>
		<path id="path2043" style="clip-path:url(#SVGID_00000010995529307237075830000003737279422846796692_);fill:#3B8B42;" d="
			M136.9,146h-2.3v-4.9h2.3V146z"/>
	</g>
	<g>
		<defs>
			<rect id="SVGID_00000166633727162339763120000008416946883110450064_" x="-253.7" y="-438.9" width="1207.6" height="858.9"/>
		</defs>
		<clipPath id="SVGID_00000103251501472696022750000003211714738937194393_">
			<use xlink:href="#SVGID_00000166633727162339763120000008416946883110450064_"  style="overflow:visible;"/>
		</clipPath>
		<path id="path2045" style="clip-path:url(#SVGID_00000103251501472696022750000003211714738937194393_);fill:#3B8B42;" d="
			M139.4,141.1c0,0,0.7,0.3,0.7,1.1c0,0.8-0.6,1.2-0.6,1.2s0.5,0.6,0.5,1.3c0,0.9-0.7,1.2-0.7,1.2h-1.7l-0.1-4.9H139.4z"/>
	</g>
	<g>
		<defs>
			<rect id="SVGID_00000023282212552740519470000002823504888490776730_" x="-253.7" y="-438.9" width="1207.6" height="858.9"/>
		</defs>
		<clipPath id="SVGID_00000108288052945779437820000017827274661449094786_">
			<use xlink:href="#SVGID_00000023282212552740519470000002823504888490776730_"  style="overflow:visible;"/>
		</clipPath>
		<path id="path2047" style="clip-path:url(#SVGID_00000108288052945779437820000017827274661449094786_);fill:#3B8B42;" d="
			M146.5,141.4V141h-5.3v0.3h1.3v4.3h-1.3v0.3h5.3v-0.3H145v-4.3H146.5z"/>
	</g>
	<g>
		<defs>
			<rect id="SVGID_00000119795877924281466550000010562773658532622747_" x="-253.7" y="-438.9" width="1207.6" height="858.9"/>
		</defs>
		<clipPath id="SVGID_00000177445271117660453130000013909642603594986169_">
			<use xlink:href="#SVGID_00000119795877924281466550000010562773658532622747_"  style="overflow:visible;"/>
		</clipPath>
		<path id="path2049" style="clip-path:url(#SVGID_00000177445271117660453130000013909642603594986169_);fill:#3B8B42;" d="
			M150.3,146h-2.5l1.5-5h2.5L150.3,146z"/>
	</g>
	<g>
		<defs>
			<rect id="SVGID_00000078011731498422339980000017744854944776483245_" x="-253.7" y="-438.9" width="1207.6" height="858.9"/>
		</defs>
		<clipPath id="SVGID_00000114049040573782306840000001411153706623091886_">
			<use xlink:href="#SVGID_00000078011731498422339980000017744854944776483245_"  style="overflow:visible;"/>
		</clipPath>
		<path id="path2051" style="clip-path:url(#SVGID_00000114049040573782306840000001411153706623091886_);fill:#3B8B42;" d="
			M150.7,146h0.9l-0.4-1.6L150.7,146z"/>
	</g>
	<g>
		<defs>
			<rect id="SVGID_00000140015935617290375250000016708571804794790588_" x="-253.7" y="-438.9" width="1207.6" height="858.9"/>
		</defs>
		<clipPath id="SVGID_00000008859256414531121430000002573199240287951274_">
			<use xlink:href="#SVGID_00000140015935617290375250000016708571804794790588_"  style="overflow:visible;"/>
		</clipPath>
		<path id="path2053" style="clip-path:url(#SVGID_00000008859256414531121430000002573199240287951274_);fill:#3B8B42;" d="
			M151.9,145.9h1.6l-1.4-4.5l-0.7,2.4L151.9,145.9z"/>
	</g>
	<g>
		<defs>
			<rect id="SVGID_00000106110926914779734270000000203534519532053928_" x="-253.7" y="-438.9" width="1207.6" height="858.9"/>
		</defs>
		<clipPath id="SVGID_00000176726681773747346900000006603425304676254384_">
			<use xlink:href="#SVGID_00000106110926914779734270000000203534519532053928_"  style="overflow:visible;"/>
		</clipPath>
		<path id="path2055" style="clip-path:url(#SVGID_00000176726681773747346900000006603425304676254384_);fill:#2E396F;" d="
			M170,136.5h-3.5v3.3h3.5V136.5z M164.5,136.5h-3.5v3.3h3.5V136.5z M171.9,134.7v7.7H170v-0.8h-3.5v4.8h-1.9v-4.8h-3.5v0.9h-1.9
			v-7.8h5.3V132h1.9v2.7H171.9z"/>
	</g>
	<g>
		<defs>
			<rect id="SVGID_00000181084518380687362900000001603285649066111412_" x="-253.7" y="-438.9" width="1207.6" height="858.9"/>
		</defs>
		<clipPath id="SVGID_00000166650775051321703090000007105944791277118894_">
			<use xlink:href="#SVGID_00000181084518380687362900000001603285649066111412_"  style="overflow:visible;"/>
		</clipPath>
		<path id="path2057" style="clip-path:url(#SVGID_00000166650775051321703090000007105944791277118894_);fill:#2E396F;" d="
			M183,141.6h1.5c-0.3-0.4-0.7-0.9-1.1-1.3l0.9-0.5H183V141.6z M186.2,141.6v1.5h-8v-1.5h3.1v-1.8h-2.6v-1.5h2.6v-1.5h-2.9v-1.6h7.6
			v1.6h-3v1.5h2.6v1.5h-0.9c0.4,0.4,0.9,1,1.2,1.4l-0.8,0.4H186.2z M186.7,134.3h-9.2v9.7h9.2V134.3z M188.7,132.6v13.8h-2v-0.8
			h-9.2v0.8h-1.9v-13.8H188.7z"/>
	</g>
	<g>
		<defs>
			<rect id="SVGID_00000076578174643830998520000013804984035886346146_" x="-253.7" y="-438.9" width="1207.6" height="858.9"/>
		</defs>
		<clipPath id="SVGID_00000160175189771363375680000005153604281597016231_">
			<use xlink:href="#SVGID_00000076578174643830998520000013804984035886346146_"  style="overflow:visible;"/>
		</clipPath>
		<path id="path2059" style="clip-path:url(#SVGID_00000160175189771363375680000005153604281597016231_);fill:#2E396F;" d="
			M203.3,144.5c0.7,0,0.9-0.4,1.1-2h-4.5v0.9c0,1,0.1,1.1,1,1.1H203.3z M199.8,140.7h3v-1.4h-3V140.7z M199.8,137.6h3v-1.5h-3V137.6
			z M197.8,139.2h-3v1.4h3V139.2z M194.8,137.6h3v-1.5h-3V137.6z M204.7,142.4c0.5,0.2,1.1,0.5,1.5,0.6c-0.3,2.4-0.8,3.3-2.7,3.3
			h-2.9c-2.1,0-2.7-0.6-2.7-3v-0.9h-3v0.9h-1.9v-9.1h4.9v-2.1h2v2.1h4.9V142.4z"/>
	</g>
	<g>
		<defs>
			<rect id="SVGID_00000098900357916245108890000008859462914343374513_" x="-253.7" y="-438.9" width="1207.6" height="858.9"/>
		</defs>
		<clipPath id="SVGID_00000178167242447550996600000005760721071484517796_">
			<use xlink:href="#SVGID_00000098900357916245108890000008859462914343374513_"  style="overflow:visible;"/>
		</clipPath>
		<path id="path2061" style="clip-path:url(#SVGID_00000178167242447550996600000005760721071484517796_);fill:#2E396F;" d="
			M220,144.6c0.9,0,1.1-0.4,1.2-2.1c0.4,0.3,1.2,0.6,1.7,0.7c-0.2,2.3-0.8,3.1-2.8,3.1h-3.5c-2.2,0-2.8-0.6-2.8-2.8v-4.1l-0.9,0.4
			l-0.7-1.6l1.6-0.6v-3.8h1.8v3.1l1.5-0.6v-4.1h1.8v3.4l1.6-0.6l0.2-0.1l0.3-0.2l1.3,0.5l-0.1,0.3c0,2.7,0,4.6-0.1,5.2
			c-0.1,0.8-0.4,1.2-0.9,1.4c-0.5,0.2-1.2,0.2-1.8,0.2c0-0.5-0.2-1.3-0.4-1.7c0.3,0,0.8,0,0.9,0c0.2,0,0.3,0,0.4-0.4
			c0-0.3,0.1-1.3,0.1-3.3l-1.6,0.6v5.5h-1.8v-4.7l-1.5,0.6v4.9c0,0.9,0.2,1.1,1.2,1.1H220z M212,135.2c-0.6-0.5-1.8-1.2-2.7-1.6
			l1-1.4c0.9,0.4,2.2,1,2.8,1.5L212,135.2z M208.9,145.1c0.8-1.2,1.8-3.1,2.7-4.9l1.4,1.2c-0.7,1.6-1.6,3.4-2.5,4.9L208.9,145.1z
			 M211.1,139.4c-0.6-0.5-1.8-1.2-2.7-1.6l1-1.4c0.9,0.3,2.1,0.9,2.8,1.4L211.1,139.4z"/>
	</g>
	<g>
		<defs>
			<rect id="SVGID_00000028301559416577854650000001020298027321813934_" x="-253.7" y="-438.9" width="1207.6" height="858.9"/>
		</defs>
		<clipPath id="SVGID_00000115473521363121822840000012279003109952917912_">
			<use xlink:href="#SVGID_00000028301559416577854650000001020298027321813934_"  style="overflow:visible;"/>
		</clipPath>
		<path id="path2063" style="clip-path:url(#SVGID_00000115473521363121822840000012279003109952917912_);fill:#2E396F;" d="
			M239.4,143.6v1.9h-14.1v-1.9h5.9v-8h-5.1v-1.9h12.3v1.9h-5.2v8H239.4z"/>
	</g>
	<g>
		<defs>
			<rect id="SVGID_00000155141547143882627070000000378111983369150900_" x="-253.7" y="-438.9" width="1207.6" height="858.9"/>
		</defs>
		<clipPath id="SVGID_00000040535051794945064890000015322421917568400554_">
			<use xlink:href="#SVGID_00000155141547143882627070000000378111983369150900_"  style="overflow:visible;"/>
		</clipPath>
		<path id="path2065" style="clip-path:url(#SVGID_00000040535051794945064890000015322421917568400554_);fill:#2E396F;" d="
			M244.2,141.6c-0.3-1.5-1.1-4-1.9-5.9l1.7-0.5c0.7,1.8,1.6,4.2,2,5.7L244.2,141.6z M255.9,143.9v1.8h-13.8v-1.8h4v-11.7h1.9v11.7h2
			v-11.7h1.9v8.5c0.8-1.5,1.7-3.7,2.2-5.4l1.7,0.8c-0.7,1.9-1.7,4.1-2.5,5.6l-1.4-0.7v2.9H255.9z"/>
	</g>
	<g>
		<defs>
			<rect id="SVGID_00000023964230663668949620000004104299806696699052_" x="-253.7" y="-438.9" width="1207.6" height="858.9"/>
		</defs>
		<clipPath id="SVGID_00000163791401498314201620000006783621307724371887_">
			<use xlink:href="#SVGID_00000023964230663668949620000004104299806696699052_"  style="overflow:visible;"/>
		</clipPath>
		<path id="path2067" style="clip-path:url(#SVGID_00000163791401498314201620000006783621307724371887_);fill:#2E396F;" d="
			M271.6,142.7c-0.1-0.8-0.4-2.2-0.7-3.4c-0.1,4-0.3,5.5-0.7,6.1c-0.4,0.5-0.7,0.7-1.3,0.8c-0.5,0.1-1.3,0.1-2.1,0
			c0-0.5-0.2-1.3-0.6-1.8c0.8,0.1,1.5,0.1,1.8,0.1c0.3,0,0.4-0.1,0.6-0.3c0.3-0.4,0.5-2.5,0.6-7.7h-1.4c-0.1,3.2-0.8,7-4.1,9.8
			c-0.3-0.4-1-1-1.4-1.3c3-2.5,3.6-5.8,3.8-8.5h-2.3v-1.8h2.3v-2.8h1.7v2.8h3.2c0,0,0,0.6,0,0.8l0,2.3l1.1-0.2
			c0.4,1.4,0.9,3.4,1.1,4.5L271.6,142.7z M265.2,138.1c-0.3,1.6-0.9,3.2-1.6,4.2c-0.3-0.3-1-0.7-1.4-0.9c0.7-0.9,1.1-2.3,1.4-3.6
			L265.2,138.1z M261.9,137.4v9.1h-1.8v-9.1h-1.5v-1.7h1.5V132h1.8v3.6h1.5v1.7H261.9z"/>
	</g>
	<g>
		<defs>
			<rect id="SVGID_00000030468363147856467240000002914884867503156133_" x="-253.7" y="-438.9" width="1207.6" height="858.9"/>
		</defs>
		<clipPath id="SVGID_00000058584265709665169460000004183602780637977519_">
			<use xlink:href="#SVGID_00000030468363147856467240000002914884867503156133_"  style="overflow:visible;"/>
		</clipPath>
		<path id="path2069" style="clip-path:url(#SVGID_00000058584265709665169460000004183602780637977519_);fill:#2E396F;" d="
			M285.2,136.7c-1-0.7-2-1.4-2.7-2.1c-0.8,0.8-1.7,1.5-2.6,2.1H285.2z M285.5,141.5c1.3,1.2,2.8,2.8,3.4,4l-1.6,1
			c-0.2-0.4-0.4-0.8-0.8-1.2c-7.6,0.6-8.7,0.6-9.4,0.9c-0.1-0.4-0.4-1.3-0.6-1.9c0.4-0.1,0.7-0.3,1.2-0.8c0.4-0.3,1.2-1.1,2-2.1
			h-3.7v-1.8h12.8v1.8h-6.5c-0.7,0.9-1.6,1.8-2.4,2.5l5.4-0.3c-0.4-0.5-0.9-1-1.3-1.4L285.5,141.5z M284,132.8
			c-0.2,0.2-0.3,0.4-0.5,0.6c1.5,1.3,3.9,2.7,6.2,3.4c-0.4,0.4-1,1.1-1.3,1.6c-0.8-0.3-1.6-0.7-2.4-1.2v1.1h-7.2v-1
			c-0.8,0.4-1.5,0.9-2.4,1.2c-0.3-0.5-0.9-1.3-1.3-1.6c2.9-1.1,5.7-3,7.2-5L284,132.8z"/>
	</g>
	<g>
		<defs>
			<rect id="SVGID_00000033361267459537902310000015728923080874559666_" x="-253.7" y="-438.9" width="1207.6" height="858.9"/>
		</defs>
		<clipPath id="SVGID_00000094616205896541504610000017386065328293649560_">
			<use xlink:href="#SVGID_00000033361267459537902310000015728923080874559666_"  style="overflow:visible;"/>
		</clipPath>
		<path id="path2071" style="clip-path:url(#SVGID_00000094616205896541504610000017386065328293649560_);fill:#2E396F;" d="
			M159.8,151c0-1.7,1.1-2.7,2.5-2.7c0.7,0,1.2,0.3,1.5,0.6l-0.4,0.4c-0.3-0.3-0.7-0.5-1.1-0.5c-1.1,0-1.8,0.8-1.8,2.1
			c0,1.3,0.7,2.2,1.7,2.2c0.5,0,0.9-0.2,1.3-0.6l0.4,0.4c-0.4,0.5-1,0.8-1.7,0.8C160.9,153.7,159.8,152.7,159.8,151"/>
	</g>
	<g>
		<defs>
			<rect id="SVGID_00000060725609921589608340000003711531178580372402_" x="-253.7" y="-438.9" width="1207.6" height="858.9"/>
		</defs>
		<clipPath id="SVGID_00000067209654954289889590000013578283141649504189_">
			<use xlink:href="#SVGID_00000060725609921589608340000003711531178580372402_"  style="overflow:visible;"/>
		</clipPath>
		<path id="path2073" style="clip-path:url(#SVGID_00000067209654954289889590000013578283141649504189_);fill:#2E396F;" d="
			M165,147.9h0.7v1.6l0,0.8c0.4-0.4,0.8-0.7,1.4-0.7c0.9,0,1.3,0.5,1.3,1.5v2.5h-0.7v-2.4c0-0.7-0.2-1-0.8-1c-0.4,0-0.7,0.2-1.1,0.6
			v2.8H165V147.9z"/>
	</g>
	<g>
		<defs>
			<rect id="SVGID_00000183220769996824720150000018397585073328150170_" x="-253.7" y="-438.9" width="1207.6" height="858.9"/>
		</defs>
		<clipPath id="SVGID_00000070077845973102615720000003087742305487780745_">
			<use xlink:href="#SVGID_00000183220769996824720150000018397585073328150170_"  style="overflow:visible;"/>
		</clipPath>
		<path id="path2075" style="clip-path:url(#SVGID_00000070077845973102615720000003087742305487780745_);fill:#2E396F;" d="
			M169.6,149.7h0.7v3.9h-0.7V149.7z M169.5,148.5c0-0.3,0.2-0.4,0.5-0.4s0.5,0.2,0.5,0.4c0,0.2-0.2,0.4-0.5,0.4
			S169.5,148.7,169.5,148.5"/>
	</g>
	<g>
		<defs>
			<rect id="SVGID_00000099641887189640618750000000184956075645456054_" x="-253.7" y="-438.9" width="1207.6" height="858.9"/>
		</defs>
		<clipPath id="SVGID_00000012456505243829253280000011194415439221551255_">
			<use xlink:href="#SVGID_00000099641887189640618750000000184956075645456054_"  style="overflow:visible;"/>
		</clipPath>
		<path id="path2077" style="clip-path:url(#SVGID_00000012456505243829253280000011194415439221551255_);fill:#2E396F;" d="
			M171.8,149.7h0.6l0.1,0.6h0c0.4-0.4,0.8-0.7,1.4-0.7c0.9,0,1.3,0.5,1.3,1.5v2.5h-0.7v-2.4c0-0.7-0.2-1-0.8-1
			c-0.4,0-0.7,0.2-1.1,0.6v2.8h-0.7V149.7z"/>
	</g>
	<g>
		<defs>
			<rect id="SVGID_00000052798104120716849660000004718206617270134442_" x="-253.7" y="-438.9" width="1207.6" height="858.9"/>
		</defs>
		<clipPath id="SVGID_00000007404531023245620010000017491691472737112966_">
			<use xlink:href="#SVGID_00000052798104120716849660000004718206617270134442_"  style="overflow:visible;"/>
		</clipPath>
		<path id="path2079" style="clip-path:url(#SVGID_00000007404531023245620010000017491691472737112966_);fill:#2E396F;" d="
			M178.8,152.6v-1.1c-1.4,0.2-1.9,0.5-1.9,1c0,0.4,0.3,0.6,0.7,0.6C178,153.2,178.4,153,178.8,152.6 M176.2,152.6
			c0-0.8,0.8-1.3,2.5-1.5c0-0.5-0.2-1-0.9-1c-0.5,0-0.9,0.2-1.2,0.4l-0.3-0.4c0.4-0.2,1-0.5,1.6-0.5c1,0,1.4,0.6,1.4,1.6v2.4h-0.6
			l-0.1-0.5h0c-0.4,0.3-0.9,0.6-1.4,0.6C176.7,153.7,176.2,153.3,176.2,152.6"/>
	</g>
	<g>
		<defs>
			<rect id="SVGID_00000168101909626284504860000017170153003399755967_" x="-253.7" y="-438.9" width="1207.6" height="858.9"/>
		</defs>
		<clipPath id="SVGID_00000144312923557008344500000000593479182482033030_">
			<use xlink:href="#SVGID_00000168101909626284504860000017170153003399755967_"  style="overflow:visible;"/>
		</clipPath>
		<path id="path2081" style="clip-path:url(#SVGID_00000144312923557008344500000000593479182482033030_);fill:#2E396F;" d="
			M186.1,153.1c1,0,1.5-0.3,1.5-1c0-0.7-0.5-0.9-1.5-0.9h-1v2H186.1z M185.9,150.6c1,0,1.4-0.3,1.4-0.9c0-0.6-0.5-0.8-1.3-0.8h-0.9
			v1.7H185.9z M184.4,148.3h1.7c1.1,0,1.9,0.4,1.9,1.3c0,0.5-0.3,1-0.8,1.1v0c0.7,0.1,1.1,0.5,1.1,1.3c0,1-0.9,1.5-2.1,1.5h-1.8
			V148.3z"/>
	</g>
	<g>
		<defs>
			<rect id="SVGID_00000171708591235047764800000003363556865248631457_" x="-253.7" y="-438.9" width="1207.6" height="858.9"/>
		</defs>
		<clipPath id="SVGID_00000152255864033709194580000004049595372769512374_">
			<use xlink:href="#SVGID_00000171708591235047764800000003363556865248631457_"  style="overflow:visible;"/>
		</clipPath>
		<path id="path2083" style="clip-path:url(#SVGID_00000152255864033709194580000004049595372769512374_);fill:#2E396F;" d="
			M191.6,152.6v-1.1c-1.4,0.2-1.9,0.5-1.9,1c0,0.4,0.3,0.6,0.7,0.6C190.9,153.2,191.2,153,191.6,152.6 M189.1,152.6
			c0-0.8,0.8-1.3,2.5-1.5c0-0.5-0.2-1-0.9-1c-0.5,0-0.9,0.2-1.2,0.4l-0.3-0.4c0.4-0.2,1-0.5,1.6-0.5c1,0,1.4,0.6,1.4,1.6v2.4h-0.6
			l-0.1-0.5h0c-0.4,0.3-0.9,0.6-1.4,0.6C189.6,153.7,189.1,153.3,189.1,152.6"/>
	</g>
	<g>
		<defs>
			<rect id="SVGID_00000042699905379000952270000002382418754899909007_" x="-253.7" y="-438.9" width="1207.6" height="858.9"/>
		</defs>
		<clipPath id="SVGID_00000047053543091721358880000016963564874547104681_">
			<use xlink:href="#SVGID_00000042699905379000952270000002382418754899909007_"  style="overflow:visible;"/>
		</clipPath>
		<path id="path2085" style="clip-path:url(#SVGID_00000047053543091721358880000016963564874547104681_);fill:#2E396F;" d="
			M193.8,152.4v-2.2h-0.6v-0.5l0.6,0l0.1-1.1h0.6v1.1h1.1v0.5h-1.1v2.2c0,0.5,0.2,0.8,0.6,0.8c0.1,0,0.3-0.1,0.5-0.1l0.1,0.5
			c-0.2,0.1-0.5,0.1-0.8,0.1C194.1,153.7,193.8,153.2,193.8,152.4"/>
	</g>
	<g>
		<defs>
			<rect id="SVGID_00000070817412218928394540000009113417633166997901_" x="-253.7" y="-438.9" width="1207.6" height="858.9"/>
		</defs>
		<clipPath id="SVGID_00000057116221059201762090000008082712853251804570_">
			<use xlink:href="#SVGID_00000070817412218928394540000009113417633166997901_"  style="overflow:visible;"/>
		</clipPath>
		<path id="path2087" style="clip-path:url(#SVGID_00000057116221059201762090000008082712853251804570_);fill:#2E396F;" d="
			M196.7,152.4v-2.2h-0.6v-0.5l0.6,0l0.1-1.1h0.6v1.1h1.1v0.5h-1.1v2.2c0,0.5,0.2,0.8,0.6,0.8c0.1,0,0.3-0.1,0.5-0.1l0.1,0.5
			c-0.2,0.1-0.5,0.1-0.8,0.1C197,153.7,196.7,153.2,196.7,152.4"/>
	</g>
	<g>
		<defs>
			<rect id="SVGID_00000138533708396678962700000002460190451768080045_" x="-253.7" y="-438.9" width="1207.6" height="858.9"/>
		</defs>
		<clipPath id="SVGID_00000097464649494393288120000011060204073587201708_">
			<use xlink:href="#SVGID_00000138533708396678962700000002460190451768080045_"  style="overflow:visible;"/>
		</clipPath>
		<path id="path2089" style="clip-path:url(#SVGID_00000097464649494393288120000011060204073587201708_);fill:#2E396F;" d="
			M202.1,151.3c0-0.8-0.4-1.2-1-1.2c-0.6,0-1.1,0.4-1.2,1.2H202.1z M199.2,151.7c0-1.3,0.9-2,1.9-2c1.1,0,1.6,0.7,1.6,1.8
			c0,0.1,0,0.3,0,0.4h-2.8c0,0.8,0.6,1.4,1.4,1.4c0.4,0,0.7-0.1,1-0.3l0.3,0.4c-0.4,0.2-0.8,0.4-1.4,0.4
			C200.1,153.7,199.2,152.9,199.2,151.7"/>
	</g>
	<g>
		<defs>
			<rect id="SVGID_00000077283289073027094850000009342517007459786389_" x="-253.7" y="-438.9" width="1207.6" height="858.9"/>
		</defs>
		<clipPath id="SVGID_00000014608843541679405520000016576988839883524014_">
			<use xlink:href="#SVGID_00000077283289073027094850000009342517007459786389_"  style="overflow:visible;"/>
		</clipPath>
		<path id="path2091" style="clip-path:url(#SVGID_00000014608843541679405520000016576988839883524014_);fill:#2E396F;" d="
			M203.8,149.7h0.6l0.1,0.7h0c0.3-0.5,0.7-0.8,1.2-0.8c0.2,0,0.3,0,0.4,0.1l-0.1,0.6c-0.1,0-0.2-0.1-0.4-0.1c-0.3,0-0.8,0.2-1,0.9
			v2.5h-0.7V149.7z"/>
	</g>
	<g>
		<defs>
			<rect id="SVGID_00000093167847985245195170000006218482134881685893_" x="-253.7" y="-438.9" width="1207.6" height="858.9"/>
		</defs>
		<clipPath id="SVGID_00000175323237604345924760000007840103043006803337_">
			<use xlink:href="#SVGID_00000093167847985245195170000006218482134881685893_"  style="overflow:visible;"/>
		</clipPath>
		<path id="path2093" style="clip-path:url(#SVGID_00000175323237604345924760000007840103043006803337_);fill:#2E396F;" d="
			M206.4,155.2l0.1-0.5c0.1,0,0.2,0.1,0.3,0.1c0.5,0,0.8-0.4,0.9-0.8l0.1-0.3l-1.7-3.9h0.7l0.8,2.2c0.1,0.3,0.3,0.7,0.4,1.1h0
			c0.1-0.3,0.2-0.7,0.4-1.1l0.7-2.2h0.7l-1.6,4.2c-0.3,0.8-0.7,1.4-1.5,1.4C206.7,155.3,206.5,155.2,206.4,155.2"/>
	</g>
	<g>
		<defs>
			<rect id="SVGID_00000087399977737218434070000008298356064859456896_" x="-253.7" y="-438.9" width="1207.6" height="858.9"/>
		</defs>
		<clipPath id="SVGID_00000062883836998657557710000012751728100591370892_">
			<use xlink:href="#SVGID_00000087399977737218434070000008298356064859456896_"  style="overflow:visible;"/>
		</clipPath>
		<path id="path2095" style="clip-path:url(#SVGID_00000062883836998657557710000012751728100591370892_);fill:#2E396F;" d="
			M215.1,148.3h0.7v5.2h-0.7V148.3z"/>
	</g>
	<g>
		<defs>
			<rect id="SVGID_00000125561791409348324340000005338750463691791246_" x="-253.7" y="-438.9" width="1207.6" height="858.9"/>
		</defs>
		<clipPath id="SVGID_00000067216595258471939300000007092392459361653165_">
			<use xlink:href="#SVGID_00000125561791409348324340000005338750463691791246_"  style="overflow:visible;"/>
		</clipPath>
		<path id="path2097" style="clip-path:url(#SVGID_00000067216595258471939300000007092392459361653165_);fill:#2E396F;" d="
			M217.3,149.7h0.6l0.1,0.6h0c0.4-0.4,0.8-0.7,1.4-0.7c0.9,0,1.3,0.5,1.3,1.5v2.5h-0.7v-2.4c0-0.7-0.2-1-0.8-1
			c-0.4,0-0.7,0.2-1.1,0.6v2.8h-0.7V149.7z"/>
	</g>
	<g>
		<defs>
			<rect id="SVGID_00000036949597915545811250000005157439682533932714_" x="-253.7" y="-438.9" width="1207.6" height="858.9"/>
		</defs>
		<clipPath id="SVGID_00000080884790988935882260000002295912973752061371_">
			<use xlink:href="#SVGID_00000036949597915545811250000005157439682533932714_"  style="overflow:visible;"/>
		</clipPath>
		<path id="path2099" style="clip-path:url(#SVGID_00000080884790988935882260000002295912973752061371_);fill:#2E396F;" d="
			M224.6,152.6v-2c-0.4-0.3-0.7-0.4-1-0.4c-0.7,0-1.2,0.6-1.2,1.5c0,0.9,0.4,1.5,1.1,1.5C223.9,153.1,224.2,153,224.6,152.6
			 M221.7,151.7c0-1.3,0.8-2,1.8-2c0.5,0,0.8,0.2,1.2,0.5l0-0.7v-1.5h0.7v5.7h-0.6l-0.1-0.5h0c-0.3,0.3-0.8,0.6-1.3,0.6
			C222.3,153.7,221.7,152.9,221.7,151.7"/>
	</g>
	<g>
		<defs>
			<rect id="SVGID_00000135681175924895570870000009534056049933763985_" x="-253.7" y="-438.9" width="1207.6" height="858.9"/>
		</defs>
		<clipPath id="SVGID_00000074434406429452483890000007575714135029033871_">
			<use xlink:href="#SVGID_00000135681175924895570870000009534056049933763985_"  style="overflow:visible;"/>
		</clipPath>
		<path id="path2101" style="clip-path:url(#SVGID_00000074434406429452483890000007575714135029033871_);fill:#2E396F;" d="
			M226.7,152.2v-2.5h0.7v2.4c0,0.7,0.2,1,0.8,1c0.4,0,0.7-0.2,1.1-0.7v-2.8h0.7v3.9h-0.6l-0.1-0.6h0c-0.4,0.4-0.8,0.7-1.4,0.7
			C227.1,153.7,226.7,153.2,226.7,152.2"/>
	</g>
	<g>
		<defs>
			<rect id="SVGID_00000021095523338951384500000008862083887543564953_" x="-253.7" y="-438.9" width="1207.6" height="858.9"/>
		</defs>
		<clipPath id="SVGID_00000038392006079304140110000007421349780764849338_">
			<use xlink:href="#SVGID_00000021095523338951384500000008862083887543564953_"  style="overflow:visible;"/>
		</clipPath>
		<path id="path2103" style="clip-path:url(#SVGID_00000038392006079304140110000007421349780764849338_);fill:#2E396F;" d="
			M230.9,153.1l0.3-0.4c0.4,0.3,0.7,0.5,1.2,0.5c0.5,0,0.8-0.3,0.8-0.6c0-0.4-0.5-0.6-0.9-0.7c-0.6-0.2-1.2-0.5-1.2-1.1
			c0-0.6,0.5-1.1,1.4-1.1c0.5,0,1,0.2,1.3,0.4l-0.3,0.4c-0.3-0.2-0.6-0.3-1-0.3c-0.5,0-0.8,0.3-0.8,0.6c0,0.4,0.4,0.5,0.9,0.7
			c0.6,0.2,1.3,0.4,1.3,1.2c0,0.6-0.5,1.2-1.5,1.2C231.9,153.7,231.3,153.5,230.9,153.1"/>
	</g>
	<g>
		<defs>
			<rect id="SVGID_00000026852158057310347320000018323674181950120374_" x="-253.7" y="-438.9" width="1207.6" height="858.9"/>
		</defs>
		<clipPath id="SVGID_00000091721259660917404100000015601624958430021776_">
			<use xlink:href="#SVGID_00000026852158057310347320000018323674181950120374_"  style="overflow:visible;"/>
		</clipPath>
		<path id="path2105" style="clip-path:url(#SVGID_00000091721259660917404100000015601624958430021776_);fill:#2E396F;" d="
			M235.1,152.4v-2.2h-0.6v-0.5l0.6,0l0.1-1.1h0.6v1.1h1.1v0.5h-1.1v2.2c0,0.5,0.2,0.8,0.6,0.8c0.1,0,0.3-0.1,0.5-0.1l0.1,0.5
			c-0.2,0.1-0.5,0.1-0.8,0.1C235.4,153.7,235.1,153.2,235.1,152.4"/>
	</g>
	<g>
		<defs>
			<rect id="SVGID_00000122680500418860511870000014959305246945379985_" x="-253.7" y="-438.9" width="1207.6" height="858.9"/>
		</defs>
		<clipPath id="SVGID_00000104702952398803832970000010271171109908997273_">
			<use xlink:href="#SVGID_00000122680500418860511870000014959305246945379985_"  style="overflow:visible;"/>
		</clipPath>
		<path id="path2107" style="clip-path:url(#SVGID_00000104702952398803832970000010271171109908997273_);fill:#2E396F;" d="
			M237.9,149.7h0.6l0.1,0.7h0c0.3-0.5,0.7-0.8,1.2-0.8c0.2,0,0.3,0,0.4,0.1l-0.1,0.6c-0.1,0-0.2-0.1-0.4-0.1c-0.3,0-0.8,0.2-1,0.9
			v2.5h-0.7V149.7z"/>
	</g>
	<g>
		<defs>
			<rect id="SVGID_00000111909032387520419580000013614853051289586850_" x="-253.7" y="-438.9" width="1207.6" height="858.9"/>
		</defs>
		<clipPath id="SVGID_00000002359496388289044030000017582859862833092023_">
			<use xlink:href="#SVGID_00000111909032387520419580000013614853051289586850_"  style="overflow:visible;"/>
		</clipPath>
		<path id="path2109" style="clip-path:url(#SVGID_00000002359496388289044030000017582859862833092023_);fill:#2E396F;" d="
			M240.5,155.2l0.1-0.5c0.1,0,0.2,0.1,0.3,0.1c0.5,0,0.8-0.4,0.9-0.8l0.1-0.3l-1.7-3.9h0.7l0.8,2.2c0.1,0.3,0.3,0.7,0.4,1.1h0
			c0.1-0.3,0.2-0.7,0.4-1.1l0.7-2.2h0.7l-1.6,4.2c-0.3,0.8-0.7,1.4-1.5,1.4C240.8,155.3,240.6,155.2,240.5,155.2"/>
	</g>
	<g>
		<defs>
			<rect id="SVGID_00000085231420633108189790000008300346220269838727_" x="-253.7" y="-438.9" width="1207.6" height="858.9"/>
		</defs>
		<clipPath id="SVGID_00000016773694581152595920000008437470954304607671_">
			<use xlink:href="#SVGID_00000085231420633108189790000008300346220269838727_"  style="overflow:visible;"/>
		</clipPath>
		<path id="path2111" style="clip-path:url(#SVGID_00000016773694581152595920000008437470954304607671_);fill:#2E396F;" d="
			M250.9,151.5l-0.3-0.8c-0.2-0.6-0.4-1.2-0.6-1.8h0c-0.2,0.6-0.4,1.2-0.6,1.8l-0.3,0.8H250.9z M251,152h-2l-0.5,1.6h-0.7l1.9-5.2
			h0.8l1.9,5.2h-0.7L251,152z"/>
	</g>
	<g>
		<defs>
			<rect id="SVGID_00000116948983553808016770000016165990418450941074_" x="-253.7" y="-438.9" width="1207.6" height="858.9"/>
		</defs>
		<clipPath id="SVGID_00000127025911890267099160000011456756564546515899_">
			<use xlink:href="#SVGID_00000116948983553808016770000016165990418450941074_"  style="overflow:visible;"/>
		</clipPath>
		<path id="path2113" style="clip-path:url(#SVGID_00000127025911890267099160000011456756564546515899_);fill:#2E396F;" d="
			M252.6,153.1l0.3-0.4c0.4,0.3,0.7,0.5,1.2,0.5c0.5,0,0.8-0.3,0.8-0.6c0-0.4-0.5-0.6-0.9-0.7c-0.6-0.2-1.2-0.5-1.2-1.1
			c0-0.6,0.5-1.1,1.4-1.1c0.5,0,1,0.2,1.3,0.4l-0.3,0.4c-0.3-0.2-0.6-0.3-1-0.3c-0.5,0-0.8,0.3-0.8,0.6c0,0.4,0.5,0.5,0.9,0.7
			c0.6,0.2,1.3,0.4,1.3,1.2c0,0.6-0.5,1.2-1.5,1.2C253.6,153.7,253,153.5,252.6,153.1"/>
	</g>
	<g>
		<defs>
			<rect id="SVGID_00000104668535930912207950000006891118474407204795_" x="-253.7" y="-438.9" width="1207.6" height="858.9"/>
		</defs>
		<clipPath id="SVGID_00000085230205835576524670000000600186106563272117_">
			<use xlink:href="#SVGID_00000104668535930912207950000006891118474407204795_"  style="overflow:visible;"/>
		</clipPath>
		<path id="path2115" style="clip-path:url(#SVGID_00000085230205835576524670000000600186106563272117_);fill:#2E396F;" d="
			M256.2,153.1l0.3-0.4c0.4,0.3,0.7,0.5,1.2,0.5c0.5,0,0.8-0.3,0.8-0.6c0-0.4-0.5-0.6-0.9-0.7c-0.6-0.2-1.2-0.5-1.2-1.1
			c0-0.6,0.5-1.1,1.4-1.1c0.5,0,1,0.2,1.3,0.4l-0.3,0.4c-0.3-0.2-0.6-0.3-1-0.3c-0.5,0-0.8,0.3-0.8,0.6c0,0.4,0.5,0.5,0.9,0.7
			c0.6,0.2,1.3,0.4,1.3,1.2c0,0.6-0.5,1.2-1.5,1.2C257.2,153.7,256.6,153.5,256.2,153.1"/>
	</g>
	<g>
		<defs>
			<rect id="SVGID_00000138545112163244325860000001426317958469824443_" x="-253.7" y="-438.9" width="1207.6" height="858.9"/>
		</defs>
		<clipPath id="SVGID_00000171001172258439274610000003288839788645676209_">
			<use xlink:href="#SVGID_00000138545112163244325860000001426317958469824443_"  style="overflow:visible;"/>
		</clipPath>
		<path id="path2117" style="clip-path:url(#SVGID_00000171001172258439274610000003288839788645676209_);fill:#2E396F;" d="
			M263.1,151.7c0-0.9-0.5-1.5-1.2-1.5s-1.2,0.6-1.2,1.5s0.5,1.5,1.2,1.5S263.1,152.5,263.1,151.7 M260,151.7c0-1.3,0.9-2,1.9-2
			s1.9,0.8,1.9,2c0,1.3-0.9,2-1.9,2S260,152.9,260,151.7"/>
	</g>
	<g>
		<defs>
			<rect id="SVGID_00000181807015386189687400000002833466088439525266_" x="-253.7" y="-438.9" width="1207.6" height="858.9"/>
		</defs>
		<clipPath id="SVGID_00000032606223689705127880000005633721173590283139_">
			<use xlink:href="#SVGID_00000181807015386189687400000002833466088439525266_"  style="overflow:visible;"/>
		</clipPath>
		<path id="path2119" style="clip-path:url(#SVGID_00000032606223689705127880000005633721173590283139_);fill:#2E396F;" d="
			M264.7,151.7c0-1.3,0.9-2,2-2c0.5,0,0.9,0.2,1.2,0.5l-0.4,0.4c-0.2-0.2-0.5-0.4-0.8-0.4c-0.7,0-1.3,0.6-1.3,1.5s0.5,1.5,1.3,1.5
			c0.4,0,0.7-0.2,1-0.4l0.3,0.4c-0.4,0.3-0.8,0.5-1.3,0.5C265.5,153.7,264.7,152.9,264.7,151.7"/>
	</g>
	<g>
		<defs>
			<rect id="SVGID_00000134231790899869484060000012259648406681948838_" x="-253.7" y="-438.9" width="1207.6" height="858.9"/>
		</defs>
		<clipPath id="SVGID_00000039133286119886188820000008821378236293277083_">
			<use xlink:href="#SVGID_00000134231790899869484060000012259648406681948838_"  style="overflow:visible;"/>
		</clipPath>
		<path id="path2121" style="clip-path:url(#SVGID_00000039133286119886188820000008821378236293277083_);fill:#2E396F;" d="
			M268.9,149.7h0.7v3.9h-0.7V149.7z M268.8,148.5c0-0.3,0.2-0.4,0.5-0.4c0.3,0,0.5,0.2,0.5,0.4c0,0.2-0.2,0.4-0.5,0.4
			S268.8,148.7,268.8,148.5"/>
	</g>
	<g>
		<defs>
			<rect id="SVGID_00000179647928216501465310000015798810428511905724_" x="-253.7" y="-438.9" width="1207.6" height="858.9"/>
		</defs>
		<clipPath id="SVGID_00000175287097686750670560000010272234432889922972_">
			<use xlink:href="#SVGID_00000179647928216501465310000015798810428511905724_"  style="overflow:visible;"/>
		</clipPath>
		<path id="path2123" style="clip-path:url(#SVGID_00000175287097686750670560000010272234432889922972_);fill:#2E396F;" d="
			M273.3,152.6v-1.1c-1.4,0.2-1.9,0.5-1.9,1c0,0.4,0.3,0.6,0.7,0.6C272.6,153.2,272.9,153,273.3,152.6 M270.8,152.6
			c0-0.8,0.8-1.3,2.5-1.5c0-0.5-0.2-1-0.9-1c-0.5,0-0.9,0.2-1.2,0.4l-0.3-0.4c0.4-0.2,1-0.5,1.6-0.5c1,0,1.4,0.6,1.4,1.6v2.4h-0.6
			l-0.1-0.5h0c-0.4,0.3-0.9,0.6-1.4,0.6C271.3,153.7,270.8,153.3,270.8,152.6"/>
	</g>
	<g>
		<defs>
			<rect id="SVGID_00000098209613767128807670000012172082243204893318_" x="-253.7" y="-438.9" width="1207.6" height="858.9"/>
		</defs>
		<clipPath id="SVGID_00000010298564057130689060000013191795017580698043_">
			<use xlink:href="#SVGID_00000098209613767128807670000012172082243204893318_"  style="overflow:visible;"/>
		</clipPath>
		<path id="path2125" style="clip-path:url(#SVGID_00000010298564057130689060000013191795017580698043_);fill:#2E396F;" d="
			M275.5,152.4v-2.2h-0.6v-0.5l0.6,0l0.1-1.1h0.6v1.1h1.1v0.5h-1.1v2.2c0,0.5,0.2,0.8,0.6,0.8c0.1,0,0.3-0.1,0.5-0.1l0.1,0.5
			c-0.2,0.1-0.5,0.1-0.8,0.1C275.8,153.7,275.5,153.2,275.5,152.4"/>
	</g>
	<g>
		<defs>
			<rect id="SVGID_00000018203848411354419200000016201590113137948337_" x="-253.7" y="-438.9" width="1207.6" height="858.9"/>
		</defs>
		<clipPath id="SVGID_00000116928387496694576820000005689139321401207434_">
			<use xlink:href="#SVGID_00000018203848411354419200000016201590113137948337_"  style="overflow:visible;"/>
		</clipPath>
		<path id="path2127" style="clip-path:url(#SVGID_00000116928387496694576820000005689139321401207434_);fill:#2E396F;" d="
			M278.3,149.7h0.7v3.9h-0.7V149.7z M278.1,148.5c0-0.3,0.2-0.4,0.5-0.4c0.3,0,0.5,0.2,0.5,0.4c0,0.2-0.2,0.4-0.5,0.4
			C278.3,148.9,278.1,148.7,278.1,148.5"/>
	</g>
	<g>
		<defs>
			<rect id="SVGID_00000042724338773986328200000010714482537621648824_" x="-253.7" y="-438.9" width="1207.6" height="858.9"/>
		</defs>
		<clipPath id="SVGID_00000168805620452408889180000005460838788284136834_">
			<use xlink:href="#SVGID_00000042724338773986328200000010714482537621648824_"  style="overflow:visible;"/>
		</clipPath>
		<path id="path2129" style="clip-path:url(#SVGID_00000168805620452408889180000005460838788284136834_);fill:#2E396F;" d="
			M283.2,151.7c0-0.9-0.5-1.5-1.2-1.5c-0.7,0-1.2,0.6-1.2,1.5s0.5,1.5,1.2,1.5C282.7,153.1,283.2,152.5,283.2,151.7 M280.1,151.7
			c0-1.3,0.9-2,1.9-2s1.9,0.8,1.9,2c0,1.3-0.9,2-1.9,2S280.1,152.9,280.1,151.7"/>
	</g>
	<g>
		<defs>
			<rect id="SVGID_00000145771373466403554710000005574174921867602872_" x="-253.7" y="-438.9" width="1207.6" height="858.9"/>
		</defs>
		<clipPath id="SVGID_00000181085314493058622670000012974692335867284363_">
			<use xlink:href="#SVGID_00000145771373466403554710000005574174921867602872_"  style="overflow:visible;"/>
		</clipPath>
		<path id="path2131" style="clip-path:url(#SVGID_00000181085314493058622670000012974692335867284363_);fill:#2E396F;" d="
			M285.1,149.7h0.6l0.1,0.6h0c0.4-0.4,0.8-0.7,1.4-0.7c0.9,0,1.3,0.5,1.3,1.5v2.5h-0.7v-2.4c0-0.7-0.2-1-0.8-1
			c-0.4,0-0.7,0.2-1.1,0.6v2.8h-0.7V149.7z"/>
	</g>
</g>
</svg>
