<?xml version="1.0" encoding="utf-8"?>
<!-- Generator: Adobe Illustrator 28.0.0, SVG Export Plug-In . SVG Version: 6.00 Build 0)  -->
<svg version="1.1" id="svg1" xmlns:svg="http://www.w3.org/2000/svg"
	 xmlns="http://www.w3.org/2000/svg" xmlns:xlink="http://www.w3.org/1999/xlink" x="0px" y="0px" viewBox="0 0 83.4 15.6"
	 style="enable-background:new 0 0 83.4 15.6;" xml:space="preserve">
<style type="text/css">
	.st0{clip-path:url(#SVGID_00000128470999362786095780000001559285964080209577_);fill:#78C32B;}
	.st1{clip-path:url(#SVGID_00000062888789346428796000000011091980126128313535_);fill:#211D1D;}
	.st2{clip-path:url(#SVGID_00000159429888515051756790000011495606560139493804_);fill:#211D1D;}
	.st3{clip-path:url(#SVGID_00000178187027370126432710000004724758243989008017_);fill:#211D1D;}
	.st4{clip-path:url(#SVGID_00000168804371340825751400000007234060966967193729_);fill:#211D1D;}
	.st5{clip-path:url(#SVGID_00000042729880585772991710000005382950356232524712_);fill:#211D1D;}
	.st6{clip-path:url(#SVGID_00000031911272740202897650000008174410172607092116_);fill:#211D1D;}
	.st7{clip-path:url(#SVGID_00000039111352121477307070000009154337551040340649_);fill:#211D1D;}
	.st8{clip-path:url(#SVGID_00000093899658258084737480000017934906921503211659_);fill:#211D1D;}
	.st9{clip-path:url(#SVGID_00000119115997657307658600000008459191123531458183_);fill:#211D1D;}
</style>
<g id="layer1" transform="translate(-84.933086,-112.19603)">
	<g>
		<defs>
			<rect id="SVGID_1_" x="-174.7" y="-402.6" width="1207.6" height="858.9"/>
		</defs>
		<clipPath id="SVGID_00000103975978741823155220000007137783649173918085_">
			<use xlink:href="#SVGID_1_"  style="overflow:visible;"/>
		</clipPath>
		<path id="path4126" style="clip-path:url(#SVGID_00000103975978741823155220000007137783649173918085_);fill:#78C32B;" d="
			M163.9,125.6c0-1.2,1-2.2,2.2-2.2c1.2,0,2.2,1,2.2,2.2s-1,2.2-2.2,2.2C164.9,127.8,163.9,126.8,163.9,125.6"/>
	</g>
	<g>
		<defs>
			<rect id="SVGID_00000163780360731699505660000006848158557197057457_" x="-174.7" y="-402.6" width="1207.6" height="858.9"/>
		</defs>
		<clipPath id="SVGID_00000068670184128275860820000014622203931683645318_">
			<use xlink:href="#SVGID_00000163780360731699505660000006848158557197057457_"  style="overflow:visible;"/>
		</clipPath>
		<path id="path4128" style="clip-path:url(#SVGID_00000068670184128275860820000014622203931683645318_);fill:#211D1D;" d="
			M93.4,119.7c0-1.4-0.3-2.4-0.8-3.1c-0.5-0.7-1.4-1-2.5-1H89v8.6h0.9c1.2,0,2.1-0.4,2.7-1.1C93.1,122.3,93.4,121.2,93.4,119.7
			 M97.6,119.6c0,2.5-0.7,4.5-2.1,5.9c-1.4,1.4-3.3,2.1-5.8,2.1h-4.8v-15.3h5.2c2.4,0,4.2,0.6,5.5,1.9
			C96.9,115.4,97.6,117.2,97.6,119.6"/>
	</g>
	<g>
		<defs>
			<rect id="SVGID_00000025410841317736344970000004188142351418390176_" x="-174.7" y="-402.6" width="1207.6" height="858.9"/>
		</defs>
		<clipPath id="SVGID_00000111178685036903200940000012093401480995552939_">
			<use xlink:href="#SVGID_00000025410841317736344970000004188142351418390176_"  style="overflow:visible;"/>
		</clipPath>
		<path id="path4130" style="clip-path:url(#SVGID_00000111178685036903200940000012093401480995552939_);fill:#211D1D;" d="
			M111,127.5h3.8v-15.3H111V127.5z"/>
	</g>
	<g>
		<defs>
			<rect id="SVGID_00000080901786824838870070000002413687162402546562_" x="-174.7" y="-402.6" width="1207.6" height="858.9"/>
		</defs>
		<clipPath id="SVGID_00000147207359917197811710000010523805854452033676_">
			<use xlink:href="#SVGID_00000080901786824838870070000002413687162402546562_"  style="overflow:visible;"/>
		</clipPath>
		<path id="path4132" style="clip-path:url(#SVGID_00000147207359917197811710000010523805854452033676_);fill:#211D1D;" d="
			M120.2,121.8c0,1,0.1,1.7,0.4,2.2c0.3,0.5,0.7,0.8,1.3,0.8c0.6,0,1-0.3,1.3-0.8c0.2-0.5,0.4-1.3,0.4-2.2c0-1-0.1-1.7-0.4-2.2
			c-0.2-0.5-0.7-0.7-1.3-0.7c-0.6,0-1,0.2-1.3,0.7C120.3,120.1,120.2,120.8,120.2,121.8 M127.4,121.8c0,1.9-0.5,3.3-1.5,4.4
			c-1,1-2.4,1.6-4.1,1.6c-1.7,0-3-0.5-4-1.6c-1-1.1-1.5-2.5-1.5-4.3c0-1.9,0.5-3.3,1.5-4.3c1-1,2.4-1.5,4.1-1.5
			c1.1,0,2.1,0.2,2.9,0.7c0.8,0.5,1.5,1.2,1.9,2C127.2,119.6,127.4,120.6,127.4,121.8"/>
	</g>
	<g>
		<defs>
			<rect id="SVGID_00000113321988036377923920000014716200326431912383_" x="-174.7" y="-402.6" width="1207.6" height="858.9"/>
		</defs>
		<clipPath id="SVGID_00000038378674053839340100000008879042971450618259_">
			<use xlink:href="#SVGID_00000113321988036377923920000014716200326431912383_"  style="overflow:visible;"/>
		</clipPath>
		<path id="path4134" style="clip-path:url(#SVGID_00000038378674053839340100000008879042971450618259_);fill:#211D1D;" d="
			M128.9,127.5h3.8v-11.4h-3.8V127.5z"/>
	</g>
	<g>
		<defs>
			<rect id="SVGID_00000103957826140065835870000009465394572339131015_" x="-174.7" y="-402.6" width="1207.6" height="858.9"/>
		</defs>
		<clipPath id="SVGID_00000090271545335574569810000006882075952902297221_">
			<use xlink:href="#SVGID_00000103957826140065835870000009465394572339131015_"  style="overflow:visible;"/>
		</clipPath>
		<path id="path4136" style="clip-path:url(#SVGID_00000090271545335574569810000006882075952902297221_);fill:#211D1D;" d="
			M128.9,114.8h3.8v-2.6h-3.8V114.8z"/>
	</g>
	<g>
		<defs>
			<rect id="SVGID_00000022521160419589005510000007792937814941785735_" x="-174.7" y="-402.6" width="1207.6" height="858.9"/>
		</defs>
		<clipPath id="SVGID_00000098205924227057965900000012466912185229427846_">
			<use xlink:href="#SVGID_00000022521160419589005510000007792937814941785735_"  style="overflow:visible;"/>
		</clipPath>
		<path id="path4138" style="clip-path:url(#SVGID_00000098205924227057965900000012466912185229427846_);fill:#211D1D;" d="
			M140.6,124.6c0.5,0,1.1-0.1,1.9-0.4v2.9c-0.5,0.2-1,0.4-1.5,0.5c-0.5,0.1-1,0.1-1.6,0.1c-1.3,0-2.2-0.3-2.8-1
			c-0.6-0.6-0.9-1.6-0.9-3v-4.7h-1.3v-2.9h1.3v-2.9l3.9-0.7v3.6h2.5v2.9h-2.5v4.4C139.5,124.3,139.9,124.6,140.6,124.6"/>
	</g>
	<g>
		<defs>
			<rect id="SVGID_00000090973528230017437730000002365025537757772959_" x="-174.7" y="-402.6" width="1207.6" height="858.9"/>
		</defs>
		<clipPath id="SVGID_00000085250670814786918270000006280703622479648682_">
			<use xlink:href="#SVGID_00000090973528230017437730000002365025537757772959_"  style="overflow:visible;"/>
		</clipPath>
		<path id="path4140" style="clip-path:url(#SVGID_00000085250670814786918270000006280703622479648682_);fill:#211D1D;" d="
			M149.5,124.6c0.5,0,1.1-0.1,1.9-0.4v2.9c-0.5,0.2-1,0.4-1.5,0.5c-0.5,0.1-1,0.1-1.6,0.1c-1.3,0-2.2-0.3-2.8-1
			c-0.6-0.6-0.9-1.6-0.9-3v-4.7h-1.3v-2.9h1.3v-3l3.9-0.6v3.6h2.5v2.9h-2.5v4.4C148.4,124.3,148.8,124.6,149.5,124.6"/>
	</g>
	<g>
		<defs>
			<rect id="SVGID_00000131363208977805258300000002662047884539211197_" x="-174.7" y="-402.6" width="1207.6" height="858.9"/>
		</defs>
		<clipPath id="SVGID_00000148623155699953781400000004257775820463345065_">
			<use xlink:href="#SVGID_00000131363208977805258300000002662047884539211197_"  style="overflow:visible;"/>
		</clipPath>
		<path id="path4142" style="clip-path:url(#SVGID_00000148623155699953781400000004257775820463345065_);fill:#211D1D;" d="
			M156.2,120.4c0.1-0.6,0.2-1.1,0.5-1.4c0.3-0.3,0.7-0.4,1.1-0.4c0.5,0,0.9,0.2,1.2,0.5c0.3,0.3,0.4,0.8,0.5,1.3H156.2z
			 M161.6,117.3c-0.9-0.9-2.2-1.3-3.9-1.3c-1.8,0-3.1,0.5-4.1,1.5c-0.9,1-1.4,2.5-1.4,4.4c0,1.9,0.5,3.3,1.5,4.3
			c1,1,2.5,1.5,4.3,1.5c0.9,0,1.7-0.1,2.3-0.2c0.6-0.1,1.3-0.3,1.9-0.6l-0.6-2.6c-0.4,0.2-0.9,0.3-1.2,0.4c-0.6,0.1-1.2,0.2-1.9,0.2
			c-0.7,0-1.3-0.2-1.8-0.5c-0.4-0.4-0.7-0.9-0.7-1.5h6.9v-1.8C163,119.5,162.5,118.2,161.6,117.3"/>
	</g>
	<g>
		<defs>
			<rect id="SVGID_00000008134511777665614290000003193509990233720990_" x="-174.7" y="-402.6" width="1207.6" height="858.9"/>
		</defs>
		<clipPath id="SVGID_00000157994788176936195550000011665566730701955725_">
			<use xlink:href="#SVGID_00000008134511777665614290000003193509990233720990_"  style="overflow:visible;"/>
		</clipPath>
		<path id="path4144" style="clip-path:url(#SVGID_00000157994788176936195550000011665566730701955725_);fill:#211D1D;" d="
			M102.7,120.4c0.1-0.6,0.2-1.1,0.5-1.4c0.3-0.3,0.7-0.4,1.1-0.4c0.5,0,0.9,0.2,1.2,0.5c0.3,0.3,0.4,0.8,0.5,1.3H102.7z
			 M108.1,117.3c-0.9-0.9-2.2-1.3-3.9-1.3c-1.8,0-3.1,0.5-4.1,1.5c-0.9,1-1.4,2.5-1.4,4.4c0,1.9,0.5,3.3,1.5,4.3
			c1,1,2.5,1.5,4.3,1.5c0.9,0,1.7-0.1,2.3-0.2c0.6-0.1,1.3-0.3,1.9-0.6l-0.6-2.6c-0.4,0.2-0.9,0.3-1.2,0.4c-0.6,0.1-1.2,0.2-1.9,0.2
			c-0.7,0-1.3-0.2-1.8-0.5c-0.4-0.4-0.7-0.9-0.7-1.5h6.9v-1.8C109.5,119.5,109,118.2,108.1,117.3"/>
	</g>
</g>
</svg>
