<?xml version="1.0" encoding="utf-8"?>
<!-- Generator: Adobe Illustrator 28.0.0, SVG Export Plug-In . SVG Version: 6.00 Build 0)  -->
<svg version="1.1" id="svg1" xmlns:svg="http://www.w3.org/2000/svg"
	 xmlns="http://www.w3.org/2000/svg" xmlns:xlink="http://www.w3.org/1999/xlink" x="0px" y="0px" viewBox="0 0 166.6 32.5"
	 style="enable-background:new 0 0 166.6 32.5;" xml:space="preserve">
<style type="text/css">
	.st0{clip-path:url(#SVGID_00000051342560944830022160000007768104398027489701_);fill:#438CC4;}
	.st1{clip-path:url(#SVGID_00000089574349649038611540000006003177746388475288_);fill:#438CC4;}
	.st2{clip-path:url(#SVGID_00000136402750902705093950000008071146978665940632_);fill:#438CC4;}
	.st3{clip-path:url(#SVGID_00000137830797098022158610000002141626717055804346_);fill:#438CC4;}
	.st4{clip-path:url(#SVGID_00000152946088335506689360000003517298649384403601_);fill:#438CC4;}
	.st5{clip-path:url(#SVGID_00000160190701708667913580000012621857223707971986_);fill:#438CC4;}
	.st6{clip-path:url(#SVGID_00000005226284399195320880000007710522107148184224_);fill:#438CC4;}
	.st7{clip-path:url(#SVGID_00000009570194433485441910000015751347390039044006_);fill:#438CC4;}
	.st8{clip-path:url(#SVGID_00000029012803823507486870000018136993942094555560_);fill:#438CC4;}
	.st9{clip-path:url(#SVGID_00000057123076562573544480000016407436564875350407_);fill:#438CC4;}
	.st10{clip-path:url(#SVGID_00000142156253082148755360000013506390493654691209_);fill:#438CC4;}
	.st11{clip-path:url(#SVGID_00000159431106315040887930000004045024959038669958_);fill:#438CC4;}
	.st12{clip-path:url(#SVGID_00000073001421379091704730000013618900676670588322_);fill:#438CC4;}
	.st13{clip-path:url(#SVGID_00000160167654109763259750000009581859842993695133_);fill:#438CC4;}
	.st14{clip-path:url(#SVGID_00000044886524879922759130000001890856442404096439_);fill:#438CC4;}
	.st15{clip-path:url(#SVGID_00000098913813218259655850000017591748751557547401_);fill:#438CC4;}
	
		.st16{clip-path:url(#SVGID_00000057865241235879436950000002663141072871188661_);fill-rule:evenodd;clip-rule:evenodd;fill:#438CC4;}
	
		.st17{clip-path:url(#SVGID_00000080917260648710454430000016339114244543345076_);fill-rule:evenodd;clip-rule:evenodd;fill:#438CC4;}
	
		.st18{clip-path:url(#SVGID_00000040561271179951952970000000795781443317019552_);fill-rule:evenodd;clip-rule:evenodd;fill:#438CC4;}
	
		.st19{clip-path:url(#SVGID_00000166673828296082377250000018230457308977626555_);fill-rule:evenodd;clip-rule:evenodd;fill:#438CC4;}
	
		.st20{clip-path:url(#SVGID_00000072989144834224587990000010329220012440710061_);fill-rule:evenodd;clip-rule:evenodd;fill:#438CC4;}
	
		.st21{clip-path:url(#SVGID_00000027595859330447143420000007250449954398587051_);fill-rule:evenodd;clip-rule:evenodd;fill:#304087;}
	
		.st22{clip-path:url(#SVGID_00000010991709548480762100000004765738764111785142_);fill-rule:evenodd;clip-rule:evenodd;fill:#304087;}
	.st23{clip-path:url(#SVGID_00000119089117831510767610000001754743913635583901_);fill:#0E0F0F;}
	.st24{clip-path:url(#SVGID_00000147211939314372012600000016558543817432884612_);fill:#0E0F0F;}
	.st25{clip-path:url(#SVGID_00000171697123140386920900000016421974681546970815_);fill:#0E0F0F;}
	.st26{clip-path:url(#SVGID_00000077302680833490291170000004175560953576549814_);fill:#0E0F0F;}
	.st27{clip-path:url(#SVGID_00000036252637201215576190000014194107377654544271_);fill:#0E0F0F;}
	.st28{clip-path:url(#SVGID_00000151509933350690915840000005713166568191546038_);fill:#0E0F0F;}
	.st29{clip-path:url(#SVGID_00000163770524265390035410000014045439390849401004_);fill:#0E0F0F;}
	.st30{clip-path:url(#SVGID_00000007429053898684860670000015972498485373713032_);fill:#0E0F0F;}
	.st31{clip-path:url(#SVGID_00000017510503412548689770000013391902252531124149_);fill:#0E0F0F;}
	.st32{clip-path:url(#SVGID_00000161624775902485177480000012315253392826373020_);fill:#0E0F0F;}
	.st33{clip-path:url(#SVGID_00000128459369658350662520000011029819975050751902_);fill:#0E0F0F;}
	.st34{clip-path:url(#SVGID_00000039848590243209673780000010883609742721248901_);fill:#0E0F0F;}
	.st35{clip-path:url(#SVGID_00000065067740250977219570000006446948034123812270_);fill:#0E0F0F;}
	.st36{clip-path:url(#SVGID_00000075151651195263692480000000374570944246982534_);fill:#0E0F0F;}
	.st37{clip-path:url(#SVGID_00000042000385612662000090000008749106527845175697_);fill:#0E0F0F;}
	.st38{clip-path:url(#SVGID_00000182486203246430488430000012514618190168238254_);fill:#0E0F0F;}
	.st39{clip-path:url(#SVGID_00000063632954872097063240000014990002654768416643_);fill:#0E0F0F;}
	.st40{clip-path:url(#SVGID_00000111882809098292560340000008537098994081838733_);fill:#0E0F0F;}
	.st41{clip-path:url(#SVGID_00000147900684315470469790000002400066147030129308_);fill:#0E0F0F;}
	.st42{clip-path:url(#SVGID_00000091702940484418177450000012109797281034557352_);fill:#0E0F0F;}
	.st43{clip-path:url(#SVGID_00000059306531504809473230000006737289557479194037_);fill:#0E0F0F;}
	.st44{clip-path:url(#SVGID_00000072970970596159383230000015793814402725799560_);fill:#0E0F0F;}
	.st45{clip-path:url(#SVGID_00000006686968248707538920000002377195852778927010_);fill:#0E0F0F;}
	.st46{clip-path:url(#SVGID_00000030449944243704351630000013907059262929837215_);fill:#0E0F0F;}
	.st47{clip-path:url(#SVGID_00000170260081318202574550000002432058148100615844_);fill:#0E0F0F;}
	.st48{clip-path:url(#SVGID_00000145759053741250062420000014894722890611610554_);fill:#0E0F0F;}
	.st49{clip-path:url(#SVGID_00000029727237888400852690000007406938844569521285_);fill:#0E0F0F;}
	.st50{clip-path:url(#SVGID_00000148654928270490170250000016382712943244077742_);fill:#0E0F0F;}
	.st51{clip-path:url(#SVGID_00000077311289740245038970000010819882966231041172_);fill:#0E0F0F;}
	.st52{clip-path:url(#SVGID_00000101800160657189775430000002487881709972573337_);fill:#0E0F0F;}
	.st53{clip-path:url(#SVGID_00000164515071898303212360000011848832520608547976_);fill:#0E0F0F;}
	.st54{clip-path:url(#SVGID_00000182499754300239616850000005653791587885152141_);fill:#0E0F0F;}
	.st55{clip-path:url(#SVGID_00000080887767303543613060000009645635517202852241_);fill:#0E0F0F;}
	.st56{clip-path:url(#SVGID_00000062179386383831957490000004897164306002920879_);fill:#0E0F0F;}
	.st57{clip-path:url(#SVGID_00000056429440429711140970000016207380168942723742_);fill:#0E0F0F;}
	.st58{clip-path:url(#SVGID_00000014617596206204295630000002930971959718163847_);fill:#0E0F0F;}
	.st59{clip-path:url(#SVGID_00000091010459537034831110000013777070133886122406_);fill:#0E0F0F;}
	.st60{clip-path:url(#SVGID_00000120517764392619278360000018213823160067563702_);fill:#0E0F0F;}
	.st61{clip-path:url(#SVGID_00000070815869574747310210000003407398878489108613_);fill:#0E0F0F;}
	.st62{clip-path:url(#SVGID_00000147922117606397603390000002001325822954832268_);fill:#0E0F0F;}
	.st63{clip-path:url(#SVGID_00000044142391257882994870000012414949168531198873_);fill:#0E0F0F;}
	.st64{clip-path:url(#SVGID_00000128454673351866931750000007609361010470392974_);fill:#0E0F0F;}
	.st65{clip-path:url(#SVGID_00000170237056647649813010000011772156652769168784_);fill:#0E0F0F;}
	.st66{clip-path:url(#SVGID_00000090272883806713932230000009522149862951224998_);fill:#0E0F0F;}
	.st67{clip-path:url(#SVGID_00000180353727072162584560000008066785862366398109_);fill:#0E0F0F;}
	.st68{clip-path:url(#SVGID_00000133492215787735360230000000576317027102816651_);fill:#0E0F0F;}
	.st69{clip-path:url(#SVGID_00000145770404132224480210000009704390866088277678_);fill:#0E0F0F;}
</style>
<g id="layer1" transform="translate(-54.889045,-130.33732)">
	<g>
		<defs>
			<rect id="SVGID_1_" x="-119.5" y="-435.9" width="1207.6" height="858.9"/>
		</defs>
		<clipPath id="SVGID_00000148633857653210736420000002284824765393994134_">
			<use xlink:href="#SVGID_1_"  style="overflow:visible;"/>
		</clipPath>
		<path id="path2133" style="clip-path:url(#SVGID_00000148633857653210736420000002284824765393994134_);fill:#438CC4;" d="
			M64,162.9h-1.8c-1.6,0-2.9-1.3-2.9-2.9c0-1.6,1.3-2.9,2.9-2.9H64v0.6h-1.8c-1.3,0-2.1,1.1-2.1,2.4c0,1.3,0.8,2.4,2.1,2.4H64V162.9
			z"/>
	</g>
	<g>
		<defs>
			<rect id="SVGID_00000123428561643799112470000001755136904121124019_" x="-119.5" y="-435.9" width="1207.6" height="858.9"/>
		</defs>
		<clipPath id="SVGID_00000139264457141726565380000016169717846202570382_">
			<use xlink:href="#SVGID_00000123428561643799112470000001755136904121124019_"  style="overflow:visible;"/>
		</clipPath>
		<path id="path2135" style="clip-path:url(#SVGID_00000139264457141726565380000016169717846202570382_);fill:#438CC4;" d="
			M64,161.9h-1.4c-1.1,0-2-0.9-2-2c0-1.1,0.9-2,2-2H64v0.6h-1.4c-0.8,0-1.4,0.6-1.4,1.4c0,0.8,0.6,1.4,1.4,1.4H64V161.9z"/>
	</g>
	<g>
		<defs>
			<rect id="SVGID_00000092444680136957580210000007500651940582241454_" x="-119.5" y="-435.9" width="1207.6" height="858.9"/>
		</defs>
		<clipPath id="SVGID_00000101791143137293721250000016572010587347892101_">
			<use xlink:href="#SVGID_00000092444680136957580210000007500651940582241454_"  style="overflow:visible;"/>
		</clipPath>
		<path id="path2137" style="clip-path:url(#SVGID_00000101791143137293721250000016572010587347892101_);fill:#438CC4;" d="
			M76,162.9h-4.6v-0.6H76V162.9z"/>
	</g>
	<g>
		<defs>
			<rect id="SVGID_00000126291357171790600250000003321046917338549654_" x="-119.5" y="-435.9" width="1207.6" height="858.9"/>
		</defs>
		<clipPath id="SVGID_00000054946953823971632320000014938874486534973880_">
			<use xlink:href="#SVGID_00000126291357171790600250000003321046917338549654_"  style="overflow:visible;"/>
		</clipPath>
		<path id="path2139" style="clip-path:url(#SVGID_00000054946953823971632320000014938874486534973880_);fill:#438CC4;" d="
			M76,161.9h-3.2v-0.6H76V161.9z"/>
	</g>
	<g>
		<defs>
			<rect id="SVGID_00000036222712200819499470000002905190447671412120_" x="-119.5" y="-435.9" width="1207.6" height="858.9"/>
		</defs>
		<clipPath id="SVGID_00000008869766012970995960000006339047739114432444_">
			<use xlink:href="#SVGID_00000036222712200819499470000002905190447671412120_"  style="overflow:visible;"/>
		</clipPath>
		<path id="path2141" style="clip-path:url(#SVGID_00000008869766012970995960000006339047739114432444_);fill:#438CC4;" d="
			M73.4,161.9h-0.6V157h0.6V161.9z"/>
	</g>
	<g>
		<defs>
			<rect id="SVGID_00000049203966958383207290000008215115472280240266_" x="-119.5" y="-435.9" width="1207.6" height="858.9"/>
		</defs>
		<clipPath id="SVGID_00000099644764960808740700000008611578111053529535_">
			<use xlink:href="#SVGID_00000049203966958383207290000008215115472280240266_"  style="overflow:visible;"/>
		</clipPath>
		<path id="path2143" style="clip-path:url(#SVGID_00000099644764960808740700000008611578111053529535_);fill:#438CC4;" d="
			M72.3,162.9h-0.8V157h0.8V162.9z"/>
	</g>
	<g>
		<defs>
			<rect id="SVGID_00000131362868457025784310000011260701110233538734_" x="-119.5" y="-435.9" width="1207.6" height="858.9"/>
		</defs>
		<clipPath id="SVGID_00000092457338808322340990000002312140846117402274_">
			<use xlink:href="#SVGID_00000131362868457025784310000011260701110233538734_"  style="overflow:visible;"/>
		</clipPath>
		<path id="path2145" style="clip-path:url(#SVGID_00000092457338808322340990000002312140846117402274_);fill:#438CC4;" d="
			M70.1,157.6h-4.3V157h4.3V157.6z"/>
	</g>
	<g>
		<defs>
			<rect id="SVGID_00000091721429114665878950000017475093827503997349_" x="-119.5" y="-435.9" width="1207.6" height="858.9"/>
		</defs>
		<clipPath id="SVGID_00000142854859135037990760000009175139749108168093_">
			<use xlink:href="#SVGID_00000091721429114665878950000017475093827503997349_"  style="overflow:visible;"/>
		</clipPath>
		<path id="path2147" style="clip-path:url(#SVGID_00000142854859135037990760000009175139749108168093_);fill:#438CC4;" d="
			M67.3,162.9h-0.6v-2.7h0.6V162.9z"/>
	</g>
	<g>
		<defs>
			<rect id="SVGID_00000169540075650825668950000011360180975858656680_" x="-119.5" y="-435.9" width="1207.6" height="858.9"/>
		</defs>
		<clipPath id="SVGID_00000072260251360644741860000001379402774196624547_">
			<use xlink:href="#SVGID_00000169540075650825668950000011360180975858656680_"  style="overflow:visible;"/>
		</clipPath>
		<path id="path2149" style="clip-path:url(#SVGID_00000072260251360644741860000001379402774196624547_);fill:#438CC4;" d="
			M67.3,159.8h-0.6v-1.9h3.4v0.6h-2.8V159.8z"/>
	</g>
	<g>
		<defs>
			<rect id="SVGID_00000103224614347666544130000002770073461568386987_" x="-119.5" y="-435.9" width="1207.6" height="858.9"/>
		</defs>
		<clipPath id="SVGID_00000072268371889353773440000003917130133146718098_">
			<use xlink:href="#SVGID_00000103224614347666544130000002770073461568386987_"  style="overflow:visible;"/>
		</clipPath>
		<path id="path2151" style="clip-path:url(#SVGID_00000072268371889353773440000003917130133146718098_);fill:#438CC4;" d="
			M66.2,162.9h-0.8V157h0.8V162.9z"/>
	</g>
	<g>
		<defs>
			<rect id="SVGID_00000150796648372649887780000005038648845981986439_" x="-119.5" y="-435.9" width="1207.6" height="858.9"/>
		</defs>
		<clipPath id="SVGID_00000100364021901510477060000005825399539054488764_">
			<use xlink:href="#SVGID_00000150796648372649887780000005038648845981986439_"  style="overflow:visible;"/>
		</clipPath>
		<path id="path2153" style="clip-path:url(#SVGID_00000100364021901510477060000005825399539054488764_);fill:#438CC4;" d="
			M69.9,159.8h-3.1v-0.4h3.1V159.8z"/>
	</g>
	<g>
		<defs>
			<rect id="SVGID_00000165915766963837630410000000577801951363874975_" x="-119.5" y="-435.9" width="1207.6" height="858.9"/>
		</defs>
		<clipPath id="SVGID_00000018915834350313663770000016856542547943791031_">
			<use xlink:href="#SVGID_00000165915766963837630410000000577801951363874975_"  style="overflow:visible;"/>
		</clipPath>
		<path id="path2155" style="clip-path:url(#SVGID_00000018915834350313663770000016856542547943791031_);fill:#438CC4;" d="
			M69.9,160.6h-3.1v-0.4h3.1V160.6z"/>
	</g>
	<g>
		<defs>
			<rect id="SVGID_00000018204572137386768790000014957255581375647913_" x="-119.5" y="-435.9" width="1207.6" height="858.9"/>
		</defs>
		<clipPath id="SVGID_00000003093207361395574690000002027867351070399364_">
			<use xlink:href="#SVGID_00000018204572137386768790000014957255581375647913_"  style="overflow:visible;"/>
		</clipPath>
		<path id="path2157" style="clip-path:url(#SVGID_00000003093207361395574690000002027867351070399364_);fill:#438CC4;" d="
			M79.3,162.9h-0.6v-2.5h0.6V162.9z"/>
	</g>
	<g>
		<defs>
			<rect id="SVGID_00000104694982390494756430000016899605948871324292_" x="-119.5" y="-435.9" width="1207.6" height="858.9"/>
		</defs>
		<clipPath id="SVGID_00000096059510304120377680000009286178192072552591_">
			<use xlink:href="#SVGID_00000104694982390494756430000016899605948871324292_"  style="overflow:visible;"/>
		</clipPath>
		<path id="path2159" style="clip-path:url(#SVGID_00000096059510304120377680000009286178192072552591_);fill:#438CC4;" d="
			M78.2,162.9h-0.8V157h0.8V162.9z"/>
	</g>
	<g>
		<defs>
			<rect id="SVGID_00000093859960814772897210000008439331040178344361_" x="-119.5" y="-435.9" width="1207.6" height="858.9"/>
		</defs>
		<clipPath id="SVGID_00000152961138339484507500000000414652982565639078_">
			<use xlink:href="#SVGID_00000093859960814772897210000008439331040178344361_"  style="overflow:visible;"/>
		</clipPath>
		<path id="path2161" style="clip-path:url(#SVGID_00000152961138339484507500000000414652982565639078_);fill:#438CC4;" d="
			M80.2,160.9h-1.4v-0.6h1.4c0.8,0,1.4-0.6,1.4-1.4c0-0.8-0.6-1.4-1.4-1.4h-2.8V157h2.8c1.1,0,2,0.9,2,1.9
			C82.2,160,81.3,160.9,80.2,160.9"/>
	</g>
	<g>
		<defs>
			<rect id="SVGID_00000126315041776921838490000016439336550611350947_" x="-119.5" y="-435.9" width="1207.6" height="858.9"/>
		</defs>
		<clipPath id="SVGID_00000019670717996361043230000007097896561620975030_">
			<use xlink:href="#SVGID_00000126315041776921838490000016439336550611350947_"  style="overflow:visible;"/>
		</clipPath>
		<path id="path2163" style="clip-path:url(#SVGID_00000019670717996361043230000007097896561620975030_);fill:#438CC4;" d="
			M79.3,159.3h0.8c0.2,0,0.4-0.2,0.4-0.4s-0.2-0.4-0.4-0.4h-0.8V159.3z M80.1,159.9h-1.3V158h1.3c0.5,0,1,0.4,1,1
			S80.6,159.9,80.1,159.9"/>
	</g>
	<g>
		<defs>
			<rect id="SVGID_00000155850368250230512340000005373126820487256193_" x="-119.5" y="-435.9" width="1207.6" height="858.9"/>
		</defs>
		<clipPath id="SVGID_00000130647249663252462460000015289203142125543812_">
			<use xlink:href="#SVGID_00000155850368250230512340000005373126820487256193_"  style="overflow:visible;"/>
		</clipPath>
		
			<path id="path2165" style="clip-path:url(#SVGID_00000130647249663252462460000015289203142125543812_);fill-rule:evenodd;clip-rule:evenodd;fill:#438CC4;" d="
			M57.6,138.8c0,0,1.4,2.4,3.9,3.9c0,0-1.9-0.4-4.2-2.9C57.2,139.8,57.3,139.1,57.6,138.8"/>
	</g>
	<g>
		<defs>
			<rect id="SVGID_00000039845502060677708870000015274049479477144245_" x="-119.5" y="-435.9" width="1207.6" height="858.9"/>
		</defs>
		<clipPath id="SVGID_00000082341777069977823390000017863675839031988871_">
			<use xlink:href="#SVGID_00000039845502060677708870000015274049479477144245_"  style="overflow:visible;"/>
		</clipPath>
		
			<path id="path2167" style="clip-path:url(#SVGID_00000082341777069977823390000017863675839031988871_);fill-rule:evenodd;clip-rule:evenodd;fill:#438CC4;" d="
			M57.2,140.4c0,0,2.9,3.2,4.8,3.9c0,0-1.9,0-5-2.9C57,141.4,57.1,140.7,57.2,140.4"/>
	</g>
	<g>
		<defs>
			<rect id="SVGID_00000159469666133165552760000017647241959525401488_" x="-119.5" y="-435.9" width="1207.6" height="858.9"/>
		</defs>
		<clipPath id="SVGID_00000109738015357804675510000008349842721298515337_">
			<use xlink:href="#SVGID_00000159469666133165552760000017647241959525401488_"  style="overflow:visible;"/>
		</clipPath>
		
			<path id="path2169" style="clip-path:url(#SVGID_00000109738015357804675510000008349842721298515337_);fill-rule:evenodd;clip-rule:evenodd;fill:#438CC4;" d="
			M56.2,141c0,0,4.3,4.2,7.5,5.1c0,0-3-0.1-7.9-4.1C55.9,142,56,141.2,56.2,141"/>
	</g>
	<g>
		<defs>
			<rect id="SVGID_00000165210450264617496170000017352718803867863952_" x="-119.5" y="-435.9" width="1207.6" height="858.9"/>
		</defs>
		<clipPath id="SVGID_00000119814096389066010540000003192255421764759688_">
			<use xlink:href="#SVGID_00000165210450264617496170000017352718803867863952_"  style="overflow:visible;"/>
		</clipPath>
		
			<path id="path2171" style="clip-path:url(#SVGID_00000119814096389066010540000003192255421764759688_);fill-rule:evenodd;clip-rule:evenodd;fill:#438CC4;" d="
			M55.3,141.8c0,0,3.3,3.3,9.1,5.7c0,0-5.2-1.1-9.5-4.7C54.9,142.7,55.1,142.1,55.3,141.8"/>
	</g>
	<g>
		<defs>
			<rect id="SVGID_00000030480872778328292640000017810245262622964152_" x="-119.5" y="-435.9" width="1207.6" height="858.9"/>
		</defs>
		<clipPath id="SVGID_00000060724535836861436180000002237779793537404832_">
			<use xlink:href="#SVGID_00000030480872778328292640000017810245262622964152_"  style="overflow:visible;"/>
		</clipPath>
		
			<path id="path2173" style="clip-path:url(#SVGID_00000060724535836861436180000002237779793537404832_);fill-rule:evenodd;clip-rule:evenodd;fill:#438CC4;" d="
			M55.3,143.3c0,0,5.4,4.8,10.2,5.5c0,0-4.8,0.1-10.4-4.5L55.3,143.3z"/>
	</g>
	<g>
		<defs>
			<rect id="SVGID_00000159433015939895108700000001281432532108358040_" x="-119.5" y="-435.9" width="1207.6" height="858.9"/>
		</defs>
		<clipPath id="SVGID_00000034798653030610958660000015333977394624471184_">
			<use xlink:href="#SVGID_00000159433015939895108700000001281432532108358040_"  style="overflow:visible;"/>
		</clipPath>
		
			<path id="path2175" style="clip-path:url(#SVGID_00000034798653030610958660000015333977394624471184_);fill-rule:evenodd;clip-rule:evenodd;fill:#304087;" d="
			M74.8,130.8c0,0,11.1,2.8,8.1,15c0,0-2.3,7.9-13.5,7.6c0,0-5.3-0.1-9.1-5.1c0,0,6.2,2.7,12.1-0.2c0,0,6.2-2.5,5.6-11.1
			C78,137.1,77.9,134.2,74.8,130.8"/>
	</g>
	<g>
		<defs>
			<rect id="SVGID_00000066506366930730692280000007462327450689729423_" x="-119.5" y="-435.9" width="1207.6" height="858.9"/>
		</defs>
		<clipPath id="SVGID_00000148655741677279431500000007773886409592951446_">
			<use xlink:href="#SVGID_00000066506366930730692280000007462327450689729423_"  style="overflow:visible;"/>
		</clipPath>
		
			<path id="path2177" style="clip-path:url(#SVGID_00000148655741677279431500000007773886409592951446_);fill-rule:evenodd;clip-rule:evenodd;fill:#304087;" d="
			M73.4,130.5c0,0,4,3.5,2.5,8.2c0,0-2.1,6.7-12,4.1c0,0-3.7-1.2-5.4-3.5c0,0,0.7-4.6,5.6-7.2C64.1,132,67.8,129.8,73.4,130.5"/>
	</g>
	<g>
		<defs>
			<rect id="SVGID_00000095321101933550843410000005788222721526483842_" x="-119.5" y="-435.9" width="1207.6" height="858.9"/>
		</defs>
		<clipPath id="SVGID_00000109008393250581594760000004875666630854381452_">
			<use xlink:href="#SVGID_00000095321101933550843410000005788222721526483842_"  style="overflow:visible;"/>
		</clipPath>
		<path id="path2179" style="clip-path:url(#SVGID_00000109008393250581594760000004875666630854381452_);fill:#0E0F0F;" d="
			M102.8,138.6h-3.2v2.9h3.2V138.6z M98.6,138.6h-3.2v2.9h3.2V138.6z M99.7,135.2c0,0.9,0,1.8,0,2.6h4.3c0,0.7-0.1,1.6-0.1,2.7
			c0,1.1,0,2,0.1,2.5h-1.1v-0.7h-3.2v2.1c0,0.4,0,1.1,0,2.2h-1.2c0.1-0.6,0.1-1.3,0.1-2.1v-2.3h-3.2v0.7h-1.1c0-0.5,0.1-1.3,0.1-2.5
			c0-1.2,0-2.1-0.1-2.7h4.3c0-0.9,0-1.8,0-2.6L99.7,135.2z"/>
	</g>
	<g>
		<defs>
			<rect id="SVGID_00000162335703332053669660000010257573787015391934_" x="-119.5" y="-435.9" width="1207.6" height="858.9"/>
		</defs>
		<clipPath id="SVGID_00000178196218556019166910000001868481136607150483_">
			<use xlink:href="#SVGID_00000162335703332053669660000010257573787015391934_"  style="overflow:visible;"/>
		</clipPath>
		<path id="path2181" style="clip-path:url(#SVGID_00000178196218556019166910000001868481136607150483_);fill:#0E0F0F;" d="
			M114.8,142.3c-0.3,0.2-0.6,0.4-0.8,0.5c-0.1-0.1-0.4-0.5-0.8-1c0.3-0.2,0.5-0.4,0.7-0.5C113.9,141.4,114.3,141.8,114.8,142.3
			 M113.6,137.7c0.5,0,1,0,1.6,0v0.9c-0.5,0-1,0-1.6,0h-1.2v1.6h0.9c0.6,0,1.2,0,1.7,0v0.9c-0.5,0-1.1-0.1-1.7-0.1h-0.9v2.2h1.4
			c0.6,0,1.2,0,1.7-0.1v0.9c-0.5,0-1.1,0-1.7,0h-3.4c-0.6,0-1.1,0-1.7,0v-0.9c0.6,0,1.1,0.1,1.7,0.1h1.1v-2.2h-0.7
			c-0.6,0-1.1,0-1.6,0.1v-0.9c0.5,0,1,0,1.6,0h0.7v-1.6h-0.7c-0.6,0-1.2,0-1.7,0v-0.9c0.6,0,1.1,0,1.7,0H113.6z M116.2,136.3H108
			v8.9h8.2V136.3z M117.1,138.4v5.3c0,1,0,2,0,3h-1V146H108v0.7h-1c0-1,0.1-2.1,0.1-3.2v-5.2c0-1,0-1.9-0.1-2.8h10.2
			C117.2,136.4,117.1,137.4,117.1,138.4"/>
	</g>
	<g>
		<defs>
			<rect id="SVGID_00000047773165245187786450000013994674817113365420_" x="-119.5" y="-435.9" width="1207.6" height="858.9"/>
		</defs>
		<clipPath id="SVGID_00000141435720185779192120000013910957794145503626_">
			<use xlink:href="#SVGID_00000047773165245187786450000013994674817113365420_"  style="overflow:visible;"/>
		</clipPath>
		<path id="path2183" style="clip-path:url(#SVGID_00000141435720185779192120000013910957794145503626_);fill:#0E0F0F;" d="
			M129.7,138H129c-0.1,1.1-0.2,2.1-0.3,2.9c-0.1,0.8-0.4,1.5-0.7,2.2c-0.3,0.6-0.7,1.2-1.2,1.8c-0.5,0.5-1.1,1.1-2,1.6
			c-0.2-0.3-0.5-0.6-0.9-0.8c0.8-0.3,1.5-0.8,2-1.3c0.5-0.5,0.9-1.1,1.2-1.8c0.3-0.6,0.5-1.4,0.6-2.1c0.1-0.8,0.2-1.6,0.3-2.5h-0.8
			c-0.1,1-0.4,2-0.8,3c-0.4,1-1,1.8-1.7,2.5c-0.2-0.3-0.5-0.5-0.9-0.6c0.8-0.6,1.3-1.3,1.7-2.1c0.4-0.8,0.7-1.7,0.8-2.7h-0.7
			c-0.4,0.9-0.8,1.5-1.1,1.9c-0.3-0.2-0.6-0.4-0.9-0.5c0.7-0.9,1.2-1.8,1.5-2.6c0.3-0.8,0.5-1.4,0.6-1.8c0.5,0.2,0.9,0.3,1.2,0.4
			c-0.2,0.1-0.3,0.3-0.5,0.6c-0.1,0.3-0.3,0.6-0.5,1h4.7c-0.1,1.5-0.2,3-0.3,4.7c0,1.7-0.1,2.7-0.1,3.2c-0.1,0.5-0.3,0.8-0.7,1
			c-0.4,0.2-1.1,0.3-1.9,0.4c0-0.4-0.2-0.7-0.5-1.1c1,0.1,1.5,0.1,1.8,0c0.2-0.1,0.3-0.4,0.4-0.8L129.7,138z M120.7,138.1h1.1v-1.6
			c0-0.5,0-0.9-0.1-1.3h1.1c0,0.4,0,0.8,0,1.3v1.6c0.3,0,0.7,0,1.1-0.1v0.9c-0.5,0-0.8-0.1-1.1-0.1v2.6c0.6-0.1,1-0.3,1.4-0.4
			c0,0.3,0,0.6,0,0.9c-0.4,0.1-0.9,0.3-1.4,0.4v2.3c0,0.6,0,1.2,0,1.9h-1.1c0.1-0.7,0.1-1.3,0.1-1.9v-2.1c-0.4,0.1-0.7,0.2-1.1,0.3
			c-0.3,0.1-0.7,0.3-1.1,0.5c-0.1-0.3-0.3-0.7-0.5-1.1c0.6-0.1,1.5-0.2,2.7-0.5v-2.9h-1.3c-0.1,0.6-0.3,1.2-0.4,1.8
			c-0.3-0.2-0.7-0.2-1-0.2c0.3-0.7,0.5-1.4,0.6-2c0.1-0.6,0.2-1.2,0.2-1.8c0.4,0.1,0.8,0.2,1.2,0.2
			C121,137.2,120.8,137.6,120.7,138.1"/>
	</g>
	<g>
		<defs>
			<rect id="SVGID_00000002344611032619506920000004928358417906900875_" x="-119.5" y="-435.9" width="1207.6" height="858.9"/>
		</defs>
		<clipPath id="SVGID_00000041983735072591724340000006360538816639581855_">
			<use xlink:href="#SVGID_00000002344611032619506920000004928358417906900875_"  style="overflow:visible;"/>
		</clipPath>
		<path id="path2185" style="clip-path:url(#SVGID_00000041983735072591724340000006360538816639581855_);fill:#0E0F0F;" d="
			M141.6,142.7v2.4c0,0.3,0.1,0.4,0.4,0.4h0.5c0.3,0,0.4-0.4,0.4-1.1c0.3,0.2,0.6,0.3,1,0.4c-0.2,0.8-0.4,1.3-0.6,1.4
			c-0.2,0.1-0.5,0.1-0.8,0.1h-0.9c-0.6,0-0.9-0.3-0.9-0.9v-2.9c0-0.4,0-0.8,0-1.2h1C141.6,141.9,141.6,142.3,141.6,142.7
			 M139.5,142.7v2.2c0,0.4,0,1,0,1.6h-1c0-0.6,0-1.1,0-1.6v-2.2c0-0.6,0-1,0-1.2h1C139.5,141.6,139.5,142.1,139.5,142.7 M140,136.6
			h1.6c0.5,0,1.1,0,1.8,0v0.9c-0.8,0-1.4,0-1.8,0h-3.2c0.3,0.2,0.5,0.3,0.7,0.4c-0.2,0.1-0.4,0.4-0.6,0.7c-0.3,0.3-0.7,0.8-1.2,1.4
			c1.2,0,2.5-0.1,3.8-0.1c-0.3-0.4-0.7-0.7-1-1c0.3-0.2,0.6-0.4,0.7-0.6c0.9,1,1.7,1.8,2.3,2.6c-0.3,0.2-0.6,0.4-0.8,0.6
			c-0.3-0.4-0.5-0.7-0.7-0.9c-0.7,0.1-1.7,0.1-3,0.2c-1.2,0.1-2.1,0.2-2.5,0.3c-0.1-0.3-0.2-0.6-0.4-0.8c0.3-0.1,0.7-0.4,1.2-1
			s0.8-1.1,1.1-1.7h-0.5c-0.6,0-1.2,0-1.8,0.1v-0.9c0.6,0,1.2,0,1.8,0h1.4c-0.3-0.5-0.5-0.8-0.7-1.1c0.3-0.2,0.6-0.3,0.8-0.5
			C139.4,135.5,139.7,136.1,140,136.6 M137.7,143.1c-0.1,0.7-0.2,1.3-0.4,2c-0.2,0.6-0.8,1.2-1.7,1.8c-0.2-0.3-0.5-0.5-0.7-0.7
			c0.7-0.3,1.1-0.7,1.5-1.2c0.3-0.5,0.5-1.1,0.5-1.7c0-0.6,0-1.2,0-1.7c0.3,0.1,0.7,0.1,1.1,0.1
			C137.8,141.9,137.7,142.4,137.7,143.1 M135.4,136.9c-0.2,0.3-0.5,0.6-0.7,0.8c-0.5-0.5-1.1-1-1.8-1.4c0.2-0.3,0.4-0.6,0.6-0.8
			C134.2,136.1,134.9,136.5,135.4,136.9 M134.3,144.4c-0.4,0.8-0.7,1.5-1,2c-0.3-0.2-0.6-0.4-1-0.6c0.3-0.4,0.7-1,1.1-1.7
			c0.4-0.8,0.8-1.6,1.1-2.4c0.3,0.2,0.6,0.4,0.9,0.6C135.1,142.8,134.7,143.5,134.3,144.4 M135.1,140.1c-0.3,0.3-0.5,0.6-0.7,0.9
			c-0.6-0.6-1.3-1-2.1-1.4c0.2-0.3,0.4-0.6,0.6-0.9C133.6,139.1,134.4,139.6,135.1,140.1"/>
	</g>
	<g>
		<defs>
			<rect id="SVGID_00000051358684473001926210000003456279722108706179_" x="-119.5" y="-435.9" width="1207.6" height="858.9"/>
		</defs>
		<clipPath id="SVGID_00000111183888585685397450000007187751624229446842_">
			<use xlink:href="#SVGID_00000051358684473001926210000003456279722108706179_"  style="overflow:visible;"/>
		</clipPath>
		<path id="path2187" style="clip-path:url(#SVGID_00000111183888585685397450000007187751624229446842_);fill:#0E0F0F;" d="
			M155.2,145.3c-0.1,0.5-0.4,0.9-0.8,1c-0.5,0.2-1.1,0.3-2,0.3c0-0.3-0.2-0.7-0.5-1.1c1,0,1.6,0,1.8-0.1c0.3-0.1,0.4-0.2,0.5-0.4
			c0.1-0.2,0.3-1.6,0.5-4.2h-7.9c0.4-2.6,0.7-4.5,0.7-5.7c0.4,0.1,0.8,0.1,1.2,0.1c-0.1,0.4-0.2,1-0.3,1.7h6c0.7,0,1.3,0,1.8-0.1
			v0.9c-0.5,0-1.1-0.1-1.7-0.1h-6.1L148,140h7.9c-0.1,0.4-0.1,0.9-0.2,1.4L155.2,145.3z M151.9,142.8c0.6,0,1.1,0,1.6,0v1
			c-0.5,0-0.9,0-1.3,0h-4.8c-0.6,0-1.2,0-1.9,0v-1c0.7,0,1.3,0,1.9,0H151.9z"/>
	</g>
	<g>
		<defs>
			<rect id="SVGID_00000117671292212836604730000007051379919636530877_" x="-119.5" y="-435.9" width="1207.6" height="858.9"/>
		</defs>
		<clipPath id="SVGID_00000096769506654982121270000001649362723035476155_">
			<use xlink:href="#SVGID_00000117671292212836604730000007051379919636530877_"  style="overflow:visible;"/>
		</clipPath>
		<path id="path2189" style="clip-path:url(#SVGID_00000096769506654982121270000001649362723035476155_);fill:#0E0F0F;" d="
			M167.5,138.7c-0.3,0.4-0.6,0.9-0.9,1.4c-0.2-0.2-0.5-0.4-0.9-0.6c0.5-0.6,1.1-1.5,1.7-2.7c0.4,0.3,0.7,0.5,1,0.6
			C168,137.9,167.7,138.3,167.5,138.7 M164.5,139.2c-0.4,0.1-0.7,0.3-0.9,0.4c-0.2-0.6-0.5-1.3-0.9-2.1c0.3-0.1,0.6-0.2,0.9-0.4
			C164.1,138.1,164.4,138.8,164.5,139.2 M161.7,139.7c-0.3,0.1-0.6,0.3-0.9,0.5c-0.3-0.7-0.7-1.4-1.3-2.2c0.3-0.1,0.6-0.3,0.9-0.5
			C161,138.5,161.5,139.2,161.7,139.7 M164.7,136.8c-1.8,0.2-3.6,0.4-5.4,0.5c-0.1-0.4-0.2-0.8-0.4-1c0.8,0,2.2,0,4.3-0.2
			c2.1-0.2,3.7-0.4,4.9-0.8c0.2,0.5,0.4,0.9,0.6,1.2C167.8,136.5,166.5,136.6,164.7,136.8 M163.2,139.7h1c0,0.5-0.1,1-0.1,1.3h3.6
			c0.5,0,1.1,0,1.8,0v1c-0.7,0-1.3-0.1-1.7-0.1h-2.6c0.5,0.9,1.2,1.6,2,2.1c0.8,0.5,1.6,0.9,2.5,1.1c-0.4,0.3-0.7,0.6-0.9,1.1
			c-0.9-0.4-1.8-0.9-2.6-1.6c-0.8-0.7-1.4-1.6-1.9-2.6h0v2.7c0,0.6,0,1.2,0,2h-1.1c0.1-0.8,0.1-1.5,0.1-2v-2.4
			c-0.5,0.8-1.1,1.5-1.8,2.1c-0.7,0.7-1.6,1.3-2.6,1.8c-0.2-0.3-0.5-0.6-0.9-0.8c0.9-0.4,1.7-0.9,2.5-1.5c0.8-0.6,1.4-1.3,1.9-2
			c-2.1,0-3.5,0-4.1,0.1v-1c0.7,0,2.4,0,5.2,0C163.3,140.7,163.3,140.3,163.2,139.7"/>
	</g>
	<g>
		<defs>
			<rect id="SVGID_00000116214388547387117890000001094432939679144347_" x="-119.5" y="-435.9" width="1207.6" height="858.9"/>
		</defs>
		<clipPath id="SVGID_00000105384932185425136710000002001213934751057813_">
			<use xlink:href="#SVGID_00000116214388547387117890000001094432939679144347_"  style="overflow:visible;"/>
		</clipPath>
		<path id="path2191" style="clip-path:url(#SVGID_00000105384932185425136710000002001213934751057813_);fill:#0E0F0F;" d="
			M180.8,143.7c-0.4,0.1-0.7,0.2-0.9,0.3c-0.1-0.3-0.1-0.6-0.2-0.8c-1.3,0.1-2.2,0.3-2.8,0.5c-0.1-0.3-0.2-0.7-0.4-1
			c0.3-0.1,0.5-0.5,0.8-1.1c0.3-0.6,0.5-1.4,0.7-2.5c0.4,0.2,0.7,0.3,1,0.4c-0.2,0.4-0.4,0.9-0.7,1.5c-0.3,0.6-0.5,1.1-0.7,1.6
			c0.7-0.1,1.3-0.1,1.9-0.1c-0.1-0.3-0.2-0.7-0.4-1.3c0.2,0,0.4-0.1,0.8-0.2C180.2,142,180.5,142.9,180.8,143.7 M182.1,145
			c-0.1,0.7-0.3,1.1-0.6,1.2c-0.4,0.2-0.9,0.3-1.7,0.4c-0.1-0.4-0.2-0.8-0.4-1.1c0.7,0,1.1,0,1.4-0.1s0.4-0.3,0.4-0.6l0.1-6.8h-3.5
			c-0.3,0.7-0.6,1.3-1,1.9c-0.2-0.2-0.5-0.3-0.8-0.4c0.4-0.6,0.8-1.3,1.1-2.2c0.3-0.9,0.5-1.6,0.6-2.1c0.4,0.2,0.7,0.3,1,0.4
			c-0.2,0.3-0.4,0.8-0.7,1.6h4.2c0,0.6,0,1.3,0,2.2L182.1,145z M173.8,144.3c0.3-0.3,0.5-0.5,0.6-0.7c0.4,0.3,1.1,1,1.9,2.1
			c-0.3,0.2-0.5,0.4-0.8,0.7C175.2,145.8,174.6,145.1,173.8,144.3 M175,143.1v-6.3h-2.6v6.6h-0.9c0-0.8,0.1-2,0.1-3.7
			c0-1.7,0-2.9-0.1-3.7h4.4c0,0.7,0,1.9,0,3.5c0,1.6,0,2.8,0,3.6H175z M172.3,144.4c0.3-0.6,0.6-1.2,0.7-1.8
			c0.1-0.7,0.2-1.4,0.2-2.2c0-0.8,0-1.7,0-2.6c0.4,0.1,0.7,0.1,1.1,0.1c-0.1,0.5-0.1,1.2-0.1,2c0,0.8-0.1,1.5-0.1,2.3
			c-0.1,0.8-0.3,1.5-0.7,2.3c-0.3,0.7-0.9,1.4-1.6,2.2c-0.3-0.3-0.6-0.6-0.8-0.7C171.5,145.5,171.9,145,172.3,144.4"/>
	</g>
	<g>
		<defs>
			<rect id="SVGID_00000105402518100502704900000004326041249792633526_" x="-119.5" y="-435.9" width="1207.6" height="858.9"/>
		</defs>
		<clipPath id="SVGID_00000132066806539992271910000006835497339093622187_">
			<use xlink:href="#SVGID_00000105402518100502704900000004326041249792633526_"  style="overflow:visible;"/>
		</clipPath>
		<path id="path2193" style="clip-path:url(#SVGID_00000132066806539992271910000006835497339093622187_);fill:#0E0F0F;" d="
			M191.5,137c-0.4,0.2-0.7,0.3-0.8,0.5c-0.2-0.4-0.5-1-1-1.9c0.1,0,0.3-0.2,0.7-0.4C191,136.1,191.4,136.7,191.5,137 M193.7,136.6
			c-0.1,0.2-0.3,0.6-0.6,1.2c0.7,0,1.3,0,1.9-0.1v0.9c-0.6-0.1-1.1-0.1-1.5-0.1h-1c0,1.2-0.1,2.1-0.1,2.6h1.4c0.4,0,0.9,0,1.4-0.1
			v0.9c-0.6,0-1-0.1-1.4-0.1h-1.3c0.2,0.9,0.6,1.7,1.2,2.4c0.6,0.7,1.3,1.1,2,1.3c-0.2,0.2-0.4,0.4-0.5,0.6
			c-0.1,0.2-0.2,0.4-0.2,0.6c-0.7-0.5-1.3-1-1.7-1.6c-0.5-0.6-0.8-1.3-1.1-2.2c-0.2,0.8-0.5,1.5-0.9,2.1c-0.4,0.6-0.8,1.3-1.4,1.9
			c-0.1-0.1-0.2-0.3-0.4-0.4c-0.2-0.2-0.3-0.2-0.4-0.2c0.5-0.3,0.9-0.8,1.3-1.4c0.4-0.6,0.7-1.2,0.8-1.6c0.1-0.4,0.2-0.8,0.3-1.3
			h-0.6c-0.5,0-1.1,0-1.7,0.1V141c0.6,0,1.2,0.1,1.7,0.1h0.7c0.1-1,0.1-1.8,0.1-2.6H191c-0.5,0-1,0-1.6,0.1v-0.9
			c0.6,0,1.2,0.1,1.6,0.1h1.2c0.4-0.9,0.7-1.8,0.9-2.6c0.2,0.1,0.6,0.3,1.1,0.5C194,136,193.8,136.3,193.7,136.6 M187.5,141.8h-1.5
			v1.8c0.4-0.1,0.9-0.2,1.5-0.3V141.8z M187.5,139.1h-1.5v1.9h1.5V139.1z M187.5,136.6h-1.5v1.7h1.5V136.6z M188.1,135.8
			c0.4,0,0.8,0,1.3,0v0.8c-0.4,0-0.7,0-1,0v6.6c0.4-0.1,0.7-0.2,1-0.2c-0.1,0.4-0.1,0.7-0.1,0.8c-0.4,0.1-0.7,0.1-0.9,0.2v1.1
			c0,0.5,0,1.1,0,1.7h-1c0.1-0.6,0.1-1.2,0.1-1.7v-0.9c-0.4,0.1-0.8,0.2-1.4,0.3c-0.5,0.2-1.1,0.4-1.8,0.6c0-0.2-0.1-0.6-0.3-1.1
			c0.2,0,0.5-0.1,1-0.1v-7.2c-0.3,0-0.6,0-0.9,0.1v-0.9c0.4,0,0.8,0,1.2,0H188.1z"/>
	</g>
	<g>
		<defs>
			<rect id="SVGID_00000010273125172691736690000014586216956985386886_" x="-119.5" y="-435.9" width="1207.6" height="858.9"/>
		</defs>
		<clipPath id="SVGID_00000127006429912617379650000003393680509801913265_">
			<use xlink:href="#SVGID_00000010273125172691736690000014586216956985386886_"  style="overflow:visible;"/>
		</clipPath>
		<path id="path2195" style="clip-path:url(#SVGID_00000127006429912617379650000003393680509801913265_);fill:#0E0F0F;" d="
			M205.4,142.7h-5.5v2.1h5.5V142.7z M204.2,139.9c0.5,0,1,0,1.4,0v0.9c-0.4,0-0.9,0-1.3,0h-2.8c-0.7,0-1.3,0-1.7,0v-0.9
			c0.6,0,1.2,0,1.7,0H204.2z M206.4,144.2c0,1.2,0,2,0,2.3h-1v-0.9h-5.5v1.1h-1c0-0.4,0-1.2,0-2.3c0-1.2,0-2,0-2.5h7.5
			C206.4,142.2,206.4,143,206.4,144.2 M203.1,135.9c1,1.2,1.7,2,2.3,2.4c0.6,0.4,1.1,0.8,1.6,1c0.5,0.2,1,0.4,1.4,0.5
			c-0.3,0.4-0.5,0.7-0.6,1c-0.7-0.3-1.3-0.6-1.8-0.9c-0.5-0.3-1.1-0.8-1.6-1.3c-0.5-0.5-1.2-1.2-1.9-2.1c-0.6,0.9-1.2,1.6-1.9,2.2
			c-0.6,0.6-1.1,1-1.6,1.4c-0.4,0.3-0.9,0.7-1.4,1c-0.1-0.1-0.3-0.4-0.8-0.8c0.7-0.3,1.4-0.7,2-1.2c0.6-0.5,1.3-1,1.9-1.8
			c0.6-0.7,1.1-1.5,1.5-2.3c0.4,0.2,0.7,0.4,1,0.5L203.1,135.9z"/>
	</g>
	<g>
		<defs>
			<rect id="SVGID_00000052079812344932411700000001230716320643553459_" x="-119.5" y="-435.9" width="1207.6" height="858.9"/>
		</defs>
		<clipPath id="SVGID_00000057125135589439281020000009724900535077187996_">
			<use xlink:href="#SVGID_00000052079812344932411700000001230716320643553459_"  style="overflow:visible;"/>
		</clipPath>
		<path id="path2197" style="clip-path:url(#SVGID_00000057125135589439281020000009724900535077187996_);fill:#0E0F0F;" d="
			M216.6,139.5c0.7,0,1.3,0,1.8,0v0.9c-0.5,0-1.1,0-1.8,0h-2.1c-0.6,0-1.2,0-1.6,0v-0.9c0.4,0,0.9,0,1.5,0H216.6z M213,145.4
			c2.2-0.1,3.9-0.1,5.1-0.2c-0.3-0.3-0.7-0.8-1.3-1.3c0.2-0.2,0.5-0.4,0.7-0.6c0.5,0.4,0.9,0.9,1.3,1.3c0.4,0.4,0.9,0.9,1.5,1.5
			c-0.2,0.2-0.5,0.4-0.8,0.7c-0.3-0.4-0.5-0.7-0.7-0.9c-0.8,0-2,0.1-3.7,0.2c-1.7,0.1-2.8,0.2-3.3,0.3c-0.2-0.4-0.3-0.8-0.4-1
			c0.5-0.2,1.2-0.6,1.9-1.3c0.7-0.7,1.2-1.2,1.5-1.7h-1.4c-0.9,0-1.7,0-2.5,0.1v-0.8c0.8,0,1.6,0.1,2.4,0.1h5c0.8,0,1.6,0,2.4-0.1
			v0.8c-0.8,0-1.7-0.1-2.6-0.1h-3c0.3,0.3,0.5,0.5,0.7,0.6C215.5,143.3,214.5,144,213,145.4 M221.5,139.7c-0.3,0.3-0.5,0.6-0.7,0.9
			c-2.2-1-4-2.3-5.1-4c-1.6,1.8-3.3,3.2-5.1,4.2c-0.3-0.5-0.6-0.7-0.8-0.8c1.2-0.4,2.4-1.1,3.5-2.1s1.9-1.9,2.3-2.7
			c0.3,0.2,0.6,0.4,1,0.5l-0.3,0.3C217.4,137.6,219.1,138.8,221.5,139.7"/>
	</g>
	<g>
		<defs>
			<rect id="SVGID_00000081639221084728685540000013128722576075648943_" x="-119.5" y="-435.9" width="1207.6" height="858.9"/>
		</defs>
		<clipPath id="SVGID_00000130638471483248948410000009685276311584210817_">
			<use xlink:href="#SVGID_00000081639221084728685540000013128722576075648943_"  style="overflow:visible;"/>
		</clipPath>
		<path id="path2199" style="clip-path:url(#SVGID_00000130638471483248948410000009685276311584210817_);fill:#0E0F0F;" d="
			M96.6,154.9l0.6,0.2c-0.1,0.5-0.4,0.9-0.7,1.1c-0.3,0.3-0.7,0.4-1.2,0.4c-0.5,0-0.9-0.1-1.2-0.3c-0.3-0.2-0.5-0.5-0.7-0.9
			c-0.2-0.4-0.2-0.8-0.2-1.2c0-0.5,0.1-0.9,0.3-1.3c0.2-0.4,0.4-0.6,0.8-0.8c0.3-0.2,0.7-0.3,1.1-0.3c0.5,0,0.8,0.1,1.2,0.4
			c0.3,0.2,0.5,0.6,0.7,1l-0.6,0.1c-0.1-0.3-0.3-0.6-0.5-0.7s-0.5-0.2-0.8-0.2c-0.4,0-0.7,0.1-0.9,0.3s-0.4,0.4-0.5,0.7
			c-0.1,0.3-0.1,0.6-0.1,0.9c0,0.4,0.1,0.7,0.2,1c0.1,0.3,0.3,0.5,0.5,0.7c0.2,0.1,0.5,0.2,0.8,0.2c0.3,0,0.6-0.1,0.9-0.3
			C96.3,155.6,96.5,155.3,96.6,154.9"/>
	</g>
	<g>
		<defs>
			<rect id="SVGID_00000006695922827899598090000005478687276991331474_" x="-119.5" y="-435.9" width="1207.6" height="858.9"/>
		</defs>
		<clipPath id="SVGID_00000114039044853033230480000000645415869069214854_">
			<use xlink:href="#SVGID_00000006695922827899598090000005478687276991331474_"  style="overflow:visible;"/>
		</clipPath>
		<path id="path2201" style="clip-path:url(#SVGID_00000114039044853033230480000000645415869069214854_);fill:#0E0F0F;" d="
			M98,156.6v-4.6h0.6v1.7c0.3-0.3,0.6-0.5,1-0.5c0.2,0,0.5,0,0.6,0.1c0.2,0.1,0.3,0.2,0.4,0.4c0.1,0.2,0.1,0.4,0.1,0.7v2.1h-0.6
			v-2.1c0-0.3-0.1-0.5-0.2-0.6s-0.3-0.2-0.5-0.2c-0.2,0-0.3,0-0.5,0.1c-0.1,0.1-0.3,0.2-0.3,0.4c-0.1,0.1-0.1,0.4-0.1,0.6v1.8H98z"
			/>
	</g>
	<g>
		<defs>
			<rect id="SVGID_00000135663244344320178790000014286055851094657429_" x="-119.5" y="-435.9" width="1207.6" height="858.9"/>
		</defs>
		<clipPath id="SVGID_00000116206159187799961100000016276375656582294972_">
			<use xlink:href="#SVGID_00000135663244344320178790000014286055851094657429_"  style="overflow:visible;"/>
		</clipPath>
		<path id="path2203" style="clip-path:url(#SVGID_00000116206159187799961100000016276375656582294972_);fill:#0E0F0F;" d="
			M101.7,153.2h0.6v3.3h-0.6V153.2z M101.7,151.9h0.6v0.7h-0.6V151.9z"/>
	</g>
	<g>
		<defs>
			<rect id="SVGID_00000045616368777068115840000016676173876180774564_" x="-119.5" y="-435.9" width="1207.6" height="858.9"/>
		</defs>
		<clipPath id="SVGID_00000112610492147116996210000009703758099595525047_">
			<use xlink:href="#SVGID_00000045616368777068115840000016676173876180774564_"  style="overflow:visible;"/>
		</clipPath>
		<path id="path2205" style="clip-path:url(#SVGID_00000112610492147116996210000009703758099595525047_);fill:#0E0F0F;" d="
			M103.3,156.6v-3.3h0.5v0.5c0.2-0.4,0.6-0.6,1.1-0.6c0.2,0,0.4,0,0.6,0.1c0.2,0.1,0.3,0.2,0.4,0.3c0.1,0.1,0.1,0.3,0.2,0.4
			c0,0.1,0,0.3,0,0.6v2.1h-0.6v-2c0-0.2,0-0.4-0.1-0.5c0-0.1-0.1-0.2-0.2-0.3c-0.1-0.1-0.2-0.1-0.4-0.1c-0.2,0-0.4,0.1-0.6,0.2
			c-0.2,0.2-0.3,0.4-0.3,0.9v1.8H103.3z"/>
	</g>
	<g>
		<defs>
			<rect id="SVGID_00000017496500832715651260000015107377836717934768_" x="-119.5" y="-435.9" width="1207.6" height="858.9"/>
		</defs>
		<clipPath id="SVGID_00000034073662678577755250000016646110110285693058_">
			<use xlink:href="#SVGID_00000017496500832715651260000015107377836717934768_"  style="overflow:visible;"/>
		</clipPath>
		<path id="path2207" style="clip-path:url(#SVGID_00000034073662678577755250000016646110110285693058_);fill:#0E0F0F;" d="
			M109.1,154.9c-0.2,0.1-0.5,0.2-0.9,0.2c-0.2,0-0.4,0.1-0.5,0.1c-0.1,0-0.2,0.1-0.2,0.2c-0.1,0.1-0.1,0.2-0.1,0.3
			c0,0.2,0.1,0.3,0.2,0.4c0.1,0.1,0.3,0.2,0.5,0.2c0.2,0,0.4,0,0.6-0.1c0.2-0.1,0.3-0.2,0.4-0.4c0.1-0.1,0.1-0.3,0.1-0.6V154.9z
			 M109.2,156.1c-0.2,0.2-0.4,0.3-0.6,0.4s-0.4,0.1-0.6,0.1c-0.4,0-0.6-0.1-0.8-0.3c-0.2-0.2-0.3-0.4-0.3-0.7c0-0.2,0-0.3,0.1-0.4
			c0.1-0.1,0.2-0.2,0.3-0.3c0.1-0.1,0.3-0.1,0.4-0.2c0.1,0,0.3-0.1,0.5-0.1c0.5-0.1,0.8-0.1,1-0.2c0-0.1,0-0.1,0-0.1
			c0-0.2-0.1-0.4-0.2-0.5c-0.1-0.1-0.4-0.2-0.6-0.2c-0.3,0-0.5,0-0.6,0.1c-0.1,0.1-0.2,0.3-0.3,0.5l-0.6-0.1
			c0.1-0.2,0.1-0.4,0.2-0.6c0.1-0.1,0.3-0.3,0.5-0.3c0.2-0.1,0.5-0.1,0.8-0.1c0.3,0,0.5,0,0.7,0.1s0.3,0.2,0.4,0.3
			c0.1,0.1,0.1,0.2,0.2,0.4c0,0.1,0,0.3,0,0.5v0.8c0,0.5,0,0.9,0,1c0,0.1,0.1,0.3,0.1,0.4h-0.6C109.2,156.4,109.2,156.3,109.2,156.1
			"/>
	</g>
	<g>
		<defs>
			<rect id="SVGID_00000062874431513626847880000002966487965010711953_" x="-119.5" y="-435.9" width="1207.6" height="858.9"/>
		</defs>
		<clipPath id="SVGID_00000143577451324740426300000012439770025830962593_">
			<use xlink:href="#SVGID_00000062874431513626847880000002966487965010711953_"  style="overflow:visible;"/>
		</clipPath>
		<path id="path2209" style="clip-path:url(#SVGID_00000143577451324740426300000012439770025830962593_);fill:#0E0F0F;" d="
			M112.7,156.6v-4.6h3.1v0.5h-2.5v1.4h2.2v0.5h-2.2v2.1H112.7z"/>
	</g>
	<g>
		<defs>
			<rect id="SVGID_00000024707889738791058290000009755906433481131946_" x="-119.5" y="-435.9" width="1207.6" height="858.9"/>
		</defs>
		<clipPath id="SVGID_00000084517968844752154270000003990158632054738074_">
			<use xlink:href="#SVGID_00000024707889738791058290000009755906433481131946_"  style="overflow:visible;"/>
		</clipPath>
		<path id="path2211" style="clip-path:url(#SVGID_00000084517968844752154270000003990158632054738074_);fill:#0E0F0F;" d="
			M117.1,154.6h1.9c0-0.3-0.1-0.5-0.2-0.6c-0.2-0.2-0.4-0.3-0.7-0.3c-0.3,0-0.5,0.1-0.7,0.3C117.2,154,117.1,154.3,117.1,154.6
			 M119,155.5l0.6,0.1c-0.1,0.3-0.3,0.6-0.5,0.8c-0.2,0.2-0.6,0.3-1,0.3c-0.5,0-0.9-0.2-1.2-0.5c-0.3-0.3-0.4-0.7-0.4-1.3
			c0-0.6,0.1-1,0.4-1.3c0.3-0.3,0.7-0.5,1.1-0.5c0.4,0,0.8,0.2,1.1,0.5c0.3,0.3,0.4,0.7,0.4,1.3c0,0,0,0.1,0,0.2h-2.5
			c0,0.4,0.1,0.6,0.3,0.8c0.2,0.2,0.4,0.3,0.7,0.3c0.2,0,0.4-0.1,0.5-0.2C118.8,155.9,118.9,155.7,119,155.5"/>
	</g>
	<g>
		<defs>
			<rect id="SVGID_00000173854411957763369900000018381750735680338346_" x="-119.5" y="-435.9" width="1207.6" height="858.9"/>
		</defs>
		<clipPath id="SVGID_00000117643795146457751990000009072440116575235518_">
			<use xlink:href="#SVGID_00000173854411957763369900000018381750735680338346_"  style="overflow:visible;"/>
		</clipPath>
		<path id="path2213" style="clip-path:url(#SVGID_00000117643795146457751990000009072440116575235518_);fill:#0E0F0F;" d="
			M120.8,154.9c0,0.4,0.1,0.7,0.3,1c0.2,0.2,0.4,0.3,0.6,0.3c0.2,0,0.5-0.1,0.6-0.3c0.2-0.2,0.3-0.5,0.3-0.9c0-0.5-0.1-0.8-0.3-1
			c-0.2-0.2-0.4-0.3-0.7-0.3c-0.3,0-0.5,0.1-0.6,0.3C120.9,154.1,120.8,154.4,120.8,154.9 M122.6,156.6v-0.4
			c-0.2,0.3-0.5,0.5-0.9,0.5c-0.3,0-0.5-0.1-0.7-0.2c-0.2-0.1-0.4-0.4-0.5-0.6c-0.1-0.3-0.2-0.6-0.2-0.9c0-0.3,0.1-0.6,0.2-0.9
			c0.1-0.3,0.3-0.5,0.5-0.6c0.2-0.1,0.5-0.2,0.7-0.2c0.2,0,0.4,0,0.5,0.1c0.2,0.1,0.3,0.2,0.4,0.3v-1.7h0.6v4.6H122.6z"/>
	</g>
	<g>
		<defs>
			<rect id="SVGID_00000129890142802785207520000014220145374066900630_" x="-119.5" y="-435.9" width="1207.6" height="858.9"/>
		</defs>
		<clipPath id="SVGID_00000074409199445806620680000015513476959306707106_">
			<use xlink:href="#SVGID_00000129890142802785207520000014220145374066900630_"  style="overflow:visible;"/>
		</clipPath>
		<path id="path2215" style="clip-path:url(#SVGID_00000074409199445806620680000015513476959306707106_);fill:#0E0F0F;" d="
			M124.5,154.6h1.9c0-0.3-0.1-0.5-0.2-0.6c-0.2-0.2-0.4-0.3-0.7-0.3c-0.3,0-0.5,0.1-0.7,0.3C124.7,154,124.6,154.3,124.5,154.6
			 M126.4,155.5l0.6,0.1c-0.1,0.3-0.3,0.6-0.5,0.8c-0.2,0.2-0.6,0.3-1,0.3c-0.5,0-0.9-0.2-1.2-0.5c-0.3-0.3-0.4-0.7-0.4-1.3
			c0-0.6,0.1-1,0.4-1.3c0.3-0.3,0.7-0.5,1.1-0.5c0.4,0,0.8,0.2,1.1,0.5c0.3,0.3,0.4,0.7,0.4,1.3c0,0,0,0.1,0,0.2h-2.5
			c0,0.4,0.1,0.6,0.3,0.8c0.2,0.2,0.4,0.3,0.7,0.3c0.2,0,0.4-0.1,0.5-0.2C126.2,155.9,126.3,155.7,126.4,155.5"/>
	</g>
	<g>
		<defs>
			<rect id="SVGID_00000182519512366229535420000011642292623739002765_" x="-119.5" y="-435.9" width="1207.6" height="858.9"/>
		</defs>
		<clipPath id="SVGID_00000096766253037551456470000010707686197790023861_">
			<use xlink:href="#SVGID_00000182519512366229535420000011642292623739002765_"  style="overflow:visible;"/>
		</clipPath>
		<path id="path2217" style="clip-path:url(#SVGID_00000096766253037551456470000010707686197790023861_);fill:#0E0F0F;" d="
			M127.8,156.6v-3.3h0.5v0.5c0.1-0.2,0.2-0.4,0.4-0.5c0.1-0.1,0.2-0.1,0.4-0.1c0.2,0,0.4,0.1,0.6,0.2l-0.2,0.5
			c-0.1-0.1-0.3-0.1-0.4-0.1c-0.1,0-0.2,0-0.3,0.1c-0.1,0.1-0.2,0.2-0.2,0.3c-0.1,0.2-0.1,0.4-0.1,0.7v1.8H127.8z"/>
	</g>
	<g>
		<defs>
			<rect id="SVGID_00000171719678186414027980000008301149691962160317_" x="-119.5" y="-435.9" width="1207.6" height="858.9"/>
		</defs>
		<clipPath id="SVGID_00000103969565933833422530000000929801793477388984_">
			<use xlink:href="#SVGID_00000171719678186414027980000008301149691962160317_"  style="overflow:visible;"/>
		</clipPath>
		<path id="path2219" style="clip-path:url(#SVGID_00000103969565933833422530000000929801793477388984_);fill:#0E0F0F;" d="
			M132.2,154.9c-0.2,0.1-0.5,0.2-0.9,0.2c-0.2,0-0.4,0.1-0.5,0.1c-0.1,0-0.2,0.1-0.2,0.2c-0.1,0.1-0.1,0.2-0.1,0.3
			c0,0.2,0.1,0.3,0.2,0.4c0.1,0.1,0.3,0.2,0.5,0.2c0.2,0,0.4,0,0.6-0.1c0.2-0.1,0.3-0.2,0.4-0.4c0.1-0.1,0.1-0.3,0.1-0.6V154.9z
			 M132.3,156.1c-0.2,0.2-0.4,0.3-0.6,0.4s-0.4,0.1-0.6,0.1c-0.4,0-0.7-0.1-0.8-0.3c-0.2-0.2-0.3-0.4-0.3-0.7c0-0.2,0-0.3,0.1-0.4
			c0.1-0.1,0.2-0.2,0.3-0.3c0.1-0.1,0.3-0.1,0.4-0.2c0.1,0,0.3-0.1,0.5-0.1c0.5-0.1,0.8-0.1,1-0.2c0-0.1,0-0.1,0-0.1
			c0-0.2-0.1-0.4-0.2-0.5c-0.1-0.1-0.4-0.2-0.6-0.2c-0.3,0-0.5,0-0.6,0.1c-0.1,0.1-0.2,0.3-0.3,0.5l-0.6-0.1c0-0.2,0.1-0.4,0.2-0.6
			c0.1-0.1,0.3-0.3,0.5-0.3c0.2-0.1,0.5-0.1,0.8-0.1c0.3,0,0.5,0,0.7,0.1c0.2,0.1,0.3,0.2,0.4,0.3c0.1,0.1,0.1,0.2,0.2,0.4
			c0,0.1,0,0.3,0,0.5v0.8c0,0.5,0,0.9,0,1c0,0.1,0.1,0.3,0.1,0.4h-0.6C132.3,156.4,132.3,156.3,132.3,156.1"/>
	</g>
	<g>
		<defs>
			<rect id="SVGID_00000132787657316058418530000008622332448722702226_" x="-119.5" y="-435.9" width="1207.6" height="858.9"/>
		</defs>
		<clipPath id="SVGID_00000034769314635571133570000003669561458536214706_">
			<use xlink:href="#SVGID_00000132787657316058418530000008622332448722702226_"  style="overflow:visible;"/>
		</clipPath>
		<path id="path2221" style="clip-path:url(#SVGID_00000034769314635571133570000003669561458536214706_);fill:#0E0F0F;" d="
			M135,156l0.1,0.5c-0.2,0-0.3,0.1-0.4,0.1c-0.2,0-0.4,0-0.5-0.1c-0.1-0.1-0.2-0.2-0.2-0.3c0-0.1-0.1-0.3-0.1-0.7v-1.9h-0.4v-0.4
			h0.4v-0.8l0.6-0.3v1.2h0.6v0.4h-0.6v2c0,0.2,0,0.3,0,0.3c0,0,0.1,0.1,0.1,0.1c0,0,0.1,0,0.2,0C134.9,156.1,134.9,156.1,135,156"/>
	</g>
	<g>
		<defs>
			<rect id="SVGID_00000048474627605564687530000005534511858935951801_" x="-119.5" y="-435.9" width="1207.6" height="858.9"/>
		</defs>
		<clipPath id="SVGID_00000036947193362612449540000012144336523078652569_">
			<use xlink:href="#SVGID_00000048474627605564687530000005534511858935951801_"  style="overflow:visible;"/>
		</clipPath>
		<path id="path2223" style="clip-path:url(#SVGID_00000036947193362612449540000012144336523078652569_);fill:#0E0F0F;" d="
			M135.7,153.2h0.6v3.3h-0.6V153.2z M135.7,151.9h0.6v0.7h-0.6V151.9z"/>
	</g>
	<g>
		<defs>
			<rect id="SVGID_00000057147750743477820610000008576783818122901432_" x="-119.5" y="-435.9" width="1207.6" height="858.9"/>
		</defs>
		<clipPath id="SVGID_00000101809637395446995860000004900522881749801654_">
			<use xlink:href="#SVGID_00000057147750743477820610000008576783818122901432_"  style="overflow:visible;"/>
		</clipPath>
		<path id="path2225" style="clip-path:url(#SVGID_00000101809637395446995860000004900522881749801654_);fill:#0E0F0F;" d="
			M137.7,154.9c0,0.4,0.1,0.7,0.3,1c0.2,0.2,0.4,0.3,0.7,0.3c0.3,0,0.5-0.1,0.7-0.3c0.2-0.2,0.3-0.5,0.3-1c0-0.4-0.1-0.7-0.3-0.9
			c-0.2-0.2-0.4-0.3-0.7-0.3c-0.3,0-0.5,0.1-0.7,0.3C137.8,154.1,137.7,154.5,137.7,154.9 M137.1,154.9c0-0.6,0.2-1.1,0.5-1.4
			c0.3-0.2,0.6-0.4,1.1-0.4c0.5,0,0.8,0.2,1.1,0.5c0.3,0.3,0.4,0.7,0.4,1.2c0,0.4-0.1,0.8-0.2,1c-0.1,0.2-0.3,0.4-0.6,0.6
			c-0.2,0.1-0.5,0.2-0.8,0.2c-0.5,0-0.8-0.2-1.1-0.4C137.2,155.9,137.1,155.4,137.1,154.9"/>
	</g>
	<g>
		<defs>
			<rect id="SVGID_00000159453352277514984450000009024001778778559144_" x="-119.5" y="-435.9" width="1207.6" height="858.9"/>
		</defs>
		<clipPath id="SVGID_00000167388719799977134220000011301295069768643501_">
			<use xlink:href="#SVGID_00000159453352277514984450000009024001778778559144_"  style="overflow:visible;"/>
		</clipPath>
		<path id="path2227" style="clip-path:url(#SVGID_00000167388719799977134220000011301295069768643501_);fill:#0E0F0F;" d="
			M141,156.6v-3.3h0.5v0.5c0.2-0.4,0.6-0.6,1.1-0.6c0.2,0,0.4,0,0.6,0.1c0.2,0.1,0.3,0.2,0.4,0.3c0.1,0.1,0.1,0.3,0.2,0.4
			c0,0.1,0,0.3,0,0.6v2.1h-0.6v-2c0-0.2,0-0.4-0.1-0.5c0-0.1-0.1-0.2-0.2-0.3c-0.1-0.1-0.2-0.1-0.4-0.1c-0.2,0-0.4,0.1-0.6,0.2
			c-0.2,0.2-0.3,0.4-0.3,0.9v1.8H141z"/>
	</g>
	<g>
		<defs>
			<rect id="SVGID_00000178892042482052842610000006958223855393473948_" x="-119.5" y="-435.9" width="1207.6" height="858.9"/>
		</defs>
		<clipPath id="SVGID_00000149355996381216290770000015720429015665361295_">
			<use xlink:href="#SVGID_00000178892042482052842610000006958223855393473948_"  style="overflow:visible;"/>
		</clipPath>
		<path id="path2229" style="clip-path:url(#SVGID_00000149355996381216290770000015720429015665361295_);fill:#0E0F0F;" d="
			M147,154.9c0,0.4,0.1,0.7,0.3,1s0.4,0.3,0.7,0.3c0.3,0,0.5-0.1,0.7-0.3s0.3-0.5,0.3-1c0-0.4-0.1-0.7-0.3-0.9
			c-0.2-0.2-0.4-0.3-0.7-0.3c-0.3,0-0.5,0.1-0.7,0.3C147.1,154.1,147,154.5,147,154.9 M146.4,154.9c0-0.6,0.2-1.1,0.5-1.4
			c0.3-0.2,0.6-0.4,1.1-0.4c0.5,0,0.8,0.2,1.1,0.5c0.3,0.3,0.4,0.7,0.4,1.2c0,0.4-0.1,0.8-0.2,1c-0.1,0.2-0.3,0.4-0.6,0.6
			c-0.2,0.1-0.5,0.2-0.8,0.2c-0.5,0-0.8-0.2-1.1-0.4C146.6,155.9,146.4,155.4,146.4,154.9"/>
	</g>
	<g>
		<defs>
			<rect id="SVGID_00000126295282007002072180000010033610582883487123_" x="-119.5" y="-435.9" width="1207.6" height="858.9"/>
		</defs>
		<clipPath id="SVGID_00000070812639673629157410000016347737105673023902_">
			<use xlink:href="#SVGID_00000126295282007002072180000010033610582883487123_"  style="overflow:visible;"/>
		</clipPath>
		<path id="path2231" style="clip-path:url(#SVGID_00000070812639673629157410000016347737105673023902_);fill:#0E0F0F;" d="
			M150.5,156.6v-2.9H150v-0.4h0.5v-0.4c0-0.2,0-0.4,0.1-0.5c0.1-0.1,0.1-0.3,0.3-0.4c0.1-0.1,0.3-0.1,0.6-0.1c0.2,0,0.3,0,0.5,0.1
			l-0.1,0.5c-0.1,0-0.2,0-0.3,0c-0.2,0-0.3,0-0.4,0.1c-0.1,0.1-0.1,0.2-0.1,0.4v0.3h0.7v0.4h-0.7v2.9H150.5z"/>
	</g>
	<g>
		<defs>
			<rect id="SVGID_00000134931181371307210920000007699627854896583863_" x="-119.5" y="-435.9" width="1207.6" height="858.9"/>
		</defs>
		<clipPath id="SVGID_00000164475874693850215370000008429821365173142401_">
			<use xlink:href="#SVGID_00000134931181371307210920000007699627854896583863_"  style="overflow:visible;"/>
		</clipPath>
		<path id="path2233" style="clip-path:url(#SVGID_00000164475874693850215370000008429821365173142401_);fill:#0E0F0F;" d="
			M154.2,156.6v-4.6h0.6v4.1h2.3v0.5H154.2z"/>
	</g>
	<g>
		<defs>
			<rect id="SVGID_00000066500689224006579080000016420676941210462362_" x="-119.5" y="-435.9" width="1207.6" height="858.9"/>
		</defs>
		<clipPath id="SVGID_00000058556691723788858240000005261616150444152724_">
			<use xlink:href="#SVGID_00000066500689224006579080000016420676941210462362_"  style="overflow:visible;"/>
		</clipPath>
		<path id="path2235" style="clip-path:url(#SVGID_00000058556691723788858240000005261616150444152724_);fill:#0E0F0F;" d="
			M158.3,154.9c0,0.4,0.1,0.7,0.3,1c0.2,0.2,0.4,0.3,0.7,0.3c0.3,0,0.5-0.1,0.7-0.3c0.2-0.2,0.3-0.5,0.3-1c0-0.4-0.1-0.7-0.3-0.9
			c-0.2-0.2-0.4-0.3-0.7-0.3c-0.3,0-0.5,0.1-0.7,0.3C158.4,154.1,158.3,154.5,158.3,154.9 M157.7,154.9c0-0.6,0.2-1.1,0.5-1.4
			c0.3-0.2,0.6-0.4,1.1-0.4c0.5,0,0.8,0.2,1.1,0.5c0.3,0.3,0.4,0.7,0.4,1.2c0,0.4-0.1,0.8-0.2,1c-0.1,0.2-0.3,0.4-0.6,0.6
			c-0.2,0.1-0.5,0.2-0.8,0.2c-0.5,0-0.8-0.2-1.1-0.4C157.8,155.9,157.7,155.4,157.7,154.9"/>
	</g>
	<g>
		<defs>
			<rect id="SVGID_00000111171472880316865170000004599693201511546535_" x="-119.5" y="-435.9" width="1207.6" height="858.9"/>
		</defs>
		<clipPath id="SVGID_00000040562399968792918400000012168609364541646987_">
			<use xlink:href="#SVGID_00000111171472880316865170000004599693201511546535_"  style="overflow:visible;"/>
		</clipPath>
		<path id="path2237" style="clip-path:url(#SVGID_00000040562399968792918400000012168609364541646987_);fill:#0E0F0F;" d="
			M162,154.8c0,0.4,0.1,0.8,0.3,1c0.2,0.2,0.4,0.3,0.7,0.3c0.3,0,0.5-0.1,0.7-0.3c0.2-0.2,0.3-0.5,0.3-0.9c0-0.4-0.1-0.7-0.3-0.9
			c-0.2-0.2-0.4-0.3-0.7-0.3c-0.3,0-0.5,0.1-0.6,0.3C162.1,154.1,162,154.4,162,154.8 M161.5,156.8l0.6,0.1c0,0.2,0.1,0.3,0.2,0.4
			c0.1,0.1,0.3,0.2,0.6,0.2c0.3,0,0.5-0.1,0.6-0.2c0.1-0.1,0.2-0.3,0.3-0.4c0-0.1,0-0.4,0-0.7c-0.2,0.3-0.6,0.4-0.9,0.4
			c-0.5,0-0.8-0.2-1.1-0.5c-0.3-0.3-0.4-0.7-0.4-1.2c0-0.3,0.1-0.6,0.2-0.9c0.1-0.3,0.3-0.5,0.5-0.6c0.2-0.1,0.5-0.2,0.8-0.2
			c0.4,0,0.7,0.2,1,0.5v-0.4h0.5v2.9c0,0.5-0.1,0.9-0.2,1.1c-0.1,0.2-0.3,0.4-0.5,0.5c-0.2,0.1-0.5,0.2-0.8,0.2
			c-0.4,0-0.7-0.1-1-0.3C161.6,157.5,161.5,157.2,161.5,156.8"/>
	</g>
	<g>
		<defs>
			<rect id="SVGID_00000100352019847866163000000014243576683391797143_" x="-119.5" y="-435.9" width="1207.6" height="858.9"/>
		</defs>
		<clipPath id="SVGID_00000092434259008075449360000013234265763390909883_">
			<use xlink:href="#SVGID_00000100352019847866163000000014243576683391797143_"  style="overflow:visible;"/>
		</clipPath>
		<path id="path2239" style="clip-path:url(#SVGID_00000092434259008075449360000013234265763390909883_);fill:#0E0F0F;" d="
			M165.3,153.2h0.6v3.3h-0.6V153.2z M165.3,151.9h0.6v0.7h-0.6V151.9z"/>
	</g>
	<g>
		<defs>
			<rect id="SVGID_00000003804394598499081500000008882587706013180346_" x="-119.5" y="-435.9" width="1207.6" height="858.9"/>
		</defs>
		<clipPath id="SVGID_00000042702326807083411490000001480894251635451059_">
			<use xlink:href="#SVGID_00000003804394598499081500000008882587706013180346_"  style="overflow:visible;"/>
		</clipPath>
		<path id="path2241" style="clip-path:url(#SVGID_00000042702326807083411490000001480894251635451059_);fill:#0E0F0F;" d="
			M166.7,155.6l0.6-0.1c0,0.2,0.1,0.4,0.3,0.5c0.1,0.1,0.3,0.2,0.6,0.2c0.3,0,0.5-0.1,0.6-0.2c0.1-0.1,0.2-0.2,0.2-0.4
			c0-0.1-0.1-0.2-0.2-0.3c-0.1-0.1-0.3-0.1-0.6-0.2c-0.4-0.1-0.7-0.2-0.9-0.3c-0.2-0.1-0.3-0.2-0.4-0.3c-0.1-0.1-0.1-0.3-0.1-0.4
			c0-0.1,0-0.3,0.1-0.4c0.1-0.1,0.2-0.2,0.3-0.3c0.1-0.1,0.2-0.1,0.4-0.2c0.2,0,0.3-0.1,0.5-0.1c0.3,0,0.5,0,0.7,0.1
			c0.2,0.1,0.3,0.2,0.4,0.3c0.1,0.1,0.2,0.3,0.2,0.5l-0.6,0.1c0-0.2-0.1-0.3-0.2-0.4c-0.1-0.1-0.3-0.1-0.5-0.1c-0.3,0-0.4,0-0.6,0.1
			c-0.1,0.1-0.2,0.2-0.2,0.3c0,0.1,0,0.1,0.1,0.2c0,0.1,0.1,0.1,0.2,0.2c0.1,0,0.2,0.1,0.5,0.1c0.4,0.1,0.7,0.2,0.8,0.3
			c0.2,0.1,0.3,0.2,0.4,0.3c0.1,0.1,0.1,0.3,0.1,0.5c0,0.2-0.1,0.4-0.2,0.5c-0.1,0.2-0.3,0.3-0.5,0.4c-0.2,0.1-0.4,0.1-0.7,0.1
			c-0.4,0-0.8-0.1-1-0.3C166.9,156.2,166.7,155.9,166.7,155.6"/>
	</g>
	<g>
		<defs>
			<rect id="SVGID_00000177474243950117784130000008818190564610630789_" x="-119.5" y="-435.9" width="1207.6" height="858.9"/>
		</defs>
		<clipPath id="SVGID_00000072269411393714760240000017311137258564099767_">
			<use xlink:href="#SVGID_00000177474243950117784130000008818190564610630789_"  style="overflow:visible;"/>
		</clipPath>
		<path id="path2243" style="clip-path:url(#SVGID_00000072269411393714760240000017311137258564099767_);fill:#0E0F0F;" d="
			M171.5,156l0.1,0.5c-0.2,0-0.3,0.1-0.4,0.1c-0.2,0-0.4,0-0.5-0.1c-0.1-0.1-0.2-0.2-0.2-0.3c0-0.1-0.1-0.3-0.1-0.7v-1.9h-0.4v-0.4
			h0.4v-0.8l0.6-0.3v1.2h0.6v0.4h-0.6v2c0,0.2,0,0.3,0,0.3c0,0,0.1,0.1,0.1,0.1c0,0,0.1,0,0.2,0C171.3,156.1,171.4,156.1,171.5,156"
			/>
	</g>
	<g>
		<defs>
			<rect id="SVGID_00000106105028744200082280000013952324670791507132_" x="-119.5" y="-435.9" width="1207.6" height="858.9"/>
		</defs>
		<clipPath id="SVGID_00000049195446842428605280000009516536293204123797_">
			<use xlink:href="#SVGID_00000106105028744200082280000013952324670791507132_"  style="overflow:visible;"/>
		</clipPath>
		<path id="path2245" style="clip-path:url(#SVGID_00000049195446842428605280000009516536293204123797_);fill:#0E0F0F;" d="
			M172.2,153.2h0.6v3.3h-0.6V153.2z M172.2,151.9h0.6v0.7h-0.6V151.9z"/>
	</g>
	<g>
		<defs>
			<rect id="SVGID_00000098205078186987854690000017972286231494001289_" x="-119.5" y="-435.9" width="1207.6" height="858.9"/>
		</defs>
		<clipPath id="SVGID_00000005244733771144280730000012959769561643699079_">
			<use xlink:href="#SVGID_00000098205078186987854690000017972286231494001289_"  style="overflow:visible;"/>
		</clipPath>
		<path id="path2247" style="clip-path:url(#SVGID_00000005244733771144280730000012959769561643699079_);fill:#0E0F0F;" d="
			M175.9,155.3l0.6,0.1c-0.1,0.4-0.2,0.7-0.5,0.9c-0.3,0.2-0.6,0.3-0.9,0.3c-0.5,0-0.8-0.1-1.1-0.4c-0.3-0.3-0.4-0.7-0.4-1.3
			c0-0.4,0.1-0.7,0.2-0.9c0.1-0.3,0.3-0.5,0.5-0.6c0.2-0.1,0.5-0.2,0.8-0.2c0.4,0,0.7,0.1,0.9,0.3c0.2,0.2,0.4,0.4,0.4,0.8l-0.6,0.1
			c-0.1-0.2-0.1-0.4-0.3-0.5c-0.1-0.1-0.3-0.2-0.5-0.2c-0.3,0-0.5,0.1-0.7,0.3c-0.2,0.2-0.3,0.5-0.3,1c0,0.4,0.1,0.8,0.3,1
			c0.2,0.2,0.4,0.3,0.7,0.3c0.2,0,0.4-0.1,0.6-0.2C175.8,155.8,175.9,155.6,175.9,155.3"/>
	</g>
	<g>
		<defs>
			<rect id="SVGID_00000002373342568088904840000012297738121864038039_" x="-119.5" y="-435.9" width="1207.6" height="858.9"/>
		</defs>
		<clipPath id="SVGID_00000098933555813268475240000010608192012867171224_">
			<use xlink:href="#SVGID_00000002373342568088904840000012297738121864038039_"  style="overflow:visible;"/>
		</clipPath>
		<path id="path2249" style="clip-path:url(#SVGID_00000098933555813268475240000010608192012867171224_);fill:#0E0F0F;" d="
			M176.9,155.6l0.6-0.1c0,0.2,0.1,0.4,0.3,0.5c0.1,0.1,0.3,0.2,0.6,0.2c0.3,0,0.5-0.1,0.6-0.2c0.1-0.1,0.2-0.2,0.2-0.4
			c0-0.1-0.1-0.2-0.2-0.3c-0.1-0.1-0.3-0.1-0.6-0.2c-0.4-0.1-0.7-0.2-0.9-0.3c-0.2-0.1-0.3-0.2-0.4-0.3c-0.1-0.1-0.1-0.3-0.1-0.4
			c0-0.1,0-0.3,0.1-0.4c0.1-0.1,0.2-0.2,0.3-0.3c0.1-0.1,0.2-0.1,0.4-0.2c0.2,0,0.3-0.1,0.5-0.1c0.3,0,0.5,0,0.7,0.1
			c0.2,0.1,0.3,0.2,0.4,0.3c0.1,0.1,0.2,0.3,0.2,0.5l-0.6,0.1c0-0.2-0.1-0.3-0.2-0.4c-0.1-0.1-0.3-0.1-0.5-0.1c-0.3,0-0.4,0-0.6,0.1
			c-0.1,0.1-0.2,0.2-0.2,0.3c0,0.1,0,0.1,0.1,0.2c0,0.1,0.1,0.1,0.2,0.2c0.1,0,0.2,0.1,0.5,0.1c0.4,0.1,0.7,0.2,0.8,0.3
			c0.2,0.1,0.3,0.2,0.4,0.3c0.1,0.1,0.1,0.3,0.1,0.5c0,0.2-0.1,0.4-0.2,0.5c-0.1,0.2-0.3,0.3-0.5,0.4c-0.2,0.1-0.4,0.1-0.7,0.1
			c-0.4,0-0.8-0.1-1-0.3C177.1,156.2,176.9,155.9,176.9,155.6"/>
	</g>
	<g>
		<defs>
			<rect id="SVGID_00000012445985666787569580000006667953602256902331_" x="-119.5" y="-435.9" width="1207.6" height="858.9"/>
		</defs>
		<clipPath id="SVGID_00000147941324121044704530000000474046880642738861_">
			<use xlink:href="#SVGID_00000012445985666787569580000006667953602256902331_"  style="overflow:visible;"/>
		</clipPath>
		<path id="path2251" style="clip-path:url(#SVGID_00000147941324121044704530000000474046880642738861_);fill:#0E0F0F;" d="
			M183.8,153.6c0.2-0.1,0.4-0.3,0.5-0.4c0.1-0.1,0.1-0.2,0.1-0.4c0-0.2,0-0.3-0.1-0.4c-0.1-0.1-0.2-0.1-0.4-0.1
			c-0.2,0-0.3,0-0.4,0.1c-0.1,0.1-0.2,0.2-0.2,0.4c0,0.1,0,0.1,0.1,0.2c0,0.1,0.1,0.2,0.2,0.2L183.8,153.6z M184.6,155.6l-1-1.3
			c-0.3,0.2-0.5,0.4-0.6,0.5c-0.1,0.2-0.2,0.3-0.2,0.5c0,0.2,0.1,0.4,0.2,0.6c0.1,0.2,0.4,0.3,0.6,0.3c0.2,0,0.3-0.1,0.5-0.2
			C184.4,155.9,184.5,155.7,184.6,155.6 M185,156c-0.2,0.2-0.4,0.4-0.6,0.5c-0.2,0.1-0.5,0.2-0.7,0.2c-0.5,0-0.8-0.2-1.1-0.5
			c-0.2-0.3-0.3-0.6-0.3-0.9c0-0.3,0.1-0.5,0.3-0.8c0.2-0.2,0.5-0.4,0.8-0.6c-0.2-0.2-0.3-0.4-0.4-0.6s-0.1-0.3-0.1-0.4
			c0-0.3,0.1-0.5,0.3-0.7c0.2-0.2,0.5-0.3,0.8-0.3c0.3,0,0.6,0.1,0.8,0.3c0.2,0.2,0.3,0.4,0.3,0.7c0,0.4-0.3,0.8-0.9,1.1l0.8,1.1
			c0.1-0.2,0.2-0.4,0.2-0.6l0.6,0.1c-0.1,0.4-0.2,0.7-0.4,1c0.2,0.3,0.5,0.5,0.7,0.7l-0.4,0.4C185.5,156.5,185.2,156.3,185,156"/>
	</g>
	<g>
		<defs>
			<rect id="SVGID_00000063617845474537882540000004840536624286416817_" x="-119.5" y="-435.9" width="1207.6" height="858.9"/>
		</defs>
		<clipPath id="SVGID_00000078034972013702115350000011020274886353823130_">
			<use xlink:href="#SVGID_00000063617845474537882540000004840536624286416817_"  style="overflow:visible;"/>
		</clipPath>
		<path id="path2253" style="clip-path:url(#SVGID_00000078034972013702115350000011020274886353823130_);fill:#0E0F0F;" d="
			M189.4,154.1h1.2c0.4,0,0.7-0.1,0.8-0.2c0.2-0.1,0.2-0.4,0.2-0.6c0-0.2,0-0.4-0.1-0.5c-0.1-0.1-0.2-0.2-0.4-0.3
			c-0.1,0-0.3,0-0.6,0h-1.2V154.1z M188.8,156.6v-4.6h1.7c0.3,0,0.5,0,0.7,0c0.2,0,0.4,0.1,0.6,0.2s0.3,0.3,0.4,0.4
			c0.1,0.2,0.1,0.4,0.1,0.6c0,0.4-0.1,0.7-0.4,1s-0.7,0.4-1.4,0.4h-1.2v1.9H188.8z"/>
	</g>
	<g>
		<defs>
			<rect id="SVGID_00000020365857910586725280000012152367686281902498_" x="-119.5" y="-435.9" width="1207.6" height="858.9"/>
		</defs>
		<clipPath id="SVGID_00000120560272340244789290000002904784587119608999_">
			<use xlink:href="#SVGID_00000020365857910586725280000012152367686281902498_"  style="overflow:visible;"/>
		</clipPath>
		<path id="path2255" style="clip-path:url(#SVGID_00000120560272340244789290000002904784587119608999_);fill:#0E0F0F;" d="
			M195.3,156.6v-0.5c-0.3,0.4-0.6,0.6-1.1,0.6c-0.2,0-0.4,0-0.6-0.1c-0.2-0.1-0.3-0.2-0.4-0.3c-0.1-0.1-0.1-0.3-0.2-0.4
			c0-0.1,0-0.3,0-0.5v-2.1h0.6v1.9c0,0.3,0,0.5,0,0.6c0,0.1,0.1,0.3,0.2,0.4c0.1,0.1,0.3,0.1,0.4,0.1c0.2,0,0.3,0,0.5-0.1
			c0.1-0.1,0.3-0.2,0.3-0.4c0.1-0.1,0.1-0.4,0.1-0.7v-1.8h0.6v3.3H195.3z"/>
	</g>
	<g>
		<defs>
			<rect id="SVGID_00000137821466359430031320000015775334862290789561_" x="-119.5" y="-435.9" width="1207.6" height="858.9"/>
		</defs>
		<clipPath id="SVGID_00000168097900433577998500000008940683557148935606_">
			<use xlink:href="#SVGID_00000137821466359430031320000015775334862290789561_"  style="overflow:visible;"/>
		</clipPath>
		<path id="path2257" style="clip-path:url(#SVGID_00000168097900433577998500000008940683557148935606_);fill:#0E0F0F;" d="
			M196.8,156.6v-3.3h0.5v0.5c0.1-0.2,0.2-0.4,0.4-0.5c0.1-0.1,0.2-0.1,0.4-0.1c0.2,0,0.4,0.1,0.6,0.2l-0.2,0.5
			c-0.1-0.1-0.3-0.1-0.4-0.1c-0.1,0-0.2,0-0.3,0.1c-0.1,0.1-0.2,0.2-0.2,0.3c-0.1,0.2-0.1,0.4-0.1,0.7v1.8H196.8z"/>
	</g>
	<g>
		<defs>
			<rect id="SVGID_00000181058023689847209580000004399429739809049758_" x="-119.5" y="-435.9" width="1207.6" height="858.9"/>
		</defs>
		<clipPath id="SVGID_00000036963729555563954870000000043920743326795412_">
			<use xlink:href="#SVGID_00000181058023689847209580000004399429739809049758_"  style="overflow:visible;"/>
		</clipPath>
		<path id="path2259" style="clip-path:url(#SVGID_00000036963729555563954870000000043920743326795412_);fill:#0E0F0F;" d="
			M201.3,155.3l0.6,0.1c-0.1,0.4-0.2,0.7-0.5,0.9c-0.3,0.2-0.6,0.3-0.9,0.3c-0.5,0-0.8-0.1-1.1-0.4c-0.3-0.3-0.4-0.7-0.4-1.3
			c0-0.4,0.1-0.7,0.2-0.9c0.1-0.3,0.3-0.5,0.5-0.6c0.2-0.1,0.5-0.2,0.8-0.2c0.4,0,0.7,0.1,0.9,0.3c0.2,0.2,0.4,0.4,0.4,0.8l-0.6,0.1
			c-0.1-0.2-0.1-0.4-0.3-0.5c-0.1-0.1-0.3-0.2-0.5-0.2c-0.3,0-0.5,0.1-0.7,0.3c-0.2,0.2-0.3,0.5-0.3,1c0,0.4,0.1,0.8,0.3,1
			c0.2,0.2,0.4,0.3,0.7,0.3c0.2,0,0.4-0.1,0.6-0.2C201.2,155.8,201.3,155.6,201.3,155.3"/>
	</g>
	<g>
		<defs>
			<rect id="SVGID_00000078766716702976573630000009065351893013852800_" x="-119.5" y="-435.9" width="1207.6" height="858.9"/>
		</defs>
		<clipPath id="SVGID_00000015337162483944249400000018293161262162527413_">
			<use xlink:href="#SVGID_00000078766716702976573630000009065351893013852800_"  style="overflow:visible;"/>
		</clipPath>
		<path id="path2261" style="clip-path:url(#SVGID_00000015337162483944249400000018293161262162527413_);fill:#0E0F0F;" d="
			M202.5,156.6v-4.6h0.6v1.7c0.3-0.3,0.6-0.5,1-0.5c0.2,0,0.5,0,0.6,0.1c0.2,0.1,0.3,0.2,0.4,0.4c0.1,0.2,0.1,0.4,0.1,0.7v2.1h-0.6
			v-2.1c0-0.3-0.1-0.5-0.2-0.6s-0.3-0.2-0.5-0.2c-0.2,0-0.3,0-0.5,0.1s-0.3,0.2-0.3,0.4c-0.1,0.1-0.1,0.4-0.1,0.6v1.8H202.5z"/>
	</g>
	<g>
		<defs>
			<rect id="SVGID_00000129207563993488193770000011910303487268017537_" x="-119.5" y="-435.9" width="1207.6" height="858.9"/>
		</defs>
		<clipPath id="SVGID_00000039850227733077567430000014021213084154185663_">
			<use xlink:href="#SVGID_00000129207563993488193770000011910303487268017537_"  style="overflow:visible;"/>
		</clipPath>
		<path id="path2263" style="clip-path:url(#SVGID_00000039850227733077567430000014021213084154185663_);fill:#0E0F0F;" d="
			M208.3,154.9c-0.2,0.1-0.5,0.2-0.9,0.2c-0.2,0-0.4,0.1-0.5,0.1c-0.1,0-0.2,0.1-0.2,0.2c-0.1,0.1-0.1,0.2-0.1,0.3
			c0,0.2,0.1,0.3,0.2,0.4c0.1,0.1,0.3,0.2,0.5,0.2c0.2,0,0.4,0,0.6-0.1c0.2-0.1,0.3-0.2,0.4-0.4c0.1-0.1,0.1-0.3,0.1-0.6V154.9z
			 M208.4,156.1c-0.2,0.2-0.4,0.3-0.6,0.4s-0.4,0.1-0.6,0.1c-0.4,0-0.6-0.1-0.8-0.3c-0.2-0.2-0.3-0.4-0.3-0.7c0-0.2,0-0.3,0.1-0.4
			c0.1-0.1,0.2-0.2,0.3-0.3c0.1-0.1,0.3-0.1,0.4-0.2c0.1,0,0.3-0.1,0.5-0.1c0.5-0.1,0.8-0.1,1-0.2c0-0.1,0-0.1,0-0.1
			c0-0.2-0.1-0.4-0.2-0.5c-0.1-0.1-0.4-0.2-0.6-0.2c-0.3,0-0.5,0-0.6,0.1c-0.1,0.1-0.2,0.3-0.3,0.5l-0.6-0.1
			c0.1-0.2,0.1-0.4,0.2-0.6c0.1-0.1,0.3-0.3,0.5-0.3c0.2-0.1,0.5-0.1,0.8-0.1c0.3,0,0.5,0,0.7,0.1c0.2,0.1,0.3,0.2,0.4,0.3
			c0.1,0.1,0.1,0.2,0.2,0.4c0,0.1,0,0.3,0,0.5v0.8c0,0.5,0,0.9,0,1c0,0.1,0.1,0.3,0.1,0.4h-0.6C208.4,156.4,208.4,156.3,208.4,156.1
			"/>
	</g>
	<g>
		<defs>
			<rect id="SVGID_00000041287365725734954840000008406801474361846438_" x="-119.5" y="-435.9" width="1207.6" height="858.9"/>
		</defs>
		<clipPath id="SVGID_00000137829180347181174130000012880794456662906040_">
			<use xlink:href="#SVGID_00000041287365725734954840000008406801474361846438_"  style="overflow:visible;"/>
		</clipPath>
		<path id="path2265" style="clip-path:url(#SVGID_00000137829180347181174130000012880794456662906040_);fill:#0E0F0F;" d="
			M209.7,155.6l0.6-0.1c0,0.2,0.1,0.4,0.3,0.5c0.1,0.1,0.3,0.2,0.6,0.2c0.3,0,0.5-0.1,0.6-0.2c0.1-0.1,0.2-0.2,0.2-0.4
			c0-0.1-0.1-0.2-0.2-0.3c-0.1-0.1-0.3-0.1-0.6-0.2c-0.4-0.1-0.7-0.2-0.9-0.3c-0.2-0.1-0.3-0.2-0.4-0.3c-0.1-0.1-0.1-0.3-0.1-0.4
			c0-0.1,0-0.3,0.1-0.4c0.1-0.1,0.2-0.2,0.3-0.3c0.1-0.1,0.2-0.1,0.4-0.2c0.2,0,0.3-0.1,0.5-0.1c0.3,0,0.5,0,0.7,0.1
			c0.2,0.1,0.3,0.2,0.4,0.3c0.1,0.1,0.2,0.3,0.2,0.5l-0.6,0.1c0-0.2-0.1-0.3-0.2-0.4c-0.1-0.1-0.3-0.1-0.5-0.1c-0.3,0-0.4,0-0.6,0.1
			c-0.1,0.1-0.2,0.2-0.2,0.3c0,0.1,0,0.1,0.1,0.2c0,0.1,0.1,0.1,0.2,0.2c0.1,0,0.2,0.1,0.5,0.1c0.4,0.1,0.7,0.2,0.8,0.3
			c0.2,0.1,0.3,0.2,0.4,0.3s0.1,0.3,0.1,0.5c0,0.2-0.1,0.4-0.2,0.5c-0.1,0.2-0.3,0.3-0.5,0.4c-0.2,0.1-0.4,0.1-0.7,0.1
			c-0.4,0-0.8-0.1-1-0.3C209.9,156.2,209.7,155.9,209.7,155.6"/>
	</g>
	<g>
		<defs>
			<rect id="SVGID_00000026845269786068226890000015297889975408043907_" x="-119.5" y="-435.9" width="1207.6" height="858.9"/>
		</defs>
		<clipPath id="SVGID_00000178171447500546919100000007081755634400341930_">
			<use xlink:href="#SVGID_00000026845269786068226890000015297889975408043907_"  style="overflow:visible;"/>
		</clipPath>
		<path id="path2267" style="clip-path:url(#SVGID_00000178171447500546919100000007081755634400341930_);fill:#0E0F0F;" d="
			M213.3,153.2h0.6v3.3h-0.6V153.2z M213.3,151.9h0.6v0.7h-0.6V151.9z"/>
	</g>
	<g>
		<defs>
			<rect id="SVGID_00000032610393670006881860000010994041361169548200_" x="-119.5" y="-435.9" width="1207.6" height="858.9"/>
		</defs>
		<clipPath id="SVGID_00000100344203356387813070000006909657258409602741_">
			<use xlink:href="#SVGID_00000032610393670006881860000010994041361169548200_"  style="overflow:visible;"/>
		</clipPath>
		<path id="path2269" style="clip-path:url(#SVGID_00000100344203356387813070000006909657258409602741_);fill:#0E0F0F;" d="
			M214.8,156.6v-3.3h0.5v0.5c0.2-0.4,0.6-0.6,1.1-0.6c0.2,0,0.4,0,0.6,0.1c0.2,0.1,0.3,0.2,0.4,0.3c0.1,0.1,0.1,0.3,0.2,0.4
			c0,0.1,0,0.3,0,0.6v2.1H217v-2c0-0.2,0-0.4-0.1-0.5c0-0.1-0.1-0.2-0.2-0.3c-0.1-0.1-0.2-0.1-0.4-0.1c-0.2,0-0.4,0.1-0.6,0.2
			c-0.2,0.2-0.3,0.4-0.3,0.9v1.8H214.8z"/>
	</g>
	<g>
		<defs>
			<rect id="SVGID_00000134231434415801369350000010941021527938422963_" x="-119.5" y="-435.9" width="1207.6" height="858.9"/>
		</defs>
		<clipPath id="SVGID_00000129170037959307182970000013248725402623156886_">
			<use xlink:href="#SVGID_00000134231434415801369350000010941021527938422963_"  style="overflow:visible;"/>
		</clipPath>
		<path id="path2271" style="clip-path:url(#SVGID_00000129170037959307182970000013248725402623156886_);fill:#0E0F0F;" d="
			M218.9,154.8c0,0.4,0.1,0.8,0.3,1c0.2,0.2,0.4,0.3,0.7,0.3c0.3,0,0.5-0.1,0.7-0.3c0.2-0.2,0.3-0.5,0.3-0.9c0-0.4-0.1-0.7-0.3-0.9
			c-0.2-0.2-0.4-0.3-0.7-0.3c-0.3,0-0.5,0.1-0.6,0.3C219,154.1,218.9,154.4,218.9,154.8 M218.4,156.8l0.6,0.1c0,0.2,0.1,0.3,0.2,0.4
			c0.1,0.1,0.3,0.2,0.6,0.2c0.3,0,0.5-0.1,0.6-0.2c0.1-0.1,0.2-0.3,0.3-0.4c0-0.1,0-0.4,0-0.7c-0.2,0.3-0.6,0.4-0.9,0.4
			c-0.5,0-0.8-0.2-1.1-0.5c-0.3-0.3-0.4-0.7-0.4-1.2c0-0.3,0.1-0.6,0.2-0.9c0.1-0.3,0.3-0.5,0.5-0.6c0.2-0.1,0.5-0.2,0.8-0.2
			c0.4,0,0.7,0.2,1,0.5v-0.4h0.5v2.9c0,0.5-0.1,0.9-0.2,1.1c-0.1,0.2-0.3,0.4-0.5,0.5c-0.2,0.1-0.5,0.2-0.8,0.2
			c-0.4,0-0.7-0.1-1-0.3C218.5,157.5,218.4,157.2,218.4,156.8"/>
	</g>
</g>
</svg>
