<?xml version="1.0" encoding="UTF-8" standalone="no"?>
<!-- Created with Inkscape (http://www.inkscape.org/) -->

<svg
   width="13.80489mm"
   height="13.802436mm"
   viewBox="0 0 13.80489 13.802436"
   version="1.1"
   id="svg1"
   xmlns="http://www.w3.org/2000/svg"
   xmlns:svg="http://www.w3.org/2000/svg">
  <defs
     id="defs1">
    <clipPath
       clipPathUnits="userSpaceOnUse"
       id="clipPath3400">
      <path
         d="M 0,858.898 H 1207.558 V 0 H 0 Z"
         transform="translate(-452.81551,-139.5765)"
         id="path3400" />
    </clipPath>
    <clipPath
       clipPathUnits="userSpaceOnUse"
       id="clipPath3402">
      <path
         d="M 0,858.898 H 1207.558 V 0 H 0 Z"
         transform="translate(2.5000001e-7,-3.5000001e-5)"
         id="path3402" />
    </clipPath>
    <clipPath
       clipPathUnits="userSpaceOnUse"
       id="clipPath3404">
      <path
         d="M 0,858.898 H 1207.558 V 0 H 0 Z"
         transform="translate(-453.83231,-143.6796)"
         id="path3404" />
    </clipPath>
    <clipPath
       clipPathUnits="userSpaceOnUse"
       id="clipPath3406">
      <path
         d="M 0,858.898 H 1207.558 V 0 H 0 Z"
         transform="translate(-452.23451,-143.78141)"
         id="path3406" />
    </clipPath>
    <clipPath
       clipPathUnits="userSpaceOnUse"
       id="clipPath3408">
      <path
         d="M 0,858.898 H 1207.558 V 0 H 0 Z"
         transform="translate(-452.29261,-143.14121)"
         id="path3408" />
    </clipPath>
    <clipPath
       clipPathUnits="userSpaceOnUse"
       id="clipPath3410">
      <path
         d="M 0,858.898 H 1207.558 V 0 H 0 Z"
         transform="translate(-455.51731,-143.14121)"
         id="path3410" />
    </clipPath>
    <clipPath
       clipPathUnits="userSpaceOnUse"
       id="clipPath3412">
      <path
         d="M 0,858.898 H 1207.558 V 0 H 0 Z"
         transform="translate(-450.07021,-144.07241)"
         id="path3412" />
    </clipPath>
    <clipPath
       clipPathUnits="userSpaceOnUse"
       id="clipPath3414">
      <path
         d="M 0,858.898 H 1207.558 V 0 H 0 Z"
         transform="translate(-453.71611,-152.2059)"
         id="path3414" />
    </clipPath>
    <clipPath
       clipPathUnits="userSpaceOnUse"
       id="clipPath3416">
      <path
         d="M 0,858.898 H 1207.558 V 0 H 0 Z"
         transform="translate(2.5000001e-7,-3.5000001e-5)"
         id="path3416" />
    </clipPath>
    <clipPath
       clipPathUnits="userSpaceOnUse"
       id="clipPath3418">
      <path
         d="M 0,858.898 H 1207.558 V 0 H 0 Z"
         transform="translate(2.5000001e-7,-3.5000001e-5)"
         id="path3418" />
    </clipPath>
    <clipPath
       clipPathUnits="userSpaceOnUse"
       id="clipPath3420">
      <path
         d="M 0,858.898 H 1207.558 V 0 H 0 Z"
         transform="translate(2.5000001e-7,-3.5000001e-5)"
         id="path3420" />
    </clipPath>
    <clipPath
       clipPathUnits="userSpaceOnUse"
       id="clipPath3422">
      <path
         d="M 0,858.898 H 1207.558 V 0 H 0 Z"
         transform="translate(-452.19091,-156.0762)"
         id="path3422" />
    </clipPath>
    <clipPath
       clipPathUnits="userSpaceOnUse"
       id="clipPath3424">
      <path
         d="M 0,858.898 H 1207.558 V 0 H 0 Z"
         transform="translate(-459.96211,-146.83691)"
         id="path3424" />
    </clipPath>
    <clipPath
       clipPathUnits="userSpaceOnUse"
       id="clipPath3426">
      <path
         d="M 0,858.898 H 1207.558 V 0 H 0 Z"
         transform="translate(-447.70261,-143.46131)"
         id="path3426" />
    </clipPath>
    <clipPath
       clipPathUnits="userSpaceOnUse"
       id="clipPath3428">
      <path
         d="M 0,858.898 H 1207.558 V 0 H 0 Z"
         transform="translate(-448.44341,-149.8343)"
         id="path3428" />
    </clipPath>
    <clipPath
       clipPathUnits="userSpaceOnUse"
       id="clipPath3430">
      <path
         d="M 0,858.898 H 1207.558 V 0 H 0 Z"
         transform="translate(-470.39141,-149.42681)"
         id="path3430" />
    </clipPath>
    <clipPath
       clipPathUnits="userSpaceOnUse"
       id="clipPath3432">
      <path
         d="M 0,858.898 H 1207.558 V 0 H 0 Z"
         transform="translate(-471.52441,-149.42681)"
         id="path3432" />
    </clipPath>
    <clipPath
       clipPathUnits="userSpaceOnUse"
       id="clipPath3434">
      <path
         d="M 0,858.898 H 1207.558 V 0 H 0 Z"
         transform="translate(-448.27721,-135.176)"
         id="path3434" />
    </clipPath>
    <clipPath
       clipPathUnits="userSpaceOnUse"
       id="clipPath3436">
      <path
         d="M 0,858.898 H 1207.558 V 0 H 0 Z"
         transform="translate(-464.74661,-138.8085)"
         id="path3436" />
    </clipPath>
    <clipPath
       clipPathUnits="userSpaceOnUse"
       id="clipPath3438">
      <path
         d="M 0,858.898 H 1207.558 V 0 H 0 Z"
         transform="translate(-461.32341,-135.363)"
         id="path3438" />
    </clipPath>
    <clipPath
       clipPathUnits="userSpaceOnUse"
       id="clipPath3440">
      <path
         d="M 0,858.898 H 1207.558 V 0 H 0 Z"
         transform="translate(-459.16831,-136.3412)"
         id="path3440" />
    </clipPath>
    <clipPath
       clipPathUnits="userSpaceOnUse"
       id="clipPath3442">
      <path
         d="M 0,858.898 H 1207.558 V 0 H 0 Z"
         transform="translate(-467.05351,-142.2458)"
         id="path3442" />
    </clipPath>
    <clipPath
       clipPathUnits="userSpaceOnUse"
       id="clipPath3444">
      <path
         d="M 0,858.898 H 1207.558 V 0 H 0 Z"
         transform="translate(-465.18401,-140.50841)"
         id="path3444" />
    </clipPath>
    <clipPath
       clipPathUnits="userSpaceOnUse"
       id="clipPath3446">
      <path
         d="M 0,858.898 H 1207.558 V 0 H 0 Z"
         transform="translate(-468.03131,-143.3472)"
         id="path3446" />
    </clipPath>
    <clipPath
       clipPathUnits="userSpaceOnUse"
       id="clipPath3448">
      <path
         d="M 0,858.898 H 1207.558 V 0 H 0 Z"
         transform="translate(-467.27531,-148.32341)"
         id="path3448" />
    </clipPath>
    <clipPath
       clipPathUnits="userSpaceOnUse"
       id="clipPath3450">
      <path
         d="M 0,858.898 H 1207.558 V 0 H 0 Z"
         transform="translate(-449.81621,-134.23811)"
         id="path3450" />
    </clipPath>
    <clipPath
       clipPathUnits="userSpaceOnUse"
       id="clipPath3452">
      <path
         d="M 0,858.898 H 1207.558 V 0 H 0 Z"
         transform="translate(-468.69951,-145.2387)"
         id="path3452" />
    </clipPath>
    <clipPath
       clipPathUnits="userSpaceOnUse"
       id="clipPath3454">
      <path
         d="M 0,858.898 H 1207.558 V 0 H 0 Z"
         transform="translate(-438.01011,-144.2108)"
         id="path3454" />
    </clipPath>
    <clipPath
       clipPathUnits="userSpaceOnUse"
       id="clipPath3456">
      <path
         d="M 0,858.898 H 1207.558 V 0 H 0 Z"
         transform="translate(-441.83101,-139.8173)"
         id="path3456" />
    </clipPath>
    <clipPath
       clipPathUnits="userSpaceOnUse"
       id="clipPath3458">
      <path
         d="M 0,858.898 H 1207.558 V 0 H 0 Z"
         transform="translate(-440.39301,-141.8106)"
         id="path3458" />
    </clipPath>
    <clipPath
       clipPathUnits="userSpaceOnUse"
       id="clipPath3460">
      <path
         d="M 0,858.898 H 1207.558 V 0 H 0 Z"
         transform="translate(-452.17871,-134.84081)"
         id="path3460" />
    </clipPath>
    <clipPath
       clipPathUnits="userSpaceOnUse"
       id="clipPath3462">
      <path
         d="M 0,858.898 H 1207.558 V 0 H 0 Z"
         transform="translate(-445.99661,-135.5349)"
         id="path3462" />
    </clipPath>
    <clipPath
       clipPathUnits="userSpaceOnUse"
       id="clipPath3464">
      <path
         d="M 0,858.898 H 1207.558 V 0 H 0 Z"
         transform="translate(-443.22681,-137.0154)"
         id="path3464" />
    </clipPath>
    <clipPath
       clipPathUnits="userSpaceOnUse"
       id="clipPath3466">
      <path
         d="M 0,858.898 H 1207.558 V 0 H 0 Z"
         transform="translate(-441.68661,-137.3141)"
         id="path3466" />
    </clipPath>
    <clipPath
       clipPathUnits="userSpaceOnUse"
       id="clipPath3468">
      <path
         d="M 0,858.898 H 1207.558 V 0 H 0 Z"
         transform="translate(-453.33121,-133.8653)"
         id="path3468" />
    </clipPath>
    <clipPath
       clipPathUnits="userSpaceOnUse"
       id="clipPath3470">
      <path
         d="M 0,858.898 H 1207.558 V 0 H 0 Z"
         transform="translate(-439.07371,-144.9818)"
         id="path3470" />
    </clipPath>
    <clipPath
       clipPathUnits="userSpaceOnUse"
       id="clipPath3472">
      <path
         d="M 0,858.898 H 1207.558 V 0 H 0 Z"
         transform="translate(-436.63871,-146.8895)"
         id="path3472" />
    </clipPath>
    <clipPath
       clipPathUnits="userSpaceOnUse"
       id="clipPath3474">
      <path
         d="M 0,858.898 H 1207.558 V 0 H 0 Z"
         transform="translate(-436.88801,-145.166)"
         id="path3474" />
    </clipPath>
    <clipPath
       clipPathUnits="userSpaceOnUse"
       id="clipPath3476">
      <path
         d="M 0,858.898 H 1207.558 V 0 H 0 Z"
         transform="translate(-443.92591,-162.7838)"
         id="path3476" />
    </clipPath>
    <clipPath
       clipPathUnits="userSpaceOnUse"
       id="clipPath3478">
      <path
         d="M 0,858.898 H 1207.558 V 0 H 0 Z"
         transform="translate(-455.93851,-162.9293)"
         id="path3478" />
    </clipPath>
    <clipPath
       clipPathUnits="userSpaceOnUse"
       id="clipPath3480">
      <path
         d="M 0,858.898 H 1207.558 V 0 H 0 Z"
         transform="translate(-466.89071,-157.4148)"
         id="path3480" />
    </clipPath>
    <clipPath
       clipPathUnits="userSpaceOnUse"
       id="clipPath3482">
      <path
         d="M 0,858.898 H 1207.558 V 0 H 0 Z"
         transform="translate(-439.96051,-156.1344)"
         id="path3482" />
    </clipPath>
    <clipPath
       clipPathUnits="userSpaceOnUse"
       id="clipPath3484">
      <path
         d="M 0,858.898 H 1207.558 V 0 H 0 Z"
         transform="translate(-438.23201,-157.9532)"
         id="path3484" />
    </clipPath>
    <clipPath
       clipPathUnits="userSpaceOnUse"
       id="clipPath3486">
      <path
         d="M 0,858.898 H 1207.558 V 0 H 0 Z"
         transform="translate(-437.27331,-155.6252)"
         id="path3486" />
    </clipPath>
  </defs>
  <g
     id="layer1"
     transform="translate(-146.18365,-173.97595)">
    <path
       id="path3399"
       d="M 0,0 C -2.295,0 -4.401,0.786 -6.072,2.11 H 6.072 C 4.387,0.786 2.281,0 0,0 m -6.827,2.75 c -1.874,1.804 -3.036,4.321 -3.036,7.115 0,5.427 4.43,9.85 9.863,9.85 5.418,0 9.848,-4.423 9.848,-9.85 0,-2.794 -1.162,-5.311 -3.036,-7.115 z m 10.56,-3.23 c 0.407,0.145 0.813,0.32 1.206,0.524 l 0.697,-1.193 1.38,0.771 -0.712,1.236 c 0.203,0.146 0.421,0.306 0.61,0.466 L 7.873,0.349 9.02,1.426 8.076,2.415 C 8.381,2.721 8.657,3.07 8.919,3.419 l 1.176,-0.713 0.828,1.353 -1.147,0.699 c 0.203,0.393 0.392,0.786 0.552,1.193 l 1.307,-0.378 0.45,1.498 -1.307,0.379 c 0.087,0.349 0.145,0.683 0.189,1.033 0,0.087 0.014,0.174 0.029,0.276 l 1.38,-0.044 0.029,1.572 -1.366,0.029 c -0.029,0.495 -0.087,0.989 -0.174,1.499 l 1.365,0.349 -0.406,1.528 -1.366,-0.364 c -0.13,0.422 -0.305,0.815 -0.493,1.208 l 1.234,0.698 -0.799,1.368 -1.22,-0.699 c -0.247,0.364 -0.508,0.713 -0.784,1.048 l 0.987,0.975 -1.118,1.12 -0.973,-0.96 c -0.334,0.291 -0.683,0.553 -1.046,0.815 l 0.697,1.178 -1.38,0.786 -0.682,-1.164 C 4.503,19.89 4.125,20.065 3.733,20.21 l 0.363,1.251 -1.525,0.437 -0.378,-1.266 c -0.435,0.087 -0.871,0.16 -1.321,0.189 l 0.029,1.324 -1.584,0.029 -0.043,-1.338 c -0.451,-0.029 -0.886,-0.088 -1.322,-0.175 l -0.32,1.31 -1.539,-0.364 0.319,-1.353 c -0.407,-0.146 -0.813,-0.306 -1.205,-0.495 l -0.683,1.222 -1.409,-0.742 0.712,-1.28 c -0.131,-0.088 -0.247,-0.175 -0.378,-0.262 -0.276,-0.204 -0.537,-0.422 -0.813,-0.64 l -1.017,1.004 -0.944,-0.932 c -0.058,-0.058 -0.117,-0.131 -0.16,-0.189 l 1.002,-1.004 c -0.276,-0.32 -0.537,-0.669 -0.784,-1.033 l -1.22,0.699 c -0.291,-0.437 -0.538,-0.902 -0.77,-1.383 l 1.205,-0.683 C -10.24,14.143 -10.4,13.75 -10.545,13.342 l -1.322,0.35 c -0.16,-0.495 -0.291,-1.004 -0.392,-1.528 l 1.321,-0.349 c -0.072,-0.422 -0.13,-0.844 -0.159,-1.281 h -1.366 c 0,-0.218 -0.014,-0.451 -0.014,-0.669 0,-0.306 0.014,-0.611 0.029,-0.902 h 1.38 c 0.014,-0.306 0.058,-0.611 0.116,-0.902 0,-0.044 0.014,-0.088 0.014,-0.131 l -1.336,-0.32 c 0.015,-0.029 0.015,-0.044 0.015,-0.059 l 0.319,-1.309 c 0.015,-0.044 0.029,-0.102 0.058,-0.16 l 1.337,0.32 c 0.145,-0.407 0.305,-0.815 0.493,-1.208 l -1.22,-0.654 0.77,-1.383 1.235,0.655 C -9.02,3.448 -8.759,3.099 -8.468,2.779 L -9.485,1.819 -8.396,0.684 -7.35,1.659 C -7.161,1.484 -6.958,1.324 -6.74,1.164 -6.609,1.062 -6.464,0.96 -6.319,0.858 l -0.74,-1.207 1.351,-0.815 0.755,1.208 c 0.45,-0.219 0.9,-0.422 1.38,-0.582 l -0.349,-1.324 1.54,-0.408 0.348,1.324 c 0.436,-0.087 0.872,-0.145 1.322,-0.16 v -1.353 h 1.598 v 1.353 c 0.436,0.044 0.886,0.102 1.307,0.189 l 0.363,-1.309 1.54,0.407 z"
       style="fill:#e03822;fill-opacity:1;fill-rule:nonzero;stroke:none"
       transform="matrix(0.35277776,0,0,-0.35277776,153.09638,184.35478)"
       clip-path="url(#clipPath3400)" />
    <path
       id="path3401"
       d="m 449.257,144.945 h 7.51 v 0.611 h -7.51 z"
       style="fill:#e03822;fill-opacity:1;fill-rule:nonzero;stroke:none"
       transform="matrix(0.35277776,0,0,-0.35277776,-6.6468634,233.59425)"
       clip-path="url(#clipPath3402)" />
    <path
       id="path3403"
       d="M 0,0 C 0.145,0.015 0.218,0.087 0.218,0.218 0.203,0.349 0.145,0.407 0.015,0.422 -0.116,0.422 -0.189,0.349 -0.189,0.204 -0.189,0.073 -0.116,0 0,0"
       style="fill:#e03822;fill-opacity:1;fill-rule:nonzero;stroke:none"
       transform="matrix(0.35277776,0,0,-0.35277776,153.45509,182.9073)"
       clip-path="url(#clipPath3404)" />
    <path
       id="path3405"
       d="M 0,0 C 0.131,0 0.189,0.058 0.203,0.16 0.189,0.276 0.131,0.335 0,0.335 -0.131,0.335 -0.203,0.276 -0.203,0.16 -0.203,0.058 -0.131,0 0,0"
       style="fill:#e03822;fill-opacity:1;fill-rule:nonzero;stroke:none"
       transform="matrix(0.35277776,0,0,-0.35277776,152.89142,182.87138)"
       clip-path="url(#clipPath3406)" />
    <path
       id="path3407"
       d="M 0,0 C 0.102,0.015 0.16,0.073 0.16,0.189 0.145,0.32 0.087,0.378 -0.058,0.393 -0.203,0.393 -0.276,0.32 -0.276,0.189 -0.261,0.044 -0.174,-0.015 0,0"
       style="fill:#e03822;fill-opacity:1;fill-rule:nonzero;stroke:none"
       transform="matrix(0.35277776,0,0,-0.35277776,152.91191,183.09723)"
       clip-path="url(#clipPath3408)" />
    <path
       id="path3409"
       d="M 0,0 C 0.131,0 0.203,0.073 0.203,0.218 0.203,0.349 0.131,0.422 0,0.422 -0.131,0.422 -0.203,0.349 -0.218,0.204 -0.203,0.073 -0.131,0 0,0"
       style="fill:#e03822;fill-opacity:1;fill-rule:nonzero;stroke:none"
       transform="matrix(0.35277776,0,0,-0.35277776,154.04951,183.09723)"
       clip-path="url(#clipPath3410)" />
    <path
       id="path3411"
       d="M 0,0 C 0.276,0 0.436,0.131 0.479,0.364 H 0.828 V -1.237 H 0.378 V -0.32 H 0 Z m 1.525,-0.087 c 0.029,0.291 0.233,0.436 0.654,0.451 0.377,-0.015 0.581,-0.16 0.61,-0.437 0,-0.16 -0.073,-0.276 -0.203,-0.32 0.174,-0.073 0.261,-0.204 0.261,-0.364 -0.029,-0.32 -0.247,-0.48 -0.683,-0.494 -0.45,0.014 -0.668,0.174 -0.682,0.494 -0.015,0.16 0.072,0.277 0.261,0.35 -0.145,0.058 -0.218,0.174 -0.218,0.32 m 2.208,0.451 c 0.494,0 0.741,-0.277 0.741,-0.815 -0.015,-0.524 -0.247,-0.786 -0.697,-0.8 -0.364,0 -0.581,0.131 -0.625,0.407 l 0.421,0.015 c 0.029,-0.073 0.087,-0.117 0.189,-0.117 0.16,0 0.247,0.117 0.247,0.364 -0.116,-0.087 -0.232,-0.131 -0.378,-0.116 -0.319,0.014 -0.493,0.189 -0.523,0.509 0,0.349 0.218,0.538 0.625,0.553 m 1.7,0 c 0.377,0 0.581,-0.146 0.639,-0.422 L 5.636,-0.087 C 5.607,0 5.549,0.044 5.447,0.044 c -0.16,0 -0.232,-0.117 -0.232,-0.364 0.101,0.087 0.232,0.116 0.363,0.116 0.334,-0.014 0.508,-0.189 0.537,-0.509 -0.014,-0.349 -0.218,-0.524 -0.624,-0.538 -0.494,0 -0.741,0.262 -0.741,0.8 0.014,0.524 0.247,0.8 0.683,0.815 M -2.048,-1.47 h 9.979 v 2.153 h -9.979 z"
       style="fill:#e03822;fill-opacity:1;fill-rule:nonzero;stroke:none"
       transform="matrix(0.35277776,0,0,-0.35277776,152.1279,182.76872)"
       clip-path="url(#clipPath3412)" />
    <path
       id="path3413"
       d="M 0,0 H 0.145 V 0.175 1.513 4.86 C 0.145,4.962 0.087,5.034 0,5.034 h -0.639 c -0.073,0 -0.145,-0.072 -0.145,-0.174 V 1.513 0.175 0 h 0.145 z"
       style="fill:#e03822;fill-opacity:1;fill-rule:nonzero;stroke:none"
       transform="matrix(0.35277776,0,0,-0.35277776,153.41409,179.89941)"
       clip-path="url(#clipPath3414)" />
    <path
       id="path3415"
       d="m 452.249,154.374 h -0.073 v 0.611 h 0.073 z m 0.421,0.596 c 0,0.073 -0.058,0.146 -0.13,0.146 h -2.368 -0.944 -0.131 v -0.146 -0.582 -0.131 h 0.116 0.015 0.944 2.368 c 0.072,0 0.13,0.059 0.13,0.131 z"
       style="fill:#e03822;fill-opacity:1;fill-rule:nonzero;stroke:none"
       transform="matrix(0.35277776,0,0,-0.35277776,-6.6468634,233.59425)"
       clip-path="url(#clipPath3416)" />
    <path
       id="path3417"
       d="m 452.249,153.37 h -0.073 v 0.64 h 0.073 z m 0.421,0.626 c 0,0.087 -0.058,0.145 -0.13,0.145 h -2.368 -0.944 -0.131 v -0.145 -0.597 -0.145 h 0.116 0.015 0.944 2.368 c 0.072,0 0.13,0.072 0.13,0.145 z"
       style="fill:#e03822;fill-opacity:1;fill-rule:nonzero;stroke:none"
       transform="matrix(0.35277776,0,0,-0.35277776,-6.6468634,233.59425)"
       clip-path="url(#clipPath3418)" />
    <path
       id="path3419"
       d="m 452.249,152.308 h -0.073 v 0.655 h 0.073 z m -2.077,0.785 h -0.944 -0.131 v -0.145 -0.611 -0.146 h 0.116 0.015 0.944 2.368 c 0.072,0 0.13,0.073 0.13,0.146 v 0.611 c 0,0.087 -0.058,0.145 -0.13,0.145 z"
       style="fill:#e03822;fill-opacity:1;fill-rule:nonzero;stroke:none"
       transform="matrix(0.35277776,0,0,-0.35277776,-6.6468634,233.59425)"
       clip-path="url(#clipPath3420)" />
    <path
       id="path3421"
       d="m 0,0 c 0.087,0 0.145,-0.087 0.145,-0.175 0,-0.305 -0.276,-0.422 -0.406,-0.392 0.145,0.087 0.174,0.116 0.246,0.261 C -0.32,-0.349 -0.276,0.029 0,0 m -0.465,-0.509 c 0.029,-0.029 0.058,-0.058 0.087,-0.088 h -1.815 v -0.116 h 2.208 c 0.275,0.029 0.479,0.247 0.479,0.509 0,0.277 -0.233,0.495 -0.538,0.495 -0.232,0 -0.435,-0.145 -0.508,-0.349 -1.235,0.102 -1.569,0.174 -3.123,-0.117 -0.116,-0.247 -0.261,-0.771 -0.276,-0.844 0.392,0.102 1.438,0.612 3.486,0.51"
       style="fill:#e03822;fill-opacity:1;fill-rule:nonzero;stroke:none"
       transform="matrix(0.35277776,0,0,-0.35277776,152.87603,178.53405)"
       clip-path="url(#clipPath3422)" />
    <path
       id="path3423"
       d="m 0,0 c 0,-0.087 -0.058,-0.16 -0.131,-0.16 h -0.29 c -0.058,0 -0.116,0.073 -0.116,0.16 v 0.771 c 0,0.087 0.058,0.16 0.116,0.16 h 0.29 C -0.058,0.931 0,0.858 0,0.771 Z m -0.421,2.022 c -0.058,0 -0.116,0.073 -0.116,0.161 v 0.771 c 0,0.087 0.058,0.16 0.116,0.16 h 0.29 C -0.058,3.114 0,3.041 0,2.954 V 2.183 C 0,2.095 -0.058,2.022 -0.131,2.022 Z m 0.682,-2.138 v 1.004 c 0,0.116 -0.116,0.218 -0.246,0.218 h -0.16 v 0.742 h 0.16 c 0.13,0 0.246,0.102 0.246,0.218 V 3.07 c 0,0.116 -0.116,0.204 -0.246,0.204 h -0.16 V 4.001 C -0.029,4.03 0.073,4.103 0.073,4.19 v 0.349 c 0.168,0.152 0.34,0.316 0.523,0.495 H 0.073 v 0.073 c 0,0.116 -0.131,0.204 -0.291,0.204 h -0.174 c -0.16,0 -0.291,-0.088 -0.291,-0.204 V 5.034 H -2.464 L -2.44,5.049 -1.975,5.34 -1.874,5.413 -1.961,5.544 -2.673,6.562 -4.43,9.108 C -4.488,9.181 -4.576,9.21 -4.634,9.167 L -5.04,8.919 v 0.946 c 0,0.087 -0.058,0.16 -0.131,0.16 h -0.537 c -0.059,0 -0.117,-0.073 -0.117,-0.16 V 6.766 5.529 5.369 h 0.117 0.537 0.131 V 5.529 6.766 8.57 L -3.355,6.126 -2.644,5.107 -2.595,5.034 H -3.428 C -3.443,4.336 -3.443,3.521 -3.457,2.823 c 1.402,0.325 2.197,0.675 2.915,1.206 0.044,-0.017 0.095,-0.028 0.15,-0.028 h 0.029 V 3.274 h -0.189 c -0.145,0 -0.247,-0.088 -0.247,-0.204 V 2.066 c 0,-0.116 0.102,-0.218 0.247,-0.218 h 0.16 V 1.106 h -0.16 c -0.145,0 -0.247,-0.102 -0.247,-0.218 v -1.004 c 0,-0.117 0.102,-0.204 0.247,-0.204 h 0.567 c 0.13,0 0.246,0.087 0.246,0.204"
       style="fill:#e03822;fill-opacity:1;fill-rule:nonzero;stroke:none"
       transform="matrix(0.35277776,0,0,-0.35277776,155.61754,181.79347)"
       clip-path="url(#clipPath3424)" />
    <path
       id="path3425"
       d="M 0,0 -0.77,0.335 1.888,7.77 c 0.029,0.102 0,0.218 -0.087,0.247 L 1.729,8.032 C 1.656,8.061 1.554,8.003 1.511,7.901 L -1.118,0.495 -1.932,0.858 c -0.131,0.059 -0.276,0 -0.319,-0.116 L -2.556,0.073 c -0.059,-0.117 0,-0.262 0.13,-0.32 l 1.932,-0.859 c 0.116,-0.058 0.262,0 0.32,0.117 l 0.29,0.669 C 0.174,-0.204 0.116,-0.058 0,0"
       style="fill:#e03822;fill-opacity:1;fill-rule:nonzero;stroke:none"
       transform="matrix(0.35277776,0,0,-0.35277776,151.29266,182.98431)"
       clip-path="url(#clipPath3426)" />
    <path
       id="path3427"
       d="M 0,0 C 0.232,0.611 0.45,1.251 0.741,1.804 1.002,1.979 1.177,1.862 1.278,1.63 L 0.842,-0.247 C 1.06,-0.335 1.278,-0.437 1.453,-0.553 3.05,-1.12 2.411,-3.725 1.206,-3.929 H 7.931 C 6.696,-3.463 5.665,-0.582 7.757,-0.32 7.713,0.029 7.829,0.684 7.8,2.197 H -1.365 L -1.322,0.262 C -0.886,0.175 -0.421,0.102 0,0"
       style="fill:#e03822;fill-opacity:1;fill-rule:nonzero;stroke:none"
       transform="matrix(0.35277776,0,0,-0.35277776,151.554,180.73605)"
       clip-path="url(#clipPath3428)" />
    <path
       id="path3429"
       d="m 0,0 c 0,-4.86 -1.975,-9.254 -5.157,-12.44 -3.195,-3.187 -7.596,-5.166 -12.448,-5.166 -4.866,0 -9.267,1.979 -12.448,5.166 -3.196,3.186 -5.157,7.58 -5.157,12.44 v 0.015 c 0,4.859 1.961,9.253 5.157,12.44 3.181,3.186 7.582,5.165 12.448,5.165 4.852,0 9.253,-1.979 12.448,-5.165 C -1.975,9.268 0,4.874 0,0.015 Z m -17.605,18.028 c -4.982,0 -9.485,-2.023 -12.739,-5.282 -3.268,-3.259 -5.273,-7.77 -5.273,-12.731 V 0 c 0,-4.962 2.005,-9.472 5.273,-12.731 3.254,-3.26 7.757,-5.282 12.739,-5.282 4.968,0 9.471,2.022 12.739,5.282 3.254,3.259 5.273,7.769 5.273,12.731 v 0.015 c 0,4.961 -2.019,9.472 -5.273,12.731 -3.268,3.259 -7.771,5.282 -12.739,5.282"
       style="fill:#e03822;fill-opacity:1;fill-rule:nonzero;stroke:none"
       transform="matrix(0.35277776,0,0,-0.35277776,159.29677,180.87981)"
       clip-path="url(#clipPath3430)" />
    <path
       id="path3431"
       d="m 0,0 c 0,-5.165 -2.092,-9.85 -5.491,-13.255 -3.384,-3.39 -8.076,-5.485 -13.247,-5.485 -5.185,0 -9.863,2.095 -13.262,5.485 -3.384,3.405 -5.49,8.09 -5.49,13.255 v 0.015 c 0,5.165 2.106,9.85 5.49,13.255 3.399,3.39 8.077,5.485 13.262,5.485 5.171,0 9.863,-2.095 13.247,-5.485 C -2.092,9.865 0,5.18 0,0.015 Z m 0.813,0.015 c 0,5.398 -2.178,10.286 -5.723,13.822 -3.544,3.55 -8.424,5.733 -13.828,5.733 -5.403,0 -10.298,-2.183 -13.843,-5.733 -3.529,-3.536 -5.723,-8.424 -5.723,-13.822 V 0 c 0,-5.398 2.194,-10.287 5.723,-13.823 3.545,-3.55 8.44,-5.732 13.843,-5.732 5.404,0 10.284,2.182 13.828,5.732 3.545,3.536 5.723,8.425 5.723,13.823 h 0.015 v 0.015 z"
       style="fill:#e03822;fill-opacity:1;fill-rule:nonzero;stroke:none"
       transform="matrix(0.35277776,0,0,-0.35277776,159.69646,180.87981)"
       clip-path="url(#clipPath3432)" />
    <path
       id="path3433"
       d="M 0,0 0.1,-0.017 0.145,0.477 -1.4,1.104 -1.405,1.106 -1.733,0.718 -1.634,0.652 -1.63,0.656 c 0.168,0.152 0.264,0.217 0.344,0.231 0.056,0 0.174,-0.01 0.331,-0.073 0.071,-0.028 0.112,-0.056 0.126,-0.069 0,-0.014 -0.002,-0.043 -0.028,-0.096 l -0.639,-1.6 C -1.508,-0.975 -1.534,-0.99 -1.562,-0.99 h -0.003 l -0.003,-0.003 c -0.009,-0.009 -0.044,0 -0.084,0.011 -0.008,0.002 -0.016,0.004 -0.024,0.006 l -0.151,0.06 -0.036,-0.071 0.85,-0.352 0.007,-0.003 0.034,0.087 -0.152,0.061 c -0.027,0.008 -0.048,0.023 -0.067,0.036 -0.011,0.008 -0.021,0.015 -0.032,0.02 -0.012,0.027 -0.013,0.053 -0.013,0.081 l 0.639,1.584 c 0.04,0.08 0.061,0.098 0.066,0.098 0.014,0 0.074,-0.016 0.172,-0.058 0.16,-0.058 0.244,-0.115 0.272,-0.186 C -0.06,0.326 -0.031,0.2 -0.001,0.005 Z"
       style="fill:#e03822;fill-opacity:1;fill-rule:nonzero;stroke:none"
       transform="matrix(0.35277776,0,0,-0.35277776,151.49537,185.90718)"
       clip-path="url(#clipPath3434)" />
    <path
       id="path3435"
       d="m 0,0 0.002,-0.006 c 0.059,-0.161 0.072,-0.291 0.044,-0.431 -0.047,-0.14 -0.123,-0.268 -0.231,-0.391 l -0.304,-0.333 c -0.019,-0.013 -0.036,-0.026 -0.051,-0.038 -0.018,-0.014 -0.033,-0.026 -0.048,-0.034 -0.028,0 -0.054,0.001 -0.081,0.027 l -0.663,0.621 0.344,0.359 c 0.085,0.102 0.179,0.133 0.227,0.143 0.059,0 0.129,-0.03 0.198,-0.085 l 0.034,-0.051 0.083,0.1 -0.533,0.505 -0.082,-0.099 0.049,-0.048 c 0.07,-0.057 0.084,-0.112 0.084,-0.184 0,-0.056 -0.043,-0.128 -0.129,-0.213 l -0.343,-0.373 -0.547,0.519 -0.002,0.001 c -0.025,0.012 -0.025,0.037 -0.025,0.065 0.015,0.044 0.029,0.07 0.071,0.098 l 0.334,0.364 c 0.098,0.098 0.2,0.161 0.302,0.187 0.125,0.047 0.267,0.041 0.389,0.029 l 0.005,-0.001 0.05,0.099 -0.449,0.15 -1.09,-1.173 -0.025,0.025 -0.506,-0.402 0.071,-0.07 0.033,0.05 c 0.057,0.042 0.098,0.055 0.137,0.042 l 0.003,-0.001 c 0.024,0 0.051,-0.04 0.065,-0.097 l 0.449,-1.39 -0.02,-0.01 -1.246,0.783 c -0.037,0.025 -0.054,0.051 -0.054,0.081 0,0.029 0.016,0.057 0.055,0.096 l 0.065,0.049 -0.055,0.054 -0.591,-0.474 0.053,-0.07 0.063,0.063 c 0.056,0.028 0.099,0.042 0.126,0.042 0.042,0 0.085,-0.029 0.127,-0.057 l 1.671,-1.033 0.004,-0.003 0.095,0.08 -0.612,1.897 c -0.025,0.05 -0.03,0.106 -0.014,0.154 0.008,0.026 0.022,0.046 0.037,0.064 l 0.044,-0.043 0.062,0.078 c 0.045,0.044 0.086,0.071 0.111,0.071 h 0.003 l 0.003,0.002 c 0.01,0.011 0.038,-0.003 0.063,-0.015 l 1.277,-1.193 c 0.031,-0.03 0.04,-0.055 0.028,-0.079 l -0.001,-0.003 c 0,-0.012 -0.031,-0.06 -0.056,-0.097 l -0.078,-0.077 0.069,-0.069 1.211,1.315 0.003,0.004 -0.223,0.477 z"
       style="fill:#e03822;fill-opacity:1;fill-rule:nonzero;stroke:none"
       transform="matrix(0.35277776,0,0,-0.35277776,157.30541,184.62571)"
       clip-path="url(#clipPath3436)" />
    <path
       id="path3437"
       d="m 0,0 c -0.04,-0.027 -0.069,-0.042 -0.098,-0.042 -0.04,0 -0.053,0.012 -0.081,0.04 L -1.05,1.525 c -0.013,0.026 -0.013,0.052 -10e-4,0.064 l 10e-4,0.002 c 0.014,0.028 0.043,0.056 0.085,0.084 L -0.617,1.879 -0.611,1.883 -0.647,1.954 -1.873,1.252 -1.88,1.247 -1.828,1.178 -1.474,1.37 c 0.04,0.026 0.083,0.043 0.113,0.043 0.023,0 0.036,-0.01 0.051,-0.04 l 0.886,-1.513 c 0.014,-0.027 0.014,-0.054 0,-0.081 -0.014,-0.028 -0.042,-0.056 -0.084,-0.084 L -0.862,-0.497 -0.828,-0.584 0.4,0.119 0.406,0.122 0.355,0.208 Z"
       style="fill:#e03822;fill-opacity:1;fill-rule:nonzero;stroke:none"
       transform="matrix(0.35277776,0,0,-0.35277776,156.09778,185.84121)"
       clip-path="url(#clipPath3438)" />
    <path
       id="path3439"
       d="m 0,0 c 0.029,0.029 0.057,0.057 0.099,0.071 l 0.138,0.062 -0.035,0.071 -0.667,-0.268 0.035,-0.071 0.138,0.046 c 0.055,0.028 0.097,0.029 0.125,0.029 0.027,-0.014 0.04,-0.027 0.053,-0.054 l 0.535,-1.318 -0.019,-0.01 -1.696,1.046 -0.003,0.002 -0.396,-0.17 -0.588,-0.168 0.035,-0.086 0.107,0.03 c 0.055,0.014 0.097,0.015 0.113,0.015 0.027,-0.014 0.04,-0.027 0.053,-0.053 l 0.392,-1.368 c 0.028,-0.113 -0.001,-0.229 -0.086,-0.342 -0.091,-0.105 -0.211,-0.181 -0.388,-0.246 -0.149,-0.04 -0.28,-0.045 -0.403,-0.014 -0.114,0.028 -0.184,0.112 -0.227,0.271 l -0.393,1.368 c -0.015,0.045 -0.012,0.067 0.011,0.079 l 0.002,0.001 c 0.029,0.03 0.059,0.043 0.099,0.057 l 0.093,0.031 -0.017,0.072 -0.748,-0.206 -0.007,-0.002 0.017,-0.087 0.095,0.031 c 0.066,0.017 0.1,0.012 0.109,0.002 l 0.002,-0.002 h 0.003 c 0.025,0 0.038,-0.026 0.051,-0.053 l 0.393,-1.382 c 0.066,-0.182 0.177,-0.283 0.34,-0.311 0.076,-0.012 0.151,-0.019 0.225,-0.019 0.117,0 0.231,0.016 0.344,0.049 0.182,0.056 0.345,0.154 0.483,0.293 0.121,0.136 0.161,0.285 0.118,0.443 l -0.393,1.369 c -0.014,0.028 0.003,0.052 0.026,0.063 l 0.002,0.001 0.001,0.002 c 0.013,0.027 0.056,0.041 0.097,0.055 l 0.11,0.031 -0.004,0.01 c 0.038,0.009 0.073,0.016 0.094,0.017 0.027,-0.014 0.04,-0.027 0.053,-0.054 l 0.654,-1.63 c 0.013,-0.026 0.014,-0.052 0.001,-0.064 L -0.825,-2.363 C -0.839,-2.39 -0.867,-2.404 -0.923,-2.432 l -0.138,-0.046 0.035,-0.087 0.651,0.267 -0.017,0.087 -0.139,-0.061 c -0.041,-0.014 -0.084,-0.029 -0.11,-0.015 h -0.003 c -0.04,0 -0.053,0.013 -0.066,0.04 l -0.621,1.532 H -1.3 L 0.608,-1.888 0.573,-1.923 0.716,-1.861 0.001,-0.064 C -0.012,-0.038 -0.012,-0.012 0,0"
       style="fill:#e03822;fill-opacity:1;fill-rule:nonzero;stroke:none"
       transform="matrix(0.35277776,0,0,-0.35277776,155.33751,185.49612)"
       clip-path="url(#clipPath3440)" />
    <path
       id="path3441"
       d="m 0,0 c -0.145,0.065 -0.276,0.069 -0.412,0.015 -0.157,-0.063 -0.349,-0.203 -0.54,-0.395 -0.271,-0.255 -0.423,-0.393 -0.507,-0.435 -0.08,-0.04 -0.146,-0.031 -0.24,0 -0.091,0.061 -0.144,0.136 -0.171,0.243 -0.039,0.105 -0.01,0.238 0.101,0.46 0.09,0.15 0.192,0.262 0.289,0.318 0.103,0.074 0.267,0.115 0.46,0.115 h 0.006 l 0.017,0.099 -0.485,0.197 0.005,-0.015 c 0.014,-0.042 0.014,-0.07 0.014,-0.099 0,-0.028 -0.014,-0.07 -0.028,-0.098 C -1.509,0.387 -1.532,0.358 -1.564,0.318 -1.584,0.293 -1.608,0.264 -1.635,0.231 -1.719,0.147 -1.788,0.059 -1.84,-0.032 -1.993,-0.305 -2.012,-0.525 -2,-0.662 c 0.028,-0.183 0.097,-0.307 0.207,-0.369 0.127,-0.071 0.261,-0.076 0.399,-0.015 0.107,0.067 0.263,0.193 0.539,0.437 v 0.001 c 0.182,0.182 0.324,0.292 0.449,0.348 0.117,0.058 0.215,0.069 0.269,0.029 0.135,-0.068 0.213,-0.164 0.243,-0.301 C 0.133,-0.654 0.097,-0.796 -0.009,-0.978 -0.096,-1.137 -0.21,-1.266 -0.341,-1.354 -0.485,-1.44 -0.659,-1.468 -0.874,-1.44 l -0.006,10e-4 -0.033,-0.115 0.612,-0.179 v 0.14 c 0,0.034 0.009,0.058 0.02,0.089 0.003,0.008 0.006,0.016 0.009,0.025 0.028,0.043 0.086,0.1 0.158,0.172 0.065,0.065 0.122,0.144 0.19,0.264 0.135,0.256 0.189,0.473 0.161,0.645 C 0.207,-0.202 0.129,-0.072 0,0"
       style="fill:#e03822;fill-opacity:1;fill-rule:nonzero;stroke:none"
       transform="matrix(0.35277776,0,0,-0.35277776,158.11923,183.41311)"
       clip-path="url(#clipPath3442)" />
    <path
       id="path3443"
       d="m 0,0 c -0.014,-0.138 -0.067,-0.267 -0.173,-0.418 l -0.242,-0.3 -0.618,0.49 c -0.027,0.027 -0.027,0.038 -0.027,0.082 0,0.019 0.015,0.039 0.034,0.065 0.007,0.01 0.015,0.021 0.022,0.032 l 0.116,0.146 c 0.125,0.166 0.256,0.273 0.389,0.317 0.035,0.009 0.071,0.014 0.105,0.014 0.089,0 0.172,-0.029 0.237,-0.085 C -0.039,0.239 0.014,0.124 0,0 M 1.251,-0.287 1.25,-0.288 C 1.236,-0.316 1.208,-0.344 1.181,-0.358 1.153,-0.372 1.125,-0.372 1.083,-0.372 l -1.02,0.144 c 0.095,0.148 0.129,0.315 0.14,0.431 0,0.168 -0.062,0.298 -0.191,0.399 C -0.123,0.706 -0.255,0.72 -0.417,0.646 -0.582,0.586 -0.744,0.448 -0.899,0.237 l -0.61,-0.786 -0.005,-0.006 0.07,-0.053 0.062,0.093 c 0.042,0.042 0.07,0.071 0.096,0.071 h 0.004 c 0.027,0.014 0.053,-0.002 0.065,-0.013 L 0.162,-1.534 C 0.19,-1.562 0.203,-1.575 0.203,-1.601 0.203,-1.614 0.199,-1.66 0.147,-1.713 L 0.085,-1.791 0.153,-1.86 0.652,-1.213 0.657,-1.207 0.587,-1.155 0.51,-1.247 C 0.482,-1.275 0.453,-1.304 0.425,-1.318 c -0.026,-0.013 -0.052,0 -0.079,0.014 l -0.692,0.533 0.226,0.282 1.201,-0.159 0.004,-0.001 0.313,0.388 -0.07,0.052 z"
       style="fill:#e03822;fill-opacity:1;fill-rule:nonzero;stroke:none"
       transform="matrix(0.35277776,0,0,-0.35277776,157.45971,184.02602)"
       clip-path="url(#clipPath3444)" />
    <path
       id="path3445"
       d="m 0,0 c -0.013,-0.04 -0.027,-0.069 -0.056,-0.098 -0.027,-0.014 -0.054,-0.027 -0.08,-0.014 l -1.626,0.625 c -0.027,0.014 -0.054,0.041 -0.054,0.067 0,0.028 0,0.071 0.014,0.113 l 0.148,0.387 -0.087,0.017 -0.498,-1.307 0.086,-0.035 0.148,0.386 c 0.013,0.041 0.04,0.083 0.055,0.098 0.027,0.013 0.053,0.013 0.08,-0.001 l 1.627,-0.625 c 0.028,-0.014 0.054,-0.027 0.054,-0.052 l 0.001,-0.003 c 0.013,-0.026 -0.002,-0.069 -0.015,-0.111 l -0.148,-0.385 0.086,-0.034 0.497,1.316 0.002,0.007 -0.086,0.035 z"
       style="fill:#e03822;fill-opacity:1;fill-rule:nonzero;stroke:none"
       transform="matrix(0.35277776,0,0,-0.35277776,158.46418,183.02456)"
       clip-path="url(#clipPath3446)" />
    <path
       id="path3447"
       d="m 0,0 -0.001,0.002 c -0.031,0.046 -0.041,0.102 -0.028,0.156 v 0.065 h -0.086 l -0.074,-0.698 h 0.088 v 0.035 c 0.014,0.084 0.028,0.142 0.054,0.155 l 0.002,0.001 c 0.012,0.012 0.055,0.048 0.107,0.014 L 0.901,-0.836 V -0.87 l -0.939,-0.377 c -0.056,-0.014 -0.084,-0.014 -0.111,0 -0.025,0.012 -0.025,0.055 -0.025,0.123 l 0.016,0.11 h -0.088 l -0.074,-0.769 0.088,-0.018 v 0.053 c 0,0.047 0.02,0.085 0.035,0.113 0.003,0.004 0.005,0.009 0.007,0.013 0.031,0.031 0.074,0.057 0.113,0.071 l 1.132,0.479 0.638,-0.073 c 0.023,0 0.036,-0.009 0.051,-0.039 L 1.746,-1.186 C 1.758,-1.198 1.772,-1.239 1.758,-1.297 L 1.743,-1.465 H 1.83 l 0.103,0.917 H 1.846 L 1.816,-0.701 C 1.816,-0.757 1.802,-0.785 1.788,-0.814 1.781,-0.828 1.77,-0.838 1.757,-0.843 1.747,-0.846 1.736,-0.845 1.725,-0.84 l -0.712,0.074 -0.9,0.639 C 0.055,-0.098 0.014,-0.041 0,0"
       style="fill:#e03822;fill-opacity:1;fill-rule:nonzero;stroke:none"
       transform="matrix(0.35277776,0,0,-0.35277776,158.19748,181.26906)"
       clip-path="url(#clipPath3448)" />
    <path
       id="path3449"
       d="m 0,0 c -0.072,-0.348 -0.187,-0.593 -0.331,-0.709 -0.166,-0.12 -0.326,-0.156 -0.517,-0.115 -0.169,0.042 -0.299,0.154 -0.387,0.331 -0.086,0.187 -0.086,0.449 0,0.781 v 0 c 0.078,0.342 0.183,0.558 0.332,0.68 0.107,0.096 0.231,0.145 0.366,0.145 0.044,0 0.09,-0.005 0.136,-0.016 C -0.159,1.037 -0.027,0.918 0.015,0.724 0.075,0.529 0.07,0.279 0,0 M 0.348,-0.076 C 0.407,0.216 0.378,0.479 0.26,0.73 0.123,0.975 -0.088,1.128 -0.384,1.199 -0.66,1.257 -0.909,1.214 -1.144,1.067 -1.363,0.921 -1.511,0.684 -1.583,0.364 c -0.07,-0.293 -0.034,-0.577 0.102,-0.82 0.145,-0.246 0.346,-0.395 0.615,-0.455 0.079,-0.016 0.156,-0.025 0.231,-0.025 0.187,0 0.362,0.052 0.53,0.157 0.215,0.144 0.364,0.374 0.453,0.703 z"
       style="fill:#e03822;fill-opacity:1;fill-rule:nonzero;stroke:none"
       transform="matrix(0.35277776,0,0,-0.35277776,152.0383,186.23805)"
       clip-path="url(#clipPath3450)" />
    <path
       id="path3451"
       d="M 0,0 C -0.009,-0.026 -0.023,-0.048 -0.036,-0.067 -0.044,-0.078 -0.052,-0.089 -0.057,-0.1 -0.081,-0.123 -0.106,-0.127 -0.136,-0.112 l -1.642,0.466 c -0.091,0.023 -0.096,0.034 -0.096,0.037 v 0.003 l -0.002,0.002 c -0.006,0.006 -0.01,0.038 0.03,0.181 0.061,0.166 0.103,0.26 0.158,0.288 0.055,0.041 0.181,0.085 0.375,0.13 l 0.004,0.001 0.017,0.1 -0.502,-0.014 H -1.8 l -0.453,-1.611 0.404,-0.285 0.049,0.115 -0.004,0.003 c -0.136,0.137 -0.23,0.243 -0.245,0.318 -0.027,0.067 -0.017,0.175 0.029,0.33 0.027,0.079 0.042,0.124 0.055,0.14 0.011,0 0.049,-0.002 0.096,-0.014 l 1.655,-0.48 c 0.027,-0.014 0.041,-0.027 0.055,-0.055 l 0.001,-0.001 c 0.009,-0.01 0,-0.045 -0.01,-0.085 -0.002,-0.008 -0.004,-0.016 -0.006,-0.025 l -0.046,-0.167 0.087,-0.018 0.249,0.88 0.002,0.007 -0.072,0.018 z"
       style="fill:#e03822;fill-opacity:1;fill-rule:nonzero;stroke:none"
       transform="matrix(0.35277776,0,0,-0.35277776,158.6999,182.35728)"
       clip-path="url(#clipPath3452)" />
    <path
       id="path3453"
       d="M 0,0 1.059,0.014 0.254,-0.665 Z m -0.374,-1.121 c -0.028,0 -0.059,0.056 -0.08,0.097 l -0.016,0.081 -0.087,-0.035 0.264,-0.705 0.002,-0.007 0.086,0.034 -0.017,0.05 c -0.014,0.044 -0.028,0.085 -0.014,0.127 v 0.002 c 0,0.027 0.029,0.07 0.057,0.112 l 1.568,1.308 0.004,0.004 -0.15,0.242 -1.994,-0.044 c -0.058,0 -0.099,0 -0.126,0.027 -0.029,0.03 -0.057,0.057 -0.071,0.099 l -0.016,0.05 -0.088,-0.017 0.238,-0.626 0.086,0.034 -0.017,0.05 c -0.028,0.071 -0.028,0.127 0,0.168 0.024,0.037 0.075,0.055 0.154,0.055 L -0.103,0 0.17,-0.704 -0.263,-1.064 c -0.042,-0.043 -0.069,-0.057 -0.111,-0.057"
       style="fill:#e03822;fill-opacity:1;fill-rule:nonzero;stroke:none"
       transform="matrix(0.35277776,0,0,-0.35277776,147.87336,182.7199)"
       clip-path="url(#clipPath3454)" />
    <path
       id="path3455"
       d="m 0,0 c 0.029,-0.014 0.056,-0.028 0.085,-0.071 l 0.251,-0.34 0.07,0.052 L -0.456,0.797 -0.46,0.802 -0.53,0.75 -0.278,0.409 c 0.052,-0.052 0.056,-0.099 0.056,-0.111 0,-0.029 -0.015,-0.055 -0.039,-0.067 l -1.381,-1.048 c -0.164,-0.119 -0.29,-0.157 -0.387,-0.115 -0.119,0.03 -0.217,0.105 -0.301,0.231 -0.036,0.035 -0.068,0.089 -0.086,0.142 v 0.002 c -0.025,0.037 -0.028,0.074 -0.028,0.101 0.026,-0.01 0.049,-0.01 0.051,-0.01 h 0.003 l 0.002,0.002 c 0.006,0.006 0.013,0.01 0.02,0.013 0.007,0.004 0.015,0.007 0.022,0.015 0.03,0.016 0.061,0.061 0.061,0.108 0,0.051 -0.019,0.095 -0.059,0.135 -0.033,0.05 -0.064,0.076 -0.105,0.09 -0.051,0.017 -0.096,0.012 -0.138,-0.016 -0.032,-0.032 -0.081,-0.104 -0.046,-0.225 0.016,-0.109 0.08,-0.243 0.176,-0.367 0.14,-0.197 0.312,-0.333 0.496,-0.395 0.072,-0.03 0.143,-0.045 0.21,-0.045 0.104,0 0.2,0.035 0.277,0.104 L -0.081,0 C -0.054,0.014 -0.027,0.014 0,0"
       style="fill:#e03822;fill-opacity:1;fill-rule:nonzero;stroke:none"
       transform="matrix(0.35277776,0,0,-0.35277776,149.22129,184.26983)"
       clip-path="url(#clipPath3456)" />
    <path
       id="path3457"
       d="M 0,0 C 0.032,-0.016 0.057,-0.046 0.07,-0.085 L 0.146,-0.206 0.232,-0.172 -0.14,0.454 -0.21,0.401 -0.134,0.28 C -0.106,0.224 -0.092,0.195 -0.091,0.168 -0.105,0.14 -0.119,0.114 -0.146,0.1 l -1.228,-0.709 -0.009,0.019 0.797,1.816 0.002,0.003 -0.281,0.489 -0.071,-0.035 0.062,-0.124 c 0.029,-0.044 0.042,-0.1 0.042,-0.127 0,-0.023 -0.01,-0.036 -0.04,-0.051 L -2.397,0.493 c -0.027,-0.013 -0.039,-0.013 -0.066,0 -0.028,0.014 -0.056,0.043 -0.084,0.085 l -0.077,0.138 -0.069,-0.053 0.351,-0.616 0.004,-0.008 0.07,0.053 -0.061,0.122 c -0.026,0.04 -0.043,0.083 -0.043,0.113 0,0.028 0.016,0.054 0.04,0.066 l 1.432,0.826 0.009,-0.02 -0.904,-2.055 -0.01,0.02 v -0.08 L -1.794,-0.89 -1.757,-0.964 -0.081,0 C -0.053,0.014 -0.027,0.014 0,0"
       style="fill:#e03822;fill-opacity:1;fill-rule:nonzero;stroke:none"
       transform="matrix(0.35277776,0,0,-0.35277776,148.714,183.56664)"
       clip-path="url(#clipPath3458)" />
    <path
       id="path3459"
       d="M 0,0 C 0.042,0.014 0.071,0.014 0.113,0.014 L 0.265,-0.001 0.282,0.086 -0.423,0.174 -0.429,0.175 -0.447,0.088 -0.295,0.073 c 0.057,-0.015 0.086,-0.029 0.114,-0.043 0.011,-0.012 0.026,-0.037 0.012,-0.063 l -0.188,-1.42 -0.032,0.011 -0.929,1.743 -10e-4,0.004 -0.563,0.074 -0.017,-0.087 0.125,-0.016 c 0.069,0 0.111,-0.013 0.124,-0.04 L -1.649,0.234 -1.647,0.233 C -1.624,0.222 -1.607,0.198 -1.621,0.17 L -1.622,0.169 -1.854,-1.562 C -1.868,-1.603 -1.881,-1.617 -1.895,-1.631 -1.922,-1.645 -1.964,-1.645 -2.02,-1.645 l -0.154,0.031 v -0.088 l 0.689,-0.102 0.007,-0.002 0.017,0.088 -0.137,0.015 c -0.057,0.014 -0.086,0.029 -0.114,0.043 -0.028,0.028 -0.039,0.04 -0.026,0.08 l 0.231,1.623 h 0.019 l 1.067,-1.979 h -0.003 l -0.001,-0.014 0.109,-0.016 0.277,1.915 c 0,0.024 0.012,0.051 0.037,0.051 z"
       style="fill:#e03822;fill-opacity:1;fill-rule:nonzero;stroke:none"
       transform="matrix(0.35277776,0,0,-0.35277776,152.87173,186.02543)"
       clip-path="url(#clipPath3460)" />
    <path
       id="path3461"
       d="m 0,0 c -0.173,-0.332 -0.347,-0.536 -0.519,-0.608 -0.177,-0.074 -0.351,-0.069 -0.517,0.014 -0.162,0.089 -0.259,0.234 -0.287,0.432 -0.041,0.181 0.022,0.433 0.188,0.752 0.163,0.295 0.323,0.48 0.491,0.564 0.186,0.086 0.36,0.086 0.531,0 C 0.105,1.029 0.203,0.883 0.203,0.68 0.203,0.483 0.134,0.254 0,0 M 0.42,0.623 C 0.378,0.878 0.216,1.085 -0.063,1.24 -0.334,1.376 -0.581,1.399 -0.838,1.313 -1.085,1.226 -1.293,1.033 -1.438,0.757 -1.592,0.477 -1.631,0.196 -1.555,-0.078 c 0.091,-0.274 0.245,-0.46 0.483,-0.587 0.155,-0.082 0.309,-0.123 0.461,-0.123 0.096,0 0.191,0.017 0.285,0.05 0.261,0.073 0.466,0.259 0.629,0.571 v 0 c 0.135,0.269 0.174,0.535 0.117,0.79"
       style="fill:#e03822;fill-opacity:1;fill-rule:nonzero;stroke:none"
       transform="matrix(0.35277776,0,0,-0.35277776,150.69083,185.78056)"
       clip-path="url(#clipPath3462)" />
    <path
       id="path3463"
       d="M 0,0 0.881,0.598 0.579,-0.424 Z m 0.687,-1.462 c -0.027,0.009 -0.042,0.03 -0.058,0.052 -0.008,0.011 -0.016,0.022 -0.025,0.032 -0.014,0.042 -0.013,0.084 0,0.139 L 1.2,0.711 1.202,0.717 0.949,0.822 0.945,0.823 -0.714,-0.285 -0.716,-0.287 c -0.026,-0.04 -0.066,-0.055 -0.108,-0.041 l -0.002,0.001 c -0.041,0 -0.069,0.014 -0.112,0.042 l -0.05,0.033 -0.052,-0.069 0.535,-0.387 0.053,0.07 -0.05,0.033 c -0.062,0.046 -0.084,0.103 -0.084,0.138 0.013,0.041 0.042,0.099 0.098,0.141 l 0.417,0.274 0.602,-0.445 -0.159,-0.534 C 0.357,-1.108 0.326,-1.132 0.304,-1.143 0.277,-1.156 0.236,-1.141 0.181,-1.1 L 0.117,-1.052 0.064,-1.122 0.68,-1.577 0.686,-1.581 0.738,-1.512 0.69,-1.464 Z"
       style="fill:#e03822;fill-opacity:1;fill-rule:nonzero;stroke:none"
       transform="matrix(0.35277776,0,0,-0.35277776,149.7137,185.25828)"
       clip-path="url(#clipPath3464)" />
    <path
       id="path3465"
       d="m 0,0 c -0.019,0.026 -0.034,0.046 -0.034,0.065 l -0.001,0.004 c -0.015,0.029 -0.01,0.055 0.014,0.079 L 1.199,1.399 1.2,1.401 C 1.207,1.415 1.218,1.425 1.23,1.429 1.241,1.433 1.252,1.432 1.264,1.426 1.304,1.413 1.333,1.399 1.363,1.37 L 1.653,1.093 1.658,1.089 1.728,1.141 0.705,2.122 0.699,2.128 0.646,2.058 0.941,1.777 C 0.983,1.735 0.997,1.707 1.012,1.679 1.011,1.653 0.998,1.626 0.985,1.613 L -0.234,0.348 C -0.242,0.344 -0.248,0.34 -0.254,0.337 -0.271,0.327 -0.283,0.32 -0.301,0.32 -0.305,0.322 -0.31,0.324 -0.314,0.326 -0.341,0.339 -0.375,0.354 -0.399,0.391 L -0.69,0.667 -0.695,0.672 -0.763,0.604 0.244,-0.362 0.249,-0.366 0.319,-0.314 0.023,-0.033 C 0.015,-0.021 0.007,-0.01 0,0"
       style="fill:#e03822;fill-opacity:1;fill-rule:nonzero;stroke:none"
       transform="matrix(0.35277776,0,0,-0.35277776,149.17035,185.1529)"
       clip-path="url(#clipPath3466)" />
    <path
       id="path3467"
       d="m 0,0 v -0.087 h 0.109 c 0.071,0 0.114,0 0.155,-0.027 C 0.292,-0.143 0.32,-0.17 0.32,-0.211 l 0.014,-0.42 C 0.32,-0.702 0.277,-0.759 0.208,-0.801 0.111,-0.839 0.012,-0.858 -0.095,-0.858 c -0.241,-0.014 -0.43,0.085 -0.545,0.288 -0.125,0.18 -0.188,0.394 -0.188,0.636 -0.015,0.341 0.048,0.599 0.187,0.766 0.127,0.17 0.286,0.259 0.459,0.259 l 0.001,0.001 C -0.036,1.105 0.095,1.071 0.206,0.991 0.321,0.909 0.416,0.784 0.48,0.63 L 0.482,0.624 0.597,0.657 0.43,1.235 0.422,1.218 C 0.409,1.191 0.381,1.178 0.338,1.163 0.309,1.149 0.281,1.135 0.24,1.135 0.222,1.135 0.194,1.141 0.154,1.148 0.129,1.153 0.1,1.159 0.068,1.164 -0.021,1.193 -0.11,1.194 -0.182,1.193 -0.472,1.179 -0.707,1.064 -0.899,0.842 -1.088,0.623 -1.177,0.357 -1.162,0.051 c 0.015,-0.267 0.106,-0.502 0.278,-0.717 0.151,-0.194 0.397,-0.295 0.711,-0.295 0.021,0 0.043,0 0.064,0.001 0.091,0 0.16,0.012 0.234,0.024 l 0.029,0.005 c 0.062,0.013 0.132,0.047 0.205,0.103 0.012,0.006 0.025,0.009 0.036,0.012 0.014,0.004 0.027,0.008 0.036,0.016 h 0.128 c 0.013,0 0.041,0 0.053,-0.012 L 0.625,-0.825 0.61,-0.196 c 0,0.039 0.012,0.067 0.04,0.096 0.045,0.029 0.087,0.042 0.142,0.042 H 0.886 V 0.03 L 0.007,0 Z"
       style="fill:#e03822;fill-opacity:1;fill-rule:nonzero;stroke:none"
       transform="matrix(0.35277776,0,0,-0.35277776,153.27831,186.36956)"
       clip-path="url(#clipPath3468)" />
    <path
       id="path3469"
       d="m 0,0 c -0.428,-0.044 -0.688,-0.079 -0.799,-0.094 -0.032,-0.005 -0.054,-0.008 -0.057,-0.008 -0.029,0 -0.046,0 -0.062,-0.015 -0.004,-10e-4 -0.008,-0.003 -0.01,-0.007 -0.008,-0.013 -0.005,-0.037 0.007,-0.061 l 0.001,-0.002 c 0.015,-0.015 0.046,-0.031 0.077,-0.031 h 0.001 l 0.914,-0.087 c 0.022,-0.005 0.041,-0.007 0.058,-0.007 0.043,0 0.072,0.012 0.092,0.022 0.029,0.015 0.047,0.045 0.047,0.079 0,0.048 -0.016,0.092 -0.045,0.121 C 0.179,-0.015 0.104,0.015 0,0"
       style="fill:#e03822;fill-opacity:1;fill-rule:nonzero;stroke:none"
       transform="matrix(0.35277776,0,0,-0.35277776,148.24858,182.44791)"
       clip-path="url(#clipPath3470)" />
    <path
       id="path3471"
       d="M 0,0 0.853,0.681 1.691,0.247 C 1.72,0.218 1.747,0.191 1.761,0.149 L 1.762,0.146 C 1.781,0.128 1.787,0.11 1.793,0.091 1.796,0.081 1.799,0.072 1.804,0.062 V -0.047 L 1.892,-0.029 1.818,0.668 H 1.73 L 1.746,0.557 C 1.758,0.494 1.749,0.448 1.721,0.434 1.699,0.423 1.66,0.417 1.597,0.449 l -0.63,0.329 0.572,0.458 c 0.046,0.031 0.083,0.04 0.093,0.03 L 1.634,1.265 C 1.66,1.252 1.674,1.224 1.688,1.155 V 1.088 L 1.775,1.106 1.701,1.862 1.615,1.845 V 1.779 C 1.629,1.723 1.616,1.696 1.601,1.667 1.587,1.639 1.573,1.61 1.56,1.597 L 0.721,0.916 -0.162,1.38 C -0.203,1.394 -0.231,1.435 -0.26,1.479 -0.288,1.522 -0.303,1.566 -0.317,1.621 V 1.702 L -0.405,1.685 -0.331,1.031 h 0.09 l -0.018,0.053 c 0,0.042 0,0.07 0.014,0.098 0.015,0.045 0.029,0.053 0.052,0.053 0.014,0 0.027,0 0.054,-0.014 0.009,-0.004 0.019,-0.01 0.03,-0.016 0.025,-0.014 0.057,-0.032 0.086,-0.042 L 0.593,0.819 -0.068,0.287 C -0.091,0.264 -0.116,0.259 -0.145,0.274 -0.158,0.286 -0.172,0.313 -0.172,0.371 l -0.016,0.08 -0.086,-0.018 0.074,-0.756 0.087,0.017 v 0.05 c 0,0.042 0,0.086 0.014,0.128 C -0.083,-0.08 -0.051,-0.038 0,0"
       style="fill:#e03822;fill-opacity:1;fill-rule:nonzero;stroke:none"
       transform="matrix(0.35277776,0,0,-0.35277776,147.38957,181.77491)"
       clip-path="url(#clipPath3472)" />
    <path
       id="path3473"
       d="M 0,0 C -0.014,0.042 -0.014,0.083 0,0.111 0.014,0.139 0.027,0.165 0.053,0.165 L 1.781,0.529 1.783,0.53 C 1.794,0.535 1.805,0.536 1.815,0.532 1.828,0.528 1.839,0.518 1.846,0.504 L 1.847,0.502 1.849,0.5 C 1.873,0.488 1.889,0.451 1.889,0.404 L 1.978,0.004 2.064,0.021 1.771,1.403 1.684,1.386 1.773,0.985 C 1.787,0.93 1.787,0.888 1.774,0.86 1.771,0.858 1.769,0.855 1.766,0.852 1.753,0.837 1.739,0.82 1.706,0.82 L -0.008,0.456 -0.01,0.455 C -0.036,0.442 -0.062,0.456 -0.074,0.468 -0.077,0.474 -0.081,0.481 -0.085,0.488 -0.1,0.511 -0.116,0.537 -0.116,0.581 l -0.089,0.4 -0.087,-0.017 0.294,-1.382 0.087,0.017 z"
       style="fill:#e03822;fill-opacity:1;fill-rule:nonzero;stroke:none"
       transform="matrix(0.35277776,0,0,-0.35277776,147.47751,182.38293)"
       clip-path="url(#clipPath3474)" />
    <path
       id="path3475"
       d="m 0,0 c 0.349,0.16 1.365,0.902 1.569,0.917 0.16,0 0.218,-0.102 0.203,-0.262 C 1.482,0.218 0.247,-0.524 0.174,-2.168 0.218,-2.794 0.61,-2.735 0.712,-2.27 1.148,0.931 3.573,1.31 5.171,-0.378 5.374,-0.48 5.723,-0.204 5.462,0.116 5.04,0.597 3.907,1.149 2.615,0.989 2.266,0.946 2.106,1.208 2.469,1.324 2.963,1.47 3.472,1.601 3.98,1.731 4.488,1.935 4.241,2.532 3.443,2.139 3.167,2.008 2.891,1.833 2.6,1.731 2.353,1.644 1.888,1.557 1.758,1.833 1.699,1.979 1.598,2.124 1.511,2.168 1.365,2.27 1.162,2.183 1.235,2.008 1.307,1.833 1.336,1.659 1.365,1.455 1.511,0.975 -0.015,0.597 -0.305,0.32 -0.581,0.073 -0.45,-0.349 0,0"
       style="fill:#e03822;fill-opacity:1;fill-rule:nonzero;stroke:none"
       transform="matrix(0.35277776,0,0,-0.35277776,149.96033,176.16776)"
       clip-path="url(#clipPath3476)" />
    <path
       id="path3477"
       d="M 0,0 C 0.029,0.175 0.015,0.393 0.218,0.524 0.421,0.655 0.552,0.567 0.436,0.16 0.407,0.058 0.363,-0.029 0.334,-0.131 0.291,-0.218 0.232,-0.247 0.145,-0.218 -0.015,-0.218 -0.029,-0.116 0,0 M 0.872,-0.029 C 0.959,0.015 1.06,0 1.104,-0.058 1.133,-0.102 1.104,-0.378 1.089,-0.407 1.06,-0.466 0.93,-0.48 0.886,-0.451 0.712,-0.422 0.784,-0.073 0.872,-0.029 M 1.859,-0.306 C 1.946,-0.276 2.193,-0.378 2.237,-0.407 2.31,-0.48 2.281,-0.64 2.222,-0.713 2.106,-0.975 1.743,-0.757 1.714,-0.582 1.685,-0.437 1.743,-0.364 1.859,-0.306 M 2.295,0.262 C 2.339,0.291 2.6,0.204 2.615,0.175 2.658,0.131 2.644,0 2.615,-0.029 2.542,-0.189 2.222,-0.044 2.193,0.058 2.179,0.145 2.208,0.233 2.295,0.262 M 2.644,0.698 C 2.687,0.713 2.876,0.655 2.891,0.626 2.934,0.597 2.92,0.509 2.891,0.48 2.832,0.349 2.6,0.466 2.571,0.538 2.556,0.611 2.586,0.684 2.644,0.698 M 3.152,-0.844 C 3.225,-0.917 3.297,-0.975 3.37,-1.048 3.414,-1.091 3.428,-1.179 3.428,-1.266 3.414,-1.44 3.21,-1.47 3.021,-1.411 c -0.145,0.043 -0.334,0.116 -0.377,0.305 -0.058,0.248 0.145,0.509 0.508,0.262 m -0.16,2.328 c -0.189,0.204 0,0.407 0.233,0.277 C 3.602,1.571 3.965,1.382 4.343,1.208 4.59,1.077 4.445,0.888 4.169,0.931 3.733,1.106 3.312,1.368 2.992,1.484 M 3.443,0.335 c 0.043,0.014 0.232,-0.059 0.246,-0.073 0.03,-0.029 0.03,-0.131 0,-0.16 -0.058,-0.117 -0.305,0 -0.319,0.073 -0.015,0.058 0.014,0.131 0.073,0.16 m 0.305,-0.699 c 0.058,-0.058 0.101,-0.218 0.014,-0.276 -0.145,-0.146 -0.508,0.145 -0.494,0.262 0.015,0.102 0.087,0.203 0.175,0.203 0.058,0 0.217,-0.116 0.305,-0.189 M 0.32,-0.655 c 1.438,-0.291 2.643,-0.727 3.094,-1.673 0.058,-0.131 0.072,-0.189 0.203,-0.262 0.363,-0.233 0.523,0.175 0.247,0.451 -0.204,0.218 -0.145,0.218 0,0.495 0.334,0.596 0.871,1.164 0.377,1.819 C 4.082,0.291 3.922,0.407 3.762,0.524 3.704,0.727 3.82,0.742 3.951,0.727 4.169,0.611 4.387,0.509 4.605,0.407 5.113,0.582 5.142,1.193 4.634,1.382 4.009,1.819 3.123,2.357 2.716,2.168 2.092,1.499 2.615,1.339 3.021,1.12 3.239,0.989 3.152,0.946 2.963,0.946 2.135,1.179 2.31,0.975 1.699,0.436 1.351,0.189 1.089,0.291 0.988,0.48 0.915,0.64 0.944,0.684 1.075,0.742 1.336,0.873 1.54,1.019 1.438,1.208 1.482,1.484 1.554,1.746 1.787,1.891 2.048,2.022 2.31,2.139 2.237,2.546 2.005,2.925 1.423,3.07 1.612,2.648 1.714,2.372 1.453,2.11 1.351,2.255 0.61,2.488 -0.073,2.692 -0.058,2.415 -0.232,2.124 0.378,2.037 0.944,1.95 1.089,1.891 1.089,1.717 0.944,1.717 0.581,1.731 0.218,1.731 -0.145,1.746 -0.392,1.731 -0.45,1.368 -0.073,1.353 0.261,1.353 0.639,1.324 0.959,1.397 1.118,1.426 1.075,1.062 0.857,1.077 -0.232,1.091 -0.073,0.989 -0.131,0.917 -0.247,0.684 -0.276,0.422 -0.407,0.189 -0.77,-0.48 -0.378,-0.64 0.32,-0.655"
       style="fill:#e03822;fill-opacity:1;fill-rule:nonzero;stroke:none"
       transform="matrix(0.35277776,0,0,-0.35277776,154.1981,176.11643)"
       clip-path="url(#clipPath3478)" />
    <path
       id="path3479"
       d="m 0,0 c 0.16,0.16 0.407,-0.058 0.479,-0.407 0.044,-0.248 -0.072,-0.437 -0.276,-0.568 -0.319,-0.32 -0.61,-0.276 -0.9,0 -0.087,0.335 -0.087,0.597 0.043,0.742 0.088,0 0.48,0.044 0.654,0.233 M -1.569,1.164 C -1.278,0.96 -1.002,0.742 -0.726,0.524 -0.581,0.393 -0.625,0.32 -0.842,0.32 -1.075,0.306 -1.409,0.698 -1.598,0.844 c -0.247,0.262 -0.581,0.102 -0.465,-0.16 0.247,-0.218 0.494,-0.422 0.741,-0.64 0.262,-0.233 0.029,-0.611 -0.319,-0.437 -0.422,0.247 -0.828,0.509 -1.25,0.757 -0.537,0.247 -0.624,-0.015 -0.537,-0.262 0.378,-0.684 2.208,-0.378 2.208,-1.659 0.087,-0.626 -0.145,-1.353 -0.407,-1.891 -0.131,-0.539 0.523,-0.582 0.625,-0.175 0.087,0.626 0.189,1.266 0.276,1.906 0.043,0.247 0.276,0.218 0.406,0.073 0.233,-0.262 -0.058,-0.844 0.175,-1.179 0.16,-0.233 0.392,0 0.377,0.248 0,0.349 -0.014,0.683 -0.029,1.033 0,0.116 0.087,0.232 0.189,0.145 0.233,-0.174 -0.131,-1.251 0.204,-1.528 0.261,-0.218 0.566,-0.145 0.464,0.233 -0.188,0.67 -0.159,1.266 -0.101,1.848 0,0.146 -0.015,0.306 0,0.451 C 1.002,0 1.729,0.306 0.45,0.335 0.029,0.218 -0.61,1.062 -1.148,1.426 -1.699,1.746 -1.845,1.673 -1.569,1.164"
       style="fill:#e03822;fill-opacity:1;fill-rule:nonzero;stroke:none"
       transform="matrix(0.35277776,0,0,-0.35277776,158.0618,178.06182)"
       clip-path="url(#clipPath3480)" />
    <path
       id="path3481"
       d="M 0,0 C -0.145,-0.087 -0.276,-0.131 -0.232,0.102 -0.189,0.335 -0.16,0.437 0,0.655 0.131,0.888 0.232,0.829 0.291,0.495 0.232,0.335 0.131,0.16 0,0 M 0.93,1.208 C 0.973,0.902 0.93,0.611 0.784,0.364 0.668,0.262 0.523,0.247 0.552,0.422 0.596,0.888 0.566,1.251 0.145,1.179 -0.218,0.975 -0.654,-0.044 -0.581,-0.335 -0.436,-0.742 -0.058,-0.509 0.102,-0.218 0.203,0 0.465,-0.276 0.276,-0.393 c -0.32,-0.204 -0.537,-0.364 -0.683,-0.567 -0.13,-0.524 0.494,-0.248 0.639,0 0.262,0.465 0.393,0.378 0.451,0.029 0.014,-0.509 0.479,-0.131 0.523,0.145 0.058,0.437 -0.349,0.742 -0.029,1.048 0.522,1.426 -0.276,1.28 -0.247,0.946"
       style="fill:#e03822;fill-opacity:1;fill-rule:nonzero;stroke:none"
       transform="matrix(0.35277776,0,0,-0.35277776,148.56142,178.51352)"
       clip-path="url(#clipPath3482)" />
    <path
       id="path3483"
       d="M 0,0 C 0,0.204 0.058,0.146 0.131,0.364 0.189,0.437 0.261,0.495 0.334,0.567 0.479,0.815 0.828,0.844 0.697,0.495 0.683,0.437 0.668,0.378 0.639,0.32 0.61,0.233 0.639,0.058 0.784,0.116 0.901,0.175 0.857,0.291 0.944,0.349 1.06,0.437 1.118,0.364 1.162,0.247 1.235,0.073 1.147,0.116 1.046,-0.015 0.959,-0.131 0.915,-0.247 0.886,-0.378 0.784,-0.597 0.508,-0.509 0.508,-0.393 0.479,0 0.45,-0.029 0.334,-0.087 0.087,-0.218 0.363,-0.48 -0.029,-0.262 -0.029,-0.175 -0.015,-0.087 0,0 M 0.988,-0.96 C 0.944,-1.091 0.872,-1.179 0.799,-1.208 0.697,-1.251 0.625,-1.222 0.61,-1.12 c -0.029,0.116 0.015,0.189 0.058,0.276 0.305,0.102 0.407,0.073 0.32,-0.116 m -1.453,0.072 c 0.087,-0.014 0.276,0.044 0.291,-0.058 0.101,-0.422 0.014,-0.407 0.392,-0.305 0.116,0.029 0.145,0.043 0.261,-0.015 C 0.625,-1.368 0.654,-1.47 0.61,-1.6 0.276,-2.415 -0.102,-3.157 0.842,-4.045 1.351,-4.19 1.235,-3.914 1.031,-3.565 0.726,-3.288 0.61,-2.823 0.712,-2.183 1.177,-0.611 2.28,0.218 2.963,0.102 3.53,0.058 3.646,0.175 3.559,0.364 3.515,0.669 3.167,0.655 2.803,0.626 2.121,0.567 1.699,0.102 1.38,-0.48 1.249,-0.567 1.147,-0.597 1.104,-0.495 1.482,0.029 1.743,0.538 1.22,0.946 0.726,1.44 0.552,1.295 0.392,1.164 0.189,0.989 0.058,0.713 -0.073,0.466 -0.145,0.349 -0.218,0.16 -0.232,0.029 -0.276,-0.233 -0.378,-0.466 -0.552,-0.64 -0.683,-0.844 -0.668,-0.917 -0.465,-0.888"
       style="fill:#e03822;fill-opacity:1;fill-rule:nonzero;stroke:none"
       transform="matrix(0.35277776,0,0,-0.35277776,147.95165,177.87189)"
       clip-path="url(#clipPath3484)" />
    <path
       id="path3485"
       d="M 0,0 C 0.349,-0.175 0.625,-0.189 0.77,-0.218 1.104,-0.247 1.38,0.364 1.322,0.698 1.278,0.873 1.133,0.829 1.046,0.728 0.959,0.611 0.944,0.437 0.944,0.437 0.944,0.306 0.857,0.335 0.799,0.335 0.625,0.349 0.712,0.626 0.77,0.771 0.813,0.873 0.828,0.873 0.741,0.96 0.552,1.179 0.45,0.495 0.334,0.437 -0.044,0.262 0.073,0.771 0.261,0.931 0.407,1.048 0.276,1.324 0.131,1.251 -0.058,1.149 -0.218,0.495 -0.218,0.495 -0.232,0.189 -0.145,0.058 0,0"
       style="fill:#e03822;fill-opacity:1;fill-rule:nonzero;stroke:none"
       transform="matrix(0.35277776,0,0,-0.35277776,147.61344,178.69315)"
       clip-path="url(#clipPath3486)" />
  </g>
</svg>
