<?xml version="1.0" encoding="UTF-8" standalone="no"?>
<!-- Created with Inkscape (http://www.inkscape.org/) -->

<svg
   width="13.802419mm"
   height="13.802436mm"
   viewBox="0 0 13.802419 13.802436"
   version="1.1"
   id="svg1"
   xmlns="http://www.w3.org/2000/svg"
   xmlns:svg="http://www.w3.org/2000/svg">
  <defs
     id="defs1">
    <clipPath
       clipPathUnits="userSpaceOnUse"
       id="clipPath2910">
      <path
         d="M 0,858.898 H 1207.558 V 0 H 0 Z"
         transform="translate(-460.30121,-222.1287)"
         id="path2910" />
    </clipPath>
    <clipPath
       clipPathUnits="userSpaceOnUse"
       id="clipPath2912">
      <path
         d="M 0,858.898 H 1207.558 V 0 H 0 Z"
         transform="translate(-452.78591,-229.2591)"
         id="path2912" />
    </clipPath>
    <clipPath
       clipPathUnits="userSpaceOnUse"
       id="clipPath2914">
      <path
         d="M 0,858.898 H 1207.558 V 0 H 0 Z"
         transform="translate(-452.78591,-222.76251)"
         id="path2914" />
    </clipPath>
    <clipPath
       clipPathUnits="userSpaceOnUse"
       id="clipPath2916">
      <path
         d="M 0,858.898 H 1207.558 V 0 H 0 Z"
         transform="translate(-467.05981,-210.69891)"
         id="path2916" />
    </clipPath>
    <clipPath
       clipPathUnits="userSpaceOnUse"
       id="clipPath2918">
      <path
         d="M 0,858.898 H 1207.558 V 0 H 0 Z"
         transform="translate(-470.18571,-215.60651)"
         id="path2918" />
    </clipPath>
    <clipPath
       clipPathUnits="userSpaceOnUse"
       id="clipPath2920">
      <path
         d="M 0,858.898 H 1207.558 V 0 H 0 Z"
         transform="translate(-469.97921,-206.01101)"
         id="path2920" />
    </clipPath>
    <clipPath
       clipPathUnits="userSpaceOnUse"
       id="clipPath2922">
      <path
         d="M 0,858.898 H 1207.558 V 0 H 0 Z"
         transform="translate(-465.46321,-205.76871)"
         id="path2922" />
    </clipPath>
    <clipPath
       clipPathUnits="userSpaceOnUse"
       id="clipPath2924">
      <path
         d="M 0,858.898 H 1207.558 V 0 H 0 Z"
         transform="translate(-438.31321,-211.8939)"
         id="path2924" />
    </clipPath>
    <clipPath
       clipPathUnits="userSpaceOnUse"
       id="clipPath2926">
      <path
         d="M 0,858.898 H 1207.558 V 0 H 0 Z"
         transform="translate(-435.15341,-207.0531)"
         id="path2926" />
    </clipPath>
    <clipPath
       clipPathUnits="userSpaceOnUse"
       id="clipPath2928">
      <path
         d="M 0,858.898 H 1207.558 V 0 H 0 Z"
         transform="translate(-441.68751,-218.57301)"
         id="path2928" />
    </clipPath>
    <clipPath
       clipPathUnits="userSpaceOnUse"
       id="clipPath2930">
      <path
         d="M 0,858.898 H 1207.558 V 0 H 0 Z"
         transform="translate(-455.93811,-224.60511)"
         id="path2930" />
    </clipPath>
    <clipPath
       clipPathUnits="userSpaceOnUse"
       id="clipPath2932">
      <path
         d="M 0,858.898 H 1207.558 V 0 H 0 Z"
         transform="translate(-465.67271,-220.092)"
         id="path2932" />
    </clipPath>
    <clipPath
       clipPathUnits="userSpaceOnUse"
       id="clipPath2934">
      <path
         d="M 0,858.898 H 1207.558 V 0 H 0 Z"
         transform="translate(-445.90261,-227.31441)"
         id="path2934" />
    </clipPath>
    <clipPath
       clipPathUnits="userSpaceOnUse"
       id="clipPath2936">
      <path
         d="M 0,858.898 H 1207.558 V 0 H 0 Z"
         transform="translate(-450.28731,-224.17061)"
         id="path2936" />
    </clipPath>
    <clipPath
       clipPathUnits="userSpaceOnUse"
       id="clipPath2938">
      <path
         d="M 0,858.898 H 1207.558 V 0 H 0 Z"
         transform="translate(-447.33221,-209.51301)"
         id="path2938" />
    </clipPath>
    <clipPath
       clipPathUnits="userSpaceOnUse"
       id="clipPath2940">
      <path
         d="M 0,858.898 H 1207.558 V 0 H 0 Z"
         transform="translate(-459.46211,-214.62341)"
         id="path2940" />
    </clipPath>
    <clipPath
       clipPathUnits="userSpaceOnUse"
       id="clipPath2942">
      <path
         d="M 0,858.898 H 1207.558 V 0 H 0 Z"
         transform="translate(-459.83811,-211.11561)"
         id="path2942" />
    </clipPath>
    <clipPath
       clipPathUnits="userSpaceOnUse"
       id="clipPath2944">
      <path
         d="M 0,858.898 H 1207.558 V 0 H 0 Z"
         transform="translate(-459.60351,-205.8981)"
         id="path2944" />
    </clipPath>
    <clipPath
       clipPathUnits="userSpaceOnUse"
       id="clipPath2946">
      <path
         d="M 0,858.898 H 1207.558 V 0 H 0 Z"
         transform="translate(-438.76811,-217.32911)"
         id="path2946" />
    </clipPath>
    <clipPath
       clipPathUnits="userSpaceOnUse"
       id="clipPath2948">
      <path
         d="M 0,858.898 H 1207.558 V 0 H 0 Z"
         transform="translate(-461.79111,-226.32651)"
         id="path2948" />
    </clipPath>
    <clipPath
       clipPathUnits="userSpaceOnUse"
       id="clipPath2950">
      <path
         d="M 0,858.898 H 1207.558 V 0 H 0 Z"
         transform="translate(-441.06781,-203.6748)"
         id="path2950" />
    </clipPath>
    <clipPath
       clipPathUnits="userSpaceOnUse"
       id="clipPath2952">
      <path
         d="M 0,858.898 H 1207.558 V 0 H 0 Z"
         transform="translate(-444.27441,-195.8484)"
         id="path2952" />
    </clipPath>
    <clipPath
       clipPathUnits="userSpaceOnUse"
       id="clipPath2954">
      <path
         d="M 0,858.898 H 1207.558 V 0 H 0 Z"
         transform="translate(-450.14651,-195.9165)"
         id="path2954" />
    </clipPath>
    <clipPath
       clipPathUnits="userSpaceOnUse"
       id="clipPath2956">
      <path
         d="M 0,858.898 H 1207.558 V 0 H 0 Z"
         transform="translate(-460.08051,-197.0697)"
         id="path2956" />
    </clipPath>
    <clipPath
       clipPathUnits="userSpaceOnUse"
       id="clipPath2958">
      <path
         d="M 0,858.898 H 1207.558 V 0 H 0 Z"
         transform="translate(-455.99831,-193.31411)"
         id="path2958" />
    </clipPath>
  </defs>
  <g
     id="layer1"
     transform="translate(-146.1849,-152.36749)">
    <path
       id="path2909"
       d="M 0,0 C -0.164,0.137 -0.2,0.25 -0.134,0.343 0.001,0.53 0.277,0.239 0.478,0.479 L 2.416,2.8 C 2.62,3.043 2.289,3.255 2.45,3.436 2.525,3.522 2.637,3.514 2.801,3.377 L 4.835,1.678 C 5.097,1.459 5.1,1.26 4.77,0.851 4.691,0.752 4.581,0.679 4.506,0.755 4.432,0.831 4.468,0.957 4.428,1.17 4.398,1.33 4.355,1.451 4.172,1.604 L 3.536,2.135 C 3.374,2.27 3.132,2.247 2.996,2.084 L 2.305,1.256 3.187,0.519 C 3.39,0.349 3.633,0.576 3.756,0.474 3.856,0.39 3.688,0.146 3.526,-0.048 3.311,-0.305 3.104,-0.521 3.004,-0.432 2.878,-0.321 3.092,-0.063 2.854,0.137 L 1.979,0.867 1.287,0.038 C 1.151,-0.125 1.172,-0.367 1.333,-0.502 l 0.72,-0.6 c 0.185,-0.156 0.355,-0.162 0.512,-0.143 0.199,0.023 0.318,0.071 0.407,0.024 C 3.096,-1.285 3.051,-1.405 2.981,-1.479 2.617,-1.865 2.398,-2.003 2.157,-1.801 Z"
       style="fill:#293d9b;fill-opacity:1;fill-rule:nonzero;stroke:none"
       transform="matrix(0.35277776,0,0,-0.35277776,155.73717,155.2322)"
       clip-path="url(#clipPath2910)" />
    <path
       id="path2911"
       d="m 0,0 c -10.241,0 -18.572,-8.332 -18.572,-18.573 0,-10.24 8.331,-18.572 18.572,-18.572 10.241,0 18.573,8.332 18.573,18.572 C 18.573,-8.332 10.241,0 0,0 m 0,-38.135 c -10.786,0 -19.562,8.776 -19.562,19.562 0,10.787 8.776,19.563 19.562,19.563 10.787,0 19.563,-8.776 19.563,-19.563 0,-10.786 -8.776,-19.562 -19.563,-19.562"
       style="fill:#293d9b;fill-opacity:1;fill-rule:nonzero;stroke:none"
       transform="matrix(0.35277776,0,0,-0.35277776,153.08594,152.71675)"
       clip-path="url(#clipPath2912)" />
    <path
       id="path2913"
       d="m 0,0 c -6.658,0 -12.076,-5.417 -12.076,-12.076 0,-6.658 5.418,-12.076 12.076,-12.076 6.659,0 12.076,5.418 12.076,12.076 C 12.076,-5.417 6.659,0 0,0 m 0,-25.141 c -7.204,0 -13.065,5.861 -13.065,13.065 0,7.204 5.861,13.066 13.065,13.066 7.205,0 13.066,-5.862 13.066,-13.066 0,-7.204 -5.861,-13.065 -13.066,-13.065"
       style="fill:#293d9b;fill-opacity:1;fill-rule:nonzero;stroke:none"
       transform="matrix(0.35277776,0,0,-0.35277776,153.08594,155.00861)"
       clip-path="url(#clipPath2914)" />
    <path
       id="path2915"
       d="m 0,0 c -0.317,-0.013 -0.239,-0.343 -0.43,-0.371 -0.112,-0.016 -0.182,0.072 -0.191,0.286 l -0.044,1.069 c -0.009,0.204 0.041,0.29 0.155,0.283 0.184,-0.014 0.154,-0.352 0.471,-0.339 L 3.048,1.056 C 3.365,1.069 3.304,1.418 3.526,1.446 3.642,1.461 3.71,1.363 3.719,1.15 L 3.763,0.083 C 3.772,-0.131 3.704,-0.208 3.595,-0.204 3.369,-0.195 3.404,0.141 3.086,0.128 Z"
       style="fill:#293d9b;fill-opacity:1;fill-rule:nonzero;stroke:none"
       transform="matrix(0.35277776,0,0,-0.35277776,158.12145,159.26438)"
       clip-path="url(#clipPath2916)" />
    <path
       id="path2917"
       d="M 0,0 C 0.115,-0.424 0.085,-0.714 0.069,-0.929 0.058,-1.074 0.014,-1.233 0.16,-1.322 c 0.212,-0.13 0.112,-0.303 -0.065,-0.4 -0.14,-0.078 -0.471,-0.238 -0.824,-0.347 -0.11,-0.033 -0.229,-0.04 -0.27,0.078 -0.065,0.194 0.21,0.304 0.431,0.742 0.161,0.317 0.212,0.677 0.088,1.082 -0.139,0.454 -0.429,0.65 -0.758,0.488 -0.748,-0.368 0.378,-2.539 -1.234,-3.019 -0.856,-0.256 -1.584,0.16 -1.88,1.248 -0.098,0.361 -0.084,0.751 -0.033,1.06 0.031,0.186 -0.2,0.185 -0.233,0.342 -0.027,0.126 0.108,0.249 0.255,0.36 0.255,0.193 0.638,0.398 0.858,0.482 0.238,0.091 0.362,0.045 0.402,-0.099 0.082,-0.293 -0.904,-0.857 -0.704,-1.909 0.116,-0.61 0.436,-0.846 0.844,-0.735 0.93,0.251 -0.319,2.506 1.218,3.086 C -1.021,1.41 -0.267,0.988 0,0"
       style="fill:#293d9b;fill-opacity:1;fill-rule:nonzero;stroke:none"
       transform="matrix(0.35277776,0,0,-0.35277776,159.2242,157.53308)"
       clip-path="url(#clipPath2918)" />
    <path
       id="path2919"
       d="m 0,0 c 0.142,0.01 0.23,0.088 0.255,0.226 l 0.56,2.973 C 0.841,3.337 0.788,3.442 0.66,3.502 0.531,3.563 0.144,3.674 0.014,3.698 -0.086,3.717 -0.183,3.701 -0.218,3.587 -0.293,3.34 0.288,3.002 0.223,2.656 L 0.19,2.481 C 0.165,2.351 0.041,2.266 -0.089,2.29 l -2.99,0.563 C -3.391,2.912 -3.278,3.242 -3.448,3.297 -3.556,3.333 -3.634,3.279 -3.67,3.086 L -3.882,1.964 C -3.916,1.78 -3.865,1.69 -3.751,1.685 c 0.169,-0.008 0.192,0.338 0.505,0.28 l 2.989,-0.563 c 0.13,-0.025 0.215,-0.15 0.191,-0.279 L -0.099,0.948 C -0.164,0.602 -0.828,0.497 -0.848,0.241 -0.857,0.122 -0.772,0.071 -0.672,0.052 -0.543,0.028 -0.142,-0.01 0,0"
       style="fill:#293d9b;fill-opacity:1;fill-rule:nonzero;stroke:none"
       transform="matrix(0.35277776,0,0,-0.35277776,159.15135,160.91816)"
       clip-path="url(#clipPath2920)" />
    <path
       id="path2921"
       d="M 0,0 C 0.086,0.196 0.17,0.224 0.275,0.178 0.51,0.075 0.235,-0.167 0.526,-0.295 l 1.058,-0.462 2.257,0.322 c 0,0 0.182,0.037 0.274,0.085 0.196,0.102 0.297,0.203 0.408,0.173 0.109,-0.029 0.124,-0.147 0.086,-0.234 L 4.061,-1.665 C 4.008,-1.785 3.905,-1.825 3.815,-1.766 3.723,-1.707 3.75,-1.545 3.649,-1.429 3.575,-1.344 3.442,-1.371 3.442,-1.371 l -1.553,-0.22 0.946,-1.304 c 0,0 0.08,-0.113 0.169,-0.099 0.123,0.019 0.256,0.262 0.399,0.243 0.085,-0.011 0.139,-0.1 0.077,-0.241 L 3.051,-3.975 C 3.006,-4.079 2.915,-4.145 2.826,-4.068 2.734,-3.987 2.764,-3.803 2.677,-3.575 2.616,-3.418 2.561,-3.349 2.561,-3.349 l -1.34,1.764 -1.057,0.462 c -0.292,0.127 -0.282,-0.24 -0.518,-0.137 -0.104,0.046 -0.141,0.126 -0.056,0.322 z"
       style="fill:#293d9b;fill-opacity:1;fill-rule:nonzero;stroke:none"
       transform="matrix(0.35277776,0,0,-0.35277776,157.55821,161.00364)"
       clip-path="url(#clipPath2922)" />
    <path
       id="path2923"
       d="m 0,0 c 0.196,-0.026 0.376,0.112 0.401,0.307 0,0 0.013,0.104 0.042,0.326 C 0.51,1.156 0.126,1.785 -1.041,1.935 -2.143,2.076 -2.759,1.703 -2.837,1.093 -2.866,0.871 -2.884,0.728 -2.884,0.728 -2.909,0.532 -2.77,0.355 -2.573,0.329 Z m -2.807,-0.54 c -0.335,0.043 -0.385,-0.312 -0.614,-0.277 -0.097,0.015 -0.17,0.107 -0.144,0.314 l 0.197,1.541 c 0.194,1.505 1.184,2.005 2.396,1.85 C 0.34,2.72 1.158,1.837 0.991,0.529 L 0.787,-1.06 C 0.76,-1.273 0.67,-1.332 0.578,-1.327 0.347,-1.317 0.417,-0.953 0.103,-0.913 Z"
       style="fill:#293d9b;fill-opacity:1;fill-rule:nonzero;stroke:none"
       transform="matrix(0.35277776,0,0,-0.35277776,147.98029,158.84281)"
       clip-path="url(#clipPath2924)" />
    <path
       id="path2925"
       d="M 0,0 C -0.025,0.146 0.035,0.251 0.138,0.259 0.355,0.276 0.412,-0.038 0.667,0.005 0.858,0.038 2.047,0.241 2.808,0.371 3.387,0.47 3.846,0.752 3.713,1.53 3.602,2.176 3.038,2.393 2.46,2.294 2.024,2.22 0.401,1.943 0.369,1.938 0.307,1.927 0.199,1.897 0.149,1.808 0.074,1.676 0.045,1.51 -0.069,1.471 -0.176,1.436 -0.257,1.506 -0.273,1.6 L -0.434,2.539 C -0.46,2.691 -0.396,2.75 -0.301,2.76 -0.189,2.773 -0.125,2.625 0.032,2.531 0.1,2.49 0.209,2.516 0.278,2.528 0.379,2.545 1.631,2.759 2.319,2.876 3.135,3.015 4.065,2.83 4.292,1.496 4.508,0.236 3.818,-0.436 2.907,-0.591 2.133,-0.723 1.012,-0.915 0.83,-0.946 0.551,-0.994 0.622,-1.345 0.419,-1.386 0.311,-1.408 0.227,-1.329 0.201,-1.176 Z"
       style="fill:#293d9b;fill-opacity:1;fill-rule:nonzero;stroke:none"
       transform="matrix(0.35277776,0,0,-0.35277776,146.86559,160.55053)"
       clip-path="url(#clipPath2926)" />
    <path
       id="path2927"
       d="m 0,0 c -0.157,-0.179 -0.257,-0.18 -0.323,-0.096 -0.106,0.135 0.201,0.441 -0.038,0.65 L -2.698,2.607 C -2.937,2.816 -3.146,2.414 -3.35,2.562 -3.437,2.625 -3.43,2.743 -3.352,2.832 l 0.489,0.557 c 0.253,0.288 0.422,0.315 0.79,0.266 0.528,-0.071 2.746,-0.333 2.746,-0.333 l -1.53,1.343 C -1.095,4.875 -1.346,4.523 -1.522,4.643 -1.607,4.7 -1.618,4.807 -1.476,4.968 l 0.59,0.671 c 0.103,0.118 0.21,0.125 0.278,0.033 0.111,-0.153 -0.148,-0.411 0.09,-0.621 L 2.036,2.809 C 2.229,2.641 2.23,2.461 2.108,2.31 2.041,2.227 1.919,2.17 1.735,2.191 l -3.76,0.508 2.005,-1.76 C 0.219,0.729 0.442,1.056 0.6,0.949 0.683,0.892 0.685,0.78 0.55,0.626 Z"
       style="fill:#293d9b;fill-opacity:1;fill-rule:nonzero;stroke:none"
       transform="matrix(0.35277776,0,0,-0.35277776,149.17067,156.48657)"
       clip-path="url(#clipPath2928)" />
    <path
       id="path2929"
       d="M 0,0 C -0.053,-0.313 0.283,-0.352 0.274,-0.522 0.267,-0.636 0.178,-0.689 -0.033,-0.653 l -1.066,0.181 c -0.206,0.035 -0.275,0.114 -0.248,0.224 0.044,0.18 0.378,0.09 0.431,0.403 l 0.515,3.037 c 0.053,0.314 -0.285,0.341 -0.272,0.537 0.008,0.104 0.105,0.159 0.308,0.125 L 0.7,3.673 C 0.906,3.638 0.98,3.56 0.947,3.449 0.889,3.247 0.568,3.35 0.515,3.037 Z"
       style="fill:#293d9b;fill-opacity:1;fill-rule:nonzero;stroke:none"
       transform="matrix(0.35277776,0,0,-0.35277776,154.19796,154.35858)"
       clip-path="url(#clipPath2930)" />
    <path
       id="path2931"
       d="M 0,0 C 0,0 0.189,-0.294 0.306,-0.476 0.601,-0.933 1.044,-1.178 1.567,-0.841 1.93,-0.607 2.049,-0.22 1.647,0.404 1.425,0.749 1.237,0.797 1.026,0.661 Z m -2.478,-0.45 c -0.115,0.18 -0.098,0.276 0.003,0.327 0.143,0.073 0.298,-0.203 0.554,-0.039 l 2.569,1.655 c 0.268,0.172 0.054,0.453 0.257,0.576 0.098,0.06 0.208,0.009 0.323,-0.17 L 2.292,0.247 C 2.749,-0.462 2.747,-1.29 2.035,-1.707 1.498,-2.022 0.945,-1.816 0.556,-1.535 c 0,0 -0.613,-1.109 -0.724,-1.317 -0.147,-0.277 0.04,-0.545 -0.13,-0.678 -0.071,-0.055 -0.171,-0.039 -0.233,0.058 l -0.752,1.168 c -0.046,0.07 -0.052,0.194 0.048,0.235 0.129,0.053 0.228,-0.121 0.36,-0.104 0.104,0.013 0.157,0.107 0.191,0.171 0.038,0.07 0.63,1.15 0.63,1.15 l -0.372,0.577 -1.005,-0.647 C -1.698,-1.094 -1.489,-1.329 -1.625,-1.442 -1.706,-1.51 -1.808,-1.49 -1.924,-1.31 Z"
       style="fill:#293d9b;fill-opacity:1;fill-rule:nonzero;stroke:none"
       transform="matrix(0.35277776,0,0,-0.35277776,157.63212,155.9507)"
       clip-path="url(#clipPath2932)" />
    <path
       id="path2933"
       d="M 0,0 C 0.14,0.051 0.253,0.01 0.279,-0.09 0.335,-0.3 0.036,-0.413 0.124,-0.656 c 0.066,-0.183 0.477,-1.316 0.74,-2.043 0.2,-0.551 0.55,-0.93 1.293,-0.66 0.616,0.224 0.737,0.794 0.538,1.344 -0.151,0.416 -0.712,1.965 -0.723,1.996 -0.021,0.058 -0.07,0.16 -0.166,0.193 -0.144,0.05 -0.313,0.049 -0.37,0.155 -0.054,0.098 0,0.191 0.09,0.224 L 2.422,0.877 C 2.567,0.93 2.636,0.878 2.663,0.786 2.696,0.677 2.561,0.588 2.497,0.417 2.469,0.344 2.514,0.24 2.537,0.175 2.572,0.079 3.005,-1.116 3.243,-1.772 3.525,-2.551 3.507,-3.498 2.234,-3.959 c -1.202,-0.436 -1.985,0.123 -2.3,0.993 -0.268,0.738 -0.655,1.807 -0.718,1.981 -0.096,0.265 -0.429,0.133 -0.506,0.326 -0.04,0.102 0.023,0.2 0.168,0.252 z"
       style="fill:#293d9b;fill-opacity:1;fill-rule:nonzero;stroke:none"
       transform="matrix(0.35277776,0,0,-0.35277776,150.65766,153.4028)"
       clip-path="url(#clipPath2934)" />
    <path
       id="path2935"
       d="m 0,0 c -0.238,-0.01 -0.307,0.063 -0.292,0.169 0.025,0.17 0.458,0.157 0.446,0.474 L 0.038,3.752 C 0.026,4.07 -0.41,3.944 -0.443,4.194 -0.457,4.3 -0.366,4.376 -0.248,4.381 L 0.493,4.409 C 0.876,4.423 1.012,4.318 1.229,4.018 1.541,3.586 2.875,1.795 2.875,1.795 L 2.799,3.83 C 2.787,4.147 2.359,4.087 2.325,4.298 2.309,4.399 2.379,4.48 2.593,4.487 L 3.486,4.521 C 3.643,4.527 3.721,4.453 3.701,4.341 3.666,4.155 3.301,4.166 3.313,3.849 L 3.44,0.453 C 3.449,0.197 3.32,0.072 3.127,0.057 3.02,0.049 2.895,0.098 2.783,0.246 L 0.568,3.326 0.668,0.66 C 0.68,0.342 1.071,0.405 1.102,0.217 1.118,0.117 1.037,0.039 0.833,0.031 Z"
       style="fill:#293d9b;fill-opacity:1;fill-rule:nonzero;stroke:none"
       transform="matrix(0.35277776,0,0,-0.35277776,152.20449,154.51186)"
       clip-path="url(#clipPath2936)" />
    <path
       id="path2937"
       d="m 0,0 c -0.23,-0.173 -0.524,-0.23 -0.806,-0.24 -0.677,-0.087 -1.304,-0.05 -1.939,0.218 -0.508,0.34 -0.608,0.8 -0.684,1.376 C -2.044,1.538 -0.78,1.84 0.606,1.531 0.624,0.948 0.513,0.386 0,0 m -2.956,4.631 c 0.465,0.368 0.996,0.442 1.571,0.46 0.381,-0.037 0.768,-0.04 1.147,-0.105 C 0.1,4.939 0.363,4.711 0.483,4.404 0.646,3.987 0.644,3.699 0.605,3.261 -0.814,3.2 -2.148,3.072 -3.568,3.097 c 0.005,0.621 0.115,1.106 0.612,1.534 M 12.656,9.323 C 12.049,9.373 11.12,9.415 10.511,9.362 8.521,9.298 7.635,8.959 5.65,8.83 5.355,8.833 5.217,9.21 5.29,9.507 5.478,10.157 5.765,10.426 5.848,11.105 5.917,11.488 5.73,11.878 5.444,12.126 4.879,12.478 3.986,12.138 3.864,11.463 3.708,10.833 3.597,10.531 3.254,9.971 2.756,9.187 2.069,8.553 1.487,7.836 1.36,7.668 1.196,7.507 1.182,7.284 1.223,6.886 1.622,6.556 2.023,6.629 2.711,6.721 3.298,7.135 3.797,7.593 3.895,7.523 4.023,7.479 4.094,7.379 3.566,6.614 2.833,6 2.36,5.191 2.248,4.989 2.176,4.759 2,4.599 1.914,5.227 1.838,5.922 1.229,6.274 0.113,6.923 -1.979,7.031 -3.416,6.452 -3.729,6.326 -3.943,6.204 -4.219,5.997 -4.58,5.726 -4.745,5.304 -4.864,4.943 -5.258,3.547 -5.39,2.152 -5.188,0.719 c 0.148,-1.132 0.984,-2.131 2.057,-2.509 0.651,-0.232 1.355,-0.137 2.031,-0.121 0.966,0.03 1.92,0.234 2.629,0.943 0.582,0.641 0.665,1.543 0.752,2.364 0.037,0.66 0.568,1.185 0.807,1.776 0.213,0.504 0.467,1.108 0.687,1.29 0.22,0.182 0.363,-0.095 0.28,-0.196 -0.943,-1.961 -1.176,-4.662 -1.187,-6.808 -1.15,0.071 -2.287,0.018 -3.434,-0.046 -0.594,-0.034 -1.542,-0.056 -2.63,-0.262 -0.212,-0.041 -0.883,-0.252 -1.087,-0.351 -0.561,-0.32 -0.306,-1.126 0.133,-1.51 0.264,-0.23 1.368,-0.011 1.571,0.024 2.231,0.478 3.375,0.485 5.38,0.437 0.032,-1.085 0.046,-2.263 0.287,-3.632 0.103,-0.653 0.126,-1.324 0.583,-1.848 0.226,-0.283 0.634,-0.284 0.956,-0.201 0.36,0.124 0.426,0.566 0.441,0.898 -0.039,0.597 -0.165,1.091 -0.204,1.688 -0.084,0.895 -0.133,1.793 -0.147,2.692 -0.023,1.401 -0.151,2.808 0.001,4.206 0.012,0.328 0.071,0.651 0.101,0.976 0.1,0.646 0.151,1.303 0.332,1.933 0.19,0.689 0.493,1.344 0.624,2.049 0.043,0.618 -0.423,1.119 -0.49,1.718 -0.044,0.276 0.154,0.515 0.37,0.657 0.35,0.228 0.766,0.311 1.156,0.445 0.563,0.193 1.161,0.181 1.746,0.236 1.078,0.038 1.652,0.194 2.728,0.102 0.659,-0.017 1.267,-0.114 1.926,-0.107 0.353,-0.013 0.649,0.173 0.683,0.496 0.044,0.57 -0.507,1.204 -1.238,1.265"
       style="fill:#293d9b;fill-opacity:1;fill-rule:nonzero;stroke:none"
       transform="matrix(0.35277776,0,0,-0.35277776,151.162,159.68273)"
       clip-path="url(#clipPath2938)" />
    <path
       id="path2939"
       d="m 0,0 c -1.545,-0.047 -2.801,-0.135 -4.347,-0.1 -0.11,0.001 -0.219,0.049 -0.274,0.14 -0.056,0.091 -0.11,0.248 0.057,0.363 0.251,0.171 0.616,0.128 0.905,0.144 1.357,0.061 2.412,0.089 3.769,0.067 C 0.244,0.612 0.395,0.615 0.541,0.593 0.762,0.56 0.874,0.353 0.785,0.176 0.696,-0.002 0.273,0.02 0,0 M 1.792,1.385 C 1.04,1.884 0.091,1.939 -0.785,1.875 -1.496,1.857 -2.209,1.89 -2.92,1.854 -3.738,1.723 -4.348,1.886 -5.123,1.538 -5.504,1.345 -5.884,1.03 -5.962,0.588 -5.98,0.234 -5.966,-0.133 -5.846,-0.47 c 0.102,-0.314 0.365,-0.592 0.701,-0.644 1.65,-0.194 3.05,-0.017 4.705,-0.082 0.805,0.003 1.693,0.048 2.346,0.577 0.218,0.148 0.274,0.422 0.326,0.662 0.091,0.478 -0.02,1.046 -0.44,1.342"
       style="fill:#293d9b;fill-opacity:1;fill-rule:nonzero;stroke:none"
       transform="matrix(0.35277776,0,0,-0.35277776,155.44115,157.8799)"
       clip-path="url(#clipPath2940)" />
    <path
       id="path2941"
       d="m 0,0 c -0.11,-0.013 -0.316,-0.029 -0.413,-0.034 -1.187,-0.069 -1.665,-0.143 -3.366,-0.135 -0.453,0.004 -0.936,-0.011 -1.281,0.037 -0.151,0.021 -0.284,0.071 -0.285,0.171 -0.001,0.101 0.066,0.198 0.163,0.236 0.189,0.074 0.581,0.109 1.032,0.119 0.909,-0.002 1.817,0.066 2.726,0.081 0.507,0.029 0.982,0.073 1.487,0.005 C 0.39,0.436 0.404,0.218 0.349,0.15 0.304,0.093 0.14,0.015 0,0 M 1.994,0.914 C 1.873,1.28 1.645,1.57 1.185,1.69 0.52,1.863 -0.42,1.888 -1.518,1.863 -2.405,1.844 -3.476,1.809 -3.997,1.77 -4.518,1.732 -4.842,1.715 -5.234,1.655 -5.716,1.581 -6.022,1.384 -6.258,1.14 -6.421,0.972 -6.547,0.763 -6.625,0.537 c -0.176,-0.661 -0.031,-1.287 0.511,-1.682 0.298,-0.218 0.725,-0.265 1.104,-0.259 1.952,0.111 3.912,-0.018 5.858,0.198 0.465,0.049 0.875,0.357 1.103,0.759 0.228,0.417 0.185,0.923 0.043,1.361"
       style="fill:#293d9b;fill-opacity:1;fill-rule:nonzero;stroke:none"
       transform="matrix(0.35277776,0,0,-0.35277776,155.5738,159.11737)"
       clip-path="url(#clipPath2942)" />
    <path
       id="path2943"
       d="M 0,0 C -0.457,-0.054 -1.219,-0.148 -1.743,-0.201 -1.76,0.141 -1.754,0.356 -1.746,0.698 -1.17,0.737 -0.381,0.919 0.198,0.851 0.181,0.521 0.196,0.285 0,0 M 1.814,3.132 C 1.538,3.228 1.28,3.039 1.065,2.888 0.767,2.624 0.535,2.11 0.188,2.076 -0.326,2.025 -1.122,1.915 -1.689,1.868 c 0.149,0.243 0.29,0.439 0.46,0.646 0.3,0.312 0.394,0.558 0.261,0.77 -0.09,0.143 -0.253,0.19 -0.472,0.175 C -2.701,3.369 -4.132,3.359 -5.449,3.236 -5.872,3.196 -5.793,2.429 -5.398,2.257 -4.919,2.051 -4.05,2.267 -3.573,2.26 -3.596,2.038 -3.628,1.823 -3.628,1.683 -4.241,1.56 -4.486,1.552 -5.145,1.441 -5.886,1.306 -6.49,1.255 -6.786,0.98 -7.032,0.75 -7.118,0.432 -7.01,0.121 c 0.06,-0.173 0.444,-0.569 1.023,-0.419 0.428,0.111 0.828,0.318 1.106,0.424 0.437,0.166 0.848,0.27 1.237,0.302 0.045,-0.348 0.054,-0.416 0.053,-0.765 -0.644,-0.104 -1.087,-0.24 -1.65,-0.405 -0.36,-0.12 -0.899,-0.329 -1.136,-0.51 -0.223,-0.169 -0.525,-0.377 -0.555,-0.639 -0.125,-0.55 0.36,-1.09 0.649,-1.052 0.414,0.056 0.941,0.39 1.284,0.588 0.567,0.327 1.05,0.585 1.682,0.631 0.096,-0.219 0.182,-0.774 0.294,-1.073 0.211,-0.565 0.52,-1.109 0.936,-1.678 0.272,-0.372 0.784,-0.597 1.136,-0.396 0.362,0.206 0.266,0.855 0.179,1.182 -0.253,0.82 -0.458,0.835 -0.665,1.667 -0.016,0.091 -0.154,0.466 -0.15,0.557 0.253,0.086 0.902,0.199 1.271,0.176 0.678,-0.043 0.903,-0.182 1.321,-0.049 0.252,0.08 0.329,0.255 0.359,0.341 C 1.732,0.047 2.022,0.99 2.311,2.059 2.435,2.465 2.225,2.983 1.814,3.132"
       style="fill:#293d9b;fill-opacity:1;fill-rule:nonzero;stroke:none"
       transform="matrix(0.35277776,0,0,-0.35277776,155.49104,160.95799)"
       clip-path="url(#clipPath2944)" />
    <path
       id="path2945"
       d="m 0,0 -1.545,0.097 1.107,-1.08 z m -0.091,-1.323 c 0,0 0.5,-0.489 0.642,-0.63 0.221,-0.221 0.36,0.175 0.547,0.116 0.111,-0.035 0.121,-0.139 0.073,-0.247 L 0.807,-2.901 C 0.763,-2.999 0.688,-3.058 0.598,-3.021 0.431,-2.953 0.55,-2.666 0.339,-2.452 0.144,-2.254 -2.29,0.193 -2.393,0.298 -2.508,0.415 -2.55,0.584 -2.466,0.768 -2.373,0.974 -2.171,1.017 -2.023,1.012 -1.653,0.999 1.669,0.815 1.857,0.809 2.045,0.804 2.177,1.018 2.332,0.961 2.443,0.92 2.45,0.786 2.402,0.677 L 1.898,-0.454 C 1.846,-0.57 1.656,-0.587 1.625,-0.381 1.6,-0.211 1.556,-0.101 1.341,-0.087 1.22,-0.078 0.486,-0.031 0.486,-0.031 Z"
       style="fill:#293d9b;fill-opacity:1;fill-rule:nonzero;stroke:none"
       transform="matrix(0.35277776,0,0,-0.35277776,148.14077,156.92539)"
       clip-path="url(#clipPath2946)" />
    <path
       id="path2947"
       d="m 0,0 c 0.18,-0.079 0.24,-0.173 0.194,-0.269 -0.07,-0.147 -0.269,-0.066 -0.495,-0.174 -0.121,-0.057 -0.27,-0.239 -0.27,-0.239 0,0 -2.206,-2.268 -2.375,-2.443 -0.172,-0.178 -0.364,-0.312 -0.708,-0.161 -0.326,0.145 -0.348,0.437 -0.34,0.644 0.009,0.207 0.192,3.194 0.192,3.194 0,0 0.019,0.246 0.005,0.391 -0.029,0.291 -0.286,0.469 -0.199,0.642 0.049,0.098 0.154,0.115 0.307,0.048 L -2.521,1.116 C -2.358,1.043 -2.319,0.962 -2.361,0.861 -2.416,0.728 -2.649,0.742 -2.759,0.659 -2.859,0.584 -2.896,0.324 -2.896,0.324 l -0.169,-2.719 1.942,2.008 c 0,0 0.136,0.148 0.136,0.264 0,0.196 -0.266,0.313 -0.178,0.475 0.043,0.078 0.142,0.101 0.267,0.046 z"
       style="fill:#293d9b;fill-opacity:1;fill-rule:nonzero;stroke:none"
       transform="matrix(0.35277776,0,0,-0.35277776,156.26277,153.75131)"
       clip-path="url(#clipPath2948)" />
    <path
       id="path2949"
       d="m 0,0 c 0.088,-0.195 0.061,-0.305 -0.045,-0.343 -0.176,-0.064 -0.287,0.274 -0.577,0.144 l -2.769,-1.243 c -0.289,-0.13 -0.11,-0.449 -0.32,-0.544 -0.097,-0.044 -0.2,-0.015 -0.288,0.18 L -5.093,0.633 C -5.26,1.004 -4.892,1.2 -4.677,1.303 -4.52,1.378 -4.386,1.39 -4.335,1.261 -4.308,1.192 -4.348,1.096 -4.429,0.907 -4.52,0.698 -4.557,0.615 -4.452,0.38 l 0.347,-0.772 c 0.073,-0.162 0.264,-0.234 0.428,-0.161 l 1.013,0.456 -0.412,0.919 c -0.126,0.279 -0.492,0.062 -0.552,0.307 -0.032,0.132 0.222,0.282 0.413,0.368 0.345,0.154 0.645,0.271 0.719,0.138 0.101,-0.182 -0.255,-0.3 -0.118,-0.605 l 0.413,-0.92 1.212,0.545 c 0.271,0.121 0.072,0.459 0.26,0.544 0.101,0.045 0.199,-0.018 0.287,-0.214 z"
       style="fill:#293d9b;fill-opacity:1;fill-rule:nonzero;stroke:none"
       transform="matrix(0.35277776,0,0,-0.35277776,148.95205,161.74232)"
       clip-path="url(#clipPath2950)" />
    <path
       id="path2951"
       d="M 0,0 C -0.15,-0.244 -0.136,-0.429 0.059,-0.633 0.241,-0.823 0.304,-0.957 0.233,-1.065 0.147,-1.194 0.001,-1.133 -0.107,-1.067 L -1.852,0.01 c -0.199,0.123 -0.225,0.232 -0.156,0.331 0.082,0.118 0.307,0.063 0.501,0.016 0.39,-0.095 0.482,0.031 0.588,0.203 L 0.258,2.469 C 0.464,2.802 0.313,2.925 0.187,3.031 0.099,3.104 0.027,3.159 -0.061,3.229 -0.153,3.301 -0.22,3.421 -0.116,3.53 -0.008,3.644 0.257,3.525 0.588,3.442 1.133,3.307 1.333,3.386 1.563,3.257 1.785,3.132 1.806,2.928 1.706,2.767 Z"
       style="fill:#293d9b;fill-opacity:1;fill-rule:nonzero;stroke:none"
       transform="matrix(0.35277776,0,0,-0.35277776,150.08327,164.5033)"
       clip-path="url(#clipPath2952)" />
    <path
       id="path2953"
       d="M 0,0 C 0.097,0.458 0.065,1.042 -0.506,1.161 -1.049,1.275 -1.335,0.846 -1.436,0.301 -1.511,-0.112 -1.432,-0.69 -0.909,-0.807 -0.374,-0.926 -0.119,-0.568 0,0 m -1.332,-1.28 c -0.915,0.198 -1.401,0.814 -1.21,1.722 0.23,1.1 1.233,1.37 2.104,1.187 1.135,-0.238 1.708,-1.171 1.477,-2.275 -0.327,-1.558 -1.844,-2.383 -3.334,-2.151 -0.157,0.024 -0.374,0.091 -0.361,0.219 0.017,0.161 0.356,0.171 0.685,0.264 0.956,0.27 1.331,0.649 1.51,1.061 -0.254,-0.104 -0.599,-0.086 -0.871,-0.027"
       style="fill:#293d9b;fill-opacity:1;fill-rule:nonzero;stroke:none"
       transform="matrix(0.35277776,0,0,-0.35277776,152.15482,164.47928)"
       clip-path="url(#clipPath2954)" />
    <path
       id="path2955"
       d="M 0,0 C 0.21,0.346 0.43,0.559 0.697,0.757 1.418,1.29 2.323,1.399 2.867,0.656 3.601,-0.347 3.058,-1.394 1.994,-2.013 1.337,-2.396 0.647,-2.337 0.345,-2.038 0.155,-1.849 0.217,-1.54 0.457,-1.402 0.663,-1.284 0.87,-1.357 1.065,-1.496 1.386,-1.728 1.62,-1.685 1.833,-1.564 2.279,-1.31 2.384,-0.796 1.942,-0.172 1.615,0.29 1.17,0.365 0.732,0.028 0.369,-0.252 0.223,-0.709 0.021,-0.836 c -0.146,-0.093 -0.254,0.018 -0.326,0.137 l -0.985,1.78 c -0.052,0.09 -0.024,0.203 0.062,0.261 l 2.25,1.505 C 1.113,2.907 1.236,2.866 1.27,2.763 L 1.47,2.225 C 1.503,2.127 1.466,2.019 1.38,1.962 l -1.795,-1.2 z"
       style="fill:#293d9b;fill-opacity:1;fill-rule:nonzero;stroke:none"
       transform="matrix(0.35277776,0,0,-0.35277776,155.65931,164.07245)"
       clip-path="url(#clipPath2956)" />
    <path
       id="path2957"
       d="M 0,0 C 0.508,0.102 0.65,0.787 0.406,1.998 0.163,3.208 -0.236,3.799 -0.743,3.697 -1.251,3.595 -1.416,2.891 -1.172,1.681 -0.939,0.519 -0.476,-0.095 0,0 M -0.848,4.15 C 0.372,4.395 1.313,3.679 1.597,2.264 1.857,0.966 1.433,-0.177 0.113,-0.465 c -1.141,-0.25 -2.208,0.434 -2.489,1.944 -0.285,1.533 0.472,2.459 1.528,2.671"
       style="fill:#293d9b;fill-opacity:1;fill-rule:nonzero;stroke:none"
       transform="matrix(0.35277776,0,0,-0.35277776,154.2192,165.39735)"
       clip-path="url(#clipPath2958)" />
  </g>
</svg>
