<?xml version="1.0" encoding="utf-8"?>
<!-- Generator: Adobe Illustrator 28.0.0, SVG Export Plug-In . SVG Version: 6.00 Build 0)  -->
<svg version="1.1" id="svg1" xmlns:svg="http://www.w3.org/2000/svg"
	 xmlns="http://www.w3.org/2000/svg" xmlns:xlink="http://www.w3.org/1999/xlink" x="0px" y="0px" viewBox="0 0 39.2 39.1"
	 style="enable-background:new 0 0 39.2 39.1;" xml:space="preserve">
<style type="text/css">
	.st0{clip-path:url(#SVGID_00000170988304964216157830000002323742603440730540_);fill:#832126;}
	.st1{clip-path:url(#SVGID_00000034071053806148704470000016112720948029677500_);fill:#832126;}
	.st2{clip-path:url(#SVGID_00000027567159555529182670000001622394839508479669_);fill:#832126;}
	.st3{clip-path:url(#SVGID_00000032623134683288401780000005332272652868415902_);fill:#832126;}
	.st4{clip-path:url(#SVGID_00000165931950912878085890000015811469442272717483_);fill:#832126;}
	.st5{clip-path:url(#SVGID_00000083801843636107157810000014499420592185669020_);fill:#832126;}
	.st6{clip-path:url(#SVGID_00000087390572733599793230000001761452875767551139_);fill:#832126;}
	.st7{clip-path:url(#SVGID_00000134965044315119472510000000657725843135598003_);fill:#832126;}
	.st8{clip-path:url(#SVGID_00000079451330566206418580000014177039970127747974_);fill:#832126;}
	.st9{clip-path:url(#SVGID_00000054977153495196206780000017878412292170922116_);fill:#832126;}
	.st10{clip-path:url(#SVGID_00000135681982935492718960000012117962434295126948_);fill:#832126;}
	.st11{clip-path:url(#SVGID_00000111900972463459496540000008075910365805520794_);fill:#832126;}
	.st12{clip-path:url(#SVGID_00000167391582139076538930000000203538420677568685_);fill:#832126;}
	.st13{clip-path:url(#SVGID_00000080177692317028354530000012267936566481624472_);fill:#832126;}
	.st14{clip-path:url(#SVGID_00000062159791971940482360000015084628650315357834_);fill:#832126;}
	.st15{clip-path:url(#SVGID_00000120520773382402818600000005276660111194690445_);fill:#832126;}
	.st16{clip-path:url(#SVGID_00000096040831243828521040000003600800375335697035_);fill:#832126;}
	.st17{clip-path:url(#SVGID_00000008112486277548457160000016544378936261986238_);fill:#832126;}
	.st18{clip-path:url(#SVGID_00000073695285990922535170000006844202044388066235_);fill:#832126;}
	.st19{clip-path:url(#SVGID_00000098220057640436209120000004241146566474221737_);fill:#832126;}
	.st20{clip-path:url(#SVGID_00000052786435767215887500000009495318359586154370_);fill:#832126;}
	.st21{clip-path:url(#SVGID_00000023966383823719869190000007108559383806327430_);fill:#832126;}
	.st22{clip-path:url(#SVGID_00000031178388091898192910000007201149232064576664_);fill:#832126;}
	.st23{clip-path:url(#SVGID_00000115503024333784264610000002696711697947455419_);fill:#832126;}
	.st24{clip-path:url(#SVGID_00000060718110736994271870000000091913365164493713_);fill:#832126;}
	.st25{clip-path:url(#SVGID_00000067231602606513889680000013083248452320787334_);fill:#832126;}
	.st26{clip-path:url(#SVGID_00000172401620137551233570000001280094131300313269_);fill:#832126;}
	.st27{clip-path:url(#SVGID_00000130615012947736742510000005986335698471990688_);fill:#832126;}
	.st28{clip-path:url(#SVGID_00000018953229538508488640000004740655198088122756_);fill:#832126;}
	.st29{clip-path:url(#SVGID_00000152221797345147778820000015885848230909466290_);fill:#832126;}
	.st30{clip-path:url(#SVGID_00000115488746397495364260000002765458764498106026_);fill:#832126;}
	.st31{clip-path:url(#SVGID_00000141443263006382859410000013880901533073373117_);fill:#832126;}
	.st32{clip-path:url(#SVGID_00000113350398945389004860000011993293924566416314_);fill:#832126;}
</style>
<g id="layer1" transform="translate(-64.960778,-173.97602)">
	<g>
		<defs>
			<rect id="SVGID_1_" x="-138" y="-515.9" width="1207.6" height="858.9"/>
		</defs>
		<clipPath id="SVGID_00000143589863612827103580000001589762927037281183_">
			<use xlink:href="#SVGID_1_"  style="overflow:visible;"/>
		</clipPath>
		<path id="path3185" style="clip-path:url(#SVGID_00000143589863612827103580000001589762927037281183_);fill:#832126;" d="
			M84.6,212.4c-10.5,0-18.9-8.5-18.9-18.9s8.5-18.9,18.9-18.9s18.9,8.5,18.9,18.9S95,212.4,84.6,212.4 M84.6,174
			c-10.8,0-19.6,8.8-19.6,19.6c0,10.8,8.8,19.6,19.6,19.6s19.6-8.8,19.6-19.6C104.2,182.7,95.4,174,84.6,174"/>
	</g>
	<g>
		<defs>
			<rect id="SVGID_00000098207413808046916680000011884071332399521191_" x="-138" y="-515.9" width="1207.6" height="858.9"/>
		</defs>
		<clipPath id="SVGID_00000018929504062807655250000000097984728607517620_">
			<use xlink:href="#SVGID_00000098207413808046916680000011884071332399521191_"  style="overflow:visible;"/>
		</clipPath>
		<path id="path3187" style="clip-path:url(#SVGID_00000018929504062807655250000000097984728607517620_);fill:#832126;" d="
			M82.2,209.7l0.1-0.4l1.1,0.2l-0.2,1c-0.1,0.1-0.3,0.2-0.5,0.2c-0.2,0-0.4,0.1-0.6,0c-0.3,0-0.5-0.1-0.7-0.3
			c-0.2-0.1-0.3-0.3-0.4-0.5c-0.1-0.2-0.1-0.4,0-0.7c0-0.3,0.1-0.5,0.3-0.7c0.1-0.2,0.3-0.3,0.6-0.4c0.2-0.1,0.4-0.1,0.6,0
			c0.3,0,0.6,0.1,0.7,0.3c0.2,0.2,0.2,0.3,0.3,0.6l-0.5,0c0-0.1-0.1-0.2-0.2-0.3c-0.1-0.1-0.2-0.1-0.4-0.2c-0.2,0-0.4,0-0.6,0.1
			c-0.2,0.1-0.2,0.3-0.3,0.6c0,0.3,0,0.5,0.1,0.7c0.1,0.2,0.3,0.3,0.5,0.3c0.1,0,0.2,0,0.3,0c0.1,0,0.2-0.1,0.3-0.1l0-0.3
			L82.2,209.7z"/>
	</g>
	<g>
		<defs>
			<rect id="SVGID_00000098935112118409696270000010682495054967426464_" x="-138" y="-515.9" width="1207.6" height="858.9"/>
		</defs>
		<clipPath id="SVGID_00000067203605504777524980000008430070340476058506_">
			<use xlink:href="#SVGID_00000098935112118409696270000010682495054967426464_"  style="overflow:visible;"/>
		</clipPath>
		<path id="path3189" style="clip-path:url(#SVGID_00000067203605504777524980000008430070340476058506_);fill:#832126;" d="
			M78,209.5l0.9-2.4l0.5,0.2l0.4,1.9l0.6-1.6l0.5,0.2l-0.8,2.4l-0.5-0.2l-0.4-1.9l-0.6,1.5L78,209.5z"/>
	</g>
	<g>
		<defs>
			<rect id="SVGID_00000018957012293741513880000015081737144339964290_" x="-138" y="-515.9" width="1207.6" height="858.9"/>
		</defs>
		<clipPath id="SVGID_00000003064272281775747700000002397608353694387615_">
			<use xlink:href="#SVGID_00000018957012293741513880000015081737144339964290_"  style="overflow:visible;"/>
		</clipPath>
		<path id="path3191" style="clip-path:url(#SVGID_00000003064272281775747700000002397608353694387615_);fill:#832126;" d="
			M70.8,204l2-1.6l0.3,0.4l-0.6,1.9l1.3-1.1l0.3,0.4l-2,1.6l-0.3-0.4l0.6-1.8l-1.3,1.1L70.8,204z"/>
	</g>
	<g>
		<defs>
			<rect id="SVGID_00000148619280353668974440000018413838702172086927_" x="-138" y="-515.9" width="1207.6" height="858.9"/>
		</defs>
		<clipPath id="SVGID_00000041255962457195500720000010691242458796942239_">
			<use xlink:href="#SVGID_00000148619280353668974440000018413838702172086927_"  style="overflow:visible;"/>
		</clipPath>
		<path id="path3193" style="clip-path:url(#SVGID_00000041255962457195500720000010691242458796942239_);fill:#832126;" d="
			M75.5,207.9c0.1,0.3,0.3,0.6,0.6,0.8c0.3,0.2,0.6,0.2,1,0.2c0.3-0.1,0.6-0.3,0.8-0.6c0.2-0.3,0.3-0.7,0.2-1
			c-0.1-0.3-0.3-0.6-0.6-0.8c-0.2-0.1-0.4-0.2-0.5-0.2c-0.1,0-0.3,0-0.4,0c-0.1,0-0.3,0.1-0.4,0.2c-0.2,0.1-0.3,0.3-0.4,0.5
			C75.5,207.2,75.4,207.6,75.5,207.9 M76.7,206.7c0.2-0.1,0.4,0,0.6,0.1c0.2,0.1,0.3,0.3,0.3,0.4c0,0.2,0,0.4-0.2,0.6
			c-0.2,0.2-0.3,0.4-0.5,0.5c-0.2,0.1-0.4,0-0.6-0.1c-0.2-0.1-0.3-0.3-0.3-0.4c0-0.2,0-0.4,0.2-0.7
			C76.3,206.9,76.5,206.7,76.7,206.7"/>
	</g>
	<g>
		<defs>
			<rect id="SVGID_00000086667338376816999870000004020803072088446119_" x="-138" y="-515.9" width="1207.6" height="858.9"/>
		</defs>
		<clipPath id="SVGID_00000014610951625479638040000001324492030396851333_">
			<use xlink:href="#SVGID_00000086667338376816999870000004020803072088446119_"  style="overflow:visible;"/>
		</clipPath>
		<path id="path3195" style="clip-path:url(#SVGID_00000014610951625479638040000001324492030396851333_);fill:#832126;" d="
			M72.8,206.2l0.7,0.6c0.1,0.1,0.3,0.2,0.4,0.2c0.2,0.1,0.3,0.1,0.4,0.1c0.2,0,0.3-0.1,0.5-0.2c0.1-0.1,0.3-0.2,0.4-0.4
			c0.2-0.2,0.3-0.3,0.3-0.5c0.1-0.2,0.1-0.3,0.1-0.5c0-0.2-0.1-0.3-0.1-0.4c-0.1-0.1-0.2-0.2-0.3-0.3l-0.7-0.6L72.8,206.2z
			 M74.7,205.1c0.2,0.1,0.3,0.2,0.3,0.3c0.1,0.1,0.1,0.2,0.1,0.2c0,0.1,0,0.2-0.1,0.3c0,0.1-0.1,0.2-0.3,0.4
			c-0.1,0.1-0.2,0.3-0.3,0.3c-0.1,0.1-0.2,0.1-0.3,0.1c-0.1,0-0.2,0-0.2-0.1c-0.1,0-0.1-0.1-0.3-0.2l-0.3-0.2l1.1-1.3L74.7,205.1z"
			/>
	</g>
	<g>
		<defs>
			<rect id="SVGID_00000090274900525205448530000001618393903245564845_" x="-138" y="-515.9" width="1207.6" height="858.9"/>
		</defs>
		<clipPath id="SVGID_00000080187882063028015740000004355847857992235649_">
			<use xlink:href="#SVGID_00000090274900525205448530000001618393903245564845_"  style="overflow:visible;"/>
		</clipPath>
		<path id="path3197" style="clip-path:url(#SVGID_00000080187882063028015740000004355847857992235649_);fill:#832126;" d="
			M72.1,201.4l-0.3-0.5l-2.7,0.4l0.3,0.5l0.6-0.1l0.5,0.9l-0.4,0.5l0.3,0.5L72.1,201.4z M70.4,201.6l1-0.2l-0.7,0.8L70.4,201.6z"/>
	</g>
	<g>
		<defs>
			<rect id="SVGID_00000093169594951488495880000011588988819536265868_" x="-138" y="-515.9" width="1207.6" height="858.9"/>
		</defs>
		<clipPath id="SVGID_00000044168780451438210880000014124193229598034591_">
			<use xlink:href="#SVGID_00000093169594951488495880000011588988819536265868_"  style="overflow:visible;"/>
		</clipPath>
		<path id="path3199" style="clip-path:url(#SVGID_00000044168780451438210880000014124193229598034591_);fill:#832126;" d="
			M68.1,198.8l2.4-0.9l0.2,0.5l-1,0.3l0.3,0.9l1-0.3l0.2,0.5l-2.4,0.8l-0.2-0.5l1.1-0.4l-0.3-0.9l-1.1,0.4L68.1,198.8z"/>
	</g>
	<g>
		<defs>
			<rect id="SVGID_00000120543858057335106030000000640618222649878916_" x="-138" y="-515.9" width="1207.6" height="858.9"/>
		</defs>
		<clipPath id="SVGID_00000077296712262877890410000001277614960890521496_">
			<use xlink:href="#SVGID_00000120543858057335106030000000640618222649878916_"  style="overflow:visible;"/>
		</clipPath>
		<path id="path3201" style="clip-path:url(#SVGID_00000077296712262877890410000001277614960890521496_);fill:#832126;" d="
			M68.3,195.8l0.1,0.5c-0.2,0.1-0.3,0.1-0.3,0.2c-0.1,0.1-0.1,0.2-0.1,0.4c0,0.2,0.1,0.3,0.2,0.3c0.1,0.1,0.2,0.1,0.3,0.1
			c0.1,0,0.1,0,0.1-0.1c0,0,0.1-0.1,0.1-0.2c0-0.1,0-0.2,0-0.4c0-0.3,0.1-0.5,0.1-0.6c0.1-0.2,0.3-0.3,0.5-0.3c0.1,0,0.3,0,0.4,0
			c0.1,0.1,0.2,0.1,0.3,0.3c0.1,0.1,0.1,0.3,0.2,0.5c0.1,0.3,0,0.6-0.1,0.7c-0.1,0.2-0.3,0.3-0.5,0.3l-0.1-0.5
			c0.1,0,0.2-0.1,0.3-0.2c0-0.1,0.1-0.2,0-0.3c0-0.1-0.1-0.2-0.2-0.3c-0.1,0-0.1-0.1-0.2-0.1c-0.1,0-0.1,0-0.1,0.1
			c0,0.1-0.1,0.2-0.1,0.5c0,0.3,0,0.4-0.1,0.6c0,0.1-0.1,0.2-0.2,0.3c-0.1,0.1-0.2,0.1-0.4,0.2c-0.1,0-0.3,0-0.4,0
			c-0.1-0.1-0.3-0.1-0.3-0.3c-0.1-0.1-0.2-0.3-0.2-0.5c-0.1-0.3,0-0.6,0.1-0.8C67.8,196.1,68,195.9,68.3,195.8"/>
	</g>
	<g>
		<defs>
			<rect id="SVGID_00000031928618983800388970000001283397976921727129_" x="-138" y="-515.9" width="1207.6" height="858.9"/>
		</defs>
		<clipPath id="SVGID_00000089567720875492091640000001526952069515329408_">
			<use xlink:href="#SVGID_00000031928618983800388970000001283397976921727129_"  style="overflow:visible;"/>
		</clipPath>
		<path id="path3203" style="clip-path:url(#SVGID_00000089567720875492091640000001526952069515329408_);fill:#832126;" d="
			M85.1,208.3l0.5,0l0.1,1.3c0,0.2,0,0.4,0.1,0.4c0,0.1,0.1,0.2,0.2,0.2c0.1,0.1,0.2,0.1,0.3,0.1c0.1,0,0.2-0.1,0.3-0.1
			c0.1-0.1,0.1-0.1,0.1-0.2c0-0.1,0-0.2,0-0.4l-0.1-1.4l0.5,0l0.1,1.3c0,0.3,0,0.5,0,0.6c0,0.1-0.1,0.2-0.1,0.3
			c-0.1,0.1-0.2,0.2-0.3,0.2c-0.1,0.1-0.3,0.1-0.5,0.1c-0.2,0-0.4,0-0.6,0c-0.1,0-0.2-0.1-0.3-0.2c-0.1-0.1-0.1-0.2-0.2-0.3
			c0-0.1-0.1-0.3-0.1-0.6L85.1,208.3z"/>
	</g>
	<g>
		<defs>
			<rect id="SVGID_00000179648493891014675500000005216100609838286752_" x="-138" y="-515.9" width="1207.6" height="858.9"/>
		</defs>
		<clipPath id="SVGID_00000065765839772384798250000007792081684082071457_">
			<use xlink:href="#SVGID_00000179648493891014675500000005216100609838286752_"  style="overflow:visible;"/>
		</clipPath>
		<path id="path3205" style="clip-path:url(#SVGID_00000065765839772384798250000007792081684082071457_);fill:#832126;" d="
			M88.3,210.4l-0.7-2.4l0.5-0.1l1.5,1.3l-0.5-1.6l0.5-0.1l0.7,2.4l-0.5,0.1l-1.5-1.3l0.5,1.6L88.3,210.4z"/>
	</g>
	<g>
		<defs>
			<rect id="SVGID_00000072980571223462107490000016275323782306854044_" x="-138" y="-515.9" width="1207.6" height="858.9"/>
		</defs>
		<clipPath id="SVGID_00000072277706747264095870000003886580634764905653_">
			<use xlink:href="#SVGID_00000072980571223462107490000016275323782306854044_"  style="overflow:visible;"/>
		</clipPath>
		<path id="path3207" style="clip-path:url(#SVGID_00000072277706747264095870000003886580634764905653_);fill:#832126;" d="
			M91.1,209.6l-1-2.3l0.5-0.2l1,2.3L91.1,209.6z"/>
	</g>
	<g>
		<defs>
			<rect id="SVGID_00000181766712732895148910000004612825706346083261_" x="-138" y="-515.9" width="1207.6" height="858.9"/>
		</defs>
		<clipPath id="SVGID_00000117641766402832869300000004591497800463704469_">
			<use xlink:href="#SVGID_00000181766712732895148910000004612825706346083261_"  style="overflow:visible;"/>
		</clipPath>
		<path id="path3209" style="clip-path:url(#SVGID_00000117641766402832869300000004591497800463704469_);fill:#832126;" d="
			M92.9,208.8l-2.1-1.7l0.5-0.3l1.5,1.3l-0.4-1.9l0.5-0.3l0.5,2.6L92.9,208.8z"/>
	</g>
	<g>
		<defs>
			<rect id="SVGID_00000082328078969928495840000011362587976316402572_" x="-138" y="-515.9" width="1207.6" height="858.9"/>
		</defs>
		<clipPath id="SVGID_00000146473956025262591080000013255702208776557735_">
			<use xlink:href="#SVGID_00000082328078969928495840000011362587976316402572_"  style="overflow:visible;"/>
		</clipPath>
		<path id="path3211" style="clip-path:url(#SVGID_00000146473956025262591080000013255702208776557735_);fill:#832126;" d="
			M94.7,207.7l-1.6-2l1.5-1.2l0.3,0.3l-1.1,0.8l0.4,0.4l1-0.8l0.3,0.3l-1,0.8l0.4,0.5l1.1-0.9l0.3,0.3L94.7,207.7z"/>
	</g>
	<g>
		<defs>
			<rect id="SVGID_00000019650218948148575820000005585897324871662751_" x="-138" y="-515.9" width="1207.6" height="858.9"/>
		</defs>
		<clipPath id="SVGID_00000088820314053364749320000017568511640114533295_">
			<use xlink:href="#SVGID_00000019650218948148575820000005585897324871662751_"  style="overflow:visible;"/>
		</clipPath>
		<path id="path3213" style="clip-path:url(#SVGID_00000088820314053364749320000017568511640114533295_);fill:#832126;" d="
			M97.2,205.6l-0.8-0.7l0.1-0.1c0.1-0.1,0.1-0.1,0.2-0.2c0.1,0,0.1,0,0.2,0c0.1,0,0.2,0,0.5,0.1l0.7,0.1l0.4-0.4l-0.6-0.1
			c-0.2,0-0.4-0.1-0.5-0.1c-0.1,0-0.2,0-0.3,0.1c0.1-0.2,0.2-0.4,0.2-0.5c0-0.2-0.1-0.3-0.2-0.4c-0.1-0.1-0.2-0.2-0.4-0.2
			c-0.1,0-0.3,0-0.4,0.1c-0.1,0.1-0.3,0.2-0.5,0.4l-0.7,0.8l1.9,1.7L97.2,205.6z M95.6,204.2l0.3-0.3c0.1-0.1,0.2-0.2,0.3-0.3
			c0.1,0,0.1-0.1,0.2-0.1c0.1,0,0.1,0,0.2,0.1c0.1,0.1,0.1,0.1,0.1,0.2c0,0.1,0,0.1,0,0.2c0,0.1-0.1,0.2-0.3,0.4l-0.3,0.3
			L95.6,204.2z"/>
	</g>
	<g>
		<defs>
			<rect id="SVGID_00000043430135995420540610000001041750871702981019_" x="-138" y="-515.9" width="1207.6" height="858.9"/>
		</defs>
		<clipPath id="SVGID_00000127043016461583338050000007478298408325802371_">
			<use xlink:href="#SVGID_00000043430135995420540610000001041750871702981019_"  style="overflow:visible;"/>
		</clipPath>
		<path id="path3215" style="clip-path:url(#SVGID_00000127043016461583338050000007478298408325802371_);fill:#832126;" d="
			M98,203.4l0.2-0.4c0.2,0.1,0.3,0.1,0.4,0.1c0.1,0,0.2-0.1,0.3-0.2c0.1-0.1,0.1-0.3,0.1-0.4c0-0.1-0.1-0.2-0.1-0.2
			c-0.1,0-0.1,0-0.2,0c-0.1,0-0.1,0-0.2,0.1c0,0-0.2,0.1-0.3,0.3c-0.2,0.2-0.4,0.3-0.5,0.3c-0.2,0-0.4,0-0.6-0.1
			c-0.1-0.1-0.2-0.2-0.2-0.3c0-0.1-0.1-0.3,0-0.4c0-0.1,0.1-0.3,0.2-0.5c0.2-0.3,0.4-0.4,0.6-0.5c0.2-0.1,0.4,0,0.6,0.1l-0.3,0.4
			c-0.1-0.1-0.2-0.1-0.3,0c-0.1,0-0.2,0.1-0.3,0.2c-0.1,0.1-0.1,0.2-0.1,0.3c0,0.1,0,0.1,0.1,0.2c0,0,0.1,0,0.2,0
			c0.1,0,0.2-0.1,0.4-0.3c0.2-0.2,0.3-0.3,0.5-0.4c0.1-0.1,0.2-0.1,0.4-0.1c0.1,0,0.3,0.1,0.4,0.1c0.1,0.1,0.2,0.2,0.3,0.3
			c0.1,0.1,0.1,0.3,0,0.4c0,0.2-0.1,0.3-0.2,0.5c-0.2,0.3-0.4,0.4-0.6,0.5C98.5,203.5,98.2,203.5,98,203.4"/>
	</g>
	<g>
		<defs>
			<rect id="SVGID_00000145769576016164226610000002515171154368696458_" x="-138" y="-515.9" width="1207.6" height="858.9"/>
		</defs>
		<clipPath id="SVGID_00000048496092537882641340000017945725944663844482_">
			<use xlink:href="#SVGID_00000145769576016164226610000002515171154368696458_"  style="overflow:visible;"/>
		</clipPath>
		<path id="path3217" style="clip-path:url(#SVGID_00000048496092537882641340000017945725944663844482_);fill:#832126;" d="
			M100.2,201.5l-2.3-1.1l0.2-0.5l2.3,1.1L100.2,201.5z"/>
	</g>
	<g>
		<defs>
			<rect id="SVGID_00000180331985061483833500000010012486056448037558_" x="-138" y="-515.9" width="1207.6" height="858.9"/>
		</defs>
		<clipPath id="SVGID_00000036251498978104732460000000089782636661791403_">
			<use xlink:href="#SVGID_00000180331985061483833500000010012486056448037558_"  style="overflow:visible;"/>
		</clipPath>
		<path id="path3219" style="clip-path:url(#SVGID_00000036251498978104732460000000089782636661791403_);fill:#832126;" d="
			M100.9,199.8l-2-0.7l-0.3,0.7l-0.4-0.1l0.7-1.9l0.4,0.1l-0.2,0.7l2,0.7L100.9,199.8z"/>
	</g>
	<g>
		<defs>
			<rect id="SVGID_00000147193642235137211970000003112948731144864407_" x="-138" y="-515.9" width="1207.6" height="858.9"/>
		</defs>
		<clipPath id="SVGID_00000155840006656732385250000005757165767350535334_">
			<use xlink:href="#SVGID_00000147193642235137211970000003112948731144864407_"  style="overflow:visible;"/>
		</clipPath>
		<path id="path3221" style="clip-path:url(#SVGID_00000155840006656732385250000005757165767350535334_);fill:#832126;" d="
			M101.6,197.3l-1.1-0.2l-1.6,0.6l0.1-0.6l1.1-0.4l-0.9-0.8l0.1-0.6l1.3,1.2l1.1,0.2L101.6,197.3z"/>
	</g>
	<g>
		<defs>
			<rect id="SVGID_00000132053680824036735370000006957147273787454601_" x="-138" y="-515.9" width="1207.6" height="858.9"/>
		</defs>
		<clipPath id="SVGID_00000088845913357240876190000018340948451776075677_">
			<use xlink:href="#SVGID_00000132053680824036735370000006957147273787454601_"  style="overflow:visible;"/>
		</clipPath>
		<path id="path3223" style="clip-path:url(#SVGID_00000088845913357240876190000018340948451776075677_);fill:#832126;" d="
			M84.5,206.2c-4.8,0-9-2.6-11.3-6.4h22.6C93.5,203.6,89.3,206.2,84.5,206.2 M84.5,180.6c7.2,0,13,5.7,13,12.8c0,2.1-0.5,4-1.4,5.8
			H72.9v0c-0.9-1.7-1.4-3.7-1.4-5.8C71.5,186.4,77.3,180.6,84.5,180.6 M84.5,180.1c-7.5,0-13.6,6-13.6,13.3
			c0,7.4,6.1,13.3,13.6,13.3c7.5,0,13.6-6,13.6-13.3C98.1,186.1,92,180.1,84.5,180.1"/>
	</g>
	<g>
		<defs>
			<rect id="SVGID_00000106861069060140317840000001532361093247029141_" x="-138" y="-515.9" width="1207.6" height="858.9"/>
		</defs>
		<clipPath id="SVGID_00000101801576642931115560000013442022612535741331_">
			<use xlink:href="#SVGID_00000106861069060140317840000001532361093247029141_"  style="overflow:visible;"/>
		</clipPath>
		<path id="path3225" style="clip-path:url(#SVGID_00000101801576642931115560000013442022612535741331_);fill:#832126;" d="
			M85.2,190.7l-0.3-2l-0.7,0l-0.3,2l-2.1-0.1l2.8-5.7l3.2,7l-2.5,0.1l1-1.2L85.2,190.7z M80.2,190.6l-1.9-0.1l1.1-2.2l1.3,1.3
			L80.2,190.6z M89.8,188.3l1.7,3.5l-2,0.1l-1-2.3L89.8,188.3z M95.8,196.2c-1.8,1.4-3.3-0.2-3.3-0.2c-2.4,2.3-4.4,0.1-4.4,0.1
			c-1.5,1.1-2.2,0.9-2.2,0.9l-0.5-3.7l3,0l0.5,1.2h1.7l-0.5-1.2h2l0.5,1.2l1.7-0.1l-0.5-1.1h1.5l0-1.7l-2.4,0.1l-3-5.9l-2.3,2.4
			l-3.2-6.5l-3.3,6.5l-2.3-2.4l-2.4,4.7l-3-0.1l0,1.7l2.2-0.1l-1,2.1h1.7l1-2.1l2-0.1l-0.9,2.1h1.7l1-2.1l2.6,0l-0.9,1.2l0.7,0
			l-0.5,3.7c-0.8,0.2-2.1-0.9-2.1-0.9c-2.4,2.2-4.5-0.1-4.5-0.1c-1.5,1.7-3.3,0.2-3.3,0.2l-0.4,1c2,1.2,3.7,0.1,3.7,0.1
			c2.5,1.6,4.5,0.1,4.5,0.1c2.5,1.6,3.5,0.1,3.5,0.1c1.6,1.4,3.6-0.1,3.6-0.1c2,1.6,4.4-0.1,4.4-0.1c2,1.2,3.8-0.1,3.8-0.1
			L95.8,196.2z"/>
	</g>
	<g>
		<defs>
			<rect id="SVGID_00000172410402744674969990000012514721837161539998_" x="-138" y="-515.9" width="1207.6" height="858.9"/>
		</defs>
		<clipPath id="SVGID_00000140004191894489641190000000192578964035728047_">
			<use xlink:href="#SVGID_00000172410402744674969990000012514721837161539998_"  style="overflow:visible;"/>
		</clipPath>
		<path id="path3227" style="clip-path:url(#SVGID_00000140004191894489641190000000192578964035728047_);fill:#832126;" d="
			M69.4,187.2c0,0,0.1,0.1,0.2,0c0,0,0-0.3-0.1-0.5c0,0-0.4-0.6-0.5-0.9c0,0-0.1-0.1-0.7-0.1c0,0-0.1,0.1,0,0.2c0.1,0,0.3,0,0.5,0.4
			l0.5,0.7C69.2,186.8,69.4,187,69.4,187.2"/>
	</g>
	<g>
		<defs>
			<rect id="SVGID_00000008851856690552323040000012317663819201363337_" x="-138" y="-515.9" width="1207.6" height="858.9"/>
		</defs>
		<clipPath id="SVGID_00000158002730927672265360000011443363993274640292_">
			<use xlink:href="#SVGID_00000008851856690552323040000012317663819201363337_"  style="overflow:visible;"/>
		</clipPath>
		<path id="path3229" style="clip-path:url(#SVGID_00000158002730927672265360000011443363993274640292_);fill:#832126;" d="
			M71.1,186.2l-0.6-0.1c0,0-0.2,0.1,0,0.2c0,0,0.3,0.6,0.2,1c0,0,0.1,0.2,0.2-0.1c0,0,0.2-0.7,0.3-0.8
			C71.2,186.5,71.3,186.2,71.1,186.2"/>
	</g>
	<g>
		<defs>
			<rect id="SVGID_00000013155825297897619580000009106449293241558935_" x="-138" y="-515.9" width="1207.6" height="858.9"/>
		</defs>
		<clipPath id="SVGID_00000125590314524458661310000006522633921442365093_">
			<use xlink:href="#SVGID_00000013155825297897619580000009106449293241558935_"  style="overflow:visible;"/>
		</clipPath>
		<path id="path3231" style="clip-path:url(#SVGID_00000125590314524458661310000006522633921442365093_);fill:#832126;" d="
			M70,187.1c0,0-0.1-0.2-0.2,0c0,0,0.1,0.6-0.1,0.8c0,0,0,0.6-0.1,0.8c0,0-0.1,0.4-0.1,0.5h-0.1c0,0-0.3-0.9-0.8-0.7
			c0,0,0,0.1,0.1,0.2c0,0,0.5,0.9,0.4,1.1c0,0,0.3,0.1,0.6,0.1c0,0,0.3-0.8,0.4-1.1c0,0,0-0.5,0-0.7C70.2,188,70.1,187.3,70,187.1"
			/>
	</g>
	<g>
		<defs>
			<rect id="SVGID_00000103948854822470785640000017900186364456198800_" x="-138" y="-515.9" width="1207.6" height="858.9"/>
		</defs>
		<clipPath id="SVGID_00000164497798125313650510000011770410546906395034_">
			<use xlink:href="#SVGID_00000103948854822470785640000017900186364456198800_"  style="overflow:visible;"/>
		</clipPath>
		<path id="path3233" style="clip-path:url(#SVGID_00000164497798125313650510000011770410546906395034_);fill:#832126;" d="
			M101.6,187.6c0,0,0.1,0,0.1,0l0.2,0.1C101.9,187.8,101.5,187.8,101.6,187.6 M98,188.4c-0.6,0-0.4-0.8-0.4-0.8
			c0-0.4,0.4,0.1,0.4,0.1l0.3,0.4C98.7,188.5,98,188.4,98,188.4 M102.2,187.8l-0.1-0.1l-0.3-0.3c0,0-0.2,0.1-0.2-0.3
			c0,0,0-0.1-0.2-0.1l-0.6-0.4c0,0-0.2-0.1,0.1-0.3c0,0,0.3-0.1-0.1-0.1c0,0-0.4,0.1-0.5,0.2c0,0,0,0.3,0.2,0.3c0,0,0.6,0.4,0.6,0.4
			c0,0-0.1,0.3,0,0.4c0,0,0,0.1-0.3-0.1c0,0-1.3-0.6-1.4-0.8c0,0-0.3-0.1-0.4,0.1c0,0,0,0.3,0.1,0.3l0.4,0.3c0,0-0.2,0.1-0.5,0
			c0,0-0.3,0.1-0.1,0.3c0,0,0.2,0.4-0.1,0.5c0,0,0-0.7-1-1.5c0,0-0.3,0-0.5,1.5c0,0-0.1,0.6,0.6,0.5l0.5-0.1c0,0,0.1-0.1,0.1,0.1
			l0,0.4c0,0-0.2,0.1,0,0.2c0,0,0.2,0.3,0.3-0.1l0-0.6c0,0,0.4,0.1,0.3-0.6l0.9,0.1c0,0,0.2-0.2-0.2-0.5c0,0,0.5,0.2,0.6,0.4
			c0,0,0,0.1,0.3,0.1c0,0,0.1,0.1,0.5,0.2c0,0,0,0.2,1,0.3C102.2,188.3,102.4,188,102.2,187.8"/>
	</g>
	<g>
		<defs>
			<rect id="SVGID_00000073700977052815326790000015100713545710897810_" x="-138" y="-515.9" width="1207.6" height="858.9"/>
		</defs>
		<clipPath id="SVGID_00000118363304525883690680000002768648620584846738_">
			<use xlink:href="#SVGID_00000073700977052815326790000015100713545710897810_"  style="overflow:visible;"/>
		</clipPath>
		<path id="path3235" style="clip-path:url(#SVGID_00000118363304525883690680000002768648620584846738_);fill:#832126;" d="
			M77.6,179.8l-0.2,0.2l-0.1-0.7c0-0.2,0.1-0.4,0.1-0.4c0.1,0.2,0.1,0.6,0.1,0.6C77.6,179.7,77.6,179.8,77.6,179.8 M78.1,180
			c0,0-0.2-0.2,0-0.9l-0.1-0.2l0-0.1l-0.1,0c0,0-0.1-0.2-0.3-0.1c0,0-0.1,0,0-0.2l0.4-0.6l0-0.7c0,0,0-0.1-0.2-0.1
			c0,0,0.1,0.1-0.1,0.3c-0.1,0.1-0.2,0.4-0.3,0.6c0,0-0.1-0.6-0.1-0.8l-0.2-0.2c0,0-0.2-0.1-0.1,0.2v1.4l-0.3,0.4
			c0,0-0.4,0.1-0.1,0.3l0.4,0.1l0,0.9l0,0.3l0.3,0.1l0.3-0.4c0,0,0.1,0,0.1,0.1l0.1,0.4c0,0-0.1,0.4-0.2,0.4c0,0,0,0-0.2,0.1
			c0,0-0.3,0.4,0.2,0.4c0,0,0.2,0.1,0.2-0.2l0-0.4l0.7,0.1c0,0,0-0.2-0.1-0.4L78.1,180z"/>
	</g>
	<g>
		<defs>
			<rect id="SVGID_00000053539075794389093130000010100501547210638256_" x="-138" y="-515.9" width="1207.6" height="858.9"/>
		</defs>
		<clipPath id="SVGID_00000047778841017146870920000013536386202611137981_">
			<use xlink:href="#SVGID_00000053539075794389093130000010100501547210638256_"  style="overflow:visible;"/>
		</clipPath>
		<path id="path3237" style="clip-path:url(#SVGID_00000047778841017146870920000013536386202611137981_);fill:#832126;" d="
			M78.8,179.9l-0.4,0.1c0,0-0.3,0.1,0,0.2c0,0,0.3,0.1,0.4,0.2c0,0,0.2,0.2,0.3-0.1v-0.2C79.1,180.1,79.1,179.9,78.8,179.9"/>
	</g>
	<g>
		<defs>
			<rect id="SVGID_00000037680118843905834960000009340979932142464701_" x="-138" y="-515.9" width="1207.6" height="858.9"/>
		</defs>
		<clipPath id="SVGID_00000158016107756291684040000009983487581884566678_">
			<use xlink:href="#SVGID_00000037680118843905834960000009340979932142464701_"  style="overflow:visible;"/>
		</clipPath>
		<path id="path3239" style="clip-path:url(#SVGID_00000158016107756291684040000009983487581884566678_);fill:#832126;" d="
			M80.5,201.9l-0.3,0.2l-0.2-0.3l0.6-0.5l0.2,0.1v2.5h-0.4V201.9z"/>
	</g>
	<g>
		<defs>
			<rect id="SVGID_00000088854387653726217970000000657837762924644507_" x="-138" y="-515.9" width="1207.6" height="858.9"/>
		</defs>
		<clipPath id="SVGID_00000120551129263961423470000003301184664928920714_">
			<use xlink:href="#SVGID_00000088854387653726217970000000657837762924644507_"  style="overflow:visible;"/>
		</clipPath>
		<path id="path3241" style="clip-path:url(#SVGID_00000120551129263961423470000003301184664928920714_);fill:#832126;" d="
			M88.3,201.9l-0.3,0.2l-0.2-0.3l0.7-0.5l0.2,0.1v2.5h-0.4V201.9z"/>
	</g>
	<g>
		<defs>
			<rect id="SVGID_00000124869486243612400850000010669783020164638120_" x="-138" y="-515.9" width="1207.6" height="858.9"/>
		</defs>
		<clipPath id="SVGID_00000065051753266867434030000005847600409369720494_">
			<use xlink:href="#SVGID_00000124869486243612400850000010669783020164638120_"  style="overflow:visible;"/>
		</clipPath>
		<path id="path3243" style="clip-path:url(#SVGID_00000065051753266867434030000005847600409369720494_);fill:#832126;" d="
			M83.5,203.1c0,0.1,0,0.1,0,0.2c0,0.1,0,0.1-0.1,0.2c0,0-0.1,0.1-0.1,0.1c0,0-0.1,0.1-0.2,0.1c-0.1,0-0.1,0-0.2,0
			c-0.1,0-0.2,0-0.2-0.1c-0.1,0-0.1-0.1-0.1-0.1c0,0,0-0.1,0-0.1l-0.4,0l0,0.2c0,0.1,0,0.1,0.1,0.2c0,0.1,0.1,0.1,0.2,0.2
			c0.1,0,0.1,0.1,0.2,0.1c0.1,0,0.2,0,0.3,0c0.1,0,0.2,0,0.3,0c0.1,0,0.2-0.1,0.2-0.1c0.1,0,0.1-0.1,0.1-0.1c0-0.1,0.1-0.1,0.1-0.2
			c0-0.1,0-0.1,0.1-0.2c0-0.1,0-0.2,0-0.3v-0.7c0-0.1,0-0.2,0-0.3c0-0.1-0.1-0.2-0.1-0.3c-0.1-0.1-0.1-0.1-0.3-0.2
			c-0.1-0.1-0.2-0.1-0.4-0.1c-0.1,0-0.2,0-0.3,0.1c-0.1,0-0.2,0.1-0.2,0.1c-0.1,0.1-0.1,0.1-0.2,0.2c0,0.1-0.1,0.2-0.1,0.2
			c0,0.1,0,0.2,0,0.2c0,0.2,0,0.3,0,0.4c0,0.1,0.1,0.2,0.1,0.2c0,0.1,0.1,0.1,0.2,0.2c0.1,0,0.2,0.1,0.4,0.1c0.1,0,0.1,0,0.2,0
			c0.1,0,0.1,0,0.1,0c0,0,0.1,0,0.1,0V203.1z M83.5,202.1c0,0.1,0,0.2,0,0.3c0,0.1,0,0.1-0.1,0.2c0,0.1-0.1,0.1-0.3,0.1
			c-0.1,0-0.1,0-0.2,0c-0.1,0-0.1,0-0.2-0.1c0,0-0.1-0.1-0.1-0.2c0-0.1,0-0.1,0-0.2c0-0.1,0-0.2,0-0.2c0-0.1,0.1-0.1,0.1-0.1
			c0,0,0.1-0.1,0.1-0.1c0.1,0,0.1,0,0.2,0c0.1,0,0.2,0,0.2,0.1c0.1,0,0.1,0.1,0.1,0.2C83.5,202,83.5,202,83.5,202.1"/>
	</g>
	<g>
		<defs>
			<rect id="SVGID_00000050638723973201287600000013545005577660012966_" x="-138" y="-515.9" width="1207.6" height="858.9"/>
		</defs>
		<clipPath id="SVGID_00000102541582625492069650000001755124274759376025_">
			<use xlink:href="#SVGID_00000050638723973201287600000013545005577660012966_"  style="overflow:visible;"/>
		</clipPath>
		<path id="path3245" style="clip-path:url(#SVGID_00000102541582625492069650000001755124274759376025_);fill:#832126;" d="
			M86.8,202.4c0-0.1,0-0.2,0-0.3c0-0.1-0.1-0.2-0.1-0.3c-0.1-0.1-0.1-0.2-0.2-0.2c-0.1-0.1-0.2-0.1-0.3-0.1c-0.1,0-0.2,0-0.3-0.1
			c-0.1,0-0.2,0-0.3,0.1c-0.1,0.1-0.2,0.1-0.3,0.2c-0.1,0.1-0.1,0.2-0.2,0.3c0,0.1-0.1,0.2-0.1,0.3c0,0.1,0,0.2,0,0.3
			c0,0.1,0,0.2,0,0.3c0,0.1,0,0.3,0,0.4c0,0.1,0.1,0.2,0.1,0.3c0,0.1,0.1,0.2,0.2,0.3c0.1,0.1,0.2,0.1,0.3,0.2
			c0.1,0,0.2,0.1,0.3,0.1c0.1,0,0.2,0,0.3,0c0.1,0,0.2-0.1,0.2-0.1c0.1,0,0.1-0.1,0.2-0.2c0-0.1,0.1-0.2,0.1-0.3
			c0-0.1,0-0.2,0.1-0.3c0-0.1,0-0.2,0-0.3C86.8,202.7,86.8,202.5,86.8,202.4 M86.4,202.8c0,0.1,0,0.2,0,0.3c0,0.1-0.1,0.2-0.1,0.3
			c-0.1,0.1-0.1,0.1-0.2,0.2s-0.1,0.1-0.2,0.1c-0.1,0-0.2,0-0.2-0.1c-0.1,0-0.1-0.1-0.2-0.2s-0.1-0.2-0.1-0.3c0-0.1,0-0.2,0-0.4
			c0-0.1,0-0.2,0-0.2c0-0.1,0-0.1,0-0.2c0-0.1,0-0.2,0.1-0.3c0-0.1,0.1-0.1,0.2-0.2c0.1,0,0.1-0.1,0.2-0.1c0.1,0,0.2,0,0.2,0.1
			c0.1,0,0.1,0.1,0.2,0.2c0,0.1,0.1,0.2,0.1,0.3c0,0.1,0,0.2,0,0.4C86.4,202.7,86.4,202.7,86.4,202.8"/>
	</g>
	<g>
		<defs>
			<rect id="SVGID_00000080190689801592730140000005728615530893884322_" x="-138" y="-515.9" width="1207.6" height="858.9"/>
		</defs>
		<clipPath id="SVGID_00000010297889283929360990000010761341512727917481_">
			<use xlink:href="#SVGID_00000080190689801592730140000005728615530893884322_"  style="overflow:visible;"/>
		</clipPath>
		<path id="path3247" style="clip-path:url(#SVGID_00000010297889283929360990000010761341512727917481_);fill:#832126;" d="
			M92.3,178.6l0.4,0l0.5-0.3c0,0,0.1,0,0-0.2c0,0-0.1,0.1-0.2,0.1c-0.1,0-0.4,0-0.5,0l0,0l-0.3,0c0.1-0.1-0.1-0.5-0.1-0.5
			c-0.1-0.2-0.2-0.1-0.2-0.1c-0.1,0.1-0.2,0.4-0.2,0.4l-0.1,0.2l-0.5,0l-0.5-0.1c0,0-0.3-0.3-0.3,0.1l0.1,0.3c0,0.1,0,0.1,0,0.1l0,0
			l0,0c0.1,0.1,0.3,0.1,0.4,0.1c-0.1,0-0.7,0.3-0.7,0.3c-0.8,0.5-1.8,0.6-1.8,0.6c-0.3,0.1,0,0.2,0,0.2c0.3,0.1,1.6-0.2,1.6-0.2
			c1.8-0.5,2.1-1,2.1-1C92,178.6,92.2,178.6,92.3,178.6"/>
	</g>
	<g>
		<defs>
			<rect id="SVGID_00000016770861535013699980000002885078903610428859_" x="-138" y="-515.9" width="1207.6" height="858.9"/>
		</defs>
		<clipPath id="SVGID_00000119821581365509687250000007785759075971256249_">
			<use xlink:href="#SVGID_00000016770861535013699980000002885078903610428859_"  style="overflow:visible;"/>
		</clipPath>
		<path id="path3249" style="clip-path:url(#SVGID_00000119821581365509687250000007785759075971256249_);fill:#832126;" d="
			M91.5,180c0,0-0.2-0.3-0.3,0c0,0-0.3,0.8-0.6,0.8c0,0-0.3,0.1,0,0.2c0,0,0.6-0.3,0.9-0.3C91.5,180.8,91.8,180.5,91.5,180"/>
	</g>
</g>
</svg>
