<?xml version="1.0" encoding="utf-8"?>
<!-- Generator: Adobe Illustrator 28.0.0, SVG Export Plug-In . SVG Version: 6.00 Build 0)  -->
<svg version="1.1" id="svg1" xmlns:svg="http://www.w3.org/2000/svg"
	 xmlns="http://www.w3.org/2000/svg" xmlns:xlink="http://www.w3.org/1999/xlink" x="0px" y="0px" viewBox="0 0 167 22.7"
	 style="enable-background:new 0 0 167 22.7;" xml:space="preserve">
<style type="text/css">
	.st0{clip-path:url(#SVGID_00000057827256033027006850000012015402715785362595_);fill:#1959A6;}
	.st1{clip-path:url(#SVGID_00000078022224928103172230000012004841684277460148_);fill:#1959A6;}
	.st2{clip-path:url(#SVGID_00000052085043319299459610000000624175219986761140_);fill:#1959A6;}
	.st3{clip-path:url(#SVGID_00000145764778135110879400000004252231010622694569_);fill:#1959A6;}
	.st4{clip-path:url(#SVGID_00000076573499761712668260000017222013245319030463_);fill:#1959A6;}
	.st5{clip-path:url(#SVGID_00000000940320086644871810000001839097322077024184_);fill:#231F20;}
	.st6{clip-path:url(#SVGID_00000021835514466062521970000012410874098768450966_);fill:#231F20;}
	.st7{clip-path:url(#SVGID_00000108992894661407054650000011133593054802699176_);fill:#231F20;}
	.st8{clip-path:url(#SVGID_00000039838345225486147520000014298138542043614378_);fill:#231F20;}
	.st9{clip-path:url(#SVGID_00000163073804063535970790000004360401938757080489_);fill:#231F20;}
	.st10{clip-path:url(#SVGID_00000101799830471923203920000015947613046694487179_);fill:#231F20;}
	.st11{clip-path:url(#SVGID_00000083785785220281714910000009595856390264950426_);fill:#231F20;}
	.st12{clip-path:url(#SVGID_00000029744756275374581950000007737351033560753028_);fill:#231F20;}
	.st13{clip-path:url(#SVGID_00000083782035716405145680000015198996814988053907_);fill:#231F20;}
	.st14{clip-path:url(#SVGID_00000159437897620211546850000014263424633088690334_);fill:#231F20;}
	.st15{clip-path:url(#SVGID_00000101786040095000273310000008505183964404457148_);fill:#231F20;}
	.st16{clip-path:url(#SVGID_00000178896701347931518660000017627627179768456064_);fill:#231F20;}
	.st17{clip-path:url(#SVGID_00000160186205111783018630000006945874550603977143_);fill:#231F20;}
	.st18{clip-path:url(#SVGID_00000121974271259735535660000006197733457969148830_);fill:#231F20;}
	.st19{clip-path:url(#SVGID_00000181810170489387083700000006389348407144010666_);fill:#231F20;}
	.st20{clip-path:url(#SVGID_00000178183421491840550550000013662945176693666454_);fill:#231F20;}
	.st21{clip-path:url(#SVGID_00000023993933853236712350000008451866536321214599_);fill:#231F20;}
	.st22{clip-path:url(#SVGID_00000099640121133817880700000014983748178150112406_);fill:#231F20;}
	.st23{clip-path:url(#SVGID_00000067943169261650331000000003366061463176029093_);fill:#231F20;}
	.st24{clip-path:url(#SVGID_00000154398616281343684160000010153698975970363028_);fill:#231F20;}
	.st25{clip-path:url(#SVGID_00000155842822416813332130000000098832867651982489_);fill:#231F20;}
	.st26{clip-path:url(#SVGID_00000116924573239321359450000000625466593340877456_);fill:#231F20;}
	.st27{clip-path:url(#SVGID_00000140701096647849912610000018228390136110520755_);fill:#231F20;}
	.st28{clip-path:url(#SVGID_00000026873116538791787530000012760156672036290237_);fill:#231F20;}
	.st29{clip-path:url(#SVGID_00000176739558409111925360000003812114705039519641_);fill:#231F20;}
	.st30{clip-path:url(#SVGID_00000094595572441442086360000009976256781719023537_);fill:#231F20;}
	.st31{clip-path:url(#SVGID_00000154414119854105772390000013287966251510966184_);fill:#231F20;}
	.st32{clip-path:url(#SVGID_00000144302203779014219360000016176796464371890090_);fill:#231F20;}
	.st33{clip-path:url(#SVGID_00000119116230010112702090000006279321241231018113_);fill:#231F20;}
	.st34{clip-path:url(#SVGID_00000116957111577515310240000005841080944014341255_);fill:#231F20;}
	.st35{clip-path:url(#SVGID_00000178178894884286235300000012715033784519970474_);fill:#231F20;}
	.st36{clip-path:url(#SVGID_00000179623089016391816610000005912197051232438446_);fill:#231F20;}
	.st37{clip-path:url(#SVGID_00000024711500583722459490000001078296953302632067_);fill:#231F20;}
	.st38{clip-path:url(#SVGID_00000033357853193955037730000011082069178270106519_);fill:#231F20;}
	.st39{clip-path:url(#SVGID_00000145742213472715580170000010687623541620131980_);fill:#231F20;}
	.st40{clip-path:url(#SVGID_00000065032142417768557830000012145879626255397798_);fill:#231F20;}
	.st41{clip-path:url(#SVGID_00000156562259597674758150000017100885265554723500_);fill:#231F20;}
	.st42{clip-path:url(#SVGID_00000005261572087937571850000018204530548911802253_);fill:#231F20;}
	.st43{clip-path:url(#SVGID_00000097491204527405960550000000300508801067778215_);fill:#231F20;}
	.st44{clip-path:url(#SVGID_00000137131261032416369870000003689618738553493670_);fill:#231F20;}
	.st45{clip-path:url(#SVGID_00000159456201947416033870000012805822069430018180_);fill:#231F20;}
	.st46{clip-path:url(#SVGID_00000027582407967511951430000002340590145597097657_);fill:#231F20;}
	.st47{clip-path:url(#SVGID_00000103237293529539042530000017516988522642326922_);fill:#231F20;}
	.st48{clip-path:url(#SVGID_00000094604626292555218550000013167653226715909290_);fill:#231F20;}
	.st49{clip-path:url(#SVGID_00000132072232190372323630000007174659200242379394_);fill:#231F20;}
	.st50{clip-path:url(#SVGID_00000093142892593706741510000017342969373018319256_);fill:#231F20;}
	.st51{clip-path:url(#SVGID_00000160894604074322574650000011374287584182893718_);fill:#231F20;}
	.st52{clip-path:url(#SVGID_00000145748558962710729670000005402396969900009148_);fill:#231F20;}
</style>
<g id="layer1" transform="translate(-96.308338,-73.81875)">
	<g>
		<defs>
			<rect id="SVGID_1_" x="-278.1" y="-186" width="1207.6" height="858.9"/>
		</defs>
		<clipPath id="SVGID_00000031895732419320434450000007265462862876812425_">
			<use xlink:href="#SVGID_1_"  style="overflow:visible;"/>
		</clipPath>
		<path id="path3783" style="clip-path:url(#SVGID_00000031895732419320434450000007265462862876812425_);fill:#1959A6;" d="
			M109.5,74.7c9.8,6.7,9.2,17,9.2,17c0.1,1.3-0.7,1.9-0.9,2c-10.4,5.9-19.9,0.6-20.8-0.2c-0.9-0.8-0.7-2.2-0.7-2.2
			c0.5-10.9,8.4-16.1,8.5-16.1c0.1-0.1,1.4-1.1,2.3-1.3c0.9-0.2,1.7,0.3,1.7,0.3C108.8,74.2,109.5,74.7,109.5,74.7 M108.4,75.1
			c0,0-0.5-0.5-1.1-0.4c-0.5,0.1-0.8,0.5-0.9,0.6c-0.1,0.1-6.4,6.3-9.1,16c-0.1,0.4-0.4,1.4,0.9,1.8c0.4,0.1,9.3,2.6,18.9-0.1
			c0.5-0.1,1-0.8,0.7-1.7c0,0-2.1-8.7-8.9-15.9C108.9,75.6,108.5,75.1,108.4,75.1"/>
	</g>
	<g>
		<defs>
			<rect id="SVGID_00000136385109342704895850000008336269644026439868_" x="-278.1" y="-186" width="1207.6" height="858.9"/>
		</defs>
		<clipPath id="SVGID_00000108295994672988642730000010701044460506675902_">
			<use xlink:href="#SVGID_00000136385109342704895850000008336269644026439868_"  style="overflow:visible;"/>
		</clipPath>
		<path id="path3785" style="clip-path:url(#SVGID_00000108295994672988642730000010701044460506675902_);fill:#1959A6;" d="
			M106.4,91.2h-1v-3.3l-0.8,0.2v3.1h-1.1l0-10l2.9-0.8L106.4,91.2z M105.3,82l-0.8,0.2l0,4.5l0.8-0.2V82z"/>
	</g>
	<g>
		<defs>
			<rect id="SVGID_00000146486957391329981610000007592549361238732220_" x="-278.1" y="-186" width="1207.6" height="858.9"/>
		</defs>
		<clipPath id="SVGID_00000136397894222856458880000000232759442532734124_">
			<use xlink:href="#SVGID_00000146486957391329981610000007592549361238732220_"  style="overflow:visible;"/>
		</clipPath>
		<path id="path3787" style="clip-path:url(#SVGID_00000136397894222856458880000000232759442532734124_);fill:#1959A6;" d="
			M101.9,89.5h1v-1.8L99.9,88v3.2l3.1,0V90h-1v0.5h-0.6v-1.7l0.6-0.1V89.5z"/>
	</g>
	<g>
		<defs>
			<rect id="SVGID_00000103263254693305540320000017600411730242086567_" x="-278.1" y="-186" width="1207.6" height="858.9"/>
		</defs>
		<clipPath id="SVGID_00000060018389749425854170000008961997731411676548_">
			<use xlink:href="#SVGID_00000103263254693305540320000017600411730242086567_"  style="overflow:visible;"/>
		</clipPath>
		<path id="path3789" style="clip-path:url(#SVGID_00000060018389749425854170000008961997731411676548_);fill:#1959A6;" d="
			M106.8,80.5l4.5,1.2v2.8l-0.5,0.6l0.5,0.5v1.9l-2.2-0.2v3.8h-2.3V80.5z M108.1,82.5v1.2l1.5,0.2v-1.1L108.1,82.5z M108.1,85.1v1.3
			l1.5,0.2v-1.2L108.1,85.1z"/>
	</g>
	<g>
		<defs>
			<rect id="SVGID_00000033359070844470846830000008977563550328397210_" x="-278.1" y="-186" width="1207.6" height="858.9"/>
		</defs>
		<clipPath id="SVGID_00000160179887829619243320000005572362096846006714_">
			<use xlink:href="#SVGID_00000033359070844470846830000008977563550328397210_"  style="overflow:visible;"/>
		</clipPath>
		<path id="path3791" style="clip-path:url(#SVGID_00000160179887829619243320000005572362096846006714_);fill:#1959A6;" d="
			M109.7,87.8l5.4,0.4v2.4l-0.2,0l0.2,0.6h-1.6l-0.4-0.6h-1.6v0.6h-1.7V87.8z M111.4,89.7h2.1V89l-2.1-0.1V89.7z"/>
	</g>
	<g>
		<defs>
			<rect id="SVGID_00000132785645531618828450000011091504323725570730_" x="-278.1" y="-186" width="1207.6" height="858.9"/>
		</defs>
		<clipPath id="SVGID_00000135663184069071172170000000259097989299583369_">
			<use xlink:href="#SVGID_00000132785645531618828450000011091504323725570730_"  style="overflow:visible;"/>
		</clipPath>
		<path id="path3793" style="clip-path:url(#SVGID_00000135663184069071172170000000259097989299583369_);fill:#231F20;" d="
			M180.5,79.4c0,0-0.1,0.3-0.4,0.1c-0.3-0.3-0.3-0.3-0.4-0.3s-0.5-0.1-0.6,0.1c0,0-0.1,0.8,0.1,0.9c0.1,0.2,0.6,0.6,0.7,0.9
			c0.1,0.2,0.8,0.2,0.9,0.2c0.1,0,0.4,0.1,0.5-0.4c0.1-0.5,0.1-0.8,0-0.9c0,0-0.1-0.6,0-1c0,0-0.1-0.4-0.3-0.4
			C180.9,78.7,180.7,79.4,180.5,79.4"/>
	</g>
	<g>
		<defs>
			<rect id="SVGID_00000099663822631223758400000010999636810122138047_" x="-278.1" y="-186" width="1207.6" height="858.9"/>
		</defs>
		<clipPath id="SVGID_00000098204653579472185040000000332821671991289003_">
			<use xlink:href="#SVGID_00000099663822631223758400000010999636810122138047_"  style="overflow:visible;"/>
		</clipPath>
		<path id="path3795" style="clip-path:url(#SVGID_00000098204653579472185040000000332821671991289003_);fill:#231F20;" d="
			M182.4,78c0.1,0,0.2,0,0.3,0.1c0.1,0.1,0.4,0,0.4,0c0.2-0.1,1.1-0.6,1.1-0.6c1.5-0.6,1.7,0.2,1.7,0.2c0.2,1-0.7,2-0.8,2.2
			c-0.1,0.2-0.3,0.3-0.2,0.3c0.1,0,0.5,0,1-0.1c0,0,1.9-0.1,1.9,0.8c0,0.1-0.3,0.3-0.5,0.3c-0.7,0.2-1.1,0.2-1.1,0.2
			c-0.5,0.2-0.9-0.1-0.9-0.1c0.1-0.2,0.5-0.3,0.7-0.4c0.2-0.1,0.2-0.1,0.2-0.1s0.3-0.2,0-0.2c-0.2,0-0.3,0-0.4,0
			c-0.2,0-0.4,0.1-0.6,0.1c-0.3,0.1-1.1,0.3-1.2,0.3c-0.1,0.1-0.2,0.1-0.3,0.1c-0.5,0.2-0.7,0.4-1,0.6c-0.2,0.2-0.4,0.2-0.4,0.2
			c-0.1,0.1-0.1,0.1-0.1,0.1c0,0.1,0.2,0.1,0.3,0.1c0.9-0.7,1.1-0.8,1.6-0.9c0.3-0.1,0.6,0,0.7,0.2c0.1,0.2,0.1,0.5,0,0.7
			c-0.2,0.2-0.8,1-0.8,1c-0.1,0.1-0.2,0.3-0.1,0.3c0.6,0.2,1.4,0.1,1.6,0.1c0.1,0,0.4,0.1,0.4,0.3c0,0.1,0,0.3,0,0.3s-0.2,0-0.3,0.1
			c-0.2,0.1-0.3,0.1-0.4,0.1c-0.3,0.1-0.3,0.1-0.5,0.2c-0.2,0.1-0.3,0.2-0.3,0.2c0,0.1,0,0.2,0.1,0.3c0.2,0.6,0.1,1.1,0.1,1.1
			c-0.1,1.1-0.8,1.2-1.4,1.2c-0.5,0-1.1-0.1-1.5-0.3c-0.6-0.2-1.1-0.8-1.2-1c-0.1-0.1-0.3-0.5,0.1-0.9c0.7-0.7,2.1-1.2,2.2-1.4
			c0.1-0.1-0.1-0.4-0.2-0.4c-0.1-0.2,0-0.3,0.2-0.4c0.3-0.2,0.4-0.3,0.4-0.5c0.1-0.3,0-0.3-0.1-0.2c-0.1,0.1-0.3,0.3-0.6,0.5
			c-0.2,0.2-0.6,0.1-0.7,0.1c-0.1,0-0.3-0.2-0.4-0.3c-0.1,0-0.1-0.1-0.2-0.2c-0.1-0.1-0.1-0.2-0.1-0.2c-0.1,0.1-0.1,0.1-0.4,0.2
			c-0.2,0.1-0.4,0.1-0.7,0.4c-0.9,0.7-0.8,0.8-0.9,1.3c-0.2,0.8-0.7,0.8-0.9,0.7c-0.5-0.1-0.6-0.4-0.6-0.6c-0.1-0.3-0.1-0.7-0.1-0.7
			c-0.1-0.2-0.1-0.4-0.1-0.5c0-0.1,0.3-0.1,0.6-0.8c0.2-0.5,0.5-0.9,1-1c0.5-0.1,1.3,0,1.7,0.1c0.5,0.1,0.8-0.1,0.9-0.1
			c0.1-0.1,0.5-0.4,1-0.5c0.4-0.2,0.5-0.4,0.4-0.5c-0.1-0.1-0.2-0.3-0.4-0.1c-0.2,0.2-0.4,0.3-0.6-0.1c-0.2-0.3-0.8-1.7-0.8-2.1
			c0-0.4,0.5-0.2,0.5-0.2C182.2,78,182.3,78,182.4,78 M183.6,80c0.1,0.2,0.2-0.1,0.2-0.1c0,0,0.5-0.4,0.8-1c0.4-0.6-0.1-0.7-0.2-0.8
			c-0.1-0.1-0.4-0.3-0.7,0.1c-0.4,0.3-0.3,1.5-0.3,1.5C183.5,79.7,183.5,79.7,183.6,80 M179.8,82.3c-0.1,0.1-0.2,0.2,0,0.2
			c0.3,0.1,0.2,0,0.4-0.1c0.2-0.1,0.2-0.3,0.1-0.3C180,82.1,179.9,82.2,179.8,82.3 M181.6,85.9c-0.2,0.1-0.2,0.2-0.1,0.2
			c0,0,0.1,0.1,0.2,0.2c0.1,0,0.5,0.3,1,0.3c0.1,0,0.6-0.1,0.7-0.4c0.2-0.5,0.2-0.9,0.2-1c-0.1-0.1-0.2,0-0.2,0
			c-0.2,0.1-0.6,0.2-0.6,0.2C182.5,85.6,181.9,85.7,181.6,85.9"/>
	</g>
	<g>
		<defs>
			<rect id="SVGID_00000125576750954591196350000000365371199611489420_" x="-278.1" y="-186" width="1207.6" height="858.9"/>
		</defs>
		<clipPath id="SVGID_00000179610197802715863540000011540156381992398764_">
			<use xlink:href="#SVGID_00000125576750954591196350000000365371199611489420_"  style="overflow:visible;"/>
		</clipPath>
		<path id="path3797" style="clip-path:url(#SVGID_00000179610197802715863540000011540156381992398764_);fill:#231F20;" d="
			M155.5,81.1c0,0-0.2-0.2-0.1-0.5c0-0.2,0.1-0.4,0.1-0.5c0-0.1,0-0.3,0.3-0.5c0.3-0.2,1.2-1.4,1.4-1.5c0.2-0.2,0.6-0.3,0.7-0.1
			c0.2,0.1,0.5,0.5,0.5,0.5c0,0,0.1,0.3-0.1,0.7c-0.2,0.3,0.1,0.2,0.1,0.2s0.3,0,0.4-0.1c0.1-0.1,0.7-0.1,0.9-0.1
			c0.2,0,0.6,0.3,0.5,0.4c-0.1,0.1-0.7,0.3-1.2,0.4c-0.5,0.1-0.6,0-0.8,0.2c-0.2,0.2,0.1,0.4,0.2,0.4c0.1,0.1,0.4,0.4,0.4,0.5
			c0,0.1,0.1,0.3-0.4,0.1c-0.5-0.2-0.8-0.6-0.9-0.6c0,0-0.2-0.2-0.4,0.1c-0.2,0.2-0.5,0.5-0.6,0.8c-0.2,0.2-0.5,0.1-0.6,0
			C155.8,81.5,155.5,81.2,155.5,81.1"/>
	</g>
	<g>
		<defs>
			<rect id="SVGID_00000070087214616360107700000002523443388152558982_" x="-278.1" y="-186" width="1207.6" height="858.9"/>
		</defs>
		<clipPath id="SVGID_00000053508365140334234590000007071801444306008215_">
			<use xlink:href="#SVGID_00000070087214616360107700000002523443388152558982_"  style="overflow:visible;"/>
		</clipPath>
		<path id="path3799" style="clip-path:url(#SVGID_00000053508365140334234590000007071801444306008215_);fill:#231F20;" d="
			M161.2,77.6c0,0,0.3-0.4,0.5-0.4c0.2,0,0.5,0.4,0.4,0.5c-0.1,0.1-0.1,0.9,0,0.9c0.1,0,0.3,0.2,0.6,0c0.3-0.2,0.6-0.2,0.7-0.2
			c0.2,0,0.5,0,0.8,0.2c0.3,0.2-0.1,0.2-0.1,0.3c-0.1,0-1.2,0.2-1.6,0.3c-0.4,0.2-0.9,0.5-0.8,0.7c0,0.1,0.1,0.1,0.2,0.1
			c0,0,0.9,0.3,1,0.7c0.1,0.4-0.2,0.4-0.3,0.4c-0.2,0.1-0.4,0.1-0.4,0.2c0,0.1,0.2,0.1,0.2,0.1s0.5,0.2,0.5,0.4c0,0.3-1,1.1-1,3.1
			c0,1,0.7,1.3,1.3,1.1c0.6-0.2,1-0.4,0.9-1.3c0,0,0-0.3-0.1-0.5c-0.1-0.1,0.2-0.1,0.2-0.1c0,0,0.4,0.1,0.6,0.4
			c0.2,0.3,0.5,1.5,0.5,1.7c0,0.3-0.3,0.3-0.5,0.4c-0.2,0-2.1,0.2-2.7-0.1c-0.6-0.3-1.2-0.9-1.1-1.8c0,0-0.6,0-0.6,0
			c-0.1-0.1-0.2-0.2-0.3-0.2c0,0-0.4,1.5-0.6,1.7c-0.1,0.2-0.3,0.3-0.6,0.2c-0.3-0.2-0.4-0.6-0.4-0.9c0-0.4,0-0.6,0-0.7
			c0,0,0.2,0.2,0.3,0.2c0.1,0,0.3-0.5,0.3-0.8c0-0.3-0.3-0.3-0.4-0.3c-0.1-0.1-0.2-0.2-0.1-0.4c0.2-0.1,0.5-0.1,0.6-0.1
			c0.1,0,0.2,0,0.2-0.4c0-0.4,0.2-0.8,0-0.8c-0.2-0.1-0.5-0.1-0.5-0.3c0-0.2-0.1-0.3,0.4-0.4c0.4-0.1,1.1-0.4,2.4-0.4
			c0,0-0.4-0.3-0.3-0.4c0.1-0.1,0.3-0.4,0.1-0.8c0,0-0.2,0-0.3,0.2c-0.1,0.2-0.5,0.8-0.8,0.9c0,0-0.2,0.1-0.4-0.3
			c-0.1-0.4-0.3-0.6-0.2-0.9c0.2-0.3,0.2-0.3,0.2-0.5c0-0.1,0-0.2,0.2-0.3c0.2-0.1,0.3-0.4,0.5-0.7
			C160.9,78.2,161.2,77.7,161.2,77.6 M160.5,83.5c0,0.2,0,0.3,0,0.3c0.3,0.1,0.4,0.3,0.4,0.3s0.2,0.2,0.2-0.1c0-0.3,0.2-1.2,0.2-1.3
			c0,0,0.1-0.4,0-0.4c-0.1,0-0.6,0-0.6,0C160.7,82.9,160.6,83.3,160.5,83.5"/>
	</g>
	<g>
		<defs>
			<rect id="SVGID_00000140697569382795632390000006068552603606597797_" x="-278.1" y="-186" width="1207.6" height="858.9"/>
		</defs>
		<clipPath id="SVGID_00000178163796104031422300000002608864040092128151_">
			<use xlink:href="#SVGID_00000140697569382795632390000006068552603606597797_"  style="overflow:visible;"/>
		</clipPath>
		<path id="path3801" style="clip-path:url(#SVGID_00000178163796104031422300000002608864040092128151_);fill:#231F20;" d="
			M157.9,82l0.2,0c0.1,0,0.1,0,0.2,0c0.1,0,0.1,0,0.2,0.1c0.2,0.1,0.3,0.3,0.3,0.4c0,0.1-0.1,0.2-0.2,0.4c-0.1,0.1-0.2,0.1-0.3,0.2
			c-0.1,0.1-0.2,0.2-0.2,0.3c-0.1,0.3-0.2,0.6-0.3,0.9c0,0.3-0.1,0.6,0,0.9c0,0.1,0,0.1,0.1,0.1c0.1,0,0.1,0,0.2,0l0.3-0.1
			c0.2-0.1,0.3-0.1,0.3,0c0.1,0.1,0.1,0.2-0.1,0.3l-0.2,0.2c-0.3,0.2-0.6,0.4-0.9,0.5c-0.3,0.1-0.6,0.3-0.9,0.4
			c-0.2,0.1-0.4,0.3-0.5,0.3c-0.2,0.1-0.3,0.1-0.6,0.1c-0.2-0.1-0.2-0.2-0.3-0.4c0-0.2,0-0.3,0-0.5c0-0.1,0-0.2,0.1-0.3
			c0-0.1,0.1-0.2,0.3-0.3c0.1,0,0.1-0.1,0.2-0.1c0.1,0,0.1-0.1,0.2,0c0,0,0.1,0,0.1,0.1c0,0,0,0.1,0.1,0.1c0.1,0,0.1,0,0.2,0
			c0.1,0,0.1-0.1,0.2-0.1c0.1,0,0.1-0.1,0.1-0.1c0,0,0-0.1-0.1-0.1c-0.1,0-0.1-0.1-0.1-0.1c0,0,0-0.1,0.1-0.1c0.1,0,0.1,0,0.2-0.1
			c0,0,0.1-0.1,0.1-0.1c0-0.1,0.1-0.3,0.1-0.4c0-0.1,0-0.3,0-0.4c0-0.1-0.1-0.2-0.2-0.2c-0.1,0-0.1,0-0.2,0c-0.1,0-0.3,0-0.4,0
			c-0.1,0-0.2-0.1-0.4-0.3c-0.1-0.1-0.1-0.2-0.1-0.3c0-0.1,0.1-0.1,0.3-0.2c0.2-0.1,0.4-0.1,0.5-0.2c0.2-0.1,0.3-0.1,0.5-0.2
			c0.1,0,0.2-0.1,0.2-0.2c0.1-0.1,0.2-0.1,0.2-0.1c0.1,0,0.1,0,0.2,0C157.8,82,157.8,82,157.9,82"/>
	</g>
	<g>
		<defs>
			<rect id="SVGID_00000083086918645904933940000017587053108917236923_" x="-278.1" y="-186" width="1207.6" height="858.9"/>
		</defs>
		<clipPath id="SVGID_00000124155922431810595590000004836494863181796796_">
			<use xlink:href="#SVGID_00000083086918645904933940000017587053108917236923_"  style="overflow:visible;"/>
		</clipPath>
		<path id="path3803" style="clip-path:url(#SVGID_00000124155922431810595590000004836494863181796796_);fill:#231F20;" d="
			M127.6,77c0.2-0.1,0.3-0.1,0.5-0.1c0.1,0.1,0.3,0.2,0.4,0.4c0.1,0.1,0.1,0.3,0.1,0.4c0,0.1,0,0.3,0,0.4c0,0.2,0.1,0.4,0.1,0.5
			c0.1,0.1,0.2,0.1,0.5,0.1c0.2-0.1,0.5-0.1,0.7-0.2c0.2,0,0.5-0.1,0.7-0.1c0.2,0,0.4,0,0.6,0.1c0.2,0.1,0.4,0.3,0.6,0.5
			c0.2,0.2,0.2,0.4,0.1,0.6c-0.1,0.2-0.2,0.4-0.4,0.7c-0.3,0.3-0.6,0.6-0.9,0.8c-0.3,0.2-0.6,0.4-0.9,0.7c-0.1,0.1-0.2,0.1-0.1,0.2
			c0,0.1,0.1,0.1,0.2,0.2c0.3,0.1,0.4,0.3,0.5,0.5c0,0.2-0.1,0.4-0.4,0.5c-0.1,0-0.2,0.1-0.3,0.1c-0.1,0.1-0.2,0.1-0.3,0.2
			c-0.1,0-0.2,0.1-0.3,0.1c-0.1,0-0.2,0.1-0.3,0.2c0,0.1,0,0.2,0,0.3c0,0.1,0,0.2-0.1,0.3c0,0.5,0,0.9,0,1.4c0,0.4,0,0.9,0,1.4
			c0,0.1-0.1,0.3-0.1,0.4c-0.1,0.2-0.2,0.3-0.3,0.4c-0.1,0-0.2-0.1-0.4-0.2c-0.1-0.1-0.2-0.3-0.2-0.4c-0.1-0.5-0.2-1-0.2-1.5
			c0-0.5,0-1-0.1-1.5c0-0.1,0-0.1,0-0.2c0-0.1-0.1-0.1-0.1-0.1l-0.6,0.2c-0.2,0.1-0.4,0.1-0.6,0c-0.1-0.1-0.2-0.3-0.2-0.6
			c0-0.1,0-0.2,0-0.3c0-0.1-0.1-0.2-0.2-0.3c0-0.1,0-0.1,0-0.2c0,0,0.1-0.1,0.2-0.1c0.1,0,0.2-0.1,0.3-0.1c0.1,0,0.2-0.1,0.4-0.2
			c0.1-0.1,0.2-0.1,0.4-0.2c0.1-0.1,0.3-0.1,0.4-0.2c0.1-0.3,0.1-0.6,0.1-0.8s0-0.5-0.1-0.8c0-0.1-0.1-0.1-0.1-0.2c0,0-0.1,0-0.2,0
			l-0.6,0.3c-0.4,0.3-0.7,0.7-0.9,1.1c-0.2,0.4-0.2,0.8-0.1,1.2c0.1,0.2,0,0.4-0.2,0.6c-0.2,0.2-0.4,0.2-0.6,0.1l-0.2-0.1
			c-0.3-0.1-0.5-0.3-0.6-0.5c-0.1-0.2-0.2-0.4-0.3-0.7c-0.1-0.1-0.1-0.1-0.2-0.1c-0.1,0-0.1-0.1-0.2-0.2c0-0.1,0-0.2,0-0.3
			c0,0,0.1-0.1,0.2-0.2c0-0.3,0-0.5,0.1-0.8c0-0.2,0.1-0.5,0.2-0.8c0.1-0.4,0.3-0.6,0.6-0.7c0.3-0.1,0.6,0.1,0.9,0.3
			c0,0,0.1,0,0.1,0.1c0,0,0.1,0,0.1,0l2.1-0.8c0.1-0.2,0.1-0.3,0.1-0.5c0-0.1,0-0.3,0-0.4c0-0.2-0.1-0.4-0.1-0.7
			C127.3,77.4,127.4,77.1,127.6,77 M130.3,79.4c-0.2,0-0.4,0.1-0.6,0.1s-0.3,0.1-0.5,0.1c-0.1,0-0.1,0.1-0.2,0.1
			c0,0-0.1,0.1-0.1,0.1l0.1,0.8c0,0.1,0.1,0.2,0.1,0.1c0.1,0,0.1,0,0.2-0.1c0.2-0.2,0.4-0.4,0.7-0.7
			C130.4,79.7,130.4,79.5,130.3,79.4"/>
	</g>
	<g>
		<defs>
			<rect id="SVGID_00000138559372831802021480000004353803265670698397_" x="-278.1" y="-186" width="1207.6" height="858.9"/>
		</defs>
		<clipPath id="SVGID_00000121250826199307918840000016648289372061650351_">
			<use xlink:href="#SVGID_00000138559372831802021480000004353803265670698397_"  style="overflow:visible;"/>
		</clipPath>
		<path id="path3805" style="clip-path:url(#SVGID_00000121250826199307918840000016648289372061650351_);fill:#231F20;" d="
			M191.3,78.3c0.1,0,0.2-0.1,0.3-0.1c0,0,0.1,0,0.2,0c0.2,0.1,0.5,0.2,0.7,0.2c0.2,0.1,0.5,0.2,0.7,0.4c0.1,0.1,0.2,0.1,0.3,0.1
			c0.1,0,0.2,0,0.3-0.1l0.5-0.2c0.3-0.1,0.5-0.1,0.7-0.1c0.2,0,0.4,0.1,0.8,0.3c0.1,0.1,0.3,0.2,0.5,0.1c0.2-0.1,0.3-0.1,0.5-0.3
			c0.1-0.1,0.1-0.2,0.2-0.2c0.1,0,0.1,0,0.2,0c0.1,0,0.1,0,0.2,0c0.1,0,0.1,0,0.2,0c0.1-0.1,0.2-0.1,0.3,0c0.1,0,0.2,0.1,0.3,0.2
			c0.2,0.1,0.3,0.2,0.3,0.4c0,0.2-0.1,0.3-0.3,0.4c-0.1,0.1-0.2,0.1-0.3,0.2c-0.1,0.1-0.2,0.2-0.2,0.3l0.1,0.9c0,0.1,0,0.2,0.1,0.2
			c0.1,0,0.2,0,0.3,0c0.1,0,0.3,0,0.4,0c0.1,0,0.2,0.1,0.4,0.2c0.1,0.1,0.2,0.1,0.1,0.2c0,0.1-0.1,0.2-0.2,0.2
			c-0.2,0.1-0.4,0.2-0.7,0.3c-0.2,0.1-0.4,0.2-0.6,0.4c-0.1,0.2-0.1,0.4-0.1,0.5c0,0.2-0.1,0.4-0.1,0.6c0,0.6,0,1.2,0.1,1.7
			c0,0.6,0.1,1.1,0.1,1.8c0,0.1,0,0.2,0,0.3c0,0.1-0.1,0.2-0.2,0.3c-0.1,0-0.3-0.1-0.3-0.2c-0.1-0.1-0.1-0.2-0.2-0.4
			c-0.2-0.2-0.3-0.3-0.3-0.5c-0.1-0.1-0.1-0.3,0-0.5c0-0.1,0-0.1,0-0.2c0-0.1,0.1-0.1,0.1-0.2v-2.7c0-0.1-0.1-0.2-0.1-0.2
			c-0.1,0-0.1,0-0.2,0l-0.6,0.2c-0.1,0-0.1,0-0.2,0.1c-0.1,0-0.1,0-0.2,0c-0.1-0.2-0.2-0.3-0.3-0.5c0-0.2,0-0.4,0-0.5
			c0-0.1-0.1-0.2-0.1-0.2c0,0-0.1,0-0.2,0.1c-0.1,0.4-0.2,0.7-0.3,1.1c-0.1,0.3-0.2,0.7-0.3,1.1c0,0.1,0,0.2-0.1,0.3
			c0,0.1-0.1,0.2-0.2,0.3c-0.1,0.1-0.1,0.1-0.2,0.2c-0.1,0.1-0.1,0.1-0.1,0.2c-0.1,0.1-0.2,0.3-0.3,0.3c-0.1,0.1-0.2,0.2-0.4,0.3
			c-0.1,0.1-0.2,0.1-0.2,0.1c0,0-0.1-0.1-0.2-0.2c-0.1-0.1-0.1-0.3-0.1-0.4c0-0.1-0.1-0.3-0.1-0.4c0-0.2,0-0.2,0-0.3
			c0.1,0,0.2,0,0.3-0.1c0.3-0.2,0.5-0.5,0.6-0.8c0.1-0.3,0.2-0.6,0.2-0.9c0-0.1,0-0.1,0-0.1c0,0-0.1-0.1-0.1-0.1l-0.2,0.1
			c-0.2,0-0.3,0.1-0.4,0.2c-0.1,0.2-0.1,0.3,0.1,0.5c0,0.1,0,0.1,0,0.2c0,0.1-0.1,0.1-0.1,0.2c-0.2,0.1-0.4,0.2-0.6,0.3
			c-0.2,0.1-0.4,0.2-0.6,0.4c-0.1,0.1-0.1,0.1-0.2,0.1c-0.1,0-0.2,0-0.2,0c-0.2,0-0.4,0-0.6-0.1c-0.2-0.1-0.3-0.2-0.4-0.4
			c-0.1-0.1-0.1-0.2-0.2-0.2c-0.1,0-0.1,0.1-0.2,0.2c-0.1,0.1-0.2,0.2-0.3,0.4c-0.1,0.1-0.2,0.2-0.3,0.4c-0.1,0-0.1,0.1-0.1,0.1
			c0,0-0.1,0-0.1,0c-0.2-0.1-0.2-0.3-0.2-0.4c0-0.1,0-0.3,0-0.4c-0.1-0.2-0.1-0.4,0-0.5c0-0.1,0.1-0.2,0.2-0.4
			c0.3-0.2,0.5-0.5,0.6-0.8c0.2-0.3,0.3-0.6,0.4-0.9c0-0.1,0.1-0.1,0.1-0.2c0.1-0.1,0.1-0.1,0.2-0.2l0.9-1.5c0-0.1,0-0.2,0-0.2
			c0,0-0.1-0.1-0.2-0.1c-0.1,0-0.2-0.1-0.3-0.1c-0.1-0.1-0.2-0.1-0.3-0.3c-0.1-0.2,0-0.3,0.2-0.3c0.3-0.1,0.5-0.1,0.6-0.2
			c0.1,0,0.2-0.1,0.3-0.1C191.1,78.5,191.2,78.4,191.3,78.3 M191.7,82.3l-0.2,0.1l-0.3,0.2c-0.2,0.1-0.2,0.1-0.2,0.2
			c0,0.1,0,0.2,0,0.3c0.1,0.3,0.3,0.4,0.5,0.1c0.2-0.3,0.3-0.5,0.3-0.7L191.7,82.3z M193,79.2c-0.1,0-0.1,0-0.1,0
			c0,0-0.1,0.1-0.1,0.1c-0.2,0.1-0.3,0.3-0.5,0.4c-0.1,0.2-0.3,0.3-0.5,0.5l-0.8,1.4c0,0,0,0.1,0,0.1c0,0,0,0.1,0.1,0.1
			c0.1,0,0.1-0.1,0.1-0.1c0,0,0.1-0.1,0.2-0.1c0,0,0.1,0,0.1,0c0.1,0,0.1,0,0.2,0c0.2,0,0.3-0.1,0.5-0.1c0.1,0,0.3,0,0.5,0.1
			c0,0.1,0.1,0.1,0.1,0.2c0,0.1,0.1,0.1,0.1,0.1c0.1,0,0.3-0.1,0.4-0.1c0.1-0.1,0.2-0.2,0.2-0.3l0.2-0.7c0.1-0.3,0.2-0.4,0.4-0.4
			c0.2,0,0.4,0.1,0.6,0.3c0.1,0.1,0.1,0.2,0.2,0.3c0.1,0,0.2,0.1,0.3,0.1l0.5,0.2c0.1-0.2,0.3-0.3,0.4-0.5c0.1-0.2,0.2-0.3,0.3-0.5
			c0-0.1,0-0.2,0-0.3c0,0-0.1-0.1-0.2-0.1l-0.2-0.1c-0.1,0-0.2-0.1-0.3-0.1c-0.1-0.1-0.2-0.1-0.3-0.1c-0.2,0-0.4,0.1-0.6,0.3
			c-0.2,0.1-0.4,0.3-0.6,0.4c-0.1,0-0.1,0-0.2,0c0-0.1,0-0.1,0-0.2c0.1-0.1,0.1-0.2,0.1-0.2c0,0-0.1-0.1-0.2-0.2l-0.5-0.1
			c-0.1,0-0.2-0.1-0.2-0.2C193.2,79.3,193.1,79.2,193,79.2 M196.3,81.6L196.3,81.6c-0.3,0.3-0.4,0.4-0.2,0.4c0.1,0,0.2-0.1,0.3-0.2
			C196.3,81.8,196.3,81.7,196.3,81.6C196.3,81.7,196.3,81.7,196.3,81.6"/>
	</g>
	<g>
		<defs>
			<rect id="SVGID_00000005225706755952233980000005882321672910566021_" x="-278.1" y="-186" width="1207.6" height="858.9"/>
		</defs>
		<clipPath id="SVGID_00000008867507594823628060000015865034111040175804_">
			<use xlink:href="#SVGID_00000005225706755952233980000005882321672910566021_"  style="overflow:visible;"/>
		</clipPath>
		<path id="path3807" style="clip-path:url(#SVGID_00000008867507594823628060000015865034111040175804_);fill:#231F20;" d="
			M149.3,76.6c0.1-0.1,0.2-0.1,0.3,0c0.1,0,0.2,0.1,0.3,0.3c0.1,0.1,0.1,0.2,0.1,0.3c0,0.1,0.1,0.2,0.1,0.3c0,0.1,0.1,0.2,0.1,0.2
			c0.1,0,0.2,0,0.3,0c0.3,0,0.5,0.1,0.8,0.2c0.3,0.1,0.5,0.4,0.6,0.7c0.1,0.1,0.1,0.2,0.2,0.2c0.1,0,0.2,0,0.3,0
			c0.2,0.1,0.3,0.2,0.4,0.3c0,0.2-0.1,0.3-0.3,0.3c-0.2,0-0.4,0.1-0.7,0.2c-0.2,0.1-0.4,0.3-0.5,0.5c-0.1,0.1-0.1,0.1-0.1,0.2
			c0,0,0.1,0.1,0.1,0.2c0.1,0.1,0.2,0.2,0.2,0.3c0,0.1-0.1,0.2-0.2,0.3c-0.2,0.1-0.3,0.1-0.5,0.2c-0.2,0.1-0.3,0.2-0.5,0.2
			c-0.1,0.1-0.2,0.2-0.2,0.3c0,0.1,0.1,0.2,0.3,0.2l0.9-0.1c0.2,0,0.3,0.1,0.3,0.2c0,0.1,0,0.3-0.2,0.4c-0.2,0.1-0.4,0.1-0.6,0.1
			c-0.2,0-0.3,0.1-0.5,0.2c-0.1,0-0.2,0.1-0.2,0.1c0,0.1,0,0.1-0.1,0.2c0,0.2,0,0.3,0,0.3c0.1,0,0.2,0,0.3,0c0.1,0,0.2,0,0.2-0.1
			c0.1,0,0.1-0.1,0.1-0.2c0-0.1,0-0.1,0-0.1c0,0,0.1,0,0.1,0c0.2,0.1,0.4,0.1,0.5,0.1c0.2,0,0.4,0.1,0.6,0.2
			c0.1,0.1,0.2,0.2,0.2,0.3c0,0.1-0.1,0.2-0.2,0.2l-1.8,0.4c-0.1,0-0.1,0-0.2,0c0,0-0.1,0.1-0.1,0.1c0,0.2-0.1,0.3-0.1,0.5
			c0,0.2,0,0.3,0,0.5c0,0.1,0,0.2,0.1,0.2c0.1,0,0.1,0.1,0.3,0.1c0.2,0.1,0.4,0.1,0.6,0.2c0.2,0.1,0.4,0.1,0.6,0.2
			c0.5,0.1,0.9,0.2,1.3,0.3c0.4,0.1,0.9,0.2,1.4,0.3c0.1,0,0.2,0.1,0.2,0.2c0,0.1,0,0.1-0.2,0.2c-0.2,0.1-0.5,0.2-0.7,0.2
			c-0.2,0.1-0.4,0.1-0.7,0.2c-0.4,0.1-0.7,0.2-1,0.1c-0.3,0-0.6-0.1-1-0.2c-0.4-0.1-0.8-0.2-1.1-0.4c-0.4-0.2-0.7-0.3-1.1-0.6
			c-0.5-0.3-0.9-0.5-1.3-0.7c-0.4-0.2-0.9-0.2-1.3-0.2c-0.1,0-0.2,0-0.2,0c-0.1,0.1-0.1,0.1-0.1,0.2c-0.2,0.6-0.5,1-0.9,1.2
			c-0.4,0.3-0.8,0.4-1.3,0.4c-0.2-0.1-0.3-0.1-0.3-0.3c0-0.1,0-0.3,0.2-0.4c0.2-0.1,0.5-0.3,0.7-0.5s0.4-0.4,0.7-0.7
			c0.1-0.1,0.1-0.2,0-0.3c-0.1-0.1-0.1-0.1-0.3-0.1l-0.3,0c-0.4,0-0.6-0.1-0.7-0.4c-0.1-0.3,0-0.5,0.4-0.6c0.1-0.1,0.2-0.1,0.2-0.2
			c0.1,0,0.2,0,0.3,0.1c0.1,0.1,0.3,0.1,0.4,0.2c0.2,0,0.3,0,0.5-0.1c0.1-0.2,0.2-0.4,0.2-0.7c0.1-0.2,0.1-0.4,0.2-0.7
			c0-0.1,0-0.2-0.1-0.3c-0.1-0.1-0.2-0.1-0.3-0.1c0,0-0.1,0-0.1,0c-0.1,0-0.1-0.1-0.1-0.1c-0.1-0.3-0.1-0.5,0-0.8
			c0-0.3,0.1-0.5,0.3-0.8c0,0,0-0.1,0-0.1c0-0.1,0-0.1,0-0.1c-0.1-0.1-0.1-0.2-0.2-0.2c-0.1,0-0.2,0-0.3,0c-0.2,0-0.3,0-0.4-0.1
			c-0.1-0.1-0.2-0.2-0.3-0.3c0-0.1,0-0.1,0-0.2c0,0,0.1,0,0.1-0.1l0.4-0.1c0.2,0,0.3-0.1,0.4-0.2c0.1-0.1,0.2-0.2,0.4-0.3h0.5
			c0.3,0,0.4,0.1,0.6,0.3c0.1,0.2,0.1,0.4,0,0.7c-0.1,0.1-0.1,0.2,0,0.2c0,0.1,0.1,0.1,0.2,0.1c0.4,0,0.7-0.1,1-0.2
			c0.3-0.1,0.7-0.2,1-0.3c0.1-0.1,0.2-0.2,0.2-0.3c0-0.1-0.1-0.2-0.2-0.3l-0.8-0.4c-0.1-0.1-0.2-0.2-0.2-0.2c0-0.1,0.1-0.1,0.2-0.2
			c0.1-0.1,0.3-0.2,0.4-0.2c0.1-0.1,0.3-0.1,0.4-0.2l0.1-0.1c0-0.2,0-0.4,0-0.6c0-0.2,0.1-0.4,0.3-0.6L149.3,76.6z M147.4,81.7
			c0.2-0.1,0.4-0.2,0.6-0.2c0.2,0,0.4-0.1,0.6-0.2c0.2-0.1,0.3-0.2,0.3-0.4c0-0.1-0.1-0.1-0.3-0.1c-0.4,0.1-0.7,0.2-1,0.3
			c-0.3,0.1-0.6,0.2-1,0.3c-0.1,0-0.3,0-0.4,0c-0.1,0-0.2-0.1-0.3-0.3c-0.1,0-0.1,0-0.1,0c0,0-0.1,0.1-0.1,0.1l-0.2,0.4
			c0,0.1,0,0.2,0,0.2c0,0,0.1,0.1,0.2,0.1c0.1,0,0.2,0,0.3,0.1c0.1,0.1,0.2,0.1,0.3,0.1c0.2,0.1,0.3,0.2,0.3,0.3c0,0.1,0,0.2,0,0.4
			c-0.1,0.3-0.2,0.6-0.3,0.9c-0.1,0.3,0,0.4,0.5,0.5c0.1-0.2,0.2-0.3,0.3-0.3c0.1,0,0.2,0,0.4,0l0.9-0.5c0.1-0.1,0.1-0.1,0.1-0.2
			c0,0-0.1-0.1-0.2-0.1c-0.1,0-0.2,0-0.3,0c-0.1,0-0.2,0-0.3,0c0,0-0.1,0-0.1,0c0,0-0.1,0-0.1-0.1c0-0.1,0-0.1,0-0.2
			c0-0.1,0-0.1,0-0.2c0-0.1,0-0.1,0.1-0.2c0,0,0.1,0,0.2,0c0.2,0,0.4,0,0.6,0c0.2,0,0.4-0.1,0.6-0.3c0.1-0.1,0.1-0.2,0.1-0.2
			c0-0.1-0.1-0.1-0.2-0.1c-0.2,0.1-0.4,0.1-0.6,0.2c-0.2,0.1-0.4,0.1-0.6,0c-0.2,0-0.3-0.1-0.3-0.2
			C147.2,81.9,147.3,81.8,147.4,81.7 M148.8,84.6c-0.1,0-0.2,0-0.3,0.1c-0.1,0-0.2,0.1-0.2,0.2c0,0.1,0.1,0.1,0.1,0.1
			c0.1,0,0.1,0.1,0.2,0.1c0.2,0.1,0.3,0.1,0.3-0.1C148.9,84.8,148.9,84.7,148.8,84.6 M148.8,83.6c-0.1-0.1-0.1-0.1-0.2,0
			c-0.1,0.1-0.1,0.1-0.2,0.2c0,0.1,0.1,0.1,0.2,0.1C148.8,83.8,148.9,83.7,148.8,83.6 M150.3,80.4c-0.1,0-0.2,0.1-0.2,0.2
			c0,0.1,0.1,0.2,0.2,0.2c0.1,0,0.2-0.1,0.2-0.2C150.4,80.4,150.4,80.4,150.3,80.4 M150.9,78.6c-0.2,0-0.3,0.1-0.4,0.2
			c-0.1,0.1-0.1,0.3,0,0.4c0.1,0,0.1,0,0.2,0c0.1,0,0.1,0,0.2,0c0.1-0.1,0.2-0.2,0.2-0.4C151.1,78.6,151,78.5,150.9,78.6"/>
	</g>
	<g>
		<defs>
			<rect id="SVGID_00000042007755580479318110000017807455448992366984_" x="-278.1" y="-186" width="1207.6" height="858.9"/>
		</defs>
		<clipPath id="SVGID_00000075878791799821012070000012944614816806508710_">
			<use xlink:href="#SVGID_00000042007755580479318110000017807455448992366984_"  style="overflow:visible;"/>
		</clipPath>
		<path id="path3809" style="clip-path:url(#SVGID_00000075878791799821012070000012944614816806508710_);fill:#231F20;" d="
			M169.6,77.7c0.3,0,0.5,0,0.7,0.2c0.2,0.2,0.3,0.4,0.2,0.7c0,0.1,0,0.3-0.1,0.4c0,0.1-0.2,0.2-0.3,0.3c-0.1,0.1-0.2,0.1-0.1,0.1
			c0,0,0.1,0.1,0.1,0.2c0,0.1,0.1,0.3,0.1,0.3c0,0.1,0.2,0.1,0.3,0.1c0.1,0,0.2,0,0.3,0c0.1,0,0.2,0.1,0.3,0.1
			c0.1,0,0.2,0.1,0.2,0.2c0,0.1,0,0.2-0.1,0.3c-0.2,0.1-0.4,0.2-0.5,0.3c-0.2,0.1-0.4,0.2-0.5,0.3c-0.1,0.1-0.1,0.2-0.1,0.4
			c0,0.1,0,0.3-0.1,0.4c0,0.1,0,0.2,0.1,0.2c0.1,0,0.1,0,0.2-0.1c0.2-0.1,0.3-0.2,0.5-0.3c0.1-0.1,0.3-0.2,0.5-0.3
			c0.1-0.1,0.1-0.1,0.1-0.2c0,0,0-0.1,0-0.1c0-0.1,0-0.1,0.1-0.2c0.1,0,0.1-0.1,0.2-0.1c0.2,0,0.4,0.1,0.6,0.1
			c0.2,0,0.4,0.1,0.7,0.3c0.1,0.1,0.2,0.2,0.1,0.3c0,0.1-0.1,0.2-0.2,0.2c-0.3,0.1-0.5,0.2-0.7,0.3c-0.2,0.1-0.4,0.3-0.6,0.6
			c0,0.1,0,0.1,0,0.1c0,0,0,0,0.1,0l1.5-0.6c0.1,0,0.2-0.1,0.2-0.2c0-0.1,0-0.2,0-0.2c0-0.4,0-0.7,0-1c0-0.3,0-0.6,0-1
			c0-0.1,0-0.1-0.1-0.2c0,0-0.1,0-0.2,0.1l-0.2,0.1c-0.1,0-0.2,0-0.4,0c-0.1,0-0.2,0-0.4,0c-0.1-0.1-0.2-0.2-0.2-0.2
			c0-0.1-0.1-0.1-0.2-0.2c-0.1-0.1-0.1-0.3-0.1-0.3c0-0.1,0.1-0.1,0.3-0.2c0.2-0.1,0.3-0.1,0.5-0.1c0.2,0,0.3,0,0.5,0
			c0.1,0,0.1-0.1,0.2-0.1c0.1,0,0.1,0,0.2,0.1c0,0.1,0.1,0.1,0.1,0.1c0,0,0,0,0.1-0.1c0-0.2,0.1-0.5,0.2-0.6
			c0.1-0.2,0.3-0.3,0.5-0.5c0.2-0.1,0.4,0,0.5,0c0.1,0.1,0.2,0.2,0.1,0.5c0,0.3-0.1,0.6-0.1,0.8c-0.1,0.3-0.1,0.5-0.1,0.8
			c0,0.3,0,0.6,0,0.9c0,0.3,0,0.6,0,0.9c0,0.1,0,0.1,0.1,0.1c0,0,0.1,0,0.2,0c0.3-0.1,0.6-0.2,0.9-0.1c0.3,0,0.6,0.1,0.9,0.3
			c0.1,0.1,0.1,0.1,0.1,0.2c0,0.1-0.1,0.1-0.1,0.2c-0.3,0.1-0.5,0.2-0.8,0.3c-0.3,0.1-0.5,0.1-0.8,0.2c-0.1,0-0.2,0-0.2,0.1
			c0,0.1,0,0.1,0,0.2c0,0.8,0,1.5,0,2.2c0,0.7,0,1.5,0,2.3l-0.1,0.3c-0.1,0.1-0.1,0.1-0.2,0.1c-0.1,0-0.1-0.1-0.2-0.1l-0.2-0.5
			c-0.3-0.3-0.4-0.5-0.5-0.7c0-0.2-0.1-0.5-0.3-0.8c0-0.4,0-0.8,0-1.2c0-0.4,0.1-0.8,0.1-1.3c0-0.1,0-0.2-0.1-0.2c0,0-0.1,0-0.2,0
			c-0.3,0.1-0.6,0.2-0.9,0.3c-0.3,0.1-0.5,0.3-0.8,0.5c-0.4,0.2-0.7,0.2-0.9,0c-0.2-0.2-0.3-0.5-0.2-0.9c0,0,0-0.1,0-0.1
			c0-0.1,0-0.1,0-0.1c-0.1,0.1-0.1,0.1-0.1,0.2c0,0.1,0,0.1,0,0.2c0,0.2,0,0.5,0,0.7c0,0.2,0,0.5,0,0.8c0,0.2,0,0.5,0,0.7
			c0,0.2-0.1,0.5-0.1,0.7c-0.1,0.2-0.2,0.2-0.2,0.3c-0.1,0-0.2,0-0.3-0.2l-0.2-0.3c-0.1-0.3-0.2-0.5-0.2-0.8
			c-0.1-0.3-0.1-0.6-0.1-0.8c0-0.1,0-0.1-0.1-0.1c0,0-0.1,0-0.1,0c-0.3,0.2-0.5,0.4-0.7,0.5c-0.2,0.2-0.4,0.3-0.7,0.5
			c-0.1,0.1-0.2,0.1-0.3,0.1c-0.1,0-0.2-0.1-0.2-0.2c-0.1-0.2-0.2-0.4-0.2-0.5c0-0.1,0-0.3,0.1-0.5c0-0.2,0-0.3,0-0.3
			c0,0,0.1-0.1,0.3-0.2c0.3-0.2,0.5-0.5,0.7-0.7c0.2-0.3,0.3-0.5,0.5-0.8c0,0,0-0.1,0-0.1c0,0,0,0-0.1,0c-0.3,0.1-0.5,0.2-0.8,0.3
			c-0.2,0.1-0.5,0.2-0.8,0.4c-0.3,0.1-0.5,0.1-0.6-0.1c-0.1-0.2-0.2-0.4-0.1-0.7c0-0.3,0-0.5,0.2-0.7c0.2-0.2,0.4-0.2,0.7-0.1
			c0.1,0,0.1,0,0.2,0c0.1,0,0.1,0,0.2,0.1c0.2,0,0.3,0,0.5,0c0.2,0,0.3-0.1,0.5-0.2c0.1-0.1,0.3-0.1,0.4-0.1c0.1,0,0.3-0.1,0.4-0.2
			c0.1-0.1,0.2-0.3,0.2-0.4c0-0.1,0-0.3,0.1-0.4c0,0,0-0.1,0-0.1c0,0-0.1,0-0.1,0l-0.7,0.3c-0.1,0-0.1,0-0.2,0c-0.1,0-0.1,0-0.2-0.1
			c-0.2-0.2-0.2-0.4-0.2-0.7c0.1-0.3,0.2-0.5,0.5-0.6l0.8-0.5c0.1-0.2,0.2-0.3,0.2-0.3C169.3,77.8,169.4,77.7,169.6,77.7
			 M171.4,81.6c-0.1,0-0.1,0-0.2,0c0,0.1-0.1,0.1-0.1,0.2c-0.1,0.2-0.2,0.3-0.3,0.4c0,0.1-0.1,0.2-0.3,0.4c-0.1,0.1-0.1,0.1,0,0.1
			c0,0,0.1,0,0.2,0c0.1-0.1,0.2-0.2,0.3-0.3c0.1-0.1,0.2-0.2,0.3-0.3c0.1-0.1,0.2-0.2,0.2-0.3C171.6,81.8,171.5,81.7,171.4,81.6"/>
	</g>
	<g>
		<defs>
			<rect id="SVGID_00000096776700118338409110000005517576022438164373_" x="-278.1" y="-186" width="1207.6" height="858.9"/>
		</defs>
		<clipPath id="SVGID_00000029032293653174264490000003191911793309380784_">
			<use xlink:href="#SVGID_00000096776700118338409110000005517576022438164373_"  style="overflow:visible;"/>
		</clipPath>
		<path id="path3811" style="clip-path:url(#SVGID_00000029032293653174264490000003191911793309380784_);fill:#231F20;" d="
			M204.1,77.3c0.1,0,0.1-0.1,0.2-0.1h0.2c0.2,0,0.3,0.1,0.5,0.2c0.1,0.1,0.3,0.2,0.4,0.3c0.2,0.1,0.4,0.1,0.5,0.2
			c0.1,0.1,0.2,0.3,0.3,0.5c0,0.1,0.1,0.2,0.1,0.2c0,0,0.1,0,0.2,0c0.3-0.1,0.7-0.2,1-0.2c0.3,0,0.6,0,1,0.2
			c0.2,0.2,0.3,0.3,0.3,0.5c0,0.2-0.1,0.4-0.4,0.5c-0.1,0-0.2,0.1-0.3,0.1c-0.1,0-0.2,0.1-0.3,0.1c-0.2,0.1-0.3,0.1-0.5,0.2
			c-0.2,0.1-0.3,0.1-0.5,0.1c-0.1,0-0.1,0-0.2-0.1c0,0,0-0.1,0.1-0.1c0.1-0.1,0.2-0.2,0.3-0.2c0.1-0.1,0.2-0.2,0.3-0.3
			c0-0.1,0-0.1,0-0.2c0,0,0,0-0.1,0c-0.6,0.2-1.2,0.4-1.8,0.6c-0.6,0.3-1.2,0.6-1.8,1c-0.2,0.1-0.3,0.2-0.4,0.4
			c-0.1,0.1-0.2,0.3-0.3,0.4l-0.5,0.5c-0.2,0.1-0.3,0.3-0.4,0.4c-0.1,0.1-0.1,0.3-0.2,0.4c-0.1,0.1-0.2,0.1-0.3,0.2
			c-0.1,0.1-0.2,0.1-0.3,0.2c-0.1,0-0.2,0-0.3,0c-0.1,0-0.2-0.1-0.3-0.1c-0.1-0.1-0.1-0.2-0.1-0.4c0-0.1,0-0.2,0-0.3
			c-0.1-0.2-0.2-0.4-0.2-0.5c0-0.1,0-0.3,0-0.5c0-0.1,0-0.2,0.1-0.2c0.1-0.1,0.1-0.1,0.2-0.2c0.1-0.3,0.2-0.5,0.3-0.7
			c0.1-0.2,0.2-0.5,0.4-0.7c0.1-0.3,0.3-0.4,0.6-0.3c0.2,0.1,0.4,0.2,0.5,0.5c0,0.1,0.1,0.2,0.1,0.2c0.1,0.1,0.2,0,0.3,0
			c0.4-0.1,0.7-0.2,1-0.4c0.3-0.1,0.7-0.2,1.1-0.4c0.1,0,0.1-0.1,0.1-0.1c0,0,0-0.1-0.1-0.1c-0.1,0-0.2-0.1-0.2-0.1
			c0-0.1,0-0.1,0-0.2c0-0.1,0-0.2-0.1-0.3c-0.1,0-0.2-0.1-0.3-0.1c-0.2-0.2-0.3-0.3-0.3-0.5C203.8,77.6,203.9,77.4,204.1,77.3
			 M205.8,80.7c0.2-0.1,0.3-0.1,0.5-0.1c0.2,0,0.4,0.1,0.6,0.1c0.1,0.1,0.2,0.2,0.2,0.3c0,0.1-0.1,0.2-0.2,0.3
			c-0.2,0.1-0.5,0.2-0.7,0.3c-0.2,0.1-0.5,0.3-0.7,0.6c-0.2,0.2-0.2,0.4,0,0.5c0.2,0.1,0.4,0.1,0.6,0c0.1-0.1,0.2-0.2,0.3-0.2
			c0.1,0,0.2,0,0.3,0c0.3,0,0.5,0.1,0.6,0.3c0.1,0.2,0,0.4-0.1,0.7c-0.3,0.3-0.6,0.6-0.8,0.9c-0.2,0.3-0.4,0.6-0.5,0.9
			c-0.1,0.2-0.1,0.4,0,0.5c0,0.2,0.1,0.4,0.3,0.5c0.2,0.1,0.5,0.2,0.7,0.2c0.2,0,0.5,0,0.7,0c0.2,0,0.4-0.1,0.6-0.1
			c0.2,0,0.4-0.1,0.7-0.2c0.3-0.5,0.6-0.9,0.7-1.4c0.1-0.5,0.1-0.9,0.1-1.4c0-0.2,0.1-0.3,0.2-0.3c0.1,0,0.2,0,0.4,0.2
			c0,0.1,0.1,0.3,0.1,0.4c0,0.1,0,0.3,0.1,0.4c0.1,0.3,0.2,0.6,0.2,0.8c0,0.3,0,0.6,0.1,0.9c0,0.1-0.1,0.2-0.1,0.3s0,0.2,0.1,0.3
			c0,0.2-0.1,0.4-0.3,0.5c-0.2,0.2-0.4,0.2-0.6,0.3c-0.2,0-0.3,0-0.4,0c-0.1,0-0.3,0-0.4,0c-0.3,0-0.6,0-0.9,0
			c-0.3,0-0.6,0.1-0.9,0.2c-0.2,0-0.4,0.1-0.5,0c-0.1,0-0.3-0.1-0.5-0.2c-0.6-0.4-0.9-0.8-0.9-1.2c0-0.4,0-0.8,0.2-1.3
			c0.1-0.2,0.2-0.3,0.2-0.5c0.1-0.2,0.1-0.3,0.2-0.5c0,0,0-0.1,0-0.1c0-0.1,0-0.1-0.1-0.1c-0.1,0-0.2,0.1-0.2,0.1
			c-0.1,0.1-0.1,0.1-0.2,0.2c-0.3,0.6-0.7,1.1-1,1.7c-0.3,0.5-0.6,1.1-1,1.7c-0.2,0.2-0.3,0.2-0.4,0.2c-0.1-0.1-0.2-0.2-0.2-0.4
			l0.1-1.5c0-0.1,0-0.2-0.1-0.2c0,0-0.1-0.1-0.2-0.1c-0.1,0-0.2,0-0.4-0.1c-0.1,0-0.3-0.1-0.4-0.1c-0.1-0.1-0.2-0.2-0.1-0.3
			c0-0.1,0.1-0.1,0.2-0.1c0.4,0,0.8-0.2,1.2-0.4c0.4-0.2,0.8-0.4,1.2-0.6c0.1-0.1,0.2-0.2,0.3-0.4c0-0.2,0-0.3,0-0.5
			c-0.1-0.1,0-0.2,0.1-0.4c0.1-0.2,0.3-0.2,0.4-0.2c0.1,0,0.3-0.1,0.4-0.3c0.1-0.2,0.2-0.3,0.3-0.5c0-0.1,0-0.2,0-0.2
			c0,0-0.1-0.1-0.2-0.1c-0.1-0.1-0.1-0.2,0-0.2C205.6,80.8,205.7,80.7,205.8,80.7 M203.7,81.5c0.1,0,0.1-0.1,0.2,0
			c0.1,0,0.1,0.1,0.1,0.2c0,0.1,0,0.1,0,0.1c0,0,0.1,0.1,0.1,0.1c0,0,0.1,0.1,0.1,0.1c0,0.1,0,0.1,0,0.2c0,0.1,0,0.1-0.1,0.2
			c0,0.1-0.1,0.1-0.1,0.2c-0.1,0.1-0.1,0.2-0.1,0.3c0,0.1,0,0.2-0.1,0.4c0,0.1-0.1,0.1-0.1,0.2c0,0.1-0.1,0.2-0.1,0.2
			c-0.3,0.1-0.5,0.1-0.7,0c-0.2-0.1-0.3-0.3-0.3-0.7l0.1-0.5c0-0.3,0.1-0.6,0.2-0.7C203.1,81.9,203.3,81.8,203.7,81.5 M203.4,85.1
			c-0.1,0-0.1,0-0.2,0.1c-0.1,0-0.1,0.1-0.1,0.1c0.1,0.1,0.2,0.1,0.3,0C203.5,85.2,203.5,85.1,203.4,85.1"/>
	</g>
	<g>
		<defs>
			<rect id="SVGID_00000088833360345812913950000013532395423491978638_" x="-278.1" y="-186" width="1207.6" height="858.9"/>
		</defs>
		<clipPath id="SVGID_00000139275244903675012890000007958300201628102300_">
			<use xlink:href="#SVGID_00000088833360345812913950000013532395423491978638_"  style="overflow:visible;"/>
		</clipPath>
		<path id="path3813" style="clip-path:url(#SVGID_00000139275244903675012890000007958300201628102300_);fill:#231F20;" d="
			M213.2,79c-0.2-0.1-0.1-0.2,0-0.3c0.2-0.1,0.3-0.2,0.4-0.3c0.2-0.2,0.5-0.3,0.7-0.3c0.2-0.1,0.5-0.1,0.7-0.1
			c0.2,0,0.4,0.1,0.5,0.3c0.1,0.2,0,0.4-0.2,0.6c-0.4,0.3-0.6,0.7-0.6,1.1c0,0.4,0,0.8,0.3,1.1c0.1,0,0.1,0.1,0.1,0.1
			c0,0,0,0,0.1-0.1c0-0.1,0-0.3,0-0.4c0-0.1,0-0.2,0-0.3l0.8-1.1c0.1-0.1,0.2-0.1,0.3-0.1c0.1,0,0.1,0.1,0.1,0.3l-0.1,0.4
			c0,0.1,0,0.2,0,0.2c0,0,0.1,0.1,0.2,0c0.6-0.2,1.2-0.4,1.7-0.6c0.5-0.2,1.1-0.4,1.7-0.6c0.2-0.1,0.4-0.1,0.6-0.1
			c0.2,0,0.4,0.1,0.6,0.2c0.2,0.2,0.3,0.4,0.3,0.6c0,0.2-0.2,0.4-0.4,0.4c-0.2,0-0.4,0.1-0.5,0.1c-0.2,0.1-0.4,0.1-0.6,0.1
			c-0.1,0-0.2-0.1-0.2-0.1c0-0.1,0-0.2,0.1-0.2l0.3-0.4c0.1-0.1,0.1-0.2,0-0.2c0,0-0.1,0-0.2,0c-0.2,0.1-0.5,0.1-0.7,0.2
			c-0.2,0.1-0.5,0.2-0.7,0.3c-0.3,0.1-0.6,0.2-0.9,0.4c-0.3,0.1-0.6,0.3-0.9,0.5c-0.2,0.2-0.3,0.5-0.5,0.7c-0.1,0.2-0.2,0.4-0.3,0.7
			c-0.1,0.2-0.1,0.2-0.3,0.2c-0.1,0-0.2-0.1-0.3-0.2c0-0.1-0.1-0.1-0.1-0.1c0,0-0.1,0-0.1,0.1c-0.1,0.3-0.3,0.5-0.5,0.5
			c-0.2,0-0.5-0.1-0.7-0.2c0,0-0.1-0.1-0.1-0.1c0,0-0.1,0-0.1,0c-0.2,0.2-0.3,0.5-0.3,0.7c0,0.3,0,0.5-0.1,0.8
			c0.1,0.2,0.1,0.4,0.1,0.5c0,0.2,0,0.3,0,0.6c0,0.3,0,0.5,0,0.8c0,0.2,0,0.5-0.1,0.8c-0.1,0.1-0.1,0.2-0.2,0.2
			c-0.1,0-0.2,0-0.3-0.1l-0.2-0.2c-0.2-0.5-0.4-0.9-0.5-1.4c-0.1-0.4-0.1-0.9,0-1.4l0.1-0.2c0-0.4,0.1-0.7,0.1-1
			c0.1-0.3,0.1-0.6,0.1-1c0-0.2,0-0.3,0-0.4c0-0.1,0-0.3,0-0.4c0.1-0.3,0.2-0.4,0.4-0.4c0.2,0,0.3,0.2,0.3,0.4c0,0.2,0,0.4,0.2,0.6
			c0.1,0.2,0.3,0.4,0.5,0.4c0.2,0,0.3,0,0.3-0.1c0.1-0.1,0.1-0.2,0-0.3c-0.2-0.3-0.3-0.6-0.3-0.9c0-0.3,0-0.6,0-0.9
			c0-0.1,0-0.2,0-0.2c0-0.1-0.1-0.1-0.2-0.1c-0.1,0-0.3,0-0.4-0.1C213.5,79.1,213.3,79.1,213.2,79 M218.5,80.7l0.4-0.1
			c0.2,0,0.4,0.1,0.4,0.3c0.1,0.2,0,0.4-0.3,0.5c-0.3,0.1-0.6,0.2-0.9,0.4c-0.3,0.1-0.6,0.3-0.8,0.5c-0.1,0-0.1,0.1-0.1,0.1
			c0,0.1,0,0.1,0.1,0.1c0.2,0,0.5-0.1,0.9-0.2c0.4-0.1,0.6-0.3,0.8-0.5c0,0,0-0.1,0.1-0.1c0,0,0,0,0.1,0c0.1,0,0.3,0,0.4,0
			c0.1,0,0.3,0,0.5,0c0.2,0,0.2,0.1,0.2,0.2c0,0.1-0.1,0.2-0.2,0.3l-0.1,0.1l-1.7,0.8c-0.1,0.1-0.2,0.1-0.2,0.2
			c0,0.1,0.1,0.1,0.2,0.1l0.4,0.1c0.2,0,0.3,0.1,0.4,0.2c0.1,0.1,0.1,0.3,0,0.5c-0.1,0.2-0.2,0.4-0.3,0.6c-0.1,0.2-0.1,0.5,0,0.7
			c0.1,0.2,0.3,0.3,0.5,0.4c0.2,0,0.4,0.1,0.6,0c0.3,0,0.6,0,1-0.1c0.3-0.1,0.6-0.3,0.9-0.6c0.1-0.3,0.1-0.5,0.1-0.8
			c0-0.2,0-0.5,0.1-0.7c0-0.1,0-0.2,0.1-0.2c0.1,0,0.1,0,0.2,0.1c0.1,0.3,0.2,0.5,0.3,0.7c0.1,0.2,0.1,0.5,0.1,0.8
			c0.1,0.3,0.2,0.6,0.2,0.8c0,0.2,0,0.5-0.2,0.8c-0.5,0.2-0.9,0.3-1.4,0.3c-0.5,0-0.9,0-1.4,0c-0.9-0.2-1.5-0.5-1.7-1.1
			c-0.2-0.6-0.2-1.2,0-2c0-0.2,0-0.3-0.1-0.3c-0.1-0.1-0.2,0-0.4,0.1c-0.4,0.5-0.8,1.1-1.2,1.6c-0.4,0.5-0.8,1-1.3,1.6
			c-0.1,0.1-0.1,0.1-0.2,0.1c-0.1,0-0.1,0-0.1-0.1l0-0.1c-0.2-0.2-0.2-0.4-0.2-0.6c0-0.2,0-0.4,0.1-0.6c0.1-0.1,0.1-0.1,0.2-0.1
			c0.1,0,0.1-0.1,0.2-0.2c0.2-0.2,0.5-0.4,0.6-0.6c0.2-0.2,0.4-0.4,0.5-0.6c0-0.1,0-0.1,0-0.1c0,0-0.1,0-0.1,0c-0.1,0-0.2,0-0.3,0
			c-0.1,0-0.2,0.1-0.3,0.1c-0.4,0-0.6-0.1-0.6-0.4c0-0.3,0.2-0.5,0.5-0.6h0.3c0.2-0.1,0.5-0.3,0.7-0.4c0.2-0.2,0.5-0.3,0.7-0.6
			c0.1-0.1,0.1-0.2,0.1-0.3c0-0.1-0.1-0.1-0.2-0.2c-0.1,0-0.1-0.1-0.1-0.1c0-0.1,0-0.1,0.1-0.2c0.1-0.1,0.2-0.1,0.2-0.1
			c0.1,0,0.1,0,0.2,0c0.2-0.1,0.4-0.2,0.6-0.2C218.1,80.8,218.3,80.8,218.5,80.7 M217.7,77.3c0.2,0,0.4,0,0.7,0
			c0.2,0,0.4,0.1,0.7,0.3c0.2,0.2,0.3,0.4,0.4,0.7c0,0.3,0,0.5-0.2,0.6l-1.4,0.1c-0.1,0-0.1,0-0.2-0.1c0,0,0-0.1,0.1-0.2l0.2-0.2
			c0.1-0.1,0.2-0.2,0.2-0.3c0-0.1,0-0.2-0.1-0.3c-0.1-0.1-0.2-0.3-0.3-0.4C217.5,77.5,217.5,77.4,217.7,77.3"/>
	</g>
	<g>
		<defs>
			<rect id="SVGID_00000077314890655898489800000015437463205392974734_" x="-278.1" y="-186" width="1207.6" height="858.9"/>
		</defs>
		<clipPath id="SVGID_00000066499078026600705650000004155866390273299862_">
			<use xlink:href="#SVGID_00000077314890655898489800000015437463205392974734_"  style="overflow:visible;"/>
		</clipPath>
		<path id="path3815" style="clip-path:url(#SVGID_00000066499078026600705650000004155866390273299862_);fill:#231F20;" d="
			M136.1,80.2c0,0-0.3-0.3,0-0.3c0.2-0.1,0.8-0.1,1.5-0.4c0,0,0.2-0.2,0.6-0.2c0.4,0,0.8,0,1,0.3c0.2,0.3-0.2,0.6-0.2,0.6
			c-0.1,0-0.5,0.1-0.5,0.3c-0.1,0.2-0.2,0.5-0.1,0.8c0,0,0.5,0,0.7,0.3c0.2,0.3,0,0.6-0.1,0.7c-0.1,0.1-0.7,0.7-0.8,0.8
			c0,0,0,0.6,0,0.6c0,0,1.1,0.1,1.3,0c0,0,0.1,0,0.1-0.1c0-0.1,0-0.3,0-0.4c0,0,0.3,0.1,0.6,0.3c0.2,0.2,0.4,0.4,0.5,0.4
			c0.1,0.1,0.3,0.3,0.3,0.4c0,0.1,0,0.3-0.4,0.2s-0.8-0.1-1.4-0.1c-0.6,0-2,0.1-3.4,0.5c0,0-0.5,0.2-0.9-0.1c-0.3-0.3-0.1-0.6,0-0.7
			c0.1-0.2,0.3-0.2,0.4-0.2c0.1,0,0.8,0.1,1.3-0.3c0.5-0.4,0.5-0.4,0.4-0.5c-0.2-0.1-0.9-0.5-0.9-0.7c-0.1-0.2,0-0.2,0.1-0.4
			c0.2-0.1,1.1-0.3,1.4-0.6c0,0,0.1-0.6,0-0.8C137.5,80.7,136.6,80.7,136.1,80.2 M137.3,82.7c0.2,0,0.1-0.2,0-0.3
			c-0.1-0.1-0.3,0.1-0.3,0.1C137.1,82.8,137.1,82.8,137.3,82.7 M137.1,83.8c-0.1,0.1-0.1,0.2,0,0.2s0.3-0.1,0.3-0.1
			C137.7,83.8,137.2,83.8,137.1,83.8"/>
	</g>
	<g>
		<defs>
			<rect id="SVGID_00000105384355428356473600000009933640577020454019_" x="-278.1" y="-186" width="1207.6" height="858.9"/>
		</defs>
		<clipPath id="SVGID_00000088855279833347591120000017710387650934206860_">
			<use xlink:href="#SVGID_00000105384355428356473600000009933640577020454019_"  style="overflow:visible;"/>
		</clipPath>
		<path id="path3817" style="clip-path:url(#SVGID_00000088855279833347591120000017710387650934206860_);fill:#231F20;" d="
			M139.4,82.5c0,0-0.2,0.1-0.1,0.2c0.1,0.1,0.5,0.5,1,0.5c0.5,0,0.6-0.2,0.5-0.3c0-0.1-0.2-0.4-0.5-0.4
			C140,82.4,139.5,82.5,139.4,82.5"/>
	</g>
	<g>
		<defs>
			<rect id="SVGID_00000002384873371027586260000003197089933550067634_" x="-278.1" y="-186" width="1207.6" height="858.9"/>
		</defs>
		<clipPath id="SVGID_00000016763523320963219030000015006136271197236367_">
			<use xlink:href="#SVGID_00000002384873371027586260000003197089933550067634_"  style="overflow:visible;"/>
		</clipPath>
		<path id="path3819" style="clip-path:url(#SVGID_00000016763523320963219030000015006136271197236367_);fill:#231F20;" d="
			M134.4,85.4c0,0,0.1,0.7-0.3,0.8c0,0-0.3,0.1-0.8-0.5c0,0-0.2-0.3-0.4-0.5c0,0-0.2-0.3-0.3-0.6s0-1,0-1.1c0-0.1,0.2-1,0.3-1.3
			c0,0,0.3-1.2,0.4-1.8c0,0,0.1-0.6,0.1-0.8c0-0.2,0.1-0.6,0.8-0.7c0,0,1-0.1,1.6-0.4c0,0,1.8-0.8,2.8-0.8c0,0,1.7-0.1,2.1,0.3
			c0,0,0.3,0.2,0.5,1.2c0.2,1,0.4,2.9,0.4,3.1c0,0.2,0.3,1.2,0.1,2.6c-0.1,1.4-0.6,2.3-1.3,2.6c0,0-0.1,0.1-0.3,0
			c-0.1-0.1-0.4-0.5-0.6-1c0,0-0.3-0.4-0.5-0.5c0,0-0.2-0.1-0.1-0.2c0,0,0,0-0.6,0.2c-0.6,0.2-2.2,0.6-3,0.6c0,0-0.4,0.1-0.4-0.3
			c-0.1-0.4,0.2-0.8,0.3-0.9c0,0,0.3,0.4,0.6,0.4c0.4,0,0.8-0.1,2.6-0.5c0,0,0.1,0,0.1-0.1c0.1-0.1,0.7-0.3,1.1-0.2
			c0,0,0,0.7,0.2,0.8c0.2,0.1,0.5,0.2,0.8-0.1c0.3-0.3,0.3-1.5,0.3-1.7c0-0.2-0.1-1.2-0.2-1.7c-0.1-0.5-0.2-1.9-0.2-2.1
			c0-0.2-0.1-0.9-0.2-1.1c-0.1-0.2-0.4-0.9-1.5-0.6c-1.1,0.3-2,0.5-3.6,1.1c0,0-0.2,1.4-0.6,2.2C134.5,82.6,134.4,85,134.4,85.4"/>
	</g>
	<g>
		<defs>
			<rect id="SVGID_00000116947536367628763330000008963870948710454169_" x="-278.1" y="-186" width="1207.6" height="858.9"/>
		</defs>
		<clipPath id="SVGID_00000014626302788243684590000006526624547376451486_">
			<use xlink:href="#SVGID_00000116947536367628763330000008963870948710454169_"  style="overflow:visible;"/>
		</clipPath>
		<path id="path3821" style="clip-path:url(#SVGID_00000014626302788243684590000006526624547376451486_);fill:#231F20;" d="
			M227.2,79l0.2-0.1c0-0.2,0-0.5,0.1-0.7c0.1-0.2,0.2-0.4,0.5-0.6h0.6c0.2,0.1,0.3,0.2,0.5,0.3c0.2,0.1,0.3,0.3,0.5,0.4
			c0.1,0.1,0.1,0.1,0.2,0.2c0.1,0,0.2,0,0.2,0c0.4-0.1,0.8-0.1,1.1-0.1c0.4,0,0.7,0.1,1.1,0.3c0.2,0.1,0.3,0.3,0.3,0.4
			c0,0.2-0.1,0.3-0.3,0.3H232c-0.6,0.1-1.1,0.2-1.6,0.3c-0.5,0.1-1,0.2-1.6,0.3c-0.1,0.1-0.2,0.2-0.3,0.3c-0.1,0.1-0.2,0.2-0.3,0.4
			c0,0-0.1,0.1-0.1,0.2c0,0.1,0,0.1,0,0.2c0.1,0,0.2,0,0.3-0.1c0.1,0,0.2-0.1,0.4-0.1c0.3,0,0.5,0,0.8-0.1c0.2-0.1,0.5-0.2,0.8-0.2
			c0.3,0,0.5,0.1,0.7,0.2c0.1,0.1,0.1,0.3,0.1,0.7c-0.1,0.2-0.1,0.4-0.2,0.6c0,0.2,0,0.4,0,0.6c0.1,0.6,0.1,1.2,0.2,1.8
			c0.1,0.6,0.2,1.2,0.3,1.8c0,0.2,0,0.3,0,0.5c-0.1,0.2-0.2,0.3-0.3,0.5c-0.1,0-0.2,0-0.3,0c-0.1,0-0.2,0-0.3,0
			c-0.1-0.2-0.3-0.3-0.4-0.4c-0.1-0.1-0.3-0.3-0.5-0.4c-0.1-0.1-0.2-0.2-0.3-0.3c-0.1-0.1-0.1-0.2-0.2-0.3c0-0.1,0-0.1,0-0.2
			c0,0,0.1,0,0.1,0c0.1,0.1,0.2,0.1,0.4,0.1c0.1,0,0.3,0,0.4,0c0.1,0,0.2-0.1,0.3-0.1c0-0.1,0.1-0.2,0.1-0.3c0-0.3,0-0.6,0-0.8
			c0-0.3,0-0.6,0-0.9c0-0.4-0.1-0.7-0.1-1.1c0-0.3,0-0.7,0.1-1.1c0-0.1-0.1-0.2-0.1-0.3c-0.1,0-0.1,0-0.2,0
			c-0.2,0.1-0.4,0.1-0.6,0.2c-0.1,0-0.3,0-0.6,0c-0.2,0-0.4,0.1-0.7,0.2c-0.2,0.1-0.3,0.3-0.4,0.6c0,0.1,0,0.2,0.1,0.2
			c0,0,0.1,0,0.2,0c0.2-0.1,0.5-0.2,0.7-0.2c0.2-0.1,0.5-0.1,0.7-0.1c0.1,0,0.1,0,0.2,0.1c0.1,0.1,0.2,0.1,0.1,0.2
			c-0.1,0-0.1,0.1-0.2,0.1c-0.1,0-0.1,0.1-0.2,0.1c-0.1,0.1-0.2,0.2-0.4,0.3c-0.1,0.1-0.2,0.1-0.4,0.1l-0.1-0.1c-0.1,0-0.3,0-0.5,0
			c-0.2,0-0.3,0.1-0.2,0.3c0,0.1,0.1,0.3,0.1,0.4v0.4c0,0.1,0,0.2,0.1,0.2c0,0,0.1,0.1,0.2,0.1c0.1,0,0.3,0,0.4-0.1
			c0.2,0,0.3-0.1,0.4-0.2c0.1-0.1,0.1-0.1,0.2-0.1c0.1,0.1,0.2,0.1,0.3,0.3c0.1,0.1,0.1,0.2,0.1,0.2c0,0.1-0.1,0.1-0.2,0.2
			c-0.1,0-0.2,0-0.3,0c-0.1,0-0.2,0.1-0.3,0.1c-0.2,0.1-0.3,0.1-0.5,0.2c-0.2,0.1-0.4,0.2-0.5,0.3c0,0.3,0,0.6-0.1,0.9
			c-0.1,0.3-0.1,0.6-0.3,0.9c0,0.1-0.1,0.1-0.1,0.2c0,0-0.1,0-0.2-0.1c-0.2-0.2-0.4-0.4-0.4-0.6c-0.1-0.3-0.1-0.5-0.1-0.7
			c0-0.1,0-0.1,0-0.2c0-0.1,0-0.1,0-0.2c0-0.2,0-0.4,0-0.6c0-0.2,0-0.4,0.1-0.6c0.1-0.1,0.2-0.2,0.2-0.3c0-0.1,0-0.2,0-0.3
			c0-0.2,0.1-0.3,0.1-0.4c0-0.1,0.1-0.3,0.1-0.4c0-0.1,0-0.1,0-0.1c0,0-0.1,0-0.1,0c-0.2,0.4-0.5,0.7-0.8,1c-0.3,0.3-0.6,0.6-0.9,1
			l-0.7,0.6c-0.1,0-0.2,0.1-0.4,0.1c-0.1,0-0.2,0-0.3,0c-0.1-0.2-0.2-0.3-0.2-0.5c0-0.2,0-0.3,0.1-0.4c0-0.1,0.1-0.2,0.2-0.3
			c0.1-0.1,0.3-0.2,0.4-0.3l0.6-0.4c0.4-0.4,0.7-0.8,1-1.2c0.3-0.4,0.5-0.8,0.8-1.3c0-0.1,0-0.2,0-0.2c0,0-0.1-0.1-0.2-0.1
			c-0.3,0-0.5,0.1-0.8,0.2c-0.2,0.1-0.5,0.2-0.8,0.3c-0.2,0.1-0.4,0.1-0.5,0.1c-0.1,0-0.3-0.1-0.5-0.3c-0.1-0.2-0.1-0.3-0.1-0.5
			c0-0.1,0.1-0.3,0.1-0.5c0-0.1,0-0.1,0-0.2c0-0.1,0.1-0.1,0.2,0c0.1-0.1,0.2-0.1,0.4-0.2c0.1-0.1,0.3-0.1,0.4-0.1
			c0.1,0.1,0.3,0.1,0.4,0.1c0.1,0,0.2,0,0.4-0.1c0.2,0,0.5-0.1,0.7-0.2C226.7,79.1,226.9,79,227.2,79"/>
	</g>
	<g>
		<defs>
			<rect id="SVGID_00000064337260670960420110000006678443387098730904_" x="-278.1" y="-186" width="1207.6" height="858.9"/>
		</defs>
		<clipPath id="SVGID_00000123399660561032414580000001577431252566625159_">
			<use xlink:href="#SVGID_00000064337260670960420110000006678443387098730904_"  style="overflow:visible;"/>
		</clipPath>
		<path id="path3823" style="clip-path:url(#SVGID_00000123399660561032414580000001577431252566625159_);fill:#231F20;" d="
			M240.2,81.8h-0.1l-0.2,0.1c-0.1,0.2-0.1,0.2,0,0.2C240,82.1,240.1,82,240.2,81.8 M239.4,78.5c-0.1,0-0.2,0-0.4,0.1
			c-0.1,0-0.3,0.1-0.4,0.2c-0.1,0-0.2,0.1-0.2,0.1c0,0.1,0,0.1,0.1,0.2c0,0.1,0.1,0.1,0.1,0.2c0,0.1,0,0.1,0,0.2
			c0,0.1,0,0.2,0.1,0.2c0.1,0,0.1,0,0.2,0.1l0.5-0.2c0.2-0.1,0.3-0.4,0.3-0.6C239.8,78.6,239.6,78.5,239.4,78.5 M239.3,81
			c-0.1,0-0.1,0-0.1,0c0,0-0.1,0.1-0.1,0.1l-0.7,0.8c-0.1,0.1-0.1,0.1-0.1,0.1c0,0,0.1,0.1,0.1,0.1c0.2-0.1,0.3-0.1,0.5-0.2
			c0.2-0.1,0.3-0.2,0.5-0.2c0.2-0.1,0.3-0.2,0.2-0.4C239.6,81.2,239.5,81.1,239.3,81 M238.4,80.3C238.3,80.3,238.3,80.3,238.4,80.3
			c-0.1,0.1-0.1,0.1-0.1,0.2c-0.1,0.2-0.1,0.4-0.2,0.6c0,0.2-0.1,0.4-0.1,0.6c0,0,0,0.1,0,0.1c0,0,0.1,0,0.1,0
			c0.1-0.1,0.2-0.2,0.2-0.3c0.1-0.1,0.1-0.2,0.2-0.3c0.2-0.3,0.3-0.4,0.3-0.5C238.8,80.5,238.7,80.4,238.4,80.3 M238.4,82.7
			l-0.1,0.1c-0.3,0.1-0.5,0.3-0.6,0.5c0,0.2-0.1,0.4-0.1,0.7c-0.1,0.3-0.1,0.6-0.2,1c-0.1,0.4,0,0.7,0.3,0.9c0.3,0,0.7,0,1-0.1
			c0.3-0.1,0.6-0.3,1-0.5c0.1-0.1,0.2-0.2,0.3-0.3c0.1-0.1,0.1-0.2,0.1-0.3c-0.1-0.3-0.2-0.5-0.5-0.6c-0.2-0.2-0.5-0.2-0.7-0.2
			c-0.1,0-0.2,0.1-0.3,0.1c-0.1,0-0.2,0-0.3,0c-0.2,0-0.4-0.1-0.3-0.2c0-0.2,0.2-0.2,0.4-0.3c0.2-0.1,0.2-0.2,0.2-0.4
			C238.6,82.8,238.5,82.7,238.4,82.7 M239,78.1l0.5-0.4c0.3,0,0.5,0,0.8,0c0.2,0,0.5,0.1,0.8,0.2c0.1,0.1,0.1,0.1,0.2,0.2
			c0,0,0,0.1-0.1,0.2c0,0,0,0.1,0,0.1c0,0,0,0,0,0.1c-0.1,0.3-0.2,0.5-0.3,0.7c-0.1,0.2-0.1,0.5-0.2,0.8c-0.1,0.2-0.1,0.3-0.2,0.5
			c-0.1,0.2-0.1,0.4,0,0.5c0.2,0.2,0.2,0.3,0.2,0.3c-0.1,0.1-0.1,0.2-0.1,0.3c0.3-0.1,0.5-0.3,0.8-0.5c0.3-0.2,0.5-0.3,0.7-0.1
			c0,0.1,0,0.2,0.1,0.3c0,0.1,0,0.2,0,0.3c-0.1,0.4-0.3,0.6-0.6,0.8c-0.3,0.2-0.6,0.4-0.9,0.6c-0.1,0.1-0.2,0.1-0.2,0.2
			c0,0.1,0,0.1,0.2,0.2l1.2,0.6c0.3,0.2,0.6,0.3,1,0.4c0.3,0.1,0.6,0.2,1,0.4c0.2,0.2,0.3,0.3,0.2,0.5c-0.1,0.2-0.2,0.2-0.5,0.2
			l-0.4-0.1c-0.3,0-0.5,0-0.8,0c-0.3,0-0.5,0-0.8-0.1l-1-0.6c-0.1,0-0.1,0-0.2,0c-0.1,0-0.1,0.1-0.1,0.1c-0.1,0.3-0.3,0.6-0.5,0.8
			c-0.2,0.2-0.4,0.5-0.6,0.8c-0.2,0.1-0.3,0.2-0.5,0.2s-0.3,0.1-0.5,0.3c-0.2,0-0.3,0-0.4,0c-0.1,0-0.2-0.1-0.4-0.3
			c-0.1-0.1-0.2-0.3-0.2-0.4c0-0.1-0.1-0.2-0.1-0.3c-0.1-0.1-0.2-0.3-0.2-0.4c0-0.1,0-0.2,0.1-0.4c0.1-0.1,0.1-0.1,0.2-0.2
			c0-0.1,0.1-0.1,0.1-0.2c0.1-0.3,0.1-0.5,0.2-0.8c0.1-0.3,0.1-0.5,0.1-0.8c-0.1-0.1-0.1-0.2-0.1-0.3c0-0.1,0-0.2,0-0.3
			c0-0.1,0-0.1,0.1-0.2c0.1,0,0.1-0.1,0.1-0.2c0-0.4,0.1-0.7,0.1-1c0-0.3,0.1-0.7,0.2-1.1c0-0.3,0-0.5,0-0.8c0-0.2,0-0.5,0-0.7
			c0.1-0.4,0.2-0.5,0.5-0.5C238.4,78.3,238.7,78.3,239,78.1 M235.9,78.1l0.3-0.1c0.1,0,0.2,0,0.3,0.1c0.1,0,0.2,0.1,0.2,0.2
			c0,0.1,0,0.2,0,0.3c0,0.1-0.1,0.2-0.2,0.3c-0.4,0.4-0.7,0.8-0.7,1.2c0,0.4,0.1,0.8,0.2,1.3c0,0.1,0,0.3,0,0.5
			c0,0.2-0.1,0.3-0.3,0.4c-0.1,0-0.2,0-0.3-0.1c-0.1-0.1-0.2-0.2-0.3-0.3c-0.1-0.1-0.2-0.1-0.2-0.1c-0.1,0-0.1,0.1-0.1,0.2l0,0.2
			c0.1,0.3,0.1,0.6,0.1,1c0,0.3-0.1,0.6-0.1,1c0,0.3,0,0.6,0,0.8c0,0.3-0.1,0.6-0.1,0.9c-0.1,0.3-0.2,0.4-0.3,0.4
			c-0.2,0-0.3-0.1-0.6-0.2c-0.1-0.3-0.3-0.5-0.4-0.8c-0.1-0.2-0.1-0.5-0.1-0.8c0-0.1,0-0.2,0-0.3c0-0.1,0-0.2,0-0.3
			c0-0.1,0-0.1,0.1-0.1c0,0,0.1-0.1,0.1-0.1l0.2-0.7c0.1-0.3,0.1-0.7,0.2-1c0-0.3,0.1-0.7,0.1-1c0-0.1,0-0.1,0-0.1
			c0,0,0.1-0.1,0.2-0.1c0.1,0,0.3,0,0.4,0c0.1,0.1,0.3,0.2,0.4,0.3c0.1,0.1,0.2,0.1,0.3,0c0.1,0,0.1-0.1,0.1-0.2
			c-0.1-0.3-0.1-0.5-0.1-0.8c0-0.2,0-0.5,0.1-0.8c0-0.1,0-0.2-0.1-0.2c0-0.1-0.1-0.1-0.2-0.1c-0.5-0.3-0.5-0.5-0.1-0.7
			C235.3,78.3,235.7,78.2,235.9,78.1"/>
	</g>
	<g>
		<defs>
			<rect id="SVGID_00000021831164023801042580000013192884214081562502_" x="-278.1" y="-186" width="1207.6" height="858.9"/>
		</defs>
		<clipPath id="SVGID_00000149357845820022101900000006160880941528054663_">
			<use xlink:href="#SVGID_00000021831164023801042580000013192884214081562502_"  style="overflow:visible;"/>
		</clipPath>
		<path id="path3825" style="clip-path:url(#SVGID_00000149357845820022101900000006160880941528054663_);fill:#231F20;" d="
			M250.7,78.3c0-0.2,0-0.3,0.2-0.3c0.1,0,0.2,0.1,0.4,0.2c0.1,0,0.3,0.1,0.4,0.1c0.1,0,0.2,0.1,0.3,0.2c0.3,0.1,0.5,0.2,0.7,0.3
			c0.2,0.1,0.5,0.3,0.8,0.5c0.1,0.1,0.2,0.2,0.2,0.3c0,0.1,0,0.2-0.1,0.4c0,0.1,0,0.2-0.1,0.3c-0.1,0.1-0.1,0.1-0.3,0.1
			c-0.3,0-0.5,0-0.8,0c-0.2,0-0.5,0.1-0.8,0.2c-0.2,0.1-0.4,0.1-0.5,0.2c-0.2,0.1-0.4,0.2-0.5,0.4c-0.2,0.2-0.4,0.3-0.4,0.5
			c-0.1,0.1-0.1,0.3-0.1,0.5c0,0.1,0,0.2,0,0.3c0,0.1,0.1,0.2,0.2,0.3c0.1,0.1,0.1,0.3,0.1,0.4c0,0.1-0.1,0.2-0.3,0.3
			c-0.2,0.1-0.4,0.3-0.5,0.4c-0.1,0.1-0.2,0.3-0.3,0.5c-0.1,0.1-0.1,0.1,0,0.1c0,0,0.1,0,0.2,0.1c0.1,0,0.3,0,0.4-0.1
			c0.1,0,0.2-0.1,0.4-0.1c0.1-0.1,0.1-0.1,0.2-0.2c0,0,0-0.1,0-0.2c0-0.1,0.1-0.2,0.2-0.3c0.1-0.1,0.2-0.1,0.3,0
			c0.1,0,0.2,0,0.3,0.1c0.1,0,0.2,0.1,0.3,0.2c0.1,0.1,0.2,0.1,0.3,0.2c0.1,0.1,0.2,0.2,0.2,0.3c0.2,0.2,0.3,0.4,0.3,0.5
			c0.1,0.2,0.1,0.3,0,0.6c0,0.1,0,0.2-0.1,0.2c-0.1,0-0.2,0.1-0.2,0l-0.7-0.2c-0.1,0-0.2-0.1-0.3-0.2c-0.1-0.1-0.1-0.1-0.2-0.2
			c-0.4,0.1-0.8,0.1-1.1,0.2c-0.3,0.1-0.7,0.2-1.1,0.3c-0.2,0-0.4,0-0.7,0.1s-0.4,0.2-0.6,0.3c-0.2,0.1-0.3,0-0.5-0.1
			s-0.3-0.3-0.3-0.4c0-0.1,0-0.2-0.1-0.3c0-0.1-0.1-0.2-0.2-0.3c-0.1-0.1-0.1-0.2,0-0.3c0-0.1,0.1-0.2,0.2-0.3
			c0.1-0.1,0.2-0.2,0.3-0.2c0.1-0.1,0.2-0.2,0.2-0.3c0.1-0.1,0.2-0.2,0.3-0.2c0.1,0,0.2-0.1,0.3-0.2c0.2-0.2,0.4-0.4,0.6-0.6
			c0.2-0.2,0.3-0.4,0.4-0.6c0.1-0.1,0.1-0.2,0.2-0.4c0.1-0.1,0.2-0.3,0.3-0.4c0.1-0.1,0.2-0.2,0.2-0.2c0.1-0.1,0.2-0.1,0.2-0.1
			c0.2,0,0.3-0.1,0.4-0.1c0.1-0.1,0.3-0.2,0.4-0.3l1.1-0.8c0.1-0.1,0.2-0.2,0.2-0.3c0-0.1-0.1-0.2-0.1-0.3c-0.2-0.3-0.4-0.5-0.5-0.7
			C250.8,78.8,250.7,78.6,250.7,78.3 M247.1,78.6L247.1,78.6c0.2,0,0.3,0,0.4-0.1c0.1,0,0.2,0,0.3,0.2c0.3,0.2,0.5,0.5,0.6,0.7
			c0.1,0.2,0,0.5-0.3,0.8l-0.5,0.4c-0.4,0.5-0.8,1.1-1.2,1.6c-0.4,0.5-0.9,1-1.4,1.5c-0.1,0-0.2,0.1-0.2,0.1c-0.1,0-0.2,0.1-0.2,0.1
			c-0.3-0.2-0.5-0.4-0.6-0.8c-0.1-0.4-0.1-0.7,0-0.9l0.3,0c0.4-0.4,0.7-0.7,0.9-1.1c0.2-0.4,0.5-0.7,0.8-1.1
			c0.2-0.2,0.3-0.4,0.4-0.5c0.1-0.2,0.2-0.4,0.3-0.5c0.1-0.1,0.1-0.2,0.2-0.2C246.9,78.6,247,78.6,247.1,78.6"/>
	</g>
	<g>
		<defs>
			<rect id="SVGID_00000171690368476457219930000007785110728611451056_" x="-278.1" y="-186" width="1207.6" height="858.9"/>
		</defs>
		<clipPath id="SVGID_00000135690502705987324930000016088991555737452945_">
			<use xlink:href="#SVGID_00000171690368476457219930000007785110728611451056_"  style="overflow:visible;"/>
		</clipPath>
		<path id="path3827" style="clip-path:url(#SVGID_00000135690502705987324930000016088991555737452945_);fill:#231F20;" d="
			M258.9,82.2L258.9,82.2c-0.1,0-0.2,0.1-0.3,0.1c-0.1,0-0.1,0.1-0.2,0.1l-0.1,0.1c-0.2,0.2-0.4,0.4-0.6,0.6
			c-0.1,0.2-0.2,0.4-0.3,0.7c0,0.1,0,0.1,0,0.2c0.1,0,0.1,0,0.2,0c0.1-0.1,0.2-0.2,0.3-0.2c0.1,0,0.2-0.1,0.4-0.2l0.1-0.1
			c0.1-0.2,0.2-0.4,0.4-0.7C259,82.4,259,82.2,258.9,82.2 M260.7,77.7c0.3-0.1,0.6-0.1,0.9,0c0.3,0.1,0.6,0.1,0.9,0.2
			c0.3,0.1,0.4,0.2,0.5,0.4c0.1,0.2,0.1,0.4,0,0.6c-0.1,0.2-0.1,0.3-0.1,0.5c0,0.2-0.1,0.3-0.1,0.5c0,0.3-0.1,0.6-0.1,0.8
			c0,0.3-0.1,0.6-0.1,0.9c0,0.4,0,0.7,0.1,1.1c0.1,0.3,0.1,0.7,0.2,1.1c0,0.2,0.1,0.5,0.1,0.7c0,0.2,0.1,0.5,0.1,0.7
			c0,0.2,0.1,0.4,0.1,0.6c0,0.2,0,0.4-0.1,0.6c0,0.2-0.1,0.4-0.2,0.5c-0.1,0.1-0.3,0.2-0.5,0.1c-0.1,0-0.2,0-0.3,0
			c-0.1,0-0.2,0-0.3,0l-0.9-0.4c-0.2-0.1-0.4-0.1-0.6-0.2c-0.2-0.1-0.4-0.2-0.6-0.4l-0.3-0.6c-0.2-0.3-0.5-0.6-0.7-0.6
			c-0.3-0.1-0.5-0.1-0.8-0.1c0,0-0.1,0-0.1,0c0,0-0.1,0-0.1,0c-0.1,0-0.1-0.1-0.2-0.1c-0.1-0.1-0.1-0.1-0.2,0
			c-0.1,0-0.1,0.1-0.1,0.1c0,0.1-0.1,0.1-0.1,0.1c-0.1,0-0.2,0-0.3,0c-0.1,0-0.2-0.1-0.3-0.1c-0.1-0.1-0.2-0.2-0.2-0.3
			c0-0.1-0.1-0.2-0.1-0.3c-0.1-0.1-0.1-0.1-0.2-0.2c-0.1-0.1-0.1-0.1-0.1-0.2c0-0.1,0-0.3,0.1-0.4c0.1-0.2,0.1-0.3,0.2-0.4
			c0.1-0.1,0.1-0.2,0.1-0.3c0-0.1,0.1-0.2,0.1-0.3c0.1-0.2,0.3-0.3,0.5-0.4c0.2-0.1,0.4-0.2,0.6-0.3c0.1,0,0.1,0,0.1,0
			c0,0,0,0,0.1,0.1c0,0.1,0,0.1,0,0.2c0,0,0.1,0,0.2,0c0.2-0.1,0.4-0.1,0.6-0.2c0.2,0,0.4-0.1,0.7-0.1c0.2-0.1,0.3-0.1,0.5,0
			c0.2,0,0.4,0.1,0.6,0.2c0.3,0.2,0.4,0.4,0.4,0.6c0,0.3-0.1,0.5-0.3,0.7c-0.1,0.1-0.1,0.2-0.1,0.2c0,0.1,0,0.1,0.1,0.2
			c0.1,0.1,0.2,0.3,0.1,0.4c0,0.1-0.1,0.2-0.3,0.4l-0.7,0.4c-0.1,0.1-0.2,0.1-0.2,0.2c0,0.1,0,0.2,0.1,0.3c0.2,0.3,0.5,0.4,0.8,0.5
			c0.3,0.1,0.6,0.1,0.9,0c0.1,0,0.2,0,0.4,0c0.1,0,0.2,0,0.4-0.1c0.2-0.1,0.3-0.2,0.3-0.3c0-0.1,0-0.2,0-0.4c0-0.5-0.1-1-0.1-1.5
			c0-0.5-0.1-0.9-0.2-1.4l0.2-3c0-0.1,0-0.1,0-0.2c0-0.1,0-0.1-0.1-0.2c-0.3-0.1-0.6-0.1-0.8-0.1c-0.3,0-0.6,0.1-0.8,0.2l-0.4,0.3
			c-0.2,0-0.4,0.1-0.7,0.1c-0.2,0-0.4,0.1-0.6,0.2c-0.2,0-0.4,0-0.5,0c-0.1,0-0.3,0-0.5,0.1c-0.3,0-0.5-0.2-0.6-0.3
			c-0.1-0.2-0.1-0.4,0.1-0.7c0.2,0,0.3,0,0.4-0.1c0.1,0,0.3,0,0.4-0.1c0.3,0,0.7-0.1,1-0.1c0.3,0,0.7-0.1,1-0.1
			c0.2,0,0.3-0.1,0.5-0.2C260.3,77.8,260.5,77.8,260.7,77.7 M260.6,79.7c0.1,0,0.3-0.1,0.4-0.1c0.1,0,0.3,0,0.4,0.1
			c0.1,0.1,0.2,0.1,0.2,0.2c0,0.1-0.1,0.2-0.2,0.2c-0.2,0-0.4,0-0.5,0.1c-0.2,0-0.4,0.1-0.6,0.1c-0.3,0-0.5,0-0.7,0.1
			c-0.2,0-0.5,0.1-0.8,0.2c-0.3,0.1-0.6,0.2-0.9,0.3c-0.3,0.1-0.6,0.3-0.9,0.4c-0.2,0-0.4,0-0.6,0.1c-0.2,0-0.4,0.1-0.6,0.2
			l-0.5,0.2c-0.3,0.1-0.5,0-0.6-0.1c-0.2-0.2-0.2-0.4,0-0.6c0-0.1,0.1-0.1,0.1-0.2c0,0,0.1-0.1,0.2-0.1c0.2-0.1,0.3-0.1,0.3-0.1
			c0.1,0,0.2,0.1,0.3,0.2c0.4,0,0.8,0,1.1,0c0.3-0.1,0.7-0.2,1.1-0.3l1.7-0.5c0.2,0,0.4-0.1,0.5-0.1
			C260.2,79.9,260.4,79.8,260.6,79.7"/>
	</g>
	<g>
		<defs>
			<rect id="SVGID_00000142854794083520087490000002315933434985600440_" x="-278.1" y="-186" width="1207.6" height="858.9"/>
		</defs>
		<clipPath id="SVGID_00000155865092551529399980000010900168641449427620_">
			<use xlink:href="#SVGID_00000142854794083520087490000002315933434985600440_"  style="overflow:visible;"/>
		</clipPath>
		<path id="path3829" style="clip-path:url(#SVGID_00000155865092551529399980000010900168641449427620_);fill:#231F20;" d="
			M127.2,92.4l1.3,0.4c-0.1,0.4-0.2,0.7-0.4,0.9c-0.2,0.2-0.4,0.4-0.7,0.6c-0.3,0.1-0.6,0.2-1.1,0.2c-0.5,0-1-0.1-1.3-0.2
			c-0.3-0.2-0.6-0.4-0.9-0.8c-0.2-0.4-0.4-0.9-0.4-1.5c0-0.8,0.2-1.4,0.6-1.8c0.4-0.4,1-0.6,1.8-0.6c0.6,0,1.1,0.1,1.4,0.4
			c0.3,0.2,0.6,0.6,0.8,1.1l-1.3,0.3c0-0.1-0.1-0.3-0.1-0.3c-0.1-0.1-0.2-0.2-0.3-0.3c-0.1-0.1-0.3-0.1-0.4-0.1
			c-0.3,0-0.6,0.1-0.8,0.4c-0.1,0.2-0.2,0.5-0.2,0.9c0,0.5,0.1,0.9,0.2,1.1c0.2,0.2,0.4,0.3,0.7,0.3c0.3,0,0.5-0.1,0.6-0.2
			C127,92.9,127.1,92.7,127.2,92.4"/>
	</g>
	<g>
		<defs>
			<rect id="SVGID_00000151532325402446068640000006224973855616660120_" x="-278.1" y="-186" width="1207.6" height="858.9"/>
		</defs>
		<clipPath id="SVGID_00000029765633941830978020000004624136061231738767_">
			<use xlink:href="#SVGID_00000151532325402446068640000006224973855616660120_"  style="overflow:visible;"/>
		</clipPath>
		<path id="path3831" style="clip-path:url(#SVGID_00000029765633941830978020000004624136061231738767_);fill:#231F20;" d="
			M129.2,89.6h1.3v1.8c0.2-0.2,0.4-0.3,0.5-0.4c0.2-0.1,0.4-0.1,0.6-0.1c0.4,0,0.6,0.1,0.9,0.3c0.2,0.2,0.3,0.6,0.3,1v2.2h-1.3v-1.9
			c0-0.2,0-0.4-0.1-0.5c-0.1-0.1-0.2-0.1-0.3-0.1c-0.2,0-0.3,0.1-0.4,0.2c-0.1,0.1-0.2,0.3-0.2,0.7v1.7h-1.3V89.6z"/>
	</g>
	<g>
		<defs>
			<rect id="SVGID_00000107573149419242692660000004697529120635796647_" x="-278.1" y="-186" width="1207.6" height="858.9"/>
		</defs>
		<clipPath id="SVGID_00000142868798567137647620000011532182345000811434_">
			<use xlink:href="#SVGID_00000107573149419242692660000004697529120635796647_"  style="overflow:visible;"/>
		</clipPath>
		<path id="path3833" style="clip-path:url(#SVGID_00000142868798567137647620000011532182345000811434_);fill:#231F20;" d="
			M133.9,90.9h1.3v3.5h-1.3V90.9z M133.9,89.6h1.3v0.9h-1.3V89.6z"/>
	</g>
	<g>
		<defs>
			<rect id="SVGID_00000081615750624032347320000010222223018847020699_" x="-278.1" y="-186" width="1207.6" height="858.9"/>
		</defs>
		<clipPath id="SVGID_00000001643268980171357050000013865652410152446603_">
			<use xlink:href="#SVGID_00000081615750624032347320000010222223018847020699_"  style="overflow:visible;"/>
		</clipPath>
		<path id="path3835" style="clip-path:url(#SVGID_00000001643268980171357050000013865652410152446603_);fill:#231F20;" d="
			M136.2,90.9h1.2v0.6c0.2-0.2,0.4-0.4,0.6-0.5c0.2-0.1,0.4-0.1,0.7-0.1c0.4,0,0.7,0.1,0.9,0.3s0.3,0.6,0.3,1v2.2h-1.3v-1.9
			c0-0.2,0-0.4-0.1-0.5c-0.1-0.1-0.2-0.1-0.3-0.1c-0.2,0-0.3,0.1-0.4,0.2c-0.1,0.1-0.2,0.3-0.2,0.7v1.7h-1.3V90.9z"/>
	</g>
	<g>
		<defs>
			<rect id="SVGID_00000127749733267820182180000002365599961590515093_" x="-278.1" y="-186" width="1207.6" height="858.9"/>
		</defs>
		<clipPath id="SVGID_00000058582880027869315630000010155220446320173722_">
			<use xlink:href="#SVGID_00000127749733267820182180000002365599961590515093_"  style="overflow:visible;"/>
		</clipPath>
		<path id="path3837" style="clip-path:url(#SVGID_00000058582880027869315630000010155220446320173722_);fill:#231F20;" d="
			M143.2,92.7c-0.2,0.1-0.4,0.1-0.6,0.2c-0.3,0.1-0.4,0.1-0.5,0.2c-0.1,0.1-0.1,0.2-0.1,0.2c0,0.1,0,0.2,0.1,0.3
			c0.1,0.1,0.2,0.1,0.3,0.1c0.1,0,0.3,0,0.4-0.1c0.1-0.1,0.2-0.2,0.3-0.3c0.1-0.1,0.1-0.2,0.1-0.4V92.7z M142.1,92l-1.3-0.1
			c0-0.2,0.1-0.4,0.2-0.5s0.2-0.2,0.4-0.3c0.1-0.1,0.3-0.1,0.5-0.2c0.2,0,0.4-0.1,0.7-0.1c0.4,0,0.7,0,1,0.1c0.2,0,0.4,0.1,0.6,0.3
			c0.1,0.1,0.2,0.2,0.3,0.4c0.1,0.2,0.1,0.3,0.1,0.5v1.5c0,0.2,0,0.3,0,0.4c0,0.1,0.1,0.2,0.1,0.4h-1.3c-0.1-0.1-0.1-0.2-0.1-0.2
			c0,0,0-0.1,0-0.2c-0.2,0.2-0.3,0.3-0.5,0.4c-0.2,0.1-0.5,0.1-0.8,0.1c-0.4,0-0.7-0.1-0.9-0.3c-0.2-0.2-0.3-0.4-0.3-0.7
			c0-0.3,0.1-0.5,0.2-0.6c0.2-0.2,0.4-0.3,0.9-0.4c0.5-0.1,0.8-0.2,1-0.2c0.1,0,0.3-0.1,0.5-0.2c0-0.2,0-0.3-0.1-0.3
			c-0.1-0.1-0.2-0.1-0.4-0.1c-0.2,0-0.4,0-0.5,0.1C142.2,91.8,142.1,91.9,142.1,92"/>
	</g>
	<g>
		<defs>
			<rect id="SVGID_00000036965338581714386270000004051880556161892485_" x="-278.1" y="-186" width="1207.6" height="858.9"/>
		</defs>
		<clipPath id="SVGID_00000114033907562973839760000005448992287588784296_">
			<use xlink:href="#SVGID_00000036965338581714386270000004051880556161892485_"  style="overflow:visible;"/>
		</clipPath>
		<path id="path3839" style="clip-path:url(#SVGID_00000114033907562973839760000005448992287588784296_);fill:#231F20;" d="
			M150.6,92.5l-0.5-1.7l-0.5,1.7H150.6z M150.9,93.6h-1.7l-0.2,0.8h-1.5l1.8-4.8h1.6l1.8,4.8h-1.6L150.9,93.6z"/>
	</g>
	<g>
		<defs>
			<rect id="SVGID_00000026844632160563000260000002496430960412060043_" x="-278.1" y="-186" width="1207.6" height="858.9"/>
		</defs>
		<clipPath id="SVGID_00000173154230693238287070000014083220421517480074_">
			<use xlink:href="#SVGID_00000026844632160563000260000002496430960412060043_"  style="overflow:visible;"/>
		</clipPath>
		<path id="path3841" style="clip-path:url(#SVGID_00000173154230693238287070000014083220421517480074_);fill:#231F20;" d="
			M155.8,93l1.3,0.1c-0.1,0.3-0.2,0.5-0.3,0.7c-0.2,0.2-0.4,0.3-0.6,0.4c-0.2,0.1-0.6,0.2-0.9,0.2c-0.4,0-0.7,0-0.9-0.1
			c-0.2-0.1-0.5-0.2-0.6-0.3c-0.2-0.2-0.3-0.3-0.4-0.5c-0.1-0.2-0.2-0.5-0.2-0.8c0-0.4,0.1-0.7,0.2-0.9c0.1-0.2,0.2-0.3,0.4-0.5
			c0.2-0.1,0.3-0.2,0.5-0.3c0.3-0.1,0.6-0.2,1-0.2c0.6,0,1,0.1,1.3,0.3c0.3,0.2,0.5,0.5,0.6,0.9l-1.3,0.2c0-0.1-0.1-0.3-0.2-0.3
			c-0.1-0.1-0.2-0.1-0.4-0.1c-0.2,0-0.4,0.1-0.5,0.2c-0.1,0.2-0.2,0.4-0.2,0.7c0,0.3,0.1,0.5,0.2,0.6c0.1,0.1,0.3,0.2,0.5,0.2
			c0.2,0,0.3,0,0.4-0.1C155.7,93.3,155.8,93.2,155.8,93"/>
	</g>
	<g>
		<defs>
			<rect id="SVGID_00000054226199408605822700000011362909302006636436_" x="-278.1" y="-186" width="1207.6" height="858.9"/>
		</defs>
		<clipPath id="SVGID_00000044155060403204567600000007340561501532756353_">
			<use xlink:href="#SVGID_00000054226199408605822700000011362909302006636436_"  style="overflow:visible;"/>
		</clipPath>
		<path id="path3843" style="clip-path:url(#SVGID_00000044155060403204567600000007340561501532756353_);fill:#231F20;" d="
			M160.2,92.7c-0.2,0.1-0.4,0.1-0.6,0.2c-0.3,0.1-0.4,0.1-0.5,0.2c-0.1,0.1-0.1,0.2-0.1,0.2c0,0.1,0,0.2,0.1,0.3
			c0.1,0.1,0.2,0.1,0.3,0.1c0.1,0,0.3,0,0.4-0.1c0.1-0.1,0.2-0.2,0.3-0.3c0.1-0.1,0.1-0.2,0.1-0.4V92.7z M159,92l-1.3-0.1
			c0-0.2,0.1-0.4,0.2-0.5s0.2-0.2,0.4-0.3c0.1-0.1,0.3-0.1,0.5-0.2c0.2,0,0.4-0.1,0.7-0.1c0.4,0,0.7,0,1,0.1c0.2,0,0.4,0.1,0.6,0.3
			c0.1,0.1,0.2,0.2,0.3,0.4c0.1,0.2,0.1,0.3,0.1,0.5v1.5c0,0.2,0,0.3,0,0.4c0,0.1,0.1,0.2,0.1,0.4h-1.3c-0.1-0.1-0.1-0.2-0.1-0.2
			c0,0,0-0.1,0-0.2c-0.2,0.2-0.4,0.3-0.5,0.4c-0.2,0.1-0.5,0.1-0.8,0.1c-0.4,0-0.7-0.1-0.9-0.3c-0.2-0.2-0.3-0.4-0.3-0.7
			c0-0.3,0.1-0.5,0.2-0.6c0.2-0.2,0.4-0.3,0.9-0.4c0.5-0.1,0.8-0.2,1-0.2c0.1,0,0.3-0.1,0.5-0.2c0-0.2,0-0.3-0.1-0.3
			c-0.1-0.1-0.2-0.1-0.4-0.1c-0.2,0-0.4,0-0.5,0.1C159.2,91.8,159.1,91.9,159,92"/>
	</g>
	<g>
		<defs>
			<rect id="SVGID_00000039827815762879668210000013288741249702094748_" x="-278.1" y="-186" width="1207.6" height="858.9"/>
		</defs>
		<clipPath id="SVGID_00000178907420571659922090000008642432938615124408_">
			<use xlink:href="#SVGID_00000039827815762879668210000013288741249702094748_"  style="overflow:visible;"/>
		</clipPath>
		<path id="path3845" style="clip-path:url(#SVGID_00000178907420571659922090000008642432938615124408_);fill:#231F20;" d="
			M164.8,92.6c0-0.3-0.1-0.5-0.2-0.6c-0.1-0.1-0.3-0.2-0.4-0.2c-0.2,0-0.3,0.1-0.4,0.2c-0.1,0.1-0.2,0.3-0.2,0.6
			c0,0.3,0.1,0.5,0.2,0.6c0.1,0.1,0.2,0.2,0.4,0.2c0.2,0,0.3-0.1,0.4-0.2C164.7,93.1,164.8,92.9,164.8,92.6 M166.1,89.6v4.8h-1.2
			v-0.5c-0.2,0.2-0.3,0.4-0.5,0.4c-0.2,0.1-0.4,0.1-0.6,0.1c-0.5,0-0.8-0.2-1.1-0.5c-0.2-0.4-0.4-0.8-0.4-1.3c0-0.6,0.1-1,0.4-1.3
			c0.3-0.3,0.6-0.5,1.1-0.5c0.2,0,0.4,0,0.6,0.1c0.2,0.1,0.3,0.2,0.5,0.3v-1.7H166.1z"/>
	</g>
	<g>
		<defs>
			<rect id="SVGID_00000125575086410712142120000004280594738190518672_" x="-278.1" y="-186" width="1207.6" height="858.9"/>
		</defs>
		<clipPath id="SVGID_00000132805141221602826380000003890804599521138587_">
			<use xlink:href="#SVGID_00000125575086410712142120000004280594738190518672_"  style="overflow:visible;"/>
		</clipPath>
		<path id="path3847" style="clip-path:url(#SVGID_00000132805141221602826380000003890804599521138587_);fill:#231F20;" d="
			M169.6,92.3c0-0.3-0.1-0.4-0.2-0.6c-0.1-0.1-0.3-0.2-0.4-0.2c-0.2,0-0.4,0.1-0.5,0.2c-0.1,0.1-0.1,0.3-0.2,0.5H169.6z M170.9,93
			h-2.7c0,0.2,0.1,0.4,0.2,0.5c0.1,0.2,0.3,0.2,0.5,0.2c0.1,0,0.3,0,0.4-0.1c0.1,0,0.1-0.1,0.2-0.2l1.3,0.1
			c-0.2,0.3-0.4,0.6-0.7,0.7c-0.3,0.2-0.7,0.2-1.2,0.2c-0.5,0-0.8-0.1-1.1-0.2c-0.3-0.1-0.5-0.3-0.7-0.6s-0.3-0.6-0.3-1
			c0-0.5,0.2-1,0.5-1.3c0.3-0.3,0.8-0.5,1.4-0.5c0.5,0,0.9,0.1,1.2,0.2c0.3,0.2,0.5,0.4,0.7,0.7c0.2,0.3,0.2,0.7,0.2,1.1V93z"/>
	</g>
	<g>
		<defs>
			<rect id="SVGID_00000158737196307474966020000016289272220576857520_" x="-278.1" y="-186" width="1207.6" height="858.9"/>
		</defs>
		<clipPath id="SVGID_00000129176096710649468470000005139055739672268444_">
			<use xlink:href="#SVGID_00000158737196307474966020000016289272220576857520_"  style="overflow:visible;"/>
		</clipPath>
		<path id="path3849" style="clip-path:url(#SVGID_00000129176096710649468470000005139055739672268444_);fill:#231F20;" d="
			M171.7,90.9h1.2v0.5c0.2-0.2,0.4-0.4,0.5-0.4c0.2-0.1,0.4-0.1,0.7-0.1c0.3,0,0.5,0,0.7,0.1c0.2,0.1,0.3,0.2,0.4,0.4
			c0.2-0.2,0.4-0.4,0.6-0.5c0.2-0.1,0.4-0.1,0.6-0.1c0.4,0,0.7,0.1,0.9,0.3c0.2,0.2,0.3,0.6,0.3,1v2.2h-1.3v-2c0-0.2,0-0.3-0.1-0.3
			c-0.1-0.1-0.2-0.2-0.3-0.2c-0.2,0-0.3,0.1-0.4,0.2c-0.1,0.1-0.1,0.3-0.1,0.5v1.8H174v-1.9c0-0.2,0-0.3,0-0.3
			c0-0.1-0.1-0.2-0.1-0.2c-0.1-0.1-0.2-0.1-0.2-0.1c-0.2,0-0.3,0.1-0.4,0.2c-0.1,0.1-0.1,0.3-0.1,0.6v1.8h-1.3V90.9z"/>
	</g>
	<g>
		<defs>
			<rect id="SVGID_00000070818522283429036030000012544159686174722485_" x="-278.1" y="-186" width="1207.6" height="858.9"/>
		</defs>
		<clipPath id="SVGID_00000006687779309389642330000006544136060398383773_">
			<use xlink:href="#SVGID_00000070818522283429036030000012544159686174722485_"  style="overflow:visible;"/>
		</clipPath>
		<path id="path3851" style="clip-path:url(#SVGID_00000006687779309389642330000006544136060398383773_);fill:#231F20;" d="
			M178.2,90.9h1.4l0.7,2.3l0.7-2.3h1.3l-1.4,3.7c-0.2,0.4-0.3,0.7-0.5,0.9c-0.2,0.2-0.6,0.3-1.1,0.3c-0.2,0-0.5,0-0.9-0.1l-0.1-0.9
			c0.2,0.1,0.4,0.1,0.6,0.1c0.2,0,0.3,0,0.4-0.1c0.1-0.1,0.2-0.2,0.2-0.4L178.2,90.9z"/>
	</g>
	<g>
		<defs>
			<rect id="SVGID_00000119102415310842425330000011362272393664588693_" x="-278.1" y="-186" width="1207.6" height="858.9"/>
		</defs>
		<clipPath id="SVGID_00000028320753594366871050000014801010881529272465_">
			<use xlink:href="#SVGID_00000119102415310842425330000011362272393664588693_"  style="overflow:visible;"/>
		</clipPath>
		<path id="path3853" style="clip-path:url(#SVGID_00000028320753594366871050000014801010881529272465_);fill:#231F20;" d="
			M186.3,92.6c0,0.3,0.1,0.5,0.2,0.7c0.1,0.1,0.3,0.2,0.5,0.2c0.2,0,0.4-0.1,0.5-0.2c0.1-0.1,0.2-0.4,0.2-0.7c0-0.3-0.1-0.5-0.2-0.7
			c-0.1-0.1-0.3-0.2-0.5-0.2c-0.2,0-0.4,0.1-0.5,0.2C186.4,92.1,186.3,92.3,186.3,92.6 M185,92.6c0-0.5,0.2-1,0.5-1.3
			c0.4-0.3,0.8-0.5,1.5-0.5c0.7,0,1.2,0.2,1.6,0.6c0.3,0.3,0.4,0.7,0.4,1.2c0,0.5-0.2,1-0.5,1.3c-0.4,0.3-0.8,0.5-1.5,0.5
			c-0.6,0-1-0.1-1.4-0.4C185.2,93.7,185,93.2,185,92.6"/>
	</g>
	<g>
		<defs>
			<rect id="SVGID_00000044172701396509615000000005545214805332722105_" x="-278.1" y="-186" width="1207.6" height="858.9"/>
		</defs>
		<clipPath id="SVGID_00000149359930297343414470000007707072040808248228_">
			<use xlink:href="#SVGID_00000044172701396509615000000005545214805332722105_"  style="overflow:visible;"/>
		</clipPath>
		<path id="path3855" style="clip-path:url(#SVGID_00000149359930297343414470000007707072040808248228_);fill:#231F20;" d="
			M191.3,90.9h0.6v1h-0.6v2.5h-1.3v-2.5h-0.5v-1h0.5v-0.2c0-0.1,0-0.3,0-0.5c0-0.2,0.1-0.3,0.2-0.4c0.1-0.1,0.2-0.2,0.4-0.3
			c0.2-0.1,0.4-0.1,0.7-0.1c0.2,0,0.6,0,1,0.1l-0.1,0.8c-0.2,0-0.3,0-0.4,0c-0.1,0-0.2,0-0.3,0.1c-0.1,0-0.1,0.1-0.1,0.2
			C191.3,90.6,191.3,90.7,191.3,90.9"/>
	</g>
	<g>
		<defs>
			<rect id="SVGID_00000073692124944030316490000015527551194844947113_" x="-278.1" y="-186" width="1207.6" height="858.9"/>
		</defs>
		<clipPath id="SVGID_00000153685964888031571710000017330631650814631071_">
			<use xlink:href="#SVGID_00000073692124944030316490000015527551194844947113_"  style="overflow:visible;"/>
		</clipPath>
		<path id="path3857" style="clip-path:url(#SVGID_00000153685964888031571710000017330631650814631071_);fill:#231F20;" d="
			M196.9,93.3h0.8c0.3,0,0.4,0,0.5-0.1s0.2-0.2,0.2-0.4c0-0.1-0.1-0.3-0.2-0.3c-0.1-0.1-0.3-0.1-0.5-0.1h-0.8V93.3z M196.9,91.5h0.6
			c0.2,0,0.4,0,0.5-0.1c0.1-0.1,0.1-0.2,0.1-0.3c0-0.1,0-0.2-0.1-0.3c-0.1-0.1-0.2-0.1-0.5-0.1h-0.7V91.5z M195.4,89.6h2.8
			c0.5,0,0.8,0.1,1.1,0.3c0.2,0.2,0.4,0.5,0.4,0.8c0,0.3-0.1,0.5-0.3,0.7c-0.1,0.1-0.3,0.2-0.5,0.3c0.3,0.1,0.6,0.2,0.8,0.4
			c0.2,0.2,0.2,0.5,0.2,0.8c0,0.2-0.1,0.5-0.2,0.7c-0.1,0.2-0.3,0.4-0.5,0.5c-0.1,0.1-0.3,0.1-0.6,0.2c-0.3,0-0.6,0.1-0.7,0.1h-2.6
			V89.6z"/>
	</g>
	<g>
		<defs>
			<rect id="SVGID_00000149361908230998621990000007886725650536956330_" x="-278.1" y="-186" width="1207.6" height="858.9"/>
		</defs>
		<clipPath id="SVGID_00000085941085948946917400000013019667386414849197_">
			<use xlink:href="#SVGID_00000149361908230998621990000007886725650536956330_"  style="overflow:visible;"/>
		</clipPath>
		<path id="path3859" style="clip-path:url(#SVGID_00000085941085948946917400000013019667386414849197_);fill:#231F20;" d="
			M204.3,94.4h-1.2v-0.6c-0.2,0.2-0.4,0.4-0.6,0.5c-0.2,0.1-0.4,0.1-0.7,0.1c-0.4,0-0.7-0.1-0.9-0.3c-0.2-0.2-0.3-0.6-0.3-1v-2.2
			h1.3v1.9c0,0.2,0,0.4,0.1,0.5c0.1,0.1,0.2,0.1,0.3,0.1c0.2,0,0.3-0.1,0.4-0.2c0.1-0.1,0.2-0.3,0.2-0.7v-1.7h1.3V94.4z"/>
	</g>
	<g>
		<defs>
			<rect id="SVGID_00000036229183488195042470000007699597343332120991_" x="-278.1" y="-186" width="1207.6" height="858.9"/>
		</defs>
		<clipPath id="SVGID_00000150802250302695459310000015282132201506722204_">
			<use xlink:href="#SVGID_00000036229183488195042470000007699597343332120991_"  style="overflow:visible;"/>
		</clipPath>
		<path id="path3861" style="clip-path:url(#SVGID_00000150802250302695459310000015282132201506722204_);fill:#231F20;" d="
			M205.3,90.9h1.3v3.5h-1.3V90.9z M205.3,89.6h1.3v0.9h-1.3V89.6z"/>
	</g>
	<g>
		<defs>
			<rect id="SVGID_00000029031242942028911650000015829670977323825282_" x="-278.1" y="-186" width="1207.6" height="858.9"/>
		</defs>
		<clipPath id="SVGID_00000175308741209124319260000002383290039390819210_">
			<use xlink:href="#SVGID_00000029031242942028911650000015829670977323825282_"  style="overflow:visible;"/>
		</clipPath>
		<path id="path3863" style="clip-path:url(#SVGID_00000175308741209124319260000002383290039390819210_);fill:#231F20;" d="
			M207.7,89.6h1.3v4.8h-1.3V89.6z"/>
	</g>
	<g>
		<defs>
			<rect id="SVGID_00000142154889003353820970000006465943058224434321_" x="-278.1" y="-186" width="1207.6" height="858.9"/>
		</defs>
		<clipPath id="SVGID_00000060014754135499637790000015887225477432440500_">
			<use xlink:href="#SVGID_00000142154889003353820970000006465943058224434321_"  style="overflow:visible;"/>
		</clipPath>
		<path id="path3865" style="clip-path:url(#SVGID_00000060014754135499637790000015887225477432440500_);fill:#231F20;" d="
			M212.3,92.6c0-0.3-0.1-0.5-0.2-0.6c-0.1-0.1-0.3-0.2-0.4-0.2c-0.2,0-0.3,0.1-0.4,0.2c-0.1,0.1-0.2,0.3-0.2,0.6
			c0,0.3,0.1,0.5,0.2,0.6c0.1,0.1,0.2,0.2,0.4,0.2c0.2,0,0.3-0.1,0.4-0.2C212.3,93.1,212.3,92.9,212.3,92.6 M213.7,89.6v4.8h-1.3
			v-0.5c-0.2,0.2-0.3,0.4-0.5,0.4c-0.2,0.1-0.4,0.1-0.6,0.1c-0.5,0-0.8-0.2-1.1-0.5c-0.2-0.4-0.4-0.8-0.4-1.3c0-0.6,0.1-1,0.4-1.3
			c0.3-0.3,0.6-0.5,1.1-0.5c0.2,0,0.4,0,0.6,0.1c0.2,0.1,0.3,0.2,0.5,0.3v-1.7H213.7z"/>
	</g>
	<g>
		<defs>
			<rect id="SVGID_00000094606010834601426900000003975139046188124579_" x="-278.1" y="-186" width="1207.6" height="858.9"/>
		</defs>
		<clipPath id="SVGID_00000094614495311929123200000002162853915056836230_">
			<use xlink:href="#SVGID_00000094606010834601426900000003975139046188124579_"  style="overflow:visible;"/>
		</clipPath>
		<path id="path3867" style="clip-path:url(#SVGID_00000094614495311929123200000002162853915056836230_);fill:#231F20;" d="
			M214.7,90.9h1.3v3.5h-1.3V90.9z M214.7,89.6h1.3v0.9h-1.3V89.6z"/>
	</g>
	<g>
		<defs>
			<rect id="SVGID_00000034805687312474577000000003513125775672267662_" x="-278.1" y="-186" width="1207.6" height="858.9"/>
		</defs>
		<clipPath id="SVGID_00000038376629409035148040000002438393584683889596_">
			<use xlink:href="#SVGID_00000034805687312474577000000003513125775672267662_"  style="overflow:visible;"/>
		</clipPath>
		<path id="path3869" style="clip-path:url(#SVGID_00000038376629409035148040000002438393584683889596_);fill:#231F20;" d="
			M217,90.9h1.2v0.6c0.2-0.2,0.4-0.4,0.6-0.5c0.2-0.1,0.4-0.1,0.7-0.1c0.4,0,0.7,0.1,0.9,0.3s0.3,0.6,0.3,1v2.2h-1.3v-1.9
			c0-0.2,0-0.4-0.1-0.5c-0.1-0.1-0.2-0.1-0.3-0.1c-0.2,0-0.3,0.1-0.4,0.2c-0.1,0.1-0.2,0.3-0.2,0.7v1.7H217V90.9z"/>
	</g>
	<g>
		<defs>
			<rect id="SVGID_00000131358316746999206690000000093716480044929978_" x="-278.1" y="-186" width="1207.6" height="858.9"/>
		</defs>
		<clipPath id="SVGID_00000047023684021879495920000018103426417105553321_">
			<use xlink:href="#SVGID_00000131358316746999206690000000093716480044929978_"  style="overflow:visible;"/>
		</clipPath>
		<path id="path3871" style="clip-path:url(#SVGID_00000047023684021879495920000018103426417105553321_);fill:#231F20;" d="
			M222.8,92.6c0,0.2,0.1,0.4,0.2,0.6c0.1,0.1,0.2,0.2,0.4,0.2c0.2,0,0.3-0.1,0.4-0.2c0.1-0.1,0.2-0.3,0.2-0.6s-0.1-0.4-0.2-0.6
			c-0.1-0.1-0.3-0.2-0.4-0.2c-0.2,0-0.3,0.1-0.4,0.2C222.8,92.1,222.8,92.3,222.8,92.6 M224,90.9h1.2v3.3l0,0.2c0,0.2,0,0.4-0.1,0.6
			c-0.1,0.2-0.2,0.4-0.4,0.5c-0.2,0.1-0.4,0.2-0.6,0.3c-0.2,0.1-0.5,0.1-0.8,0.1c-0.7,0-1.2-0.1-1.4-0.3c-0.3-0.2-0.4-0.5-0.4-0.8
			c0,0,0-0.1,0-0.2l1.3,0.1c0,0.1,0.1,0.2,0.2,0.2c0.1,0.1,0.2,0.1,0.4,0.1c0.2,0,0.3-0.1,0.4-0.2c0.1-0.1,0.1-0.3,0.1-0.5v-0.5
			c-0.1,0.2-0.3,0.3-0.4,0.3c-0.2,0.1-0.4,0.2-0.7,0.2c-0.5,0-0.8-0.2-1.1-0.6c-0.2-0.3-0.3-0.7-0.3-1.1c0-0.5,0.1-0.9,0.4-1.2
			c0.3-0.3,0.6-0.4,1-0.4c0.3,0,0.5,0,0.7,0.1c0.2,0.1,0.3,0.2,0.5,0.5V90.9z"/>
	</g>
	<g>
		<defs>
			<rect id="SVGID_00000163751007403719208390000003208982717264216479_" x="-278.1" y="-186" width="1207.6" height="858.9"/>
		</defs>
		<clipPath id="SVGID_00000139280274834064285970000016447190831680662443_">
			<use xlink:href="#SVGID_00000163751007403719208390000003208982717264216479_"  style="overflow:visible;"/>
		</clipPath>
		<path id="path3873" style="clip-path:url(#SVGID_00000139280274834064285970000016447190831680662443_);fill:#231F20;" d="
			M230.2,91.5h0.6c0.1,0,0.2,0,0.4-0.1c0.1,0,0.2-0.1,0.2-0.2c0.1-0.1,0.1-0.2,0.1-0.3c0-0.2-0.1-0.3-0.1-0.4
			c-0.1-0.1-0.3-0.1-0.6-0.1h-0.7V91.5z M228.7,94.4v-4.8h2.5c0.5,0,0.8,0,1.1,0.1c0.2,0.1,0.4,0.2,0.6,0.4c0.1,0.2,0.2,0.5,0.2,0.8
			c0,0.3-0.1,0.5-0.2,0.7c-0.1,0.2-0.3,0.3-0.5,0.5c-0.1,0.1-0.3,0.1-0.5,0.2c0.2,0.1,0.3,0.1,0.4,0.2c0.1,0,0.1,0.1,0.2,0.3
			s0.2,0.2,0.2,0.3l0.7,1.4h-1.7l-0.8-1.5c-0.1-0.2-0.2-0.3-0.3-0.4c-0.1-0.1-0.2-0.1-0.4-0.1h-0.1v1.9H228.7z"/>
	</g>
	<g>
		<defs>
			<rect id="SVGID_00000018957915966004618970000005642047692451981442_" x="-278.1" y="-186" width="1207.6" height="858.9"/>
		</defs>
		<clipPath id="SVGID_00000145774740863292990660000000711786725933778849_">
			<use xlink:href="#SVGID_00000018957915966004618970000005642047692451981442_"  style="overflow:visible;"/>
		</clipPath>
		<path id="path3875" style="clip-path:url(#SVGID_00000145774740863292990660000000711786725933778849_);fill:#231F20;" d="
			M236.3,92.3c0-0.3-0.1-0.4-0.2-0.6c-0.1-0.1-0.3-0.2-0.4-0.2c-0.2,0-0.4,0.1-0.5,0.2c-0.1,0.1-0.1,0.3-0.2,0.5H236.3z M237.7,93
			H235c0,0.2,0.1,0.4,0.2,0.5c0.1,0.2,0.3,0.2,0.5,0.2c0.1,0,0.3,0,0.4-0.1c0.1,0,0.1-0.1,0.2-0.2l1.3,0.1c-0.2,0.3-0.4,0.6-0.7,0.7
			c-0.3,0.2-0.7,0.2-1.2,0.2c-0.5,0-0.8-0.1-1.1-0.2c-0.3-0.1-0.5-0.3-0.7-0.6s-0.3-0.6-0.3-1c0-0.5,0.2-1,0.5-1.3
			c0.3-0.3,0.8-0.5,1.4-0.5c0.5,0,0.9,0.1,1.2,0.2c0.3,0.2,0.5,0.4,0.7,0.7c0.2,0.3,0.2,0.7,0.2,1.1V93z"/>
	</g>
	<g>
		<defs>
			<rect id="SVGID_00000062170753210145389840000005544080084834118062_" x="-278.1" y="-186" width="1207.6" height="858.9"/>
		</defs>
		<clipPath id="SVGID_00000179630878282658386190000009823045070213133234_">
			<use xlink:href="#SVGID_00000062170753210145389840000005544080084834118062_"  style="overflow:visible;"/>
		</clipPath>
		<path id="path3877" style="clip-path:url(#SVGID_00000179630878282658386190000009823045070213133234_);fill:#231F20;" d="
			M238.2,93.4l1.3-0.1c0.1,0.2,0.1,0.3,0.2,0.3c0.1,0.1,0.2,0.1,0.4,0.1c0.2,0,0.3,0,0.4-0.1c0.1-0.1,0.1-0.1,0.1-0.2
			c0-0.1-0.1-0.2-0.2-0.2c-0.1,0-0.3-0.1-0.6-0.1c-0.5-0.1-0.8-0.2-1-0.2c-0.2-0.1-0.3-0.2-0.5-0.3c-0.1-0.2-0.2-0.3-0.2-0.6
			c0-0.2,0.1-0.4,0.2-0.6c0.1-0.2,0.3-0.3,0.6-0.4c0.2-0.1,0.5-0.1,0.9-0.1c0.4,0,0.7,0,0.9,0.1c0.2,0.1,0.4,0.2,0.5,0.3
			c0.1,0.1,0.2,0.3,0.3,0.5l-1.3,0.1c0-0.1-0.1-0.2-0.2-0.2c-0.1-0.1-0.2-0.1-0.4-0.1c-0.2,0-0.3,0-0.3,0.1s-0.1,0.1-0.1,0.2
			c0,0.1,0,0.1,0.1,0.2c0.1,0,0.3,0.1,0.6,0.1c0.4,0,0.8,0.1,1,0.2c0.2,0.1,0.4,0.2,0.5,0.4c0.1,0.2,0.2,0.3,0.2,0.5
			c0,0.2-0.1,0.4-0.2,0.6c-0.1,0.2-0.3,0.3-0.6,0.5s-0.6,0.2-1.1,0.2c-0.6,0-1.1-0.1-1.4-0.3C238.4,94,238.3,93.7,238.2,93.4"/>
	</g>
	<g>
		<defs>
			<rect id="SVGID_00000022550730813346660840000003747169952552678308_" x="-278.1" y="-186" width="1207.6" height="858.9"/>
		</defs>
		<clipPath id="SVGID_00000160911936377220874440000005617258556291571108_">
			<use xlink:href="#SVGID_00000022550730813346660840000003747169952552678308_"  style="overflow:visible;"/>
		</clipPath>
		<path id="path3879" style="clip-path:url(#SVGID_00000160911936377220874440000005617258556291571108_);fill:#231F20;" d="
			M245.2,92.3c0-0.3-0.1-0.4-0.2-0.6c-0.1-0.1-0.3-0.2-0.4-0.2c-0.2,0-0.4,0.1-0.5,0.2c-0.1,0.1-0.1,0.3-0.2,0.5H245.2z M246.5,93
			h-2.7c0,0.2,0.1,0.4,0.2,0.5c0.1,0.2,0.3,0.2,0.5,0.2c0.1,0,0.3,0,0.4-0.1c0.1,0,0.2-0.1,0.2-0.2l1.3,0.1
			c-0.2,0.3-0.4,0.6-0.7,0.7c-0.3,0.2-0.7,0.2-1.2,0.2c-0.5,0-0.8-0.1-1.1-0.2c-0.3-0.1-0.5-0.3-0.7-0.6c-0.2-0.3-0.3-0.6-0.3-1
			c0-0.5,0.2-1,0.5-1.3c0.3-0.3,0.8-0.5,1.4-0.5c0.5,0,0.9,0.1,1.2,0.2c0.3,0.2,0.5,0.4,0.7,0.7c0.2,0.3,0.2,0.7,0.2,1.1V93z"/>
	</g>
	<g>
		<defs>
			<rect id="SVGID_00000158005654280768473950000017436625400946347159_" x="-278.1" y="-186" width="1207.6" height="858.9"/>
		</defs>
		<clipPath id="SVGID_00000142858953157759397760000009158106846817930630_">
			<use xlink:href="#SVGID_00000158005654280768473950000017436625400946347159_"  style="overflow:visible;"/>
		</clipPath>
		<path id="path3881" style="clip-path:url(#SVGID_00000142858953157759397760000009158106846817930630_);fill:#231F20;" d="
			M249.7,92.7c-0.2,0.1-0.4,0.1-0.6,0.2c-0.3,0.1-0.4,0.1-0.5,0.2c-0.1,0.1-0.1,0.2-0.1,0.2c0,0.1,0,0.2,0.1,0.3
			c0.1,0.1,0.2,0.1,0.3,0.1c0.1,0,0.3,0,0.4-0.1c0.1-0.1,0.2-0.2,0.3-0.3c0.1-0.1,0.1-0.2,0.1-0.4V92.7z M248.5,92l-1.3-0.1
			c0-0.2,0.1-0.4,0.2-0.5c0.1-0.1,0.2-0.2,0.4-0.3c0.1-0.1,0.3-0.1,0.5-0.2c0.2,0,0.4-0.1,0.7-0.1c0.4,0,0.7,0,1,0.1
			c0.2,0,0.4,0.1,0.6,0.3c0.1,0.1,0.2,0.2,0.3,0.4c0.1,0.2,0.1,0.3,0.1,0.5v1.5c0,0.2,0,0.3,0,0.4c0,0.1,0.1,0.2,0.1,0.4h-1.3
			c-0.1-0.1-0.1-0.2-0.1-0.2c0,0,0-0.1,0-0.2c-0.2,0.2-0.3,0.3-0.5,0.4c-0.2,0.1-0.5,0.1-0.8,0.1c-0.4,0-0.7-0.1-0.9-0.3
			c-0.2-0.2-0.3-0.4-0.3-0.7c0-0.3,0.1-0.5,0.2-0.6c0.2-0.2,0.4-0.3,0.9-0.4c0.5-0.1,0.8-0.2,1-0.2c0.1,0,0.3-0.1,0.5-0.2
			c0-0.2,0-0.3-0.1-0.3c-0.1-0.1-0.2-0.1-0.4-0.1c-0.2,0-0.4,0-0.5,0.1C248.6,91.8,248.6,91.9,248.5,92"/>
	</g>
	<g>
		<defs>
			<rect id="SVGID_00000093136496829656741760000004511720479054307463_" x="-278.1" y="-186" width="1207.6" height="858.9"/>
		</defs>
		<clipPath id="SVGID_00000137812491641487171770000013270033268808661908_">
			<use xlink:href="#SVGID_00000093136496829656741760000004511720479054307463_"  style="overflow:visible;"/>
		</clipPath>
		<path id="path3883" style="clip-path:url(#SVGID_00000137812491641487171770000013270033268808661908_);fill:#231F20;" d="
			M251.9,90.9h1.2v0.6c0.1-0.2,0.2-0.4,0.4-0.5c0.1-0.1,0.3-0.1,0.5-0.1c0.2,0,0.4,0.1,0.6,0.2l-0.4,0.9c-0.2-0.1-0.3-0.1-0.4-0.1
			c-0.2,0-0.3,0.1-0.4,0.2c-0.1,0.2-0.2,0.6-0.2,1.1v1.2h-1.3V90.9z"/>
	</g>
	<g>
		<defs>
			<rect id="SVGID_00000029040022164514844240000011228435959940530849_" x="-278.1" y="-186" width="1207.6" height="858.9"/>
		</defs>
		<clipPath id="SVGID_00000114786114188191815570000017570003286730147460_">
			<use xlink:href="#SVGID_00000029040022164514844240000011228435959940530849_"  style="overflow:visible;"/>
		</clipPath>
		<path id="path3885" style="clip-path:url(#SVGID_00000114786114188191815570000017570003286730147460_);fill:#231F20;" d="
			M257.7,93l1.3,0.1c-0.1,0.3-0.2,0.5-0.3,0.7c-0.2,0.2-0.4,0.3-0.6,0.4c-0.2,0.1-0.6,0.2-0.9,0.2c-0.4,0-0.7,0-0.9-0.1
			c-0.2-0.1-0.5-0.2-0.6-0.3c-0.2-0.2-0.3-0.3-0.4-0.5c-0.1-0.2-0.2-0.5-0.2-0.8c0-0.4,0.1-0.7,0.2-0.9c0.1-0.2,0.2-0.3,0.4-0.5
			c0.2-0.1,0.3-0.2,0.5-0.3c0.3-0.1,0.6-0.2,1-0.2c0.6,0,1,0.1,1.3,0.3c0.3,0.2,0.5,0.5,0.6,0.9l-1.3,0.2c0-0.1-0.1-0.3-0.2-0.3
			c-0.1-0.1-0.2-0.1-0.4-0.1c-0.2,0-0.4,0.1-0.5,0.2c-0.1,0.2-0.2,0.4-0.2,0.7c0,0.3,0.1,0.5,0.2,0.6c0.1,0.1,0.3,0.2,0.5,0.2
			c0.2,0,0.3,0,0.4-0.1C257.6,93.3,257.7,93.2,257.7,93"/>
	</g>
	<g>
		<defs>
			<rect id="SVGID_00000178189749593308115590000009218228551729219743_" x="-278.1" y="-186" width="1207.6" height="858.9"/>
		</defs>
		<clipPath id="SVGID_00000060731451354314049490000006199044530438803900_">
			<use xlink:href="#SVGID_00000178189749593308115590000009218228551729219743_"  style="overflow:visible;"/>
		</clipPath>
		<path id="path3887" style="clip-path:url(#SVGID_00000060731451354314049490000006199044530438803900_);fill:#231F20;" d="
			M259.6,89.6h1.3v1.8c0.2-0.2,0.4-0.3,0.5-0.4c0.2-0.1,0.4-0.1,0.6-0.1c0.4,0,0.6,0.1,0.9,0.3c0.2,0.2,0.3,0.6,0.3,1v2.2H262v-1.9
			c0-0.2,0-0.4-0.1-0.5c-0.1-0.1-0.2-0.1-0.3-0.1c-0.2,0-0.3,0.1-0.4,0.2c-0.1,0.1-0.2,0.3-0.2,0.7v1.7h-1.3V89.6z"/>
	</g>
</g>
</svg>
