<?xml version="1.0" encoding="utf-8"?>
<!-- Generator: Adobe Illustrator 28.0.0, SVG Export Plug-In . SVG Version: 6.00 Build 0)  -->
<svg version="1.1" id="svg1" xmlns:svg="http://www.w3.org/2000/svg"
	 xmlns="http://www.w3.org/2000/svg" xmlns:xlink="http://www.w3.org/1999/xlink" x="0px" y="0px" viewBox="0 0 82.6 24.1"
	 style="enable-background:new 0 0 82.6 24.1;" xml:space="preserve">
<style type="text/css">
	.st0{clip-path:url(#SVGID_00000067944905052144125770000007066752563755115669_);fill:#0E0F0F;}
	.st1{clip-path:url(#SVGID_00000023278426286845643590000003527528023515636133_);fill:#221B19;}
	.st2{clip-path:url(#SVGID_00000112610398240943797930000009313624438833303201_);fill:#221B19;}
	.st3{clip-path:url(#SVGID_00000124858991344350863310000013965759873265116326_);fill:#221B19;}
	.st4{clip-path:url(#SVGID_00000039095621690307243800000002358698488654151561_);fill:#221B19;}
	.st5{clip-path:url(#SVGID_00000015342376542906752300000001794566270843827391_);fill:#221B19;}
</style>
<g id="layer1" transform="translate(-123.14604,-111.75131)">
	<g>
		<defs>
			<rect id="SVGID_1_" x="-244.8" y="-401.8" width="1207.6" height="858.9"/>
		</defs>
		<clipPath id="SVGID_00000103249883935615896680000014476463701234378880_">
			<use xlink:href="#SVGID_1_"  style="overflow:visible;"/>
		</clipPath>
		<path id="path990" style="clip-path:url(#SVGID_00000103249883935615896680000014476463701234378880_);fill:#0E0F0F;" d="
			M124,113.7v11.8h10.7v-1.3h-9v-10.5H124z M131.7,117.9h1.2l2.2-4.2h-1.8L131.7,117.9z M150.1,119.2c0-3.2-2.6-6-6-6
			c-3.6,0-6.2,2.8-6.2,6c0,3.2,2.7,5.9,6,5.9C147.2,125.1,150.1,122.4,150.1,119.2 M152,119.2c0,4.3-3.6,7.3-8,7.3c-4.4,0-8-3-8-7.3
			c0-4.1,3.3-7.5,8-7.5C148.7,111.8,152,115.1,152,119.2 M162.8,120.6c1.1,1.6,3.6,4.9,3.6,4.9h-2.1l-3.6-4.9h-4.8v4.9h-1.7v-11.8
			h7.4c2.6,0,4,1.3,4.1,3.4C165.7,117.9,165.5,119.9,162.8,120.6 M161.4,119.2c0.9,0,1.8-0.2,2.3-1c0.3-0.5,0.4-1.2,0.2-1.7
			c-0.3-0.8-1-1.4-2.3-1.4h-5.7v4.1H161.4 M188.2,113.7l6,11.8h-2l-1.5-3.1h-7.2l-1.5,3.1h-2l6-11.8H188.2z M189.9,121l-2.9-5.6
			l-2.8,5.6H189.9z M195.1,113.7v11.8h10.7v-1.3h-9v-10.5H195.1z M174,111.8l-1.4,1.6l4.5-1.6H174z M168.5,113.7H179v1.3h-8.7v3.8
			h6.6v1.3h-6.6v4.1h8.7v1.3h-10.5V113.7z"/>
	</g>
	<g>
		<defs>
			<rect id="SVGID_00000106848590302018943450000016081906877186961538_" x="-244.8" y="-401.8" width="1207.6" height="858.9"/>
		</defs>
		<clipPath id="SVGID_00000086681512732506221290000017711823406666052788_">
			<use xlink:href="#SVGID_00000106848590302018943450000016081906877186961538_"  style="overflow:visible;"/>
		</clipPath>
		<path id="path992" style="clip-path:url(#SVGID_00000086681512732506221290000017711823406666052788_);fill:#221B19;" d="
			M124.1,130.9c1-0.8,2.4-0.8,3.5-0.2c0,0.1-0.1,0.2-0.2,0.3c-1-0.6-2.4-0.6-3.3,0.3c-0.9,1-0.8,2.7,0.1,3.6
			c0.9,0.7,2.2,0.8,3.1,0.2c0,0.1,0.1,0.2,0.2,0.3c-1,0.6-2.4,0.6-3.4-0.1C122.8,134.3,122.8,132,124.1,130.9"/>
	</g>
	<g>
		<defs>
			<rect id="SVGID_00000085945181621716273300000013449158483850116541_" x="-244.8" y="-401.8" width="1207.6" height="858.9"/>
		</defs>
		<clipPath id="SVGID_00000181072276049567084140000008079027724065243283_">
			<use xlink:href="#SVGID_00000085945181621716273300000013449158483850116541_"  style="overflow:visible;"/>
		</clipPath>
		<path id="path994" style="clip-path:url(#SVGID_00000181072276049567084140000008079027724065243283_);fill:#221B19;" d="
			M128.7,130.5h0.4c0,0.8,0,1.6,0,2.4c1.2,0,2.4,0,3.6,0c0-0.8,0-1.6,0-2.4c0.1,0,0.3,0,0.4,0c0,1.7,0,3.5,0,5.2h-0.4
			c0-0.8,0-1.7,0-2.5c-1.2,0-2.4,0-3.6,0c0,0.8,0,1.7,0,2.5h-0.4C128.7,134,128.7,132.2,128.7,130.5"/>
	</g>
	<g>
		<defs>
			<rect id="SVGID_00000028306544995222724920000016982231974326922668_" x="-244.8" y="-401.8" width="1207.6" height="858.9"/>
		</defs>
		<clipPath id="SVGID_00000047022583579113909070000010080581498448167301_">
			<use xlink:href="#SVGID_00000028306544995222724920000016982231974326922668_"  style="overflow:visible;"/>
		</clipPath>
		<path id="path996" style="clip-path:url(#SVGID_00000047022583579113909070000010080581498448167301_);fill:#221B19;" d="
			M134.7,130.5c0.1,0,0.3,0,0.4,0c0,1.7,0,3.5,0,5.2h-0.4C134.7,134,134.7,132.2,134.7,130.5"/>
	</g>
	<g>
		<defs>
			<rect id="SVGID_00000168115572626782132050000006974445055496142723_" x="-244.8" y="-401.8" width="1207.6" height="858.9"/>
		</defs>
		<clipPath id="SVGID_00000183965854170842204080000012402264856857060488_">
			<use xlink:href="#SVGID_00000168115572626782132050000006974445055496142723_"  style="overflow:visible;"/>
		</clipPath>
		<path id="path998" style="clip-path:url(#SVGID_00000183965854170842204080000012402264856857060488_);fill:#221B19;" d="
			M136.6,130.4c0.2,0,0.3,0.1,0.4,0.3c1.1,1.4,2.3,2.9,3.4,4.3c0-1.5,0-3,0-4.6h0.4c0,1.8,0,3.5,0,5.3c-0.2,0-0.3-0.1-0.4-0.2
			c-1.2-1.5-2.3-2.9-3.5-4.4c0,1.5,0,3,0,4.6h-0.4C136.6,133.9,136.6,132.2,136.6,130.4"/>
	</g>
	<g>
		<defs>
			<rect id="SVGID_00000085247289900716087600000002530910351571085238_" x="-244.8" y="-401.8" width="1207.6" height="858.9"/>
		</defs>
		<clipPath id="SVGID_00000080897277674525959250000004065795242385225861_">
			<use xlink:href="#SVGID_00000085247289900716087600000002530910351571085238_"  style="overflow:visible;"/>
		</clipPath>
		<path id="path1000" style="clip-path:url(#SVGID_00000080897277674525959250000004065795242385225861_);fill:#221B19;" d="
			M144.2,130.9c-0.4,1-0.9,2.1-1.3,3.1c0.9,0,1.8,0,2.7,0C145,133,144.6,132,144.2,130.9 M141.8,135.7c0.7-1.7,1.5-3.5,2.2-5.2
			c0.1,0,0.2,0,0.3,0c0.8,1.7,1.5,3.5,2.2,5.3c-0.1,0-0.3,0-0.4,0c-0.2-0.4-0.4-0.9-0.5-1.3c-1,0-2,0-2.9,0
			c-0.2,0.4-0.4,0.9-0.5,1.3C142.1,135.7,141.9,135.7,141.8,135.7"/>
	</g>
</g>
</svg>
