<?xml version="1.0" encoding="utf-8"?>
<!-- Generator: Adobe Illustrator 28.0.0, SVG Export Plug-In . SVG Version: 6.00 Build 0)  -->
<svg version="1.1" id="svg1" xmlns:svg="http://www.w3.org/2000/svg"
	 xmlns="http://www.w3.org/2000/svg" xmlns:xlink="http://www.w3.org/1999/xlink" x="0px" y="0px" viewBox="0 0 38.1 39.1"
	 style="enable-background:new 0 0 38.1 39.1;" xml:space="preserve">
<style type="text/css">
	
		.st0{clip-path:url(#SVGID_00000006689392873347524490000000342127719686432432_);fill-rule:evenodd;clip-rule:evenodd;fill:#28458B;}
</style>
<g id="layer1" transform="translate(-21.20212,-196.49439)">
	<g>
		<defs>
			<rect id="SVGID_1_" x="-57.7" y="-557.2" width="1207.6" height="858.9"/>
		</defs>
		<clipPath id="SVGID_00000052076261688161506800000002678085742857559688_">
			<use xlink:href="#SVGID_1_"  style="overflow:visible;"/>
		</clipPath>
		
			<path id="path3507" style="clip-path:url(#SVGID_00000052076261688161506800000002678085742857559688_);fill-rule:evenodd;clip-rule:evenodd;fill:#28458B;" d="
			M52.4,219.6c-0.1,0.5-0.3,1-0.5,1.5c-0.3,0.1-3,1.3-5.9,1.1c-3.1-0.2-5.5-1.6-5.5-1.6s-2-1.1-4.5-1.1c-2.3,0-4.9,0.7-6.9,2.4
			c-0.2-0.4-0.3-0.8-0.5-1.1c0.6-0.5,3.1-2.4,6.7-2.5c4.2-0.1,4.6,1.3,8.3,2.3C46.7,221.4,49.4,220.9,52.4,219.6 M46.2,227.5
			c-1.8,1-3.8,1.6-6,1.6c-3,0-5.7-1.1-7.9-2.8c0.5-0.3,2.8-1.6,5.5-1.1c0,0,2,0.5,2.6,1c0.2,0.1,0.6,0.4,1.2,0.6l-0.4-1.3
			c-1.2-0.5-2.9-1.2-3.8-1.2c-1.4,0-2.4-0.5-5.9,1.4c-0.3-0.3-0.7-0.7-0.9-1c0.4-0.4,2.4-2,5.6-1.8c0,0,2.1,0,4.6,1.3l-0.3-1.2
			c-0.1,0-0.1-0.1-0.2-0.1c0,0-3.2-1.4-6.3-0.8c0,0-1.5,0.1-4,1.8c-0.3-0.4-0.5-0.7-0.7-1.1c0.7-0.5,3.3-2.5,7-2.2
			c0,0,1.9-0.1,4.4,1.3c0,0,5,2.6,10.4,0.7c-0.3,0.5-0.6,1-1,1.5c-1.1,0.3-3.4,0.7-5.2,0.3c0,0-1.2-0.1-3.3-1l0.3,1.2
			c1.4,0.5,4.2,1.3,7.2,0.7c-0.5,0.5-1,0.9-1.5,1.4c-0.9,0-2.8,0-5-0.5c0,0-0.1-0.1-0.3-0.1l0.3,1.1C43.7,227.2,45,227.4,46.2,227.5
			 M50,203.2c0.2,0,0.2,0.1,0.2,0.1c0.2,0.1,0.5,0.1,0.5,0.4c-0.1,0.2-0.1,0-0.3,0c0,0,0,0,0,0c0,0.1,0.1,0.1,0.1,0.2
			c-0.1,0.1-0.2,0.1-0.2,0.2c0,0,0,0,0,0c0.4,0.2,0.6,0.2,0.6,0.7c0,0.1-0.1,0.1-0.1,0.1c-0.1,0-0.1,0-0.1-0.1
			c0-0.1-0.1-0.4-0.2-0.5c-0.1,0-0.2-0.2-0.4-0.1c-0.2,0.1-0.4,0.6-0.7,0.7c-0.2,0.1-0.3-0.1-0.3-0.3c0-0.1-0.1-0.1-0.1-0.2
			c0,0,0,0,0,0h0c0.1,0.1,0.2,0.2,0.3,0.2c0.1-0.1,0.6-0.4,0.5-0.5c-0.1,0-0.2,0-0.2,0c-0.2,0-0.3-0.2-0.3-0.3c0-0.1,0-0.1,0.1-0.1
			c0.1,0,0.1,0.1,0.2,0.1c0.2,0,0.3,0.1,0.5,0.1c0-0.1,0.1-0.2,0.2-0.3c0,0,0,0,0,0c-0.1,0-0.2,0-0.3,0c0,0,0,0,0,0
			c0.1,0,0.2-0.1,0.2-0.1c-0.1-0.1-0.1-0.1-0.2-0.2C50,203.3,50,203.3,50,203.2 M51.3,202.4c-0.1,0.1-0.4,0-0.5,0.1
			c0,0.1-0.1,0.2-0.1,0.3c0.1,0.1,0.2,0.1,0.3,0c0-0.1-0.1-0.2,0-0.3h0.1c0.1,0,0.1,0.1,0.1,0.2h0.1
			C51.4,202.8,51.6,202.4,51.3,202.4 M49.6,202.4L49.6,202.4L49.6,202.4c0.1,0.3-0.2,0.6-0.4,0.6c0,0,0-0.1-0.1-0.1
			C49.2,202.7,49.5,202.5,49.6,202.4 M50.9,201.9C50.9,201.9,50.9,201.9,50.9,201.9c0.1,0.1,0.1,0.1,0.2,0.2c0,0.2-0.1,0.2-0.2,0.3
			c0,0,0,0,0,0c0.1,0,0.3-0.1,0.4-0.1c0,0,0,0,0-0.1c0-0.1-0.1-0.1,0-0.1c0,0,0-0.1,0.1-0.1c0.1,0,0.1,0.1,0.2,0.1c0,0,0,0,0,0
			c0-0.1,0-0.1,0.1-0.2c0,0,0,0,0,0c0.2,0.3,0.1,0.4-0.1,0.6c0,0.3-0.1,0.5-0.3,0.6c0,0,0,0,0,0.1h0c0.1,0.1,0.5,0,0.5-0.1
			c0,0-0.1-0.1-0.1-0.1c0,0,0,0,0-0.1c0.1,0,0.3,0,0.4,0c0.1-0.1,0.1-0.1,0.2-0.2c0,0,0,0,0-0.1c-0.1,0-0.3-0.1-0.3-0.2
			c0,0,0-0.1,0.1-0.1h0.1c0.1,0.1,0.4,0.2,0.4,0.3c0.1,0.2-0.8,0.5-0.9,0.6c0.1,0.1,0.2,0.1,0.3,0.2c0.2,0.3,0,0.6-0.2,0.7
			c0,0-0.1,0-0.1,0c-0.1-0.1-0.1-0.1-0.3-0.2c-0.2-0.1-0.1-0.2-0.4-0.3c0,0,0,0,0,0c0,0,0,0,0,0c0.3,0,0.6,0,0.8,0.1c0,0,0,0,0,0
			c0,0,0-0.1,0-0.1c0,0,0,0,0,0c-0.3,0.1-0.2,0-0.4-0.1c-0.1,0-0.2,0-0.3,0c-0.2-0.3-0.3-0.2-0.6-0.3c-0.1,0-0.1-0.1-0.2-0.1
			c-0.1,0-0.1,0.1-0.2,0.2h0c0,0,0,0,0-0.1c0-0.3-0.1-0.2-0.2-0.4c0,0,0,0,0,0c0,0,0,0,0.1-0.1c0.1,0,0.1,0.1,0.2,0.1
			c0.1-0.2,0.1-0.5,0.2-0.7c0.1,0,0.1,0,0.1,0c0,0,0,0.1,0.1,0.1c-0.1,0.2-0.2,0.3-0.2,0.5c0,0,0.1,0.1,0.2,0.1
			C50.7,202.6,50.7,202.1,50.9,201.9 M30.7,203.6c0,0.2-0.1,0.4-0.1,0.6c0,0.1-0.1,0.1-0.1,0.2c0.1,0,0.1,0.1,0.2,0.1
			c0-0.1,0.2-0.7,0.2-0.7C30.8,203.7,30.8,203.6,30.7,203.6L30.7,203.6z M30.9,203.3c0,0-0.1,0.1-0.1,0.1c0,0.1,0,0.1,0.1,0.1
			c0,0,0,0,0.1,0C30.9,203.4,30.9,203.3,30.9,203.3L30.9,203.3z M29.2,201.2c0.4,0,0.4,0.5,0.6,0.7c0.1,0,0.2-0.2,0.3-0.1
			c0.1,0,0.1,0,0.1,0.1v0c0,0.1-0.2,0.1-0.2,0.2c0,0.1,0.2,0.5,0.2,0.6c0,0,0,0,0.1,0c0-0.1,0-0.1,0.1-0.2c0,0,0,0,0,0c0,0,0,0,0,0
			c0,0.1-0.1,0.2-0.1,0.3c0.1,0.2,0.3,0.3,0.4,0.5c0.1,0,0.1,0,0.2,0c0-0.3-0.1-0.9-0.2-1.1c0,0-0.1,0-0.1-0.1v0c0,0,0.1,0,0.1-0.1
			c0.1-0.1,0.3,0.1,0.3,0.1c0,0.1,0,0.2,0,0.3c0,0.1,0.1,0.2,0.1,0.3c0,0.2,0,0.4,0,0.5c0.2,0,0.4-0.1,0.5-0.1h0.3
			c0.2-0.1,0.3-0.2,0.6-0.1c0,0,0,0,0,0v0.1c-0.1,0.1-0.2,0.2-0.2,0.3c-0.1,0.1-0.2-0.1-0.3-0.1c-0.3,0-0.6,0.1-0.9,0.1
			c-0.1,0-0.1,0.1-0.1,0.2c0,0.2,0.2,0.2,0.3,0.4c0.2,0.3,0.4,0.5,0.6,0.8c0,0,0,0,0,0.1c-0.3,0.1-0.4-0.1-0.7-0.1v0c0,0,0,0,0,0
			c0.1,0,0.2,0,0.3-0.1c0,0,0,0,0,0c-0.2-0.2-0.3-0.4-0.5-0.6c-0.1,0.1-0.2,1-0.4,1.3h0v0c0-0.2,0.1-0.4,0.1-0.6
			c-0.1,0-0.1-0.1-0.2-0.1c-0.1-0.1-0.3-0.1-0.4-0.2c-0.2-0.1-0.4-0.2-0.5-0.4c-0.1-0.1-0.2,0-0.3-0.1c0-0.1,0.1-0.3,0.3-0.2
			c0.1,0,0.1,0.1,0.2,0.2c0.1,0.1,0.2,0.1,0.4,0.2c0.1,0.1,0.1,0.2,0.2,0.2c0.1-0.1,0.3-0.8,0.2-0.9h-0.1c-0.1,0.1-0.3,0.3-0.4,0.1
			v0c0.1-0.1,0.1-0.2,0.2-0.3v0c0-0.1-0.1-0.1-0.1-0.2h0c-0.1,0.1-0.2,0.2-0.2,0.3c0,0.3,0.1,0.6-0.2,0.6c0,0,0,0-0.1-0.1
			c0-0.4,0.2-0.7,0.4-0.9c0-0.1-0.1-0.3-0.2-0.4c0,0,0,0,0,0c0,0.1-0.1,0.5-0.3,0.4c0,0-0.1,0-0.1-0.1c-0.1,0-0.1,0-0.2,0v-0.1
			c0.1-0.1,0.4-0.4,0.4-0.6c-0.1-0.2-0.2-0.3-0.4-0.5c-0.1-0.1-0.2-0.1-0.2-0.2L29.2,201.2C29.1,201.2,29.1,201.2,29.2,201.2
			 M44.7,200.5c0.4,0,0.9,0.8,0.6,1.2c0,0,0,0-0.1,0c-0.1-0.1,0-0.3-0.1-0.5C45,201,44.6,200.7,44.7,200.5
			C44.6,200.5,44.7,200.5,44.7,200.5 M44.8,199.4c0.1,0,0.2,0.1,0.3,0.2c0.1,0.2-0.1,0.2-0.1,0.3c0,0.1,0.1,0.1,0,0.2c0,0,0,0,0,0.1
			c-0.2,0-0.3,0.2-0.5,0.4c-0.2,0.2-0.6,0.4-1,0.3c0,0,0,0,0-0.1c0.3-0.2,0.7-0.2,0.9-0.5c0,0,0,0,0,0c-0.2,0-0.3-0.2-0.3-0.4
			c0,0,0-0.1,0.1-0.1c0.1,0,0.1,0,0.2,0.1c0.2,0,0.4,0,0.6-0.1C44.7,199.6,44.7,199.5,44.8,199.4 M38.2,200.4c0.2,0,0.7,0.1,0.8,0.2
			c0.1,0.1,0.1,0.2,0.2,0.3c0,0.1-0.1,0.2-0.2,0.1c-0.2-0.1-0.3-0.3-0.5-0.4c-0.2-0.1-0.3,0.2-0.5,0.1c-0.1,0-0.2-0.1-0.2-0.2
			c0,0,0,0,0,0C37.9,200.4,38.1,200.4,38.2,200.4 M36.1,199.7c0.2,0,0.4,0.1,0.4,0.2c0,0.2,0.1,0.5,0.1,0.7c0.1,0,0.1,0,0.2,0.1v0.1
			c-0.1,0.2-0.3,0.4-0.5,0.6c-0.1,0-0.2,0-0.4,0c0,0,0,0,0-0.1c0,0,0,0,0,0c0.1-0.2,0.4-0.2,0.4-0.4c0,0,0,0,0-0.1
			c-0.1,0-0.2,0-0.2-0.1v-0.1c0-0.1,0.2-0.1,0.2-0.2c0-0.4-0.3-0.4-0.3-0.6c0,0,0,0,0,0C36.1,199.7,36.1,199.7,36.1,199.7
			 M37.9,199.4c0.3,0,0.5,0,0.6,0.1c0,0.1,0,0.1,0,0.1c-0.4,0-0.3,0.3-0.7,0C37.8,199.5,37.8,199.5,37.9,199.4 M37.4,199
			c0.2,0,0.4,0.2,0.3,0.4c0,0.1,0,0.1-0.1,0.2c0,0.3,0,0.5,0,0.8c0,0.1,0.1,0.4,0,0.5c-0.1,0-0.1,0-0.1-0.1c0-0.1-0.1-0.1-0.1-0.2
			c0-0.1,0-0.2,0-0.2c0-0.3-0.1-0.6-0.1-0.9C37.3,199.3,37.2,199.1,37.4,199C37.3,199,37.4,199,37.4,199 M40.2,196.8
			c-10.3,0-18.7,8.6-18.7,19.2c0,10.6,8.4,19.2,18.7,19.2c10.3,0,18.7-8.6,18.7-19.2C58.9,205.5,50.5,196.8,40.2,196.8 M40.2,196.5
			c10.5,0,19,8.8,19,19.6s-8.5,19.6-19,19.6s-19-8.8-19-19.6S29.7,196.5,40.2,196.5 M40.2,202.7c-7.2,0-13,6-13,13.4
			c0,7.4,5.9,13.4,13,13.4s13-6,13-13.4C53.3,208.7,47.4,202.7,40.2,202.7 M40.2,202.4c7.3,0,13.3,6.1,13.3,13.7
			c0,7.5-6,13.7-13.3,13.7c-7.3,0-13.3-6.1-13.3-13.7C26.9,208.5,32.9,202.4,40.2,202.4 M56.2,209.9l-0.7,0.3l-0.7,1.1l-0.1-0.3
			l0.4-0.6c0.1-0.1,0.1-0.2,0.2-0.3c-0.1,0-0.2,0-0.4-0.1l-0.6-0.1l-0.1-0.3l1.3,0.3l0.7-0.3L56.2,209.9z M57,212.7l-1.6,0.3
			l0.1,0.6l-0.2,0l-0.3-1.5l0.2,0l0.1,0.6l1.6-0.3L57,212.7z M57.3,215.1l-1.9,0.2l0-0.3l1.9-0.2L57.3,215.1z M56.6,218.3l0-0.2
			c0.1,0,0.2,0,0.2-0.1c0.1,0,0.1-0.1,0.2-0.2c0-0.1,0.1-0.2,0.1-0.3c0-0.1,0-0.2,0-0.3c0-0.1-0.1-0.1-0.1-0.2c0,0-0.1-0.1-0.2-0.1
			c-0.1,0-0.1,0-0.2,0c0,0-0.1,0.1-0.1,0.2c0,0-0.1,0.2-0.1,0.3c0,0.2-0.1,0.3-0.1,0.4c-0.1,0.1-0.1,0.1-0.2,0.2
			c-0.1,0-0.2,0.1-0.2,0c-0.1,0-0.2,0-0.3-0.1c-0.1-0.1-0.1-0.1-0.2-0.3c0-0.1,0-0.2,0-0.4c0-0.1,0-0.3,0.1-0.4
			c0-0.1,0.1-0.2,0.2-0.2c0.1-0.1,0.2-0.1,0.3-0.1l0,0.2c-0.1,0-0.2,0-0.3,0.1c-0.1,0.1-0.1,0.2-0.1,0.3c0,0.2,0,0.3,0.1,0.3
			c0.1,0.1,0.1,0.1,0.2,0.1c0.1,0,0.1,0,0.2-0.1c0,0,0.1-0.2,0.2-0.4c0.1-0.2,0.1-0.3,0.1-0.4c0.1-0.1,0.1-0.2,0.2-0.2
			c0.1,0,0.2-0.1,0.3-0.1c0.1,0,0.2,0,0.3,0.1c0.1,0.1,0.1,0.1,0.2,0.3c0,0.1,0.1,0.2,0.1,0.4c0,0.2-0.1,0.3-0.1,0.4
			c-0.1,0.1-0.1,0.2-0.2,0.3C56.8,218.2,56.7,218.3,56.6,218.3 M55.6,220.8l0.1-0.5c0-0.1,0-0.2,0-0.3c0-0.1,0-0.1-0.1-0.2
			c0,0-0.1-0.1-0.2-0.1c-0.1,0-0.2,0-0.2,0c-0.1,0.1-0.1,0.1-0.2,0.3l-0.2,0.6L55.6,220.8z M56.5,221.4l-1.8-0.5l0.2-0.8
			c0-0.2,0.1-0.3,0.1-0.4c0.1-0.1,0.1-0.1,0.2-0.2c0.1,0,0.2,0,0.3,0c0.1,0,0.2,0.1,0.3,0.2c0.1,0.1,0.1,0.3,0.1,0.4
			c0-0.1,0.1-0.1,0.1-0.1c0.1-0.1,0.2-0.1,0.3-0.1l0.6-0.2l-0.1,0.3l-0.4,0.1c-0.1,0-0.2,0.1-0.3,0.1c-0.1,0-0.1,0.1-0.2,0.1
			c0,0-0.1,0.1-0.1,0.1c0,0,0,0.1,0,0.1l-0.1,0.3l0.8,0.2L56.5,221.4z M55.4,224.2l-1.7-0.8l0.5-1.3l0.2,0.1l-0.5,1l0.5,0.2l0.4-1
			l0.2,0.1l-0.4,1l0.6,0.3l0.5-1.1l0.2,0.1L55.4,224.2z M54.1,226.3l-1.9-0.5l0.2-0.2l1.4,0.4c0.1,0,0.2,0.1,0.3,0.1
			c-0.1-0.1-0.1-0.2-0.2-0.3l-0.8-1.2l0.1-0.2l1.1,1.7L54.1,226.3z M52.5,228.2l-1.4-1.3l0.2-0.2l1.4,1.3L52.5,228.2z M50.2,230.4
			l-1.2-1.5l0.2-0.2l1.7,0.5l-0.9-1.2l0.2-0.1l1.2,1.5l-0.2,0.2l-1.7-0.5l0.9,1.2L50.2,230.4z M47.7,229.7l0.2-0.1l0.5,1
			c0.1,0.2,0.1,0.3,0.2,0.4c0,0.1,0,0.2-0.1,0.4c-0.1,0.1-0.2,0.2-0.3,0.3c-0.2,0.1-0.3,0.1-0.4,0.1c-0.1,0-0.2,0-0.3-0.1
			c-0.1-0.1-0.2-0.2-0.3-0.4l-0.5-1l0.2-0.1l0.5,1c0.1,0.1,0.1,0.2,0.2,0.3c0.1,0.1,0.1,0.1,0.2,0.1c0.1,0,0.2,0,0.3-0.1
			c0.2-0.1,0.3-0.2,0.3-0.3c0-0.1,0-0.3-0.1-0.5L47.7,229.7z M42.9,232.9l0.2-0.1c0,0.1,0.1,0.2,0.2,0.3c0.1,0.1,0.2,0.1,0.2,0
			c0.1,0,0.2-0.1,0.3-0.2c0.1-0.1,0.1-0.2,0.1-0.3c0-0.1-0.1-0.2-0.1-0.2c-0.1-0.1-0.2-0.1-0.3-0.1c0,0-0.1,0-0.2,0.1l0-0.2
			c0,0,0,0,0,0c0.1,0,0.2-0.1,0.2-0.1c0.1-0.1,0.1-0.2,0.1-0.3c0-0.1-0.1-0.1-0.1-0.2c-0.1,0-0.1-0.1-0.2,0c-0.1,0-0.2,0.1-0.2,0.1
			c0,0.1-0.1,0.2-0.1,0.3l-0.2,0c0-0.2,0-0.3,0.1-0.4c0.1-0.1,0.2-0.2,0.3-0.2c0.1,0,0.2,0,0.3,0c0.1,0,0.2,0.1,0.2,0.1
			c0.1,0.1,0.1,0.1,0.1,0.2c0,0.1,0,0.2,0,0.2c0,0.1-0.1,0.1-0.2,0.2c0.1,0,0.2,0,0.3,0.1c0.1,0.1,0.1,0.2,0.1,0.3
			c0,0.2,0,0.3-0.1,0.5c-0.1,0.1-0.2,0.2-0.4,0.3c-0.2,0-0.3,0-0.4-0.1C43,233.2,42.9,233.1,42.9,232.9 M41.9,233.3l0,0.2l-1.2,0.1
			c0-0.1,0-0.1,0-0.2c0-0.1,0.1-0.2,0.1-0.3c0.1-0.1,0.2-0.2,0.3-0.3c0.2-0.2,0.3-0.3,0.4-0.4c0.1-0.1,0.1-0.2,0.1-0.3
			c0-0.1,0-0.2-0.1-0.2c-0.1-0.1-0.2-0.1-0.3-0.1c-0.1,0-0.2,0.1-0.3,0.1c-0.1,0.1-0.1,0.2-0.1,0.3l-0.2,0c0-0.2,0-0.3,0.1-0.4
			c0.1-0.1,0.2-0.2,0.4-0.2c0.2,0,0.3,0,0.4,0.1c0.1,0.1,0.2,0.2,0.2,0.4c0,0.1,0,0.2,0,0.2c0,0.1-0.1,0.2-0.1,0.2
			c-0.1,0.1-0.2,0.2-0.3,0.4c-0.1,0.1-0.2,0.2-0.2,0.3c0,0-0.1,0.1-0.1,0.1L41.9,233.3z M39.6,232.3c0-0.1,0-0.2-0.1-0.3
			c-0.1-0.1-0.1-0.1-0.2-0.1c-0.1,0-0.2,0-0.3,0.1c-0.1,0.1-0.1,0.2-0.1,0.3c0,0.1,0,0.2,0.1,0.3c0.1,0.1,0.1,0.1,0.3,0.1
			c0.1,0,0.2,0,0.3-0.1C39.5,232.6,39.6,232.5,39.6,232.3 M38.6,233.1l0.2,0c0,0.1,0,0.2,0.1,0.2c0,0.1,0.1,0.1,0.2,0.1
			c0.1,0,0.1,0,0.2,0c0.1,0,0.1-0.1,0.1-0.1c0-0.1,0.1-0.1,0.1-0.2c0-0.1,0.1-0.2,0.1-0.3v-0.1c-0.1,0.1-0.1,0.1-0.2,0.2
			s-0.2,0.1-0.3,0c-0.2,0-0.3-0.1-0.4-0.2c-0.1-0.1-0.1-0.3-0.1-0.5c0-0.2,0.1-0.3,0.2-0.5c0.1-0.1,0.3-0.2,0.4-0.1
			c0.1,0,0.2,0.1,0.3,0.1c0.1,0.1,0.2,0.2,0.2,0.3c0,0.1,0.1,0.3,0,0.5c0,0.2-0.1,0.4-0.1,0.6c-0.1,0.1-0.2,0.2-0.3,0.3
			c-0.1,0.1-0.2,0.1-0.4,0.1c-0.1,0-0.3-0.1-0.3-0.2C38.6,233.4,38.6,233.3,38.6,233.1 M37.1,233.4l-0.2,0l0.3-1.5
			c-0.1,0-0.1,0.1-0.2,0.1c-0.1,0-0.2,0.1-0.3,0.1l0-0.2c0.1,0,0.3-0.1,0.4-0.2c0.1-0.1,0.2-0.1,0.2-0.2l0.1,0L37.1,233.4z
			 M31.6,231.3l0.9-1.7l0.2,0.1l0.2,1.8l0.7-1.3l0.2,0.1l-0.9,1.7l-0.2-0.1l-0.2-1.8l-0.7,1.3L31.6,231.3z M30.5,229.2l0.4,0.3
			c0.1,0.1,0.2,0.1,0.2,0.1c0.1,0,0.1,0,0.2,0c0.1,0,0.1-0.1,0.1-0.1c0-0.1,0.1-0.1,0-0.2c0-0.1-0.1-0.2-0.2-0.3l-0.5-0.4
			L30.5,229.2z M29.7,229.9l1.1-1.6l0.7,0.5c0.1,0.1,0.2,0.2,0.3,0.3c0.1,0.1,0.1,0.2,0.1,0.3c0,0.1,0,0.2-0.1,0.3
			c-0.1,0.1-0.2,0.2-0.3,0.2c-0.1,0-0.3,0-0.4-0.1c0,0.1,0.1,0.1,0.1,0.2c0,0.1,0,0.2,0,0.3l0,0.6l-0.2-0.2l0-0.5c0-0.1,0-0.2,0-0.3
			c0-0.1,0-0.1,0-0.2c0,0,0-0.1-0.1-0.1c0,0-0.1-0.1-0.1-0.1l-0.2-0.2l-0.5,0.7L29.7,229.9z M28.1,228.4l1.3-1.4l1,1l-0.2,0.2
			l-0.8-0.8l-0.4,0.4l0.7,0.7l-0.2,0.2l-0.7-0.7l-0.4,0.5l0.8,0.8l-0.2,0.2L28.1,228.4z M27.1,227.3l1.2-1.1l-0.4-0.5l0.2-0.1l1,1.2
			l-0.2,0.1l-0.4-0.5l-1.2,1.1L27.1,227.3z M26,224.7l0.1,0.2c-0.1,0.1-0.1,0.1-0.2,0.2c0,0.1,0,0.1,0,0.2c0,0.1,0.1,0.2,0.1,0.3
			c0.1,0.1,0.1,0.1,0.2,0.2c0.1,0,0.1,0.1,0.2,0.1c0.1,0,0.1,0,0.2,0c0,0,0.1-0.1,0.1-0.1c0-0.1,0-0.1,0-0.2c0-0.1,0-0.2-0.1-0.3
			c-0.1-0.2-0.1-0.3-0.1-0.4c0-0.1,0-0.2,0-0.3c0-0.1,0.1-0.1,0.2-0.2c0.1-0.1,0.2-0.1,0.3-0.1c0.1,0,0.2,0,0.3,0.1
			c0.1,0.1,0.2,0.2,0.2,0.3c0.1,0.1,0.1,0.2,0.1,0.4s0,0.2,0,0.3c0,0.1-0.1,0.2-0.2,0.2l-0.1-0.2c0.1-0.1,0.1-0.2,0.2-0.3
			c0-0.1,0-0.2-0.1-0.3c-0.1-0.1-0.2-0.2-0.2-0.2c-0.1,0-0.2,0-0.2,0c-0.1,0-0.1,0.1-0.1,0.2c0,0.1,0,0.2,0.1,0.4
			c0.1,0.2,0.1,0.3,0.1,0.4c0,0.1,0,0.2,0,0.3c0,0.1-0.1,0.2-0.2,0.2c-0.1,0.1-0.2,0.1-0.3,0.1c-0.1,0-0.2,0-0.3-0.1
			c-0.1-0.1-0.2-0.2-0.3-0.3c-0.1-0.1-0.1-0.3-0.2-0.4c0-0.1,0-0.2,0.1-0.4C25.8,224.8,25.9,224.7,26,224.7 M25.4,223l0.3,0.6
			l0.4-0.4c0.1-0.1,0.2-0.2,0.3-0.3c-0.1,0-0.2,0.1-0.4,0.1L25.4,223z M24.4,222.9l2-0.2l0.1,0.2l-1.3,1.6l-0.1-0.3l0.4-0.5
			l-0.4-0.7l-0.6,0.1L24.4,222.9z M23.8,221l1.8-0.6l0.4,1.3l-0.2,0.1l-0.3-1.1l-0.5,0.2l0.3,1L25,222l-0.3-1l-0.6,0.2l0.4,1.1
			l-0.2,0.1L23.8,221z M23.3,218.7l1.9-0.3l0,0.3l-0.8,0.1l0.2,1l0.8-0.1l0,0.3l-1.9,0.3l0-0.3l0.9-0.1l-0.2-1l-0.9,0.1L23.3,218.7z
			 M23.2,217.1l1.7-0.1l0-0.6l0.2,0l0.1,1.5l-0.2,0l0-0.6l-1.6,0.1L23.2,217.1z M24.2,214.6l0,0.5c0,0.1,0,0.2,0,0.3
			c0,0.1,0.1,0.1,0.1,0.2c0.1,0,0.1,0.1,0.2,0.1c0.1,0,0.2,0,0.2-0.1c0.1-0.1,0.1-0.2,0.1-0.3l0.1-0.6L24.2,214.6z M23.2,214.2
			l1.9,0.2l-0.1,0.8c0,0.2,0,0.3-0.1,0.4c0,0.1-0.1,0.1-0.2,0.2c-0.1,0-0.2,0.1-0.3,0.1c-0.1,0-0.2-0.1-0.3-0.2
			c-0.1-0.1-0.1-0.2-0.1-0.4c0,0.1-0.1,0.1-0.1,0.1c-0.1,0.1-0.2,0.1-0.3,0.2l-0.5,0.3l0-0.3l0.4-0.2c0.1-0.1,0.2-0.1,0.3-0.2
			c0.1,0,0.1-0.1,0.1-0.1c0,0,0-0.1,0.1-0.1c0,0,0-0.1,0-0.1l0-0.3l-0.8-0.1L23.2,214.2z M24.5,212.1c-0.2,0-0.4,0-0.6,0.1
			c-0.1,0.1-0.2,0.2-0.3,0.4c0,0.2,0,0.4,0.1,0.5c0.1,0.1,0.3,0.2,0.5,0.3c0.1,0,0.3,0,0.4,0c0.1,0,0.2-0.1,0.3-0.2
			c0.1-0.1,0.1-0.2,0.2-0.3c0-0.2,0-0.3-0.1-0.5C24.9,212.3,24.7,212.2,24.5,212.1 M24.5,211.9c0.3,0.1,0.5,0.2,0.7,0.4
			c0.1,0.2,0.2,0.4,0.1,0.7c0,0.2-0.1,0.3-0.2,0.4c-0.1,0.1-0.2,0.2-0.4,0.3c-0.2,0-0.3,0.1-0.5,0c-0.2,0-0.3-0.1-0.5-0.2
			c-0.1-0.1-0.2-0.2-0.3-0.4c-0.1-0.2-0.1-0.3,0-0.5c0-0.2,0.1-0.3,0.2-0.5c0.1-0.1,0.2-0.2,0.4-0.3
			C24.2,211.8,24.3,211.8,24.5,211.9 M24.3,209.5l1.8,0.6l-0.1,0.2l-1.7,0.5l1.4,0.5l-0.1,0.2l-1.8-0.6l0.1-0.2l1.7-0.5l-1.4-0.5
			L24.3,209.5z M40.2,203.1c6.9,0,12.6,5.8,12.6,13c0,0.9-0.1,1.7-0.2,2.6l-6.8-10.5l-2.6,2.7l-2.6-4.4l-2.6,4.4l-2.5-2.6L28,219
			c-0.2-0.9-0.3-1.9-0.3-3C27.6,208.9,33.3,203.1,40.2,203.1"/>
	</g>
</g>
</svg>
