<?xml version="1.0" encoding="UTF-8" standalone="no"?>
<!-- Created with Inkscape (http://www.inkscape.org/) -->

<svg
   width="16.092146mm"
   height="7.1999807mm"
   viewBox="0 0 16.092146 7.1999807"
   version="1.1"
   id="svg1"
   xmlns="http://www.w3.org/2000/svg"
   xmlns:svg="http://www.w3.org/2000/svg">
  <defs
     id="defs1">
    <clipPath
       clipPathUnits="userSpaceOnUse"
       id="clipPath817">
      <path
         d="M 0,858.898 H 1207.558 V 0 H 0 Z"
         transform="translate(-415.99681,-493.99171)"
         id="path817" />
    </clipPath>
    <clipPath
       clipPathUnits="userSpaceOnUse"
       id="clipPath819">
      <path
         d="M 0,858.898 H 1207.558 V 0 H 0 Z"
         transform="translate(-396.43011,-487.27711)"
         id="path819" />
    </clipPath>
    <clipPath
       clipPathUnits="userSpaceOnUse"
       id="clipPath821">
      <path
         d="M 0,858.898 H 1207.558 V 0 H 0 Z"
         transform="translate(-427.85921,-495.94291)"
         id="path821" />
    </clipPath>
    <clipPath
       clipPathUnits="userSpaceOnUse"
       id="clipPath823">
      <path
         d="M 0,858.898 H 1207.558 V 0 H 0 Z"
         transform="translate(-409.88301,-477.93991)"
         id="path823" />
    </clipPath>
  </defs>
  <g
     id="layer1"
     transform="translate(-109.27291,-88.106257)">
    <path
       id="path816"
       d="m 0,0 c -1.106,-0.142 -2.165,-0.625 -2.997,-1.368 -1.236,-1.083 -1.95,-2.731 -1.887,-4.373 0.034,-1.487 0.698,-2.946 1.794,-3.951 1.053,-0.989 2.503,-1.539 3.947,-1.498 1.612,0.021 3.192,0.792 4.211,2.041 0.931,1.116 1.393,2.604 1.265,4.052 -0.12,1.535 -0.914,2.999 -2.128,3.944 C 3.035,-0.221 1.481,0.199 0,0 M 0.192,2.171 C 1.84,2.29 3.522,1.864 4.911,0.968 6.254,0.114 7.323,-1.163 7.926,-2.636 8.592,-4.242 8.687,-6.076 8.2,-7.745 7.787,-9.178 6.946,-10.483 5.818,-11.457 c -1.283,-1.12 -2.944,-1.798 -4.644,-1.886 -1.549,-0.093 -3.121,0.296 -4.446,1.101 -1.371,0.824 -2.478,2.08 -3.118,3.547 -0.746,1.686 -0.855,3.641 -0.307,5.4 0.536,1.756 1.724,3.298 3.274,4.278 1.081,0.688 2.336,1.101 3.615,1.188"
       style="fill:#231f20;fill-opacity:1;fill-rule:nonzero;stroke:none"
       transform="matrix(0.35277776,0,0,-0.35277776,117.05755,88.879042)"
       clip-path="url(#clipPath817)" />
    <path
       id="path818"
       d="m 0,0 c 0,-1.338 0,-2.676 0,-4.014 1.45,0.001 2.9,0 4.351,0.001 0.755,0.014 1.546,0.125 2.188,0.55 0.394,0.258 0.689,0.673 0.766,1.142 0.088,0.523 -0.008,1.108 -0.372,1.512 C 6.594,-0.43 6.098,-0.241 5.613,-0.133 4.844,0.039 4.053,-0.005 3.271,0 2.18,0 1.09,0 0,0 m 0,2.381 c 1.037,-10e-4 2.073,0 3.11,-10e-4 0.497,0 0.995,-0.003 1.489,0.049 0.539,0.06 1.105,0.178 1.53,0.537 0.377,0.316 0.54,0.816 0.556,1.295 C 6.722,4.699 6.601,5.16 6.303,5.491 5.932,5.913 5.379,6.119 4.838,6.214 4.359,6.305 3.871,6.275 3.387,6.28 2.258,6.28 1.129,6.279 0,6.28 0,4.98 0,3.68 0,2.381 M -2.5,8.666 C -0.297,8.665 1.908,8.667 4.111,8.665 5.292,8.656 6.509,8.399 7.492,7.719 8.242,7.209 8.807,6.424 9.015,5.538 9.201,4.747 9.152,3.9 8.878,3.134 8.65,2.494 8.227,1.932 7.692,1.516 8.467,1.147 9.124,0.518 9.493,-0.261 9.86,-1.02 9.946,-1.893 9.83,-2.722 9.733,-3.409 9.463,-4.076 9.025,-4.617 8.56,-5.204 7.917,-5.632 7.227,-5.912 6.368,-6.258 5.435,-6.39 4.512,-6.4 c -2.337,0 -4.675,0.001 -7.012,0 0,5.022 0,10.044 0,15.066"
       style="fill:#231f20;fill-opacity:1;fill-rule:nonzero;stroke:none"
       transform="matrix(0.35277776,0,0,-0.35277776,110.15485,91.247803)"
       clip-path="url(#clipPath819)" />
    <path
       id="path820"
       d="m 0,0 c 3.773,0 7.546,0 11.319,0 -0.001,-0.795 0,-1.591 -0.001,-2.387 -2.932,0.002 -5.864,0 -8.797,10e-4 0,-1.3 0,-2.599 0,-3.899 2.745,-10e-4 5.491,-10e-4 8.236,-10e-4 v -2.38 c -2.745,0.001 -5.491,0 -8.236,0 10e-4,-1.339 -10e-4,-2.679 0,-4.019 3.055,-10e-4 6.11,0.001 9.165,-10e-4 10e-4,-0.793 0,-1.587 0,-2.379 H 0 C 0,-10.043 0,-5.022 0,0"
       style="fill:#231f20;fill-opacity:1;fill-rule:nonzero;stroke:none"
       transform="matrix(0.35277776,0,0,-0.35277776,121.24234,88.190702)"
       clip-path="url(#clipPath821)" />
    <path
       id="path822"
       d="m 0,0 c 4.565,-0.001 9.13,0.001 13.696,-0.001 0,-0.722 0.002,-1.444 -10e-4,-2.166 -4.565,0.002 -9.13,10e-4 -13.695,0 z"
       style="fill:#231f20;fill-opacity:1;fill-rule:nonzero;stroke:none"
       transform="matrix(0.35277776,0,0,-0.35277776,114.90074,94.54176)"
       clip-path="url(#clipPath823)" />
  </g>
</svg>
