<?xml version="1.0" encoding="utf-8"?>
<!-- Generator: Adobe Illustrator 28.0.0, SVG Export Plug-In . SVG Version: 6.00 Build 0)  -->
<svg version="1.1" id="svg1" xmlns:svg="http://www.w3.org/2000/svg"
	 xmlns="http://www.w3.org/2000/svg" xmlns:xlink="http://www.w3.org/1999/xlink" x="0px" y="0px" viewBox="0 0 62.6 23.4"
	 style="enable-background:new 0 0 62.6 23.4;" xml:space="preserve">
<style type="text/css">
	
		.st0{clip-path:url(#SVGID_00000070083287910194300890000005178067101795994034_);fill-rule:evenodd;clip-rule:evenodd;fill:#DA2226;}
</style>
<g id="layer1" transform="translate(-17.394378,-91.183205)">
	<g>
		<defs>
			<rect id="SVGID_1_" x="-50.8" y="-364" width="1207.6" height="858.9"/>
		</defs>
		<clipPath id="SVGID_00000022551994450883462150000000602439297996790161_">
			<use xlink:href="#SVGID_1_"  style="overflow:visible;"/>
		</clipPath>
		
			<path id="path898" style="clip-path:url(#SVGID_00000022551994450883462150000000602439297996790161_);fill-rule:evenodd;clip-rule:evenodd;fill:#DA2226;" d="
			M35.3,110.6L35.3,110.6c-2,0-3.6-1.6-3.6-3.6s1.6-3.6,3.6-3.6c2,0,3.6,1.6,3.6,3.6S37.3,110.6,35.3,110.6 M53.8,114.2h-0.5
			l-5.3-8.7v8.7h-3.9V100h0.5H48h0.5l5.3,8.7V100h3.9v14.2h-0.5H53.8z M70.1,108.2h-3.6v-2.5H70h3.8h0.1c0.1,0.4,0.1,0.9,0.1,1.3
			c0,4.2-3.4,7.6-7.6,7.6c-4.2,0-7.6-3.4-7.6-7.6s3.4-7.6,7.6-7.6c3.2,0,5.9,2,7.1,4.8h-4.5c-0.7-0.6-1.6-1-2.6-1
			c-2.1,0-3.8,1.7-3.8,3.8c0,2.1,1.7,3.8,3.8,3.8C68.2,110.8,69.6,109.7,70.1,108.2 M80,95.6h-4.4v-4.4H80V95.6z M80,114.6h-4.4
			V99.9H80V114.6z M35.3,99.5c-4.2,0-7.6,3.4-7.6,7.6c0,1.1,0.3,2.2,0.7,3.2h-6.7V100h-4.4v10.2v4h4.4h5.1l2-3.2
			c1.3,2.1,3.7,3.6,6.4,3.6c4.2,0,7.6-3.4,7.6-7.6S39.5,99.5,35.3,99.5"/>
	</g>
</g>
</svg>
