<?xml version="1.0" encoding="utf-8"?>
<!-- Generator: Adobe Illustrator 28.0.0, SVG Export Plug-In . SVG Version: 6.00 Build 0)  -->
<svg version="1.1" id="svg1" xmlns:svg="http://www.w3.org/2000/svg"
	 xmlns="http://www.w3.org/2000/svg" xmlns:xlink="http://www.w3.org/1999/xlink" x="0px" y="0px" viewBox="0 0 45.6 20.4"
	 style="enable-background:new 0 0 45.6 20.4;" xml:space="preserve">
<style type="text/css">
	.st0{clip-path:url(#SVGID_00000093891259584570961310000002942398362017046181_);fill:#231F20;}
	.st1{clip-path:url(#SVGID_00000164496114290756874010000009286404355384919954_);fill:#231F20;}
	.st2{clip-path:url(#SVGID_00000072972710226649172310000015738754329018862721_);fill:#231F20;}
	.st3{clip-path:url(#SVGID_00000082357696492858580800000010584885960127449514_);fill:#231F20;}
</style>
<g id="layer1" transform="translate(-109.27291,-88.106257)">
	<g>
		<defs>
			<rect id="SVGID_1_" x="-284.7" y="-274.6" width="1207.6" height="858.9"/>
		</defs>
		<clipPath id="SVGID_00000126288261996238016470000002522361638762146444_">
			<use xlink:href="#SVGID_1_"  style="overflow:visible;"/>
		</clipPath>
		<path id="path816" style="clip-path:url(#SVGID_00000126288261996238016470000002522361638762146444_);fill:#231F20;" d="
			M131.3,90.3c-1.1,0.1-2.2,0.6-3,1.4c-1.2,1.1-2,2.7-1.9,4.4c0,1.5,0.7,2.9,1.8,4c1.1,1,2.5,1.5,3.9,1.5c1.6,0,3.2-0.8,4.2-2
			c0.9-1.1,1.4-2.6,1.3-4.1c-0.1-1.5-0.9-3-2.1-3.9C134.4,90.5,132.8,90.1,131.3,90.3 M131.5,88.1c1.6-0.1,3.3,0.3,4.7,1.2
			c1.3,0.9,2.4,2.1,3,3.6c0.7,1.6,0.8,3.4,0.3,5.1c-0.4,1.4-1.3,2.7-2.4,3.7c-1.3,1.1-2.9,1.8-4.6,1.9c-1.5,0.1-3.1-0.3-4.4-1.1
			c-1.4-0.8-2.5-2.1-3.1-3.5c-0.7-1.7-0.9-3.6-0.3-5.4c0.5-1.8,1.7-3.3,3.3-4.3C129,88.6,130.3,88.2,131.5,88.1"/>
	</g>
	<g>
		<defs>
			<rect id="SVGID_00000146486544605442349960000012309730401722735765_" x="-284.7" y="-274.6" width="1207.6" height="858.9"/>
		</defs>
		<clipPath id="SVGID_00000170270752516542642010000003647029459553635247_">
			<use xlink:href="#SVGID_00000146486544605442349960000012309730401722735765_"  style="overflow:visible;"/>
		</clipPath>
		<path id="path818" style="clip-path:url(#SVGID_00000170270752516542642010000003647029459553635247_);fill:#231F20;" d="
			M111.8,97c0,1.3,0,2.7,0,4c1.4,0,2.9,0,4.4,0c0.8,0,1.5-0.1,2.2-0.5c0.4-0.3,0.7-0.7,0.8-1.1c0.1-0.5,0-1.1-0.4-1.5
			c-0.3-0.4-0.8-0.6-1.3-0.7c-0.8-0.2-1.6-0.1-2.3-0.1C114,97,112.9,97,111.8,97 M111.8,94.6c1,0,2.1,0,3.1,0c0.5,0,1,0,1.5,0
			c0.5-0.1,1.1-0.2,1.5-0.5c0.4-0.3,0.5-0.8,0.6-1.3c0-0.4-0.1-0.9-0.4-1.2c-0.4-0.4-0.9-0.6-1.5-0.7c-0.5-0.1-1-0.1-1.5-0.1
			c-1.1,0-2.3,0-3.4,0C111.8,92,111.8,93.3,111.8,94.6 M109.3,88.3c2.2,0,4.4,0,6.6,0c1.2,0,2.4,0.3,3.4,0.9
			c0.8,0.5,1.3,1.3,1.5,2.2c0.2,0.8,0.1,1.6-0.1,2.4c-0.2,0.6-0.7,1.2-1.2,1.6c0.8,0.4,1.4,1,1.8,1.8c0.4,0.8,0.5,1.6,0.3,2.5
			c-0.1,0.7-0.4,1.4-0.8,1.9c-0.5,0.6-1.1,1-1.8,1.3c-0.9,0.3-1.8,0.5-2.7,0.5c-2.3,0-4.7,0-7,0C109.3,98.4,109.3,93.4,109.3,88.3"
			/>
	</g>
	<g>
		<defs>
			<rect id="SVGID_00000031192708318394277300000008134930868603148691_" x="-284.7" y="-274.6" width="1207.6" height="858.9"/>
		</defs>
		<clipPath id="SVGID_00000015338108599186425780000003690023441934984334_">
			<use xlink:href="#SVGID_00000031192708318394277300000008134930868603148691_"  style="overflow:visible;"/>
		</clipPath>
		<path id="path820" style="clip-path:url(#SVGID_00000015338108599186425780000003690023441934984334_);fill:#231F20;" d="
			M143.2,88.3c3.8,0,7.5,0,11.3,0c0,0.8,0,1.6,0,2.4c-2.9,0-5.9,0-8.8,0c0,1.3,0,2.6,0,3.9c2.7,0,5.5,0,8.2,0V97c-2.7,0-5.5,0-8.2,0
			c0,1.3,0,2.7,0,4c3.1,0,6.1,0,9.2,0c0,0.8,0,1.6,0,2.4h-11.7C143.2,98.4,143.2,93.4,143.2,88.3"/>
	</g>
	<g>
		<defs>
			<rect id="SVGID_00000043437708852292097890000010217801919953389700_" x="-284.7" y="-274.6" width="1207.6" height="858.9"/>
		</defs>
		<clipPath id="SVGID_00000114032149336046703350000002365692482379995777_">
			<use xlink:href="#SVGID_00000043437708852292097890000010217801919953389700_"  style="overflow:visible;"/>
		</clipPath>
		<path id="path822" style="clip-path:url(#SVGID_00000114032149336046703350000002365692482379995777_);fill:#231F20;" d="
			M125.2,106.3c4.6,0,9.1,0,13.7,0c0,0.7,0,1.4,0,2.2c-4.6,0-9.1,0-13.7,0V106.3z"/>
	</g>
</g>
</svg>
