<?xml version="1.0" encoding="utf-8"?>
<!-- Generator: Adobe Illustrator 28.0.0, SVG Export Plug-In . SVG Version: 6.00 Build 0)  -->
<svg version="1.1" id="svg1" xmlns:svg="http://www.w3.org/2000/svg"
	 xmlns="http://www.w3.org/2000/svg" xmlns:xlink="http://www.w3.org/1999/xlink" x="0px" y="0px" viewBox="0 0 41.8 20.4"
	 style="enable-background:new 0 0 41.8 20.4;" xml:space="preserve">
<style type="text/css">
	
		.st0{clip-path:url(#SVGID_00000051366428605761813460000006631462597368052895_);fill-rule:evenodd;clip-rule:evenodd;fill:#231F20;}
	
		.st1{clip-path:url(#SVGID_00000017508872316798215270000014952270003434020502_);fill-rule:evenodd;clip-rule:evenodd;fill:#231F20;}
	
		.st2{clip-path:url(#SVGID_00000163048708208222900640000014503268414742666114_);fill-rule:evenodd;clip-rule:evenodd;fill:#ED1C24;}
	
		.st3{clip-path:url(#SVGID_00000074439133683066406060000010139471697177888163_);fill-rule:evenodd;clip-rule:evenodd;fill:#231F20;}
	
		.st4{clip-path:url(#SVGID_00000041973651434466732040000002145011170870250657_);fill-rule:evenodd;clip-rule:evenodd;fill:#F47216;}
	
		.st5{clip-path:url(#SVGID_00000013885515742012527330000010510031518433359258_);fill-rule:evenodd;clip-rule:evenodd;fill:#231F20;}
	
		.st6{clip-path:url(#SVGID_00000013193627858421105860000004440603334749990313_);fill-rule:evenodd;clip-rule:evenodd;fill:#231F20;}
	
		.st7{clip-path:url(#SVGID_00000129204381136345163200000003228231434700198535_);fill-rule:evenodd;clip-rule:evenodd;fill:#231F20;}
	
		.st8{clip-path:url(#SVGID_00000090982647194712007810000001138670702394567840_);fill-rule:evenodd;clip-rule:evenodd;fill:#231F20;}
	
		.st9{clip-path:url(#SVGID_00000135685094779456242690000001971628155091895948_);fill-rule:evenodd;clip-rule:evenodd;fill:#231F20;}
	
		.st10{clip-path:url(#SVGID_00000051384047032519426700000012429430503203898783_);fill-rule:evenodd;clip-rule:evenodd;fill:#231F20;}
	
		.st11{clip-path:url(#SVGID_00000138543879117459963640000008972409044478137764_);fill-rule:evenodd;clip-rule:evenodd;fill:#231F20;}
	
		.st12{clip-path:url(#SVGID_00000111156134970395550820000013851998731819264643_);fill-rule:evenodd;clip-rule:evenodd;fill:#231F20;}
	
		.st13{clip-path:url(#SVGID_00000021084520285322976050000016521323218648912316_);fill-rule:evenodd;clip-rule:evenodd;fill:#231F20;}
	
		.st14{clip-path:url(#SVGID_00000116928561874405080920000016406823785618566074_);fill-rule:evenodd;clip-rule:evenodd;fill:#231F20;}
	
		.st15{clip-path:url(#SVGID_00000122690530826338333040000004656948754660718015_);fill-rule:evenodd;clip-rule:evenodd;fill:#231F20;}
	
		.st16{clip-path:url(#SVGID_00000032616294712975892070000014038278504175359662_);fill-rule:evenodd;clip-rule:evenodd;fill:#231F20;}
	
		.st17{clip-path:url(#SVGID_00000173879881831880605690000016038325490488498878_);fill-rule:evenodd;clip-rule:evenodd;fill:#231F20;}
	
		.st18{clip-path:url(#SVGID_00000068639161244506969370000006051609476966140044_);fill-rule:evenodd;clip-rule:evenodd;fill:#231F20;}
	
		.st19{clip-path:url(#SVGID_00000183225645499860736280000013335113288422064263_);fill-rule:evenodd;clip-rule:evenodd;fill:#231F20;}
	
		.st20{clip-path:url(#SVGID_00000171717816598453447660000016651881556758124174_);fill-rule:evenodd;clip-rule:evenodd;fill:#231F20;}
	
		.st21{clip-path:url(#SVGID_00000181053706823579465870000003873379926163276720_);fill-rule:evenodd;clip-rule:evenodd;fill:#231F20;}
	
		.st22{clip-path:url(#SVGID_00000113326785868575288870000006874057617706647199_);fill-rule:evenodd;clip-rule:evenodd;fill:#231F20;}
	
		.st23{clip-path:url(#SVGID_00000021835514103185381790000007178027215371772561_);fill-rule:evenodd;clip-rule:evenodd;fill:#231F20;}
	
		.st24{clip-path:url(#SVGID_00000000917044619806107860000012576157946684973740_);fill-rule:evenodd;clip-rule:evenodd;fill:#231F20;}
</style>
<g id="layer1" transform="translate(-85.460418,-91.016673)">
	<g>
		<defs>
			<rect id="SVGID_1_" x="-226.2" y="-271.7" width="1207.6" height="858.9"/>
		</defs>
		<clipPath id="SVGID_00000016058789508056101100000016592474161818263178_">
			<use xlink:href="#SVGID_1_"  style="overflow:visible;"/>
		</clipPath>
		
			<path id="path766" style="clip-path:url(#SVGID_00000016058789508056101100000016592474161818263178_);fill-rule:evenodd;clip-rule:evenodd;fill:#231F20;" d="
			M119.2,103.1l-1.2,2.5h5.5l1.2-2.5H119.2z"/>
	</g>
	<g>
		<defs>
			<rect id="SVGID_00000034775352250806267680000015212224552775936386_" x="-226.2" y="-271.7" width="1207.6" height="858.9"/>
		</defs>
		<clipPath id="SVGID_00000153678638091866880250000004648543012468810136_">
			<use xlink:href="#SVGID_00000034775352250806267680000015212224552775936386_"  style="overflow:visible;"/>
		</clipPath>
		
			<path id="path768" style="clip-path:url(#SVGID_00000153678638091866880250000004648543012468810136_);fill-rule:evenodd;clip-rule:evenodd;fill:#231F20;" d="
			M107.9,98.6h6.3l2.1-4.5h3.3l-0.3,0.7h-2.6l-0.6,1.3h2.6l-0.3,0.7h-2.6l-0.9,1.8h5.7l3.5-7.6h-12.7L107.9,98.6z"/>
	</g>
	<g>
		<defs>
			<rect id="SVGID_00000157274854459037505430000006132799837114810003_" x="-226.2" y="-271.7" width="1207.6" height="858.9"/>
		</defs>
		<clipPath id="SVGID_00000177457009052888052230000017736185031948117898_">
			<use xlink:href="#SVGID_00000157274854459037505430000006132799837114810003_"  style="overflow:visible;"/>
		</clipPath>
		
			<path id="path770" style="clip-path:url(#SVGID_00000177457009052888052230000017736185031948117898_);fill-rule:evenodd;clip-rule:evenodd;fill:#ED1C24;" d="
			M85.5,91v7.6h22.4l3.5-7.6H85.5z"/>
	</g>
	<g>
		<defs>
			<rect id="SVGID_00000088819484460123375490000011399813170054277521_" x="-226.2" y="-271.7" width="1207.6" height="858.9"/>
		</defs>
		<clipPath id="SVGID_00000109004758965322617520000011369382973316046247_">
			<use xlink:href="#SVGID_00000088819484460123375490000011399813170054277521_"  style="overflow:visible;"/>
		</clipPath>
		
			<path id="path772" style="clip-path:url(#SVGID_00000109004758965322617520000011369382973316046247_);fill-rule:evenodd;clip-rule:evenodd;fill:#231F20;" d="
			M120.9,99.3l-1.5,3.2h6.3l1.5-3.2H120.9z"/>
	</g>
	<g>
		<defs>
			<rect id="SVGID_00000123417559451371470320000007071532234171489166_" x="-226.2" y="-271.7" width="1207.6" height="858.9"/>
		</defs>
		<clipPath id="SVGID_00000090974270367090944810000017072463756774445995_">
			<use xlink:href="#SVGID_00000123417559451371470320000007071532234171489166_"  style="overflow:visible;"/>
		</clipPath>
		
			<path id="path774" style="clip-path:url(#SVGID_00000090974270367090944810000017072463756774445995_);fill-rule:evenodd;clip-rule:evenodd;fill:#F47216;" d="
			M85.5,99.3v7h25.2l3.3-7H85.5z"/>
	</g>
	<g>
		<defs>
			<rect id="SVGID_00000011025566568371987440000000651897827312694167_" x="-226.2" y="-271.7" width="1207.6" height="858.9"/>
		</defs>
		<clipPath id="SVGID_00000026146837920735848820000009718528173182322870_">
			<use xlink:href="#SVGID_00000011025566568371987440000000651897827312694167_"  style="overflow:visible;"/>
		</clipPath>
		
			<path id="path776" style="clip-path:url(#SVGID_00000026146837920735848820000009718528173182322870_);fill-rule:evenodd;clip-rule:evenodd;fill:#231F20;" d="
			M120.2,99.3h-6.4l-3.3,7h6.4L120.2,99.3z"/>
	</g>
	<g>
		<defs>
			<rect id="SVGID_00000115479808921445450410000000947394898262215101_" x="-226.2" y="-271.7" width="1207.6" height="858.9"/>
		</defs>
		<clipPath id="SVGID_00000105393642343881371550000007682504005566460043_">
			<use xlink:href="#SVGID_00000115479808921445450410000000947394898262215101_"  style="overflow:visible;"/>
		</clipPath>
		
			<path id="path778" style="clip-path:url(#SVGID_00000105393642343881371550000007682504005566460043_);fill-rule:evenodd;clip-rule:evenodd;fill:#231F20;" d="
			M94.9,109.7h2v0v-0.5v0h-2v-0.5h2v-0.1V108v0h-2v-0.5h-1v0.5h-2v0v0.5v0.1h2v0.5h-2v0v0.5v0h2v0.5h-2.1v0v0.5v0h2.1v0.7h1v-0.7H97
			v0v-0.5v0h-2.1V109.7z"/>
	</g>
	<g>
		<defs>
			<rect id="SVGID_00000065041408544895938160000005256798388141504439_" x="-226.2" y="-271.7" width="1207.6" height="858.9"/>
		</defs>
		<clipPath id="SVGID_00000082344024646813061840000014919860457016495236_">
			<use xlink:href="#SVGID_00000065041408544895938160000005256798388141504439_"  style="overflow:visible;"/>
		</clipPath>
		
			<path id="path780" style="clip-path:url(#SVGID_00000082344024646813061840000014919860457016495236_);fill-rule:evenodd;clip-rule:evenodd;fill:#231F20;" d="
			M88.6,107.5h-1.1v0.3h-2.1v0.9h1v-0.4h3.2v0.4h1v-0.9h-2.1V107.5z"/>
	</g>
	<g>
		<defs>
			<rect id="SVGID_00000098200022333918791700000011930084685814144684_" x="-226.2" y="-271.7" width="1207.6" height="858.9"/>
		</defs>
		<clipPath id="SVGID_00000053518289358581989050000000567513796371618432_">
			<use xlink:href="#SVGID_00000098200022333918791700000011930084685814144684_"  style="overflow:visible;"/>
		</clipPath>
		
			<path id="path782" style="clip-path:url(#SVGID_00000053518289358581989050000000567513796371618432_);fill-rule:evenodd;clip-rule:evenodd;fill:#231F20;" d="
			M85.5,109.3h2.1v0.5h-2v0.5h2v0.6h-2.1v0.5h5.2v-0.5h-0.6v-0.3h-1v0.3h-0.5v-0.6h2v-0.5h-2v-0.5h2.1v-0.5h-5.2V109.3z"/>
	</g>
	<g>
		<defs>
			<rect id="SVGID_00000107587796918829193230000000306828463557827243_" x="-226.2" y="-271.7" width="1207.6" height="858.9"/>
		</defs>
		<clipPath id="SVGID_00000098201619258279015850000016743500388981610667_">
			<use xlink:href="#SVGID_00000107587796918829193230000000306828463557827243_"  style="overflow:visible;"/>
		</clipPath>
		
			<path id="path784" style="clip-path:url(#SVGID_00000098201619258279015850000016743500388981610667_);fill-rule:evenodd;clip-rule:evenodd;fill:#231F20;" d="
			M99.6,109.2L99.6,109.2h1.1v0.2h-1.1V109.2z M99.6,108.6L99.6,108.6h1.1v0.2h-1.1V108.6z M99.6,108.1L99.6,108.1h1.1v0.1h-1.1
			V108.1z M98.6,109.8h4.7v-0.4h-1.5v-0.2h1.4v-0.4h-1.4v-0.2h1.4v-0.4h-1.4v-0.1h1.5v-0.4h-1.5v-0.2h-1v0.2h-0.9l0.2-0.2h-1.2
			l-0.8,1h0.5V109.8z"/>
	</g>
	<g>
		<defs>
			<rect id="SVGID_00000101817612588930424620000016716426749449706154_" x="-226.2" y="-271.7" width="1207.6" height="858.9"/>
		</defs>
		<clipPath id="SVGID_00000005263148285995691350000002266228068738277044_">
			<use xlink:href="#SVGID_00000101817612588930424620000016716426749449706154_"  style="overflow:visible;"/>
		</clipPath>
		
			<path id="path786" style="clip-path:url(#SVGID_00000005263148285995691350000002266228068738277044_);fill-rule:evenodd;clip-rule:evenodd;fill:#231F20;" d="
			M101.3,109.9h-1v0.1h-2.1v0.4H99l-0.6,0.9h1l0.6-0.9h0.3v0.9h1v-0.9h0.4l0.6,0.9h1l-0.6-0.9h0.7V110h-2.1V109.9z"/>
	</g>
	<g>
		<defs>
			<rect id="SVGID_00000145752316530904942830000004170577047564171962_" x="-226.2" y="-271.7" width="1207.6" height="858.9"/>
		</defs>
		<clipPath id="SVGID_00000094608964396391361550000011001183223154401202_">
			<use xlink:href="#SVGID_00000145752316530904942830000004170577047564171962_"  style="overflow:visible;"/>
		</clipPath>
		
			<path id="path788" style="clip-path:url(#SVGID_00000094608964396391361550000011001183223154401202_);fill-rule:evenodd;clip-rule:evenodd;fill:#231F20;" d="
			M105.8,110.7h0.8l0.7-1.7h0.2v1.7h0.8V109h0.3v-0.5h-0.3v-0.3h-0.8v0.3h-1.9v0.5h0.8L105.8,110.7z"/>
	</g>
	<g>
		<defs>
			<rect id="SVGID_00000168095484169509492970000000825578561265243284_" x="-226.2" y="-271.7" width="1207.6" height="858.9"/>
		</defs>
		<clipPath id="SVGID_00000178180559625137244180000009360221978143132553_">
			<use xlink:href="#SVGID_00000168095484169509492970000000825578561265243284_"  style="overflow:visible;"/>
		</clipPath>
		
			<path id="path790" style="clip-path:url(#SVGID_00000178180559625137244180000009360221978143132553_);fill-rule:evenodd;clip-rule:evenodd;fill:#231F20;" d="
			M108.9,110.9L108.9,110.9h-3.5v-3h3.5V110.9z M104.6,111.4h5.1v-3.9h-5.1V111.4z"/>
	</g>
	<g>
		<defs>
			<rect id="SVGID_00000151531512242409059290000006487640335662443654_" x="-226.2" y="-271.7" width="1207.6" height="858.9"/>
		</defs>
		<clipPath id="SVGID_00000091006126722522137660000016088859255987529359_">
			<use xlink:href="#SVGID_00000151531512242409059290000006487640335662443654_"  style="overflow:visible;"/>
		</clipPath>
		
			<path id="path792" style="clip-path:url(#SVGID_00000091006126722522137660000016088859255987529359_);fill-rule:evenodd;clip-rule:evenodd;fill:#231F20;" d="
			M112.2,108.9L112.2,108.9c0.2,0,0.3-0.1,0.3-0.2v0c0-0.1-0.1-0.2-0.3-0.2h-0.4v0.4H112.2z M112.1,108.2L112.1,108.2
			c0.2,0,0.3-0.1,0.3-0.2v0c0-0.1-0.1-0.2-0.3-0.2h-0.4v0.4H112.1z M111.3,107.5h0.8c0.2,0,0.4,0.1,0.5,0.2c0.1,0.1,0.1,0.2,0.1,0.3
			v0c0,0.2-0.1,0.3-0.2,0.4c0.2,0.1,0.3,0.2,0.3,0.4v0c0,0.3-0.3,0.5-0.7,0.5h-0.8V107.5z"/>
	</g>
	<g>
		<defs>
			<rect id="SVGID_00000150817451921069974180000006648713134348546700_" x="-226.2" y="-271.7" width="1207.6" height="858.9"/>
		</defs>
		<clipPath id="SVGID_00000100378670161514306860000014042386310552038797_">
			<use xlink:href="#SVGID_00000150817451921069974180000006648713134348546700_"  style="overflow:visible;"/>
		</clipPath>
		
			<path id="path794" style="clip-path:url(#SVGID_00000100378670161514306860000014042386310552038797_);fill-rule:evenodd;clip-rule:evenodd;fill:#231F20;" d="
			M114.1,108.5L114.1,108.5l-0.2-0.6l-0.2,0.6H114.1z M113.7,107.5h0.4l0.7,1.8h-0.4l-0.2-0.4h-0.7l-0.2,0.4h-0.4L113.7,107.5z"/>
	</g>
	<g>
		<defs>
			<rect id="SVGID_00000008836213453095130520000002700710866750378388_" x="-226.2" y="-271.7" width="1207.6" height="858.9"/>
		</defs>
		<clipPath id="SVGID_00000009567578293497771600000004293329278204236211_">
			<use xlink:href="#SVGID_00000008836213453095130520000002700710866750378388_"  style="overflow:visible;"/>
		</clipPath>
		
			<path id="path796" style="clip-path:url(#SVGID_00000009567578293497771600000004293329278204236211_);fill-rule:evenodd;clip-rule:evenodd;fill:#231F20;" d="
			M116.3,108.4L116.3,108.4L116.3,108.4c0-0.3-0.2-0.6-0.5-0.6c-0.3,0-0.5,0.2-0.5,0.5v0c0,0.3,0.2,0.5,0.5,0.5
			S116.3,108.7,116.3,108.4 M114.8,108.4L114.8,108.4c0-0.5,0.4-0.9,0.9-0.9s0.9,0.4,0.9,0.9v0c0,0.5-0.4,0.9-0.9,0.9
			C115.2,109.3,114.8,108.9,114.8,108.4"/>
	</g>
	<g>
		<defs>
			<rect id="SVGID_00000181084611421376843520000000070525262448384424_" x="-226.2" y="-271.7" width="1207.6" height="858.9"/>
		</defs>
		<clipPath id="SVGID_00000127035190472254398370000005675621670976780165_">
			<use xlink:href="#SVGID_00000181084611421376843520000000070525262448384424_"  style="overflow:visible;"/>
		</clipPath>
		
			<path id="path798" style="clip-path:url(#SVGID_00000127035190472254398370000005675621670976780165_);fill-rule:evenodd;clip-rule:evenodd;fill:#231F20;" d="
			M116.9,107.5h1.3v0.4h-0.9v0.4h0.8v0.3h-0.8v0.7h-0.4V107.5z"/>
	</g>
	<g>
		<defs>
			<rect id="SVGID_00000061444663511226714100000007576884249549583536_" x="-226.2" y="-271.7" width="1207.6" height="858.9"/>
		</defs>
		<clipPath id="SVGID_00000066475318928186147380000004953676620654078082_">
			<use xlink:href="#SVGID_00000061444663511226714100000007576884249549583536_"  style="overflow:visible;"/>
		</clipPath>
		
			<path id="path800" style="clip-path:url(#SVGID_00000066475318928186147380000004953676620654078082_);fill-rule:evenodd;clip-rule:evenodd;fill:#231F20;" d="
			M118.5,107.5h1.3v0.3h-0.9v0.4h0.8v0.3h-0.8v0.4h0.9v0.3h-1.3V107.5z"/>
	</g>
	<g>
		<defs>
			<rect id="SVGID_00000170966586108729830980000003188078572565453711_" x="-226.2" y="-271.7" width="1207.6" height="858.9"/>
		</defs>
		<clipPath id="SVGID_00000124161251585031222060000015210440593629416376_">
			<use xlink:href="#SVGID_00000170966586108729830980000003188078572565453711_"  style="overflow:visible;"/>
		</clipPath>
		
			<path id="path802" style="clip-path:url(#SVGID_00000124161251585031222060000015210440593629416376_);fill-rule:evenodd;clip-rule:evenodd;fill:#231F20;" d="
			M120.1,107.5h0.4l0.8,1.1v-1.1h0.4v1.7h-0.3l-0.8-1.1v1.1h-0.4V107.5z"/>
	</g>
	<g>
		<defs>
			<rect id="SVGID_00000093861870376740335060000000430303554948627332_" x="-226.2" y="-271.7" width="1207.6" height="858.9"/>
		</defs>
		<clipPath id="SVGID_00000129905750320749695460000006149663889658080187_">
			<use xlink:href="#SVGID_00000093861870376740335060000000430303554948627332_"  style="overflow:visible;"/>
		</clipPath>
		
			<path id="path804" style="clip-path:url(#SVGID_00000129905750320749695460000006149663889658080187_);fill-rule:evenodd;clip-rule:evenodd;fill:#231F20;" d="
			M122,108.4L122,108.4c0-0.5,0.4-0.9,0.9-0.9c0.3,0,0.5,0.1,0.7,0.2l-0.2,0.3c-0.1-0.1-0.3-0.2-0.5-0.2c-0.3,0-0.5,0.2-0.5,0.5v0
			c0,0.3,0.2,0.6,0.5,0.6c0.1,0,0.3,0,0.4-0.1v-0.2h-0.4v-0.3h0.8v0.8c-0.2,0.2-0.4,0.3-0.7,0.3C122.3,109.3,122,108.9,122,108.4"/>
	</g>
	<g>
		<defs>
			<rect id="SVGID_00000127756532847678259710000006024965797726177971_" x="-226.2" y="-271.7" width="1207.6" height="858.9"/>
		</defs>
		<clipPath id="SVGID_00000099643632379429700250000012130806145661082246_">
			<use xlink:href="#SVGID_00000127756532847678259710000006024965797726177971_"  style="overflow:visible;"/>
		</clipPath>
		
			<path id="path806" style="clip-path:url(#SVGID_00000099643632379429700250000012130806145661082246_);fill-rule:evenodd;clip-rule:evenodd;fill:#231F20;" d="
			M111.3,110.5L111.3,110.5c0-0.5,0.4-0.9,0.9-0.9c0.3,0,0.5,0.1,0.7,0.2l-0.2,0.3c-0.1-0.1-0.3-0.2-0.5-0.2c-0.3,0-0.5,0.2-0.5,0.5
			v0c0,0.3,0.2,0.6,0.5,0.6c0.1,0,0.3,0,0.4-0.1v-0.2h-0.4v-0.3h0.8v0.8c-0.2,0.2-0.4,0.3-0.7,0.3
			C111.7,111.4,111.3,111,111.3,110.5"/>
	</g>
	<g>
		<defs>
			<rect id="SVGID_00000091011318805929001180000004137776776034513804_" x="-226.2" y="-271.7" width="1207.6" height="858.9"/>
		</defs>
		<clipPath id="SVGID_00000127040724487694766230000000517773006787769222_">
			<use xlink:href="#SVGID_00000091011318805929001180000004137776776034513804_"  style="overflow:visible;"/>
		</clipPath>
		
			<path id="path808" style="clip-path:url(#SVGID_00000127040724487694766230000000517773006787769222_);fill-rule:evenodd;clip-rule:evenodd;fill:#231F20;" d="
			M114.1,110.5L114.1,110.5c0.2,0,0.3-0.1,0.3-0.2v0c0-0.2-0.1-0.2-0.3-0.2h-0.4v0.5H114.1z M113.3,109.6h0.8c0.2,0,0.4,0.1,0.5,0.2
			c0.1,0.1,0.2,0.2,0.2,0.4v0c0,0.3-0.2,0.5-0.4,0.5l0.4,0.6h-0.4l-0.4-0.6h0h-0.3v0.6h-0.4V109.6z"/>
	</g>
	<g>
		<defs>
			<rect id="SVGID_00000059309617763751314110000014573241145663025048_" x="-226.2" y="-271.7" width="1207.6" height="858.9"/>
		</defs>
		<clipPath id="SVGID_00000174564153694634139900000002731772395233041566_">
			<use xlink:href="#SVGID_00000059309617763751314110000014573241145663025048_"  style="overflow:visible;"/>
		</clipPath>
		
			<path id="path810" style="clip-path:url(#SVGID_00000174564153694634139900000002731772395233041566_);fill-rule:evenodd;clip-rule:evenodd;fill:#231F20;" d="
			M116.4,110.5L116.4,110.5L116.4,110.5c0-0.3-0.2-0.6-0.5-0.6c-0.3,0-0.5,0.2-0.5,0.5v0c0,0.3,0.2,0.5,0.5,0.5
			S116.4,110.8,116.4,110.5 M115,110.5L115,110.5c0-0.5,0.4-0.9,0.9-0.9s0.9,0.4,0.9,0.9v0c0,0.5-0.4,0.9-0.9,0.9
			C115.4,111.4,115,111,115,110.5"/>
	</g>
	<g>
		<defs>
			<rect id="SVGID_00000021824184976752551150000007658901017216034235_" x="-226.2" y="-271.7" width="1207.6" height="858.9"/>
		</defs>
		<clipPath id="SVGID_00000036957225873766261030000003974813943840474291_">
			<use xlink:href="#SVGID_00000021824184976752551150000007658901017216034235_"  style="overflow:visible;"/>
		</clipPath>
		
			<path id="path812" style="clip-path:url(#SVGID_00000036957225873766261030000003974813943840474291_);fill-rule:evenodd;clip-rule:evenodd;fill:#231F20;" d="
			M117.1,110.6v-1h0.4v1c0,0.3,0.1,0.4,0.4,0.4c0.2,0,0.4-0.1,0.4-0.4v-1h0.4v1c0,0.5-0.3,0.8-0.8,0.8S117.1,111.2,117.1,110.6"/>
	</g>
	<g>
		<defs>
			<rect id="SVGID_00000094600481220840332450000010583362158118606498_" x="-226.2" y="-271.7" width="1207.6" height="858.9"/>
		</defs>
		<clipPath id="SVGID_00000016757590986565239490000006529939050015301563_">
			<use xlink:href="#SVGID_00000094600481220840332450000010583362158118606498_"  style="overflow:visible;"/>
		</clipPath>
		
			<path id="path814" style="clip-path:url(#SVGID_00000016757590986565239490000006529939050015301563_);fill-rule:evenodd;clip-rule:evenodd;fill:#231F20;" d="
			M119.6,110.5L119.6,110.5c0.2,0,0.3-0.1,0.3-0.3v0c0-0.2-0.1-0.3-0.3-0.3h-0.3v0.5H119.6z M118.9,109.7h0.7c0.4,0,0.7,0.2,0.7,0.6
			v0c0,0.4-0.3,0.6-0.7,0.6h-0.3v0.5h-0.4V109.7z"/>
	</g>
</g>
</svg>
