<?xml version="1.0" encoding="UTF-8" standalone="no"?>
<!-- Created with Inkscape (http://www.inkscape.org/) -->

<svg
   width="21.040211mm"
   height="13.802436mm"
   viewBox="0 0 21.040211 13.802436"
   version="1.1"
   id="svg1"
   xmlns="http://www.w3.org/2000/svg"
   xmlns:svg="http://www.w3.org/2000/svg">
  <defs
     id="defs1">
    <clipPath
       clipPathUnits="userSpaceOnUse"
       id="clipPath2274">
      <path
         d="M 0,858.898 H 1207.558 V 0 H 0 Z"
         transform="translate(-78.517002,-225.52311)"
         id="path2274" />
    </clipPath>
    <clipPath
       clipPathUnits="userSpaceOnUse"
       id="clipPath2276">
      <path
         d="M 0,858.898 H 1207.558 V 0 H 0 Z"
         transform="translate(-83.212402,-214.3452)"
         id="path2276" />
    </clipPath>
    <clipPath
       clipPathUnits="userSpaceOnUse"
       id="clipPath2278">
      <path
         d="M 0,858.898 H 1207.558 V 0 H 0 Z"
         transform="translate(-92.974402,-209.7069)"
         id="path2278" />
    </clipPath>
    <clipPath
       clipPathUnits="userSpaceOnUse"
       id="clipPath2280">
      <path
         d="M 0,858.898 H 1207.558 V 0 H 0 Z"
         transform="translate(-99.029602,-214.68351)"
         id="path2280" />
    </clipPath>
    <clipPath
       clipPathUnits="userSpaceOnUse"
       id="clipPath2282">
      <path
         d="M 0,858.898 H 1207.558 V 0 H 0 Z"
         transform="translate(-109.57481,-213.04041)"
         id="path2282" />
    </clipPath>
    <clipPath
       clipPathUnits="userSpaceOnUse"
       id="clipPath2284">
      <path
         d="M 0,858.898 H 1207.558 V 0 H 0 Z"
         transform="translate(-99.635902,-230.24921)"
         id="path2284" />
    </clipPath>
    <clipPath
       clipPathUnits="userSpaceOnUse"
       id="clipPath2286">
      <path
         d="M 0,858.898 H 1207.558 V 0 H 0 Z"
         transform="translate(-89.2686,-226.41491)"
         id="path2286" />
    </clipPath>
    <clipPath
       clipPathUnits="userSpaceOnUse"
       id="clipPath2288">
      <path
         d="M 0,858.898 H 1207.558 V 0 H 0 Z"
         transform="translate(-81.702102,-202.84671)"
         id="path2288" />
    </clipPath>
  </defs>
  <g
     id="layer1"
     transform="translate(-17.394014,-152.36746)">
    <path
       id="path2273"
       d="M 0,0 C 5.228,2.961 11.217,4.37 17.184,4.709 16.519,4.597 15.853,4.487 15.191,4.36 9.841,3.261 5.053,-0.226 2.319,-4.949 1.911,-5.618 1.599,-6.337 1.239,-7.032 0.12,-7.283 -0.972,-7.644 -2.059,-8.01 c -1.891,-0.679 -3.764,-1.479 -5.4,-2.661 -1.038,-0.763 -2.02,-1.728 -2.414,-2.987 -0.235,-0.698 -0.188,-1.471 0.079,-2.154 0.332,-0.897 0.998,-1.619 1.699,-2.248 1.248,-1.065 2.725,-1.816 4.222,-2.461 1.587,-0.665 3.226,-1.205 4.892,-1.625 1.646,-4.091 4.691,-7.601 8.524,-9.784 2.275,-1.312 4.821,-2.117 7.423,-2.441 -0.965,-0.014 -1.922,0.135 -2.88,0.232 -4.854,0.579 -9.649,1.963 -13.936,4.341 -2.488,1.394 -4.811,3.135 -6.669,5.312 -1.967,2.272 -3.412,5.075 -3.754,8.086 -0.389,3.063 0.418,6.208 2.033,8.818 C -6.268,-4.346 -3.268,-1.855 0,0"
       style="fill:#2f4c90;fill-opacity:1;fill-rule:nonzero;stroke:none"
       transform="matrix(0.35277776,0,0,-0.35277776,21.052189,154.03473)"
       clip-path="url(#clipPath2274)" />
    <path
       id="path2275"
       d="M 0,0 C 0.852,0.468 1.855,0.521 2.805,0.456 3.511,0.389 4.23,0.176 4.776,-0.295 5.307,-0.745 5.621,-1.388 5.86,-2.029 5.129,-2.19 4.401,-2.363 3.67,-2.515 3.531,-2.047 3.202,-1.616 2.726,-1.459 2.17,-1.294 1.501,-1.42 1.114,-1.874 0.654,-2.397 0.622,-3.141 0.63,-3.804 0.651,-4.372 0.679,-4.992 1.02,-5.475 1.449,-6.03 2.271,-6.099 2.882,-5.839 3.429,-5.583 3.628,-4.951 3.752,-4.408 4.481,-4.645 5.22,-4.849 5.951,-5.08 5.715,-5.901 5.331,-6.735 4.605,-7.234 3.547,-7.979 2.148,-7.934 0.928,-7.716 c -1.308,0.223 -2.282,1.363 -2.611,2.603 -0.251,0.991 -0.238,2.05 0.037,3.034 C -1.407,-1.204 -0.813,-0.418 0,0"
       style="fill:#2f4c90;fill-opacity:1;fill-rule:nonzero;stroke:none"
       transform="matrix(0.35277776,0,0,-0.35277776,22.708622,157.97804)"
       clip-path="url(#clipPath2276)" />
    <path
       id="path2277"
       d="M 0,0 C 0.58,0 1.16,0.008 1.741,0.002 1.481,0.962 1.16,1.906 0.892,2.864 0.559,1.922 0.331,0.945 0,0 M -0.438,4.986 C 0.457,4.984 1.353,4.977 2.248,4.993 3.269,2.307 4.255,-0.393 5.269,-3.083 c -0.867,0.009 -1.733,-0.002 -2.6,0.015 -0.129,0.443 -0.266,0.882 -0.4,1.323 -0.938,-0.024 -1.878,0.023 -2.816,-0.022 -0.104,-0.445 -0.235,-0.882 -0.384,-1.314 -0.841,-0.008 -1.681,0.017 -2.522,0.006 1.016,2.683 2.011,5.374 3.015,8.061"
       style="fill:#2f4c90;fill-opacity:1;fill-rule:nonzero;stroke:none"
       transform="matrix(0.35277776,0,0,-0.35277776,26.152438,159.61433)"
       clip-path="url(#clipPath2278)" />
    <path
       id="path2279"
       d="M 0,0 C 2.207,-0.022 4.414,0.008 6.621,-0.012 6.627,-0.581 6.626,-1.151 6.62,-1.721 5.242,-1.741 3.864,-1.72 2.487,-1.73 2.486,-2.154 2.482,-2.579 2.489,-3.004 3.77,-2.997 5.05,-2.996 6.332,-3.003 6.319,-3.554 6.339,-4.107 6.314,-4.658 5.033,-4.646 3.751,-4.647 2.469,-4.645 2.471,-5.174 2.454,-5.705 2.497,-6.233 3.91,-6.239 5.325,-6.234 6.738,-6.231 6.745,-6.838 6.739,-7.447 6.741,-8.056 4.492,-8.049 2.245,-8.05 -0.003,-8.045 -0.002,-5.364 -0.005,-2.682 0,0"
       style="fill:#2f4c90;fill-opacity:1;fill-rule:nonzero;stroke:none"
       transform="matrix(0.35277776,0,0,-0.35277776,28.288578,157.8587)"
       clip-path="url(#clipPath2280)" />
    <path
       id="path2281"
       d="m 0,0 c 0.002,-0.594 -0.018,-1.189 -0.002,-1.784 0.538,0.022 1.157,-0.088 1.618,0.257 0.487,0.37 0.321,1.239 -0.245,1.437 C 0.928,0.051 0.456,-0.009 0,0 m -2.489,1.649 c 1.398,-0.02 2.795,0 4.194,10e-4 C 2.419,1.639 3.199,1.479 3.709,0.939 4.277,0.323 4.399,-0.577 4.276,-1.378 4.17,-2.119 3.7,-2.824 3.001,-3.12 2.059,-3.55 0.999,-3.393 -0.002,-3.43 c -0.01,-0.996 0.001,-1.994 -0.012,-2.99 -0.827,0.027 -1.654,-0.011 -2.48,0.029 0.015,2.68 -0.006,5.36 0.005,8.04"
       style="fill:#2f4c90;fill-opacity:1;fill-rule:nonzero;stroke:none"
       transform="matrix(0.35277776,0,0,-0.35277776,32.008692,158.43835)"
       clip-path="url(#clipPath2282)" />
    <path
       id="path2283"
       d="m 0,0 c 4.291,-0.146 8.574,-0.917 12.621,-2.366 3.563,-1.296 6.975,-3.127 9.807,-5.669 1.583,-1.411 2.952,-3.071 3.976,-4.932 1.074,-1.958 1.692,-4.17 1.748,-6.404 0.03,-2.384 -0.607,-4.753 -1.752,-6.838 -1.837,-3.348 -4.786,-5.96 -8.037,-7.899 -5.254,-3.108 -11.328,-4.628 -17.385,-5.017 -0.228,10e-4 -0.453,0.017 -0.678,0.039 3.839,0.357 7.532,1.961 10.476,4.442 2.463,2.042 4.392,4.714 5.611,7.67 2.246,0.592 4.476,1.297 6.562,2.333 1.558,0.803 3.119,1.764 4.142,3.224 0.639,0.903 0.86,2.098 0.507,3.154 -0.359,1.007 -1.098,1.823 -1.911,2.494 -1.449,1.193 -3.164,2.001 -4.903,2.676 -1.504,0.586 -3.057,1.039 -4.619,1.44 -1.833,4.119 -5.105,7.586 -9.141,9.607 C 5.75,-1.389 4.391,-0.908 3.007,-0.54 2.019,-0.289 1.004,-0.168 0,0"
       style="fill:#649f4e;fill-opacity:1;fill-rule:nonzero;stroke:none"
       transform="matrix(0.35277776,0,0,-0.35277776,28.502468,152.36746)"
       clip-path="url(#clipPath2284)" />
    <path
       id="path2285"
       d="m 0,0 c 2.846,1.578 6.145,2.304 9.39,2.151 3.539,-0.174 7.031,-1.402 9.861,-3.543 2.121,-1.558 3.836,-3.623 5.094,-5.927 -3.586,0.744 -7.234,1.17 -10.891,1.328 -4.54,0.242 -9.099,0.14 -13.624,-0.308 -2.394,-0.244 -4.781,-0.577 -7.133,-1.092 0.383,0.783 0.872,1.51 1.393,2.207 1.536,2.15 3.584,3.932 5.91,5.184"
       style="fill:#97b5d2;fill-opacity:1;fill-rule:nonzero;stroke:none"
       transform="matrix(0.35277776,0,0,-0.35277776,24.845114,153.72012)"
       clip-path="url(#clipPath2286)" />
    <path
       id="path2287"
       d="m 0,0 c 5.023,-1.081 10.165,-1.531 15.297,-1.597 5.671,-0.058 11.354,0.409 16.918,1.519 C 31.637,-1.096 31.066,-2.125 30.342,-3.051 27.926,-6.267 24.37,-8.592 20.468,-9.554 16.064,-10.697 11.239,-10.019 7.283,-7.788 4.144,-6.011 1.559,-3.253 0,0"
       style="fill:#97b5d2;fill-opacity:1;fill-rule:nonzero;stroke:none"
       transform="matrix(0.35277776,0,0,-0.35277776,22.175822,162.03446)"
       clip-path="url(#clipPath2288)" />
  </g>
</svg>
