<?xml version="1.0" encoding="utf-8"?>
<!-- Generator: Adobe Illustrator 28.0.0, SVG Export Plug-In . SVG Version: 6.00 Build 0)  -->
<svg version="1.1" id="svg1" xmlns:svg="http://www.w3.org/2000/svg"
	 xmlns="http://www.w3.org/2000/svg" xmlns:xlink="http://www.w3.org/1999/xlink" x="0px" y="0px" viewBox="0 0 39.1 39.1"
	 style="enable-background:new 0 0 39.1 39.1;" xml:space="preserve">
<style type="text/css">
	
		.st0{clip-path:url(#SVGID_00000165233561785041797490000016156689269115285664_);fill-rule:evenodd;clip-rule:evenodd;fill:#3B71B4;}
	
		.st1{clip-path:url(#SVGID_00000118356622537820348430000002454143288720559760_);fill-rule:evenodd;clip-rule:evenodd;fill:#3B71B4;}
	
		.st2{clip-path:url(#SVGID_00000057125257939107336200000001460214071050344611_);fill-rule:evenodd;clip-rule:evenodd;fill:#3B71B4;}
	
		.st3{clip-path:url(#SVGID_00000146489855047145711980000009640468944268433570_);fill-rule:evenodd;clip-rule:evenodd;fill:#3B71B4;}
	
		.st4{clip-path:url(#SVGID_00000051342571679360404590000009471242739925175215_);fill-rule:evenodd;clip-rule:evenodd;fill:#3B71B4;}
	
		.st5{clip-path:url(#SVGID_00000019658476286404340100000005205042164800543918_);fill-rule:evenodd;clip-rule:evenodd;fill:#3B71B4;}
	
		.st6{clip-path:url(#SVGID_00000178200639716009128140000016226981657619083655_);fill-rule:evenodd;clip-rule:evenodd;fill:#3B71B4;}
	
		.st7{clip-path:url(#SVGID_00000041283954043508165790000008627347831694865086_);fill-rule:evenodd;clip-rule:evenodd;fill:#3B71B4;}
</style>
<g id="layer1" transform="translate(-125.88375,-152.36743)">
	<g>
		<defs>
			<rect id="SVGID_1_" x="-249.8" y="-476.3" width="1207.6" height="858.9"/>
		</defs>
		<clipPath id="SVGID_00000170999104545710126940000000437348737500215463_">
			<use xlink:href="#SVGID_1_"  style="overflow:visible;"/>
		</clipPath>
		
			<path id="path2893" style="clip-path:url(#SVGID_00000170999104545710126940000000437348737500215463_);fill-rule:evenodd;clip-rule:evenodd;fill:#3B71B4;" d="
			M154.2,183.3l-0.2,0.1l-0.2,0.1l-0.2,0.1l-0.2,0.1v0l-0.1,0l-0.1-0.3l-0.1-0.3l0-0.2l-0.1-0.2l-0.1-0.1l-0.1-0.1l-0.1-0.1l-0.1,0
			l-0.1,0l-0.1,0l-0.2,0.1v0.1l0,0.1l0,0.1l0.1,0.1l0.1,0.2l0.1,0.1l0,0.1l0.1,0.3l0.1,0.3l0.1,0.2l0,0.1l0.1,0.1l-0.2,0.2l-0.2,0.2
			l-0.3,0.4l0,0.1l0.1,0.1l0.1,0.1l0.1-0.1l0.1-0.1l0.1-0.1l0.1-0.1l0.2,0.2l-0.1,0l0,0.3v0.2l0,0.2l0,0.2l-0.1,0.2l-0.1,0.2
			l-0.2,0.4l0,0l0.1,0h0.1h0.1l0.1-0.1l0.1-0.1l0.1-0.1l0.1-0.1l0-0.1l0-0.1l0.1-0.3l0.1-0.2l0.1-0.2l0-0.2l0-0.2l0-0.2l-0.1-0.2
			l0.1-0.1l0.1,0l0.1,0.1l0.3,0.2l0.3,0.2l0.3,0.2l0.2,0.1l0.2,0.1l0.2,0.1l0.2,0h0.2l0.2,0l0.2-0.1l0.2-0.1l0.1-0.1l0-0.1l0.1-0.1
			l0.1-0.1l0-0.1l0.1-0.1l0.1-0.1l0-0.1l-0.5,0l-0.4,0l-0.4,0H155h-0.2l-0.1,0l-0.1,0l-0.2-0.1l-0.1,0l-0.1,0H154l-0.2,0.1l0-0.1
			l0-0.1l0-0.1l0-0.1l0-0.1l0-0.1l0-0.1l0.1-0.1l0-0.1l0.1-0.1l0.1-0.1l0.1-0.1l0-0.1l0-0.1l0-0.1v-0.1l0-0.1l0-0.1L154.2,183.3z
			 M149.1,185.8l-0.1,0.1l-0.1,0.1l-0.2,0.2l-0.1,0.1l-0.1,0.1l-0.1,0.1l0,0.1l0,0.1l0,0.1l0.1,0.1h0.1l0.1,0l0.1,0l0.1-0.1l0.1-0.1
			l0.1-0.1l0.1-0.1l0,0v0.1l0,0.1l-0.1,0.2l-0.1,0.2l-0.1,0.2l-0.1,0.1l-0.1,0.1l-0.1,0.1l-0.1,0.1l-0.1,0.1l-0.1,0l-0.1,0.1
			l-0.1,0.1l-0.2,0.2l-0.2,0.2l0,0.1l0.1,0.1l0.1,0.1l0.1,0.1l0.1,0l0.1,0l0.1-0.1l0.1-0.1l0.2-0.1l0.2-0.1l0.1,0l0.1,0l0.2-0.1
			l0.3-0.2l0.4-0.2l0.2-0.1l0.2-0.1l0.2-0.1l0.2,0l0.1-0.1l0.1-0.1l0-0.1v-0.1v-0.1l0-0.1l-0.2,0h-0.2l-0.2,0.1l-0.3,0.1l-0.2,0.1
			l-0.1,0l-0.1,0l0,0l0,0l0.1-0.1l0.1-0.1l0.1-0.1l0.1-0.1l0.1-0.2l0.1-0.2l-0.1-0.2l-0.1-0.1l-0.1-0.1l-0.1-0.1l-0.1,0h-0.1l-0.1,0
			L149.1,185.8z M142.7,187.5L142.7,187.5L142.7,187.5l0.2-0.2l0.1-0.1l0.1-0.1l-0.1,0l-0.1,0l-0.1,0.1l-0.1,0.1l-0.1,0.1l0,0.1v0.1
			L142.7,187.5L142.7,187.5z M143.9,187.3L143.9,187.3l-0.2,0.5l-0.3,0.5l-0.2,0.3l-0.1,0.2l-0.1,0.1l-0.1,0.1L143,189l-0.1,0
			l-0.1-0.1l0-0.2l0-0.2l0-0.2l0.1-0.2l0.1-0.3l0-0.2v-0.2l0,0l-0.1,0.2l-0.2,0.1l-0.1,0h-0.1l-0.1,0l0,0l0,0l0-0.1v-0.1l0-0.1
			l0-0.1l0-0.1l0-0.1l0-0.1l0.1,0l0.1,0l0.2,0l0.2,0h0.1l0.1,0l0.2-0.7l-0.2,0l-0.1,0l-0.1,0h-0.1l-0.1,0l-0.1-0.1v-0.2l0.1-0.1
			l0.1-0.1l0.1-0.1l0.1-0.1l0.3-0.1l0.1-0.1l0.1-0.1h0.1h0l0,0l0.1,0.1v0.1l0,0.1l-0.1,0.1l-0.1,0.1l-0.1,0.2l-0.1,0.1l-0.1,0.1
			l-0.2,0.7v0.1v0.1l0,0.1l0,0.1v0.1v0.1l-0.1,0.2l-0.1,0.2L143,188l-0.1,0.2l0,0.2l0,0.2l0,0.2l0.1-0.1l0.1-0.1l0.1-0.2l0.1-0.2
			l0.1-0.2l0.1-0.2l0.1-0.2l0.1-0.2l0.1-0.1L143.9,187.3L143.9,187.3z M144.9,188.4L144.9,188.4h0.2h0.2h0.2h0.2l0.2,0l0.1,0l0.1,0
			l0.1,0.1l0.1,0.1l0,0.1l0,0.1l-0.1,0l0,0l-0.1,0.1l-0.1,0.1l-0.1,0l-0.1,0h-0.1h-0.1l-0.1,0l-0.1-0.1l-0.1,0l-0.2,0h-0.2l-0.3,0
			L144,189l-0.1-0.1l0-0.1l-0.1-0.1l0-0.1v-0.1l0.1,0l0.1,0l0.1-0.1l0.2-0.1l0.1,0l0.1,0l0.1-0.3l-0.1-0.1l-0.1-0.1l0,0l0-0.1l0-0.1
			v-0.1l0.1,0l0.1-0.1l0.1-0.1l0.1-0.1l0.1-0.1l0-0.1l0-0.1l0-0.1h-0.1h-0.1l-0.2-0.1l0,0l0,0.1l-0.1,0l-0.1,0l-0.2-0.1V187l-0.1,0
			l0,0l0-0.1l0-0.1v-0.1l0-0.1l0-0.2l0.1-0.1l0.1-0.1l0.1-0.1l0.1-0.1h0.1l0.2,0.1l0,0.7h0.1l0,0l0,0h0.1h0.1l0,0l0,0l0.1-0.1l0-0.1
			v0l0.1-0.1v-0.1l0-0.1l-0.1,0l-0.1-0.1l-0.1,0l0-0.1v-0.1v-0.1l0-0.1l0.1-0.1l0.1-0.1l0.1-0.1l0.1-0.1l0.1-0.1l0-0.1l0-0.1h0
			l0.2,0.1v0.1h0.1l0,0.1l0,0l0.1,0.1v0.1v0.1l-0.1,0l-0.1,0l-0.1,0.1l0,0.1l-0.1,0.1l0,0.1l0.1,0.1l0.1-0.1l0.1-0.1l0.1-0.2
			l0.1-0.2l0.1-0.2l0.1-0.2l0-0.2v-0.1l0-0.1l-0.1-0.1h-0.2l-0.2,0.1l-0.2,0.1l-0.2,0.1l-0.3,0.2l-0.1,0.1l-0.2,0.1l-0.1,0l0,0v-0.1
			v0l0-0.1l0.1-0.1l0,0h0v-0.1l0.2-0.1l0.2-0.1l0.2-0.1l0.1-0.1l0.1,0l0.1,0h0.1h0.1l0.1,0l0.1,0l0.1,0.1l0.1,0.1l0.1,0.1l0.1,0.1
			l0,0.1l0,0.1l0,0.1l0,0.1l0,0.1l0,0.1l0,0.1l-0.1,0.2l-0.1,0.2l-0.1,0.2l-0.1,0.2l-0.1,0.1l-0.1,0.1l-0.1,0.1L145,187l0,0.5h0.3
			l0,0l0,0h0.1l0.2,0v0.2l-0.1,0v0.1l-0.1,0h-0.1l-0.1,0l-0.1,0l-0.2,0.1l-0.1,0.1v0.2L144.9,188.4L144.9,188.4z M138.4,186.5
			l-0.1,0.2l-0.1,0.2l-0.1,0.2l0,0.1v0.1l0,0l-0.2-0.1l-0.3-0.2l-0.4-0.2l-0.1-0.1l-0.1-0.1l-0.1-0.1l-0.1-0.2l-0.1-0.3l0-0.2
			l0.1-0.2l0.1-0.1l0.1-0.1l0.1-0.1l0.1-0.1l0.1-0.1l0.1-0.1l0-0.1l0-0.1l0-0.1l-0.1-0.1l-0.1-0.1l-0.1,0h-0.1h-0.1l-0.1,0l0,0.1
			l0,0.1l0,0.1v0.1l0,0.1l0,0.1l-0.1,0.2l-0.1,0.1l-0.1,0.1l-0.1,0.1l-0.1,0.1l0,0.1v0.2v0.2l-0.1,0l0,0l-0.1,0l-0.1,0l-0.1,0
			l-0.1,0v0.1l0.1,0.1l0.1,0l0.3,0.1l0.2,0l0.1,0l0.1,0.1l0.1,0.1l0.3,0.3l0.3,0.3l0.6,0.5l0.1,0.1l0.1,0.1l0.1,0l0.2,0l0.3,0l0.1,0
			l0.1,0l0.2-0.1l0-0.1v-0.1l0-0.1l0,0l-1.2-0.6l0,0l0,0l0,0l0,0l0,0l0.1-0.1l0.1-0.1l0.1-0.2l0.1-0.2l0-0.1l0.1-0.1l0.1,0l0.1,0
			l0.1,0l0.1,0l0-0.2l0-0.1l-0.1,0l-0.1,0l-0.1,0l0-0.1v-0.1l0-0.1l0.1-0.1l0.1-0.1l0.1-0.2l0.1-0.1l0-0.1l0.1,0l0.1-0.1l0.1-0.1
			l0.1-0.1l-0.1-0.1l-0.1-0.1l0-0.1l0-0.1v-0.1l0-0.1l-0.1-0.1l-0.1,0l-0.1,0.1l-0.1,0.1l-0.1,0.1l-0.1,0.1l-0.1,0.1l-0.1,0h-0.1
			l-0.1,0v0l0.2-0.2l0.2-0.3l0.1-0.1l0.1-0.1l0.1-0.1l0.1-0.1l0.2,0l0.1,0l0.2,0h0.1l0.1,0l0.1-0.1l0.1-0.1l0-0.1l0-0.1l0-0.1l0,0
			l-0.1-0.1l-0.1-0.1l-0.1-0.1l0,0l0-0.1l0-0.1v-0.1v-0.1l0-0.1l-0.1-0.1l-0.1,0l-0.2,0l-0.1,0.2l-0.1,0.2l-0.1,0.1l-0.1,0.1
			l-0.1,0.1l-0.1,0l-0.2,0l-0.2,0h-0.1l-0.1,0l-0.1,0l-0.1,0.1l0,0l0,0l0,0.1v0.1l0,0.1l0,0l0.1,0l0.1,0l0.2,0v0l-0.1,0.1l-0.1,0.1
			l-0.2,0.2l-0.1,0.1l-0.1,0.1l-0.1,0.1l0,0.1v0.1v0.1l0,0.1l0,0.1l0.1,0l0.1,0.1l0.1,0l0.1,0h0.1l0.2-0.1l0.1,0l0,0l-0.1,0.2
			l-0.1,0.2l-0.1,0.3h-0.1h-0.1l-0.2,0.1l-0.1,0l-0.1,0h-0.1l-0.1,0l0,0l0,0.1l0.1,0.1l0.1,0l0.1,0l0.1,0l0.2,0h0.1L138.4,186.5z
			 M133.5,182.6L133.5,182.6l0.1-0.2l0-0.1v-0.1l-0.1-0.1l-0.1-0.1v0l0,0l0.1-0.1l0.1-0.1l0.1,0l0.3-0.1l0.1,0l0.1-0.1l0.2,0.2
			l0.2,0.1l0.2,0.1l0.2,0.1l0.1,0l0.1,0h0.1l0.1,0l0.1,0l0-0.1l0-0.1l0-0.1l-0.1-0.1l-0.1-0.1l-0.2-0.2l-0.1-0.1v0l0.1-0.1l0.1-0.1
			l0.3-0.1l0.3-0.2l0.1-0.1l0.1-0.1l0-0.3l-0.3-0.1l-0.1,0l-0.1,0l-0.2,0.1l-0.2,0.1l-0.2,0.1l-0.2,0.1l-0.2,0.1l-0.2,0.1l-0.1,0
			l-0.1,0l-0.1,0l-0.1,0l-0.1-0.1l-0.1-0.1l-0.2-0.2l-0.1-0.1l-0.1-0.1l-0.1,0l-0.1,0l-0.2,0l0,0.2l0,0.2l0.1,0.1l0.1,0.1l0.1,0.1
			l0.1,0.1l0,0.1l0,0.1l-0.1,0.1l-0.1,0.1l-0.1,0l-0.4,0.1l-0.4,0.1l-0.2,0H132h-0.2l-0.2,0l-0.1,0l-0.2-0.1l-0.1-0.1l-0.1,0h0
			l0,0.1l0.1,0.1l0,0.1l0.1,0l0.1,0.1l0.1,0l0.1,0.1l0.1,0.1l0.1,0.1l0.1,0l0.1,0l0.2,0l0.2,0l0.3,0l0.3,0l0.2,0h0.2v0l-0.1,0.4
			L133,183l-0.1,0.3l-0.1,0.3l0,0.2v0.1v0.1l0.1,0.2l0.1,0.2l0.2,0.3l0.2-0.2l0-0.4l0-0.5v-0.3l0-0.3l0-0.1l0-0.1l0-0.1L133.5,182.6
			L133.5,182.6z M159.6,181.1L159.6,181.1l0.1,0.1l0.1,0.1l0.1,0.1l0.1,0.2l0,0.2v0.2l0,0.1l0,0.1l0,0.1l-0.1,0.1l-0.1,0l-0.1,0.1
			l-0.2-0.1l0-0.1l0.1,0l0.1-0.1l-0.1-0.2l0-0.2l-0.1-0.2v-0.2l-0.2-0.1l-0.1-0.1l-0.1-0.1l-0.1-0.1l0,0l-0.2,0.7l-0.2,0.6l-0.1,0
			l-0.1,0.1l-0.1-0.1l0-0.1v-0.1v-0.1l0-0.1l0-0.3l0-0.3l0.1-0.3l0.1-0.3l-0.1-0.1l-0.1,0h-0.1l-0.1,0h-0.1l-0.1,0l-0.1,0l-0.1-0.2
			l-0.1-0.1l-0.1-0.1H158l-0.1,0.1l-0.1,0.1h-0.1l-0.1,0l0-0.1v-0.1l0-0.1l0-0.1l0-0.1l0-0.1l0.1-0.1l0.1-0.1l0.1,0l0.1,0h0.1l0.1,0
			l0,0.1l0,0.1l0.1,0.1l0.1,0.1l0.1,0.2l0,0.1l0.1,0.1l0.1,0l0.1,0l0.1,0l0.1,0l0.1-0.2l0.1-0.3l0.1-0.1l0.1-0.1l0.1-0.1l0.1,0
			l0.1,0l0.2,0.1l0.1,0.2l-0.2,0.4l-0.1,0.2l-0.1,0.1l0,0.1l0,0.1l0.1,0.1l0.1,0.1L159.6,181.1z M157,181.7L157,181.7l-0.1,0.1
			l0,0.3l0.2,0.2l0.1,0.1l0.1,0.1l0.1,0.1l0.1,0.1h0.1h0.1l0.1,0l0-0.1l0-0.1l0-0.1l0-0.1l0-0.1l-0.2-0.1l-0.2-0.1l-0.2-0.1
			L157,181.7L157,181.7z M157,181L157,181l0.1,0.3l0,0.1v0.1l0.1,0l0.1-0.1l0-0.1l0-0.1v-0.1v-0.2l0-0.1l0-0.2l0-0.2l0-0.2l0-0.3
			l0.1-0.2l0.1-0.2l0.1-0.2l0.1-0.2l0.1,0l0.1,0l0,0.1l0,0.1l0.1,0.1l0.1,0.1l0,0.1v0.1l0,0l0.1,0l0.1-0.2l0-0.2v-0.1l0-0.1l0-0.1
			l-0.1-0.1l0,0l-0.1-0.1l-0.1-0.1l-0.1,0l-0.1,0h-0.1l-0.1,0l-0.1,0l-0.1,0l-0.1,0.1l-0.1,0.1l-0.1,0.1l-0.1,0.3l-0.1,0.6l0,0.1
			v0.1l0,0.2l0,0.2v0.1L157,181z M155.5,180.4L155.5,180.4l-0.1,0.1l0.2,0.2l0.1,0.1l0.1,0.1l0.1,0.1l0.2,0.1l0.2,0.1l0.2,0l0.1-0.1
			l0.1-0.1l0.1-0.2l-0.2-0.2l-0.2-0.2l-0.3-0.1L155.5,180.4L155.5,180.4L155.5,180.4z M156.7,179.2L156.7,179.2v-0.2l0-0.2l0-0.2
			l-0.1-0.2l-0.1-0.2l-0.1-0.1l-0.1-0.1l-0.1-0.1l-0.1,0l-0.1,0H156H156l-0.1,0l-0.1,0l-0.1,0l-0.1,0.1l-0.1,0.1l0,0.1l0.1,0.1
			l0.2,0.2l0.1,0.1l0.1,0.1l0.1,0.1l0,0.1l0.1,0v0.1v0l0,0.1l-0.1,0h-0.1h-0.1l-0.2-0.1h-0.1h0l0,0l-0.1,0.1l-0.1,0.2l0.2,0.2
			l0.1,0.1l0.1,0l0.1,0l0.1,0l0.1,0l0.1,0l0.1,0l0-0.1l0.1-0.1l0.1-0.1l0.1-0.1l0.1,0l0.1,0l0.1,0l0.1-0.1l-0.2-0.4L156.7,179.2z"/>
	</g>
	<g>
		<defs>
			<rect id="SVGID_00000028306464753216309480000013875018599426345094_" x="-249.8" y="-476.3" width="1207.6" height="858.9"/>
		</defs>
		<clipPath id="SVGID_00000156573770589782973390000016424914675799855508_">
			<use xlink:href="#SVGID_00000028306464753216309480000013875018599426345094_"  style="overflow:visible;"/>
		</clipPath>
		
			<path id="path2895" style="clip-path:url(#SVGID_00000156573770589782973390000016424914675799855508_);fill-rule:evenodd;clip-rule:evenodd;fill:#3B71B4;" d="
			M145.4,190.5L145.4,190.5H145l-0.5,0l-0.5,0l-0.5-0.1l-0.5-0.1l-0.5-0.1l-0.5-0.1l-0.5-0.1l-0.4-0.1l-0.4-0.1l-0.4-0.1l-0.4-0.1
			l-0.4-0.1l-0.4-0.2l-0.4-0.2l-0.4-0.2l-0.4-0.2l-0.4-0.2l-0.4-0.2l-0.4-0.2l-0.4-0.2l-0.4-0.2l-0.4-0.2l-0.4-0.2l-0.4-0.3
			l-0.4-0.3l-0.4-0.3l-0.3-0.3l-0.3-0.3l-0.3-0.3l-0.3-0.3l-0.3-0.3l-0.3-0.3l-0.3-0.3l-0.3-0.3l-0.3-0.3l-0.3-0.3l-0.3-0.4
			l-0.3-0.4l-0.3-0.4l-0.2-0.4l-0.2-0.4l-0.2-0.4l-0.2-0.4l-0.2-0.4l-0.2-0.4l-0.2-0.4l-0.2-0.4l-0.2-0.4l-0.2-0.4l-0.1-0.4
			l-0.2-0.4l-0.1-0.4l-0.1-0.4l-0.1-0.4l-0.1-0.5l-0.1-0.4l-0.1-0.5l-0.1-0.5l-0.1-0.5l0-0.5l0-0.5l0-0.5l0-0.5l0-0.5l0-0.5l0-0.5
			l0-0.5l0.1-0.5l0.1-0.5l0.1-0.5l0.1-0.5l0.1-0.4l0.1-0.4l0.1-0.4l0.1-0.4l0.2-0.4l0.1-0.4l0.2-0.4l0.2-0.4l0.2-0.4l0.2-0.4
			l0.2-0.4l0.2-0.4l0.2-0.4l0.2-0.4l0.2-0.4l0.2-0.4l0.3-0.4l0.3-0.4l0.3-0.4l0.3-0.3l0.3-0.3l0.3-0.3l0.3-0.3l0.3-0.3l0.3-0.3
			l0.3-0.3l0.3-0.3l0.3-0.3l0.3-0.3l0.4-0.3l0.4-0.3l0.4-0.3l0.4-0.2l0.4-0.2l0.4-0.2l0.4-0.2l0.4-0.2l0.4-0.2l0.4-0.2l0.4-0.2
			l0.4-0.2l0.4-0.2l0.4-0.1l0.4-0.2l0.4-0.1l0.4-0.1l0.4-0.1l0.4-0.1l0.5-0.1l0.5-0.1l0.5-0.1l0.5-0.1l0.5,0l0.5,0l0.5,0h0.5h0.5
			l0.5,0l0.5,0l0.5,0l0.5,0.1l0.5,0.1l0.4,0.1l0.5,0.1l0.4,0.1l0.5,0.1l0.4,0.1l0.4,0.1l0.4,0.2l0.4,0.1l0.4,0.2l0.4,0.2l0.4,0.2
			l0.4,0.2l0.4,0.2l0.4,0.2l0.4,0.2l0.4,0.2l0.4,0.2l0.4,0.2l0.4,0.3l0.4,0.3l0.4,0.3l0.3,0.3l0.3,0.3l0.3,0.3l0.3,0.3l0.3,0.3
			l0.3,0.3l0.3,0.3l0.3,0.3l0.3,0.3l0.3,0.3l0.3,0.4l0.3,0.4l0.3,0.4l0.2,0.4l0.2,0.4l0.2,0.4l0.2,0.4l0.2,0.4l0.2,0.4l0.2,0.4
			l0.2,0.4l0.2,0.4l0.2,0.4l0.2,0.4l0.1,0.4l0.1,0.4l0.1,0.4l0.1,0.4l0.1,0.4l0.1,0.5l0.1,0.5l0.1,0.5l0.1,0.5l0.1,0.5l0,0.5l0,0.5
			v0.5v0.5l0,0.5l0,0.5l-0.1,0.5l-0.1,0.5l-0.1,0.5l-0.1,0.5l-0.1,0.4l-0.1,0.5l-0.1,0.4l-0.1,0.4l-0.1,0.4l-0.1,0.4l-0.2,0.4
			l-0.2,0.4l-0.2,0.4l-0.2,0.4l-0.2,0.4l-0.2,0.4l-0.2,0.4l-0.2,0.4l-0.2,0.4l-0.2,0.4l-0.2,0.4l-0.3,0.4l-0.3,0.4l-0.3,0.4
			l-0.3,0.3l-0.3,0.3l-0.3,0.3l-0.3,0.3l-0.3,0.3l-0.3,0.3l-0.3,0.3l-0.3,0.3l-0.3,0.3l-0.3,0.3l-0.4,0.3l-0.4,0.3l-0.4,0.3
			l-0.4,0.2l-0.4,0.2l-0.4,0.2l-0.4,0.2l-0.4,0.2l-0.4,0.2l-0.4,0.2l-0.4,0.2l-0.4,0.2l-0.4,0.2l-0.4,0.2l-0.4,0.1l-0.4,0.1
			l-0.4,0.1l-0.5,0.1l-0.4,0.1l-0.5,0.1l-0.4,0.1l-0.5,0.1l-0.5,0.1l-0.5,0.1l-0.5,0l-0.5,0H145.4z M145.4,152.4L145.4,152.4l-0.5,0
			l-0.5,0l-0.5,0l-0.5,0l-0.5,0.1l-0.5,0.1l-0.5,0.1l-0.5,0.1l-0.5,0.1l-0.5,0.1l-0.5,0.1l-0.5,0.1l-0.4,0.2l-0.5,0.2l-0.4,0.2
			l-0.4,0.2l-0.4,0.2l-0.4,0.2l-0.4,0.2l-0.4,0.2l-0.4,0.2l-0.4,0.2l-0.4,0.3l-0.4,0.3l-0.4,0.3l-0.4,0.3l-0.4,0.3l-0.4,0.3
			l-0.4,0.3l-0.3,0.3l-0.3,0.3l-0.3,0.3l-0.3,0.3l-0.3,0.3l-0.3,0.3l-0.3,0.4l-0.3,0.4l-0.3,0.4l-0.3,0.4l-0.3,0.4l-0.3,0.4
			l-0.3,0.4l-0.2,0.4l-0.2,0.4L128,163l-0.2,0.4l-0.2,0.4l-0.2,0.4l-0.2,0.4l-0.2,0.4l-0.2,0.5l-0.2,0.5l-0.1,0.5l-0.1,0.5l-0.1,0.5
			l-0.1,0.5l-0.1,0.5l-0.1,0.5l-0.1,0.5l-0.1,0.5l0,0.5l0,0.5l0,0.5l0,0.5l0,0.5l0,0.5l0,0.5l0,0.5l0.1,0.5l0.1,0.5l0.1,0.5l0.1,0.5
			l0.1,0.5l0.1,0.5l0.1,0.5l0.1,0.5l0.2,0.5l0.2,0.4l0.2,0.4l0.2,0.4l0.2,0.4l0.2,0.4l0.2,0.4l0.2,0.4l0.2,0.4l0.2,0.4l0.3,0.4
			l0.3,0.4l0.3,0.4l0.3,0.4l0.3,0.4l0.3,0.4l0.3,0.4l0.3,0.4l0.3,0.3l0.3,0.3l0.3,0.3l0.3,0.3l0.3,0.3l0.4,0.3l0.4,0.3l0.4,0.3
			l0.4,0.3l0.4,0.3l0.4,0.3l0.4,0.2l0.4,0.2l0.4,0.2l0.4,0.2l0.4,0.2l0.4,0.2l0.4,0.2l0.4,0.2l0.4,0.2l0.5,0.2l0.4,0.2l0.5,0.1
			l0.5,0.1l0.5,0.1l0.5,0.1l0.5,0.1l0.5,0.1l0.5,0.1l0.5,0.1l0.5,0.1l0.5,0l0.5,0h0.5h0.5l0.5,0l0.5,0l0.5-0.1l0.5-0.1l0.5-0.1
			l0.5-0.1l0.5-0.1l0.5-0.1l0.5-0.1l0.5-0.1l0.5-0.1l0.5-0.2l0.4-0.2l0.4-0.2l0.4-0.2l0.4-0.2l0.4-0.2l0.4-0.2l0.4-0.2l0.4-0.2
			l0.4-0.2l0.4-0.2l0.4-0.3l0.4-0.3l0.4-0.3l0.4-0.3l0.4-0.3l0.4-0.3l0.4-0.3l0.3-0.3l0.3-0.3l0.3-0.3l0.3-0.3l0.3-0.4l0.3-0.4
			l0.3-0.4l0.3-0.4l0.3-0.4l0.3-0.4l0.3-0.4l0.2-0.4l0.2-0.4l0.2-0.4l0.2-0.4l0.2-0.4l0.2-0.4l0.2-0.4l0.2-0.4l0.2-0.4l0.2-0.4
			l0.2-0.5l0.1-0.5l0.1-0.5l0.1-0.5l0.1-0.5l0.1-0.5l0.1-0.5l0.1-0.5l0.1-0.5l0.1-0.5l0-0.5l0-0.5v-0.5v-0.5l0-0.5l0-0.5l-0.1-0.5
			l-0.1-0.5l-0.1-0.5l-0.1-0.5l-0.1-0.5l-0.1-0.5l-0.1-0.5l-0.1-0.5l-0.1-0.5l-0.2-0.5l-0.2-0.5l-0.2-0.4l-0.2-0.4l-0.2-0.4
			l-0.2-0.4l-0.2-0.4l-0.2-0.4l-0.2-0.4l-0.2-0.4l-0.2-0.4l-0.3-0.4l-0.3-0.4l-0.3-0.4l-0.3-0.4l-0.3-0.4l-0.3-0.4l-0.3-0.3
			l-0.3-0.3l-0.3-0.3l-0.3-0.3l-0.3-0.3l-0.4-0.3l-0.4-0.3l-0.4-0.3l-0.4-0.3l-0.4-0.3l-0.4-0.3l-0.4-0.3l-0.4-0.3l-0.4-0.2
			l-0.4-0.2l-0.4-0.2l-0.4-0.2l-0.4-0.2l-0.4-0.2l-0.4-0.2l-0.4-0.2l-0.4-0.2l-0.5-0.2l-0.5-0.1l-0.5-0.1l-0.5-0.1l-0.5-0.1
			l-0.5-0.1l-0.5-0.1l-0.5-0.1l-0.5-0.1l-0.5,0l-0.5,0l-0.5,0L145.4,152.4z"/>
	</g>
	<g>
		<defs>
			<rect id="SVGID_00000138568597606822737270000005625286366253296787_" x="-249.8" y="-476.3" width="1207.6" height="858.9"/>
		</defs>
		<clipPath id="SVGID_00000129178002919159785820000008045388567694279560_">
			<use xlink:href="#SVGID_00000138568597606822737270000005625286366253296787_"  style="overflow:visible;"/>
		</clipPath>
		
			<path id="path2897" style="clip-path:url(#SVGID_00000129178002919159785820000008045388567694279560_);fill-rule:evenodd;clip-rule:evenodd;fill:#3B71B4;" d="
			M158.9,174.9l1.2,0.2l1.5,1l0.1-0.3l-0.8-0.5l-0.5-0.3l0.5-0.1l0.9-0.2l0.1-0.3l-1.8,0.3l-1.2-0.3L158.9,174.9z M160.3,173.5
			l-0.5,0l-0.1-0.1l-0.1-0.1l-0.1-0.2l0-0.1V173l0-0.1l0.1-0.1l0.1-0.1l0.1-0.1l0.2-0.1l0.2-0.1l0.2,0h0.3l0.2,0l0.2,0l0.2,0
			l0.1,0.1l0.1,0.1l0.1,0.1l0.1,0.1l0.1,0.1l0.1,0.1l0,0.1l0,0.1v0.1l0,0.1l-0.1,0.1l-0.1,0.1l-0.1,0.1l-0.2,0.1l-0.2,0l0.1,0.2
			l0.3-0.1l0.1,0l0.1-0.1l0.1,0l0.1-0.1l0.1-0.1l0.1-0.1l0.1-0.1l0-0.1l0-0.1v-0.1V173l0-0.1l-0.1-0.1l-0.1-0.1l-0.1-0.1l-0.1-0.1
			l-0.1-0.1l-0.2-0.1l-0.2-0.1l-0.2-0.1l-0.2-0.1l-0.2,0h-0.2h-0.2l-0.2,0l-0.2,0l-0.2,0.1l-0.1,0.1l-0.1,0.1l-0.1,0.1l-0.1,0.1
			l-0.1,0.1l0,0.1l0,0.1v0.1l0,0.1l0,0.1l0,0.1l0.1,0.1l0.1,0.1l0.1,0.1l0.1,0.1l1.1,0.1l0-0.8l-0.3,0L160.3,173.5z M160.6,170.1
			L160.6,170.1l-0.2,0l-0.2,0.1l-0.2,0.1l-0.2,0.1l-0.1,0.1l-0.1,0.1l-0.1,0.1l0,0.1l0,0.1l0.1,0.1l0.1,0.1l0.1,0.1l0.2,0.1l0.2,0
			h0.2h0.3l0.2,0l0.2,0l0.2-0.1l0.2-0.1l0.1,0l0.1-0.1l0.1-0.1l0.1-0.1l0.1-0.1l0-0.1l0-0.1v-0.1l0-0.1l-0.1-0.1l-0.1-0.1l-0.1-0.1
			l-0.2-0.1l-0.2,0h-0.2H160.6z M160.6,169.8L160.6,169.8l0.3,0l0.3,0l0.3,0.1l0.1,0l0.1,0.1l0.1,0.1l0.1,0.1l0.1,0.1l0.1,0.1
			l0.1,0.1l0,0.1l0,0.1l0,0.1v0.1l0,0.1l-0.1,0.1L162,171l-0.1,0.1l-0.1,0.1l-0.1,0.1l-0.2,0.1l-0.2,0.1l-0.2,0.1l-0.2,0l-0.2,0
			l-0.3,0l-0.3,0l-0.2-0.1l-0.2-0.1l-0.1-0.1l-0.1-0.1l-0.1-0.1l-0.1-0.1l-0.1-0.1l0-0.1l0-0.1l0-0.1v-0.1l0-0.1l0-0.1l0-0.1
			l0.1-0.1l0.1-0.1l0.1-0.1l0.1-0.1l0.2-0.1l0.2-0.1l0.3-0.1L160.6,169.8z M159.1,169.6l0.3-0.1l-0.2-0.9l2.5-0.5l-0.1-0.2l-2.8,0.6
			L159.1,169.6z M159.6,166.2L159.6,166.2l-0.2,0.1l-0.2,0.1l-0.2,0.1l-0.1,0.1l-0.1,0.1l-0.1,0.1l0,0.1l0,0.1l0.1,0.1l0.1,0.1
			l0.1,0.1l0.2,0l0.2,0l0.2,0l0.2-0.1l0.3-0.1l0.2-0.1l0.2-0.1l0.2-0.1l0.1-0.1l0.1-0.1l0.1-0.1l0.1-0.1l0-0.1l0-0.1l0-0.1v-0.1
			l0-0.1l-0.1-0.1l-0.1-0.1l-0.1-0.1l-0.2-0.1l-0.2,0l-0.2,0l-0.2,0.1L159.6,166.2z M159.5,166L159.5,166l0.3-0.1l0.3-0.1l0.1,0h0.1
			h0.1l0.1,0l0.1,0l0.1,0l0.1,0l0.1,0.1l0.1,0.1l0.1,0.1l0.1,0.1l0,0.1l0,0.1l0,0.1l0,0.1l-0.1,0.1l-0.1,0.1l-0.1,0.1l-0.1,0.1
			l-0.1,0.1l-0.2,0.1l-0.2,0.1l-0.2,0.1l-0.2,0.1l-0.3,0.1l-0.3,0.1l-0.3,0l-0.2,0l-0.1,0l-0.1,0l-0.1-0.1l-0.1-0.1l-0.1-0.1
			l-0.1-0.1l-0.1-0.1l0-0.1l0-0.1l0-0.1V167l0-0.1l0-0.1l0.1-0.1l0.1-0.1l0.1-0.1l0.2-0.2l0.2-0.2l0.2-0.1L159.5,166z M157.4,165
			l2-1.1l-1.6,1.9l0.1,0.2l2.6-1.4l-0.1-0.2l-2,1.1l1.6-1.9l-0.1-0.2l-2.6,1.4L157.4,165z M156.3,163.4l1.1-0.8l0.5,0.7l-1.1,0.8
			l0.1,0.2l2.3-1.7l-0.1-0.2l-1,0.7l-0.5-0.8l1-0.7l-0.1-0.2l-2.3,1.7L156.3,163.4z M156.5,162l-0.1,0.1l-0.1,0.1l-0.1,0.1l-0.1,0
			h-0.1l-0.1,0l-0.1,0l-0.1-0.1l-0.1-0.1l0-0.1v-0.1l0-0.2l0.1-0.2l0.1-0.2l0.2-0.2l0.2-0.2l0.1-0.1l0.1-0.1l0.1-0.1l0.1-0.1
			l0.1-0.1l0.1-0.1l0.1,0h0.1l0.1,0l0.1,0l0.1,0.1l0.1,0.1l0.1,0.1l0,0.1l0,0.1l0,0.1l0,0.1l0,0.1l-0.1,0.1l-0.1,0.1l0.2,0.1
			l0.1-0.2l0.1-0.2l0.1-0.1l0-0.2v-0.1l0-0.1l-0.1-0.1l-0.1-0.1l-0.1-0.1l-0.1-0.1l-0.1,0l-0.1,0H157l-0.1,0l-0.2,0.1l-0.2,0.1
			l-0.2,0.1l-0.2,0.1l-0.2,0.1l-0.2,0.2l-0.2,0.2l-0.2,0.2l-0.1,0.2l-0.1,0.2l-0.1,0.2l-0.1,0.2l0,0.1l0,0.1l0,0.1l0,0.1l0.1,0.1
			l0.1,0.1l0.1,0.1l0.1,0.1l0.1,0l0.1,0l0.2,0l0.2-0.1l0.2-0.1l0.2-0.1L156.5,162z M154.5,161.5l0.2-0.3l-0.9-0.7l0.6-0.8l0.8,0.6
			l0.2-0.3l-0.8-0.6l0.5-0.7l0.8,0.6l0.2-0.3l-1-0.8l-1.8,2.3L154.5,161.5z M152.7,160.2l1.3-2.2l0.5,0.3l0.2-0.3l-1.2-0.7l-0.2,0.3
			l0.5,0.3l-1.3,2.2L152.7,160.2z M150.2,159l0.5-1.2l0.8,0.3l0.1-0.3l-0.8-0.3l0.3-0.8l0.9,0.4l0.1-0.3l-1.1-0.4l-1.1,2.7
			L150.2,159z M148.6,157L148.6,157l-0.1,0.3l0,0.2v0.2l0,0.2l0.1,0.2l0.1,0.1l0.1,0.1l0.1,0.1l0.1,0l0.1,0l0.1-0.1l0.1-0.1l0.1-0.1
			l0.1-0.2l0.1-0.2l0.1-0.3l0.1-0.2l0-0.2l0-0.2v-0.2l0-0.1l0-0.1l0-0.1l-0.1-0.1l-0.1-0.1l-0.1-0.1l-0.1-0.1l-0.1,0l-0.1,0l-0.1,0
			l-0.1,0.1l-0.1,0.1l-0.1,0.2l-0.1,0.2l-0.1,0.2L148.6,157z M148.4,157L148.4,157l0.1-0.3l0.1-0.3l0.1-0.1l0.1-0.1l0.1-0.1l0.1-0.1
			l0.1-0.1l0.1-0.1l0.1-0.1l0.1,0l0.1,0l0.1,0h0.1l0.1,0l0.1,0l0.1,0.1l0.1,0.1l0.1,0.1l0.1,0.1l0.1,0.1l0,0.2l0,0.2l0,0.2l0,0.2
			l0,0.2l-0.1,0.2l-0.1,0.3l-0.1,0.3l-0.1,0.2l-0.1,0.2l-0.1,0.1l-0.1,0.1l-0.1,0.1l-0.1,0l-0.1,0l-0.1,0l-0.1,0h-0.1l-0.1,0
			l-0.1-0.1l-0.1-0.1l-0.1-0.1l-0.1-0.1l-0.1-0.1l-0.1-0.1l0-0.1l0-0.2v-0.3l0-0.3L148.4,157z M146.4,158.2l0.1-1.2l0.8-1.6l-0.3,0
			l-0.4,0.8l-0.2,0.5l-0.2-0.5l-0.3-0.9l-0.3,0l0.6,1.7l-0.1,1.2L146.4,158.2z M144.6,158.2l-0.2-2.6l0.6,0l0-0.3l-1.4,0.1l0,0.3
			l0.6-0.1l0.2,2.6L144.6,158.2z M143.4,158.3l-0.5-2.9l-0.2,0l0.4,2.9L143.4,158.3z M141.1,157.8l0.1,0.2l0.1,0.2l0.1,0.2l0.1,0.1
			l0.1,0.1l0.2,0.1h0.1l0.2,0l0.1,0l0.1,0l0.1-0.1l0.1-0.1l0.1-0.1l0.1-0.1l0-0.1l0-0.1l0-0.1v-0.1l0-0.1l0-0.1l0-0.1l0-0.1
			l-0.1-0.1l-0.1-0.1l-0.1-0.1l-0.1-0.1L142,157l-0.1,0l-0.2,0l-0.2,0l-0.2,0l-0.1,0l-0.1,0l0-0.1l-0.1-0.1l0-0.1l0-0.1l0-0.1v-0.1
			l0-0.1l0-0.1l0.1-0.1l0.1-0.1l0.1-0.1l0.1,0l0.1,0l0.1,0l0.1,0l0.1,0.1l0.1,0.1l0.1,0.1l0.1,0.1l0,0.1l0.2-0.1l-0.1-0.1l0-0.1
			l-0.1-0.1l-0.1-0.1l-0.1-0.1l-0.1-0.1l-0.1-0.1l-0.1,0l-0.1,0l-0.1,0h-0.1l-0.1,0l-0.1,0.1l-0.1,0.1l-0.1,0.1l-0.1,0.1l-0.1,0.1
			l0,0.2l0,0.2l0,0.2l0.1,0.2l0.1,0.2l0.1,0.1l0.1,0.1l0.1,0l0.1,0l0.2,0.1l0.3,0l0.2,0l0.1,0.1l0.1,0.1l0.1,0.1l0,0.1l0,0.1v0.1
			l0,0.1l0,0.1l-0.1,0.1l-0.1,0.1l-0.1,0.1l-0.1,0l-0.1,0h-0.1l-0.1,0l-0.1,0l-0.1-0.1l-0.1-0.1l-0.1-0.2l-0.1-0.2L141.1,157.8z
			 M139.2,157.8l0.5-0.2l0.1-0.1l0.1-0.1l0-0.1l0-0.1v-0.1l-0.1-0.1l-0.1-0.1l-0.1-0.1l-0.1-0.1l-0.1-0.1l-0.1,0l-0.1,0h-0.1l-0.1,0
			l-0.5,0.2L139.2,157.8z M139.6,159.4l-1.1-2.7l0.7-0.3l0.1-0.1l0.1,0h0.1h0.1l0.1,0l0.1,0.1l0.1,0.1l0.1,0.1l0.1,0.1l0.1,0.1
			l0.1,0.2l0.1,0.2l0,0.1l0,0.1l0,0.1l0,0.1l-0.1,0.1l-0.1,0.1l-0.1,0.1l0.1,0.1l0.1,0.1l0.2,0.1l0.2,0.2l0.6,0.6l-0.3,0.1l-0.4-0.5
			l-0.2-0.2l-0.2-0.1l-0.1-0.1l-0.1,0h-0.1l-0.1,0l-0.3,0.1l0.5,1.2L139.6,159.4z M139.1,159.6l-0.2-0.3l-0.9,0.5l-0.5-0.9l0.9-0.5
			l-0.2-0.3l-0.8,0.5l-0.4-0.8l0.9-0.5l-0.2-0.3l-1.1,0.6l1.5,2.5L139.1,159.6z M137.1,160.9l-1.2-2.7l-0.2,0.2l0.9,2l0.2,0.4
			l-0.4-0.3l-1.7-1.4l-0.2,0.2l2.3,1.9L137.1,160.9z M136.1,161.8l-2-2.1l-0.2,0.2l2,2.1L136.1,161.8z M134.7,163.2l-1.7-1.5
			l2.3,0.8l0.2-0.2l-2.2-1.9l-0.2,0.2l1.7,1.5l-2.3-0.8l-0.2,0.2l2.2,1.9L134.7,163.2z M133.1,163.3l0.2,0.1l0.2,0.1l0.1,0.1
			l0.1,0.1l0,0.1v0.1l0,0.1l-0.1,0.1l0,0.1l-0.1,0.1l-0.1,0l-0.1,0l-0.1,0h-0.1l-0.1,0l-0.1,0l-0.2-0.1l-0.3-0.2l-1.4-0.9l-0.1,0.2
			l1.4,0.9l0.3,0.2l0.3,0.1l0.2,0.1l0.1,0l0.1,0l0.2,0l0.1,0l0.1,0l0.1-0.1l0.1-0.1l0.1-0.1l0-0.1l0-0.1l0-0.1l0-0.1l-0.1-0.1
			l-0.1-0.1l-0.1-0.1l-0.2-0.2l-0.3-0.2l-1.4-0.9l-0.1,0.2L133.1,163.3z M132.4,167.3l-2.1-0.9l2.5,0l0.1-0.2l-2.7-1.1l-0.1,0.2
			l2.1,0.9l-2.5,0l-0.1,0.2l2.7,1.1L132.4,167.3z M130.8,168.6l0.1-0.6l-0.8,0l-0.6,0l0.3,0.1l0.3,0.1L130.8,168.6z M131.8,169.4
			l-2.6-1.4l0.1-0.2l3,0l-0.1,0.3h-0.9l-0.2,0.7l0.8,0.4L131.8,169.4z M131.8,169.8l-2.9-0.4l0,0.2l2.9,0.4L131.8,169.8z
			 M131.7,170.5l-0.3,0l-0.1,0.9l-2.6-0.2v0.2l2.9,0.2L131.7,170.5z M130.5,173.1l0-0.6l-0.8,0.2l-0.6,0.2l0.3,0l0.3,0.1
			L130.5,173.1z M131.7,173.6l-2.9-0.5l0-0.3l2.8-0.9l0,0.3l-0.9,0.3l0.1,0.7l0.9,0.2L131.7,173.6z M131.7,175.1l-0.1-0.4l0-0.1
			l0-0.1l-0.1-0.1l-0.1-0.1l-0.1,0l-0.1,0l-0.1,0h-0.1l-0.2,0l-0.2,0l-0.2,0l-0.2,0l-0.2,0l-0.2,0.1l-0.2,0.1l-0.1,0.1l-0.1,0.1
			l-0.1,0.1l-0.1,0.1l-0.1,0.1v0.1l0,0.1l0,0.2l0.1,0.4L131.7,175.1z M132,175.3l-2.8,0.5l-0.1-0.6l0-0.2l0-0.2l0-0.1l0.1-0.1
			l0.1-0.1l0.1-0.1l0.1-0.1l0.1-0.1l0.2-0.1l0.3-0.1l0.4-0.1l0.2-0.1l0.2,0h0.2l0.2,0l0.2,0l0.1,0l0.1,0.1l0.1,0.1l0.1,0.1l0.1,0.1
			l0.1,0.1l0,0.1L132,175.3z"/>
	</g>
	<g>
		<defs>
			<rect id="SVGID_00000032620921042388253080000010012375680135801261_" x="-249.8" y="-476.3" width="1207.6" height="858.9"/>
		</defs>
		<clipPath id="SVGID_00000157276179635922541210000005403526359116776331_">
			<use xlink:href="#SVGID_00000032620921042388253080000010012375680135801261_"  style="overflow:visible;"/>
		</clipPath>
		
			<path id="path2899" style="clip-path:url(#SVGID_00000157276179635922541210000005403526359116776331_);fill-rule:evenodd;clip-rule:evenodd;fill:#3B71B4;" d="
			M146.9,176.3h-0.2v-0.6h-0.3v0.6h-0.6l0.5-1.1H146l-0.7,1.4h1.1v0.4h0.3v-0.4h0.2V176.3z M147.4,176L147.4,176l0,0.1l0,0.1
			l0.1,0.1l0.1,0.1l0.1,0l0.1,0h0.1h0.1l0.1,0l0.1,0l0.1-0.1l0.1-0.1l0-0.1l0-0.1V176v-0.1l0-0.1l0-0.1l-0.1-0.1l-0.1-0.1l-0.1,0
			l-0.1,0l-0.1,0l-0.1,0l-0.1,0l-0.1,0l-0.1,0.1l-0.1,0.1l0,0.1L147.4,176L147.4,176z M148.5,176L148.5,176v-0.1l-0.1-0.1l-0.1-0.1
			l-0.1-0.1l-0.1-0.1l-0.1-0.1l-0.1,0l-0.1,0l-0.1,0l-0.1,0l-0.1,0.1l-0.1,0.1l-0.1,0.1l-0.1,0.1l0,0.1l0,0.1l0,0.1l0,0.1l0.1,0.1
			l0.1,0.1l0.1,0.1l0.1,0.1l0.1,0l0.1,0l-0.2,0.4h0.4l0.4-0.6l0.1-0.1l0-0.1l0-0.1V176z M144.1,176L144.1,176l0,0.1l0,0.1l0.1,0.1
			l0.1,0.1l0.1,0l0.1,0h0.1h0.1l0.1,0l0.1,0l0.1-0.1l0-0.1l0-0.1l0-0.1V176v-0.1l0-0.1l0-0.1l0-0.1l-0.1-0.1l-0.1,0l-0.1,0l-0.1,0
			l-0.1,0l-0.1,0l-0.1,0l-0.1,0.1l-0.1,0.1l0,0.1L144.1,176L144.1,176z M145.2,176L145.2,176l0-0.1l0-0.1l-0.1-0.1l-0.1-0.1
			l-0.1-0.1l-0.1-0.1l-0.1,0l-0.1,0l-0.1,0l-0.1,0l-0.1,0.1l-0.1,0.1l-0.1,0.1l-0.1,0.1l0,0.1l0,0.1l0,0.1l0,0.1l0.1,0.1l0.1,0.1
			l0.1,0.1l0.1,0.1l0.1,0l0.1,0l-0.2,0.4h0.4l0.4-0.6l0.1-0.1l0.1-0.1l0-0.1L145.2,176z M143.3,177H143v-1.6h0.3V177z"/>
	</g>
	<g>
		<defs>
			<rect id="SVGID_00000143605177972152259160000006258918329456255152_" x="-249.8" y="-476.3" width="1207.6" height="858.9"/>
		</defs>
		<clipPath id="SVGID_00000136382546183344158460000006867131603597654674_">
			<use xlink:href="#SVGID_00000143605177972152259160000006258918329456255152_"  style="overflow:visible;"/>
		</clipPath>
		
			<path id="path2901" style="clip-path:url(#SVGID_00000136382546183344158460000006867131603597654674_);fill-rule:evenodd;clip-rule:evenodd;fill:#3B71B4;" d="
			M154.8,171.4h2.4l0-0.5l-0.1-0.5l-0.1-0.5l-0.1-0.5l-0.1-0.5l-0.2-0.5l-0.2-0.5l-0.2-0.5l-0.2-0.5l-0.2-0.5l-0.3-0.4l-0.3-0.4
			l-0.3-0.4l-0.3-0.4l-0.3-0.4l-0.3-0.4l-0.4-0.4l-0.4-0.3l-0.4-0.3l-0.4-0.3l-0.4-0.3l-0.4-0.3l-0.4-0.3l-0.4-0.2l-0.5-0.2
			l-0.5-0.2l-0.5-0.2l-0.5-0.2l-0.5-0.1l-0.5-0.1l-0.5-0.1l-0.5-0.1v-0.5l-0.1,0l-0.2-0.1l-0.2,0l-0.2,0l-0.3,0l-0.4,0l-0.4,0
			l-0.3,0l-0.2,0l-0.2,0l-0.2,0.1l-0.1,0v0.5l-0.5,0.1l-0.5,0.1l-0.5,0.1l-0.5,0.1l-0.5,0.2l-0.5,0.2l-0.5,0.2l-0.5,0.2l-0.5,0.2
			l-0.4,0.3l-0.4,0.3l-0.4,0.3l-0.4,0.3l-0.4,0.3l-0.4,0.4l-0.3,0.4l-0.3,0.4l-0.3,0.4l-0.3,0.4l-0.3,0.4l-0.3,0.4l-0.2,0.4
			l-0.2,0.5l-0.2,0.5l-0.2,0.5l-0.2,0.5l-0.2,0.5l-0.1,0.5l-0.1,0.5l-0.1,0.5l-0.1,0.5l0,0.5h2.4l0-0.4l0.1-0.4l0.1-0.4l0.1-0.4
			l0.1-0.4l0.1-0.4l0.1-0.4l0.1-0.4l0.2-0.4l0.2-0.4l0.2-0.3l0.2-0.3l0.2-0.3l0.2-0.3l0.2-0.3l0.3-0.3l0.3-0.3l0.3-0.3l0.3-0.3
			l0.3-0.2l0.3-0.2l0.3-0.2l0.3-0.2l0.3-0.2l0.4-0.2l0.4-0.2l0.4-0.2l0.4-0.1l0.4-0.1l0.4-0.1l0.4-0.1l0.4-0.1v0.9l0,0.1l-0.1,0.1
			l-0.1,0.1l-0.1,0.1l-0.1,0.1l-0.1,0.1l-0.1,0.1l-0.1,0l-0.3,0.1l-0.3,0.1l-0.3,0.1l-0.3,0.1l-0.3,0.1l-0.3,0.1l-0.3,0.1l-0.3,0.2
			l-0.3,0.2l-0.2,0.2l-0.3,0.2l-0.2,0.2l-0.2,0.2l-0.2,0.2l-0.2,0.2l-0.2,0.2l-0.2,0.2l-0.2,0.3l-0.2,0.2l-0.2,0.3l-0.2,0.3
			l-0.2,0.3l-0.1,0.3l-0.1,0.3l-0.1,0.3l-0.1,0.3l-0.1,0.3l-0.1,0.3l-0.1,0.3l-0.1,0.3l-0.1,0.3l0,0.3h2.1l0-0.3l0.1-0.3l0.1-0.3
			l0.1-0.3l0.1-0.3l0.1-0.3l0.1-0.2l0.1-0.2l0.1-0.2l0.1-0.2l0.1-0.2l0.2-0.2l0.2-0.2l0.2-0.2l0.2-0.2l0.2-0.2l0.2-0.2l0.2-0.2
			l0.2-0.2l0.2-0.1l0.2-0.1l0.2-0.1l0.2-0.1l0.3-0.1l0.3-0.1l0.3-0.1l0.3-0.1l0.3-0.1l0.3-0.1l0.3,0l0.3,0h0.3h0.3l0.3,0l0.3,0
			l0.3,0.1l0.3,0.1l0.3,0.1l0.3,0.1l0.3,0.1l0.2,0.1l0.2,0.1l0.2,0.1l0.2,0.1l0.2,0.1l0.2,0.2l0.2,0.2l0.2,0.2l0.2,0.2l0.2,0.2
			l0.2,0.2l0.2,0.2l0.2,0.2l0.2,0.2l0.1,0.2l0.1,0.2l0.1,0.2l0.1,0.2l0.1,0.3l0.1,0.3l0.1,0.3l0.1,0.3l0,0.3l0,0.3h2.1l0-0.3l0-0.3
			l-0.1-0.3l-0.1-0.3l-0.1-0.3l-0.1-0.3l-0.1-0.3l-0.1-0.3l-0.1-0.3l-0.1-0.3l-0.2-0.3l-0.2-0.3l-0.2-0.3l-0.2-0.3l-0.2-0.2
			l-0.2-0.2l-0.2-0.2l-0.2-0.2l-0.2-0.2l-0.2-0.2l-0.2-0.2l-0.2-0.2l-0.2-0.2l-0.3-0.2l-0.3-0.2l-0.3-0.2l-0.3-0.1l-0.3-0.1
			l-0.3-0.1l-0.3-0.1l-0.3-0.1l-0.3-0.1l-0.1-0.1l-0.1-0.1l-0.1-0.1L147,164l-0.1-0.1l-0.1-0.1l-0.1-0.1l0-0.1v-0.1v-0.9l0.4,0.1
			l0.4,0.1l0.4,0.1l0.4,0.1l0.4,0.1l0.4,0.2l0.4,0.2l0.4,0.2l0.3,0.2l0.3,0.2l0.3,0.2l0.3,0.2l0.3,0.2l0.3,0.3l0.3,0.3l0.3,0.3
			l0.3,0.3l0.3,0.3l0.2,0.3l0.2,0.3l0.2,0.3l0.2,0.3l0.2,0.4l0.2,0.4l0.2,0.4l0.1,0.4l0.1,0.4l0.1,0.4l0.1,0.4l0.1,0.4l0.1,0.4
			L154.8,171.4z"/>
	</g>
	<g>
		<defs>
			<rect id="SVGID_00000013195540542949074170000012363159506544750259_" x="-249.8" y="-476.3" width="1207.6" height="858.9"/>
		</defs>
		<clipPath id="SVGID_00000046326377537267105680000015797679469020686992_">
			<use xlink:href="#SVGID_00000013195540542949074170000012363159506544750259_"  style="overflow:visible;"/>
		</clipPath>
		
			<path id="path2903" style="clip-path:url(#SVGID_00000046326377537267105680000015797679469020686992_);fill-rule:evenodd;clip-rule:evenodd;fill:#3B71B4;" d="
			M147.2,172.3L147.2,172.3l-0.2,0l-0.2,0l-0.2,0.1l-0.2,0.1l-0.2,0.1l-0.1,0.1l-0.1,0.1l-0.1,0.1l-0.2,0.2l-0.1,0.2l-0.1,0.1l0,0
			l-0.1-0.2l-0.1-0.1l-0.1-0.1l-0.1-0.1l-0.2-0.1l-0.1-0.1l-0.2-0.1l-0.1-0.1l-0.3-0.1l-0.2,0h-0.2h-0.1h-9.9l0,0.5l0.1,0.5l0.1,0.5
			l0.1,0.5h9.9l0,0l0.2,0l0.2,0l0.2,0.1l0.2,0.1l0.2,0.1l0.2,0.2l0.1,0.1l0.1,0.1l0.1,0.1l0.1,0.1l0.1-0.1l0.1-0.1l0.2-0.2l0.2-0.2
			l0.1-0.1l0.1-0.1l0.2-0.1l0.2-0.1l0.2,0l0.2,0v0h10l0.1-0.5l0.1-0.5l0.1-0.5l0-0.5H147.2z"/>
	</g>
	<g>
		<defs>
			<rect id="SVGID_00000078760017923484954860000013208010167557702287_" x="-249.8" y="-476.3" width="1207.6" height="858.9"/>
		</defs>
		<clipPath id="SVGID_00000056403519953732296270000000911499734485288600_">
			<use xlink:href="#SVGID_00000078760017923484954860000013208010167557702287_"  style="overflow:visible;"/>
		</clipPath>
		
			<path id="path2905" style="clip-path:url(#SVGID_00000056403519953732296270000000911499734485288600_);fill-rule:evenodd;clip-rule:evenodd;fill:#3B71B4;" d="
			M147.6,169.6l-1.5,1.7h-0.5v-0.4l1.2-1.7l-1.5-1.7l-1.5,1.7l1.2,1.7v0.4h-0.5l-1.5-1.7l-1.9,0.5l0.9,1.5h3v0.9h0.3h0h0.3v-0.9h3
			l0.9-1.5L147.6,169.6z"/>
	</g>
	<g>
		<defs>
			<rect id="SVGID_00000015344357409921085070000007877413135515952029_" x="-249.8" y="-476.3" width="1207.6" height="858.9"/>
		</defs>
		<clipPath id="SVGID_00000114773446902691072800000010017281931078777267_">
			<use xlink:href="#SVGID_00000015344357409921085070000007877413135515952029_"  style="overflow:visible;"/>
		</clipPath>
		
			<path id="path2907" style="clip-path:url(#SVGID_00000114773446902691072800000010017281931078777267_);fill-rule:evenodd;clip-rule:evenodd;fill:#3B71B4;" d="
			M154.2,175.4L154.2,175.4l-0.1,0.3l-0.1,0.3l-0.1,0.3l-0.1,0.3l-0.3,0.5l-0.3,0.5l-0.4,0.5l-0.4,0.4l-0.4,0.4l-0.5,0.4l-0.5,0.4
			l-0.5,0.3l-0.5,0.3l-0.3,0.1l-0.3,0.1l-0.3,0.1l-0.3,0.1l-0.3,0.1L148,181l-0.3,0.1l-0.3,0.1l-0.3,0.1l-0.3,0.1v-1.5l0.5-0.1
			l0.5-0.1l0.4-0.2l0.5-0.2l0.4-0.2l0.4-0.2l0.4-0.3l0.4-0.3l0.4-0.3l0.3-0.3l0.3-0.3l0.3-0.4l0.3-0.4l0.3-0.4l0.2-0.4l0.2-0.4h-2.5
			l-0.2,0.3l-0.2,0.3l-0.2,0.2l-0.3,0.2l-0.3,0.2l-0.3,0.2l-0.3,0.2l-0.3,0.2l-0.3,0.1l-0.3,0.1l-0.3,0.1l-0.3,0.1l-0.3,0.1
			l-0.3,0.1l-0.4,0l-0.4,0l-0.4,0l-0.3,0l-0.4-0.1l-0.3-0.1l-0.3-0.1l-0.3-0.1l-0.3-0.1l-0.3-0.1l-0.3-0.2l-0.3-0.2l-0.3-0.2
			l-0.3-0.2l-0.3-0.2l-0.2-0.2l-0.2-0.3l-0.2-0.3h-2.5l0.2,0.4l0.2,0.4l0.3,0.4l0.3,0.4l0.3,0.3l0.3,0.3l0.3,0.3l0.4,0.3l0.4,0.3
			l0.4,0.3l0.4,0.2l0.4,0.2l0.4,0.2l0.5,0.2l0.5,0.1l0.5,0.1v1.5l-0.3-0.1l-0.3-0.1l-0.3-0.1l-0.3-0.1l-0.3-0.1l-0.3-0.1l-0.3-0.1
			l-0.3-0.1l-0.3-0.1l-0.3-0.1l-0.5-0.3l-0.5-0.3l-0.5-0.4l-0.5-0.4l-0.4-0.4l-0.4-0.5l-0.4-0.5l-0.4-0.5l-0.3-0.5l-0.3-0.5
			l-0.1-0.3l-0.1-0.3h-2.5l0.2,0.4l0.2,0.4l0.2,0.4l0.2,0.4l0.2,0.4l0.2,0.4l0.2,0.4l0.3,0.4l0.3,0.4l0.3,0.4l0.3,0.3l0.3,0.3
			l0.3,0.3l0.3,0.3l0.3,0.3l0.4,0.3l0.4,0.3l0.4,0.3l0.4,0.2l0.4,0.2l0.4,0.2l0.4,0.2l0.4,0.2l0.4,0.2l0.5,0.1l0.4,0.1l0.5,0.1
			l0.5,0.1l0.5,0.1l0.5,0.1l0.5,0h0.5h0.5l0.5,0l0.5-0.1l0.5-0.1l0.5-0.1l0.5-0.1l0.5-0.1l0.4-0.1l0.4-0.2l0.4-0.2l0.4-0.2l0.4-0.2
			l0.4-0.2l0.4-0.2l0.4-0.3l0.4-0.3l0.4-0.3l0.4-0.3l0.3-0.3l0.3-0.3l0.3-0.3l0.3-0.3l0.3-0.4l0.3-0.4l0.3-0.4l0.2-0.4l0.2-0.4
			l0.2-0.4l0.2-0.4l0.2-0.4l0.2-0.4l0.2-0.4H154.2z"/>
	</g>
</g>
</svg>
