<?xml version="1.0" encoding="utf-8"?>
<!-- Generator: Adobe Illustrator 28.0.0, SVG Export Plug-In . SVG Version: 6.00 Build 0)  -->
<svg version="1.1" id="svg1" xmlns:svg="http://www.w3.org/2000/svg"
	 xmlns="http://www.w3.org/2000/svg" xmlns:xlink="http://www.w3.org/1999/xlink" x="0px" y="0px" viewBox="0 0 85.3 20.7"
	 style="enable-background:new 0 0 85.3 20.7;" xml:space="preserve">
<style type="text/css">
	.st0{clip-path:url(#SVGID_00000062884434131204889270000005457886797341945514_);fill:#E65C22;}
	.st1{clip-path:url(#SVGID_00000125586739090622741500000015639967487425953672_);fill:#E65C22;}
	.st2{clip-path:url(#SVGID_00000064332695036911053620000000372249172405647491_);fill:#E65C22;}
	.st3{clip-path:url(#SVGID_00000097501021339999099920000007343964215072802206_);fill:#E65C22;}
	.st4{clip-path:url(#SVGID_00000062870893615568209660000016446448993383823033_);fill:#E65C22;}
	.st5{clip-path:url(#SVGID_00000121972510588066475820000015964158661901973896_);fill:#E65C22;}
	.st6{clip-path:url(#SVGID_00000039851476999813215030000000394147463628449934_);fill:#E65C22;}
	.st7{clip-path:url(#SVGID_00000128460681505551956260000015260049266271518639_);fill:#E65C22;}
	.st8{clip-path:url(#SVGID_00000034067428396787703360000005546714675336298409_);fill:#E65C22;}
	.st9{clip-path:url(#SVGID_00000046328937816258570300000009027698733319519411_);fill:#E65C22;}
	.st10{clip-path:url(#SVGID_00000155859766397331668160000015572899804868168846_);fill:#E65C22;}
	.st11{clip-path:url(#SVGID_00000083788492681025045740000000456841420184439734_);fill:#E65C22;}
	.st12{clip-path:url(#SVGID_00000036222449645077881740000009552993221956089231_);fill:#E65C22;}
	.st13{clip-path:url(#SVGID_00000026881322199077010100000014158193754545115807_);fill:#E65C22;}
	.st14{clip-path:url(#SVGID_00000139287233812362118340000015504922359105529476_);fill:#E65C22;}
	.st15{clip-path:url(#SVGID_00000051345866918773677070000016748153185905174680_);fill:#E65C22;}
	.st16{clip-path:url(#SVGID_00000015329913193074638640000013935811886266357662_);fill:#E65C22;}
	.st17{clip-path:url(#SVGID_00000119819033590110973380000002969785664234913178_);fill:#E65C22;}
	.st18{clip-path:url(#SVGID_00000094617057078070946370000014967735016909088143_);fill:#E65C22;}
	.st19{clip-path:url(#SVGID_00000039108995400567916200000014422063245125546401_);fill:#E65C22;}
	.st20{clip-path:url(#SVGID_00000111896443132753970250000012887762048618741178_);fill:#E65C22;}
	.st21{clip-path:url(#SVGID_00000152258676190700650630000006266708642723176844_);fill:#121212;}
</style>
<g id="layer1" transform="translate(-80.168745,-83.343752)">
	<g>
		<defs>
			<rect id="SVGID_1_" x="12" y="-279.1" width="1207.6" height="858.9"/>
		</defs>
		<clipPath id="SVGID_00000140725849837337184890000003366802426349493903_">
			<use xlink:href="#SVGID_1_"  style="overflow:visible;"/>
		</clipPath>
		<path id="path676" style="clip-path:url(#SVGID_00000140725849837337184890000003366802426349493903_);fill:#E65C22;" d="
			M99.2,83.9c2.6-0.6,5.3-0.8,8-0.2c1.2,0.3,2.4,0.8,3.3,1.8c0.8,0.9,1.1,2.2,0.9,3.4c-0.2,1.3-0.9,2.5-1.6,3.6
			c-1.6,2.3-3.5,4.3-5.2,6.5c-0.3,0.4-0.7,0.9-0.7,1.5c0.1,0.5,0.7,0.5,1.1,0.5c4.2-0.3,8.3-1.4,12.2-2.8c1.2-0.5,2.5-0.9,3.7-1.5
			c0.3-0.1,0.5-0.3,0.8-0.3c-1.1,0.7-2.2,1.3-3.4,1.9c-2.9,1.5-5.8,2.8-8.9,3.9c-1.8,0.6-3.6,1.2-5.5,1.3c-0.9,0-2,0.1-2.8-0.4
			c-0.6-0.4-0.8-1.1-0.8-1.7c0.1-0.8,0.4-1.5,0.8-2.1c0.9-1.4,2.1-2.7,3.2-3.9c1.3-1.5,2.6-3,3.7-4.7c0.4-0.6,0.7-1.2,0.9-1.8l0-0.1
			c0.1-0.6,0.1-1.3-0.3-1.8c-0.4-0.6-1.1-0.9-1.7-1.2c-1.2-0.5-2.5-0.8-3.8-1.2c-0.5,0.3-0.9,0.5-1.4,0.8c0.3,0.3,0.6,0.5,0.9,0.8
			c-2.4,0.4-4.8,0.9-7.2,1.7c-2,0.6-4,1.3-5.9,2c0.2,0.6,0.5,1.1,0.6,1.7c-0.6,0.7-1.4,1.4-2,2c-0.3-0.1-0.6-0.3-1-0.5
			c0,1.1,0,2.2,0,3.3c-1.2,0.6-2.3,1.2-3.2,2.2c-0.4,0.4-0.7,1-0.6,1.6c0.1,0.6,0.5,1.1,1.1,1.3c1.5,0.8,3.2,0.8,4.8,0.7
			c2-0.1,4-0.5,6-0.9c0.4-0.1,0.9-0.3,1.3-0.3c-0.6,0.2-1.2,0.6-1.8,0.8c-2.9,1.4-6.1,2.1-9.3,2.2c-1.4-0.1-2.9-0.3-4.1-1.1
			c-0.8-0.6-1.4-1.5-1.5-2.5c-0.1-0.7,0-1.4,0.2-2c0.3-1,0.8-1.9,1.3-2.8c1.8-2.8,4.1-5.2,6.9-7.1c1.8-1.2,3.7-2.2,5.7-3
			C95.9,84.9,97.5,84.3,99.2,83.9"/>
	</g>
	<g>
		<defs>
			<rect id="SVGID_00000172409669707756544380000005236812333783927485_" x="12" y="-279.1" width="1207.6" height="858.9"/>
		</defs>
		<clipPath id="SVGID_00000044159013461153587780000017752967604134864270_">
			<use xlink:href="#SVGID_00000172409669707756544380000005236812333783927485_"  style="overflow:visible;"/>
		</clipPath>
		<path id="path678" style="clip-path:url(#SVGID_00000044159013461153587780000017752967604134864270_);fill:#E65C22;" d="
			M120.6,85.6c0,2.1,0,4.2,0,6.3c0.2,0,0.4,0,0.6,0c0-1,0-2.1,0-3.1c-0.2,0-0.3,0-0.5,0c0.2-0.2,0.5-0.5,0.5-0.9c0-0.7,0-1.5,0-2.2
			C121,85.6,120.8,85.6,120.6,85.6 M119,84.3c1.3,0,2.6,0,3.8,0c0,1,0,2.1,0,3.1c0,0.5-0.4,0.8-0.7,1.1c0.4,0.3,0.8,0.6,0.7,1.1
			c0,0.8,0,1.6,0,2.4c-0.2,0.5-0.6,1-1.1,1.2c-0.4,0.1-0.7,0-1.1,0.1c0,0.4,0.1,0.7-0.1,1.1c-0.3,0.6-0.9,0.9-1.5,1
			C119,91.6,119,88,119,84.3"/>
	</g>
	<g>
		<defs>
			<rect id="SVGID_00000181782031772878552410000013297358980738871194_" x="12" y="-279.1" width="1207.6" height="858.9"/>
		</defs>
		<clipPath id="SVGID_00000086656786425473040600000008428293800108234885_">
			<use xlink:href="#SVGID_00000181782031772878552410000013297358980738871194_"  style="overflow:visible;"/>
		</clipPath>
		<path id="path680" style="clip-path:url(#SVGID_00000086656786425473040600000008428293800108234885_);fill:#E65C22;" d="
			M123,84.3c2.3-0.1,4.6,0,6.9,0c-0.1,0.5-0.2,1.1-0.6,1.4c0,2.6,0,5.2,0,7.7c0,0.3,0,0.6-0.1,0.8c-0.3,0.6-0.9,0.9-1.5,1
			c0-3.2,0-6.4,0-9.6c-1.5,0-3.1,0-4.6,0C123,85.2,123,84.8,123,84.3"/>
	</g>
	<g>
		<defs>
			<rect id="SVGID_00000019672913133831299130000001968707288744216511_" x="12" y="-279.1" width="1207.6" height="858.9"/>
		</defs>
		<clipPath id="SVGID_00000117658506634036605550000010625787350025192339_">
			<use xlink:href="#SVGID_00000019672913133831299130000001968707288744216511_"  style="overflow:visible;"/>
		</clipPath>
		<path id="path682" style="clip-path:url(#SVGID_00000117658506634036605550000010625787350025192339_);fill:#E65C22;" d="
			M132.9,88.2c0,0.5,0,0.9,0,1.4c0.8,0,1.5,0,2.3,0c0-0.5,0-0.9,0-1.4C134.4,88.2,133.6,88.2,132.9,88.2 M137.1,85.6
			c0,0.5,0,0.9,0,1.4c0.7,0,1.5,0,2.2,0c-0.3,0.4-0.6,0.7-0.9,1c-0.3,0.3-0.9,0.2-1.3,0.2c0,0.5,0,0.9,0,1.4c0.8,0,1.6,0,2.4,0
			c0-1.3,0-2.7,0-4C138.7,85.5,137.9,85.5,137.1,85.6 M132.9,85.5c0,0.5,0,0.9,0,1.4c0.8,0,1.5,0,2.3,0c0-0.5,0-0.9,0-1.4
			C134.4,85.5,133.6,85.5,132.9,85.5 M131,84.3c2.2,0,4.3,0,6.5,0c1.3,0,2.6,0,4,0c0,1.7,0,3.4,0,5.1c-0.1,0.5-0.5,0.9-0.9,1.2
			c-0.3,0.2-0.6,0.3-0.9,0.3c-0.8,0-1.7,0-2.5,0c0,0.3,0,0.6,0,0.9c1.5,0,2.9,0,4.4,0c-0.3,0.4-0.5,0.9-0.9,1.2
			c-0.1,0.1-0.3,0.1-0.4,0.1c-1,0-2.1,0-3.1,0c0,0.3,0,0.7,0,1c0.5,0,0.9,0,1.4,0c1.1,0,2.1,0,3.2,0c-0.2,0.3-0.4,0.7-0.6,1
			c-0.1,0.2-0.3,0.3-0.5,0.3c-3.2,0-6.5,0-9.7,0c0-0.4,0-0.8,0-1.3c1.4-0.1,2.9,0,4.3,0c0-0.3,0-0.7,0-1c-1.4,0-2.8,0-4.2,0
			c0-0.4,0-0.8,0-1.2c1.4,0,2.8,0,4.2,0c0-0.3,0-0.6,0-0.8c-1.4,0-2.8,0-4.2,0C131,88.7,131,86.5,131,84.3"/>
	</g>
	<g>
		<defs>
			<rect id="SVGID_00000080200375664411378570000015387378791457361545_" x="12" y="-279.1" width="1207.6" height="858.9"/>
		</defs>
		<clipPath id="SVGID_00000085955747773938347740000018080065376955152318_">
			<use xlink:href="#SVGID_00000080200375664411378570000015387378791457361545_"  style="overflow:visible;"/>
		</clipPath>
		<path id="path684" style="clip-path:url(#SVGID_00000085955747773938347740000018080065376955152318_);fill:#E65C22;" d="
			M149,85.7c0,1.2,0,2.4,0,3.6c0.7,0,1.5,0,2.2,0c0-1.2,0-2.4,0-3.6C150.5,85.7,149.8,85.7,149,85.7 M144.8,85.7c0,1.2,0,2.4,0,3.6
			c0.8,0,1.5,0,2.3,0c0-1.2,0-2.4,0-3.6C146.4,85.7,145.6,85.7,144.8,85.7 M142.9,84.3c1.2,0,2.4,0,3.5,0c2.3,0,4.5,0,6.8,0
			c0,1.6,0,3.1,0,4.7c0,0.5-0.3,0.9-0.7,1.2c-0.3,0.3-0.7,0.5-1.1,0.5c-2.2,0-4.4,0-6.6,0c0,1,0,2,0,3.1c2.9,0,5.8,0,8.7,0
			c-0.2,0.5-0.6,1-1.1,1.3c-0.2,0.1-0.5,0.1-0.7,0.1c-2.5,0-5,0-7.4,0c-0.3,0-0.6-0.1-0.9-0.2c-0.4-0.3-0.6-0.8-0.6-1.3
			c0-2.5,0-5,0-7.4C142.9,85.6,142.8,85,142.9,84.3"/>
	</g>
	<g>
		<defs>
			<rect id="SVGID_00000001624430824945409470000001800676569397824955_" x="12" y="-279.1" width="1207.6" height="858.9"/>
		</defs>
		<clipPath id="SVGID_00000030445539022359781090000002318377178390403998_">
			<use xlink:href="#SVGID_00000001624430824945409470000001800676569397824955_"  style="overflow:visible;"/>
		</clipPath>
		<path id="path686" style="clip-path:url(#SVGID_00000030445539022359781090000002318377178390403998_);fill:#E65C22;" d="
			M161,85.7c0,1.2,0,2.4,0,3.6c0.7,0,1.5,0,2.2,0c0-1.2,0-2.4,0-3.6C162.4,85.7,161.7,85.7,161,85.7 M156.7,85.7c0,1.2,0,2.4,0,3.6
			c0.8,0,1.5,0,2.3,0c0-1.2,0-2.4,0-3.6C158.3,85.7,157.5,85.7,156.7,85.7 M154.8,84.3c3,0,6,0,9,0c0.4,0,0.9,0,1.3,0
			c0,1.6,0,3.2,0,4.8c0,0.4-0.3,0.8-0.6,1c-0.4,0.3-0.8,0.7-1.3,0.6c-2.2,0-4.3,0-6.5,0c0,1,0,2,0,3.1c2.9,0,5.8,0,8.7,0
			c-0.2,0.5-0.6,1-1.1,1.3c-0.3,0.2-0.6,0.1-0.9,0.1c-2.4,0-4.9,0-7.3,0c-0.4,0-0.8-0.1-1-0.4c-0.3-0.4-0.4-0.8-0.4-1.3
			C154.8,90.4,154.8,87.4,154.8,84.3"/>
	</g>
	<g>
		<defs>
			<rect id="SVGID_00000173864101569790797450000010335624348584203163_" x="12" y="-279.1" width="1207.6" height="858.9"/>
		</defs>
		<clipPath id="SVGID_00000020363853158043141680000010386735211791329176_">
			<use xlink:href="#SVGID_00000173864101569790797450000010335624348584203163_"  style="overflow:visible;"/>
		</clipPath>
		<path id="path688" style="clip-path:url(#SVGID_00000020363853158043141680000010386735211791329176_);fill:#E65C22;" d="
			M124.9,87.8c0,1.4,0,2.8,0,4.2c0.3,0,0.5,0,0.8,0c0-1.4,0-2.8,0-4.1C125.5,87.8,125.2,87.8,124.9,87.8 M123.4,86.5
			c1.3,0,2.6,0,3.9,0c0,1.5,0,3.1,0,4.6c0,0.3,0,0.6-0.2,0.8c-0.4,0.7-1.2,1.2-2.1,1.2c-0.5,0-1.1,0-1.6,0
			C123.4,90.9,123.4,88.7,123.4,86.5"/>
	</g>
	<g>
		<defs>
			<rect id="SVGID_00000064338357250858693170000007328584691166986150_" x="12" y="-279.1" width="1207.6" height="858.9"/>
		</defs>
		<clipPath id="SVGID_00000160893616308643178700000013163809674029020803_">
			<use xlink:href="#SVGID_00000064338357250858693170000007328584691166986150_"  style="overflow:visible;"/>
		</clipPath>
		<path id="path690" style="clip-path:url(#SVGID_00000160893616308643178700000013163809674029020803_);fill:#E65C22;" d="
			M144.9,98.5c-0.6,0.2-0.7,0.9-0.5,1.4c0.2,0.5,0.9,0.6,1.3,0.3c0.4-0.4,0.4-1.1,0.1-1.5C145.6,98.5,145.2,98.5,144.9,98.5
			 M143.1,96.6c0.4,0,0.8,0,1.2,0c0,0.6,0,1.2,0,1.8c0.4-0.3,0.9-0.5,1.4-0.5c0.7,0,1.4,0.5,1.5,1.3c0,0.5,0,1.1-0.3,1.5
			c-0.6,0.8-2,0.7-2.6-0.1c0,0.2,0,0.4,0,0.5c-0.4,0-0.8,0-1.2,0C143.2,99.6,143.1,98.1,143.1,96.6"/>
	</g>
	<g>
		<defs>
			<rect id="SVGID_00000007396304483475151850000010803921831521312421_" x="12" y="-279.1" width="1207.6" height="858.9"/>
		</defs>
		<clipPath id="SVGID_00000040532830196770159590000008890946705684975528_">
			<use xlink:href="#SVGID_00000007396304483475151850000010803921831521312421_"  style="overflow:visible;"/>
		</clipPath>
		<path id="path692" style="clip-path:url(#SVGID_00000040532830196770159590000008890946705684975528_);fill:#E65C22;" d="
			M126.8,97.6c-0.3,0.6-0.6,1.1-0.8,1.7c0.5,0,1,0,1.6,0C127.3,98.7,127.1,98.1,126.8,97.6 M126.1,96.6c0.5,0,1,0,1.5,0
			c0.6,1.2,1.2,2.3,1.7,3.5c0.2,0.3,0.3,0.6,0.4,1c-0.5,0-1,0-1.4,0c-0.1-0.3-0.3-0.6-0.4-0.9c-0.8,0-1.6,0-2.4,0
			c-0.1,0.3-0.3,0.6-0.4,0.9c-0.5,0-0.9,0-1.4,0C124.6,99.6,125.3,98.1,126.1,96.6"/>
	</g>
	<g>
		<defs>
			<rect id="SVGID_00000131358827179564250420000004310331386509593772_" x="12" y="-279.1" width="1207.6" height="858.9"/>
		</defs>
		<clipPath id="SVGID_00000109731818511184105370000014921482596014257570_">
			<use xlink:href="#SVGID_00000131358827179564250420000004310331386509593772_"  style="overflow:visible;"/>
		</clipPath>
		<path id="path694" style="clip-path:url(#SVGID_00000109731818511184105370000014921482596014257570_);fill:#E65C22;" d="
			M130,96.6c0.4,0,0.8,0,1.2,0c0,1.5,0,3,0,4.5c-0.4,0-0.8,0-1.2,0C130,99.6,130,98.1,130,96.6"/>
	</g>
	<g>
		<defs>
			<rect id="SVGID_00000183952218104258892740000016321951805565706646_" x="12" y="-279.1" width="1207.6" height="858.9"/>
		</defs>
		<clipPath id="SVGID_00000142153398492935149210000001675824214628689027_">
			<use xlink:href="#SVGID_00000183952218104258892740000016321951805565706646_"  style="overflow:visible;"/>
		</clipPath>
		<path id="path696" style="clip-path:url(#SVGID_00000142153398492935149210000001675824214628689027_);fill:#E65C22;" d="
			M131.9,96.6c0.4,0,0.9,0,1.3,0c0,0.3,0,0.6,0,0.9c-0.4,0-0.8,0-1.3,0C131.9,97.2,131.9,96.9,131.9,96.6"/>
	</g>
	<g>
		<defs>
			<rect id="SVGID_00000145048384109073759680000010944477705473429674_" x="12" y="-279.1" width="1207.6" height="858.9"/>
		</defs>
		<clipPath id="SVGID_00000117674714423350299350000014614205114912632455_">
			<use xlink:href="#SVGID_00000145048384109073759680000010944477705473429674_"  style="overflow:visible;"/>
		</clipPath>
		<path id="path698" style="clip-path:url(#SVGID_00000117674714423350299350000014614205114912632455_);fill:#E65C22;" d="
			M135.8,98.5c-0.7,0.2-0.8,1.4-0.2,1.8c0.4,0.2,0.9,0.2,1.2-0.2c0.2-0.3,0.2-0.8,0.1-1.1C136.6,98.6,136.2,98.4,135.8,98.5
			 M134,96.6c0.4,0,0.8,0,1.2,0c0,0.6,0,1.2,0,1.8c0.4-0.3,0.9-0.6,1.4-0.5c0.7,0,1.3,0.4,1.5,1.1c0.1,0.6,0.1,1.2-0.2,1.7
			c-0.6,0.8-2,0.7-2.6-0.1c0,0.2,0,0.3,0,0.5c-0.4,0-0.8,0-1.2,0C134,99.6,134,98.1,134,96.6"/>
	</g>
	<g>
		<defs>
			<rect id="SVGID_00000103231277086288959470000001406855096907209653_" x="12" y="-279.1" width="1207.6" height="858.9"/>
		</defs>
		<clipPath id="SVGID_00000082333993371956560580000018276201005551382202_">
			<use xlink:href="#SVGID_00000103231277086288959470000001406855096907209653_"  style="overflow:visible;"/>
		</clipPath>
		<path id="path700" style="clip-path:url(#SVGID_00000082333993371956560580000018276201005551382202_);fill:#E65C22;" d="
			M154.1,98.5c0.3-0.4,0.7-0.6,1.2-0.7c0.5,0,1,0.1,1.4,0.5c0,0.2-0.1,0.4-0.2,0.5c-0.3-0.2-0.5-0.4-0.9-0.4
			c-0.8-0.1-1.5,0.8-1.2,1.5c0.2,0.7,1.1,1,1.7,0.6c0.1-0.1,0.2-0.2,0.4-0.2c0.1,0.2,0.1,0.3,0.2,0.5c-0.4,0.4-0.9,0.6-1.4,0.5
			c-0.6-0.1-1.2-0.5-1.4-1.1C153.7,99.5,153.8,98.9,154.1,98.5"/>
	</g>
	<g>
		<defs>
			<rect id="SVGID_00000001632508618237634750000013224889115491018637_" x="12" y="-279.1" width="1207.6" height="858.9"/>
		</defs>
		<clipPath id="SVGID_00000129191743246290997220000006561147763730502586_">
			<use xlink:href="#SVGID_00000001632508618237634750000013224889115491018637_"  style="overflow:visible;"/>
		</clipPath>
		<path id="path702" style="clip-path:url(#SVGID_00000129191743246290997220000006561147763730502586_);fill:#E65C22;" d="
			M158.4,98.4c-0.3,0.1-0.5,0.3-0.7,0.6c-0.3,0.6,0,1.5,0.7,1.6c0.7,0.2,1.4-0.3,1.4-1C160,98.8,159.1,98.1,158.4,98.4 M158.3,97.8
			c0.4-0.1,0.9,0,1.3,0.2c0.6,0.3,1,1.1,0.8,1.8c-0.2,0.9-1.1,1.5-2,1.3c-0.8-0.2-1.4-0.9-1.3-1.7C157.1,98.7,157.6,98,158.3,97.8"
			/>
	</g>
	<g>
		<defs>
			<rect id="SVGID_00000090990654941496883460000018212880710285696651_" x="12" y="-279.1" width="1207.6" height="858.9"/>
		</defs>
		<clipPath id="SVGID_00000043419277496070626900000016667085231436329638_">
			<use xlink:href="#SVGID_00000090990654941496883460000018212880710285696651_"  style="overflow:visible;"/>
		</clipPath>
		<path id="path704" style="clip-path:url(#SVGID_00000043419277496070626900000016667085231436329638_);fill:#E65C22;" d="
			M139.8,100c-0.1,0.2,0.1,0.4,0.2,0.4c0.5,0.2,1.2-0.1,1.2-0.7c-0.3,0-0.7,0-1,0.1C140,99.8,139.9,99.8,139.8,100 M139.5,98
			c0.6-0.2,1.3-0.2,1.9,0c0.4,0.1,0.9,0.4,0.9,0.9c0,0.7,0,1.5,0,2.2c-0.4,0-0.8,0-1.1,0c0-0.1,0-0.2,0-0.4
			c-0.7,0.5-1.7,0.7-2.4,0.2c-0.5-0.4-0.3-1.3,0.2-1.6c0.7-0.3,1.4-0.2,2.1-0.2c0.1-0.7-1-0.8-1.3-0.2c-0.4,0-0.8,0-1.2,0
			C138.8,98.4,139.1,98.1,139.5,98"/>
	</g>
	<g>
		<defs>
			<rect id="SVGID_00000177484195470337369180000012935517044378181295_" x="12" y="-279.1" width="1207.6" height="858.9"/>
		</defs>
		<clipPath id="SVGID_00000012464436411467810920000013010432518430107531_">
			<use xlink:href="#SVGID_00000177484195470337369180000012935517044378181295_"  style="overflow:visible;"/>
		</clipPath>
		<path id="path706" style="clip-path:url(#SVGID_00000012464436411467810920000013010432518430107531_);fill:#E65C22;" d="
			M149.2,99.8c-0.2,0.1-0.3,0.4-0.1,0.6c0.5,0.3,1.4,0,1.3-0.7C150,99.7,149.6,99.6,149.2,99.8 M148.5,98c0.6-0.2,1.4-0.2,2-0.1
			c0.5,0.1,0.9,0.4,0.9,0.9c0.1,0.7,0,1.5,0,2.2c-0.4,0-0.8,0-1.1,0c0-0.1,0-0.2,0-0.4c-0.4,0.3-0.9,0.5-1.3,0.5
			c-0.4,0-1-0.1-1.2-0.5c-0.3-0.5-0.1-1.2,0.5-1.4c0.7-0.2,1.4-0.1,2.1-0.2c0-0.2,0-0.4-0.2-0.5c-0.4-0.2-0.9-0.1-1.1,0.2
			c-0.4,0-0.8,0-1.2,0C148,98.5,148.2,98.2,148.5,98"/>
	</g>
	<g>
		<defs>
			<rect id="SVGID_00000056421802298676161470000006125521684344059810_" x="12" y="-279.1" width="1207.6" height="858.9"/>
		</defs>
		<clipPath id="SVGID_00000013155129327689858070000009029277146625099709_">
			<use xlink:href="#SVGID_00000056421802298676161470000006125521684344059810_"  style="overflow:visible;"/>
		</clipPath>
		<path id="path708" style="clip-path:url(#SVGID_00000013155129327689858070000009029277146625099709_);fill:#E65C22;" d="
			M161.6,98.3c0.2-0.2,0.4-0.4,0.7-0.5c0.4-0.1,0.9,0,1.1,0.5c0.3-0.3,0.8-0.6,1.2-0.4c0.4,0,0.7,0.4,0.7,0.8c0,0.8,0,1.6,0,2.4
			c-0.2,0-0.4,0-0.5,0c0-0.7,0-1.5,0-2.2c0-0.3-0.3-0.5-0.6-0.5c-0.4-0.1-0.8,0.3-0.7,0.7c0,0.7,0,1.4,0,2c-0.2,0-0.4,0-0.5,0
			c0-0.7,0-1.5,0-2.2c0-0.3-0.2-0.5-0.5-0.5c-0.5-0.1-0.9,0.4-0.8,0.9c0,0.6,0,1.2,0,1.9c-0.2,0-0.4,0-0.5,0c0-1,0-2.1,0-3.1
			c0.1,0,0.3,0,0.5,0C161.6,98.1,161.6,98.2,161.6,98.3"/>
	</g>
	<g>
		<defs>
			<rect id="SVGID_00000087371630283626987480000017631981581875870887_" x="12" y="-279.1" width="1207.6" height="858.9"/>
		</defs>
		<clipPath id="SVGID_00000127026726865098396180000006046319557185981849_">
			<use xlink:href="#SVGID_00000087371630283626987480000017631981581875870887_"  style="overflow:visible;"/>
		</clipPath>
		<path id="path710" style="clip-path:url(#SVGID_00000127026726865098396180000006046319557185981849_);fill:#E65C22;" d="
			M132,101.1c0-1,0-2.1,0-3.1c0.4,0,0.8,0,1.2,0c0,1,0,2.1,0,3.1C132.8,101.1,132.4,101.1,132,101.1"/>
	</g>
	<g>
		<defs>
			<rect id="SVGID_00000073722894320468094840000007576748493739451537_" x="12" y="-279.1" width="1207.6" height="858.9"/>
		</defs>
		<clipPath id="SVGID_00000075154850952952971410000013957089181567727276_">
			<use xlink:href="#SVGID_00000073722894320468094840000007576748493739451537_"  style="overflow:visible;"/>
		</clipPath>
		<path id="path712" style="clip-path:url(#SVGID_00000075154850952952971410000013957089181567727276_);fill:#E65C22;" d="
			M152.6,100.6c0.2,0,0.3,0,0.5,0c0,0.2,0,0.3,0,0.5c-0.2,0-0.3,0-0.5,0C152.7,100.9,152.6,100.7,152.6,100.6"/>
	</g>
	<g>
		<defs>
			<rect id="SVGID_00000129164755941369730770000009797262304400719751_" x="12" y="-279.1" width="1207.6" height="858.9"/>
		</defs>
		<clipPath id="SVGID_00000125562397668806124270000002322156540765633685_">
			<use xlink:href="#SVGID_00000129164755941369730770000009797262304400719751_"  style="overflow:visible;"/>
		</clipPath>
		<path id="path714" style="clip-path:url(#SVGID_00000125562397668806124270000002322156540765633685_);fill:#E65C22;" d="
			M118.8,101.4c-0.4,0.1-0.8,0.5-0.8,0.9c0,0.6,0.5,1.1,1.1,1.1c0.6,0,1-0.7,0.9-1.2C119.9,101.6,119.3,101.2,118.8,101.4
			 M118.7,101.2c0.6-0.2,1.3,0.2,1.5,0.8c0.2,0.7-0.4,1.6-1.2,1.5c-0.6,0-1.1-0.4-1.2-1C117.7,102,118.1,101.3,118.7,101.2"/>
	</g>
	<g>
		<defs>
			<rect id="SVGID_00000123432032866208516350000017731933765319001769_" x="12" y="-279.1" width="1207.6" height="858.9"/>
		</defs>
		<clipPath id="SVGID_00000165946613230912335090000000788652034662555317_">
			<use xlink:href="#SVGID_00000123432032866208516350000017731933765319001769_"  style="overflow:visible;"/>
		</clipPath>
		<path id="path716" style="clip-path:url(#SVGID_00000165946613230912335090000000788652034662555317_);fill:#E65C22;" d="
			M118.7,101.8c0,0.1,0,0.3,0,0.4c0.2,0,0.7,0.1,0.7-0.2C119.3,101.7,118.9,101.9,118.7,101.8 M118.5,101.7c0.3,0,0.6-0.1,0.9,0
			c0.3,0.2,0.1,0.6-0.2,0.7c0.1,0.2,0.3,0.4,0.4,0.6c-0.1,0-0.2,0-0.2,0c-0.1-0.2-0.2-0.4-0.4-0.6c-0.1,0-0.3,0-0.4,0
			c0,0.2,0,0.5-0.1,0.7c-0.1-0.2-0.1-0.5-0.1-0.7C118.5,102.1,118.4,101.9,118.5,101.7"/>
	</g>
	<g>
		<defs>
			<rect id="SVGID_00000120541053818106410540000007966862970134112130_" x="12" y="-279.1" width="1207.6" height="858.9"/>
		</defs>
		<clipPath id="SVGID_00000052090357429244985690000004648200507568416679_">
			<use xlink:href="#SVGID_00000120541053818106410540000007966862970134112130_"  style="overflow:visible;"/>
		</clipPath>
		<path id="path718" style="clip-path:url(#SVGID_00000052090357429244985690000004648200507568416679_);fill:#121212;" d="
			M102.1,85.3c0.5-0.3,0.9-0.5,1.4-0.8c1.2,0.4,2.5,0.7,3.8,1.2c0.6,0.3,1.3,0.6,1.7,1.2c0.4,0.5,0.4,1.2,0.3,1.8l0,0.1
			c0.1-0.6-0.1-1.1-0.4-1.5c-0.7-0.7-1.6-1.1-2.5-1.4c-0.8-0.3-1.6-0.5-2.5-0.8c-0.3-0.2-0.6,0.2-0.9,0.3c0.4,0.4,0.9,0.7,1.3,1.1
			c-4.6,0.7-9.2,2-13.6,3.6c0.2,0.5,0.4,1,0.6,1.5c-0.7,0.7-1.4,1.4-2.1,2.1c2.7,0.8,5.7,0.2,8-1.4c-0.2-0.3-0.5-0.5-0.7-0.7
			c0.5,0.1,1.1,0.3,1.4,0.8c0.3,0.4,0.3,0.9,0.3,1.3c-0.2,0-0.4,0-0.5,0c0-0.3,0-0.6-0.1-0.9c-1.5,1.1-3.4,1.9-5.3,2
			c-1.4,0.1-2.8-0.1-4.1-0.5c0,0.9,0,1.7,0,2.6c-1.1,0.4-2,1-2.9,1.7c-0.5,0.5-1,1-1.1,1.7c0,0.5,0.3,1,0.6,1.3
			c-0.6-0.2-1-0.8-1.1-1.3c-0.1-0.6,0.2-1.2,0.6-1.6c0.8-1,2-1.6,3.2-2.2c0.1-1.1,0-2.2,0-3.3c0.3,0.2,0.6,0.3,1,0.5
			c0.7-0.7,1.4-1.3,2-2c-0.2-0.6-0.5-1.1-0.6-1.7c2-0.7,3.9-1.4,5.9-2c2.4-0.7,4.8-1.3,7.2-1.7C102.6,85.8,102.3,85.5,102.1,85.3"/>
	</g>
</g>
</svg>
