<?xml version="1.0" encoding="utf-8"?>
<!-- Generator: Adobe Illustrator 28.0.0, SVG Export Plug-In . SVG Version: 6.00 Build 0)  -->
<svg version="1.1" id="svg1" xmlns:svg="http://www.w3.org/2000/svg"
	 xmlns="http://www.w3.org/2000/svg" xmlns:xlink="http://www.w3.org/1999/xlink" x="0px" y="0px" viewBox="0 0 77.1 25.5"
	 style="enable-background:new 0 0 77.1 25.5;" xml:space="preserve">
<style type="text/css">
	.st0{fill:url(#path723_00000118361979108896478680000017781767566872448900_);}
	.st1{fill:url(#path728_00000062161414235234935060000008413329782266852742_);}
	.st2{fill:url(#path733_00000013167336660155408450000003899028480813236395_);}
	.st3{clip-path:url(#SVGID_00000176731692999685032480000017430376060963335100_);fill:#FFFFFF;}
	.st4{clip-path:url(#SVGID_00000019659282865491781670000011749337824354365079_);fill:#0E0F0F;}
	.st5{clip-path:url(#SVGID_00000176013049403196010820000015061912258804902565_);fill:#0E0F0F;}
	.st6{clip-path:url(#SVGID_00000020374821311247975060000003888756779498090408_);fill:#0E0F0F;}
	.st7{clip-path:url(#SVGID_00000088852532996518482510000011899886333360586416_);fill:#0E0F0F;}
	.st8{clip-path:url(#SVGID_00000041272717527871689300000010040187118634926755_);fill:#0E0F0F;}
	.st9{clip-path:url(#SVGID_00000152951616401242645430000013089123124847232958_);fill:#0E0F0F;}
	.st10{clip-path:url(#SVGID_00000145057408423572075860000004419779966223454124_);fill:#0E0F0F;}
	.st11{clip-path:url(#SVGID_00000009572593335544490800000013370481902079002549_);fill:#0E0F0F;}
	.st12{clip-path:url(#SVGID_00000068674999903705680700000009708678740881977754_);fill:#0E0F0F;}
	.st13{clip-path:url(#SVGID_00000141433947966967008940000005764695201907659963_);fill:#0E0F0F;}
	.st14{clip-path:url(#SVGID_00000077309794375052232640000014879314305947163276_);fill:#0E0F0F;}
	.st15{clip-path:url(#SVGID_00000078047099828866724070000006755156275748809377_);fill:#0E0F0F;}
	.st16{clip-path:url(#SVGID_00000048494065110785849660000002851441510772913026_);fill:#0E0F0F;}
	.st17{clip-path:url(#SVGID_00000129203033838449700390000009329643392827899044_);fill:#0E0F0F;}
	.st18{clip-path:url(#SVGID_00000008129944506652779420000005266303930858259643_);fill:#0E0F0F;}
</style>
<g id="layer1" transform="translate(-120.65,-96.04375)">
	
		<linearGradient id="path723_00000050621625260249604760000017680309334035733150_" gradientUnits="userSpaceOnUse" x1="-803.4443" y1="783.3486" x2="-802.4442" y2="783.3486" gradientTransform="matrix(3.7285 -7.0123 7.0123 3.7285 -2366.1846 -8451.6777)">
		<stop  offset="0" style="stop-color:#3F65B9"/>
		<stop  offset="1.571550e-03" style="stop-color:#3F65B9"/>
		<stop  offset="0.2" style="stop-color:#436EBF"/>
		<stop  offset="0.2062" style="stop-color:#436EBF"/>
		<stop  offset="1" style="stop-color:#4983CC"/>
	</linearGradient>
	<path id="path723" style="fill:url(#path723_00000050621625260249604760000017680309334035733150_);" d="M134.5,96.1
		c-0.6,0.1-1.1,0.6-1.5,1l0,0c-0.5,0.7-0.8,1.5-0.9,2.3l0,0c-0.2,1-0.4,2-0.6,3l0,0c0,0.2-0.1,0.4,0,0.6l0,0
		c0.1,0.2,0.2,0.3,0.4,0.4l0,0c0.2,0.1,0.5-0.1,0.6-0.4l0,0c0.3-1.2,0.6-2.8,1.5-3.7l0,0c0.5-0.5,1.2-0.9,1.5-1.6l0,0
		c0.3-0.7,0-1.6-0.8-1.6l0,0C134.7,96,134.6,96.1,134.5,96.1"/>
	
		<linearGradient id="path728_00000118362607250391469510000004108050934051330186_" gradientUnits="userSpaceOnUse" x1="-764.256" y1="691.4946" x2="-763.256" y2="691.4946" gradientTransform="matrix(18.3316 -6.6721 6.6721 18.3316 9517.3496 -17660.6309)">
		<stop  offset="0" style="stop-color:#3F65B9"/>
		<stop  offset="1.571550e-03" style="stop-color:#3F65B9"/>
		<stop  offset="0.2" style="stop-color:#436EBF"/>
		<stop  offset="0.2062" style="stop-color:#436EBF"/>
		<stop  offset="1" style="stop-color:#4983CC"/>
	</linearGradient>
	<path id="path728" style="fill:url(#path728_00000118362607250391469510000004108050934051330186_);" d="M127.9,101.5
		c-0.4,0.1-0.6,0.7-0.9,1l0,0c-0.5,0.4-1,0.6-1.5,0.9l0,0c-0.4,0.3-0.9,0.6-1.3,0.9l0,0c-0.8,0.6-1.5,1.4-2,2.3l0,0
		c-1.1,1.7-1.6,3.7-1.5,5.6l0,0c0.2,5.5,5,9.8,10.6,9.3l0,0c5-0.4,8.9-4.6,8.9-9.6l0,0c0-1.7-0.4-3.4-1.2-4.8l0,0
		c-0.8-1.4-2-2.6-3.4-3.5l0,0c-1.4-0.9-3.1-1.4-4.7-1.5l0,0c-0.3,0-0.5,0-0.8,0l0,0c-0.4,0-0.7-0.1-1-0.2l0,0
		c-0.3-0.1-0.6-0.4-0.9-0.4l0,0C128,101.5,128,101.5,127.9,101.5"/>
	
		<linearGradient id="path733_00000026867911449712374390000008714637981385406344_" gradientUnits="userSpaceOnUse" x1="-894.1617" y1="745.6859" x2="-893.1617" y2="745.6859" gradientTransform="matrix(-2.037 -7.6021 7.6021 -2.037 -7364.2339 -5173.2856)">
		<stop  offset="0" style="stop-color:#3F65B9"/>
		<stop  offset="1.571550e-03" style="stop-color:#3F65B9"/>
		<stop  offset="0.2" style="stop-color:#436EBF"/>
		<stop  offset="0.2062" style="stop-color:#436EBF"/>
		<stop  offset="1" style="stop-color:#4983CC"/>
	</linearGradient>
	<path id="path733" style="fill:url(#path733_00000026867911449712374390000008714637981385406344_);" d="M123.8,97.8
		c-0.2,0.2-0.3,0.4-0.4,0.7l0,0c-0.1,0.3-0.1,0.7-0.1,1l0,0c0,0.1,0,0.3,0,0.4l0,0c0,0.1,0,0.3,0.1,0.4l0,0c0.1,0.8,0.4,1.6,0.7,2.3
		l0,0c0.3,0.7,0.6,1.5,1,2.1l0,0c0.2,0.3,0.4,0.7,0.8,0.5l0,0c0.2-0.1,0.4-0.4,0.3-0.7l0,0c0-0.2-0.1-0.3-0.2-0.5l0,0
		c-0.4-0.8-0.7-1.8-0.7-2.7l0,0c0-1.1,0.6-2.6-0.2-3.5l0,0c-0.2-0.2-0.5-0.3-0.7-0.3l0,0C124.2,97.5,123.9,97.6,123.8,97.8"/>
	<g>
		<defs>
			<rect id="SVGID_1_" x="-73.3" y="-261.6" width="1207.6" height="858.9"/>
		</defs>
		<clipPath id="SVGID_00000057853598381572662260000005614514509761776769_">
			<use xlink:href="#SVGID_1_"  style="overflow:visible;"/>
		</clipPath>
		<path id="path734" style="clip-path:url(#SVGID_00000057853598381572662260000005614514509761776769_);fill:#FFFFFF;" d="
			M137.7,114.7c-0.8,0.9-2,1.5-3.2,1.5c-1.4,0-2.8-0.5-3.9-1.6c-1.1-1.1-1.8-2.5-2-4.1c-0.2-1.7,0.3-3.2,1.3-4.4
			c0.8-0.9,2-1.5,3.2-1.5c0,0,0.1,0,0.1,0c1.4,0,2.7,0.6,3.8,1.7c1.1,1.1,1.7,2.5,1.9,4.1C139.2,112,138.7,113.6,137.7,114.7
			 M139.4,110.6c-0.3-3.6-3.2-6.6-6.5-6.6c-3.3,0-5.6,2.9-5.3,6.6c0.3,3.6,3.2,6.6,6.5,6.6C137.4,117.2,139.8,114.2,139.4,110.6"/>
	</g>
	<g>
		<defs>
			<rect id="SVGID_00000031923648757785479340000005074953808158504114_" x="-73.3" y="-261.6" width="1207.6" height="858.9"/>
		</defs>
		<clipPath id="SVGID_00000008827758984074653450000011667021595531787188_">
			<use xlink:href="#SVGID_00000031923648757785479340000005074953808158504114_"  style="overflow:visible;"/>
		</clipPath>
		<path id="path736" style="clip-path:url(#SVGID_00000008827758984074653450000011667021595531787188_);fill:#0E0F0F;" d="
			M171.1,104.9h-2.8v-0.4c0,0,0,0,0-0.1h2.7V104.9z M171.1,106.2h-2.8v-0.5h2.8V106.2z M171.1,107.5h-2.6c-0.2,0-0.2,0-0.2-0.2v-0.2
			h2.8V107.5z M175.9,112l0.2-0.9c-1.3-0.2-2-0.8-2.4-1.2h2.5v-0.9h-4.1v-0.5h3.8v-0.9h-3.6v-0.4h3.4v-0.9h-3.4v-0.5h3.4v-0.9h-3.4
			v-0.4h3.6v-0.9h-3.5c0.2-0.1,0.4-0.3,0.5-0.5c0.1-0.2,0.2-0.3,0.2-0.3l-0.9-0.5c0,0-0.1,0.2-0.3,0.5c-0.5,0.6-0.9,0.8-1.5,0.8
			h-1.1c0.3-0.5,0.5-0.8,0.5-0.8l-0.9-0.5c0,0-0.8,1.5-2.5,2.9l0.6,0.8c0.2-0.1,0.3-0.3,0.5-0.4v1.9c0,0.6,0.3,0.9,0.9,0.9h2.6v0.5
			h-4.1v0.9h2.5c-0.4,0.4-1.2,1-2.4,1.2l0.2,0.9c2.1-0.4,3.1-1.6,3.4-2.2h0.5v2.3h1v-2.3h0.5C172.8,110.4,173.7,111.6,175.9,112"/>
	</g>
	<g>
		<defs>
			<rect id="SVGID_00000067947270539252538370000016497357069003902903_" x="-73.3" y="-261.6" width="1207.6" height="858.9"/>
		</defs>
		<clipPath id="SVGID_00000140011438978488056220000016413787423343918728_">
			<use xlink:href="#SVGID_00000067947270539252538370000016497357069003902903_"  style="overflow:visible;"/>
		</clipPath>
		<path id="path738" style="clip-path:url(#SVGID_00000140011438978488056220000016413787423343918728_);fill:#0E0F0F;" d="
			M186,110.3c0,0.5-0.3,0.8-0.8,0.8H179v-7.3h7V110.3z M187,110.3v-7.5h-9v9.3h7.2C186.4,112.1,187,111.5,187,110.3"/>
	</g>
	<g>
		<defs>
			<rect id="SVGID_00000116225931889508240050000006586937550745890222_" x="-73.3" y="-261.6" width="1207.6" height="858.9"/>
		</defs>
		<clipPath id="SVGID_00000162354057602668797780000008260324240419969691_">
			<use xlink:href="#SVGID_00000116225931889508240050000006586937550745890222_"  style="overflow:visible;"/>
		</clipPath>
		<path id="path740" style="clip-path:url(#SVGID_00000162354057602668797780000008260324240419969691_);fill:#0E0F0F;" d="
			M179.5,108.7l0.3,0.9c1.5-0.5,2.9-1.6,3.7-2.7v1.9c0,0.4-0.3,0.7-0.8,0.7h-0.9v1h1c1,0,1.7-0.7,1.7-1.6v-2.5h0.7v-1h-0.7v-1h-1v1
			h-3.9v1h3.1C182.1,107.3,180.7,108.2,179.5,108.7"/>
	</g>
	<g>
		<defs>
			<rect id="SVGID_00000155144575711269367420000004568626529871740810_" x="-73.3" y="-261.6" width="1207.6" height="858.9"/>
		</defs>
		<clipPath id="SVGID_00000157288266714996313220000017786608284641251738_">
			<use xlink:href="#SVGID_00000155144575711269367420000004568626529871740810_"  style="overflow:visible;"/>
		</clipPath>
		<path id="path742" style="clip-path:url(#SVGID_00000157288266714996313220000017786608284641251738_);fill:#0E0F0F;" d="
			M154,110.5c0.2-0.6,0.2-1.9,0.2-3.1V107h-1.3l0.3-4.1h-4.3v0.9h3.3l-0.2,3.2h-1.7l0.2-2.7h-1l-0.3,3.6h4.1c0,1.2-0.1,1.9-0.2,2.2
			c-0.1,0.4-0.4,0.9-1.4,0.9h-1.6v1h1.6C152.9,111.9,153.6,111.5,154,110.5"/>
	</g>
	<g>
		<defs>
			<rect id="SVGID_00000109743010730541124370000004946246131990604954_" x="-73.3" y="-261.6" width="1207.6" height="858.9"/>
		</defs>
		<clipPath id="SVGID_00000012462385598432997040000006485734319647082428_">
			<use xlink:href="#SVGID_00000109743010730541124370000004946246131990604954_"  style="overflow:visible;"/>
		</clipPath>
		<path id="path744" style="clip-path:url(#SVGID_00000012462385598432997040000006485734319647082428_);fill:#0E0F0F;" d="
			M145.9,108.2h-0.6v-3.4h0.6V108.2z M146.9,104.8h0.6v3.3c0,0.1-0.1,0.1-0.1,0.1h-0.5V104.8z M148.7,111.1v-1.2h3.4v-1h-3.4v1h-1
			v0.9c0,0.1,0,0.1-0.1,0.1h-0.7v-1.7h0.5c0.7,0,1.1-0.5,1.1-1.1v-4.2h-1.6v-1.3h-1v1.3h-1.5v5.3h1.5v1.7h-1.6v1h3.5
			C148.4,111.9,148.7,111.6,148.7,111.1"/>
	</g>
	<g>
		<defs>
			<rect id="SVGID_00000134950205243948094400000000136590303486256572_" x="-73.3" y="-261.6" width="1207.6" height="858.9"/>
		</defs>
		<clipPath id="SVGID_00000049912263514315782400000017386898459730159263_">
			<use xlink:href="#SVGID_00000134950205243948094400000000136590303486256572_"  style="overflow:visible;"/>
		</clipPath>
		<path id="path746" style="clip-path:url(#SVGID_00000049912263514315782400000017386898459730159263_);fill:#0E0F0F;" d="
			M162.2,105.5l0.8-0.1c0-1.5-0.2-2.8-0.2-2.9l-1,0.1c0,0,0,0,0,0.1C161.9,103,162.2,104.2,162.2,105.5"/>
	</g>
	<g>
		<defs>
			<rect id="SVGID_00000087398305107186576420000004301131812309936307_" x="-73.3" y="-261.6" width="1207.6" height="858.9"/>
		</defs>
		<clipPath id="SVGID_00000047027149451924879740000015031231451476029628_">
			<use xlink:href="#SVGID_00000087398305107186576420000004301131812309936307_"  style="overflow:visible;"/>
		</clipPath>
		<path id="path748" style="clip-path:url(#SVGID_00000047027149451924879740000015031231451476029628_);fill:#0E0F0F;" d="
			M157.1,108.2h-0.6v-3.4h0.6V108.2z M158.1,104.8h0.6v3.3c0,0.1-0.1,0.1-0.1,0.1h-0.5V104.8z M165.6,111.3
			c-0.9-0.8-1.7-1.5-2.4-2.2c0.3-0.5,0.6-0.9,0.9-1.4c0.7-1.3,0.7-2.7,0.7-4h-1c0,1.2,0,2.5-0.6,3.6c-0.2,0.4-0.4,0.7-0.6,1.1
			c-0.2-0.3-0.5-0.7-0.6-1.1c-0.6-1.1-0.6-2.4-0.6-3.6h-1c0,1.3,0.1,2.7,0.7,4c0.3,0.5,0.6,1,0.9,1.4c-0.6,0.7-1.3,1.3-2,2v-0.1v-1
			h-1v0.9c0,0.1,0,0.1-0.1,0.1h-0.7v-1.7h0.5c0.7,0,1.1-0.5,1.1-1.1v-4.2h-1.6v-1.3h-1v1.3h-1.5v5.3h1.5v1.7h-1.6v1h3.5
			c0.3,0,0.6-0.1,0.7-0.3l0.5,0.5c0.9-0.8,1.7-1.5,2.4-2.2c0.7,0.8,1.5,1.5,2.4,2.2L165.6,111.3z"/>
	</g>
	<g>
		<defs>
			<rect id="SVGID_00000131334433312041549970000009547629469572031418_" x="-73.3" y="-261.6" width="1207.6" height="858.9"/>
		</defs>
		<clipPath id="SVGID_00000078032272112294945230000007697470965024064394_">
			<use xlink:href="#SVGID_00000131334433312041549970000009547629469572031418_"  style="overflow:visible;"/>
		</clipPath>
		<path id="path750" style="clip-path:url(#SVGID_00000078032272112294945230000007697470965024064394_);fill:#0E0F0F;" d="
			M147,118.1c-0.5,0-1,0.1-1.4,0.2c0.4-1.2,1-2.7,1.1-2.9c0-0.1,0.1-0.1,0.1-0.1c0,0,0.1,0,0.1,0.1c0.1,0.3,0.8,1.8,1.1,2.9
			C147.9,118.1,147.5,118.1,147,118.1 M146.1,114.3c-0.9,2-1.7,4.1-2.4,6.4c0,0,0.2,0.1,0.6,0.1c0.3,0,0.6-0.1,0.6-0.1
			c0.2-0.7,0.5-1.7,0.5-1.7s0.9-0.1,1.5-0.1c0.7,0.1,1,0.2,1.4,0.3c0.1,0.1,0.2,0.1,0.3,0.2c0.1,0.2,0.2,0.7,0.4,1.3
			c0,0,0.2,0.1,0.6,0.1c0.3,0,0.6-0.1,0.6-0.1c-0.7-2.3-1.4-4.4-2.4-6.4H146.1z"/>
	</g>
	<g>
		<defs>
			<rect id="SVGID_00000019642257261728019620000007166835013353575062_" x="-73.3" y="-261.6" width="1207.6" height="858.9"/>
		</defs>
		<clipPath id="SVGID_00000120532343437245810370000006059887018750601643_">
			<use xlink:href="#SVGID_00000019642257261728019620000007166835013353575062_"  style="overflow:visible;"/>
		</clipPath>
		<path id="path752" style="clip-path:url(#SVGID_00000120532343437245810370000006059887018750601643_);fill:#0E0F0F;" d="
			M181.7,119.7c-1.2,0-2.2-1-2.2-2.2c0-1.2,1-2.2,2.2-2.2s2.2,1,2.2,2.2C183.9,118.7,182.9,119.7,181.7,119.7 M181.7,114.2
			c-1.8,0-3.3,1.5-3.3,3.3c0,1.8,1.5,3.3,3.3,3.3c1.8,0,3.3-1.5,3.3-3.3C185,115.7,183.5,114.2,181.7,114.2"/>
	</g>
	<g>
		<defs>
			<rect id="SVGID_00000100353516212598882610000009351065685755856547_" x="-73.3" y="-261.6" width="1207.6" height="858.9"/>
		</defs>
		<clipPath id="SVGID_00000032607149778493964950000011619817853723801509_">
			<use xlink:href="#SVGID_00000100353516212598882610000009351065685755856547_"  style="overflow:visible;"/>
		</clipPath>
		<path id="path754" style="clip-path:url(#SVGID_00000032607149778493964950000011619817853723801509_);fill:#0E0F0F;" d="
			M174.9,117.3h-1.5v-2.1h1.7c1,0,1.4,0.2,1.4,1C176.5,117.1,175.9,117.3,174.9,117.3 M176.4,118.5c-0.3-0.3-0.6-0.3-0.6-0.4
			c0-0.1,0.2,0,0.4-0.1c0.9-0.2,1.4-0.9,1.4-1.7c0-1.5-1-1.9-2.5-1.9h-2.7v6.4c0,0,0.2,0.1,0.6,0.1c0.3,0,0.6-0.1,0.6-0.1v-2.4h0.7
			c0.5,0,0.9,0.1,1.2,0.3c0.3,0.2,0.5,0.5,0.8,1c0.2,0.3,0.6,1.1,0.6,1.1c0,0,0.3,0.1,0.6,0.1c0.4,0,0.6-0.1,0.6-0.1
			C177.4,119.5,177,118.9,176.4,118.5"/>
	</g>
	<g>
		<defs>
			<rect id="SVGID_00000046313441924940018870000001976807286823649214_" x="-73.3" y="-261.6" width="1207.6" height="858.9"/>
		</defs>
		<clipPath id="SVGID_00000114780948433994548070000012915824015306508700_">
			<use xlink:href="#SVGID_00000046313441924940018870000001976807286823649214_"  style="overflow:visible;"/>
		</clipPath>
		<path id="path756" style="clip-path:url(#SVGID_00000114780948433994548070000012915824015306508700_);fill:#0E0F0F;" d="
			M190.3,114.3v3.8c0,1-0.6,1.7-1.6,1.7s-1.6-0.6-1.6-1.7v-3.8c0,0-0.2-0.1-0.6-0.1c-0.3,0-0.6,0.1-0.6,0.1v3.8
			c0,1.9,1.2,2.7,2.7,2.7c1.5,0,2.7-0.8,2.7-2.7v-3.8c0,0-0.2-0.1-0.6-0.1C190.5,114.3,190.3,114.3,190.3,114.3"/>
	</g>
	<g>
		<defs>
			<rect id="SVGID_00000098899808396704063500000012366088704460202654_" x="-73.3" y="-261.6" width="1207.6" height="858.9"/>
		</defs>
		<clipPath id="SVGID_00000177445999638066942900000008466294891671644801_">
			<use xlink:href="#SVGID_00000098899808396704063500000012366088704460202654_"  style="overflow:visible;"/>
		</clipPath>
		<path id="path758" style="clip-path:url(#SVGID_00000177445999638066942900000008466294891671644801_);fill:#0E0F0F;" d="
			M195.3,117.6h-1.5v-2.3h1.5c1,0,1.4,0.3,1.4,1.2C196.7,117.3,196.2,117.6,195.3,117.6 M195.5,114.3h-2.8v6.4c0,0,0.2,0.1,0.6,0.1
			c0.3,0,0.6-0.1,0.6-0.1v-2.1h1.8c1.3,0,2.2-0.9,2.2-2.2C197.8,115.1,196.9,114.3,195.5,114.3"/>
	</g>
	<g>
		<defs>
			<rect id="SVGID_00000109718057520689671520000015190804922899503799_" x="-73.3" y="-261.6" width="1207.6" height="858.9"/>
		</defs>
		<clipPath id="SVGID_00000102505305333480675260000015977635957781492157_">
			<use xlink:href="#SVGID_00000109718057520689671520000015190804922899503799_"  style="overflow:visible;"/>
		</clipPath>
		<path id="path760" style="clip-path:url(#SVGID_00000102505305333480675260000015977635957781492157_);fill:#0E0F0F;" d="
			M168.2,115.2c0.9,0,1.6,0.3,2.1,1.1l0.8-0.6c-0.7-1-1.5-1.5-3-1.5c-1.8,0-3.2,1.4-3.2,3.3c0,1.9,1.4,3.3,3,3.3
			c0.5,0,0.9-0.1,1.3-0.3c0.3-0.1,0.5-0.2,0.7-0.4c0.1-0.1,0.2-0.1,0.3-0.1c0.1,0,0.1,0.1,0.1,0.2c0,0.2,0,0.4,0,0.4
			s0.2,0.1,0.4,0.1c0.2,0,0.4-0.1,0.4-0.1l0-3.4h-2.9v0.9h1.9c0,0.7-0.6,1.6-2,1.6c-1.3,0-2.1-1.1-2.1-2.3
			C165.9,116.1,167,115.2,168.2,115.2"/>
	</g>
	<g>
		<defs>
			<rect id="SVGID_00000095314342997945410260000013634408332417396633_" x="-73.3" y="-261.6" width="1207.6" height="858.9"/>
		</defs>
		<clipPath id="SVGID_00000072254175526886904370000010450151443450085543_">
			<use xlink:href="#SVGID_00000095314342997945410260000013634408332417396633_"  style="overflow:visible;"/>
		</clipPath>
		<path id="path762" style="clip-path:url(#SVGID_00000072254175526886904370000010450151443450085543_);fill:#0E0F0F;" d="
			M155.2,114.3v4.6c-1.1-1.8-2.2-3.4-3.3-4.6c0,0-0.2-0.1-0.5-0.1c-0.3,0-0.5,0.1-0.5,0.1v6.4c0,0,0.2,0.1,0.5,0.1
			c0.3,0,0.5-0.1,0.5-0.1v-4.9c1.2,1.6,2.3,3.3,3.2,4.9c0,0,0.2,0.1,0.6,0.1c0.3,0,0.6-0.1,0.6-0.1v-6.4c0,0-0.2-0.1-0.5-0.1
			C155.4,114.3,155.2,114.3,155.2,114.3"/>
	</g>
	<g>
		<defs>
			<rect id="SVGID_00000023259726632946039170000004833218537170269106_" x="-73.3" y="-261.6" width="1207.6" height="858.9"/>
		</defs>
		<clipPath id="SVGID_00000023976034821116472290000015101000823057034403_">
			<use xlink:href="#SVGID_00000023259726632946039170000004833218537170269106_"  style="overflow:visible;"/>
		</clipPath>
		<path id="path764" style="clip-path:url(#SVGID_00000023976034821116472290000015101000823057034403_);fill:#0E0F0F;" d="
			M157.2,115.3h2.3v5.3c0,0,0.2,0.1,0.6,0.1c0.3,0,0.6-0.1,0.6-0.1v-5.3h2.3v-1h-5.8V115.3z"/>
	</g>
</g>
</svg>
