<?xml version="1.0" encoding="UTF-8" standalone="no"?>
<!-- Created with Inkscape (http://www.inkscape.org/) -->

<svg
   width="29.142996mm"
   height="8.5058603mm"
   viewBox="0 0 29.142996 8.5058603"
   version="1.1"
   id="svg1"
   xmlns="http://www.w3.org/2000/svg"
   xmlns:svg="http://www.w3.org/2000/svg">
  <defs
     id="defs1">
    <clipPath
       clipPathUnits="userSpaceOnUse"
       id="clipPath991">
      <path
         d="M 0,858.898 H 1207.558 V 0 H 0 Z"
         transform="translate(-368.81501,-343.38461)"
         id="path991" />
    </clipPath>
    <clipPath
       clipPathUnits="userSpaceOnUse"
       id="clipPath993">
      <path
         d="M 0,858.898 H 1207.558 V 0 H 0 Z"
         transform="translate(-368.87721,-326.21181)"
         id="path993" />
    </clipPath>
    <clipPath
       clipPathUnits="userSpaceOnUse"
       id="clipPath995">
      <path
         d="M 0,858.898 H 1207.558 V 0 H 0 Z"
         transform="translate(-373.46081,-326.66841)"
         id="path995" />
    </clipPath>
    <clipPath
       clipPathUnits="userSpaceOnUse"
       id="clipPath997">
      <path
         d="M 0,858.898 H 1207.558 V 0 H 0 Z"
         transform="translate(-379.44851,-326.66991)"
         id="path997" />
    </clipPath>
    <clipPath
       clipPathUnits="userSpaceOnUse"
       id="clipPath999">
      <path
         d="M 0,858.898 H 1207.558 V 0 H 0 Z"
         transform="translate(-381.39901,-326.70281)"
         id="path999" />
    </clipPath>
    <clipPath
       clipPathUnits="userSpaceOnUse"
       id="clipPath1001">
      <path
         d="M 0,858.898 H 1207.558 V 0 H 0 Z"
         transform="translate(-388.93151,-326.19531)"
         id="path1001" />
    </clipPath>
  </defs>
  <g
     id="layer1"
     transform="translate(-123.14604,-111.75131)">
    <path
       id="path990"
       d="m 0,0 v -11.792 h 10.659 v 1.287 H 1.649 V 0 Z M 7.626,-4.172 H 8.848 L 11.068,0 H 9.282 Z m 18.415,-1.289 c 0,3.199 -2.557,5.985 -6.034,5.985 -3.566,0 -6.164,-2.786 -6.164,-5.985 0,-3.203 2.726,-5.862 6.036,-5.862 3.308,0 6.162,2.659 6.162,5.862 m 1.934,0.004 c 0,-4.341 -3.6,-7.331 -8.039,-7.331 -4.441,0 -8.043,3.034 -8.043,7.331 0,4.081 3.26,7.454 8.043,7.454 4.739,0 8.039,-3.373 8.039,-7.454 m 10.757,-1.405 c 1.054,-1.601 3.616,-4.93 3.616,-4.93 h -2.137 l -3.559,4.946 h -4.839 v -4.946 H 30.119 V 0 h 7.433 c 2.55,0 3.97,-1.305 4.131,-3.412 0.013,-0.718 -0.249,-2.729 -2.951,-3.45 m -1.412,1.41 c 0.899,0 1.804,0.167 2.28,0.955 0.291,0.477 0.403,1.177 0.228,1.711 -0.266,0.778 -1.005,1.39 -2.316,1.39 H 31.813 V -5.452 H 37.32 M 64.139,0 70.141,-11.793 h -2.007 l -1.547,3.053 h -7.191 l -1.534,-3.053 H 55.835 L 61.831,0 Z m 1.7,-7.263 -2.859,5.633 -2.825,-5.633 z M 71.052,0 v -11.792 h 10.66 v 1.287 H 72.701 V 0 Z M 49.933,1.907 48.506,0.303 52.988,1.907 Z M 44.454,0 H 54.998 V -1.284 H 46.262 V -5.08 h 6.562 v -1.303 h -6.562 v -4.122 h 8.736 v -1.288 H 44.454 Z"
       style="fill:#0e0f0f;fill-opacity:1;fill-rule:nonzero;stroke:none"
       transform="matrix(0.35277776,0,0,-0.35277776,123.46287,112.45581)"
       clip-path="url(#clipPath991)" />
    <path
       id="path992"
       d="M 0,0 C 0.966,0.78 2.412,0.793 3.453,0.153 3.413,0.078 3.334,-0.072 3.293,-0.145 2.305,0.494 0.853,0.428 0.027,-0.451 -0.841,-1.431 -0.81,-3.12 0.163,-4.019 1.021,-4.751 2.344,-4.784 3.293,-4.209 3.334,-4.28 3.414,-4.423 3.455,-4.495 2.447,-5.103 1.051,-5.106 0.088,-4.404 -1.284,-3.386 -1.305,-1.079 0,0"
       style="fill:#221b19;fill-opacity:1;fill-rule:nonzero;stroke:none"
       transform="matrix(0.35277776,0,0,-0.35277776,123.48481,118.51399)"
       clip-path="url(#clipPath993)" />
    <path
       id="path994"
       d="m 0,0 h 0.367 c 0.003,-0.798 0,-1.596 0.001,-2.395 1.198,0 2.395,0 3.593,10e-4 0,0.798 -0.002,1.596 0,2.394 0.093,0 0.275,0.001 0.367,0.001 0.004,-1.746 0.003,-3.493 10e-4,-5.24 H 3.962 c -0.003,0.835 0.002,1.67 -0.003,2.506 -1.196,-0.002 -2.392,-0.002 -3.589,0 C 0.365,-3.569 0.371,-4.404 0.367,-5.239 H 0 C -0.001,-3.492 -0.001,-1.747 0,0"
       style="fill:#221b19;fill-opacity:1;fill-rule:nonzero;stroke:none"
       transform="matrix(0.35277776,0,0,-0.35277776,125.10181,118.35291)"
       clip-path="url(#clipPath995)" />
    <path
       id="path996"
       d="m 0,0 c 0.093,-0.001 0.275,-0.001 0.367,-0.001 0.001,-1.747 0.003,-3.493 0,-5.24 L 0,-5.241 C -0.001,-3.494 -0.003,-1.747 0,0"
       style="fill:#221b19;fill-opacity:1;fill-rule:nonzero;stroke:none"
       transform="matrix(0.35277776,0,0,-0.35277776,127.21413,118.35238)"
       clip-path="url(#clipPath997)" />
    <path
       id="path998"
       d="m 0,0 c 0.183,-0.028 0.325,-0.118 0.43,-0.265 1.145,-1.445 2.261,-2.916 3.447,-4.328 0.023,1.52 0.002,3.039 0.012,4.559 h 0.365 c 0,-1.756 0.005,-3.512 -10e-4,-5.268 -0.175,0.012 -0.312,0.088 -0.409,0.23 -1.16,1.452 -2.316,2.907 -3.477,4.356 -0.008,-1.519 0,-3.038 -0.005,-4.558 H -0.004 C -0.004,-3.516 -0.012,-1.757 0,0"
       style="fill:#221b19;fill-opacity:1;fill-rule:nonzero;stroke:none"
       transform="matrix(0.35277776,0,0,-0.35277776,127.90223,118.34078)"
       clip-path="url(#clipPath999)" />
    <path
       id="path1000"
       d="M 0,0 C -0.44,-1.04 -0.889,-2.078 -1.334,-3.117 -0.448,-3.123 0.437,-3.12 1.323,-3.12 0.882,-2.079 0.431,-1.043 0,0 m -2.377,-4.763 c 0.748,1.742 1.474,3.492 2.229,5.23 0.072,0.002 0.215,0.003 0.287,0.003 0.765,-1.739 1.503,-3.495 2.228,-5.253 -0.092,0.009 -0.276,0.029 -0.369,0.038 -0.206,0.417 -0.351,0.86 -0.538,1.286 -0.976,10e-4 -1.952,-0.002 -2.928,0.003 -0.185,-0.426 -0.364,-0.854 -0.518,-1.291 -0.098,-0.004 -0.294,-0.012 -0.391,-0.016"
       style="fill:#221b19;fill-opacity:1;fill-rule:nonzero;stroke:none"
       transform="matrix(0.35277776,0,0,-0.35277776,130.55953,118.51981)"
       clip-path="url(#clipPath1001)" />
  </g>
</svg>
