<?xml version="1.0" encoding="utf-8"?>
<!-- Generator: Adobe Illustrator 28.0.0, SVG Export Plug-In . SVG Version: 6.00 Build 0)  -->
<svg version="1.1" id="svg1" xmlns:svg="http://www.w3.org/2000/svg"
	 xmlns="http://www.w3.org/2000/svg" xmlns:xlink="http://www.w3.org/1999/xlink" x="0px" y="0px" viewBox="0 0 39.1 39.1"
	 style="enable-background:new 0 0 39.1 39.1;" xml:space="preserve">
<style type="text/css">
	
		.st0{clip-path:url(#SVGID_00000063616559130170247150000012920653517906829715_);fill-rule:evenodd;clip-rule:evenodd;fill:#2B3665;}
	
		.st1{clip-path:url(#SVGID_00000050661572295646397050000001570014933698851216_);fill-rule:evenodd;clip-rule:evenodd;fill:#2B3665;}
	
		.st2{clip-path:url(#SVGID_00000178913578922612180050000005771650615740663482_);fill-rule:evenodd;clip-rule:evenodd;fill:#2B3665;}
	
		.st3{clip-path:url(#SVGID_00000055698251935541638490000017899144555111867273_);fill-rule:evenodd;clip-rule:evenodd;fill:#2B3665;}
	
		.st4{clip-path:url(#SVGID_00000069390507383494855650000012857054056360480650_);fill-rule:evenodd;clip-rule:evenodd;fill:#2B3665;}
	
		.st5{clip-path:url(#SVGID_00000066511789815622578410000007521130886444753283_);fill-rule:evenodd;clip-rule:evenodd;fill:#2B3665;}
	
		.st6{clip-path:url(#SVGID_00000020360022943503020790000015630453054586203530_);fill-rule:evenodd;clip-rule:evenodd;fill:#2B3665;}
	
		.st7{clip-path:url(#SVGID_00000012466369767865734210000000158617764184166062_);fill-rule:evenodd;clip-rule:evenodd;fill:#2B3665;}
	
		.st8{clip-path:url(#SVGID_00000033361722234552913030000001674909418943134857_);fill-rule:evenodd;clip-rule:evenodd;fill:#2B3665;}
	
		.st9{clip-path:url(#SVGID_00000070091074508753543120000012081324692064664484_);fill-rule:evenodd;clip-rule:evenodd;fill:#2B3665;}
</style>
<g id="layer1" transform="translate(-168.68972,-173.97598)">
	<g>
		<defs>
			<rect id="SVGID_1_" x="-328.3" y="-515.9" width="1207.6" height="858.9"/>
		</defs>
		<clipPath id="SVGID_00000129888628980066881270000008221158744158502274_">
			<use xlink:href="#SVGID_1_"  style="overflow:visible;"/>
		</clipPath>
		
			<path id="path3487" style="clip-path:url(#SVGID_00000129888628980066881270000008221158744158502274_);fill-rule:evenodd;clip-rule:evenodd;fill:#2B3665;" d="
			M173.7,189.3l0.4,1.1l1.1-0.5l-0.5,1.1l1.1,0.4l-1.1,0.4l0.5,1.1l-1.1-0.5l-0.4,1.1l-0.4-1.1l-1.1,0.5l0.5-1.1l-1.1-0.4l1.1-0.4
			l-0.5-1.1l1.1,0.5L173.7,189.3z M202.9,189.3l0.4,1.1l1.1-0.5l-0.5,1.1l1.1,0.4l-1.1,0.4l0.5,1.1l-1.1-0.5l-0.4,1.1l-0.4-1.1
			l-1.1,0.5l0.5-1.1l-1.1-0.4l1.1-0.4l-0.5-1.1l1.1,0.5"/>
	</g>
	<g>
		<defs>
			<rect id="SVGID_00000163072162594369298910000004694225825626062245_" x="-328.3" y="-515.9" width="1207.6" height="858.9"/>
		</defs>
		<clipPath id="SVGID_00000183248033042462277390000015717917102574857091_">
			<use xlink:href="#SVGID_00000163072162594369298910000004694225825626062245_"  style="overflow:visible;"/>
		</clipPath>
		
			<path id="path3489" style="clip-path:url(#SVGID_00000183248033042462277390000015717917102574857091_);fill-rule:evenodd;clip-rule:evenodd;fill:#2B3665;" d="
			M191.4,177.1C191.4,177.1,191.4,177.1,191.4,177.1c-0.1,0-0.1,0.1-0.1,0.1c0,0.1,0,0.3,0,0.4c0,0.1,0,0.2-0.1,0.4
			c-0.2,0.6-0.3,1-0.4,1.4c-0.1,0.3-0.3,0.6-0.4,0.9c-0.1,0.1-0.1,0.2-0.1,0.3c0,0.1,0,0.2,0,0.3c0,0.1,0.1,0.1,0.1,0
			c0.1,0,0.1-0.1,0.2-0.2c0.1-0.2,0.2-0.5,0.3-0.7c0.1-0.3,0.2-0.6,0.3-0.9c0-0.1,0.1-0.2,0.1-0.3c0,0,0,0,0,0c0.1,0,0.3,0,0.6,0.1
			c0,0,0,0,0,0.1c0,0.1,0.1,0.2,0.2,0.1c0.1-0.1,0.1-0.1,0.1-0.2c0.1-0.2,0.1-0.4,0.2-0.6c0.1-0.2,0.1-0.3,0.2-0.4
			c0.1-0.1,0.1-0.1,0-0.2c-0.1-0.1-0.1-0.2-0.2-0.2c-0.1,0-0.1-0.1-0.2,0c-0.2,0-0.5,0-0.8,0c0,0,0,0,0,0
			C191.6,177.2,191.5,177.1,191.4,177.1C191.4,177.1,191.4,177.1,191.4,177.1 M193.4,177.4C193.4,177.4,193.4,177.4,193.4,177.4
			C193.4,177.4,193.4,177.4,193.4,177.4c0,0.2,0,0.4-0.1,0.5c-0.1,0.2-0.1,0.5-0.2,0.7c0,0.1,0,0.2,0,0.3c0,0.1,0,0.1,0.1,0.2
			c0,0,0.1,0,0.1-0.1c0,0,0,0,0,0c0,0,0.1,0,0.1,0c0.2,0,0.4,0.1,0.8,0.2c-0.2,0.8-0.4,1.5-0.6,2.1c0,0.1-0.1,0.2-0.1,0.2
			c0,0-0.1,0-0.1,0c-0.1,0-0.2-0.1-0.3-0.1c-0.1,0-0.1-0.1-0.1,0c0.1,0.2,0.3,0.4,0.3,0.6c0,0.1,0.1,0.1,0.1,0.2c0,0,0.1,0,0.1,0
			c0.1,0,0.1-0.1,0.2-0.2c0.1-0.1,0.1-0.2,0.1-0.3c0.2-0.8,0.4-1.8,0.8-3c0.1-0.2,0.1-0.4,0.2-0.4c0.1-0.1,0.1-0.1,0-0.2
			c-0.1-0.1-0.1-0.2-0.3-0.3c-0.1,0-0.1-0.1-0.2-0.1c-0.2,0-0.3,0-0.4,0.1c-0.1,0-0.3,0-0.4,0C193.6,177.5,193.5,177.5,193.4,177.4
			C193.5,177.4,193.4,177.4,193.4,177.4 M191.8,177.5c0.1,0,0.3,0,0.4,0c0.1,0,0.2,0,0.3,0.1c0,0,0,0.1,0,0.2
			c-0.1,0.3-0.2,0.6-0.3,0.8c0,0,0,0.1,0,0.1c0,0,0-0.1-0.1-0.1c0,0-0.1-0.1-0.2-0.1c-0.1,0-0.3,0-0.4,0c0-0.1,0.1-0.3,0.1-0.4
			c0.2,0,0.3,0,0.5,0.1c0.1,0,0.1,0,0.1-0.1c0-0.1-0.1-0.1-0.2-0.1c-0.1,0-0.2,0-0.3,0c0,0,0,0,0,0
			C191.6,177.7,191.7,177.6,191.8,177.5C191.7,177.5,191.7,177.5,191.8,177.5 M182.1,177.7c-0.1,0-0.1,0-0.2,0.1
			c-0.1,0.1-0.1,0.1,0,0.2c0.2,0.1,0.3,0.2,0.3,0.3c0.1,0.4,0.3,0.8,0.3,1.1c-0.3,0.2-0.7,0.4-1.1,0.6c-0.1,0-0.1,0.1,0,0.1
			c0.1,0,0.1,0,0.2,0c0.1,0,0.2,0,0.2-0.1c0.2-0.2,0.4-0.3,0.7-0.4c0,0,0,0.1,0,0.1c0.1,0.4,0.1,0.7,0,1c0,0.2-0.1,0.4-0.2,0.7
			c-0.1,0.2-0.3,0.5-0.6,0.8c0,0-0.1,0.1-0.1,0.1c0,0,0,0,0.1,0c0.1,0,0.2-0.1,0.4-0.3c0.1-0.1,0.3-0.3,0.4-0.5
			c0.1-0.2,0.2-0.4,0.3-0.6c0.1-0.2,0.1-0.5,0-0.9c0-0.1,0-0.1,0-0.2c0.1,0.1,0.4,0.3,0.8,0.6c0.4,0.3,0.8,0.6,1.1,0.7
			c0.1,0.1,0.3,0.1,0.3,0.1c0.3-0.1,0.5-0.2,0.8-0.3c0.1,0,0.2-0.1,0.1-0.1c0,0-0.1-0.1-0.2-0.1c-0.2,0-0.4,0-0.5,0
			c-0.2,0-0.4,0-0.6-0.1c-0.2-0.1-0.5-0.2-0.9-0.4c-0.4-0.2-0.7-0.4-1-0.6c0-0.1,0-0.1,0-0.2c0.3-0.2,0.7-0.4,1.3-0.6
			c0.1,0,0.2-0.1,0.2-0.1c0.1,0,0.1-0.1,0.1-0.1c0,0,0-0.1-0.1-0.1c-0.1,0-0.3-0.1-0.4,0c-0.1,0-0.2,0-0.2,0.1
			c-0.2,0.2-0.6,0.4-1,0.6c0-0.1-0.1-0.3-0.1-0.4c0-0.1-0.1-0.2-0.1-0.3c-0.1-0.2-0.1-0.3-0.1-0.6c0-0.1,0-0.1-0.1-0.1
			C182.4,177.8,182.3,177.7,182.1,177.7C182.1,177.7,182.1,177.7,182.1,177.7 M193.7,177.8C193.7,177.8,193.7,177.8,193.7,177.8
			c0.3,0,0.5,0,0.7,0c0.1,0,0.1,0,0.1,0.1c0,0.1,0,0.2,0,0.3c-0.1,0.3-0.1,0.5-0.2,0.8c0,0,0,0-0.1-0.1c0-0.1-0.1-0.1-0.2-0.1
			c-0.2,0-0.4,0-0.6-0.1c0,0,0-0.1,0-0.2c0-0.1,0.1-0.2,0.1-0.3c0,0,0,0,0,0c0.2,0,0.4,0.1,0.6,0.1c0.1,0,0.1,0,0.1-0.1
			c0-0.1-0.1-0.1-0.2-0.1c-0.1,0-0.2,0-0.3,0c-0.1,0-0.1,0-0.2,0C193.6,178.1,193.6,177.9,193.7,177.8 M200.6,182.4
			C200.6,182.4,200.6,182.4,200.6,182.4c-0.1,0.2-0.2,0.3-0.4,0.4c-0.7,0.4-1.2,0.7-1.6,0.8l0,0c-0.4,0.1-0.9,0.2-1.4,0.2
			c0,0-0.1,0-0.1,0c0,0,0,0,0,0.1c0.1,0.1,0.4,0.1,0.9,0.1c0.1,0,0.2,0,0.4,0c0.6-0.1,1.2-0.4,1.8-0.7c0.2-0.1,0.4-0.2,0.6-0.3
			c0,0.1,0.2,0.3,0.4,0.5c0.3,0.3,0.5,0.5,0.8,0.8c0.2,0.1,0.3,0.2,0.3,0.2c0,0,0.1,0,0.1,0c0,0,0-0.1,0-0.2c0-0.1-0.2-0.2-0.5-0.4
			c-0.4-0.4-0.8-0.7-1-1c0,0,0,0,0,0C200.8,182.6,200.7,182.5,200.6,182.4C200.6,182.4,200.6,182.4,200.6,182.4 M175.4,182.5
			c-0.1,0-0.2,0-0.4,0.1c-0.1,0-0.1,0.1-0.1,0.1c-0.1,0.2-0.1,0.4-0.2,0.6c0,0.1,0,0.1,0,0.1c0.1,0,0.1,0,0.2-0.1
			c0.1,0,0.1-0.1,0.1-0.2c0-0.1,0.1-0.2,0.1-0.2c0,0,0,0,0,0c0,0,0.1,0,0.2,0c0.1,0.1,0.1,0.1,0.2,0.2c0,0-0.1,0-0.1,0.1
			c0,0.1-0.1,0.1-0.1,0.3c0,0.1,0,0.1-0.1,0.2c0,0,0,0.1,0.1,0c0,0,0,0,0.1-0.1c0.1-0.2,0.2-0.3,0.2-0.4c0.1,0.1,0.1,0.1,0.2,0.2
			c0,0-0.1,0-0.1,0.1c0,0.1-0.1,0.1-0.1,0.3c0,0.1,0,0.2,0,0.2c0,0,0,0.1,0.1,0c0,0,0,0,0.1-0.1c0.1-0.2,0.1-0.3,0.2-0.4
			c0.1,0.1,0.2,0.2,0.3,0.3c0,0.1-0.1,0.1-0.1,0.2c-0.2,0.3-0.4,0.8-0.6,1.4c0,0,0,0,0,0c-0.2-0.1-0.3-0.1-0.4-0.2c0,0,0,0,0,0
			c0.1-0.2,0.1-0.3,0.2-0.4c0-0.1,0-0.1,0-0.1c-0.1,0-0.1,0-0.2,0.1c0,0.1-0.1,0.2-0.1,0.3c0,0,0,0.1,0,0.1c-0.1,0-0.1,0-0.2-0.1
			c0,0-0.1,0-0.1-0.1c0.1-0.2,0.1-0.3,0.2-0.5c0-0.1,0-0.1,0-0.1c0,0-0.1,0-0.1,0.1c0,0.1-0.1,0.1-0.1,0.3c0,0.1,0,0.1,0,0.2
			c-0.1,0-0.1-0.1-0.1-0.1c0,0-0.1,0-0.1,0c0-0.1,0-0.2,0-0.2c0-0.1,0-0.1,0-0.2c0-0.1,0-0.1,0-0.2c0-0.1,0-0.1-0.1-0.1
			c-0.1,0-0.1,0-0.2,0.1c-0.1,0-0.1,0.1-0.1,0.1c0,0,0,0.1,0,0.1c0,0,0.1,0.1,0.1,0.1c0,0.1,0.1,0.1,0.1,0.2c0,0.1,0,0.1,0.1,0.2
			c-0.1,0-0.1,0.1-0.2,0.2c0,0,0,0.1,0,0.1c0,0,0,0.1,0.1,0c0.1,0,0.3,0,0.4,0c0.1,0,0.4,0.1,0.9,0.3c-0.1,0.1-0.1,0.3-0.2,0.4
			c0,0,0,0,0,0c0,0,0,0,0,0c-0.1,0-0.2,0-0.2,0c-0.1,0-0.1,0.1,0,0.1c0,0,0,0,0.1,0c0.1,0,0.1,0.1,0.1,0.1c0,0.1,0.1,0.2,0.1,0.3
			c0,0,0.1,0.1,0.1,0.1c0.1,0,0.2,0.1,0.2,0.1c0.1,0,0.1,0,0.1-0.2c0-0.1-0.1-0.2-0.2-0.3c-0.1-0.1-0.2-0.2-0.2-0.3
			c0.1,0,0.2-0.1,0.2-0.2c0.1-0.3,0.2-0.6,0.3-0.8c0.1-0.3,0.3-0.7,0.5-1.2c0.1-0.3,0.2-0.5,0.3-0.5c0.1,0,0.1,0,0.1,0
			c0,0,0,0,0.1,0.1c0.1,0.1,0.1,0.2,0.2,0.3c0,0,0.1,0.1,0.1,0.1c0,0,0-0.1,0-0.1c0-0.2,0-0.4,0.1-0.6c0-0.1,0-0.2,0-0.2
			c0,0-0.2,0-0.5,0.1c-0.1,0-0.2,0.1-0.2,0.2c-0.1,0.1-0.1,0.3-0.2,0.4C175.8,183.1,175.6,182.8,175.4,182.5
			C175.4,182.5,175.4,182.5,175.4,182.5 M200.5,183.3C200.4,183.3,200.4,183.3,200.5,183.3c0,0.2,0,0.3,0.1,0.3
			c0.1,0,0.2,0.1,0.2,0.2c-0.1,0.1-0.2,0.1-0.4,0.2c-0.1-0.1-0.1-0.1-0.2-0.2c0-0.1,0-0.1,0-0.2c0,0,0,0-0.1,0c0,0,0,0,0,0.1
			c-0.2,0.2-0.4,0.4-0.7,0.6c-0.1,0-0.1,0.1-0.1,0.1c-0.1,0.1-0.1,0.1-0.1,0.2c0,0,0,0.1,0,0.1c0,0,0,0,0.1,0c0,0,0,0.1,0.1,0.1
			c-0.2,0.2-0.6,0.2-1.1,0.1c0,0,0,0,0,0c-0.2,0-0.4-0.1-0.8-0.2c0,0,0,0,0,0c0.1,0.2,0.4,0.3,1,0.4c0,0,0,0,0,0
			c0.1,0,0.3,0.1,0.6,0.1c0,0,0,0.3-0.1,0.6c-0.4-0.1-0.8-0.2-1.1-0.5c0,0,0,0,0,0c0,0,0,0,0,0c0.2,0.4,0.6,0.6,1.1,0.7
			c0,0.6,0,1,0,1.1c0.1,0.2,0.3,0.4,0.6,0.6c0,0,0.1,0.1,0.1,0.1c0,0,0,0,0-0.1c-0.1-0.2-0.1-0.4-0.2-0.6c-0.1-0.2-0.2-0.5-0.2-0.7
			c0-0.1,0-0.2,0-0.3c0.1,0,0.3,0,0.4,0c0.1,0,0.2,0,0.3,0.1c0,0,0.1,0,0.1,0c0,0,0.1-0.1,0.1-0.2c0-0.1,0-0.2,0-0.2
			c0,0,0-0.1-0.1-0.1c0,0-0.2-0.2-0.5-0.4c0,0,0,0,0,0c0.1,0,0.1,0,0.1-0.1c0-0.1,0-0.2,0-0.2c0.2,0.2,0.5,0.5,0.6,0.7c0,0,0,0,0,0
			c0,0.1-0.1,0.1,0,0.1c0,0,0.1,0,0.2,0c0.1,0,0.1,0,0.2-0.1c0.3-0.3,0.5-0.4,0.7-0.4c0.1,0,0.1,0,0.1-0.1c0-0.1,0-0.2,0-0.4
			c0,0,0-0.1-0.1-0.1c-0.1-0.1-0.3-0.2-0.4-0.3c0,0-0.1-0.1-0.1-0.1c0,0,0,0,0,0c0,0,0.1,0,0.2,0c0,0,0.1,0,0.1,0c0,0,0.1,0,0.1,0
			c0,0,0-0.1,0-0.2c0.1,0.1,0.4,0.3,0.7,0.8c0.1,0.1,0.1,0.2,0.2,0.2c0,0,0.1,0,0.1-0.1c0-0.2-0.1-0.3-0.3-0.5
			c-0.1-0.1-0.3-0.2-0.4-0.4C201,183.8,200.7,183.5,200.5,183.3C200.5,183.3,200.5,183.3,200.5,183.3 M174.5,183.4c0,0-0.1,0-0.1,0
			c-0.1,0-0.1,0-0.1,0.1c0,0,0,0.1,0,0.1c0,0,0.1,0,0.1,0.1c0.1,0.1,0.1,0.2,0.1,0.3c0,0,0,0,0,0c-0.1,0.1-0.2,0.2-0.3,0.3
			c0,0,0,0,0,0c0,0,0,0,0.1,0c0.1-0.1,0.2-0.1,0.3-0.2c0,0.1,0,0.2,0.1,0.3c0,0,0,0,0,0.1c0,0,0,0,0,0c0,0,0-0.1,0-0.1
			c0-0.1,0-0.2,0-0.3c0.1,0,0.2-0.1,0.3-0.1c0,0,0.1,0,0.1-0.1c0,0,0,0,0-0.1c0,0-0.1,0-0.2-0.1c0,0-0.1,0-0.1,0c0,0,0,0-0.1,0
			c0-0.1,0-0.1,0-0.2c0-0.1,0-0.1,0-0.2C174.6,183.4,174.6,183.4,174.5,183.4C174.6,183.4,174.6,183.4,174.5,183.4 M178,183.6
			C178,183.6,178,183.6,178,183.6c-0.2,0.1-0.3,0.1-0.4,0.2c-0.1,0.1-0.1,0.1-0.1,0.2c-0.1,0.3-0.3,0.7-0.5,1.2c0,0,0,0-0.1,0
			c-0.1,0-0.1,0-0.2,0c0-0.1,0-0.3,0-0.4c0-0.2,0-0.3,0-0.4c0-0.1,0-0.1-0.1-0.1c-0.1,0-0.2,0-0.4,0.2c-0.1,0-0.1,0.1-0.1,0.2
			c-0.1,0.2-0.1,0.5-0.2,0.8c0,0.1-0.1,0.2-0.2,0.4c0,0.1,0,0.1,0,0.1c0.1,0,0.1,0,0.2,0c0.1-0.1,0.2-0.2,0.2-0.3
			c0-0.1,0.1-0.3,0.2-0.8c0,0,0-0.1,0.1-0.1c0,0,0.1,0,0.1,0c0.1,0.2,0.1,0.3,0.2,0.5c0,0-0.1,0-0.1,0.1c-0.1,0.1-0.1,0.1-0.1,0.1
			c0,0.1,0,0.1,0.1,0.1c0.1,0,0.2-0.1,0.3,0c-0.2,0.5-0.5,1.1-0.8,1.7c0,0.1,0,0.1,0.1,0.1c0.1,0,0.1-0.1,0.2-0.1
			c0.1-0.1,0.1-0.1,0.1-0.2c0.1-0.4,0.3-0.8,0.5-1.2c0-0.1,0.1-0.2,0.1-0.2c0.1,0.1,0.3,0.1,0.4,0.2c0.1,0.1,0.2,0.2,0.3,0.3
			c0.1,0.1,0,0.2,0,0.3c-0.1,0.1-0.1,0.2-0.2,0.3c0,0,0,0.1,0,0.1c0,0,0.1,0,0.2-0.1c0.2-0.1,0.3-0.1,0.4-0.1c0.1,0,0.1,0,0.1-0.1
			c0,0,0-0.1,0-0.3c0-0.1-0.1-0.2-0.2-0.4c-0.1-0.1-0.3-0.3-0.5-0.4c-0.1-0.1-0.2-0.1-0.3-0.1c0.2-0.3,0.4-0.7,0.7-1.1
			c0.1-0.1,0.1-0.2,0.2-0.3c0-0.1,0.1-0.1,0-0.1C178.1,183.6,178.1,183.6,178,183.6 M175.2,183.9
			C175.2,183.9,175.2,183.9,175.2,183.9c-0.2,0-0.2,0.1-0.2,0.1c0,0,0,0.1,0,0.1c0,0,0.1,0,0.1,0.1c0,0.1,0.1,0.1,0.1,0.2
			c-0.1,0.1-0.2,0.2-0.3,0.2c0,0,0,0,0,0c0,0,0,0,0.1,0c0.1,0,0.2-0.1,0.2-0.1c0,0,0,0,0,0c0,0.1,0.1,0.3,0.1,0.4c0,0,0,0.1,0,0.1
			c0,0,0,0,0,0c0,0,0-0.1,0-0.1c0-0.1,0-0.2,0-0.3c0,0,0-0.1,0-0.1c0.1,0,0.2-0.1,0.3-0.1c0,0,0.1,0,0.1-0.1c0,0,0,0,0-0.1
			c0,0-0.1-0.1-0.2-0.1c0,0-0.1,0-0.1,0c0,0-0.1,0-0.1,0.1c0,0,0,0,0-0.1c0-0.1,0-0.1,0-0.2C175.3,183.9,175.3,183.9,175.2,183.9
			C175.3,183.9,175.3,183.9,175.2,183.9 M200.2,184C200.2,184,200.2,184,200.2,184c0.3,0.3,0.5,0.5,0.7,0.7c0.1,0.1,0.1,0.1,0.1,0.2
			c0,0.1-0.3,0.3-0.7,0.5c0,0,0,0-0.1,0c0,0,0,0,0-0.1c0,0-0.3-0.3-0.8-0.8c0.1,0,0.2-0.1,0.2-0.1c0,0,0.1,0.1,0.2,0.2
			c0.2,0.2,0.3,0.3,0.5,0.5c0,0,0.1,0,0.1,0c0,0,0-0.1,0-0.2c0-0.1-0.2-0.2-0.6-0.6c0.1-0.1,0.1-0.1,0.2-0.2c0,0,0,0.1,0.1,0.2
			c0.2,0.2,0.4,0.3,0.5,0.5c0,0,0.1,0,0.1,0c0,0,0-0.1,0-0.2c0,0-0.2-0.2-0.6-0.5c0,0,0,0,0,0C200.1,184,200.1,184,200.2,184
			 M199.1,185c0,0,0.1,0,0.1,0c0,0,0,0.1,0.1,0.2c0.1,0.1,0.2,0.2,0.3,0.3c0,0,0.1,0.1,0.1,0.1c0,0-0.1,0-0.2,0.1
			c-0.1,0-0.2,0-0.3,0c0-0.1,0-0.2,0-0.2C199.1,185.2,199.1,185.1,199.1,185"/>
	</g>
	<g>
		<defs>
			<rect id="SVGID_00000136387526791186557370000014029206346323663018_" x="-328.3" y="-515.9" width="1207.6" height="858.9"/>
		</defs>
		<clipPath id="SVGID_00000008107023751199253810000017553258231992107932_">
			<use xlink:href="#SVGID_00000136387526791186557370000014029206346323663018_"  style="overflow:visible;"/>
		</clipPath>
		
			<path id="path3491" style="clip-path:url(#SVGID_00000008107023751199253810000017553258231992107932_);fill-rule:evenodd;clip-rule:evenodd;fill:#2B3665;" d="
			M201.4,203.4l-2.2-1.6l0.4-0.6l1.1,0.4c0.1,0,0.2,0.1,0.4,0.1c0.1,0.1,0.3,0.1,0.4,0.2c-0.1-0.1-0.2-0.1-0.4-0.2
			c-0.1-0.1-0.2-0.2-0.4-0.3l-0.8-0.6l0.4-0.5l2.2,1.6l-0.4,0.5l-1.2-0.4c-0.1,0-0.2-0.1-0.4-0.1c-0.1-0.1-0.3-0.1-0.4-0.2
			c0.2,0.1,0.3,0.2,0.5,0.3c0.2,0.1,0.3,0.2,0.4,0.3l0.7,0.5L201.4,203.4z M203.4,197.2l0.1-0.6l0.2,0c0.1,0,0.2,0,0.2,0
			c0.1,0,0.1-0.1,0.1-0.1c0-0.1,0-0.1,0-0.2c0,0-0.1-0.1-0.1-0.1c-0.1,0-0.1,0-0.2,0c-0.1,0-0.1,0.1-0.2,0.1c0,0-0.1,0.1-0.1,0.1
			c-0.2,0.2-0.3,0.3-0.4,0.3c-0.1,0.1-0.2,0.1-0.3,0.1c-0.1,0-0.2,0-0.3,0c-0.2,0-0.4-0.1-0.5-0.3c-0.1-0.2-0.1-0.4-0.1-0.6
			c0-0.2,0.1-0.4,0.3-0.5c0.1-0.1,0.3-0.1,0.5-0.1l0.2,0l-0.1,0.6l-0.2,0c-0.1,0-0.2,0-0.2,0c0,0-0.1,0.1-0.1,0.1c0,0.1,0,0.1,0,0.1
			c0,0,0.1,0.1,0.1,0.1c0.1,0,0.3-0.1,0.6-0.3l0,0l0,0c0.2-0.2,0.4-0.3,0.5-0.3c0.1,0,0.1,0,0.2,0c0.1,0,0.1,0,0.2,0
			c0.2,0,0.4,0.1,0.5,0.3c0.1,0.2,0.1,0.4,0.1,0.6c0,0.3-0.1,0.4-0.3,0.6c-0.2,0.1-0.4,0.1-0.6,0.1L203.4,197.2z M203.9,198.8
			l-2.6-0.8l0.2-0.6l2.6,0.8L203.9,198.8z M202.1,200.7l0.2-0.6l0.2,0.1c0.1,0,0.2,0,0.2,0c0.1,0,0.1,0,0.1-0.1c0-0.1,0-0.1,0-0.2
			c0-0.1-0.1-0.1-0.1-0.1c-0.1,0-0.1,0-0.2,0c-0.1,0-0.1,0-0.2,0.1c0,0-0.1,0-0.2,0.1c-0.2,0.1-0.4,0.2-0.5,0.2
			c-0.1,0-0.2,0.1-0.3,0c-0.1,0-0.2,0-0.3-0.1c-0.2-0.1-0.3-0.2-0.4-0.4c-0.1-0.2,0-0.4,0.1-0.6c0.1-0.2,0.2-0.4,0.4-0.5
			c0.2-0.1,0.3-0.1,0.6,0l0.2,0.1l-0.2,0.5l-0.2-0.1c-0.1,0-0.1,0-0.2,0c-0.1,0-0.1,0-0.1,0.1c0,0,0,0.1,0,0.1c0,0,0.1,0.1,0.1,0.1
			c0.1,0,0.3,0,0.6-0.2l0,0l0.1,0c0.3-0.1,0.5-0.2,0.6-0.2c0.1,0,0.1,0,0.2,0c0.1,0,0.1,0,0.2,0.1c0.2,0.1,0.4,0.2,0.4,0.4
			c0.1,0.2,0,0.4-0.1,0.6c-0.1,0.2-0.2,0.4-0.4,0.5c-0.2,0.1-0.4,0.1-0.6-0.1L202.1,200.7z M199.9,205.1l-2-1.9l1-1l0.4,0.4
			l-0.5,0.6l0.4,0.4l0.5-0.5l0.4,0.4l-0.5,0.5l0.4,0.4l0.5-0.6l0.4,0.4L199.9,205.1z M198.8,206.2l-1.8-2l0.5-0.4l1.8,2L198.8,206.2
			z M196,205.7l0.7,1.1c0,0.1,0.1,0.1,0.1,0.1c0,0,0.1,0,0.2,0c0.1,0,0.1-0.1,0.1-0.1c0-0.1,0-0.1-0.1-0.2l-0.7-1.1
			c0-0.1-0.1-0.1-0.1-0.1c0,0-0.1,0-0.2,0c-0.1,0-0.1,0.1-0.1,0.1C195.9,205.6,195.9,205.6,196,205.7 M195.5,206.1
			c-0.2-0.2-0.2-0.4-0.2-0.6c0-0.2,0.2-0.4,0.4-0.5c0.2-0.2,0.4-0.2,0.6-0.2c0.2,0,0.4,0.2,0.5,0.4l0.6,0.9c0.2,0.2,0.2,0.4,0.2,0.6
			c0,0.2-0.2,0.4-0.4,0.5c-0.2,0.2-0.4,0.2-0.6,0.2c-0.2,0-0.4-0.2-0.5-0.4L195.5,206.1z M193.6,209.1l-1-2.5l0.9-0.4l0.4,0.8
			c0.1,0.1,0.1,0.2,0.2,0.3c0.1,0.1,0.1,0.2,0.2,0.4c-0.1-0.2-0.1-0.3-0.1-0.4c0-0.1-0.1-0.2-0.1-0.3l-0.2-0.9l0.9-0.4l1,2.5
			l-0.5,0.2l-0.4-0.9c-0.1-0.2-0.2-0.4-0.2-0.6c-0.1-0.2-0.2-0.4-0.2-0.6c0.1,0.2,0.1,0.4,0.1,0.6c0,0.2,0.1,0.3,0.1,0.3l0.3,1.4
			l-0.4,0.1l-0.7-1.2c-0.1-0.2-0.2-0.3-0.3-0.5c-0.1-0.1-0.2-0.3-0.2-0.4c0.1,0.2,0.2,0.4,0.3,0.6c0.1,0.2,0.2,0.4,0.3,0.6l0.4,0.9
			L193.6,209.1z M190.9,209.7l0.1-2.8l0.8-0.1l0.9,2.6l-0.7,0.1l-0.1-0.5l-0.4,0.1l0,0.5L190.9,209.7z M191.5,208.6l0.3,0l-0.2-0.8
			c0-0.1,0-0.1,0-0.2c0-0.1,0-0.2-0.1-0.3c0,0.1,0,0.2,0,0.2c0,0.1,0,0.2,0,0.2L191.5,208.6z M187.7,209l0.6,0l0,0.2
			c0,0.1,0,0.2,0,0.2c0,0,0.1,0.1,0.1,0.1c0.1,0,0.1,0,0.2-0.1c0,0,0.1-0.1,0.1-0.2c0-0.1,0-0.1,0-0.2c0-0.1-0.1-0.1-0.2-0.2
			c0,0-0.1-0.1-0.1-0.1c-0.2-0.2-0.3-0.3-0.4-0.4c-0.1-0.1-0.1-0.2-0.1-0.3c0-0.1,0-0.2,0-0.3c0-0.2,0.1-0.4,0.2-0.5
			c0.1-0.1,0.3-0.2,0.6-0.2c0.3,0,0.4,0.1,0.6,0.2c0.1,0.1,0.2,0.3,0.2,0.5l0,0.2l-0.6,0l0-0.2c0-0.1,0-0.2,0-0.2
			c0,0-0.1-0.1-0.1-0.1c-0.1,0-0.1,0-0.1,0c0,0-0.1,0.1-0.1,0.1c0,0.1,0.1,0.3,0.4,0.5l0,0l0,0c0.2,0.2,0.4,0.4,0.4,0.5
			c0,0.1,0,0.1,0.1,0.2c0,0.1,0,0.1,0,0.2c0,0.2-0.1,0.4-0.2,0.5c-0.2,0.1-0.4,0.2-0.6,0.2c-0.3,0-0.5-0.1-0.6-0.2
			c-0.1-0.1-0.2-0.3-0.2-0.6L187.7,209z M185.2,209.7l0.7-2.7l0.8,0.1l0.3,2.8l-0.7-0.1l0-0.5l-0.4,0l-0.1,0.5L185.2,209.7z
			 M186.1,208.8l0.3,0l0-0.8c0-0.1,0-0.1,0-0.2c0-0.1,0-0.2,0-0.3c0,0.1,0,0.1,0,0.2c0,0.1,0,0.2,0,0.2L186.1,208.8z M183.6,209.3
			l0.5-2.2l-0.4-0.1l0.1-0.5l1.4,0.3l-0.1,0.5l-0.4-0.1l-0.5,2.2L183.6,209.3z M181.8,208.7l1-2.5l0.6,0.2l-1,2.5L181.8,208.7z
			 M180,206.7l0.5,0.3l-0.1,0.2c0,0.1-0.1,0.1-0.1,0.2c0,0.1,0,0.1,0.1,0.1c0.1,0,0.1,0,0.2,0c0.1,0,0.1,0,0.1-0.1c0,0,0-0.1,0-0.2
			c0-0.1,0-0.1,0-0.2c0,0,0-0.1-0.1-0.2c-0.1-0.2-0.1-0.4-0.2-0.5c0-0.1,0-0.2,0-0.3c0-0.1,0.1-0.2,0.1-0.3c0.1-0.2,0.3-0.3,0.5-0.3
			c0.2,0,0.4,0,0.6,0.2c0.2,0.1,0.3,0.3,0.4,0.5c0,0.2,0,0.3-0.1,0.5l-0.1,0.2l-0.5-0.3l0.1-0.2c0-0.1,0.1-0.1,0.1-0.2
			c0-0.1,0-0.1-0.1-0.1c0,0-0.1,0-0.1,0c0,0-0.1,0-0.1,0.1c-0.1,0.1,0,0.3,0.1,0.6l0,0l0,0.1c0.1,0.3,0.1,0.5,0.1,0.6
			c0,0.1,0,0.1,0,0.2c0,0.1-0.1,0.1-0.1,0.2c-0.1,0.2-0.3,0.3-0.5,0.4c-0.2,0-0.4,0-0.6-0.2c-0.2-0.1-0.4-0.3-0.4-0.5
			c0-0.2,0-0.4,0.1-0.6L180,206.7z M179,205.1c0.1,0.1,0.2,0.1,0.3,0.1c0.1,0,0.1,0,0.2-0.1l0.1-0.1c0.1-0.1,0.1-0.1,0.1-0.2
			c0-0.1-0.1-0.1-0.2-0.2l0,0L179,205.1z M177.5,206l1.7-2.1l0.7,0.6c0.2,0.1,0.3,0.3,0.3,0.4s0,0.3-0.1,0.4l0,0l-0.1,0.1
			c-0.1,0.1-0.2,0.2-0.3,0.2c-0.1,0-0.2,0-0.3,0c0.1,0.1,0.1,0.2,0.1,0.3c0,0.1-0.1,0.2-0.2,0.3l-0.4,0.5c0,0.1-0.1,0.1-0.1,0.1
			c0,0,0,0.1,0,0.1l-0.5-0.4c0,0,0-0.1,0-0.1c0,0,0.1-0.1,0.1-0.2l0.3-0.4c0.1-0.1,0.1-0.2,0.1-0.3c0-0.1-0.1-0.1-0.2-0.2l-0.8,0.9
			L177.5,206z M175.8,204.3l2-1.9l1,1l-0.4,0.4l-0.5-0.6l-0.4,0.4l0.5,0.5l-0.4,0.4l-0.5-0.5l-0.4,0.4l0.5,0.6l-0.4,0.4L175.8,204.3
			z M174.5,202.6l2-1.9l0.4,0.5l-0.9,0.7c0,0-0.1,0.1-0.3,0.2c-0.1,0.1-0.3,0.2-0.5,0.4c0.2-0.1,0.4-0.2,0.7-0.4c0,0,0.1,0,0.1-0.1
			l1-0.5l0.4,0.5l-2.5,1.2L174.5,202.6z M173.5,200.8l2.5-1.2l0.3,0.6l-2.5,1.2L173.5,200.8z M172.5,198.3l2.6-0.9l0.2,0.7l-0.9,0.7
			c-0.1,0.1-0.2,0.1-0.3,0.2c-0.1,0.1-0.2,0.2-0.4,0.2c0.1-0.1,0.2-0.1,0.4-0.2c0.1-0.1,0.3-0.1,0.4-0.2l1-0.3l0.2,0.6l-2.6,0.9
			l-0.2-0.6l1-0.7c0.1-0.1,0.2-0.1,0.3-0.2c0.1-0.1,0.2-0.1,0.4-0.2c-0.2,0.1-0.4,0.2-0.5,0.2c-0.2,0.1-0.3,0.1-0.5,0.2l-0.8,0.3
			L172.5,198.3z M174.8,196l-2,0.2c-0.1,0-0.2,0-0.2,0.1c0,0-0.1,0.1,0,0.1c0,0.1,0,0.1,0.1,0.1c0,0,0.1,0,0.2,0l2-0.2l0.1,0.6
			l-1.9,0.2c-0.3,0-0.5,0-0.7-0.1c-0.2-0.1-0.2-0.3-0.3-0.6c0-0.3,0-0.5,0.1-0.6c0.1-0.2,0.3-0.2,0.6-0.3l1.9-0.2"/>
	</g>
	<g>
		<defs>
			<rect id="SVGID_00000057844171147753688900000009449493727188657814_" x="-328.3" y="-515.9" width="1207.6" height="858.9"/>
		</defs>
		<clipPath id="SVGID_00000030480457778024836570000003390108369119642016_">
			<use xlink:href="#SVGID_00000057844171147753688900000009449493727188657814_"  style="overflow:visible;"/>
		</clipPath>
		
			<path id="path3493" style="clip-path:url(#SVGID_00000030480457778024836570000003390108369119642016_);fill-rule:evenodd;clip-rule:evenodd;fill:#2B3665;" d="
			M188.3,174c10.8,0,19.6,8.8,19.6,19.6c0,10.8-8.8,19.6-19.6,19.6c-10.8,0-19.6-8.8-19.6-19.6C168.7,182.8,177.5,174,188.3,174
			 M188.3,175.7c9.8,0,17.9,8,17.9,17.9c0,9.8-8,17.9-17.9,17.9c-9.8,0-17.9-8-17.9-17.9C170.4,183.7,178.4,175.7,188.3,175.7
			 M188.3,176.1c9.6,0,17.5,7.9,17.5,17.5c0,9.6-7.9,17.5-17.5,17.5c-9.6,0-17.5-7.9-17.5-17.5C170.8,183.9,178.6,176.1,188.3,176.1
			 M188.3,181.4c6.7,0,12.1,5.4,12.1,12.1c0,6.7-5.4,12.1-12.1,12.1s-12.1-5.4-12.1-12.1C176.1,186.9,181.6,181.4,188.3,181.4
			 M188.3,181.8c6.5,0,11.8,5.3,11.8,11.8c0,6.5-5.3,11.8-11.8,11.8c-6.5,0-11.8-5.3-11.8-11.8C176.5,187,181.8,181.8,188.3,181.8
			 M188.3,174.9c10.3,0,18.7,8.4,18.7,18.7s-8.4,18.7-18.7,18.7s-18.7-8.4-18.7-18.7S178,174.9,188.3,174.9"/>
	</g>
	<g>
		<defs>
			<rect id="SVGID_00000032641058746973619050000015018568476262166166_" x="-328.3" y="-515.9" width="1207.6" height="858.9"/>
		</defs>
		<clipPath id="SVGID_00000098183028816963387680000017695718172821580188_">
			<use xlink:href="#SVGID_00000032641058746973619050000015018568476262166166_"  style="overflow:visible;"/>
		</clipPath>
		
			<path id="path3495" style="clip-path:url(#SVGID_00000098183028816963387680000017695718172821580188_);fill-rule:evenodd;clip-rule:evenodd;fill:#2B3665;" d="
			M191,189.2v-0.6h0.3v0.6h0.6v-0.6h0.3v0.9h-2.4V189h0.2v-0.4h0.3v0.6H191z M188.3,190.6c0.1,0,0.2,0,0.3,0.1l0.1-0.3
			c-0.1,0-0.3-0.1-0.4-0.1h0V190.6z M188.8,190.7c0.1,0,0.2,0.1,0.3,0.2l0.3-0.3c-0.1-0.1-0.2-0.2-0.4-0.2L188.8,190.7z M189.1,191
			c0,0.1,0.1,0.1,0.1,0.2l0.4-0.1c-0.1-0.1-0.2-0.2-0.2-0.3L189.1,191z M189.3,191.3c0,0.1,0.1,0.2,0.1,0.2h0.4v-0.1
			c0-0.1,0-0.2-0.1-0.2L189.3,191.3z M189.3,191.8c0-0.7-0.5-1.1-1.1-1.1c-0.5,0-1.1,0.4-1.1,1.1v1.5h2.1V191.8z M187.1,191.5
			c0-0.1,0-0.2,0.1-0.2l-0.4-0.1c0,0.1-0.1,0.2-0.1,0.2v0.1H187.1z M187.2,191.1c0-0.1,0.1-0.1,0.1-0.2l-0.3-0.3
			c-0.1,0.1-0.2,0.2-0.2,0.3L187.2,191.1z M187.4,190.9c0.1-0.1,0.2-0.1,0.2-0.2l-0.1-0.3c-0.1,0.1-0.3,0.1-0.4,0.2L187.4,190.9z
			 M187.8,190.6c0.1,0,0.2-0.1,0.3-0.1v-0.4h0c-0.1,0-0.3,0-0.4,0.1L187.8,190.6z M188.9,190.2c0.3,0.1,0.5,0.3,0.7,0.5v-0.5H188.9z
			 M189.8,190.9c0.1,0.1,0.1,0.2,0.1,0.3h0.3v-0.3H189.8z M186.6,191.2c0-0.1,0.1-0.2,0.1-0.3h-0.5v0.3H186.6z M186.8,190.7
			c0.2-0.2,0.4-0.4,0.7-0.5h-0.7V190.7z M189.8,191.6h-0.3v0.3h0.3V191.6z M189.8,192.1h-0.3v0.3h0.3V192.1z M189.8,192.5h-0.3v0.3
			h0.3V192.5z M189.8,193h-0.3v0.3h0.3V193z M187,191.6h-0.3v0.2h0v0.1h0.3V191.6z M187,192.1h-0.3v0.3h0.3V192.1z M187,192.5h-0.3
			v0.1h0v0.2h0.3V192.5z M187,193h-0.3v0.3h0.3V193z M186.1,192.5h0.4V192h-0.4V192.5z M186,192h-0.6v0.5h0.6V192z M185.8,193.3h0.7
			v-0.6h-0.7V193.3z M185.7,192.6h-0.3v0.6h0.3V192.6z M185.8,191.8h0.7v-0.4h-0.7V191.8z M185.7,191.4h-0.3v0.4h0.3V191.4z
			 M186.1,190.9h-0.7v0.3h0.7V190.9z M186.7,190.2h-0.9v0.6h0.9V190.2z M185.7,190.2h-0.8v0.6h0.8V190.2z M184.7,190.2h-0.5v0.6h0.5
			V190.2z M192.2,190.2h-0.5v0.6h0.5V190.2z M191.6,190.2h-0.8v0.6h0.8V190.2z M190.6,190.2h-0.9v0.6h0.9V190.2z M184.3,190h0.3
			v-0.4h-0.3V190z M184.7,190h0.6v-0.4h-0.6V190z M185.5,190h0.5v-0.4h-0.5V190z M186.1,190h1v-0.4h-1V190z M187.3,190h0.9v-0.4
			h-0.9V190z M188.3,190h0.9v-0.4h-0.9V190z M189.3,190h1v-0.4h-1V190z M190.5,190h0.5v-0.4h-0.5V190z M191.1,190h0.6v-0.4h-0.6V190
			z M191.9,190h0.4v-0.4h-0.4V190z M191.2,190.9v2.5h-6v-2.5h-1.1v-2.5h0.6v0.6h0.3v-0.6h0.6v0.6h0.3v-0.6h0.2l0,0h0.3v-1.3h0.7v0.6
			h0.3v-0.6h0.7v0.6h0.3v-0.6h0.7v0.6h0.3v-0.6h0.7v1.3h0.3l0,0h0.2v0.6h0.3v-0.6h0.6v0.6h0.3v-0.6h0.6v2.5L191.2,190.9L191.2,190.9
			z M191.1,190.9h-0.7v0.3h0.7V190.9z M186.4,188.6h-0.3v0.6H186l0,0h-0.3l0,0h-0.2v-0.6h-0.3v0.6h-0.6v-0.6h-0.3v0.9h2.4V189h-0.2
			V188.6z M186.8,189h0.9v0.5h-0.9V189z M187.8,189h0.9v0.5h-0.9V189z M188.8,189h0.9v0.5h-0.9V189z M189.9,193.3h0.7v-0.6h-0.7
			V193.3z M190.8,193.3h0.3v-0.6h-0.3V193.3z M189.9,187.3v0.8h-3.3v-0.8h0.3v0.6h0.7v-0.6h0.3v0.6h0.7v-0.6h0.3v0.6h0.7v-0.6H189.9
			z M186.6,188.3h0.7v0.6h-0.7V188.3z M187.4,188.3h0.8v0.6h-0.8V188.3z M188.3,188.3h0.8v0.6h-0.8V188.3z M189.3,188.3h0.6v0.6
			h-0.6V188.3z M191.1,192h-0.6v0.5h0.6V192z M191.1,191.4h-0.3v0.4h0.3V191.4z M190.4,192.5h-0.4V192h0.4V192.5z M190.6,191.4v0.4
			h-0.7v-0.4"/>
	</g>
	<g>
		<defs>
			<rect id="SVGID_00000047019777118068098620000010785153721779727542_" x="-328.3" y="-515.9" width="1207.6" height="858.9"/>
		</defs>
		<clipPath id="SVGID_00000059298055860030532080000014493400464237569467_">
			<use xlink:href="#SVGID_00000047019777118068098620000010785153721779727542_"  style="overflow:visible;"/>
		</clipPath>
		
			<path id="path3497" style="clip-path:url(#SVGID_00000059298055860030532080000014493400464237569467_);fill-rule:evenodd;clip-rule:evenodd;fill:#2B3665;" d="
			M182.2,187.9h4.2v-0.2h-4.2V187.9z M190,187.9h4.2v-0.2H190V187.9z M182.4,190.4h1.8v-0.2h-1.8L182.4,190.4z M192.3,190.4h1.8
			v-0.2h-1.8V190.4z M182.5,192.3h2.8v-0.2h-2.8L182.5,192.3z M187.2,192.3h2.2v-0.2h-2.2V192.3z M191.2,192.3h2.8v-0.2h-2.8V192.3z
			 M186.8,193.4l-1.1,1.1H183v0.2h10.5v-0.2h-2.9l-1.1-1.1h-0.3l1.1,1.1h-4.2l1.1-1.1H186.8z"/>
	</g>
	<g>
		<defs>
			<rect id="SVGID_00000016783754302833811590000013579441175884950422_" x="-328.3" y="-515.9" width="1207.6" height="858.9"/>
		</defs>
		<clipPath id="SVGID_00000157292256815368922770000013061741933258212510_">
			<use xlink:href="#SVGID_00000016783754302833811590000013579441175884950422_"  style="overflow:visible;"/>
		</clipPath>
		
			<path id="path3499" style="clip-path:url(#SVGID_00000157292256815368922770000013061741933258212510_);fill-rule:evenodd;clip-rule:evenodd;fill:#2B3665;" d="
			M192.4,185.1l0.3,0.7l0.8,0.1l-0.6,0.5l0.1,0.8l-0.7-0.4l-0.7,0.4l0.1-0.8l-0.6-0.5l0.8-0.1L192.4,185.1z M188.2,194.8l0.3,0.7
			l0.8,0.1l-0.6,0.5l0.1,0.8l-0.7-0.4l-0.7,0.4l0.1-0.8l-0.6-0.5l0.8-0.1L188.2,194.8z M188.2,195.3l0.2,0.4l0.4,0.1l-0.3,0.3
			l0.1,0.4l-0.4-0.2l-0.4,0.2l0.1-0.4l-0.3-0.3l0.4-0.1L188.2,195.3z M184.1,185.1l0.3,0.7l0.8,0.1l-0.6,0.5l0.1,0.8l-0.7-0.4
			l-0.7,0.4l0.1-0.8l-0.6-0.5l0.8-0.1L184.1,185.1z M184.1,185.6l0.2,0.4l0.4,0.1l-0.3,0.3l0.1,0.4l-0.4-0.2l-0.4,0.2l0.1-0.4
			l-0.3-0.3l0.4-0.1L184.1,185.6z M192.4,185.6l0.2,0.4l0.4,0.1l-0.3,0.3l0.1,0.4l-0.4-0.2l-0.4,0.2l0.1-0.4l-0.3-0.3l0.4-0.1"/>
	</g>
	<g>
		<defs>
			<rect id="SVGID_00000137831204871627557270000001145879851859908539_" x="-328.3" y="-515.9" width="1207.6" height="858.9"/>
		</defs>
		<clipPath id="SVGID_00000045590414147556792870000013668345509554023851_">
			<use xlink:href="#SVGID_00000137831204871627557270000001145879851859908539_"  style="overflow:visible;"/>
		</clipPath>
		
			<path id="path3501" style="clip-path:url(#SVGID_00000045590414147556792870000013668345509554023851_);fill-rule:evenodd;clip-rule:evenodd;fill:#2B3665;" d="
			M184.6,199.5C184.6,199.5,184.6,199.5,184.6,199.5c0,0.1,0,0.1,0,0.1c0,0,0,0,0,0c-0.1,0.1-0.1,0.1-0.1,0.1c0,0,0,0,0,0
			c0,0,0,0,0.1,0c0,0,0.1,0,0.1-0.1c0.1,0,0.1,0,0.1-0.1c0,0,0,0,0.1,0c0,0,0.1,0,0-0.1C184.8,199.5,184.7,199.5,184.6,199.5
			 M187.3,199.4C187.3,199.4,187.3,199.4,187.3,199.4c-0.2,0.1-0.5,0.1-0.8,0.2c-0.1,0-0.1,0,0,0.1c0.1,0,0.2,0,0.3,0
			c0,0,0,0.1,0,0.2c-0.1,0.2-0.2,0.3-0.3,0.3c0,0,0,0,0,0c0,0,0,0.1,0,0.1c0,0,0,0.1,0,0.1c0,0,0,0,0.1,0c0.1,0,0.3-0.1,0.8-0.2
			c0,0,0,0,0,0c0.1,0.1,0.1,0.1,0.2,0.1c0.1-0.1,0.1-0.1,0-0.2c-0.1-0.1-0.1-0.1-0.3-0.1c-0.1,0-0.2,0-0.1,0c0,0,0.1,0.1,0.2,0.2
			c-0.3,0.1-0.5,0.1-0.7,0.1c0.1-0.1,0.2-0.2,0.3-0.3c0,0,0,0,0,0c0.1-0.1,0.1-0.1,0-0.2c0.3,0,0.4-0.1,0.5-0.1c0.1,0,0.1,0,0-0.1
			C187.5,199.4,187.4,199.4,187.3,199.4 M189.9,199.4C189.9,199.4,189.9,199.4,189.9,199.4c0,0.1,0,0.2,0,0.3
			c-0.1,0.4-0.2,0.6-0.4,0.8c-0.1,0.1,0,0.1,0,0c0.2-0.1,0.3-0.3,0.4-0.6c0,0.1,0.1,0.2,0.2,0.3c0,0.1,0.1,0.1,0.1,0.2
			c0,0.1,0.1,0.1,0.3,0.1c0,0,0,0,0,0c0.1,0,0.1,0,0.1,0c0,0,0,0,0,0c-0.3-0.2-0.5-0.3-0.6-0.5c-0.1-0.1-0.1-0.1-0.1-0.1
			c0-0.1,0-0.2,0.1-0.2c0,0,0,0,0,0C190.1,199.4,190,199.4,189.9,199.4 M192.2,200.5c0.1,0,0.1,0,0.3,0c0.1,0,0.1,0,0.2,0
			c0.1,0,0.1,0,0.1,0c0,0,0-0.1-0.1-0.1c0,0-0.1,0-0.2,0C192.3,200.4,192.3,200.4,192.2,200.5c0-0.3,0.1-0.4,0.1-0.5
			c0,0,0-0.1,0-0.1c0,0,0,0,0-0.1c0-0.1-0.1-0.1-0.3-0.1c0,0,0,0,0,0.1c0,0,0,0.1,0,0.1c0,0.2,0,0.6-0.1,1.3l-0.3,0
			c0-0.1,0-0.1,0-0.2c0-0.2,0-0.4,0-0.4c0,0,0-0.1,0-0.1c0,0,0,0,0-0.1c0-0.1-0.1-0.1-0.2-0.1c0,0,0,0,0,0.1c0,0,0,0.1,0,0.1
			c0,0.1,0,0.4,0,0.7c-0.1,0-0.3,0-0.4,0c-0.1,0-0.1,0-0.1,0c0,0,0.1,0,0.2,0.1c0.3,0,0.6,0,0.9,0c0.1,0,0.3,0,0.4,0
			c0.1,0,0.3,0,0.4,0.1c0.1,0,0.1,0,0.1-0.1c0-0.1-0.1-0.1-0.2-0.1c0,0-0.1,0-0.3,0c-0.2,0-0.3,0-0.4,0L192.2,200.5z M189.2,199.5
			c0.1,0.1,0.2,0.2,0.2,0.2c0.1,0,0.1-0.1,0-0.2C189.2,199.4,189.2,199.4,189.2,199.5 M189.5,199.8c0,0-0.1,0-0.1,0
			c-0.3,0.1-0.5,0.1-0.7,0.1c0,0,0,0,0,0c0,0,0.1,0.1,0.1,0.1c0,0,0.1,0,0.3-0.1c0,0.2-0.2,0.5-0.5,0.8c0,0-0.1,0,0,0
			c0,0,0.1,0,0.1-0.1c0.2-0.1,0.4-0.3,0.4-0.5c0,0,0,0,0,0c0.1,0,0.1,0.1,0.1,0.1c0,0,0,0.1-0.1,0.3c0,0.1-0.1,0.2-0.1,0.2
			c0,0,0,0-0.1,0c-0.1,0-0.1,0-0.1,0c0.1,0.1,0.1,0.1,0.1,0.2c0,0,0,0,0,0c0,0,0.1,0,0.2-0.1c0.1-0.1,0.1-0.1,0.1-0.3
			c0-0.1,0.1-0.2,0.1-0.3c0,0,0,0,0,0c0,0-0.1-0.1-0.1-0.1c0,0,0,0,0,0c0,0-0.1,0-0.1,0c0,0,0,0,0-0.1c0,0,0,0,0-0.1
			c0,0,0,0-0.1-0.1c0.2,0,0.3,0,0.4,0c0.1,0,0.1,0,0.1-0.1C189.6,199.9,189.6,199.9,189.5,199.8 M189.8,200.4
			C189.8,200.4,189.8,200.4,189.8,200.4c0.1,0.2,0.2,0.2,0.2,0.2c0.1,0,0.1-0.1,0-0.2C189.9,200.4,189.8,200.4,189.8,200.4
			 M189.7,200.8c0.1,0.2,0.2,0.3,0.3,0.3c0.1,0,0.1-0.1,0-0.2C190,200.9,190,200.8,189.7,200.8C189.8,200.8,189.7,200.8,189.7,200.8
			 M187.1,200.6c0.1,0,0.2,0,0.3-0.1c0.1,0,0.1,0,0.1-0.1c0,0-0.1-0.1-0.1,0c0,0,0,0-0.1,0c0,0-0.1,0-0.2,0c0,0,0-0.1,0-0.1
			c0,0,0,0,0,0c-0.1-0.1-0.2-0.1-0.2-0.1c0,0,0,0,0,0.1c0,0.1,0.1,0.2,0.1,0.2c-0.1,0-0.1,0-0.2,0c-0.1,0-0.2,0-0.2,0
			c-0.1,0-0.1,0,0,0.1c0.1,0,0.2,0,0.3,0l0,0.3c-0.2,0-0.5,0.1-0.7,0.1c0,0-0.1,0-0.1,0c-0.1,0-0.1,0-0.1,0c0,0,0.1,0,0.2,0
			c0,0,0,0,0.1,0c0.5-0.1,1-0.1,1.5-0.1c0.1,0,0.1,0,0.1-0.1c0-0.1-0.1-0.1-0.2-0.1c0,0-0.1,0-0.1,0c-0.2,0-0.3,0.1-0.5,0.1
			L187.1,200.6z M184,199.7C184,199.7,184,199.7,184,199.7c0,0.1,0,0.1,0.1,0.2c0,0,0.1,0,0.1,0c0,0,0,0,0-0.1
			C184.2,199.7,184.1,199.7,184,199.7 M184.5,200.2c0.1,0,0.2,0,0.3-0.1c0,0,0-0.1-0.1-0.1C184.6,200.1,184.6,200.1,184.5,200.2
			C184.5,200.1,184.5,200.2,184.5,200.2c0-0.1,0-0.1,0-0.1c0,0,0,0,0,0c0,0,0,0,0-0.1c0.2,0,0.3-0.1,0.4-0.1c0,0,0,0,0-0.1
			c0,0-0.1,0-0.1,0c0,0,0,0-0.1,0c-0.2,0.1-0.5,0.1-0.7,0.1c-0.1,0-0.1,0,0,0c0,0,0.1,0,0.2,0c0,0,0.1,0,0.1,0c0,0,0.1,0.1,0.1,0.1
			c-0.1,0-0.2,0-0.3,0c0,0,0,0,0.1,0c0.1,0,0.1,0,0.2,0l0,0.1c-0.2,0-0.3,0.1-0.4,0.1c0,0,0,0,0,0.1c0,0,0.1,0,0.2,0
			c0.1,0,0.1,0,0.2,0c0,0,0.1,0,0.1,0l0,0.3c0,0,0,0-0.1,0c-0.4,0.1-0.7,0.1-0.8,0.1c0,0,0,0,0,0c0,0,0.1,0.1,0.1,0.1c0,0,0,0,0.1,0
			c0.2-0.1,0.5-0.1,1.1-0.2c0.1,0,0.3,0,0.5,0c0,0,0,0,0,0c0.1,0,0.1,0,0-0.1c-0.1,0-0.1-0.1-0.2-0.1c0,0-0.1,0-0.2,0
			c-0.1,0-0.2,0-0.2,0c0.1-0.1,0.1-0.1,0.2-0.2c0,0,0,0,0-0.1c-0.1,0-0.1,0-0.2,0c0,0,0,0,0,0c0,0,0,0.1,0,0.1
			c0,0.1-0.1,0.1-0.1,0.2l-0.2,0l0-0.3c0,0,0.1,0,0.2,0c0.1,0,0.2,0,0.3,0c0,0,0.1,0,0-0.1c0,0-0.1,0-0.1,0c0,0,0,0-0.1,0
			c-0.1,0-0.2,0-0.2,0L184.5,200.2z M184.2,200.6c0,0-0.1-0.1-0.2-0.1c0,0,0,0,0,0.1c0,0.1,0.1,0.1,0.1,0.1
			C184.2,200.7,184.2,200.7,184.2,200.6 M184.8,200.9c0,0-0.1,0-0.2,0c-0.2,0-0.3,0.1-0.4,0.1c0,0-0.1,0-0.1,0c0,0,0,0,0,0.1
			c0,0,0,0.1,0.1,0.2c0,0.1,0,0.1,0,0.2c0,0,0,0.1,0.1,0.1c0,0,0,0,0-0.1c0,0,0.1,0,0.2,0c0.3,0,0.4-0.1,0.5-0.1c0,0,0,0,0,0
			c0,0,0,0-0.1,0c0-0.1,0.1-0.1,0.1-0.2c0,0,0,0,0-0.1C184.9,200.9,184.8,200.9,184.8,200.9 M184.2,201.1c0,0,0,0,0.1,0
			c0.2,0,0.3-0.1,0.5-0.1c0,0,0,0,0,0.1c0,0.1,0,0.1,0,0.2l-0.5,0.1"/>
	</g>
	<g>
		<defs>
			<rect id="SVGID_00000090255825214646898330000016806249079630848910_" x="-328.3" y="-515.9" width="1207.6" height="858.9"/>
		</defs>
		<clipPath id="SVGID_00000028318788917663463290000008140113380486882951_">
			<use xlink:href="#SVGID_00000090255825214646898330000016806249079630848910_"  style="overflow:visible;"/>
		</clipPath>
		
			<path id="path3503" style="clip-path:url(#SVGID_00000028318788917663463290000008140113380486882951_);fill-rule:evenodd;clip-rule:evenodd;fill:#2B3665;" d="
			M193.8,199.2c0.3-0.3,0.3-0.5,0.3-0.8c0-0.3-0.1-0.4-0.3-0.6c-0.1-0.2-0.3-0.3-0.4-0.6c-0.1-0.2,0-0.4,0-0.7
			c0.2-0.5,0.7-0.9,1.1-0.9h1.2l0-0.6c0-0.4-0.2-0.7-0.3-1c-0.1-0.2-0.2-0.5-0.2-0.8l0-1.5h0c0.1,0.2,0.3,0.4,0.4,0.6
			c0.2-0.3,0.6-0.5,1.1-0.5c0.6,0,1.2,0.3,1.2,0.7c0,0.2-0.2,0.4-0.4,0.6v1.5v0c0.1,0.1,0.2,0.3,0.3,0.4c0.2,0.3,0.3,0.6,0.2,1
			c-0.2,0.9-1.7,1.8-1.7,2.7c0,0.2,0,0.6,0,0.9c0,0.1,0,0.3,0,0.3c-0.1,0.1-0.2,0.2-0.3,0.1c-0.3-0.1-0.7-0.5-1-0.4
			c-0.2,0.1-0.3,0.3-0.3,0.5c-0.1,0.3-0.2,0.7-0.3,1c-0.2,0.3-0.3,0.5-0.5,0.7c-0.1,0.1-0.2,0.2-0.3,0.2c-0.1,0-0.2,0-0.4,0
			c-3.2-0.9-6.9-0.9-10.1,0c-0.2,0-0.3,0-0.4,0s-0.2-0.1-0.3-0.2c-0.1-0.2-0.3-0.4-0.5-0.7c-0.2-0.3-0.3-0.7-0.3-1
			c0-0.2-0.1-0.5-0.3-0.5c-0.3-0.1-0.7,0.3-1,0.4c-0.1,0-0.3,0-0.3-0.1c0-0.1,0-0.2,0-0.3c0-0.3,0-0.7,0-0.9c0-0.9-1.5-1.8-1.7-2.7
			c-0.1-0.3,0-0.7,0.2-1c0.1-0.1,0.2-0.3,0.3-0.4v0v-1.5c-0.3-0.1-0.4-0.3-0.4-0.6c0-0.4,0.5-0.7,1.2-0.7c0.5,0,0.9,0.2,1.1,0.5
			c0.1-0.2,0.3-0.4,0.4-0.6h0l0,1.5c0,0.3-0.1,0.5-0.2,0.8c-0.1,0.3-0.3,0.7-0.3,1l0,0.6h1.2c0.5,0,1,0.3,1.1,0.9
			c0.1,0.3,0.1,0.5,0,0.7c-0.1,0.2-0.2,0.4-0.4,0.6c-0.1,0.2-0.3,0.3-0.3,0.6c0,0.2,0.1,0.5,0.3,0.8
			C186.7,198.4,189.8,198.4,193.8,199.2z M193.3,202.1c0.1,0,0.2,0,0.3-0.1c0.2-0.6,0-1.4,0-2.1c0-0.2,0-0.3,0.1-0.5
			c-3.7-0.8-7.1-0.8-10.8,0c0.1,0.1,0.1,0.3,0.1,0.5c0,0.6-0.2,1.4,0,2.1c0,0.2,0.2,0.2,0.3,0.1
			C186.4,201.2,190.1,201.2,193.3,202.1 M182.8,202.1c-0.2-0.3-0.1-0.7-0.1-1.2c0-0.4,0.1-0.9,0.1-1.2c0-0.2-0.1-0.3-0.3-0.5
			c-0.3-0.4-0.4-0.9-0.1-1.3c0.2-0.3,0.5-0.5,0.5-0.8c0-0.3-0.1-0.9-0.8-1.1l-1.5,0c-0.1,0.3-0.1,0.9,0,1.2c0.2,0.4,0.5,0.9,0.5,1.4
			l0,1.1c0,0,0,0,0,0c0,0,0.4-0.2,0.6,0.3c0.1,0.3,0.1,0.7,0.2,1c0.1,0.3,0.2,0.6,0.4,0.8C182.5,201.8,182.7,202.1,182.8,202.1
			 M180.4,196c0-0.1,0-0.7,0-1c0-0.3,0.2-0.6,0.3-0.9c0.1-0.2,0.1-0.4,0.2-0.7c0-0.3,0-0.6,0-0.9c0,0-0.4,0.7-1.1,1.5
			c-0.3,0.4-0.8,0.9-1.1,1.3c-0.2,0.3-0.3,0.7-0.1,1.1c0.1,0.1,0.1,0.2,0.2,0.3l0,0C178.9,196.8,179.8,196.8,180.4,196 M179.1,197
			c0.5,0.6,1.1,1.1,1.2,1.9c0,0.1,0,1.1,0,1.1c0,0,0.1,0.1,0.2,0c0,0,0.2-0.1,0.4-0.3c0-0.2,0-0.6,0-1.1c0-0.4-0.2-0.8-0.4-1.2
			c-0.2-0.3-0.3-0.7-0.2-1.1C180.3,196.5,179.7,196.9,179.1,197 M179.1,194.6c0.2-0.3,0.5-0.5,0.7-0.8c0.1-0.1,0.2-0.3,0.3-0.4h-1
			V194.6z M180.3,193.1c0.1-0.1,0.2-0.3,0.3-0.4c0-0.3-0.5-0.5-1-0.5c-0.5,0-1,0.2-1,0.5c0,0.1,0.1,0.3,0.3,0.4c0.1,0,0.1,0,0.2,0
			L180.3,193.1C180.2,193.2,180.3,193.2,180.3,193.1 M193.7,202.1c0.2-0.3,0.1-0.7,0.1-1.2c0-0.4-0.1-0.9-0.1-1.2
			c0-0.2,0.1-0.3,0.3-0.5c0.3-0.4,0.4-0.9,0.1-1.3c-0.2-0.3-0.5-0.5-0.5-0.8c0-0.3,0.1-0.9,0.8-1.1l1.5,0c0.1,0.3,0.1,0.9,0,1.2
			c-0.2,0.4-0.5,0.9-0.5,1.4l0,1.1c0,0,0,0,0,0c0,0-0.4-0.2-0.6,0.3c-0.1,0.3-0.1,0.7-0.2,1c-0.1,0.3-0.2,0.6-0.4,0.8
			C194,201.8,193.8,202.1,193.7,202.1 M196.1,196c0-0.1,0-0.7,0-1c0-0.3-0.2-0.6-0.3-0.9c-0.1-0.2-0.1-0.4-0.2-0.7
			c0-0.3,0-0.6,0-0.9c0,0,0.4,0.7,1.1,1.5c0.3,0.4,0.8,0.9,1.1,1.3c0.2,0.3,0.3,0.7,0.1,1.1c-0.1,0.1-0.1,0.2-0.2,0.3l0,0
			C197.6,196.8,196.7,196.8,196.1,196 M197.5,197c-0.5,0.6-1.1,1.1-1.2,1.9c0,0.1,0,1.1,0,1.1c0,0-0.1,0.1-0.2,0
			c0,0-0.2-0.1-0.4-0.3c0-0.2,0-0.6,0-1.1c0-0.4,0.2-0.8,0.4-1.2c0.2-0.3,0.3-0.7,0.2-1.1C196.2,196.5,196.8,196.9,197.5,197
			 M197.4,194.6c-0.2-0.3-0.5-0.5-0.7-0.8c-0.1-0.1-0.2-0.3-0.3-0.4h1V194.6z M196.2,193.1c-0.1-0.1-0.2-0.3-0.3-0.4
			c0-0.3,0.5-0.5,1-0.5c0.5,0,1,0.2,1,0.5c0,0.1-0.1,0.3-0.3,0.4c-0.1,0-0.1,0-0.2,0L196.2,193.1
			C196.3,193.2,196.2,193.2,196.2,193.1"/>
	</g>
	<g>
		<defs>
			<rect id="SVGID_00000018218758801312083720000001913261463105600661_" x="-328.3" y="-515.9" width="1207.6" height="858.9"/>
		</defs>
		<clipPath id="SVGID_00000144333856994687306580000009701472822550701954_">
			<use xlink:href="#SVGID_00000018218758801312083720000001913261463105600661_"  style="overflow:visible;"/>
		</clipPath>
		
			<path id="path3505" style="clip-path:url(#SVGID_00000144333856994687306580000009701472822550701954_);fill-rule:evenodd;clip-rule:evenodd;fill:#2B3665;" d="
			M183.9,184.1l-3.1,2.7c0.9,0.1,1.4,1,1.4,1.9l0,1.9c0,1.7,0.1,4.7,1.9,5.4c0.3,0.1,2,0.5,2.9,0.9c1,0.5,1.1,0.9,1.2,1
			c0.1-0.1,0.2-0.5,1.2-1c0.8-0.4,2.5-0.8,2.9-0.9c1.8-0.7,1.9-3.7,1.9-5.4l0-1.9c0-0.8,0.6-1.8,1.4-1.9l-3.1-2.7
			c-1.5,0.9-2.5,1.3-4.3,1.3S185.4,185,183.9,184.1 M184,184.5c1.4,0.9,2.6,1.2,4.3,1.2s2.9-0.4,4.3-1.2l2.6,2.2
			c-0.1,0-0.7,0.3-1,1.3c-0.1,0.4-0.1,0.9-0.1,1.3c0,0.4,0,0.9,0,1.3c0,1.6,0,4.4-1.7,5.1c-0.3,0.1-1.9,0.5-2.7,0.9
			c-0.9,0.5-1.1,0.7-1.2,0.8c-0.2-0.1-0.3-0.4-1.2-0.8c-0.8-0.4-2.4-0.8-2.7-0.9c-1.7-0.7-1.7-3.5-1.7-5.1c0-0.4,0-0.8,0-1.3
			c0-0.5,0-1-0.1-1.3c-0.3-0.9-1-1.3-1-1.3L184,184.5z"/>
	</g>
</g>
</svg>
