<?xml version="1.0" encoding="utf-8"?>
<!-- Generator: Adobe Illustrator 28.0.0, SVG Export Plug-In . SVG Version: 6.00 Build 0)  -->
<svg version="1.1" id="svg1" xmlns:svg="http://www.w3.org/2000/svg"
	 xmlns="http://www.w3.org/2000/svg" xmlns:xlink="http://www.w3.org/1999/xlink" x="0px" y="0px" viewBox="0 0 281.6 32.6"
	 style="enable-background:new 0 0 281.6 32.6;" xml:space="preserve">
<style type="text/css">
	.st0{clip-path:url(#SVGID_00000143606121472671411780000008596945076161341114_);}
	.st1{clip-path:url(#SVGID_00000145749192438306101770000014871448807743760816_);fill:#173E7D;}
	.st2{clip-path:url(#SVGID_00000008148361933689644950000000562222907288934557_);fill:#173E7D;}
	.st3{clip-path:url(#SVGID_00000073711352262333272140000011118708567788332417_);fill:#173E7D;}
	.st4{clip-path:url(#SVGID_00000119831861705169990510000008674787577703235974_);fill:#173E7D;}
	.st5{clip-path:url(#SVGID_00000139260844969560968670000000206715841819034503_);fill:#173E7D;}
	.st6{clip-path:url(#SVGID_00000024722169186843011580000003200690011275510927_);fill:#173E7D;}
	.st7{clip-path:url(#SVGID_00000182515752681694872560000005772150799616751243_);fill:#173E7D;}
	.st8{clip-path:url(#SVGID_00000088851085165445531530000014018424107742603663_);fill:#173E7D;}
	.st9{clip-path:url(#SVGID_00000083808526801648000070000016998397367294966667_);fill:#173E7D;}
	.st10{clip-path:url(#SVGID_00000178184054824894041110000014442790080719413142_);fill:#173E7D;}
	.st11{clip-path:url(#SVGID_00000147220988245519068990000008338247243935248533_);fill:#173E7D;}
	.st12{clip-path:url(#SVGID_00000072254496304988684980000007925591115738235569_);fill:#173E7D;}
	.st13{clip-path:url(#SVGID_00000075131579109820355180000009179673101836434818_);fill:#173E7D;}
	.st14{clip-path:url(#SVGID_00000140702287090267362440000012978508449462172322_);fill:#173E7D;}
	.st15{clip-path:url(#SVGID_00000180358946635091408570000009640734965617176486_);fill:#173E7D;}
	.st16{clip-path:url(#SVGID_00000177468218519724005220000000274510355630378148_);fill:#173E7D;}
	.st17{clip-path:url(#SVGID_00000127031089802659880680000006019861753135747716_);fill:#173E7D;}
	.st18{clip-path:url(#SVGID_00000149360087726943802780000000443759757499872408_);fill:#173E7D;}
	.st19{clip-path:url(#SVGID_00000008136348977425980150000008727187840205208713_);fill:#173E7D;}
	.st20{clip-path:url(#SVGID_00000099620508526214317780000006472606328396443812_);fill:#173E7D;}
	.st21{clip-path:url(#SVGID_00000004543871299391626780000016639664677644697790_);fill:#35B6ED;}
	.st22{clip-path:url(#SVGID_00000034771543906401284220000011034617906828158086_);fill:#173E7D;}
	.st23{clip-path:url(#SVGID_00000065785789480273879360000014818339044243682218_);fill:#173E7D;}
	.st24{clip-path:url(#SVGID_00000097471321030769240510000014574937752329671351_);fill:#173E7D;}
	.st25{clip-path:url(#SVGID_00000006682802379968474920000005008714516209464986_);fill:#173E7D;}
	.st26{clip-path:url(#SVGID_00000116205237175456464870000010875478640017078924_);fill:#173E7D;}
	.st27{clip-path:url(#SVGID_00000018936870118829392250000002805454365598464153_);fill:#173E7D;}
	.st28{clip-path:url(#SVGID_00000160900834858199687460000004726127659171099780_);fill:#173E7D;}
	.st29{clip-path:url(#SVGID_00000180332350750538132180000006500098735344345987_);fill:#173E7D;}
	.st30{clip-path:url(#SVGID_00000043442127907300006570000001038495876991068337_);fill:#173E7D;}
	.st31{clip-path:url(#SVGID_00000145769676438689457400000008545486701929381818_);fill:#173E7D;}
	.st32{clip-path:url(#SVGID_00000116915938125904449750000014892460971131258013_);fill:#173E7D;}
	.st33{clip-path:url(#SVGID_00000129907793277344866270000013707139189153300913_);fill:#173E7D;}
	.st34{clip-path:url(#SVGID_00000172407671715080840550000005510397947308064390_);fill:#173E7D;}
	.st35{clip-path:url(#SVGID_00000064339155613463753990000008307218200971847858_);fill:#173E7D;}
	.st36{clip-path:url(#SVGID_00000022555850795407405580000011735236680474287244_);fill:#173E7D;}
	.st37{clip-path:url(#SVGID_00000093137387503010905180000015255454752577404595_);fill:#173E7D;}
	.st38{clip-path:url(#SVGID_00000102542942508494948270000010521302569755645613_);fill:#173E7D;}
	.st39{clip-path:url(#SVGID_00000172426001478774893190000004933130442126747537_);fill:#173E7D;}
	.st40{clip-path:url(#SVGID_00000181791062570995532580000014798984940796218502_);fill:#173E7D;}
	.st41{clip-path:url(#SVGID_00000006693370909977575220000004782997337870365577_);fill:#173E7D;}
	.st42{clip-path:url(#SVGID_00000072961466927181838510000007160831867179200649_);fill:#173E7D;}
	.st43{clip-path:url(#SVGID_00000122706419511268721900000001183649671336616599_);fill:#173E7D;}
	.st44{clip-path:url(#SVGID_00000018196430452027133140000002239410086791418805_);fill:#173E7D;}
	.st45{clip-path:url(#SVGID_00000034079517917829794100000009032117677541473160_);fill:#173E7D;}
	.st46{clip-path:url(#SVGID_00000092438415214463705900000017542502133838059149_);fill:#173E7D;}
	.st47{clip-path:url(#SVGID_00000060016148318246491730000004360484213564438403_);fill:#173E7D;}
	.st48{clip-path:url(#SVGID_00000099631563305872065360000017968659240437223597_);fill:#173E7D;}
</style>
<g id="layer-MC0" transform="translate(-1008.052,-245.73339)">
	<g>
		<defs>
			<rect id="SVGID_1_" x="0" y="0" width="1398.4" height="1122.5"/>
		</defs>
		<clipPath id="SVGID_00000114038484188788154040000002205941362079747007_">
			<use xlink:href="#SVGID_1_"  style="overflow:visible;"/>
		</clipPath>
		<g id="g4254" style="clip-path:url(#SVGID_00000114038484188788154040000002205941362079747007_);">
			<g>
				<defs>
					<rect id="SVGID_00000021831427787969132150000005836866199495842962_" x="1008.1" y="245.7" width="281.6" height="32.6"/>
				</defs>
				<clipPath id="SVGID_00000129892493904292741750000018168758374350963901_">
					<use xlink:href="#SVGID_00000021831427787969132150000005836866199495842962_"  style="overflow:visible;"/>
				</clipPath>
				<path id="path4207" style="clip-path:url(#SVGID_00000129892493904292741750000018168758374350963901_);fill:#173E7D;" d="
					M1043,255.6c0.2,0.1,0.3,0.1,0.3,0.1c-0.1,0-0.1,0.1-0.2,0.1c-3.4,3.7-3.9,10-6.6,12.2c-0.9,0.7-1.8,1.1-2.7,1.3
					c-0.5,1-1,2.1-1.6,3.1c-0.6,1-1.4,1.8-2.2,2.7c0,0,1.4,1,3.6,1.9c3.6,1.5,9.1,2.3,14-1.7c6-4.9,7-18.7,14.5-26.8
					c0.1-0.1,0.2-0.2,0.3-0.3c0,0-0.3-0.1-0.7-0.3c-2-0.8-7.2-2.7-11-1.9c-5.5,1.1-8.5,4.4-10.8,8.8
					C1041.2,254.9,1042.4,255.3,1043,255.6"/>
			</g>
			<g>
				<defs>
					<rect id="SVGID_00000000220446722776611200000013085528171258035632_" x="1008.1" y="245.7" width="281.6" height="32.6"/>
				</defs>
				<clipPath id="SVGID_00000077318745562760358440000014125641821901958833_">
					<use xlink:href="#SVGID_00000000220446722776611200000013085528171258035632_"  style="overflow:visible;"/>
				</clipPath>
				<path id="path4208" style="clip-path:url(#SVGID_00000077318745562760358440000014125641821901958833_);fill:#173E7D;" d="
					M1074.8,253.2h4v3.3h-4V253.2z M1081.2,253.2h4.1v3.3h-4.1V253.2z M1072.4,259h2.4l0-0.3h4v3.7l-0.1,2.1h2.6l-0.1-2.1v-3.7h4.1
					l0,0.3h2.5l-0.1-2.2v-4.1l0.1-1.8l-2,0.1h-4.6v-1.1l0.1-2.3h-2.6l0.1,2.3v1.1h-4.5l-1.9-0.1l0.1,1.8v4.1L1072.4,259z"/>
			</g>
			<g>
				<defs>
					<rect id="SVGID_00000009550880371373067250000016286178094185032637_" x="1008.1" y="245.7" width="281.6" height="32.6"/>
				</defs>
				<clipPath id="SVGID_00000034781655911193835490000014201491585724557699_">
					<use xlink:href="#SVGID_00000009550880371373067250000016286178094185032637_"  style="overflow:visible;"/>
				</clipPath>
				<path id="path4209" style="clip-path:url(#SVGID_00000034781655911193835490000014201491585724557699_);fill:#173E7D;" d="
					M1097,250.3h10.9v11.8H1097V250.3z M1094.9,264.3h2.2V264h10.9v0.4h2.2l-0.1-2.1v-12.1l0.1-1.9l-1.8,0.1h-11.7l-1.8-0.1l0.1,1.9
					v12L1094.9,264.3z"/>
			</g>
			<g>
				<defs>
					<rect id="SVGID_00000172430225538409569120000015163772500839616439_" x="1008.1" y="245.7" width="281.6" height="32.6"/>
				</defs>
				<clipPath id="SVGID_00000151524008684000803980000002051371044847345280_">
					<use xlink:href="#SVGID_00000172430225538409569120000015163772500839616439_"  style="overflow:visible;"/>
				</clipPath>
				<path id="path4210" style="clip-path:url(#SVGID_00000151524008684000803980000002051371044847345280_);fill:#173E7D;" d="
					M1103.6,259.2v-2.4h1.2c-0.3,0.3-0.7,0.6-1,0.8c0.6,0.5,1,0.9,1.1,1.1c0.1,0.2,0.3,0.4,0.4,0.5H1103.6z M1107.1,258.3l-0.4-0.4
					l-0.6-0.6c-0.1-0.1-0.2-0.3-0.4-0.5l1.4,0.1v-2l-1.2,0h-2.2v-1.7h2.4l1.6,0.1v-2l-1.7,0h-6.7l-1.5,0v2l1.5-0.1h2.3v1.7h-1.8
					l-1.5,0v1.9l1.5,0h1.8v2.4h-2.5l-1.6,0v1.9l1.6,0h7l1.7,0v-1.9l-1.3,0C1106.6,258.9,1106.9,258.6,1107.1,258.3"/>
			</g>
			<g>
				<defs>
					<rect id="SVGID_00000008118495030291970750000006174159942625345694_" x="1008.1" y="245.7" width="281.6" height="32.6"/>
				</defs>
				<clipPath id="SVGID_00000087414041974527008630000009184715574702654599_">
					<use xlink:href="#SVGID_00000008118495030291970750000006174159942625345694_"  style="overflow:visible;"/>
				</clipPath>
				<path id="path4211" style="clip-path:url(#SVGID_00000087414041974527008630000009184715574702654599_);fill:#173E7D;" d="
					M1122.6,252.9c0.1,0.2,0.4,0.8,0.7,1.7c0.6-0.1,1.2-0.3,1.9-0.5v1.4c0,0.4,0.1,0.8,0.2,1c0.1,0.2,0.5,0.4,1,0.5
					c0.5,0.2,1.8,0.3,3.8,0.3c0.4,0,0.8,0,1.1-0.1c0.3-0.1,0.5-0.2,0.7-0.4c0.2-0.2,0.4-0.5,0.6-0.8c0.2-0.4,0.3-0.7,0.4-1
					c0.1-0.3,0.2-0.6,0.3-0.9c-0.7-0.2-1.2-0.4-1.4-0.5c-0.2-0.1-0.5-0.2-0.8-0.4c-0.1,0.7-0.2,1.1-0.4,1.3
					c-0.2,0.2-0.4,0.4-0.6,0.4c-0.2,0.1-0.5,0.1-1,0.1c-0.5,0-0.9,0-1.1-0.1c-0.2,0-0.4-0.1-0.5-0.2c-0.1-0.1-0.1-0.3-0.1-0.5v-1
					c1.2-0.4,2.3-0.9,3-1.4c0.8-0.5,1.2-0.7,1.3-0.8c0.1-0.1,0.3-0.2,0.6-0.3l-0.6-0.6c-0.3-0.2-0.6-0.7-1.2-1.4l-0.7,0.7
					c-0.2,0.1-0.4,0.4-0.9,0.6c-0.4,0.3-1,0.5-1.6,0.8v-1.9l0-1.4h-2.3l0,1.4v2.7l-0.8,0.3c-0.1,0.1-0.4,0.1-0.9,0.2
					c-0.5,0.1-0.9,0.1-1.1,0.1L1122.6,252.9z"/>
			</g>
			<g>
				<defs>
					<rect id="SVGID_00000063622811684349690750000014928124484858332856_" x="1008.1" y="245.7" width="281.6" height="32.6"/>
				</defs>
				<clipPath id="SVGID_00000125589376750688708130000000970105634237344666_">
					<use xlink:href="#SVGID_00000063622811684349690750000014928124484858332856_"  style="overflow:visible;"/>
				</clipPath>
				<path id="path4212" style="clip-path:url(#SVGID_00000125589376750688708130000000970105634237344666_);fill:#173E7D;" d="
					M1126,258.5l0-1.3h-2.5l0,1.3h-5.1l-2-0.1v2.3l2-0.1h5.1v2l-0.1,2h2.5l-0.1-2v-2h4.8l2.1,0.1v-2.3l-2.1,0.1H1126z"/>
			</g>
			<g>
				<defs>
					<rect id="SVGID_00000169534137051402452520000017093511390864476307_" x="1008.1" y="245.7" width="281.6" height="32.6"/>
				</defs>
				<clipPath id="SVGID_00000013169580484964116210000004168378118171206820_">
					<use xlink:href="#SVGID_00000169534137051402452520000017093511390864476307_"  style="overflow:visible;"/>
				</clipPath>
				<path id="path4213" style="clip-path:url(#SVGID_00000013169580484964116210000004168378118171206820_);fill:#173E7D;" d="
					M1117.6,253.7l1.8-1.3v3.2l-0.1,1.9h2.3l0-1.9v-3.1l0-1.4h-0.7c0.9-0.9,1.4-1.4,1.6-1.5s0.4-0.4,0.7-0.8
					c-0.8-0.4-1.5-0.9-2.1-1.4c-0.3,0.5-0.8,1.3-1.5,2.1c-0.7,0.9-1.8,1.6-3.3,2.1l0.5,0.6C1117,252.4,1117.2,252.9,1117.6,253.7"/>
			</g>
			<g>
				<defs>
					<rect id="SVGID_00000091726705033860618130000010358154360126572216_" x="1008.1" y="245.7" width="281.6" height="32.6"/>
				</defs>
				<clipPath id="SVGID_00000136385533495759144200000007402749979921877160_">
					<use xlink:href="#SVGID_00000091726705033860618130000010358154360126572216_"  style="overflow:visible;"/>
				</clipPath>
				<path id="path4214" style="clip-path:url(#SVGID_00000136385533495759144200000007402749979921877160_);fill:#173E7D;" d="
					M1145.4,254.1h-3.4V252h3.4V254.1z M1145.4,258h-3.4V256h3.4V258z M1147.6,256h3.9v2.1h-3.9V256z M1147.6,252h3.9v2.1h-3.9V252z
					 M1155,263.9c0.2-0.3,0.5-1,0.9-2.3c-0.6-0.2-1.4-0.6-2.2-1.1l-0.1,0.7c-0.1,0.5-0.2,0.8-0.4,1c-0.2,0.2-0.5,0.3-0.9,0.3
					c-0.4,0-1,0-1.8,0l-2,0c-0.4,0-0.7-0.1-0.8-0.2c-0.1-0.1-0.1-0.3-0.1-0.4V260h3.9v0.3h2.3l-0.1-1.8v-7.1l0.1-1.6l-1.5,0.1h-4.7
					v-1l0-1.4h-2.3l0,1.4v1h-4l-1.7-0.1l0.1,1.6v7l-0.1,1.9h2.3V260h3.4v2.6c0,0.4,0,0.7,0.1,1c0.1,0.2,0.3,0.5,0.6,0.7
					c0.3,0.2,0.9,0.3,1.6,0.3c0.7,0,1.6,0,2.7,0c1.1,0,2,0,2.6,0c0.6,0,1-0.1,1.2-0.2C1154.5,264.4,1154.8,264.2,1155,263.9"/>
			</g>
			<g>
				<defs>
					<rect id="SVGID_00000029032387375676031560000015468750782779908764_" x="1008.1" y="245.7" width="281.6" height="32.6"/>
				</defs>
				<clipPath id="SVGID_00000121975702271290380270000004704577802112460192_">
					<use xlink:href="#SVGID_00000029032387375676031560000015468750782779908764_"  style="overflow:visible;"/>
				</clipPath>
				<path id="path4215" style="clip-path:url(#SVGID_00000121975702271290380270000004704577802112460192_);fill:#173E7D;" d="
					M1169.2,251.9h-3.2v-0.5h3.2V251.9z M1169.2,254.1h-3.2v-0.5h3.2V254.1z M1169.2,256.3h-3.2v-0.5h3.2V256.3z M1177.8,263.5
					c0.2-0.2,0.4-0.5,0.5-0.7l-0.8-0.2c-0.4-0.1-1-0.3-1.8-0.6c-0.8-0.3-1.4-0.6-1.7-0.8c-0.3-0.2-0.6-0.4-1-0.7h3.9l1.3,0v-2
					l-1.2,0h-6V258h4.7l1.6,0v-1.8l-1.2,0h-4.8v-0.5h3.8l1.4,0v-1.7l-1.3,0h-3.8v-0.5h3.7l1.5,0v-1.7l-1.4,0h-3.7v-0.6h4.3l1.4,0
					v-1.9l-1.2,0h-4.5l0.4-0.2l-0.3-0.5l-0.6-1c-0.1-0.1-0.2-0.3-0.4-0.6c-0.5,0.3-0.9,0.5-1,0.6c-0.2,0.1-0.4,0.2-0.6,0.2
					c0.3,0.5,0.6,1,0.9,1.5l-3,0c0.4-0.4,0.8-0.8,1.1-1.3l-0.6-0.3c-0.2-0.1-0.7-0.4-1.4-0.9l-0.3,0.6c-0.3,0.6-0.9,1.3-1.7,2
					c-0.8,0.7-1.4,1.1-1.7,1.3c-0.3,0.2-0.6,0.3-0.9,0.4l0.4,0.6c0.2,0.3,0.4,0.7,0.7,1.4c0.7-0.4,1.4-0.9,2-1.4v4.9l-0.1,1.5h2V258
					h2.9v0.7h-6.3l-1.1,0v2l1,0h4.8l-1.2,0.7c-0.4,0.3-1,0.5-1.9,0.8c-0.8,0.3-1.4,0.4-1.8,0.5c-0.4,0-0.7,0.1-1.2,0.1
					c0.5,0.7,0.8,1.2,0.9,1.4c0.1,0.2,0.2,0.4,0.3,0.7c1.1-0.3,2.1-0.6,3-1c0.9-0.4,2-1,3.3-1.8v1.2l0,1.5h2.2l0-1.4v-1.7
					c1.1,0.9,2.1,1.5,3,2c0.8,0.5,1.8,0.9,3,1.3C1177.4,264.1,1177.6,263.7,1177.8,263.5"/>
			</g>
			<g>
				<defs>
					<rect id="SVGID_00000158022555887398747000000016534158364767674550_" x="1008.1" y="245.7" width="281.6" height="32.6"/>
				</defs>
				<clipPath id="SVGID_00000033362794199161824190000015885373788082591366_">
					<use xlink:href="#SVGID_00000158022555887398747000000016534158364767674550_"  style="overflow:visible;"/>
				</clipPath>
				<path id="path4216" style="clip-path:url(#SVGID_00000033362794199161824190000015885373788082591366_);fill:#173E7D;" d="
					M1186.5,250.3h10.9v11.9h-10.9V250.3z M1184.3,262.1l-0.1,2.3h2.2v-0.3h10.9v0.3h2.2l-0.1-2V250l0.1-1.7l-1.6,0.1H1186l-1.8-0.1
					l0.1,2.1L1184.3,262.1z"/>
			</g>
			<g>
				<defs>
					<rect id="SVGID_00000095338745963784596180000006164072975342284977_" x="1008.1" y="245.7" width="281.6" height="32.6"/>
				</defs>
				<clipPath id="SVGID_00000064314775836442792480000013853781360647909813_">
					<use xlink:href="#SVGID_00000095338745963784596180000006164072975342284977_"  style="overflow:visible;"/>
				</clipPath>
				<path id="path4217" style="clip-path:url(#SVGID_00000064314775836442792480000013853781360647909813_);fill:#173E7D;" d="
					M1194.2,252.8v-0.6l0-1.6h-2.2l0,1.6v0.6h-3.4l-1.8,0v2l1.9,0h1.6c-0.8,1.6-1.4,2.6-2,3.2c-0.6,0.5-1.2,1-1.8,1.3l0.6,0.6
					c0.2,0.2,0.5,0.6,0.7,1.2c0.9-0.7,1.7-1.4,2.4-2.3c0.6-0.9,1.2-1.8,1.8-2.8v3.3c0,0.3-0.2,0.5-0.7,0.5c-0.2,0-0.5,0-1.1-0.1
					l0.2,0.4c0.1,0.1,0.2,0.4,0.2,0.6c0,0.3,0.1,0.5,0.1,0.7c0,0.2,0,0.3,0,0.5c0.9,0,1.6,0,2.1-0.1c0.6-0.1,0.9-0.3,1.1-0.5
					c0.1-0.2,0.2-0.5,0.2-0.8v-5.7h1.3l1.5,0v-2l-1.5,0H1194.2z"/>
			</g>
			<g>
				<defs>
					<rect id="SVGID_00000026132967347157170220000018062230901406602429_" x="1008.1" y="245.7" width="281.6" height="32.6"/>
				</defs>
				<clipPath id="SVGID_00000076602394857330725670000015487254328981675162_">
					<use xlink:href="#SVGID_00000026132967347157170220000018062230901406602429_"  style="overflow:visible;"/>
				</clipPath>
				<path id="path4218" style="clip-path:url(#SVGID_00000076602394857330725670000015487254328981675162_);fill:#173E7D;" d="
					M1212.3,257.7l6,0v1.1l-6,0V257.7z M1212.3,254.8h6v1.1l-6,0V254.8z M1209,254.5c-0.9,0.8-2.1,1.5-3.4,2l0.5,0.6
					c0.2,0.2,0.5,0.7,0.9,1.5c1.4-0.8,2.2-1.3,2.4-1.5c0.2-0.2,0.5-0.4,0.7-0.6l0,6.2l-0.1,1.9h2.3l-0.1-1.9v-2.1h6v1.4
					c0,0.3-0.2,0.4-0.6,0.5c-0.1,0-0.5,0-1.3-0.1l0.4,0.8c0.1,0.3,0.3,0.8,0.4,1.6c1.8-0.2,2.8-0.4,3-0.7c0.2-0.3,0.3-0.6,0.3-1
					v-8.4l0.1-2l-1.5,0h-5.8c0.2-0.4,0.5-0.8,0.7-1.3h7.3l1.5,0.1v-2.2l-1.4,0h-6.5c0.2-0.6,0.4-1.1,0.6-1.7l-0.9-0.1
					c-0.2,0-0.7-0.1-1.5-0.3l-0.2,0.8c0,0.2-0.2,0.6-0.4,1.2h-5l-1.2-0.1v2.2l1.3-0.1h4l-0.3,0.5
					C1210.6,252.9,1209.9,253.7,1209,254.5"/>
			</g>
			<g>
				<defs>
					<rect id="SVGID_00000151501281355328785100000008015547371500602813_" x="1008.1" y="245.7" width="281.6" height="32.6"/>
				</defs>
				<clipPath id="SVGID_00000147217618216935882980000007644549487975780021_">
					<use xlink:href="#SVGID_00000151501281355328785100000008015547371500602813_"  style="overflow:visible;"/>
				</clipPath>
				<path id="path4219" style="clip-path:url(#SVGID_00000147217618216935882980000007644549487975780021_);fill:#173E7D;" d="
					M1229.1,264.2h2.2l-0.1-2.1v-12.2h1.5l-0.7,2.2c0,0.1-0.1,0.4-0.4,1v1.2l0.7,0.7c0.5,0.5,0.8,1,0.9,1.6c0.1,0.5,0,0.8-0.2,1.2
					c-0.2,0.3-0.4,0.5-0.8,0.6c-0.3,0.1-0.7,0.1-1,0.1l0.3,0.8c0.1,0.3,0.3,0.8,0.4,1.5c0.8-0.1,1.4-0.3,1.9-0.6
					c0.5-0.3,0.8-0.7,1.1-1.1c0.3-0.5,0.4-1,0.4-1.6c0-0.6-0.1-1.2-0.4-1.8c-0.3-0.6-0.5-1-0.8-1.2c-0.3-0.3-0.5-0.5-0.8-0.7
					c0.6-1.4,1.2-2.9,1.9-4.5l-0.6-1h-3.8l-1.8,0l0.1,2v12.2L1229.1,264.2z"/>
			</g>
			<g>
				<defs>
					<rect id="SVGID_00000128472021908518676160000006636023610515347888_" x="1008.1" y="245.7" width="281.6" height="32.6"/>
				</defs>
				<clipPath id="SVGID_00000083089661487880128170000011538254587363074435_">
					<use xlink:href="#SVGID_00000128472021908518676160000006636023610515347888_"  style="overflow:visible;"/>
				</clipPath>
				<path id="path4220" style="clip-path:url(#SVGID_00000083089661487880128170000011538254587363074435_);fill:#173E7D;" d="
					M1237.8,252.9h4.2v1.3h-4.2V252.9z M1237.8,249.9h4.2v1.2h-4.2V249.9z M1245.2,262.8c0.2-0.2,0.3-0.4,0.5-0.6l-0.6-0.2
					c-0.2-0.1-0.6-0.3-1-0.6c-0.5-0.4-0.8-0.7-0.9-0.9c-0.2-0.2-0.3-0.5-0.5-0.8c1-0.6,1.7-0.9,1.9-1.1c0.3-0.2,0.5-0.4,0.7-0.5
					c-0.5-0.6-1-1.2-1.4-1.7c-0.7,0.6-1.2,1-1.4,1.2c-0.3,0.2-0.5,0.3-0.8,0.5l-0.2-0.4c-0.1-0.2-0.2-0.4-0.3-0.7
					c-0.1-0.3-0.1-0.6-0.2-0.9h1.4l1.6,0l0-2v-4.3l0-1.7l-1.9,0h-4.5l-1.8,0l0.1,2.5v10.9c0,0.2,0,0.3-0.1,0.5
					c0,0.2-0.1,0.3-0.2,0.4c-0.1,0.1-0.2,0.2-0.3,0.3l0.4,0.7c0.1,0.1,0.3,0.6,0.8,1.5l0.7-0.6c0.2-0.2,0.7-0.6,1.4-1.2
					c0.8-0.6,1.4-1.1,1.9-1.5l-0.2-0.4c-0.1-0.2-0.3-0.7-0.6-1.5l-0.9,0.7c-0.1,0.1-0.5,0.4-1.1,0.8V256h2.7l-0.8,0.3
					c-0.1,0-0.3,0.1-0.7,0.1l0.2,0.9c0,0.2,0.2,0.8,0.5,1.5c0.3,0.8,0.6,1.4,0.9,1.9c0.3,0.5,0.7,1,1.1,1.5c0.4,0.5,0.9,0.9,1.2,1.2
					c0.4,0.3,0.9,0.6,1.4,0.9C1244.7,263.5,1245,263,1245.2,262.8"/>
			</g>
			<g>
				<defs>
					<rect id="SVGID_00000053530265332395882230000014381786234106531463_" x="1008.1" y="245.7" width="281.6" height="32.6"/>
				</defs>
				<clipPath id="SVGID_00000012459610259856967860000001002440715603719304_">
					<use xlink:href="#SVGID_00000053530265332395882230000014381786234106531463_"  style="overflow:visible;"/>
				</clipPath>
				<path id="path4221" style="clip-path:url(#SVGID_00000012459610259856967860000001002440715603719304_);fill:#173E7D;" d="
					M1262.5,257.7c-0.2,0.2-0.8,0.5-1.7,0.8l0.8,0.9c0.2,0.2,0.6,0.7,1.1,1.5c-2.2,0.1-4.5,0.2-6.8,0.2c0.7-0.7,1.3-1.4,1.8-1.9
					c0.5-0.6,0.9-1.1,1.4-1.8l0.9-1.3c0.1-0.2,0.3-0.4,0.5-0.7c-0.8-0.4-1.6-0.9-2.4-1.4l-0.2,0.5c-0.1,0.2-0.3,0.7-0.7,1.4
					c-0.4,0.7-0.8,1.4-1.2,1.9c-0.4,0.6-0.9,1.1-1.3,1.6c-0.4,0.5-0.8,0.8-1.1,1.1c-0.3,0.2-0.8,0.5-1.4,0.9l0.3,0.5
					c0.2,0.3,0.4,0.9,0.7,1.8c0.6-0.2,1.1-0.3,1.6-0.3c0.5-0.1,1.8-0.2,3.8-0.4c2.1-0.2,3.7-0.3,4.8-0.4c0.3,0.5,0.5,0.9,0.6,1.1
					c0.1,0.2,0.2,0.4,0.3,0.7l0.5-0.5c0,0,0.5-0.4,1.6-1.2c-1-1.4-2.3-3.2-3.9-5.4L1262.5,257.7z"/>
			</g>
			<g>
				<defs>
					<rect id="SVGID_00000114039414038368197240000007193487463830762153_" x="1008.1" y="245.7" width="281.6" height="32.6"/>
				</defs>
				<clipPath id="SVGID_00000152960504151209769640000003245530966896291458_">
					<use xlink:href="#SVGID_00000114039414038368197240000007193487463830762153_"  style="overflow:visible;"/>
				</clipPath>
				<path id="path4222" style="clip-path:url(#SVGID_00000152960504151209769640000003245530966896291458_);fill:#173E7D;" d="
					M1266.4,254.6c-0.3-0.1-0.5-0.3-0.9-0.5c-0.3-0.2-0.8-0.6-1.3-1.1c-0.5-0.5-0.9-1.1-1.2-1.8c-0.3-0.7-0.4-1.3-0.5-1.6
					c0-0.3-0.1-0.6-0.1-0.8c0-0.2,0-0.4,0-0.7c-0.9,0-1.7,0-2.4-0.1c0.2,1.1,0.3,1.8,0.4,2.2c0.1,0.4,0.3,1,0.6,1.6
					c0.3,0.7,0.6,1.3,1,1.9c0.4,0.6,1,1.3,1.8,1.9c0.8,0.6,1.6,1.2,2.6,1.6c0.5-1,0.8-1.5,0.9-1.7c0.1-0.2,0.3-0.4,0.4-0.6
					C1267.1,254.8,1266.6,254.7,1266.4,254.6"/>
			</g>
			<g>
				<defs>
					<rect id="SVGID_00000039126822886365549920000012327082135693144472_" x="1008.1" y="245.7" width="281.6" height="32.6"/>
				</defs>
				<clipPath id="SVGID_00000177450925489496808160000016677578398641642128_">
					<use xlink:href="#SVGID_00000039126822886365549920000012327082135693144472_"  style="overflow:visible;"/>
				</clipPath>
				<path id="path4223" style="clip-path:url(#SVGID_00000177450925489496808160000016677578398641642128_);fill:#173E7D;" d="
					M1252.2,257.1c0.8-0.6,1.6-1.4,2.5-2.4c0.9-0.9,1.6-1.8,2.1-2.5c0.5-0.8,1.1-1.7,1.7-2.9c-0.8-0.2-1.5-0.6-2.3-1l-0.2,0.5
					c-0.3,0.9-0.8,1.7-1.4,2.5c-0.6,0.8-1.3,1.6-2,2.3c-0.8,0.7-1.5,1.2-2.2,1.5l0.5,0.4C1251.1,255.8,1251.6,256.3,1252.2,257.1"/>
			</g>
			<g>
				<defs>
					<rect id="SVGID_00000157999790876997532160000000003504994141415067_" x="1008.1" y="245.7" width="281.6" height="32.6"/>
				</defs>
				<clipPath id="SVGID_00000106861188829807063910000001981832970719789500_">
					<use xlink:href="#SVGID_00000157999790876997532160000000003504994141415067_"  style="overflow:visible;"/>
				</clipPath>
				<path id="path4224" style="clip-path:url(#SVGID_00000106861188829807063910000001981832970719789500_);fill:#173E7D;" d="
					M1287,250.4v11.1c0,0.3,0,0.6-0.1,0.7c-0.1,0.1-0.3,0.2-0.7,0.2c-0.1,0-0.4,0-0.7,0c-0.3,0-0.6,0-0.9,0l0.3,0.7
					c0.2,0.4,0.3,0.7,0.3,1c0,0.3,0.1,0.6,0.1,0.8c1.5-0.1,2.4-0.3,2.9-0.5c0.5-0.2,0.7-0.4,0.8-0.6c0.1-0.2,0.1-0.6,0.1-1.1v-12.3
					l0.1-1.9l-2,0.1h-10.5l-2.3-0.1v2.1l2.3-0.1H1287z"/>
			</g>
			<g>
				<defs>
					<rect id="SVGID_00000002379870702045804490000001544979230146313355_" x="1008.1" y="245.7" width="281.6" height="32.6"/>
				</defs>
				<clipPath id="SVGID_00000129888213837123650850000006407720257031038624_">
					<use xlink:href="#SVGID_00000002379870702045804490000001544979230146313355_"  style="overflow:visible;"/>
				</clipPath>
				<path id="path4225" style="clip-path:url(#SVGID_00000129888213837123650850000006407720257031038624_);fill:#173E7D;" d="
					M1283.5,254.1l2.3,0.1v-2.1l-2.3,0.1h-7.6l-2-0.1v2.1l2-0.1H1283.5z"/>
			</g>
			<g>
				<defs>
					<rect id="SVGID_00000142177482148316224280000016317338451899080837_" x="1008.1" y="245.7" width="281.6" height="32.6"/>
				</defs>
				<clipPath id="SVGID_00000071535579836637837280000013214358230419327678_">
					<use xlink:href="#SVGID_00000142177482148316224280000016317338451899080837_"  style="overflow:visible;"/>
				</clipPath>
				<path id="path4226" style="clip-path:url(#SVGID_00000071535579836637837280000013214358230419327678_);fill:#173E7D;" d="
					M1282.3,259.8h-4.8v-2.4h4.8V259.8z M1284.5,255.3l-2,0.1h-5.4l-1.8-0.1l0.1,1.6v3.1l-0.1,1.8l1.8-0.1h5.4l2,0.1l-0.1-1.8V257
					L1284.5,255.3z"/>
			</g>
			<g>
				<defs>
					<rect id="SVGID_00000083081367141411015670000005334570589450068115_" x="1008.1" y="245.7" width="281.6" height="32.6"/>
				</defs>
				<clipPath id="SVGID_00000159469822375979081500000017400152788858575242_">
					<use xlink:href="#SVGID_00000083081367141411015670000005334570589450068115_"  style="overflow:visible;"/>
				</clipPath>
				<path id="path4227" style="clip-path:url(#SVGID_00000159469822375979081500000017400152788858575242_);fill:#35B6ED;" d="
					M1027.6,268.5c-0.2-0.1-0.3-0.1-0.3-0.1c0.1,0,0.1-0.1,0.2-0.1c3.4-3.7,3.9-10,6.6-12.2c0.9-0.7,1.8-1.1,2.7-1.3
					c0.5-1,1-2.1,1.6-3.1c0.6-1,1.4-1.8,2.2-2.7c0,0-1.4-1-3.6-1.9c-3.6-1.5-9.1-2.3-14.1,1.7c-6,4.9-7,18.7-14.5,26.8
					c-0.1,0.1-0.2,0.2-0.3,0.3c0,0,0.3,0.1,0.7,0.3c2,0.8,7.2,2.7,11,1.9c5.5-1.1,8.5-4.4,10.8-8.8
					C1029.4,269.1,1028.2,268.7,1027.6,268.5"/>
			</g>
			<g>
				<defs>
					<rect id="SVGID_00000127037040568941403490000006320270005328452776_" x="1008.1" y="245.7" width="281.6" height="32.6"/>
				</defs>
				<clipPath id="SVGID_00000085227018334161895630000006995693811327932573_">
					<use xlink:href="#SVGID_00000127037040568941403490000006320270005328452776_"  style="overflow:visible;"/>
				</clipPath>
				<path id="path4228" style="clip-path:url(#SVGID_00000085227018334161895630000006995693811327932573_);fill:#173E7D;" d="
					M1271,276.9c-0.4,0.1-0.8,0.1-1.2,0.1c-0.4,0-0.9,0.1-1.3,0.1v-8.2c-0.1,0-0.3,0-0.4,0c-0.1,0-0.3,0-0.5,0c-0.2,0-0.3,0-0.5,0
					c-0.2,0-0.3,0-0.5,0v9.2h4.4c0-0.2-0.1-0.4-0.1-0.6C1270.9,277.2,1270.9,277,1271,276.9"/>
			</g>
			<g>
				<defs>
					<rect id="SVGID_00000072992491008520011540000006373620754087075248_" x="1008.1" y="245.7" width="281.6" height="32.6"/>
				</defs>
				<clipPath id="SVGID_00000049929066652656249300000011416606524145822605_">
					<use xlink:href="#SVGID_00000072992491008520011540000006373620754087075248_"  style="overflow:visible;"/>
				</clipPath>
				<path id="path4229" style="clip-path:url(#SVGID_00000049929066652656249300000011416606524145822605_);fill:#173E7D;" d="
					M1289.4,276.2c-0.2-0.2-0.4-0.3-0.7-0.3s-0.5,0.1-0.7,0.3s-0.3,0.4-0.3,0.7s0.1,0.5,0.3,0.7c0.2,0.2,0.4,0.3,0.7,0.3
					s0.5-0.1,0.7-0.3c0.2-0.2,0.3-0.4,0.3-0.7S1289.6,276.4,1289.4,276.2"/>
			</g>
			<g>
				<defs>
					<rect id="SVGID_00000018227868547108098190000014614773166538845067_" x="1008.1" y="245.7" width="281.6" height="32.6"/>
				</defs>
				<clipPath id="SVGID_00000096061012053740340880000010438030932866700679_">
					<use xlink:href="#SVGID_00000018227868547108098190000014614773166538845067_"  style="overflow:visible;"/>
				</clipPath>
				<path id="path4230" style="clip-path:url(#SVGID_00000096061012053740340880000010438030932866700679_);fill:#173E7D;" d="
					M1080,276.5l-0.3,1.1c-0.8,0.4-1.7,0.6-2.6,0.6c-2.8,0-5-1.8-5-4.5c0-3.5,2.4-5.1,5.3-5.1c0.9,0,1.9,0.2,2.7,0.7
					c-0.1,0.5-0.2,0.9-0.3,1.4h-0.2c-0.5-0.7-1.3-1.2-2.2-1.2c-2.2,0-3.1,2.1-3.1,4.1c0,2.3,1.1,3.9,3.1,3.9c0.8,0,1.8-0.4,2.4-1
					L1080,276.5z"/>
			</g>
			<g>
				<defs>
					<rect id="SVGID_00000113317962131991758780000004067325269503515293_" x="1008.1" y="245.7" width="281.6" height="32.6"/>
				</defs>
				<clipPath id="SVGID_00000003067663767516672130000007117473364088107451_">
					<use xlink:href="#SVGID_00000113317962131991758780000004067325269503515293_"  style="overflow:visible;"/>
				</clipPath>
				<path id="path4231" style="clip-path:url(#SVGID_00000003067663767516672130000007117473364088107451_);fill:#173E7D;" d="
					M1081.1,268.9c0.3,0,0.7,0.1,1,0.1c0.3,0,0.7,0,1-0.1v3.6c0.7,0,1.3,0.1,2,0.1c0.7,0,1.3,0,2-0.1v-3.6c0.3,0,0.7,0.1,1,0.1
					c0.3,0,0.7,0,1-0.1v9.1c-0.3,0-0.7-0.1-1-0.1c-0.3,0-0.7,0-1,0.1v-4.5c-0.7,0-1.3-0.1-2-0.1c-0.7,0-1.3,0-2,0.1v4.5
					c-0.3,0-0.7-0.1-1-0.1c-0.3,0-0.7,0-1,0.1V268.9z"/>
			</g>
			<g>
				<defs>
					<rect id="SVGID_00000057141935293197240190000016117798159954484410_" x="1008.1" y="245.7" width="281.6" height="32.6"/>
				</defs>
				<clipPath id="SVGID_00000160177405580097295050000012095491175294751158_">
					<use xlink:href="#SVGID_00000057141935293197240190000016117798159954484410_"  style="overflow:visible;"/>
				</clipPath>
				<path id="path4232" style="clip-path:url(#SVGID_00000160177405580097295050000012095491175294751158_);fill:#173E7D;" d="
					M1090.8,268.9c0.3,0,0.7,0.1,1,0.1c0.3,0,0.7,0,1-0.1v9.1c-0.3,0-0.7-0.1-1-0.1c-0.3,0-0.7,0-1,0.1V268.9z"/>
			</g>
			<g>
				<defs>
					<rect id="SVGID_00000131329185260331952290000009189049597747243940_" x="1008.1" y="245.7" width="281.6" height="32.6"/>
				</defs>
				<clipPath id="SVGID_00000030467654358936554850000014507165129447215789_">
					<use xlink:href="#SVGID_00000131329185260331952290000009189049597747243940_"  style="overflow:visible;"/>
				</clipPath>
				<path id="path4233" style="clip-path:url(#SVGID_00000030467654358936554850000014507165129447215789_);fill:#173E7D;" d="
					M1094.4,268.9h1.3c1.9,2.1,3.8,4.1,5.7,6.2v-6.2c0.2,0,0.4,0,0.5,0c0.2,0,0.4,0,0.5,0v9.1l-1.1,0c-1.5-1.7-3-3.4-4.5-4.9
					l-1.4-1.5v6.4c-0.2,0-0.4,0-0.5,0s-0.4,0-0.5,0V268.9z"/>
			</g>
			<g>
				<defs>
					<rect id="SVGID_00000105384240922048657210000014555132232720874912_" x="1008.1" y="245.7" width="281.6" height="32.6"/>
				</defs>
				<clipPath id="SVGID_00000088098389969496270870000015219001509015996553_">
					<use xlink:href="#SVGID_00000105384240922048657210000014555132232720874912_"  style="overflow:visible;"/>
				</clipPath>
				<path id="path4234" style="clip-path:url(#SVGID_00000088098389969496270870000015219001509015996553_);fill:#173E7D;" d="
					M1114.7,268.9c0.3,0,0.7,0.1,1,0.1c0.3,0,0.7,0,1-0.1v3.6c0.7,0,1.3,0.1,2,0.1c0.7,0,1.3,0,2-0.1v-3.6c0.3,0,0.7,0.1,1,0.1
					s0.7,0,1-0.1v9.1c-0.3,0-0.7-0.1-1-0.1s-0.7,0-1,0.1v-4.5c-0.7,0-1.3-0.1-2-0.1c-0.7,0-1.3,0-2,0.1v4.5c-0.3,0-0.7-0.1-1-0.1
					c-0.3,0-0.7,0-1,0.1V268.9z"/>
			</g>
			<g>
				<defs>
					<rect id="SVGID_00000011721736660466869550000017938148121372411837_" x="1008.1" y="245.7" width="281.6" height="32.6"/>
				</defs>
				<clipPath id="SVGID_00000007395228552306159200000008661146941089957523_">
					<use xlink:href="#SVGID_00000011721736660466869550000017938148121372411837_"  style="overflow:visible;"/>
				</clipPath>
				<path id="path4235" style="clip-path:url(#SVGID_00000007395228552306159200000008661146941089957523_);fill:#173E7D;" d="
					M1124.4,268.9c0.3,0,0.7,0.1,1,0.1c0.3,0,0.7,0,1-0.1v3.8c0,0.7,0,1.8,0.1,2.5c0.1,0.7,0.2,1.1,0.7,1.5c0.4,0.4,0.9,0.6,1.5,0.6
					c1.2,0,1.9-0.5,2.3-1.6c0.2-0.6,0.2-2.1,0.2-2.8v-4c0.2,0,0.4,0,0.5,0s0.4,0,0.5,0v4.7c0,1.5,0,2.9-1.4,3.9
					c-0.7,0.5-1.6,0.7-2.5,0.7c-1.6,0-3.3-0.5-3.8-2.2c-0.1-0.5-0.2-1.1-0.2-1.6V268.9z"/>
			</g>
			<g>
				<defs>
					<rect id="SVGID_00000044870288858113028810000006576980695047346062_" x="1008.1" y="245.7" width="281.6" height="32.6"/>
				</defs>
				<clipPath id="SVGID_00000024713476391071119750000003183115141896131761_">
					<use xlink:href="#SVGID_00000044870288858113028810000006576980695047346062_"  style="overflow:visible;"/>
				</clipPath>
				<path id="path4236" style="clip-path:url(#SVGID_00000024713476391071119750000003183115141896131761_);fill:#173E7D;" d="
					M1138.2,275.2c0.4,0.9,0.6,1.8,0.9,2.8c0.4,0,0.8-0.1,1.1-0.1c0.4,0,0.8,0,1.1,0.1l-3.7-9.3c-0.2,0-0.3,0-0.5,0
					c-0.2,0-0.3,0-0.5,0l-3.8,9.2c0.2,0,0.4,0,0.6,0c0.2,0,0.4,0,0.6,0c0.3-0.9,0.6-1.7,0.9-2.8H1138.2z M1135.5,274.4l1.2-3.1
					l1.2,3.1H1135.5z"/>
			</g>
			<g>
				<defs>
					<rect id="SVGID_00000167388058051254499710000008980725191254314431_" x="1008.1" y="245.7" width="281.6" height="32.6"/>
				</defs>
				<clipPath id="SVGID_00000036221333422578763470000008887849547683081089_">
					<use xlink:href="#SVGID_00000167388058051254499710000008980725191254314431_"  style="overflow:visible;"/>
				</clipPath>
				<path id="path4237" style="clip-path:url(#SVGID_00000036221333422578763470000008887849547683081089_);fill:#173E7D;" d="
					M1108.3,275.2c0.4,0.9,0.6,1.8,0.9,2.8c0.4,0,0.8-0.1,1.1-0.1c0.4,0,0.8,0,1.1,0.1l-3.7-9.3c-0.2,0-0.3,0-0.5,0
					c-0.2,0-0.3,0-0.5,0l-3.8,9.2c0.2,0,0.4,0,0.6,0s0.4,0,0.6,0c0.3-0.9,0.6-1.7,0.9-2.8H1108.3z M1105.6,274.4l1.2-3.1l1.2,3.1
					H1105.6z"/>
			</g>
			<g>
				<defs>
					<rect id="SVGID_00000031920866131864437890000009780757226339856513_" x="1008.1" y="245.7" width="281.6" height="32.6"/>
				</defs>
				<clipPath id="SVGID_00000065759985890884335120000003043542197538562230_">
					<use xlink:href="#SVGID_00000031920866131864437890000009780757226339856513_"  style="overflow:visible;"/>
				</clipPath>
				<path id="path4238" style="clip-path:url(#SVGID_00000065759985890884335120000003043542197538562230_);fill:#173E7D;" d="
					M1142.1,268.9v9.1h3.7c2.7,0,4.8-1.8,4.8-4.8c0-2.2-1.2-4.2-4-4.3H1142.1z M1144,269.7h1.3c1.9,0,3,1,3,3.5c0,3.1-1.4,4-3.2,4
					h-1.1V269.7z"/>
			</g>
			<g>
				<defs>
					<rect id="SVGID_00000181059946199195961130000010624678412917820342_" x="1008.1" y="245.7" width="281.6" height="32.6"/>
				</defs>
				<clipPath id="SVGID_00000153669271688603860590000012659775669594575023_">
					<use xlink:href="#SVGID_00000181059946199195961130000010624678412917820342_"  style="overflow:visible;"/>
				</clipPath>
				<path id="path4239" style="clip-path:url(#SVGID_00000153669271688603860590000012659775669594575023_);fill:#173E7D;" d="
					M1151.8,268.9c0.3,0,0.7,0.1,1,0.1c0.3,0,0.7,0,1-0.1v9.1c-0.3,0-0.7-0.1-1-0.1c-0.3,0-0.7,0-1,0.1V268.9z"/>
			</g>
			<g>
				<defs>
					<rect id="SVGID_00000155825627789706376480000007859698379700779696_" x="1008.1" y="245.7" width="281.6" height="32.6"/>
				</defs>
				<clipPath id="SVGID_00000135661166050231218460000003704152159025971878_">
					<use xlink:href="#SVGID_00000155825627789706376480000007859698379700779696_"  style="overflow:visible;"/>
				</clipPath>
				<path id="path4240" style="clip-path:url(#SVGID_00000135661166050231218460000003704152159025971878_);fill:#173E7D;" d="
					M1159.7,275.2c0.4,0.9,0.6,1.8,0.9,2.8c0.4,0,0.8-0.1,1.1-0.1c0.4,0,0.8,0,1.1,0.1l-3.7-9.3c-0.2,0-0.3,0-0.5,0
					c-0.2,0-0.3,0-0.5,0l-3.8,9.2c0.2,0,0.4,0,0.6,0c0.2,0,0.4,0,0.6,0c0.3-0.9,0.6-1.7,0.9-2.8H1159.7z M1157,274.4l1.2-3.1
					l1.2,3.1H1157z"/>
			</g>
			<g>
				<defs>
					<rect id="SVGID_00000041982940589311440680000001716951552267514528_" x="1008.1" y="245.7" width="281.6" height="32.6"/>
				</defs>
				<clipPath id="SVGID_00000109028139306565903560000011633804213805627831_">
					<use xlink:href="#SVGID_00000041982940589311440680000001716951552267514528_"  style="overflow:visible;"/>
				</clipPath>
				<path id="path4241" style="clip-path:url(#SVGID_00000109028139306565903560000011633804213805627831_);fill:#173E7D;" d="
					M1163.6,268.9h1.3c1.9,2.1,3.8,4.1,5.7,6.2v-6.2c0.2,0,0.4,0,0.5,0c0.2,0,0.4,0,0.5,0v9.1l-1.1,0c-1.5-1.7-3-3.4-4.5-4.9
					l-1.4-1.5v6.4c-0.2,0-0.4,0-0.5,0c-0.2,0-0.4,0-0.5,0V268.9z"/>
			</g>
			<g>
				<defs>
					<rect id="SVGID_00000061463058031065389920000013708622316552829625_" x="1008.1" y="245.7" width="281.6" height="32.6"/>
				</defs>
				<clipPath id="SVGID_00000031177875142698725070000004705110700046476695_">
					<use xlink:href="#SVGID_00000061463058031065389920000013708622316552829625_"  style="overflow:visible;"/>
				</clipPath>
				<path id="path4242" style="clip-path:url(#SVGID_00000031177875142698725070000004705110700046476695_);fill:#173E7D;" d="
					M1183.3,276.5l-0.3,1.1c-0.8,0.4-1.7,0.6-2.6,0.6c-2.8,0-5-1.8-5-4.5c0-3.5,2.4-5.1,5.3-5.1c0.9,0,1.9,0.2,2.7,0.7
					c-0.1,0.5-0.2,0.9-0.3,1.4h-0.2c-0.5-0.7-1.3-1.2-2.2-1.2c-2.2,0-3.1,2.1-3.1,4.1c0,2.3,1.1,3.9,3.1,3.9c0.8,0,1.8-0.4,2.4-1
					L1183.3,276.5z"/>
			</g>
			<g>
				<defs>
					<rect id="SVGID_00000009577476148900790020000005442439719360169877_" x="1008.1" y="245.7" width="281.6" height="32.6"/>
				</defs>
				<clipPath id="SVGID_00000126320520353535652520000005530271061236417448_">
					<use xlink:href="#SVGID_00000009577476148900790020000005442439719360169877_"  style="overflow:visible;"/>
				</clipPath>
				<path id="path4243" style="clip-path:url(#SVGID_00000126320520353535652520000005530271061236417448_);fill:#173E7D;" d="
					M1193.8,273.4c0-2.1-1.1-4.7-4.9-4.7c-3.3,0-5.2,2.1-5.2,4.8c0,3,2,4.8,4.9,4.8C1191.8,278.2,1193.8,276,1193.8,273.4
					 M1188.8,269.4c2,0,2.8,2,2.8,3.7c0,2.2-0.9,4.3-2.9,4.3c-2,0-2.8-1.8-2.8-3.6C1185.9,270.8,1187,269.4,1188.8,269.4"/>
			</g>
			<g>
				<defs>
					<rect id="SVGID_00000082327552547070165620000017614792162453837209_" x="1008.1" y="245.7" width="281.6" height="32.6"/>
				</defs>
				<clipPath id="SVGID_00000047028692863690460660000008131055403332246660_">
					<use xlink:href="#SVGID_00000082327552547070165620000017614792162453837209_"  style="overflow:visible;"/>
				</clipPath>
				<path id="path4244" style="clip-path:url(#SVGID_00000047028692863690460660000008131055403332246660_);fill:#173E7D;" d="
					M1194.5,278c0.3,0,0.7-0.1,1-0.1c0.3,0,0.7,0,1,0.1v-4.3h0.1c0.3,0.5,0.7,1.1,0.9,1.5l1.6,2.8c0.4,0,0.8-0.1,1.2-0.1
					c0.4,0,0.8,0,1.2,0.1l-0.5-0.8c-0.8-1.2-1.6-2.5-2.3-3.7c1.2-0.3,2.1-1.1,2.1-2.4c0-0.9-0.4-1.5-1.2-1.9
					c-0.6-0.3-1.5-0.3-2.1-0.3h-2.8V278z M1196.5,269.6c0.8,0,1.8-0.1,2,1c0.1,0.3,0.1,0.5,0.1,0.7c0,1.4-0.7,2-2.1,1.9V269.6z"/>
			</g>
			<g>
				<defs>
					<rect id="SVGID_00000137823754314463953140000015582278042997775240_" x="1008.1" y="245.7" width="281.6" height="32.6"/>
				</defs>
				<clipPath id="SVGID_00000116209980708884251980000015132409401936599201_">
					<use xlink:href="#SVGID_00000137823754314463953140000015582278042997775240_"  style="overflow:visible;"/>
				</clipPath>
				<path id="path4245" style="clip-path:url(#SVGID_00000116209980708884251980000015132409401936599201_);fill:#173E7D;" d="
					M1203.9,274c2.4,0,4.1-0.5,4.1-2.9c0-1.5-1-2.3-2.8-2.3h-3.2v9.1c0.3,0,0.7-0.1,1-0.1c0.3,0,0.7,0,1,0.1V274z M1203.9,269.6h0.8
					c0.7,0,1.2,0.7,1.2,1.8c0,0.8-0.3,1.6-1.2,1.8c-0.3,0.1-0.6,0.1-0.9,0.1V269.6z"/>
			</g>
			<g>
				<defs>
					<rect id="SVGID_00000023280033690505556090000013267879337545319870_" x="1008.1" y="245.7" width="281.6" height="32.6"/>
				</defs>
				<clipPath id="SVGID_00000073000389231398124160000002559409654106983348_">
					<use xlink:href="#SVGID_00000023280033690505556090000013267879337545319870_"  style="overflow:visible;"/>
				</clipPath>
				<path id="path4246" style="clip-path:url(#SVGID_00000073000389231398124160000002559409654106983348_);fill:#173E7D;" d="
					M1218.2,273.4c0-2.1-1.1-4.7-4.9-4.7c-3.3,0-5.2,2.1-5.2,4.8c0,3,2,4.8,4.9,4.8C1216.2,278.2,1218.2,276,1218.2,273.4
					 M1213.2,269.4c2,0,2.8,2,2.8,3.7c0,2.2-0.9,4.3-2.9,4.3c-2,0-2.8-1.8-2.8-3.6C1210.3,270.8,1211.4,269.4,1213.2,269.4"/>
			</g>
			<g>
				<defs>
					<rect id="SVGID_00000168821263596051833130000004791159903628479119_" x="1008.1" y="245.7" width="281.6" height="32.6"/>
				</defs>
				<clipPath id="SVGID_00000078031181219771530040000003982690361860497301_">
					<use xlink:href="#SVGID_00000168821263596051833130000004791159903628479119_"  style="overflow:visible;"/>
				</clipPath>
				<path id="path4247" style="clip-path:url(#SVGID_00000078031181219771530040000003982690361860497301_);fill:#173E7D;" d="
					M1219,278c0.3,0,0.7-0.1,1-0.1c0.3,0,0.7,0,1,0.1v-4.3h0.1c0.3,0.5,0.7,1.1,0.9,1.5l1.6,2.8c0.4,0,0.8-0.1,1.2-0.1
					c0.4,0,0.8,0,1.2,0.1l-0.5-0.8c-0.8-1.2-1.6-2.5-2.3-3.7c1.2-0.3,2.1-1.1,2.1-2.4c0-0.9-0.4-1.5-1.1-1.9
					c-0.6-0.3-1.5-0.3-2.1-0.3h-2.8V278z M1220.9,269.6c0.8,0,1.8-0.1,2,1c0.1,0.3,0.1,0.5,0.1,0.7c0,1.4-0.7,2-2.1,1.9V269.6z"/>
			</g>
			<g>
				<defs>
					<rect id="SVGID_00000170991258999069289960000011116067141524483458_" x="1008.1" y="245.7" width="281.6" height="32.6"/>
				</defs>
				<clipPath id="SVGID_00000054250246574237020560000004365284898003168647_">
					<use xlink:href="#SVGID_00000170991258999069289960000011116067141524483458_"  style="overflow:visible;"/>
				</clipPath>
				<path id="path4248" style="clip-path:url(#SVGID_00000054250246574237020560000004365284898003168647_);fill:#173E7D;" d="
					M1230.8,275.2c0.4,0.9,0.6,1.8,0.9,2.8c0.4,0,0.8-0.1,1.1-0.1c0.4,0,0.8,0,1.1,0.1l-3.7-9.3c-0.2,0-0.3,0-0.5,0
					c-0.2,0-0.3,0-0.5,0l-3.8,9.2c0.2,0,0.4,0,0.6,0s0.4,0,0.6,0c0.2-0.9,0.6-1.7,0.9-2.8H1230.8z M1228.1,274.4l1.2-3.1l1.2,3.1
					H1228.1z"/>
			</g>
			<g>
				<defs>
					<rect id="SVGID_00000048477970058488962210000003026061023258716562_" x="1008.1" y="245.7" width="281.6" height="32.6"/>
				</defs>
				<clipPath id="SVGID_00000114073051946821041270000004378221581380407947_">
					<use xlink:href="#SVGID_00000048477970058488962210000003026061023258716562_"  style="overflow:visible;"/>
				</clipPath>
				<path id="path4249" style="clip-path:url(#SVGID_00000114073051946821041270000004378221581380407947_);fill:#173E7D;" d="
					M1237.5,278c-0.3,0-0.7-0.1-1-0.1c-0.3,0-0.7,0-1,0.1v-8.2c-0.9,0-1.8,0.1-2.5,0.2c0-0.2,0.1-0.4,0.1-0.6c0-0.2,0-0.4-0.1-0.6
					h6.8c0,0.2-0.1,0.4-0.1,0.6c0,0.2,0,0.4,0.1,0.6c-0.8-0.1-1.6-0.2-2.4-0.2V278z"/>
			</g>
			<g>
				<defs>
					<rect id="SVGID_00000003089958245394077730000007481031334765032609_" x="1008.1" y="245.7" width="281.6" height="32.6"/>
				</defs>
				<clipPath id="SVGID_00000180366570993724811310000015895274459635183515_">
					<use xlink:href="#SVGID_00000003089958245394077730000007481031334765032609_"  style="overflow:visible;"/>
				</clipPath>
				<path id="path4250" style="clip-path:url(#SVGID_00000180366570993724811310000015895274459635183515_);fill:#173E7D;" d="
					M1240.7,268.9c0.3,0,0.7,0.1,1,0.1c0.3,0,0.7,0,1-0.1v9.1c-0.3,0-0.7-0.1-1-0.1c-0.3,0-0.7,0-1,0.1V268.9z"/>
			</g>
			<g>
				<defs>
					<rect id="SVGID_00000181795802350106974260000001755779538104319625_" x="1008.1" y="245.7" width="281.6" height="32.6"/>
				</defs>
				<clipPath id="SVGID_00000020381892380381258920000001174623531090104223_">
					<use xlink:href="#SVGID_00000181795802350106974260000001755779538104319625_"  style="overflow:visible;"/>
				</clipPath>
				<path id="path4251" style="clip-path:url(#SVGID_00000020381892380381258920000001174623531090104223_);fill:#173E7D;" d="
					M1253.8,273.4c0-2.1-1.1-4.7-4.9-4.7c-3.3,0-5.2,2.1-5.2,4.8c0,3,2,4.8,4.9,4.8C1251.8,278.2,1253.8,276,1253.8,273.4
					 M1248.8,269.4c2,0,2.8,2,2.8,3.7c0,2.2-0.9,4.3-2.9,4.3c-2,0-2.8-1.8-2.8-3.6C1245.9,270.8,1247,269.4,1248.8,269.4"/>
			</g>
			<g>
				<defs>
					<rect id="SVGID_00000003067665956743690800000013912000474459762577_" x="1008.1" y="245.7" width="281.6" height="32.6"/>
				</defs>
				<clipPath id="SVGID_00000106828158154119712000000007682894921069082026_">
					<use xlink:href="#SVGID_00000003067665956743690800000013912000474459762577_"  style="overflow:visible;"/>
				</clipPath>
				<path id="path4252" style="clip-path:url(#SVGID_00000106828158154119712000000007682894921069082026_);fill:#173E7D;" d="
					M1254.7,268.9h1.3c1.9,2.1,3.8,4.1,5.7,6.2v-6.2c0.2,0,0.4,0,0.5,0c0.2,0,0.4,0,0.5,0v9.1l-1.1,0c-1.5-1.7-3-3.4-4.5-4.9
					l-1.4-1.5v6.4c-0.2,0-0.4,0-0.5,0c-0.2,0-0.4,0-0.5,0V268.9z"/>
			</g>
			<g>
				<defs>
					<rect id="SVGID_00000074443465693629878980000008464607254163862450_" x="1008.1" y="245.7" width="281.6" height="32.6"/>
				</defs>
				<clipPath id="SVGID_00000020376636052985292400000007004847557251203733_">
					<use xlink:href="#SVGID_00000074443465693629878980000008464607254163862450_"  style="overflow:visible;"/>
				</clipPath>
				<path id="path4253" style="clip-path:url(#SVGID_00000020376636052985292400000007004847557251203733_);fill:#173E7D;" d="
					M1275.4,278c-0.3,0-0.7-0.1-1-0.1c-0.3,0-0.7,0-1,0.1v-8.2c-0.9,0-1.8,0.1-2.5,0.2c0-0.2,0.1-0.4,0.1-0.6c0-0.2,0-0.4-0.1-0.6
					h6.8c0,0.2-0.1,0.4-0.1,0.6c0,0.2,0,0.4,0.1,0.6c-0.8-0.1-1.6-0.2-2.4-0.2V278z"/>
			</g>
			<g>
				<defs>
					<rect id="SVGID_00000093873635224611372420000017365854651514475144_" x="1008.1" y="245.7" width="281.6" height="32.6"/>
				</defs>
				<clipPath id="SVGID_00000072988452280075688480000001881472520660115091_">
					<use xlink:href="#SVGID_00000093873635224611372420000017365854651514475144_"  style="overflow:visible;"/>
				</clipPath>
				<path id="path4254" style="clip-path:url(#SVGID_00000072988452280075688480000001881472520660115091_);fill:#173E7D;" d="
					M1279.1,268.9v9.1h3.7c2.7,0,4.8-1.8,4.8-4.8c0-2.2-1.2-4.2-4-4.3H1279.1z M1281,269.7h1.3c1.9,0,3,1,3,3.5c0,3.1-1.4,4-3.2,4
					h-1.1V269.7z"/>
			</g>
		</g>
	</g>
</g>
</svg>
