<?xml version="1.0" encoding="utf-8"?>
<!-- Generator: Adobe Illustrator 28.0.0, SVG Export Plug-In . SVG Version: 6.00 Build 0)  -->
<svg version="1.1" id="svg1" xmlns:svg="http://www.w3.org/2000/svg"
	 xmlns="http://www.w3.org/2000/svg" xmlns:xlink="http://www.w3.org/1999/xlink" x="0px" y="0px" viewBox="0 0 51.6 39.1"
	 style="enable-background:new 0 0 51.6 39.1;" xml:space="preserve">
<style type="text/css">
	
		.st0{clip-path:url(#SVGID_00000039098450387177713470000004725005327550248066_);fill-rule:evenodd;clip-rule:evenodd;fill:#D72A25;}
	
		.st1{clip-path:url(#SVGID_00000049181934215135303160000012398142392057224621_);fill-rule:evenodd;clip-rule:evenodd;fill:#2F5394;}
	
		.st2{clip-path:url(#SVGID_00000088842577616788046050000001539159876368206263_);fill-rule:evenodd;clip-rule:evenodd;fill:#2F5394;}
	
		.st3{clip-path:url(#SVGID_00000115480053156883888880000011718592606913827984_);fill-rule:evenodd;clip-rule:evenodd;fill:#2F5394;}
	
		.st4{clip-path:url(#SVGID_00000090998542272956216520000006353250196251339965_);fill-rule:evenodd;clip-rule:evenodd;fill:#FFFFFF;}
	
		.st5{clip-path:url(#SVGID_00000005978729988682418220000014967920043081275565_);fill-rule:evenodd;clip-rule:evenodd;fill:#FFFFFF;}
	
		.st6{clip-path:url(#SVGID_00000059994410106163232970000000412176531163363767_);fill-rule:evenodd;clip-rule:evenodd;fill:#FFFFFF;}
	
		.st7{clip-path:url(#SVGID_00000098204302632066442330000008276486361574093978_);fill-rule:evenodd;clip-rule:evenodd;fill:#4C4B52;}
	
		.st8{clip-path:url(#SVGID_00000052783569119310115360000014843417105472064908_);fill-rule:evenodd;clip-rule:evenodd;fill:#4C4B52;}
	
		.st9{clip-path:url(#SVGID_00000088121334482947655640000010606427316353292436_);fill-rule:evenodd;clip-rule:evenodd;fill:#4C4B52;}
	
		.st10{clip-path:url(#SVGID_00000156546434549174166980000010050859328314025144_);fill-rule:evenodd;clip-rule:evenodd;fill:#4C4B52;}
	
		.st11{clip-path:url(#SVGID_00000117674414210079110280000003393292685952999312_);fill-rule:evenodd;clip-rule:evenodd;fill:#4C4B52;}
	
		.st12{clip-path:url(#SVGID_00000150069185059230256420000008341686256788089741_);fill-rule:evenodd;clip-rule:evenodd;fill:#4C4B52;}
	
		.st13{clip-path:url(#SVGID_00000097472198130614663520000005679553521426710180_);fill-rule:evenodd;clip-rule:evenodd;fill:#4C4B52;}
	
		.st14{clip-path:url(#SVGID_00000092434981268303508220000006556376473135206329_);fill-rule:evenodd;clip-rule:evenodd;fill:#4C4B52;}
	
		.st15{clip-path:url(#SVGID_00000177442884891644604510000004909830164848637876_);fill-rule:evenodd;clip-rule:evenodd;fill:#4C4B52;}
	
		.st16{clip-path:url(#SVGID_00000036217498898935097970000018243648788384425091_);fill-rule:evenodd;clip-rule:evenodd;fill:#4C4B52;}
	
		.st17{clip-path:url(#SVGID_00000111879905866999308970000005732717139961215904_);fill-rule:evenodd;clip-rule:evenodd;fill:#4C4B52;}
	
		.st18{clip-path:url(#SVGID_00000068656506625475802490000009135690789585509019_);fill-rule:evenodd;clip-rule:evenodd;fill:#4C4B52;}
	
		.st19{clip-path:url(#SVGID_00000079458420919441565210000007872226842234535866_);fill-rule:evenodd;clip-rule:evenodd;fill:#4C4B52;}
	
		.st20{clip-path:url(#SVGID_00000033342863975949355980000004723244435713748871_);fill-rule:evenodd;clip-rule:evenodd;fill:#4C4B52;}
	
		.st21{clip-path:url(#SVGID_00000114068442046132090460000016483562305891985552_);fill-rule:evenodd;clip-rule:evenodd;fill:#4C4B52;}
	
		.st22{clip-path:url(#SVGID_00000021808685771214635920000008660298191573497744_);fill-rule:evenodd;clip-rule:evenodd;fill:#4C4B52;}
	
		.st23{clip-path:url(#SVGID_00000063596472209951713880000013973289396984050573_);fill-rule:evenodd;clip-rule:evenodd;fill:#4C4B52;}
	
		.st24{clip-path:url(#SVGID_00000056411626806475209920000004267329759659122818_);fill-rule:evenodd;clip-rule:evenodd;fill:#4C4B52;}
	
		.st25{clip-path:url(#SVGID_00000121998913811999002360000006309697489320753037_);fill-rule:evenodd;clip-rule:evenodd;fill:#4C4B52;}
	
		.st26{clip-path:url(#SVGID_00000096773080716372218770000002441231982730860961_);fill-rule:evenodd;clip-rule:evenodd;fill:#4C4B52;}
	
		.st27{clip-path:url(#SVGID_00000044173610667868098120000007239988920810260120_);fill-rule:evenodd;clip-rule:evenodd;fill:#4C4B52;}
	
		.st28{clip-path:url(#SVGID_00000079460358197812333400000007883847982911738501_);fill-rule:evenodd;clip-rule:evenodd;fill:#4C4B52;}
	
		.st29{clip-path:url(#SVGID_00000131354660987100550360000008165070784354551226_);fill-rule:evenodd;clip-rule:evenodd;fill:#4C4B52;}
	
		.st30{clip-path:url(#SVGID_00000034067305681240837420000012530776567855607973_);fill-rule:evenodd;clip-rule:evenodd;fill:#4C4B52;}
	
		.st31{clip-path:url(#SVGID_00000080175604742348417540000017371822460864432048_);fill-rule:evenodd;clip-rule:evenodd;fill:#4C4B52;}
	
		.st32{clip-path:url(#SVGID_00000159467122656810590510000009146658110889812896_);fill-rule:evenodd;clip-rule:evenodd;fill:#4C4B52;}
	
		.st33{clip-path:url(#SVGID_00000134971596697689976570000009126607017325682579_);fill-rule:evenodd;clip-rule:evenodd;fill:#4C4B52;}
	
		.st34{clip-path:url(#SVGID_00000175287505891567597820000013595593911182273964_);fill-rule:evenodd;clip-rule:evenodd;fill:#4C4B52;}
	
		.st35{clip-path:url(#SVGID_00000106147542418652803880000002045371449195506057_);fill-rule:evenodd;clip-rule:evenodd;fill:#4C4B52;}
	
		.st36{clip-path:url(#SVGID_00000080919409326990939370000014633898590387123887_);fill-rule:evenodd;clip-rule:evenodd;fill:#4C4B52;}
	
		.st37{clip-path:url(#SVGID_00000125571256514778504110000009480655635250033795_);fill-rule:evenodd;clip-rule:evenodd;fill:#4C4B52;}
	
		.st38{clip-path:url(#SVGID_00000127007274304744351850000007977974901802180246_);fill-rule:evenodd;clip-rule:evenodd;fill:#4C4B52;}
	
		.st39{clip-path:url(#SVGID_00000111881043343332923400000015402073666986559133_);fill-rule:evenodd;clip-rule:evenodd;fill:#4C4B52;}
	
		.st40{clip-path:url(#SVGID_00000002360856131020980640000015535142661599344001_);fill-rule:evenodd;clip-rule:evenodd;fill:#4C4B52;}
	
		.st41{clip-path:url(#SVGID_00000152242331844490700770000009710862570797300115_);fill-rule:evenodd;clip-rule:evenodd;fill:#4C4B52;}
	
		.st42{clip-path:url(#SVGID_00000108283497663602863690000003555043498602517888_);fill-rule:evenodd;clip-rule:evenodd;fill:#4C4B52;}
	
		.st43{clip-path:url(#SVGID_00000153696732260163878320000011181918777697895046_);fill-rule:evenodd;clip-rule:evenodd;fill:#4C4B52;}
	
		.st44{clip-path:url(#SVGID_00000176010314628774668220000003885274256125568698_);fill-rule:evenodd;clip-rule:evenodd;fill:#4C4B52;}
	
		.st45{clip-path:url(#SVGID_00000128444444364442336280000009455877409071771021_);fill-rule:evenodd;clip-rule:evenodd;fill:#4C4B52;}
	
		.st46{clip-path:url(#SVGID_00000183941469895588523890000009914329408156157584_);fill-rule:evenodd;clip-rule:evenodd;fill:#4C4B52;}
</style>
<g id="layer1" transform="translate(-166.48598,-152.3674)">
	<g>
		<defs>
			<rect id="SVGID_1_" x="-324.3" y="-476.3" width="1207.6" height="858.9"/>
		</defs>
		<clipPath id="SVGID_00000037654692027745888260000002477532676987921588_">
			<use xlink:href="#SVGID_1_"  style="overflow:visible;"/>
		</clipPath>
		
			<path id="path2959" style="clip-path:url(#SVGID_00000037654692027745888260000002477532676987921588_);fill-rule:evenodd;clip-rule:evenodd;fill:#D72A25;" d="
			M178,159.3c0-0.1-0.1-0.1-0.2-0.1c0,0,0,0-0.1,0c0,0,0,0,0,0c0,0,0.1-0.4,0.1-0.5c0-0.1,0.1-0.1,0.2-0.3c0.2-0.2,0.3-0.5,0.3-0.7
			c0-0.2-0.2-0.2-0.5-0.3c-0.4-0.1-0.3,0.2-0.4,0.3s0.2,0.5,0.1,0.7c0,0-0.1,0.1-0.1,0.2c0,0,0,0,0,0s-0.3-0.5-0.3-0.6
			c0-0.1-0.1-0.1-0.5-0.1c-0.5,0-0.2,0.3-0.2,0.3c0.1,0,0.8,0.4,0.8,0.4s0,0,0,0c-0.3,0.2-0.8,0.6-0.8,0.6c-0.6,0.3,0.2,0.4,0.3,0.4
			c0.1,0,0.2,0,0.2-0.1c0.1-0.2,0.5-0.6,0.6-0.6c0.1,0,0.2-0.1,0.1,0c0,0.1,0,0.1,0,0.2c-0.4,0-0.3,0.3-0.2,0.3
			c0.1,0,0.1,0.1,0.2,0.2c0,0.1,0,0.1,0,0.1c-0.1,0-0.2,0-0.2,0c0,0,0,0.1,0,0.2c0,0-0.6-0.1-0.6-0.1c-0.4,0,0,0.3,0.1,0.4
			c0.1,0.1,0.1,0.2,0,0.3c-0.1,0.1,0.2,0.1,0.5,0.2c0.3,0.1,0.3-0.6,0.3-0.6c0-0.1,0.1-0.1,0.1-0.1c0,0,0.1,0.1,0.2,0.3
			c0,0.1-1,1.1-1.2,1.3c-0.2,0.2-0.3,0.3-0.3,0.4c0.1,0.1,0.4,0.2,0.7,0c0.1-0.1,0.2-0.4,0.4-0.6c0.2-0.4,0.4-0.7,0.5-0.7
			c0,0,0,0,0.1-0.1c0,0.1,0.1,0.1,0.1,0.2c-0.3,0.6-0.5,1.2-0.6,1.4c-0.1,0.2,0,0.3,0.2,0.3c0.2,0,0.4-0.5,0.7-0.9
			c0,0,0.1-0.1,0.1-0.1c0.3,0.5,0.6,1,0.7,1.1c0.1,0.2,0.3,0.3,0.4,0c0.1-0.3-0.3-0.8-0.5-1.1c-0.1-0.1-0.2-0.2-0.3-0.4
			c0.2-0.3,0.4-0.5,0.5-0.6c0.1-0.3-0.4-0.1-0.6-0.2c-0.2,0,0.4-0.8,0.6-1c0.1-0.2-0.1-0.3-0.2-0.3c-0.3-0.1-0.5,0.4-0.6,0.6
			c-0.1,0.2-0.1,0-0.1-0.1c0-0.1,0.2-0.5,0.2-0.7c0-0.2-0.1-0.1-0.4-0.1c-0.4-0.1-0.3,0.2-0.2,0.3c0.1,0.1-0.1,0.4-0.1,0.5
			C178.1,159.2,178,159.3,178,159.3 M178.1,159.4C178.1,159.4,178.1,159.4,178.1,159.4c0.1,0.1,0.2,0.2,0.3,0.5
			c0.2-0.2,0.1-0.5,0-0.6C178.3,159.2,178.1,159.3,178.1,159.4 M177.7,158c0-0.1,0.1-0.2,0.2-0.1c0.1,0.1,0.1,0.1,0,0.2
			c0,0.2-0.2,0.1-0.2,0C177.7,158,177.7,158,177.7,158 M178.5,160c0,0,0.5-0.7,0.4-0.5c-0.1,0.2-0.2,0.5-0.3,0.5
			C178.6,160.2,178.5,160.1,178.5,160 M178.7,160.4c0,0,0.2,0,0.3,0c0.1,0.1,0.1,0.1,0,0.2C178.9,160.6,178.8,160.7,178.7,160.4
			 M178,161.6c0,0,0.1-0.3,0.2-0.4c0.1-0.2,0.1-0.4,0.2-0.2c0.1,0.1,0,0.2-0.1,0.4C178.2,161.5,177.9,161.9,178,161.6 M183.3,157.2
			c0,0.1,0.1,0.3,0.2,0.4c0.3-0.1,0.2-0.4,0.2-0.8C183.6,156.3,183.3,157.1,183.3,157.2 M182.3,156.4c-0.1,0-0.2-0.2-0.1-0.5
			c0.2-0.2,0.2-0.1,0.3-0.1c0.2,0,0.3,0,0.3,0.2s0.1,0.7,0.2,0.7c0.1,0,0.1-0.1,0.2-0.2c0-0.1,0.4-0.5,0.5-0.6
			c0.2-0.1,0.4-0.1,0.5,0.1c0.1,0.2-0.1,0.4-0.2,0.5c-0.1,0.1-0.3,0.7-0.1,0.7c0.1,0,0.3,0.1,0.2,0.2c0,0.1-0.1,0.3-0.3,0.4
			c-0.1,0.1-0.3,0.2-0.3,0.2c0,0.1,0.6,1.5,0.7,1.8c0.1,0.3,0.2,0.6-0.2,0.5c-0.3-0.1-0.4-0.4-0.5-0.6c-0.1-0.2-0.4-1.7-0.6-2
			c-0.1,0-0.1,0.1-0.2,0.3c-0.1,0.3-0.1,0.5-0.3,0.6c-0.1,0.1-0.6,0-0.6-0.3c-0.1-0.3-0.1-0.8-0.1-0.9c0-0.1,0.1-0.2,0.3,0
			s0.3,0.6,0.4,0.3c0.1-0.2,0.3-0.5,0.3-0.6C182.8,157.2,182.6,156.5,182.3,156.4 M188,155.3c0,0,0.3-0.1,0.3-0.1c0,0,0.4,0,0.4-0.3
			c0-0.3-0.1-0.7-0.3-0.4c-0.1,0.1-0.8,0.7-1,0.9C187.2,155.7,187.2,155.8,188,155.3 M187.8,156.1c-0.1,0.1-0.5,0.4-0.9,0.6
			c-0.4,0.2,0,0.4,0.3,0.4c0.3-0.1,0.6-0.6,0.7-0.7c0.1-0.1,0.1,0.2,0.1,0.3c0,0.1,0,0.5,0,0.5c0,0.1-0.1,0.2-0.1,0.2
			c0-0.6-0.3,0-0.4,0.1c-0.1,0.1-0.1,0.1-0.1,0.4c0,0.2,0.1,0.3,0.1,0.3c0.1,0,0.2-0.1,0.4-0.3c0,0.4,0.3,0.4,0.4,0.3
			c0.2-0.1,0-0.5,0-0.7c0.1-0.2,0.4-0.5,0.5-0.9c0.1-0.3-0.1,0-0.2,0s-0.2,0.3-0.3,0.3s0.1-0.7,0.2-0.9c0.1-0.2,0-0.2-0.1-0.3
			c-0.3-0.3-0.4-0.1-0.4,0.1C188,156.1,187.8,156.1,187.8,156.1 M188.8,155.6c0,0-0.2-0.7,0.2-0.3c0.3,0.2,0.4,0.4,0.3,0.5
			c0,0.2-0.2,0.4-0.1,0.6c0.1,0.2,0.3,0.4,0.1,0.6c0,0.1,0,0.1,0.1,0c0.1-0.1,0.2,0,0.2-0.3c0-0.2,0-0.9,0-1.1c0-0.1-0.1-0.8-0.1-1
			c0-0.2,0.4-0.2,0.7,0.2c0,0.2-0.2,1.6-0.1,1.4c0.1-0.2,0.2-0.3,0.2-0.4c0-0.1,0.1-0.2,0.1,0c0,0.1,0.3,0.4,0.1,0.6
			c-0.2,0.2-0.4,0.4-0.4,0.6c0,0.2,0,1,0,1.6c0,0.6-0.3,1.1-0.4,0.4c-0.1-0.6,0-1.6-0.1-1.7c-0.2,0.2-0.6,0.5-0.6,0.2
			c0-0.3,0.1-0.4,0.1-0.4c0-0.1,0-0.5-0.1-0.7c-0.1-0.1,0.1-0.5,0-0.5C189,155.9,188.8,155.6,188.8,155.6 M194.1,155.3
			c0,0,0.2-0.3,0.2-0.5c0-0.2,0.2-0.3,0.5,0.2c0,0.1,0,0.2,0.1,0.1c0.1,0,0.1,0.2,0,0.3c-0.1,0.1-0.3,0.1-0.4,0.4
			c-0.1,0.2-0.3,1.1-0.4,1.6c-0.1,0.5-0.3,0.9,0.1,0.8c0.3-0.1,0.9-0.5,0.8-0.7c-0.1-0.2-0.2-0.4-0.2-0.5c0-0.1,0.1-0.1,0.4,0.1
			c0.1,0.1,0.1,0.1,0.2,0c0.1-0.1,0.3-0.3,0.1-0.3c-0.1,0.1-0.2,0.1-0.2,0c0-0.1,0-0.4,0.2-0.6c0.2-0.2,0.1-0.3,0-0.2
			c-0.1,0.1-0.3,0.3-0.5,0.1c-0.2-0.1-0.3-0.2-0.1-0.2s0.8-0.4,1-0.5c0.1-0.1,0.1-0.2,0.1-0.3c0-0.1,0.1-0.3,0.1-0.3
			c0,0,0-0.2,0.3,0c0.2,0.2,0.3,0.2,0.3,0.3c0.1,0.1,0.2,0.2,0.1,0.3c-0.2,0.2-0.4,0.1-0.6,0.5c-0.2,0.3-0.4,0.6-0.2,0.6
			c0.1,0,0.5,0.2,0.3,0.5c-0.3,0.3-0.5,0.4-0.3,0.6c0.2,0.2,0.2,0.4,0.7,0.5c0.3,0,0.7,0,0.4,0.1c-0.3,0.1-1,0.5-1.3,0.2
			c-0.2-0.3-0.2-0.5-0.3-0.4c-0.1,0.1-0.6,0.5-0.9,0.6c-0.2,0.1-0.3,0-0.3-0.1c-0.1,0.1,0,0.3-0.3,0.3c-0.2,0-0.2-0.1-0.3-0.2
			c-0.1-0.1-0.8-0.4-0.4-0.4c0.4,0,0.5,0.1,0.5-0.1c0-0.1,0.2-1.1,0.2-1.1c-0.1,0.1-0.4,0.4-0.6,0.7c-0.2,0.3-0.4,0.3-0.5,0.1
			c-0.2-0.2-0.2-0.2,0.1-0.4c0.2-0.1,0.7-0.6,0.9-0.7c0.1-0.2,0.4-0.4,0.3-0.7c-0.1,0.1-0.1,0-0.2,0c-0.1-0.1-0.3-0.3,0-0.4
			C194,155.4,194.1,155.3,194.1,155.3 M201.1,158.3c0,0.1,0.1,0.8,0.4,1.1c0.1,0.1,0.3,0.2,0.4,0.3c0.1,0.1,0,0.1-0.1,0.1
			c-0.3-0.1-0.9,0-1-0.3c-0.1-0.3,0.1-1.1,0.2-1.3C200.9,158,201.1,157.8,201.1,158.3 M201.6,156c0,0-0.5,0.7-0.9,1.3
			c-0.4,0.1-1.1,0-1.4-0.1c-0.5-0.2-0.2,0.2-0.1,0.5c0.1,0.3,0.2,0.2,0.4,0.2c0.1,0,0.4,0,0.6-0.1c-0.1,0.1-0.2,0.2-0.3,0.3
			c-0.2,0.1-0.6,0.2-0.9,0.2c-0.5,0-0.8-0.1-0.6,0.1c0.4,0.3,0.7,0.4,1.4,0.2c0.4-0.1,0.8-0.5,1.2-0.8c0.2,0,0.8,0,1.2,0
			c0.3,0.1,0.2-0.2,0.1-0.3c-0.2-0.2-0.6-0.1-0.7-0.1c0,0-0.1,0-0.2-0.1c0.1-0.1,0.1-0.1,0.2-0.2c0.4-0.4,0.7-0.6,0.6-0.9
			C202.1,156,202,155.2,201.6,156 M206,157.8c0,0.2-0.3,0.8-0.3,1.1c-0.1,0.2,0.2,0.1,0.3,0c0.2-0.2,0.2,0,0.2,0.2
			c0.1,0.4,0.4,0.1,0.4-0.2c0.1-0.4,0.2-0.3,0.5-0.2c0.3,0.1,0,0.1-0.2,0.3c-0.3,0.2-0.2,0.4,0,0.7c0.4,0.3,0.8-0.2,0.8-0.4
			c0-0.1,0.2-0.1,0.5,0c0.3,0.2,0.2,0.3,0,0.4c-0.1,0.1-0.8,0.2-1,0.2c-0.2,0-1.1-0.2-1.5-0.4c-0.4-0.2-0.1,0.2-0.1,0.3
			c0.1,0.1,0.4,0.2,0.9,0.3c0.5,0.1-0.3,0.3-0.5,0.3s-1.5-0.3-1.9-0.5c-0.7-0.4-0.4,0.2-0.3,0.6c0,0.2,0.6,0.2,1,0.2
			c0.3,0,0.6,0,0.6,0c0.2,0,0.2,0.1,0.1,0.2c-0.1,0.1-0.8,0.8-0.9,0.9c-0.1,0.2-0.3,0.1-0.6-0.2c-0.3-0.4-0.2-0.1-0.1,0
			c0.1,0.1,0.3,0.6,0.4,0.8c0.2,0.2,0.4,0,0.7-0.3c0.3-0.3,1-1.2,1.1-1.2c0.2,0,0.4,0.1,0.1,0.3c-0.2,0.1-0.1,0.2,0.2,0.2
			c0.1,0,0.3,0.1,0.4,0.1c0.3,0,0.1-0.5-0.1-0.7c-0.2-0.2,0.4-0.1,0.6-0.1c0.3,0,0.2-0.2,0.2-0.4c0-0.3,0.6,0,1.1,0.1
			c0.5,0,0.5-0.4,0.4-0.7c-0.1-0.2,0-0.3-0.3-0.3c-0.2,0-0.7-0.2-0.8-0.2c-0.2,0-0.1-0.2,0.1-0.1c0.2,0,0.3-0.1,0.3-0.2
			c0-0.7-0.3-0.4-0.5-0.3c-0.2,0.1-0.3-0.2-0.5-0.3c-0.2-0.1,0,0.3-0.1,0.4c-0.1,0.1-0.4,0.1-0.4,0c-0.1,0,0-0.3,0.1-0.7
			c0-0.6-0.4-0.6-0.3-0.3c0,0.2,0,0.6-0.1,0.8c-0.1,0.2-0.1,0.2-0.1-0.1C206.2,157.3,206,157.8,206,157.8 M207.2,159
			c0.1,0,0.2,0.2,0.1,0.2c-0.1,0.1-0.2,0.2-0.2,0.1C207,159.2,207,159,207.2,159"/>
	</g>
	<g>
		<defs>
			<rect id="SVGID_00000181792387720433966890000016059581437017148833_" x="-324.3" y="-476.3" width="1207.6" height="858.9"/>
		</defs>
		<clipPath id="SVGID_00000096769292812217796770000013719480558766484379_">
			<use xlink:href="#SVGID_00000181792387720433966890000016059581437017148833_"  style="overflow:visible;"/>
		</clipPath>
		
			<path id="path2961" style="clip-path:url(#SVGID_00000096769292812217796770000013719480558766484379_);fill-rule:evenodd;clip-rule:evenodd;fill:#2F5394;" d="
			M183.2,173.8c-0.4,0-1.9,0.8-1.9,0.8s12,0,12.7,0c0.8-0.3,1.4-1.5,1.6-2.3c0.2-1.1-1.7-2-2.2-2.6c-0.8-0.9-2.8-2.1-4.1-3.1
			c-0.7-0.5-0.3-0.9,0.3-1c2.6,0.1,7.4,1,10.1,2.4c0.5,0.3,0.4,0.4,0.1,0.4c-0.3,0.1-2.1,0.1-3.1,0c-1,0-1.7,1.1-1.7,1.1
			s0.8,0,1.7,0l-1.6,5.2h1.9l1.6-5.1c0.5,0,0.9,0,1,0c1-0.9,1.9-1.9,2.1-2.7c0.2-0.7-0.2-1.3-0.5-1.5c-3.8-1.8-8.9-1.4-11.1-0.7
			c-0.9,0.3-1.3,0.7-1.3,0.8c-2.1-0.1-2.5,1.1-1.4,1.8c1.1,0.7,3.6,1.6,4.7,2.1c1.9,1.1,1.1,2.4,0.2,3.4
			C190.8,174.8,183.2,173.8,183.2,173.8 M186.4,169.5l-0.7,2.4h-0.5l0.7-2.4h-1.5l-1.1,3.9h1.5l0.3-1.1h0.5l-0.3,1.1h1.5l1.1-3.9
			H186.4z M188.5,169.5h1.5l-1,3.5h0.6l1-3.5h1.5l-1.1,3.9h-3.6L188.5,169.5z"/>
	</g>
	<g>
		<defs>
			<rect id="SVGID_00000072958388246162037360000008709303127774982274_" x="-324.3" y="-476.3" width="1207.6" height="858.9"/>
		</defs>
		<clipPath id="SVGID_00000128451668366622647100000000726395093301207486_">
			<use xlink:href="#SVGID_00000072958388246162037360000008709303127774982274_"  style="overflow:visible;"/>
		</clipPath>
		
			<path id="path2963" style="clip-path:url(#SVGID_00000128451668366622647100000000726395093301207486_);fill-rule:evenodd;clip-rule:evenodd;fill:#2F5394;" d="
			M192.3,153.1c-13.7,0-24.9,8.5-24.9,18.9c0,10.4,11.2,18.9,24.9,18.9s24.9-8.5,24.9-18.9C217.2,161.5,206,153.1,192.3,153.1
			 M192.3,152.4c14.2,0,25.8,8.8,25.8,19.6c0,10.8-11.6,19.6-25.8,19.6c-14.2,0-25.8-8.8-25.8-19.6
			C166.5,161.2,178.1,152.4,192.3,152.4"/>
	</g>
	<g>
		<defs>
			<rect id="SVGID_00000164480618567138863010000001494388326034942135_" x="-324.3" y="-476.3" width="1207.6" height="858.9"/>
		</defs>
		<clipPath id="SVGID_00000028298224493538820810000012434156683225965987_">
			<use xlink:href="#SVGID_00000164480618567138863010000001494388326034942135_"  style="overflow:visible;"/>
		</clipPath>
		
			<path id="path2965" style="clip-path:url(#SVGID_00000028298224493538820810000012434156683225965987_);fill-rule:evenodd;clip-rule:evenodd;fill:#2F5394;" d="
			M185.6,161.8H199c-2-0.8-4.3-1.3-6.7-1.3C189.9,160.5,187.6,161,185.6,161.8 M198.1,161c0.7,0.2,1.4,0.5,2.1,0.9h0.8
			C200.1,161.5,199.2,161.2,198.1,161 M183.5,161.8h0.8c0.7-0.3,1.4-0.6,2.1-0.9C185.4,161.2,184.5,161.5,183.5,161.8 M184.5,182.2
			h-1c1.2,0.4,1.8,0.6,3.2,0.8C185.7,182.8,185.4,182.6,184.5,182.2 M199.1,182.2h-13.5c2,0.8,4.3,1.3,6.8,1.3
			C194.7,183.5,197,183.1,199.1,182.2 M201,182.2h-1c-0.9,0.4-1,0.6-2,0.8C199.4,182.8,199.9,182.7,201,182.2 M200.9,181.8h1.2
			c4.8-2.1,8-5.7,8-9.7c0-4.1-3.2-7.6-8-9.7h-1.1c3.8,2.2,6.3,5.7,6.3,9.7C207.4,176,204.9,179.6,200.9,181.8 M182.4,181.8h1.2
			c-3.9-2.2-6.5-5.7-6.5-9.8c0-4,2.5-7.5,6.3-9.7h-1.1c-4.8,2.1-8,5.7-8,9.7C174.4,176.1,177.6,179.7,182.4,181.8 M203.5,179.3
			h-22.5c1,1,2.2,1.8,3.5,2.4H200C201.4,181.1,202.5,180.3,203.5,179.3 M178.8,176.3h27c0.7-1.3,1-2.8,1-4.3c0-4.1-2.7-7.7-6.8-9.7
			h-15.5c-4.1,2-6.8,5.7-6.8,9.7C177.8,173.5,178.1,175,178.8,176.3 M192.3,159.9c10.1,0,18.4,5.4,18.4,12.1
			c0,6.7-8.3,12.1-18.4,12.1c-10.1,0-18.4-5.4-18.4-12.1C173.9,165.3,182.2,159.9,192.3,159.9"/>
	</g>
	<g>
		<defs>
			<rect id="SVGID_00000111873723832368856320000015537068231222503598_" x="-324.3" y="-476.3" width="1207.6" height="858.9"/>
		</defs>
		<clipPath id="SVGID_00000075880900444366459780000006904807943696218268_">
			<use xlink:href="#SVGID_00000111873723832368856320000015537068231222503598_"  style="overflow:visible;"/>
		</clipPath>
		
			<path id="path2967" style="clip-path:url(#SVGID_00000075880900444366459780000006904807943696218268_);fill-rule:evenodd;clip-rule:evenodd;fill:#FFFFFF;" d="
			M188.3,178.1C188.3,178.1,188.3,178.1,188.3,178.1c-0.2,0.1-0.3,0.1-0.4,0.1c-0.1,0-0.2,0-0.2,0.1c0,0-0.1,0-0.1,0
			c0,0-0.1,0-0.1,0c0,0,0,0.1,0,0.1c0,0,0,0,0,0c0.2-0.1,0.4-0.1,0.7-0.1c0,0,0,0,0,0c0,0,0,0,0,0.1c0,0.1,0,0.2,0,0.2
			c0,0,0,0-0.1,0c0,0,0,0,0,0c0,0,0,0-0.1,0l-0.2,0c-0.1,0-0.1,0-0.2,0c0,0,0,0,0,0.1c0,0,0.2,0.1,0.4,0.2c0,0,0,0,0,0l0.1,0
			c0,0,0,0,0,0c0,0,0,0,0,0c0,0,0-0.1,0-0.2c0,0,0,0,0-0.1c0,0,0,0,0,0c0-0.2,0-0.2,0-0.3c0,0,0.1,0,0.3,0c0,0,0.1,0,0.2,0
			c0.1,0,0.1,0,0.1,0c0,0,0,0,0-0.1c0,0-0.1-0.1-0.1-0.1c0,0,0,0,0,0c-0.3,0-0.4,0-0.5,0c0,0,0,0,0,0c0,0,0,0,0,0c0,0,0,0,0,0
			c0,0,0,0,0,0l0.2-0.1c0,0,0,0,0,0c0,0,0,0,0,0c0,0,0,0,0,0c-0.1,0-0.1,0-0.3,0c0,0-0.1,0-0.2,0.1l-0.1,0c-0.1,0-0.1,0-0.2,0
			c0,0,0,0,0,0c-0.1,0-0.2,0-0.2,0c0,0,0,0,0,0c0,0,0,0,0,0c0,0,0,0,0.1,0.1c0,0,0,0,0,0c0,0,0,0,0.1,0c0.1-0.1,0.2-0.1,0.4-0.2
			c0,0,0,0,0.1,0c0,0,0.1,0,0.1,0c0,0,0,0,0,0c0,0,0,0.1,0,0.1c0,0-0.1,0-0.1,0C188.3,178,188.2,178,188.3,178.1
			C188.2,178,188.3,178,188.3,178.1L188.3,178.1z M188.3,177.3c0,0,0.1,0,0.2,0c0,0,0.1,0,0.1,0c0,0,0,0,0,0.1c0,0.1,0,0.2-0.1,0.2
			h0c0,0,0,0-0.1,0c-0.2,0-0.4,0.1-0.4,0.1l0,0c0,0,0,0,0,0c0-0.1,0-0.2,0-0.2c0,0,0,0,0,0C188.1,177.4,188.2,177.4,188.3,177.3
			L188.3,177.3z M186.9,178.6c0,0,0.1-0.1,0.2-0.2c0,0,0,0,0,0c0,0,0,0,0,0c0.1,0,0.1-0.1,0.2-0.3c0-0.1,0.1-0.1,0.1-0.2
			c0,0,0,0,0,0c0,0,0-0.1,0-0.1c0,0,0,0,0,0l0.1-0.2c0,0,0,0,0-0.1l0-0.1c0,0,0,0,0-0.1c0,0,0,0,0-0.1c0-0.1,0-0.2,0-0.3
			c0,0,0,0,0,0c0,0,0,0,0,0c0,0,0,0,0.1,0c0,0,0.1,0,0.3,0c0.1,0,0.2,0,0.3-0.1c0.1,0,0.1,0,0.2,0c0,0,0,0,0,0c0,0,0,0,0,0
			c0,0,0,0,0,0c0,0,0,0.1,0,0.1c0,0,0,0,0,0c-0.1,0-0.3,0-0.4,0.1c-0.1,0-0.2,0-0.3,0c-0.1,0-0.1,0-0.1,0c0,0,0,0,0,0
			c0,0,0,0.1,0,0.1c0,0,0,0,0,0c0.3-0.1,0.4-0.1,0.5-0.1c0.2,0,0.3,0,0.4,0c0.1,0,0.1,0.1,0.1,0.1c-0.1,0.1-0.1,0.2-0.2,0.3
			c0,0,0,0,0,0c0,0,0,0.1,0,0.1c0,0,0,0-0.1,0c0,0,0,0-0.1,0c-0.1,0-0.2,0-0.3,0c-0.2,0-0.3,0.1-0.3,0.1c0,0-0.1-0.1-0.2-0.3
			c0,0,0,0,0,0c0,0,0,0,0,0c0,0,0,0,0,0.1c0,0,0,0,0,0c0,0,0,0,0,0c0,0,0,0.1-0.1,0.1c0,0,0,0,0,0.1c-0.1,0.1-0.1,0.1-0.1,0.1
			c-0.1,0.1-0.1,0.2-0.1,0.2c0,0,0,0.1,0,0.1c0,0,0,0-0.1,0.1c0,0,0,0,0,0l-0.2,0.1C187,178.6,187,178.6,186.9,178.6
			C187,178.6,186.9,178.6,186.9,178.6 M188.2,177.6c0.1,0,0.2,0,0.2-0.1c0,0,0,0,0-0.1c0,0,0-0.1-0.1-0.1c0,0-0.1,0-0.2,0.1
			c0,0,0,0,0,0c0,0,0,0,0,0c0,0,0,0,0,0C188.1,177.5,188.1,177.5,188.2,177.6L188.2,177.6C188.2,177.6,188.2,177.6,188.2,177.6
			 M186,178.2c0,0-0.1,0-0.1,0c-0.1,0-0.1,0-0.1,0c0,0,0.1,0.1,0.2,0.2c0,0,0.1,0,0.1,0.1c0.1,0,0.1,0,0.1,0c0,0,0,0,0,0
			c0-0.1,0-0.1,0-0.2c0,0,0,0,0,0c0,0-0.1,0-0.1,0C186.1,178.2,186.1,178.2,186,178.2 M185.6,177.7
			C185.6,177.7,185.6,177.7,185.6,177.7C185.6,177.6,185.6,177.6,185.6,177.7c0-0.1,0.1-0.1,0.1-0.1c0,0,0,0,0,0c0,0,0,0,0,0.1
			c0,0.1,0,0.2-0.1,0.2c0,0,0,0,0,0c0,0,0,0,0,0C185.6,177.8,185.5,177.8,185.6,177.7C185.5,177.8,185.5,177.7,185.6,177.7
			C185.6,177.7,185.6,177.7,185.6,177.7 M185.3,177.6C185.3,177.6,185.3,177.6,185.3,177.6c0.1,0,0.1,0,0.1,0c0,0.1,0,0.1,0,0.1
			c0,0,0,0-0.1,0C185.3,177.8,185.3,177.8,185.3,177.6L185.3,177.6z M185.1,177.7C185.1,177.7,185.1,177.7,185.1,177.7
			c0.1,0.1,0.1,0.1,0.1,0.1c0,0,0,0,0,0c0,0,0,0,0,0c0,0,0,0-0.1,0C185,177.8,185,177.8,185.1,177.7
			C185,177.7,185,177.7,185.1,177.7C185.1,177.7,185.1,177.7,185.1,177.7 M185.9,177.3C185.9,177.3,185.9,177.3,185.9,177.3l0-0.1
			c0,0,0,0,0-0.1c0,0-0.1-0.1-0.1-0.1c0,0,0,0-0.1,0c0,0,0,0,0,0l0,0c-0.1,0-0.1,0-0.2,0c0,0,0,0,0,0c0,0,0,0,0,0l0-0.2
			c0,0,0-0.1,0-0.1c0,0,0,0,0,0c0,0-0.1,0-0.1,0c0,0,0,0-0.1,0c0,0,0,0,0,0.1c0,0,0,0.1,0,0.1c0,0,0,0.1,0,0.1l0,0.1
			c0,0-0.1,0-0.1,0c0,0-0.1,0-0.2,0.1c0,0,0,0,0,0l0,0c0,0,0,0,0,0.1c0,0,0,0,0,0c0,0,0,0,0,0.1c0,0,0,0,0,0c0,0,0,0,0,0
			c0.1,0,0.2,0,0.3,0c0,0,0,0,0,0c0,0,0,0,0,0.1c-0.1,0-0.2,0.1-0.3,0.1c-0.1,0-0.1,0-0.1,0.1c0,0,0,0.1,0.1,0.3c0,0,0,0,0.1,0.1
			c0,0,0.1,0,0.1,0c0,0,0.1,0,0.1,0c0.2-0.1,0.3-0.1,0.4,0c0.1,0,0.1,0.1,0.2,0c0,0,0,0,0,0c0,0,0-0.1,0.1-0.1c0,0,0-0.1,0.1-0.1
			c0,0,0-0.1,0.1-0.2c0,0,0,0,0,0c0,0,0,0-0.1-0.1c-0.1-0.1-0.3-0.1-0.5-0.1c0,0,0,0-0.1,0c0,0,0,0,0,0c0,0,0,0,0,0c0,0,0,0,0.1,0
			c0.1,0,0.1,0,0.1,0H185.9z M185.3,178.3C185.3,178.3,185.3,178.3,185.3,178.3c0,0,0.1,0,0.2,0c0,0,0,0,0,0c0,0,0,0,0,0
			c0,0-0.1-0.1-0.1-0.1L185.3,178.3C185.3,178.2,185.3,178.2,185.3,178.3C185.3,178.2,185.3,178.2,185.3,178.3 M185.5,178.4
			C185.4,178.5,185.4,178.5,185.5,178.4L185.5,178.4c-0.1,0-0.1,0-0.1,0c0,0-0.1-0.1-0.1-0.2c0,0,0-0.1,0-0.1c0,0,0,0,0,0
			c0,0,0,0,0,0.1c0,0.1,0,0.2,0,0.2c0,0.1,0.2,0.1,0.4,0.1c0.1,0,0.1,0,0.1,0c0,0,0,0,0-0.1c0,0,0-0.1-0.1-0.2c0,0,0,0,0,0
			c0,0,0,0-0.1,0.1C185.5,178.4,185.5,178.4,185.5,178.4 M185.9,178.8c-0.1,0-0.1,0-0.2,0c0,0,0,0,0,0c-0.2,0-0.3,0-0.3,0
			c-0.1,0-0.1,0-0.2,0c0,0,0,0,0,0c-0.1,0-0.1-0.1-0.1-0.2c0,0,0-0.1,0-0.1c0-0.1,0-0.1,0-0.1c0,0,0,0-0.1,0.1c0,0,0,0,0,0
			c0,0,0,0.1-0.1,0.1c0,0,0,0.1,0,0.1c0,0,0,0,0,0c0,0-0.1,0-0.1,0c0,0-0.1,0-0.1-0.1c0,0,0,0,0,0c0,0,0,0,0.1-0.1
			c0,0,0.1-0.1,0.1-0.1c0,0,0,0,0.1,0c0,0,0.1,0,0.1-0.1c0,0,0-0.1-0.1-0.1c0,0,0,0,0,0c0,0,0.1,0,0.1,0c0.1,0,0.1,0,0.2,0
			c0,0,0,0,0,0c0.1,0,0.2,0,0.3,0c0.1,0,0.1,0.1,0.2,0.1c0,0,0,0,0,0c0,0,0,0,0,0c0,0,0,0,0,0c0,0,0,0,0,0c0,0,0,0,0.1,0.1
			c0.1,0.1,0.1,0.1,0.1,0.2c0,0,0,0,0.1,0.1c0,0,0,0,0,0.1c0,0.1,0.1,0.1,0.1,0.2c0,0,0,0,0,0C186,178.8,186,178.8,185.9,178.8
			C185.9,178.8,185.9,178.8,185.9,178.8 M184.7,177.1C184.8,177.1,184.8,177.2,184.7,177.1c0.1,0.1,0,0.1-0.1,0.2c0,0,0,0,0,0
			c-0.1,0-0.1,0.1-0.1,0.1c-0.1,0.1-0.2,0.1-0.2,0.1c0,0,0,0,0,0c0,0,0,0,0,0c0,0,0-0.1,0-0.1c0,0,0-0.1,0.1-0.1
			c0-0.1,0.1-0.1,0.1-0.1c0,0,0,0,0-0.1c0,0,0,0,0.1,0S184.7,177.1,184.7,177.1 M184.6,178.4c0-0.1,0-0.2,0-0.2c0-0.1,0-0.1,0-0.2
			c0,0,0,0-0.1,0c-0.1,0-0.1-0.1-0.1-0.1c0,0,0,0,0,0c0,0,0,0,0.1-0.1c0,0,0,0,0,0c0,0,0,0,0,0c0.1,0,0.1-0.1,0.1-0.1
			c0,0,0,0-0.1-0.1c0,0,0,0-0.1,0c0,0-0.1,0-0.1,0.1c-0.1,0.1-0.1,0.2-0.1,0.2c0,0,0,0-0.1,0.1c0,0-0.1,0.1-0.1,0.1c0,0,0,0,0,0
			c-0.2,0.2-0.3,0.3-0.3,0.3c0,0,0,0,0,0c0,0,0,0,0,0c0.1,0,0.2-0.1,0.3-0.1c0,0,0,0,0,0c0,0,0,0,0,0c0,0,0,0,0,0c0,0.1,0,0.1,0,0.1
			c0,0,0,0.2,0,0.4c0,0,0,0,0,0.1c0,0,0,0,0.1,0c0,0,0.1,0,0.1-0.1C184.5,178.5,184.6,178.4,184.6,178.4 M182.2,178
			C182.2,178,182.2,178,182.2,178c0,0,0,0.1,0,0.1c0,0,0,0,0,0c0,0-0.1,0-0.2,0c0,0,0,0,0,0c0,0,0,0,0,0
			C182.1,178.1,182.2,178,182.2,178C182.2,178,182.2,178,182.2,178L182.2,178z M182.2,177.7c0,0.1,0,0.1-0.1,0.1c0,0,0,0,0,0
			l-0.1,0.1c0,0-0.1,0-0.1,0c0,0,0,0,0,0s0,0,0,0c0,0,0,0,0-0.1c0,0,0-0.1,0.1-0.1C182.1,177.7,182.2,177.7,182.2,177.7
			C182.2,177.7,182.2,177.7,182.2,177.7c0-0.1-0.1-0.1-0.1-0.1c0,0-0.1-0.1-0.1-0.1c0,0,0-0.1,0-0.1c0,0,0-0.1,0-0.1c0,0,0,0,0.1,0
			c0,0,0,0,0.1,0c0,0,0,0.1,0,0.1c0,0,0,0,0,0C182.2,177.5,182.2,177.5,182.2,177.7 M183.4,177.5c0-0.2,0-0.3,0.1-0.4c0,0,0,0,0,0
			c0,0,0,0,0,0c-0.2,0-0.3-0.1-0.3,0c-0.1,0-0.1,0-0.2,0c-0.1,0-0.2,0-0.2,0c0,0,0,0,0,0c0,0,0,0,0,0c0,0.2,0,0.3,0,0.5
			c0,0.1,0,0.2,0,0.2c0,0,0,0,0,0.1c0,0.1,0,0.2-0.1,0.3c0,0,0,0.1-0.1,0.1c0,0,0,0,0,0h0v0l0,0c0,0,0,0,0,0c0-0.1,0-0.2,0-0.3
			c0-0.1,0-0.2,0-0.3c0-0.2,0-0.3,0-0.3c0,0,0-0.1,0-0.1c0-0.1,0.1-0.1,0-0.1c0,0-0.1-0.1-0.2-0.1c-0.2,0-0.4,0.1-0.5,0.1
			c-0.1,0-0.1,0-0.1,0.1c0,0.4,0,0.6,0,0.8c0,0,0,0.1-0.1,0.1c0,0-0.1,0-0.1,0c-0.1,0-0.1,0-0.1,0.1c0,0,0,0,0.1,0.1
			c0.1,0,0.1,0.1,0.1,0.1l0.1-0.1c0,0,0,0,0.1-0.1c0,0,0.1,0,0.1,0c0,0,0,0,0.1,0.1c0.1,0.1,0.2,0.2,0.3,0.2c0,0,0,0,0,0
			c0,0,0,0.1-0.1,0.1c0,0,0,0,0,0c0,0,0,0,0,0c0,0,0,0,0,0.1c0,0,0,0,0,0c0.1,0,0.2,0,0.3-0.1c0,0,0,0,0-0.1c0,0,0.1-0.1,0.2-0.4
			c0,0,0,0,0-0.1c0,0,0,0,0,0c0,0,0.1-0.1,0.2-0.1c0,0,0,0,0,0c0,0,0,0,0,0c0.1,0,0.1,0,0.1,0c0,0,0-0.1,0-0.1c0,0,0-0.1,0-0.1
			c0,0,0,0,0,0c-0.1,0-0.2,0-0.2,0c0,0,0,0,0,0c0-0.1,0-0.1,0.1-0.1c0.1-0.1,0.1-0.1,0.2-0.1c0,0,0,0,0,0c0,0,0-0.1-0.1-0.1
			c0,0-0.1,0-0.1,0c0,0,0,0,0,0l0-0.1c0,0,0-0.1,0.1-0.1c0,0,0.1,0,0.1,0c0,0,0,0,0.1,0c0,0,0,0.1,0,0.2v0c0,0.4,0,0.7,0,0.8
			c0,0.1,0,0.2,0,0.3c0,0,0,0.1,0,0.1c0,0-0.1,0-0.3,0c-0.1,0-0.1,0-0.1,0c0,0,0,0,0,0c0,0,0.1,0.1,0.3,0.2c0.1,0,0.1,0,0.2,0.1
			c0,0,0.1,0,0.1,0c0,0,0,0,0,0c0,0,0,0,0,0c0,0,0-0.1,0-0.1c0-0.2,0-0.5,0-0.8c0,0,0-0.1,0-0.2
			C183.4,177.6,183.4,177.6,183.4,177.5"/>
	</g>
	<g>
		<defs>
			<rect id="SVGID_00000062190495424697472910000002203225878205085613_" x="-324.3" y="-476.3" width="1207.6" height="858.9"/>
		</defs>
		<clipPath id="SVGID_00000156549012731669238830000010986127946648738725_">
			<use xlink:href="#SVGID_00000062190495424697472910000002203225878205085613_"  style="overflow:visible;"/>
		</clipPath>
		
			<path id="path2969" style="clip-path:url(#SVGID_00000156549012731669238830000010986127946648738725_);fill-rule:evenodd;clip-rule:evenodd;fill:#FFFFFF;" d="
			M199.6,177.8l0-0.2c0,0,0,0,0,0c0,0,0-0.1,0.1-0.1c0,0,0,0,0,0c0.1,0,0.2,0,0.2,0.1c0,0,0,0,0,0c0,0.1-0.1,0.2-0.1,0.2
			c0,0.1,0,0.1-0.1,0.2c0,0,0,0-0.1,0c0,0,0,0,0,0C199.7,177.9,199.6,177.9,199.6,177.8 M199.6,178.4c0,0,0.1,0.1,0.2,0.2
			c0,0,0.1,0,0.2,0.1c0,0,0,0,0,0c0.2,0.1,0.3,0.1,0.3,0.1c0,0,0.1,0,0.1-0.1c-0.1-0.5-0.1-0.8-0.1-0.9c0-0.5,0-0.8,0-0.8
			c0,0,0,0,0,0c0,0,0,0,0,0c0,0,0,0-0.1-0.1c-0.1,0-0.1,0-0.1,0c0,0,0,0,0,0c0,0,0,0,0,0.1l0,0.7c0,0,0,0,0,0.1c0,0.1,0,0.1,0,0.3
			c0,0.4,0,0.6,0,0.6c0,0-0.1,0-0.1,0C199.8,178.5,199.7,178.5,199.6,178.4C199.6,178.5,199.6,178.4,199.6,178.4 M199.2,177.8
			C199.2,177.8,199.2,177.9,199.2,177.8c0,0.1,0,0.2,0,0.2c0,0,0,0-0.1,0s0,0-0.1,0c0,0,0,0,0,0c0,0-0.1,0-0.1,0c0,0,0,0,0,0
			c0,0,0,0,0,0c0,0,0.1-0.1,0.2-0.1C199.1,177.8,199.1,177.8,199.2,177.8C199.2,177.8,199.2,177.8,199.2,177.8 M198.8,177.5
			c-0.2,0.2-0.3,0.4-0.5,0.5c0,0,0,0,0,0c0,0,0,0,0,0.1c0,0,0,0,0,0.1c0,0,0,0,0,0c0,0,0,0,0,0c0,0,0,0,0,0c0,0,0,0,0,0c0,0,0,0,0,0
			c0,0,0.1,0,0.1,0c0,0,0.1,0,0.1-0.1c0,0,0,0,0,0c0,0,0,0,0,0c0,0,0,0,0.1-0.1l0,0c0,0,0,0,0,0l0.1,0c0,0,0,0,0,0
			c0,0.3-0.1,0.5-0.1,0.5c0,0.1,0.1,0.2,0.2,0.2c0,0,0.2,0,0.4,0c0,0,0,0,0,0c0,0,0.1,0,0.1,0c0,0,0,0,0-0.1c0-0.1,0-0.1,0-0.2
			l-0.1-0.1c0,0,0,0,0,0c0,0-0.1,0-0.1,0.1c0,0,0,0.1,0,0.1c0,0,0,0-0.1,0.1c-0.1,0-0.1,0-0.1,0c0,0-0.1,0-0.1,0c0,0,0-0.1,0-0.2
			c0-0.1,0-0.1,0-0.1c0,0,0.1,0,0.2,0c0.1,0,0.1,0,0.2-0.1c0,0,0,0,0,0l0-0.1c0,0,0,0,0-0.1c0,0,0,0,0,0c0,0,0,0,0,0c0,0,0,0,0-0.1
			c0,0,0,0,0,0c-0.1-0.1-0.2-0.1-0.4,0c-0.1,0-0.1,0-0.1,0c-0.1,0-0.1,0.1-0.1,0.1c0,0,0,0,0,0c0,0,0-0.1,0.1-0.2c0,0,0-0.1,0.1-0.1
			c0,0,0-0.1,0.1-0.1c0,0,0.1,0,0.1,0c0,0,0.1,0,0.1,0.1c0,0,0.1,0.1,0.1,0.1c0,0,0.1,0,0.1,0c0.1,0,0.1-0.1,0.1-0.1
			c0,0,0-0.1-0.1-0.1c-0.1,0-0.1,0-0.1,0c0,0-0.1,0-0.1,0c0.1-0.1,0.1-0.1,0.1-0.1c0,0,0,0,0-0.1c0,0,0,0,0,0c0,0,0-0.1-0.1-0.1
			c0,0-0.1,0.1-0.2,0.2c0,0,0,0,0,0L198.8,177.5z M196.4,177.5L196.4,177.5C196.4,177.4,196.4,177.4,196.4,177.5
			C196.4,177.4,196.4,177.4,196.4,177.5c0.1-0.1,0.2-0.1,0.2-0.2c0,0,0-0.1,0-0.1c0,0,0,0,0,0c0,0,0,0,0,0c0,0-0.1,0-0.1,0
			c0,0,0,0,0,0c0,0,0,0,0-0.1c0,0,0.1-0.1,0.1-0.1c0,0,0.1,0,0.1,0c0,0,0,0.2,0,0.4c0,0,0,0,0,0c0,0,0,0,0,0c0,0,0,0,0-0.1
			C196.6,177.4,196.5,177.4,196.4,177.5 M196.5,178.2C196.5,178.2,196.5,178.2,196.5,178.2c0,0-0.1,0-0.2-0.1c0,0,0,0,0-0.1
			c0,0,0-0.1,0-0.1c0,0,0,0,0.1,0c0,0,0.1,0,0.1,0.1L196.5,178.2z M195.8,178.4l-0.2,0.1c-0.1,0-0.1,0-0.1,0.1c0,0,0,0,0.1,0
			c0.1,0,0.2,0,0.3-0.1c0,0,0,0,0,0c0,0,0.1,0,0.1-0.1c0,0,0-0.1,0.1-0.1c0,0,0.2,0,0.4,0.1c0.1,0.1,0.2,0.1,0.3,0.1
			c0.1,0,0.2,0.1,0.2,0.1c0,0,0,0,0,0c0,0,0,0,0,0c0,0,0,0,0,0c0,0,0,0.1,0,0.1c0,0,0,0,0.1,0c0.1,0,0.2,0,0.2,0c0,0,0.1,0,0.2,0
			c0.1,0,0.2,0,0.2,0c0.1,0,0.1,0,0.2,0c0,0,0,0,0,0c0,0,0,0-0.1,0c-0.1,0-0.4-0.1-0.8-0.2c0,0-0.1-0.1-0.4-0.2c0,0,0,0,0-0.1
			c0,0,0,0,0,0c0,0,0-0.1,0.1-0.1c0.1,0,0.2-0.1,0.3-0.1c0,0,0,0,0,0c0,0,0,0,0,0c0,0,0,0,0,0c0,0,0,0,0,0c0,0-0.1,0-0.2,0
			c0,0,0,0-0.1,0c0,0,0,0,0,0c0,0,0,0,0,0c0,0,0,0,0.1,0c0,0,0,0,0,0c0.3,0,0.4,0,0.5,0c0,0,0,0,0,0c0,0,0,0,0,0c0,0,0-0.1,0-0.1
			c0,0,0,0-0.1,0l-0.2,0c0,0,0,0,0,0c0,0,0-0.2,0.1-0.5c0,0,0-0.1,0-0.1c0,0-0.1,0-0.2-0.1c-0.2,0-0.4,0-0.7,0.1c0,0,0,0-0.1,0
			c0,0,0,0,0,0c0,0.1,0,0.2,0.1,0.5c0,0,0,0.1,0,0.1c0,0,0,0.1,0.1,0.1c0.2-0.1,0.3-0.1,0.3-0.1c0,0,0.1,0,0.1,0c0,0,0.1,0,0.1,0
			c0,0-0.1,0-0.2,0c-0.2,0-0.6,0.1-1,0.2c0,0,0,0,0,0.1c0,0,0,0,0,0c0,0,0.1,0,0.1,0c0.1,0,0.2-0.1,0.4-0.1c0,0,0,0,0,0c0,0,0,0,0,0
			c0,0,0,0.1-0.1,0.2C196,178.3,195.9,178.3,195.8,178.4C195.8,178.4,195.8,178.4,195.8,178.4 M194.7,177.2c0,0,0.1,0,0.1,0
			c0,0,0,0,0,0c0,0,0-0.1,0-0.1c0,0-0.1-0.1-0.2-0.1c0,0,0,0-0.1-0.1c0,0,0,0,0,0c0,0,0,0,0,0c0,0,0,0.1,0,0.2c0,0,0,0,0.1,0
			c0,0,0,0,0,0c0,0,0,0,0,0C194.6,177.2,194.6,177.2,194.7,177.2C194.6,177.2,194.7,177.2,194.7,177.2 M193.7,177.9L193.7,177.9
			C193.7,178,193.7,178,193.7,177.9C193.6,178,193.6,178,193.7,177.9c-0.2,0.1-0.3,0.1-0.3,0.1c0,0,0-0.1,0-0.1c0-0.1,0-0.1,0-0.1
			c0,0,0,0,0,0c0,0,0,0,0,0c0,0,0,0,0,0c0,0,0,0,0,0C193.5,177.8,193.6,177.9,193.7,177.9C193.6,177.9,193.6,177.9,193.7,177.9
			L193.7,177.9z M193.2,177.5L193.2,177.5C193.2,177.5,193.2,177.5,193.2,177.5l0.2-0.1c0.1,0,0.2,0,0.2,0c0,0,0.1,0,0.1,0
			c0.1,0,0.1,0,0.1,0c0-0.2,0-0.3,0-0.3c0,0,0-0.1,0-0.1c0-0.1,0-0.2,0-0.2c0,0,0,0,0.1,0c0,0,0,0,0,0h0l0,0c0.1,0,0.1,0,0.1,0.1v0
			c0,0,0,0,0,0c0,0,0,0,0,0c0,0,0,0.2,0,0.4c0,0,0,0,0,0l0.2-0.1c0,0,0,0,0,0c0.1,0.1,0.1,0.2,0.1,0.2c0,0,0,0,0,0c0,0,0,0-0.1,0
			c0,0,0,0,0,0c-0.1,0-0.2,0.1-0.2,0.1c0,0,0,0,0,0c0,0,0,0,0,0.1c0,0.1,0,0.1,0,0.2c0,0,0,0,0.1,0c0,0,0,0,0.1,0c0,0,0,0,0,0
			c0.2-0.1,0.2-0.2,0.3-0.2c0,0,0,0,0,0c0,0,0,0,0.1,0c0,0,0.1,0,0.1,0.1c0,0,0,0.1,0,0.1c-0.1,0-0.1,0-0.1,0c0,0,0,0-0.1,0
			c-0.2,0.1-0.3,0.2-0.3,0.2c0.2,0.1,0.3,0.3,0.5,0.4c0,0,0,0,0,0l0.3,0.1c0,0,0,0,0,0h0c0.1,0,0.2,0.1,0.2,0.1c0,0,0,0,0,0
			c0,0-0.1,0-0.2,0c-0.2,0-0.4,0-0.4,0c-0.1,0-0.2,0-0.2-0.1c0-0.1-0.1-0.1-0.1-0.1l-0.1-0.1c0,0,0,0,0,0c-0.1-0.1-0.2-0.1-0.2-0.1
			c0,0,0,0,0,0l0,0.3c0,0.1,0,0.2,0,0.2c0,0,0,0.1,0,0.1c0,0,0,0.1,0,0.1c0,0,0,0,0,0c0,0-0.1,0-0.1,0c0,0-0.1,0-0.1,0
			c-0.2-0.1-0.3-0.1-0.4-0.2c0,0,0,0,0,0c0,0-0.1,0-0.1-0.1v0c0,0,0,0,0.1,0c0.1,0,0.2,0,0.2,0h0c0.1,0,0.1,0,0.2,0c0,0,0,0,0,0
			c0,0,0-0.2,0-0.4c0-0.1,0-0.2,0-0.2c0,0,0-0.1,0-0.3l0,0c0,0-0.1,0-0.1,0c-0.2,0-0.3,0-0.3,0.1c0,0-0.1,0-0.1,0c0,0,0,0,0,0
			c0,0,0,0,0,0C193.2,177.6,193.2,177.5,193.2,177.5 M193.6,178.1c0,0-0.1,0-0.2,0.1c0,0,0,0,0,0c-0.1,0-0.2,0.1-0.3,0.1
			c-0.1,0-0.1,0.1-0.1,0.1c0,0,0,0.1,0.1,0.1c0,0,0,0,0.1,0c0,0,0,0,0.1-0.1l0.2-0.2c0.2-0.2,0.3-0.3,0.3-0.3c0,0,0,0,0,0
			c0,0,0,0,0,0C193.7,178,193.7,178,193.6,178.1 M190.6,176.9c0,0-0.1,0-0.1,0c0,0,0,0,0,0c0,0,0,0.1,0.1,0.1c0,0,0.1,0.1,0.1,0.1
			c0,0,0,0,0,0c0-0.1,0.1-0.1,0.1-0.2c0,0,0,0,0-0.1c0,0,0,0,0,0C190.7,176.8,190.7,176.8,190.6,176.9
			C190.6,176.9,190.6,176.9,190.6,176.9 M190.2,177.1c-0.1-0.1-0.1-0.1-0.1-0.1c0,0-0.1,0-0.1,0c0,0,0,0.1,0,0.2c0,0,0,0,0.1,0
			c0.1,0,0.1,0,0.1,0c0.1,0,0.1,0,0.1-0.1C190.4,177.2,190.3,177.2,190.2,177.1 M190.2,178.1c0.1,0,0.3-0.1,0.4-0.1c0,0,0,0,0,0
			l-0.1-0.1c0,0,0,0,0,0c0.1,0,0.1,0,0.2-0.1c0,0,0.1-0.1,0.1-0.1c0,0,0,0,0,0c0,0-0.1,0-0.1,0.1c0,0-0.1,0.1-0.1,0.1
			c-0.1,0-0.2,0-0.2,0.1c-0.1,0.1-0.1,0.1-0.1,0.1c0,0,0,0,0,0c-0.1,0-0.1-0.1-0.1-0.1c0,0,0,0,0,0c0,0,0,0,0,0
			c0.4-0.1,0.6-0.2,0.7-0.2c0,0,0.1,0,0.3,0.1c0,0,0.1,0,0.1-0.1c0,0,0.1-0.1,0.1-0.1c0,0,0-0.1-0.1-0.1c-0.1,0-0.1,0-0.1,0
			c0,0,0,0,0,0c-0.2,0-0.4,0.1-0.5,0.1c-0.1,0-0.2,0.1-0.4,0.1c-0.1,0-0.2,0-0.3,0.1c0,0,0,0,0,0c0,0,0,0,0-0.1v0c0,0,0,0,0.1,0
			c0.2-0.1,0.3-0.1,0.4-0.2c0.1,0,0.2-0.1,0.2-0.1c0.1-0.1,0.2-0.2,0.3-0.4c0-0.1,0.1-0.1,0.1-0.1h0c0.1,0,0.1,0.1,0.2,0.2
			c0,0,0,0-0.1,0.1c0,0-0.1,0-0.1,0.1c-0.1,0.1-0.1,0.1-0.1,0.1c0,0,0,0,0,0c0.2,0,0.3,0,0.3,0c0,0,0,0,0,0c0.3,0.2,0.4,0.3,0.4,0.3
			c0,0,0,0,0,0l-0.1,0c-0.1,0-0.3,0-0.4,0c0,0-0.1,0.1-0.1,0.1c0,0-0.1,0-0.1,0c0,0-0.1,0-0.1,0c0,0,0,0,0,0.1c0,0,0,0,0,0
			c0.3,0,0.4,0,0.5,0c0,0,0.1,0,0.1,0.1c0,0,0,0,0,0.1c0,0,0,0.1,0,0.1c0,0,0,0.1,0,0.1c0,0-0.1,0-0.2,0c-0.2,0-0.2,0-0.2,0
			c-0.1,0-0.1,0-0.2,0c0,0,0,0.1,0,0.3c0,0.2-0.1,0.3-0.1,0.4c0,0,0,0,0,0h0c-0.1,0-0.3-0.1-0.5-0.2c-0.1,0-0.1-0.1-0.1-0.1
			c0,0,0,0,0,0c0.1,0,0.1,0,0.2,0.1c0,0,0,0,0,0c0.1,0,0.1,0,0.2,0c0,0,0,0,0,0c0,0,0-0.1,0-0.1v-0.2c0,0,0,0,0,0h0
			c-0.4,0.1-0.6,0.1-0.7,0.2c-0.1-0.1-0.1-0.1-0.1-0.1C189.9,178.2,190,178.2,190.2,178.1 M189.6,177.8c0,0,0,0.1,0.1,0.1
			c0.1,0,0.1,0,0.1,0c0,0,0.1,0,0.1,0c0,0,0,0,0,0c0-0.1,0-0.1,0-0.2c0,0,0,0,0,0c-0.1,0-0.1,0-0.2,0.1
			C189.6,177.7,189.6,177.8,189.6,177.8L189.6,177.8z"/>
	</g>
	<g>
		<defs>
			<rect id="SVGID_00000090271558595991386050000009106937562431406513_" x="-324.3" y="-476.3" width="1207.6" height="858.9"/>
		</defs>
		<clipPath id="SVGID_00000043454732130553212050000003143669708100781965_">
			<use xlink:href="#SVGID_00000090271558595991386050000009106937562431406513_"  style="overflow:visible;"/>
		</clipPath>
		
			<path id="path2971" style="clip-path:url(#SVGID_00000043454732130553212050000003143669708100781965_);fill-rule:evenodd;clip-rule:evenodd;fill:#FFFFFF;" d="
			M201.7,178.4L201.7,178.4c0,0,0-0.1,0.1-0.2l0.1-0.1c0,0,0,0,0,0c0,0,0-0.1,0.1-0.2l0-0.1c0,0,0-0.1,0-0.1c0-0.2,0-0.3,0-0.3
			c0,0,0.1,0,0.2-0.1c0,0,0,0,0,0c0.2-0.1,0.3-0.1,0.4-0.1c0,0,0.1,0,0.1,0c0,0,0,0.1,0,0.1c0,0,0,0,0,0c0,0-0.1,0-0.1,0.1
			c-0.1,0-0.1,0-0.1,0c-0.1,0-0.2,0-0.2,0.1c-0.1,0.1-0.1,0.1-0.1,0.2h0c0.3-0.1,0.5-0.1,0.6-0.1c0,0,0.1,0,0.1,0c0,0,0,0,0.1,0
			c0,0,0,0,0.1,0.1c0,0,0,0.1,0,0.1c0,0,0,0-0.1,0c0,0,0,0-0.1,0c0,0,0,0,0,0c-0.2,0-0.3,0-0.3,0c0,0,0,0,0,0.1c0,0.1,0,0.2,0,0.2
			c0,0,0,0.2,0,0.4c0,0.2,0,0.3,0,0.4c0,0,0,0.1-0.1,0.1c0,0,0,0-0.1,0c0,0,0-0.1,0-0.3c0-0.1,0-0.2,0-0.2c0-0.3,0-0.5-0.1-0.5
			c0,0,0,0,0,0c0,0-0.1,0-0.1,0c-0.1,0.1-0.2,0.1-0.2,0.3c0,0,0,0.1-0.1,0.2C202,178.4,201.9,178.4,201.7,178.4 M201.7,176.7
			C201.6,176.7,201.6,176.7,201.7,176.7c-0.1,0.1-0.2,0.1-0.2,0.2c0,0,0,0,0,0.1c0,0,0.1,0.1,0.2,0.1c0,0,0,0,0.1,0
			C201.8,176.9,201.8,176.8,201.7,176.7L201.7,176.7L201.7,176.7z M201.3,178.3C201.3,178.3,201.3,178.2,201.3,178.3
			c0-0.1,0-0.1,0-0.1c0-0.1,0-0.1,0-0.1c0,0,0,0,0,0c0,0,0,0,0.1,0c0,0,0,0,0.1,0c0,0,0,0.1,0,0.2c0,0,0,0,0,0c0,0,0,0-0.1,0
			C201.3,178.4,201.3,178.4,201.3,178.3C201.3,178.3,201.3,178.3,201.3,178.3L201.3,178.3z M201.3,177.9c-0.1,0-0.1,0-0.2,0.1
			c0,0-0.1,0-0.3,0.1c0,0-0.1,0-0.1,0c0,0,0,0,0,0.1c0,0,0,0,0.1,0.1l0,0c0,0,0.1,0,0.2-0.1l0,0c0,0,0,0,0,0c0,0,0,0,0,0
			c0,0,0,0,0,0c0,0,0,0,0,0c0,0,0,0,0,0c-0.1,0.1-0.2,0.2-0.2,0.2c0,0,0,0,0,0c0.1,0,0.1,0,0.1,0c0,0,0,0,0.1,0c0-0.1,0.1-0.1,0.2,0
			l0,0c0,0,0,0,0,0c0.1,0.1,0.2,0.1,0.2,0.1c0,0,0.1,0,0.1,0c0,0,0-0.1,0-0.3c0,0,0,0,0,0c0,0,0-0.1,0-0.1c0.1,0,0.2,0,0.2,0
			c0,0,0,0,0,0c0,0,0,0,0-0.1c0,0,0-0.1-0.1-0.1c0,0-0.1,0-0.1,0v0c0,0,0,0,0,0c0.1,0,0.1,0,0.1,0c0,0,0,0,0,0c0.1,0,0.1,0,0.1-0.1
			c0,0,0-0.1,0-0.1c0,0,0,0-0.1,0c0,0-0.1,0-0.2,0c0,0,0,0,0,0c0,0,0,0,0,0c0,0,0.1,0,0.1-0.1c0.1,0,0.1-0.1,0.1-0.1c0,0,0,0,0,0
			c0,0,0,0-0.1,0c0,0,0,0,0,0c0,0,0,0,0,0c0,0,0,0,0.1-0.1c0.1,0,0.1-0.1,0-0.1c0,0,0,0-0.1,0c0,0,0,0,0,0c0,0,0,0,0,0
			c0,0,0,0,0.1,0c0.1,0,0.1-0.1,0.1-0.1l0,0v0c-0.1,0-0.2,0-0.4,0c-0.3,0.1-0.5,0.1-0.5,0.1c0,0,0,0.1,0.1,0.1c0,0,0.1,0,0.1,0
			c0,0,0.1,0,0.1,0c0,0.1-0.1,0.1-0.1,0.2c0,0,0,0,0,0c0,0,0,0.1,0,0.1c0,0,0,0,0,0c0,0,0,0,0,0c0,0,0.1-0.1,0.1-0.1
			c0-0.1,0.1-0.1,0.1-0.1c0,0,0,0,0,0c0,0,0,0.1-0.1,0.1c0,0-0.1,0.1-0.4,0.1c0,0,0,0-0.1,0c0,0,0,0,0,0c0,0,0,0,0,0
			c0,0.1,0,0.1,0.1,0.1c0,0,0,0,0,0C201.2,177.8,201.3,177.8,201.3,177.9c0.1-0.1,0.1-0.1,0.1-0.1c0,0,0,0,0,0c0,0,0,0,0,0
			L201.3,177.9z"/>
	</g>
	<g>
		<defs>
			<rect id="SVGID_00000158728981226192067230000017411508460278562436_" x="-324.3" y="-476.3" width="1207.6" height="858.9"/>
		</defs>
		<clipPath id="SVGID_00000064324957103148022460000011667121068170033560_">
			<use xlink:href="#SVGID_00000158728981226192067230000017411508460278562436_"  style="overflow:visible;"/>
		</clipPath>
		
			<path id="path2973" style="clip-path:url(#SVGID_00000064324957103148022460000011667121068170033560_);fill-rule:evenodd;clip-rule:evenodd;fill:#4C4B52;" d="
			M173.2,164.6l-1.1-0.7c-0.3-0.2-0.4-0.3-0.3-0.5l0-0.1l-0.1-0.1l-0.4,0.7l0.1,0.1l0,0c0.1-0.2,0.3-0.1,0.6,0.1l2.3,1.5
			c0.3,0.2,0.4,0.4,0.3,0.5l0.1,0.1l0.4-0.6l-0.1-0.1l0,0c-0.1,0.1-0.2,0.1-0.5-0.1l-1.1-0.7l0.6-0.9l1,0.6c0.2,0.1,0.4,0.3,0.4,0.3
			c0,0.1,0,0.1,0,0.2l0.1,0.1l0.4-0.6l-0.1-0.1c-0.1,0.1-0.2,0.1-0.5-0.1l-2.4-1.6c-0.3-0.2-0.4-0.3-0.3-0.5l0,0l-0.1-0.1l-0.4,0.6
			l0.1,0.1l0,0c0.1-0.2,0.3-0.1,0.6,0.1l1.1,0.7L173.2,164.6z"/>
	</g>
	<g>
		<defs>
			<rect id="SVGID_00000057112959808866609860000000283168606649130122_" x="-324.3" y="-476.3" width="1207.6" height="858.9"/>
		</defs>
		<clipPath id="SVGID_00000054979685228515354890000012377267398297547916_">
			<use xlink:href="#SVGID_00000057112959808866609860000000283168606649130122_"  style="overflow:visible;"/>
		</clipPath>
		
			<path id="path2975" style="clip-path:url(#SVGID_00000054979685228515354890000012377267398297547916_);fill-rule:evenodd;clip-rule:evenodd;fill:#4C4B52;" d="
			M173.6,167.4l-0.1-0.1c-0.1,0.1-0.1,0.1-0.3,0.1c-0.1,0-0.3-0.1-0.5-0.3l-1.2-0.9c-0.8-0.5-1-1-0.8-1.3c0.3-0.3,0.8-0.2,1.5,0.3
			l1.5,1c0.3,0.2,0.4,0.3,0.3,0.4l0,0l0.1,0.1l0.4-0.6l-0.1-0.1c-0.1,0.1-0.1,0.1-0.2,0.1c-0.1,0-0.2-0.1-0.4-0.2l-1.6-1.1
			c-0.9-0.6-1.4-0.6-1.8-0.2c-0.3,0.5,0,1,0.9,1.6l1.5,1c0.3,0.2,0.5,0.4,0.3,0.6l0.1,0.1L173.6,167.4z"/>
	</g>
	<g>
		<defs>
			<rect id="SVGID_00000116935034831510630890000002479976429972774784_" x="-324.3" y="-476.3" width="1207.6" height="858.9"/>
		</defs>
		<clipPath id="SVGID_00000034779547328511212590000010901940177666786727_">
			<use xlink:href="#SVGID_00000116935034831510630890000002479976429972774784_"  style="overflow:visible;"/>
		</clipPath>
		
			<path id="path2977" style="clip-path:url(#SVGID_00000034779547328511212590000010901940177666786727_);fill-rule:evenodd;clip-rule:evenodd;fill:#4C4B52;" d="
			M171.4,167.6l0.2-0.4l1.3,0.9L171.4,167.6z M171.1,167.5l-1.2-0.4c-0.1,0-0.2-0.1-0.2-0.1c-0.2-0.1-0.2-0.2-0.1-0.3l0-0.1
			l-0.1-0.1l-0.4,0.7l0.1,0.1c0-0.1,0.2-0.1,0.5,0l3.5,1.1l0.1-0.2l-0.1,0l-2.7-1.9c-0.2-0.2-0.4-0.3-0.4-0.4c0-0.1,0-0.1,0-0.2
			l-0.1-0.1l-0.3,0.6l0.1,0.1l0,0c0.1-0.1,0.2-0.2,0.3-0.1c0,0,0.1,0.1,0.2,0.1c0.1,0.1,0.1,0.1,0.1,0.1l0.9,0.6L171.1,167.5z"/>
	</g>
	<g>
		<defs>
			<rect id="SVGID_00000016044419481038670510000017128163648995420843_" x="-324.3" y="-476.3" width="1207.6" height="858.9"/>
		</defs>
		<clipPath id="SVGID_00000102521363563752602970000004980060956066985100_">
			<use xlink:href="#SVGID_00000016044419481038670510000017128163648995420843_"  style="overflow:visible;"/>
		</clipPath>
		
			<path id="path2979" style="clip-path:url(#SVGID_00000102521363563752602970000004980060956066985100_);fill-rule:evenodd;clip-rule:evenodd;fill:#4C4B52;" d="
			M169.1,167.8l-0.2,1.6l1.2,0.2l0-0.1c-0.4-0.1-0.6-0.2-0.7-0.2c-0.1-0.1-0.2-0.1-0.1-0.2l0.1-1l3.5,1.8l0.2,0l0.2-1.4l-0.9-0.1
			l0,0.1c0.5,0.1,0.7,0.2,0.6,0.4l-0.1,0.8l-3.5-1.8L169.1,167.8z"/>
	</g>
	<g>
		<defs>
			<rect id="SVGID_00000117647528100464048300000017137962069219996309_" x="-324.3" y="-476.3" width="1207.6" height="858.9"/>
		</defs>
		<clipPath id="SVGID_00000128478846175045798620000004770174535149150638_">
			<use xlink:href="#SVGID_00000117647528100464048300000017137962069219996309_"  style="overflow:visible;"/>
		</clipPath>
		
			<path id="path2981" style="clip-path:url(#SVGID_00000128478846175045798620000004770174535149150638_);fill-rule:evenodd;clip-rule:evenodd;fill:#4C4B52;" d="
			M170.5,171.5l-1.3-0.1c-0.3,0-0.5-0.1-0.5-0.3l0-0.1l-0.1,0l-0.1,0.8l0.1,0l0,0c0-0.2,0.2-0.2,0.6-0.2l2.7,0.3
			c0.4,0,0.6,0.1,0.5,0.3l0.1,0l0.1-0.7l-0.1,0l0,0.1c0,0.2-0.2,0.2-0.5,0.2l-1.3-0.1l0.1-1.1l1.1,0.1c0.3,0,0.4,0.1,0.5,0.1
			c0.1,0,0.1,0.1,0.1,0.2l0.1,0l0.1-0.7l-0.1,0c0,0.1-0.2,0.2-0.5,0.2l-2.8-0.3c-0.4,0-0.5-0.1-0.5-0.3l0,0l-0.1,0l-0.1,0.7l0.1,0
			l0,0c0-0.2,0.2-0.2,0.6-0.2l1.2,0.1L170.5,171.5z"/>
	</g>
	<g>
		<defs>
			<rect id="SVGID_00000103982999743504260370000010638290474614628280_" x="-324.3" y="-476.3" width="1207.6" height="858.9"/>
		</defs>
		<clipPath id="SVGID_00000100354071345939361980000007483396366071370899_">
			<use xlink:href="#SVGID_00000103982999743504260370000010638290474614628280_"  style="overflow:visible;"/>
		</clipPath>
		
			<path id="path2983" style="clip-path:url(#SVGID_00000100354071345939361980000007483396366071370899_);fill-rule:evenodd;clip-rule:evenodd;fill:#4C4B52;" d="
			M170.4,173.7c-1.2,0-1.9-0.2-1.9-0.6c0.1-0.5,0.8-0.8,2.1-0.9c1.2,0,1.8,0.2,1.9,0.6C172.4,173.3,171.7,173.6,170.4,173.7
			 M170.6,174c1.2-0.1,1.9-0.5,2-1.1c-0.1-0.6-0.9-0.9-2.3-0.9c-1.2,0.1-1.9,0.5-1.9,1.1C168.5,173.7,169.3,174,170.6,174"/>
	</g>
	<g>
		<defs>
			<rect id="SVGID_00000083081860576842917870000008992808605713224370_" x="-324.3" y="-476.3" width="1207.6" height="858.9"/>
		</defs>
		<clipPath id="SVGID_00000011728568390697005540000003488201862084223417_">
			<use xlink:href="#SVGID_00000083081860576842917870000008992808605713224370_"  style="overflow:visible;"/>
		</clipPath>
		
			<path id="path2985" style="clip-path:url(#SVGID_00000011728568390697005540000003488201862084223417_);fill-rule:evenodd;clip-rule:evenodd;fill:#4C4B52;" d="
			M169.1,176.2l3.5-0.8c0.2-0.1,0.4,0,0.4,0.2l0.1,0l-0.1-0.6l-0.1,0c0,0.1,0,0.2-0.1,0.2c0,0-0.2,0.1-0.4,0.1l-2.5,0.6l2.8-2
			l-0.1-0.4l-0.1,0c0,0.1,0,0.2-0.1,0.3l-3.1,0.7c-0.3,0.1-0.5,0-0.5-0.1l0,0l-0.1,0l0.1,0.6l0.1,0c0-0.1,0-0.2,0.1-0.2
			c0.1-0.1,0.2-0.1,0.4-0.2l2.7-0.6L169.1,176.2L169.1,176.2z"/>
	</g>
	<g>
		<defs>
			<rect id="SVGID_00000064341372276867845340000008699087888287806647_" x="-324.3" y="-476.3" width="1207.6" height="858.9"/>
		</defs>
		<clipPath id="SVGID_00000040533071230270185390000017139363496090179728_">
			<use xlink:href="#SVGID_00000064341372276867845340000008699087888287806647_"  style="overflow:visible;"/>
		</clipPath>
		
			<path id="path2987" style="clip-path:url(#SVGID_00000040533071230270185390000017139363496090179728_);fill-rule:evenodd;clip-rule:evenodd;fill:#4C4B52;" d="
			M170.9,177.7c0.2-0.1,0.4-0.1,0.5,0.1l0.1,0l-0.2-0.7l-0.1,0l0,0.1c0.1,0.1-0.1,0.3-0.4,0.4l-0.8,0.3c-0.2-0.1-0.3-0.2-0.4-0.3
			c0-0.5,0.5-0.9,1.6-1.3c1.2-0.4,1.9-0.3,2.2,0.1c0.1,0.3-0.2,0.6-0.8,0.9l0,0.1l1-0.3l0,0c0,0-0.1,0-0.1,0c0,0,0,0,0-0.1
			c0.1-0.2,0.1-0.4,0-0.5c-0.3-0.6-1.1-0.6-2.4-0.2c-1.2,0.4-1.8,0.9-1.6,1.5c0.1,0.3,0.3,0.5,0.6,0.6L170.9,177.7z"/>
	</g>
	<g>
		<defs>
			<rect id="SVGID_00000052814995056828308130000003364319830848683143_" x="-324.3" y="-476.3" width="1207.6" height="858.9"/>
		</defs>
		<clipPath id="SVGID_00000018959394515064216650000005220238653399877257_">
			<use xlink:href="#SVGID_00000052814995056828308130000003364319830848683143_"  style="overflow:visible;"/>
		</clipPath>
		
			<path id="path2989" style="clip-path:url(#SVGID_00000018959394515064216650000005220238653399877257_);fill-rule:evenodd;clip-rule:evenodd;fill:#4C4B52;" d="
			M175.2,178.6l-0.1,0.1c0.1,0.1,0.1,0.2,0,0.3c0,0.1-0.2,0.2-0.5,0.4l-1.2,0.9c-0.8,0.5-1.3,0.7-1.5,0.3c-0.2-0.3,0-0.8,0.8-1.4
			l1.5-1.1c0.3-0.2,0.4-0.2,0.5-0.1l0,0l0.1-0.1l-0.4-0.6l-0.1,0.1c0.1,0.1,0.1,0.2,0.1,0.2c0,0.1-0.1,0.2-0.3,0.3l-1.5,1.1
			c-0.8,0.6-1.1,1.2-0.8,1.6c0.3,0.4,0.9,0.3,1.8-0.3l1.4-1c0.3-0.2,0.5-0.3,0.6-0.1l0.1-0.1L175.2,178.6z"/>
	</g>
	<g>
		<defs>
			<rect id="SVGID_00000005989707052552846700000009069556682052259469_" x="-324.3" y="-476.3" width="1207.6" height="858.9"/>
		</defs>
		<clipPath id="SVGID_00000151516783197770896770000014980925151511047314_">
			<use xlink:href="#SVGID_00000005989707052552846700000009069556682052259469_"  style="overflow:visible;"/>
		</clipPath>
		
			<path id="path2991" style="clip-path:url(#SVGID_00000151516783197770896770000014980925151511047314_);fill-rule:evenodd;clip-rule:evenodd;fill:#4C4B52;" d="
			M174,183.2l2.7-2.4c0.2-0.2,0.3-0.2,0.4,0l0.1-0.1l-0.4-0.5l-0.1,0.1c0.1,0.1,0.1,0.2,0.1,0.2c0,0.1-0.1,0.2-0.2,0.3l-1.9,1.7
			l1.5-3.1l-0.3-0.3l-0.1,0.1c0.1,0.1,0.1,0.2,0.1,0.3l-2.4,2.2c-0.2,0.2-0.4,0.3-0.5,0.1l0,0l-0.1,0.1l0.4,0.5l0.1-0.1
			c-0.1-0.1-0.1-0.2-0.1-0.2c0-0.1,0.1-0.2,0.3-0.4l2.1-1.9L174,183.2L174,183.2z"/>
	</g>
	<g>
		<defs>
			<rect id="SVGID_00000016073544252575725280000015692165627622431887_" x="-324.3" y="-476.3" width="1207.6" height="858.9"/>
		</defs>
		<clipPath id="SVGID_00000021814365343817228190000003191502106118623897_">
			<use xlink:href="#SVGID_00000016073544252575725280000015692165627622431887_"  style="overflow:visible;"/>
		</clipPath>
		
			<path id="path2993" style="clip-path:url(#SVGID_00000021814365343817228190000003191502106118623897_);fill-rule:evenodd;clip-rule:evenodd;fill:#4C4B52;" d="
			M175.6,184.3c-0.2-0.1-0.1-0.3,0.1-0.6l1.6-2.3c0.2-0.3,0.4-0.4,0.5-0.3l0.1-0.1l-0.6-0.4l-0.1,0.1c0.1,0.1,0.1,0.2-0.1,0.5
			l-1.6,2.3c-0.2,0.3-0.4,0.4-0.5,0.3l-0.1,0.1l0.6,0.4L175.6,184.3z"/>
	</g>
	<g>
		<defs>
			<rect id="SVGID_00000044884287028351530520000000352090030044863139_" x="-324.3" y="-476.3" width="1207.6" height="858.9"/>
		</defs>
		<clipPath id="SVGID_00000079468553429555908200000005112302639913882517_">
			<use xlink:href="#SVGID_00000044884287028351530520000000352090030044863139_"  style="overflow:visible;"/>
		</clipPath>
		
			<path id="path2995" style="clip-path:url(#SVGID_00000079468553429555908200000005112302639913882517_);fill-rule:evenodd;clip-rule:evenodd;fill:#4C4B52;" d="
			M176.5,185.2l2.5-2.5c0.3-0.3,0.5-0.4,0.6-0.3l0.1-0.1l-0.5-0.4l-0.1,0.1c0.1,0.1,0.2,0.2,0.1,0.4c-0.1,0.1-0.1,0.2-0.2,0.2
			c0,0-0.1,0.1-0.1,0.1l-1.9,1.9l1.3-2.7c0.1-0.3,0.3-0.3,0.5-0.2l0.1-0.1l-0.6-0.4l-0.1,0.1c0.1,0.1,0.1,0.1,0.1,0.2
			c0,0.1-0.1,0.2-0.2,0.4l-1.5,3.2L176.5,185.2z"/>
	</g>
	<g>
		<defs>
			<rect id="SVGID_00000159465659404393907720000001507748234606509456_" x="-324.3" y="-476.3" width="1207.6" height="858.9"/>
		</defs>
		<clipPath id="SVGID_00000021111475098718685220000002374285256031327418_">
			<use xlink:href="#SVGID_00000159465659404393907720000001507748234606509456_"  style="overflow:visible;"/>
		</clipPath>
		
			<path id="path2997" style="clip-path:url(#SVGID_00000021111475098718685220000002374285256031327418_);fill-rule:evenodd;clip-rule:evenodd;fill:#4C4B52;" d="
			M180.2,184.1L180.2,184.1c-0.2,0.3-0.4,0.4-0.4,0.3l-0.4-0.3l0.9-1.4l0.5,0.3c0.1,0,0,0.3-0.2,0.7l0,0l0.5-0.8l-1.1-0.7l-0.1,0.1
			l0.1,0c0.1,0.1,0.1,0.3-0.1,0.5l-1.5,2.3c-0.2,0.3-0.4,0.4-0.5,0.3l-0.1,0l-0.1,0.1l1.3,0.8l0.6-0.8l0,0c-0.2,0.2-0.3,0.4-0.4,0.4
			c-0.1,0.1-0.2,0.1-0.3,0l-0.4-0.2c-0.1,0-0.1-0.2,0.1-0.4l0.8-1.2l0.4,0.3c0.1,0,0.1,0.2-0.1,0.5l0,0L180.2,184.1z"/>
	</g>
	<g>
		<defs>
			<rect id="SVGID_00000051342520758758677920000006487288645081584063_" x="-324.3" y="-476.3" width="1207.6" height="858.9"/>
		</defs>
		<clipPath id="SVGID_00000101090705583788312750000002695393552528389301_">
			<use xlink:href="#SVGID_00000051342520758758677920000006487288645081584063_"  style="overflow:visible;"/>
		</clipPath>
		
			<path id="path2999" style="clip-path:url(#SVGID_00000101090705583788312750000002695393552528389301_);fill-rule:evenodd;clip-rule:evenodd;fill:#4C4B52;" d="
			M181.6,183.3c0,0,0.1,0,0.1,0c0.3,0.2,0.3,0.6-0.1,1.2c-0.4,0.6-0.7,0.8-1,0.7c0,0,0,0-0.1,0c0,0-0.1,0-0.1-0.1L181.6,183.3z
			 M180.4,185.3c0,0,0.1,0,0.1,0.1c0.1,0,0.1,0.1,0.2,0.1c0,0.1,0,0.3,0,0.6l-0.1,0.5c0,0.4,0,0.6,0,0.7c0.1,0.1,0.2,0.2,0.4,0.3
			l0-0.1c-0.2-0.1-0.2-0.4-0.2-0.9l0.1-0.6c0-0.3,0.1-0.5,0.1-0.7c0.3-0.1,0.6-0.3,0.9-0.7c0.4-0.7,0.3-1.1-0.1-1.4
			c-0.1,0-0.1-0.1-0.2-0.1c-0.1,0-0.1-0.1-0.1-0.1c-0.1,0-0.2-0.1-0.3-0.1l-0.1,0.1l0,0c0.2,0.1,0.1,0.2-0.1,0.6l-1.4,2.4
			c-0.2,0.3-0.3,0.5-0.5,0.4l0,0l-0.1,0.1l0.7,0.4l0.1-0.1l-0.1,0c-0.1-0.1-0.1-0.2,0.1-0.5L180.4,185.3z"/>
	</g>
	<g>
		<defs>
			<rect id="SVGID_00000054257346644857229640000009071077513042741922_" x="-324.3" y="-476.3" width="1207.6" height="858.9"/>
		</defs>
		<clipPath id="SVGID_00000070113156278248369990000002873145107864409227_">
			<use xlink:href="#SVGID_00000054257346644857229640000009071077513042741922_"  style="overflow:visible;"/>
		</clipPath>
		
			<path id="path3001" style="clip-path:url(#SVGID_00000070113156278248369990000002873145107864409227_);fill-rule:evenodd;clip-rule:evenodd;fill:#4C4B52;" d="
			M181.5,186.6l-0.2,1l0,0c0,0,0.1-0.1,0.1-0.1c0,0,0,0,0.1,0.1c0.1,0.1,0.2,0.1,0.3,0.2c0.4,0.1,0.6-0.2,0.9-0.8
			c0.1-0.6,0.1-1.1,0-1.4c-0.1-0.5-0.2-0.8-0.1-1.1c0.1-0.4,0.3-0.5,0.5-0.5c0.2,0.1,0.3,0.4,0.2,0.9l0,0l0.2-0.8l0,0c0,0,0,0-0.1,0
			c0,0-0.1,0-0.1-0.1c-0.1-0.1-0.1-0.2-0.2-0.2c-0.3,0-0.6,0.2-0.8,0.7c-0.1,0.5-0.1,1,0.1,1.4c0.1,0.5,0.2,0.9,0.1,1.2
			c-0.2,0.4-0.4,0.6-0.6,0.6C181.5,187.6,181.5,187.2,181.5,186.6L181.5,186.6z"/>
	</g>
	<g>
		<defs>
			<rect id="SVGID_00000096042756418825139440000003725694326026819263_" x="-324.3" y="-476.3" width="1207.6" height="858.9"/>
		</defs>
		<clipPath id="SVGID_00000127761925874447849380000016451946613656744623_">
			<use xlink:href="#SVGID_00000096042756418825139440000003725694326026819263_"  style="overflow:visible;"/>
		</clipPath>
		
			<path id="path3003" style="clip-path:url(#SVGID_00000127761925874447849380000016451946613656744623_);fill-rule:evenodd;clip-rule:evenodd;fill:#4C4B52;" d="
			M183.4,188.1c-0.2,0-0.2-0.2-0.1-0.6l0.9-2.6c0.1-0.4,0.2-0.5,0.4-0.4l0-0.1l-0.6-0.2l0,0.1c0.1,0,0.2,0.2,0.1,0.5l-0.9,2.6
			c-0.1,0.4-0.2,0.5-0.4,0.5l0,0.1l0.6,0.2L183.4,188.1z"/>
	</g>
	<g>
		<defs>
			<rect id="SVGID_00000063612527157277463070000012901540229132708998_" x="-324.3" y="-476.3" width="1207.6" height="858.9"/>
		</defs>
		<clipPath id="SVGID_00000100374623198557945370000005516053278650262423_">
			<use xlink:href="#SVGID_00000063612527157277463070000012901540229132708998_"  style="overflow:visible;"/>
		</clipPath>
		
			<path id="path3005" style="clip-path:url(#SVGID_00000100374623198557945370000005516053278650262423_);fill-rule:evenodd;clip-rule:evenodd;fill:#4C4B52;" d="
			M185.6,184.8l0.5,0.1c0.1,0,0.1,0.2,0,0.7l0,0l0.2-1l-0.1,0c0,0.1-0.1,0.1-0.1,0.1l-1.3-0.4c0,0,0,0,0,0c0,0,0-0.1,0-0.1l-0.1,0
			l-0.3,1l0.1,0c0.2-0.5,0.3-0.7,0.4-0.6l0.5,0.1l-0.8,3.1c-0.1,0.3-0.2,0.5-0.3,0.4l-0.1,0l0,0.1l0.9,0.2l0-0.1l-0.1,0
			c-0.2,0-0.2-0.2-0.1-0.5L185.6,184.8z"/>
	</g>
	<g>
		<defs>
			<rect id="SVGID_00000082327613288614763220000001291515025001408941_" x="-324.3" y="-476.3" width="1207.6" height="858.9"/>
		</defs>
		<clipPath id="SVGID_00000086679357962339508760000014277127858187266945_">
			<use xlink:href="#SVGID_00000082327613288614763220000001291515025001408941_"  style="overflow:visible;"/>
		</clipPath>
		
			<path id="path3007" style="clip-path:url(#SVGID_00000086679357962339508760000014277127858187266945_);fill-rule:evenodd;clip-rule:evenodd;fill:#4C4B52;" d="
			M187,187.2l-0.2-1.7c0-0.2,0-0.3,0-0.3c0,0,0.1-0.1,0.2,0l0-0.1l-0.7-0.1l0,0.1c0.1,0,0.1,0.1,0.2,0.1c0,0.1,0.1,0.2,0.1,0.5
			l0.2,1.9l-0.2,0.9c0,0.3-0.1,0.5-0.3,0.4l-0.1,0l0,0.1l0.8,0.1l0-0.1l0,0c-0.2,0-0.2-0.2-0.1-0.5l0.2-1l0.8-1.7
			c0.1-0.3,0.3-0.5,0.4-0.4l0-0.1l-0.6-0.1l0,0.1c0.1,0,0.1,0.1,0.2,0.1c0,0.1,0,0.2-0.1,0.3L187,187.2z"/>
	</g>
	<g>
		<defs>
			<rect id="SVGID_00000055695080519014693880000010667106993895644580_" x="-324.3" y="-476.3" width="1207.6" height="858.9"/>
		</defs>
		<clipPath id="SVGID_00000005954739905797357640000012392189312704614022_">
			<use xlink:href="#SVGID_00000055695080519014693880000010667106993895644580_"  style="overflow:visible;"/>
		</clipPath>
		
			<path id="path3009" style="clip-path:url(#SVGID_00000005954739905797357640000012392189312704614022_);fill-rule:evenodd;clip-rule:evenodd;fill:#4C4B52;" d="
			M190.5,187.7c-0.2,1.2-0.5,1.8-0.9,1.8c-0.5-0.2-0.6-0.9-0.5-2.2c0.2-1.2,0.5-1.8,0.9-1.8C190.5,185.7,190.6,186.4,190.5,187.7
			 M190.8,187.5c0.1-1.2-0.1-2-0.7-2.1c-0.6,0-1,0.7-1.3,2.1c-0.1,1.2,0.1,1.9,0.7,2.1C190.2,189.6,190.6,188.9,190.8,187.5"/>
	</g>
	<g>
		<defs>
			<rect id="SVGID_00000052797708483383568770000012216252139245825178_" x="-324.3" y="-476.3" width="1207.6" height="858.9"/>
		</defs>
		<clipPath id="SVGID_00000175318344302867085970000010828678317403479171_">
			<use xlink:href="#SVGID_00000052797708483383568770000012216252139245825178_"  style="overflow:visible;"/>
		</clipPath>
		
			<path id="path3011" style="clip-path:url(#SVGID_00000175318344302867085970000010828678317403479171_);fill-rule:evenodd;clip-rule:evenodd;fill:#4C4B52;" d="
			M192,186.9L192,186.9c-0.1,0.3-0.1,0.4-0.2,0.4l-0.6,0l0-1.5l0.5,0c0.2,0,0.2,0.2,0.2,0.5l0.1,0l0-0.8l-1.3,0l0,0.1
			c0.1,0,0.1,0,0.2,0.1c0,0.1,0,0.2,0,0.5l-0.1,2.6c0,0.3,0,0.4,0,0.5c0,0.1-0.1,0.1-0.2,0.1l0,0.1l0.7,0l0-0.1
			c-0.2,0-0.3-0.1-0.2-0.5l0-1.4l0.5,0c0.1,0,0.2,0.2,0.2,0.5l0,0L192,186.9z"/>
	</g>
	<g>
		<defs>
			<rect id="SVGID_00000077299161672236971140000010502139903012058529_" x="-324.3" y="-476.3" width="1207.6" height="858.9"/>
		</defs>
		<clipPath id="SVGID_00000020385842496012497330000009922112391514292662_">
			<use xlink:href="#SVGID_00000077299161672236971140000010502139903012058529_"  style="overflow:visible;"/>
		</clipPath>
		
			<path id="path3013" style="clip-path:url(#SVGID_00000020385842496012497330000009922112391514292662_);fill-rule:evenodd;clip-rule:evenodd;fill:#4C4B52;" d="
			M193.4,188.7l0.1,1l0,0c0-0.1,0-0.1,0.1-0.1c0,0,0,0,0.1,0c0.1,0,0.2,0.1,0.3,0.1c0.4-0.1,0.5-0.4,0.5-1.1c-0.1-0.6-0.3-1-0.6-1.3
			c-0.3-0.4-0.5-0.7-0.5-1c0-0.4,0.1-0.6,0.3-0.6c0.2,0,0.4,0.3,0.5,0.7l0,0l-0.1-0.8l0,0c0,0,0,0.1-0.1,0.1c0,0-0.1,0-0.1,0
			c-0.1-0.1-0.2-0.1-0.3-0.1c-0.3,0.1-0.5,0.4-0.4,1c0.1,0.6,0.3,1,0.6,1.3c0.3,0.4,0.5,0.7,0.5,1c0,0.5-0.1,0.7-0.4,0.8
			C193.7,189.6,193.5,189.3,193.4,188.7L193.4,188.7z"/>
	</g>
	<g>
		<defs>
			<rect id="SVGID_00000170264024493913817190000006924474512626595227_" x="-324.3" y="-476.3" width="1207.6" height="858.9"/>
		</defs>
		<clipPath id="SVGID_00000165230969431580291390000012965019996448306324_">
			<use xlink:href="#SVGID_00000170264024493913817190000006924474512626595227_"  style="overflow:visible;"/>
		</clipPath>
		
			<path id="path3015" style="clip-path:url(#SVGID_00000165230969431580291390000012965019996448306324_);fill-rule:evenodd;clip-rule:evenodd;fill:#4C4B52;" d="
			M196.1,186.4l-0.2-0.9l0,0c0,0,0,0,0,0c0,0,0,0,0,0c0,0-0.1,0-0.1-0.1c-0.2-0.1-0.4-0.1-0.5-0.1c-0.6,0.2-0.8,1-0.6,2.3
			c0.3,1.3,0.8,1.9,1.4,1.8c0.1,0,0.2-0.1,0.4-0.2c0.1-0.1,0.2-0.1,0.2-0.1c0-0.3,0-0.6,0-1l-0.1,0c0,0.7-0.2,1-0.5,1.1
			c-0.5,0-0.9-0.6-1.2-1.9c-0.2-1.2-0.1-1.8,0.4-2C195.5,185.5,195.8,185.8,196.1,186.4L196.1,186.4z"/>
	</g>
	<g>
		<defs>
			<rect id="SVGID_00000108279172477838492520000002441133290678993539_" x="-324.3" y="-476.3" width="1207.6" height="858.9"/>
		</defs>
		<clipPath id="SVGID_00000084508734458925545760000003526627421036071320_">
			<use xlink:href="#SVGID_00000108279172477838492520000002441133290678993539_"  style="overflow:visible;"/>
		</clipPath>
		
			<path id="path3017" style="clip-path:url(#SVGID_00000084508734458925545760000003526627421036071320_);fill-rule:evenodd;clip-rule:evenodd;fill:#4C4B52;" d="
			M197.6,189.1c-0.2,0.1-0.3-0.1-0.3-0.5l-0.5-2.7c-0.1-0.4,0-0.5,0.1-0.5l0-0.1l-0.7,0.1l0,0.1c0.1,0,0.2,0.1,0.3,0.4l0.5,2.7
			c0.1,0.4,0,0.6-0.1,0.6l0,0.1l0.7-0.1L197.6,189.1z"/>
	</g>
	<g>
		<defs>
			<rect id="SVGID_00000033329129534165823360000009579991420092573848_" x="-324.3" y="-476.3" width="1207.6" height="858.9"/>
		</defs>
		<clipPath id="SVGID_00000127730440836107413130000014149619973281647025_">
			<use xlink:href="#SVGID_00000033329129534165823360000009579991420092573848_"  style="overflow:visible;"/>
		</clipPath>
		
			<path id="path3019" style="clip-path:url(#SVGID_00000127730440836107413130000014149619973281647025_);fill-rule:evenodd;clip-rule:evenodd;fill:#4C4B52;" d="
			M198.6,186.1L198.6,186.1c0,0.3,0,0.5-0.1,0.5l-0.5,0.1l-0.3-1.6l0.6-0.1c0.1,0,0.2,0.2,0.3,0.6l0.1,0l-0.2-0.9l-1.3,0.3l0,0.1
			l0.1,0c0.2-0.1,0.3,0.1,0.3,0.5l0.6,2.7c0.1,0.4,0.1,0.6-0.1,0.6l-0.1,0l0,0.1l1.5-0.3l-0.2-1l-0.1,0c0,0.3,0,0.5,0,0.6
			s-0.1,0.2-0.2,0.2l-0.4,0.1c-0.1,0-0.2-0.1-0.2-0.3l-0.3-1.4l0.5-0.1c0.1-0.1,0.2,0.1,0.3,0.5l0.1,0L198.6,186.1z"/>
	</g>
	<g>
		<defs>
			<rect id="SVGID_00000158006462119478416430000008340937257543999389_" x="-324.3" y="-476.3" width="1207.6" height="858.9"/>
		</defs>
		<clipPath id="SVGID_00000172431815388573715790000017224633786884244636_">
			<use xlink:href="#SVGID_00000158006462119478416430000008340937257543999389_"  style="overflow:visible;"/>
		</clipPath>
		
			<path id="path3021" style="clip-path:url(#SVGID_00000172431815388573715790000017224633786884244636_);fill-rule:evenodd;clip-rule:evenodd;fill:#4C4B52;" d="
			M201.4,188.1l-0.9-3.5c-0.1-0.2,0-0.4,0.1-0.4l0-0.1l-0.6,0.2l0,0.1c0.1,0,0.2,0,0.2,0c0,0,0.1,0.2,0.1,0.4l0.6,2.5l-2-2.7
			l-0.4,0.1l0,0.1c0.1,0,0.2,0,0.2,0.1l0.8,3.1c0.1,0.3,0.1,0.5-0.1,0.5l0,0l0,0.1l0.6-0.2l0-0.1c-0.1,0-0.2,0-0.2,0
			c0-0.1-0.1-0.2-0.2-0.4l-0.7-2.7L201.4,188.1L201.4,188.1z"/>
	</g>
	<g>
		<defs>
			<rect id="SVGID_00000024000084583637107050000002294675386285005982_" x="-324.3" y="-476.3" width="1207.6" height="858.9"/>
		</defs>
		<clipPath id="SVGID_00000084499541966546463010000004208839285012100014_">
			<use xlink:href="#SVGID_00000024000084583637107050000002294675386285005982_"  style="overflow:visible;"/>
		</clipPath>
		
			<path id="path3023" style="clip-path:url(#SVGID_00000084499541966546463010000004208839285012100014_);fill-rule:evenodd;clip-rule:evenodd;fill:#4C4B52;" d="
			M202.4,184.7l-0.3-0.9l0,0c0,0,0,0,0,0c0,0,0,0,0,0c0,0-0.1,0-0.1,0c-0.2-0.1-0.4-0.1-0.5,0c-0.6,0.3-0.7,1.1-0.3,2.4
			c0.4,1.2,1,1.8,1.6,1.6c0.1,0,0.2-0.1,0.3-0.2c0.1-0.1,0.2-0.1,0.2-0.1c0-0.3-0.1-0.6-0.1-1l-0.1,0c0.1,0.7-0.1,1-0.4,1.1
			c-0.5,0-1-0.5-1.4-1.7c-0.3-1.1-0.3-1.8,0.2-2C201.7,183.9,202,184.2,202.4,184.7L202.4,184.7z"/>
	</g>
	<g>
		<defs>
			<rect id="SVGID_00000002373079409431230830000011104893035090847644_" x="-324.3" y="-476.3" width="1207.6" height="858.9"/>
		</defs>
		<clipPath id="SVGID_00000124144904079257389680000016850441936183671957_">
			<use xlink:href="#SVGID_00000002373079409431230830000011104893035090847644_"  style="overflow:visible;"/>
		</clipPath>
		
			<path id="path3025" style="clip-path:url(#SVGID_00000124144904079257389680000016850441936183671957_);fill-rule:evenodd;clip-rule:evenodd;fill:#4C4B52;" d="
			M203.8,184.5L203.8,184.5c0.1,0.3,0.1,0.5,0,0.5l-0.5,0.2l-0.6-1.5l0.6-0.2c0.1-0.1,0.2,0.1,0.4,0.5l0.1,0l-0.3-0.8l-1.3,0.5
			l0,0.1l0.1,0c0.1-0.1,0.3,0.1,0.4,0.4l1,2.6c0.2,0.4,0.1,0.6-0.1,0.6l-0.1,0l0,0.1l1.4-0.5l-0.3-0.9l-0.1,0
			c0.1,0.3,0.1,0.5,0.1,0.6c0,0.1-0.1,0.2-0.1,0.2l-0.4,0.2c-0.1,0.1-0.2,0-0.3-0.3l-0.5-1.3l0.5-0.2c0.1-0.1,0.2,0.1,0.4,0.4l0.1,0
			L203.8,184.5z"/>
	</g>
	<g>
		<defs>
			<rect id="SVGID_00000022555812288183030760000013407507202692861589_" x="-324.3" y="-476.3" width="1207.6" height="858.9"/>
		</defs>
		<clipPath id="SVGID_00000163780062394876093470000010786422887851829379_">
			<use xlink:href="#SVGID_00000022555812288183030760000013407507202692861589_"  style="overflow:visible;"/>
		</clipPath>
		
			<path id="path3027" style="clip-path:url(#SVGID_00000163780062394876093470000010786422887851829379_);fill-rule:evenodd;clip-rule:evenodd;fill:#4C4B52;" d="
			M206.2,183.9l-0.4,0.2l-0.6-1.4L206.2,183.9z M206.4,184.1l0.8,1c0.1,0.1,0.1,0.1,0.2,0.2c0.1,0.1,0.1,0.2-0.1,0.3l-0.1,0l0.1,0.1
			l0.7-0.4l-0.1-0.1c-0.1,0.1-0.2,0-0.4-0.2l-2.3-2.9l-0.2,0.1l0.1,0.1l1.2,3.1c0.1,0.3,0.2,0.5,0.2,0.5c0,0.1,0,0.1-0.1,0.2
			l0.1,0.1l0.6-0.3l-0.1-0.1l0,0c-0.1,0.1-0.2,0.1-0.3-0.1c0,0-0.1-0.1-0.1-0.2c0-0.1,0-0.1-0.1-0.1l-0.4-1L206.4,184.1z"/>
	</g>
	<g>
		<defs>
			<rect id="SVGID_00000148632869273117885580000013035010270829363088_" x="-324.3" y="-476.3" width="1207.6" height="858.9"/>
		</defs>
		<clipPath id="SVGID_00000169532953501733866510000016946093256507420039_">
			<use xlink:href="#SVGID_00000148632869273117885580000013035010270829363088_"  style="overflow:visible;"/>
		</clipPath>
		
			<path id="path3029" style="clip-path:url(#SVGID_00000169532953501733866510000016946093256507420039_);fill-rule:evenodd;clip-rule:evenodd;fill:#4C4B52;" d="
			M209.3,184.1l-2-2.9c-0.1-0.2-0.1-0.3,0-0.4l-0.1-0.1l-0.5,0.4l0.1,0.1c0.1-0.1,0.2-0.1,0.2,0c0.1,0,0.1,0.1,0.2,0.3l1.4,2.1
			l-2.7-1.8l-0.3,0.3l0.1,0.1c0.1-0.1,0.2-0.1,0.3,0l1.7,2.6c0.2,0.2,0.2,0.4,0.1,0.5l0,0l0.1,0.1l0.5-0.4l-0.1-0.1
			c-0.1,0.1-0.2,0.1-0.2,0.1c-0.1,0-0.2-0.1-0.3-0.3l-1.5-2.3L209.3,184.1L209.3,184.1z"/>
	</g>
	<g>
		<defs>
			<rect id="SVGID_00000035489854281144609400000016537150959076939912_" x="-324.3" y="-476.3" width="1207.6" height="858.9"/>
		</defs>
		<clipPath id="SVGID_00000022545223907790998970000007261579817187058616_">
			<use xlink:href="#SVGID_00000035489854281144609400000016537150959076939912_"  style="overflow:visible;"/>
		</clipPath>
		
			<path id="path3031" style="clip-path:url(#SVGID_00000022545223907790998970000007261579817187058616_);fill-rule:evenodd;clip-rule:evenodd;fill:#4C4B52;" d="
			M207.8,180.5C207.8,180.5,207.8,180.4,207.8,180.5c0.1-0.1,0.1-0.1,0.2-0.1c0.3-0.2,0.6-0.2,0.9,0c0.3,0.2,0.6,0.5,1,1
			c0.3,0.5,0.5,0.9,0.6,1.3c0,0.2,0,0.4,0,0.5c0,0.1-0.1,0.2-0.3,0.3c-0.1,0.1-0.2,0.1-0.2,0c0,0-0.1-0.1-0.2-0.2L207.8,180.5z
			 M209.5,183.4c0.2,0.3,0.2,0.5,0.1,0.5l0,0l0.1,0.1l0.7-0.5c0.5-0.4,0.4-1.2-0.4-2.4c-0.7-1-1.4-1.4-2-1c0,0-0.1,0.1-0.2,0.1
			c-0.1,0.1-0.1,0.1-0.2,0.2c0,0-0.1,0.1-0.2,0.1c-0.1,0.1-0.1,0.1-0.1,0.1l0.1,0.1l0,0c0.1-0.1,0.3,0,0.5,0.3L209.5,183.4z"/>
	</g>
	<g>
		<defs>
			<rect id="SVGID_00000080903880739251160000000002872916876821426336_" x="-324.3" y="-476.3" width="1207.6" height="858.9"/>
		</defs>
		<clipPath id="SVGID_00000016068502248645758630000007108511885862730126_">
			<use xlink:href="#SVGID_00000080903880739251160000000002872916876821426336_"  style="overflow:visible;"/>
		</clipPath>
		
			<path id="path3033" style="clip-path:url(#SVGID_00000016068502248645758630000007108511885862730126_);fill-rule:evenodd;clip-rule:evenodd;fill:#4C4B52;" d="
			M209.9,178.5l0.3-0.4c0-0.1,0.3,0,0.7,0.2l0,0l-0.9-0.6l0,0c0.1,0,0.1,0.1,0,0.1l-0.8,1.1c0,0,0,0-0.1,0c0,0-0.1,0-0.1,0l0,0
			l0.8,0.6l0,0c-0.4-0.3-0.6-0.5-0.5-0.6l0.3-0.4l2.7,1.8c0.3,0.2,0.4,0.3,0.3,0.5l-0.1,0.1l0.1,0.1l0.5-0.7l-0.1-0.1l-0.1,0.1
			c-0.1,0.1-0.3,0.1-0.5-0.1L209.9,178.5z"/>
	</g>
	<g>
		<defs>
			<rect id="SVGID_00000069357468695464598680000004343601846239965370_" x="-324.3" y="-476.3" width="1207.6" height="858.9"/>
		</defs>
		<clipPath id="SVGID_00000073681550021300484750000011746493028573874835_">
			<use xlink:href="#SVGID_00000069357468695464598680000004343601846239965370_"  style="overflow:visible;"/>
		</clipPath>
		
			<path id="path3035" style="clip-path:url(#SVGID_00000073681550021300484750000011746493028573874835_);fill-rule:evenodd;clip-rule:evenodd;fill:#4C4B52;" d="
			M212,177.3L212,177.3c0.3,0.2,0.4,0.4,0.3,0.4l-0.3,0.4l-1.4-0.8l0.3-0.5c0-0.1,0.3,0,0.7,0.2l0,0l-0.8-0.4l-0.7,1.2l0.1,0.1
			l0-0.1c0.1-0.1,0.3-0.1,0.6,0.1l2.4,1.4c0.3,0.2,0.5,0.4,0.3,0.5l0,0.1l0.1,0.1l0.8-1.3l-0.8-0.5l0,0c0.2,0.2,0.4,0.3,0.4,0.4
			s0.1,0.2,0,0.3l-0.2,0.4c0,0.1-0.2,0.1-0.4-0.1l-1.2-0.7l0.3-0.4c0-0.1,0.2-0.1,0.5,0.1l0,0L212,177.3z"/>
	</g>
	<g>
		<defs>
			<rect id="SVGID_00000160175671188805671310000004309444771564759971_" x="-324.3" y="-476.3" width="1207.6" height="858.9"/>
		</defs>
		<clipPath id="SVGID_00000017481776535965621720000014519852168806945674_">
			<use xlink:href="#SVGID_00000160175671188805671310000004309444771564759971_"  style="overflow:visible;"/>
		</clipPath>
		
			<path id="path3037" style="clip-path:url(#SVGID_00000017481776535965621720000014519852168806945674_);fill-rule:evenodd;clip-rule:evenodd;fill:#4C4B52;" d="
			M212.7,175.5l-0.9-0.3l0,0l0,0c0,0,0,0,0,0.1c0,0,0,0-0.1,0.1c-0.2,0.1-0.3,0.3-0.3,0.4c-0.1,0.6,0.5,1.2,1.7,1.7
			c1.2,0.4,2,0.3,2.3-0.3c0-0.1,0.1-0.2,0.1-0.4c0-0.1,0-0.2,0-0.3c-0.3-0.2-0.5-0.3-0.8-0.5l0,0.1c0.6,0.4,0.8,0.7,0.7,1
			c-0.3,0.4-1,0.5-2.2,0.1c-1.1-0.4-1.6-0.9-1.5-1.3C211.6,175.6,212,175.5,212.7,175.5L212.7,175.5z"/>
	</g>
	<g>
		<defs>
			<rect id="SVGID_00000061468648015698349620000001531724687527060136_" x="-324.3" y="-476.3" width="1207.6" height="858.9"/>
		</defs>
		<clipPath id="SVGID_00000136397355509362851340000006548090223140534944_">
			<use xlink:href="#SVGID_00000061468648015698349620000001531724687527060136_"  style="overflow:visible;"/>
		</clipPath>
		
			<path id="path3039" style="clip-path:url(#SVGID_00000136397355509362851340000006548090223140534944_);fill-rule:evenodd;clip-rule:evenodd;fill:#4C4B52;" d="
			M213.9,174.1l1.3,0.2c0.3,0.1,0.5,0.1,0.4,0.3l0,0.1l0.1,0l0.1-0.7l-0.1,0l0,0c0,0.2-0.2,0.2-0.6,0.1l-2.7-0.5
			c-0.4-0.1-0.6-0.2-0.5-0.3l-0.1,0l-0.1,0.7l0.1,0l0-0.1c0-0.1,0.2-0.2,0.5-0.1l1.3,0.2l-0.2,1l-1.1-0.2c-0.3,0-0.4-0.1-0.5-0.1
			c-0.1,0-0.1-0.1-0.1-0.2l-0.1,0l-0.1,0.6l0.1,0c0-0.1,0.2-0.2,0.5-0.1l2.8,0.5c0.4,0.1,0.5,0.1,0.4,0.3l0,0l0.1,0l0.1-0.6l-0.1,0
			l0,0c0,0.2-0.2,0.2-0.6,0.1l-1.2-0.2L213.9,174.1z"/>
	</g>
	<g>
		<defs>
			<rect id="SVGID_00000061456412729157723470000016674686628271348921_" x="-324.3" y="-476.3" width="1207.6" height="858.9"/>
		</defs>
		<clipPath id="SVGID_00000147936181874877050260000015599871957518560954_">
			<use xlink:href="#SVGID_00000061456412729157723470000016674686628271348921_"  style="overflow:visible;"/>
		</clipPath>
		
			<path id="path3041" style="clip-path:url(#SVGID_00000147936181874877050260000015599871957518560954_);fill-rule:evenodd;clip-rule:evenodd;fill:#4C4B52;" d="
			M216.1,171.6l-3.6-0.2c-0.2,0-0.3-0.1-0.3-0.3l-0.1,0l0,0.6l0.1,0c0-0.1,0-0.2,0.1-0.2c0.1,0,0.2,0,0.4,0l2.6,0.1l-3.3,1.1l0,0.4
			l0.1,0c0-0.1,0.1-0.2,0.2-0.2l3.2,0.2c0.3,0,0.4,0.1,0.4,0.2l0,0l0.1,0l0-0.6l-0.1,0c0,0.1,0,0.2-0.1,0.2c-0.1,0-0.2,0-0.5,0
			l-2.8-0.2L216.1,171.6L216.1,171.6z"/>
	</g>
	<g>
		<defs>
			<rect id="SVGID_00000168083555255760209190000015839544918179582393_" x="-324.3" y="-476.3" width="1207.6" height="858.9"/>
		</defs>
		<clipPath id="SVGID_00000041982783841169234680000006151412453980070827_">
			<use xlink:href="#SVGID_00000168083555255760209190000015839544918179582393_"  style="overflow:visible;"/>
		</clipPath>
		
			<path id="path3043" style="clip-path:url(#SVGID_00000041982783841169234680000006151412453980070827_);fill-rule:evenodd;clip-rule:evenodd;fill:#4C4B52;" d="
			M214.1,169.6c1.2-0.1,1.9,0,2,0.4c0,0.5-0.7,0.8-2,1c-1.2,0.1-1.8-0.1-1.9-0.4C212.1,170.1,212.8,169.7,214.1,169.6 M213.8,169.4
			c-1.2,0.2-1.9,0.6-1.9,1.1c0.2,0.6,0.9,0.8,2.3,0.7c1.2-0.2,1.9-0.6,1.9-1.1C216,169.5,215.2,169.2,213.8,169.4"/>
	</g>
	<g>
		<defs>
			<rect id="SVGID_00000049201292532336980590000007913447798727632517_" x="-324.3" y="-476.3" width="1207.6" height="858.9"/>
		</defs>
		<clipPath id="SVGID_00000168098838946040719390000007452974805458938770_">
			<use xlink:href="#SVGID_00000049201292532336980590000007913447798727632517_"  style="overflow:visible;"/>
		</clipPath>
		
			<path id="path3045" style="clip-path:url(#SVGID_00000168098838946040719390000007452974805458938770_);fill-rule:evenodd;clip-rule:evenodd;fill:#4C4B52;" d="
			M214.4,167.6L214.4,167.6c0.4,0.1,0.6,0.1,0.6,0.1c0.1,0,0.2,0.1,0.2,0.1l0.1,0.4c0,0.1-0.1,0.1-0.2,0.2l-2.9,0.8
			c-0.2,0.1-0.3,0.1-0.4,0.1c-0.1,0-0.1-0.1-0.1-0.2l0-0.1l-0.1,0l0.2,0.8l0.1,0l0,0c-0.1-0.2,0.1-0.3,0.4-0.4l2.8-0.8
			c0.3-0.1,0.4-0.1,0.5,0.1l0,0.1l0.1,0l-0.3-1.2L214.4,167.6z"/>
	</g>
	<g>
		<defs>
			<rect id="SVGID_00000040549683455218447480000006445518078676375704_" x="-324.3" y="-476.3" width="1207.6" height="858.9"/>
		</defs>
		<clipPath id="SVGID_00000018922909201899038810000002286444455762887825_">
			<use xlink:href="#SVGID_00000040549683455218447480000006445518078676375704_"  style="overflow:visible;"/>
		</clipPath>
		
			<path id="path3047" style="clip-path:url(#SVGID_00000018922909201899038810000002286444455762887825_);fill-rule:evenodd;clip-rule:evenodd;fill:#4C4B52;" d="
			M212.3,164.2c-0.2,0.1-0.4,0.2-0.5,0.1l-0.1,0.1l0.4,0.6l0.1-0.1l-0.1-0.1c-0.1-0.1,0-0.3,0.3-0.5l0.7-0.5c0.2,0,0.4,0.1,0.5,0.2
			c0.2,0.5-0.2,1-1.2,1.7c-1.1,0.7-1.8,0.9-2.1,0.5c-0.2-0.3,0-0.6,0.6-1.1l0,0l-0.9,0.6l0,0c0,0,0.1,0,0.1,0c0,0,0,0,0,0.1
			c0,0.2,0,0.4,0.1,0.5c0.4,0.5,1.2,0.3,2.4-0.4c1-0.8,1.4-1.4,1.2-1.9c-0.2-0.2-0.4-0.4-0.7-0.4L212.3,164.2z"/>
	</g>
	<g>
		<defs>
			<rect id="SVGID_00000098902343417230430000000008677674511441713319_" x="-324.3" y="-476.3" width="1207.6" height="858.9"/>
		</defs>
		<clipPath id="SVGID_00000020397181401883723170000006320375750527548300_">
			<use xlink:href="#SVGID_00000098902343417230430000000008677674511441713319_"  style="overflow:visible;"/>
		</clipPath>
		
			<path id="path3049" style="clip-path:url(#SVGID_00000020397181401883723170000006320375750527548300_);fill-rule:evenodd;clip-rule:evenodd;fill:#4C4B52;" d="
			M210.9,163.5l-1,1.4c-0.1,0.1-0.2,0.2-0.2,0.2c0,0-0.1,0-0.2-0.1l-0.1,0.1l0.5,0.6l0.1-0.1c-0.1-0.1-0.1-0.1,0-0.2
			c0-0.1,0.1-0.2,0.3-0.4l1.1-1.5l0.7-0.6c0.3-0.2,0.4-0.2,0.5-0.1l0,0l0.1-0.1l-0.5-0.6l-0.1,0.1l0,0c0.1,0.1,0,0.3-0.2,0.5
			l-0.8,0.6l-1.7,0.8c-0.3,0.2-0.5,0.2-0.6,0l-0.1,0.1l0.4,0.5l0.1-0.1c-0.1-0.1-0.1-0.1,0-0.2c0-0.1,0.1-0.1,0.3-0.2L210.9,163.5z"
			/>
	</g>
	<g>
		<defs>
			<rect id="SVGID_00000175283875016970890170000013339873967475396027_" x="-324.3" y="-476.3" width="1207.6" height="858.9"/>
		</defs>
		<clipPath id="SVGID_00000157993698854575358680000017940860519239617690_">
			<use xlink:href="#SVGID_00000175283875016970890170000013339873967475396027_"  style="overflow:visible;"/>
		</clipPath>
		
			<path id="path3051" style="clip-path:url(#SVGID_00000157993698854575358680000017940860519239617690_);fill-rule:evenodd;clip-rule:evenodd;fill:#4C4B52;" d="
			M212.9,166.3c1.1-0.5,1.8-0.5,2-0.2c0.1,0.5-0.4,1-1.6,1.5c-1.1,0.5-1.8,0.5-2,0.2C211.2,167.3,211.7,166.8,212.9,166.3
			 M212.6,166.1c-1.1,0.6-1.6,1.1-1.5,1.7c0.3,0.5,1.1,0.5,2.4-0.1c1.1-0.5,1.6-1.1,1.4-1.7C214.7,165.6,213.9,165.6,212.6,166.1"/>
	</g>
</g>
</svg>
