<?xml version="1.0" encoding="utf-8"?>
<!-- Generator: Adobe Illustrator 28.0.0, SVG Export Plug-In . SVG Version: 6.00 Build 0)  -->
<svg version="1.1" id="svg1" xmlns:svg="http://www.w3.org/2000/svg"
	 xmlns="http://www.w3.org/2000/svg" xmlns:xlink="http://www.w3.org/1999/xlink" x="0px" y="0px" viewBox="0 0 39.1 39.1"
	 style="enable-background:new 0 0 39.1 39.1;" xml:space="preserve">
<style type="text/css">
	
		.st0{clip-path:url(#SVGID_00000134941711258253541200000016603165433199137967_);fill-rule:evenodd;clip-rule:evenodd;fill:#4290B7;}
	
		.st1{clip-path:url(#SVGID_00000183226369433485428000000017369326545381162927_);fill-rule:evenodd;clip-rule:evenodd;fill:#4290B7;}
	
		.st2{clip-path:url(#SVGID_00000088831955182361669820000016120124210354893702_);fill-rule:evenodd;clip-rule:evenodd;fill:#4290B7;}
	
		.st3{clip-path:url(#SVGID_00000162314807443041122860000011666767536482827924_);fill-rule:evenodd;clip-rule:evenodd;fill:#4290B7;}
	
		.st4{clip-path:url(#SVGID_00000016073732508128699680000009666724527125203368_);fill-rule:evenodd;clip-rule:evenodd;fill:#4290B7;}
	
		.st5{clip-path:url(#SVGID_00000180345387997088410940000000282518844933098373_);fill-rule:evenodd;clip-rule:evenodd;fill:#4290B7;}
	
		.st6{clip-path:url(#SVGID_00000124126295947041917490000004163740961275238585_);fill-rule:evenodd;clip-rule:evenodd;fill:#4290B7;}
	
		.st7{clip-path:url(#SVGID_00000099655797775853515940000002863160218435398833_);fill-rule:evenodd;clip-rule:evenodd;fill:#4290B7;}
	
		.st8{clip-path:url(#SVGID_00000127731685539173629550000017447146749571690129_);fill-rule:evenodd;clip-rule:evenodd;fill:#4290B7;}
	
		.st9{clip-path:url(#SVGID_00000158720083649229835720000006309012392039621820_);fill-rule:evenodd;clip-rule:evenodd;fill:#4290B7;}
	
		.st10{clip-path:url(#SVGID_00000160156910998697256640000012247035212894141119_);fill-rule:evenodd;clip-rule:evenodd;fill:#4290B7;}
	
		.st11{clip-path:url(#SVGID_00000079454095284403443160000005738880497886367411_);fill-rule:evenodd;clip-rule:evenodd;fill:#4290B7;}
	
		.st12{clip-path:url(#SVGID_00000099631065366640584230000009338647204972750525_);fill-rule:evenodd;clip-rule:evenodd;fill:#4290B7;}
	
		.st13{clip-path:url(#SVGID_00000084491924238219064050000007818717507520435631_);fill-rule:evenodd;clip-rule:evenodd;fill:#4290B7;}
	
		.st14{clip-path:url(#SVGID_00000119106276465902716690000011116806685818395056_);fill-rule:evenodd;clip-rule:evenodd;fill:#4290B7;}
	
		.st15{clip-path:url(#SVGID_00000021121404033819591400000011698438354342422951_);fill-rule:evenodd;clip-rule:evenodd;fill:#4290B7;}
	
		.st16{clip-path:url(#SVGID_00000152945209802466136760000016899885066907805826_);fill-rule:evenodd;clip-rule:evenodd;fill:#4290B7;}
	
		.st17{clip-path:url(#SVGID_00000127024218013245152000000013771893753395301514_);fill-rule:evenodd;clip-rule:evenodd;fill:#4290B7;}
</style>
<g id="layer1" transform="translate(-64.981133,-196.49442)">
	<g>
		<defs>
			<rect id="SVGID_1_" x="-138.1" y="-557.2" width="1207.6" height="858.9"/>
		</defs>
		<clipPath id="SVGID_00000095340993437698749860000005325555063834987144_">
			<use xlink:href="#SVGID_1_"  style="overflow:visible;"/>
		</clipPath>
		
			<path id="path3571" style="clip-path:url(#SVGID_00000095340993437698749860000005325555063834987144_);fill-rule:evenodd;clip-rule:evenodd;fill:#4290B7;" d="
			M70.9,222.6c-0.1-0.2-0.2-0.3-0.3-0.4c-0.1-0.1-0.2-0.1-0.3,0c-0.1,0.1-0.2,0.1-0.2,0.2c0,0.1,0,0.2,0.1,0.4
			c0,0.1,0.1,0.1,0.1,0.2c0,0,0.1,0,0.1,0l0.5-0.2c0,0,0.1,0,0.1-0.1C71,222.8,71,222.7,70.9,222.6L70.9,222.6z"/>
	</g>
	<g>
		<defs>
			<rect id="SVGID_00000093159003642474673700000011909171393100940952_" x="-138.1" y="-557.2" width="1207.6" height="858.9"/>
		</defs>
		<clipPath id="SVGID_00000054968504362767712900000017283901662642787477_">
			<use xlink:href="#SVGID_00000093159003642474673700000011909171393100940952_"  style="overflow:visible;"/>
		</clipPath>
		
			<path id="path3573" style="clip-path:url(#SVGID_00000054968504362767712900000017283901662642787477_);fill-rule:evenodd;clip-rule:evenodd;fill:#4290B7;" d="
			M71.7,222.1c-0.1-0.1-0.2-0.2-0.3-0.3c-0.1,0-0.2,0-0.3,0c-0.1,0.1-0.2,0.1-0.2,0.3c0,0.1,0,0.3,0.1,0.4l0,0.1c0,0,0,0.1,0.1,0.1
			c0,0,0,0,0.1,0l0.5-0.2c0,0,0.1,0,0.1-0.1C71.8,222.3,71.8,222.3,71.7,222.1L71.7,222.1z"/>
	</g>
	<g>
		<defs>
			<rect id="SVGID_00000141454697262261636690000000937420335199689107_" x="-138.1" y="-557.2" width="1207.6" height="858.9"/>
		</defs>
		<clipPath id="SVGID_00000016062598213178390060000000062687760861608843_">
			<use xlink:href="#SVGID_00000141454697262261636690000000937420335199689107_"  style="overflow:visible;"/>
		</clipPath>
		
			<path id="path3575" style="clip-path:url(#SVGID_00000016062598213178390060000000062687760861608843_);fill-rule:evenodd;clip-rule:evenodd;fill:#4290B7;" d="
			M86.6,224c-0.1,0.1-0.1,0-0.2,0c-0.1,0-0.4,0.2-0.4,0.4c0,0,0,0,0,0C86.2,224.4,86.7,224.1,86.6,224C86.7,224,86.7,224,86.6,224"
			/>
	</g>
	<g>
		<defs>
			<rect id="SVGID_00000036944407499442840300000008043940299022552734_" x="-138.1" y="-557.2" width="1207.6" height="858.9"/>
		</defs>
		<clipPath id="SVGID_00000138531620651414983280000007885030214422679187_">
			<use xlink:href="#SVGID_00000036944407499442840300000008043940299022552734_"  style="overflow:visible;"/>
		</clipPath>
		
			<path id="path3577" style="clip-path:url(#SVGID_00000138531620651414983280000007885030214422679187_);fill-rule:evenodd;clip-rule:evenodd;fill:#4290B7;" d="
			M86.2,223.5C86.2,223.5,86.2,223.5,86.2,223.5L86.2,223.5C86.2,223.6,86.2,223.6,86.2,223.5c0,0.1,0,0.1,0,0.1
			C86.2,223.6,86.2,223.6,86.2,223.5C86.2,223.6,86.2,223.6,86.2,223.5"/>
	</g>
	<g>
		<defs>
			<rect id="SVGID_00000103226614216367267750000002394634086658759552_" x="-138.1" y="-557.2" width="1207.6" height="858.9"/>
		</defs>
		<clipPath id="SVGID_00000014624997030320850670000011687783495607466415_">
			<use xlink:href="#SVGID_00000103226614216367267750000002394634086658759552_"  style="overflow:visible;"/>
		</clipPath>
		
			<path id="path3579" style="clip-path:url(#SVGID_00000014624997030320850670000011687783495607466415_);fill-rule:evenodd;clip-rule:evenodd;fill:#4290B7;" d="
			M86.2,223.4c0.1,0,0.1-0.1,0.1-0.2h0C86.3,223.2,86.2,223.2,86.2,223.4C86.1,223.3,86.2,223.3,86.2,223.4L86.2,223.4z"/>
	</g>
	<g>
		<defs>
			<rect id="SVGID_00000050662712628431266090000010972170803557700281_" x="-138.1" y="-557.2" width="1207.6" height="858.9"/>
		</defs>
		<clipPath id="SVGID_00000173854922068444507890000013258478620911547578_">
			<use xlink:href="#SVGID_00000050662712628431266090000010972170803557700281_"  style="overflow:visible;"/>
		</clipPath>
		
			<path id="path3581" style="clip-path:url(#SVGID_00000173854922068444507890000013258478620911547578_);fill-rule:evenodd;clip-rule:evenodd;fill:#4290B7;" d="
			M86.2,226.3L86.2,226.3c-0.1,0.1-0.2,0.1-0.2,0.2c0,0,0,0,0,0.1c0.1,0,0.2,0,0.2-0.1C86.2,226.4,86.2,226.3,86.2,226.3
			C86.2,226.3,86.2,226.3,86.2,226.3"/>
	</g>
	<g>
		<defs>
			<rect id="SVGID_00000183241639667502234890000012411536968861163655_" x="-138.1" y="-557.2" width="1207.6" height="858.9"/>
		</defs>
		<clipPath id="SVGID_00000127735764433552302800000004193655638749765510_">
			<use xlink:href="#SVGID_00000183241639667502234890000012411536968861163655_"  style="overflow:visible;"/>
		</clipPath>
		
			<path id="path3583" style="clip-path:url(#SVGID_00000127735764433552302800000004193655638749765510_);fill-rule:evenodd;clip-rule:evenodd;fill:#4290B7;" d="
			M86.7,223c0.1-0.1,0.3-0.2,0.2-0.3h0C86.8,222.7,86.6,222.8,86.7,223L86.7,223z"/>
	</g>
	<g>
		<defs>
			<rect id="SVGID_00000181046181153283626090000015503342512392168620_" x="-138.1" y="-557.2" width="1207.6" height="858.9"/>
		</defs>
		<clipPath id="SVGID_00000075159186362643503340000010428403035720469175_">
			<use xlink:href="#SVGID_00000181046181153283626090000015503342512392168620_"  style="overflow:visible;"/>
		</clipPath>
		
			<path id="path3585" style="clip-path:url(#SVGID_00000075159186362643503340000010428403035720469175_);fill-rule:evenodd;clip-rule:evenodd;fill:#4290B7;" d="
			M94,223.4c-0.1,0-0.1,0.1-0.1,0.3c0,0,0,0,0.1,0C94.1,223.7,94.1,223.5,94,223.4L94,223.4z"/>
	</g>
	<g>
		<defs>
			<rect id="SVGID_00000126321457535073469030000014852228567814099085_" x="-138.1" y="-557.2" width="1207.6" height="858.9"/>
		</defs>
		<clipPath id="SVGID_00000167370479441518793660000008082711358683551404_">
			<use xlink:href="#SVGID_00000126321457535073469030000014852228567814099085_"  style="overflow:visible;"/>
		</clipPath>
		
			<path id="path3587" style="clip-path:url(#SVGID_00000167370479441518793660000008082711358683551404_);fill-rule:evenodd;clip-rule:evenodd;fill:#4290B7;" d="
			M78.4,225.7c0,0-0.3,0.2-0.3,0.3C78.2,226,78.5,225.7,78.4,225.7"/>
	</g>
	<g>
		<defs>
			<rect id="SVGID_00000081623252680756670940000003153883630026417812_" x="-138.1" y="-557.2" width="1207.6" height="858.9"/>
		</defs>
		<clipPath id="SVGID_00000159446587309116361920000015599939785958355606_">
			<use xlink:href="#SVGID_00000081623252680756670940000003153883630026417812_"  style="overflow:visible;"/>
		</clipPath>
		
			<path id="path3589" style="clip-path:url(#SVGID_00000159446587309116361920000015599939785958355606_);fill-rule:evenodd;clip-rule:evenodd;fill:#4290B7;" d="
			M99.2,212.8c-0.3,0-0.5,0.1-0.6,0.3c-0.1,0.1-0.2,0.3-0.2,0.5c0,0.2,0.1,0.3,0.3,0.4c0.2,0.1,0.4,0.1,0.7,0.1
			c0.3,0,0.5-0.1,0.6-0.3c0.1-0.1,0.2-0.3,0.2-0.5c0-0.2-0.1-0.3-0.3-0.4C99.7,212.8,99.5,212.8,99.2,212.8"/>
	</g>
	<g>
		<defs>
			<rect id="SVGID_00000160873861685552801910000003495934275370896296_" x="-138.1" y="-557.2" width="1207.6" height="858.9"/>
		</defs>
		<clipPath id="SVGID_00000009569380946023451320000008821698977149897857_">
			<use xlink:href="#SVGID_00000160873861685552801910000003495934275370896296_"  style="overflow:visible;"/>
		</clipPath>
		
			<path id="path3591" style="clip-path:url(#SVGID_00000009569380946023451320000008821698977149897857_);fill-rule:evenodd;clip-rule:evenodd;fill:#4290B7;" d="
			M99.5,217.3c-0.3,0-0.5,0-0.7,0.1c-0.2,0.1-0.3,0.2-0.3,0.4c0,0.2,0,0.4,0.2,0.5c0.1,0.1,0.3,0.2,0.6,0.3c0.3,0,0.5,0,0.7-0.1
			c0.2-0.1,0.3-0.2,0.3-0.4c0-0.2,0-0.4-0.2-0.5C100,217.4,99.8,217.3,99.5,217.3"/>
	</g>
	<g>
		<defs>
			<rect id="SVGID_00000069385898610326093290000003746629459208605068_" x="-138.1" y="-557.2" width="1207.6" height="858.9"/>
		</defs>
		<clipPath id="SVGID_00000051381546464910828060000011043026171779964093_">
			<use xlink:href="#SVGID_00000069385898610326093290000003746629459208605068_"  style="overflow:visible;"/>
		</clipPath>
		
			<path id="path3593" style="clip-path:url(#SVGID_00000051381546464910828060000011043026171779964093_);fill-rule:evenodd;clip-rule:evenodd;fill:#4290B7;" d="
			M88.8,202.6c0.2,0.1,0.4,0,0.5-0.1c0.2-0.1,0.3-0.3,0.4-0.6c0.1-0.3,0.1-0.5,0-0.7c-0.1-0.2-0.2-0.3-0.4-0.4
			c-0.2-0.1-0.4,0-0.5,0.1c-0.2,0.1-0.3,0.3-0.4,0.5c-0.1,0.3-0.1,0.5,0,0.7C88.5,202.4,88.7,202.5,88.8,202.6"/>
	</g>
	<g>
		<defs>
			<rect id="SVGID_00000178166507612884511100000013158445943244997797_" x="-138.1" y="-557.2" width="1207.6" height="858.9"/>
		</defs>
		<clipPath id="SVGID_00000073684624513913505670000002463641778482320319_">
			<use xlink:href="#SVGID_00000178166507612884511100000013158445943244997797_"  style="overflow:visible;"/>
		</clipPath>
		
			<path id="path3595" style="clip-path:url(#SVGID_00000073684624513913505670000002463641778482320319_);fill-rule:evenodd;clip-rule:evenodd;fill:#4290B7;" d="
			M78.5,202.2C78.5,202.2,78.6,202.2,78.5,202.2C78.6,202.2,78.6,202.2,78.5,202.2c0.3,0,0.4-0.1,0.5-0.2c0.1-0.1,0.1-0.2,0-0.4
			c-0.1-0.1-0.1-0.2-0.2-0.2c-0.1,0-0.2,0-0.4,0.1c-0.1,0-0.1,0.1-0.1,0.1c0,0,0,0.1,0,0.1L78.5,202.2z"/>
	</g>
	<g>
		<defs>
			<rect id="SVGID_00000084503376406443869230000011456542448140218798_" x="-138.1" y="-557.2" width="1207.6" height="858.9"/>
		</defs>
		<clipPath id="SVGID_00000093166895508110192180000011802418470201210554_">
			<use xlink:href="#SVGID_00000084503376406443869230000011456542448140218798_"  style="overflow:visible;"/>
		</clipPath>
		
			<path id="path3597" style="clip-path:url(#SVGID_00000093166895508110192180000011802418470201210554_);fill-rule:evenodd;clip-rule:evenodd;fill:#4290B7;" d="
			M86.6,228c-0.1,0-0.2,0-0.3,0.1c-0.1,0.1-0.1,0.2-0.1,0.3v0.6c0,0.1,0,0.3,0.1,0.3c0.1,0.1,0.2,0.1,0.3,0.1s0.2,0,0.3-0.1
			c0.1-0.1,0.1-0.2,0.1-0.3v-0.6c0-0.1,0-0.2-0.1-0.3C86.9,228.1,86.8,228,86.6,228"/>
	</g>
	<g>
		<defs>
			<rect id="SVGID_00000177450493471118809640000006525619547279834754_" x="-138.1" y="-557.2" width="1207.6" height="858.9"/>
		</defs>
		<clipPath id="SVGID_00000043415924618316840470000003755462016531398335_">
			<use xlink:href="#SVGID_00000177450493471118809640000006525619547279834754_"  style="overflow:visible;"/>
		</clipPath>
		
			<path id="path3599" style="clip-path:url(#SVGID_00000043415924618316840470000003755462016531398335_);fill-rule:evenodd;clip-rule:evenodd;fill:#4290B7;" d="
			M100.4,215.7c0-0.1,0-0.2-0.1-0.2c0,0-0.1-0.1-0.2-0.1l-1.3,0c-0.1,0-0.1,0-0.2,0c0,0,0,0.1,0,0.2l0,0.3c0,0.1,0,0.3,0.1,0.3
			c0.1,0.1,0.2,0.2,0.3,0.2l0,0.1l-0.5-0.1l0-1.6l0.1,0l0,0c0,0.1,0,0.2,0.1,0.2c0,0,0.1,0.1,0.2,0l1.2,0c0.1,0,0.2,0,0.2-0.1
			c0,0,0-0.1,0-0.2l0.1,0L100.4,215.7L100.4,215.7L100.4,215.7z M100.4,218c0,0.3-0.2,0.5-0.4,0.7c-0.2,0.2-0.4,0.2-0.7,0.2
			c-0.3,0-0.5-0.2-0.7-0.4c-0.2-0.2-0.2-0.4-0.2-0.7c0-0.3,0.2-0.5,0.4-0.7c0.2-0.2,0.4-0.2,0.7-0.2c0.3,0,0.5,0.2,0.7,0.4
			C100.4,217.5,100.4,217.8,100.4,218 M99.9,220.7c0,0.1-0.1,0.2-0.2,0.3c-0.1,0.1-0.1,0.2-0.1,0.2c0,0,0,0,0,0.1c0,0,0,0,0.1,0.1
			l0,0l-0.6-0.1l0-0.1c0.2,0,0.3-0.1,0.4-0.1c0.1-0.1,0.2-0.2,0.2-0.3c0.1-0.2,0-0.4-0.1-0.6s-0.3-0.3-0.6-0.4
			c-0.3-0.1-0.5-0.1-0.7,0c-0.2,0.1-0.3,0.2-0.4,0.5c0,0.1,0,0.2,0,0.2c0,0.1,0,0.2,0.1,0.2l0.5,0.1c0.1,0,0.2,0,0.2,0
			c0,0,0.1-0.1,0.1-0.2l0.1,0l-0.2,0.8l-0.1,0c0-0.1,0-0.2,0-0.2c0,0-0.1-0.1-0.2-0.1l-0.5-0.1c0-0.1-0.1-0.3-0.1-0.4s0-0.3,0.1-0.4
			c0.1-0.3,0.2-0.5,0.5-0.6c0.2-0.1,0.5-0.2,0.7-0.1c0.3,0.1,0.5,0.2,0.6,0.5C99.9,220.1,99.9,220.4,99.9,220.7 M99.1,222.6
			L99.1,222.6c0-0.1,0-0.2,0-0.2c0,0,0-0.1,0-0.1c0,0-0.1,0-0.1,0c0,0,0,0,0,0l-0.8,0.1l0.4,0.6c0,0.1,0.1,0.1,0.1,0.1c0,0,0,0,0,0
			c0,0,0,0,0.1,0c0,0,0.1-0.1,0.1-0.1l0.1,0l-0.2,0.5l-0.1,0c0-0.1,0-0.1,0-0.2c0-0.1,0-0.1-0.1-0.2l-0.5-0.8l-0.5-0.2
			c-0.1,0-0.1,0-0.2,0c0,0-0.1,0.1-0.1,0.2l-0.1,0l0.3-0.8l0.1,0l0,0c0,0.1-0.1,0.2,0,0.2c0,0.1,0.1,0.1,0.1,0.1l0.5,0.2l1-0.2
			c0.1,0,0.1,0,0.2-0.1c0,0,0.1-0.1,0.1-0.1l0.1,0L99.1,222.6z M97.9,209.2l-0.4-0.7c0,0,0,0,0,0c0,0,0,0-0.1,0l-0.4,0.3
			c-0.1,0-0.1,0.1-0.1,0.1c0,0,0,0.1,0.1,0.2l-0.1,0l-0.4-0.7l0,0c0.1,0.1,0.1,0.2,0.2,0.2c0,0,0.1,0,0.2-0.1l1.1-0.6
			c0.1,0,0.1-0.1,0.1-0.1c0-0.1,0-0.1-0.1-0.2l0,0l0.4,0.7l0,0c-0.1-0.1-0.1-0.1-0.2-0.2c0,0-0.1,0-0.2,0.1l-0.4,0.2c0,0,0,0-0.1,0
			c0,0,0,0,0,0.1L97.9,209.2c0.1,0,0.1,0,0.1,0c0,0,0,0,0.1,0l0.4-0.2c0.1,0,0.1-0.1,0.1-0.1c0,0,0-0.1-0.1-0.2l0,0l0.4,0.7l0,0
			c-0.1-0.1-0.1-0.1-0.2-0.2c0,0-0.1,0-0.2,0l-1.1,0.6c-0.1,0-0.1,0.1-0.1,0.1c0,0.1,0,0.1,0.1,0.2l0,0l-0.4-0.7l0.1,0
			c0.1,0.1,0.1,0.1,0.2,0.2c0,0,0.1,0,0.2,0l0.4-0.3C97.9,209.3,97.9,209.3,97.9,209.2C97.9,209.3,97.9,209.2,97.9,209.2
			 M95.7,207.6c-0.2-0.2-0.3-0.5-0.2-0.7c0-0.3,0.2-0.5,0.4-0.7c0.2-0.2,0.5-0.3,0.7-0.2c0.3,0,0.5,0.2,0.7,0.4
			c0.1,0.1,0.1,0.2,0.2,0.3c0,0.1,0.1,0.2,0.1,0.2c0,0,0,0,0.1,0s0,0,0.1,0l0,0l-0.4,0.4l0,0c0.1-0.1,0.1-0.3,0.2-0.4
			c0-0.1,0-0.3-0.1-0.4c-0.1-0.2-0.3-0.3-0.5-0.3c-0.2,0-0.4,0.1-0.6,0.2c-0.2,0.2-0.3,0.3-0.4,0.5s0,0.4,0.1,0.5
			c0.1,0.1,0.2,0.2,0.3,0.2c0.1,0.1,0.3,0.1,0.4,0.1l0,0.1c-0.2,0-0.3,0-0.5-0.1C96,207.8,95.8,207.7,95.7,207.6 M95.3,224
			c0,0.1-0.1,0.1-0.1,0.1c-0.2,0.3-0.4,0.5-0.7,0.6c-0.1,0-0.2,0-0.3,0.1c-0.2,0.1-0.3,0.2-0.5,0.2l0,0v0c0.2-0.2,0.8-0.5,0.9-0.8
			l0,0c-0.1,0-0.2,0.1-0.3,0.1c0,0-0.1,0-0.1,0c-0.1,0-0.1,0.1-0.2,0.1c-0.3,0.2-0.5,0.3-0.7,0.5c-0.1,0.1-0.5,0-0.5,0c0,0,0,0,0,0
			c0,0,0.1-0.1,0.1-0.1c0,0,0,0,0-0.1c-0.4-0.1-0.3-0.2-0.4-0.5c0-0.1-0.1-0.2-0.1-0.3c0.3,0,0.4,0.3,0.5,0.6c0,0.1,0,0.2,0,0.2
			c0.2,0.1,0.8-0.3,0.9-0.4c0.1,0,0.3-0.1,0.3-0.2c0-0.1,0-0.1-0.1-0.2h0c-0.1,0.1-0.1,0.1-0.3,0.1c-0.1,0.1-0.4,0.4-0.5,0.3
			c0,0,0,0,0,0c0-0.1,0.3-0.4,0.2-0.5c0-0.1-0.1-0.1-0.1-0.1c0-0.1,0-0.1,0-0.1c0.1,0,0.2,0,0.3,0c0-0.1,0.2-0.3,0.1-0.4h0
			c-0.1,0-0.1,0.1-0.1,0.1c-0.1,0-0.1,0-0.2,0.1c-0.1,0-0.1,0.1-0.2,0.1c0,0,0,0-0.1,0c0,0,0,0,0,0v-0.1c0.1-0.1,0.1-0.1,0.2-0.2v0
			c0-0.1-0.1-0.1-0.2-0.1c0,0,0,0,0,0c0.1-0.1,0.3-0.1,0.4-0.2c0,0,0.2-0.3,0.2-0.3c0-0.1-0.1-0.1-0.1-0.2c0,0,0.1,0,0.1-0.1
			c0.1,0,0.2,0,0.3,0.1c0.2,0.2,0.2,0.3,0,0.5c0,0,0,0,0,0.1c0.1,0,0.2,0.1,0.2,0.3c0,0,0,0.1,0,0.1c0,0,0.2,0.1,0.2,0.1
			c0,0.1,0,0.2,0,0.3c0,0,0,0,0,0c0.1-0.2,0.2-0.4,0.3-0.5c0-0.1,0.1-0.1,0.1-0.2c0,0,0-0.1-0.1-0.1c0-0.1,0-0.1,0.1-0.2
			c0.1,0,0.3-0.1,0.4,0c0,0.1,0.1,0.2,0,0.3c0,0.1-0.2,0.3-0.2,0.4c0,0,0,0.1,0,0.1c0,0,0,0-0.1,0.1c0,0-0.1,0.1-0.1,0.1
			c-0.1,0.1-0.3,0.3-0.2,0.4c0,0,0,0,0,0c0.2,0,0.2-0.2,0.3-0.2C95,223.6,95.4,223.8,95.3,224 M94.8,225.7c-0.1,0.1-0.2,0.1-0.3,0.1
			c-0.1,0-0.2,0.1-0.2,0.1c-0.1,0-0.1,0.1-0.2,0.1c0-0.1,0.1-0.1,0.1-0.1h0c-0.1,0-0.1,0-0.1,0.1c0,0.1,0.1,0.2,0.1,0.3
			c0.1,0.3-0.2,0.5-0.4,0.5c-0.2,0.1-0.8-0.1-0.8-0.3l0,0c0.3-0.1,0.7,0.3,0.8-0.2c0,0,0-0.1,0-0.2c0,0,0,0,0,0
			c-0.1,0.1-0.2,0.1-0.3,0.2c-0.2,0.1-0.5,0-0.6-0.1v0c0.1-0.1,0.2-0.1,0.4-0.1c0,0,0,0,0.1-0.1c0.1-0.1,0.3-0.1,0.4-0.2
			c0,0,0-0.1,0-0.2c0-0.1,0.1-0.2,0.1-0.2c-0.1-0.1-0.3-0.1-0.2-0.4l0,0c0.2,0,0.5,0,0.5,0.2c0,0.2-0.2,0.2-0.1,0.4
			c0.2,0.1,0.3-0.2,0.5-0.2c0.1,0,0.1,0,0.1,0C94.7,225.5,94.8,225.6,94.8,225.7 M92.1,226c-0.1,0-0.3-0.1-0.3-0.2
			c0-0.2,0.1-0.3,0.2-0.4c0-0.1,0-0.1,0-0.2c0,0,0.1-0.1,0.1-0.1C92.5,225.1,92.3,225.9,92.1,226 M91.4,226c-0.2,0-0.5,0-0.6-0.1
			c-0.1-0.1,0-0.2-0.1-0.3c-0.1-0.1-0.3-0.2-0.2-0.4c0,0,0.1,0,0.1,0c0.2,0,0.2,0.1,0.3,0.1c0.1,0,0.4,0.2,0.5,0.2
			c0,0.1,0,0.1,0,0.2C91.5,225.8,91.5,225.9,91.4,226 M90.3,224.3c-0.1,0.1-0.2,0.1-0.3,0.2c0,0.1,0,0.1,0,0.2
			c-0.1,0.2-0.1,0.4-0.1,0.6c0,0.1-0.1,0.2-0.1,0.3c-0.2,0.3-0.4,0.5-0.9,0.6c0,0-0.1,0-0.1,0c-0.2,0-0.4,0-0.5,0c0,0,0,0,0,0
			c0.1-0.2,0.3-0.1,0.5-0.1c0.3-0.1,0.6-0.4,0.7-0.7c0.1-0.1,0.1-0.3,0.1-0.4c0,0,0,0,0,0c-0.2,0.1-0.4,0.3-0.6,0.4
			c-0.2,0.2-0.3,0.3-0.6,0.4c-0.4,0.1-0.5,0-0.5-0.4c0.1,0,0.1,0,0.2,0c0.1,0,0.2-0.1,0.3-0.1c0.3-0.1,0.5-0.3,0.8-0.4
			c0.1-0.1,0.4-0.2,0.4-0.3c0.1-0.1,0-0.9-0.1-1.1c-0.1-0.2-0.3-0.3-0.1-0.7c0,0,0,0,0,0c0.2,0,0.7,0.3,0.7,0.5c0,0.2,0,0.4,0,0.6
			c0,0.1,0,0.2,0,0.3c0.1,0,0.1,0,0.2-0.1c0.2-0.1,0.3-0.3,0.4-0.4c0.1-0.1,0.3,0,0.3,0.1c0.1,0.2-0.1,0.3-0.2,0.3
			c-0.1,0.1-0.2,0.1-0.3,0.2C90.4,224.2,90.3,224.3,90.3,224.3 M87.3,223.6c0,0-0.1,0-0.1,0c-0.2,0.1-0.3,0.2-0.5,0.3l0,0h0
			c0.1,0,0.1-0.1,0.1-0.1c0.2-0.1,0.4,0.1,0.4,0.2c-0.1,0.2-0.3,0.3-0.5,0.4c0,0-0.1,0-0.1,0.1c0,0.1,0,0.1,0,0.2c0,0,0,0,0,0
			c0,0,0,0-0.1,0v0c0,0.1,0.1,0.1,0.1,0.2c0,0,0.1,0,0.1,0.1c0,0.1,0,0.1,0,0.2c0,0.1-0.1,0.3-0.1,0.4c-0.1,0.2-0.2,0.4-0.1,0.7l0,0
			c0,0,0,0,0,0c0.2-0.1,0.1-0.4,0.3-0.5c0.1,0,0.4,0.2,0.3,0.5c-0.1,0-0.5,0.2-0.6,0.3c-0.1,0.1,0.1,0.4-0.2,0.4
			c0,0-0.1-0.1-0.1-0.1c-0.1-0.1-0.3-0.2-0.4-0.2c-0.1,0.1-0.1,0.2-0.2,0.3c-0.1,0-0.6-0.3-0.3-0.5c0.1,0,0.1,0,0.2,0
			c0.1,0,0.6-0.2,0.6-0.2c0.1-0.2-0.1-0.2-0.1-0.4c0,0,0.1-0.1,0.2-0.1c0,0,0,0,0,0c-0.1-0.1-0.3-0.1-0.2-0.3c0,0,0.2,0,0.2-0.1
			c0,0,0,0,0-0.1c0,0,0,0,0,0c-0.1-0.1-0.1,0-0.3-0.1l0,0c0-0.1,0.1-0.1,0.2-0.1c0.1-0.1,0.2-0.1,0.2-0.3c0,0,0.1,0,0.1-0.1
			c0,0,0,0,0,0c-0.1,0-0.1,0-0.1,0c-0.1,0-0.2,0.1-0.2,0.1c-0.1,0.1-0.1,0.3-0.3,0.3c-0.1-0.2,0-0.2,0-0.4l0,0
			c-0.1,0-0.2,0.1-0.3,0.2c-0.1,0.1-0.2,0.1-0.3,0.2c-0.2,0.1-0.3,0.4-0.6,0.4c-0.1,0-0.2,0-0.3,0.1c-0.1,0-0.2,0-0.3,0c0,0,0,0,0,0
			c0-0.2,0.4-0.4,0.5-0.5c0.2-0.1,0.3-0.2,0.4-0.3c0.2-0.2,0.5-0.3,0.8-0.4c0.1-0.1,0.5-0.2,0.6-0.3c0,0,0,0,0-0.1h0
			c-0.1,0-0.1,0-0.2,0.1c-0.1,0-0.2-0.1-0.3-0.1c-0.1,0-0.1,0.1-0.2,0.1c-0.2,0-0.5-0.1-0.4-0.3c0.2-0.1,0.5-0.1,0.6-0.3
			c0,0,0-0.1,0-0.2c0-0.1,0-0.1,0.1-0.2c0-0.1,0-0.2,0-0.2c0.3-0.1,0.3,0.2,0.4,0.4c0,0,0,0,0,0c0.1-0.1,0.2-0.2,0.2-0.3
			c0,0,0-0.1,0-0.1c0-0.2,0-0.3,0.1-0.4c0.3,0,0.2,0.3,0.3,0.3c0.1-0.1,0.2-0.2,0.4-0.2c0.2,0,0.4,0.1,0.4,0.3
			c-0.1,0.2-0.5,0.5-0.7,0.6c-0.1,0-0.1,0-0.2,0.1c0,0-0.1,0.2-0.1,0.3c0,0.1,0.3-0.1,0.3-0.1c0.2-0.1,0.3-0.2,0.5-0.3
			c0.1-0.1,0.1-0.1,0.2-0.2c0.2-0.1,0.3-0.1,0.4,0.1c0.1,0.2-0.1,0.3-0.2,0.3c-0.1,0.1-0.2,0-0.3,0.1
			C87.5,223.5,87.4,223.5,87.3,223.6 M87.2,229c0,0.1,0,0.2,0,0.2c0,0.1,0,0.1-0.1,0.2c-0.1,0.1-0.1,0.1-0.2,0.2
			c-0.1,0-0.2,0.1-0.3,0.1c-0.1,0-0.2,0-0.3-0.1c-0.1,0-0.2-0.1-0.2-0.2c0,0-0.1-0.1-0.1-0.2c0-0.1,0-0.1,0-0.2v-0.5
			c0-0.1,0-0.2,0-0.2s0-0.1,0.1-0.2c0.1-0.1,0.1-0.1,0.2-0.2c0.1,0,0.2-0.1,0.3-0.1c0.2,0,0.3,0.1,0.4,0.2c0.1,0.1,0.2,0.3,0.2,0.5
			L87.2,229z M85.6,229.5c-0.1,0.1-0.2,0.2-0.4,0.2c-0.2,0-0.3-0.1-0.4-0.2c-0.1-0.1-0.2-0.2-0.2-0.4c0-0.1,0.1-0.3,0.2-0.5
			c0,0,0,0,0,0l0.4-0.6h0.2l-0.4,0.6c0,0,0.1,0,0.1,0c0,0,0.1,0,0.1,0c0.2,0,0.3,0.1,0.4,0.2c0.1,0.1,0.2,0.2,0.2,0.4
			C85.7,229.2,85.7,229.4,85.6,229.5 M84,229C84,229,84,229,84,229l-0.4,0.7h-0.2l0.4-0.6c0,0-0.1,0-0.1,0c0,0-0.1,0-0.1,0
			c-0.2,0-0.3-0.1-0.4-0.2c-0.1-0.1-0.2-0.2-0.2-0.4c0-0.2,0.1-0.3,0.2-0.4c0.1-0.1,0.2-0.2,0.4-0.2c0.2,0,0.3,0.1,0.4,0.2
			c0.1,0.1,0.2,0.2,0.2,0.4C84.2,228.6,84.2,228.7,84,229 M82.4,225.2C82.3,225.2,82.3,225.2,82.4,225.2c0-0.1,0-0.1,0.1-0.2v0l0,0
			c-0.1,0-0.4,0.2-0.5,0.3c-0.4,0.3-0.8,0.5-1.3,0.8c-0.2,0.1-0.6-0.1-0.6-0.3c0.1-0.1,0.4-0.2,0.6-0.3c0.3-0.1,0.6-0.3,0.9-0.4
			c0.1-0.1,0.4-0.1,0.5-0.3c-0.1-0.1,0-0.2,0-0.3c0-0.3,0.1-0.5,0.2-0.7c0-0.1,0.1-0.2,0.1-0.3l0,0c-0.1,0.1-0.2,0.2-0.3,0.2
			c-0.2,0-0.7-0.4-0.6-0.6c0.1,0,0.1-0.1,0.2-0.1h0.3c0.3,0,0.5,0,0.7-0.1c0.2,0,0.6,0.2,0.5,0.4c-0.1,0.2-0.2,0.4-0.3,0.5
			c-0.1,0.1-0.1,0.2-0.2,0.4c0,0.1-0.2,0.3-0.1,0.4l0,0c0.2-0.1,0.4-0.2,0.6-0.3c0.1,0,0.2-0.1,0.3-0.1c0,0,0.1,0,0.1-0.1
			c0.2,0,0.4,0.2,0.4,0.3c-0.1,0.2-0.4,0.3-0.6,0.3c-0.1,0-0.1,0-0.2,0C82.8,225.1,82.5,225.2,82.4,225.2 M82.3,229.6h-0.2v-1.6
			h-0.3v-0.1h0.5V229.6z M79.9,223.1l-0.2,0c-0.2,0-0.3,0.2-0.4,0.2c-0.2,0.1-0.3,0.1-0.4,0.3c-0.1,0.1-0.1,0.2-0.2,0.2
			c-0.1,0-0.5,0.1-0.5,0.1c-0.1,0-0.1,0-0.2-0.1c0,0,0,0,0-0.1c0.1-0.1,0.2-0.2,0.3-0.2c0.1-0.1,0.2-0.2,0.3-0.2
			c0.1-0.1,0.2-0.1,0.2-0.2c0,0,0,0,0,0c-0.1-0.2-0.3-0.2-0.3-0.4c0,0,0.1-0.1,0.1-0.1c0.1,0,0.2,0,0.3,0l0.3,0
			c0.1,0,0.1,0.1,0.2,0.2c0.1,0.1,0.3-0.2,0.6-0.1c0.1,0,0.1,0,0.1,0.1C80.1,222.9,79.9,223.1,79.9,223.1 M79.4,225.9
			c-0.1-0.1-0.2-0.2-0.3-0.3c0,0,0-0.1-0.1-0.1c0-0.1,0-0.1,0-0.2c0-0.1,0-0.2,0-0.3c0,0,0,0,0,0c0.2,0,0.3,0.2,0.4,0.3
			c0.1,0.1,0.1,0.1,0.2,0.2C79.8,225.7,79.6,225.9,79.4,225.9 M79,224.7c-0.1,0-0.2,0.1-0.3,0.1c-0.1,0.1-0.1,0.1-0.2,0.2
			c-0.1,0-0.2,0-0.2,0c-0.1,0.1-0.1,0.2-0.2,0.2c-0.1,0-0.1-0.1-0.2-0.1c0-0.1,0-0.1,0-0.2c0-0.1-0.1-0.3-0.2-0.4
			c0-0.1,0.2-0.1,0.3-0.1c0,0.1,0.1,0.1,0.2,0.2c0,0.1,0.1,0.1,0.1,0.2h0c0.1-0.2,0.3-0.3,0.5-0.5c0.1,0,0.1-0.1,0.1-0.2
			c-0.2,0-0.3,0.2-0.6,0.1l0,0c0-0.1,0.2-0.1,0.3-0.2c0.2-0.1,0.4-0.2,0.6-0.3c0.1-0.1,0.1-0.1,0.2-0.2c0.1,0,0.3,0.2,0.2,0.3
			c-0.1,0-0.3,0.3-0.3,0.4c0,0.1,0,0.1,0,0.2C79.2,224.5,79.1,224.7,79,224.7 M78.8,226.1c-0.1,0.1-0.2,0-0.3,0c-0.2,0-0.3,0-0.5,0
			c-0.1,0-0.1,0-0.2,0c0,0.1-0.3,0.5-0.4,0.5c-0.3,0.1-0.5-0.1-0.5-0.4c0,0,0.1,0,0.2-0.1c0,0,0.1-0.1,0.1-0.1
			c0.1,0,0.1-0.1,0.2-0.1c0.2-0.1,0.4-0.3,0.6-0.4c0.1-0.1,0.2-0.1,0.3-0.1c0,0,0.1,0,0.1,0c0.1-0.1,0.1-0.3,0.2-0.3
			c0,0,0.1,0,0.1,0c0.1,0,0.1,0,0.1,0.1c0,0.1,0,0.2,0,0.3C78.7,225.7,78.8,226,78.8,226.1 M76.7,225.7c0,0.2-0.4,0.2-0.6,0.3
			c-0.1,0-0.2,0.1-0.3,0.1c-0.1,0-0.2,0-0.2,0c-0.3-0.2,0-0.7,0.1-1c0-0.1,0.1-0.2,0.1-0.3c-0.1,0-0.1,0-0.2,0c0,0,0,0,0-0.1
			c0,0,0.1,0,0.1,0c0.1-0.1,0.2-0.2,0.3-0.3c0.1-0.1,0.1-0.2,0.1-0.4c0.1-0.2,0.2-0.5,0.3-0.7c0-0.1,0-0.1,0-0.2
			c0-0.1,0.1-0.2,0.2-0.2c0.3,0,0.5,0.6,0.3,0.9c0,0-0.1,0.2-0.1,0.3c0,0,0.1,0,0.1,0c0.1,0,0.1,0.2,0.1,0.3
			c-0.1,0.2-0.4,0.2-0.5,0.4c0,0.1,0,0.1-0.1,0.2c-0.1,0.2-0.2,0.4-0.3,0.6c0,0,0,0,0,0.1c0.2,0,0.3-0.2,0.5,0
			C76.7,225.6,76.7,225.6,76.7,225.7 M75.4,223.1c-0.1,0.2-0.2,0.5-0.3,0.7c-0.1,0.3-0.1,0.7-0.2,1c0,0.1,0,0.1,0,0.2
			c0,0.1,0,0.2,0,0.3c0,0.2,0.1,0.3,0.1,0.5c0,0.1,0,0.4-0.1,0.4c-0.1,0.1-0.2-0.1-0.3-0.2c-0.1,0-0.2,0.2-0.3,0.3
			c0,0.1-0.1,0.2-0.1,0.2c-0.1,0.2-0.4,0.6-0.6,0.7c-0.1,0-0.1,0-0.2-0.1c-0.1,0-0.1,0-0.2-0.1c0-0.3,0.3-0.4,0.5-0.6
			c0.2-0.1,0.4-0.3,0.6-0.5c0.1-0.1,0.2-0.1,0.2-0.3c0-0.1,0-0.5,0-0.6c0-0.1,0-0.3,0-0.4c0-0.5,0.1-1,0.1-1.4c0-0.1,0-0.2,0-0.3
			c0-0.2-0.1-0.4,0-0.5c0.3,0,0.5,0.3,0.5,0.5C75.4,222.9,75.4,223,75.4,223.1 M72.6,208.4L72.6,208.4c0-0.1,0.1-0.2,0.1-0.2
			c0,0,0-0.1-0.1-0.2l-1-0.8c-0.1,0-0.1,0-0.2,0c-0.1,0-0.1,0-0.1,0.1l0,0l0.3-0.4l1.7,0l-0.8-0.6c-0.1-0.1-0.1-0.1-0.2-0.1
			c0,0-0.1,0.1-0.2,0.1l0,0l0.4-0.5l0,0c-0.1,0.1-0.1,0.2-0.1,0.2c0,0,0,0.1,0.1,0.2l1.2,1l0,0l-2,0l0.9,0.8
			c0.1,0.1,0.1,0.1,0.2,0.1c0,0,0.1-0.1,0.2-0.1l0,0L72.6,208.4z M72.1,209.6c-0.1,0.1-0.1,0.2-0.2,0.3c-0.1,0.1-0.2,0.1-0.3,0.2
			c-0.1,0-0.2,0-0.3,0c-0.1,0-0.2-0.1-0.3-0.1l-0.6-0.3c-0.1-0.1-0.3-0.1-0.3-0.1c-0.1,0-0.1,0.1-0.2,0.2l-0.1,0l0.4-0.7l0,0
			c0,0.1-0.1,0.2,0,0.2c0,0,0.1,0.1,0.2,0.2l0.7,0.4c0.2,0.1,0.4,0.1,0.5,0.1c0.1,0,0.2-0.1,0.3-0.3c0.1-0.2,0.1-0.3,0.1-0.5
			c-0.1-0.1-0.2-0.3-0.3-0.4l-0.7-0.4c-0.1-0.1-0.2-0.1-0.2-0.1c-0.1,0-0.1,0.1-0.2,0.2l-0.1,0l0.3-0.6l0,0c0,0.1-0.1,0.2,0,0.2
			c0,0.1,0.1,0.1,0.2,0.2l0.7,0.4c0.2,0.1,0.4,0.3,0.4,0.5C72.3,209.1,72.2,209.4,72.1,209.6 M72.1,222.9c0-0.1-0.1-0.2-0.1-0.2
			c0,0-0.1,0-0.2,0l-1.2,0.5c-0.1,0-0.1,0.1-0.2,0.1s0,0.1,0,0.2l-0.1,0l-0.4-0.8c-0.1-0.2-0.1-0.4-0.1-0.5c0-0.1,0.1-0.2,0.2-0.3
			c0.1,0,0.2,0,0.3,0c0.1,0,0.2,0.1,0.3,0.2c0-0.2,0-0.3,0-0.4c0-0.1,0.1-0.2,0.2-0.2c0.2-0.1,0.3-0.1,0.5,0
			c0.1,0.1,0.3,0.3,0.4,0.5L72.1,222.9L72.1,222.9z M69.6,221.3c0,0,0,0.1,0,0.2l-0.1,0l-0.4-1.5l0.4-0.1l0,0.1
			c-0.1,0.1-0.2,0.1-0.2,0.2c0,0.1,0,0.2,0,0.3l0.1,0.5c0,0.1,0,0.1,0.1,0.1c0,0,0.1,0,0.1,0l0.5-0.1c0,0,0.1,0,0.1,0c0,0,0,0,0-0.1
			l-0.1-0.4c0-0.1-0.1-0.2-0.1-0.3c0,0-0.1,0-0.2,0l0-0.1l0.6-0.2l0,0.1c-0.1,0-0.2,0.1-0.2,0.1c0,0.1,0,0.1,0,0.3l0.1,0.4
			c0,0,0,0.1,0,0.1s0,0,0.1,0l0.5-0.2c0.1,0,0.1,0,0.1-0.1c0,0,0-0.1,0-0.1l-0.1-0.4c0-0.2-0.1-0.3-0.2-0.3
			c-0.1-0.1-0.2-0.1-0.3-0.1l0-0.1l0.5,0l0.5,1.6l-0.1,0c0-0.1-0.1-0.2-0.1-0.2c0,0-0.1,0-0.2,0l-1.2,0.3
			C69.7,221.3,69.6,221.3,69.6,221.3 M69,219.1c0,0,0,0.1,0,0.2l-0.1,0l-0.1-0.8l0.1,0c0,0.1,0.1,0.2,0.1,0.2c0,0,0.1,0,0.2,0
			l1.2-0.2c0.1,0,0.2,0,0.2-0.1c0,0,0-0.1,0-0.2l0.1,0l0.1,0.8l-0.1,0c0-0.1,0-0.2-0.1-0.2c0,0-0.1,0-0.2,0l-1.2,0.2
			C69.1,219.1,69,219.1,69,219.1 M68.7,217.9L68.7,217.9l-0.1-0.8l0.1,0c0,0.1,0,0.2,0.1,0.2c0,0,0.1,0,0.2,0l1-0.1
			c0.2,0,0.3,0,0.4,0.1c0.1,0.1,0.2,0.2,0.2,0.4c0,0.1,0,0.2-0.1,0.2c0,0.1-0.1,0.1-0.2,0.1c0,0-0.1,0-0.1,0c0,0,0-0.1,0-0.1
			c0,0,0-0.1,0-0.1c0,0,0-0.1,0.1-0.1c0,0,0,0,0,0c0.1,0,0.1-0.1,0.1-0.1c0,0,0-0.1,0-0.1s-0.1,0-0.1,0l-1.3,0.1
			c-0.1,0-0.2,0-0.2,0.1C68.7,217.7,68.7,217.8,68.7,217.9 M68.6,215.7L68.6,215.7c0.1,0.1,0.1,0.2,0.1,0.2c0,0,0.1,0.1,0.2,0.1h1.3
			c0.1,0,0.2,0,0.2-0.1c0,0,0.1-0.1,0.1-0.2l0.1,0v0.9h-0.1c0-0.1,0-0.2-0.1-0.2c0,0-0.1-0.1-0.2-0.1h-1.3c-0.1,0-0.2,0-0.2,0.1
			c0,0-0.1,0.1-0.1,0.2h-0.1L68.6,215.7z M68.6,214.7l1.5-0.9l-1-0.1c-0.1,0-0.2,0-0.2,0c0,0-0.1,0.1-0.1,0.2l-0.1,0l0.1-0.7l0.1,0
			c0,0.1,0,0.2,0,0.2c0,0,0.1,0.1,0.2,0.1l1.6,0.2l0,0.1l-1.7,1l1.2,0.2c0.1,0,0.2,0,0.2,0c0,0,0.1-0.1,0.1-0.2l0.1,0l-0.1,0.7
			l-0.1,0c0-0.1,0-0.2,0-0.2c0,0-0.1-0.1-0.2-0.1l-1.3-0.2c-0.1,0-0.1,0.1-0.2,0.1c0,0-0.1,0.1-0.1,0.1l-0.1,0L68.6,214.7z
			 M69.2,211.6c0-0.1,0.1-0.2,0.2-0.3c0.1-0.1,0.1-0.2,0.1-0.2c0,0,0,0,0-0.1c0,0,0,0-0.1-0.1l0,0l0.6,0.1l0,0.1
			c-0.2,0-0.3,0.1-0.4,0.1c-0.1,0.1-0.2,0.2-0.2,0.3c-0.1,0.2,0,0.4,0.1,0.6c0.1,0.2,0.3,0.3,0.5,0.4c0.3,0.1,0.5,0.1,0.7,0
			c0.2-0.1,0.3-0.2,0.4-0.5c0-0.1,0-0.2,0-0.2c0-0.1,0-0.2,0-0.2l-0.5-0.1c-0.1,0-0.2,0-0.2,0c0,0-0.1,0.1-0.1,0.2l-0.1,0l0.2-0.8
			l0.1,0c0,0.1,0,0.1,0,0.2c0,0,0.1,0.1,0.2,0.1l0.5,0.2c0,0.1,0.1,0.3,0.1,0.4c0,0.1,0,0.3-0.1,0.4c-0.1,0.3-0.2,0.5-0.5,0.6
			c-0.2,0.1-0.5,0.2-0.7,0.1c-0.3-0.1-0.5-0.2-0.6-0.5S69.1,211.9,69.2,211.6 M73.7,225.1c0.1,0,0.2,0,0.2-0.1
			c0.2,0,0.6,0.2,0.6,0.4c-0.1,0.2-0.3,0.3-0.4,0.4c0,0,0,0.1-0.1,0.1c-0.1,0.1-0.1,0.2-0.2,0.3c0,0-0.1,0-0.1,0
			c-0.1-0.2,0.2-0.4,0.2-0.7C73.8,225.3,73.5,225.3,73.7,225.1 M73.3,204.7L73.3,204.7c0,0.1-0.1,0.2-0.1,0.2c0,0,0,0.1,0.1,0.2
			l0.9,0.9c0.1,0.1,0.1,0.1,0.2,0.1c0.1,0,0.1,0,0.2-0.1l0,0l-0.6,0.6l0,0c0.1-0.1,0.1-0.1,0.1-0.2c0-0.1,0-0.1-0.1-0.2l-0.9-0.9
			c-0.1-0.1-0.1-0.1-0.2-0.1c-0.1,0-0.1,0-0.2,0.1l0,0L73.3,204.7z M74.3,203.8L74.3,203.8c0,0.1-0.1,0.2-0.1,0.2c0,0,0,0.1,0,0.1
			c0,0,0.1,0.1,0.3,0.2c0.2,0.1,0.5,0.3,0.9,0.5l-0.3-1.2c0,0,0-0.1,0-0.1c0,0,0-0.1,0-0.1c0,0-0.1,0-0.1,0c0,0-0.1,0-0.2,0.1l0,0
			l0.5-0.3l0,0c0,0-0.1,0.1-0.1,0.1c0,0.1,0,0.1,0,0.3l0.4,1.7l0,0l-1.5-0.8c-0.1-0.1-0.2-0.1-0.3-0.1c-0.1,0-0.1,0-0.2,0l0,0
			L74.3,203.8z M77.1,202l0.2,0.4l0,0c-0.1-0.1-0.1-0.1-0.2-0.2c-0.1,0-0.2,0-0.3,0.1l-0.4,0.2c-0.1,0-0.1,0.1-0.1,0.1
			c0,0,0,0.1,0,0.1l0.2,0.4c0,0,0,0.1,0,0.1c0,0,0,0,0.1,0L77,203c0.1-0.1,0.2-0.1,0.2-0.2c0-0.1,0-0.1,0-0.2l0,0l0.3,0.6l-0.1,0
			c-0.1-0.1-0.1-0.1-0.2-0.2c-0.1,0-0.1,0-0.3,0.1l-0.3,0.2c0,0,0,0-0.1,0c0,0,0,0,0,0.1l0.3,0.5c0,0.1,0.1,0.1,0.1,0.1
			c0,0,0.1,0,0.1,0l0.4-0.2c0.2-0.1,0.3-0.2,0.3-0.3c0-0.1,0.1-0.2,0-0.4l0.1,0l0.1,0.5l-1.4,0.8l0-0.1c0.1-0.1,0.2-0.1,0.2-0.2
			c0,0,0-0.1,0-0.2l-0.6-1.1c0-0.1-0.1-0.1-0.1-0.1c0,0-0.1,0-0.2,0.1l0,0L77.1,202z M78.6,201.3c0.2-0.1,0.4-0.1,0.5-0.1
			c0.1,0,0.2,0.1,0.3,0.3c0,0.1,0,0.2,0,0.3c0,0.1-0.1,0.2-0.3,0.3c0.3,0.2,0.6,0.3,0.8,0.4c0.2,0.1,0.3,0.1,0.3,0.1l0,0.1l-0.4,0.2
			c-0.2-0.1-0.3-0.2-0.5-0.2c-0.2-0.1-0.3-0.2-0.5-0.3l-0.2,0.1c0,0,0,0,0,0c0,0,0,0,0,0.1l0.2,0.4c0,0.1,0.1,0.2,0.1,0.2
			c0,0,0.1,0,0.2,0l0,0l0,0.1l-0.8,0.3l0-0.1l0,0c0.1,0,0.1-0.1,0.2-0.1c0,0,0-0.1,0-0.2l-0.5-1.2c0-0.1-0.1-0.1-0.1-0.1
			c0,0-0.1,0-0.2,0l0-0.1L78.6,201.3z M80.2,200.7c0.1-0.1,0.2-0.2,0.4-0.2c0.1,0,0.2,0,0.2,0c0.1,0,0.1,0,0.2,0c0,0,0,0,0,0
			c0,0,0,0,0-0.1l0,0l0.2,0.5l-0.1,0c-0.1-0.1-0.2-0.2-0.3-0.3c-0.1-0.1-0.2-0.1-0.3-0.1c-0.1,0-0.2,0.1-0.2,0.1
			c0,0.1-0.1,0.1,0,0.2c0,0.1,0,0.1,0.1,0.2c0.1,0,0.1,0.1,0.2,0.1l0.4,0.1c0.1,0,0.3,0.1,0.3,0.2c0.1,0.1,0.1,0.1,0.1,0.3
			c0,0.2,0,0.3-0.1,0.4c-0.1,0.1-0.2,0.2-0.4,0.2c-0.1,0-0.2,0-0.3,0c-0.1,0-0.1,0-0.2,0c0,0,0,0-0.1,0c0,0,0,0,0,0.1l0,0l-0.2-0.6
			l0.1,0c0.1,0.1,0.2,0.2,0.3,0.3c0.1,0.1,0.2,0.1,0.3,0.1c0.1,0,0.2-0.1,0.2-0.1c0.1-0.1,0.1-0.2,0-0.3c0-0.1-0.1-0.1-0.1-0.2
			c-0.1,0-0.1-0.1-0.2-0.1l-0.3-0.1c-0.1,0-0.2-0.1-0.3-0.2c-0.1-0.1-0.1-0.1-0.1-0.2C80.1,201,80.2,200.9,80.2,200.7 M82.6,200.2
			L82.6,200.2c-0.1,0.1-0.2,0.1-0.2,0.1c0,0,0,0.1,0,0.2l0.2,1.3c0,0.1,0,0.2,0.1,0.2c0,0,0.1,0,0.2,0l0,0.1l-0.8,0.1l0-0.1
			c0.1,0,0.2,0,0.2-0.1c0,0,0-0.1,0-0.2l-0.2-1.3c0-0.1,0-0.2-0.1-0.2c0,0-0.1,0-0.2,0l0-0.1L82.6,200.2z M83.2,200.1h1.7v0.5h-0.1
			c0-0.1-0.1-0.2-0.1-0.3c-0.1-0.1-0.2-0.1-0.4-0.1c-0.1,0-0.1,0-0.1,0c0,0,0,0,0,0.1v1.3c0,0.1,0,0.2,0.1,0.2c0,0,0.1,0,0.2,0.1
			l0,0.1h-0.9v-0.1c0.1,0,0.2,0,0.2-0.1c0,0,0.1-0.1,0.1-0.2v-1.3c0,0,0-0.1,0-0.1c0,0,0,0-0.1,0h0c-0.2,0-0.3,0-0.4,0.1
			c-0.1,0.1-0.1,0.2-0.1,0.3h-0.1L83.2,200.1z M85.3,200.1l0.9,0.1l0,0.1c-0.1,0-0.1,0-0.2,0c0,0-0.1,0-0.1,0c0,0,0,0.1,0,0.1
			c0,0,0,0,0,0l0.4,0.7l0.4-0.5c0-0.1,0.1-0.1,0.1-0.1c0,0,0,0,0-0.1c0,0,0,0,0-0.1c0,0-0.1,0-0.2-0.1l0-0.1l0.6,0.1l0,0.1
			c-0.1,0-0.1,0-0.2,0c0,0-0.1,0.1-0.2,0.2l-0.6,0.7l-0.1,0.6c0,0.1,0,0.1,0,0.2c0,0,0.1,0.1,0.2,0.1l0,0.1l-0.8-0.1l0-0.1l0,0
			c0.1,0,0.2,0,0.2,0c0,0,0.1-0.1,0.1-0.2l0.1-0.5l-0.5-0.9c0-0.1-0.1-0.1-0.1-0.1C85.4,200.2,85.3,200.1,85.3,200.1L85.3,200.1z
			 M88.2,201.4c0.1-0.3,0.3-0.5,0.5-0.6c0.2-0.1,0.5-0.1,0.8,0c0.3,0.1,0.5,0.3,0.6,0.5c0.1,0.2,0.1,0.5,0,0.8
			c-0.1,0.3-0.3,0.5-0.5,0.6c-0.2,0.1-0.5,0.1-0.8,0c-0.3-0.1-0.5-0.3-0.6-0.5C88.1,202,88.1,201.7,88.2,201.4 M90.3,203.1
			c0,0,0.1-0.1,0.1-0.2l0.6-1.1c0-0.1,0.1-0.2,0-0.2c0,0-0.1-0.1-0.2-0.1l0-0.1l1.4,0.7l-0.2,0.4l-0.1,0c0-0.1,0-0.2,0-0.3
			c0-0.1-0.1-0.1-0.2-0.2l-0.4-0.2c0,0-0.1,0-0.1,0c0,0-0.1,0-0.1,0.1l-0.2,0.5c0,0,0,0.1,0,0.1c0,0,0,0,0.1,0l0.2,0.1
			c0.1,0.1,0.2,0.1,0.3,0.1c0.1,0,0.1-0.1,0.2-0.2l0.1,0l-0.3,0.6l-0.1,0c0-0.1,0.1-0.2,0-0.2c0-0.1-0.1-0.1-0.2-0.2l-0.2-0.1
			c0,0-0.1,0-0.1,0c0,0,0,0,0,0l-0.2,0.5c0,0.1-0.1,0.2,0,0.2c0,0.1,0.1,0.1,0.2,0.2l0,0.1l-0.8-0.4l0-0.1
			C90.2,203.1,90.2,203.1,90.3,203.1 M80.6,213.6l0-0.7h4.2l0,0.7H80.6z M80.6,217.4l0-0.7h4.2l0,0.7H80.6z M92.8,216.7
			c0.3,2.2-1.7,3-2.4,3l-13.4,0l0-1.4l9.8,0c2-0.2,1.6-2.5,0-2.5l-9.8,0l0-1.3l9.7,0c1.2-0.1,1.9-1.6,1.5-2.5l-7.6,0v-0.5l7.3,0
			c-0.3-0.4-1.1-0.6-1.7-0.6l-9.1,0l0-1.2l12.6,0c1.9,0,2.8,1.6,2.6,3c-0.1,1-1,1.8-1.4,1.9C91.9,214.9,92.7,215.7,92.8,216.7
			 M92.7,223.3C92.7,223.3,92.7,223.3,92.7,223.3c0.2,0,0.5,0.3,0.6,0.5c0,0.1,0,0.2,0,0.2c0,0-0.4,0.1-0.4,0.1c0,0,0,0,0,0
			c0-0.1,0-0.1,0-0.2C92.8,223.8,92.6,223.5,92.7,223.3 M92.5,204.4c0.1,0.1,0.2,0.1,0.2,0.1c0,0,0.1-0.1,0.2-0.2l0.8-1.1
			c0,0,0-0.1,0-0.1c0,0,0,0-0.1-0.1l0,0c-0.1-0.1-0.3-0.2-0.3-0.1c-0.1,0-0.2,0.1-0.3,0.2l0,0l0.3-0.4l1.4,1l-0.3,0.4l0,0
			c0.1-0.1,0.1-0.2,0.1-0.3c0-0.1-0.1-0.2-0.3-0.3c-0.1,0-0.1-0.1-0.1-0.1s0,0-0.1,0l-0.8,1.1c-0.1,0.1-0.1,0.2-0.1,0.2
			c0,0,0.1,0.1,0.2,0.2l0,0L92.5,204.4L92.5,204.4z M94.9,204l1.2,1.1l-0.3,0.3l0,0c0.1-0.1,0.1-0.2,0.1-0.3s-0.1-0.1-0.2-0.2
			l-0.3-0.3c0,0-0.1-0.1-0.1-0.1c0,0-0.1,0-0.1,0.1l-0.3,0.4c0,0,0,0,0,0.1c0,0,0,0,0,0.1l0.3,0.3c0.1,0.1,0.2,0.2,0.2,0.2
			c0.1,0,0.1,0,0.2-0.1l0,0l-0.4,0.5l0,0c0.1-0.1,0.1-0.2,0.1-0.2c0-0.1-0.1-0.1-0.2-0.2l-0.3-0.3c0,0,0,0-0.1,0c0,0,0,0-0.1,0
			l-0.4,0.4c0,0.1-0.1,0.1-0.1,0.1c0,0,0,0.1,0.1,0.1l0.3,0.3c0.1,0.1,0.2,0.2,0.3,0.2c0.1,0,0.2,0,0.4-0.1l0,0.1l-0.4,0.2l-1.2-1.1
			l0,0c0.1,0.1,0.1,0.1,0.2,0.1c0,0,0.1,0,0.2-0.1l0.9-0.9c0.1-0.1,0.1-0.1,0.1-0.2C95,204.2,95,204.1,94.9,204L94.9,204z
			 M99.3,210.1c0-0.1,0-0.1,0-0.2l0.1,0l0.1,0.5l-0.9,1.5l1-0.3c0.1,0,0.2-0.1,0.2-0.1c0,0,0-0.1,0-0.2l0.1,0l0.2,0.6l-0.1,0
			c0-0.1-0.1-0.2-0.1-0.2s-0.1,0-0.2,0l-1.5,0.5l0-0.1l1-1.7l-1.1,0.4c-0.1,0-0.2,0.1-0.2,0.1c0,0,0,0.1,0,0.2l-0.1,0l-0.2-0.6
			l0.1,0c0,0.1,0.1,0.2,0.1,0.2s0.1,0,0.2,0l1.2-0.4C99.2,210.2,99.2,210.1,99.3,210.1 M100.3,213.3c0.1,0.3,0,0.5-0.1,0.7
			c-0.1,0.2-0.4,0.3-0.7,0.4c-0.3,0.1-0.5,0-0.8-0.1s-0.3-0.4-0.4-0.6c-0.1-0.3,0-0.5,0.1-0.7c0.1-0.2,0.4-0.3,0.7-0.4
			c0.3-0.1,0.5,0,0.7,0.1C100.1,212.8,100.3,213,100.3,213.3 M97,203.6c-3.2-3.2-7.6-5.1-12.4-5.1c-4.9,0-9.2,2-12.4,5.1
			c-3.2,3.2-5.1,7.6-5.1,12.4s2,9.2,5.1,12.4c3.2,3.2,7.6,5.1,12.4,5.1c4.9,0,9.2-2,12.4-5.1c3.2-3.2,5.1-7.6,5.1-12.4
			S100.2,206.8,97,203.6"/>
	</g>
	<g>
		<defs>
			<rect id="SVGID_00000120551444636756475870000008839336624264653481_" x="-138.1" y="-557.2" width="1207.6" height="858.9"/>
		</defs>
		<clipPath id="SVGID_00000022558600719513316030000016770986083930149272_">
			<use xlink:href="#SVGID_00000120551444636756475870000008839336624264653481_"  style="overflow:visible;"/>
		</clipPath>
		
			<path id="path3601" style="clip-path:url(#SVGID_00000022558600719513316030000016770986083930149272_);fill-rule:evenodd;clip-rule:evenodd;fill:#4290B7;" d="
			M83.6,228c-0.1,0-0.2,0-0.3,0.1c-0.1,0.1-0.1,0.2-0.1,0.3c0,0.1,0,0.2,0.1,0.3c0.1,0.1,0.2,0.1,0.3,0.1c0.1,0,0.2,0,0.3-0.1
			c0.1-0.1,0.1-0.2,0.1-0.3c0-0.1,0-0.2-0.1-0.3C83.9,228.1,83.8,228,83.6,228"/>
	</g>
	<g>
		<defs>
			<rect id="SVGID_00000057113019308977723910000001141895207453653392_" x="-138.1" y="-557.2" width="1207.6" height="858.9"/>
		</defs>
		<clipPath id="SVGID_00000181081841918299361800000006848083990621969585_">
			<use xlink:href="#SVGID_00000057113019308977723910000001141895207453653392_"  style="overflow:visible;"/>
		</clipPath>
		
			<path id="path3603" style="clip-path:url(#SVGID_00000181081841918299361800000006848083990621969585_);fill-rule:evenodd;clip-rule:evenodd;fill:#4290B7;" d="
			M85.2,228.6c-0.1,0-0.2,0-0.3,0.1c-0.1,0.1-0.1,0.2-0.1,0.3c0,0.1,0,0.2,0.1,0.3c0.1,0.1,0.2,0.1,0.3,0.1c0.1,0,0.2,0,0.3-0.1
			c0.1-0.1,0.1-0.2,0.1-0.3c0-0.1,0-0.2-0.1-0.3C85.4,228.7,85.3,228.6,85.2,228.6"/>
	</g>
	<g>
		<defs>
			<rect id="SVGID_00000056412008397686214200000015338960973373118392_" x="-138.1" y="-557.2" width="1207.6" height="858.9"/>
		</defs>
		<clipPath id="SVGID_00000115481954971908394860000007857089998483085452_">
			<use xlink:href="#SVGID_00000056412008397686214200000015338960973373118392_"  style="overflow:visible;"/>
		</clipPath>
		
			<path id="path3605" style="clip-path:url(#SVGID_00000115481954971908394860000007857089998483085452_);fill-rule:evenodd;clip-rule:evenodd;fill:#4290B7;" d="
			M97.5,229c-3.3,3.3-7.9,5.4-12.9,5.4c-5.1,0-9.6-2-12.9-5.4c-3.3-3.3-5.4-7.9-5.4-12.9c0-5.1,2-9.6,5.4-12.9
			c3.3-3.3,7.9-5.4,12.9-5.4c5.1,0,9.6,2,12.9,5.4c3.3,3.3,5.4,7.9,5.4,12.9C102.8,221.1,100.8,225.7,97.5,229 M84.5,196.5
			c-10.8,0-19.6,8.8-19.6,19.6s8.8,19.6,19.6,19.6s19.6-8.8,19.6-19.6S95.3,196.5,84.5,196.5"/>
	</g>
</g>
</svg>
