<?xml version="1.0" encoding="UTF-8" standalone="no"?>
<!-- Created with Inkscape (http://www.inkscape.org/) -->

<svg
   width="30.081175mm"
   height="7.299902mm"
   viewBox="0 0 30.081175 7.299902"
   version="1.1"
   id="svg1"
   xmlns="http://www.w3.org/2000/svg"
   xmlns:svg="http://www.w3.org/2000/svg">
  <defs
     id="defs1">
    <clipPath
       clipPathUnits="userSpaceOnUse"
       id="clipPath677">
      <path
         d="M 0,858.898 H 1207.558 V 0 H 0 Z"
         transform="translate(-87.213705,-495.89181)"
         id="path677" />
    </clipPath>
    <clipPath
       clipPathUnits="userSpaceOnUse"
       id="clipPath679">
      <path
         d="M 0,858.898 H 1207.558 V 0 H 0 Z"
         transform="translate(-108.5577,-494.17341)"
         id="path679" />
    </clipPath>
    <clipPath
       clipPathUnits="userSpaceOnUse"
       id="clipPath681">
      <path
         d="M 0,858.898 H 1207.558 V 0 H 0 Z"
         transform="translate(-111.0125,-495.50011)"
         id="path681" />
    </clipPath>
    <clipPath
       clipPathUnits="userSpaceOnUse"
       id="clipPath683">
      <path
         d="M 0,858.898 H 1207.558 V 0 H 0 Z"
         transform="translate(-120.8337,-491.59891)"
         id="path683" />
    </clipPath>
    <clipPath
       clipPathUnits="userSpaceOnUse"
       id="clipPath685">
      <path
         d="M 0,858.898 H 1207.558 V 0 H 0 Z"
         transform="translate(-137.0198,-494.08571)"
         id="path685" />
    </clipPath>
    <clipPath
       clipPathUnits="userSpaceOnUse"
       id="clipPath687">
      <path
         d="M 0,858.898 H 1207.558 V 0 H 0 Z"
         transform="translate(-148.9334,-494.09541)"
         id="path687" />
    </clipPath>
    <clipPath
       clipPathUnits="userSpaceOnUse"
       id="clipPath689">
      <path
         d="M 0,858.898 H 1207.558 V 0 H 0 Z"
         transform="translate(-112.9215,-492.03051)"
         id="path689" />
    </clipPath>
    <clipPath
       clipPathUnits="userSpaceOnUse"
       id="clipPath691">
      <path
         d="M 0,858.898 H 1207.558 V 0 H 0 Z"
         transform="translate(-132.89711,-481.30361)"
         id="path691" />
    </clipPath>
    <clipPath
       clipPathUnits="userSpaceOnUse"
       id="clipPath693">
      <path
         d="M 0,858.898 H 1207.558 V 0 H 0 Z"
         transform="translate(-114.7799,-482.20491)"
         id="path693" />
    </clipPath>
    <clipPath
       clipPathUnits="userSpaceOnUse"
       id="clipPath695">
      <path
         d="M 0,858.898 H 1207.558 V 0 H 0 Z"
         transform="translate(-117.9951,-483.21961)"
         id="path695" />
    </clipPath>
    <clipPath
       clipPathUnits="userSpaceOnUse"
       id="clipPath697">
      <path
         d="M 0,858.898 H 1207.558 V 0 H 0 Z"
         transform="translate(-119.92361,-483.21691)"
         id="path697" />
    </clipPath>
    <clipPath
       clipPathUnits="userSpaceOnUse"
       id="clipPath699">
      <path
         d="M 0,858.898 H 1207.558 V 0 H 0 Z"
         transform="translate(-123.7592,-481.31241)"
         id="path699" />
    </clipPath>
    <clipPath
       clipPathUnits="userSpaceOnUse"
       id="clipPath701">
      <path
         d="M 0,858.898 H 1207.558 V 0 H 0 Z"
         transform="translate(-142.0749,-481.34341)"
         id="path701" />
    </clipPath>
    <clipPath
       clipPathUnits="userSpaceOnUse"
       id="clipPath703">
      <path
         d="M 0,858.898 H 1207.558 V 0 H 0 Z"
         transform="translate(-146.3811,-481.45511)"
         id="path703" />
    </clipPath>
    <clipPath
       clipPathUnits="userSpaceOnUse"
       id="clipPath705">
      <path
         d="M 0,858.898 H 1207.558 V 0 H 0 Z"
         transform="translate(-127.764,-479.81831)"
         id="path705" />
    </clipPath>
    <clipPath
       clipPathUnits="userSpaceOnUse"
       id="clipPath707">
      <path
         d="M 0,858.898 H 1207.558 V 0 H 0 Z"
         transform="translate(-137.16431,-480.02741)"
         id="path707" />
    </clipPath>
    <clipPath
       clipPathUnits="userSpaceOnUse"
       id="clipPath709">
      <path
         d="M 0,858.898 H 1207.558 V 0 H 0 Z"
         transform="translate(-149.61491,-481.47901)"
         id="path709" />
    </clipPath>
    <clipPath
       clipPathUnits="userSpaceOnUse"
       id="clipPath711">
      <path
         d="M 0,858.898 H 1207.558 V 0 H 0 Z"
         transform="translate(-119.95991,-478.75741)"
         id="path711" />
    </clipPath>
    <clipPath
       clipPathUnits="userSpaceOnUse"
       id="clipPath713">
      <path
         d="M 0,858.898 H 1207.558 V 0 H 0 Z"
         transform="translate(-140.6241,-479.24491)"
         id="path713" />
    </clipPath>
    <clipPath
       clipPathUnits="userSpaceOnUse"
       id="clipPath715">
      <path
         d="M 0,858.898 H 1207.558 V 0 H 0 Z"
         transform="translate(-106.7666,-478.44461)"
         id="path715" />
    </clipPath>
    <clipPath
       clipPathUnits="userSpaceOnUse"
       id="clipPath717">
      <path
         d="M 0,858.898 H 1207.558 V 0 H 0 Z"
         transform="translate(-106.65761,-477.98821)"
         id="path717" />
    </clipPath>
    <clipPath
       clipPathUnits="userSpaceOnUse"
       id="clipPath719">
      <path
         d="M 0,858.898 H 1207.558 V 0 H 0 Z"
         transform="translate(-90.030105,-494.52791)"
         id="path719" />
    </clipPath>
  </defs>
  <g
     id="layer1"
     transform="translate(-80.168745,-83.343752)">
    <path
       id="path676"
       d="m 0,0 c 2.602,0.607 5.348,0.818 7.97,0.208 1.211,-0.307 2.433,-0.81 3.29,-1.753 0.827,-0.905 1.114,-2.213 0.93,-3.405 -0.208,-1.313 -0.92,-2.468 -1.647,-3.553 -1.565,-2.301 -3.506,-4.311 -5.183,-6.526 -0.295,-0.448 -0.659,-0.928 -0.654,-1.487 0.096,-0.482 0.676,-0.531 1.076,-0.537 4.201,0.257 8.307,1.356 12.236,2.829 1.235,0.472 2.469,0.95 3.686,1.467 0.28,0.117 0.549,0.265 0.849,0.33 -1.084,-0.726 -2.248,-1.325 -3.396,-1.94 -2.873,-1.472 -5.825,-2.797 -8.867,-3.877 -1.785,-0.593 -3.601,-1.158 -5.481,-1.336 -0.943,-0.047 -1.978,-0.09 -2.803,0.45 -0.574,0.363 -0.806,1.084 -0.765,1.734 0.075,0.772 0.431,1.479 0.834,2.129 0.925,1.43 2.114,2.658 3.226,3.939 1.309,1.507 2.631,3.012 3.744,4.672 0.4,0.559 0.689,1.184 0.921,1.829 l 0.02,0.052 c 0.121,0.617 0.099,1.315 -0.283,1.842 -0.416,0.592 -1.097,0.905 -1.742,1.181 -1.233,0.467 -2.523,0.759 -3.769,1.186 -0.457,-0.268 -0.916,-0.532 -1.376,-0.798 0.296,-0.254 0.576,-0.526 0.857,-0.797 -2.43,-0.427 -4.85,-0.934 -7.205,-1.678 -1.996,-0.605 -3.966,-1.295 -5.938,-1.977 0.169,-0.593 0.469,-1.142 0.623,-1.736 -0.638,-0.709 -1.36,-1.352 -2.023,-2.042 -0.322,0.147 -0.642,0.297 -0.958,0.455 -0.013,-1.093 0.026,-2.189 -0.027,-3.279 -1.15,-0.562 -2.32,-1.185 -3.155,-2.183 -0.39,-0.447 -0.679,-1.037 -0.595,-1.644 0.1,-0.585 0.504,-1.123 1.061,-1.346 1.471,-0.783 3.197,-0.794 4.819,-0.711 2.032,0.125 4.04,0.492 6.021,0.945 0.45,0.089 0.881,0.281 1.346,0.287 -0.615,-0.248 -1.191,-0.58 -1.801,-0.842 -2.901,-1.368 -6.084,-2.149 -9.294,-2.207 -1.409,0.066 -2.888,0.309 -4.067,1.136 -0.821,0.563 -1.371,1.484 -1.499,2.469 -0.119,0.687 0.006,1.385 0.184,2.049 0.26,1.007 0.761,1.933 1.331,2.795 1.764,2.797 4.122,5.21 6.852,7.073 1.759,1.221 3.674,2.203 5.652,3.018 1.627,0.64 3.29,1.203 5,1.579"
       style="fill:#e65c22;fill-opacity:1;fill-rule:nonzero;stroke:none"
       transform="matrix(0.35277776,0,0,-0.35277776,86.894737,83.546118)"
       clip-path="url(#clipPath677)" />
    <path
       id="path678"
       d="m 0,0 c -0.009,-2.085 -0.008,-4.171 0.002,-6.258 0.211,0.006 0.422,0.015 0.634,0.03 -0.021,1.039 -0.003,2.078 -0.008,3.116 -0.158,0.006 -0.319,0.009 -0.476,0.012 0.229,0.245 0.488,0.528 0.472,0.888 0.009,0.733 0.004,1.467 0.003,2.2 C 0.417,-0.008 0.208,-0.004 0,0 M -1.616,1.327 C -0.336,1.372 0.947,1.353 2.227,1.335 2.216,0.302 2.229,-0.731 2.223,-1.764 2.211,-2.243 1.809,-2.57 1.477,-2.859 1.839,-3.128 2.263,-3.482 2.225,-3.982 2.214,-4.778 2.249,-5.574 2.211,-6.369 2.04,-6.888 1.621,-7.337 1.11,-7.536 0.744,-7.618 0.364,-7.57 -0.006,-7.587 0,-7.938 0.05,-8.313 -0.112,-8.638 -0.4,-9.199 -0.996,-9.56 -1.616,-9.622 c 0.002,3.65 -0.011,7.299 0,10.949"
       style="fill:#e65c22;fill-opacity:1;fill-rule:nonzero;stroke:none"
       transform="matrix(0.35277776,0,0,-0.35277776,94.424424,84.152331)"
       clip-path="url(#clipPath679)" />
    <path
       id="path680"
       d="M 0,0 C 2.292,0.058 4.587,0.009 6.881,0.02 6.784,-0.486 6.715,-1.092 6.242,-1.395 6.222,-3.97 6.225,-6.546 6.253,-9.121 6.257,-9.401 6.269,-9.697 6.131,-9.951 5.855,-10.531 5.226,-10.847 4.617,-10.95 4.614,-7.745 4.611,-4.54 4.606,-1.336 3.075,-1.344 1.544,-1.327 0.012,-1.348 0.002,-0.899 0.009,-0.449 0,0"
       style="fill:#e65c22;fill-opacity:1;fill-rule:nonzero;stroke:none"
       transform="matrix(0.35277776,0,0,-0.35277776,95.290424,83.684302)"
       clip-path="url(#clipPath681)" />
    <path
       id="path682"
       d="m 0,0 c 0.01,-0.465 0.012,-0.93 0.017,-1.395 0.764,0.004 1.528,0.003 2.292,0.005 0.008,0.464 0.005,0.928 0.002,1.393 C 1.541,0.007 0.769,0.04 0,0 M 4.261,2.658 C 4.268,2.191 4.269,1.723 4.272,1.255 5,1.232 5.729,1.287 6.459,1.256 6.16,0.901 5.873,0.534 5.54,0.212 5.202,-0.129 4.682,0.042 4.257,0.004 4.267,-0.464 4.27,-0.932 4.272,-1.399 5.059,-1.393 5.846,-1.391 6.634,-1.389 6.642,-0.04 6.621,1.31 6.624,2.659 5.837,2.692 5.048,2.679 4.261,2.658 M 0,2.662 C 0.006,2.192 0.012,1.722 0.013,1.251 0.777,1.248 1.542,1.27 2.307,1.266 2.318,1.732 2.313,2.198 2.313,2.664 1.542,2.69 0.77,2.691 0,2.662 M -1.858,3.911 C 0.293,3.945 2.447,3.914 4.599,3.925 5.918,3.915 7.238,3.941 8.557,3.911 8.546,2.227 8.558,0.542 8.557,-1.141 8.47,-1.655 8.01,-2.007 7.61,-2.294 7.344,-2.458 7.056,-2.628 6.735,-2.632 5.908,-2.65 5.081,-2.614 4.256,-2.655 4.26,-2.94 4.265,-3.224 4.273,-3.509 5.732,-3.483 7.192,-3.488 8.651,-3.496 8.395,-3.914 8.177,-4.385 7.762,-4.671 7.643,-4.763 7.482,-4.739 7.342,-4.75 c -1.028,0.001 -2.057,0.004 -3.085,0 0.006,-0.333 0.011,-0.667 0.017,-1.001 0.461,-0.024 0.923,-0.006 1.384,0.01 1.063,0.018 2.127,-0.015 3.19,-0.008 C 8.669,-6.088 8.471,-6.422 8.233,-6.725 8.097,-6.882 7.928,-7.063 7.7,-7.035 4.467,-7.027 1.234,-7.036 -1.999,-7.03 c 0.009,0.423 0.004,0.847 0.007,1.27 1.432,0.054 2.866,-0.008 4.298,0.017 0.009,0.331 0.009,0.662 0.003,0.994 -1.391,0.002 -2.782,-0.002 -4.173,10e-4 0.006,0.415 -0.007,0.83 -0.021,1.245 1.402,0.033 2.804,-0.008 4.205,0.021 -0.009,0.282 -0.012,0.564 -0.014,0.845 -1.391,0.004 -2.782,0 -4.173,10e-4 0.011,2.182 0.004,4.365 0.009,6.547"
       style="fill:#e65c22;fill-opacity:1;fill-rule:nonzero;stroke:none"
       transform="matrix(0.35277776,0,0,-0.35277776,98.755124,85.060559)"
       clip-path="url(#clipPath683)" />
    <path
       id="path684"
       d="M 0,0 C -0.01,-1.202 -0.017,-2.403 0.006,-3.605 0.736,-3.592 1.467,-3.618 2.195,-3.58 2.177,-2.382 2.2,-1.183 2.175,0.015 1.449,0.007 0.724,0.033 0,0 m -4.224,-0.005 c 0.013,-1.201 -0.003,-2.402 0.012,-3.604 0.765,0.006 1.53,0.015 2.296,0.006 0.016,1.199 0.009,2.398 0.011,3.597 -0.773,0.021 -1.547,0.043 -2.319,0.001 m -1.947,1.422 c 1.174,0.048 2.35,0.009 3.526,0.021 C -0.382,1.436 1.881,1.442 4.146,1.434 4.145,-0.135 4.139,-1.704 4.153,-3.274 4.2,-3.782 3.815,-4.186 3.469,-4.503 3.14,-4.759 2.767,-5.041 2.33,-5.026 0.138,-5.031 -2.053,-5.017 -4.244,-5.027 -4.248,-6.044 -4.211,-7.061 -4.218,-8.08 -1.327,-8.074 1.566,-8.072 4.459,-8.082 4.244,-8.612 3.883,-9.096 3.394,-9.4 3.182,-9.538 2.921,-9.531 2.68,-9.531 c -2.483,0.017 -4.966,0.013 -7.448,0.003 -0.301,-0.004 -0.618,0.052 -0.858,0.246 -0.392,0.309 -0.573,0.823 -0.573,1.31 10e-4,2.482 -0.004,4.962 -0.002,7.444 0.018,0.648 -0.028,1.3 0.03,1.945"
       style="fill:#e65c22;fill-opacity:1;fill-rule:nonzero;stroke:none"
       transform="matrix(0.35277776,0,0,-0.35277776,104.46522,84.183269)"
       clip-path="url(#clipPath685)" />
    <path
       id="path686"
       d="m 0,0 c 0.009,-1.205 -0.004,-2.411 0.011,-3.616 0.738,0.015 1.478,-0.007 2.216,0.03 C 2.204,-2.395 2.224,-1.205 2.216,-0.015 1.477,0.023 0.738,0.004 0,0 m -4.212,-0.012 c 0.002,-1.202 -0.005,-2.405 0.003,-3.608 0.771,0.011 1.542,0.013 2.313,0.013 -0.001,1.196 -0.003,2.393 -0.001,3.59 -0.771,0.023 -1.544,0.04 -2.315,0.005 M -6.186,1.41 c 3,0.04 6.002,0.008 9.002,0.016 C 3.265,1.429 3.713,1.424 4.163,1.403 4.153,-0.19 4.164,-1.782 4.179,-3.374 4.198,-3.802 3.858,-4.125 3.586,-4.412 3.226,-4.728 2.8,-5.064 2.294,-5.036 c -2.173,-0.003 -4.346,0.007 -6.519,0.002 0.007,-1.02 0.015,-2.04 0.015,-3.06 2.898,0.014 5.795,0.009 8.694,0.004 C 4.239,-8.616 3.893,-9.13 3.378,-9.422 3.104,-9.588 2.771,-9.527 2.468,-9.537 c -2.425,0.009 -4.85,0.009 -7.276,0.003 -0.381,-0.01 -0.781,0.134 -1.012,0.448 -0.294,0.357 -0.384,0.83 -0.367,1.28 -0.004,3.072 -0.002,6.144 0.001,9.216"
       style="fill:#e65c22;fill-opacity:1;fill-rule:nonzero;stroke:none"
       transform="matrix(0.35277776,0,0,-0.35277776,108.66807,84.179848)"
       clip-path="url(#clipPath687)" />
    <path
       id="path688"
       d="m 0,0 c -0.01,-1.384 0.006,-2.768 0.027,-4.152 0.265,0.009 0.528,0.019 0.793,0.027 0.009,1.376 0.015,2.753 -0.007,4.129 C 0.541,0.002 0.27,0.001 0,0 M -1.508,1.284 C -0.223,1.297 1.062,1.291 2.348,1.287 2.335,-0.257 2.352,-1.8 2.349,-3.344 2.352,-3.632 2.343,-3.938 2.185,-4.19 1.764,-4.911 0.954,-5.431 0.105,-5.402 c -0.54,0 -1.081,0.003 -1.62,0.004 0.008,2.227 10e-4,4.455 0.007,6.682"
       style="fill:#e65c22;fill-opacity:1;fill-rule:nonzero;stroke:none"
       transform="matrix(0.35277776,0,0,-0.35277776,95.963875,84.908299)"
       clip-path="url(#clipPath689)" />
    <path
       id="path690"
       d="m 0,0 c -0.584,-0.162 -0.72,-0.94 -0.495,-1.434 0.211,-0.495 0.918,-0.574 1.323,-0.285 0.399,0.381 0.437,1.103 0.064,1.516 C 0.667,0.042 0.305,0.051 0,0 m -1.772,1.92 c 0.399,-0.003 0.799,0.001 1.199,0.011 0.01,-0.585 0,-1.169 0.009,-1.754 0.429,0.277 0.895,0.549 1.429,0.504 0.723,0.037 1.396,-0.55 1.47,-1.266 C 2.377,-1.1 2.373,-1.681 2.024,-2.099 1.381,-2.877 0.044,-2.801 -0.559,-2.011 -0.566,-2.189 -0.571,-2.368 -0.577,-2.547 -0.978,-2.559 -1.38,-2.551 -1.78,-2.552 c 0.016,1.49 0.003,2.981 0.008,4.472"
       style="fill:#e65c22;fill-opacity:1;fill-rule:nonzero;stroke:none"
       transform="matrix(0.35277776,0,0,-0.35277776,103.01082,88.69251)"
       clip-path="url(#clipPath691)" />
    <path
       id="path692"
       d="m 0,0 c -0.269,-0.557 -0.565,-1.101 -0.826,-1.661 0.521,0.008 1.043,-0.004 1.564,0.01 C 0.521,-1.088 0.277,-0.535 0,0 m -0.685,1.011 c 0.51,0.016 1.022,-0.003 1.532,0.017 0.551,-1.186 1.152,-2.348 1.72,-3.525 0.152,-0.32 0.336,-0.626 0.448,-0.965 -0.476,0.02 -0.951,0.007 -1.426,0.008 -0.137,0.298 -0.269,0.599 -0.412,0.893 -0.816,-0.013 -1.633,-10e-4 -2.449,-0.012 -0.118,-0.291 -0.251,-0.578 -0.386,-0.862 -0.451,0.004 -0.901,10e-4 -1.352,0.006 0.786,1.474 1.555,2.958 2.325,4.44"
       style="fill:#e65c22;fill-opacity:1;fill-rule:nonzero;stroke:none"
       transform="matrix(0.35277776,0,0,-0.35277776,96.619479,88.374552)"
       clip-path="url(#clipPath693)" />
    <path
       id="path694"
       d="M 0,0 C 0.393,0.01 0.786,0.007 1.179,0.003 1.165,-1.489 1.178,-2.979 1.182,-4.47 0.79,-4.466 0.398,-4.48 0.007,-4.452 -0.002,-2.968 0.02,-1.484 0,0"
       style="fill:#e65c22;fill-opacity:1;fill-rule:nonzero;stroke:none"
       transform="matrix(0.35277776,0,0,-0.35277776,97.753729,88.016589)"
       clip-path="url(#clipPath695)" />
    <path
       id="path696"
       d="M 0,0 C 0.429,0.005 0.858,0.008 1.287,0.009 1.278,-0.28 1.272,-0.57 1.269,-0.86 0.846,-0.853 0.424,-0.856 0.002,-0.853 0.004,-0.568 0.002,-0.284 0,0"
       style="fill:#e65c22;fill-opacity:1;fill-rule:nonzero;stroke:none"
       transform="matrix(0.35277776,0,0,-0.35277776,98.434062,88.017542)"
       clip-path="url(#clipPath697)" />
    <path
       id="path698"
       d="m 0,0 c -0.745,-0.199 -0.834,-1.375 -0.224,-1.78 0.374,-0.185 0.937,-0.172 1.172,0.224 0.19,0.328 0.222,0.754 0.078,1.105 C 0.865,-0.061 0.392,0.113 0,0 M -1.798,1.907 C -1.393,1.91 -0.989,1.912 -0.584,1.913 -0.583,1.32 -0.591,0.725 -0.587,0.13 -0.203,0.453 0.27,0.691 0.784,0.672 1.438,0.705 2.112,0.273 2.258,-0.385 2.37,-0.953 2.367,-1.609 2.011,-2.096 c -0.644,-0.785 -1.988,-0.717 -2.607,0.07 0.007,-0.168 0.015,-0.338 0.023,-0.508 -0.412,-0.048 -0.826,-0.025 -1.239,-0.029 0.028,1.49 0.012,2.98 0.014,4.47"
       style="fill:#e65c22;fill-opacity:1;fill-rule:nonzero;stroke:none"
       transform="matrix(0.35277776,0,0,-0.35277776,99.787176,88.689406)"
       clip-path="url(#clipPath699)" />
    <path
       id="path700"
       d="M 0,0 C 0.262,0.389 0.708,0.624 1.163,0.705 1.648,0.752 2.158,0.588 2.514,0.251 2.524,0.062 2.393,-0.108 2.343,-0.288 2.067,-0.1 1.797,0.154 1.444,0.159 0.689,0.221 -0.016,-0.613 0.269,-1.342 0.476,-2.016 1.378,-2.378 1.966,-1.957 2.099,-1.886 2.189,-1.71 2.349,-1.709 2.423,-1.86 2.484,-2.018 2.553,-2.174 2.198,-2.539 1.671,-2.753 1.16,-2.662 0.529,-2.582 -0.042,-2.127 -0.23,-1.515 -0.417,-1.009 -0.293,-0.437 0,0"
       style="fill:#e65c22;fill-opacity:1;fill-rule:nonzero;stroke:none"
       transform="matrix(0.35277776,0,0,-0.35277776,106.24855,88.678471)"
       clip-path="url(#clipPath701)" />
    <path
       id="path702"
       d="m 0,0 c -0.284,-0.095 -0.536,-0.293 -0.659,-0.572 -0.337,-0.604 0.013,-1.495 0.711,-1.636 0.666,-0.196 1.413,0.332 1.443,1.027 C 1.577,-0.408 0.736,0.261 0,0 M -0.091,0.539 C 0.328,0.664 0.792,0.582 1.172,0.376 1.804,0.027 2.151,-0.753 1.993,-1.457 1.823,-2.341 0.851,-2.986 -0.028,-2.75 c -0.778,0.165 -1.353,0.947 -1.282,1.739 0.021,0.711 0.535,1.361 1.219,1.55"
       style="fill:#e65c22;fill-opacity:1;fill-rule:nonzero;stroke:none"
       transform="matrix(0.35277776,0,0,-0.35277776,107.76768,88.639064)"
       clip-path="url(#clipPath703)" />
    <path
       id="path704"
       d="M 0,0 C -0.063,-0.174 0.066,-0.373 0.239,-0.418 0.743,-0.614 1.468,-0.297 1.4,0.316 1.069,0.312 0.735,0.327 0.409,0.265 0.248,0.231 0.066,0.164 0,0 M -0.286,2.016 C 0.344,2.185 1.018,2.184 1.655,2.052 2.095,1.961 2.512,1.626 2.562,1.158 2.6,0.417 2.528,-0.329 2.605,-1.069 2.225,-1.066 1.845,-1.078 1.468,-1.048 1.457,-0.926 1.447,-0.806 1.437,-0.686 0.754,-1.173 -0.255,-1.374 -0.978,-0.861 -1.455,-0.437 -1.307,0.44 -0.734,0.712 -0.06,1.009 0.697,0.892 1.412,0.916 1.471,1.615 0.393,1.7 0.142,1.146 -0.267,1.13 -0.675,1.137 -1.084,1.14 c 0.097,0.405 0.388,0.764 0.798,0.876"
       style="fill:#e65c22;fill-opacity:1;fill-rule:nonzero;stroke:none"
       transform="matrix(0.35277776,0,0,-0.35277776,101.19998,89.216491)"
       clip-path="url(#clipPath705)" />
    <path
       id="path706"
       d="M 0,0 C -0.227,-0.084 -0.329,-0.39 -0.124,-0.557 0.361,-0.878 1.274,-0.565 1.177,0.113 0.784,0.084 0.376,0.136 0,0 M -0.651,1.749 C -0.003,1.998 0.721,1.969 1.395,1.852 1.846,1.774 2.288,1.436 2.34,0.957 2.41,0.224 2.346,-0.515 2.387,-1.25 2.006,-1.279 1.623,-1.299 1.243,-1.246 1.234,-1.127 1.224,-1.009 1.216,-0.892 0.819,-1.163 0.365,-1.366 -0.124,-1.364 c -0.441,-0.014 -0.962,0.08 -1.228,0.469 -0.297,0.492 -0.066,1.216 0.469,1.435 0.659,0.25 1.378,0.143 2.067,0.173 C 1.157,0.879 1.165,1.084 1.001,1.181 0.628,1.406 0.128,1.282 -0.121,0.931 -0.519,0.922 -0.917,0.925 -1.314,0.93 c 0.11,0.343 0.309,0.683 0.663,0.819"
       style="fill:#e65c22;fill-opacity:1;fill-rule:nonzero;stroke:none"
       transform="matrix(0.35277776,0,0,-0.35277776,104.5162,89.142725)"
       clip-path="url(#clipPath707)" />
    <path
       id="path708"
       d="M 0,0 C 0.218,0.182 0.421,0.42 0.716,0.472 1.124,0.548 1.639,0.437 1.814,0.015 2.148,0.303 2.566,0.575 3.03,0.46 3.431,0.431 3.741,0.073 3.75,-0.323 3.781,-1.128 3.756,-1.934 3.774,-2.738 3.59,-2.731 3.408,-2.721 3.228,-2.709 3.239,-1.975 3.243,-1.241 3.232,-0.507 3.255,-0.202 2.945,0.001 2.668,-0.003 2.29,0.049 1.899,-0.294 1.932,-0.681 1.935,-1.359 1.934,-2.037 1.938,-2.715 1.758,-2.722 1.579,-2.729 1.402,-2.732 1.396,-1.988 1.415,-1.242 1.4,-0.498 1.403,-0.229 1.157,0.003 0.89,-0.004 0.424,0.059 0.028,-0.415 0.07,-0.859 0.076,-1.476 0.069,-2.093 0.079,-2.71 c -0.182,10e-4 -0.363,10e-4 -0.543,10e-4 0.006,1.034 0.003,2.069 0.008,3.103 0.149,0.002 0.302,0.003 0.453,0.004 C -0.004,0.266 -0.003,0.133 0,0"
       style="fill:#e65c22;fill-opacity:1;fill-rule:nonzero;stroke:none"
       transform="matrix(0.35277776,0,0,-0.35277776,108.90849,88.630634)"
       clip-path="url(#clipPath709)" />
    <path
       id="path710"
       d="M 0,0 C 0.008,1.046 -0.012,2.092 0.014,3.138 0.409,3.124 0.804,3.131 1.199,3.129 1.197,2.083 1.203,1.036 1.206,-0.011 0.804,-0.009 0.401,-0.012 0,0"
       style="fill:#e65c22;fill-opacity:1;fill-rule:nonzero;stroke:none"
       transform="matrix(0.35277776,0,0,-0.35277776,98.446868,89.590754)"
       clip-path="url(#clipPath711)" />
    <path
       id="path712"
       d="M 0,0 C 0.172,0.003 0.344,0.003 0.518,0.001 0.513,-0.167 0.512,-0.335 0.512,-0.503 0.345,-0.503 0.177,-0.505 0.012,-0.508 0.006,-0.339 0.001,-0.169 0,0"
       style="fill:#e65c22;fill-opacity:1;fill-rule:nonzero;stroke:none"
       transform="matrix(0.35277776,0,0,-0.35277776,105.73674,89.418775)"
       clip-path="url(#clipPath713)" />
    <path
       id="path714"
       d="m 0,0 c -0.422,-0.097 -0.768,-0.479 -0.782,-0.919 -0.042,-0.589 0.524,-1.126 1.112,-1.053 0.58,0.046 1.032,0.656 0.882,1.226 C 1.131,-0.198 0.517,0.138 0,0 M -0.092,0.184 C 0.526,0.372 1.22,-0.028 1.386,-0.647 1.627,-1.366 0.982,-2.2 0.226,-2.154 c -0.559,-0.023 -1.065,0.414 -1.157,0.958 -0.117,0.585 0.259,1.223 0.839,1.38"
       style="fill:#e65c22;fill-opacity:1;fill-rule:nonzero;stroke:none"
       transform="matrix(0.35277776,0,0,-0.35277776,93.792564,89.701101)"
       clip-path="url(#clipPath715)" />
    <path
       id="path716"
       d="M 0,0 C -0.012,-0.137 -0.026,-0.276 -0.04,-0.414 0.195,-0.41 0.651,-0.542 0.687,-0.195 0.66,0.141 0.221,-0.036 0,0 M -0.176,0.141 C 0.115,0.186 0.443,0.22 0.721,0.097 0.978,-0.096 0.866,-0.503 0.562,-0.577 0.699,-0.764 0.836,-0.954 0.964,-1.149 0.907,-1.153 0.792,-1.16 0.736,-1.164 0.62,-0.972 0.514,-0.773 0.36,-0.61 c -0.126,0.028 -0.256,0.023 -0.382,0.03 -0.021,-0.228 0.041,-0.48 -0.082,-0.687 -0.145,0.211 -0.095,0.472 -0.103,0.711 0.01,0.233 -0.03,0.471 0.031,0.697"
       style="fill:#e65c22;fill-opacity:1;fill-rule:nonzero;stroke:none"
       transform="matrix(0.35277776,0,0,-0.35277776,93.754113,89.862111)"
       clip-path="url(#clipPath717)" />
    <path
       id="path718"
       d="M 0,0 C 0.459,0.266 0.918,0.53 1.375,0.798 2.621,0.371 3.912,0.079 5.145,-0.388 5.79,-0.664 6.47,-0.978 6.887,-1.569 7.269,-2.096 7.291,-2.794 7.17,-3.411 L 7.149,-3.463 c 0.108,0.556 -0.052,1.137 -0.45,1.545 -0.67,0.707 -1.614,1.061 -2.513,1.377 C 3.385,-0.237 2.55,-0.047 1.735,0.211 1.388,0.363 1.134,-0.038 0.827,-0.138 c 0.44,-0.358 0.879,-0.719 1.308,-1.09 -4.638,-0.724 -9.173,-2.006 -13.585,-3.588 0.203,-0.501 0.423,-0.998 0.584,-1.515 -0.721,-0.674 -1.409,-1.381 -2.118,-2.068 2.693,-0.831 5.733,-0.24 7.993,1.418 -0.185,0.275 -0.465,0.461 -0.69,0.699 0.547,-0.063 1.087,-0.319 1.396,-0.788 0.291,-0.376 0.35,-0.862 0.328,-1.323 -0.178,-0.002 -0.356,-0.003 -0.534,-0.005 0.017,0.319 -0.031,0.636 -0.139,0.936 -1.55,-1.112 -3.384,-1.857 -5.295,-1.999 -1.386,-0.12 -2.79,0.074 -4.103,0.527 -0.013,-0.856 -0.004,-1.713 -0.017,-2.57 -1.053,-0.401 -2.043,-0.981 -2.883,-1.734 -0.499,-0.468 -0.979,-1.034 -1.077,-1.734 -0.024,-0.495 0.261,-0.959 0.645,-1.255 -0.558,0.223 -0.961,0.761 -1.061,1.346 -0.084,0.607 0.205,1.197 0.594,1.644 0.835,0.998 2.006,1.621 3.155,2.183 0.054,1.09 0.015,2.186 0.028,3.279 0.315,-0.158 0.635,-0.308 0.957,-0.455 0.664,0.69 1.385,1.333 2.023,2.042 -0.154,0.594 -0.453,1.143 -0.623,1.736 1.972,0.682 3.942,1.372 5.939,1.977 2.355,0.744 4.775,1.251 7.205,1.678 C 0.575,-0.526 0.295,-0.254 0,0"
       style="fill:#121212;fill-opacity:1;fill-rule:nonzero;stroke:none"
       transform="matrix(0.35277776,0,0,-0.35277776,87.8883,84.027271)"
       clip-path="url(#clipPath719)" />
  </g>
</svg>
