<?xml version="1.0" encoding="UTF-8" standalone="no"?>
<!-- Created with Inkscape (http://www.inkscape.org/) -->

<svg
   width="19.264414mm"
   height="7.5000186mm"
   viewBox="0 0 19.264414 7.5000186"
   version="1.1"
   id="svg1"
   xmlns="http://www.w3.org/2000/svg"
   xmlns:svg="http://www.w3.org/2000/svg">
  <defs
     id="defs1">
    <clipPath
       clipPathUnits="userSpaceOnUse"
       id="clipPath639">
      <path
         d="M 0,858.898 H 1207.558 V 0 H 0 Z"
         transform="translate(-109.58531,-550.01371)"
         id="path639" />
    </clipPath>
    <clipPath
       clipPathUnits="userSpaceOnUse"
       id="clipPath641">
      <path
         d="M 0,858.898 H 1207.558 V 0 H 0 Z"
         transform="translate(-102.2177,-551.64351)"
         id="path641" />
    </clipPath>
    <clipPath
       clipPathUnits="userSpaceOnUse"
       id="clipPath643">
      <path
         d="M 0,858.898 H 1207.558 V 0 H 0 Z"
         transform="translate(-84.140902,-545.20611)"
         id="path643" />
    </clipPath>
    <clipPath
       clipPathUnits="userSpaceOnUse"
       id="clipPath645">
      <path
         d="M 0,858.898 H 1207.558 V 0 H 0 Z"
         transform="translate(-99.979702,-543.58111)"
         id="path645" />
    </clipPath>
    <clipPath
       clipPathUnits="userSpaceOnUse"
       id="clipPath647">
      <path
         d="M 0,858.898 H 1207.558 V 0 H 0 Z"
         transform="translate(-98.313105,-533.23351)"
         id="path647" />
    </clipPath>
    <clipPath
       clipPathUnits="userSpaceOnUse"
       id="clipPath649">
      <path
         d="M 0,858.898 H 1207.558 V 0 H 0 Z"
         transform="translate(-106.817,-533.23351)"
         id="path649" />
    </clipPath>
    <clipPath
       clipPathUnits="userSpaceOnUse"
       id="clipPath651">
      <path
         d="M 0,858.898 H 1207.558 V 0 H 0 Z"
         transform="translate(-87.66,-538.12242)"
         id="path651" />
    </clipPath>
    <clipPath
       clipPathUnits="userSpaceOnUse"
       id="clipPath653">
      <path
         d="M 0,858.898 H 1207.558 V 0 H 0 Z"
         transform="translate(-93.7902,-532.32942)"
         id="path653" />
    </clipPath>
    <clipPath
       clipPathUnits="userSpaceOnUse"
       id="clipPath655">
      <path
         d="M 0,858.898 H 1207.558 V 0 H 0 Z"
         transform="translate(2.5000001e-7,-3.5000001e-5)"
         id="path655" />
    </clipPath>
    <clipPath
       clipPathUnits="userSpaceOnUse"
       id="clipPath657">
      <path
         d="M 0,858.898 H 1207.558 V 0 H 0 Z"
         transform="translate(-121.6215,-539.94081)"
         id="path657" />
    </clipPath>
    <clipPath
       clipPathUnits="userSpaceOnUse"
       id="clipPath659">
      <path
         d="M 0,858.898 H 1207.558 V 0 H 0 Z"
         transform="translate(-113.1164,-533.30791)"
         id="path659" />
    </clipPath>
    <clipPath
       clipPathUnits="userSpaceOnUse"
       id="clipPath661">
      <path
         d="M 0,858.898 H 1207.558 V 0 H 0 Z"
         transform="translate(-71.315702,-537.38232)"
         id="path661" />
    </clipPath>
    <clipPath
       clipPathUnits="userSpaceOnUse"
       id="clipPath663">
      <path
         d="M 0,858.898 H 1207.558 V 0 H 0 Z"
         transform="translate(-77.343302,-537.38232)"
         id="path663" />
    </clipPath>
    <clipPath
       clipPathUnits="userSpaceOnUse"
       id="clipPath665">
      <path
         d="M 0,858.898 H 1207.558 V 0 H 0 Z"
         transform="translate(-97.998405,-537.28482)"
         id="path665" />
    </clipPath>
    <clipPath
       clipPathUnits="userSpaceOnUse"
       id="clipPath667">
      <path
         d="M 0,858.898 H 1207.558 V 0 H 0 Z"
         transform="translate(-108.4419,-538.64091)"
         id="path667" />
    </clipPath>
    <clipPath
       clipPathUnits="userSpaceOnUse"
       id="clipPath669">
      <path
         d="M 0,858.898 H 1207.558 V 0 H 0 Z"
         transform="translate(-100.1826,-532.73191)"
         id="path669" />
    </clipPath>
    <clipPath
       clipPathUnits="userSpaceOnUse"
       id="clipPath671">
      <path
         d="M 0,858.898 H 1207.558 V 0 H 0 Z"
         transform="translate(-83.860005,-535.22421)"
         id="path671" />
    </clipPath>
    <clipPath
       clipPathUnits="userSpaceOnUse"
       id="clipPath673">
      <path
         d="M 0,858.898 H 1207.558 V 0 H 0 Z"
         transform="translate(-85.687702,-539.22141)"
         id="path673" />
    </clipPath>
    <clipPath
       clipPathUnits="userSpaceOnUse"
       id="clipPath675">
      <path
         d="M 0,858.898 H 1207.558 V 0 H 0 Z"
         transform="translate(-85.687702,-537.13842)"
         id="path675" />
    </clipPath>
  </defs>
  <g
     id="layer1"
     transform="translate(-106.62708,-95.25)">
    <path
       id="path638"
       d="m 0,0 h 6.626 c 0.382,0 0.692,0.305 0.692,0.68 v 0.95 h -7.417 c -2.296,0 -4.214,-1.846 -4.175,-4.101 0.038,-2.191 1.864,-3.961 4.102,-3.961 h 6.798 c 0.382,0 0.692,0.304 0.692,0.68 v 0.95 H 0.055 c -1.367,0 -2.522,1.099 -2.498,2.442 C -2.421,-1.055 -1.333,0 0,0"
       style="fill:#e41c2a;fill-opacity:1;fill-rule:nonzero;stroke:none"
       transform="matrix(0.35277776,0,0,-0.35277776,121.24535,95.827995)"
       clip-path="url(#clipPath639)" />
    <path
       id="path640"
       d="m 0,0 c -0.382,0 -0.692,-0.305 -0.692,-0.68 v -7.382 h 1.138 c 0.382,0 0.692,0.305 0.692,0.68 V 0 Z"
       style="fill:#e41c2a;fill-opacity:1;fill-rule:nonzero;stroke:none"
       transform="matrix(0.35277776,0,0,-0.35277776,118.64622,95.253037)"
       clip-path="url(#clipPath641)" />
    <path
       id="path642"
       d="M 0,0 H -7.484 V 1.59 H 0 C 0.446,1.59 0.809,1.233 0.809,0.795 0.809,0.357 0.446,0 0,0 M 1.757,2.502 C 2.117,2.945 2.309,3.5 2.298,4.068 2.271,5.357 1.113,6.446 -0.232,6.446 H -9.146 V 5.493 c 0,-0.376 0.31,-0.68 0.693,-0.68 h 8.246 C 0.237,4.813 0.623,4.46 0.636,4.042 0.643,3.809 0.549,3.59 0.373,3.431 0.218,3.291 0.009,3.223 -0.201,3.223 h -8.252 c -0.383,0 -0.693,-0.305 -0.693,-0.681 v -3.495 c 0,-0.376 0.31,-0.68 0.693,-0.68 h 8.397 c 1.362,0 2.51,1.059 2.527,2.396 0.008,0.656 -0.246,1.274 -0.714,1.739"
       style="fill:#e41c2a;fill-opacity:1;fill-rule:nonzero;stroke:none"
       transform="matrix(0.35277776,0,0,-0.35277776,112.26913,97.524009)"
       clip-path="url(#clipPath643)" />
    <path
       id="path644"
       d="m 0,0 -3.94,6.669 c -0.509,0.862 -1.447,1.393 -2.463,1.393 -1.015,0 -1.953,-0.531 -2.463,-1.393 L -12.805,0 h 1.546 c 0.339,0 0.652,0.177 0.822,0.465 l 3.197,5.412 c 0.373,0.632 1.302,0.632 1.675,0 L -2.368,0.465 C -2.198,0.177 -1.885,0 -1.546,0 Z"
       style="fill:#e41c2a;fill-opacity:1;fill-rule:nonzero;stroke:none"
       transform="matrix(0.35277776,0,0,-0.35277776,117.8567,98.097274)"
       clip-path="url(#clipPath645)" />
    <path
       id="path646"
       d="m 0,0 c -0.114,-0.374 -1.293,-2.04 -1.9,-2.688 l 1.993,0.004 c 0.686,0.385 1.502,1.3 2.346,2.684 z"
       style="fill:#e41c2a;fill-opacity:1;fill-rule:nonzero;stroke:none"
       transform="matrix(0.35277776,0,0,-0.35277776,117.26877,101.74768)"
       clip-path="url(#clipPath647)" />
    <path
       id="path648"
       d="M 0,0 C 0.114,-0.374 1.379,-2.04 1.986,-2.688 L 0,-2.684 c -0.686,0.385 -1.541,1.3 -2.385,2.684 z"
       style="fill:#e41c2a;fill-opacity:1;fill-rule:nonzero;stroke:none"
       transform="matrix(0.35277776,0,0,-0.35277776,120.26875,101.74768)"
       clip-path="url(#clipPath649)" />
    <path
       id="path650"
       d="M 0,0 H 6.308 V 1.129 H 1.135 C 1.037,1.129 0.78,1.268 0.78,1.507 v 0.33 H -1.477 V 1.303 C -1.477,0.552 -0.982,0 0,0"
       style="fill:#e41c2a;fill-opacity:1;fill-rule:nonzero;stroke:none"
       transform="matrix(0.35277776,0,0,-0.35277776,113.51059,100.02298)"
       clip-path="url(#clipPath651)" />
    <path
       id="path652"
       d="m 0,0 v 2.218 c 0,0.635 -0.566,1.055 -1.08,1.055 h -6.216 v -1.13 h 4.742 c 0.311,0 0.385,-0.227 0.394,-0.336 V 0.162 l 0.006,-0.015 c 0,-1.061 0.876,-1.921 1.955,-1.921 h 0.033 1.55 v 1.322 H 0.441 C 0.226,-0.452 0,-0.269 0,0"
       style="fill:#e41c2a;fill-opacity:1;fill-rule:nonzero;stroke:none"
       transform="matrix(0.35277776,0,0,-0.35277776,115.67319,102.06662)"
       clip-path="url(#clipPath653)" />
    <path
       id="path654"
       d="m 93.967,537.431 h -7.473 v -1.129 h 7.473 z"
       style="fill:#e41c2a;fill-opacity:1;fill-rule:nonzero;stroke:none"
       transform="matrix(0.35277776,0,0,-0.35277776,82.586089,289.86059)"
       clip-path="url(#clipPath655)" />
    <path
       id="path656"
       d="M 0,0 H -11.414 V -9.388 H 1.134 v 8.259 C 1.134,-0.228 0.495,0 0,0 m -0.888,-8.364 h -8.503 v 7.33 h 8.503 z"
       style="fill:#e41c2a;fill-opacity:1;fill-rule:nonzero;stroke:none"
       transform="matrix(0.35277776,0,0,-0.35277776,125.49145,99.38149)"
       clip-path="url(#clipPath657)" />
    <path
       id="path658"
       d="m 0,0 0.001,-1.05 c 2.013,0.803 3.409,2.472 3.884,4.47 h 0.43 V 0.38 c 0,-0.263 -0.236,-0.443 -0.448,-0.443 H 3.177 V -1.27 h 1.06 0.032 c 1.059,0 1.918,0.754 1.918,1.795 L 6.193,0.816 V 3.42 h 0.73 V 4.454 H 6.193 V 5.18 H 4.315 V 4.454 H 0.021 V 3.42 H 1.978 C 1.782,2.181 1.205,1.226 0,0.19"
       style="fill:#e41c2a;fill-opacity:1;fill-rule:nonzero;stroke:none"
       transform="matrix(0.35277776,0,0,-0.35277776,122.49104,101.72143)"
       clip-path="url(#clipPath659)" />
    <path
       id="path660"
       d="M 0,0 H -3.168 V -1.378 H 0 v -3.576 c 0,-0.285 -0.256,-0.504 -0.485,-0.504 h -2.683 v -1.378 h 3.263 c 1.402,0 2.104,0.689 2.104,2.067 V 2.517 H 0 Z"
       style="fill:#e41c2a;fill-opacity:1;fill-rule:nonzero;stroke:none"
       transform="matrix(0.35277776,0,0,-0.35277776,107.74468,100.28407)"
       clip-path="url(#clipPath661)" />
    <path
       id="path662"
       d="M 0,0 H 3.168 V -1.378 H 0 v -3.576 c 0,-0.285 0.255,-0.504 0.485,-0.504 h 2.682 l 0.001,-1.378 h -3.263 c -1.402,0 -2.104,0.689 -2.104,2.067 V 2.517 H 0 Z"
       style="fill:#e41c2a;fill-opacity:1;fill-rule:nonzero;stroke:none"
       transform="matrix(0.35277776,0,0,-0.35277776,109.87109,100.28407)"
       clip-path="url(#clipPath663)" />
    <path
       id="path664"
       d="m 0,0 h -2.141 l 1.544,2.622 h 2.141 z"
       style="fill:#e41c2a;fill-opacity:1;fill-rule:nonzero;stroke:none"
       transform="matrix(0.35277776,0,0,-0.35277776,117.15775,100.31847)"
       clip-path="url(#clipPath665)" />
    <path
       id="path666"
       d="M 0,0 V 0.81 H -3.815 V 1.305 H -6.123 V 0.81 H -8.914 L -8.911,0 h 2.786 l 0.002,-0.57 H -8.91 l 0.002,-0.798 h 2.787 l 0.002,-0.569 h -2.787 l 0.002,-0.809 h 2.787 l 0.001,-0.575 h -3.08 c -0.379,0 -0.424,0.257 -0.428,0.346 l -0.007,3.592 -2.003,-1.106 0.008,-3.233 c 0.006,-0.118 0.065,-0.452 0.644,-0.452 H 0 v 0.853 h -3.804 l -0.001,0.575 H 0 v 0.809 h -3.808 l -0.001,0.569 h 3.808 L -0.003,-0.57 H -3.811 L -3.813,0 Z"
       style="fill:#e41c2a;fill-opacity:1;fill-rule:nonzero;stroke:none"
       transform="matrix(0.35277776,0,0,-0.35277776,120.84198,99.840066)"
       clip-path="url(#clipPath667)" />
    <path
       id="path668"
       d="M 0,0 H 1.232 L 1.238,-2.186 H 3.524 L 3.518,0 H 4.822 7.211 8.525 V 1.117 H 3.515 L 3.514,1.523 H 1.228 L 1.229,1.117 H -3.946 L -3.943,0 h 1.555 z"
       style="fill:#e41c2a;fill-opacity:1;fill-rule:nonzero;stroke:none"
       transform="matrix(0.35277776,0,0,-0.35277776,117.92828,101.92463)"
       clip-path="url(#clipPath669)" />
    <path
       id="path670"
       d="M 0,0 C 0,-0.917 -0.536,-2.651 -1.732,-3.271 V -4.832 C 1.096,-4.319 1.862,-1.302 1.862,0 Z"
       style="fill:#e41c2a;fill-opacity:1;fill-rule:nonzero;stroke:none"
       transform="matrix(0.35277776,0,0,-0.35277776,112.17003,101.0454)"
       clip-path="url(#clipPath671)" />
    <path
       id="path672"
       d="m 0,0 c -1.599,0.174 -3.401,0.557 -3.401,0.557 v -1.274 c 0,0 2.186,-0.447 3.401,-0.556 z"
       style="fill:#e41c2a;fill-opacity:1;fill-rule:nonzero;stroke:none"
       transform="matrix(0.35277776,0,0,-0.35277776,112.8148,99.635278)"
       clip-path="url(#clipPath673)" />
    <path
       id="path674"
       d="m 0,0 c -1.599,0.174 -3.401,0.557 -3.401,0.557 v -1.274 c 0,0 2.186,-0.447 3.401,-0.556 z"
       style="fill:#e41c2a;fill-opacity:1;fill-rule:nonzero;stroke:none"
       transform="matrix(0.35277776,0,0,-0.35277776,112.8148,100.37011)"
       clip-path="url(#clipPath675)" />
    <path
       id="path5282"
       d="m 0,0 h 6.626 c 0.382,0 0.692,0.305 0.692,0.68 v 0.95 h -7.417 c -2.296,0 -4.214,-1.846 -4.175,-4.101 0.038,-2.191 1.864,-3.961 4.102,-3.961 h 6.798 c 0.382,0 0.692,0.304 0.692,0.68 v 0.95 H 0.055 c -1.367,0 -2.522,1.099 -2.498,2.442 C -2.421,-1.055 -1.333,0 0,0"
       style="fill:#e41c2a;fill-opacity:1;fill-rule:nonzero;stroke:none"
       transform="matrix(0.35277776,0,0,-0.35277776,121.24535,95.827995)"
       clip-path="url(#clipPath639)" />
    <path
       id="path5283"
       d="m 0,0 c -0.382,0 -0.692,-0.305 -0.692,-0.68 v -7.382 h 1.138 c 0.382,0 0.692,0.305 0.692,0.68 V 0 Z"
       style="fill:#e41c2a;fill-opacity:1;fill-rule:nonzero;stroke:none"
       transform="matrix(0.35277776,0,0,-0.35277776,118.64622,95.253037)"
       clip-path="url(#clipPath641)" />
    <path
       id="path5284"
       d="M 0,0 H -7.484 V 1.59 H 0 C 0.446,1.59 0.809,1.233 0.809,0.795 0.809,0.357 0.446,0 0,0 M 1.757,2.502 C 2.117,2.945 2.309,3.5 2.298,4.068 2.271,5.357 1.113,6.446 -0.232,6.446 H -9.146 V 5.493 c 0,-0.376 0.31,-0.68 0.693,-0.68 h 8.246 C 0.237,4.813 0.623,4.46 0.636,4.042 0.643,3.809 0.549,3.59 0.373,3.431 0.218,3.291 0.009,3.223 -0.201,3.223 h -8.252 c -0.383,0 -0.693,-0.305 -0.693,-0.681 v -3.495 c 0,-0.376 0.31,-0.68 0.693,-0.68 h 8.397 c 1.362,0 2.51,1.059 2.527,2.396 0.008,0.656 -0.246,1.274 -0.714,1.739"
       style="fill:#e41c2a;fill-opacity:1;fill-rule:nonzero;stroke:none"
       transform="matrix(0.35277776,0,0,-0.35277776,112.26913,97.524009)"
       clip-path="url(#clipPath643)" />
    <path
       id="path5285"
       d="m 0,0 -3.94,6.669 c -0.509,0.862 -1.447,1.393 -2.463,1.393 -1.015,0 -1.953,-0.531 -2.463,-1.393 L -12.805,0 h 1.546 c 0.339,0 0.652,0.177 0.822,0.465 l 3.197,5.412 c 0.373,0.632 1.302,0.632 1.675,0 L -2.368,0.465 C -2.198,0.177 -1.885,0 -1.546,0 Z"
       style="fill:#e41c2a;fill-opacity:1;fill-rule:nonzero;stroke:none"
       transform="matrix(0.35277776,0,0,-0.35277776,117.8567,98.097274)"
       clip-path="url(#clipPath645)" />
    <path
       id="path5286"
       d="m 0,0 c -0.114,-0.374 -1.293,-2.04 -1.9,-2.688 l 1.993,0.004 c 0.686,0.385 1.502,1.3 2.346,2.684 z"
       style="fill:#e41c2a;fill-opacity:1;fill-rule:nonzero;stroke:none"
       transform="matrix(0.35277776,0,0,-0.35277776,117.26877,101.74768)"
       clip-path="url(#clipPath647)" />
    <path
       id="path5287"
       d="M 0,0 C 0.114,-0.374 1.379,-2.04 1.986,-2.688 L 0,-2.684 c -0.686,0.385 -1.541,1.3 -2.385,2.684 z"
       style="fill:#e41c2a;fill-opacity:1;fill-rule:nonzero;stroke:none"
       transform="matrix(0.35277776,0,0,-0.35277776,120.26875,101.74768)"
       clip-path="url(#clipPath649)" />
    <path
       id="path5288"
       d="M 0,0 H 6.308 V 1.129 H 1.135 C 1.037,1.129 0.78,1.268 0.78,1.507 v 0.33 H -1.477 V 1.303 C -1.477,0.552 -0.982,0 0,0"
       style="fill:#e41c2a;fill-opacity:1;fill-rule:nonzero;stroke:none"
       transform="matrix(0.35277776,0,0,-0.35277776,113.51059,100.02298)"
       clip-path="url(#clipPath651)" />
    <path
       id="path5289"
       d="m 0,0 v 2.218 c 0,0.635 -0.566,1.055 -1.08,1.055 h -6.216 v -1.13 h 4.742 c 0.311,0 0.385,-0.227 0.394,-0.336 V 0.162 l 0.006,-0.015 c 0,-1.061 0.876,-1.921 1.955,-1.921 h 0.033 1.55 v 1.322 H 0.441 C 0.226,-0.452 0,-0.269 0,0"
       style="fill:#e41c2a;fill-opacity:1;fill-rule:nonzero;stroke:none"
       transform="matrix(0.35277776,0,0,-0.35277776,115.67319,102.06662)"
       clip-path="url(#clipPath653)" />
    <path
       id="path5290"
       d="m 93.967,537.431 h -7.473 v -1.129 h 7.473 z"
       style="fill:#e41c2a;fill-opacity:1;fill-rule:nonzero;stroke:none"
       transform="matrix(0.35277776,0,0,-0.35277776,82.586089,289.86059)"
       clip-path="url(#clipPath655)" />
    <path
       id="path5291"
       d="M 0,0 H -11.414 V -9.388 H 1.134 v 8.259 C 1.134,-0.228 0.495,0 0,0 m -0.888,-8.364 h -8.503 v 7.33 h 8.503 z"
       style="fill:#e41c2a;fill-opacity:1;fill-rule:nonzero;stroke:none"
       transform="matrix(0.35277776,0,0,-0.35277776,125.49145,99.38149)"
       clip-path="url(#clipPath657)" />
    <path
       id="path5292"
       d="m 0,0 0.001,-1.05 c 2.013,0.803 3.409,2.472 3.884,4.47 h 0.43 V 0.38 c 0,-0.263 -0.236,-0.443 -0.448,-0.443 H 3.177 V -1.27 h 1.06 0.032 c 1.059,0 1.918,0.754 1.918,1.795 L 6.193,0.816 V 3.42 h 0.73 V 4.454 H 6.193 V 5.18 H 4.315 V 4.454 H 0.021 V 3.42 H 1.978 C 1.782,2.181 1.205,1.226 0,0.19"
       style="fill:#e41c2a;fill-opacity:1;fill-rule:nonzero;stroke:none"
       transform="matrix(0.35277776,0,0,-0.35277776,122.49104,101.72143)"
       clip-path="url(#clipPath659)" />
    <path
       id="path5293"
       d="M 0,0 H -3.168 V -1.378 H 0 v -3.576 c 0,-0.285 -0.256,-0.504 -0.485,-0.504 h -2.683 v -1.378 h 3.263 c 1.402,0 2.104,0.689 2.104,2.067 V 2.517 H 0 Z"
       style="fill:#e41c2a;fill-opacity:1;fill-rule:nonzero;stroke:none"
       transform="matrix(0.35277776,0,0,-0.35277776,107.74468,100.28407)"
       clip-path="url(#clipPath661)" />
    <path
       id="path5294"
       d="M 0,0 H 3.168 V -1.378 H 0 v -3.576 c 0,-0.285 0.255,-0.504 0.485,-0.504 h 2.682 l 0.001,-1.378 h -3.263 c -1.402,0 -2.104,0.689 -2.104,2.067 V 2.517 H 0 Z"
       style="fill:#e41c2a;fill-opacity:1;fill-rule:nonzero;stroke:none"
       transform="matrix(0.35277776,0,0,-0.35277776,109.87109,100.28407)"
       clip-path="url(#clipPath663)" />
    <path
       id="path5295"
       d="m 0,0 h -2.141 l 1.544,2.622 h 2.141 z"
       style="fill:#e41c2a;fill-opacity:1;fill-rule:nonzero;stroke:none"
       transform="matrix(0.35277776,0,0,-0.35277776,117.15775,100.31847)"
       clip-path="url(#clipPath665)" />
    <path
       id="path5296"
       d="M 0,0 V 0.81 H -3.815 V 1.305 H -6.123 V 0.81 H -8.914 L -8.911,0 h 2.786 l 0.002,-0.57 H -8.91 l 0.002,-0.798 h 2.787 l 0.002,-0.569 h -2.787 l 0.002,-0.809 h 2.787 l 0.001,-0.575 h -3.08 c -0.379,0 -0.424,0.257 -0.428,0.346 l -0.007,3.592 -2.003,-1.106 0.008,-3.233 c 0.006,-0.118 0.065,-0.452 0.644,-0.452 H 0 v 0.853 h -3.804 l -0.001,0.575 H 0 v 0.809 h -3.808 l -0.001,0.569 h 3.808 L -0.003,-0.57 H -3.811 L -3.813,0 Z"
       style="fill:#e41c2a;fill-opacity:1;fill-rule:nonzero;stroke:none"
       transform="matrix(0.35277776,0,0,-0.35277776,120.84198,99.840066)"
       clip-path="url(#clipPath667)" />
    <path
       id="path5297"
       d="M 0,0 H 1.232 L 1.238,-2.186 H 3.524 L 3.518,0 H 4.822 7.211 8.525 V 1.117 H 3.515 L 3.514,1.523 H 1.228 L 1.229,1.117 H -3.946 L -3.943,0 h 1.555 z"
       style="fill:#e41c2a;fill-opacity:1;fill-rule:nonzero;stroke:none"
       transform="matrix(0.35277776,0,0,-0.35277776,117.92828,101.92463)"
       clip-path="url(#clipPath669)" />
    <path
       id="path5298"
       d="M 0,0 C 0,-0.917 -0.536,-2.651 -1.732,-3.271 V -4.832 C 1.096,-4.319 1.862,-1.302 1.862,0 Z"
       style="fill:#e41c2a;fill-opacity:1;fill-rule:nonzero;stroke:none"
       transform="matrix(0.35277776,0,0,-0.35277776,112.17003,101.0454)"
       clip-path="url(#clipPath671)" />
    <path
       id="path5299"
       d="m 0,0 c -1.599,0.174 -3.401,0.557 -3.401,0.557 v -1.274 c 0,0 2.186,-0.447 3.401,-0.556 z"
       style="fill:#e41c2a;fill-opacity:1;fill-rule:nonzero;stroke:none"
       transform="matrix(0.35277776,0,0,-0.35277776,112.8148,99.635278)"
       clip-path="url(#clipPath673)" />
    <path
       id="path5300"
       d="m 0,0 c -1.599,0.174 -3.401,0.557 -3.401,0.557 v -1.274 c 0,0 2.186,-0.447 3.401,-0.556 z"
       style="fill:#e41c2a;fill-opacity:1;fill-rule:nonzero;stroke:none"
       transform="matrix(0.35277776,0,0,-0.35277776,112.8148,100.37011)"
       clip-path="url(#clipPath675)" />
  </g>
</svg>
