<?xml version="1.0" encoding="utf-8"?>
<!-- Generator: Adobe Illustrator 28.0.0, SVG Export Plug-In . SVG Version: 6.00 Build 0)  -->
<svg version="1.1" id="svg1" xmlns:svg="http://www.w3.org/2000/svg"
	 xmlns="http://www.w3.org/2000/svg" xmlns:xlink="http://www.w3.org/1999/xlink" x="0px" y="0px" viewBox="0 0 59.6 39.1"
	 style="enable-background:new 0 0 59.6 39.1;" xml:space="preserve">
<style type="text/css">
	.st0{clip-path:url(#SVGID_00000005975321949803553060000012938806252333439924_);fill:#2F4C90;}
	.st1{clip-path:url(#SVGID_00000037652322289208934960000016146406932552753082_);fill:#2F4C90;}
	.st2{clip-path:url(#SVGID_00000148624724495619758550000000895382127976628910_);fill:#2F4C90;}
	.st3{clip-path:url(#SVGID_00000083795636315407974790000005415470624259868835_);fill:#2F4C90;}
	.st4{clip-path:url(#SVGID_00000038389958877302312080000012866114225070034850_);fill:#2F4C90;}
	.st5{clip-path:url(#SVGID_00000183950509753735060710000009237635735840275865_);fill:#649F4E;}
	.st6{clip-path:url(#SVGID_00000180324932958886006890000013604774185262643091_);fill:#97B5D2;}
	.st7{clip-path:url(#SVGID_00000181067077159875459260000004097001381280966070_);fill:#97B5D2;}
</style>
<g id="layer1" transform="translate(-17.394014,-152.36746)">
	<g>
		<defs>
			<rect id="SVGID_1_" x="-50.8" y="-476.3" width="1207.6" height="858.9"/>
		</defs>
		<clipPath id="SVGID_00000018233889476269124730000005188478443129805994_">
			<use xlink:href="#SVGID_1_"  style="overflow:visible;"/>
		</clipPath>
		<path id="path2273" style="clip-path:url(#SVGID_00000018233889476269124730000005188478443129805994_);fill:#2F4C90;" d="
			M27.8,157.1c5.2-3,11.2-4.4,17.2-4.7c-0.7,0.1-1.3,0.2-2,0.3c-5.4,1.1-10.1,4.6-12.9,9.3c-0.4,0.7-0.7,1.4-1.1,2.1
			c-1.1,0.3-2.2,0.6-3.3,1c-1.9,0.7-3.8,1.5-5.4,2.7c-1,0.8-2,1.7-2.4,3c-0.2,0.7-0.2,1.5,0.1,2.2c0.3,0.9,1,1.6,1.7,2.2
			c1.2,1.1,2.7,1.8,4.2,2.5c1.6,0.7,3.2,1.2,4.9,1.6c1.6,4.1,4.7,7.6,8.5,9.8c2.3,1.3,4.8,2.1,7.4,2.4c-1,0-1.9-0.1-2.9-0.2
			c-4.9-0.6-9.6-2-13.9-4.3c-2.5-1.4-4.8-3.1-6.7-5.3c-2-2.3-3.4-5.1-3.8-8.1c-0.4-3.1,0.4-6.2,2-8.8
			C21.5,161.4,24.5,158.9,27.8,157.1"/>
	</g>
	<g>
		<defs>
			<rect id="SVGID_00000039850501004484106230000004711903609469151911_" x="-50.8" y="-476.3" width="1207.6" height="858.9"/>
		</defs>
		<clipPath id="SVGID_00000155144505691406841370000014116271112495514551_">
			<use xlink:href="#SVGID_00000039850501004484106230000004711903609469151911_"  style="overflow:visible;"/>
		</clipPath>
		<path id="path2275" style="clip-path:url(#SVGID_00000155144505691406841370000014116271112495514551_);fill:#2F4C90;" d="
			M32.5,168.3c0.9-0.5,1.9-0.5,2.8-0.5c0.7,0.1,1.4,0.3,2,0.8c0.5,0.4,0.8,1.1,1.1,1.7c-0.7,0.2-1.5,0.3-2.2,0.5
			c-0.1-0.5-0.5-0.9-0.9-1.1c-0.6-0.2-1.2,0-1.6,0.4c-0.5,0.5-0.5,1.3-0.5,1.9c0,0.6,0,1.2,0.4,1.7c0.4,0.6,1.3,0.6,1.9,0.4
			c0.5-0.3,0.7-0.9,0.9-1.4c0.7,0.2,1.5,0.4,2.2,0.7c-0.2,0.8-0.6,1.7-1.3,2.2c-1.1,0.7-2.5,0.7-3.7,0.5c-1.3-0.2-2.3-1.4-2.6-2.6
			c-0.3-1-0.2-2.1,0-3C31.1,169.5,31.6,168.7,32.5,168.3"/>
	</g>
	<g>
		<defs>
			<rect id="SVGID_00000073681356016668477780000015803851022929586309_" x="-50.8" y="-476.3" width="1207.6" height="858.9"/>
		</defs>
		<clipPath id="SVGID_00000124870607510184368660000003996597383362340022_">
			<use xlink:href="#SVGID_00000073681356016668477780000015803851022929586309_"  style="overflow:visible;"/>
		</clipPath>
		<path id="path2277" style="clip-path:url(#SVGID_00000124870607510184368660000003996597383362340022_);fill:#2F4C90;" d="
			M42.2,172.9c0.6,0,1.2,0,1.7,0c-0.3-1-0.6-1.9-0.8-2.9C42.8,171,42.6,172,42.2,172.9 M41.8,167.9c0.9,0,1.8,0,2.7,0
			c1,2.7,2,5.4,3,8.1c-0.9,0-1.7,0-2.6,0c-0.1-0.4-0.3-0.9-0.4-1.3c-0.9,0-1.9,0-2.8,0c-0.1,0.4-0.2,0.9-0.4,1.3c-0.8,0-1.7,0-2.5,0
			C39.8,173.3,40.8,170.6,41.8,167.9"/>
	</g>
	<g>
		<defs>
			<rect id="SVGID_00000007408596823509949140000015958819949124362669_" x="-50.8" y="-476.3" width="1207.6" height="858.9"/>
		</defs>
		<clipPath id="SVGID_00000124870560559866525700000002549812807986937779_">
			<use xlink:href="#SVGID_00000007408596823509949140000015958819949124362669_"  style="overflow:visible;"/>
		</clipPath>
		<path id="path2279" style="clip-path:url(#SVGID_00000124870560559866525700000002549812807986937779_);fill:#2F4C90;" d="
			M48.3,167.9c2.2,0,4.4,0,6.6,0c0,0.6,0,1.1,0,1.7c-1.4,0-2.8,0-4.1,0c0,0.4,0,0.8,0,1.3c1.3,0,2.6,0,3.8,0c0,0.6,0,1.1,0,1.7
			c-1.3,0-2.6,0-3.8,0c0,0.5,0,1.1,0,1.6c1.4,0,2.8,0,4.2,0c0,0.6,0,1.2,0,1.8c-2.2,0-4.5,0-6.7,0C48.3,173.3,48.3,170.6,48.3,167.9
			"/>
	</g>
	<g>
		<defs>
			<rect id="SVGID_00000118376362627071348930000006477894854275378343_" x="-50.8" y="-476.3" width="1207.6" height="858.9"/>
		</defs>
		<clipPath id="SVGID_00000142867224157362826140000016010523746227387825_">
			<use xlink:href="#SVGID_00000118376362627071348930000006477894854275378343_"  style="overflow:visible;"/>
		</clipPath>
		<path id="path2281" style="clip-path:url(#SVGID_00000142867224157362826140000016010523746227387825_);fill:#2F4C90;" d="
			M58.8,169.6c0,0.6,0,1.2,0,1.8c0.5,0,1.2,0.1,1.6-0.3c0.5-0.4,0.3-1.2-0.2-1.4C59.7,169.5,59.3,169.6,58.8,169.6 M56.3,167.9
			c1.4,0,2.8,0,4.2,0c0.7,0,1.5,0.2,2,0.7c0.6,0.6,0.7,1.5,0.6,2.3c-0.1,0.7-0.6,1.4-1.3,1.7c-0.9,0.4-2,0.3-3,0.3c0,1,0,2,0,3
			c-0.8,0-1.7,0-2.5,0C56.3,173.3,56.3,170.6,56.3,167.9"/>
	</g>
	<g>
		<defs>
			<rect id="SVGID_00000016057571094246717770000006054801201204683455_" x="-50.8" y="-476.3" width="1207.6" height="858.9"/>
		</defs>
		<clipPath id="SVGID_00000011740307614571869710000013358610036476156341_">
			<use xlink:href="#SVGID_00000016057571094246717770000006054801201204683455_"  style="overflow:visible;"/>
		</clipPath>
		<path id="path2283" style="clip-path:url(#SVGID_00000011740307614571869710000013358610036476156341_);fill:#649F4E;" d="
			M48.9,152.4c4.3,0.1,8.6,0.9,12.6,2.4c3.6,1.3,7,3.1,9.8,5.7c1.6,1.4,3,3.1,4,4.9c1.1,2,1.7,4.2,1.7,6.4c0,2.4-0.6,4.8-1.8,6.8
			c-1.8,3.3-4.8,6-8,7.9c-5.3,3.1-11.3,4.6-17.4,5c-0.2,0-0.5,0-0.7,0c3.8-0.4,7.5-2,10.5-4.4c2.5-2,4.4-4.7,5.6-7.7
			c2.2-0.6,4.5-1.3,6.6-2.3c1.6-0.8,3.1-1.8,4.1-3.2c0.6-0.9,0.9-2.1,0.5-3.2c-0.4-1-1.1-1.8-1.9-2.5c-1.4-1.2-3.2-2-4.9-2.7
			c-1.5-0.6-3.1-1-4.6-1.4c-1.8-4.1-5.1-7.6-9.1-9.6c-1.3-0.7-2.6-1.1-4-1.5C50.9,152.7,49.9,152.5,48.9,152.4"/>
	</g>
	<g>
		<defs>
			<rect id="SVGID_00000097469449437039708010000004210339020224141449_" x="-50.8" y="-476.3" width="1207.6" height="858.9"/>
		</defs>
		<clipPath id="SVGID_00000018223513311372773380000011319966500340153475_">
			<use xlink:href="#SVGID_00000097469449437039708010000004210339020224141449_"  style="overflow:visible;"/>
		</clipPath>
		<path id="path2285" style="clip-path:url(#SVGID_00000018223513311372773380000011319966500340153475_);fill:#97B5D2;" d="
			M38.5,156.2c2.8-1.6,6.1-2.3,9.4-2.2c3.5,0.2,7,1.4,9.9,3.5c2.1,1.6,3.8,3.6,5.1,5.9c-3.6-0.7-7.2-1.2-10.9-1.3
			c-4.5-0.2-9.1-0.1-13.6,0.3c-2.4,0.2-4.8,0.6-7.1,1.1c0.4-0.8,0.9-1.5,1.4-2.2C34.1,159.2,36.2,157.5,38.5,156.2"/>
	</g>
	<g>
		<defs>
			<rect id="SVGID_00000154424416508975445920000010870845732736118414_" x="-50.8" y="-476.3" width="1207.6" height="858.9"/>
		</defs>
		<clipPath id="SVGID_00000165231617353165615370000015534774394086740130_">
			<use xlink:href="#SVGID_00000154424416508975445920000010870845732736118414_"  style="overflow:visible;"/>
		</clipPath>
		<path id="path2287" style="clip-path:url(#SVGID_00000165231617353165615370000015534774394086740130_);fill:#97B5D2;" d="
			M30.9,179.8c5,1.1,10.2,1.5,15.3,1.6c5.7,0.1,11.4-0.4,16.9-1.5c-0.6,1-1.1,2-1.9,3c-2.4,3.2-6,5.5-9.9,6.5
			c-4.4,1.1-9.2,0.5-13.2-1.8C35.1,185.8,32.5,183,30.9,179.8"/>
	</g>
</g>
</svg>
