<?xml version="1.0" encoding="utf-8"?>
<!-- Generator: Adobe Illustrator 28.0.0, SVG Export Plug-In . SVG Version: 6.00 Build 0)  -->
<svg version="1.1" id="svg1" xmlns:svg="http://www.w3.org/2000/svg"
	 xmlns="http://www.w3.org/2000/svg" xmlns:xlink="http://www.w3.org/1999/xlink" x="0px" y="0px" viewBox="0 0 54.6 21.3"
	 style="enable-background:new 0 0 54.6 21.3;" xml:space="preserve">
<style type="text/css">
	.st0{clip-path:url(#SVGID_00000165223807120151277250000002649640869906189702_);fill:#E41C2A;}
	.st1{clip-path:url(#SVGID_00000086691406514847445770000005257496931974027664_);fill:#E41C2A;}
	.st2{clip-path:url(#SVGID_00000082360013343069514490000004228923003411209095_);fill:#E41C2A;}
	.st3{clip-path:url(#SVGID_00000170971493452058911060000002260477548319353490_);fill:#E41C2A;}
	.st4{clip-path:url(#SVGID_00000115477269225331300530000005099854294875674786_);fill:#E41C2A;}
	.st5{clip-path:url(#SVGID_00000107557624703577822320000014890014367846555316_);fill:#E41C2A;}
	.st6{clip-path:url(#SVGID_00000057841735476163914900000015689059750530765232_);fill:#E41C2A;}
	.st7{clip-path:url(#SVGID_00000065041557151205068420000000583540702808766343_);fill:#E41C2A;}
	.st8{clip-path:url(#SVGID_00000080908828509742396910000010535753683762184114_);fill:#E41C2A;}
	.st9{clip-path:url(#SVGID_00000071533173248896075980000005340307972568225156_);fill:#E41C2A;}
	.st10{clip-path:url(#SVGID_00000141417704564876365050000013411380603793607607_);fill:#E41C2A;}
	.st11{clip-path:url(#SVGID_00000025419098605116292880000000502589940631592360_);fill:#E41C2A;}
	.st12{clip-path:url(#SVGID_00000127014917644421353970000003669530983668423841_);fill:#E41C2A;}
	.st13{clip-path:url(#SVGID_00000025405965402436692370000002145979133978924417_);fill:#E41C2A;}
	.st14{clip-path:url(#SVGID_00000176029407921754669170000012766772074822126519_);fill:#E41C2A;}
	.st15{clip-path:url(#SVGID_00000166662880801284977800000010298192849752400516_);fill:#E41C2A;}
	.st16{clip-path:url(#SVGID_00000070081196995635045370000006410005566356631185_);fill:#E41C2A;}
	.st17{clip-path:url(#SVGID_00000172403857417567838540000002288757121183371415_);fill:#E41C2A;}
	.st18{clip-path:url(#SVGID_00000083779214178907036750000010904817363535240872_);fill:#E41C2A;}
	.st19{clip-path:url(#SVGID_00000128460820891689928890000005333578102067713943_);fill:#E41C2A;}
	.st20{clip-path:url(#SVGID_00000103981696118136453840000013775592661560050562_);fill:#E41C2A;}
	.st21{clip-path:url(#SVGID_00000106122426917750438780000015972175985461558168_);fill:#E41C2A;}
	.st22{clip-path:url(#SVGID_00000040574415003705957370000001226383950613920696_);fill:#E41C2A;}
	.st23{clip-path:url(#SVGID_00000164484137061383835350000008603844736427356854_);fill:#E41C2A;}
	.st24{clip-path:url(#SVGID_00000083799823114164874930000009976821808261139850_);fill:#E41C2A;}
	.st25{clip-path:url(#SVGID_00000098178888095766777200000011221009293095483268_);fill:#E41C2A;}
	.st26{clip-path:url(#SVGID_00000129195324535779227600000014083298657386217404_);fill:#E41C2A;}
	.st27{clip-path:url(#SVGID_00000087399194240965375230000008618671446562213514_);fill:#E41C2A;}
	.st28{clip-path:url(#SVGID_00000047740699695031991640000013355415662533640125_);fill:#E41C2A;}
	.st29{clip-path:url(#SVGID_00000024696841492350312020000004644710144126464644_);fill:#E41C2A;}
	.st30{clip-path:url(#SVGID_00000106137049108177427250000013964449789161939616_);fill:#E41C2A;}
	.st31{clip-path:url(#SVGID_00000135680041602923737520000010223146467058973826_);fill:#E41C2A;}
	.st32{clip-path:url(#SVGID_00000106847696905045281930000003323083087801565362_);fill:#E41C2A;}
	.st33{clip-path:url(#SVGID_00000087395684389170636700000013883117061120052630_);fill:#E41C2A;}
	.st34{clip-path:url(#SVGID_00000087372197238631292440000002708020444079019400_);fill:#E41C2A;}
	.st35{clip-path:url(#SVGID_00000060032722511032615750000001618496615761976451_);fill:#E41C2A;}
	.st36{clip-path:url(#SVGID_00000146482365849371766700000012377421418490077854_);fill:#E41C2A;}
	.st37{clip-path:url(#SVGID_00000107546979991868933080000004348645633325448846_);fill:#E41C2A;}
</style>
<g id="layer1" transform="translate(-106.62708,-95.25)">
	<g>
		<defs>
			<rect id="SVGID_1_" x="38.5" y="-212" width="1207.6" height="858.9"/>
		</defs>
		<clipPath id="SVGID_00000016048294978845989380000014061505038491415192_">
			<use xlink:href="#SVGID_1_"  style="overflow:visible;"/>
		</clipPath>
		<path id="path638" style="clip-path:url(#SVGID_00000016048294978845989380000014061505038491415192_);fill:#E41C2A;" d="
			M148.1,96.9h6.6c0.4,0,0.7-0.3,0.7-0.7v-0.9H148c-2.3,0-4.2,1.8-4.2,4.1c0,2.2,1.9,4,4.1,4h6.8c0.4,0,0.7-0.3,0.7-0.7v-0.9h-7.3
			c-1.4,0-2.5-1.1-2.5-2.4C145.6,97.9,146.7,96.9,148.1,96.9"/>
	</g>
	<g>
		<defs>
			<rect id="SVGID_00000078009010868095503110000001496203837320351629_" x="38.5" y="-212" width="1207.6" height="858.9"/>
		</defs>
		<clipPath id="SVGID_00000090997020376995392400000006717900940752001717_">
			<use xlink:href="#SVGID_00000078009010868095503110000001496203837320351629_"  style="overflow:visible;"/>
		</clipPath>
		<path id="path640" style="clip-path:url(#SVGID_00000090997020376995392400000006717900940752001717_);fill:#E41C2A;" d="
			M140.7,95.3c-0.4,0-0.7,0.3-0.7,0.7v7.4h1.1c0.4,0,0.7-0.3,0.7-0.7v-7.4H140.7z"/>
	</g>
	<g>
		<defs>
			<rect id="SVGID_00000112622830137892005500000002203222778898654103_" x="38.5" y="-212" width="1207.6" height="858.9"/>
		</defs>
		<clipPath id="SVGID_00000045583951790729118650000016237363100274623363_">
			<use xlink:href="#SVGID_00000112622830137892005500000002203222778898654103_"  style="overflow:visible;"/>
		</clipPath>
		<path id="path642" style="clip-path:url(#SVGID_00000045583951790729118650000016237363100274623363_);fill:#E41C2A;" d="
			M122.6,101.7h-7.5v-1.6h7.5c0.4,0,0.8,0.4,0.8,0.8C123.4,101.3,123.1,101.7,122.6,101.7 M124.4,99.2c0.4-0.4,0.6-1,0.5-1.6
			c0-1.3-1.2-2.4-2.5-2.4h-8.9v1c0,0.4,0.3,0.7,0.7,0.7h8.2c0.4,0,0.8,0.4,0.8,0.8c0,0.2-0.1,0.5-0.3,0.6c-0.2,0.1-0.4,0.2-0.6,0.2
			h-8.3c-0.4,0-0.7,0.3-0.7,0.7v3.5c0,0.4,0.3,0.7,0.7,0.7h8.4c1.4,0,2.5-1.1,2.5-2.4C125.1,100.3,124.8,99.7,124.4,99.2"/>
	</g>
	<g>
		<defs>
			<rect id="SVGID_00000177442327600177041350000017364638722622652316_" x="38.5" y="-212" width="1207.6" height="858.9"/>
		</defs>
		<clipPath id="SVGID_00000071523223494618604990000005172636446324445863_">
			<use xlink:href="#SVGID_00000177442327600177041350000017364638722622652316_"  style="overflow:visible;"/>
		</clipPath>
		<path id="path644" style="clip-path:url(#SVGID_00000071523223494618604990000005172636446324445863_);fill:#E41C2A;" d="
			M138.5,103.3l-3.9-6.7c-0.5-0.9-1.4-1.4-2.5-1.4c-1,0-2,0.5-2.5,1.4l-3.9,6.7h1.5c0.3,0,0.7-0.2,0.8-0.5l3.2-5.4
			c0.4-0.6,1.3-0.6,1.7,0l3.2,5.4c0.2,0.3,0.5,0.5,0.8,0.5H138.5z"/>
	</g>
	<g>
		<defs>
			<rect id="SVGID_00000095301577605514978200000009515489590054903175_" x="38.5" y="-212" width="1207.6" height="858.9"/>
		</defs>
		<clipPath id="SVGID_00000018195671019232384550000003557846687534326168_">
			<use xlink:href="#SVGID_00000095301577605514978200000009515489590054903175_"  style="overflow:visible;"/>
		</clipPath>
		<path id="path646" style="clip-path:url(#SVGID_00000018195671019232384550000003557846687534326168_);fill:#E41C2A;" d="
			M136.8,113.7c-0.1,0.4-1.3,2-1.9,2.7l2,0c0.7-0.4,1.5-1.3,2.3-2.7H136.8z"/>
	</g>
	<g>
		<defs>
			<rect id="SVGID_00000026138265828255780290000002788967487758605455_" x="38.5" y="-212" width="1207.6" height="858.9"/>
		</defs>
		<clipPath id="SVGID_00000093855307607793159820000016955534393536599171_">
			<use xlink:href="#SVGID_00000026138265828255780290000002788967487758605455_"  style="overflow:visible;"/>
		</clipPath>
		<path id="path648" style="clip-path:url(#SVGID_00000093855307607793159820000016955534393536599171_);fill:#E41C2A;" d="
			M145.3,113.7c0.1,0.4,1.4,2,2,2.7l-2,0c-0.7-0.4-1.5-1.3-2.4-2.7H145.3z"/>
	</g>
	<g>
		<defs>
			<rect id="SVGID_00000137127009444836239880000002002541202807327112_" x="38.5" y="-212" width="1207.6" height="858.9"/>
		</defs>
		<clipPath id="SVGID_00000047780038868205321290000004778745615933445816_">
			<use xlink:href="#SVGID_00000137127009444836239880000002002541202807327112_"  style="overflow:visible;"/>
		</clipPath>
		<path id="path650" style="clip-path:url(#SVGID_00000047780038868205321290000004778745615933445816_);fill:#E41C2A;" d="
			M126.1,108.8h6.3v-1.1h-5.2c-0.1,0-0.4-0.1-0.4-0.4v-0.3h-2.3v0.5C124.7,108.2,125.2,108.8,126.1,108.8"/>
	</g>
	<g>
		<defs>
			<rect id="SVGID_00000126298103571508493330000017957087068483920565_" x="38.5" y="-212" width="1207.6" height="858.9"/>
		</defs>
		<clipPath id="SVGID_00000125593945887754654690000001588812151792427166_">
			<use xlink:href="#SVGID_00000126298103571508493330000017957087068483920565_"  style="overflow:visible;"/>
		</clipPath>
		<path id="path652" style="clip-path:url(#SVGID_00000125593945887754654690000001588812151792427166_);fill:#E41C2A;" d="
			M132.3,114.6v-2.2c0-0.6-0.6-1.1-1.1-1.1H125v1.1h4.7c0.3,0,0.4,0.2,0.4,0.3v1.6l0,0c0,1.1,0.9,1.9,2,1.9h0h1.5V115h-0.9
			C132.5,115,132.3,114.8,132.3,114.6"/>
	</g>
	<g>
		<defs>
			<rect id="SVGID_00000133492570488442594320000010616850807467814045_" x="38.5" y="-212" width="1207.6" height="858.9"/>
		</defs>
		<clipPath id="SVGID_00000046340922586684580370000005336719359495908778_">
			<use xlink:href="#SVGID_00000133492570488442594320000010616850807467814045_"  style="overflow:visible;"/>
		</clipPath>
		<path id="path654" style="clip-path:url(#SVGID_00000046340922586684580370000005336719359495908778_);fill:#E41C2A;" d="
			M132.4,109.5H125v1.1h7.5V109.5z"/>
	</g>
	<g>
		<defs>
			<rect id="SVGID_00000003791661076967373430000015994360670817041062_" x="38.5" y="-212" width="1207.6" height="858.9"/>
		</defs>
		<clipPath id="SVGID_00000018930377501536708680000002729620060371909011_">
			<use xlink:href="#SVGID_00000003791661076967373430000015994360670817041062_"  style="overflow:visible;"/>
		</clipPath>
		<path id="path656" style="clip-path:url(#SVGID_00000018930377501536708680000002729620060371909011_);fill:#E41C2A;" d="
			M160.1,107h-11.4v9.4h12.5v-8.3C161.2,107.2,160.6,107,160.1,107 M159.2,115.3h-8.5V108h8.5V115.3z"/>
	</g>
	<g>
		<defs>
			<rect id="SVGID_00000059274084141830658520000007267362503808893866_" x="38.5" y="-212" width="1207.6" height="858.9"/>
		</defs>
		<clipPath id="SVGID_00000011718469601967159850000006028004541062597514_">
			<use xlink:href="#SVGID_00000059274084141830658520000007267362503808893866_"  style="overflow:visible;"/>
		</clipPath>
		<path id="path658" style="clip-path:url(#SVGID_00000011718469601967159850000006028004541062597514_);fill:#E41C2A;" d="
			M151.6,113.6l0,1c2-0.8,3.4-2.5,3.9-4.5h0.4v3c0,0.3-0.2,0.4-0.4,0.4h-0.7v1.2h1.1h0c1.1,0,1.9-0.8,1.9-1.8l0-0.3v-2.6h0.7v-1
			h-0.7v-0.7h-1.9v0.7h-4.3v1h2c-0.2,1.2-0.8,2.2-2,3.2"/>
	</g>
	<g>
		<defs>
			<rect id="SVGID_00000000200197741134098940000013711311338004892562_" x="38.5" y="-212" width="1207.6" height="858.9"/>
		</defs>
		<clipPath id="SVGID_00000110439152599364010280000016913008810673441162_">
			<use xlink:href="#SVGID_00000000200197741134098940000013711311338004892562_"  style="overflow:visible;"/>
		</clipPath>
		<path id="path660" style="clip-path:url(#SVGID_00000110439152599364010280000016913008810673441162_);fill:#E41C2A;" d="
			M109.8,109.5h-3.2v1.4h3.2v3.6c0,0.3-0.3,0.5-0.5,0.5h-2.7v1.4h3.3c1.4,0,2.1-0.7,2.1-2.1V107h-2.2V109.5z"/>
	</g>
	<g>
		<defs>
			<rect id="SVGID_00000091008191700901154280000018155688151946013572_" x="38.5" y="-212" width="1207.6" height="858.9"/>
		</defs>
		<clipPath id="SVGID_00000100359944991628380380000015181256187022607253_">
			<use xlink:href="#SVGID_00000091008191700901154280000018155688151946013572_"  style="overflow:visible;"/>
		</clipPath>
		<path id="path662" style="clip-path:url(#SVGID_00000100359944991628380380000015181256187022607253_);fill:#E41C2A;" d="
			M115.8,109.5h3.2v1.4h-3.2v3.6c0,0.3,0.3,0.5,0.5,0.5h2.7l0,1.4h-3.3c-1.4,0-2.1-0.7-2.1-2.1V107h2.2V109.5z"/>
	</g>
	<g>
		<defs>
			<rect id="SVGID_00000011014428421834718610000017586580500946252191_" x="38.5" y="-212" width="1207.6" height="858.9"/>
		</defs>
		<clipPath id="SVGID_00000026140320668083822150000009021782837220084903_">
			<use xlink:href="#SVGID_00000011014428421834718610000017586580500946252191_"  style="overflow:visible;"/>
		</clipPath>
		<path id="path664" style="clip-path:url(#SVGID_00000026140320668083822150000009021782837220084903_);fill:#E41C2A;" d="
			M136.5,109.6h-2.1l1.5-2.6h2.1L136.5,109.6z"/>
	</g>
	<g>
		<defs>
			<rect id="SVGID_00000000919157315044069240000004851189625601663411_" x="38.5" y="-212" width="1207.6" height="858.9"/>
		</defs>
		<clipPath id="SVGID_00000025421169131276034350000012121040546922880393_">
			<use xlink:href="#SVGID_00000000919157315044069240000004851189625601663411_"  style="overflow:visible;"/>
		</clipPath>
		<path id="path666" style="clip-path:url(#SVGID_00000025421169131276034350000012121040546922880393_);fill:#E41C2A;" d="
			M146.9,108.3v-0.8h-3.8V107h-2.3v0.5H138l0,0.8h2.8l0,0.6H138l0,0.8h2.8l0,0.6H138l0,0.8h2.8l0,0.6h-3.1c-0.4,0-0.4-0.3-0.4-0.3
			l0-3.6l-2,1.1l0,3.2c0,0.1,0.1,0.5,0.6,0.5h11v-0.9h-3.8l0-0.6h3.8v-0.8h-3.8l0-0.6h3.8l0-0.8h-3.8l0-0.6H146.9z"/>
	</g>
	<g>
		<defs>
			<rect id="SVGID_00000080192528483674728910000010490342240080660923_" x="38.5" y="-212" width="1207.6" height="858.9"/>
		</defs>
		<clipPath id="SVGID_00000075879487689910052580000016882716471371865731_">
			<use xlink:href="#SVGID_00000080192528483674728910000010490342240080660923_"  style="overflow:visible;"/>
		</clipPath>
		<path id="path668" style="clip-path:url(#SVGID_00000075879487689910052580000016882716471371865731_);fill:#E41C2A;" d="
			M138.7,114.2h1.2l0,2.2h2.3l0-2.2h1.3h2.4h1.3v-1.1h-5l0-0.4h-2.3l0,0.4h-5.2l0,1.1h1.6H138.7z"/>
	</g>
	<g>
		<defs>
			<rect id="SVGID_00000138543452650760376010000006078877314273732015_" x="38.5" y="-212" width="1207.6" height="858.9"/>
		</defs>
		<clipPath id="SVGID_00000017516002388882155130000009391658347277666464_">
			<use xlink:href="#SVGID_00000138543452650760376010000006078877314273732015_"  style="overflow:visible;"/>
		</clipPath>
		<path id="path670" style="clip-path:url(#SVGID_00000017516002388882155130000009391658347277666464_);fill:#E41C2A;" d="
			M122.3,111.7c0,0.9-0.5,2.7-1.7,3.3v1.6c2.8-0.5,3.6-3.5,3.6-4.8H122.3z"/>
	</g>
	<g>
		<defs>
			<rect id="SVGID_00000000936015699755164690000003891673652891146391_" x="38.5" y="-212" width="1207.6" height="858.9"/>
		</defs>
		<clipPath id="SVGID_00000003786542012000198520000004693622064209782441_">
			<use xlink:href="#SVGID_00000000936015699755164690000003891673652891146391_"  style="overflow:visible;"/>
		</clipPath>
		<path id="path672" style="clip-path:url(#SVGID_00000003786542012000198520000004693622064209782441_);fill:#E41C2A;" d="
			M124.2,107.7c-1.6-0.2-3.4-0.6-3.4-0.6v1.3c0,0,2.2,0.4,3.4,0.6V107.7z"/>
	</g>
	<g>
		<defs>
			<rect id="SVGID_00000026140338751719439110000009855106359602217919_" x="38.5" y="-212" width="1207.6" height="858.9"/>
		</defs>
		<clipPath id="SVGID_00000042002494888956147920000009043929765496258726_">
			<use xlink:href="#SVGID_00000026140338751719439110000009855106359602217919_"  style="overflow:visible;"/>
		</clipPath>
		<path id="path674" style="clip-path:url(#SVGID_00000042002494888956147920000009043929765496258726_);fill:#E41C2A;" d="
			M124.2,109.8c-1.6-0.2-3.4-0.6-3.4-0.6v1.3c0,0,2.2,0.4,3.4,0.6V109.8z"/>
	</g>
	<g>
		<defs>
			<rect id="SVGID_00000021820370227218523090000006420170828765968559_" x="38.5" y="-212" width="1207.6" height="858.9"/>
		</defs>
		<clipPath id="SVGID_00000057860141426238517290000004093105700016876947_">
			<use xlink:href="#SVGID_00000021820370227218523090000006420170828765968559_"  style="overflow:visible;"/>
		</clipPath>
		<path id="path5282" style="clip-path:url(#SVGID_00000057860141426238517290000004093105700016876947_);fill:#E41C2A;" d="
			M148.1,96.9h6.6c0.4,0,0.7-0.3,0.7-0.7v-0.9H148c-2.3,0-4.2,1.8-4.2,4.1c0,2.2,1.9,4,4.1,4h6.8c0.4,0,0.7-0.3,0.7-0.7v-0.9h-7.3
			c-1.4,0-2.5-1.1-2.5-2.4C145.6,97.9,146.7,96.9,148.1,96.9"/>
	</g>
	<g>
		<defs>
			<rect id="SVGID_00000051353707127631298140000004507027052418361264_" x="38.5" y="-212" width="1207.6" height="858.9"/>
		</defs>
		<clipPath id="SVGID_00000183949714020562831530000005556174574695258025_">
			<use xlink:href="#SVGID_00000051353707127631298140000004507027052418361264_"  style="overflow:visible;"/>
		</clipPath>
		<path id="path5283" style="clip-path:url(#SVGID_00000183949714020562831530000005556174574695258025_);fill:#E41C2A;" d="
			M140.7,95.3c-0.4,0-0.7,0.3-0.7,0.7v7.4h1.1c0.4,0,0.7-0.3,0.7-0.7v-7.4H140.7z"/>
	</g>
	<g>
		<defs>
			<rect id="SVGID_00000174581440398957790290000015307991382470263179_" x="38.5" y="-212" width="1207.6" height="858.9"/>
		</defs>
		<clipPath id="SVGID_00000119819121411431574900000002688604051598162093_">
			<use xlink:href="#SVGID_00000174581440398957790290000015307991382470263179_"  style="overflow:visible;"/>
		</clipPath>
		<path id="path5284" style="clip-path:url(#SVGID_00000119819121411431574900000002688604051598162093_);fill:#E41C2A;" d="
			M122.6,101.7h-7.5v-1.6h7.5c0.4,0,0.8,0.4,0.8,0.8C123.4,101.3,123.1,101.7,122.6,101.7 M124.4,99.2c0.4-0.4,0.6-1,0.5-1.6
			c0-1.3-1.2-2.4-2.5-2.4h-8.9v1c0,0.4,0.3,0.7,0.7,0.7h8.2c0.4,0,0.8,0.4,0.8,0.8c0,0.2-0.1,0.5-0.3,0.6c-0.2,0.1-0.4,0.2-0.6,0.2
			h-8.3c-0.4,0-0.7,0.3-0.7,0.7v3.5c0,0.4,0.3,0.7,0.7,0.7h8.4c1.4,0,2.5-1.1,2.5-2.4C125.1,100.3,124.8,99.7,124.4,99.2"/>
	</g>
	<g>
		<defs>
			<rect id="SVGID_00000057136085588448992170000015389379134058279344_" x="38.5" y="-212" width="1207.6" height="858.9"/>
		</defs>
		<clipPath id="SVGID_00000179638545106924049960000011183841159388995506_">
			<use xlink:href="#SVGID_00000057136085588448992170000015389379134058279344_"  style="overflow:visible;"/>
		</clipPath>
		<path id="path5285" style="clip-path:url(#SVGID_00000179638545106924049960000011183841159388995506_);fill:#E41C2A;" d="
			M138.5,103.3l-3.9-6.7c-0.5-0.9-1.4-1.4-2.5-1.4c-1,0-2,0.5-2.5,1.4l-3.9,6.7h1.5c0.3,0,0.7-0.2,0.8-0.5l3.2-5.4
			c0.4-0.6,1.3-0.6,1.7,0l3.2,5.4c0.2,0.3,0.5,0.5,0.8,0.5H138.5z"/>
	</g>
	<g>
		<defs>
			<rect id="SVGID_00000153674179803676946950000005167219226869396371_" x="38.5" y="-212" width="1207.6" height="858.9"/>
		</defs>
		<clipPath id="SVGID_00000174579757985214853650000010899808447602019261_">
			<use xlink:href="#SVGID_00000153674179803676946950000005167219226869396371_"  style="overflow:visible;"/>
		</clipPath>
		<path id="path5286" style="clip-path:url(#SVGID_00000174579757985214853650000010899808447602019261_);fill:#E41C2A;" d="
			M136.8,113.7c-0.1,0.4-1.3,2-1.9,2.7l2,0c0.7-0.4,1.5-1.3,2.3-2.7H136.8z"/>
	</g>
	<g>
		<defs>
			<rect id="SVGID_00000133527669996303529090000010748210688324705697_" x="38.5" y="-212" width="1207.6" height="858.9"/>
		</defs>
		<clipPath id="SVGID_00000018230702542787926110000005346884474508558725_">
			<use xlink:href="#SVGID_00000133527669996303529090000010748210688324705697_"  style="overflow:visible;"/>
		</clipPath>
		<path id="path5287" style="clip-path:url(#SVGID_00000018230702542787926110000005346884474508558725_);fill:#E41C2A;" d="
			M145.3,113.7c0.1,0.4,1.4,2,2,2.7l-2,0c-0.7-0.4-1.5-1.3-2.4-2.7H145.3z"/>
	</g>
	<g>
		<defs>
			<rect id="SVGID_00000028318271333382225960000009133039797246962088_" x="38.5" y="-212" width="1207.6" height="858.9"/>
		</defs>
		<clipPath id="SVGID_00000090294114833241941230000008537153195705401990_">
			<use xlink:href="#SVGID_00000028318271333382225960000009133039797246962088_"  style="overflow:visible;"/>
		</clipPath>
		<path id="path5288" style="clip-path:url(#SVGID_00000090294114833241941230000008537153195705401990_);fill:#E41C2A;" d="
			M126.1,108.8h6.3v-1.1h-5.2c-0.1,0-0.4-0.1-0.4-0.4v-0.3h-2.3v0.5C124.7,108.2,125.2,108.8,126.1,108.8"/>
	</g>
	<g>
		<defs>
			<rect id="SVGID_00000006687565685465882740000003843759701522221234_" x="38.5" y="-212" width="1207.6" height="858.9"/>
		</defs>
		<clipPath id="SVGID_00000109028467030381058560000012317229659678214036_">
			<use xlink:href="#SVGID_00000006687565685465882740000003843759701522221234_"  style="overflow:visible;"/>
		</clipPath>
		<path id="path5289" style="clip-path:url(#SVGID_00000109028467030381058560000012317229659678214036_);fill:#E41C2A;" d="
			M132.3,114.6v-2.2c0-0.6-0.6-1.1-1.1-1.1H125v1.1h4.7c0.3,0,0.4,0.2,0.4,0.3v1.6l0,0c0,1.1,0.9,1.9,2,1.9h0h1.5V115h-0.9
			C132.5,115,132.3,114.8,132.3,114.6"/>
	</g>
	<g>
		<defs>
			<rect id="SVGID_00000090999403359128606910000018238574387471277442_" x="38.5" y="-212" width="1207.6" height="858.9"/>
		</defs>
		<clipPath id="SVGID_00000060006580301074523610000017491763851580908210_">
			<use xlink:href="#SVGID_00000090999403359128606910000018238574387471277442_"  style="overflow:visible;"/>
		</clipPath>
		<path id="path5290" style="clip-path:url(#SVGID_00000060006580301074523610000017491763851580908210_);fill:#E41C2A;" d="
			M132.4,109.5H125v1.1h7.5V109.5z"/>
	</g>
	<g>
		<defs>
			<rect id="SVGID_00000021825097860812387660000017106760461146365573_" x="38.5" y="-212" width="1207.6" height="858.9"/>
		</defs>
		<clipPath id="SVGID_00000073689025891011668510000007367335416410066051_">
			<use xlink:href="#SVGID_00000021825097860812387660000017106760461146365573_"  style="overflow:visible;"/>
		</clipPath>
		<path id="path5291" style="clip-path:url(#SVGID_00000073689025891011668510000007367335416410066051_);fill:#E41C2A;" d="
			M160.1,107h-11.4v9.4h12.5v-8.3C161.2,107.2,160.6,107,160.1,107 M159.2,115.3h-8.5V108h8.5V115.3z"/>
	</g>
	<g>
		<defs>
			<rect id="SVGID_00000097491899463723588620000013248177287994733247_" x="38.5" y="-212" width="1207.6" height="858.9"/>
		</defs>
		<clipPath id="SVGID_00000016780707602854788610000002997683892586594203_">
			<use xlink:href="#SVGID_00000097491899463723588620000013248177287994733247_"  style="overflow:visible;"/>
		</clipPath>
		<path id="path5292" style="clip-path:url(#SVGID_00000016780707602854788610000002997683892586594203_);fill:#E41C2A;" d="
			M151.6,113.6l0,1c2-0.8,3.4-2.5,3.9-4.5h0.4v3c0,0.3-0.2,0.4-0.4,0.4h-0.7v1.2h1.1h0c1.1,0,1.9-0.8,1.9-1.8l0-0.3v-2.6h0.7v-1
			h-0.7v-0.7h-1.9v0.7h-4.3v1h2c-0.2,1.2-0.8,2.2-2,3.2"/>
	</g>
	<g>
		<defs>
			<rect id="SVGID_00000026883812142140781260000013434403429344109967_" x="38.5" y="-212" width="1207.6" height="858.9"/>
		</defs>
		<clipPath id="SVGID_00000141448351014411828750000009669914544030052000_">
			<use xlink:href="#SVGID_00000026883812142140781260000013434403429344109967_"  style="overflow:visible;"/>
		</clipPath>
		<path id="path5293" style="clip-path:url(#SVGID_00000141448351014411828750000009669914544030052000_);fill:#E41C2A;" d="
			M109.8,109.5h-3.2v1.4h3.2v3.6c0,0.3-0.3,0.5-0.5,0.5h-2.7v1.4h3.3c1.4,0,2.1-0.7,2.1-2.1V107h-2.2V109.5z"/>
	</g>
	<g>
		<defs>
			<rect id="SVGID_00000098909600710435172170000010531974200229523882_" x="38.5" y="-212" width="1207.6" height="858.9"/>
		</defs>
		<clipPath id="SVGID_00000078726996588775227090000017669730050928757435_">
			<use xlink:href="#SVGID_00000098909600710435172170000010531974200229523882_"  style="overflow:visible;"/>
		</clipPath>
		<path id="path5294" style="clip-path:url(#SVGID_00000078726996588775227090000017669730050928757435_);fill:#E41C2A;" d="
			M115.8,109.5h3.2v1.4h-3.2v3.6c0,0.3,0.3,0.5,0.5,0.5h2.7l0,1.4h-3.3c-1.4,0-2.1-0.7-2.1-2.1V107h2.2V109.5z"/>
	</g>
	<g>
		<defs>
			<rect id="SVGID_00000143613848290593663940000017067632836832430256_" x="38.5" y="-212" width="1207.6" height="858.9"/>
		</defs>
		<clipPath id="SVGID_00000041973638330411788070000013123686223801868960_">
			<use xlink:href="#SVGID_00000143613848290593663940000017067632836832430256_"  style="overflow:visible;"/>
		</clipPath>
		<path id="path5295" style="clip-path:url(#SVGID_00000041973638330411788070000013123686223801868960_);fill:#E41C2A;" d="
			M136.5,109.6h-2.1l1.5-2.6h2.1L136.5,109.6z"/>
	</g>
	<g>
		<defs>
			<rect id="SVGID_00000065036725080854078540000001138926151248916124_" x="38.5" y="-212" width="1207.6" height="858.9"/>
		</defs>
		<clipPath id="SVGID_00000079478128898517258980000005089186770432899747_">
			<use xlink:href="#SVGID_00000065036725080854078540000001138926151248916124_"  style="overflow:visible;"/>
		</clipPath>
		<path id="path5296" style="clip-path:url(#SVGID_00000079478128898517258980000005089186770432899747_);fill:#E41C2A;" d="
			M146.9,108.3v-0.8h-3.8V107h-2.3v0.5H138l0,0.8h2.8l0,0.6H138l0,0.8h2.8l0,0.6H138l0,0.8h2.8l0,0.6h-3.1c-0.4,0-0.4-0.3-0.4-0.3
			l0-3.6l-2,1.1l0,3.2c0,0.1,0.1,0.5,0.6,0.5h11v-0.9h-3.8l0-0.6h3.8v-0.8h-3.8l0-0.6h3.8l0-0.8h-3.8l0-0.6H146.9z"/>
	</g>
	<g>
		<defs>
			<rect id="SVGID_00000183219911830318690400000013694256812553277371_" x="38.5" y="-212" width="1207.6" height="858.9"/>
		</defs>
		<clipPath id="SVGID_00000095335361923660937620000008150331831454507909_">
			<use xlink:href="#SVGID_00000183219911830318690400000013694256812553277371_"  style="overflow:visible;"/>
		</clipPath>
		<path id="path5297" style="clip-path:url(#SVGID_00000095335361923660937620000008150331831454507909_);fill:#E41C2A;" d="
			M138.7,114.2h1.2l0,2.2h2.3l0-2.2h1.3h2.4h1.3v-1.1h-5l0-0.4h-2.3l0,0.4h-5.2l0,1.1h1.6H138.7z"/>
	</g>
	<g>
		<defs>
			<rect id="SVGID_00000106141060693774520920000017761359370595108743_" x="38.5" y="-212" width="1207.6" height="858.9"/>
		</defs>
		<clipPath id="SVGID_00000014604484816129086810000005484634127626240674_">
			<use xlink:href="#SVGID_00000106141060693774520920000017761359370595108743_"  style="overflow:visible;"/>
		</clipPath>
		<path id="path5298" style="clip-path:url(#SVGID_00000014604484816129086810000005484634127626240674_);fill:#E41C2A;" d="
			M122.3,111.7c0,0.9-0.5,2.7-1.7,3.3v1.6c2.8-0.5,3.6-3.5,3.6-4.8H122.3z"/>
	</g>
	<g>
		<defs>
			<rect id="SVGID_00000100381978382720490770000013031906229565915799_" x="38.5" y="-212" width="1207.6" height="858.9"/>
		</defs>
		<clipPath id="SVGID_00000011027045469264502310000012900298652901573548_">
			<use xlink:href="#SVGID_00000100381978382720490770000013031906229565915799_"  style="overflow:visible;"/>
		</clipPath>
		<path id="path5299" style="clip-path:url(#SVGID_00000011027045469264502310000012900298652901573548_);fill:#E41C2A;" d="
			M124.2,107.7c-1.6-0.2-3.4-0.6-3.4-0.6v1.3c0,0,2.2,0.4,3.4,0.6V107.7z"/>
	</g>
	<g>
		<defs>
			<rect id="SVGID_00000148659395740909427880000009527373013645204869_" x="38.5" y="-212" width="1207.6" height="858.9"/>
		</defs>
		<clipPath id="SVGID_00000115506748588476845180000004665952210221730190_">
			<use xlink:href="#SVGID_00000148659395740909427880000009527373013645204869_"  style="overflow:visible;"/>
		</clipPath>
		<path id="path5300" style="clip-path:url(#SVGID_00000115506748588476845180000004665952210221730190_);fill:#E41C2A;" d="
			M124.2,109.8c-1.6-0.2-3.4-0.6-3.4-0.6v1.3c0,0,2.2,0.4,3.4,0.6V109.8z"/>
	</g>
</g>
</svg>
