<?xml version="1.0" encoding="UTF-8" standalone="no"?>
<!-- Created with Inkscape (http://www.inkscape.org/) -->

<svg
   version="1.1"
   id="svg1"
   width="136.04462"
   height="26.456665"
   viewBox="0 0 136.04462 26.456664"
   xmlns="http://www.w3.org/2000/svg"
   xmlns:svg="http://www.w3.org/2000/svg">
  <defs
     id="defs1">
    <clipPath
       clipPathUnits="userSpaceOnUse"
       id="clipPath861">
      <path
         d="M 0,858.898 H 1207.558 V 0 H 0 Z"
         transform="translate(-268.74081,-434.80831)"
         id="path861" />
    </clipPath>
    <clipPath
       clipPathUnits="userSpaceOnUse"
       id="clipPath863">
      <path
         d="M 0,858.898 H 1207.558 V 0 H 0 Z"
         transform="translate(-227.13971,-433.47771)"
         id="path863" />
    </clipPath>
    <clipPath
       clipPathUnits="userSpaceOnUse"
       id="clipPath865">
      <path
         d="M 0,858.898 H 1207.558 V 0 H 0 Z"
         transform="translate(-230.45561,-447.73971)"
         id="path865" />
    </clipPath>
    <clipPath
       clipPathUnits="userSpaceOnUse"
       id="clipPath867">
      <path
         d="M 0,858.898 H 1207.558 V 0 H 0 Z"
         transform="translate(-230.13551,-446.72071)"
         id="path867" />
    </clipPath>
  </defs>
  <g
     id="layer-MC4"
     transform="translate(-243.07151,-532.84786)">
    <path
       id="path860"
       d="m 0,0 c -0.31,0.304 -0.808,0.3 -1.112,-0.01 l -1.249,-1.271 v 3.222 h 1.573 c 0.434,0 0.786,0.353 0.786,0.787 0,0.434 -0.352,0.786 -0.786,0.786 h -1.573 v 1.675 h 1.227 c 0.434,0 0.786,0.351 0.786,0.786 0,0.434 -0.352,0.786 -0.786,0.786 h -4.027 c -0.434,0 -0.786,-0.352 -0.786,-0.786 0,-0.435 0.352,-0.786 0.786,-0.786 h 1.227 V 3.514 h -1.573 c -0.434,0 -0.787,-0.352 -0.787,-0.786 0,-0.434 0.353,-0.787 0.787,-0.787 h 1.573 V -1.83 c 0,-0.545 0.325,-1.033 0.828,-1.243 0.168,-0.07 0.344,-0.105 0.519,-0.105 0.348,0 0.691,0.137 0.956,0.397 l 1.64,1.669 C 0.314,-0.802 0.31,-0.305 0,0 m 15.746,10.271 c -0.22,0.374 -0.702,0.498 -1.077,0.277 C 14.295,10.328 14.171,9.846 14.391,9.472 14.396,9.464 14.659,9.013 14.97,8.319 L 11.874,8.142 c 0.879,1.361 1.414,2.521 1.442,2.583 0.181,0.395 0.007,0.861 -0.387,1.042 -0.394,0.181 -0.861,0.008 -1.042,-0.387 C 11.878,11.362 11.046,9.562 9.792,7.903 9.775,7.881 9.759,7.857 9.745,7.833 9.631,7.645 9.632,7.512 9.633,7.269 9.634,7.054 9.723,6.848 9.88,6.7 c 0.147,-0.138 0.339,-0.214 0.539,-0.214 0.015,0 0.03,0 0.045,0.001 l 5.094,0.29 c 0.039,-0.125 0.077,-0.252 0.113,-0.382 0.096,-0.349 0.412,-0.578 0.758,-0.578 0.068,0 0.139,0.009 0.208,0.029 0.419,0.115 0.665,0.547 0.55,0.966 -0.516,1.878 -1.403,3.395 -1.441,3.459 M -5.258,7.134 c 0.026,0.027 0.35,0.361 0.761,0.984 h 3.498 c 0.434,0 0.786,0.352 0.786,0.786 0,0.434 -0.352,0.787 -0.786,0.787 h -2.646 c 0.15,0.342 0.296,0.715 0.426,1.122 0.131,0.414 -0.097,0.856 -0.51,0.988 -0.414,0.132 -0.856,-0.096 -0.988,-0.51 -0.626,-1.96 -1.644,-3.035 -1.665,-3.056 -0.302,-0.31 -0.297,-0.806 0.012,-1.11 0.153,-0.151 0.352,-0.226 0.551,-0.226 0.203,0 0.407,0.079 0.561,0.235 m -11.613,-7.168 -4.644,-1.198 c -0.42,-0.108 -0.673,-0.537 -0.565,-0.957 0.092,-0.355 0.411,-0.59 0.761,-0.59 0.065,0 0.131,0.008 0.197,0.025 l 4.644,1.197 c 0.42,0.109 0.673,0.537 0.565,0.958 -0.108,0.42 -0.537,0.673 -0.958,0.565 m -4.787,4.508 2.08,0.193 c -1.129,-1.599 -2.148,-2.854 -2.164,-2.874 -0.215,-0.265 -0.235,-0.639 -0.049,-0.925 0.148,-0.227 0.398,-0.358 0.659,-0.357 0.069,0 0.139,0.009 0.208,0.028 l 3.853,1.052 c 0.419,0.115 0.666,0.547 0.551,0.966 -0.114,0.419 -0.546,0.667 -0.965,0.551 l -1.592,-0.435 c 0.839,1.133 1.886,2.627 2.702,4.053 0.216,0.377 0.085,0.857 -0.292,1.073 -0.377,0.215 -0.857,0.085 -1.073,-0.292 -0.218,-0.381 -0.456,-0.77 -0.702,-1.156 l -1.687,-0.156 c 0.732,1.108 1.729,2.723 2.442,4.295 0.18,0.395 0.005,0.861 -0.391,1.041 -0.395,0.179 -0.861,0.004 -1.041,-0.391 -1.168,-2.572 -3.225,-5.39 -3.245,-5.418 -0.184,-0.249 -0.203,-0.583 -0.05,-0.852 0.14,-0.248 0.402,-0.399 0.683,-0.399 0.025,0 0.049,0.001 0.073,0.003 M -24.14,1.459 c -0.435,0 -0.787,-0.352 -0.787,-0.786 v -1.058 c 0,-0.453 -0.368,-0.822 -0.822,-0.822 h -4.913 c -0.394,0 -0.556,0.298 -0.596,0.389 -0.041,0.091 -0.152,0.411 0.113,0.702 l 6.946,7.649 c 0.423,0.466 0.528,1.113 0.273,1.689 -0.255,0.576 -0.804,0.933 -1.434,0.933 h -6.221 c -0.435,0 -0.787,-0.352 -0.787,-0.786 0,-0.434 0.352,-0.786 0.787,-0.786 l 6.218,0.007 -6.946,-7.649 c -0.601,-0.661 -0.749,-1.579 -0.387,-2.396 0.362,-0.817 1.141,-1.324 2.034,-1.324 h 4.913 c 1.321,0 2.395,1.074 2.395,2.394 v 1.058 c 0,0.434 -0.352,0.786 -0.786,0.786 m -8.974,10.324 c -0.406,0.154 -0.86,-0.051 -1.014,-0.456 -0.01,-0.027 -1.044,-2.706 -3.565,-5.588 -0.286,-0.327 -0.253,-0.823 0.074,-1.109 0.149,-0.131 0.333,-0.195 0.517,-0.195 0.219,0 0.437,0.091 0.592,0.269 0.323,0.369 0.622,0.734 0.9,1.091 v -8.58 c 0,-0.435 0.352,-0.787 0.787,-0.787 0.434,0 0.786,0.352 0.786,0.787 V 8.073 c 0.937,1.54 1.353,2.626 1.38,2.698 0.154,0.406 -0.051,0.859 -0.457,1.012 M -9.079,3.514 h -2.441 v 1.58 h 2.141 c 0.435,0 0.786,0.352 0.786,0.786 0,0.435 -0.351,0.787 -0.786,0.787 h -2.141 v 1.451 h 2.677 c 0.434,0 0.787,0.352 0.787,0.786 0,0.434 -0.353,0.787 -0.787,0.787 h -2.677 v 1.357 c 0,0.435 -0.352,0.787 -0.786,0.787 -0.434,0 -0.786,-0.352 -0.786,-0.787 V 9.691 h -2.678 c -0.434,0 -0.786,-0.353 -0.786,-0.787 0,-0.434 0.352,-0.786 0.786,-0.786 h 2.678 V 6.667 h -2.142 c -0.434,0 -0.786,-0.352 -0.786,-0.787 0,-0.434 0.352,-0.786 0.786,-0.786 h 2.142 v -1.58 h -2.63 c -0.435,0 -0.786,-0.352 -0.786,-0.786 0,-0.434 0.351,-0.787 0.786,-0.787 h 2.63 v -4.635 c 0,-0.434 0.352,-0.786 0.786,-0.786 0.434,0 0.786,0.352 0.786,0.786 v 4.635 h 2.451 c 0,-0.007 -10e-4,-0.015 -0.002,-0.023 l -0.311,-2.33 C -9.383,-0.418 -9.383,-0.424 -9.384,-0.429 -9.4,-0.575 -9.491,-0.597 -9.544,-0.597 h -0.431 c -0.435,0 -0.787,-0.352 -0.787,-0.786 0,-0.434 0.352,-0.786 0.787,-0.786 h 0.431 c 0.894,0 1.617,0.654 1.722,1.556 l 0.311,2.335 c 0.065,0.545 -0.049,0.986 -0.337,1.31 -0.284,0.32 -0.699,0.482 -1.231,0.482 M 3.358,8.023 H 1.631 v 1.752 c 0,0.075 0.061,0.135 0.135,0.135 h 1.592 z m 0,-3.46 H 1.766 c -0.074,0 -0.135,0.061 -0.135,0.135 V 6.45 H 3.358 Z M 4.931,6.45 H 6.658 V 4.698 C 6.658,4.624 6.597,4.563 6.523,4.563 H 4.931 Z m 0,3.46 h 1.592 c 0.074,0 0.135,-0.06 0.135,-0.135 V 8.023 H 4.931 Z M 8.128,-1.606 H 4.931 v 1.593 h 2.064 c 0.434,0 0.786,0.352 0.786,0.786 0,0.435 -0.352,0.786 -0.786,0.786 H 4.931 v 1.432 h 1.592 c 0.942,0 1.707,0.766 1.707,1.707 v 5.077 c 0,0.942 -0.765,1.708 -1.707,1.708 H 1.766 c -0.942,0 -1.707,-0.766 -1.707,-1.708 V 4.698 c 0,-0.941 0.765,-1.707 1.707,-1.707 H 3.358 V 1.559 H 1.142 c -0.435,0 -0.786,-0.351 -0.786,-0.786 0,-0.434 0.351,-0.786 0.786,-0.786 H 3.358 V -1.606 H 0.161 c -0.434,0 -0.786,-0.352 -0.786,-0.786 0,-0.434 0.352,-0.786 0.786,-0.786 h 7.967 c 0.434,0 0.786,0.352 0.786,0.786 0,0.434 -0.352,0.786 -0.786,0.786 m 6.639,4.752 h -2.836 v 0.871 h 2.836 z m 0,-2.427 h -2.836 v 0.854 h 2.836 z m 0.311,4.87 h -3.46 c -0.694,0 -1.26,-0.565 -1.26,-1.26 v -7.092 c 0,-0.434 0.352,-0.786 0.786,-0.786 0.434,0 0.786,0.352 0.786,0.786 v 1.91 h 2.837 v -1.055 h -0.753 c -0.434,0 -0.786,-0.351 -0.786,-0.786 0,-0.434 0.352,-0.786 0.786,-0.786 h 0.835 c 0.822,0 1.49,0.668 1.49,1.49 v 6.319 c 0,0.695 -0.565,1.26 -1.261,1.26 m 4.831,-1.161 h 1.54 c 0.58,0 1.138,0.246 1.53,0.674 0.391,0.428 0.586,1.005 0.535,1.583 -0.038,0.432 -0.42,0.751 -0.852,0.713 C 22.229,7.36 21.91,6.978 21.948,6.546 21.965,6.355 21.874,6.224 21.818,6.163 21.763,6.102 21.641,6 21.449,6 h -1.54 c -0.367,0 -0.665,0.299 -0.665,0.665 v 0.752 c 1.854,0.508 2.767,1.901 2.809,1.966 0.233,0.364 0.127,0.845 -0.234,1.081 -0.362,0.235 -0.848,0.132 -1.087,-0.227 -0.025,-0.039 -0.513,-0.756 -1.488,-1.16 V 10.9 c 0,0.434 -0.352,0.786 -0.786,0.786 -0.434,0 -0.786,-0.352 -0.786,-0.786 V 6.665 c 0,-1.233 1.003,-2.237 2.237,-2.237 m 4.183,-5.632 c -10e-4,0.011 -0.002,0.021 -0.004,0.032 l -0.086,0.663 c -0.056,0.431 -0.45,0.734 -0.881,0.679 -0.43,-0.056 -0.734,-0.45 -0.678,-0.881 l 0.083,-0.645 c 0.011,-0.16 -0.043,-0.313 -0.151,-0.432 -0.112,-0.122 -0.265,-0.189 -0.43,-0.189 h -2.31 c -0.383,0 -0.695,0.312 -0.695,0.695 v 1.315 c 2.011,0.514 3.277,1.952 3.336,2.019 0.283,0.328 0.248,0.821 -0.079,1.106 C 21.871,3.443 21.375,3.409 21.089,3.084 21.079,3.072 20.242,2.137 18.94,1.676 v 1.953 c 0,0.434 -0.351,0.786 -0.786,0.786 -0.434,0 -0.786,-0.352 -0.786,-0.786 v -4.911 c 0,-1.25 1.017,-2.267 2.267,-2.267 h 2.31 c 0.603,0 1.183,0.255 1.59,0.7 0.407,0.445 0.61,1.044 0.557,1.645"
       style="fill:#727070;fill-opacity:1;fill-rule:nonzero;stroke:none"
       transform="matrix(1.3333333,0,0,-1.3333333,346.98248,554.11435)"
       clip-path="url(#clipPath861)" />
    <path
       id="path862"
       d="m 0,0 h -6.822 c -0.224,0 -0.387,0.182 -0.369,0.391 l 0.414,4.518 c 0.006,0.063 0.059,0.11 0.12,0.11 h 5.375 c 0.54,0 0.938,0.439 0.938,0.939 0,0.511 -0.412,0.938 -0.937,0.938 h -5.187 c -0.07,0 -0.12,0.06 -0.114,0.129 l 0.366,3.992 c 0.015,0.184 0.171,0.325 0.356,0.325 h 5.486 c 0.498,0 0.901,0.404 0.901,0.902 v 0 c 0,0.499 -0.404,0.903 -0.903,0.903 h -10.371 c -0.015,0 -0.024,0.016 -0.015,0.029 l 2.805,4.068 c 0.015,0.022 -0.013,0.048 -0.033,0.031 l -7.219,-5.873 c -0.024,-0.02 -0.01,-0.06 0.022,-0.06 h 3.127 c 0.013,0 0.021,-0.015 0.013,-0.026 -0.207,-0.301 -5.079,-7.362 -5.154,-7.471 -0.015,-0.021 -0.047,-0.02 -0.06,0.004 -0.054,0.1 -3.501,6.648 -4.233,8.026 -0.364,0.685 -1.171,1.272 -2.175,1.272 -1.157,0 -8.561,0 -9.7,0 -1.083,0 -1.83,-0.881 -1.898,-1.667 -0.096,-1.089 -0.894,-9.984 -1.054,-11.512 -0.12,-1.156 0.748,-2.231 1.997,-2.231 h 9.251 c 0.625,0 1.132,0.506 1.132,1.131 v 10e-4 c 0,0.624 -0.506,1.131 -1.131,1.131 -2.728,0 -6.107,0.001 -6.806,0.001 -0.209,0 -0.374,0.178 -0.357,0.387 l 0.416,4.525 c 0.005,0.06 0.054,0.106 0.114,0.106 0.536,0 3.04,-0.001 5.352,0 0.514,0 0.938,0.417 0.938,0.939 0,0.531 -0.434,0.938 -0.939,0.938 -2.227,0 -4.59,0 -5.157,0 -0.068,0 -0.12,0.058 -0.114,0.126 l 0.365,3.994 c 0.017,0.184 0.171,0.325 0.356,0.325 h 4.737 c 0.275,0 0.638,-0.128 0.848,-0.564 1.02,-2.116 5.109,-10.48 6.089,-12.486 0.281,-0.576 0.79,-0.853 1.318,-0.853 0.565,0 1.062,0.331 1.332,0.897 0.63,1.312 5.857,12.05 6.32,13.001 0.007,0.014 0.028,0.007 0.026,-0.008 -0.083,-0.941 -0.971,-10.554 -1.049,-11.42 -0.106,-1.184 0.869,-2.171 2.02,-2.171 h 9.262 c 0.625,0 1.131,0.506 1.131,1.131 v 10e-4 C 1.13,-0.506 0.624,0 0,0"
       style="fill:#ee222e;fill-opacity:1;fill-rule:nonzero;stroke:none"
       transform="matrix(1.3333333,0,0,-1.3333333,291.51435,555.88848)"
       clip-path="url(#clipPath863)" />
    <path
       id="path864"
       d="m 0,0 c -0.613,0 -1.114,-0.501 -1.114,-1.115 0,-0.614 0.501,-1.113 1.114,-1.113 0.615,0 1.114,0.499 1.114,1.113 C 1.114,-0.501 0.615,0 0,0 m 0,-2.399 c -0.706,0 -1.282,0.575 -1.282,1.284 0,0.708 0.576,1.284 1.282,1.284 0.707,0 1.285,-0.576 1.285,-1.284 0,-0.709 -0.578,-1.284 -1.285,-1.284"
       style="fill:#ee222e;fill-opacity:1;fill-rule:nonzero;stroke:none"
       transform="matrix(1.3333333,0,0,-1.3333333,295.93555,536.87248)"
       clip-path="url(#clipPath865)" />
    <path
       id="path866"
       d="M 0,0 H 0.395 C 0.478,0 0.545,0.008 0.593,0.027 0.639,0.044 0.675,0.071 0.7,0.11 0.725,0.148 0.737,0.189 0.737,0.234 0.737,0.3 0.712,0.354 0.664,0.397 0.618,0.439 0.543,0.46 0.44,0.46 H 0 Z m -0.184,-0.776 v 1.39 H 0.432 C 0.556,0.614 0.65,0.601 0.713,0.576 0.779,0.551 0.83,0.507 0.869,0.444 0.908,0.38 0.926,0.311 0.926,0.234 0.926,0.136 0.894,0.053 0.831,-0.015 0.767,-0.082 0.668,-0.125 0.535,-0.143 0.584,-0.166 0.621,-0.191 0.645,-0.212 0.7,-0.262 0.749,-0.323 0.8,-0.398 L 1.041,-0.776 H 0.81 l -0.185,0.289 c -0.053,0.083 -0.098,0.148 -0.132,0.192 -0.036,0.044 -0.066,0.074 -0.095,0.093 -0.026,0.017 -0.054,0.03 -0.083,0.037 -0.02,0.004 -0.055,0.006 -0.101,0.006 H 0 v -0.617 z"
       style="fill:#ee222e;fill-opacity:1;fill-rule:nonzero;stroke:none"
       transform="matrix(1.3333333,0,0,-1.3333333,295.50875,538.23115)"
       clip-path="url(#clipPath867)" />
  </g>
</svg>
