<?xml version="1.0" encoding="UTF-8" standalone="no"?>
<!-- Created with Inkscape (http://www.inkscape.org/) -->

<svg
   width="13.802783mm"
   height="13.802436mm"
   viewBox="0 0 13.802783 13.802436"
   version="1.1"
   id="svg1"
   xmlns="http://www.w3.org/2000/svg"
   xmlns:svg="http://www.w3.org/2000/svg">
  <defs
     id="defs1">
    <clipPath
       clipPathUnits="userSpaceOnUse"
       id="clipPath3122">
      <path
         d="M 0,858.898 H 1207.558 V 0 H 0 Z"
         transform="translate(-165.4142,-131.1275)"
         id="path3122" />
    </clipPath>
    <clipPath
       clipPathUnits="userSpaceOnUse"
       id="clipPath3124">
      <path
         d="M 0,858.898 H 1207.558 V 0 H 0 Z"
         transform="translate(-174.44741,-141.7809)"
         id="path3124" />
    </clipPath>
    <clipPath
       clipPathUnits="userSpaceOnUse"
       id="clipPath3126">
      <path
         d="M 0,858.898 H 1207.558 V 0 H 0 Z"
         transform="translate(-152.01281,-145.8971)"
         id="path3126" />
    </clipPath>
    <clipPath
       clipPathUnits="userSpaceOnUse"
       id="clipPath3128">
      <path
         d="M 0,858.898 H 1207.558 V 0 H 0 Z"
         transform="translate(-148.47581,-144.66191)"
         id="path3128" />
    </clipPath>
    <clipPath
       clipPathUnits="userSpaceOnUse"
       id="clipPath3130">
      <path
         d="M 0,858.898 H 1207.558 V 0 H 0 Z"
         transform="translate(-150.2486,-150.4497)"
         id="path3130" />
    </clipPath>
    <clipPath
       clipPathUnits="userSpaceOnUse"
       id="clipPath3132">
      <path
         d="M 0,858.898 H 1207.558 V 0 H 0 Z"
         transform="translate(-152.2568,-153.71801)"
         id="path3132" />
    </clipPath>
    <clipPath
       clipPathUnits="userSpaceOnUse"
       id="clipPath3134">
      <path
         d="M 0,858.898 H 1207.558 V 0 H 0 Z"
         transform="translate(-154.10531,-157.4105)"
         id="path3134" />
    </clipPath>
    <clipPath
       clipPathUnits="userSpaceOnUse"
       id="clipPath3136">
      <path
         d="M 0,858.898 H 1207.558 V 0 H 0 Z"
         transform="translate(-156.43841,-161.6463)"
         id="path3136" />
    </clipPath>
    <clipPath
       clipPathUnits="userSpaceOnUse"
       id="clipPath3138">
      <path
         d="M 0,858.898 H 1207.558 V 0 H 0 Z"
         transform="translate(-157.2308,-164.8736)"
         id="path3138" />
    </clipPath>
    <clipPath
       clipPathUnits="userSpaceOnUse"
       id="clipPath3140">
      <path
         d="M 0,858.898 H 1207.558 V 0 H 0 Z"
         transform="translate(-159.5769,-162.1035)"
         id="path3140" />
    </clipPath>
    <clipPath
       clipPathUnits="userSpaceOnUse"
       id="clipPath3142">
      <path
         d="M 0,858.898 H 1207.558 V 0 H 0 Z"
         transform="translate(-162.8001,-164.04401)"
         id="path3142" />
    </clipPath>
    <clipPath
       clipPathUnits="userSpaceOnUse"
       id="clipPath3144">
      <path
         d="M 0,858.898 H 1207.558 V 0 H 0 Z"
         transform="translate(-168.2043,-165.5244)"
         id="path3144" />
    </clipPath>
    <clipPath
       clipPathUnits="userSpaceOnUse"
       id="clipPath3146">
      <path
         d="M 0,858.898 H 1207.558 V 0 H 0 Z"
         transform="translate(-171.7041,-161.79761)"
         id="path3146" />
    </clipPath>
    <clipPath
       clipPathUnits="userSpaceOnUse"
       id="clipPath3148">
      <path
         d="M 0,858.898 H 1207.558 V 0 H 0 Z"
         transform="translate(-173.86301,-160.4964)"
         id="path3148" />
    </clipPath>
    <clipPath
       clipPathUnits="userSpaceOnUse"
       id="clipPath3150">
      <path
         d="M 0,858.898 H 1207.558 V 0 H 0 Z"
         transform="translate(-176.5419,-157.6797)"
         id="path3150" />
    </clipPath>
    <clipPath
       clipPathUnits="userSpaceOnUse"
       id="clipPath3152">
      <path
         d="M 0,858.898 H 1207.558 V 0 H 0 Z"
         transform="translate(-179.2517,-157.4735)"
         id="path3152" />
    </clipPath>
    <clipPath
       clipPathUnits="userSpaceOnUse"
       id="clipPath3154">
      <path
         d="M 0,858.898 H 1207.558 V 0 H 0 Z"
         transform="translate(-179.70041,-152.48291)"
         id="path3154" />
    </clipPath>
    <clipPath
       clipPathUnits="userSpaceOnUse"
       id="clipPath3156">
      <path
         d="M 0,858.898 H 1207.558 V 0 H 0 Z"
         transform="translate(-179.16281,-150.8811)"
         id="path3156" />
    </clipPath>
    <clipPath
       clipPathUnits="userSpaceOnUse"
       id="clipPath3158">
      <path
         d="M 0,858.898 H 1207.558 V 0 H 0 Z"
         transform="translate(-182.2746,-149.4218)"
         id="path3158" />
    </clipPath>
    <clipPath
       clipPathUnits="userSpaceOnUse"
       id="clipPath3160">
      <path
         d="M 0,858.898 H 1207.558 V 0 H 0 Z"
         transform="translate(-183.03791,-150.33881)"
         id="path3160" />
    </clipPath>
    <clipPath
       clipPathUnits="userSpaceOnUse"
       id="clipPath3162">
      <path
         d="M 0,858.898 H 1207.558 V 0 H 0 Z"
         transform="translate(-178.9851,-146.50361)"
         id="path3162" />
    </clipPath>
    <clipPath
       clipPathUnits="userSpaceOnUse"
       id="clipPath3164">
      <path
         d="M 0,858.898 H 1207.558 V 0 H 0 Z"
         transform="translate(-153.20441,-140.05601)"
         id="path3164" />
    </clipPath>
    <clipPath
       clipPathUnits="userSpaceOnUse"
       id="clipPath3166">
      <path
         d="M 0,858.898 H 1207.558 V 0 H 0 Z"
         transform="translate(-177.5766,-140.05601)"
         id="path3166" />
    </clipPath>
    <clipPath
       clipPathUnits="userSpaceOnUse"
       id="clipPath3168">
      <path
         d="M 0,858.898 H 1207.558 V 0 H 0 Z"
         transform="translate(-158.79071,-136.1588)"
         id="path3168" />
    </clipPath>
    <clipPath
       clipPathUnits="userSpaceOnUse"
       id="clipPath3170">
      <path
         d="M 0,858.898 H 1207.558 V 0 H 0 Z"
         transform="translate(-164.1746,-133.95941)"
         id="path3170" />
    </clipPath>
    <clipPath
       clipPathUnits="userSpaceOnUse"
       id="clipPath3172">
      <path
         d="M 0,858.898 H 1207.558 V 0 H 0 Z"
         transform="translate(-166.0905,-134.93831)"
         id="path3172" />
    </clipPath>
    <clipPath
       clipPathUnits="userSpaceOnUse"
       id="clipPath3174">
      <path
         d="M 0,858.898 H 1207.558 V 0 H 0 Z"
         transform="translate(-171.30461,-134.7896)"
         id="path3174" />
    </clipPath>
    <clipPath
       clipPathUnits="userSpaceOnUse"
       id="clipPath3176">
      <path
         d="M 0,858.898 H 1207.558 V 0 H 0 Z"
         transform="translate(-162.623,-151.2095)"
         id="path3176" />
    </clipPath>
    <clipPath
       clipPathUnits="userSpaceOnUse"
       id="clipPath3178">
      <path
         d="M 0,858.898 H 1207.558 V 0 H 0 Z"
         transform="translate(-167.2925,-152.6403)"
         id="path3178" />
    </clipPath>
    <clipPath
       clipPathUnits="userSpaceOnUse"
       id="clipPath3180">
      <path
         d="M 0,858.898 H 1207.558 V 0 H 0 Z"
         transform="translate(-171.2733,-153.5934)"
         id="path3180" />
    </clipPath>
    <clipPath
       clipPathUnits="userSpaceOnUse"
       id="clipPath3182">
      <path
         d="M 0,858.898 H 1207.558 V 0 H 0 Z"
         transform="translate(-170.2548,-149.03321)"
         id="path3182" />
    </clipPath>
    <clipPath
       clipPathUnits="userSpaceOnUse"
       id="clipPath3184">
      <path
         d="M 0,858.898 H 1207.558 V 0 H 0 Z"
         transform="translate(-168.7656,-149.79281)"
         id="path3184" />
    </clipPath>
  </defs>
  <g
     id="layer1"
     transform="translate(-44.806198,-173.97605)">
    <path
       id="path3121"
       d="m 0,0 c -10.094,0 -18.307,8.212 -18.307,18.307 0,10.094 8.213,18.306 18.307,18.306 10.094,0 18.307,-8.212 18.307,-18.306 C 18.307,8.212 10.094,0 0,0 m 0,37.869 c -10.787,0 -19.563,-8.776 -19.563,-19.562 0,-10.787 8.776,-19.563 19.563,-19.563 10.787,0 19.563,8.776 19.563,19.563 0,10.786 -8.776,19.562 -19.563,19.562"
       style="fill:#682461;fill-opacity:1;fill-rule:nonzero;stroke:none"
       transform="matrix(0.35277776,0,0,-0.35277776,51.70759,187.3354)"
       clip-path="url(#clipPath3122)" />
    <path
       id="path3123"
       d="M 0,0 V 3.97 L 2.778,6.747 C 2.583,4.186 1.57,1.85 0,0 m -20.852,6.865 2.95,-2.95 V -0.19 c -1.688,1.906 -2.772,4.359 -2.95,7.055 m 2.95,8.632 v -4.16 l -2.954,-2.954 c 0.167,2.719 1.254,5.194 2.954,7.114 m 17.627,-4.16 v 4.284 C 1.514,13.656 2.652,11.09 2.797,8.266 Z m -8.146,8.146 c 2.853,-0.146 5.442,-1.307 7.414,-3.126 h -4.287 z m -8.549,-3.044 c 1.961,1.773 4.515,2.9 7.325,3.044 l -3.044,-3.044 z m 7.325,-20.615 c -2.781,0.142 -5.311,1.248 -7.263,2.989 h 4.274 z m 8.548,3.044 c -1.96,-1.773 -4.514,-2.9 -7.324,-3.044 l 3.044,3.044 z M -1.256,4.49 V 0.123 h -4.641 l -3.136,-3.135 -3.081,3.081 h -4.532 v 4.366 l -3.191,3.191 3.191,3.191 v 4.366 h 4.477 l 3.136,3.136 3.218,-3.218 h 4.284 V 10.817 L 1.77,7.516 Z m -7.777,16.351 c -7.272,0 -13.188,-5.916 -13.188,-13.188 0,-7.271 5.916,-13.187 13.188,-13.187 7.272,0 13.188,5.916 13.188,13.187 0,7.272 -5.916,13.188 -13.188,13.188"
       style="fill:#682461;fill-opacity:1;fill-rule:nonzero;stroke:none"
       transform="matrix(0.35277776,0,0,-0.35277776,54.894303,183.57711)"
       clip-path="url(#clipPath3124)" />
    <path
       id="path3125"
       d="m 0,0 -2.61,-0.387 2.169,2.258 -0.02,0.77 -3.628,-0.564 0.118,-0.685 2.445,0.37 -2.067,-2.139 0.056,-0.858 3.572,0.563 z"
       style="fill:#682461;fill-opacity:1;fill-rule:nonzero;stroke:none"
       transform="matrix(0.35277776,0,0,-0.35277776,46.979875,182.12501)"
       clip-path="url(#clipPath3126)" />
    <path
       id="path3127"
       d="M 0,0 Z"
       style="fill:#682461;fill-opacity:1;fill-rule:nonzero;stroke:none"
       transform="matrix(0.35277776,0,0,-0.35277776,45.7321,182.56076)"
       clip-path="url(#clipPath3128)" />
    <path
       id="path3129"
       d="m 0,0 -1.448,0.625 1.511,0.332 z m 1.337,-0.66 -0.767,0.314 0.1,1.46 0.795,0.188 0.092,0.89 -3.699,-0.993 -0.096,-0.972 3.42,-1.634 z"
       style="fill:#682461;fill-opacity:1;fill-rule:nonzero;stroke:none"
       transform="matrix(0.35277776,0,0,-0.35277776,46.357503,180.51895)"
       clip-path="url(#clipPath3130)" />
    <path
       id="path3131"
       d="M 0,0 -2.283,0.991 0.735,1.857 1.04,2.559 -2.376,3.87 -2.598,3.189 -0.301,2.302 -3.232,1.523 -3.564,0.774 -0.281,-0.681 Z"
       style="fill:#682461;fill-opacity:1;fill-rule:nonzero;stroke:none"
       transform="matrix(0.35277776,0,0,-0.35277776,47.065952,179.36597)"
       clip-path="url(#clipPath3132)" />
    <path
       id="path3133"
       d="M 0,0 -1.321,0.956 0.769,0.887 1.282,1.686 -1.094,1.814 -1.725,3.825 -2.307,3.056 -1.745,1.272 -2.957,2.125 -3.485,1.422 -0.473,-0.71 Z"
       style="fill:#682461;fill-opacity:1;fill-rule:nonzero;stroke:none"
       transform="matrix(0.35277776,0,0,-0.35277776,47.718062,178.06334)"
       clip-path="url(#clipPath3134)" />
    <path
       id="path3135"
       d="m 0,0 v 0 l -0.748,-0.545 -0.52,1.437 z m -0.329,-1.961 -0.238,0.793 1.142,0.817 v 0 l 0.67,-0.405 0.691,0.592 -3.221,2.015 -0.802,-0.645 1.177,-3.637 z"
       style="fill:#682461;fill-opacity:1;fill-rule:nonzero;stroke:none"
       transform="matrix(0.35277776,0,0,-0.35277776,48.541128,176.56904)"
       clip-path="url(#clipPath3136)" />
    <path
       id="path3137"
       d="M 0,0 Z"
       style="fill:#682461;fill-opacity:1;fill-rule:nonzero;stroke:none"
       transform="matrix(0.35277776,0,0,-0.35277776,48.820668,175.43052)"
       clip-path="url(#clipPath3138)" />
    <path
       id="path3139"
       d="M 0,0 -1.587,3.165 -2.346,2.77 -0.684,-0.394 Z"
       style="fill:#682461;fill-opacity:1;fill-rule:nonzero;stroke:none"
       transform="matrix(0.35277776,0,0,-0.35277776,49.648319,176.40775)"
       clip-path="url(#clipPath3140)" />
    <path
       id="path3141"
       d="m 0,0 c 0.044,-0.138 0.123,-0.271 0.235,-0.398 0.114,-0.127 0.238,-0.223 0.372,-0.289 0.134,-0.066 0.3,-0.106 0.497,-0.122 0.198,-0.015 0.38,-0.019 0.546,-0.011 0.288,0.012 0.534,0.063 0.737,0.151 0.147,0.063 0.285,0.167 0.416,0.312 0.131,0.145 0.225,0.312 0.283,0.5 C 3.144,0.332 3.17,0.531 3.165,0.74 L 3.108,2.968 2.241,2.921 2.299,0.643 C 2.304,0.447 2.256,0.135 2.155,0.023 2.055,-0.088 1.726,-0.148 1.545,-0.156 1.36,-0.164 1.038,-0.116 0.932,-0.012 0.825,0.092 0.77,0.398 0.765,0.591 L 0.707,2.869 -0.171,2.822 -0.114,0.594 C -0.109,0.421 -0.072,0.222 0,0"
       style="fill:#682461;fill-opacity:1;fill-rule:nonzero;stroke:none"
       transform="matrix(0.35277776,0,0,-0.35277776,50.785393,175.72319)"
       clip-path="url(#clipPath3142)" />
    <path
       id="path3143"
       d="M 0,0 1.282,-2.839 2.06,-3.046 2.859,0.503 2.149,0.621 1.626,-1.686 0.276,1.173 -0.566,1.295 -1.292,-2.297 -0.543,-2.356 Z"
       style="fill:#682461;fill-opacity:1;fill-rule:nonzero;stroke:none"
       transform="matrix(0.35277776,0,0,-0.35277776,52.691874,175.20094)"
       clip-path="url(#clipPath3144)" />
    <path
       id="path3145"
       d="M 0,0 1.577,3.333 0.809,3.668 -0.72,0.375 Z"
       style="fill:#682461;fill-opacity:1;fill-rule:nonzero;stroke:none"
       transform="matrix(0.35277776,0,0,-0.35277776,53.926526,176.51567)"
       clip-path="url(#clipPath3146)" />
    <path
       id="path3147"
       d="M 0,0 3.116,2.06 2.475,2.662 0.247,0.917 1.104,3.676 0.316,4.101 -0.611,0.434 Z"
       style="fill:#682461;fill-opacity:1;fill-rule:nonzero;stroke:none"
       transform="matrix(0.35277776,0,0,-0.35277776,54.68814,176.9747)"
       clip-path="url(#clipPath3148)" />
    <path
       id="path3149"
       d="M 0,0 0.485,0.391 -0.374,1.472 0.368,2.133 1.235,1.066 1.717,1.465 0.851,2.531 1.419,3.034 2.248,1.99 2.753,2.407 1.467,4.037 -1.367,1.615 Z"
       style="fill:#682461;fill-opacity:1;fill-rule:nonzero;stroke:none"
       transform="matrix(0.35277776,0,0,-0.35277776,55.633194,177.96837)"
       clip-path="url(#clipPath3150)" />
    <path
       id="path3151"
       d="M 0,0 0.72,0.446 0.964,0.05 C 1.227,-0.366 0.911,-0.535 0.819,-0.592 0.758,-0.63 0.436,-0.751 0.234,-0.379 Z m -2.213,-0.366 0.43,-0.774 1.284,0.845 c 0,0 -0.041,-0.275 -0.167,-0.429 l -0.789,-1.114 0.543,-0.789 0.917,1.607 c 0.167,-0.092 0.283,-0.194 0.375,-0.243 0.146,-0.077 0.297,-0.114 0.453,-0.113 0.156,0.002 0.313,0.051 0.47,0.148 0.179,0.111 0.265,0.211 0.335,0.378 0.069,0.167 0.19,0.55 -0.09,0.997 L 0.809,1.401 Z"
       style="fill:#682461;fill-opacity:1;fill-rule:nonzero;stroke:none"
       transform="matrix(0.35277776,0,0,-0.35277776,56.589152,178.04111)"
       clip-path="url(#clipPath3152)" />
    <path
       id="path3153"
       d="M 0,0 C 1.133,-0.042 1.082,1.168 1.222,1.622 1.451,2.369 1.962,2.051 2.013,1.815 2.046,1.667 2.006,1.363 1.947,1.09 L 2.45,0.705 C 2.649,0.957 2.786,1.384 2.686,1.8 2.602,2.151 2.438,2.373 2.271,2.538 2.103,2.702 1.972,2.756 1.773,2.802 1.575,2.848 1.385,2.843 1.204,2.787 0.928,2.701 0.738,2.537 0.634,2.294 0.53,2.052 0.483,1.883 0.415,1.384 0.387,1.179 0.387,1.031 0.344,0.935 0.301,0.839 0.233,0.777 0.142,0.748 0.046,0.719 -0.042,0.668 -0.249,0.742 c -0.11,0.04 -0.263,0.215 -0.315,0.359 -0.092,0.255 0.182,0.869 0.182,0.869 v 0 L -0.9,2.295 C -1.255,1.726 -1.284,1.171 -1.062,0.728 -0.711,0.023 -0.242,0.009 0,0"
       style="fill:#682461;fill-opacity:1;fill-rule:nonzero;stroke:none"
       transform="matrix(0.35277776,0,0,-0.35277776,56.747445,179.80169)"
       clip-path="url(#clipPath3154)" />
    <path
       id="path3155"
       d="M 0,0 3.69,0.384 3.631,1.183 -0.059,0.784 Z"
       style="fill:#682461;fill-opacity:1;fill-rule:nonzero;stroke:none"
       transform="matrix(0.35277776,0,0,-0.35277776,56.557791,180.36677)"
       clip-path="url(#clipPath3156)" />
    <path
       id="path3157"
       d="M 0,0 -3.041,0.04 -3.058,-0.803 -0.017,-0.842 -0.034,-1.809 0.712,-1.822 0.763,0.917 0.017,0.93 Z"
       style="fill:#682461;fill-opacity:1;fill-rule:nonzero;stroke:none"
       transform="matrix(0.35277776,0,0,-0.35277776,57.655563,180.88157)"
       clip-path="url(#clipPath3158)" />
    <path
       id="path3159"
       d="M 0,0 Z"
       style="fill:#682461;fill-opacity:1;fill-rule:nonzero;stroke:none"
       transform="matrix(0.35277776,0,0,-0.35277776,57.92484,180.55808)"
       clip-path="url(#clipPath3160)" />
    <path
       id="path3161"
       d="m 0,0 -0.126,-0.835 1.531,-0.267 1.664,-1.649 0.277,0.832 -1.161,1.028 1.424,0.314 0.266,0.939 -2.181,-0.658 z"
       style="fill:#682461;fill-opacity:1;fill-rule:nonzero;stroke:none"
       transform="matrix(0.35277776,0,0,-0.35277776,56.495101,181.91105)"
       clip-path="url(#clipPath3162)" />
    <path
       id="path3163"
       d="m 0,0 c -0.334,0 -0.605,-0.271 -0.605,-0.605 0,-0.334 0.271,-0.605 0.605,-0.605 0.335,0 0.606,0.271 0.606,0.605 C 0.606,-0.271 0.335,0 0,0"
       style="fill:#682461;fill-opacity:1;fill-rule:nonzero;stroke:none"
       transform="matrix(0.35277776,0,0,-0.35277776,47.400245,184.18562)"
       clip-path="url(#clipPath3164)" />
    <path
       id="path3165"
       d="m 0,0 c -0.334,0 -0.605,-0.271 -0.605,-0.605 0,-0.334 0.271,-0.605 0.605,-0.605 0.334,0 0.605,0.271 0.605,0.605 C 0.605,-0.271 0.334,0 0,0"
       style="fill:#682461;fill-opacity:1;fill-rule:nonzero;stroke:none"
       transform="matrix(0.35277776,0,0,-0.35277776,55.998213,184.18562)"
       clip-path="url(#clipPath3166)" />
    <path
       id="path3167"
       d="M 0,0 0.646,-0.196 -0.501,-2.405 0.14,-2.738 1.566,0.011 0.189,0.502 Z"
       style="fill:#682461;fill-opacity:1;fill-rule:nonzero;stroke:none"
       transform="matrix(0.35277776,0,0,-0.35277776,49.370967,185.56047)"
       clip-path="url(#clipPath3168)" />
    <path
       id="path3169"
       d="m 0,0 c -0.004,-0.023 -0.009,-0.051 -0.016,-0.083 -0.008,-0.031 -0.018,-0.064 -0.028,-0.098 -0.257,0.01 -0.501,0.025 -0.733,0.047 -0.232,0.021 -0.445,0.046 -0.639,0.074 -0.276,0.041 -0.456,0.094 -0.539,0.16 -0.084,0.066 -0.115,0.174 -0.093,0.323 l 0.026,0.172 c 0.022,0.148 0.077,0.243 0.167,0.285 0.089,0.042 0.241,0.048 0.458,0.016 L -0.544,0.77 C -0.275,0.731 -0.105,0.668 -0.036,0.583 0.032,0.497 0.045,0.303 0,0 M -0.188,1.253 -1.487,1.445 C -1.848,1.498 -2.122,1.476 -2.31,1.378 -2.498,1.281 -2.611,1.104 -2.649,0.848 l -0.06,-0.414 c -0.044,-0.297 0.018,-0.517 0.187,-0.66 0.168,-0.142 0.501,-0.251 0.998,-0.324 0.231,-0.034 0.462,-0.059 0.691,-0.076 0.229,-0.017 0.458,-0.024 0.684,-0.022 -0.147,-0.273 -0.376,-0.449 -0.686,-0.526 -0.31,-0.078 -0.793,-0.069 -1.449,0.028 l -0.195,0.029 0.349,-0.555 c 0.027,-0.007 0.055,-0.014 0.085,-0.019 0.03,-0.006 0.075,-0.013 0.136,-0.022 0.722,-0.106 1.304,-0.032 1.747,0.222 0.441,0.255 0.705,0.668 0.789,1.241 L 0.686,0.155 C 0.74,0.516 0.704,0.775 0.581,0.932 0.457,1.089 0.201,1.196 -0.188,1.253"
       style="fill:#682461;fill-opacity:1;fill-rule:nonzero;stroke:none"
       transform="matrix(0.35277776,0,0,-0.35277776,51.270287,186.33636)"
       clip-path="url(#clipPath3170)" />
    <path
       id="path3171"
       d="m 0,0 0.044,-0.396 0.677,0.075 0.266,-2.408 0.67,0.074 -0.331,2.995 z"
       style="fill:#682461;fill-opacity:1;fill-rule:nonzero;stroke:none"
       transform="matrix(0.35277776,0,0,-0.35277776,51.946173,185.99103)"
       clip-path="url(#clipPath3172)" />
    <path
       id="path3173"
       d="m 0,0 c -0.214,-0.091 -0.414,-0.169 -0.599,-0.235 -0.263,-0.095 -0.446,-0.133 -0.55,-0.114 -0.105,0.019 -0.183,0.099 -0.234,0.241 l -0.059,0.164 c -0.05,0.14 -0.046,0.25 0.013,0.33 0.059,0.079 0.191,0.156 0.396,0.23 l 0.812,0.291 C 0.035,0.999 0.214,1.024 0.315,0.981 0.416,0.938 0.518,0.772 0.622,0.484 0.63,0.462 0.638,0.435 0.646,0.404 0.654,0.373 0.662,0.339 0.669,0.304 0.437,0.191 0.214,0.09 0,0 M 1.154,0.944 C 1.031,1.288 0.877,1.5 0.695,1.58 0.512,1.66 0.235,1.634 -0.134,1.501 L -1.37,1.057 C -1.714,0.934 -1.945,0.785 -2.065,0.611 -2.185,0.436 -2.201,0.227 -2.114,-0.017 l 0.142,-0.393 c 0.101,-0.283 0.26,-0.447 0.476,-0.494 0.216,-0.046 0.56,0.015 1.033,0.185 0.22,0.08 0.435,0.166 0.645,0.259 0.211,0.093 0.416,0.194 0.614,0.303 C 0.795,-0.468 0.677,-0.731 0.439,-0.945 0.202,-1.16 -0.228,-1.379 -0.852,-1.603 l -0.186,-0.067 0.57,-0.323 c 0.027,0.005 0.055,0.013 0.084,0.022 0.029,0.009 0.072,0.024 0.129,0.045 0.688,0.246 1.166,0.586 1.436,1.019 0.27,0.432 0.307,0.921 0.111,1.467 z"
       style="fill:#682461;fill-opacity:1;fill-rule:nonzero;stroke:none"
       transform="matrix(0.35277776,0,0,-0.35277776,53.785593,186.04349)"
       clip-path="url(#clipPath3174)" />
    <path
       id="path3175"
       d="M 0,0 C -0.048,-0.038 -0.1,-0.071 -0.152,-0.103 -0.194,-0.129 -0.268,-0.154 -0.3,-0.19 c -0.25,-0.284 -0.294,-0.927 -0.744,-0.98 -0.307,-0.037 -0.478,0.271 -0.617,0.493 -0.144,0.23 -0.302,0.402 -0.485,0.602 -0.121,0.131 -0.239,0.262 -0.066,0.398 0.24,0.189 0.7,-0.024 0.971,-0.034 0.188,-0.008 0.381,0.007 0.567,0.03 0.156,0.02 0.312,0.046 0.469,0.04 0.1,-0.003 0.277,-0.015 0.33,-0.12 C 0.173,0.145 0.065,0.051 0,0 M 2.375,-0.822 C 2.329,-0.266 2.213,0.538 2.042,0.815 1.887,1.068 1.494,1.131 1.223,1.123 0.916,1.116 0.594,0.992 0.289,1.001 0.02,1.009 -0.379,1.286 -0.384,1.587 -0.39,1.987 0.259,1.885 0.522,1.894 0.909,1.909 1.421,1.973 1.654,2.34 1.908,2.739 1.855,3.32 1.73,3.753 1.632,4.09 1.162,4.928 0.717,4.507 0.521,4.322 0.517,3.96 0.588,3.728 0.651,3.519 0.865,3.245 0.782,3.017 0.705,2.804 0.415,2.751 0.217,2.745 0.118,2.742 -0.362,2.777 -0.4,2.905 -0.563,3.454 -0.36,3.99 -0.366,4.537 -0.369,4.75 -0.47,4.971 -0.621,5.102 v 0 C -0.798,5.256 -1.044,5.285 -1.275,5.028 -1.764,4.484 -0.892,2.978 -1.731,2.679 -2.117,2.541 -2.473,2.848 -2.564,3.074 -2.782,3.62 -2.196,4.308 -2.841,4.486 -3.491,4.664 -3.702,3.408 -3.618,2.509 -3.386,1.995 -2.814,1.954 -2.323,1.899 -2.141,1.878 -1.615,1.932 -1.511,1.75 -1.383,1.528 -1.806,1.238 -1.97,1.167 c -0.702,-0.304 -2.176,0.19 -2.37,-0.86 -0.049,-0.265 0.194,-0.958 0.222,-1.355 0.086,-1.223 -0.077,-3.412 0,-4.8 0.039,-0.697 0.05,-1.765 0.722,-1.637 0.637,0.121 0.321,3.036 0.277,4.009 -0.014,0.334 -0.06,0.669 -0.09,1.002 -0.052,0.561 -0.185,1.323 0.072,1.852 0.246,0.508 0.581,-0.062 0.595,-0.384 0.008,-0.168 -0.151,-0.892 -0.022,-1.002 0.307,-0.262 1.092,0.217 1.055,-0.452 -0.278,-0.464 -1.205,-0.165 -1.11,-0.79 0.063,-0.425 0.619,-0.27 1.11,-0.395 0.239,-1.135 -0.054,-2.245 0.055,-3.614 0.038,-0.484 0.227,-1.433 0.721,-1.355 0.265,0.041 0.357,0.479 0.389,0.677 0.165,1.028 -0.277,3.017 0,4.179 0.374,0.35 1.228,0.034 1.11,0.734 -0.075,0.44 -0.686,0.346 -1.165,0.395 -0.167,0.176 -0.063,0.393 0.055,0.564 0.307,0.186 0.774,-0.093 1.055,0.057 0.15,0.167 0.093,0.545 0.166,0.791 -0.048,0.252 -0.445,0.149 -0.555,0.338 0.16,0.267 0.5,0.712 0.869,0.613 C 1.606,-0.379 1.543,-1.34 1.55,-1.67 1.562,-2.159 1.487,-2.648 1.487,-3.138 c 0,-1.1 0.053,-2.246 0,-3.161 -0.019,-0.337 -0.181,-0.648 0.056,-0.904 1.044,-0.355 0.75,0.678 0.721,1.525 -0.036,1.081 0.243,3.265 0.111,4.856"
       style="fill:#682461;fill-opacity:1;fill-rule:nonzero;stroke:none"
       transform="matrix(0.35277776,0,0,-0.35277776,50.722917,180.25091)"
       clip-path="url(#clipPath3176)" />
    <path
       id="path3177"
       d="M 0,0 C 0.68,0.295 0.886,-0.444 0.651,-0.837 0.58,-0.956 0.475,-1.062 0.338,-1.136 0.228,-1.195 0.015,-1.302 -0.117,-1.27 c -0.003,0.001 -0.006,0.002 -0.01,0.003 -0.163,0.049 -0.215,0.3 -0.226,0.422 C -0.38,-0.567 -0.348,-0.151 0,0 m -0.345,1.303 v 0 C -0.28,1.374 -0.177,1.431 -0.036,1.46 0.207,1.51 0.467,1.606 0.616,1.516 0.764,1.427 0.802,1.153 0.685,0.881 0.613,0.714 0.154,0.672 0.004,0.698 -0.406,0.77 -0.535,1.095 -0.345,1.303 m 0.649,-3.287 c 0.301,0.098 0.782,-0.135 1.023,0.094 v 0 c 0.037,0.034 0.067,0.08 0.091,0.139 0.122,0.297 0.088,0.694 0.113,1.009 C 1.596,0.073 1.599,0.887 1.533,1.702 1.497,2.146 1.413,4.028 0.639,3.601 0.287,3.406 0.585,3.277 0.472,2.819 0.331,2.248 -0.008,2.206 -0.455,2.492 -0.586,2.576 -0.815,2.835 -0.979,2.806 -1.145,2.777 -1.256,2.467 -1.283,2.321 -1.323,2.099 -1.287,1.867 -1.26,1.646 c 0.336,-2.734 0.368,-6.714 -0.279,-9.214 -0.089,-0.347 -0.323,-0.648 -0.35,-1.015 -0.038,-0.506 0.591,-0.931 0.839,-0.351 0.174,0.407 0.232,0.883 0.349,1.31 0.158,0.577 0.371,1.245 0.447,1.899 0.121,1.058 -0.386,3.435 0.558,3.741"
       style="fill:#682461;fill-opacity:1;fill-rule:nonzero;stroke:none"
       transform="matrix(0.35277776,0,0,-0.35277776,52.370212,179.74616)"
       clip-path="url(#clipPath3178)" />
    <path
       id="path3179"
       d="m 0,0 c -0.116,-0.337 -0.582,-0.273 -0.842,-0.192 -0.124,0.038 -0.221,0.113 -0.288,0.208 -0.112,0.158 -0.139,0.374 -0.062,0.578 0.106,0.28 0.481,0.184 0.688,0.085 C -0.368,0.614 -0.245,0.521 -0.158,0.398 -0.108,0.327 0.031,0.09 0,0 m -0.163,-1.983 c -0.014,-0.047 -0.038,-0.088 -0.07,-0.123 -0.149,-0.166 -0.469,-0.197 -0.666,-0.08 -0.261,0.155 -0.312,0.653 -0.218,0.901 0.025,0.067 0.009,0.126 0.059,0.177 0.05,0.052 0.191,0.06 0.269,0.072 0.138,0.022 0.449,-0.081 0.527,-0.196 0.149,-0.218 0.171,-0.498 0.099,-0.751 M 0.87,-7.904 c -0.02,0.4 -0.038,0.8 -0.061,1.201 -0.038,0.68 -0.09,1.359 -0.127,2.038 -0.066,1.214 -0.101,2.418 -0.085,3.633 0.008,0.61 0.071,1.197 0.146,1.801 C 0.792,1.166 0.782,1.694 0.24,1.692 0.096,1.692 -0.036,1.642 -0.165,1.584 -0.249,1.546 -0.467,1.36 -0.549,1.363 -1.244,1.39 -1.048,2.578 -1.666,2.536 -1.959,2.516 -2.03,2.043 -2.066,1.836 -2.233,0.861 -2.175,-0.167 -2.125,-1.15 c 0.022,-0.439 0.089,-0.867 0.082,-1.308 -0.008,-0.453 0.256,-0.588 0.707,-0.55 0.344,0.029 0.646,0.122 0.954,-0.096 0.644,-0.456 0.203,-4.46 0.28,-5.362 0.057,-0.672 0.16,-1.968 0.893,-1.786 0.562,0.138 0.235,0.872 0.14,1.201 -0.103,0.355 -0.042,0.78 -0.061,1.147"
       style="fill:#682461;fill-opacity:1;fill-rule:nonzero;stroke:none"
       transform="matrix(0.35277776,0,0,-0.35277776,53.774549,179.40993)"
       clip-path="url(#clipPath3180)" />
    <path
       id="path3181"
       d="M 0,0 C -0.095,0.175 0.066,0.348 0.115,0.516 0.157,0.657 0.209,0.819 0.188,0.968 0.182,1.018 0.169,1.062 0.15,1.101 v 0 C 0.056,1.301 -0.179,1.365 -0.409,1.378 -0.688,1.393 -0.965,1.319 -1.094,1.049 -1.2,0.825 -1.135,0.635 -1.029,0.429 -0.995,0.362 -0.89,0.243 -0.888,0.166 -0.885,0.067 -0.982,0.009 -1.029,-0.085 c -0.191,-0.374 0.085,-0.777 0.158,-1.14 0.181,-0.897 0.045,-1.822 0.017,-2.726 -0.013,-0.415 -0.099,-0.907 0.037,-1.309 0.087,-0.257 0.389,-0.524 0.69,-0.41 0.626,0.236 0.123,1.493 0.094,1.932 -0.037,0.543 -0.012,1.086 0.004,1.629 0.006,0.224 -0.005,0.45 0.005,0.674 0.01,0.236 0.132,0.309 0.239,0.508 0.106,0.197 0.103,0.378 0.087,0.596 C 0.287,-0.14 0.077,-0.142 0,0"
       style="fill:#682461;fill-opacity:1;fill-rule:nonzero;stroke:none"
       transform="matrix(0.35277776,0,0,-0.35277776,53.415245,181.01866)"
       clip-path="url(#clipPath3182)" />
    <path
       id="path3183"
       d="m 0,0 c 0.153,0.615 -0.749,0.687 -1.1,0.421 -0.249,-0.19 -0.283,-0.45 -0.119,-0.706 0.086,-0.134 0.355,-0.254 0.323,-0.429 -0.028,-0.143 -0.288,-0.292 -0.334,-0.442 -0.093,-0.308 -0.055,-0.74 0.229,-0.94 0.173,-1.152 -0.049,-2.655 -0.391,-3.574 -0.125,-0.335 -0.837,-1.308 -0.168,-1.452 0.385,-0.083 0.877,0.958 1.005,1.34 0.381,1.136 0.278,2.541 0.391,3.798 v 0 c 0.058,0.133 0.273,0.304 0.28,0.558 0.006,0.243 -0.36,0.472 -0.401,0.712 C -0.332,-0.441 -0.062,-0.253 0,0"
       style="fill:#682461;fill-opacity:1;fill-rule:nonzero;stroke:none"
       transform="matrix(0.35277776,0,0,-0.35277776,52.889888,180.75069)"
       clip-path="url(#clipPath3184)" />
  </g>
</svg>
