<?xml version="1.0" encoding="UTF-8" standalone="no"?>
<!-- Created with Inkscape (http://www.inkscape.org/) -->

<svg
   width="18.410793mm"
   height="17.343277mm"
   viewBox="0 0 18.410793 17.343277"
   version="1.1"
   id="svg1"
   xmlns="http://www.w3.org/2000/svg"
   xmlns:svg="http://www.w3.org/2000/svg">
  <defs
     id="defs1">
    <clipPath
       clipPathUnits="userSpaceOnUse"
       id="clipPath4147-5">
      <path
         d="M 0,858.898 H 1207.558 V 0 H 0 Z"
         transform="translate(-92.023005,-660.66262)"
         id="path4147-1" />
    </clipPath>
    <clipPath
       clipPathUnits="userSpaceOnUse"
       id="clipPath4149-7">
      <path
         d="M 0,858.898 H 1207.558 V 0 H 0 Z"
         transform="translate(-92.6871,-659.97402)"
         id="path4149-1" />
    </clipPath>
    <clipPath
       clipPathUnits="userSpaceOnUse"
       id="clipPath4151-1">
      <path
         d="M 0,858.898 H 1207.558 V 0 H 0 Z"
         transform="translate(-99.648705,-658.47342)"
         id="path4151-5" />
    </clipPath>
    <clipPath
       clipPathUnits="userSpaceOnUse"
       id="clipPath4153-2">
      <path
         d="M 0,858.898 H 1207.558 V 0 H 0 Z"
         transform="translate(-87.680205,-657.85411)"
         id="path4153-7" />
    </clipPath>
    <clipPath
       clipPathUnits="userSpaceOnUse"
       id="clipPath4155-6">
      <path
         d="M 0,858.898 H 1207.558 V 0 H 0 Z"
         transform="translate(-89.642302,-657.24652)"
         id="path4155-1" />
    </clipPath>
    <clipPath
       clipPathUnits="userSpaceOnUse"
       id="clipPath4157-4">
      <path
         d="M 0,858.898 H 1207.558 V 0 H 0 Z"
         transform="translate(-97.449105,-656.49592)"
         id="path4157-2" />
    </clipPath>
    <clipPath
       clipPathUnits="userSpaceOnUse"
       id="clipPath4159-3">
      <path
         d="M 0,858.898 H 1207.558 V 0 H 0 Z"
         transform="translate(-83.293802,-634.51732)"
         id="path4159-2" />
    </clipPath>
    <clipPath
       clipPathUnits="userSpaceOnUse"
       id="clipPath4161-2">
      <path
         d="M 0,858.898 H 1207.558 V 0 H 0 Z"
         transform="translate(-87.213105,-634.51542)"
         id="path4161-1" />
    </clipPath>
    <clipPath
       clipPathUnits="userSpaceOnUse"
       id="clipPath4163-6">
      <path
         d="M 0,858.898 H 1207.558 V 0 H 0 Z"
         transform="translate(-98.3409,-629.66202)"
         id="path4163-8" />
    </clipPath>
    <clipPath
       clipPathUnits="userSpaceOnUse"
       id="clipPath4165-5">
      <path
         d="M 0,858.898 H 1207.558 V 0 H 0 Z"
         transform="translate(-74.204902,-631.06681)"
         id="path4165-7" />
    </clipPath>
    <clipPath
       clipPathUnits="userSpaceOnUse"
       id="clipPath4167-6">
      <path
         d="M 0,858.898 H 1207.558 V 0 H 0 Z"
         transform="translate(-110.801,-632.81722)"
         id="path4167-1" />
    </clipPath>
    <clipPath
       clipPathUnits="userSpaceOnUse"
       id="clipPath4169-8">
      <path
         d="M 0,858.898 H 1207.558 V 0 H 0 Z"
         transform="translate(-114.462,-632.39562)"
         id="path4169-9" />
    </clipPath>
    <clipPath
       clipPathUnits="userSpaceOnUse"
       id="clipPath4171-2">
      <path
         d="M 0,858.898 H 1207.558 V 0 H 0 Z"
         transform="translate(-89.991502,-630.68572)"
         id="path4171-7" />
    </clipPath>
    <clipPath
       clipPathUnits="userSpaceOnUse"
       id="clipPath4173-9">
      <path
         d="M 0,858.898 H 1207.558 V 0 H 0 Z"
         transform="translate(-91.083405,-629.90262)"
         id="path4173-5" />
    </clipPath>
    <clipPath
       clipPathUnits="userSpaceOnUse"
       id="clipPath4175-4">
      <path
         d="M 0,858.898 H 1207.558 V 0 H 0 Z"
         transform="translate(-105.0803,-627.32242)"
         id="path4175-3" />
    </clipPath>
    <clipPath
       clipPathUnits="userSpaceOnUse"
       id="clipPath4177-1">
      <path
         d="M 0,858.898 H 1207.558 V 0 H 0 Z"
         transform="translate(-87.001402,-626.45761)"
         id="path4177-2" />
    </clipPath>
    <clipPath
       clipPathUnits="userSpaceOnUse"
       id="clipPath4179-3">
      <path
         d="M 0,858.898 H 1207.558 V 0 H 0 Z"
         transform="translate(-69.986701,-620.75842)"
         id="path4179-3" />
    </clipPath>
    <clipPath
       clipPathUnits="userSpaceOnUse"
       id="clipPath4181-4">
      <path
         d="M 0,858.898 H 1207.558 V 0 H 0 Z"
         transform="translate(-88.769602,-620.90392)"
         id="path4181-1" />
    </clipPath>
    <clipPath
       clipPathUnits="userSpaceOnUse"
       id="clipPath4183-1">
      <path
         d="M 0,858.898 H 1207.558 V 0 H 0 Z"
         transform="translate(-96.553605,-620.74552)"
         id="path4183-3" />
    </clipPath>
    <clipPath
       clipPathUnits="userSpaceOnUse"
       id="clipPath4185-8">
      <path
         d="M 0,858.898 H 1207.558 V 0 H 0 Z"
         transform="translate(-74.972102,-620.84992)"
         id="path4185-7" />
    </clipPath>
    <clipPath
       clipPathUnits="userSpaceOnUse"
       id="clipPath4187-4">
      <path
         d="M 0,858.898 H 1207.558 V 0 H 0 Z"
         transform="translate(-77.368102,-620.84742)"
         id="path4187-2" />
    </clipPath>
    <clipPath
       clipPathUnits="userSpaceOnUse"
       id="clipPath4189-7">
      <path
         d="M 0,858.898 H 1207.558 V 0 H 0 Z"
         transform="translate(-83.795205,-620.84992)"
         id="path4189-7" />
    </clipPath>
    <clipPath
       clipPathUnits="userSpaceOnUse"
       id="clipPath4191-9">
      <path
         d="M 0,858.898 H 1207.558 V 0 H 0 Z"
         transform="translate(-101.6778,-619.64581)"
         id="path4191-3" />
    </clipPath>
    <clipPath
       clipPathUnits="userSpaceOnUse"
       id="clipPath4193-1">
      <path
         d="M 0,858.898 H 1207.558 V 0 H 0 Z"
         transform="translate(-110.79,-619.64262)"
         id="path4193-9" />
    </clipPath>
    <clipPath
       clipPathUnits="userSpaceOnUse"
       id="clipPath4195-8">
      <path
         d="M 0,858.898 H 1207.558 V 0 H 0 Z"
         transform="translate(-117.5724,-618.76201)"
         id="path4195-6" />
    </clipPath>
    <clipPath
       clipPathUnits="userSpaceOnUse"
       id="clipPath4197-5">
      <path
         d="M 0,858.898 H 1207.558 V 0 H 0 Z"
         transform="translate(-107.2106,-618.91602)"
         id="path4197-0" />
    </clipPath>
  </defs>
  <g
     id="layer1"
     transform="translate(-145.78542,-29.897919)">
    <path
       id="path4146"
       d="m 0,0 c -0.917,-0.184 -1.799,-0.514 -2.63,-0.941 -0.584,-0.194 -1.103,-0.526 -1.6,-0.881 -0.318,-0.228 -0.576,-0.532 -0.912,-0.737 -0.444,-0.277 -0.721,-0.733 -1.073,-1.106 -0.346,-0.365 -0.669,-0.759 -0.922,-1.196 -0.153,-0.256 -0.281,-0.528 -0.451,-0.774 -0.208,-0.29 -0.325,-0.629 -0.452,-0.958 -0.384,-0.855 -0.665,-1.766 -0.756,-2.701 -0.167,-1.268 -0.102,-2.555 0.093,-3.815 0.167,-0.856 0.502,-1.667 0.84,-2.467 0.37,-0.732 0.787,-1.441 1.276,-2.1 0.169,-0.217 0.38,-0.393 0.572,-0.587 0.21,-0.24 0.384,-0.511 0.61,-0.737 0.241,-0.239 0.58,-0.347 0.813,-0.597 0.289,-0.301 0.656,-0.504 0.997,-0.739 0.348,-0.247 0.747,-0.41 1.151,-0.543 0.122,-0.127 0.311,-0.148 0.463,-0.228 0.847,-0.422 1.796,-0.57 2.724,-0.713 1.493,-0.234 3.014,-0.025 4.47,0.334 0.459,0.122 0.882,0.34 1.328,0.498 0.086,0.028 0.158,0.08 0.214,0.15 0.448,0.219 0.972,0.324 1.33,0.692 0.387,0.316 0.802,0.596 1.209,0.886 0.422,0.352 0.754,0.794 1.146,1.177 0.335,0.289 0.539,0.691 0.798,1.043 0.184,0.238 0.303,0.516 0.47,0.764 0.48,0.743 0.769,1.589 0.972,2.445 0.222,0.714 0.371,1.453 0.409,2.201 0.063,1.19 0.007,2.405 -0.351,3.55 -0.142,0.432 -0.21,0.885 -0.388,1.304 -0.17,0.413 -0.302,0.849 -0.577,1.208 -0.179,0.223 -0.297,0.483 -0.431,0.733 C 10.687,-3.858 9.893,-2.973 8.98,-2.23 8.635,-1.993 8.261,-1.779 7.973,-1.471 7.578,-1.164 7.063,-1.104 6.652,-0.828 6.287,-0.652 5.909,-0.505 5.526,-0.373 5.055,-0.177 4.557,-0.04 4.05,0.02 2.708,0.206 1.341,0.184 0,0 M -0.248,0.956 C 0.759,1.191 1.803,1.213 2.832,1.174 3.469,1.136 4.104,1.049 4.722,0.889 5.349,0.759 5.939,0.505 6.542,0.298 6.998,0.103 7.491,-0.017 7.907,-0.296 c 0.325,-0.226 0.649,-0.456 0.994,-0.652 0.552,-0.304 1.001,-0.756 1.455,-1.185 0.456,-0.385 0.856,-0.833 1.201,-1.32 0.256,-0.357 0.579,-0.668 0.783,-1.062 0.121,-0.213 0.209,-0.443 0.317,-0.662 0.124,-0.255 0.308,-0.476 0.419,-0.737 0.258,-0.603 0.573,-1.198 0.637,-1.861 0.204,-1.03 0.39,-2.071 0.397,-3.124 -0.015,-1.076 -0.218,-2.136 -0.416,-3.189 -0.068,-0.473 -0.259,-0.914 -0.463,-1.34 -0.229,-0.597 -0.587,-1.129 -0.862,-1.704 -0.191,-0.414 -0.469,-0.784 -0.795,-1.101 -0.2,-0.268 -0.386,-0.547 -0.607,-0.8 -0.168,-0.263 -0.468,-0.389 -0.667,-0.624 -0.162,-0.189 -0.359,-0.344 -0.55,-0.501 -0.276,-0.252 -0.567,-0.496 -0.902,-0.665 -0.267,-0.152 -0.513,-0.338 -0.782,-0.486 -0.017,-0.03 -0.054,-0.087 -0.072,-0.117 -0.024,0.003 -0.072,0.01 -0.096,0.012 l -0.005,-0.06 c -0.241,-0.081 -0.467,-0.201 -0.704,-0.293 -0.271,-0.11 -0.508,-0.296 -0.794,-0.369 -0.603,-0.148 -1.173,-0.405 -1.784,-0.52 -1.458,-0.277 -2.959,-0.302 -4.427,-0.09 -0.719,0.098 -1.415,0.313 -2.1,0.545 -0.521,0.153 -1.017,0.381 -1.493,0.64 -0.443,0.215 -0.875,0.465 -1.249,0.785 -0.284,0.187 -0.608,0.319 -0.859,0.555 -0.317,0.276 -0.542,0.65 -0.908,0.87 -0.336,0.196 -0.501,0.562 -0.743,0.849 -0.142,0.206 -0.303,0.395 -0.473,0.578 -0.257,0.275 -0.381,0.637 -0.593,0.943 -0.169,0.28 -0.373,0.543 -0.483,0.853 -0.644,1.525 -1.156,3.135 -1.209,4.801 -0.029,0.993 0.041,1.994 0.275,2.961 0.112,0.448 0.241,0.891 0.383,1.33 0.223,0.589 0.398,1.2 0.712,1.749 0.239,0.396 0.451,0.807 0.72,1.184 0.339,0.459 0.679,0.916 1.043,1.355 0.3,0.337 0.701,0.569 0.98,0.925 0.254,0.302 0.566,0.567 0.931,0.726 0.138,0.065 0.288,0.133 0.363,0.275 0.052,0.02 0.105,0.04 0.158,0.059 l -0.032,0.077 c 0.176,0.021 0.307,0.15 0.461,0.225 0.177,0.112 0.382,0.18 0.542,0.32 0.367,0.265 0.833,0.3 1.235,0.489 0.093,0.035 0.19,0.063 0.289,0.08 l -0.003,0.045 c 0.101,0.032 0.204,0.068 0.311,0.075 L -1.57,0.612 c 0.05,0 0.149,-0.002 0.198,-0.003 l -0.016,0.069 c 0.048,-0.002 0.143,-0.006 0.19,-0.008 10e-4,0.014 0.005,0.041 0.007,0.055 0.073,0.005 0.141,0.026 0.204,0.061 0.033,0.006 0.1,0.019 0.133,0.026 0.199,0.06 0.404,0.096 0.606,0.144"
       style="fill:#cb232c;fill-opacity:1;fill-rule:nonzero;stroke:none"
       transform="matrix(0.35277776,0,0,-0.35277776,154.24473,30.317527)"
       clip-path="url(#clipPath4147-5)" />
    <path
       id="path4148"
       d="M 0,0 C 0.274,0.016 0.543,0.09 0.819,0.086 1.513,0.094 2.216,0.117 2.902,-0.015 3.288,-0.097 3.679,-0.152 4.057,-0.266 4.613,-0.39 5.186,-0.504 5.686,-0.791 5.942,-0.945 6.086,-1.352 5.894,-1.601 5.606,-1.839 5.211,-1.88 4.894,-2.068 4.555,-2.274 4.229,-2.508 3.937,-2.775 3.633,-3.159 3.261,-3.524 3.136,-4.014 3.016,-4.495 2.9,-4.984 2.916,-5.483 2.904,-10.445 2.912,-15.408 2.912,-20.37 c -0.973,-0.118 -1.965,-0.158 -2.932,0.024 0.003,4.934 0.003,9.868 -0.001,14.803 0.014,0.662 -0.075,1.356 -0.439,1.925 -0.246,0.392 -0.463,0.841 -0.879,1.079 -0.302,0.223 -0.589,0.476 -0.951,0.597 -0.252,0.125 -0.592,0.163 -0.732,0.438 -0.097,0.271 0.044,0.586 0.282,0.736 0.493,0.329 1.103,0.362 1.658,0.527 C -0.728,-0.133 -0.358,-0.086 0,0"
       style="fill:#cb232c;fill-opacity:1;fill-rule:nonzero;stroke:none"
       transform="matrix(0.35277776,0,0,-0.35277776,154.47901,30.560449)"
       clip-path="url(#clipPath4149-7)" />
    <path
       id="path4150"
       d="M 0,0 C 0.153,-0.079 0.295,-0.177 0.425,-0.291 0.916,-0.676 1.451,-1.024 1.837,-1.523 2.065,-1.823 2.371,-2.052 2.6,-2.353 2.946,-2.867 3.315,-3.371 3.601,-3.923 3.942,-4.68 4.265,-5.448 4.499,-6.246 4.644,-6.842 4.69,-7.458 4.732,-8.068 4.399,-8.001 4.026,-7.996 3.75,-7.772 3.595,-7.655 3.427,-7.554 3.288,-7.418 3.114,-7.113 2.989,-6.76 2.692,-6.547 2.514,-6.733 2.336,-6.932 2.268,-7.185 2.15,-7.601 2.069,-8.031 2.065,-8.465 c -0.018,-0.621 0.012,-1.254 0.194,-1.852 0.079,-0.264 0.205,-0.531 0.44,-0.692 0.13,0.077 0.241,0.188 0.297,0.332 0.257,0.707 0.993,1.162 1.729,1.203 -0.034,-0.607 -0.121,-1.214 -0.273,-1.803 -0.32,-0.907 -0.633,-1.828 -1.138,-2.652 -0.208,-0.41 -0.514,-0.756 -0.776,-1.132 -0.338,-0.435 -0.731,-0.825 -1.125,-1.21 -0.438,-0.392 -0.869,-0.813 -1.41,-1.062 -0.007,3.469 -0.001,6.938 -0.002,10.407 C 0.019,-4.617 -0.019,-2.308 0,0"
       style="fill:#cb232c;fill-opacity:1;fill-rule:nonzero;stroke:none"
       transform="matrix(0.35277776,0,0,-0.35277776,156.93491,31.089827)"
       clip-path="url(#clipPath4151-1)" />
    <path
       id="path4152"
       d="m 0,0 c 0.305,0.225 0.639,0.408 0.955,0.616 0.011,-2.689 -0.013,-5.377 0.006,-8.066 -0.364,0.041 -0.738,0.086 -1.07,0.247 -0.143,0.148 -0.283,0.3 -0.444,0.43 -0.146,0.179 -0.211,0.413 -0.36,0.591 l -0.084,0.024 c -0.002,0.036 -0.003,0.107 -0.005,0.142 -0.027,-0.006 -0.081,-0.02 -0.108,-0.026 -0.03,0.045 -0.049,0.191 -0.129,0.112 -0.15,-0.13 -0.225,-0.325 -0.292,-0.507 -0.182,-0.614 -0.205,-1.261 -0.191,-1.896 0.014,-0.506 0.023,-1.023 0.196,-1.504 0.067,-0.171 0.102,-0.372 0.24,-0.503 0.124,-0.04 0.241,0.025 0.345,0.084 -0.012,0.026 -0.035,0.08 -0.048,0.107 l 0.075,-0.007 c 0.098,0.206 0.178,0.439 0.367,0.582 0.158,0.126 0.281,0.288 0.433,0.419 0.321,0.199 0.702,0.256 1.069,0.309 0.015,-2.623 -0.032,-5.247 0.023,-7.87 -0.31,0.174 -0.646,0.304 -0.92,0.536 -0.207,0.144 -0.307,0.385 -0.497,0.546 -0.256,0.258 -0.593,0.424 -0.822,0.71 -0.19,0.243 -0.318,0.53 -0.529,0.758 -0.37,0.433 -0.674,0.916 -0.908,1.436 -0.346,0.636 -0.553,1.333 -0.8,2.011 -0.401,1.726 -0.414,3.545 -0.005,5.271 0.278,0.883 0.607,1.753 1.05,2.568 0.365,0.532 0.745,1.055 1.129,1.574 0.28,0.291 0.553,0.594 0.881,0.832 C -0.266,-0.344 -0.18,-0.127 0,0"
       style="fill:#cb232c;fill-opacity:1;fill-rule:nonzero;stroke:none"
       transform="matrix(0.35277776,0,0,-0.35277776,152.71269,31.308304)"
       clip-path="url(#clipPath4153-2)" />
    <path
       id="path4154"
       d="m 0,0 c 0.59,-0.312 1.191,-0.662 1.585,-1.217 0.218,-0.331 0.379,-0.706 0.424,-1.102 0.043,-0.431 0.036,-0.864 0.038,-1.297 0.01,-4.601 -0.007,-9.202 0.008,-13.803 -0.704,0.144 -1.404,0.342 -2.04,0.684 -0.04,3.064 -0.009,6.129 -0.018,9.193 C -0.006,-5.028 -0.002,-2.514 0,0"
       style="fill:#cb232c;fill-opacity:1;fill-rule:nonzero;stroke:none"
       transform="matrix(0.35277776,0,0,-0.35277776,153.40487,31.522651)"
       clip-path="url(#clipPath4155-6)" />
    <path
       id="path4156"
       d="M 0,0 C 0.354,0.327 0.784,0.553 1.219,0.751 1.199,-2.601 1.214,-5.954 1.21,-9.307 c -0.002,-2.19 -0.005,-4.381 0.002,-6.571 0.025,-0.119 -0.1,-0.163 -0.183,-0.203 -0.61,-0.256 -1.245,-0.45 -1.891,-0.594 -0.008,4.789 -0.008,9.579 -0.001,14.369 0.004,0.489 0.007,1.005 0.241,1.449 C -0.477,-0.53 -0.234,-0.264 0,0"
       style="fill:#cb232c;fill-opacity:1;fill-rule:nonzero;stroke:none"
       transform="matrix(0.35277776,0,0,-0.35277776,156.15894,31.787446)"
       clip-path="url(#clipPath4157-4)" />
    <path
       id="path4158"
       d="M 0,0 C 0.658,-0.12 1.325,-0.19 1.972,-0.362 1.947,-0.802 1.761,-1.21 1.58,-1.605 1.347,-2.155 1.194,-2.761 0.804,-3.228 0.86,-3.284 0.948,-3.319 0.97,-3.402 0.918,-3.611 0.802,-3.805 0.8,-4.025 0.795,-6.316 0.806,-8.608 0.795,-10.899 c 0.007,-0.188 -0.039,-0.391 -0.181,-0.524 -0.48,-0.051 -0.964,0.003 -1.445,-0.034 -0.002,2.094 -0.004,4.189 0.005,6.282 -0.327,-0.317 -0.627,-0.662 -0.921,-1.009 -0.175,-0.175 -0.378,-0.327 -0.494,-0.551 0.003,0.034 0.009,0.103 0.012,0.137 -0.12,-0.021 -0.173,0.022 -0.158,0.127 0.138,0.278 0.295,0.548 0.479,0.799 0.169,0.285 0.285,0.598 0.382,0.912 0.19,0.558 0.399,1.109 0.636,1.65 0.385,1.009 0.675,2.053 0.89,3.11"
       style="fill:#0f0f0f;fill-opacity:1;fill-rule:nonzero;stroke:none"
       transform="matrix(0.35277776,0,0,-0.35277776,151.16526,39.541008)"
       clip-path="url(#clipPath4159-3)" />
    <path
       id="path4160"
       d="M 0,0 C 0.52,-0.01 1.046,-0.039 1.55,-0.177 2.012,-0.3 2.399,-0.758 2.325,-1.252 2.308,-1.596 2.002,-1.807 1.771,-2.017 c 0.505,0.028 1.01,0.003 1.515,0.02 0.129,0.007 0.19,0.142 0.276,0.218 0.28,0.321 0.651,0.544 0.935,0.86 0.382,-0.4 0.857,-0.69 1.265,-1.058 0.155,-0.135 0.221,-0.368 0.103,-0.549 -0.962,0.041 -1.927,0.007 -2.89,0.02 -1.744,-0.001 -3.488,0.006 -5.232,-0.005 0.003,0.17 0.003,0.34 0.003,0.509 0.995,-0.002 1.989,0 2.984,-0.002 C 0.493,-1.77 0.518,-1.421 0.415,-1.128 0.32,-0.856 0.263,-0.574 0.178,-0.299 0.149,-0.178 0.002,-0.137 0,0"
       style="fill:#0f0f0f;fill-opacity:1;fill-rule:nonzero;stroke:none"
       transform="matrix(0.35277776,0,0,-0.35277776,152.5479,39.541677)"
       clip-path="url(#clipPath4161-2)" />
    <path
       id="path4162"
       d="m 0,0 c -0.001,-0.361 0.003,-0.722 0.001,-1.084 0.736,0.001 1.472,0.006 2.208,0.006 0,0.356 -0.003,0.712 0.014,1.068 C 1.482,0.014 0.741,-0.016 0,0 M -0.004,1.397 C -0.002,1.037 0.003,0.676 -0.002,0.315 0.735,0.308 1.474,0.322 2.213,0.318 2.209,0.678 2.207,1.037 2.224,1.397 1.481,1.403 0.738,1.404 -0.004,1.397 M -0.011,2.71 C -0.001,2.384 -0.002,2.059 -0.001,1.734 0.736,1.74 1.475,1.739 2.213,1.743 2.211,2.066 2.211,2.388 2.209,2.711 1.469,2.707 0.729,2.71 -0.011,2.71 m -1.27,0.578 c 0.306,0.485 0.373,1.072 0.64,1.575 C -0.082,4.733 0.486,4.645 1.034,4.467 1.046,4.203 0.851,4.006 0.709,3.805 0.559,3.615 0.449,3.398 0.331,3.186 1.046,3.194 1.762,3.193 2.478,3.184 2.184,3.695 2.366,4.376 1.944,4.835 2.447,4.815 2.969,4.822 3.444,4.634 3.884,4.448 4.083,3.876 3.886,3.449 3.813,3.293 3.628,3.25 3.489,3.172 c 0.694,0.04 1.389,0 2.083,0.026 0.416,0.25 0.672,0.691 1.045,0.995 C 6.83,3.97 7.085,3.795 7.335,3.619 7.45,3.38 7.704,3.278 7.909,3.133 8.028,3.06 8.056,2.896 8.014,2.77 7.937,2.708 7.838,2.693 7.744,2.701 6.41,2.737 5.076,2.697 3.743,2.703 3.743,2.381 3.743,2.06 3.744,1.737 4.262,1.734 4.78,1.738 5.299,1.744 5.678,1.977 5.932,2.351 6.264,2.638 6.63,2.383 6.954,2.075 7.307,1.801 7.443,1.717 7.423,1.544 7.423,1.405 6.196,1.383 4.969,1.413 3.743,1.396 3.743,1.033 3.739,0.67 3.749,0.307 4.181,0.304 4.612,0.311 5.044,0.31 5.139,0.317 5.243,0.303 5.331,0.35 5.719,0.58 5.98,0.958 6.31,1.256 6.676,0.92 7.06,0.604 7.422,0.264 7.512,0.203 7.48,0.069 7.41,0.007 6.188,0.001 4.965,-0.018 3.743,0.001 3.741,-0.361 3.744,-0.722 3.745,-1.084 c 0.555,-0.003 1.11,0.004 1.666,0.003 0.291,-0.016 0.548,0.17 0.731,0.379 0.186,0.215 0.406,0.393 0.619,0.579 C 6.902,-0.236 7.052,-0.335 7.19,-0.452 7.367,-0.599 7.469,-0.83 7.69,-0.925 7.874,-1.03 8.159,-1.119 8.165,-1.374 8.184,-1.505 8.017,-1.507 7.929,-1.509 5.286,-1.506 2.642,-1.505 -0.002,-1.507 -0.009,-1.677 0.017,-1.855 -0.03,-2.022 -0.133,-2.121 -0.282,-2.154 -0.421,-2.153 -0.793,-2.16 -1.164,-2.141 -1.536,-2.157 -1.542,-0.953 -1.54,0.252 -1.538,1.456 -1.907,1.195 -2.295,0.957 -2.631,0.653 -2.82,0.53 -2.978,0.347 -3.218,0.327 c 0.391,0.546 0.745,1.12 1.169,1.643 0.285,0.422 0.496,0.888 0.768,1.318"
       style="fill:#0f0f0f;fill-opacity:1;fill-rule:nonzero;stroke:none"
       transform="matrix(0.35277776,0,0,-0.35277776,156.47354,41.253849)"
       clip-path="url(#clipPath4163-6)" />
    <path
       id="path4164"
       d="M 0,0 C 0.004,-1.06 0.005,-2.12 0.004,-3.18 0.872,-3.177 1.741,-3.177 2.61,-3.176 2.604,-2.117 2.607,-1.058 2.611,0.001 1.741,0.005 0.87,0.002 0,0 m -4.326,0.002 c 10e-4,-1.062 0.007,-2.124 0.004,-3.187 0.846,0.011 1.692,0.012 2.537,0.002 10e-4,1.06 -0.001,2.121 0,3.182 -0.847,0.006 -1.694,0 -2.541,0.003 m 2.537,3.406 C -1.169,3.327 -0.544,3.275 0.07,3.155 0.254,2.905 -0.005,2.638 0.005,2.373 0,1.773 0.006,1.173 0.005,0.573 0.787,0.57 1.571,0.57 2.354,0.573 2.449,0.557 2.491,0.663 2.549,0.716 2.735,0.954 2.998,1.128 3.14,1.4 3.171,1.41 3.231,1.432 3.261,1.443 3.603,1.197 4.016,1.097 4.383,0.897 4.541,0.806 4.764,0.75 4.801,0.541 4.706,0.295 4.508,0.104 4.317,-0.072 4.326,-1.406 4.333,-2.742 4.312,-4.076 4.329,-4.243 4.214,-4.419 4.054,-4.469 3.576,-4.551 3.093,-4.588 2.608,-4.604 2.61,-4.315 2.612,-4.026 2.616,-3.736 1.742,-3.727 0.87,-3.735 -0.003,-3.74 0.006,-4.998 0.007,-6.255 0.001,-7.513 0.014,-7.691 -0.068,-7.878 -0.219,-7.976 -0.74,-8.016 -1.263,-8 -1.785,-8.006 c -0.001,1.422 0.002,2.843 10e-4,4.265 -0.847,0.017 -1.695,-0.006 -2.542,10e-4 -0.006,-0.224 0.081,-0.537 -0.173,-0.657 -0.545,-0.172 -1.089,-0.363 -1.599,-0.623 -0.007,2.008 -0.011,4.016 0.002,6.024 0.673,-0.112 1.325,-0.326 2.001,-0.416 0.77,-0.038 1.541,0.001 2.311,-0.029 -0.002,0.95 0.005,1.9 -0.005,2.849"
       style="fill:#0f0f0f;fill-opacity:1;fill-rule:nonzero;stroke:none"
       transform="matrix(0.35277776,0,0,-0.35277776,147.9589,40.758268)"
       clip-path="url(#clipPath4165-5)" />
    <path
       id="path4166"
       d="m 0,0 c -0.003,-2.875 -0.002,-5.751 -0.002,-8.626 2.463,0.018 4.927,0.003 7.39,0.008 C 7.377,-5.745 7.383,-2.87 7.389,0.003 4.926,0.007 2.464,0.012 0,0 M 7.119,0.513 C 7.406,0.792 7.523,1.178 7.731,1.509 8.178,1.396 8.576,1.156 8.981,0.945 9.132,0.864 9.298,0.803 9.426,0.685 9.454,0.591 9.356,0.54 9.31,0.477 9.191,0.341 9.104,0.177 8.956,0.068 8.948,-2.141 8.956,-4.349 8.953,-6.558 8.94,-7.616 8.982,-8.676 8.924,-9.734 8.414,-9.803 7.897,-9.756 7.383,-9.768 7.387,-9.583 7.39,-9.399 7.388,-9.214 4.926,-9.22 2.464,-9.228 0.002,-9.212 -0.02,-9.391 0.034,-9.677 -0.184,-9.75 -0.686,-9.795 -1.193,-9.758 -1.697,-9.775 -1.707,-6.129 -1.707,-2.484 -1.696,1.162 -0.963,0.96 -0.263,0.625 0.493,0.512 2.702,0.501 4.911,0.503 7.119,0.513"
       style="fill:#0f0f0f;fill-opacity:1;fill-rule:nonzero;stroke:none"
       transform="matrix(0.35277776,0,0,-0.35277776,160.86919,40.140765)"
       clip-path="url(#clipPath4167-6)" />
    <path
       id="path4168"
       d="M 0,0 C 0.536,-0.034 1.072,-0.083 1.607,-0.125 1.566,-0.741 1.568,-1.359 1.571,-1.977 c 0.073,-0.004 0.156,-0.027 0.218,0.031 0.288,0.203 0.537,0.456 0.79,0.7 C 2.921,-1.606 3.341,-1.9 3.616,-2.319 3.531,-2.376 3.449,-2.451 3.339,-2.435 2.744,-2.437 2.149,-2.433 1.554,-2.438 1.554,-3.651 1.558,-4.863 1.553,-6.076 1.545,-6.377 1.531,-6.693 1.394,-6.968 0.948,-7.515 0.247,-7.745 -0.427,-7.856 c -0.039,0.433 -0.203,0.866 -0.533,1.158 -0.266,0.222 -0.634,0.221 -0.928,0.384 0.116,0.069 0.252,0.043 0.38,0.041 0.367,-0.014 0.735,-0.029 1.102,-0.021 0.237,-0.013 0.403,0.229 0.399,0.447 0.019,0.831 -0.002,1.663 0.009,2.495 -0.019,-0.025 -0.057,-0.075 -0.077,-0.1 -0.209,-0.308 -0.353,-0.656 -0.579,-0.954 -0.186,-0.394 -0.574,-0.621 -0.888,-0.9 -0.202,-0.17 -0.311,-0.432 -0.55,-0.558 -0.233,-0.135 -0.462,-0.279 -0.7,-0.407 -0.19,-0.099 -0.36,-0.262 -0.59,-0.244 0.405,0.606 0.841,1.191 1.271,1.78 0.231,0.341 0.291,0.759 0.468,1.126 0.171,0.375 0.264,0.778 0.392,1.169 -0.626,0.007 -1.253,0.013 -1.88,-10e-4 0.002,0.157 0.002,0.313 0.002,0.47 1.045,-0.008 2.092,0.001 3.138,-0.002 C -0.007,-1.315 0.006,-0.657 0,0"
       style="fill:#0f0f0f;fill-opacity:1;fill-rule:nonzero;stroke:none"
       transform="matrix(0.35277776,0,0,-0.35277776,162.16071,40.289495)"
       clip-path="url(#clipPath4169-8)" />
    <path
       id="path4170"
       d="M 0,0 C 0.358,0.368 0.769,0.678 1.163,1.006 1.613,0.713 1.981,0.319 2.401,-0.013 2.507,-0.107 2.631,-0.216 2.64,-0.368 2.619,-0.473 2.516,-0.56 2.407,-0.552 c -1.229,-0.03 -2.459,0.01 -3.688,-0.001 -1.163,-0.009 -2.327,0.02 -3.489,-0.015 -0.001,0.185 -0.001,0.37 0,0.555 C -3.18,-0.005 -1.59,-0.028 0,0"
       style="fill:#0f0f0f;fill-opacity:1;fill-rule:nonzero;stroke:none"
       transform="matrix(0.35277776,0,0,-0.35277776,153.52806,40.892711)"
       clip-path="url(#clipPath4171-2)" />
    <path
       id="path4172"
       d="m 0,0 c 0.106,0.086 0.209,-0.061 0.3,-0.109 0.424,-0.368 0.751,-0.85 1.252,-1.128 0.002,-0.122 -0.072,-0.211 -0.16,-0.287 -2.403,0.025 -4.807,0.004 -7.21,-0.002 0,0.156 0,0.311 0.002,0.466 1.597,0.005 3.193,0 4.791,0.003 0.161,0.184 0.313,0.377 0.501,0.535 C -0.334,-0.363 -0.191,-0.157 0,0"
       style="fill:#0f0f0f;fill-opacity:1;fill-rule:nonzero;stroke:none"
       transform="matrix(0.35277776,0,0,-0.35277776,153.91326,41.16897)"
       clip-path="url(#clipPath4173-9)" />
    <path
       id="path4174"
       d="M 0,0 C 0.214,0.219 0.514,0.359 0.663,0.638 0.681,0.493 0.811,0.408 0.921,0.329 1.153,0.172 1.383,0.013 1.607,-0.153 1.696,-0.209 1.718,-0.315 1.762,-0.403 1.728,-0.452 1.695,-0.503 1.663,-0.554 0.185,-0.558 -1.294,-0.549 -2.772,-0.566 -2.268,-0.949 -1.745,-1.34 -1.138,-1.543 -0.775,-1.68 -0.431,-1.87 -0.048,-1.952 0.641,-2.107 1.328,-2.281 2.027,-2.393 1.718,-2.717 1.345,-2.967 1.036,-3.292 0.965,-3.439 0.886,-3.583 0.787,-3.714 0.74,-3.857 0.692,-4 0.639,-4.142 c -0.528,0.2 -1.072,0.416 -1.487,0.812 -0.181,0.151 -0.402,0.242 -0.59,0.383 -0.411,0.305 -0.694,0.739 -1.021,1.125 -0.219,0.274 -0.365,0.592 -0.545,0.89 0,-1.007 0.022,-2.016 -0.002,-3.024 0.013,-0.166 -0.121,-0.312 -0.289,-0.31 -0.476,-0.017 -0.951,-0.004 -1.427,-0.015 0.007,0.791 -0.009,1.582 0.003,2.372 -0.248,-0.132 -0.393,-0.386 -0.636,-0.525 -0.353,-0.268 -0.766,-0.433 -1.161,-0.627 -0.73,-0.233 -1.436,-0.543 -2.19,-0.691 -0.35,-0.056 -0.687,-0.189 -1.043,-0.194 0.046,0.06 0.084,0.131 0.15,0.171 0.514,0.283 1.01,0.6 1.536,0.861 0.272,0.115 0.484,0.326 0.719,0.498 0.303,0.317 0.734,0.481 1.002,0.836 0.278,0.367 0.632,0.664 0.926,1.014 -1.396,0.014 -2.793,0.014 -4.189,0.001 0.005,0.18 0.009,0.36 0.012,0.54 0.361,-0.002 0.723,0.016 1.085,0.012 1.257,-0.027 2.514,0.015 3.771,-0.002 C -4.745,0.18 -4.748,0.374 -4.747,0.569 -4.162,0.532 -3.581,0.458 -2.996,0.416 -2.999,0.269 -3.001,0.122 -3,-0.026 -2.001,0.004 -0.998,-0.036 0,0"
       style="fill:#0f0f0f;fill-opacity:1;fill-rule:nonzero;stroke:none"
       transform="matrix(0.35277776,0,0,-0.35277776,158.85105,42.079209)"
       clip-path="url(#clipPath4175-4)" />
    <path
       id="path4176"
       d="m 0,0 c 0.003,-0.732 0.004,-1.464 0.01,-2.197 1.113,-0.009 2.224,0.029 3.336,0.002 -0.002,0.73 -0.013,1.461 0.004,2.191 C 2.233,0.007 1.116,0.002 0,0 M 3.814,1.194 C 3.883,1.253 3.935,1.339 4.02,1.376 4.485,1.161 4.92,0.893 5.371,0.654 5.396,0.593 5.422,0.531 5.449,0.469 5.383,0.231 5.136,0.127 5.004,-0.064 4.987,-1.048 5.003,-2.032 4.993,-3.016 4.984,-3.169 4.911,-3.387 4.723,-3.376 4.262,-3.393 3.8,-3.397 3.338,-3.396 c 10e-4,0.204 0.004,0.407 0.012,0.61 -1.115,0.004 -2.231,-0.002 -3.346,0.003 0.005,-0.212 0.005,-0.468 -0.219,-0.572 -0.485,-0.063 -0.977,0.002 -1.464,-0.041 0.004,1.469 0.004,2.939 0.002,4.409 C -1.024,0.9 -0.385,0.714 0.269,0.62 1.245,0.595 2.222,0.612 3.198,0.614 3.346,0.862 3.617,0.991 3.814,1.194"
       style="fill:#0f0f0f;fill-opacity:1;fill-rule:nonzero;stroke:none"
       transform="matrix(0.35277776,0,0,-0.35277776,152.47322,42.384292)"
       clip-path="url(#clipPath4177-1)" />
    <path
       id="path4178"
       d="m 0,0 c 0.425,0.114 0.855,0.238 1.299,0.239 0.715,0 1.444,-0.193 2.019,-0.63 0.36,-0.176 0.422,-0.625 0.73,-0.854 C 4.043,-1.291 4.035,-1.384 4.03,-1.431 3.9,-1.501 3.776,-1.591 3.691,-1.715 3.61,-1.729 3.528,-1.729 3.446,-1.726 3.41,-1.656 3.374,-1.586 3.341,-1.515 H 3.266 C 3.242,-1.404 3.16,-1.33 3.091,-1.247 2.946,-1.118 2.77,-1.027 2.634,-0.889 2.254,-0.513 1.672,-0.412 1.163,-0.525 0.858,-0.56 0.606,-0.754 0.39,-0.959 -0.561,-1.828 -0.617,-3.395 0.074,-4.44 c 0.417,-0.466 0.993,-0.872 1.649,-0.825 0.495,0.002 0.843,0.393 1.224,0.65 0.214,0.137 0.352,0.356 0.478,0.572 C 3.493,-4.028 3.561,-4.014 3.629,-4 3.727,-4.104 3.796,-4.255 3.941,-4.299 3.973,-4.336 4.036,-4.409 4.067,-4.445 3.89,-4.602 3.744,-4.788 3.616,-4.987 3.459,-5.232 3.222,-5.406 2.988,-5.571 2.599,-5.743 2.212,-5.944 1.783,-5.993 1.207,-6.052 0.622,-5.959 0.078,-5.768 c -0.269,0.091 -0.567,0.15 -0.776,0.358 -0.267,0.33 -0.585,0.615 -0.865,0.932 -0.389,0.653 -0.427,1.456 -0.343,2.193 0.092,0.818 0.655,1.479 1.272,1.978 C -0.445,-0.165 -0.226,-0.066 0,0"
       style="fill:#0f0f0f;fill-opacity:1;fill-rule:nonzero;stroke:none"
       transform="matrix(0.35277776,0,0,-0.35277776,146.47081,44.394842)"
       clip-path="url(#clipPath4179-3)" />
    <path
       id="path4180"
       d="M 0,0 C 0.741,0.188 1.532,0.077 2.229,-0.219 2.558,-0.396 2.901,-0.59 3.119,-0.905 3.228,-1.048 3.304,-1.216 3.435,-1.342 3.521,-1.405 3.465,-1.514 3.466,-1.602 3.43,-1.607 3.358,-1.618 3.322,-1.624 3.306,-1.656 3.274,-1.722 3.257,-1.755 3.145,-1.839 3.021,-1.908 2.877,-1.868 2.786,-1.725 2.701,-1.564 2.565,-1.46 2.548,-1.436 2.514,-1.387 2.497,-1.363 2.204,-1.191 2,-0.894 1.673,-0.776 1.24,-0.55 0.725,-0.611 0.279,-0.761 c -0.308,-0.12 -0.464,-0.435 -0.739,-0.598 -0.181,-0.345 -0.404,-0.685 -0.456,-1.08 -0.145,-0.741 0.009,-1.53 0.418,-2.164 0.049,-0.074 0.126,-0.122 0.195,-0.177 0.212,-0.153 0.379,-0.373 0.63,-0.468 0.388,-0.161 0.853,-0.245 1.246,-0.053 0.414,0.171 0.722,0.509 1.081,0.762 0.01,0.129 0.13,0.202 0.191,0.305 0.048,0.086 0.151,0.069 0.233,0.062 0.117,-0.16 0.399,-0.253 0.379,-0.473 C 3.143,-4.939 2.945,-5.344 2.588,-5.593 2.354,-5.769 2.078,-5.874 1.808,-5.982 1.109,-6.256 0.322,-6.179 -0.377,-5.948 c -0.295,0.1 -0.623,0.154 -0.865,0.364 -0.27,0.321 -0.573,0.612 -0.866,0.911 -0.263,0.382 -0.363,0.852 -0.398,1.309 -0.053,0.708 0.022,1.468 0.452,2.056 0.266,0.329 0.558,0.638 0.895,0.893 C -0.817,-0.172 -0.396,-0.106 0,0"
       style="fill:#0f0f0f;fill-opacity:1;fill-rule:nonzero;stroke:none"
       transform="matrix(0.35277776,0,0,-0.35277776,153.097,44.343513)"
       clip-path="url(#clipPath4181-4)" />
    <path
       id="path4182"
       d="M 0,0 C 0.684,0.203 1.424,0.361 2.127,0.155 2.676,-0.007 3.274,-0.205 3.63,-0.684 3.763,-0.84 3.908,-0.987 4.026,-1.156 3.857,-1.317 3.678,-1.468 3.525,-1.645 3.311,-1.537 3.241,-1.285 3.05,-1.151 2.667,-0.838 2.265,-0.443 1.736,-0.451 1.371,-0.455 0.973,-0.493 0.676,-0.724 0.457,-0.87 0.253,-1.042 0.077,-1.235 -0.099,-1.656 -0.344,-2.064 -0.372,-2.53 c -0.071,-0.542 0.038,-1.093 0.272,-1.583 0.093,-0.181 0.138,-0.413 0.333,-0.516 0.311,-0.188 0.589,-0.445 0.949,-0.537 0.385,-0.109 0.837,-0.133 1.19,0.087 0.084,0.046 0.165,0.095 0.247,0.144 0.007,0.453 0.005,0.906 0.005,1.36 0.017,0.091 -0.057,0.186 -0.152,0.18 -0.352,0.026 -0.704,0.015 -1.056,0.014 0.002,0.16 0.004,0.32 0.001,0.479 0.759,0.028 1.519,0.011 2.278,0.016 C 3.88,-2.849 4.038,-3.035 4.032,-3.21 4.038,-3.8 4.04,-4.391 4.026,-4.982 4.04,-5.13 3.892,-5.198 3.794,-5.273 3.55,-5.405 3.33,-5.589 3.047,-5.633 2.55,-5.724 2.055,-5.859 1.546,-5.853 1.08,-5.869 0.621,-5.769 0.168,-5.673 c -0.334,0.1 -0.682,0.224 -0.933,0.477 -0.253,0.215 -0.453,0.481 -0.702,0.7 -0.585,0.887 -0.641,2.098 -0.141,3.035 C -1.266,-0.81 -0.713,-0.233 0,0"
       style="fill:#0f0f0f;fill-opacity:1;fill-rule:nonzero;stroke:none"
       transform="matrix(0.35277776,0,0,-0.35277776,155.84302,44.399393)"
       clip-path="url(#clipPath4183-1)" />
    <path
       id="path4184"
       d="M 0,0 C 0.481,0.001 0.961,0.006 1.442,-0.002 1.432,-1.989 1.44,-3.976 1.437,-5.963 0.954,-5.952 0.471,-5.959 -0.012,-5.966 -0.016,-4.302 -0.014,-2.637 -0.014,-0.973 -0.01,-0.649 -0.023,-0.324 0,0"
       style="fill:#0f0f0f;fill-opacity:1;fill-rule:nonzero;stroke:none"
       transform="matrix(0.35277776,0,0,-0.35277776,148.22955,44.362563)"
       clip-path="url(#clipPath4185-8)" />
    <path
       id="path4186"
       d="M 0,0 C 1.842,0.01 3.683,0.006 5.525,0.003 5.519,-0.254 5.519,-0.511 5.519,-0.768 c -0.694,0.006 -1.389,0 -2.084,0.004 0.003,-1.731 0.004,-3.462 0.002,-5.193 -0.467,0.012 -0.934,0.004 -1.401,-0.001 -0.003,1.732 -0.009,3.463 0,5.194 C 1.357,-0.769 0.678,-0.756 -0.002,-0.775 0,-0.516 -0.003,-0.258 0,0"
       style="fill:#0f0f0f;fill-opacity:1;fill-rule:nonzero;stroke:none"
       transform="matrix(0.35277776,0,0,-0.35277776,149.07481,44.363444)"
       clip-path="url(#clipPath4187-4)" />
    <path
       id="path4188"
       d="m 0,0 c 0.47,0.003 0.94,0.004 1.41,0.001 -10e-4,-1.987 0,-3.974 0,-5.962 C 0.94,-5.949 0.471,-5.964 0.001,-5.957 -0.003,-3.972 -0.002,-1.985 0,0"
       style="fill:#0f0f0f;fill-opacity:1;fill-rule:nonzero;stroke:none"
       transform="matrix(0.35277776,0,0,-0.35277776,151.34214,44.362563)"
       clip-path="url(#clipPath4189-7)" />
    <path
       id="path4190"
       d="M 0,0 C 0.442,0.009 0.884,0.015 1.327,0.009 1.324,-0.177 1.321,-0.363 1.328,-0.549 1.58,-0.376 1.816,-0.146 2.13,-0.094 2.424,-0.042 2.752,-0.013 3.019,-0.176 3.238,-0.299 3.419,-0.575 3.32,-0.83 3.202,-1.139 2.786,-1.228 2.506,-1.101 2.289,-1.009 2.084,-0.796 1.836,-0.838 1.614,-0.994 1.301,-1.169 1.33,-1.485 1.324,-2.539 1.329,-3.593 1.324,-4.648 0.883,-4.642 0.441,-4.641 -0.002,-4.647 0.009,-3.098 0.001,-1.549 0,0"
       style="fill:#0f0f0f;fill-opacity:1;fill-rule:nonzero;stroke:none"
       transform="matrix(0.35277776,0,0,-0.35277776,157.65073,44.787343)"
       clip-path="url(#clipPath4191-9)" />
    <path
       id="path4192"
       d="m 0,0 c 0.441,0 0.881,0.004 1.322,-0.002 0.006,-1.147 -0.013,-2.296 0.01,-3.443 0.075,-0.248 0.334,-0.457 0.593,-0.487 0.329,0.042 0.594,0.29 0.801,0.53 0.113,1.131 0.036,2.273 0.044,3.408 0.431,0.009 0.861,-0.003 1.292,0.001 0.016,-1.551 0.002,-3.1 0,-4.65 -0.434,0.003 -0.867,0.008 -1.301,-0.006 0.002,0.195 0.008,0.39 0.014,0.585 C 2.603,-4.235 2.447,-4.439 2.215,-4.531 2.054,-4.597 1.895,-4.666 1.73,-4.721 1.408,-4.764 1.088,-4.683 0.781,-4.59 0.645,-4.557 0.56,-4.44 0.468,-4.345 0.172,-4.044 -0.029,-3.629 -0.006,-3.201 -0.007,-2.134 -0.009,-1.067 0,0"
       style="fill:#0f0f0f;fill-opacity:1;fill-rule:nonzero;stroke:none"
       transform="matrix(0.35277776,0,0,-0.35277776,160.86531,44.78847)"
       clip-path="url(#clipPath4193-1)" />
    <path
       id="path4194"
       d="m 0,0 c -0.288,-0.082 -0.522,-0.355 -0.511,-0.663 0,-0.637 -0.003,-1.273 0,-1.91 -0.019,-0.233 0.18,-0.385 0.339,-0.519 0.211,-0.203 0.536,-0.253 0.813,-0.188 0.154,0.141 0.226,0.348 0.343,0.518 0.201,0.288 0.224,0.653 0.238,0.992 C 1.207,-1.165 1.111,-0.5 0.665,-0.052 0.463,0.053 0.216,0.056 0,0 m -1.82,0.879 c 0.44,0.005 0.88,0.005 1.32,0.001 -0.009,-0.213 0.027,-0.436 -0.054,-0.641 0.15,0.195 0.397,0.267 0.61,0.372 C 0.678,0.875 1.507,0.813 1.971,0.279 2.249,-0.02 2.499,-0.373 2.564,-0.786 2.667,-1.361 2.628,-1.973 2.41,-2.518 2.19,-2.818 2.044,-3.174 1.771,-3.434 1.518,-3.663 1.173,-3.721 0.854,-3.8 0.476,-3.903 0.068,-3.852 -0.29,-3.701 c -0.101,0.036 -0.157,0.136 -0.224,0.209 0.004,-0.856 0.002,-1.713 0.002,-2.57 -0.437,-0.004 -0.874,0.014 -1.31,-0.01 -0.004,2.317 -0.004,4.634 0.002,6.951"
       style="fill:#0f0f0f;fill-opacity:1;fill-rule:nonzero;stroke:none"
       transform="matrix(0.35277776,0,0,-0.35277776,163.25799,45.099128)"
       clip-path="url(#clipPath4195-8)" />
    <path
       id="path4196"
       d="m 0,0 c -0.143,-0.076 -0.22,-0.231 -0.284,-0.374 -0.168,-0.454 -0.238,-0.948 -0.172,-1.43 0.061,-0.426 0.111,-0.873 0.357,-1.24 0.154,-0.309 0.533,-0.488 0.867,-0.393 0.31,0.125 0.458,0.462 0.532,0.766 0.127,0.606 0.06,1.233 -0.05,1.836 C 1.204,-0.529 0.991,-0.288 0.771,-0.087 0.544,0.047 0.25,0.097 0,0 M -1.095,0.066 C -0.643,0.353 -0.15,0.647 0.406,0.617 1.211,0.633 1.965,0.193 2.456,-0.425 2.68,-0.713 2.711,-1.09 2.759,-1.439 2.806,-1.715 2.737,-1.992 2.694,-2.265 2.651,-2.463 2.624,-2.684 2.478,-2.839 2.278,-3.085 2.066,-3.322 1.855,-3.558 1.463,-3.863 0.953,-3.984 0.467,-4.018 c -0.651,0.039 -1.373,0.213 -1.806,0.738 -0.147,0.152 -0.131,0.406 -0.314,0.527 -0.177,0.415 -0.27,0.879 -0.194,1.327 0.055,0.424 0.227,0.821 0.433,1.192 0.073,0.13 0.198,0.217 0.319,0.3"
       style="fill:#0f0f0f;fill-opacity:1;fill-rule:nonzero;stroke:none"
       transform="matrix(0.35277776,0,0,-0.35277776,159.60258,45.044799)"
       clip-path="url(#clipPath4197-5)" />
  </g>
</svg>
