<?xml version="1.0" encoding="utf-8"?>
<!-- Generator: Adobe Illustrator 28.0.0, SVG Export Plug-In . SVG Version: 6.00 Build 0)  -->
<svg version="1.1" id="svg1" xmlns:svg="http://www.w3.org/2000/svg"
	 xmlns="http://www.w3.org/2000/svg" xmlns:xlink="http://www.w3.org/1999/xlink" x="0px" y="0px" viewBox="0 0 69.9 26.1"
	 style="enable-background:new 0 0 69.9 26.1;" xml:space="preserve">
<style type="text/css">
	.st0{fill:url(#path3936_00000003820066796764416100000015328958621525401501_);}
	.st1{fill:url(#path3939_00000160150511406647752850000004988311330123406493_);}
	.st2{fill:url(#path3942_00000065059448924320807190000006123052572385677724_);}
	.st3{fill:url(#path3948_00000145742671283306940960000000956445555691711105_);}
	.st4{clip-path:url(#SVGID_00000069376668604161442830000014085011552260650892_);}
	.st5{clip-path:url(#SVGID_00000077309002710614002570000010282810770566450845_);fill:#E9E9E9;}
	.st6{clip-path:url(#SVGID_00000061432791351618232140000015284041528411596453_);fill:#21235A;}
	.st7{clip-path:url(#SVGID_00000139990774759871056250000009935958448503451794_);fill:#21235A;}
	.st8{clip-path:url(#SVGID_00000111904990890165662590000001834078408814128525_);fill:#21235A;}
	.st9{clip-path:url(#SVGID_00000067224522037023989740000011679173220930604169_);fill:#21235A;}
	.st10{clip-path:url(#SVGID_00000040550918134743609460000008617606120229385643_);fill:#21235A;}
	.st11{clip-path:url(#SVGID_00000142158210076985809350000016803012437218945720_);fill:#21235A;}
	.st12{clip-path:url(#SVGID_00000015345939987874511560000003941341933988460938_);fill:#21235A;}
	.st13{clip-path:url(#SVGID_00000107571459175681055090000016610450723761220249_);fill:#21235A;}
	.st14{clip-path:url(#SVGID_00000080202669479473913350000003906944950483484341_);fill:#21235A;}
	.st15{clip-path:url(#SVGID_00000130628237252727445540000008703020235628072372_);fill:#21235A;}
	.st16{clip-path:url(#SVGID_00000075160402359288633230000012743135919106708669_);fill:#21235A;}
</style>
<g id="layer1" transform="translate(-73.289564,-47.889591)">
	
		<linearGradient id="path3936_00000056390722224828635750000007915983495334551946_" gradientUnits="userSpaceOnUse" x1="-915.146" y1="602.3253" x2="-914.146" y2="602.3253" gradientTransform="matrix(-14.3944 -8.0659 -8.0659 14.3944 -8224.1865 -15977.7383)">
		<stop  offset="0" style="stop-color:#F36717"/>
		<stop  offset="0.2987" style="stop-color:#ED1C24"/>
		<stop  offset="0.567" style="stop-color:#ED1C24"/>
		<stop  offset="0.9453" style="stop-color:#9C1116"/>
		<stop  offset="1" style="stop-color:#9C1116"/>
	</linearGradient>
	<path id="path3936" style="fill:url(#path3936_00000056390722224828635750000007915983495334551946_);" d="M73.3,66.7
		c0,3.8,6.9,7.6,17.9,7.2l0,0c0,0,0-2.3,0-3.5l0,0c0-2.7-2.8-2.4-5.3-2.3l0,0c-5.3,0.1-8.4-1.3-11-3.7l0,0c-1.1-1.1-1.6-2.5-1.7-3.6
		l0,0L73.3,66.7z"/>
	
		<linearGradient id="path3939_00000013894602594553487560000001833379204464488601_" gradientUnits="userSpaceOnUse" x1="-789.2598" y1="605.3832" x2="-788.2598" y2="605.3832" gradientTransform="matrix(14.503 9.3843 9.3843 -14.503 5842.9111 16234.2402)">
		<stop  offset="0" style="stop-color:#66C430"/>
		<stop  offset="0.4813" style="stop-color:#31713F"/>
		<stop  offset="1" style="stop-color:#224736"/>
	</linearGradient>
	<path id="path3939" style="fill:url(#path3939_00000013894602594553487560000001833379204464488601_);" d="M76.1,47.9
		c0,0,0,2.3,0,3.5l0,0c0,2.7,2.8,2.4,5.3,2.3l0,0c5.2-0.1,8.4,1.3,11,3.7l0,0c1.1,1.1,1.6,2.5,1.7,3.6l0,0v-5.9
		c0-3.6-6.2-7.3-16.3-7.3l0,0C77.2,47.9,76.7,47.9,76.1,47.9"/>
	
		<linearGradient id="path3942_00000059308064973023106690000013010571928864360345_" gradientUnits="userSpaceOnUse" x1="-916.3787" y1="639.2722" x2="-915.3787" y2="639.2722" gradientTransform="matrix(-14.0707 0 0 14.0707 -12799.8984 -8932.5977)">
		<stop  offset="0" style="stop-color:#B3DC2F"/>
		<stop  offset="0.2325" style="stop-color:#73C82C"/>
		<stop  offset="1" style="stop-color:#288943"/>
	</linearGradient>
	<path id="path3942" style="fill:url(#path3942_00000059308064973023106690000013010571928864360345_);" d="M91.7,57.7
		c-1.2,0.4-2.8,0.6-4.3,0.8l0,0c-3.5,0.5-7.3,0.9-7.3,4.3l0,0v6.6c6-0.5,13.6-4.4,13.9-8l0,0c0-0.1,0-0.2,0-0.3l0,0
		c0-0.5,0-5.8,0-5.8l0,0C93.5,57.1,91.7,57.7,91.7,57.7"/>
	
		<linearGradient id="path3948_00000049222901697782083670000000201929997294170045_" gradientUnits="userSpaceOnUse" x1="-832.3687" y1="544.9919" x2="-831.3687" y2="544.9919" gradientTransform="matrix(13.1167 -12.0114 -12.0114 -13.1167 17537.9297 -2783.9094)">
		<stop  offset="0" style="stop-color:#F68712"/>
		<stop  offset="0.2653" style="stop-color:#ED1C24"/>
		<stop  offset="0.3321" style="stop-color:#ED1C24"/>
		<stop  offset="0.5866" style="stop-color:#ED1C24"/>
		<stop  offset="0.9453" style="stop-color:#9C1116"/>
		<stop  offset="1" style="stop-color:#9C1116"/>
	</linearGradient>
	<path id="path3948" style="fill:url(#path3948_00000049222901697782083670000000201929997294170045_);" d="M73.3,60.4
		c0,0.1,0,0.2,0,0.3l0,0c0,0.5,0,5.8,0,5.8l0,0c0.5-1.8,2.3-2.4,2.3-2.4l0,0c1.2-0.4,2.8-0.6,4.3-0.8l0,0c3.5-0.5,7.3-0.9,7.3-4.3
		l0,0v-6.6C81.1,52.8,73.6,56.7,73.3,60.4"/>
	<g>
		<defs>
			<rect id="SVGID_1_" x="-396.4" y="-163.8" width="1207.6" height="858.9"/>
		</defs>
		<clipPath id="SVGID_00000098201356922787596700000006454229151719465118_">
			<use xlink:href="#SVGID_1_"  style="overflow:visible;"/>
		</clipPath>
		
			<g id="g3950" transform="matrix(0.26458333,0,0,0.26458333,-89.408147,-23.773355)" style="clip-path:url(#SVGID_00000098201356922787596700000006454229151719465118_);">
			<g>
				<defs>
					<rect id="SVGID_00000049205389027883888160000001176515739997838008_" x="650.7" y="317.8" width="7" height="4.6"/>
				</defs>
				<clipPath id="SVGID_00000062174647034398815900000012375411617861399946_">
					<use xlink:href="#SVGID_00000049205389027883888160000001176515739997838008_"  style="overflow:visible;"/>
				</clipPath>
				<path id="path3950" style="clip-path:url(#SVGID_00000062174647034398815900000012375411617861399946_);fill:#E9E9E9;" d="
					M667.4,312.8v-1.3c-12.9,1.7-26.5,3.5-26.5,16.1v1.3C653.8,327.1,667.4,325.3,667.4,312.8"/>
			</g>
		</g>
	</g>
	<g>
		<defs>
			<rect id="SVGID_00000008127736970499261110000011546737546832140443_" x="-396.4" y="-163.8" width="1207.6" height="858.9"/>
		</defs>
		<clipPath id="SVGID_00000008866276176629175760000008516957579195140225_">
			<use xlink:href="#SVGID_00000008127736970499261110000011546737546832140443_"  style="overflow:visible;"/>
		</clipPath>
		<path id="path3952" style="clip-path:url(#SVGID_00000008866276176629175760000008516957579195140225_);fill:#21235A;" d="
			M111.8,52.8v-1h6.5c0.6,0,0.5,0.4,0.5,0.4v0.5H111.8z M120.5,59.5c0.1-0.1,0.3-0.2,0.3-0.2c-1.3-0.9-2.2-2.1-2.5-3.2
			c0.9-0.5,1.8-1.2,2.1-2h-1.5c-0.5,0.7-1.3,1.3-2,1.6c-0.2-0.8-0.5-1.5-1-2h3.2v-0.3h1.4v-1.1c0-0.5,0-1.3-1.7-1.3h-2.6
			c0-0.2-0.2-0.4-0.6-0.4h-1.1V51h-4.2v2.4h1.5v0.3h1.8c-0.5,0.4-1.9,1-3.3,1.2l0.1,0.4c0.1,0.3,0.2,0.3,0.5,0.3
			c1.5-0.2,2.7-0.6,3.7-1.2c0.1,0.1,0.2,0.3,0.3,0.4c-1,0.9-2.8,1.8-4.7,2.1c0,0,0.1,0.3,0.1,0.3c0.1,0.4,0.2,0.3,0.6,0.3
			c1.6-0.2,3.5-0.9,4.4-1.6c0,0.2,0.1,0.4,0.1,0.6c-1.2,1.1-3.3,2-5.2,2.4c0,0,0.1,0.2,0.1,0.3c0.1,0.4,0.2,0.4,0.6,0.3
			c1.9-0.3,3.5-0.9,4.6-1.6c0,0.6-0.2,1-0.3,1.1c-0.2,0.2-0.4,0.2-1,0.2c-0.3,0-0.3,0.2-0.4,0.4l-0.1,0.3c0,0,2.4,0.4,3-0.5
			c0.3-0.5,0.5-1.7,0.4-2.9c0,0,0.1,0,0.1-0.1c0.4,1.2,1.3,2.2,2.5,3C120.1,59.8,120.1,59.8,120.5,59.5"/>
	</g>
	<g>
		<defs>
			<rect id="SVGID_00000159443567455242994620000002569310856763039665_" x="-396.4" y="-163.8" width="1207.6" height="858.9"/>
		</defs>
		<clipPath id="SVGID_00000181778449155645984580000012162137298760617872_">
			<use xlink:href="#SVGID_00000159443567455242994620000002569310856763039665_"  style="overflow:visible;"/>
		</clipPath>
		<path id="path3954" style="clip-path:url(#SVGID_00000181778449155645984580000012162137298760617872_);fill:#21235A;" d="
			M136.7,54.8l-0.9,0.2v-2.6h0.9v-0.6c0-0.2-0.1-0.4-0.4-0.4h-0.5v-0.1V51c0-0.3-0.2-0.5-0.6-0.5h-0.9v0.8h-1v1h1v2.9l-1.1,0.2v0.9
			l1.1-0.2v2.5c0,0.4-0.1,0.6-0.5,0.6c-0.5,0-0.5,0.4-0.5,0.9h0.6c1.3,0,1.9-0.7,1.9-1.8v-2.5l0.9-0.2V54.8z"/>
	</g>
	<g>
		<defs>
			<rect id="SVGID_00000109007836051388005830000011388034392794206854_" x="-396.4" y="-163.8" width="1207.6" height="858.9"/>
		</defs>
		<clipPath id="SVGID_00000153663831212931634120000006838693425655854519_">
			<use xlink:href="#SVGID_00000109007836051388005830000011388034392794206854_"  style="overflow:visible;"/>
		</clipPath>
		<path id="path3956" style="clip-path:url(#SVGID_00000153663831212931634120000006838693425655854519_);fill:#21235A;" d="
			M130.1,54.2h-2.6v-1.9h2.1c0.2,0,0.5,0,0.5,0.5V54.2z M130.1,57h-2.6v-1.8h2.6V57z M125.9,54.2h-2.5v-1.9h2.5V54.2z M125.9,57
			h-2.1c-0.2,0-0.4,0-0.4-0.5v-0.5v-0.7h2.5V57z M130.1,51.4h-2.5v-0.2v-0.1c0-0.3-0.2-0.6-0.7-0.6h-1v0.9h-4.1v1.7v2.8v0.7
			c0,1,0.8,1.3,1.7,1.3h2.4v0.3c0,1.2,0.8,2,2.2,2h3.6c0-0.4,0-0.9-0.4-0.9H129c-1.2,0-1.5-0.4-1.5-1v-0.4h2.4h1.8v-5.3
			C131.8,51.7,131,51.4,130.1,51.4"/>
	</g>
	<g>
		<defs>
			<rect id="SVGID_00000036250338369035482400000008091883605994322085_" x="-396.4" y="-163.8" width="1207.6" height="858.9"/>
		</defs>
		<clipPath id="SVGID_00000025439137841738869900000010143465353777945753_">
			<use xlink:href="#SVGID_00000036250338369035482400000008091883605994322085_"  style="overflow:visible;"/>
		</clipPath>
		<path id="path3958" style="clip-path:url(#SVGID_00000025439137841738869900000010143465353777945753_);fill:#21235A;" d="
			M106.2,52.3H101v0.4c0,0.3,0.1,0.5,0.4,0.5h1.6v1.5h-2V55c0,0.3,0.1,0.5,0.4,0.5h1.6v2.1h-2V58c0,0.4,0.2,0.5,0.4,0.5h5.2l-0.1-1
			c0-0.2-0.1-0.5-0.5-0.5h-0.9l0.1,0.6h-0.7v-2.1h2.1v-0.3c0-0.3,0-0.6-0.4-0.6h-1.6v-1.5h2.1v-0.3
			C106.7,52.6,106.7,52.3,106.2,52.3"/>
	</g>
	<g>
		<defs>
			<rect id="SVGID_00000100347176837998827630000003335273998824244889_" x="-396.4" y="-163.8" width="1207.6" height="858.9"/>
		</defs>
		<clipPath id="SVGID_00000130648947349244785140000004886521748409095849_">
			<use xlink:href="#SVGID_00000100347176837998827630000003335273998824244889_"  style="overflow:visible;"/>
		</clipPath>
		<path id="path3960" style="clip-path:url(#SVGID_00000130648947349244785140000004886521748409095849_);fill:#21235A;" d="
			M107.2,59.2h-6.3c-0.2,0-0.4,0-0.4-0.5v-3.6v-3.6h6.3c0.2,0,0.5,0,0.5,0.5V59.2z M107.1,50.5h-8.3v1.7v2.8v3.8
			c0,1,0.8,1.3,1.7,1.3h2.5h3.9h1.8v-8.3C108.8,50.8,108,50.5,107.1,50.5"/>
	</g>
	<g>
		<defs>
			<rect id="SVGID_00000159429526339773603430000009120529760929790395_" x="-396.4" y="-163.8" width="1207.6" height="858.9"/>
		</defs>
		<clipPath id="SVGID_00000005261524530376913070000000639759282903687084_">
			<use xlink:href="#SVGID_00000159429526339773603430000009120529760929790395_"  style="overflow:visible;"/>
		</clipPath>
		<path id="path3962" style="clip-path:url(#SVGID_00000005261524530376913070000000639759282903687084_);fill:#21235A;" d="
			M139,51.8h1.6c0.3,0,0.4,0.1,0.4,0.4v0.9c0,0.7,0.5,1,1.2,1h1.1v-0.4c0-0.4-0.1-0.5-0.4-0.5c-0.3,0-0.3-0.2-0.3-0.4v-1
			c0-0.5-0.2-1-1.1-1h-3.8v0.9c0,1,0,1.2-0.3,1.5c-0.2,0.2-0.4,0.1-0.4,0.5v0.4C138.2,54,139,53.8,139,51.8"/>
	</g>
	<g>
		<defs>
			<rect id="SVGID_00000106837231471967869120000003941107896171580049_" x="-396.4" y="-163.8" width="1207.6" height="858.9"/>
		</defs>
		<clipPath id="SVGID_00000021106277569161239190000000178853912657600164_">
			<use xlink:href="#SVGID_00000106837231471967869120000003941107896171580049_"  style="overflow:visible;"/>
		</clipPath>
		<path id="path3964" style="clip-path:url(#SVGID_00000021106277569161239190000000178853912657600164_);fill:#21235A;" d="
			M142.9,59.3c-0.8-0.2-1.4-0.5-2-0.8c1.2-0.9,1.8-2,2.2-2.9c0.1-0.4,0.1-1-0.8-1H137v0.9h4.4c-0.4,0.9-0.9,1.6-1.6,2.2
			c-0.4-0.4-0.8-1-1.2-1.6H137c0.4,0.8,0.9,1.6,1.7,2.3c-0.5,0.3-1.1,0.5-1.7,0.7c-0.4,0.1-0.4,0.1-0.4,0.7v0.4
			c1.3-0.2,2.3-0.6,3.2-1c0.9,0.5,2,0.9,3.4,1.1v-0.4C143.2,59.4,143.1,59.4,142.9,59.3"/>
	</g>
	<g>
		<defs>
			<rect id="SVGID_00000074428550616851665130000012090889448767090578_" x="-396.4" y="-163.8" width="1207.6" height="858.9"/>
		</defs>
		<clipPath id="SVGID_00000164495659651391735090000003271363977571220120_">
			<use xlink:href="#SVGID_00000074428550616851665130000012090889448767090578_"  style="overflow:visible;"/>
		</clipPath>
		<path id="path3966" style="clip-path:url(#SVGID_00000164495659651391735090000003271363977571220120_);fill:#21235A;" d="
			M112.6,67.2h-1.4v-3.3h1.4c1.8,0,2.2,1,2.2,1.6C114.8,66,114.5,67.2,112.6,67.2 M113.1,62.8h-4v8.5h2.2v-3.1h1.8
			c3.7,0,3.9-2.1,3.9-2.8C116.9,64.6,116.5,62.8,113.1,62.8"/>
	</g>
	<g>
		<defs>
			<rect id="SVGID_00000134211780225453134750000000309046951411622532_" x="-396.4" y="-163.8" width="1207.6" height="858.9"/>
		</defs>
		<clipPath id="SVGID_00000000219491618274737950000009880113437855943849_">
			<use xlink:href="#SVGID_00000134211780225453134750000000309046951411622532_"  style="overflow:visible;"/>
		</clipPath>
		<path id="path3968" style="clip-path:url(#SVGID_00000000219491618274737950000009880113437855943849_);fill:#21235A;" d="
			M130.7,64.1c0.3,0,0.5,0,0.7-0.2c0.1-0.1,0.4-0.7,0.4-0.7c-0.4-0.2-0.8-0.3-1.2-0.4c-0.5-0.1-1-0.1-1.6-0.1c-1.7,0-3,0.4-3.9,1.3
			c-0.9,0.8-1.4,1.9-1.4,3.1c0,1.2,0.5,2.3,1.4,3.1c0.9,0.8,2.2,1.2,3.9,1.2c1.3,0,2.2-0.2,2.9-0.5c0,0-0.3-0.7-0.5-0.8
			c-0.2-0.2-0.5-0.1-0.7-0.1c-0.7,0.1-2.6,0.5-3.8-0.7c-0.6-0.6-0.9-1.4-0.9-2.3c0-0.9,0.3-1.7,0.8-2.3
			C128.1,63.4,130.4,64,130.7,64.1"/>
	</g>
	<g>
		<defs>
			<rect id="SVGID_00000037675095492969556660000001948446081526571692_" x="-396.4" y="-163.8" width="1207.6" height="858.9"/>
		</defs>
		<clipPath id="SVGID_00000031920595781775403050000017908378113366894271_">
			<use xlink:href="#SVGID_00000037675095492969556660000001948446081526571692_"  style="overflow:visible;"/>
		</clipPath>
		<path id="path3970" style="clip-path:url(#SVGID_00000031920595781775403050000017908378113366894271_);fill:#21235A;" d="
			M120.2,62.8H119v8.5h2.4v-7.7C121.4,63.1,121.1,62.8,120.2,62.8"/>
	</g>
	<g>
		<defs>
			<rect id="SVGID_00000163056168795767728670000016749260416595156399_" x="-396.4" y="-163.8" width="1207.6" height="858.9"/>
		</defs>
		<clipPath id="SVGID_00000168096032332383438840000015893857913671300501_">
			<use xlink:href="#SVGID_00000163056168795767728670000016749260416595156399_"  style="overflow:visible;"/>
		</clipPath>
		<path id="path3972" style="clip-path:url(#SVGID_00000168096032332383438840000015893857913671300501_);fill:#21235A;" d="
			M104.2,66.4c-1-0.3-1.6-0.5-2-0.7c-0.4-0.2-0.5-0.5-0.5-0.8c0-0.4,0.2-0.7,0.6-0.9c0.4-0.2,0.9-0.3,1.5-0.3c0.4,0,0.8,0.1,1.2,0.2
			c0.2,0,0.3,0.1,0.4,0.1c0.3,0.1,0.7,0,0.9-0.3l0.3-0.4c-0.3-0.2-0.8-0.3-1.3-0.4c-0.5-0.1-1.1-0.2-1.8-0.2c-1.3,0-2.3,0.2-3.1,0.6
			c-0.8,0.4-1.2,1-1.2,1.7c0,0.5,0.2,0.9,0.6,1.3c0.4,0.4,1.1,0.7,2,1c0.9,0.3,1.6,0.5,1.9,0.7c0.3,0.2,0.5,0.5,0.5,0.8
			c0,0.4-0.2,0.6-0.6,0.8c-0.4,0.2-1,0.3-1.7,0.3c-0.5,0-0.9-0.1-1.3-0.2c-0.2,0-0.3-0.1-0.5-0.1c-0.3-0.1-0.7,0.1-0.9,0.4l-0.3,0.5
			c0.4,0.2,0.9,0.3,1.4,0.4c0.5,0.1,1.2,0.2,2,0.2c1.3,0,2.4-0.2,3.3-0.6c0.9-0.4,1.3-1,1.3-1.8c0-0.5-0.2-0.9-0.6-1.3
			C105.9,67,105.2,66.7,104.2,66.4"/>
	</g>
</g>
</svg>
