<?xml version="1.0" encoding="UTF-8" standalone="no"?>
<!-- Created with Inkscape (http://www.inkscape.org/) -->

<svg
   width="13.802775mm"
   height="13.802436mm"
   viewBox="0 0 13.802775 13.802436"
   version="1.1"
   id="svg1"
   xmlns="http://www.w3.org/2000/svg"
   xmlns:svg="http://www.w3.org/2000/svg">
  <defs
     id="defs1">
    <clipPath
       clipPathUnits="userSpaceOnUse"
       id="clipPath3488">
      <path
         d="M 0,858.898 H 1207.558 V 0 H 0 Z"
         transform="translate(-502.02541,-153.6905)"
         id="path3488" />
    </clipPath>
    <clipPath
       clipPathUnits="userSpaceOnUse"
       id="clipPath3490">
      <path
         d="M 0,858.898 H 1207.558 V 0 H 0 Z"
         transform="translate(-519.72792,-165.8946)"
         id="path3490" />
    </clipPath>
    <clipPath
       clipPathUnits="userSpaceOnUse"
       id="clipPath3492">
      <path
         d="M 0,858.898 H 1207.558 V 0 H 0 Z"
         transform="translate(-529.76502,-139.5867)"
         id="path3492" />
    </clipPath>
    <clipPath
       clipPathUnits="userSpaceOnUse"
       id="clipPath3494">
      <path
         d="M 0,858.898 H 1207.558 V 0 H 0 Z"
         transform="translate(-516.58011,-168.99671)"
         id="path3494" />
    </clipPath>
    <clipPath
       clipPathUnits="userSpaceOnUse"
       id="clipPath3496">
      <path
         d="M 0,858.898 H 1207.558 V 0 H 0 Z"
         transform="translate(-519.32751,-153.7925)"
         id="path3496" />
    </clipPath>
    <clipPath
       clipPathUnits="userSpaceOnUse"
       id="clipPath3498">
      <path
         d="M 0,858.898 H 1207.558 V 0 H 0 Z"
         transform="translate(2.5000001e-7,-3.5000001e-5)"
         id="path3498" />
    </clipPath>
    <clipPath
       clipPathUnits="userSpaceOnUse"
       id="clipPath3500">
      <path
         d="M 0,858.898 H 1207.558 V 0 H 0 Z"
         transform="translate(-520.75212,-157.8315)"
         id="path3500" />
    </clipPath>
    <clipPath
       clipPathUnits="userSpaceOnUse"
       id="clipPath3502">
      <path
         d="M 0,858.898 H 1207.558 V 0 H 0 Z"
         transform="translate(-512.97102,-143.4549)"
         id="path3502" />
    </clipPath>
    <clipPath
       clipPathUnits="userSpaceOnUse"
       id="clipPath3504">
      <path
         d="M 0,858.898 H 1207.558 V 0 H 0 Z"
         transform="translate(-522.08341,-143.76101)"
         id="path3504" />
    </clipPath>
    <clipPath
       clipPathUnits="userSpaceOnUse"
       id="clipPath3506">
      <path
         d="M 0,858.898 H 1207.558 V 0 H 0 Z"
         transform="translate(-512.26551,-158.9207)"
         id="path3506" />
    </clipPath>
  </defs>
  <g
     id="layer1"
     transform="translate(-168.68972,-173.97598)">
    <path
       id="path3487"
       d="M 0,0 0.427,-1.087 1.497,-0.62 1.031,-1.69 2.117,-2.117 1.031,-2.544 1.497,-3.614 0.427,-3.148 0,-4.235 l -0.427,1.087 -1.07,-0.466 0.466,1.07 -1.086,0.427 1.086,0.427 -0.466,1.07 1.07,-0.466 z m 29.166,0 0.428,-1.087 1.07,0.467 -0.467,-1.07 1.087,-0.427 -1.087,-0.427 0.467,-1.07 -1.07,0.466 -0.428,-1.087 -0.427,1.087 -1.07,-0.466 0.467,1.07 -1.087,0.427 1.087,0.427 -0.467,1.07 1.07,-0.466"
       style="fill:#2b3665;fill-opacity:1;fill-rule:evenodd;stroke:none"
       transform="matrix(0.35277776,0,0,-0.35277776,170.45654,179.37567)"
       clip-path="url(#clipPath3488)" />
    <path
       id="path3489"
       d="m 0,0 c -0.017,-0.002 -0.035,-0.011 -0.053,-0.025 -0.019,-0.016 -0.02,-0.049 -0.003,-0.096 0.018,-0.133 0.018,-0.261 0,-0.385 -0.004,-0.104 -0.027,-0.242 -0.071,-0.41 -0.154,-0.584 -0.299,-1.034 -0.432,-1.351 -0.113,-0.311 -0.261,-0.606 -0.45,-0.882 -0.063,-0.087 -0.098,-0.172 -0.103,-0.254 -0.002,-0.139 0.011,-0.24 0.038,-0.301 0.03,-0.065 0.071,-0.076 0.121,-0.034 0.068,0.037 0.129,0.111 0.183,0.22 0.122,0.225 0.223,0.468 0.304,0.72 0.096,0.317 0.192,0.629 0.289,0.941 0.026,0.088 0.05,0.175 0.074,0.258 0.015,-0.004 0.029,-0.008 0.047,-0.009 0.128,-0.003 0.328,-0.031 0.599,-0.087 0,-0.015 0.009,-0.043 0.025,-0.081 0.046,-0.13 0.117,-0.158 0.215,-0.084 0.074,0.05 0.124,0.111 0.149,0.183 0.063,0.179 0.131,0.365 0.204,0.556 0.064,0.167 0.146,0.296 0.249,0.391 0.064,0.051 0.08,0.111 0.046,0.177 C 1.38,-0.482 1.309,-0.402 1.22,-0.317 1.17,-0.279 1.116,-0.266 1.056,-0.276 0.812,-0.296 0.559,-0.294 0.298,-0.267 0.295,-0.263 0.29,-0.255 0.283,-0.245 0.216,-0.147 0.136,-0.068 0.046,-0.012 0.031,-0.002 0.017,0.002 0,0 m 2.034,-0.313 c -0.01,0.001 -0.02,0 -0.031,-0.004 C 1.975,-0.324 1.967,-0.354 1.978,-0.407 2,-0.542 1.995,-0.687 1.965,-0.845 1.914,-1.072 1.85,-1.3 1.773,-1.528 1.739,-1.635 1.728,-1.749 1.739,-1.869 c 0.009,-0.086 0.027,-0.144 0.056,-0.174 0.049,-0.04 0.094,-0.013 0.136,0.084 0.003,0.01 0.008,0.017 0.01,0.025 C 1.964,-1.945 1.997,-1.954 2.04,-1.962 2.209,-1.977 2.471,-2.03 2.822,-2.124 2.597,-2.959 2.384,-3.657 2.186,-4.214 2.155,-4.307 2.121,-4.371 2.083,-4.406 2.057,-4.421 2.011,-4.408 1.95,-4.372 1.861,-4.323 1.777,-4.275 1.689,-4.223 1.623,-4.177 1.584,-4.171 1.577,-4.207 1.724,-4.446 1.836,-4.648 1.909,-4.813 1.933,-4.899 1.973,-4.958 2.028,-4.99 c 0.03,-0.023 0.064,-0.024 0.102,0.003 0.061,0.04 0.14,0.106 0.236,0.199 0.073,0.085 0.123,0.187 0.149,0.304 0.173,0.772 0.435,1.771 0.783,3.003 0.057,0.214 0.125,0.363 0.201,0.447 0.065,0.053 0.08,0.11 0.047,0.165 -0.058,0.088 -0.147,0.18 -0.27,0.276 C 3.217,-0.549 3.155,-0.531 3.093,-0.54 2.932,-0.573 2.805,-0.589 2.714,-0.59 2.609,-0.586 2.46,-0.571 2.267,-0.546 2.209,-0.457 2.14,-0.386 2.062,-0.329 2.053,-0.321 2.044,-0.315 2.034,-0.313 M 0.366,-0.422 C 0.505,-0.428 0.624,-0.436 0.72,-0.441 0.859,-0.447 0.947,-0.471 0.987,-0.512 1.012,-0.543 1.009,-0.608 0.975,-0.711 0.875,-1.004 0.779,-1.273 0.686,-1.515 0.673,-1.549 0.658,-1.576 0.637,-1.596 0.619,-1.565 0.588,-1.527 0.543,-1.484 0.498,-1.445 0.423,-1.426 0.317,-1.425 0.189,-1.426 0.065,-1.428 -0.05,-1.428 c 0.04,0.139 0.082,0.264 0.125,0.369 0.181,-0.014 0.34,-0.033 0.475,-0.052 0.082,-0.002 0.11,0.022 0.087,0.071 -0.022,0.056 -0.074,0.1 -0.159,0.137 -0.076,0.025 -0.186,0.035 -0.332,0.027 -0.004,-0.002 -0.008,-0.003 -0.012,-0.006 0.077,0.22 0.136,0.371 0.179,0.457 0.016,-0.001 0.034,0.001 0.053,0.003 m -9.715,-0.236 c -0.067,-0.006 -0.123,-0.029 -0.168,-0.065 -0.072,-0.06 -0.061,-0.111 0.031,-0.156 0.158,-0.076 0.258,-0.177 0.301,-0.301 0.15,-0.426 0.266,-0.805 0.345,-1.136 -0.339,-0.191 -0.699,-0.39 -1.081,-0.603 -0.078,-0.041 -0.074,-0.084 0.013,-0.124 0.07,-0.025 0.144,-0.037 0.22,-0.034 0.087,0.014 0.156,0.04 0.208,0.077 0.205,0.156 0.438,0.306 0.693,0.448 0.007,-0.032 0.014,-0.066 0.018,-0.103 0.078,-0.371 0.089,-0.708 0.034,-1.012 -0.027,-0.221 -0.098,-0.443 -0.214,-0.668 -0.1,-0.22 -0.29,-0.499 -0.571,-0.838 -0.043,-0.042 -0.068,-0.075 -0.072,-0.096 -0.013,-0.031 0.016,-0.039 0.087,-0.022 0.055,0.019 0.178,0.112 0.364,0.276 0.133,0.115 0.282,0.298 0.447,0.547 0.123,0.193 0.208,0.394 0.257,0.608 0.059,0.244 0.075,0.529 0.047,0.854 -0.008,0.059 -0.015,0.12 -0.022,0.184 0.119,-0.11 0.37,-0.314 0.758,-0.612 0.426,-0.32 0.787,-0.558 1.077,-0.721 0.137,-0.083 0.252,-0.11 0.348,-0.077 0.275,0.118 0.536,0.226 0.78,0.326 0.105,0.04 0.155,0.075 0.146,0.102 -0.008,0.033 -0.079,0.056 -0.212,0.072 -0.17,0.014 -0.35,0.029 -0.54,0.04 -0.225,0.007 -0.411,0.036 -0.556,0.087 -0.194,0.06 -0.478,0.196 -0.85,0.407 -0.419,0.229 -0.748,0.43 -0.988,0.602 -0.009,0.07 -0.021,0.139 -0.034,0.211 0.314,0.171 0.741,0.366 1.276,0.581 0.082,0.028 0.161,0.057 0.236,0.087 0.075,0.03 0.113,0.062 0.118,0.103 -0.001,0.049 -0.041,0.091 -0.121,0.12 -0.14,0.037 -0.257,0.053 -0.351,0.047 -0.08,-0.004 -0.152,-0.03 -0.22,-0.078 -0.24,-0.155 -0.57,-0.36 -0.988,-0.611 -0.037,0.141 -0.075,0.282 -0.115,0.419 -0.037,0.119 -0.066,0.227 -0.09,0.326 -0.051,0.16 -0.079,0.345 -0.08,0.553 0.004,0.052 -0.016,0.087 -0.066,0.108 -0.097,0.04 -0.228,0.063 -0.394,0.072 -0.024,0.001 -0.049,0.002 -0.071,0 M 2.285,-0.733 C 2.311,-0.736 2.344,-0.739 2.382,-0.739 2.573,-0.756 2.764,-0.767 2.956,-0.773 3.037,-0.781 3.079,-0.807 3.086,-0.851 3.093,-0.944 3.088,-1.056 3.065,-1.189 2.999,-1.458 2.929,-1.718 2.86,-1.972 2.843,-1.951 2.823,-1.926 2.801,-1.897 2.755,-1.846 2.677,-1.817 2.562,-1.81 2.356,-1.8 2.167,-1.784 1.997,-1.757 c 0.009,0.046 0.02,0.098 0.027,0.152 0.025,0.084 0.05,0.175 0.078,0.273 0.004,-10e-4 0.013,-0.004 0.031,-0.009 0.216,-0.036 0.403,-0.068 0.559,-0.09 0.081,-0.008 0.116,0.014 0.099,0.065 C 2.77,-1.31 2.719,-1.265 2.639,-1.226 2.565,-1.194 2.454,-1.178 2.307,-1.177 2.248,-1.183 2.194,-1.19 2.142,-1.198 c 0.05,0.171 0.096,0.328 0.143,0.465 M 9.222,-5.338 C 9.192,-5.335 9.166,-5.353 9.144,-5.39 9.1,-5.514 8.992,-5.633 8.818,-5.744 8.128,-6.168 7.578,-6.443 7.17,-6.567 L 7.126,-6.58 c -0.39,-0.11 -0.864,-0.18 -1.422,-0.208 -0.031,0.002 -0.058,0 -0.081,-0.009 -0.038,-0.016 -0.041,-0.039 -0.009,-0.065 0.087,-0.085 0.39,-0.11 0.91,-0.081 0.118,0.013 0.245,0.029 0.379,0.05 0.583,0.121 1.182,0.364 1.794,0.726 0.18,0.109 0.378,0.205 0.59,0.292 0.035,-0.102 0.164,-0.269 0.388,-0.5 0.264,-0.255 0.532,-0.521 0.805,-0.795 0.158,-0.147 0.257,-0.225 0.298,-0.236 0.036,-0.01 0.061,-0.001 0.074,0.025 0.02,0.04 0.014,0.1 -0.018,0.183 -0.037,0.089 -0.189,0.237 -0.46,0.441 -0.43,0.381 -0.762,0.71 -0.991,0.991 -0.008,0.011 -0.017,0.021 -0.031,0.028 0.01,0.205 -0.021,0.335 -0.096,0.391 -0.011,0.005 -0.024,0.009 -0.034,0.009 m -25.241,-0.046 c -0.059,0.009 -0.179,-0.04 -0.363,-0.146 -0.051,-0.034 -0.085,-0.072 -0.1,-0.118 -0.06,-0.17 -0.136,-0.356 -0.226,-0.553 -0.037,-0.06 -0.029,-0.089 0.021,-0.09 0.052,0.012 0.103,0.037 0.156,0.075 0.057,0.046 0.093,0.099 0.105,0.161 0.029,0.077 0.058,0.158 0.087,0.242 0.008,0.021 0.018,0.032 0.028,0.034 0.036,0.017 0.087,0.001 0.155,-0.049 0.059,-0.052 0.12,-0.112 0.18,-0.174 -0.034,-0.006 -0.067,-0.027 -0.102,-0.062 -0.048,-0.052 -0.097,-0.138 -0.143,-0.264 -0.018,-0.071 -0.034,-0.142 -0.056,-0.211 -0.021,-0.042 0.005,-0.056 0.081,-0.038 0.021,0.005 0.038,0.025 0.059,0.059 0.096,0.165 0.18,0.308 0.249,0.429 0.064,-0.069 0.14,-0.145 0.223,-0.227 -0.026,-0.014 -0.05,-0.034 -0.074,-0.062 -0.047,-0.054 -0.089,-0.143 -0.128,-0.27 -0.018,-0.079 -0.035,-0.154 -0.046,-0.224 -0.016,-0.046 0.009,-0.054 0.077,-0.027 0.02,0.005 0.043,0.028 0.062,0.068 0.08,0.158 0.146,0.295 0.205,0.413 0.088,-0.096 0.186,-0.197 0.292,-0.305 -0.039,-0.07 -0.072,-0.147 -0.102,-0.223 -0.169,-0.348 -0.376,-0.799 -0.621,-1.357 -0.008,-0.012 -0.012,-0.024 -0.013,-0.037 -0.162,0.056 -0.308,0.107 -0.441,0.158 0.002,0.003 0.003,0.006 0.003,0.006 0.067,0.158 0.124,0.299 0.174,0.423 0.023,0.067 0.01,0.097 -0.04,0.093 -0.05,-0.012 -0.103,-0.048 -0.155,-0.106 -0.04,-0.057 -0.072,-0.15 -0.1,-0.279 -0.005,-0.036 -0.005,-0.067 -0.003,-0.09 -0.066,0.024 -0.126,0.049 -0.177,0.071 -0.047,0.015 -0.085,0.031 -0.121,0.05 0.058,0.187 0.111,0.347 0.159,0.481 0.021,0.064 0.009,0.094 -0.038,0.087 -0.049,-0.009 -0.095,-0.044 -0.139,-0.102 -0.04,-0.058 -0.068,-0.145 -0.084,-0.264 -0.006,-0.052 -0.012,-0.103 -0.016,-0.152 -0.061,0.032 -0.103,0.054 -0.127,0.065 -0.037,0.022 -0.072,0.031 -0.1,0.028 -0.001,0.082 -0.002,0.154 -0.006,0.211 -0.003,0.058 -0.005,0.116 -0.006,0.177 -0.016,0.065 -0.021,0.133 -0.012,0.205 0.009,0.063 -0.016,0.097 -0.075,0.099 -0.059,-0.007 -0.124,-0.034 -0.195,-0.081 -0.068,-0.041 -0.107,-0.077 -0.115,-0.111 -0.016,-0.034 -0.005,-0.052 0.034,-0.059 0.047,-0.016 0.086,-0.057 0.115,-0.122 0.037,-0.052 0.067,-0.107 0.093,-0.17 0.021,-0.056 0.043,-0.113 0.068,-0.171 -0.083,-0.044 -0.149,-0.101 -0.205,-0.171 -0.034,-0.035 -0.046,-0.07 -0.037,-0.105 0.008,-0.035 0.038,-0.052 0.093,-0.047 0.139,0.01 0.279,0.005 0.419,-0.016 0.129,-0.027 0.445,-0.126 0.947,-0.294 -0.069,-0.143 -0.138,-0.28 -0.205,-0.41 -0.007,-0.013 -0.009,-0.024 -0.006,-0.035 -0.005,-10e-4 -0.012,10e-4 -0.022,0.007 -0.087,0.011 -0.156,0.006 -0.204,-0.016 -0.071,-0.025 -0.069,-0.063 0.003,-0.115 0.02,-0.008 0.043,-0.022 0.068,-0.037 0.057,-0.039 0.098,-0.084 0.121,-0.137 0.045,-0.096 0.084,-0.209 0.121,-0.338 0.014,-0.047 0.058,-0.086 0.128,-0.112 0.091,-0.038 0.167,-0.056 0.232,-0.056 0.103,-0.008 0.133,0.043 0.087,0.152 -0.04,0.09 -0.104,0.182 -0.192,0.283 -0.107,0.121 -0.188,0.224 -0.242,0.304 0.122,0.045 0.203,0.125 0.242,0.239 0.082,0.284 0.181,0.564 0.295,0.842 0.132,0.31 0.316,0.703 0.546,1.18 0.14,0.292 0.237,0.469 0.295,0.528 0.059,0.032 0.099,0.041 0.118,0.024 0.015,-0.004 0.033,-0.029 0.059,-0.071 0.056,-0.085 0.114,-0.17 0.171,-0.261 0.028,-0.046 0.051,-0.064 0.074,-0.053 0.026,0.014 0.039,0.055 0.041,0.128 0.006,0.228 0.037,0.419 0.093,0.574 0.04,0.13 0.049,0.202 0.022,0.214 -0.033,0.016 -0.205,-0.033 -0.513,-0.146 -0.086,-0.028 -0.151,-0.082 -0.192,-0.164 -0.068,-0.139 -0.134,-0.287 -0.199,-0.441 -0.417,0.413 -0.678,0.735 -0.785,0.969 -0.01,0.048 -0.035,0.078 -0.075,0.09 M 9.054,-6.22 C 9.042,-6.225 9.034,-6.245 9.029,-6.275 9.024,-6.391 9.074,-6.488 9.178,-6.567 9.252,-6.616 9.33,-6.681 9.408,-6.76 9.35,-6.815 9.218,-6.87 9.017,-6.927 8.959,-6.855 8.903,-6.789 8.843,-6.726 8.844,-6.671 8.833,-6.618 8.812,-6.567 8.801,-6.547 8.783,-6.535 8.759,-6.536 8.747,-6.541 8.732,-6.559 8.719,-6.586 8.559,-6.828 8.319,-7.013 7.995,-7.145 7.933,-7.166 7.885,-7.196 7.856,-7.235 7.805,-7.301 7.778,-7.358 7.772,-7.399 7.759,-7.438 7.773,-7.457 7.815,-7.458 7.834,-7.461 7.858,-7.457 7.884,-7.446 7.899,-7.489 7.923,-7.533 7.961,-7.58 7.75,-7.736 7.367,-7.754 6.812,-7.636 6.804,-7.629 6.793,-7.626 6.781,-7.626 6.62,-7.593 6.368,-7.511 6.024,-7.381 5.999,-7.37 5.991,-7.378 5.999,-7.406 6.125,-7.577 6.446,-7.726 6.962,-7.853 6.974,-7.848 6.99,-7.85 7.005,-7.859 7.146,-7.882 7.332,-7.909 7.561,-7.934 7.554,-7.98 7.533,-8.194 7.502,-8.576 7.097,-8.516 6.728,-8.36 6.393,-8.107 6.373,-8.085 6.357,-8.079 6.344,-8.089 6.333,-8.097 6.332,-8.113 6.34,-8.135 6.549,-8.501 6.932,-8.727 7.489,-8.815 7.451,-9.451 7.458,-9.823 7.508,-9.93 c 0.094,-0.166 0.283,-0.359 0.568,-0.578 0.046,-0.04 0.074,-0.058 0.087,-0.053 0.021,0.012 0.022,0.043 0.003,0.091 -0.072,0.186 -0.147,0.384 -0.23,0.596 -0.094,0.244 -0.156,0.471 -0.189,0.683 -0.018,0.114 -0.036,0.231 -0.05,0.345 0.13,-0.008 0.279,-0.015 0.447,-0.019 0.1,-10e-4 0.193,-0.02 0.28,-0.059 0.04,-0.032 0.074,-0.039 0.102,-0.022 0.034,0.021 0.051,0.081 0.05,0.183 0.008,0.13 -0.002,0.212 -0.025,0.249 -0.019,0.027 -0.046,0.052 -0.08,0.071 -0.035,0.024 -0.2,0.169 -0.5,0.435 -0.012,0.016 -0.023,0.03 -0.032,0.04 0.055,-0.034 0.098,0.001 0.128,0.106 0.02,0.09 0.017,0.151 -0.006,0.183 C 8.307,-7.922 8.52,-8.147 8.7,-8.353 8.7,-8.357 8.698,-8.366 8.694,-8.378 8.65,-8.452 8.637,-8.497 8.654,-8.514 c 0.023,-0.032 0.083,-0.039 0.18,-0.025 0.076,0.003 0.137,0.021 0.183,0.059 0.313,0.281 0.544,0.42 0.696,0.416 0.054,-10e-4 0.089,0.018 0.102,0.056 0.009,0.11 -0.002,0.241 -0.034,0.391 -0.01,0.047 -0.046,0.092 -0.106,0.134 -0.141,0.085 -0.289,0.201 -0.441,0.344 -0.034,0.041 -0.07,0.075 -0.111,0.103 0.012,0.005 0.027,0.005 0.043,0 0.044,-0.004 0.097,-0.007 0.158,-0.006 0.024,10e-4 0.056,-0.002 0.09,-0.01 0.048,-0.014 0.074,-0.003 0.081,0.031 0.015,0.036 0.026,0.087 0.031,0.153 0.116,-0.068 0.353,-0.325 0.711,-0.771 0.089,-0.12 0.149,-0.178 0.184,-0.173 0.034,0.009 0.053,0.042 0.052,0.099 -0.006,0.193 -0.096,0.347 -0.264,0.463 -0.115,0.105 -0.261,0.235 -0.441,0.388 -0.204,0.187 -0.425,0.393 -0.664,0.621 -0.02,0.018 -0.038,0.027 -0.05,0.021 M -16.86,-6.275 c -0.027,0 -0.061,-0.002 -0.103,-0.007 -0.069,-0.022 -0.119,-0.049 -0.149,-0.077 -0.026,-0.036 -0.016,-0.061 0.034,-0.078 0.043,-0.014 0.075,-0.038 0.093,-0.071 0.057,-0.103 0.105,-0.21 0.143,-0.323 -0.008,-0.007 -0.02,-0.016 -0.034,-0.025 -0.123,-0.11 -0.214,-0.195 -0.276,-0.255 -0.015,-0.017 -0.014,-0.032 0.006,-0.04 0.024,-0.01 0.049,-0.008 0.074,0.006 0.087,0.051 0.181,0.102 0.28,0.152 0.027,-0.084 0.049,-0.177 0.068,-0.279 0,-0.03 0.003,-0.049 0.013,-0.062 0.013,-0.026 0.029,-0.025 0.046,0.003 0.013,0.022 0.022,0.069 0.022,0.146 0.002,0.068 -0.003,0.153 -0.012,0.258 0.073,0.036 0.158,0.076 0.251,0.118 0.041,0.017 0.073,0.038 0.096,0.062 0.008,0.012 0.005,0.034 -0.009,0.059 -0.014,0.026 -0.069,0.043 -0.162,0.052 -0.048,0.005 -0.094,-0.005 -0.133,-0.027 -0.024,-0.012 -0.046,-0.025 -0.065,-0.044 -0.015,0.061 -0.03,0.124 -0.044,0.193 -0.022,0.068 -0.03,0.123 -0.028,0.164 -0.004,0.034 -0.024,0.058 -0.055,0.068 -0.012,0.005 -0.03,0.007 -0.056,0.007 m 3.465,-0.224 c -0.017,-0.002 -0.036,-0.005 -0.056,-0.012 -0.126,-0.052 -0.227,-0.106 -0.301,-0.159 -0.062,-0.052 -0.108,-0.116 -0.137,-0.192 -0.112,-0.296 -0.27,-0.682 -0.472,-1.155 -0.015,0.004 -0.031,0.008 -0.05,0.012 -0.06,0.006 -0.119,0.001 -0.176,-0.015 -0.01,0.138 -0.02,0.285 -0.029,0.44 -0.013,0.167 -0.003,0.299 0.029,0.392 0.016,0.071 -0.004,0.112 -0.059,0.124 -0.057,0.021 -0.201,-0.029 -0.435,-0.152 -0.066,-0.037 -0.109,-0.095 -0.128,-0.174 -0.056,-0.228 -0.136,-0.508 -0.239,-0.845 -0.025,-0.091 -0.098,-0.222 -0.223,-0.391 -0.045,-0.067 -0.03,-0.106 0.043,-0.121 0.053,-0.003 0.113,0.011 0.18,0.043 0.115,0.06 0.173,0.158 0.177,0.292 0.021,0.082 0.083,0.34 0.19,0.776 0.013,0.049 0.041,0.085 0.084,0.106 0.044,0.025 0.082,0.013 0.111,-0.031 0.062,-0.153 0.131,-0.319 0.212,-0.497 -0.041,-0.018 -0.083,-0.042 -0.122,-0.077 -0.062,-0.054 -0.089,-0.102 -0.086,-0.146 -0.003,-0.055 0.028,-0.072 0.096,-0.053 0.091,0.038 0.192,0.052 0.301,0.046 -0.242,-0.509 -0.503,-1.058 -0.783,-1.651 -0.038,-0.071 -0.011,-0.101 0.078,-0.087 0.076,0.018 0.141,0.051 0.196,0.099 0.063,0.056 0.104,0.117 0.121,0.18 0.117,0.383 0.275,0.773 0.475,1.171 0.032,0.074 0.069,0.154 0.112,0.239 0.147,-0.06 0.285,-0.134 0.413,-0.221 0.138,-0.096 0.238,-0.193 0.295,-0.288 0.053,-0.089 0.038,-0.183 -0.044,-0.283 -0.072,-0.09 -0.143,-0.173 -0.217,-0.251 -0.033,-0.032 -0.028,-0.052 0.018,-0.053 0.029,-10e-4 0.081,0.019 0.156,0.056 0.183,0.068 0.326,0.1 0.431,0.096 0.075,-0.003 0.126,0.022 0.146,0.077 0.022,0.043 0.015,0.133 -0.022,0.271 -0.03,0.126 -0.101,0.243 -0.211,0.354 -0.128,0.133 -0.302,0.259 -0.524,0.372 -0.112,0.056 -0.214,0.099 -0.305,0.134 0.169,0.325 0.389,0.701 0.662,1.127 0.06,0.092 0.115,0.18 0.164,0.261 0.043,0.064 0.056,0.113 0.038,0.146 -0.021,0.035 -0.058,0.047 -0.109,0.04 m -2.779,-0.323 c -0.025,-0.001 -0.058,-0.003 -0.097,-0.009 -0.062,-0.018 -0.106,-0.045 -0.13,-0.078 -0.022,-0.029 -0.011,-0.053 0.034,-0.071 0.046,-0.01 0.078,-0.032 0.096,-0.065 0.032,-0.062 0.065,-0.128 0.103,-0.199 -0.118,-0.082 -0.205,-0.151 -0.264,-0.205 -0.01,-0.011 -0.008,-0.022 0.009,-0.037 0.022,-0.013 0.046,-0.013 0.075,0 0.074,0.036 0.154,0.07 0.239,0.105 0.001,-0.005 0.005,-0.011 0.009,-0.018 0.042,-0.121 0.079,-0.255 0.112,-0.404 0,-0.03 0.005,-0.051 0.016,-0.062 0.013,-0.02 0.027,-0.017 0.043,0.009 0.013,0.022 0.019,0.066 0.012,0.134 0.004,0.075 -0.006,0.166 -0.024,0.276 -0.01,0.035 -0.016,0.078 -0.022,0.124 0.083,0.031 0.174,0.066 0.273,0.103 0.047,0.014 0.082,0.036 0.103,0.062 0.007,0.012 0.004,0.028 -0.006,0.053 -0.012,0.031 -0.063,0.052 -0.156,0.062 -0.045,0.011 -0.091,0.007 -0.136,-0.013 -0.036,-0.008 -0.076,-0.033 -0.125,-0.071 -0.012,0.024 -0.02,0.049 -0.024,0.077 -0.024,0.066 -0.034,0.122 -0.035,0.165 -0.006,0.031 -0.024,0.048 -0.049,0.056 -0.012,0.005 -0.031,0.007 -0.056,0.006 M 8.775,-6.878 C 8.787,-6.894 8.802,-6.911 8.818,-6.927 9.086,-7.155 9.309,-7.361 9.489,-7.542 9.558,-7.602 9.581,-7.656 9.557,-7.707 9.53,-7.793 9.306,-7.968 8.887,-8.229 8.865,-8.232 8.841,-8.241 8.815,-8.256 c 0,0.016 -0.003,0.034 -0.012,0.052 -0.016,0.038 -0.286,0.305 -0.811,0.802 0.092,0.043 0.173,0.091 0.242,0.142 0.002,-0.036 0.053,-0.111 0.153,-0.223 0.179,-0.169 0.337,-0.324 0.475,-0.466 0.045,-0.045 0.075,-0.05 0.093,-0.012 0.014,0.047 0.006,0.103 -0.025,0.167 -0.027,0.054 -0.24,0.245 -0.643,0.572 0.072,0.053 0.146,0.109 0.221,0.164 -0.004,-0.028 0.03,-0.095 0.102,-0.199 0.191,-0.173 0.357,-0.326 0.503,-0.462 0.046,-0.045 0.078,-0.047 0.093,-0.007 0.015,0.048 0.003,0.103 -0.031,0.165 -0.029,0.04 -0.238,0.214 -0.627,0.522 -0.002,0.002 -0.004,0.002 -0.009,0.003 0.112,0.083 0.19,0.137 0.236,0.158 M 7.666,-7.943 C 7.707,-7.942 7.753,-7.944 7.809,-7.952 7.805,-7.997 7.823,-8.058 7.862,-8.132 7.915,-8.209 8.018,-8.3 8.172,-8.409 8.221,-8.451 8.242,-8.491 8.238,-8.523 8.235,-8.542 8.159,-8.564 8.008,-8.589 7.906,-8.602 7.796,-8.603 7.679,-8.595 c -0.003,0.077 -0.007,0.154 -0.01,0.23 0.006,0.194 0.005,0.333 -0.003,0.422"
       style="fill:#2b3665;fill-opacity:1;fill-rule:evenodd;stroke:none"
       transform="matrix(0.35277776,0,0,-0.35277776,176.70159,175.07034)"
       clip-path="url(#clipPath3490)" />
    <path
       id="path3491"
       d="M 0,0 -2.214,1.611 -1.806,2.174 -0.72,1.78 C -0.599,1.738 -0.477,1.692 -0.352,1.642 -0.228,1.592 -0.097,1.537 0.04,1.477 -0.081,1.543 -0.201,1.612 -0.317,1.686 -0.433,1.76 -0.564,1.85 -0.71,1.957 L -1.53,2.554 -1.177,3.041 1.037,1.43 0.643,0.887 -0.517,1.292 c -0.122,0.042 -0.245,0.089 -0.371,0.14 -0.124,0.052 -0.253,0.11 -0.386,0.173 0.176,-0.106 0.34,-0.209 0.493,-0.308 0.152,-0.099 0.291,-0.194 0.417,-0.286 L 0.354,0.489 Z M 1.942,6.196 2.049,6.8 2.267,6.761 C 2.358,6.745 2.428,6.749 2.478,6.775 2.528,6.799 2.56,6.845 2.571,6.911 2.582,6.973 2.571,7.026 2.537,7.07 2.502,7.114 2.453,7.142 2.388,7.153 2.332,7.163 2.272,7.156 2.211,7.131 2.148,7.106 2.083,7.064 2.015,7.003 1.984,6.977 1.94,6.937 1.882,6.884 1.695,6.714 1.556,6.597 1.463,6.536 1.38,6.478 1.287,6.44 1.186,6.421 1.084,6.402 0.977,6.402 0.864,6.422 0.638,6.462 0.475,6.563 0.373,6.724 0.272,6.885 0.243,7.09 0.287,7.341 0.331,7.59 0.421,7.767 0.558,7.873 0.694,7.979 0.877,8.012 1.107,7.972 L 1.328,7.932 1.226,7.355 1.041,7.388 C 0.954,7.403 0.889,7.399 0.842,7.375 0.796,7.351 0.767,7.307 0.756,7.241 0.746,7.188 0.757,7.141 0.787,7.101 0.818,7.062 0.863,7.037 0.923,7.027 1.024,7.009 1.207,7.114 1.474,7.344 l 0.017,0.013 0.046,0.04 C 1.774,7.598 1.94,7.714 2.033,7.745 2.096,7.766 2.163,7.778 2.234,7.782 2.305,7.786 2.38,7.781 2.458,7.767 2.69,7.726 2.858,7.622 2.962,7.455 3.067,7.287 3.096,7.074 3.05,6.814 3.005,6.556 2.905,6.371 2.75,6.261 2.596,6.149 2.394,6.116 2.144,6.16 Z M 2.451,4.56 -0.151,5.407 0.041,5.996 2.643,5.149 Z M 0.638,2.667 0.887,3.227 1.09,3.136 C 1.174,3.099 1.244,3.086 1.298,3.098 1.352,3.109 1.394,3.146 1.421,3.208 1.447,3.266 1.448,3.32 1.426,3.371 1.403,3.421 1.362,3.46 1.302,3.487 1.25,3.51 1.19,3.518 1.124,3.509 1.058,3.5 0.984,3.475 0.904,3.432 0.868,3.414 0.815,3.386 0.746,3.349 0.523,3.229 0.36,3.15 0.255,3.112 0.16,3.076 0.062,3.062 -0.042,3.068 -0.145,3.075 -0.248,3.101 -0.354,3.148 -0.563,3.241 -0.697,3.378 -0.757,3.559 -0.816,3.74 -0.794,3.947 -0.691,4.178 -0.589,4.41 -0.458,4.56 -0.3,4.63 -0.142,4.699 0.043,4.687 0.256,4.592 L 0.461,4.5 0.223,3.964 0.051,4.041 C -0.029,4.077 -0.094,4.089 -0.145,4.077 -0.195,4.065 -0.234,4.029 -0.261,3.968 -0.283,3.918 -0.284,3.87 -0.264,3.825 -0.244,3.78 -0.206,3.744 -0.15,3.72 -0.057,3.678 0.147,3.736 0.46,3.894 L 0.481,3.903 0.535,3.93 c 0.279,0.138 0.468,0.21 0.566,0.218 0.066,0.005 0.133,0 0.204,-0.013 C 1.375,4.121 1.445,4.098 1.518,4.066 1.733,3.97 1.871,3.828 1.932,3.641 1.993,3.453 1.97,3.239 1.862,2.997 1.756,2.758 1.614,2.603 1.438,2.533 1.261,2.463 1.057,2.48 0.826,2.583 Z m -2.137,-4.416 -1.969,1.904 0.962,0.998 0.381,-0.368 -0.532,-0.552 0.391,-0.378 0.469,0.487 0.376,-0.364 -0.47,-0.487 0.441,-0.426 0.548,0.569 0.381,-0.368 z m -1.162,-1.05 -1.831,2.037 0.46,0.415 1.831,-2.037 z m -2.784,0.491 0.742,-1.101 c 0.049,-0.074 0.098,-0.119 0.146,-0.136 0.047,-0.016 0.097,-0.006 0.153,0.031 0.055,0.037 0.083,0.08 0.085,0.131 0.003,0.05 -0.021,0.112 -0.071,0.186 l -0.742,1.102 c -0.049,0.073 -0.098,0.119 -0.146,0.135 -0.048,0.017 -0.1,0.007 -0.155,-0.031 -0.053,-0.036 -0.081,-0.079 -0.083,-0.13 -0.003,-0.05 0.021,-0.112 0.071,-0.187 m -0.463,-0.433 c -0.156,0.233 -0.218,0.446 -0.183,0.64 0.034,0.194 0.164,0.367 0.387,0.518 0.226,0.152 0.435,0.208 0.625,0.168 0.19,-0.041 0.364,-0.179 0.522,-0.413 l 0.629,-0.934 c 0.157,-0.234 0.22,-0.448 0.187,-0.642 -0.034,-0.193 -0.163,-0.366 -0.388,-0.518 -0.223,-0.151 -0.431,-0.206 -0.625,-0.164 -0.193,0.041 -0.368,0.178 -0.525,0.411 z m -1.968,-3.005 -1.048,2.532 0.879,0.365 0.447,-0.755 c 0.056,-0.095 0.112,-0.195 0.169,-0.302 0.056,-0.107 0.115,-0.224 0.176,-0.351 -0.052,0.153 -0.096,0.289 -0.133,0.406 -0.036,0.119 -0.063,0.211 -0.079,0.275 l -0.212,0.88 0.874,0.363 1.047,-2.532 -0.549,-0.228 -0.383,0.926 c -0.08,0.194 -0.161,0.394 -0.244,0.601 -0.082,0.207 -0.166,0.42 -0.25,0.638 0.057,-0.233 0.104,-0.429 0.141,-0.587 0.038,-0.158 0.062,-0.26 0.072,-0.305 l 0.33,-1.412 -0.359,-0.149 -0.739,1.175 c -0.104,0.167 -0.196,0.319 -0.277,0.453 -0.08,0.135 -0.155,0.263 -0.226,0.387 0.087,-0.189 0.173,-0.382 0.258,-0.578 0.085,-0.197 0.174,-0.409 0.269,-0.637 l 0.387,-0.936 z m -2.693,-0.579 0.079,2.787 0.822,0.128 0.912,-2.632 -0.651,-0.102 -0.137,0.478 -0.422,-0.066 0.015,-0.496 z m 0.598,1.095 0.294,0.045 -0.222,0.813 c -0.016,0.054 -0.031,0.113 -0.047,0.175 -0.016,0.062 -0.039,0.157 -0.07,0.283 0.005,-0.074 0.009,-0.151 0.012,-0.23 0.004,-0.08 0.006,-0.162 0.009,-0.246 z m -3.759,-0.37 0.611,-0.032 -0.012,-0.222 c -0.005,-0.092 0.008,-0.161 0.039,-0.208 0.03,-0.047 0.079,-0.072 0.147,-0.076 0.063,-0.003 0.113,0.015 0.153,0.054 0.039,0.04 0.06,0.092 0.064,0.158 0.003,0.057 -0.012,0.116 -0.043,0.174 -0.033,0.059 -0.082,0.119 -0.151,0.179 -0.03,0.027 -0.074,0.066 -0.134,0.117 -0.192,0.165 -0.324,0.29 -0.397,0.374 -0.067,0.076 -0.116,0.163 -0.147,0.262 -0.031,0.099 -0.044,0.205 -0.038,0.32 0.012,0.229 0.092,0.404 0.24,0.525 0.146,0.121 0.347,0.174 0.6,0.161 0.252,-0.013 0.439,-0.081 0.561,-0.204 0.121,-0.123 0.176,-0.301 0.164,-0.534 l -0.012,-0.225 -0.585,0.031 0.01,0.188 c 0.005,0.088 -0.007,0.153 -0.036,0.196 -0.029,0.043 -0.077,0.066 -0.144,0.07 -0.054,0.003 -0.099,-0.013 -0.134,-0.049 -0.036,-0.034 -0.055,-0.083 -0.058,-0.143 -0.005,-0.103 0.122,-0.273 0.381,-0.51 l 0.016,-0.015 0.045,-0.041 c 0.228,-0.212 0.363,-0.362 0.405,-0.451 0.029,-0.06 0.048,-0.125 0.061,-0.195 0.013,-0.071 0.017,-0.145 0.013,-0.225 -0.013,-0.235 -0.095,-0.415 -0.248,-0.539 -0.153,-0.125 -0.361,-0.18 -0.625,-0.166 -0.261,0.014 -0.456,0.091 -0.584,0.231 -0.129,0.14 -0.187,0.337 -0.173,0.59 z m -2.49,-0.746 0.732,2.69 0.828,-0.07 0.269,-2.774 -0.656,0.055 -0.021,0.497 -0.426,0.036 -0.102,-0.486 z m 0.839,0.922 0.296,-0.024 -0.025,0.842 c -0.002,0.056 -0.003,0.116 -0.004,0.181 -10e-4,0.064 -0.002,0.161 -0.002,0.291 -0.012,-0.072 -0.027,-0.148 -0.042,-0.227 -0.016,-0.078 -0.032,-0.158 -0.049,-0.24 z m -2.439,-0.52 0.457,2.164 -0.395,0.084 0.109,0.518 1.394,-0.296 -0.109,-0.519 -0.395,0.084 -0.457,-2.163 z m -1.866,0.672 1.043,2.534 0.572,-0.237 -1.043,-2.534 z m -1.746,2.002 0.52,-0.325 -0.118,-0.188 c -0.049,-0.079 -0.071,-0.146 -0.067,-0.201 0.004,-0.056 0.035,-0.102 0.092,-0.138 0.053,-0.033 0.106,-0.042 0.16,-0.027 0.053,0.015 0.097,0.05 0.132,0.107 0.031,0.048 0.046,0.107 0.046,0.173 0.001,0.067 -0.014,0.144 -0.045,0.229 -0.012,0.039 -0.033,0.095 -0.06,0.168 -0.088,0.238 -0.143,0.411 -0.166,0.52 -0.022,0.099 -0.023,0.199 -0.002,0.301 0.021,0.101 0.061,0.201 0.122,0.298 0.121,0.195 0.276,0.309 0.463,0.343 0.187,0.034 0.388,-0.016 0.603,-0.151 0.214,-0.134 0.344,-0.284 0.391,-0.451 0.048,-0.166 0.009,-0.349 -0.114,-0.546 l -0.119,-0.192 -0.497,0.311 0.1,0.16 c 0.046,0.075 0.068,0.138 0.063,0.19 -0.005,0.051 -0.035,0.095 -0.092,0.13 -0.046,0.029 -0.093,0.037 -0.141,0.023 -0.048,-0.013 -0.087,-0.046 -0.12,-0.098 -0.054,-0.087 -0.025,-0.297 0.087,-0.63 l 0.006,-0.021 0.019,-0.058 c 0.098,-0.296 0.143,-0.493 0.137,-0.592 -0.004,-0.066 -0.018,-0.132 -0.041,-0.2 -0.023,-0.067 -0.056,-0.135 -0.098,-0.202 -0.125,-0.2 -0.284,-0.317 -0.478,-0.352 -0.194,-0.034 -0.403,0.019 -0.626,0.159 -0.222,0.139 -0.355,0.301 -0.399,0.485 -0.046,0.185 -0.001,0.386 0.134,0.601 z m -1.035,1.541 c 0.109,-0.083 0.194,-0.126 0.254,-0.13 0.059,-0.004 0.117,0.028 0.172,0.097 l 0.097,0.12 c 0.058,0.071 0.079,0.135 0.066,0.192 -0.014,0.056 -0.07,0.124 -0.169,0.204 l -0.018,0.015 z m -1.504,-0.886 1.722,2.131 0.689,-0.559 c 0.177,-0.144 0.281,-0.291 0.309,-0.439 0.028,-0.148 -0.019,-0.298 -0.141,-0.45 l -0.017,-0.021 -0.099,-0.122 c -0.089,-0.11 -0.18,-0.181 -0.273,-0.212 -0.092,-0.03 -0.2,-0.025 -0.321,0.014 0.07,-0.103 0.099,-0.203 0.09,-0.299 -0.009,-0.097 -0.061,-0.202 -0.154,-0.317 l -0.398,-0.493 c -0.046,-0.057 -0.08,-0.105 -0.1,-0.146 -0.02,-0.04 -0.033,-0.078 -0.038,-0.117 l -0.486,0.395 c 0.007,0.032 0.021,0.069 0.046,0.108 0.023,0.041 0.063,0.095 0.118,0.163 l 0.332,0.411 c 0.094,0.116 0.136,0.206 0.127,0.269 -0.008,0.064 -0.067,0.142 -0.175,0.233 l -0.755,-0.935 z m -1.651,1.658 1.984,1.887 0.954,-1.007 -0.384,-0.364 -0.527,0.556 -0.395,-0.375 0.466,-0.491 -0.379,-0.36 -0.465,0.491 -0.444,-0.422 0.543,-0.574 -0.383,-0.365 z m -1.297,1.773 2.025,1.894 0.365,-0.541 -0.872,-0.717 c -0.043,-0.035 -0.132,-0.105 -0.266,-0.209 -0.135,-0.104 -0.291,-0.224 -0.468,-0.359 0.2,0.113 0.439,0.244 0.716,0.392 0.048,0.026 0.082,0.044 0.103,0.056 l 0.994,0.53 0.357,-0.53 -2.516,-1.165 z m -1.004,1.743 2.459,1.202 0.272,-0.557 -2.46,-1.202 z m -0.99,2.488 2.586,0.895 0.227,-0.657 -0.944,-0.666 c -0.104,-0.075 -0.212,-0.15 -0.324,-0.223 -0.112,-0.074 -0.232,-0.15 -0.359,-0.228 0.123,0.062 0.248,0.12 0.375,0.173 0.127,0.053 0.276,0.109 0.446,0.168 l 0.959,0.332 0.196,-0.569 -2.586,-0.895 -0.219,0.633 0.996,0.722 c 0.104,0.076 0.214,0.15 0.327,0.223 0.114,0.073 0.235,0.146 0.363,0.219 -0.188,-0.084 -0.366,-0.16 -0.534,-0.229 -0.168,-0.068 -0.326,-0.127 -0.473,-0.178 l -0.839,-0.291 z m 2.25,2.322 -2.019,-0.227 c -0.09,-0.01 -0.153,-0.032 -0.188,-0.065 -0.036,-0.033 -0.051,-0.082 -0.044,-0.146 0.007,-0.065 0.033,-0.111 0.077,-0.136 0.043,-0.026 0.109,-0.033 0.196,-0.024 l 2.02,0.228 0.069,-0.617 -1.919,-0.216 c -0.279,-0.031 -0.497,0.012 -0.653,0.13 -0.156,0.119 -0.249,0.311 -0.279,0.58 -0.029,0.265 0.019,0.471 0.146,0.622 0.126,0.15 0.328,0.24 0.607,0.271 l 1.918,0.216"
       style="fill:#2b3665;fill-opacity:1;fill-rule:evenodd;stroke:none"
       transform="matrix(0.35277776,0,0,-0.35277776,180.24245,184.35118)"
       clip-path="url(#clipPath3492)" />
    <path
       id="path3493"
       d="m 0,0 c 10.775,0 19.563,-8.788 19.563,-19.563 0,-10.774 -8.788,-19.562 -19.563,-19.562 -10.775,0 -19.563,8.788 -19.563,19.562 C -19.563,-8.788 -10.775,0 0,0 m 0,-1.686 c 9.846,0 17.876,-8.031 17.876,-17.877 0,-9.845 -8.03,-17.876 -17.876,-17.876 -9.846,0 -17.876,8.031 -17.876,17.876 0,9.846 8.03,17.877 17.876,17.877 m 0,-0.397 c 9.628,0 17.48,-7.852 17.48,-17.48 0,-9.627 -7.852,-17.479 -17.48,-17.479 -9.627,0 -17.48,7.852 -17.48,17.479 0,9.628 7.853,17.48 17.48,17.48 m 0,-5.356 c 6.677,0 12.123,-5.446 12.123,-12.124 0,-6.677 -5.446,-12.123 -12.123,-12.123 -6.677,0 -12.123,5.446 -12.123,12.123 0,6.678 5.446,12.124 12.123,12.124 m 0,-0.343 c 6.489,0 11.781,-5.292 11.781,-11.781 0,-6.488 -5.292,-11.78 -11.781,-11.78 -6.488,0 -11.781,5.292 -11.781,11.78 0,6.489 5.293,11.781 11.781,11.781 m 0,6.889 c 10.283,0 18.67,-8.387 18.67,-18.67 0,-10.283 -8.387,-18.669 -18.67,-18.669 -10.283,0 -18.67,8.386 -18.67,18.669 0,10.283 8.387,18.67 18.67,18.67"
       style="fill:#2b3665;fill-opacity:1;fill-rule:evenodd;stroke:none"
       transform="matrix(0.35277776,0,0,-0.35277776,175.59111,173.97598)"
       clip-path="url(#clipPath3494)" />
    <path
       id="path3495"
       d="M 0,0 V 0.565 H 0.304 V 0 H 0.91 v 0.565 h 0.32 v -0.859 h -2.397 v 0.472 h 0.226 v 0.387 h 0.335 V 0 Z m -2.69,-1.38 c 0.11,-0.007 0.216,-0.029 0.316,-0.064 l 0.124,0.343 c -0.13,0.044 -0.268,0.072 -0.411,0.082 H -2.69 Z m 0.455,-0.122 c 0.091,-0.045 0.175,-0.102 0.252,-0.167 l 0.265,0.265 c -0.117,0.1 -0.249,0.184 -0.391,0.248 z m 0.36,-0.272 c 0.046,-0.05 0.088,-0.105 0.125,-0.163 l 0.388,0.104 c -0.068,0.119 -0.151,0.229 -0.246,0.326 z m 0.2,-0.299 c 0.037,-0.077 0.066,-0.16 0.085,-0.245 h 0.371 v 0.108 c 0,0.077 -0.048,0.187 -0.072,0.24 z m -0.029,-0.509 c 0,0.657 -0.545,1.067 -1.066,1.067 -0.52,0 -1.066,-0.414 -1.066,-1.067 V -4.07 h 2.132 z m -2.245,0.264 c 0.019,0.084 0.047,0.165 0.083,0.242 L -4.25,-1.974 C -4.274,-2.026 -4.321,-2.132 -4.321,-2.21 v -0.108 z m 0.158,0.378 c 0.035,0.056 0.075,0.109 0.119,0.158 l -0.267,0.267 C -4.032,-1.611 -4.113,-1.719 -4.18,-1.836 Z m 0.227,0.264 c 0.074,0.065 0.157,0.122 0.246,0.168 l -0.125,0.346 c -0.141,-0.065 -0.271,-0.149 -0.386,-0.249 z m 0.385,0.228 c 0.107,0.038 0.22,0.062 0.338,0.069 v 0.36 h -0.037 c -0.148,-0.01 -0.291,-0.04 -0.425,-0.087 z m 1.118,0.429 c 0.265,-0.117 0.496,-0.297 0.675,-0.521 v 0.521 z m 0.817,-0.728 c 0.058,-0.098 0.107,-0.202 0.145,-0.311 h 0.339 v 0.311 z M -4.44,-2.058 c 0.038,0.109 0.087,0.213 0.145,0.311 h -0.482 v -0.311 z m 0.277,0.506 c 0.18,0.23 0.415,0.414 0.685,0.533 h -0.685 z m 2.944,-0.917 h -0.334 v -0.287 h 0.334 z m 0,-0.438 h -0.334 v -0.287 h 0.334 z m 0,-0.438 h -0.334 v -0.287 h 0.334 z m 0,-0.438 H -1.553 V -4.07 h 0.334 z m -2.768,1.314 h -0.334 v -0.167 h 10e-4 v -0.12 h 0.333 z m 0,-0.438 h -0.334 v -0.287 h 0.334 z m 0,-0.438 H -4.32 v -0.123 h -10e-4 v -0.164 h 0.334 z m 0,-0.438 H -4.321 V -4.07 h 0.334 z m -0.9,0.467 h 0.415 v 0.53 h -0.415 z m -0.151,0.529 h -0.556 v -0.53 h 0.556 z M -5.17,-4.07 h 0.698 v 0.602 H -5.17 Z m -0.151,0.602 H -5.594 V -4.07 h 0.273 z m 0.151,0.832 h 0.698 V -2.21 H -5.17 Z m -0.151,0.426 h -0.273 v -0.426 h 0.273 z m 0.393,0.463 h -0.666 v -0.312 h 0.666 z m 0.614,0.728 H -5.17 v -0.576 h 0.856 z m -1.007,0 h -0.791 v -0.576 h 0.791 z m -0.942,0 h -0.465 v -0.576 h 0.465 z m 7.493,0 H 0.715 V -1.595 H 1.23 Z m -0.666,0 h -0.791 v -0.576 h 0.791 z m -0.943,0 h -0.856 v -0.576 h 0.856 z m -6.349,0.151 h 0.32 v 0.423 h -0.32 z m 0.471,0 h 0.577 v 0.423 h -0.577 z m 0.728,0 h 0.486 v 0.423 h -0.486 z m 0.637,0 h 1.032 v 0.423 h -1.032 z m 1.183,0 h 0.868 v 0.423 h -0.868 z m 1.019,0 h 0.868 v 0.423 H -2.69 Z m 1.019,0 h 1.027 v 0.423 h -1.027 z m 1.178,0 h 0.486 v 0.423 h -0.486 z m 0.637,0 h 0.577 v 0.423 H 0.144 Z m 0.728,0 h 0.359 v 0.423 H 0.872 Z M 0.22,-1.747 v -2.474 h -5.965 v 2.474 H -6.88 v 2.463 h 0.623 V 0.151 h 0.304 v 0.565 h 0.606 V 0.151 h 0.304 v 0.565 h 0.151 v 0 h 0.302 v 1.273 h 0.651 V 1.404 h 0.348 V 1.989 H -2.94 V 1.404 h 0.348 v 0.585 h 0.651 V 1.404 h 0.349 v 0.585 h 0.651 V 0.716 h 0.335 v 0 h 0.151 V 0.151 h 0.304 V 0.716 H 0.455 V 0.151 H 0.759 V 0.716 H 1.381 V -1.746 H 0.22 Z m -0.151,0 H -0.608 V -2.059 H 0.069 Z M -4.59,0.565 H -4.892 V 0 H -5.043 V 0 H -5.347 V 0 H -5.498 V 0.565 H -5.802 V 0 h -0.606 v 0.565 h -0.32 v -0.859 h 2.364 V 0.178 H -4.59 Z m 0.377,-0.387 h 0.864 v -0.472 h -0.864 z m 1.015,0 h 0.864 v -0.472 h -0.864 z m 1.016,0 h 0.864 v -0.472 h -0.864 z m 1.114,-4.248 h 0.702 v 0.602 h -0.702 z m 0.853,0 h 0.284 v 0.602 H -0.215 Z M -1.093,1.838 V 1.067 h -3.346 v 0.771 h 0.348 V 1.253 h 0.651 v 0.585 h 0.349 V 1.253 h 0.651 v 0.585 h 0.348 V 1.253 h 0.651 V 1.838 Z M -4.439,0.916 h 0.668 V 0.33 h -0.668 z m 0.819,0 h 0.807 V 0.33 H -3.62 Z m 0.958,0 h 0.806 V 0.33 h -0.806 z m 0.958,0 h 0.612 V 0.33 h -0.612 z m 1.773,-3.703 h -0.567 v -0.53 h 0.567 z m 0,0.577 h -0.284 v -0.426 h 0.284 z m -0.718,-1.106 h -0.419 v 0.53 h 0.419 z m 0.283,1.106 v -0.426 h -0.702 v 0.426"
       style="fill:#2b3665;fill-opacity:1;fill-rule:evenodd;stroke:none"
       transform="matrix(0.35277776,0,0,-0.35277776,176.56034,179.33969)"
       clip-path="url(#clipPath3496)" />
    <path
       id="path3497"
       d="m 510.533,155.107 h 4.215 v 0.233 h -4.215 z m 7.843,0 h 4.235 v 0.233 h -4.235 z m -7.676,-2.493 h 1.798 v 0.233 H 510.7 Z m 9.977,0 h 1.767 v 0.233 h -1.767 z m -9.852,-1.944 h 2.769 v 0.233 h -2.769 z m 4.656,0 h 2.151 v 0.233 h -2.151 z m 4.056,0 h 2.779 v 0.233 h -2.779 z m -4.375,-1.059 -1.077,-1.074 h -2.773 v -0.233 h 10.52 v 0.233 h -2.9 l -1.074,1.074 h -0.329 l 1.074,-1.074 h -4.189 l 1.074,1.074 z"
       style="fill:#2b3665;fill-opacity:1;fill-rule:evenodd;stroke:none"
       transform="matrix(0.35277776,0,0,-0.35277776,-6.6468634,233.59425)"
       clip-path="url(#clipPath3498)" />
    <path
       id="path3499"
       d="M 0,0 0.336,-0.695 1.1,-0.799 0.543,-1.333 0.68,-2.093 0,-1.728 l -0.68,-0.365 0.137,0.76 -0.558,0.534 0.765,0.104 z m -4.206,-9.631 0.336,-0.695 0.765,-0.105 -0.557,-0.534 0.136,-0.759 -0.68,0.365 -0.68,-0.365 0.137,0.759 -0.557,0.534 0.765,0.105 z m 0,-0.482 0.193,-0.4 0.44,-0.06 -0.321,-0.307 0.079,-0.437 -0.391,0.21 -0.39,-0.21 0.078,0.437 -0.32,0.307 0.439,0.06 z M -8.358,0 l 0.336,-0.695 0.765,-0.104 -0.558,-0.534 0.137,-0.76 -0.68,0.365 -0.68,-0.365 0.137,0.76 -0.557,0.534 0.765,0.104 z m 0,-0.482 0.193,-0.399 0.44,-0.06 -0.321,-0.307 0.079,-0.437 -0.391,0.21 -0.391,-0.21 0.079,0.437 -0.32,0.307 0.439,0.06 z m 8.358,0 0.193,-0.399 0.439,-0.06 -0.32,-0.307 0.079,-0.437 -0.391,0.21 -0.391,-0.21 0.079,0.437 -0.321,0.307 0.44,0.06"
       style="fill:#2b3665;fill-opacity:1;fill-rule:evenodd;stroke:none"
       transform="matrix(0.35277776,0,0,-0.35277776,177.0629,177.91482)"
       clip-path="url(#clipPath3500)" />
    <path
       id="path3501"
       d="m 0,0 c -0.034,-0.003 -0.047,-0.021 -0.038,-0.054 0.003,-0.034 -0.001,-0.06 -0.01,-0.078 -0.005,-0.007 -0.016,-0.022 -0.031,-0.046 -0.052,-0.056 -0.088,-0.096 -0.109,-0.12 -0.026,-0.031 -0.036,-0.046 -0.03,-0.045 0.006,-0.006 0.03,0.005 0.074,0.031 0.016,0.013 0.062,0.04 0.138,0.08 0.05,0.028 0.082,0.048 0.098,0.06 0.011,0.007 0.033,0.017 0.066,0.032 0.044,0.02 0.059,0.039 0.046,0.055 C 0.137,-0.028 0.069,0 0,0 M 2.7,0.136 C 2.694,0.136 2.686,0.133 2.674,0.126 2.517,0.064 2.242,0.014 1.852,-0.024 1.745,-0.036 1.737,-0.054 1.828,-0.079 1.924,-0.092 2.019,-0.09 2.113,-0.073 2.145,-0.119 2.137,-0.188 2.088,-0.28 1.995,-0.439 1.894,-0.54 1.783,-0.581 1.765,-0.588 1.754,-0.595 1.748,-0.601 1.732,-0.632 1.728,-0.674 1.737,-0.727 1.744,-0.762 1.76,-0.779 1.784,-0.778 c 0,0 0.026,0.008 0.079,0.022 0.076,0.022 0.349,0.099 0.818,0.231 0.007,-0.006 0.012,-0.011 0.019,-0.017 0.076,-0.079 0.128,-0.113 0.157,-0.099 0.062,0.062 0.055,0.143 -0.022,0.24 C 2.785,-0.35 2.699,-0.307 2.579,-0.272 2.464,-0.242 2.428,-0.25 2.473,-0.295 2.517,-0.341 2.571,-0.4 2.634,-0.474 2.333,-0.531 2.097,-0.574 1.926,-0.6 c 0.085,0.075 0.199,0.191 0.339,0.347 0.011,0.013 0.026,0.025 0.043,0.038 0.086,0.052 0.072,0.105 -0.044,0.159 0.254,0.037 0.434,0.067 0.54,0.09 C 2.862,0.05 2.879,0.074 2.853,0.109 2.828,0.131 2.777,0.14 2.7,0.136 M 5.286,0.164 C 5.257,0.16 5.253,0.142 5.275,0.111 5.303,0.079 5.299,0.011 5.264,-0.094 5.167,-0.47 5.043,-0.734 4.893,-0.887 4.842,-0.944 4.85,-0.953 4.918,-0.915 c 0.179,0.128 0.321,0.343 0.426,0.647 0.039,-0.055 0.104,-0.172 0.196,-0.349 0.044,-0.074 0.074,-0.126 0.091,-0.157 0.018,-0.09 0.118,-0.125 0.297,-0.104 0.018,-0.001 0.033,-0.002 0.045,-0.003 0.059,0.003 0.098,0.01 0.117,0.021 0.018,0.011 0.01,0.023 -0.025,0.037 -0.283,0.169 -0.468,0.328 -0.555,0.475 -0.062,0.075 -0.107,0.125 -0.135,0.15 0.022,0.082 0.049,0.152 0.082,0.21 C 5.464,0.029 5.468,0.044 5.468,0.056 5.447,0.093 5.386,0.129 5.286,0.164 m 2.292,-1.146 c 0.053,-0.012 0.142,-0.017 0.268,-0.013 0.083,-0.004 0.137,-0.008 0.16,-0.01 0.071,-0.009 0.109,0.005 0.113,0.04 -10e-4,0.049 -0.033,0.079 -0.097,0.093 -0.041,0.005 -0.117,0.001 -0.226,-0.01 -0.091,-0.013 -0.161,-0.02 -0.209,-0.021 0.024,0.201 0.05,0.347 0.078,0.44 0.01,0.035 0.02,0.067 0.029,0.095 0.009,0.023 0.014,0.041 0.015,0.052 C 7.687,-0.253 7.602,-0.207 7.456,-0.178 7.419,-0.186 7.416,-0.219 7.445,-0.276 7.463,-0.32 7.474,-0.357 7.477,-0.387 7.491,-0.575 7.447,-1.003 7.346,-1.674 l -0.34,0.013 c 10e-4,0.054 0.003,0.125 0.007,0.215 0.009,0.232 0.02,0.374 0.031,0.427 0.003,0.023 0.01,0.053 0.02,0.087 0.009,0.023 0.01,0.041 0.006,0.053 C 7.028,-0.826 6.955,-0.785 6.851,-0.755 6.809,-0.75 6.806,-0.779 6.841,-0.843 6.865,-0.888 6.879,-0.923 6.882,-0.947 6.898,-1.068 6.895,-1.304 6.872,-1.655 6.734,-1.662 6.597,-1.658 6.461,-1.643 6.389,-1.64 6.361,-1.649 6.377,-1.669 6.41,-1.691 6.47,-1.713 6.558,-1.735 c 0.282,0.01 0.578,0.005 0.887,-0.013 0.142,-0.01 0.284,-0.027 0.425,-0.049 0.135,-0.016 0.265,-0.037 0.387,-0.063 0.1,-0.017 0.142,0.005 0.125,0.067 -0.04,0.07 -0.106,0.114 -0.2,0.13 C 8.152,-1.659 8.065,-1.661 7.921,-1.668 7.729,-1.67 7.582,-1.671 7.48,-1.671 Z M 4.522,0.052 C 4.617,-0.078 4.699,-0.151 4.77,-0.166 4.86,-0.141 4.872,-0.085 4.805,0.002 4.602,0.101 4.508,0.118 4.522,0.052 M 4.85,-0.331 C 4.838,-0.33 4.796,-0.337 4.724,-0.351 4.459,-0.409 4.214,-0.435 3.988,-0.429 3.946,-0.433 3.942,-0.447 3.977,-0.473 4.022,-0.517 4.071,-0.546 4.124,-0.561 4.142,-0.562 4.247,-0.538 4.44,-0.488 4.457,-0.733 4.285,-1.01 3.923,-1.318 3.874,-1.351 3.873,-1.363 3.922,-1.354 c 0.042,0.01 0.091,0.034 0.146,0.073 0.21,0.138 0.356,0.309 0.437,0.513 C 4.512,-0.769 4.523,-0.772 4.541,-0.779 4.616,-0.813 4.657,-0.836 4.662,-0.848 4.672,-0.89 4.652,-0.975 4.604,-1.104 4.556,-1.226 4.517,-1.295 4.486,-1.312 4.48,-1.311 4.454,-1.304 4.407,-1.29 4.32,-1.255 4.287,-1.251 4.31,-1.276 4.36,-1.338 4.392,-1.402 4.407,-1.468 4.406,-1.48 4.408,-1.486 4.415,-1.486 c 0.046,-0.021 0.1,-0.003 0.163,0.053 0.051,0.057 0.094,0.141 0.129,0.252 0.043,0.141 0.085,0.243 0.124,0.306 0.006,0.018 0.01,0.029 0.01,0.036 -0.021,0.048 -0.058,0.086 -0.11,0.112 -0.012,0.001 -0.026,0.005 -0.044,0.012 -0.047,0.002 -0.092,0.007 -0.133,0.016 0.007,0.017 0.02,0.037 0.039,0.06 0.019,0.029 0.026,0.049 0.021,0.062 0.007,0.011 -0.034,0.043 -0.12,0.095 0.162,0.027 0.3,0.041 0.413,0.041 0.059,-0.003 0.084,0.013 0.074,0.05 -0.022,0.036 -0.066,0.056 -0.131,0.06 m 0.327,-0.58 c 0.005,-0.006 0.014,-0.018 0.025,-0.037 0.1,-0.124 0.165,-0.184 0.195,-0.179 0.086,0.037 0.101,0.096 0.045,0.176 -0.192,0.081 -0.28,0.095 -0.265,0.04 M 5.103,-1.291 C 5.231,-1.47 5.338,-1.58 5.425,-1.62 c 0.091,0.037 0.101,0.108 0.029,0.213 -0.051,0.038 -0.138,0.082 -0.261,0.13 -0.082,0.022 -0.112,0.017 -0.09,-0.014 m -2.652,0.227 c 0.088,0.01 0.183,0.027 0.283,0.05 0.088,0.011 0.132,0.031 0.13,0.061 C 2.856,-0.918 2.811,-0.902 2.728,-0.907 2.71,-0.908 2.684,-0.912 2.648,-0.92 2.613,-0.922 2.548,-0.934 2.454,-0.957 2.451,-0.909 2.458,-0.861 2.473,-0.813 2.478,-0.795 2.477,-0.78 2.471,-0.769 2.367,-0.714 2.288,-0.689 2.235,-0.692 2.211,-0.693 2.212,-0.716 2.238,-0.763 2.278,-0.838 2.3,-0.914 2.304,-0.992 2.251,-1 2.18,-1.013 2.092,-1.029 1.991,-1.046 1.938,-1.055 1.932,-1.055 1.844,-1.078 1.86,-1.098 1.98,-1.116 2.076,-1.122 2.185,-1.113 2.309,-1.089 L 2.334,-1.392 C 2.092,-1.428 1.861,-1.458 1.642,-1.481 1.607,-1.489 1.581,-1.493 1.563,-1.494 1.48,-1.505 1.448,-1.518 1.467,-1.535 c 0.03,-0.01 0.093,-0.022 0.189,-0.035 0.006,0 0.027,0.005 0.062,0.012 0.494,0.103 1.004,0.145 1.529,0.125 0.101,-10e-4 0.135,0.028 0.102,0.086 C 3.304,-1.29 3.225,-1.259 3.112,-1.252 3.094,-1.253 3.062,-1.258 3.015,-1.267 2.861,-1.298 2.679,-1.332 2.467,-1.366 Z m -3.104,0.897 c -0.028,0.003 -0.036,-0.012 -0.021,-0.045 0.02,-0.038 0.055,-0.077 0.104,-0.119 0.031,-0.032 0.06,-0.04 0.088,-0.027 0.027,0.014 0.039,0.041 0.036,0.08 -0.024,0.072 -0.092,0.109 -0.207,0.111 m 0.466,-0.542 c 0.147,0.018 0.244,0.038 0.294,0.06 0.048,0.038 0.015,0.055 -0.098,0.051 -0.017,-0.001 -0.051,-0.007 -0.101,-0.017 -0.039,-0.015 -0.07,-0.023 -0.093,-0.025 0,0.011 0.004,0.029 0.013,0.052 0.004,0.018 0.006,0.032 0.005,0.044 -0.001,0.016 -0.017,0.035 -0.047,0.055 0.201,0.04 0.333,0.069 0.394,0.086 0.033,0.014 0.04,0.034 0.021,0.061 -0.025,0.015 -0.062,0.02 -0.113,0.016 -0.005,0 -0.025,-0.005 -0.059,-0.013 -0.211,-0.064 -0.452,-0.113 -0.722,-0.148 -0.051,-0.01 -0.056,-0.025 -0.014,-0.044 0.035,-0.014 0.087,-0.018 0.155,-0.012 0.046,0.004 0.093,0.011 0.144,0.021 0.03,-0.026 0.055,-0.075 0.072,-0.148 -0.078,-0.018 -0.162,-0.034 -0.252,-0.048 -0.033,-0.019 -0.014,-0.035 0.055,-0.046 0.051,-0.001 0.122,0.008 0.212,0.027 l 0.012,-0.145 c -0.191,-0.033 -0.332,-0.054 -0.422,-0.062 -0.045,-0.015 -0.043,-0.032 0.004,-0.05 0.035,-0.009 0.094,-0.009 0.18,-0.002 0.067,0.006 0.127,0.014 0.177,0.023 0.028,0.009 0.051,0.014 0.068,0.015 l 0.018,-0.315 c -0.017,-0.002 -0.042,-0.006 -0.076,-0.015 -0.428,-0.06 -0.685,-0.09 -0.77,-0.092 -0.04,-0.003 -0.047,-0.015 -0.023,-0.036 0.043,-0.036 0.091,-0.061 0.143,-0.073 0.006,0 0.028,0.005 0.068,0.014 0.154,0.065 0.521,0.133 1.102,0.206 0.147,0.013 0.327,0.016 0.538,0.012 0.017,10e-4 0.026,0.002 0.026,0.002 0.061,0.011 0.064,0.042 0.009,0.095 C 0.678,-1.119 0.613,-1.102 0.54,-1.108 0.512,-1.111 0.436,-1.126 0.313,-1.154 0.212,-1.179 0.145,-1.193 0.111,-1.196 0.19,-1.121 0.245,-1.065 0.277,-1.028 0.297,-1.004 0.29,-0.984 0.254,-0.97 0.201,-0.946 0.149,-0.939 0.099,-0.949 0.076,-0.952 0.072,-0.966 0.085,-0.993 0.099,-1.026 0.104,-1.052 0.101,-1.069 0.077,-1.128 0.05,-1.179 0.019,-1.221 l -0.185,-0.033 -0.009,0.307 c 0.045,0.009 0.112,0.021 0.202,0.034 0.129,0.023 0.214,0.038 0.253,0.048 0.044,0.015 0.054,0.033 0.029,0.053 -0.03,0.015 -0.078,0.02 -0.146,0.014 C 0.151,-0.799 0.115,-0.805 0.053,-0.817 -0.031,-0.829 -0.11,-0.842 -0.183,-0.854 Z m -0.282,-0.409 c -0.031,0.032 -0.086,0.05 -0.167,0.054 -0.028,-0.002 -0.026,-0.03 0.008,-0.085 0.045,-0.07 0.083,-0.107 0.112,-0.11 0.06,0.029 0.076,0.075 0.047,0.141 M 0.13,-1.409 C 0.113,-1.41 0.051,-1.424 -0.055,-1.45 c -0.173,-0.044 -0.321,-0.079 -0.444,-0.106 -0.043,0.03 -0.084,0.041 -0.123,0.032 -0.028,-0.009 -0.026,-0.028 0.005,-0.06 0.02,-0.026 0.042,-0.085 0.066,-0.174 0.017,-0.061 0.033,-0.114 0.048,-0.158 0.022,-0.049 0.046,-0.076 0.076,-0.079 0.022,0.008 0.028,0.036 0.018,0.087 0.017,10e-4 0.084,0.01 0.202,0.026 0.254,0.039 0.42,0.061 0.499,0.068 0.023,0.008 0.025,0.019 0.006,0.035 -0.019,0.021 -0.046,0.036 -0.081,0.045 0.038,0.088 0.087,0.149 0.147,0.183 0.027,0.019 0.013,0.047 -0.041,0.082 -0.072,0.04 -0.136,0.06 -0.193,0.06 m -0.608,-0.197 c 0.011,0.001 0.048,0.007 0.11,0.018 0.162,0.037 0.314,0.061 0.455,0.073 C 0.11,-1.513 0.121,-1.541 0.12,-1.598 0.114,-1.666 0.099,-1.719 0.074,-1.756 l -0.496,-0.102"
       style="fill:#2b3665;fill-opacity:1;fill-rule:evenodd;stroke:none"
       transform="matrix(0.35277776,0,0,-0.35277776,174.3179,182.98656)"
       clip-path="url(#clipPath3502)" />
    <path
       id="path3503"
       d="M 0,0 C 0.258,0.283 0.336,0.53 0.338,0.758 0.34,1.028 0.2,1.174 0.067,1.332 -0.074,1.5 -0.213,1.679 -0.294,1.886 -0.356,2.044 -0.33,2.3 -0.25,2.558 -0.091,3.071 0.414,3.417 0.893,3.417 h 1.19 l 0.006,0.62 C 2.098,4.409 1.899,4.732 1.756,5.074 1.652,5.324 1.591,5.591 1.596,5.869 l 0.025,1.484 h 0.01 c 0.136,-0.217 0.27,-0.432 0.406,-0.645 0.17,0.278 0.6,0.476 1.101,0.476 0.65,0 1.179,-0.332 1.179,-0.74 0,-0.224 -0.16,-0.425 -0.412,-0.561 V 4.335 4.333 C 4.009,4.207 4.106,4.076 4.19,3.94 4.37,3.649 4.465,3.308 4.401,2.959 4.238,2.077 2.75,1.209 2.733,0.293 2.729,0.109 2.74,-0.316 2.722,-0.639 2.713,-0.786 2.715,-0.911 2.678,-0.984 2.608,-1.122 2.471,-1.149 2.331,-1.12 2.036,-1.059 1.644,-0.643 1.373,-0.714 1.136,-0.777 1.064,-1.009 1.024,-1.239 0.965,-1.586 0.869,-1.929 0.71,-2.254 0.559,-2.564 0.385,-2.799 0.242,-2.962 0.14,-3.079 0.049,-3.14 -0.06,-3.174 c -0.108,-0.034 -0.233,-0.041 -0.394,0.005 -3.194,0.912 -6.906,0.912 -10.098,0 -0.161,-0.046 -0.287,-0.039 -0.395,-0.005 -0.108,0.034 -0.199,0.095 -0.301,0.212 -0.144,0.163 -0.318,0.398 -0.469,0.708 -0.158,0.325 -0.254,0.668 -0.314,1.015 -0.039,0.23 -0.111,0.462 -0.348,0.525 -0.271,0.071 -0.664,-0.345 -0.958,-0.406 -0.14,-0.029 -0.277,-0.002 -0.347,0.136 -0.037,0.073 -0.036,0.198 -0.044,0.345 -0.019,0.323 -0.008,0.748 -0.011,0.932 -0.017,0.916 -1.506,1.784 -1.669,2.666 -0.064,0.349 0.032,0.69 0.212,0.981 0.084,0.136 0.181,0.267 0.285,0.393 v 0.002 1.548 c -0.252,0.136 -0.413,0.337 -0.413,0.561 0,0.408 0.53,0.74 1.179,0.74 0.502,0 0.932,-0.198 1.102,-0.476 0.135,0.213 0.27,0.428 0.405,0.645 h 0.011 l 0.024,-1.484 c 0.005,-0.278 -0.056,-0.545 -0.159,-0.795 -0.143,-0.342 -0.343,-0.665 -0.334,-1.037 l 0.006,-0.62 h 1.191 c 0.478,0 0.983,-0.346 1.142,-0.859 0.08,-0.258 0.106,-0.514 0.045,-0.672 -0.081,-0.207 -0.22,-0.386 -0.362,-0.554 -0.133,-0.158 -0.272,-0.304 -0.27,-0.574 10e-4,-0.228 0.083,-0.481 0.341,-0.764 C -7.059,0.848 -3.987,0.852 0,0 Z m -0.484,-2.91 c 0.11,-0.036 0.227,-0.042 0.277,0.134 0.228,0.635 -0.043,1.431 -0.019,2.066 0.007,0.17 0.034,0.329 0.098,0.469 -3.685,0.834 -7.053,0.833 -10.75,0 0.063,-0.14 0.091,-0.299 0.097,-0.469 0.024,-0.635 -0.246,-1.431 -0.018,-2.066 0.049,-0.176 0.167,-0.17 0.277,-0.134 3.196,0.874 6.842,0.873 10.038,0 m -10.512,0.029 c -0.152,0.303 -0.145,0.734 -0.106,1.165 0.039,0.445 0.112,0.89 0.053,1.197 -0.042,0.214 -0.144,0.293 -0.26,0.459 -0.282,0.403 -0.447,0.937 -0.125,1.347 0.209,0.268 0.502,0.499 0.504,0.771 0.002,0.308 -0.08,0.943 -0.777,1.088 l -1.482,0.007 c -0.061,-0.267 -0.123,-0.935 0.017,-1.174 0.224,-0.383 0.509,-0.859 0.54,-1.427 l 0.028,-1.064 c 0.014,0.005 0.029,0.01 0.043,0.014 0,0 0.418,0.159 0.628,-0.275 0.14,-0.289 0.145,-0.664 0.248,-0.98 0.09,-0.277 0.237,-0.577 0.414,-0.809 0.057,-0.075 0.214,-0.293 0.275,-0.319 m -2.347,6.087 c 0.002,0.114 0.009,0.697 0.023,1 0.014,0.301 0.2,0.584 0.327,0.878 0.092,0.215 0.133,0.437 0.155,0.675 0.027,0.284 0.018,0.59 0.018,0.922 0,0 -0.44,-0.732 -1.076,-1.536 -0.327,-0.413 -0.83,-0.851 -1.097,-1.281 -0.157,-0.253 -0.337,-0.721 -0.119,-1.121 0.064,-0.115 0.14,-0.227 0.225,-0.336 l -0.005,0.011 c 0,0 0.935,-0.009 1.549,0.788 M -14.7,2.183 c 0.493,-0.563 1.124,-1.107 1.187,-1.895 0.002,-0.136 -0.036,-1.054 0.045,-1.137 0.037,-0.038 0.109,-0.078 0.224,-0.017 0,0 0.206,0.149 0.432,0.264 -0.006,0.189 -0.02,0.623 -0.042,1.094 -0.018,0.372 -0.162,0.821 -0.392,1.156 -0.208,0.303 -0.267,0.717 -0.23,1.069 0,0 -0.608,-0.429 -1.224,-0.534 m 0.035,2.432 c 0.245,0.269 0.505,0.528 0.721,0.803 0.105,0.132 0.206,0.267 0.304,0.402 h -1.025 z m 1.204,1.461 c 0.091,0.133 0.181,0.266 0.269,0.402 -0.032,0.279 -0.466,0.502 -0.953,0.502 -0.506,0 -0.955,-0.241 -0.955,-0.536 0,-0.14 0.101,-0.267 0.261,-0.363 0.058,-0.024 0.116,-0.038 0.174,-0.043 h 1.118 c 0.035,0 0.055,0.02 0.086,0.038 M -0.01,-2.881 c 0.152,0.303 0.145,0.734 0.106,1.165 -0.04,0.445 -0.113,0.89 -0.053,1.197 0.041,0.214 0.143,0.293 0.26,0.459 0.281,0.403 0.446,0.937 0.125,1.347 -0.21,0.268 -0.502,0.499 -0.504,0.771 -0.002,0.308 0.08,0.943 0.777,1.088 L 2.183,3.153 C 2.243,2.886 2.305,2.218 2.165,1.979 1.941,1.596 1.656,1.12 1.625,0.552 L 1.598,-0.512 c -0.014,0.005 -0.029,0.01 -0.043,0.014 0,0 -0.419,0.159 -0.629,-0.275 C 0.786,-1.062 0.781,-1.437 0.678,-1.753 0.589,-2.03 0.442,-2.33 0.265,-2.562 0.207,-2.637 0.051,-2.855 -0.01,-2.881 M 2.336,3.206 C 2.335,3.32 2.328,3.903 2.314,4.206 2.3,4.507 2.114,4.79 1.987,5.084 1.894,5.299 1.853,5.521 1.831,5.759 1.805,6.043 1.813,6.349 1.813,6.681 c 0,0 0.44,-0.732 1.077,-1.536 C 3.217,4.732 3.72,4.294 3.986,3.864 4.143,3.611 4.324,3.143 4.105,2.743 4.042,2.628 3.965,2.516 3.88,2.407 l 0.006,0.011 c 0,0 -0.935,-0.009 -1.55,0.788 M 3.694,2.183 C 3.201,1.62 2.57,1.076 2.506,0.288 2.505,0.152 2.543,-0.766 2.461,-0.849 2.424,-0.887 2.352,-0.927 2.238,-0.866 c 0,0 -0.207,0.149 -0.432,0.264 0.005,0.189 0.019,0.623 0.041,1.094 0.018,0.372 0.163,0.821 0.393,1.156 0.207,0.303 0.267,0.717 0.229,1.069 0,0 0.609,-0.429 1.225,-0.534 M 3.658,4.615 C 3.414,4.884 3.154,5.143 2.937,5.418 2.833,5.55 2.732,5.685 2.634,5.82 H 3.658 Z M 2.454,6.076 C 2.363,6.209 2.274,6.342 2.186,6.478 2.218,6.757 2.651,6.98 3.138,6.98 3.645,6.98 4.093,6.739 4.093,6.444 4.093,6.304 3.993,6.177 3.833,6.081 3.774,6.057 3.716,6.043 3.658,6.038 H 2.541 c -0.036,0 -0.055,0.02 -0.087,0.038"
       style="fill:#2b3665;fill-opacity:1;fill-rule:evenodd;stroke:none"
       transform="matrix(0.35277776,0,0,-0.35277776,177.53256,182.87858)"
       clip-path="url(#clipPath3504)" />
    <path
       id="path3505"
       d="m 0,0 -3.127,-2.72 c 0.868,-0.101 1.448,-1.046 1.45,-1.863 l 0.006,-1.888 c 0.005,-1.687 0.065,-4.674 1.904,-5.416 0.331,-0.133 2.034,-0.533 2.856,-0.937 0.976,-0.516 1.082,-0.933 1.224,-1.013 0.141,0.08 0.244,0.497 1.22,1.013 0.822,0.404 2.526,0.804 2.857,0.937 1.839,0.742 1.899,3.729 1.903,5.416 l 0.006,1.888 c 0.002,0.817 0.582,1.762 1.45,1.863 L 8.623,0 C 7.137,-0.923 6.136,-1.348 4.313,-1.348 2.49,-1.348 1.485,-0.923 0,0 m 0.046,-0.41 c 1.392,-0.864 2.56,-1.23 4.267,-1.23 1.707,0 2.872,0.366 4.263,1.23 l 2.568,-2.183 c -0.059,0.01 -0.713,-0.332 -1.022,-1.282 -0.124,-0.383 -0.133,-0.857 -0.127,-1.335 0.006,-0.45 -0.01,-0.903 -0.006,-1.286 -0.024,-1.57 -0.033,-4.359 -1.72,-5.105 -0.312,-0.125 -1.937,-0.495 -2.711,-0.876 -0.935,-0.459 -1.073,-0.728 -1.245,-0.838 -0.172,0.11 -0.314,0.379 -1.248,0.838 -0.775,0.381 -2.399,0.751 -2.711,0.876 -1.687,0.746 -1.696,3.535 -1.72,5.105 0.004,0.383 -0.012,0.836 -0.006,1.286 0.006,0.478 -0.004,0.952 -0.128,1.335 -0.308,0.95 -0.963,1.292 -1.021,1.282 z"
       style="fill:#2b3665;fill-opacity:1;fill-rule:evenodd;stroke:none"
       transform="matrix(0.35277776,0,0,-0.35277776,174.06902,177.53057)"
       clip-path="url(#clipPath3506)" />
  </g>
</svg>
