<?xml version="1.0" encoding="utf-8"?>
<!-- Generator: Adobe Illustrator 28.0.0, SVG Export Plug-In . SVG Version: 6.00 Build 0)  -->
<svg version="1.1" id="svg1" xmlns:svg="http://www.w3.org/2000/svg"
	 xmlns="http://www.w3.org/2000/svg" xmlns:xlink="http://www.w3.org/1999/xlink" x="0px" y="0px" viewBox="0 0 39.1 39.1"
	 style="enable-background:new 0 0 39.1 39.1;" xml:space="preserve">
<style type="text/css">
	.st0{clip-path:url(#SVGID_00000119115703425527331500000000027913924762784150_);fill:#682461;}
	.st1{clip-path:url(#SVGID_00000130632283574514267840000002313520996541937794_);fill:#682461;}
	.st2{clip-path:url(#SVGID_00000159468711693356592010000012132232079853800377_);fill:#682461;}
	.st3{clip-path:url(#SVGID_00000025439152672021263510000017188633920532218762_);fill:#682461;}
	.st4{clip-path:url(#SVGID_00000142857101493183817890000017670902349633412000_);fill:#682461;}
	.st5{clip-path:url(#SVGID_00000022554970763431399530000014807434138303507850_);fill:#682461;}
	.st6{clip-path:url(#SVGID_00000083793342864805745370000012843175542554219910_);fill:#682461;}
	.st7{clip-path:url(#SVGID_00000016759906841328626870000013046021933296594588_);fill:#682461;}
	.st8{clip-path:url(#SVGID_00000101080792617986939940000009040609657452667826_);fill:#682461;}
	.st9{clip-path:url(#SVGID_00000098217189029912608380000011065912886014984617_);fill:#682461;}
	.st10{clip-path:url(#SVGID_00000025437452706495883640000012546816801553792942_);fill:#682461;}
	.st11{clip-path:url(#SVGID_00000087395147877448869370000007913244924863973553_);fill:#682461;}
	.st12{clip-path:url(#SVGID_00000020400738624175037460000013558047059817575102_);fill:#682461;}
	.st13{clip-path:url(#SVGID_00000092443357888227579210000008279356221498243968_);fill:#682461;}
	.st14{clip-path:url(#SVGID_00000032645798953101379950000008228482134148409987_);fill:#682461;}
	.st15{clip-path:url(#SVGID_00000134939422570561333580000010826201561798561698_);fill:#682461;}
	.st16{clip-path:url(#SVGID_00000131356221192018182640000015929536034652389257_);fill:#682461;}
	.st17{clip-path:url(#SVGID_00000170267229764472217200000013283611952271604889_);fill:#682461;}
	.st18{clip-path:url(#SVGID_00000150781371013795038390000005179942159240869560_);fill:#682461;}
	.st19{clip-path:url(#SVGID_00000175312223948996259710000015570341110516115894_);fill:#682461;}
	.st20{clip-path:url(#SVGID_00000149348515892084659530000015757129116515049894_);fill:#682461;}
	.st21{clip-path:url(#SVGID_00000133525181589017344670000006457300163135853212_);fill:#682461;}
	.st22{clip-path:url(#SVGID_00000027571131522942046100000016707586072231848583_);fill:#682461;}
	.st23{clip-path:url(#SVGID_00000044179213490682742180000013524652912065987489_);fill:#682461;}
	.st24{clip-path:url(#SVGID_00000085941414511126853340000002763363468902882692_);fill:#682461;}
	.st25{clip-path:url(#SVGID_00000070101207696448343950000006303047791413496996_);fill:#682461;}
	.st26{clip-path:url(#SVGID_00000118397818625211876160000017212830075580266173_);fill:#682461;}
	.st27{clip-path:url(#SVGID_00000173153681625875918780000013862518797394368147_);fill:#682461;}
	.st28{clip-path:url(#SVGID_00000179618807381621377220000004675203415948044680_);fill:#682461;}
	.st29{clip-path:url(#SVGID_00000047754934188173818390000009237052724326469529_);fill:#682461;}
	.st30{clip-path:url(#SVGID_00000109029890615589569740000008839104795830497933_);fill:#682461;}
	.st31{clip-path:url(#SVGID_00000089541866719671232860000010177484025330735034_);fill:#682461;}
</style>
<g id="layer1" transform="translate(-44.806198,-173.97605)">
	<g>
		<defs>
			<rect id="SVGID_1_" x="-101" y="-515.9" width="1207.6" height="858.9"/>
		</defs>
		<clipPath id="SVGID_00000022519192476808018170000007627554316400348546_">
			<use xlink:href="#SVGID_1_"  style="overflow:visible;"/>
		</clipPath>
		<path id="path3121" style="clip-path:url(#SVGID_00000022519192476808018170000007627554316400348546_);fill:#682461;" d="
			M64.4,211.8c-10.1,0-18.3-8.2-18.3-18.3c0-10.1,8.2-18.3,18.3-18.3s18.3,8.2,18.3,18.3C82.7,203.6,74.5,211.8,64.4,211.8
			 M64.4,174c-10.8,0-19.6,8.8-19.6,19.6c0,10.8,8.8,19.6,19.6,19.6s19.6-8.8,19.6-19.6C83.9,182.8,75.2,174,64.4,174"/>
	</g>
	<g>
		<defs>
			<rect id="SVGID_00000155125509580556397190000016928430643344217263_" x="-101" y="-515.9" width="1207.6" height="858.9"/>
		</defs>
		<clipPath id="SVGID_00000021109933330720952410000008580848658366865575_">
			<use xlink:href="#SVGID_00000155125509580556397190000016928430643344217263_"  style="overflow:visible;"/>
		</clipPath>
		<path id="path3123" style="clip-path:url(#SVGID_00000021109933330720952410000008580848658366865575_);fill:#682461;" d="
			M73.4,201.2v-4l2.8-2.8C76,197,75,199.3,73.4,201.2 M52.6,194.3l3,2.9v4.1C53.8,199.5,52.7,197,52.6,194.3 M55.5,185.7v4.2l-3,3
			C52.7,190.1,53.8,187.6,55.5,185.7 M73.1,189.9v-4.3c1.8,2,2.9,4.5,3.1,7.4L73.1,189.9z M65,181.7c2.9,0.1,5.4,1.3,7.4,3.1h-4.3
			L65,181.7z M56.4,184.8c2-1.8,4.5-2.9,7.3-3l-3,3H56.4z M63.8,205.4c-2.8-0.1-5.3-1.2-7.3-3h4.3L63.8,205.4z M72.3,202.3
			c-2,1.8-4.5,2.9-7.3,3l3-3H72.3z M72.1,196.7v4.4h-4.6l-3.1,3.1l-3.1-3.1h-4.5v-4.4l-3.2-3.2l3.2-3.2V186h4.5l3.1-3.1l3.2,3.2h4.3
			v4.3l3.3,3.3L72.1,196.7z M64.4,180.4c-7.3,0-13.2,5.9-13.2,13.2c0,7.3,5.9,13.2,13.2,13.2s13.2-5.9,13.2-13.2
			C77.6,186.3,71.6,180.4,64.4,180.4"/>
	</g>
	<g>
		<defs>
			<rect id="SVGID_00000123418554800963935830000000461000319341344660_" x="-101" y="-515.9" width="1207.6" height="858.9"/>
		</defs>
		<clipPath id="SVGID_00000045598069414006870850000005875724165647925155_">
			<use xlink:href="#SVGID_00000123418554800963935830000000461000319341344660_"  style="overflow:visible;"/>
		</clipPath>
		<path id="path3125" style="clip-path:url(#SVGID_00000045598069414006870850000005875724165647925155_);fill:#682461;" d="
			M51,197.1l-2.6,0.4l2.2-2.3l0-0.8l-3.6,0.6l0.1,0.7l2.4-0.4l-2.1,2.1l0.1,0.9l3.6-0.6L51,197.1z"/>
	</g>
	<g>
		<defs>
			<rect id="SVGID_00000118392366895920147850000001347783940074819728_" x="-101" y="-515.9" width="1207.6" height="858.9"/>
		</defs>
		<clipPath id="SVGID_00000085955577449288115190000000988038925298322081_">
			<use xlink:href="#SVGID_00000118392366895920147850000001347783940074819728_"  style="overflow:visible;"/>
		</clipPath>
		<path id="path3127" style="clip-path:url(#SVGID_00000085955577449288115190000000988038925298322081_);fill:#682461;" d="
			M47.4,198.3"/>
	</g>
	<g>
		<defs>
			<rect id="SVGID_00000164495366854735716190000000665660068316608408_" x="-101" y="-515.9" width="1207.6" height="858.9"/>
		</defs>
		<clipPath id="SVGID_00000090994782876327866060000009296902053668112006_">
			<use xlink:href="#SVGID_00000164495366854735716190000000665660068316608408_"  style="overflow:visible;"/>
		</clipPath>
		<path id="path3129" style="clip-path:url(#SVGID_00000090994782876327866060000009296902053668112006_);fill:#682461;" d="
			M49.2,192.5l-1.4-0.6l1.5-0.3L49.2,192.5z M50.5,193.2l-0.8-0.3l0.1-1.5l0.8-0.2l0.1-0.9l-3.7,1l-0.1,1l3.4,1.6L50.5,193.2z"/>
	</g>
	<g>
		<defs>
			<rect id="SVGID_00000058581912119204761650000011922058049019984565_" x="-101" y="-515.9" width="1207.6" height="858.9"/>
		</defs>
		<clipPath id="SVGID_00000172412736720135920860000009100385439298851741_">
			<use xlink:href="#SVGID_00000058581912119204761650000011922058049019984565_"  style="overflow:visible;"/>
		</clipPath>
		<path id="path3131" style="clip-path:url(#SVGID_00000172412736720135920860000009100385439298851741_);fill:#682461;" d="
			M51.2,189.3l-2.3-1l3-0.9l0.3-0.7l-3.4-1.3l-0.2,0.7l2.3,0.9l-2.9,0.8l-0.3,0.7l3.3,1.5L51.2,189.3z"/>
	</g>
	<g>
		<defs>
			<rect id="SVGID_00000054250076237676057990000011965984046861563535_" x="-101" y="-515.9" width="1207.6" height="858.9"/>
		</defs>
		<clipPath id="SVGID_00000094618298228078264940000009069738356816290470_">
			<use xlink:href="#SVGID_00000054250076237676057990000011965984046861563535_"  style="overflow:visible;"/>
		</clipPath>
		<path id="path3133" style="clip-path:url(#SVGID_00000094618298228078264940000009069738356816290470_);fill:#682461;" d="
			M53.1,185.6l-1.3-1l2.1,0.1l0.5-0.8l-2.4-0.1l-0.6-2l-0.6,0.8l0.6,1.8l-1.2-0.9l-0.5,0.7l3,2.1L53.1,185.6z"/>
	</g>
	<g>
		<defs>
			<rect id="SVGID_00000057132607548034814640000017399266521559157396_" x="-101" y="-515.9" width="1207.6" height="858.9"/>
		</defs>
		<clipPath id="SVGID_00000137821578211833250160000003112757743493008308_">
			<use xlink:href="#SVGID_00000057132607548034814640000017399266521559157396_"  style="overflow:visible;"/>
		</clipPath>
		<path id="path3135" style="clip-path:url(#SVGID_00000137821578211833250160000003112757743493008308_);fill:#682461;" d="
			M55.4,181.3L55.4,181.3l-0.7,0.5l-0.5-1.4L55.4,181.3z M55.1,183.3l-0.2-0.8l1.1-0.8l0,0l0.7,0.4l0.7-0.6l-3.2-2l-0.8,0.6l1.2,3.6
			L55.1,183.3z"/>
	</g>
	<g>
		<defs>
			<rect id="SVGID_00000150804259476801049970000011368874520780886153_" x="-101" y="-515.9" width="1207.6" height="858.9"/>
		</defs>
		<clipPath id="SVGID_00000083773884547574342580000005989266914510722974_">
			<use xlink:href="#SVGID_00000150804259476801049970000011368874520780886153_"  style="overflow:visible;"/>
		</clipPath>
		<path id="path3137" style="clip-path:url(#SVGID_00000083773884547574342580000005989266914510722974_);fill:#682461;" d="
			M56.2,178.1"/>
	</g>
	<g>
		<defs>
			<rect id="SVGID_00000029042660989824684850000011198881657848968094_" x="-101" y="-515.9" width="1207.6" height="858.9"/>
		</defs>
		<clipPath id="SVGID_00000006671860581296860570000003940081101025555120_">
			<use xlink:href="#SVGID_00000029042660989824684850000011198881657848968094_"  style="overflow:visible;"/>
		</clipPath>
		<path id="path3139" style="clip-path:url(#SVGID_00000006671860581296860570000003940081101025555120_);fill:#682461;" d="
			M58.5,180.9l-1.6-3.2l-0.8,0.4l1.7,3.2L58.5,180.9z"/>
	</g>
	<g>
		<defs>
			<rect id="SVGID_00000111169204901264403920000003138974787111366279_" x="-101" y="-515.9" width="1207.6" height="858.9"/>
		</defs>
		<clipPath id="SVGID_00000047030854394775531870000004142578639235379847_">
			<use xlink:href="#SVGID_00000111169204901264403920000003138974787111366279_"  style="overflow:visible;"/>
		</clipPath>
		<path id="path3141" style="clip-path:url(#SVGID_00000047030854394775531870000004142578639235379847_);fill:#682461;" d="
			M61.8,178.9c0,0.1,0.1,0.3,0.2,0.4c0.1,0.1,0.2,0.2,0.4,0.3c0.1,0.1,0.3,0.1,0.5,0.1c0.2,0,0.4,0,0.5,0c0.3,0,0.5-0.1,0.7-0.2
			c0.1-0.1,0.3-0.2,0.4-0.3c0.1-0.1,0.2-0.3,0.3-0.5c0.1-0.2,0.1-0.4,0.1-0.6l-0.1-2.2l-0.9,0l0.1,2.3c0,0.2,0,0.5-0.1,0.6
			c-0.1,0.1-0.4,0.2-0.6,0.2c-0.2,0-0.5,0-0.6-0.1c-0.1-0.1-0.2-0.4-0.2-0.6l-0.1-2.3l-0.9,0l0.1,2.2
			C61.6,178.5,61.7,178.7,61.8,178.9"/>
	</g>
	<g>
		<defs>
			<rect id="SVGID_00000147928387230366845370000017883875355590707117_" x="-101" y="-515.9" width="1207.6" height="858.9"/>
		</defs>
		<clipPath id="SVGID_00000178911054915802729070000013281780310656052656_">
			<use xlink:href="#SVGID_00000147928387230366845370000017883875355590707117_"  style="overflow:visible;"/>
		</clipPath>
		<path id="path3143" style="clip-path:url(#SVGID_00000178911054915802729070000013281780310656052656_);fill:#682461;" d="
			M67.2,177.4l1.3,2.8l0.8,0.2l0.8-3.5l-0.7-0.1l-0.5,2.3l-1.3-2.9l-0.8-0.1l-0.7,3.6l0.7,0.1L67.2,177.4z"/>
	</g>
	<g>
		<defs>
			<rect id="SVGID_00000003825471022661824200000015230411301267356312_" x="-101" y="-515.9" width="1207.6" height="858.9"/>
		</defs>
		<clipPath id="SVGID_00000155135988556008832070000015219336897491448456_">
			<use xlink:href="#SVGID_00000003825471022661824200000015230411301267356312_"  style="overflow:visible;"/>
		</clipPath>
		<path id="path3145" style="clip-path:url(#SVGID_00000155135988556008832070000015219336897491448456_);fill:#682461;" d="
			M70.7,181.2l1.6-3.3l-0.8-0.3l-1.5,3.3L70.7,181.2z"/>
	</g>
	<g>
		<defs>
			<rect id="SVGID_00000088104003818896325510000016180909164520667035_" x="-101" y="-515.9" width="1207.6" height="858.9"/>
		</defs>
		<clipPath id="SVGID_00000058578392061467434470000005365834695026620324_">
			<use xlink:href="#SVGID_00000088104003818896325510000016180909164520667035_"  style="overflow:visible;"/>
		</clipPath>
		<path id="path3147" style="clip-path:url(#SVGID_00000058578392061467434470000005365834695026620324_);fill:#682461;" d="
			M72.8,182.5l3.1-2.1l-0.6-0.6l-2.2,1.7l0.9-2.8l-0.8-0.4l-0.9,3.7L72.8,182.5z"/>
	</g>
	<g>
		<defs>
			<rect id="SVGID_00000002374631219770212430000017744009162631631762_" x="-101" y="-515.9" width="1207.6" height="858.9"/>
		</defs>
		<clipPath id="SVGID_00000090267825059981003420000017951469386108120989_">
			<use xlink:href="#SVGID_00000002374631219770212430000017744009162631631762_"  style="overflow:visible;"/>
		</clipPath>
		<path id="path3149" style="clip-path:url(#SVGID_00000090267825059981003420000017951469386108120989_);fill:#682461;" d="
			M75.5,185.3l0.5-0.4l-0.9-1.1l0.7-0.7l0.9,1.1l0.5-0.4l-0.9-1.1l0.6-0.5l0.8,1l0.5-0.4l-1.3-1.6l-2.8,2.4L75.5,185.3z"/>
	</g>
	<g>
		<defs>
			<rect id="SVGID_00000018224160666240328260000010188634956466066623_" x="-101" y="-515.9" width="1207.6" height="858.9"/>
		</defs>
		<clipPath id="SVGID_00000076578088118171769550000007235414409870317503_">
			<use xlink:href="#SVGID_00000018224160666240328260000010188634956466066623_"  style="overflow:visible;"/>
		</clipPath>
		<path id="path3151" style="clip-path:url(#SVGID_00000076578088118171769550000007235414409870317503_);fill:#682461;" d="
			M78.2,185.5l0.7-0.4l0.2,0.4c0.3,0.4-0.1,0.6-0.1,0.6c-0.1,0-0.4,0.2-0.6-0.2L78.2,185.5z M76,185.9l0.4,0.8l1.3-0.8
			c0,0,0,0.3-0.2,0.4l-0.8,1.1l0.5,0.8l0.9-1.6c0.2,0.1,0.3,0.2,0.4,0.2c0.1,0.1,0.3,0.1,0.5,0.1c0.2,0,0.3-0.1,0.5-0.1
			c0.2-0.1,0.3-0.2,0.3-0.4c0.1-0.2,0.2-0.6-0.1-1l-0.7-1.3L76,185.9z"/>
	</g>
	<g>
		<defs>
			<rect id="SVGID_00000116224656383910141320000013525166992997567621_" x="-101" y="-515.9" width="1207.6" height="858.9"/>
		</defs>
		<clipPath id="SVGID_00000134246077613903848390000007954555635643328667_">
			<use xlink:href="#SVGID_00000116224656383910141320000013525166992997567621_"  style="overflow:visible;"/>
		</clipPath>
		<path id="path3153" style="clip-path:url(#SVGID_00000134246077613903848390000007954555635643328667_);fill:#682461;" d="
			M78.7,190.5c1.1,0,1.1-1.2,1.2-1.6c0.2-0.7,0.7-0.4,0.8-0.2c0,0.1,0,0.5-0.1,0.7l0.5,0.4c0.2-0.3,0.3-0.7,0.2-1.1
			c-0.1-0.4-0.2-0.6-0.4-0.7c-0.2-0.2-0.3-0.2-0.5-0.3c-0.2,0-0.4,0-0.6,0c-0.3,0.1-0.5,0.2-0.6,0.5c-0.1,0.2-0.2,0.4-0.2,0.9
			c0,0.2,0,0.4-0.1,0.4c0,0.1-0.1,0.2-0.2,0.2c-0.1,0-0.2,0.1-0.4,0c-0.1,0-0.3-0.2-0.3-0.4c-0.1-0.3,0.2-0.9,0.2-0.9l0,0l-0.5-0.3
			c-0.4,0.6-0.4,1.1-0.2,1.6C77.9,190.5,78.4,190.5,78.7,190.5"/>
	</g>
	<g>
		<defs>
			<rect id="SVGID_00000147200661547214907210000017072514481644748958_" x="-101" y="-515.9" width="1207.6" height="858.9"/>
		</defs>
		<clipPath id="SVGID_00000037689559645158494210000001800508363963892371_">
			<use xlink:href="#SVGID_00000147200661547214907210000017072514481644748958_"  style="overflow:visible;"/>
		</clipPath>
		<path id="path3155" style="clip-path:url(#SVGID_00000037689559645158494210000001800508363963892371_);fill:#682461;" d="
			M78.1,192.1l3.7-0.4l-0.1-0.8l-3.7,0.4L78.1,192.1z"/>
	</g>
	<g>
		<defs>
			<rect id="SVGID_00000183968095630498056930000003697421768352639392_" x="-101" y="-515.9" width="1207.6" height="858.9"/>
		</defs>
		<clipPath id="SVGID_00000132089193866803311190000012349385823638121652_">
			<use xlink:href="#SVGID_00000183968095630498056930000003697421768352639392_"  style="overflow:visible;"/>
		</clipPath>
		<path id="path3157" style="clip-path:url(#SVGID_00000132089193866803311190000012349385823638121652_);fill:#682461;" d="
			M81.2,193.6l-3,0l0,0.8l3,0l0,1l0.7,0l0.1-2.7l-0.7,0L81.2,193.6z"/>
	</g>
	<g>
		<defs>
			<rect id="SVGID_00000142897034912704224360000016615856446359404169_" x="-101" y="-515.9" width="1207.6" height="858.9"/>
		</defs>
		<clipPath id="SVGID_00000057127395796897183770000010494411672313641873_">
			<use xlink:href="#SVGID_00000142897034912704224360000016615856446359404169_"  style="overflow:visible;"/>
		</clipPath>
		<path id="path3159" style="clip-path:url(#SVGID_00000057127395796897183770000010494411672313641873_);fill:#682461;" d="
			M82,192.6"/>
	</g>
	<g>
		<defs>
			<rect id="SVGID_00000029733802916254341690000010254083562986901425_" x="-101" y="-515.9" width="1207.6" height="858.9"/>
		</defs>
		<clipPath id="SVGID_00000056399389370443011620000004114048119567696311_">
			<use xlink:href="#SVGID_00000029733802916254341690000010254083562986901425_"  style="overflow:visible;"/>
		</clipPath>
		<path id="path3161" style="clip-path:url(#SVGID_00000056399389370443011620000004114048119567696311_);fill:#682461;" d="
			M77.9,196.5l-0.1,0.8l1.5,0.3l1.7,1.6l0.3-0.8l-1.2-1l1.4-0.3l0.3-0.9l-2.2,0.7L77.9,196.5z"/>
	</g>
	<g>
		<defs>
			<rect id="SVGID_00000040540667535816986790000018250054961106428034_" x="-101" y="-515.9" width="1207.6" height="858.9"/>
		</defs>
		<clipPath id="SVGID_00000010306870239277463680000015034176974365332622_">
			<use xlink:href="#SVGID_00000040540667535816986790000018250054961106428034_"  style="overflow:visible;"/>
		</clipPath>
		<path id="path3163" style="clip-path:url(#SVGID_00000010306870239277463680000015034176974365332622_);fill:#682461;" d="
			M52.2,202.9c-0.3,0-0.6,0.3-0.6,0.6s0.3,0.6,0.6,0.6c0.3,0,0.6-0.3,0.6-0.6S52.5,202.9,52.2,202.9"/>
	</g>
	<g>
		<defs>
			<rect id="SVGID_00000132786555212479921350000003926444036660315800_" x="-101" y="-515.9" width="1207.6" height="858.9"/>
		</defs>
		<clipPath id="SVGID_00000008859231405892104410000015707507190378736053_">
			<use xlink:href="#SVGID_00000132786555212479921350000003926444036660315800_"  style="overflow:visible;"/>
		</clipPath>
		<path id="path3165" style="clip-path:url(#SVGID_00000008859231405892104410000015707507190378736053_);fill:#682461;" d="
			M76.5,202.9c-0.3,0-0.6,0.3-0.6,0.6s0.3,0.6,0.6,0.6s0.6-0.3,0.6-0.6S76.9,202.9,76.5,202.9"/>
	</g>
	<g>
		<defs>
			<rect id="SVGID_00000159432376500144498890000000891423293593792144_" x="-101" y="-515.9" width="1207.6" height="858.9"/>
		</defs>
		<clipPath id="SVGID_00000134948051769821830240000016859451688621561268_">
			<use xlink:href="#SVGID_00000159432376500144498890000000891423293593792144_"  style="overflow:visible;"/>
		</clipPath>
		<path id="path3167" style="clip-path:url(#SVGID_00000134948051769821830240000016859451688621561268_);fill:#682461;" d="
			M57.7,206.8l0.6,0.2l-1.1,2.2l0.6,0.3l1.4-2.7l-1.4-0.5L57.7,206.8z"/>
	</g>
	<g>
		<defs>
			<rect id="SVGID_00000142889573174299114600000006919033977293337990_" x="-101" y="-515.9" width="1207.6" height="858.9"/>
		</defs>
		<clipPath id="SVGID_00000155125299825927748310000014940823544691819932_">
			<use xlink:href="#SVGID_00000142889573174299114600000006919033977293337990_"  style="overflow:visible;"/>
		</clipPath>
		<path id="path3169" style="clip-path:url(#SVGID_00000155125299825927748310000014940823544691819932_);fill:#682461;" d="
			M63.1,209C63.1,209,63.1,209.1,63.1,209c0,0.1,0,0.1,0,0.2c-0.3,0-0.5,0-0.7,0c-0.2,0-0.4,0-0.6-0.1c-0.3,0-0.5-0.1-0.5-0.2
			c-0.1-0.1-0.1-0.2-0.1-0.3l0-0.2c0-0.1,0.1-0.2,0.2-0.3c0.1,0,0.2,0,0.5,0l0.9,0.1c0.3,0,0.4,0.1,0.5,0.2
			C63.2,208.5,63.2,208.7,63.1,209 M62.9,207.8l-1.3-0.2c-0.4-0.1-0.6,0-0.8,0.1c-0.2,0.1-0.3,0.3-0.3,0.5l-0.1,0.4
			c0,0.3,0,0.5,0.2,0.7c0.2,0.1,0.5,0.3,1,0.3c0.2,0,0.5,0.1,0.7,0.1s0.5,0,0.7,0c-0.1,0.3-0.4,0.4-0.7,0.5c-0.3,0.1-0.8,0.1-1.4,0
			l-0.2,0l0.3,0.6c0,0,0.1,0,0.1,0c0,0,0.1,0,0.1,0c0.7,0.1,1.3,0,1.7-0.2c0.4-0.3,0.7-0.7,0.8-1.2l0.1-0.4c0.1-0.4,0-0.6-0.1-0.8
			C63.6,207.9,63.3,207.8,62.9,207.8"/>
	</g>
	<g>
		<defs>
			<rect id="SVGID_00000130648170905957395820000005379999359558124711_" x="-101" y="-515.9" width="1207.6" height="858.9"/>
		</defs>
		<clipPath id="SVGID_00000165232466665302634250000006559469277707676835_">
			<use xlink:href="#SVGID_00000130648170905957395820000005379999359558124711_"  style="overflow:visible;"/>
		</clipPath>
		<path id="path3171" style="clip-path:url(#SVGID_00000165232466665302634250000006559469277707676835_);fill:#682461;" d="M65,208
			l0,0.4l0.7-0.1l0.3,2.4l0.7-0.1l-0.3-3L65,208z"/>
	</g>
	<g>
		<defs>
			<rect id="SVGID_00000023976173095567923350000011116475019434506388_" x="-101" y="-515.9" width="1207.6" height="858.9"/>
		</defs>
		<clipPath id="SVGID_00000112629622473720097230000006918776539176213170_">
			<use xlink:href="#SVGID_00000023976173095567923350000011116475019434506388_"  style="overflow:visible;"/>
		</clipPath>
		<path id="path3173" style="clip-path:url(#SVGID_00000112629622473720097230000006918776539176213170_);fill:#682461;" d="
			M70.3,208.2c-0.2,0.1-0.4,0.2-0.6,0.2c-0.3,0.1-0.4,0.1-0.6,0.1c-0.1,0-0.2-0.1-0.2-0.2l-0.1-0.2c-0.1-0.1,0-0.2,0-0.3
			c0.1-0.1,0.2-0.2,0.4-0.2l0.8-0.3c0.3-0.1,0.4-0.1,0.5-0.1c0.1,0,0.2,0.2,0.3,0.5c0,0,0,0,0,0.1c0,0,0,0.1,0,0.1
			C70.7,208,70.5,208.1,70.3,208.2 M71.4,207.2c-0.1-0.3-0.3-0.6-0.5-0.6c-0.2-0.1-0.5-0.1-0.8,0.1l-1.2,0.4
			c-0.3,0.1-0.6,0.3-0.7,0.4c-0.1,0.2-0.1,0.4,0,0.6l0.1,0.4c0.1,0.3,0.3,0.4,0.5,0.5c0.2,0,0.6,0,1-0.2c0.2-0.1,0.4-0.2,0.6-0.3
			c0.2-0.1,0.4-0.2,0.6-0.3c0,0.3-0.1,0.6-0.4,0.8c-0.2,0.2-0.7,0.4-1.3,0.7l-0.2,0.1l0.6,0.3c0,0,0.1,0,0.1,0s0.1,0,0.1,0
			c0.7-0.2,1.2-0.6,1.4-1c0.3-0.4,0.3-0.9,0.1-1.5L71.4,207.2z"/>
	</g>
	<g>
		<defs>
			<rect id="SVGID_00000109730009580962840560000009449501290138663588_" x="-101" y="-515.9" width="1207.6" height="858.9"/>
		</defs>
		<clipPath id="SVGID_00000116193286849916461710000010451712752555742382_">
			<use xlink:href="#SVGID_00000109730009580962840560000009449501290138663588_"  style="overflow:visible;"/>
		</clipPath>
		<path id="path3175" style="clip-path:url(#SVGID_00000116193286849916461710000010451712752555742382_);fill:#682461;" d="
			M61.6,191.8c0,0-0.1,0.1-0.2,0.1c0,0-0.1,0.1-0.1,0.1c-0.2,0.3-0.3,0.9-0.7,1c-0.3,0-0.5-0.3-0.6-0.5c-0.1-0.2-0.3-0.4-0.5-0.6
			c-0.1-0.1-0.2-0.3-0.1-0.4c0.2-0.2,0.7,0,1,0c0.2,0,0.4,0,0.6,0c0.2,0,0.3,0,0.5,0c0.1,0,0.3,0,0.3,0.1
			C61.8,191.6,61.6,191.7,61.6,191.8 M64,192.6c0-0.6-0.2-1.4-0.3-1.6c-0.2-0.3-0.5-0.3-0.8-0.3c-0.3,0-0.6,0.1-0.9,0.1
			c-0.3,0-0.7-0.3-0.7-0.6c0-0.4,0.6-0.3,0.9-0.3c0.4,0,0.9-0.1,1.1-0.4c0.3-0.4,0.2-1,0.1-1.4c-0.1-0.3-0.6-1.2-1-0.8
			c-0.2,0.2-0.2,0.5-0.1,0.8c0.1,0.2,0.3,0.5,0.2,0.7c-0.1,0.2-0.4,0.3-0.6,0.3c-0.1,0-0.6,0-0.6-0.2c-0.2-0.5,0-1.1,0-1.6
			c0-0.2-0.1-0.4-0.3-0.6l0,0c-0.2-0.2-0.4-0.2-0.7,0.1c-0.5,0.5,0.4,2.1-0.5,2.3c-0.4,0.1-0.7-0.2-0.8-0.4
			c-0.2-0.5,0.4-1.2-0.3-1.4c-0.6-0.2-0.9,1.1-0.8,2c0.2,0.5,0.8,0.6,1.3,0.6c0.2,0,0.7,0,0.8,0.1c0.1,0.2-0.3,0.5-0.5,0.6
			c-0.7,0.3-2.2-0.2-2.4,0.9c0,0.3,0.2,1,0.2,1.4c0.1,1.2-0.1,3.4,0,4.8c0,0.7,0,1.8,0.7,1.6c0.6-0.1,0.3-3,0.3-4
			c0-0.3-0.1-0.7-0.1-1c-0.1-0.6-0.2-1.3,0.1-1.9c0.2-0.5,0.6,0.1,0.6,0.4c0,0.2-0.2,0.9,0,1c0.3,0.3,1.1-0.2,1.1,0.5
			c-0.3,0.5-1.2,0.2-1.1,0.8c0.1,0.4,0.6,0.3,1.1,0.4c0.2,1.1-0.1,2.2,0.1,3.6c0,0.5,0.2,1.4,0.7,1.4c0.3,0,0.4-0.5,0.4-0.7
			c0.2-1-0.3-3,0-4.2c0.4-0.4,1.2,0,1.1-0.7c-0.1-0.4-0.7-0.3-1.2-0.4c-0.2-0.2-0.1-0.4,0.1-0.6c0.3-0.2,0.8,0.1,1.1-0.1
			c0.1-0.2,0.1-0.5,0.2-0.8c0-0.3-0.4-0.1-0.6-0.3c0.2-0.3,0.5-0.7,0.9-0.6c0.4,0.1,0.4,1.1,0.4,1.4c0,0.5-0.1,1-0.1,1.5
			c0,1.1,0.1,2.2,0,3.2c0,0.3-0.2,0.6,0.1,0.9c1,0.4,0.8-0.7,0.7-1.5C63.8,196.4,64.1,194.2,64,192.6"/>
	</g>
	<g>
		<defs>
			<rect id="SVGID_00000131341015134145481330000011322483621584153240_" x="-101" y="-515.9" width="1207.6" height="858.9"/>
		</defs>
		<clipPath id="SVGID_00000086684733783773550050000003287665692311397284_">
			<use xlink:href="#SVGID_00000131341015134145481330000011322483621584153240_"  style="overflow:visible;"/>
		</clipPath>
		<path id="path3177" style="clip-path:url(#SVGID_00000086684733783773550050000003287665692311397284_);fill:#682461;" d="
			M66.2,190.3c0.7-0.3,0.9,0.4,0.7,0.8c-0.1,0.1-0.2,0.2-0.3,0.3c-0.1,0.1-0.3,0.2-0.5,0.1c0,0,0,0,0,0c-0.2,0-0.2-0.3-0.2-0.4
			C65.9,190.9,65.9,190.5,66.2,190.3 M65.9,189L65.9,189c0.1-0.1,0.2-0.1,0.3-0.2c0.2-0.1,0.5-0.1,0.7-0.1c0.1,0.1,0.2,0.4,0.1,0.6
			c-0.1,0.2-0.5,0.2-0.7,0.2C65.8,189.6,65.7,189.2,65.9,189 M66.6,192.3c0.3-0.1,0.8,0.1,1-0.1l0,0c0,0,0.1-0.1,0.1-0.1
			c0.1-0.3,0.1-0.7,0.1-1c0.1-0.8,0.1-1.6,0-2.4c0-0.4-0.1-2.3-0.9-1.9c-0.4,0.2-0.1,0.3-0.2,0.8c-0.1,0.6-0.5,0.6-0.9,0.3
			c-0.1-0.1-0.4-0.3-0.5-0.3c-0.2,0-0.3,0.3-0.3,0.5c0,0.2,0,0.5,0,0.7c0.3,2.7,0.4,6.7-0.3,9.2c-0.1,0.3-0.3,0.6-0.3,1
			c0,0.5,0.6,0.9,0.8,0.4c0.2-0.4,0.2-0.9,0.3-1.3c0.2-0.6,0.4-1.2,0.4-1.9C66.1,195,65.6,192.6,66.6,192.3"/>
	</g>
	<g>
		<defs>
			<rect id="SVGID_00000038385128770329151310000008326050408789622400_" x="-101" y="-515.9" width="1207.6" height="858.9"/>
		</defs>
		<clipPath id="SVGID_00000046308162840763083670000016012149094246990987_">
			<use xlink:href="#SVGID_00000038385128770329151310000008326050408789622400_"  style="overflow:visible;"/>
		</clipPath>
		<path id="path3179" style="clip-path:url(#SVGID_00000046308162840763083670000016012149094246990987_);fill:#682461;" d="
			M70.2,189.4c-0.1,0.3-0.6,0.3-0.8,0.2c-0.1,0-0.2-0.1-0.3-0.2c-0.1-0.2-0.1-0.4-0.1-0.6c0.1-0.3,0.5-0.2,0.7-0.1
			c0.1,0.1,0.3,0.2,0.3,0.3C70.1,189.1,70.3,189.3,70.2,189.4 M70.1,191.4c0,0,0,0.1-0.1,0.1c-0.1,0.2-0.5,0.2-0.7,0.1
			c-0.3-0.2-0.3-0.7-0.2-0.9c0-0.1,0-0.1,0.1-0.2c0.1-0.1,0.2-0.1,0.3-0.1c0.1,0,0.4,0.1,0.5,0.2C70.1,190.8,70.1,191.1,70.1,191.4
			 M71.1,197.3c0-0.4,0-0.8-0.1-1.2c0-0.7-0.1-1.4-0.1-2c-0.1-1.2-0.1-2.4-0.1-3.6c0-0.6,0.1-1.2,0.1-1.8c0-0.4,0-0.9-0.5-0.9
			c-0.1,0-0.3,0.1-0.4,0.1c-0.1,0-0.3,0.2-0.4,0.2c-0.7,0-0.5-1.2-1.1-1.2c-0.3,0-0.4,0.5-0.4,0.7c-0.2,1-0.1,2-0.1,3
			c0,0.4,0.1,0.9,0.1,1.3c0,0.5,0.3,0.6,0.7,0.6c0.3,0,0.6-0.1,1,0.1c0.6,0.5,0.2,4.5,0.3,5.4c0.1,0.7,0.2,2,0.9,1.8
			c0.6-0.1,0.2-0.9,0.1-1.2C71.1,198.1,71.1,197.7,71.1,197.3"/>
	</g>
	<g>
		<defs>
			<rect id="SVGID_00000140003156051420854220000006637157577333917840_" x="-101" y="-515.9" width="1207.6" height="858.9"/>
		</defs>
		<clipPath id="SVGID_00000099622267748985708260000001802902720387696277_">
			<use xlink:href="#SVGID_00000140003156051420854220000006637157577333917840_"  style="overflow:visible;"/>
		</clipPath>
		<path id="path3181" style="clip-path:url(#SVGID_00000099622267748985708260000001802902720387696277_);fill:#682461;" d="
			M69.2,193.9c-0.1-0.2,0.1-0.3,0.1-0.5c0-0.1,0.1-0.3,0.1-0.5c0-0.1,0-0.1,0-0.1l0,0c-0.1-0.2-0.3-0.3-0.6-0.3
			c-0.3,0-0.6,0.1-0.7,0.3c-0.1,0.2,0,0.4,0.1,0.6c0,0.1,0.1,0.2,0.1,0.3c0,0.1-0.1,0.2-0.1,0.3c-0.2,0.4,0.1,0.8,0.2,1.1
			c0.2,0.9,0,1.8,0,2.7c0,0.4-0.1,0.9,0,1.3c0.1,0.3,0.4,0.5,0.7,0.4c0.6-0.2,0.1-1.5,0.1-1.9c0-0.5,0-1.1,0-1.6c0-0.2,0-0.4,0-0.7
			c0-0.2,0.1-0.3,0.2-0.5c0.1-0.2,0.1-0.4,0.1-0.6C69.5,194.1,69.3,194.1,69.2,193.9"/>
	</g>
	<g>
		<defs>
			<rect id="SVGID_00000138540140348125832770000015696239115439782538_" x="-101" y="-515.9" width="1207.6" height="858.9"/>
		</defs>
		<clipPath id="SVGID_00000082342943218726697370000016691082239066523267_">
			<use xlink:href="#SVGID_00000138540140348125832770000015696239115439782538_"  style="overflow:visible;"/>
		</clipPath>
		<path id="path3183" style="clip-path:url(#SVGID_00000082342943218726697370000016691082239066523267_);fill:#682461;" d="
			M67.7,193.2c0.2-0.6-0.7-0.7-1.1-0.4c-0.2,0.2-0.3,0.4-0.1,0.7c0.1,0.1,0.4,0.3,0.3,0.4c0,0.1-0.3,0.3-0.3,0.4
			c-0.1,0.3-0.1,0.7,0.2,0.9c0.2,1.2,0,2.7-0.4,3.6c-0.1,0.3-0.8,1.3-0.2,1.5c0.4,0.1,0.9-1,1-1.3c0.4-1.1,0.3-2.5,0.4-3.8l0,0
			c0.1-0.1,0.3-0.3,0.3-0.6c0-0.2-0.4-0.5-0.4-0.7C67.4,193.6,67.7,193.4,67.7,193.2"/>
	</g>
</g>
</svg>
