<?xml version="1.0" encoding="utf-8"?>
<!-- Generator: Adobe Illustrator 28.0.0, SVG Export Plug-In . SVG Version: 6.00 Build 0)  -->
<svg version="1.1" id="svg1" xmlns:svg="http://www.w3.org/2000/svg"
	 xmlns="http://www.w3.org/2000/svg" xmlns:xlink="http://www.w3.org/1999/xlink" x="0px" y="0px" viewBox="0 0 49.9 15.6"
	 style="enable-background:new 0 0 49.9 15.6;" xml:space="preserve">
<style type="text/css">
	.st0{clip-path:url(#SVGID_00000084527345649472460110000014408416266880938925_);fill:#ED1C24;}
	.st1{clip-path:url(#SVGID_00000133531301894134934390000008577664809769338784_);fill:#ED1C24;}
	.st2{clip-path:url(#SVGID_00000180343815729802334260000008575193773574428583_);fill:#ED1C24;}
</style>
<g id="layer1" transform="translate(-167.44449,-94.45133)">
	<g>
		<defs>
			<rect id="SVGID_1_" x="-326" y="-370" width="1207.6" height="858.9"/>
		</defs>
		<clipPath id="SVGID_00000034073499982686552980000016030641571168238762_">
			<use xlink:href="#SVGID_1_"  style="overflow:visible;"/>
		</clipPath>
		<path id="path942" style="clip-path:url(#SVGID_00000034073499982686552980000016030641571168238762_);fill:#ED1C24;" d="
			M167.4,99.3h5.7v10.1h5.1V99.3h5.7v-4.1h-16.4V99.3z"/>
	</g>
	<g>
		<defs>
			<rect id="SVGID_00000058580079491256107380000008483417392359753385_" x="-326" y="-370" width="1207.6" height="858.9"/>
		</defs>
		<clipPath id="SVGID_00000060724903164234905170000011282206942823929219_">
			<use xlink:href="#SVGID_00000058580079491256107380000008483417392359753385_"  style="overflow:visible;"/>
		</clipPath>
		<path id="path944" style="clip-path:url(#SVGID_00000060724903164234905170000011282206942823929219_);fill:#ED1C24;" d="
			M193.7,106.5c-1.2,0-2.1-0.3-2.8-1c-0.7-0.7-1.3-1.7-1.3-3.1v-0.2c0-1.4,0.5-2.5,1.3-3.1c0.8-0.7,1.6-1,2.8-1
			c2.8,0,3.4,1.6,3.5,2.7h4.5c-0.1-2.2-1.1-3.7-2.6-4.7c-1.4-1-3.1-1.5-5.4-1.5c-2.7,0-4.7,0.6-6.3,2c-1.6,1.4-2.5,3.6-2.5,5.8v0.1
			c0,2.4,0.8,4.2,2.4,5.7c1.6,1.4,3.8,2.1,6.3,2.1c2.2,0,4.1-0.5,5.5-1.5c1.5-1.1,2.5-2.7,2.6-4.7h-4.5
			C197.2,104.7,196.6,106.5,193.7,106.5"/>
	</g>
	<g>
		<defs>
			<rect id="SVGID_00000026147294562634049780000000185566194353131920_" x="-326" y="-370" width="1207.6" height="858.9"/>
		</defs>
		<clipPath id="SVGID_00000100377596748509106970000010065546529522781333_">
			<use xlink:href="#SVGID_00000026147294562634049780000000185566194353131920_"  style="overflow:visible;"/>
		</clipPath>
		<path id="path946" style="clip-path:url(#SVGID_00000100377596748509106970000010065546529522781333_);fill:#ED1C24;" d="
			M209.4,105.6V95.2h-4.9v14.2h12.9v-3.9H209.4z"/>
	</g>
</g>
</svg>
