<?xml version="1.0" encoding="UTF-8" standalone="no"?>
<!-- Created with Inkscape (http://www.inkscape.org/) -->

<svg
   width="24.668545mm"
   height="9.200036mm"
   viewBox="0 0 24.668545 9.200036"
   version="1.1"
   id="svg1"
   xmlns="http://www.w3.org/2000/svg"
   xmlns:svg="http://www.w3.org/2000/svg">
  <defs
     id="defs1">
    <linearGradient
       x1="0"
       y1="0"
       x2="1"
       y2="0"
       gradientUnits="userSpaceOnUse"
       gradientTransform="matrix(-5.0780401,-2.8454573,2.8454573,-5.0780401,79.381336,57.044759)"
       spreadMethod="pad"
       id="linearGradient3936">
      <stop
         style="stop-opacity:1;stop-color:#f36717"
         offset="0"
         id="stop3932" />
      <stop
         style="stop-opacity:1;stop-color:#ed1c24"
         offset="0.298684"
         id="stop3933" />
      <stop
         style="stop-opacity:1;stop-color:#ed1c24"
         offset="0.56703493"
         id="stop3934" />
      <stop
         style="stop-opacity:1;stop-color:#9c1116"
         offset="0.945255"
         id="stop3935" />
      <stop
         style="stop-opacity:1;stop-color:#9c1116"
         offset="1"
         id="stop3936" />
    </linearGradient>
    <linearGradient
       x1="0"
       y1="0"
       x2="1"
       y2="0"
       gradientUnits="userSpaceOnUse"
       gradientTransform="matrix(5.1163203,3.3105553,-3.3105553,5.1163203,74.732469,47.85208)"
       spreadMethod="pad"
       id="linearGradient3939">
      <stop
         style="stop-opacity:1;stop-color:#66c430"
         offset="0"
         id="stop3937" />
      <stop
         style="stop-opacity:1;stop-color:#31713f"
         offset="0.481347"
         id="stop3938" />
      <stop
         style="stop-opacity:1;stop-color:#224736"
         offset="1"
         id="stop3939" />
    </linearGradient>
    <linearGradient
       x1="0"
       y1="0"
       x2="1"
       y2="0"
       gradientUnits="userSpaceOnUse"
       gradientTransform="matrix(-4.9638417,0,0,-4.9638417,80.67355,53.018863)"
       spreadMethod="pad"
       id="linearGradient3942">
      <stop
         style="stop-opacity:1;stop-color:#b3dc2f"
         offset="0"
         id="stop3940" />
      <stop
         style="stop-opacity:1;stop-color:#73c82c"
         offset="0.232508"
         id="stop3941" />
      <stop
         style="stop-opacity:1;stop-color:#288943"
         offset="1"
         id="stop3942" />
    </linearGradient>
    <linearGradient
       x1="0"
       y1="0"
       x2="1"
       y2="0"
       gradientUnits="userSpaceOnUse"
       gradientTransform="matrix(4.6272737,-4.2373379,4.2373379,4.6272737,73.51408,54.094832)"
       spreadMethod="pad"
       id="linearGradient3948">
      <stop
         style="stop-opacity:1;stop-color:#f68712"
         offset="0"
         id="stop3943" />
      <stop
         style="stop-opacity:1;stop-color:#ed1c24"
         offset="0.26532802"
         id="stop3944" />
      <stop
         style="stop-opacity:1;stop-color:#ed1c24"
         offset="0.332127"
         id="stop3945" />
      <stop
         style="stop-opacity:1;stop-color:#ed1c24"
         offset="0.58659784"
         id="stop3946" />
      <stop
         style="stop-opacity:1;stop-color:#9c1116"
         offset="0.945255"
         id="stop3947" />
      <stop
         style="stop-opacity:1;stop-color:#9c1116"
         offset="1"
         id="stop3948" />
    </linearGradient>
    <clipPath
       clipPathUnits="userSpaceOnUse"
       id="clipPath3951">
      <path
         d="M 0,858.898 H 1207.558 V 0 H 0 Z"
         transform="matrix(1.3333333,0,0,-1.3333333,-11.338587,1133.8587)"
         id="path3951" />
    </clipPath>
    <clipPath
       clipPathUnits="userSpaceOnUse"
       id="clipPath3949">
      <path
         d="m 476.569,636.518 h 7.015 v -4.607 h -7.015 z"
         transform="translate(-483.58411,-636.16782)"
         id="path3949" />
    </clipPath>
    <clipPath
       clipPathUnits="userSpaceOnUse"
       id="clipPath3953">
      <path
         d="M 0,858.898 H 1207.558 V 0 H 0 Z"
         transform="translate(-508.23601,-642.31681)"
         id="path3953" />
    </clipPath>
    <clipPath
       clipPathUnits="userSpaceOnUse"
       id="clipPath3955">
      <path
         d="M 0,858.898 H 1207.558 V 0 H 0 Z"
         transform="translate(-533.07291,-640.38292)"
         id="path3955" />
    </clipPath>
    <clipPath
       clipPathUnits="userSpaceOnUse"
       id="clipPath3957">
      <path
         d="M 0,858.898 H 1207.558 V 0 H 0 Z"
         transform="translate(-526.54801,-640.95742)"
         id="path3957" />
    </clipPath>
    <clipPath
       clipPathUnits="userSpaceOnUse"
       id="clipPath3959">
      <path
         d="M 0,858.898 H 1207.558 V 0 H 0 Z"
         transform="translate(-502.61472,-642.85492)"
         id="path3959" />
    </clipPath>
    <clipPath
       clipPathUnits="userSpaceOnUse"
       id="clipPath3961">
      <path
         d="M 0,858.898 H 1207.558 V 0 H 0 Z"
         transform="translate(-503.60071,-635.96971)"
         id="path3961" />
    </clipPath>
    <clipPath
       clipPathUnits="userSpaceOnUse"
       id="clipPath3963">
      <path
         d="M 0,858.898 H 1207.558 V 0 H 0 Z"
         transform="translate(-535.38192,-643.32661)"
         id="path3963" />
    </clipPath>
    <clipPath
       clipPathUnits="userSpaceOnUse"
       id="clipPath3965">
      <path
         d="M 0,858.898 H 1207.558 V 0 H 0 Z"
         transform="translate(-539.32491,-635.84392)"
         id="path3965" />
    </clipPath>
    <clipPath
       clipPathUnits="userSpaceOnUse"
       id="clipPath3967">
      <path
         d="M 0,858.898 H 1207.558 V 0 H 0 Z"
         transform="translate(-509.04571,-627.98302)"
         id="path3967" />
    </clipPath>
    <clipPath
       clipPathUnits="userSpaceOnUse"
       id="clipPath3969">
      <path
         d="M 0,858.898 H 1207.558 V 0 H 0 Z"
         transform="translate(-527.11941,-631.07191)"
         id="path3969" />
    </clipPath>
    <clipPath
       clipPathUnits="userSpaceOnUse"
       id="clipPath3971">
      <path
         d="M 0,858.898 H 1207.558 V 0 H 0 Z"
         transform="translate(-516.64291,-632.37871)"
         id="path3971" />
    </clipPath>
    <clipPath
       clipPathUnits="userSpaceOnUse"
       id="clipPath3973">
      <path
         d="M 0,858.898 H 1207.558 V 0 H 0 Z"
         transform="translate(-500.63451,-628.73332)"
         id="path3973" />
    </clipPath>
  </defs>
  <g
     id="layer1"
     transform="translate(-73.289564,-47.889591)">
    <path
       id="path3936"
       d="m 73.302855,54.530632 c 0.0025,1.351845 2.421114,2.693811 6.321424,2.548114 v 0 c 0,0 0.0053,-0.808919 0.0053,-1.222375 v 0 c 0,-0.941564 -1.004358,-0.836083 -1.856669,-0.814211 v 0 c -1.852436,0.04621 -2.973917,-0.460375 -3.878792,-1.303514 v 0 c -0.371122,-0.376414 -0.573616,-0.88018 -0.591255,-1.282347 v 0 z"
       style="fill:url(#linearGradient3936);stroke:none;stroke-width:0.352778" />
    <path
       id="path3939"
       d="m 74.279696,47.900527 c 0,0 -0.0042,0.807508 -0.0042,1.222022 v 0 c 0,0.941211 1.0033,0.835378 1.855611,0.813859 v 0 c 1.852083,-0.04657 2.973917,0.460727 3.878792,1.302808 v 0 c 0.370769,0.377119 0.573616,0.880886 0.590902,1.2827 v 0 -2.074686 c -0.0021,-1.282347 -2.182988,-2.557639 -5.741458,-2.557639 v 0 c -0.189441,0 -0.382411,0.0035 -0.579614,0.01094"
       style="fill:url(#linearGradient3939);stroke:none;stroke-width:0.352778" />
    <path
       id="path3942"
       d="m 79.798199,51.367274 c -0.424039,0.138995 -0.996245,0.228247 -1.516592,0.297745 v 0 c -1.234016,0.163688 -2.566811,0.309738 -2.566811,1.513416 v 0 2.345619 c 2.132542,-0.182386 4.803775,-1.539169 4.898672,-2.837391 v 0 c 0.0025,-0.03845 -7.05e-4,-0.07973 -7.05e-4,-0.121003 v 0 c 0,-0.185208 -0.01199,-2.052108 -0.01199,-2.052108 v 0 c -0.186972,0.642408 -0.802569,0.853722 -0.802569,0.853722"
       style="fill:url(#linearGradient3942);stroke:none;stroke-width:0.352778" />
    <path
       id="path3948"
       d="m 73.290155,52.291905 c -0.0018,0.03845 0.0011,0.07937 0.0011,0.121002 v 0 c 0,0.184503 0.01164,2.057048 0.01164,2.057048 v 0 c 0.187325,-0.643467 0.803275,-0.859014 0.803275,-0.859014 v 0 c 0.423333,-0.138289 0.995891,-0.228248 1.516591,-0.297392 v 0 C 76.85568,53.14986 78.189532,53.00381 78.189532,51.79978 v 0 -2.34562 c -2.132894,0.183092 -4.803774,1.539875 -4.899377,2.837745"
       style="fill:url(#linearGradient3948);stroke:none;stroke-width:0.352778" />
    <g
       id="g3950"
       clip-path="url(#clipPath3951)"
       transform="matrix(0.26458333,0,0,0.26458333,-89.408147,-23.773355)">
      <path
         d="m 0,0 v 0.35 c -3.421,-0.453 -7.015,-0.93 -7.015,-4.257 v -0.35 C -3.596,-3.805 0,-3.328 0,0"
         style="fill:#e9e9e9;fill-opacity:1;fill-rule:nonzero;stroke:none"
         transform="matrix(1.3333333,0,0,-1.3333333,633.44021,285.63501)"
         clip-path="url(#clipPath3949)"
         id="path3950" />
    </g>
    <path
       id="path3952"
       d="m 0,0 v 0.959 h 6.524 c 0.558,0 0.499,-0.41 0.499,-0.41 V 0 Z m 8.627,-6.72 c 0.083,0.057 0.27,0.218 0.27,0.218 -1.299,0.892 -2.162,2.052 -2.516,3.195 0.905,0.504 1.758,1.178 2.13,1.97 H 6.992 C 6.524,-2.046 5.693,-2.598 5.036,-2.918 4.86,-2.138 4.542,-1.413 4.043,-0.899 h 3.159 v 0.32 h 1.412 v 1.11 c 0,0.515 0,1.322 -1.678,1.322 h -2.63 c 0,0.224 -0.172,0.429 -0.567,0.429 H 2.63 V 1.853 h -4.222 v -2.432 h 1.451 v -0.32 h 1.787 c -0.538,-0.438 -1.872,-1.02 -3.296,-1.2 l 0.127,-0.443 c 0.092,-0.331 0.232,-0.319 0.533,-0.282 1.492,0.183 2.711,0.643 3.703,1.203 0.112,-0.137 0.214,-0.28 0.303,-0.435 -0.994,-0.866 -2.779,-1.755 -4.666,-2.076 0,0 0.07,-0.286 0.09,-0.349 0.133,-0.387 0.237,-0.35 0.603,-0.309 1.599,0.18 3.505,0.946 4.401,1.624 0.048,-0.2 0.083,-0.4 0.109,-0.599 -1.162,-1.131 -3.292,-1.981 -5.185,-2.402 0,0 0.051,-0.2 0.086,-0.297 0.128,-0.37 0.203,-0.388 0.564,-0.328 1.892,0.319 3.547,0.883 4.575,1.599 C 3.545,-5.758 3.429,-6.186 3.306,-6.316 3.072,-6.563 2.892,-6.548 2.256,-6.563 1.981,-6.568 1.916,-6.718 1.869,-6.984 L 1.81,-7.32 c 0,0 2.374,-0.438 2.963,0.513 0.329,0.531 0.517,1.714 0.41,2.936 0.041,0.018 0.084,0.035 0.126,0.053 0.443,-1.154 1.282,-2.232 2.528,-2.97 0.383,-0.225 0.471,-0.147 0.79,0.068"
       style="fill:#21235a;fill-opacity:1;fill-rule:nonzero;stroke:none"
       transform="matrix(0.35277776,0,0,-0.35277776,86.886216,49.631678)"
       clip-path="url(#clipPath3953)" />
    <path
       id="path3954"
       d="m 0,0 -0.91,-0.169 v 2.61 H 0 v 0.61 C 0,3.256 -0.13,3.426 -0.445,3.426 H -0.91 v 0.103 0.206 c 0,0.286 -0.172,0.53 -0.65,0.53 H -2.471 V 3.426 H -3.428 V 2.441 h 0.958 v -2.904 l -1.06,-0.201 v -0.943 l 1.06,0.201 v -2.498 c 0,-0.414 -0.092,-0.582 -0.497,-0.602 -0.496,-0.028 -0.498,-0.353 -0.498,-0.903 h 0.634 c 1.309,0 1.921,0.661 1.921,1.801 v 2.497 L 0,-0.939 Z"
       style="fill:#21235a;fill-opacity:1;fill-rule:nonzero;stroke:none"
       transform="matrix(0.35277776,0,0,-0.35277776,95.648123,50.313914)"
       clip-path="url(#clipPath3955)" />
    <path
       id="path3956"
       d="m 0,0 h -2.567 v 1.899 h 2.115 C -0.221,1.899 0,1.867 0,1.412 Z m 0,-2.773 h -2.567 v 1.784 H 0 Z M -4.214,0 h -2.507 v 1.899 h 2.507 z m 0,-2.773 h -2.125 c -0.156,0 -0.382,0.039 -0.382,0.497 v 0.548 0.74 h 2.507 z m 4.135,5.608 h -2.488 v 0.16 0.139 c 0,0.301 -0.184,0.557 -0.688,0.557 H -4.214 V 2.835 h -4.14 v -1.72 -2.843 -0.708 c 0,-0.982 0.802,-1.297 1.71,-1.297 h 2.43 v -0.311 c 0,-1.168 0.821,-1.981 2.222,-1.981 h 3.625 c 0,0.404 0,0.926 -0.445,0.926 h -2.3 c -1.205,0 -1.455,0.427 -1.455,1.009 v 0.357 h 2.402 1.798 v 5.269 c 0,0.98 -0.799,1.299 -1.712,1.299"
       style="fill:#21235a;fill-opacity:1;fill-rule:nonzero;stroke:none"
       transform="matrix(0.35277776,0,0,-0.35277776,93.346282,50.111244)"
       clip-path="url(#clipPath3957)" />
    <path
       id="path3958"
       d="m 0,0 h -5.204 v -0.397 c 0,-0.325 0.138,-0.461 0.413,-0.461 h 1.6 v -1.488 h -1.973 v -0.365 c 0,-0.31 0.073,-0.487 0.405,-0.487 h 1.568 v -2.079 h -2.013 v -0.385 c 0,-0.394 0.155,-0.459 0.414,-0.459 H 0.459 L 0.394,-5.163 C 0.373,-4.914 0.28,-4.67 -0.087,-4.67 h -0.877 l 0.062,-0.607 h -0.734 v 2.079 h 2.057 v 0.299 c 0,0.284 0.044,0.553 -0.426,0.553 h -1.631 v 1.488 h 2.095 v 0.296 C 0.459,-0.352 0.539,0 0,0"
       style="fill:#21235a;fill-opacity:1;fill-rule:nonzero;stroke:none"
       transform="matrix(0.35277776,0,0,-0.35277776,84.903148,49.441848)"
       clip-path="url(#clipPath3959)" />
    <path
       id="path3960"
       d="m 0,0 h -6.346 c -0.151,0 -0.372,0.034 -0.372,0.496 v 3.621 3.634 h 6.264 C -0.219,7.751 0,7.716 0,7.252 Z M -0.074,8.679 H -8.351 V 6.958 4.117 0.339 c 0,-0.981 0.793,-1.299 1.707,-1.299 h 2.544 3.935 1.798 v 8.341 c 0,0.981 -0.798,1.298 -1.707,1.298"
       style="fill:#21235a;fill-opacity:1;fill-rule:nonzero;stroke:none"
       transform="matrix(0.35277776,0,0,-0.35277776,85.250985,51.870794)"
       clip-path="url(#clipPath3961)" />
    <path
       id="path3962"
       d="m 0,0 h 1.61 c 0.337,0 0.398,-0.105 0.398,-0.41 v -0.92 c 0.03,-0.723 0.462,-0.992 1.159,-0.992 h 1.059 v 0.449 c 0,0.442 -0.138,0.481 -0.446,0.481 -0.326,0 -0.321,0.228 -0.321,0.411 v 0.972 c 0,0.515 -0.231,1.02 -1.104,1.02 H -1.447 V 0.139 c 0,-1.042 -0.005,-1.248 -0.291,-1.47 -0.224,-0.175 -0.413,-0.067 -0.413,-0.549 V -2.314 C -0.747,-2.214 0,-1.934 0,0"
       style="fill:#21235a;fill-opacity:1;fill-rule:nonzero;stroke:none"
       transform="matrix(0.35277776,0,0,-0.35277776,96.462687,49.275443)"
       clip-path="url(#clipPath3963)" />
    <path
       id="path3964"
       d="M 0,0 C -0.753,0.196 -1.436,0.47 -2.048,0.836 -0.877,1.723 -0.202,2.792 0.104,3.764 0.232,4.169 0.155,4.76 -0.678,4.76 H -5.885 V 3.83 h 4.373 C -1.862,2.922 -2.417,2.214 -3.107,1.645 -3.557,2.083 -3.95,2.602 -4.272,3.233 H -5.885 C -5.524,2.417 -4.995,1.605 -4.205,0.91 -4.739,0.622 -5.315,0.38 -5.929,0.186 -6.335,0.056 -6.336,0.078 -6.336,-0.489 V -0.87 c 1.277,0.205 2.334,0.565 3.2,1.018 0.892,-0.519 2.012,-0.911 3.432,-1.106 v 0.442 C 0.296,-0.086 0.222,-0.061 0,0"
       style="fill:#21235a;fill-opacity:1;fill-rule:nonzero;stroke:none"
       transform="matrix(0.35277776,0,0,-0.35277776,97.853689,51.915173)"
       clip-path="url(#clipPath3965)" />
    <path
       id="path3966"
       d="M 0,0 H -1.368 V 3.309 H 0 C 1.799,3.309 2.162,2.332 2.162,1.724 2.162,1.115 1.88,0 0,0 m 0.417,4.387 h -4.028 v -8.499 h 2.243 v 3.119 h 1.785 c 3.678,0 3.872,2.061 3.872,2.788 0,0.783 -0.447,2.592 -3.872,2.592"
       style="fill:#21235a;fill-opacity:1;fill-rule:nonzero;stroke:none"
       transform="matrix(0.35277776,0,0,-0.35277776,87.17186,54.688324)"
       clip-path="url(#clipPath3967)" />
    <path
       id="path3968"
       d="M 0,0 C 0.322,-0.032 0.548,-0.04 0.699,0.207 0.774,0.333 1.061,0.913 1.061,0.913 0.697,1.078 0.288,1.2 -0.175,1.272 c -0.456,0.08 -1,0.119 -1.633,0.119 -1.688,0 -3.004,-0.419 -3.945,-1.254 -0.944,-0.843 -1.415,-1.869 -1.415,-3.086 0,-1.239 0.464,-2.276 1.397,-3.1 0.927,-0.829 2.242,-1.238 3.941,-1.238 1.252,0 2.216,0.158 2.891,0.478 0,0 -0.348,0.681 -0.453,0.842 -0.156,0.244 -0.465,0.148 -0.723,0.103 -0.72,-0.137 -2.577,-0.52 -3.756,0.665 -0.562,0.57 -0.861,1.353 -0.861,2.263 0,0.915 0.276,1.728 0.841,2.292 C -2.586,0.655 -0.31,0.031 0,0"
       style="fill:#21235a;fill-opacity:1;fill-rule:nonzero;stroke:none"
       transform="matrix(0.35277776,0,0,-0.35277776,93.54786,53.598629)"
       clip-path="url(#clipPath3969)" />
    <path
       id="path3970"
       d="m 0,0 h -1.195 v -8.511 h 2.391 v 7.668 C 1.196,-0.331 0.861,0 0,0"
       style="fill:#21235a;fill-opacity:1;fill-rule:nonzero;stroke:none"
       transform="matrix(0.35277776,0,0,-0.35277776,89.851983,53.137619)"
       clip-path="url(#clipPath3971)" />
    <path
       id="path3972"
       d="m 0,0 c -0.971,0.272 -1.633,0.515 -1.99,0.733 -0.355,0.217 -0.529,0.488 -0.517,0.816 0.012,0.37 0.2,0.655 0.561,0.861 0.364,0.205 0.867,0.297 1.509,0.276 C -0.013,2.671 0.383,2.622 0.751,2.535 0.905,2.501 1.052,2.462 1.192,2.419 1.517,2.322 1.869,2.45 2.051,2.728 L 2.332,3.154 C 1.982,3.309 1.551,3.435 1.041,3.535 0.528,3.636 -0.069,3.693 -0.753,3.717 -2.024,3.758 -3.055,3.558 -3.842,3.116 -4.631,2.671 -5.037,2.11 -5.058,1.429 -5.076,0.966 -4.869,0.533 -4.444,0.13 c 0.426,-0.402 1.098,-0.732 2.023,-0.99 0.924,-0.26 1.55,-0.498 1.877,-0.723 0.33,-0.222 0.488,-0.49 0.478,-0.801 -0.012,-0.385 -0.226,-0.618 -0.644,-0.836 -0.418,-0.219 -0.97,-0.317 -1.653,-0.295 -0.492,0.017 -0.936,0.067 -1.331,0.152 -0.166,0.037 -0.323,0.073 -0.469,0.116 -0.336,0.095 -0.696,-0.106 -0.883,-0.394 l -0.339,-0.531 c 0.42,-0.173 0.899,-0.306 1.436,-0.401 0.538,-0.094 1.218,-0.154 2.039,-0.181 1.315,-0.041 2.402,0.16 3.265,0.608 0.865,0.444 1.31,1.035 1.331,1.773 0.018,0.488 -0.183,0.938 -0.602,1.348 C 1.665,-0.615 0.972,-0.272 0,0"
       style="fill:#21235a;fill-opacity:1;fill-rule:nonzero;stroke:none"
       transform="matrix(0.35277776,0,0,-0.35277776,84.204576,54.423634)"
       clip-path="url(#clipPath3973)" />
  </g>
</svg>
