<?xml version="1.0" encoding="utf-8"?>
<!-- Generator: Adobe Illustrator 28.0.0, SVG Export Plug-In . SVG Version: 6.00 Build 0)  -->
<svg version="1.1" id="svg1" xmlns:svg="http://www.w3.org/2000/svg"
	 xmlns="http://www.w3.org/2000/svg" xmlns:xlink="http://www.w3.org/1999/xlink" x="0px" y="0px" viewBox="0 0 131.5 27.6"
	 style="enable-background:new 0 0 131.5 27.6;" xml:space="preserve">
<style type="text/css">
	.st0{clip-path:url(#SVGID_00000039097667993752484560000006361623848019373234_);fill:#201F20;}
	
		.st1{clip-path:url(#SVGID_00000055675147301336193810000014187195282639494831_);fill-rule:evenodd;clip-rule:evenodd;fill:#201F20;}
</style>
<g id="layer-MC4" transform="translate(-75.783429,-531.71402)">
	<g>
		<defs>
			<rect id="SVGID_1_" x="-11.3" y="-11.3" width="1610.1" height="1145.2"/>
		</defs>
		<clipPath id="SVGID_00000103967486501054014680000012698174995960777394_">
			<use xlink:href="#SVGID_1_"  style="overflow:visible;"/>
		</clipPath>
		<path id="path856" style="clip-path:url(#SVGID_00000103967486501054014680000012698174995960777394_);fill:#201F20;" d="
			M81,535.5c-0.9,0.6-1.2,1.6-0.8,2.1c0.4,0.5,1.4,0.4,2.3-0.2c0.9-0.6,1.2-1.6,0.8-2.1C82.9,534.8,81.8,534.8,81,535.5 M79.9,549
			c-1.3-0.2-2.5,1-2.7,2.5c-0.2,1.6,0.7,3,2,3.1c1.3,0.2,2.5-1,2.7-2.5C82,550.6,81.2,549.2,79.9,549 M79.1,544.6
			c0.6-1.2,0.5-2.4-0.3-2.9c-0.8-0.4-2,0.1-2.6,1.3c-0.6,1.2-0.5,2.4,0.3,2.9C77.3,546.4,78.5,545.8,79.1,544.6 M97.7,538
			c1.4,0.6,2.9,0.2,3.4-0.8c0.4-1-0.4-2.4-1.8-3c-1.4-0.6-2.9-0.2-3.4,0.8C95.5,536.1,96.3,537.4,97.7,538 M87.4,553
			c-1.6,0-2.9,1.4-2.9,3.2s1.3,3.2,2.9,3.2c1.6,0,2.9-1.4,2.9-3.2S89,553,87.4,553 M89.6,531.7c-1.2,0.2-2.2,0.9-2.1,1.7
			c0.1,0.8,1.2,1.3,2.4,1.1c1.2-0.2,2.2-0.9,2.1-1.7C91.9,532.1,90.8,531.6,89.6,531.7 M103.9,542.5c-1-1.4-2.7-1.8-4-1
			c-1.2,0.8-1.5,2.7-0.5,4c1,1.4,2.7,1.8,4,1C104.6,545.7,104.8,543.9,103.9,542.5 M97.3,549.5c-1.8,0-3.2,1.4-3.2,3.2
			c0,1.8,1.4,3.2,3.2,3.2c1.8,0,3.2-1.4,3.2-3.2C100.5,551,99.1,549.5,97.3,549.5"/>
	</g>
	<g>
		<defs>
			<rect id="SVGID_00000104693894564511135720000012901720107427316898_" x="-11.3" y="-11.3" width="1610.1" height="1145.2"/>
		</defs>
		<clipPath id="SVGID_00000146497925574957687130000000912258295971372950_">
			<use xlink:href="#SVGID_00000104693894564511135720000012901720107427316898_"  style="overflow:visible;"/>
		</clipPath>
		
			<path id="path858" style="clip-path:url(#SVGID_00000146497925574957687130000000912258295971372950_);fill-rule:evenodd;clip-rule:evenodd;fill:#201F20;" d="
			M158.4,546.9v3.5c0,0.7-0.6,1.3-1.3,1.3h-6.2v2c0,1-0.8,1.8-1.8,1.8h-2.9l0-1.9h1.6v-1.9h-6.2c-0.7,0-1.3-0.6-1.3-1.3v-3.4H158.4z
			 M145,552.5l-1.9,2.8h-3.4l1.9-2.8H145z M157.1,552.5l1.9,2.8h-3.4l-1.9-2.8H157.1z M155.6,548.7h-12.5l0,0.9h12.5L155.6,548.7z
			 M143.1,541.5h12.5v-0.9h-12.5V541.5z M143.1,539h12.5V538h-12.5V539z M150.9,543.1h6.2c0.7,0,1.3-0.6,1.3-1.3v-5.3h-18.1v5.3
			c0,0.7,0.6,1.3,1.3,1.3h6.2v0.9h-8.1v1.9H159V544h-8.1V543.1z M115.8,539h4v-2.5h-4V539z M119.9,541.8v7.4c0,1.8,1.3,3.7,3.3,3.7
			h11.7v2.5h-12.4c-1.6,0-3-0.7-4-1.8c-0.4,0.4-1.4,1.4-2.9,1.8v-2.8l0,0c0.1,0,1-0.3,1.7-1.3c-0.1-0.4-0.2-0.9-0.2-1.4v-5.6h-1.5
			v-2.5H119.9z M134.8,541.8v2.5h-2.5v4.7h2.5v2.5h-3.6c-1,0-1.7-0.8-1.7-1.8v-5.5l-2.5,0c0,3.2-1.6,5.7-4,7.3l-1.9-1.9
			c2-1.4,3.1-3.1,3.1-5.3l-2.5,0v-2.5H134.8z M122.4,539.3h11.8v-2.5h-11.8V539.3z M200.9,536.1v5.5c0,0.8,0.6,1.4,1.4,1.4h5v2.2
			h-5.6c-1.9,0-3.5-1.6-3.5-3.5v-5.7H200.9z M207,537l-2.6,4.5h-3.1l2.6-4.5H207z M194.1,537l0.3,2.8H191l0.9-3.7h-3l-0.9,3.7h0
			c-0.2,1,0.5,1.9,1.5,1.9h7.9l-0.5-4.7H194.1z M191,549.7h3.7v-1.6H191V549.7z M191,546h3.7v-1.6H191V546z M188.3,542.4v13h2.7
			v-3.7h3.7v1.6h-2.4v2l3.3,0c1,0,1.8-0.8,1.8-1.8v-11.2H188.3z M200.9,545.6v6.1c0,0.8,0.6,1.4,1.4,1.4h5v2.2h-5.6
			c-1.9,0-3.5-1.6-3.5-3.5v-6.2H200.9z M207,547l-2.6,4.5h-3.1l2.6-4.5H207z M177.2,544.4h3v-5.7h-3V544.4z M174.5,536.8v8.2
			c0,0.7,0.6,1.3,1.3,1.3h5.7c0.7,0,1.3-0.6,1.3-1.3v-8.2H174.5z M172.7,543.1l1.6,3.2h-2.8l-1.6-3.2H172.7z M167,536.5l-0.1,0.3
			h6.7v1.9h-3.4l0,1.7c0,0.1,0,0.1,0,0.2h3.6v1.9h-4.1c-0.1,0.2-0.2,0.3-0.3,0.5l-2.3,3.4h-3l2.6-3.8h-2.9v-1.9h3.9
			c0-0.1,0-0.1,0-0.2l0-1.7h-1.2l-0.2,1.2h-2.6l0.6-3.4H167z M167.5,553.4h11.9v-1.3h-11.9V553.4z M167.5,550.1h11.9v-1.3h-11.9
			V550.1z M164.8,546.9v6.7c0,1,0.8,1.8,1.8,1.8h13.9c1,0,1.8-0.8,1.8-1.8v-6.7H164.8z"/>
	</g>
</g>
</svg>
