<?xml version="1.0" encoding="utf-8"?>
<!-- Generator: Adobe Illustrator 28.0.0, SVG Export Plug-In . SVG Version: 6.00 Build 0)  -->
<svg version="1.1" id="svg1" xmlns:svg="http://www.w3.org/2000/svg"
	 xmlns="http://www.w3.org/2000/svg" xmlns:xlink="http://www.w3.org/1999/xlink" x="0px" y="0px" viewBox="0 0 75.6 26.3"
	 style="enable-background:new 0 0 75.6 26.3;" xml:space="preserve">
<style type="text/css">
	.st0{clip-path:url(#SVGID_00000173122290252584300850000009542937251399931069_);fill:#0F0F0F;}
	.st1{clip-path:url(#SVGID_00000047770690052636754760000007006999050296242564_);fill:#0F0F0F;}
	.st2{clip-path:url(#SVGID_00000157288634249207113860000002016019633579215240_);fill:#0F0F0F;}
	.st3{clip-path:url(#SVGID_00000022533463262400468400000001796514992823304091_);fill:#0F0F0F;}
	.st4{clip-path:url(#SVGID_00000139982932385545409380000001641103595165690508_);fill:#0F0F0F;}
</style>
<g id="layer1" transform="translate(-88.997192,-91.336805)">
	<g>
		<defs>
			<rect id="SVGID_1_" x="-182.1" y="-364.3" width="1207.6" height="858.9"/>
		</defs>
		<clipPath id="SVGID_00000165212333706808290210000002877332331407684770_">
			<use xlink:href="#SVGID_1_"  style="overflow:visible;"/>
		</clipPath>
		<path id="path902" style="clip-path:url(#SVGID_00000165212333706808290210000002877332331407684770_);fill:#0F0F0F;" d="
			M98.6,92.1c1.8-0.6,3.7-0.9,5.6-0.7c1,0.1,2,0.3,3,0.5c0.2,0.1,0.5,0.2,0.8,0.2c0.1,0.1,0.2,0.1,0.4,0.1c0.9,0.4,1.7,0.8,2.5,1.3
			c2,1.3,3.6,3,4.7,5.1c0.5,0.8,0.8,1.6,1.1,2.4c0.4,1.2,0.6,2.5,0.7,3.7c0,0.2,0.1,0.5,0,0.7c-1.6,0-3.1,0-4.7,0
			c-0.7,0-1.3,0-2-0.1c-0.4-0.1-0.8-0.4-1-0.8c-0.1-0.2-0.2-0.4-0.2-0.6c-0.1-0.2-0.2-0.5-0.3-0.7c-0.1-0.1-0.1-0.2-0.2-0.4
			c0-0.1-0.1-0.1-0.1-0.2c-0.1-0.1-0.1-0.2-0.2-0.3c-1-1.8-2.9-3.1-5-3.3c-0.5,0-0.9,0-1.4,0c-1.9,0.2-3.6,1.3-4.6,3
			c-0.4,0.7-0.7,1.4-0.9,2.2c-0.1,0.4-0.4,0.8-0.8,1c-0.3,0.1-0.7,0.2-1,0.2c-2,0-4,0-6,0c0-0.7,0.1-1.4,0.1-2.1
			c0.3-1.8,0.8-3.5,1.8-5.1C92.6,95.5,95.4,93.1,98.6,92.1"/>
	</g>
	<g>
		<defs>
			<rect id="SVGID_00000108277757133810932840000009587809166863094206_" x="-182.1" y="-364.3" width="1207.6" height="858.9"/>
		</defs>
		<clipPath id="SVGID_00000142857551440480388040000013331810938335889583_">
			<use xlink:href="#SVGID_00000108277757133810932840000009587809166863094206_"  style="overflow:visible;"/>
		</clipPath>
		<path id="path904" style="clip-path:url(#SVGID_00000142857551440480388040000013331810938335889583_);fill:#0F0F0F;" d="
			M155,101.9c-0.8,0.4-1.4,1-1.8,1.8c-0.4,0.8-0.6,1.7-0.4,2.5c0.1,0.6,0.3,1.2,0.7,1.7c0.5,0.6,1.1,1.1,1.8,1.4
			c0.9,0.4,2,0.4,2.9,0c1.1-0.4,2.1-1.3,2.4-2.5c0.2-0.7,0.3-1.5,0.1-2.2c-0.2-1-0.9-1.9-1.7-2.5C157.8,101.3,156.3,101.2,155,101.9
			 M156.2,97.8c0.4,0,0.7-0.1,1.1,0c1.4,0.1,2.7,0.5,3.8,1.2c1,0.7,1.9,1.6,2.5,2.6c1.1,1.9,1.4,4.2,0.7,6.2
			c-0.5,1.7-1.7,3.2-3.3,4.2c-1.7,1.1-3.9,1.5-5.9,1c-0.2-0.1-0.4-0.1-0.6-0.1c-0.6-0.2-1.1-0.4-1.6-0.7c-0.6-0.3-1.2-0.8-1.7-1.3
			c-0.6-0.6-1.1-1.3-1.5-2.1c0-0.1-0.1-0.2-0.1-0.2c-0.7-1.6-0.8-3.5-0.3-5.2c0.5-1.6,1.4-3,2.7-3.9
			C153.2,98.4,154.7,97.8,156.2,97.8"/>
	</g>
	<g>
		<defs>
			<rect id="SVGID_00000111179818126479365310000013181194592173295778_" x="-182.1" y="-364.3" width="1207.6" height="858.9"/>
		</defs>
		<clipPath id="SVGID_00000116207458488440178320000013449210139574348222_">
			<use xlink:href="#SVGID_00000111179818126479365310000013181194592173295778_"  style="overflow:visible;"/>
		</clipPath>
		<path id="path906" style="clip-path:url(#SVGID_00000116207458488440178320000013449210139574348222_);fill:#0F0F0F;" d="
			M125.1,98.3c0-0.1,0-0.1,0-0.2c0.8,0,1.6,0,2.5,0c0.3,0,0.6,0,0.9,0.1c0.4,0.2,0.7,0.5,1,0.8c2.3,2.7,4.6,5.3,7,8
			c0.1,0,0.1,0.1,0.2,0.1c0-2.6,0-5.3,0-7.9c0-0.5,0.4-0.9,0.9-1c0.9,0,1.9,0,2.8,0c0,4.9,0,9.8,0,14.7c-0.9,0-1.9,0-2.8,0
			c-0.3,0-0.6-0.1-0.8-0.2c-0.5-0.3-0.8-0.7-1.1-1.1c-2.1-2.4-4.3-4.9-6.4-7.3c-0.1-0.1-0.2-0.3-0.4-0.3c0,2.6,0,5.1,0,7.7
			c0,0.2,0,0.5-0.1,0.7c-0.2,0.4-0.6,0.6-1.1,0.6c-0.8,0-1.7-0.1-2.5,0c0-0.1,0-0.2,0-0.3C125.1,107.8,125.1,103.1,125.1,98.3"/>
	</g>
	<g>
		<defs>
			<rect id="SVGID_00000169524890995235298830000016907385248080559253_" x="-182.1" y="-364.3" width="1207.6" height="858.9"/>
		</defs>
		<clipPath id="SVGID_00000092435042871598951670000003490100655654660774_">
			<use xlink:href="#SVGID_00000169524890995235298830000016907385248080559253_"  style="overflow:visible;"/>
		</clipPath>
		<path id="path908" style="clip-path:url(#SVGID_00000092435042871598951670000003490100655654660774_);fill:#0F0F0F;" d="
			M143,99.1c0-0.5,0.5-0.9,1-0.9c0.9,0,1.8,0,2.7,0c0,4.9,0,9.8,0,14.7c-0.2,0-0.4,0-0.6,0c-0.4,0-0.8,0-1.1,0c-0.7,0-1.3,0-2,0
			c0-2.5,0-5.1,0-7.6C143,103.2,143,101.1,143,99.1"/>
	</g>
	<g>
		<defs>
			<rect id="SVGID_00000132051059394035066140000001492822613617251749_" x="-182.1" y="-364.3" width="1207.6" height="858.9"/>
		</defs>
		<clipPath id="SVGID_00000005986769654167659100000017914587858243433148_">
			<use xlink:href="#SVGID_00000132051059394035066140000001492822613617251749_"  style="overflow:visible;"/>
		</clipPath>
		<path id="path910" style="clip-path:url(#SVGID_00000005986769654167659100000017914587858243433148_);fill:#0F0F0F;" d="
			M97.7,105.5c2.5,0,5.1,0,7.6,0c1.3,0,2.6,0,3.9,0c0.2,0,0.4,0.1,0.5,0.2c0.5,0.4,1,1,1.5,1.4c0.6,0.6,1.2,1.3,1.9,1.9
			c0.8,0.8,1.6,1.6,2.4,2.4c0.1,0.1,0.4,0.3,0.3,0.5c-0.6,1.2-1.4,2.3-2.3,3.3c-0.8,0.8-1.6,1.5-2.5,2.1c-0.2,0.1-0.3,0.3-0.5,0.3
			c-0.4-0.5-0.9-0.9-1.4-1.4c-1.6-1.6-3.2-3.2-4.8-4.8c-0.3-0.3-0.6-0.6-1-0.7c-0.2-0.1-0.4,0-0.5,0.1c-0.3,0.2-0.6,0.5-0.9,0.7
			c-1.8,1.8-3.7,3.7-5.5,5.5c-0.2,0.2-0.4,0.4-0.6,0.6c-0.8-0.5-1.6-1-2.2-1.7c-0.4-0.4-0.8-0.8-1.2-1.2c-0.4-0.5-0.7-0.9-1.1-1.4
			c-0.3-0.4-0.5-0.9-0.8-1.3c0,0,0-0.1,0-0.1c0.6-0.7,1.3-1.3,2-2c1.1-1.1,2.2-2.2,3.3-3.3c0.3-0.3,0.6-0.6,1-0.8
			C97,105.5,97.4,105.5,97.7,105.5"/>
	</g>
</g>
</svg>
