<?xml version="1.0" encoding="UTF-8" standalone="no"?>
<!-- Created with Inkscape (http://www.inkscape.org/) -->

<svg
   width="57.039337mm"
   height="8.2183132mm"
   viewBox="0 0 57.039337 8.2183132"
   version="1.1"
   id="svg1"
   xmlns="http://www.w3.org/2000/svg"
   xmlns:svg="http://www.w3.org/2000/svg">
  <defs
     id="defs1">
    <clipPath
       clipPathUnits="userSpaceOnUse"
       id="clipPath2040">
      <path
         d="M 0,858.898 H 1207.558 V 0 H 0 Z"
         transform="translate(-402.79861,-272.07791)"
         id="path2040" />
    </clipPath>
    <clipPath
       clipPathUnits="userSpaceOnUse"
       id="clipPath2042">
      <path
         d="M 0,858.898 H 1207.558 V 0 H 0 Z"
         transform="translate(-396.01981,-283.98141)"
         id="path2042" />
    </clipPath>
    <clipPath
       clipPathUnits="userSpaceOnUse"
       id="clipPath2044">
      <path
         d="M 0,858.898 H 1207.558 V 0 H 0 Z"
         transform="translate(2.5000001e-7,-3.5000001e-5)"
         id="path2044" />
    </clipPath>
    <clipPath
       clipPathUnits="userSpaceOnUse"
       id="clipPath2046">
      <path
         d="M 0,858.898 H 1207.558 V 0 H 0 Z"
         transform="translate(-393.11831,-278.99601)"
         id="path2046" />
    </clipPath>
    <clipPath
       clipPathUnits="userSpaceOnUse"
       id="clipPath2048">
      <path
         d="M 0,858.898 H 1207.558 V 0 H 0 Z"
         transform="translate(-400.21921,-278.688)"
         id="path2048" />
    </clipPath>
    <clipPath
       clipPathUnits="userSpaceOnUse"
       id="clipPath2050">
      <path
         d="M 0,858.898 H 1207.558 V 0 H 0 Z"
         transform="translate(-403.99951,-274.08101)"
         id="path2050" />
    </clipPath>
    <clipPath
       clipPathUnits="userSpaceOnUse"
       id="clipPath2052">
      <path
         d="M 0,858.898 H 1207.558 V 0 H 0 Z"
         transform="translate(-404.38581,-274.0959)"
         id="path2052" />
    </clipPath>
    <clipPath
       clipPathUnits="userSpaceOnUse"
       id="clipPath2054">
      <path
         d="M 0,858.898 H 1207.558 V 0 H 0 Z"
         transform="translate(-405.60371,-274.1103)"
         id="path2054" />
    </clipPath>
    <clipPath
       clipPathUnits="userSpaceOnUse"
       id="clipPath2056">
      <path
         d="M 0,858.898 H 1207.558 V 0 H 0 Z"
         transform="translate(2.5000001e-7,-3.5000001e-5)"
         id="path2056" />
    </clipPath>
    <clipPath
       clipPathUnits="userSpaceOnUse"
       id="clipPath2058">
      <path
         d="M 0,858.898 H 1207.558 V 0 H 0 Z"
         transform="translate(-436.71331,-278.43551)"
         id="path2058" />
    </clipPath>
    <clipPath
       clipPathUnits="userSpaceOnUse"
       id="clipPath2060">
      <path
         d="M 0,858.898 H 1207.558 V 0 H 0 Z"
         transform="translate(-457.02441,-275.5914)"
         id="path2060" />
    </clipPath>
    <clipPath
       clipPathUnits="userSpaceOnUse"
       id="clipPath2062">
      <path
         d="M 0,858.898 H 1207.558 V 0 H 0 Z"
         transform="translate(-473.70311,-275.45231)"
         id="path2062" />
    </clipPath>
    <clipPath
       clipPathUnits="userSpaceOnUse"
       id="clipPath2064">
      <path
         d="M 0,858.898 H 1207.558 V 0 H 0 Z"
         transform="translate(-493.08671,-276.48791)"
         id="path2064" />
    </clipPath>
    <clipPath
       clipPathUnits="userSpaceOnUse"
       id="clipPath2066">
      <path
         d="M 0,858.898 H 1207.558 V 0 H 0 Z"
         transform="translate(-497.86331,-278.40461)"
         id="path2066" />
    </clipPath>
    <clipPath
       clipPathUnits="userSpaceOnUse"
       id="clipPath2068">
      <path
         d="M 0,858.898 H 1207.558 V 0 H 0 Z"
         transform="translate(-525.31561,-277.36901)"
         id="path2068" />
    </clipPath>
    <clipPath
       clipPathUnits="userSpaceOnUse"
       id="clipPath2070">
      <path
         d="M 0,858.898 H 1207.558 V 0 H 0 Z"
         transform="translate(-538.87191,-283.3509)"
         id="path2070" />
    </clipPath>
    <clipPath
       clipPathUnits="userSpaceOnUse"
       id="clipPath2072">
      <path
         d="M 0,858.898 H 1207.558 V 0 H 0 Z"
         transform="translate(-413.51601,-269.07551)"
         id="path2072" />
    </clipPath>
    <clipPath
       clipPathUnits="userSpaceOnUse"
       id="clipPath2074">
      <path
         d="M 0,858.898 H 1207.558 V 0 H 0 Z"
         transform="translate(-418.67941,-272.15021)"
         id="path2074" />
    </clipPath>
    <clipPath
       clipPathUnits="userSpaceOnUse"
       id="clipPath2076">
      <path
         d="M 0,858.898 H 1207.558 V 0 H 0 Z"
         transform="translate(2.5000001e-7,-3.5000001e-5)"
         id="path2076" />
    </clipPath>
    <clipPath
       clipPathUnits="userSpaceOnUse"
       id="clipPath2078">
      <path
         d="M 0,858.898 H 1207.558 V 0 H 0 Z"
         transform="translate(-425.48271,-270.34121)"
         id="path2078" />
    </clipPath>
    <clipPath
       clipPathUnits="userSpaceOnUse"
       id="clipPath2080">
      <path
         d="M 0,858.898 H 1207.558 V 0 H 0 Z"
         transform="translate(-432.46911,-267.4023)"
         id="path2080" />
    </clipPath>
    <clipPath
       clipPathUnits="userSpaceOnUse"
       id="clipPath2082">
      <path
         d="M 0,858.898 H 1207.558 V 0 H 0 Z"
         transform="translate(-439.76201,-266.98761)"
         id="path2082" />
    </clipPath>
    <clipPath
       clipPathUnits="userSpaceOnUse"
       id="clipPath2084">
      <path
         d="M 0,858.898 H 1207.558 V 0 H 0 Z"
         transform="translate(-445.35261,-267.4023)"
         id="path2084" />
    </clipPath>
    <clipPath
       clipPathUnits="userSpaceOnUse"
       id="clipPath2086">
      <path
         d="M 0,858.898 H 1207.558 V 0 H 0 Z"
         transform="translate(-447.52631,-267.65981)"
         id="path2086" />
    </clipPath>
    <clipPath
       clipPathUnits="userSpaceOnUse"
       id="clipPath2088">
      <path
         d="M 0,858.898 H 1207.558 V 0 H 0 Z"
         transform="translate(-450.43991,-267.65981)"
         id="path2088" />
    </clipPath>
    <clipPath
       clipPathUnits="userSpaceOnUse"
       id="clipPath2090">
      <path
         d="M 0,858.898 H 1207.558 V 0 H 0 Z"
         transform="translate(-455.82461,-268.71081)"
         id="path2090" />
    </clipPath>
    <clipPath
       clipPathUnits="userSpaceOnUse"
       id="clipPath2092">
      <path
         d="M 0,858.898 H 1207.558 V 0 H 0 Z"
         transform="translate(-457.49491,-270.34121)"
         id="path2092" />
    </clipPath>
    <clipPath
       clipPathUnits="userSpaceOnUse"
       id="clipPath2094">
      <path
         d="M 0,858.898 H 1207.558 V 0 H 0 Z"
         transform="translate(-460.07271,-264.86391)"
         id="path2094" />
    </clipPath>
    <clipPath
       clipPathUnits="userSpaceOnUse"
       id="clipPath2096">
      <path
         d="M 0,858.898 H 1207.558 V 0 H 0 Z"
         transform="translate(2.5000001e-7,-3.5000001e-5)"
         id="path2096" />
    </clipPath>
    <clipPath
       clipPathUnits="userSpaceOnUse"
       id="clipPath2098">
      <path
         d="M 0,858.898 H 1207.558 V 0 H 0 Z"
         transform="translate(-470.97421,-270.34121)"
         id="path2098" />
    </clipPath>
    <clipPath
       clipPathUnits="userSpaceOnUse"
       id="clipPath2100">
      <path
         d="M 0,858.898 H 1207.558 V 0 H 0 Z"
         transform="translate(-478.29611,-267.44531)"
         id="path2100" />
    </clipPath>
    <clipPath
       clipPathUnits="userSpaceOnUse"
       id="clipPath2102">
      <path
         d="M 0,858.898 H 1207.558 V 0 H 0 Z"
         transform="translate(-480.38601,-267.8814)"
         id="path2102" />
    </clipPath>
    <clipPath
       clipPathUnits="userSpaceOnUse"
       id="clipPath2104">
      <path
         d="M 0,858.898 H 1207.558 V 0 H 0 Z"
         transform="translate(-484.64181,-266.90181)"
         id="path2104" />
    </clipPath>
    <clipPath
       clipPathUnits="userSpaceOnUse"
       id="clipPath2106">
      <path
         d="M 0,858.898 H 1207.558 V 0 H 0 Z"
         transform="translate(-488.83671,-267.65981)"
         id="path2106" />
    </clipPath>
    <clipPath
       clipPathUnits="userSpaceOnUse"
       id="clipPath2108">
      <path
         d="M 0,858.898 H 1207.558 V 0 H 0 Z"
         transform="translate(-491.62821,-270.34121)"
         id="path2108" />
    </clipPath>
    <clipPath
       clipPathUnits="userSpaceOnUse"
       id="clipPath2110">
      <path
         d="M 0,858.898 H 1207.558 V 0 H 0 Z"
         transform="translate(-494.20601,-264.86391)"
         id="path2110" />
    </clipPath>
    <clipPath
       clipPathUnits="userSpaceOnUse"
       id="clipPath2112">
      <path
         d="M 0,858.898 H 1207.558 V 0 H 0 Z"
         transform="translate(-504.58032,-268.58931)"
         id="path2112" />
    </clipPath>
    <clipPath
       clipPathUnits="userSpaceOnUse"
       id="clipPath2114">
      <path
         d="M 0,858.898 H 1207.558 V 0 H 0 Z"
         transform="translate(-506.33451,-266.90181)"
         id="path2114" />
    </clipPath>
    <clipPath
       clipPathUnits="userSpaceOnUse"
       id="clipPath2116">
      <path
         d="M 0,858.898 H 1207.558 V 0 H 0 Z"
         transform="translate(-509.94201,-266.90181)"
         id="path2116" />
    </clipPath>
    <clipPath
       clipPathUnits="userSpaceOnUse"
       id="clipPath2118">
      <path
         d="M 0,858.898 H 1207.558 V 0 H 0 Z"
         transform="translate(-516.82921,-268.3962)"
         id="path2118" />
    </clipPath>
    <clipPath
       clipPathUnits="userSpaceOnUse"
       id="clipPath2120">
      <path
         d="M 0,858.898 H 1207.558 V 0 H 0 Z"
         transform="translate(-518.36221,-268.3962)"
         id="path2120" />
    </clipPath>
    <clipPath
       clipPathUnits="userSpaceOnUse"
       id="clipPath2122">
      <path
         d="M 0,858.898 H 1207.558 V 0 H 0 Z"
         transform="translate(2.5000001e-7,-3.5000001e-5)"
         id="path2122" />
    </clipPath>
    <clipPath
       clipPathUnits="userSpaceOnUse"
       id="clipPath2124">
      <path
         d="M 0,858.898 H 1207.558 V 0 H 0 Z"
         transform="translate(-527.01882,-267.4023)"
         id="path2124" />
    </clipPath>
    <clipPath
       clipPathUnits="userSpaceOnUse"
       id="clipPath2126">
      <path
         d="M 0,858.898 H 1207.558 V 0 H 0 Z"
         transform="translate(-529.19251,-267.65981)"
         id="path2126" />
    </clipPath>
    <clipPath
       clipPathUnits="userSpaceOnUse"
       id="clipPath2128">
      <path
         d="M 0,858.898 H 1207.558 V 0 H 0 Z"
         transform="translate(2.5000001e-7,-3.5000001e-5)"
         id="path2128" />
    </clipPath>
    <clipPath
       clipPathUnits="userSpaceOnUse"
       id="clipPath2130">
      <path
         d="M 0,858.898 H 1207.558 V 0 H 0 Z"
         transform="translate(-536.93401,-268.3962)"
         id="path2130" />
    </clipPath>
    <clipPath
       clipPathUnits="userSpaceOnUse"
       id="clipPath2132">
      <path
         d="M 0,858.898 H 1207.558 V 0 H 0 Z"
         transform="translate(-538.77972,-270.34121)"
         id="path2132" />
    </clipPath>
  </defs>
  <g
     id="layer1"
     transform="translate(-128.01884,-131.96575)">
    <path
       id="path2039"
       d="m 0,0 c -1.589,-2.662 -4.542,-4.451 -7.924,-4.451 -5.063,0 -9.167,4.011 -9.167,8.958 0,4.948 4.104,8.958 9.167,8.958 3.311,0 6.211,-1.714 7.822,-4.284 h 1.315 c -1.859,3.796 -5.905,6.427 -10.597,6.427 -6.454,0 -11.685,-4.976 -11.685,-11.115 0,-6.138 5.231,-11.114 11.685,-11.114 4.772,0 8.875,2.721 10.69,6.621 z"
       style="fill:#3b8b42;fill-opacity:1;fill-rule:nonzero;stroke:none"
       transform="matrix(0.35277776,0,0,-0.35277776,135.45153,137.61123)"
       clip-path="url(#clipPath2040)" />
    <path
       id="path2041"
       d="m 0,0 -1.122,-1.989 4.765,1.399 -6.459,-3.716 0.751,1.446 -4.886,-1.344 z"
       style="fill:#b8b9b8;fill-opacity:1;fill-rule:nonzero;stroke:none"
       transform="matrix(0.35277776,0,0,-0.35277776,133.06012,133.41194)"
       clip-path="url(#clipPath2042)" />
    <path
       id="path2043"
       d="m 390.61,274.096 h -2.259 v 4.885 h 2.259 z"
       style="fill:#3b8b42;fill-opacity:1;fill-rule:nonzero;stroke:none"
       transform="matrix(0.35277776,0,0,-0.35277776,-6.6468634,233.59425)"
       clip-path="url(#clipPath2044)" />
    <path
       id="path2045"
       d="m 0,0 c 0,0 0.66,-0.323 0.66,-1.144 0,-0.822 -0.557,-1.218 -0.557,-1.218 0,0 0.469,-0.646 0.469,-1.291 0,-0.881 -0.719,-1.218 -0.719,-1.218 H -1.819 L -1.893,0 Z"
       style="fill:#3b8b42;fill-opacity:1;fill-rule:nonzero;stroke:none"
       transform="matrix(0.35277776,0,0,-0.35277776,132.03654,135.17068)"
       clip-path="url(#clipPath2046)" />
    <path
       id="path2047"
       d="M 0,0 V 0.323 H -5.34 V 0 h 1.305 V -4.284 H -5.34 V -4.607 H 0 v 0.323 H -1.555 V 0 Z"
       style="fill:#3b8b42;fill-opacity:1;fill-rule:nonzero;stroke:none"
       transform="matrix(0.35277776,0,0,-0.35277776,134.54157,135.27933)"
       clip-path="url(#clipPath2048)" />
    <path
       id="path2049"
       d="m 0,0 h -2.465 l 1.477,4.959 h 2.465 z"
       style="fill:#3b8b42;fill-opacity:1;fill-rule:nonzero;stroke:none"
       transform="matrix(0.35277776,0,0,-0.35277776,135.87518,136.90458)"
       clip-path="url(#clipPath2050)" />
    <path
       id="path2051"
       d="M 0,0 H 0.895 L 0.514,1.643 Z"
       style="fill:#3b8b42;fill-opacity:1;fill-rule:nonzero;stroke:none"
       transform="matrix(0.35277776,0,0,-0.35277776,136.01146,136.89932)"
       clip-path="url(#clipPath2052)" />
    <path
       id="path2053"
       d="M 0,0 H 1.555 L 0.147,4.46 -0.587,2.01 Z"
       style="fill:#3b8b42;fill-opacity:1;fill-rule:nonzero;stroke:none"
       transform="matrix(0.35277776,0,0,-0.35277776,136.44111,136.89424)"
       clip-path="url(#clipPath2054)" />
    <path
       id="path2055"
       d="m 423.683,283.521 h -3.493 v -3.323 h 3.493 z m -5.441,0 h -3.478 v -3.323 h 3.478 z m 7.373,1.808 v -7.713 h -1.932 v 0.773 h -3.494 v -4.822 h -1.947 v 4.822 h -3.478 v -0.85 h -1.855 v 7.79 h 5.333 v 2.675 h 1.947 v -2.675 z"
       style="fill:#2e396f;fill-opacity:1;fill-rule:nonzero;stroke:none"
       transform="matrix(0.35277776,0,0,-0.35277776,-6.6468634,233.59425)"
       clip-path="url(#clipPath2056)" />
    <path
       id="path2057"
       d="M 0,0 H 1.546 C 1.283,0.417 0.85,0.943 0.495,1.345 L 1.438,1.824 H 0 Z M 3.2,0 V -1.499 H -4.807 V 0 H -1.7 V 1.824 H -4.251 V 3.37 H -1.7 V 4.823 H -4.637 V 6.43 H 2.952 V 4.823 H 0 V 3.37 H 2.612 V 1.824 H 1.762 C 2.18,1.391 2.674,0.819 2.921,0.448 L 2.118,0 Z M 3.741,7.28 H -5.41 V -2.396 H 3.741 Z M 5.704,8.965 V -4.869 H 3.741 v 0.773 H -5.41 V -4.869 H -7.28 V 8.965 Z"
       style="fill:#2e396f;fill-opacity:1;fill-rule:nonzero;stroke:none"
       transform="matrix(0.35277776,0,0,-0.35277776,147.41588,135.36841)"
       clip-path="url(#clipPath2058)" />
    <path
       id="path2059"
       d="M 0,0 C 0.726,0 0.912,0.402 1.051,1.979 H -3.493 V 1.113 C -3.493,0.155 -3.385,0 -2.535,0 Z m -3.493,3.772 h 2.999 V 5.21 h -2.999 z m 0,3.122 h 2.999 V 8.393 H -3.493 Z M -5.472,5.209 H -8.471 V 3.771 h 2.999 z m -2.999,1.685 h 2.999 V 8.393 H -8.471 Z M 1.391,2.056 C 1.855,1.809 2.442,1.561 2.89,1.468 2.628,-0.958 2.071,-1.855 0.185,-1.855 h -2.936 c -2.118,0 -2.721,0.634 -2.721,2.983 V 1.979 H -8.471 V 1.067 h -1.901 v 9.119 h 4.9 v 2.149 h 1.979 v -2.149 h 4.884 z"
       style="fill:#2e396f;fill-opacity:1;fill-rule:nonzero;stroke:none"
       transform="matrix(0.35277776,0,0,-0.35277776,154.58119,136.37174)"
       clip-path="url(#clipPath2060)" />
    <path
       id="path2061"
       d="M 0,0 C 0.912,0 1.067,0.371 1.206,2.102 1.638,1.824 2.38,1.515 2.89,1.407 2.659,-0.897 2.087,-1.685 0.139,-1.685 h -3.462 c -2.195,0 -2.829,0.588 -2.829,2.767 V 5.194 L -7.064,4.838 -7.79,6.461 -6.152,7.095 v 3.833 h 1.824 V 7.821 l 1.499,0.572 v 4.096 H -1.02 V 9.104 L 0.603,9.738 0.757,9.846 1.082,10.094 2.38,9.599 2.319,9.321 C 2.303,6.6 2.272,4.761 2.18,4.096 2.118,3.308 1.824,2.906 1.314,2.69 0.835,2.458 0.093,2.442 -0.464,2.442 -0.495,2.983 -0.665,3.756 -0.866,4.173 -0.541,4.158 -0.108,4.158 0.077,4.158 c 0.201,0 0.325,0.046 0.387,0.355 0.046,0.279 0.077,1.283 0.092,3.339 L -1.02,7.234 V 1.778 H -2.829 V 6.507 L -4.328,5.92 V 1.067 C -4.328,0.139 -4.173,0 -3.169,0 Z m -7.991,9.398 c -0.557,0.51 -1.778,1.221 -2.721,1.638 l 1.005,1.361 c 0.943,-0.371 2.179,-0.99 2.798,-1.484 z m -3.076,-9.862 c 0.757,1.16 1.839,3.076 2.658,4.869 l 1.438,-1.159 c -0.742,-1.623 -1.623,-3.37 -2.473,-4.869 z m 2.179,5.673 C -9.46,5.704 -10.65,6.384 -11.593,6.77 l 0.958,1.391 c 0.912,-0.34 2.149,-0.942 2.752,-1.437 z"
       style="fill:#2e396f;fill-opacity:1;fill-rule:nonzero;stroke:none"
       transform="matrix(0.35277776,0,0,-0.35277776,160.46506,136.42081)"
       clip-path="url(#clipPath2062)" />
    <path
       id="path2063"
       d="M 0,0 V -1.855 H -14.051 V 0 h 5.89 v 7.991 h -5.055 v 1.917 h 12.35 V 7.991 H -6.059 V 0 Z"
       style="fill:#2e396f;fill-opacity:1;fill-rule:nonzero;stroke:none"
       transform="matrix(0.35277776,0,0,-0.35277776,167.30317,136.05548)"
       clip-path="url(#clipPath2064)" />
    <path
       id="path2065"
       d="M 0,0 C -0.34,1.484 -1.144,3.957 -1.855,5.858 L -0.17,6.353 C 0.556,4.544 1.453,2.118 1.839,0.649 Z M 11.778,-2.288 V -4.127 H -2.04 v 1.839 H 1.948 V 9.398 H 3.849 V -2.288 H 5.874 V 9.398 H 7.775 V 0.881 c 0.773,1.468 1.7,3.663 2.21,5.426 L 11.639,5.518 C 10.959,3.571 9.985,1.391 9.182,-0.093 L 7.775,0.618 v -2.906 z"
       style="fill:#2e396f;fill-opacity:1;fill-rule:nonzero;stroke:none"
       transform="matrix(0.35277776,0,0,-0.35277776,168.98824,135.37931)"
       clip-path="url(#clipPath2066)" />
    <path
       id="path2067"
       d="m 0,0 c -0.108,0.85 -0.386,2.164 -0.68,3.385 -0.108,-3.957 -0.278,-5.549 -0.711,-6.136 -0.356,-0.541 -0.727,-0.696 -1.268,-0.804 -0.494,-0.093 -1.298,-0.077 -2.086,-0.047 -0.031,0.511 -0.248,1.253 -0.557,1.763 0.758,-0.078 1.453,-0.078 1.778,-0.078 0.263,0 0.433,0.062 0.572,0.263 0.34,0.433 0.479,2.458 0.572,7.651 h -1.422 c -0.109,-3.184 -0.789,-7.017 -4.112,-9.815 -0.309,0.402 -0.958,1.02 -1.391,1.268 2.998,2.457 3.632,5.765 3.756,8.547 h -2.303 v 1.778 h 2.334 v 2.767 h 1.731 V 7.775 h 3.2 c 0,0 -0.016,-0.603 -0.016,-0.835 L -0.649,4.653 0.479,4.884 C 0.927,3.447 1.407,1.53 1.592,0.402 Z M -6.399,4.575 C -6.724,2.999 -7.327,1.391 -8.007,0.356 -8.331,0.618 -9.012,1.067 -9.398,1.283 -8.733,2.149 -8.27,3.54 -8.022,4.9 Z m -3.324,0.727 v -9.089 h -1.762 v 9.089 h -1.499 v 1.7 h 1.499 v 3.648 h 1.762 V 7.002 h 1.469 v -1.7 z"
       style="fill:#2e396f;fill-opacity:1;fill-rule:nonzero;stroke:none"
       transform="matrix(0.35277776,0,0,-0.35277776,178.6728,135.74464)"
       clip-path="url(#clipPath2068)" />
    <path
       id="path2069"
       d="M 0,0 C -1.02,0.68 -1.979,1.407 -2.736,2.118 -3.509,1.345 -4.39,0.649 -5.317,0 Z M 0.386,-4.823 C 1.731,-5.997 3.153,-7.62 3.833,-8.78 L 2.195,-9.784 c -0.186,0.355 -0.448,0.757 -0.757,1.174 -7.621,-0.556 -8.687,-0.618 -9.445,-0.912 -0.093,0.402 -0.402,1.345 -0.618,1.871 0.402,0.092 0.742,0.34 1.221,0.757 0.371,0.278 1.206,1.113 2.04,2.133 h -3.74 v 1.778 H 3.679 v -1.778 h -6.492 c -0.711,-0.881 -1.561,-1.777 -2.427,-2.55 l 5.379,0.309 c -0.433,0.479 -0.881,0.958 -1.329,1.376 z M -1.159,3.926 C -1.329,3.71 -1.499,3.493 -1.669,3.277 -0.17,2.009 2.272,0.618 4.544,-0.108 4.143,-0.495 3.555,-1.237 3.261,-1.731 2.458,-1.407 1.638,-0.989 0.866,-0.541 v -1.144 h -7.219 v 1.02 c -0.757,-0.432 -1.53,-0.85 -2.365,-1.221 -0.263,0.464 -0.881,1.268 -1.314,1.639 2.937,1.113 5.735,2.998 7.203,4.977 z"
       style="fill:#2e396f;fill-opacity:1;fill-rule:nonzero;stroke:none"
       transform="matrix(0.35277776,0,0,-0.35277776,183.45517,133.63437)"
       clip-path="url(#clipPath2070)" />
    <path
       id="path2071"
       d="m 0,0 c 0,1.695 1.06,2.724 2.479,2.724 0.679,0 1.212,-0.314 1.533,-0.65 L 3.63,1.645 c -0.289,0.293 -0.663,0.5 -1.144,0.5 -1.06,0 -1.761,-0.815 -1.761,-2.124 0,-1.322 0.671,-2.152 1.739,-2.152 0.533,0 0.938,0.222 1.296,0.587 L 4.149,-1.959 C 3.707,-2.438 3.158,-2.71 2.433,-2.71 1.045,-2.71 0,-1.702 0,0"
       style="fill:#2e396f;fill-opacity:1;fill-rule:nonzero;stroke:none"
       transform="matrix(0.35277776,0,0,-0.35277776,139.23239,138.67041)"
       clip-path="url(#clipPath2072)" />
    <path
       id="path2073"
       d="M 0,0 H 0.694 V -1.559 L 0.671,-2.36 c 0.382,0.358 0.809,0.651 1.373,0.651 0.87,0 1.266,-0.529 1.266,-1.523 v -2.46 H 2.616 v 2.374 c 0,0.73 -0.236,1.037 -0.786,1.037 -0.427,0 -0.716,-0.2 -1.136,-0.593 V -5.692 H 0 Z"
       style="fill:#2e396f;fill-opacity:1;fill-rule:nonzero;stroke:none"
       transform="matrix(0.35277776,0,0,-0.35277776,141.05392,137.58572)"
       clip-path="url(#clipPath2074)" />
    <path
       id="path2075"
       d="m 423.347,270.341 h 0.694 v -3.883 h -0.694 z m -0.13,1.223 c 0,0.264 0.206,0.422 0.481,0.422 0.275,0 0.481,-0.158 0.481,-0.422 0,-0.243 -0.206,-0.422 -0.481,-0.422 -0.275,0 -0.481,0.179 -0.481,0.422"
       style="fill:#2e396f;fill-opacity:1;fill-rule:nonzero;stroke:none"
       transform="matrix(0.35277776,0,0,-0.35277776,-6.6468634,233.59425)"
       clip-path="url(#clipPath2076)" />
    <path
       id="path2077"
       d="M 0,0 H 0.572 L 0.633,-0.558 H 0.656 C 1.053,-0.193 1.48,0.1 2.044,0.1 2.914,0.1 3.31,-0.429 3.31,-1.423 v -2.46 H 2.616 v 2.374 c 0,0.73 -0.236,1.037 -0.786,1.037 -0.427,0 -0.716,-0.2 -1.136,-0.593 V -3.883 H 0 Z"
       style="fill:#2e396f;fill-opacity:1;fill-rule:nonzero;stroke:none"
       transform="matrix(0.35277776,0,0,-0.35277776,143.45398,138.2239)"
       clip-path="url(#clipPath2078)" />
    <path
       id="path2079"
       d="M 0,0 V 1.087 C -1.396,0.93 -1.869,0.608 -1.869,0.107 c 0,-0.443 0.321,-0.622 0.733,-0.622 0.404,0 0.732,0.179 1.136,0.515 m -2.547,0.064 c 0,0.844 0.785,1.266 2.547,1.452 0,0.5 -0.175,0.98 -0.854,0.98 -0.481,0 -0.915,-0.208 -1.243,-0.415 l -0.275,0.45 c 0.381,0.229 0.969,0.508 1.632,0.508 1.007,0 1.434,-0.636 1.434,-1.595 V -0.944 H 0.122 L 0.061,-0.479 H 0.038 c -0.396,-0.308 -0.862,-0.558 -1.373,-0.558 -0.694,0 -1.212,0.401 -1.212,1.101"
       style="fill:#2e396f;fill-opacity:1;fill-rule:nonzero;stroke:none"
       transform="matrix(0.35277776,0,0,-0.35277776,145.91862,139.26068)"
       clip-path="url(#clipPath2080)" />
    <path
       id="path2081"
       d="M 0,0 C 0.961,0 1.525,0.322 1.525,1.03 1.525,1.68 0.976,1.974 0,1.974 H -0.976 V 0 Z m -0.145,2.481 c 0.961,0 1.35,0.336 1.35,0.865 0,0.615 -0.45,0.844 -1.319,0.844 H -0.976 V 2.481 Z m -1.541,2.231 h 1.663 c 1.137,0 1.922,-0.357 1.922,-1.28 C 1.899,2.91 1.602,2.453 1.075,2.295 V 2.26 C 1.747,2.138 2.219,1.723 2.219,1.008 c 0,-1.029 -0.869,-1.537 -2.12,-1.537 h -1.785 z"
       style="fill:#2e396f;fill-opacity:1;fill-rule:nonzero;stroke:none"
       transform="matrix(0.35277776,0,0,-0.35277776,148.4914,139.40697)"
       clip-path="url(#clipPath2082)" />
    <path
       id="path2083"
       d="M 0,0 V 1.087 C -1.396,0.93 -1.869,0.608 -1.869,0.107 c 0,-0.443 0.321,-0.622 0.733,-0.622 0.404,0 0.732,0.179 1.136,0.515 m -2.547,0.064 c 0,0.844 0.785,1.266 2.547,1.452 0,0.5 -0.175,0.98 -0.854,0.98 -0.481,0 -0.915,-0.208 -1.243,-0.415 l -0.275,0.45 c 0.381,0.229 0.969,0.508 1.632,0.508 1.007,0 1.434,-0.636 1.434,-1.595 V -0.944 H 0.122 L 0.061,-0.479 H 0.038 c -0.396,-0.308 -0.862,-0.558 -1.373,-0.558 -0.694,0 -1.212,0.401 -1.212,1.101"
       style="fill:#2e396f;fill-opacity:1;fill-rule:nonzero;stroke:none"
       transform="matrix(0.35277776,0,0,-0.35277776,150.46364,139.26068)"
       clip-path="url(#clipPath2084)" />
    <path
       id="path2085"
       d="m 0,0 v 2.152 h -0.618 v 0.494 l 0.649,0.035 0.083,1.087 h 0.58 V 2.681 H 1.815 V 2.152 H 0.694 v -2.166 c 0,-0.479 0.16,-0.751 0.641,-0.751 0.145,0 0.335,0.05 0.473,0.1 L 1.945,-1.151 C 1.708,-1.223 1.434,-1.294 1.182,-1.294 0.297,-1.294 0,-0.779 0,0"
       style="fill:#2e396f;fill-opacity:1;fill-rule:nonzero;stroke:none"
       transform="matrix(0.35277776,0,0,-0.35277776,151.23047,139.16983)"
       clip-path="url(#clipPath2086)" />
    <path
       id="path2087"
       d="M 0,0 V 2.152 H -0.618 V 2.646 L 0.03,2.681 0.114,3.768 h 0.58 V 2.681 H 1.815 V 2.152 H 0.694 v -2.166 c 0,-0.479 0.16,-0.751 0.641,-0.751 0.145,0 0.335,0.05 0.473,0.1 L 1.945,-1.151 C 1.708,-1.223 1.434,-1.294 1.182,-1.294 0.297,-1.294 0,-0.779 0,0"
       style="fill:#2e396f;fill-opacity:1;fill-rule:nonzero;stroke:none"
       transform="matrix(0.35277776,0,0,-0.35277776,152.25832,139.16983)"
       clip-path="url(#clipPath2088)" />
    <path
       id="path2089"
       d="M 0,0 C 0,0.787 -0.381,1.208 -1.03,1.208 -1.617,1.208 -2.136,0.765 -2.219,0 Z m -2.906,-0.315 c 0,1.259 0.908,2.045 1.869,2.045 1.052,0 1.647,-0.715 1.647,-1.823 0,-0.143 -0.015,-0.279 -0.03,-0.372 h -2.792 c 0.046,-0.829 0.587,-1.358 1.373,-1.358 0.404,0 0.732,0.114 1.037,0.307 L 0.45,-1.945 c -0.366,-0.222 -0.808,-0.4 -1.373,-0.4 -1.098,0 -1.983,0.75 -1.983,2.03"
       style="fill:#2e396f;fill-opacity:1;fill-rule:nonzero;stroke:none"
       transform="matrix(0.35277776,0,0,-0.35277776,154.15792,138.79907)"
       clip-path="url(#clipPath2090)" />
    <path
       id="path2091"
       d="M 0,0 H 0.572 L 0.633,-0.708 H 0.656 C 0.946,-0.214 1.365,0.1 1.831,0.1 2.014,0.1 2.143,0.079 2.273,0.014 l -0.13,-0.572 c -0.137,0.05 -0.236,0.065 -0.404,0.065 -0.343,0 -0.77,-0.229 -1.045,-0.894 V -3.883 H 0 Z"
       style="fill:#2e396f;fill-opacity:1;fill-rule:nonzero;stroke:none"
       transform="matrix(0.35277776,0,0,-0.35277776,154.74717,138.2239)"
       clip-path="url(#clipPath2092)" />
    <path
       id="path2093"
       d="M 0,0 0.137,0.522 C 0.221,0.493 0.343,0.458 0.45,0.458 c 0.473,0 0.77,0.357 0.938,0.836 L 1.48,1.587 -0.183,5.477 H 0.542 L 1.388,3.318 C 1.51,2.982 1.655,2.581 1.785,2.231 h 0.038 c 0.114,0.35 0.236,0.744 0.351,1.087 l 0.74,2.159 H 3.592 L 2.029,1.273 C 1.739,0.508 1.312,-0.079 0.488,-0.079 0.29,-0.079 0.13,-0.05 0,0"
       style="fill:#2e396f;fill-opacity:1;fill-rule:nonzero;stroke:none"
       transform="matrix(0.35277776,0,0,-0.35277776,155.65656,140.15617)"
       clip-path="url(#clipPath2094)" />
    <path
       id="path2095"
       d="m 468.762,271.7 h 0.709 v -5.241 h -0.709 z"
       style="fill:#2e396f;fill-opacity:1;fill-rule:nonzero;stroke:none"
       transform="matrix(0.35277776,0,0,-0.35277776,-6.6468634,233.59425)"
       clip-path="url(#clipPath2096)" />
    <path
       id="path2097"
       d="M 0,0 H 0.572 L 0.633,-0.558 H 0.656 C 1.053,-0.193 1.48,0.1 2.044,0.1 2.914,0.1 3.31,-0.429 3.31,-1.423 v -2.46 H 2.616 v 2.374 c 0,0.73 -0.236,1.037 -0.785,1.037 -0.428,0 -0.717,-0.2 -1.137,-0.593 V -3.883 H 0 Z"
       style="fill:#2e396f;fill-opacity:1;fill-rule:nonzero;stroke:none"
       transform="matrix(0.35277776,0,0,-0.35277776,159.50237,138.2239)"
       clip-path="url(#clipPath2098)" />
    <path
       id="path2099"
       d="m 0,0 v 2.038 c -0.351,0.293 -0.664,0.407 -1.007,0.407 -0.671,0 -1.197,-0.6 -1.197,-1.487 0,-0.937 0.412,-1.494 1.144,-1.494 0.381,0 0.717,0.178 1.06,0.536 m -2.921,0.951 c 0,1.258 0.846,2.045 1.792,2.045 0.488,0 0.801,-0.172 1.167,-0.458 L 0,3.211 V 4.705 H 0.694 V -0.987 H 0.13 L 0.061,-0.529 H 0.046 c -0.328,-0.3 -0.763,-0.551 -1.259,-0.551 -1.037,0 -1.708,0.737 -1.708,2.031"
       style="fill:#2e396f;fill-opacity:1;fill-rule:nonzero;stroke:none"
       transform="matrix(0.35277776,0,0,-0.35277776,162.08537,139.24551)"
       clip-path="url(#clipPath2100)" />
    <path
       id="path2101"
       d="M 0,0 V 2.46 H 0.694 V 0.079 c 0,-0.723 0.229,-1.03 0.778,-1.03 0.427,0 0.725,0.193 1.121,0.658 V 2.46 H 3.287 V -1.423 H 2.708 L 2.654,-0.815 H 2.631 C 2.242,-1.237 1.831,-1.516 1.258,-1.516 0.389,-1.516 0,-0.987 0,0"
       style="fill:#2e396f;fill-opacity:1;fill-rule:nonzero;stroke:none"
       transform="matrix(0.35277776,0,0,-0.35277776,162.82264,139.09166)"
       clip-path="url(#clipPath2102)" />
    <path
       id="path2103"
       d="m 0,0 0.343,0.429 c 0.359,-0.272 0.732,-0.458 1.228,-0.458 0.549,0 0.816,0.272 0.816,0.608 0,0.393 -0.488,0.572 -0.945,0.737 -0.58,0.2 -1.236,0.464 -1.236,1.122 0,0.615 0.526,1.101 1.426,1.101 0.511,0 0.961,-0.2 1.289,-0.436 L 2.586,2.681 C 2.296,2.882 2.006,3.025 1.632,3.025 1.114,3.025 0.877,2.767 0.877,2.467 0.877,2.095 1.327,1.959 1.792,1.795 2.395,1.58 3.058,1.351 3.058,0.615 3.058,-0.014 2.525,-0.536 1.548,-0.536 0.961,-0.536 0.397,-0.307 0,0"
       style="fill:#2e396f;fill-opacity:1;fill-rule:nonzero;stroke:none"
       transform="matrix(0.35277776,0,0,-0.35277776,164.32399,139.43724)"
       clip-path="url(#clipPath2104)" />
    <path
       id="path2105"
       d="M 0,0 V 2.152 H -0.618 V 2.646 L 0.03,2.681 0.114,3.768 h 0.58 V 2.681 H 1.815 V 2.152 H 0.694 v -2.166 c 0,-0.479 0.16,-0.751 0.641,-0.751 0.145,0 0.335,0.05 0.473,0.1 L 1.945,-1.151 C 1.708,-1.223 1.434,-1.294 1.182,-1.294 0.297,-1.294 0,-0.779 0,0"
       style="fill:#2e396f;fill-opacity:1;fill-rule:nonzero;stroke:none"
       transform="matrix(0.35277776,0,0,-0.35277776,165.80386,139.16983)"
       clip-path="url(#clipPath2106)" />
    <path
       id="path2107"
       d="M 0,0 H 0.572 L 0.633,-0.708 H 0.656 C 0.946,-0.214 1.365,0.1 1.83,0.1 2.014,0.1 2.143,0.079 2.273,0.014 l -0.13,-0.572 c -0.137,0.05 -0.236,0.065 -0.404,0.065 -0.343,0 -0.77,-0.229 -1.045,-0.894 V -3.883 H 0 Z"
       style="fill:#2e396f;fill-opacity:1;fill-rule:nonzero;stroke:none"
       transform="matrix(0.35277776,0,0,-0.35277776,166.78864,138.2239)"
       clip-path="url(#clipPath2108)" />
    <path
       id="path2109"
       d="M 0,0 0.137,0.522 C 0.221,0.493 0.343,0.458 0.45,0.458 c 0.473,0 0.77,0.357 0.938,0.836 L 1.48,1.587 -0.183,5.477 H 0.542 L 1.388,3.318 C 1.51,2.982 1.655,2.581 1.785,2.231 h 0.038 c 0.114,0.35 0.236,0.744 0.351,1.087 l 0.74,2.159 H 3.592 L 2.029,1.273 C 1.739,0.508 1.312,-0.079 0.488,-0.079 0.29,-0.079 0.13,-0.05 0,0"
       style="fill:#2e396f;fill-opacity:1;fill-rule:nonzero;stroke:none"
       transform="matrix(0.35277776,0,0,-0.35277776,167.69803,140.15617)"
       clip-path="url(#clipPath2110)" />
    <path
       id="path2111"
       d="M 0,0 -0.267,0.801 C -0.473,1.394 -0.648,1.966 -0.831,2.574 H -0.862 C -1.037,1.959 -1.22,1.394 -1.419,0.801 L -1.693,0 Z M 0.175,-0.529 H -1.869 L -2.41,-2.131 h -0.717 l 1.899,5.241 h 0.786 L 1.457,-2.131 H 0.709 Z"
       style="fill:#2e396f;fill-opacity:1;fill-rule:nonzero;stroke:none"
       transform="matrix(0.35277776,0,0,-0.35277776,171.35785,138.84193)"
       clip-path="url(#clipPath2112)" />
    <path
       id="path2113"
       d="m 0,0 0.343,0.429 c 0.359,-0.272 0.732,-0.458 1.228,-0.458 0.549,0 0.816,0.272 0.816,0.608 0,0.393 -0.488,0.572 -0.945,0.737 -0.58,0.2 -1.236,0.464 -1.236,1.122 0,0.615 0.526,1.101 1.426,1.101 0.511,0 0.961,-0.2 1.289,-0.436 L 2.586,2.681 C 2.296,2.882 2.006,3.025 1.632,3.025 1.114,3.025 0.877,2.767 0.877,2.467 0.877,2.095 1.327,1.959 1.792,1.795 2.395,1.58 3.058,1.351 3.058,0.615 3.058,-0.014 2.525,-0.536 1.548,-0.536 0.961,-0.536 0.397,-0.307 0,0"
       style="fill:#2e396f;fill-opacity:1;fill-rule:nonzero;stroke:none"
       transform="matrix(0.35277776,0,0,-0.35277776,171.97669,139.43724)"
       clip-path="url(#clipPath2114)" />
    <path
       id="path2115"
       d="m 0,0 0.343,0.429 c 0.359,-0.272 0.732,-0.458 1.228,-0.458 0.549,0 0.816,0.272 0.816,0.608 0,0.393 -0.488,0.572 -0.945,0.737 -0.58,0.2 -1.236,0.464 -1.236,1.122 0,0.615 0.526,1.101 1.426,1.101 0.511,0 0.961,-0.2 1.289,-0.436 L 2.586,2.681 C 2.296,2.882 2.006,3.025 1.632,3.025 1.114,3.025 0.877,2.767 0.877,2.467 0.877,2.095 1.327,1.959 1.792,1.795 2.395,1.58 3.058,1.351 3.058,0.615 3.058,-0.014 2.525,-0.536 1.548,-0.536 0.961,-0.536 0.397,-0.307 0,0"
       style="fill:#2e396f;fill-opacity:1;fill-rule:nonzero;stroke:none"
       transform="matrix(0.35277776,0,0,-0.35277776,173.24934,139.43724)"
       clip-path="url(#clipPath2116)" />
    <path
       id="path2117"
       d="m 0,0 c 0,0.894 -0.488,1.502 -1.205,1.502 -0.717,0 -1.198,-0.608 -1.198,-1.502 0,-0.894 0.481,-1.487 1.198,-1.487 C -0.488,-1.487 0,-0.894 0,0 m -3.127,0 c 0,1.294 0.908,2.045 1.922,2.045 1.014,0 1.922,-0.751 1.922,-2.045 0,-1.287 -0.908,-2.031 -1.922,-2.031 -1.014,0 -1.922,0.744 -1.922,2.031"
       style="fill:#2e396f;fill-opacity:1;fill-rule:nonzero;stroke:none"
       transform="matrix(0.35277776,0,0,-0.35277776,175.67899,138.91005)"
       clip-path="url(#clipPath2118)" />
    <path
       id="path2119"
       d="m 0,0 c 0,1.294 0.938,2.045 1.998,2.045 0.542,0 0.916,-0.214 1.213,-0.458 L 2.853,1.151 C 2.608,1.359 2.357,1.502 2.021,1.502 1.274,1.502 0.725,0.894 0.725,0 c 0,-0.894 0.518,-1.487 1.281,-1.487 0.381,0 0.717,0.164 0.976,0.386 L 3.28,-1.537 C 2.914,-1.852 2.441,-2.031 1.945,-2.031 0.847,-2.031 0,-1.287 0,0"
       style="fill:#2e396f;fill-opacity:1;fill-rule:nonzero;stroke:none"
       transform="matrix(0.35277776,0,0,-0.35277776,176.2198,138.91005)"
       clip-path="url(#clipPath2120)" />
    <path
       id="path2121"
       d="m 522.595,270.341 h 0.694 v -3.883 h -0.694 z m -0.129,1.223 c 0,0.264 0.205,0.422 0.48,0.422 0.275,0 0.481,-0.158 0.481,-0.422 0,-0.243 -0.206,-0.422 -0.481,-0.422 -0.275,0 -0.48,0.179 -0.48,0.422"
       style="fill:#2e396f;fill-opacity:1;fill-rule:nonzero;stroke:none"
       transform="matrix(0.35277776,0,0,-0.35277776,-6.6468634,233.59425)"
       clip-path="url(#clipPath2122)" />
    <path
       id="path2123"
       d="M 0,0 V 1.087 C -1.396,0.93 -1.869,0.608 -1.869,0.107 c 0,-0.443 0.321,-0.622 0.733,-0.622 0.404,0 0.732,0.179 1.136,0.515 m -2.547,0.064 c 0,0.844 0.785,1.266 2.547,1.452 0,0.5 -0.175,0.98 -0.854,0.98 -0.481,0 -0.915,-0.208 -1.243,-0.415 l -0.275,0.45 c 0.381,0.229 0.969,0.508 1.632,0.508 1.007,0 1.434,-0.636 1.434,-1.595 V -0.944 H 0.122 L 0.061,-0.479 H 0.038 c -0.396,-0.308 -0.862,-0.558 -1.373,-0.558 -0.694,0 -1.212,0.401 -1.212,1.101"
       style="fill:#2e396f;fill-opacity:1;fill-rule:nonzero;stroke:none"
       transform="matrix(0.35277776,0,0,-0.35277776,179.27366,139.26068)"
       clip-path="url(#clipPath2124)" />
    <path
       id="path2125"
       d="m 0,0 v 2.152 h -0.618 v 0.494 l 0.649,0.035 0.083,1.087 h 0.58 V 2.681 H 1.815 V 2.152 H 0.694 v -2.166 c 0,-0.479 0.16,-0.751 0.641,-0.751 0.145,0 0.335,0.05 0.473,0.1 L 1.945,-1.151 C 1.708,-1.223 1.434,-1.294 1.182,-1.294 0.297,-1.294 0,-0.779 0,0"
       style="fill:#2e396f;fill-opacity:1;fill-rule:nonzero;stroke:none"
       transform="matrix(0.35277776,0,0,-0.35277776,180.04049,139.16983)"
       clip-path="url(#clipPath2126)" />
    <path
       id="path2127"
       d="m 531.984,270.341 h 0.694 v -3.883 h -0.694 z m -0.13,1.223 c 0,0.264 0.206,0.422 0.481,0.422 0.274,0 0.48,-0.158 0.48,-0.422 0,-0.243 -0.206,-0.422 -0.48,-0.422 -0.275,0 -0.481,0.179 -0.481,0.422"
       style="fill:#2e396f;fill-opacity:1;fill-rule:nonzero;stroke:none"
       transform="matrix(0.35277776,0,0,-0.35277776,-6.6468634,233.59425)"
       clip-path="url(#clipPath2128)" />
    <path
       id="path2129"
       d="m 0,0 c 0,0.894 -0.488,1.502 -1.205,1.502 -0.717,0 -1.197,-0.608 -1.197,-1.502 0,-0.894 0.48,-1.487 1.197,-1.487 C -0.488,-1.487 0,-0.894 0,0 m -3.127,0 c 0,1.294 0.908,2.045 1.922,2.045 1.014,0 1.922,-0.751 1.922,-2.045 0,-1.287 -0.908,-2.031 -1.922,-2.031 -1.014,0 -1.922,0.744 -1.922,2.031"
       style="fill:#2e396f;fill-opacity:1;fill-rule:nonzero;stroke:none"
       transform="matrix(0.35277776,0,0,-0.35277776,182.77152,138.91005)"
       clip-path="url(#clipPath2130)" />
    <path
       id="path2131"
       d="M 0,0 H 0.572 L 0.633,-0.558 H 0.656 C 1.053,-0.193 1.48,0.1 2.044,0.1 2.914,0.1 3.31,-0.429 3.31,-1.423 v -2.46 H 2.616 v 2.374 c 0,0.73 -0.236,1.037 -0.786,1.037 -0.427,0 -0.716,-0.2 -1.136,-0.593 V -3.883 H 0 Z"
       style="fill:#2e396f;fill-opacity:1;fill-rule:nonzero;stroke:none"
       transform="matrix(0.35277776,0,0,-0.35277776,183.42264,138.2239)"
       clip-path="url(#clipPath2132)" />
  </g>
</svg>
