<?xml version="1.0" encoding="utf-8"?>
<!-- Generator: Adobe Illustrator 28.0.0, SVG Export Plug-In . SVG Version: 6.00 Build 0)  -->
<svg version="1.1"
	 id="svg1" xmlns:sodipodi="http://sodipodi.sourceforge.net/DTD/sodipodi-0.dtd" xmlns:inkscape="http://www.inkscape.org/namespaces/inkscape" xmlns:svg="http://www.w3.org/2000/svg" inkscape:export-filename="C:\Users\71578\Desktop\logo-2-huaneng.svg" inkscape:export-xdpi="96" inkscape:export-ydpi="96" inkscape:version="1.4 (86a8ad7, 2024-10-11)" sodipodi:docname="logo-2-huaneng.svg"
	 xmlns="http://www.w3.org/2000/svg" xmlns:xlink="http://www.w3.org/1999/xlink" x="0px" y="0px" viewBox="0 0 100.8 34.9"
	 style="enable-background:new 0 0 100.8 34.9;" xml:space="preserve">
<style type="text/css">
	.st0{opacity:3.999330e-02;clip-path:url(#SVGID_00000094599317262034048730000013402127616184667285_);}
	.st1{clip-path:url(#SVGID_00000123424119117189944100000003532522197632999560_);fill:#FFFFFF;}
	.st2{clip-path:url(#SVGID_00000064334787991516917420000001798674103284459412_);fill:#221B19;}
	.st3{clip-path:url(#SVGID_00000034063684827923571970000017420391668214792841_);fill:#221B19;}
	.st4{clip-path:url(#SVGID_00000183959223710573175280000000802604497117968009_);fill:#221B19;}
	.st5{clip-path:url(#SVGID_00000146487659241191926440000015106616076648532899_);fill:#221B19;}
	.st6{clip-path:url(#SVGID_00000090271363310109040080000001133731771857918899_);fill:#221B19;}
	.st7{clip-path:url(#SVGID_00000005239496946332446110000010667047874114615436_);fill:#221B19;}
	.st8{clip-path:url(#SVGID_00000157271930037758842630000008196550648251844531_);fill:#221B19;}
	.st9{clip-path:url(#SVGID_00000068650851130263390590000006081436306867340417_);fill:#221B19;}
	.st10{clip-path:url(#SVGID_00000075133166047417950930000014285781497585029277_);fill:#221B19;}
	.st11{clip-path:url(#SVGID_00000121265788313850558010000007648814242581708706_);fill:#221B19;}
	.st12{clip-path:url(#SVGID_00000024697388888722135410000002622453839622055343_);fill:#221B19;}
	.st13{clip-path:url(#SVGID_00000075164765131224450270000002701655233945919873_);fill:#221B19;}
	.st14{clip-path:url(#SVGID_00000054238843681773004260000008605525168140915087_);fill:#221B19;}
	.st15{clip-path:url(#SVGID_00000104674082494899527300000018185486612859828922_);fill:#221B19;}
	.st16{clip-path:url(#SVGID_00000159469017460860614880000004879408176366949269_);fill:#221B19;}
	.st17{clip-path:url(#SVGID_00000168084140720598027990000012482710954826212262_);fill:#221B19;}
	.st18{clip-path:url(#SVGID_00000132777768542105492450000001839806505097737141_);fill:#3C60B5;}
	.st19{clip-path:url(#SVGID_00000178204596429305212810000009459860006647278241_);fill:#3C60B5;}
	.st20{clip-path:url(#SVGID_00000143605938515843365740000014105738486486652069_);fill:#3C60B5;}
	.st21{clip-path:url(#SVGID_00000145034483600035595440000008919230453430930334_);fill:#3C60B5;}
	.st22{clip-path:url(#SVGID_00000042014868399214006730000009801837444466141571_);fill:#3C60B5;}
	.st23{clip-path:url(#SVGID_00000093874609284539401420000013800766177581573800_);fill:#3C60B5;}
</style>
<sodipodi:namedview  bordercolor="#000000" borderopacity="0.25" id="namedview1" inkscape:current-layer="svg1" inkscape:cx="71.354457" inkscape:cy="23.26855" inkscape:deskcolor="#d1d1d1" inkscape:document-units="mm" inkscape:pagecheckerboard="0" inkscape:pageopacity="0.0" inkscape:showpageshadow="2" inkscape:window-height="2054" inkscape:window-maximized="1" inkscape:window-width="3840" inkscape:window-x="3829" inkscape:window-y="-11" inkscape:zoom="27.440472" pagecolor="#ffffff">
	</sodipodi:namedview>
<g id="layer1" transform="translate(-134.14376,-101.33543)">
	<g>
		<g>
			<defs>
				<rect id="SVGID_1_" x="86.2" y="2.5" width="319.5" height="227.3"/>
			</defs>
			<clipPath id="SVGID_00000065762857105734187470000016260337974146718877_">
				<use xlink:href="#SVGID_1_"  style="overflow:visible;"/>
			</clipPath>
			
				<g id="g9" transform="matrix(0.26458333,0,0,0.26458333,87.728544,30.79183)" style="opacity:3.999330e-02;clip-path:url(#SVGID_00000065762857105734187470000016260337974146718877_);">
				<g>
					<g>
						<defs>
							<rect id="SVGID_00000159472436216546312220000001352819823029292416_" x="317.2" y="327.9" width="12.6" height="9.2"/>
						</defs>
						<clipPath id="SVGID_00000077301422275379475920000009613820978129941177_">
							<use xlink:href="#SVGID_00000159472436216546312220000001352819823029292416_"  style="overflow:visible;"/>
						</clipPath>
						<path id="path9" style="clip-path:url(#SVGID_00000077301422275379475920000009613820978129941177_);fill:#FFFFFF;" d="
							M382.4,389l-21.5-37.3l9.9-10.1L400,389H382.4z M283.4,389l27.9-104l60,104H283.4z M296.7,302.4L273.4,389h-26.7L296.7,302.4z
							 M412.7,391.2l-36.9-59.8c-0.8-1.3-2.1-2.1-3.5-2.3c-1.5-0.2-2.9,0.3-4,1.4L355.9,343l-42.7-74c-0.9-1.5-2.4-2.4-4.2-2.4
							s-3.3,0.9-4.2,2.4l-70.6,122.3c-0.9,1.5-0.9,3.3,0,4.8c0.9,1.5,2.4,2.4,4.2,2.4h141.3h28.9c1.7,0,3.3-0.9,4.2-2.5
							C413.6,394.6,413.6,392.7,412.7,391.2"/>
					</g>
				</g>
			</g>
		</g>
	</g>
	<g>
		<g>
			<defs>
				<rect id="SVGID_00000177444266428211138280000016350961341918349983_" x="-5.9" y="-107.1" width="1207.6" height="858.9"/>
			</defs>
			<clipPath id="SVGID_00000093885052608387354010000008401842671782073217_">
				<use xlink:href="#SVGID_00000177444266428211138280000016350961341918349983_"  style="overflow:visible;"/>
			</clipPath>
			<path id="path3889" style="clip-path:url(#SVGID_00000093885052608387354010000008401842671782073217_);fill:#221B19;" d="
				M178.9,110.6h-4.1v3.7h4.1V110.6z M169.1,114.3h4.2v-3.7h-4.2V114.3z M177.1,109.5c1.4,0,2.6,0,3.7-0.1c-0.1,1-0.2,2-0.2,2.9v1.6
				c0,1.3,0.1,2.1,0.2,2.5h-1.9c0-0.4,0.1-0.7,0.1-1h-4.1v2.8c0,1.1,0.1,1.9,0.1,2.3h-1.7c0-0.3,0.1-1.1,0.1-2.3v-2.8h-4.2
				c0,0.3,0,0.6,0.1,1.1h-1.8c0.1-0.5,0.2-1.4,0.2-2.7v-1.6c0-1.2-0.1-2.1-0.2-2.8c0.6,0.1,1.7,0.1,3.4,0.1h2.5c0-1.5,0-2.5-0.1-3
				c1.3,0.1,2,0.2,2,0.2s0,0.1-0.1,0.2c-0.1,0.2-0.2,0.5-0.2,0.7c0,0.4-0.1,0.7-0.1,1v1L177.1,109.5z"/>
		</g>
	</g>
	<g>
		<g>
			<defs>
				<rect id="SVGID_00000026857994520893728680000013354906662727628431_" x="-5.9" y="-107.1" width="1207.6" height="858.9"/>
			</defs>
			<clipPath id="SVGID_00000098183250468708078760000001484230909070592144_">
				<use xlink:href="#SVGID_00000026857994520893728680000013354906662727628431_"  style="overflow:visible;"/>
			</clipPath>
			<path id="path3891" style="clip-path:url(#SVGID_00000098183250468708078760000001484230909070592144_);fill:#221B19;" d="
				M194,115.7c-0.4-0.6-0.8-1.1-1.1-1.4l1.2-0.6c0.2,0.1,0.5,0.5,1,1c0.1,0.2,0.2,0.3,0.3,0.3L194,115.7z M193.2,109.7
				c1.4,0,2.3,0,2.8-0.1v1.2c-0.4,0-1.3-0.1-2.8-0.1h-0.9v1.7h0.9c0.8,0,1.6-0.1,2.4-0.1v1.3c-0.5,0-1.2-0.1-2.3-0.1h-1v2.4h1.2
				c1.3,0,2.2,0,2.7-0.1v1.3c-1.4-0.1-2.3-0.2-2.7-0.2h-3.7c-1.2,0-2.1,0.1-2.8,0.1v-1.3c0.8,0,1.7,0.1,2.8,0.1h1.1v-2.4h-0.7h-0.9
				c-0.8,0-1.3,0.1-1.4,0.1v-1.2c0.4,0,1.2,0.1,2.3,0.1h0.7v-1.7h-0.7c-1.2,0-2.1,0-2.7,0.1v-1.2c0.2,0,0.7,0,1.5,0.1h1.1
				C190.1,109.7,193.2,109.7,193.2,109.7z M186.2,118.3h10.9v-10.1h-10.9V118.3z M196.9,107.2c0.6,0,1.2,0,1.9-0.1
				c-0.1,0.4-0.1,1-0.1,1.5v10.7c0,0.5,0,0.9,0.1,1H197c0-0.2,0.1-0.5,0.1-1h-10.9c0,0.4,0,0.7,0.1,0.9h-1.7
				c0.1-0.2,0.1-0.5,0.1-0.9v-10.9c0-0.4,0-0.8-0.1-1.5c0.6,0.1,1.2,0.1,1.9,0.1L196.9,107.2z"/>
		</g>
	</g>
	<g>
		<g>
			<defs>
				<rect id="SVGID_00000152258645371487489110000000435163529951364265_" x="-5.9" y="-107.1" width="1207.6" height="858.9"/>
			</defs>
			<clipPath id="SVGID_00000034787985764507672460000011445301487919090873_">
				<use xlink:href="#SVGID_00000152258645371487489110000000435163529951364265_"  style="overflow:visible;"/>
			</clipPath>
			<path id="path3893" style="clip-path:url(#SVGID_00000034787985764507672460000011445301487919090873_);fill:#221B19;" d="
				M211.2,112.4c-0.1,0.4,0.1,0.6,0.5,0.8c0.4,0.1,0.9,0.1,1.6,0.1c0.6,0,1.1-0.1,1.4-0.2c0.3-0.1,0.5-0.5,0.6-1.2
				c0-0.2,0.1-0.3,0.1-0.4c0.6,0.4,1.2,0.7,1.7,0.8c0,0,0,0.1-0.1,0.2c-0.2,1-0.6,1.6-1.2,1.8c-0.5,0.2-1.3,0.3-2.3,0.3
				c-1.1,0-2-0.1-2.6-0.2c-0.8-0.2-1.2-0.6-1.1-1.3v-1.4c-0.9,0.4-1.7,0.6-2.3,0.8c0-0.3-0.4-0.7-1-1.3c0.8-0.1,1.9-0.4,3.2-0.8
				c0-0.6,0-1.3,0-2s0-1.3-0.1-1.7c1.1,0,1.7,0.1,1.9,0.2l-0.1,0.1c-0.1,0.2-0.2,0.5-0.2,0.7c0,0.6-0.1,1.3-0.1,2
				c1.8-1,3-1.8,3.6-2.4c1,0.8,1.4,1.2,1.4,1.4c0,0-0.2,0.1-0.3,0.1c-0.2,0.1-0.4,0.2-0.6,0.2c-0.1,0.1-0.5,0.2-1,0.5
				c-1.3,0.6-2.3,1.1-3,1.3L211.2,112.4L211.2,112.4z M214,116c1.5,0,2.5-0.1,3.1-0.1v1.4c-0.2,0-0.8,0-1.7-0.1
				c-0.7,0-1.2-0.1-1.3-0.1h-4v0.7c0,1,0,1.9,0.1,2.6h-1.8c0-0.8,0.1-1.6,0.1-2.6v-0.7h-3.9c-1.2,0-2.1,0.1-3,0.1v-1.4
				c0.9,0,1.8,0.1,2.9,0.1h4c0-0.6,0-1.1-0.1-1.6c1.2,0,1.8,0.1,1.9,0.2v0.2c-0.1,0.2-0.2,0.4-0.2,0.5v0.7h3.9V116z M206,112.1
				c0,0.8,0,1.7,0.1,2.5h-1.7c0.1-0.6,0.1-1.4,0.1-2.6v-1.6c-0.5,0.6-1.1,1.3-1.9,1.9l-1.3-0.9c1.8-1.3,3.4-2.9,4.6-4.9
				c1.1,0.4,1.7,0.8,1.7,1c0,0-0.1,0.1-0.2,0.1c-0.2,0.1-0.4,0.2-0.6,0.4c-0.4,0.4-0.6,0.7-0.8,0.9L206,112.1L206,112.1z"/>
		</g>
	</g>
	<g>
		<g>
			<defs>
				<rect id="SVGID_00000158007461648269621900000015595059310186152067_" x="-5.9" y="-107.1" width="1207.6" height="858.9"/>
			</defs>
			<clipPath id="SVGID_00000132077913317548475400000016350909100487470235_">
				<use xlink:href="#SVGID_00000158007461648269621900000015595059310186152067_"  style="overflow:visible;"/>
			</clipPath>
			<path id="path3895" style="clip-path:url(#SVGID_00000132077913317548475400000016350909100487470235_);fill:#221B19;" d="
				M229.4,116c0.1-0.1,0.4-0.2,0.8-0.4c1.3-0.6,2.2-1.1,2.6-1.5c0.1,0.2,0.3,0.3,0.6,0.5c0.4,0.4,0.6,0.6,0.6,0.7
				c0,0-0.1,0.1-0.2,0.1c-0.3,0.1-0.6,0.2-0.8,0.2c0,0-1.2,0.4-3.4,1.1v1.6c0,0.3,0.4,0.5,1.2,0.5c1.2-0.1,1.9-0.2,2.1-0.2
				c0.4-0.2,0.5-0.7,0.5-1.6c0.6,0.4,1.1,0.7,1.6,0.8c-0.4,1.1-0.8,1.7-1.4,1.9c-0.1,0-0.6,0.1-1.5,0.1s-1.7,0-2.3,0
				c-0.9-0.1-1.3-0.4-1.4-1v-4.3c0-0.7,0-1.2-0.1-1.6c1.1,0.2,1.7,0.3,1.7,0.4c0,0,0,0.1-0.1,0.2c-0.1,0.2-0.2,0.3-0.2,0.5v2H229.4z
				 M229.4,109.3c1-0.4,2.1-1,3.3-1.8c0.8,0.6,1.2,1,1.2,1.2l-0.3,0.1c-0.4,0.1-0.8,0.2-1,0.2c-0.6,0.2-1.2,0.4-2,0.7
				c-0.4,0.2-0.8,0.3-1.1,0.4v1.1c0,0.1,0.4,0.2,1.1,0.3c1,0,1.6,0,1.9-0.1c0.3-0.2,0.5-0.7,0.5-1.6c0.6,0.4,1.1,0.7,1.7,0.9
				c-0.3,1.1-0.9,1.7-1.6,1.8c-0.3,0.1-0.7,0.1-1.4,0.1c-0.6,0-1.3,0-2-0.1c-1.1-0.2-1.6-0.5-1.5-1c0-2.3,0-4-0.1-5v-0.2
				c1.1,0.1,1.7,0.2,1.8,0.3c0,0.1,0,0.2-0.1,0.2c-0.1,0.2-0.2,0.4-0.2,0.7v1.8H229.4z M221.5,116.9h3.7v-1.5h-3.7V116.9z
				 M221.5,114.6h3.7v-1.4h-3.7V114.6z M226.5,119.4c0,0.5-0.9,0.9-2.6,1c0-0.6-0.2-1.1-0.6-1.5c1.2,0.1,1.8,0.1,1.9-0.1v-1.2h-3.7
				v1.1c0,0.4,0,1,0.1,1.6H220c0.1-0.8,0.1-1.3,0.1-1.6v-5.5c0-0.4,0-0.8-0.1-1.1c0.7,0.1,1.3,0.1,1.7,0.1h2.8c0.4,0,1.1,0,2.1-0.1
				c-0.1,0.4-0.1,0.8-0.1,1.1V119.4z M225.2,110.1c-0.5-0.6-0.9-1-1.3-1.3l1.2-0.7c1.1,1,1.9,1.9,2.4,2.9l-1.5,0.7
				c-0.1-0.2-0.2-0.4-0.3-0.7c-2.1,0.1-4,0.3-5.9,0.7l-0.6-1.4c0.5,0,0.9-0.2,1.3-0.7c0.7-0.8,1.3-1.8,1.9-3
				c1.2,0.4,1.7,0.6,1.7,0.7c0,0-0.1,0.1-0.3,0.2s-0.3,0.3-0.5,0.4c-0.1,0.1-0.4,0.4-0.8,1c-0.6,0.8-1.1,1.3-1.3,1.5L225.2,110.1z"
				/>
		</g>
	</g>
	<g>
		<g>
			<defs>
				<rect id="SVGID_00000044169211273644755410000018275983786965933731_" x="-5.9" y="-107.1" width="1207.6" height="858.9"/>
			</defs>
			<clipPath id="SVGID_00000163051839684465564000000007205084060527472258_">
				<use xlink:href="#SVGID_00000044169211273644755410000018275983786965933731_"  style="overflow:visible;"/>
			</clipPath>
			<path id="path3897" style="clip-path:url(#SVGID_00000163051839684465564000000007205084060527472258_);fill:#221B19;" d="
				M171.5,124.8c-0.2-0.7-0.7-1-1.6-1c-1.2,0.1-1.8,0.7-1.9,2c0,1.3,0.6,2,1.9,2c0.9,0,1.4-0.5,1.6-1.3h0.8
				c-0.2,1.2-1.1,1.8-2.5,1.9c-0.8,0-1.5-0.2-1.9-0.7s-0.6-1.1-0.6-1.8c0-0.8,0.3-1.4,0.8-1.9c0.5-0.4,1.1-0.6,1.9-0.6
				c1.4,0,2.1,0.6,2.4,1.6h-0.9V124.8z"/>
		</g>
	</g>
	<g>
		<g>
			<defs>
				<rect id="SVGID_00000147924035746540974890000018321540162559617155_" x="-5.9" y="-107.1" width="1207.6" height="858.9"/>
			</defs>
			<clipPath id="SVGID_00000072252516249111747390000010730943952921970594_">
				<use xlink:href="#SVGID_00000147924035746540974890000018321540162559617155_"  style="overflow:visible;"/>
			</clipPath>
			<path id="path3899" style="clip-path:url(#SVGID_00000072252516249111747390000010730943952921970594_);fill:#221B19;" d="
				M177.2,123.4h0.8v4.8h-0.8V126h-3v2.2h-0.8v-4.8h0.8v2h3V123.4z"/>
		</g>
	</g>
	<g>
		<g>
			<defs>
				<rect id="SVGID_00000047029833429847988560000017458254785062183590_" x="-5.9" y="-107.1" width="1207.6" height="858.9"/>
			</defs>
			<clipPath id="SVGID_00000091727384928791056820000015160713325934053297_">
				<use xlink:href="#SVGID_00000047029833429847988560000017458254785062183590_"  style="overflow:visible;"/>
			</clipPath>
			<path id="path3901" style="clip-path:url(#SVGID_00000091727384928791056820000015160713325934053297_);fill:#221B19;" d="
				M180.2,128.3h-0.8v-4.8h0.8V128.3z"/>
		</g>
	</g>
	<g>
		<g>
			<defs>
				<rect id="SVGID_00000157305062757322735510000014139882372299440287_" x="-5.9" y="-107.1" width="1207.6" height="858.9"/>
			</defs>
			<clipPath id="SVGID_00000084524256140204875320000002452324281521149628_">
				<use xlink:href="#SVGID_00000157305062757322735510000014139882372299440287_"  style="overflow:visible;"/>
			</clipPath>
			<path id="path3903" style="clip-path:url(#SVGID_00000084524256140204875320000002452324281521149628_);fill:#221B19;" d="
				M185.6,123.4h0.8v4.8h-0.9l-2.9-3.9l0,0v3.9h-0.8v-4.8h0.9l2.9,3.9V123.4z"/>
		</g>
	</g>
	<g>
		<g>
			<defs>
				<rect id="SVGID_00000062878526404355797720000009869976631802080907_" x="-5.9" y="-107.1" width="1207.6" height="858.9"/>
			</defs>
			<clipPath id="SVGID_00000101787938897986352320000011014068191172857531_">
				<use xlink:href="#SVGID_00000062878526404355797720000009869976631802080907_"  style="overflow:visible;"/>
			</clipPath>
			<path id="path3905" style="clip-path:url(#SVGID_00000101787938897986352320000011014068191172857531_);fill:#221B19;" d="
				M190.6,126.3l-0.8-2.1l0,0l-0.9,2.1H190.6z M188.6,126.9l-0.6,1.4h-0.8l2.2-4.8h0.9l2.1,4.8h-0.8l-0.6-1.4H188.6z"/>
		</g>
	</g>
	<g>
		<g>
			<defs>
				<rect id="SVGID_00000000196809602059293760000017338298219327805354_" x="-5.9" y="-107.1" width="1207.6" height="858.9"/>
			</defs>
			<clipPath id="SVGID_00000161629022951762619540000018443758704550369159_">
				<use xlink:href="#SVGID_00000000196809602059293760000017338298219327805354_"  style="overflow:visible;"/>
			</clipPath>
			<path id="path3907" style="clip-path:url(#SVGID_00000161629022951762619540000018443758704550369159_);fill:#221B19;" d="
				M198.9,123.4h0.8v4.8h-0.8V126h-3v2.2h-0.8v-4.8h0.8v2h3V123.4z"/>
		</g>
	</g>
	<g>
		<g>
			<defs>
				<rect id="SVGID_00000063630039844492313120000017998226855174834566_" x="-5.9" y="-107.1" width="1207.6" height="858.9"/>
			</defs>
			<clipPath id="SVGID_00000173883162404808411900000005949591874457477311_">
				<use xlink:href="#SVGID_00000063630039844492313120000017998226855174834566_"  style="overflow:visible;"/>
			</clipPath>
			<path id="path3909" style="clip-path:url(#SVGID_00000173883162404808411900000005949591874457477311_);fill:#221B19;" d="
				M205.6,123.4v3.1c0,0.6-0.2,1-0.7,1.4c-0.4,0.3-0.9,0.4-1.7,0.4c-0.6,0-1.1-0.1-1.5-0.4c-0.4-0.3-0.7-0.8-0.7-1.3v-3.2h0.8v3
				c0,0.9,0.5,1.3,1.4,1.3c1,0,1.5-0.5,1.5-1.3v-3H205.6z"/>
		</g>
	</g>
	<g>
		<g>
			<defs>
				<rect id="SVGID_00000124847551584181136560000009886540542803087791_" x="-5.9" y="-107.1" width="1207.6" height="858.9"/>
			</defs>
			<clipPath id="SVGID_00000132060254854671411120000005902707658954329004_">
				<use xlink:href="#SVGID_00000124847551584181136560000009886540542803087791_"  style="overflow:visible;"/>
			</clipPath>
			<path id="path3911" style="clip-path:url(#SVGID_00000132060254854671411120000005902707658954329004_);fill:#221B19;" d="
				M209.9,126.3l-0.8-2.1l0,0l-0.9,2.1H209.9z M207.9,126.9l-0.6,1.4h-0.8l2.2-4.8h0.9l2.1,4.8h-0.8l-0.6-1.4H207.9z"/>
		</g>
	</g>
	<g>
		<g>
			<defs>
				<rect id="SVGID_00000164510975195848734900000003964144568419394192_" x="-5.9" y="-107.1" width="1207.6" height="858.9"/>
			</defs>
			<clipPath id="SVGID_00000157995358330137859650000000711454885662093199_">
				<use xlink:href="#SVGID_00000164510975195848734900000003964144568419394192_"  style="overflow:visible;"/>
			</clipPath>
			<path id="path3913" style="clip-path:url(#SVGID_00000157995358330137859650000000711454885662093199_);fill:#221B19;" d="
				M216.3,123.4h0.8v4.8h-0.9l-2.9-3.9l0,0v3.9h-0.8v-4.8h0.9l2.9,3.9V123.4z"/>
		</g>
	</g>
	<g>
		<g>
			<defs>
				<rect id="SVGID_00000093179089372037777820000006613325878969669052_" x="-5.9" y="-107.1" width="1207.6" height="858.9"/>
			</defs>
			<clipPath id="SVGID_00000024682905159218566630000017992875854651258002_">
				<use xlink:href="#SVGID_00000093179089372037777820000006613325878969669052_"  style="overflow:visible;"/>
			</clipPath>
			<path id="path3915" style="clip-path:url(#SVGID_00000024682905159218566630000017992875854651258002_);fill:#221B19;" d="
				M222.8,128.3h-4.2v-4.8h4.2v0.6h-3.4v1.5h3.1v0.6h-3.1v1.6h3.5v0.5H222.8z"/>
		</g>
	</g>
	<g>
		<g>
			<defs>
				<rect id="SVGID_00000084516569241497779460000018259101892161829761_" x="-5.9" y="-107.1" width="1207.6" height="858.9"/>
			</defs>
			<clipPath id="SVGID_00000002345675648288838110000006834101756400310419_">
				<use xlink:href="#SVGID_00000084516569241497779460000018259101892161829761_"  style="overflow:visible;"/>
			</clipPath>
			<path id="path3917" style="clip-path:url(#SVGID_00000002345675648288838110000006834101756400310419_);fill:#221B19;" d="
				M227.8,123.4h0.8v4.8h-0.9l-2.9-3.9l0,0v3.9H224v-4.8h0.9l2.9,3.9V123.4z"/>
		</g>
	</g>
	<g>
		<g>
			<defs>
				<rect id="SVGID_00000032647399356303313250000004022847690517224615_" x="-5.9" y="-107.1" width="1207.6" height="858.9"/>
			</defs>
			<clipPath id="SVGID_00000026133410868638600000000007997783372683124910_">
				<use xlink:href="#SVGID_00000032647399356303313250000004022847690517224615_"  style="overflow:visible;"/>
			</clipPath>
			<path id="path3919" style="clip-path:url(#SVGID_00000026133410868638600000000007997783372683124910_);fill:#221B19;" d="
				M232.4,125.7h2.5v2.6h-0.5l-0.2-0.6c-0.4,0.4-1.1,0.7-1.9,0.7c-0.8,0-1.4-0.2-1.8-0.5c-0.6-0.5-0.9-1.2-0.9-2
				c0.1-1.6,1.1-2.4,2.7-2.5c1.4,0.1,2.2,0.6,2.5,1.6H234c-0.2-0.7-0.8-1-1.7-1c-1.2,0.1-1.8,0.7-1.9,2c0,1.3,0.6,2,1.9,2
				c0.5,0,0.9-0.1,1.2-0.3c0.4-0.3,0.6-0.7,0.6-1.3h-1.8L232.4,125.7L232.4,125.7z"/>
		</g>
	</g>
	<g>
		<g>
			<defs>
				<rect id="SVGID_00000063624307077761105800000014544311428047929277_" x="-5.9" y="-107.1" width="1207.6" height="858.9"/>
			</defs>
			<clipPath id="SVGID_00000180345051441770582590000016785819375769287083_">
				<use xlink:href="#SVGID_00000063624307077761105800000014544311428047929277_"  style="overflow:visible;"/>
			</clipPath>
			<path id="path3921" style="clip-path:url(#SVGID_00000180345051441770582590000016785819375769287083_);fill:#3C60B5;" d="
				M138.9,109.4l8.1,3.1l1.6-6h-9.1L138.9,109.4z"/>
		</g>
	</g>
	<g>
		<g>
			<defs>
				<rect id="SVGID_00000023966565467075691620000001749001738065943976_" x="-5.9" y="-107.1" width="1207.6" height="858.9"/>
			</defs>
			<clipPath id="SVGID_00000036227175469886630200000011208854162356957584_">
				<use xlink:href="#SVGID_00000023966565467075691620000001749001738065943976_"  style="overflow:visible;"/>
			</clipPath>
			<path id="path3923" style="clip-path:url(#SVGID_00000036227175469886630200000011208854162356957584_);fill:#3C60B5;" d="
				M138.8,109.8l-0.4,1.7l11.5,4.3l0.3-0.9L138.8,109.8z"/>
		</g>
	</g>
	<g>
		<g>
			<defs>
				<rect id="SVGID_00000131331832102141570760000002192207020968063640_" x="-5.9" y="-107.1" width="1207.6" height="858.9"/>
			</defs>
			<clipPath id="SVGID_00000181809744794888421500000017360315702953377922_">
				<use xlink:href="#SVGID_00000131331832102141570760000002192207020968063640_"  style="overflow:visible;"/>
			</clipPath>
			<path id="path3925" style="clip-path:url(#SVGID_00000181809744794888421500000017360315702953377922_);fill:#3C60B5;" d="
				M138.3,112.1l-0.4,1.6l11.5,4.2l0.2-0.9L138.3,112.1z"/>
		</g>
	</g>
	<g>
		<g>
			<defs>
				<rect id="SVGID_00000020379849469090312670000012672288082015283124_" x="-5.9" y="-107.1" width="1207.6" height="858.9"/>
			</defs>
			<clipPath id="SVGID_00000023266799847220846240000012397819675885227410_">
				<use xlink:href="#SVGID_00000020379849469090312670000012672288082015283124_"  style="overflow:visible;"/>
			</clipPath>
			<path id="path3927" style="clip-path:url(#SVGID_00000023266799847220846240000012397819675885227410_);fill:#3C60B5;" d="
				M137.2,116.1l11.5,4.3l0.3-1l-11.3-5L137.2,116.1z"/>
		</g>
	</g>
	<g>
		<g>
			<defs>
				<rect id="SVGID_00000041269165803724888530000006935135523459733675_" x="-5.9" y="-107.1" width="1207.6" height="858.9"/>
			</defs>
			<clipPath id="SVGID_00000040563786037548073480000002092642460077113761_">
				<use xlink:href="#SVGID_00000041269165803724888530000006935135523459733675_"  style="overflow:visible;"/>
			</clipPath>
			<path id="path3929" style="clip-path:url(#SVGID_00000040563786037548073480000002092642460077113761_);fill:#3C60B5;" d="
				M137.1,116.7l7.9,3.5l-2,8.2h-8.8L137.1,116.7z"/>
		</g>
	</g>
	<g>
		<g>
			<defs>
				<rect id="SVGID_00000045609791103884937200000005737450092738112397_" x="-5.9" y="-107.1" width="1207.6" height="858.9"/>
			</defs>
			<clipPath id="SVGID_00000164493768897220524260000000227204474050344330_">
				<use xlink:href="#SVGID_00000045609791103884937200000005737450092738112397_"  style="overflow:visible;"/>
			</clipPath>
			<path id="path3931" style="clip-path:url(#SVGID_00000164493768897220524260000000227204474050344330_);fill:#3C60B5;" d="
				M147.2,128.4h8.9l5.4-21.9h-8.9L147.2,128.4z"/>
		</g>
	</g>
</g>
</svg>
