<?xml version="1.0" encoding="UTF-8" standalone="no"?>
<!-- Created with Inkscape (http://www.inkscape.org/) -->

<svg
   width="23.142574mm"
   height="7.7141933mm"
   viewBox="0 0 23.142574 7.7141933"
   version="1.1"
   id="svg1"
   xmlns="http://www.w3.org/2000/svg"
   xmlns:svg="http://www.w3.org/2000/svg">
  <defs
     id="defs1">
    <clipPath
       clipPathUnits="userSpaceOnUse"
       id="clipPath973">
      <path
         d="M 0,858.898 H 1207.558 V 0 H 0 Z"
         transform="translate(2.5000001e-7,-3.5000001e-5)"
         id="path973" />
    </clipPath>
    <clipPath
       clipPathUnits="userSpaceOnUse"
       id="clipPath975">
      <path
         d="M 0,858.898 H 1207.558 V 0 H 0 Z"
         transform="translate(-216.2643,-336.05851)"
         id="path975" />
    </clipPath>
    <clipPath
       clipPathUnits="userSpaceOnUse"
       id="clipPath977">
      <path
         d="M 0,858.898 H 1207.558 V 0 H 0 Z"
         transform="translate(-193.6694,-336.05851)"
         id="path977" />
    </clipPath>
    <clipPath
       clipPathUnits="userSpaceOnUse"
       id="clipPath979">
      <path
         d="M 0,858.898 H 1207.558 V 0 H 0 Z"
         transform="translate(-186.77531,-336.05851)"
         id="path979" />
    </clipPath>
    <clipPath
       clipPathUnits="userSpaceOnUse"
       id="clipPath981">
      <path
         d="M 0,858.898 H 1207.558 V 0 H 0 Z"
         transform="translate(-218.99261,-333.43491)"
         id="path981" />
    </clipPath>
    <clipPath
       clipPathUnits="userSpaceOnUse"
       id="clipPath983">
      <path
         d="M 0,858.898 H 1207.558 V 0 H 0 Z"
         transform="translate(2.5000001e-7,-3.5000001e-5)"
         id="path983" />
    </clipPath>
    <clipPath
       clipPathUnits="userSpaceOnUse"
       id="clipPath985">
      <path
         d="M 0,858.898 H 1207.558 V 0 H 0 Z"
         transform="translate(-203.9337,-333.43491)"
         id="path985" />
    </clipPath>
    <clipPath
       clipPathUnits="userSpaceOnUse"
       id="clipPath987">
      <path
         d="M 0,858.898 H 1207.558 V 0 H 0 Z"
         transform="translate(-196.2105,-333.43491)"
         id="path987" />
    </clipPath>
    <clipPath
       clipPathUnits="userSpaceOnUse"
       id="clipPath989">
      <path
         d="M 0,858.898 H 1207.558 V 0 H 0 Z"
         transform="translate(-176.32481,-337.98461)"
         id="path989" />
    </clipPath>
  </defs>
  <g
     id="layer1"
     transform="translate(-52.464927,-111.08899)">
    <path
       id="path972"
       d="m 167.561,347.259 h 65.601 v -21.867 h -65.601 z"
       style="fill:#92d334;fill-opacity:1;fill-rule:nonzero;stroke:none"
       transform="matrix(0.35277776,0,0,-0.35277776,-6.6468634,233.59425)"
       clip-path="url(#clipPath973)" />
    <path
       id="path974"
       d="m 0,0 c 0,-0.317 -0.01,-0.541 -0.028,-0.672 -0.021,-0.134 -0.078,-0.252 -0.181,-0.362 -0.101,-0.109 -0.235,-0.194 -0.408,-0.251 -0.171,-0.06 -0.375,-0.089 -0.602,-0.089 -0.215,0 -0.409,0.029 -0.582,0.084 -0.17,0.054 -0.31,0.139 -0.419,0.249 -0.1,0.11 -0.162,0.229 -0.183,0.358 -0.023,0.133 -0.028,0.361 -0.028,0.686 v 0.539 c 0,0.317 0.008,0.542 0.025,0.673 0.016,0.131 0.078,0.254 0.182,0.359 0.1,0.112 0.238,0.193 0.408,0.253 0.173,0.058 0.369,0.087 0.597,0.087 0.214,0 0.418,-0.026 0.586,-0.084 0.171,-0.055 0.313,-0.137 0.419,-0.246 0.101,-0.11 0.165,-0.23 0.186,-0.361 C -0.01,1.092 0,0.867 0,0.542 Z M 1.688,2.056 C 1.642,2.302 1.489,2.524 1.228,2.73 0.975,2.938 0.626,3.094 0.205,3.194 -0.216,3.299 -0.698,3.351 -1.227,3.351 -1.788,3.351 -2.281,3.299 -2.706,3.186 -3.129,3.079 -3.462,2.919 -3.708,2.715 -3.959,2.511 -4.105,2.283 -4.152,2.037 -4.196,1.788 -4.222,1.369 -4.222,0.775 v -1.011 c 0,-0.61 0.026,-1.039 0.075,-1.28 0.046,-0.243 0.203,-0.471 0.46,-0.678 0.258,-0.206 0.599,-0.361 1.023,-0.466 0.426,-0.099 0.902,-0.156 1.439,-0.156 0.558,0 1.052,0.057 1.476,0.164 0.419,0.11 0.754,0.264 1.001,0.471 0.245,0.205 0.397,0.432 0.441,0.681 0.05,0.244 0.069,0.665 0.069,1.264 v 1.011 c 0,0.61 -0.019,1.037 -0.074,1.281"
       style="fill:#353540;fill-opacity:1;fill-rule:evenodd;stroke:none"
       transform="matrix(0.35277776,0,0,-0.35277776,69.646374,115.0403)"
       clip-path="url(#clipPath975)" />
    <path
       id="path976"
       d="m 0,0 c 0,-0.317 -0.008,-0.541 -0.032,-0.672 -0.018,-0.134 -0.074,-0.252 -0.18,-0.362 -0.096,-0.109 -0.235,-0.194 -0.402,-0.251 -0.171,-0.06 -0.376,-0.089 -0.601,-0.089 -0.214,0 -0.413,0.029 -0.586,0.084 -0.17,0.054 -0.307,0.139 -0.411,0.249 -0.111,0.11 -0.17,0.229 -0.193,0.358 -0.018,0.133 -0.027,0.361 -0.027,0.686 v 0.539 c 0,0.317 0.009,0.542 0.024,0.673 0.024,0.131 0.083,0.254 0.184,0.359 0.102,0.112 0.234,0.193 0.411,0.253 0.167,0.058 0.366,0.087 0.596,0.087 0.214,0 0.408,-0.026 0.581,-0.084 0.173,-0.055 0.313,-0.137 0.413,-0.246 0.106,-0.11 0.171,-0.23 0.189,-0.361 0.023,-0.131 0.03,-0.356 0.03,-0.681 L -0.004,0 Z M 1.687,2.056 C 1.642,2.302 1.488,2.524 1.229,2.73 0.97,2.938 0.633,3.094 0.203,3.194 -0.219,3.299 -0.695,3.351 -1.225,3.351 -1.79,3.351 -2.281,3.299 -2.702,3.186 -3.123,3.079 -3.457,2.919 -3.71,2.715 -3.955,2.511 -4.097,2.283 -4.146,2.037 -4.193,1.788 -4.217,1.369 -4.217,0.775 v -1.011 c 0,-0.61 0.024,-1.039 0.076,-1.28 0.046,-0.243 0.201,-0.471 0.457,-0.678 0.258,-0.206 0.599,-0.361 1.026,-0.466 0.425,-0.099 0.901,-0.156 1.436,-0.156 0.56,0 1.051,0.057 1.472,0.164 0.424,0.11 0.756,0.264 1.005,0.471 0.251,0.205 0.398,0.432 0.444,0.681 0.049,0.244 0.07,0.665 0.07,1.264 V 0.775 C 1.764,1.385 1.738,1.812 1.687,2.056"
       style="fill:#353540;fill-opacity:1;fill-rule:evenodd;stroke:none"
       transform="matrix(0.35277776,0,0,-0.35277776,61.675396,115.0403)"
       clip-path="url(#clipPath977)" />
    <path
       id="path978"
       d="m 0,0 c 0,-0.317 -0.008,-0.541 -0.022,-0.672 -0.019,-0.134 -0.076,-0.252 -0.179,-0.362 -0.097,-0.109 -0.227,-0.194 -0.394,-0.251 -0.164,-0.06 -0.36,-0.089 -0.577,-0.089 -0.21,0 -0.395,0.029 -0.562,0.084 -0.167,0.054 -0.303,0.139 -0.402,0.249 -0.102,0.11 -0.165,0.229 -0.182,0.358 -0.021,0.133 -0.03,0.361 -0.03,0.686 v 0.539 c 0,0.317 0.009,0.542 0.025,0.673 0.022,0.131 0.079,0.254 0.174,0.359 0.1,0.112 0.23,0.193 0.395,0.253 0.167,0.058 0.363,0.087 0.582,0.087 0.209,0 0.397,-0.026 0.559,-0.084 0.17,-0.055 0.305,-0.137 0.405,-0.246 0.102,-0.11 0.164,-0.23 0.186,-0.361 C -0.008,1.092 0,0.867 0,0.542 Z M 1.631,2.056 C 1.588,2.302 1.443,2.524 1.195,2.73 0.944,2.938 0.61,3.094 0.201,3.194 -0.208,3.299 -0.673,3.351 -1.186,3.351 -1.726,3.351 -2.201,3.299 -2.611,3.186 -3.016,3.079 -3.343,2.919 -3.579,2.715 -3.822,2.511 -3.964,2.283 -4.01,2.037 -4.059,1.788 -4.079,1.369 -4.079,0.775 v -1.011 c 0,-0.61 0.027,-1.039 0.073,-1.28 0.042,-0.243 0.197,-0.471 0.441,-0.678 0.25,-0.206 0.58,-0.361 0.989,-0.466 0.413,-0.099 0.877,-0.156 1.39,-0.156 0.546,0 1.016,0.057 1.427,0.164 0.408,0.11 0.732,0.264 0.972,0.471 0.239,0.205 0.38,0.432 0.425,0.681 0.05,0.244 0.075,0.665 0.075,1.264 V 0.775 C 1.71,1.385 1.688,1.812 1.631,2.056"
       style="fill:#353540;fill-opacity:1;fill-rule:evenodd;stroke:none"
       transform="matrix(0.35277776,0,0,-0.35277776,59.243312,115.0403)"
       clip-path="url(#clipPath979)" />
    <path
       id="path980"
       d="M 0,0 H 1.638 V 3.173 L 3.76,0 H 5.406 V 5.782 H 3.76 V 2.584 L 1.631,5.782 H 0 Z"
       style="fill:#353540;fill-opacity:1;fill-rule:evenodd;stroke:none"
       transform="matrix(0.35277776,0,0,-0.35277776,70.608859,115.96584)"
       clip-path="url(#clipPath981)" />
    <path
       id="path982"
       d="m 209.339,339.217 h 1.931 v -5.782 h -1.931 z"
       style="fill:#353540;fill-opacity:1;fill-rule:evenodd;stroke:none"
       transform="matrix(0.35277776,0,0,-0.35277776,-6.6468634,233.59425)"
       clip-path="url(#clipPath983)" />
    <path
       id="path984"
       d="M 0,0 H 4.633 V 1.42 H 1.824 V 5.782 H 0 Z"
       style="fill:#353540;fill-opacity:1;fill-rule:evenodd;stroke:none"
       transform="matrix(0.35277776,0,0,-0.35277776,65.296412,115.96584)"
       clip-path="url(#clipPath985)" />
    <path
       id="path986"
       d="M 0,0 H 1.475 V 4.41 L 2.61,0 H 3.949 L 5.087,4.511 V 0 H 6.565 V 5.782 H 3.998 L 3.293,2.88 2.577,5.782 H 0 Z"
       style="fill:#353540;fill-opacity:1;fill-rule:evenodd;stroke:none"
       transform="matrix(0.35277776,0,0,-0.35277776,62.571839,115.96584)"
       clip-path="url(#clipPath987)" />
    <path
       id="path988"
       d="M 0,0 H 3.361 L 0,-3.351 V -4.55 h 5.599 v 1.242 H 2.224 L 5.576,0.036 V 1.232 H 0 Z"
       style="fill:#353540;fill-opacity:1;fill-rule:evenodd;stroke:none"
       transform="matrix(0.35277776,0,0,-0.35277776,55.556608,114.36081)"
       clip-path="url(#clipPath989)" />
  </g>
</svg>
