<?xml version="1.0" encoding="UTF-8" standalone="no"?>
<!-- Created with Inkscape (http://www.inkscape.org/) -->

<svg
   width="13.843349mm"
   height="13.802436mm"
   viewBox="0 0 13.843349 13.802436"
   version="1.1"
   id="svg1"
   xmlns="http://www.w3.org/2000/svg"
   xmlns:svg="http://www.w3.org/2000/svg">
  <defs
     id="defs1">
    <clipPath
       clipPathUnits="userSpaceOnUse"
       id="clipPath3186">
      <path
         d="M 0,858.898 H 1207.558 V 0 H 0 Z"
         transform="translate(-222.60231,-130.5566)"
         id="path3186" />
    </clipPath>
    <clipPath
       clipPathUnits="userSpaceOnUse"
       id="clipPath3188">
      <path
         d="M 0,858.898 H 1207.558 V 0 H 0 Z"
         transform="translate(-220.23251,-133.3202)"
         id="path3188" />
    </clipPath>
    <clipPath
       clipPathUnits="userSpaceOnUse"
       id="clipPath3190">
      <path
         d="M 0,858.898 H 1207.558 V 0 H 0 Z"
         transform="translate(-216.03411,-133.4651)"
         id="path3190" />
    </clipPath>
    <clipPath
       clipPathUnits="userSpaceOnUse"
       id="clipPath3192">
      <path
         d="M 0,858.898 H 1207.558 V 0 H 0 Z"
         transform="translate(-208.78541,-138.92681)"
         id="path3192" />
    </clipPath>
    <clipPath
       clipPathUnits="userSpaceOnUse"
       id="clipPath3194">
      <path
         d="M 0,858.898 H 1207.558 V 0 H 0 Z"
         transform="translate(-213.5139,-135.1068)"
         id="path3194" />
    </clipPath>
    <clipPath
       clipPathUnits="userSpaceOnUse"
       id="clipPath3196">
      <path
         d="M 0,858.898 H 1207.558 V 0 H 0 Z"
         transform="translate(-210.7926,-136.7724)"
         id="path3196" />
    </clipPath>
    <clipPath
       clipPathUnits="userSpaceOnUse"
       id="clipPath3198">
      <path
         d="M 0,858.898 H 1207.558 V 0 H 0 Z"
         transform="translate(-210.10401,-141.5937)"
         id="path3198" />
    </clipPath>
    <clipPath
       clipPathUnits="userSpaceOnUse"
       id="clipPath3200">
      <path
         d="M 0,858.898 H 1207.558 V 0 H 0 Z"
         transform="translate(-206.11061,-144.1608)"
         id="path3200" />
    </clipPath>
    <clipPath
       clipPathUnits="userSpaceOnUse"
       id="clipPath3202">
      <path
         d="M 0,858.898 H 1207.558 V 0 H 0 Z"
         transform="translate(-206.30511,-147.12941)"
         id="path3202" />
    </clipPath>
    <clipPath
       clipPathUnits="userSpaceOnUse"
       id="clipPath3204">
      <path
         d="M 0,858.898 H 1207.558 V 0 H 0 Z"
         transform="translate(-223.1142,-134.6844)"
         id="path3204" />
    </clipPath>
    <clipPath
       clipPathUnits="userSpaceOnUse"
       id="clipPath3206">
      <path
         d="M 0,858.898 H 1207.558 V 0 H 0 Z"
         transform="translate(-226.35731,-132.5457)"
         id="path3206" />
    </clipPath>
    <clipPath
       clipPathUnits="userSpaceOnUse"
       id="clipPath3208">
      <path
         d="M 0,858.898 H 1207.558 V 0 H 0 Z"
         transform="translate(-229.0953,-133.4081)"
         id="path3208" />
    </clipPath>
    <clipPath
       clipPathUnits="userSpaceOnUse"
       id="clipPath3210">
      <path
         d="M 0,858.898 H 1207.558 V 0 H 0 Z"
         transform="translate(-230.88521,-134.2037)"
         id="path3210" />
    </clipPath>
    <clipPath
       clipPathUnits="userSpaceOnUse"
       id="clipPath3212">
      <path
         d="M 0,858.898 H 1207.558 V 0 H 0 Z"
         transform="translate(-232.7109,-135.2921)"
         id="path3212" />
    </clipPath>
    <clipPath
       clipPathUnits="userSpaceOnUse"
       id="clipPath3214">
      <path
         d="M 0,858.898 H 1207.558 V 0 H 0 Z"
         transform="translate(-235.19961,-137.41211)"
         id="path3214" />
    </clipPath>
    <clipPath
       clipPathUnits="userSpaceOnUse"
       id="clipPath3216">
      <path
         d="M 0,858.898 H 1207.558 V 0 H 0 Z"
         transform="translate(-236.01101,-139.5959)"
         id="path3216" />
    </clipPath>
    <clipPath
       clipPathUnits="userSpaceOnUse"
       id="clipPath3218">
      <path
         d="M 0,858.898 H 1207.558 V 0 H 0 Z"
         transform="translate(-238.19151,-141.5103)"
         id="path3218" />
    </clipPath>
    <clipPath
       clipPathUnits="userSpaceOnUse"
       id="clipPath3220">
      <path
         d="M 0,858.898 H 1207.558 V 0 H 0 Z"
         transform="translate(-238.92291,-143.1974)"
         id="path3220" />
    </clipPath>
    <clipPath
       clipPathUnits="userSpaceOnUse"
       id="clipPath3222">
      <path
         d="M 0,858.898 H 1207.558 V 0 H 0 Z"
         transform="translate(-239.66061,-145.7147)"
         id="path3222" />
    </clipPath>
    <clipPath
       clipPathUnits="userSpaceOnUse"
       id="clipPath3224">
      <path
         d="M 0,858.898 H 1207.558 V 0 H 0 Z"
         transform="translate(-222.53091,-136.7498)"
         id="path3224" />
    </clipPath>
    <clipPath
       clipPathUnits="userSpaceOnUse"
       id="clipPath3226">
      <path
         d="M 0,858.898 H 1207.558 V 0 H 0 Z"
         transform="translate(-223.19291,-152.26391)"
         id="path3226" />
    </clipPath>
    <clipPath
       clipPathUnits="userSpaceOnUse"
       id="clipPath3228">
      <path
         d="M 0,858.898 H 1207.558 V 0 H 0 Z"
         transform="translate(-207.40461,-155.8071)"
         id="path3228" />
    </clipPath>
    <clipPath
       clipPathUnits="userSpaceOnUse"
       id="clipPath3230">
      <path
         d="M 0,858.898 H 1207.558 V 0 H 0 Z"
         transform="translate(-209.16791,-156.78491)"
         id="path3230" />
    </clipPath>
    <clipPath
       clipPathUnits="userSpaceOnUse"
       id="clipPath3232">
      <path
         d="M 0,858.898 H 1207.558 V 0 H 0 Z"
         transform="translate(-208.03391,-155.9066)"
         id="path3232" />
    </clipPath>
    <clipPath
       clipPathUnits="userSpaceOnUse"
       id="clipPath3234">
      <path
         d="M 0,858.898 H 1207.558 V 0 H 0 Z"
         transform="translate(-239.6325,-155.32871)"
         id="path3234" />
    </clipPath>
    <clipPath
       clipPathUnits="userSpaceOnUse"
       id="clipPath3236">
      <path
         d="M 0,858.898 H 1207.558 V 0 H 0 Z"
         transform="translate(-215.5962,-163.1807)"
         id="path3236" />
    </clipPath>
    <clipPath
       clipPathUnits="userSpaceOnUse"
       id="clipPath3238">
      <path
         d="M 0,858.898 H 1207.558 V 0 H 0 Z"
         transform="translate(-216.8508,-163.0287)"
         id="path3238" />
    </clipPath>
    <clipPath
       clipPathUnits="userSpaceOnUse"
       id="clipPath3240">
      <path
         d="M 0,858.898 H 1207.558 V 0 H 0 Z"
         transform="translate(-218.56761,-141.0636)"
         id="path3240" />
    </clipPath>
    <clipPath
       clipPathUnits="userSpaceOnUse"
       id="clipPath3242">
      <path
         d="M 0,858.898 H 1207.558 V 0 H 0 Z"
         transform="translate(-226.27911,-141.0636)"
         id="path3242" />
    </clipPath>
    <clipPath
       clipPathUnits="userSpaceOnUse"
       id="clipPath3244">
      <path
         d="M 0,858.898 H 1207.558 V 0 H 0 Z"
         transform="translate(-221.55651,-139.88921)"
         id="path3244" />
    </clipPath>
    <clipPath
       clipPathUnits="userSpaceOnUse"
       id="clipPath3246">
      <path
         d="M 0,858.898 H 1207.558 V 0 H 0 Z"
         transform="translate(-224.81391,-140.55311)"
         id="path3246" />
    </clipPath>
    <clipPath
       clipPathUnits="userSpaceOnUse"
       id="clipPath3248">
      <path
         d="M 0,858.898 H 1207.558 V 0 H 0 Z"
         transform="translate(-230.28371,-164.41331)"
         id="path3248" />
    </clipPath>
    <clipPath
       clipPathUnits="userSpaceOnUse"
       id="clipPath3250">
      <path
         d="M 0,858.898 H 1207.558 V 0 H 0 Z"
         transform="translate(-229.48061,-162.9356)"
         id="path3250" />
    </clipPath>
  </defs>
  <g
     id="layer1"
     transform="translate(-64.960778,-173.97602)">
    <path
       id="path3185"
       d="m 0,0 c -10.455,0 -18.931,8.451 -18.931,18.876 0,10.425 8.476,18.878 18.931,18.878 10.455,0 18.932,-8.451 18.932,-18.878 C 18.932,8.449 10.459,0 0,0 m 0,38.44 c -10.837,0 -19.62,-8.757 -19.62,-19.564 0,-10.806 8.783,-19.561 19.62,-19.561 10.837,0 19.621,8.754 19.621,19.561 C 19.621,29.683 10.837,38.44 0,38.44"
       style="fill:#832126;fill-opacity:1;fill-rule:nonzero;stroke:none"
       transform="matrix(0.35277776,0,0,-0.35277776,71.88228,187.5368)"
       clip-path="url(#clipPath3186)" />
    <path
       id="path3187"
       d="M 0,0 0.064,0.419 1.169,0.257 1.016,-0.732 C 0.895,-0.817 0.724,-0.884 0.508,-0.931 0.293,-0.976 0.083,-0.985 -0.127,-0.953 c -0.266,0.037 -0.489,0.126 -0.667,0.264 -0.183,0.137 -0.307,0.314 -0.375,0.532 -0.067,0.217 -0.081,0.442 -0.046,0.682 0.042,0.258 0.132,0.477 0.275,0.661 0.14,0.185 0.326,0.313 0.556,0.392 C -0.208,1.633 0,1.645 0.243,1.609 0.558,1.563 0.794,1.463 0.949,1.307 1.107,1.153 1.193,0.96 1.209,0.723 L 0.684,0.708 C 0.667,0.834 0.613,0.939 0.527,1.022 0.44,1.108 0.324,1.163 0.176,1.185 -0.046,1.215 -0.236,1.172 -0.39,1.055 -0.541,0.935 -0.64,0.736 -0.684,0.466 c -0.043,-0.294 -0.012,-0.525 0.1,-0.692 0.109,-0.167 0.275,-0.268 0.493,-0.298 0.104,-0.016 0.213,-0.01 0.328,0.014 0.116,0.029 0.213,0.062 0.302,0.109 l 0.048,0.316 z"
       style="fill:#832126;fill-opacity:1;fill-rule:nonzero;stroke:none"
       transform="matrix(0.35277776,0,0,-0.35277776,71.046269,186.56186)"
       clip-path="url(#clipPath3188)" />
    <path
       id="path3189"
       d="M 0,0 0.851,2.356 1.326,2.196 1.749,0.283 2.317,1.857 2.772,1.703 1.922,-0.655 1.429,-0.488 1.012,1.393 0.452,-0.156 Z"
       style="fill:#832126;fill-opacity:1;fill-rule:nonzero;stroke:none"
       transform="matrix(0.35277776,0,0,-0.35277776,69.565165,186.51074)"
       clip-path="url(#clipPath3190)" />
    <path
       id="path3191"
       d="M 0,0 1.953,1.625 2.279,1.253 1.66,-0.61 2.963,0.477 3.276,0.119 1.324,-1.505 0.988,-1.12 1.593,0.707 0.314,-0.354 Z"
       style="fill:#832126;fill-opacity:1;fill-rule:nonzero;stroke:none"
       transform="matrix(0.35277776,0,0,-0.35277776,67.007986,184.58398)"
       clip-path="url(#clipPath3192)" />
    <path
       id="path3193"
       d="m 0,0 c 0.072,-0.308 0.271,-0.559 0.599,-0.75 0.324,-0.189 0.643,-0.243 0.957,-0.16 0.312,0.081 0.577,0.295 0.791,0.642 C 2.564,0.081 2.636,0.41 2.563,0.72 2.489,1.029 2.289,1.28 1.967,1.471 1.789,1.577 1.613,1.639 1.44,1.665 1.312,1.681 1.178,1.673 1.036,1.637 0.895,1.602 0.767,1.543 0.649,1.462 0.491,1.353 0.344,1.193 0.208,0.974 -0.002,0.633 -0.071,0.308 0,0 M 1.187,1.174 C 1.375,1.23 1.561,1.205 1.744,1.098 1.926,0.991 2.035,0.844 2.07,0.658 2.105,0.471 2.047,0.256 1.896,0.011 1.741,-0.238 1.569,-0.392 1.377,-0.449 1.187,-0.508 1.003,-0.483 0.826,-0.382 0.65,-0.276 0.542,-0.127 0.506,0.065 0.47,0.256 0.526,0.475 0.675,0.72 0.828,0.966 0.999,1.116 1.187,1.174"
       style="fill:#832126;fill-opacity:1;fill-rule:nonzero;stroke:none"
       transform="matrix(0.35277776,0,0,-0.35277776,68.676094,185.93159)"
       clip-path="url(#clipPath3194)" />
    <path
       id="path3195"
       d="m 0,0 0.742,-0.613 c 0.146,-0.118 0.274,-0.201 0.384,-0.249 0.15,-0.061 0.286,-0.083 0.412,-0.076 0.165,0.014 0.332,0.068 0.501,0.167 0.14,0.079 0.277,0.198 0.414,0.354 0.155,0.18 0.264,0.348 0.328,0.503 C 2.844,0.243 2.874,0.399 2.863,0.549 2.855,0.704 2.806,0.842 2.721,0.972 2.657,1.065 2.545,1.178 2.381,1.312 L 1.661,1.907 Z M 1.952,1.114 C 2.112,0.978 2.214,0.884 2.26,0.826 2.32,0.752 2.353,0.67 2.364,0.587 2.373,0.503 2.357,0.412 2.314,0.31 2.275,0.209 2.189,0.086 2.06,-0.063 1.929,-0.211 1.817,-0.314 1.717,-0.379 1.617,-0.442 1.527,-0.472 1.455,-0.477 1.379,-0.483 1.304,-0.461 1.226,-0.423 1.167,-0.397 1.081,-0.336 0.971,-0.249 l -0.292,0.245 1.096,1.261 z"
       style="fill:#832126;fill-opacity:1;fill-rule:nonzero;stroke:none"
       transform="matrix(0.35277776,0,0,-0.35277776,67.71608,185.344)"
       clip-path="url(#clipPath3196)" />
    <path
       id="path3197"
       d="m 0,0 -0.272,0.465 -2.726,-0.391 0.271,-0.466 0.615,0.104 0.509,-0.873 -0.399,-0.471 0.276,-0.47 z m -1.655,-0.214 0.999,0.164 -0.652,-0.759 z"
       style="fill:#832126;fill-opacity:1;fill-rule:nonzero;stroke:none"
       transform="matrix(0.35277776,0,0,-0.35277776,67.473158,183.64315)"
       clip-path="url(#clipPath3198)" />
    <path
       id="path3199"
       d="M 0,0 2.415,0.852 2.591,0.375 1.639,0.039 1.983,-0.885 2.936,-0.55 3.113,-1.027 0.701,-1.876 l -0.18,0.473 1.054,0.372 -0.344,0.925 -1.053,-0.37 z"
       style="fill:#832126;fill-opacity:1;fill-rule:nonzero;stroke:none"
       transform="matrix(0.35277776,0,0,-0.35277776,66.064376,182.73754)"
       clip-path="url(#clipPath3200)" />
    <path
       id="path3201"
       d="m 0,0 0.139,-0.473 c -0.16,-0.058 -0.275,-0.139 -0.334,-0.243 -0.064,-0.101 -0.078,-0.229 -0.051,-0.379 0.03,-0.158 0.087,-0.275 0.173,-0.345 0.083,-0.066 0.173,-0.093 0.265,-0.074 0.06,0.011 0.109,0.035 0.144,0.074 0.036,0.043 0.061,0.112 0.077,0.2 0.009,0.061 0.02,0.201 0.035,0.415 0.019,0.278 0.069,0.477 0.147,0.602 C 0.707,-0.049 0.86,0.057 1.06,0.094 1.191,0.116 1.318,0.102 1.443,0.052 1.567,-0.001 1.672,-0.086 1.756,-0.211 1.839,-0.331 1.899,-0.489 1.932,-0.677 1.99,-0.985 1.962,-1.23 1.854,-1.409 1.745,-1.591 1.574,-1.703 1.343,-1.753 l -0.11,0.494 c 0.124,0.044 0.208,0.106 0.252,0.187 0.043,0.077 0.052,0.186 0.028,0.324 -0.028,0.145 -0.079,0.25 -0.155,0.321 -0.05,0.046 -0.104,0.062 -0.17,0.05 C 1.126,-0.386 1.081,-0.42 1.047,-0.475 1.005,-0.55 0.978,-0.711 0.963,-0.961 0.948,-1.212 0.922,-1.4 0.878,-1.529 0.839,-1.654 0.769,-1.76 0.672,-1.843 0.577,-1.93 0.447,-1.985 0.287,-2.012 0.143,-2.039 0,-2.023 -0.143,-1.968 c -0.141,0.057 -0.256,0.15 -0.342,0.286 -0.09,0.129 -0.154,0.302 -0.194,0.517 -0.059,0.309 -0.029,0.559 0.088,0.753 C -0.473,-0.22 -0.276,-0.084 0,0"
       style="fill:#832126;fill-opacity:1;fill-rule:nonzero;stroke:none"
       transform="matrix(0.35277776,0,0,-0.35277776,66.13299,181.69028)"
       clip-path="url(#clipPath3202)" />
    <path
       id="path3203"
       d="m 0,0 0.516,0.044 0.121,-1.348 c 0.02,-0.218 0.038,-0.354 0.057,-0.417 0.03,-0.098 0.092,-0.177 0.179,-0.233 0.088,-0.051 0.204,-0.075 0.347,-0.063 0.142,0.012 0.25,0.051 0.318,0.118 0.069,0.062 0.107,0.138 0.113,0.223 0.01,0.088 0.003,0.23 -0.014,0.427 L 1.514,0.13 2.031,0.174 2.148,-1.136 C 2.176,-1.436 2.18,-1.647 2.163,-1.771 2.148,-1.898 2.107,-2.005 2.039,-2.097 1.971,-2.191 1.877,-2.267 1.756,-2.327 1.636,-2.388 1.476,-2.429 1.272,-2.446 1.03,-2.467 0.843,-2.452 0.71,-2.41 c -0.128,0.044 -0.236,0.108 -0.316,0.191 -0.08,0.08 -0.138,0.168 -0.17,0.263 -0.045,0.138 -0.083,0.347 -0.107,0.627 z"
       style="fill:#832126;fill-opacity:1;fill-rule:nonzero;stroke:none"
       transform="matrix(0.35277776,0,0,-0.35277776,72.062866,186.0806)"
       clip-path="url(#clipPath3204)" />
    <path
       id="path3205"
       d="M 0,0 -0.703,2.408 -0.22,2.538 1.264,1.214 0.793,2.817 1.255,2.944 1.957,0.542 1.457,0.405 0.001,1.708 0.461,0.13 Z"
       style="fill:#832126;fill-opacity:1;fill-rule:nonzero;stroke:none"
       transform="matrix(0.35277776,0,0,-0.35277776,73.206962,186.83509)"
       clip-path="url(#clipPath3206)" />
    <path
       id="path3207"
       d="M 0,0 -0.975,2.313 -0.494,2.506 0.482,0.194 Z"
       style="fill:#832126;fill-opacity:1;fill-rule:nonzero;stroke:none"
       transform="matrix(0.35277776,0,0,-0.35277776,74.172866,186.53085)"
       clip-path="url(#clipPath3208)" />
    <path
       id="path3209"
       d="M 0,0 -2.051,1.747 -1.561,2.012 -0.067,0.705 -0.449,2.618 0.035,2.879 0.49,0.268 Z"
       style="fill:#832126;fill-opacity:1;fill-rule:nonzero;stroke:none"
       transform="matrix(0.35277776,0,0,-0.35277776,74.804304,186.25018)"
       clip-path="url(#clipPath3210)" />
    <path
       id="path3211"
       d="M 0,0 -1.599,1.958 -0.111,3.11 0.162,2.777 -0.924,1.942 -0.569,1.507 0.441,2.284 0.71,1.956 -0.295,1.173 0.135,0.648 1.255,1.512 1.527,1.186 Z"
       style="fill:#832126;fill-opacity:1;fill-rule:nonzero;stroke:none"
       transform="matrix(0.35277776,0,0,-0.35277776,75.448369,185.86622)"
       clip-path="url(#clipPath3212)" />
    <path
       id="path3213"
       d="m 0,0 -0.788,0.705 0.07,0.075 c 0.081,0.087 0.148,0.14 0.198,0.17 0.052,0.024 0.112,0.04 0.184,0.04 0.072,0.001 0.225,-0.016 0.463,-0.051 L 0.789,0.84 1.207,1.282 0.629,1.386 C 0.397,1.429 0.23,1.45 0.121,1.45 c -0.106,0 -0.22,-0.021 -0.346,-0.058 0.13,0.182 0.187,0.357 0.168,0.521 C -0.072,2.075 -0.152,2.221 -0.293,2.348 -0.406,2.45 -0.531,2.51 -0.668,2.535 -0.807,2.559 -0.932,2.542 -1.053,2.481 -1.17,2.423 -1.319,2.296 -1.506,2.1 l -0.738,-0.783 1.892,-1.686 z m -1.57,1.404 0.27,0.288 c 0.142,0.149 0.23,0.238 0.263,0.266 0.066,0.049 0.136,0.073 0.206,0.073 C -0.761,2.03 -0.694,1.998 -0.632,1.942 -0.575,1.89 -0.538,1.836 -0.525,1.776 -0.51,1.717 -0.515,1.659 -0.541,1.603 -0.568,1.542 -0.663,1.425 -0.831,1.248 L -1.089,0.974 Z"
       style="fill:#832126;fill-opacity:1;fill-rule:nonzero;stroke:none"
       transform="matrix(0.35277776,0,0,-0.35277776,76.326328,185.11833)"
       clip-path="url(#clipPath3214)" />
    <path
       id="path3215"
       d="M 0,0 0.24,0.434 C 0.398,0.366 0.537,0.351 0.654,0.384 0.771,0.416 0.871,0.496 0.96,0.625 1.052,0.755 1.094,0.877 1.08,0.983 1.07,1.09 1.024,1.171 0.947,1.22 0.895,1.253 0.844,1.265 0.785,1.263 0.731,1.256 0.666,1.225 0.589,1.173 0.539,1.134 0.43,1.045 0.267,0.899 0.057,0.713 -0.124,0.601 -0.269,0.563 -0.473,0.515 -0.66,0.545 -0.829,0.652 c -0.108,0.072 -0.189,0.166 -0.245,0.287 -0.049,0.122 -0.065,0.255 -0.038,0.4 0.03,0.143 0.098,0.296 0.206,0.458 0.179,0.259 0.371,0.416 0.58,0.471 0.209,0.055 0.411,0.024 0.613,-0.095 L 0.015,1.739 C -0.107,1.792 -0.211,1.805 -0.299,1.781 -0.39,1.75 -0.473,1.676 -0.552,1.562 -0.635,1.44 -0.677,1.327 -0.673,1.225 c 0.005,-0.063 0.033,-0.113 0.088,-0.15 0.05,-0.033 0.108,-0.041 0.171,-0.02 0.083,0.02 0.218,0.118 0.409,0.289 0.19,0.171 0.345,0.289 0.464,0.353 0.12,0.063 0.244,0.09 0.375,0.085 C 0.963,1.777 1.095,1.73 1.232,1.646 1.353,1.563 1.446,1.453 1.509,1.32 1.57,1.184 1.585,1.04 1.555,0.885 1.524,0.731 1.446,0.563 1.322,0.381 1.142,0.12 0.942,-0.042 0.72,-0.1 0.499,-0.164 0.26,-0.129 0,0"
       style="fill:#832126;fill-opacity:1;fill-rule:nonzero;stroke:none"
       transform="matrix(0.35277776,0,0,-0.35277776,76.612573,184.34793)"
       clip-path="url(#clipPath3216)" />
    <path
       id="path3217"
       d="M 0,0 -2.318,1.078 -2.093,1.534 0.224,0.457 Z"
       style="fill:#832126;fill-opacity:1;fill-rule:nonzero;stroke:none"
       transform="matrix(0.35277776,0,0,-0.35277776,77.381804,183.67258)"
       clip-path="url(#clipPath3218)" />
    <path
       id="path3219"
       d="m 0,0 -2.012,0.685 -0.252,-0.702 -0.41,0.143 0.671,1.868 0.41,-0.139 -0.248,-0.691 2.014,-0.687 z"
       style="fill:#832126;fill-opacity:1;fill-rule:nonzero;stroke:none"
       transform="matrix(0.35277776,0,0,-0.35277776,77.639825,183.0774)"
       clip-path="url(#clipPath3220)" />
    <path
       id="path3221"
       d="m 0,0 -1.063,0.194 -1.632,-0.638 0.111,0.58 1.11,0.398 -0.891,0.75 0.109,0.572 1.293,-1.166 1.057,-0.193 z"
       style="fill:#832126;fill-opacity:1;fill-rule:nonzero;stroke:none"
       transform="matrix(0.35277776,0,0,-0.35277776,77.90007,182.18936)"
       clip-path="url(#clipPath3222)" />
    <path
       id="path3223"
       d="M 0,0 C -4.822,0 -9.032,2.577 -11.279,6.413 H 11.285 C 9.034,2.577 4.826,0 0,0 m 0,25.598 c 7.187,0 13.015,-5.733 13.015,-12.801 0,-2.068 -0.498,-4.02 -1.382,-5.751 H -11.62 V 7.035 c -0.891,1.735 -1.394,3.689 -1.394,5.762 0,7.068 5.827,12.801 13.014,12.801 m 0,0.534 c -7.485,0 -13.558,-5.969 -13.558,-13.335 0,-7.365 6.073,-13.335 13.558,-13.335 7.489,0 13.559,5.969 13.559,13.335 0,7.366 -6.07,13.335 -13.559,13.335"
       style="fill:#832126;fill-opacity:1;fill-rule:nonzero;stroke:none"
       transform="matrix(0.35277776,0,0,-0.35277776,71.857092,185.35197)"
       clip-path="url(#clipPath3224)" />
    <path
       id="path3225"
       d="M 0,0 -0.282,1.974 -1.016,1.998 -1.296,0 -3.381,0.11 -0.62,5.774 2.592,-1.193 0.141,-1.248 1.099,-0.028 Z M -5.015,0.138 -6.957,0.223 -5.86,2.386 -4.592,1.11 Z m 9.606,2.307 1.691,-3.5 -1.973,-0.11 -1.041,2.275 z m 6.086,-7.941 C 8.846,-6.909 7.382,-5.272 7.382,-5.272 4.958,-7.523 3.016,-5.385 3.016,-5.385 1.493,-6.468 0.818,-6.245 0.818,-6.245 L 0.309,-2.58 3.297,-2.553 3.832,-3.748 H 5.551 L 5.014,-2.58 h 2.027 l 0.51,-1.194 1.747,0.082 -0.479,1.083 h 1.493 L 10.34,-0.944 7.946,-0.999 4.958,4.915 2.621,2.471 -0.62,8.995 -3.916,2.471 -6.225,4.915 -8.592,0.194 l -3.016,0.085 -0.026,-1.722 2.197,0.084 -0.959,-2.054 h 1.662 l 0.986,2.054 2.028,0.054 -0.928,-2.108 h 1.69 l 0.959,2.108 2.562,-0.028 -0.873,-1.193 0.706,-0.027 -0.454,-3.662 c -0.843,-0.198 -2.14,0.859 -2.14,0.859 -2.423,-2.167 -4.506,0.084 -4.506,0.084 -1.521,-1.668 -3.297,-0.249 -3.297,-0.249 l -0.423,-1.002 c 1.973,-1.249 3.746,-0.082 3.746,-0.082 2.508,-1.583 4.48,-0.109 4.48,-0.109 2.478,-1.557 3.522,-0.059 3.522,-0.059 1.634,-1.442 3.635,0.085 3.635,0.085 1.999,-1.557 4.365,0.054 4.365,0.054 2.001,-1.192 3.806,0.083 3.806,0.083 z"
       style="fill:#832126;fill-opacity:1;fill-rule:nonzero;stroke:none"
       transform="matrix(0.35277776,0,0,-0.35277776,72.090632,179.87894)"
       clip-path="url(#clipPath3226)" />
    <path
       id="path3227"
       d="m 0,0 c 0,0 0.088,-0.077 0.154,0.012 0,0 0.045,0.339 -0.109,0.509 0,0 -0.431,0.597 -0.517,0.911 0,0 -0.111,0.143 -0.671,0.143 0,0 -0.079,-0.13 -0.025,-0.176 0.057,-0.04 0.253,0.023 0.463,-0.356 L -0.167,0.336 C -0.167,0.336 0.011,0.141 0,0"
       style="fill:#832126;fill-opacity:1;fill-rule:nonzero;stroke:none"
       transform="matrix(0.35277776,0,0,-0.35277776,66.52087,178.62898)"
       clip-path="url(#clipPath3228)" />
    <path
       id="path3229"
       d="m 0,0 -0.618,0.053 c 0,0 -0.22,-0.074 -0.043,-0.194 0,0 0.328,-0.642 0.208,-1.009 0,0 0.11,-0.186 0.177,0.077 0,0 0.175,0.693 0.33,0.801 0,0 0.121,0.215 -0.054,0.272"
       style="fill:#832126;fill-opacity:1;fill-rule:nonzero;stroke:none"
       transform="matrix(0.35277776,0,0,-0.35277776,67.142924,178.28404)"
       clip-path="url(#clipPath3230)" />
    <path
       id="path3231"
       d="m 0,0 c 0,0 -0.057,0.183 -0.158,0.022 0,0 0.058,-0.621 -0.096,-0.828 0,0 -0.011,-0.596 -0.079,-0.758 0,0 -0.097,-0.381 -0.076,-0.467 h -0.067 c 0,0 -0.33,0.88 -0.758,0.707 0,0 -0.031,-0.087 0.066,-0.163 0,0 0.465,-0.857 0.397,-1.096 0,0 0.306,-0.078 0.583,-0.065 0,0 0.32,0.769 0.362,1.052 0,0 0.032,0.522 -0.011,0.695 0,0 -0.066,0.637 -0.163,0.901"
       style="fill:#832126;fill-opacity:1;fill-rule:nonzero;stroke:none"
       transform="matrix(0.35277776,0,0,-0.35277776,66.742874,178.59388)"
       clip-path="url(#clipPath3232)" />
    <path
       id="path3233"
       d="M 0,0 C 0,0 0.061,0.02 0.115,-0.043 L 0.27,-0.186 c 0,0 -0.428,0.028 -0.27,0.186 m -3.572,-0.744 c -0.576,-0.009 -0.369,0.845 -0.369,0.845 0,0.432 0.43,-0.144 0.43,-0.144 l 0.324,-0.432 c 0.25,-0.384 -0.385,-0.269 -0.385,-0.269 m 4.199,0.558 -0.115,0.051 -0.314,0.267 c 0,0 -0.241,-0.051 -0.198,0.298 0,0 -0.021,0.113 -0.219,0.092 l -0.596,0.444 c 0,0 -0.188,0.142 0.144,0.256 0,0 0.253,0.102 -0.125,0.122 0,0 -0.415,-0.05 -0.468,-0.152 0,0 -0.043,-0.339 0.25,-0.319 0,0 0.553,-0.381 0.648,-0.443 0,0 -0.105,-0.298 -0.032,-0.401 0,0 -0.031,-0.122 -0.312,0.072 0,0 -1.347,0.577 -1.4,0.793 0,0 -0.284,0.051 -0.418,-0.061 0,0 -0.021,-0.27 0.051,-0.321 l 0.408,-0.267 c 0,0 -0.166,-0.083 -0.521,0.031 0,0 -0.347,-0.054 -0.116,-0.339 0,0 0.178,-0.351 -0.074,-0.497 0,0 0.01,0.672 -1.014,1.515 0,0 -0.324,-0.01 -0.479,-1.451 0,0 -0.066,-0.578 0.595,-0.536 l 0.512,0.084 c 0,0 0.052,0.081 0.117,-0.052 l -0.024,-0.351 c 0,0 -0.166,-0.123 0.031,-0.182 0,0 0.19,-0.322 0.315,0.122 l -0.023,0.627 c 0,0 0.399,-0.063 0.336,0.649 l 0.879,-0.051 c 0,0 0.25,0.193 -0.179,0.501 0,0 0.48,-0.234 0.617,-0.398 0,0 0.022,-0.083 0.261,-0.075 0,0 0.051,-0.121 0.478,-0.203 0,0 0.032,-0.216 0.985,-0.267 0,0 0.124,0.295 0,0.442"
       style="fill:#832126;fill-opacity:1;fill-rule:nonzero;stroke:none"
       transform="matrix(0.35277776,0,0,-0.35277776,77.890156,178.79775)"
       clip-path="url(#clipPath3234)" />
    <path
       id="path3235"
       d="M 0,0 -0.156,-0.249 -0.294,0.492 C -0.335,0.73 -0.156,0.935 -0.156,0.935 -0.064,0.739 -0.021,0.336 -0.021,0.336 0.008,0.133 0,0 0,0 m 0.554,-0.178 c 0,0 -0.18,0.178 0.01,0.868 L 0.427,0.863 0.417,0.997 0.271,1.029 c 0,0 -0.104,0.196 -0.315,0.093 0,0 -0.135,-0.033 0.044,0.215 L 0.355,1.891 0.313,2.592 c 0,0 0.022,0.135 -0.219,0.104 0,0 0.052,-0.136 -0.052,-0.267 -0.106,-0.133 -0.221,-0.403 -0.263,-0.555 0,0 -0.073,0.646 -0.114,0.778 L -0.49,2.87 c 0,0 -0.219,0.122 -0.054,-0.249 V 1.211 L -0.81,0.843 c 0,0 -0.386,-0.099 -0.097,-0.284 l 0.417,-0.087 0.032,-0.91 -0.003,-0.255 0.336,-0.052 0.288,0.428 c 0,0 0.051,0.028 0.079,-0.065 L 0.293,-0.77 c 0,0 -0.126,-0.404 -0.229,-0.445 0,0 -0.043,-0.022 -0.158,-0.135 0,0 -0.316,-0.412 0.167,-0.412 0,0 0.186,-0.073 0.209,0.206 l 0.031,0.361 0.721,-0.135 c 0,0 0.042,0.196 -0.117,0.434 z"
       style="fill:#832126;fill-opacity:1;fill-rule:nonzero;stroke:none"
       transform="matrix(0.35277776,0,0,-0.35277776,69.410683,176.02774)"
       clip-path="url(#clipPath3236)" />
    <path
       id="path3237"
       d="m 0,0 -0.41,-0.076 c 0,0 -0.267,-0.144 0.019,-0.169 0,0 0.275,-0.09 0.416,-0.211 0,0 0.191,-0.25 0.276,0.059 v 0.214 C 0.301,-0.183 0.286,0.016 0,0"
       style="fill:#832126;fill-opacity:1;fill-rule:nonzero;stroke:none"
       transform="matrix(0.35277776,0,0,-0.35277776,69.853278,176.08136)"
       clip-path="url(#clipPath3238)" />
    <path
       id="path3239"
       d="M 0,0 -0.296,-0.236 -0.503,0.052 0.144,0.554 0.37,0.435 V -2.093 H 0 Z"
       style="fill:#832126;fill-opacity:1;fill-rule:nonzero;stroke:none"
       transform="matrix(0.35277776,0,0,-0.35277776,70.458928,183.83016)"
       clip-path="url(#clipPath3240)" />
    <path
       id="path3241"
       d="M 0,0 -0.299,-0.236 -0.505,0.052 0.145,0.554 0.37,0.435 V -2.093 H 0 Z"
       style="fill:#832126;fill-opacity:1;fill-rule:nonzero;stroke:none"
       transform="matrix(0.35277776,0,0,-0.35277776,73.179374,183.83016)"
       clip-path="url(#clipPath3242)" />
    <path
       id="path3243"
       d="M 0,0 C 0,-0.063 -0.006,-0.126 -0.019,-0.189 -0.034,-0.256 -0.052,-0.311 -0.075,-0.36 -0.1,-0.409 -0.138,-0.45 -0.186,-0.485 c -0.049,-0.034 -0.109,-0.059 -0.178,-0.072 -0.07,-0.01 -0.127,-0.012 -0.172,-0.01 -0.086,0.003 -0.159,0.021 -0.213,0.058 -0.058,0.039 -0.092,0.077 -0.106,0.123 -0.014,0.039 -0.023,0.083 -0.029,0.127 l -0.372,-0.007 0.038,-0.153 c 0.007,-0.057 0.035,-0.127 0.08,-0.201 0.044,-0.075 0.096,-0.135 0.158,-0.178 0.061,-0.045 0.137,-0.076 0.226,-0.101 0.091,-0.025 0.191,-0.034 0.301,-0.032 0.092,0 0.182,0.014 0.27,0.039 0.089,0.025 0.16,0.056 0.218,0.098 0.054,0.043 0.103,0.093 0.144,0.146 0.043,0.059 0.077,0.126 0.101,0.201 0.028,0.072 0.046,0.15 0.053,0.23 0.007,0.079 0.01,0.184 0.01,0.317 V 0.841 C 0.343,0.972 0.331,1.09 0.303,1.189 0.277,1.28 0.235,1.37 0.175,1.448 0.118,1.526 0.032,1.595 -0.079,1.655 -0.189,1.712 -0.323,1.746 -0.472,1.74 -0.56,1.733 -0.651,1.718 -0.745,1.685 -0.845,1.655 -0.925,1.61 -0.993,1.556 -1.06,1.498 -1.113,1.43 -1.148,1.354 -1.183,1.277 -1.208,1.201 -1.218,1.127 -1.233,1.052 -1.241,0.972 -1.241,0.889 c 0,-0.169 0.015,-0.294 0.048,-0.381 0.033,-0.086 0.077,-0.155 0.13,-0.211 0.05,-0.06 0.135,-0.108 0.243,-0.156 0.114,-0.046 0.249,-0.068 0.404,-0.059 0.062,0 0.12,0.007 0.177,0.018 0.056,0.011 0.103,0.026 0.139,0.041 0.035,0.015 0.068,0.031 0.1,0.048 z M -0.013,0.954 C -0.006,0.851 -0.011,0.761 -0.032,0.687 -0.048,0.613 -0.079,0.549 -0.123,0.503 -0.166,0.451 -0.262,0.424 -0.406,0.422 -0.458,0.419 -0.519,0.424 -0.585,0.435 -0.649,0.447 -0.706,0.474 -0.752,0.512 -0.797,0.552 -0.828,0.604 -0.85,0.669 -0.869,0.72 -0.877,0.797 -0.875,0.9 c 0,0.101 0.01,0.183 0.032,0.24 0.022,0.058 0.052,0.104 0.089,0.14 0.037,0.032 0.081,0.06 0.135,0.079 0.052,0.018 0.117,0.026 0.198,0.026 0.095,-0.004 0.171,-0.022 0.235,-0.059 0.059,-0.035 0.107,-0.087 0.137,-0.152 0.015,-0.042 0.026,-0.116 0.036,-0.22"
       style="fill:#832126;fill-opacity:1;fill-rule:nonzero;stroke:none"
       transform="matrix(0.35277776,0,0,-0.35277776,71.513345,184.24446)"
       clip-path="url(#clipPath3244)" />
    <path
       id="path3245"
       d="M 0,0 C -0.007,0.115 -0.024,0.23 -0.048,0.345 -0.07,0.453 -0.112,0.558 -0.165,0.654 -0.223,0.753 -0.291,0.834 -0.368,0.899 -0.449,0.967 -0.534,1.015 -0.624,1.045 -0.713,1.082 -0.8,1.094 -0.883,1.097 -0.997,1.097 -1.108,1.075 -1.211,1.021 -1.316,0.971 -1.398,0.907 -1.463,0.835 -1.524,0.763 -1.579,0.678 -1.623,0.58 -1.667,0.48 -1.7,0.376 -1.723,0.259 -1.746,0.143 -1.758,0.04 -1.762,-0.051 c -0.003,-0.069 -0.004,-0.18 -0.003,-0.33 0.002,-0.15 0.011,-0.279 0.033,-0.385 0.021,-0.105 0.052,-0.209 0.094,-0.309 0.042,-0.101 0.098,-0.192 0.168,-0.275 0.072,-0.078 0.158,-0.139 0.264,-0.18 0.105,-0.039 0.213,-0.06 0.323,-0.06 0.115,0 0.218,0.012 0.312,0.047 0.094,0.034 0.169,0.074 0.231,0.124 0.061,0.049 0.113,0.119 0.164,0.207 0.049,0.088 0.087,0.177 0.111,0.272 0.025,0.093 0.045,0.198 0.055,0.313 0.01,0.116 0.02,0.202 0.021,0.26 C 0.013,-0.239 0.011,-0.115 0,0 m -0.352,-0.4 c -0.005,-0.082 -0.013,-0.182 -0.031,-0.297 -0.019,-0.113 -0.051,-0.21 -0.097,-0.293 -0.05,-0.083 -0.106,-0.148 -0.179,-0.185 -0.073,-0.037 -0.147,-0.056 -0.229,-0.053 -0.096,0 -0.173,0.022 -0.239,0.069 -0.064,0.043 -0.119,0.103 -0.162,0.182 -0.043,0.079 -0.074,0.175 -0.094,0.287 -0.02,0.114 -0.03,0.248 -0.034,0.412 0,0.096 0,0.175 0.007,0.238 0.005,0.066 0.016,0.149 0.039,0.25 0.02,0.099 0.049,0.187 0.092,0.27 0.039,0.078 0.092,0.141 0.161,0.185 0.068,0.046 0.146,0.068 0.238,0.068 0.09,-0.002 0.165,-0.027 0.228,-0.071 0.061,-0.041 0.115,-0.1 0.157,-0.171 0.047,-0.069 0.079,-0.156 0.104,-0.259 0.023,-0.104 0.038,-0.236 0.043,-0.405 0,-0.069 -0.003,-0.145 -0.004,-0.227"
       style="fill:#832126;fill-opacity:1;fill-rule:nonzero;stroke:none"
       transform="matrix(0.35277776,0,0,-0.35277776,72.662484,184.01025)"
       clip-path="url(#clipPath3246)" />
    <path
       id="path3247"
       d="m 0,0 0.388,-0.025 0.484,0.298 c 0,0 0.104,0.038 -0.01,0.191 0,0 -0.076,-0.086 -0.212,-0.065 C 0.514,0.42 0.28,0.396 0.152,0.367 L 0.148,0.361 -0.162,0.396 C -0.059,0.472 -0.249,0.922 -0.249,0.922 -0.348,1.105 -0.451,1.031 -0.451,1.031 -0.574,0.944 -0.618,0.612 -0.618,0.612 L -0.729,0.444 -1.189,0.428 -1.689,0.5 c 0,0 -0.312,0.331 -0.343,-0.056 l 0.095,-0.312 c 0.004,-0.056 0.02,-0.102 0.042,-0.139 l 0.004,-0.013 0.004,0.003 c 0.093,-0.131 0.285,-0.139 0.353,-0.138 -0.142,-0.023 -0.669,-0.305 -0.669,-0.305 -0.772,-0.527 -1.82,-0.553 -1.82,-0.553 -0.333,-0.091 0.047,-0.184 0.047,-0.184 0.337,-0.075 1.598,0.226 1.598,0.226 1.81,0.491 2.069,0.992 2.069,0.992 C -0.214,0.005 -0.105,0 0,0"
       style="fill:#832126;fill-opacity:1;fill-rule:nonzero;stroke:none"
       transform="matrix(0.35277776,0,0,-0.35277776,74.592108,175.59291)"
       clip-path="url(#clipPath3248)" />
    <path
       id="path3249"
       d="m 0,0 c 0,0 -0.156,0.316 -0.262,-0.039 0,0 -0.253,-0.769 -0.555,-0.808 0,0 -0.259,-0.12 -0.027,-0.176 0,0 0.57,0.251 0.895,0.26 0,0 0.318,0.266 -0.051,0.763"
       style="fill:#832126;fill-opacity:1;fill-rule:nonzero;stroke:none"
       transform="matrix(0.35277776,0,0,-0.35277776,74.308793,176.11421)"
       clip-path="url(#clipPath3250)" />
  </g>
</svg>
