<?xml version="1.0" encoding="UTF-8" standalone="no"?>
<!-- Created with Inkscape (http://www.inkscape.org/) -->

<svg
   width="13.4239mm"
   height="13.802775mm"
   viewBox="0 0 13.4239 13.802775"
   version="1.1"
   id="svg1"
   xmlns="http://www.w3.org/2000/svg"
   xmlns:svg="http://www.w3.org/2000/svg">
  <defs
     id="defs1">
    <clipPath
       clipPathUnits="userSpaceOnUse"
       id="clipPath3508">
      <path
         d="M 0,858.898 H 1207.558 V 0 H 0 Z"
         transform="translate(-110.093,-82.038037)"
         id="path3508" />
    </clipPath>
  </defs>
  <g
     id="layer1"
     transform="translate(-21.20212,-196.49439)">
    <path
       id="path3507"
       d="m 0,0 c -0.139,-0.507 -0.31,-1.008 -0.512,-1.489 -0.31,-0.143 -2.967,-1.32 -5.87,-1.093 -3.093,0.241 -5.534,1.639 -5.534,1.639 0,0 -2.012,1.06 -4.541,1.06 -2.322,0 -4.871,-0.69 -6.939,-2.354 -0.183,0.37 -0.348,0.754 -0.493,1.144 0.626,0.52 3.105,2.361 6.723,2.465 4.212,0.117 4.598,-1.346 8.279,-2.289 C -5.648,-1.749 -2.935,-1.255 0,0 m -6.129,-7.837 c -1.784,-1.001 -3.826,-1.567 -5.996,-1.567 -2.973,0 -5.711,1.067 -7.868,2.848 0.525,0.319 2.846,1.613 5.484,1.073 0,0 2.024,-0.468 2.618,-0.968 0.177,-0.15 0.614,-0.352 1.202,-0.553 l -0.354,1.261 c -1.183,0.533 -2.878,1.229 -3.783,1.229 -1.448,0 -2.359,0.475 -5.863,-1.424 -0.335,0.319 -0.651,0.65 -0.948,1.008 0.429,0.384 2.447,2.004 5.616,1.821 0,0 2.132,0 4.598,-1.294 l -0.341,1.216 c -0.064,0.026 -0.133,0.059 -0.203,0.091 0,0 -3.238,1.412 -6.274,0.755 0,0 -1.499,-0.117 -4.029,-1.782 -0.26,0.357 -0.494,0.728 -0.715,1.112 0.683,0.546 3.34,2.458 6.996,2.211 0,0 1.922,0.143 4.402,-1.301 0,0 4.978,-2.556 10.436,-0.715 -0.291,-0.527 -0.614,-1.021 -0.968,-1.496 -1.05,-0.254 -3.39,-0.702 -5.249,-0.338 0,0 -1.196,0.143 -3.302,0.995 l 0.303,-1.184 c 1.405,-0.507 4.194,-1.261 7.192,-0.715 -0.468,-0.494 -0.98,-0.943 -1.524,-1.353 -0.949,-0.032 -2.847,-0.006 -5.048,0.54 0,0 -0.101,0.052 -0.272,0.137 l 0.272,-1.06 c 1.069,-0.293 2.385,-0.534 3.618,-0.547 m 3.801,24.226 c 0.159,0 0.159,-0.078 0.247,-0.143 0.184,-0.131 0.487,-0.085 0.506,-0.378 -0.107,-0.182 -0.132,-0.039 -0.31,-0.013 -0.006,-0.012 -0.006,-0.026 -0.012,-0.039 0.044,-0.071 0.088,-0.077 0.094,-0.201 -0.056,-0.111 -0.17,-0.123 -0.234,-0.215 0.013,-0.019 0.013,-0.019 0.032,-0.032 0.367,-0.156 0.557,-0.215 0.595,-0.696 -0.032,-0.052 -0.051,-0.091 -0.095,-0.13 -0.089,0 -0.089,0.019 -0.14,0.058 -0.05,0.15 -0.062,0.365 -0.151,0.488 -0.108,0.033 -0.241,0.156 -0.354,0.124 -0.241,-0.124 -0.443,-0.573 -0.747,-0.729 -0.164,-0.084 -0.291,0.124 -0.265,0.287 0.019,0.11 -0.051,0.117 -0.07,0.233 0.006,0.014 0.006,0.02 0.013,0.026 h 0.044 c 0.057,-0.078 0.171,-0.221 0.278,-0.247 0.076,0.085 0.601,0.436 0.474,0.547 -0.075,0.032 -0.157,0.013 -0.227,0 -0.183,-0.026 -0.259,0.175 -0.342,0.26 0,0.084 0.007,0.11 0.051,0.143 0.095,-0.02 0.139,-0.111 0.234,-0.143 0.152,-0.039 0.304,-0.085 0.462,-0.13 0.038,0.13 0.133,0.169 0.164,0.312 -0.012,0.013 -0.025,0.026 -0.038,0.032 -0.101,0.013 -0.209,0.026 -0.31,0.04 -0.006,0.012 -0.012,0.032 -0.012,0.045 0.057,0.046 0.164,0.065 0.208,0.124 -0.063,0.078 -0.107,0.136 -0.164,0.234 0.006,0.084 0.032,0.104 0.069,0.143 m 1.278,0.799 c -0.133,-0.071 -0.367,-0.038 -0.5,-0.116 -0.044,-0.111 -0.082,-0.222 -0.126,-0.332 0.076,-0.059 0.215,-0.117 0.304,-0.013 -0.038,0.078 -0.114,0.221 0,0.286 h 0.088 c 0.082,-0.039 0.101,-0.104 0.12,-0.201 h 0.076 c 0.114,0.045 0.298,0.364 0.038,0.376 m -1.695,0.066 h 0.07 v -0.026 c 0.075,-0.235 -0.253,-0.534 -0.487,-0.553 -0.019,0.026 -0.039,0.052 -0.057,0.071 0.05,0.215 0.354,0.345 0.474,0.508 m 1.303,0.501 c 0.019,-0.007 0.038,-0.013 0.057,-0.013 0.032,-0.059 0.07,-0.124 0.101,-0.183 -0.012,-0.175 -0.107,-0.201 -0.171,-0.305 0,-0.014 0.007,-0.02 0.013,-0.026 0.127,0.045 0.253,0.097 0.379,0.143 0.007,0.02 0.007,0.039 0.013,0.058 -0.038,0.052 -0.057,0.059 -0.044,0.13 0.025,0.033 0.05,0.065 0.076,0.098 0.107,-0.019 0.095,-0.078 0.19,-0.111 0.006,0.013 0.012,0.02 0.019,0.026 0,0.091 0.006,0.124 0.063,0.156 0.006,0.007 0.019,0.007 0.032,0.014 0.196,-0.261 0.075,-0.358 -0.083,-0.554 0.044,-0.266 -0.126,-0.526 -0.335,-0.617 0.006,-0.02 0.006,-0.039 0.013,-0.059 h 0.025 c 0.126,-0.084 0.455,-0.006 0.544,0.105 -0.038,0.032 -0.076,0.064 -0.114,0.097 0.012,0.039 0.012,0.039 0.044,0.058 0.108,0.04 0.253,-0.032 0.361,-0.045 0.069,0.059 0.146,0.117 0.221,0.176 -0.006,0.019 -0.013,0.038 -0.013,0.058 -0.12,0.02 -0.252,0.117 -0.265,0.241 0.019,0.032 0.044,0.065 0.069,0.097 h 0.07 c 0.107,-0.149 0.38,-0.162 0.449,-0.344 0.076,-0.202 -0.816,-0.456 -0.936,-0.599 0.07,-0.091 0.247,-0.065 0.335,-0.156 0.247,-0.26 -0.05,-0.559 -0.196,-0.702 -0.031,0 -0.057,0.006 -0.082,0.013 -0.076,0.149 -0.146,0.097 -0.272,0.188 -0.184,0.137 -0.126,0.196 -0.436,0.261 -0.007,0.012 -0.007,0.019 -0.013,0.026 0.006,0.013 0.006,0.032 0.013,0.045 0.31,0.045 0.556,-0.026 0.79,-0.059 0.013,0.014 0.026,0.027 0.044,0.04 0.013,0.045 0.026,0.091 0.032,0.143 -0.006,0.006 -0.013,0.012 -0.019,0.019 -0.285,-0.052 -0.234,0.013 -0.443,0.065 -0.107,0 -0.215,0.007 -0.322,0.007 -0.197,0.305 -0.272,0.156 -0.62,0.279 -0.051,0.033 -0.108,0.072 -0.158,0.104 -0.127,-0.019 -0.12,-0.097 -0.19,-0.169 h -0.044 c -0.019,0.02 -0.032,0.039 -0.044,0.065 0.012,0.299 -0.057,0.202 -0.177,0.416 0.006,0.014 0.006,0.02 0.012,0.033 0.019,0.046 0.031,0.046 0.07,0.072 0.063,-0.033 0.12,-0.059 0.183,-0.091 0.108,0.182 0.114,0.461 0.221,0.656 0.064,-0.006 0.07,-0.013 0.108,-0.039 0.019,-0.045 0.038,-0.097 0.057,-0.143 -0.089,-0.201 -0.184,-0.279 -0.209,-0.54 0.044,-0.045 0.07,-0.077 0.158,-0.077 0.209,0.227 0.228,0.708 0.424,0.943 m -20.221,-1.743 c -0.038,-0.189 -0.069,-0.378 -0.108,-0.566 -0.031,-0.072 -0.113,-0.078 -0.139,-0.163 0.07,-0.032 0.139,-0.065 0.209,-0.097 0.045,0.071 0.177,0.676 0.165,0.728 -0.026,0.033 -0.045,0.065 -0.07,0.098 z m 0.183,0.344 c -0.025,-0.039 -0.056,-0.071 -0.082,-0.11 0.013,-0.059 0.019,-0.072 0.057,-0.104 0.019,0.006 0.032,0.013 0.051,0.019 -0.006,0.065 -0.013,0.13 -0.013,0.195 z m -1.695,2.088 c 0.43,0 0.393,-0.494 0.614,-0.702 0.088,0.039 0.152,0.162 0.291,0.103 0.051,-0.019 0.057,-0.038 0.082,-0.084 v -0.006 c -0.05,-0.059 -0.177,-0.092 -0.209,-0.157 -0.031,-0.065 0.184,-0.468 0.222,-0.552 0.025,0.013 0.044,0.019 0.069,0.026 0.013,0.078 0.038,0.149 0.095,0.182 0.007,0 0.019,0.006 0.032,0.006 0.006,-0.013 0.019,-0.032 0.025,-0.045 -0.032,-0.085 -0.12,-0.222 -0.107,-0.299 0.132,-0.17 0.265,-0.345 0.398,-0.514 0.082,0.013 0.12,0.026 0.196,0 0.007,0.305 -0.069,0.897 -0.196,1.066 -0.032,0.039 -0.108,0.046 -0.139,0.078 v 0.04 c 0.031,0.019 0.057,0.038 0.088,0.058 0.127,0.058 0.273,-0.058 0.304,-0.143 0.006,-0.098 0.006,-0.189 0.012,-0.286 0.032,-0.111 0.064,-0.222 0.096,-0.332 0.038,-0.189 -0.045,-0.39 0.019,-0.514 0.189,0 0.354,0.059 0.512,0.091 h 0.323 c 0.202,0.052 0.284,0.234 0.569,0.143 0.006,-0.006 0.006,-0.013 0.013,-0.019 v -0.059 c -0.083,-0.097 -0.165,-0.195 -0.241,-0.286 -0.139,-0.065 -0.221,0.052 -0.316,0.072 -0.285,-0.026 -0.576,-0.052 -0.86,-0.072 -0.051,-0.045 -0.083,-0.13 -0.115,-0.195 0.039,-0.189 0.19,-0.241 0.292,-0.371 0.208,-0.266 0.404,-0.533 0.626,-0.786 -0.006,-0.027 -0.019,-0.046 -0.025,-0.072 -0.292,-0.085 -0.405,0.059 -0.721,0.072 v 0.045 c 0.012,0.013 0.025,0.019 0.037,0.026 0.102,0.019 0.209,0.039 0.31,0.059 0.007,0.012 0.013,0.019 0.013,0.025 -0.158,0.215 -0.316,0.43 -0.474,0.644 -0.14,-0.078 -0.216,-1.04 -0.418,-1.255 h -0.044 v 0.026 c -0.044,0.163 0.139,0.417 0.07,0.585 -0.089,0.027 -0.108,0.079 -0.165,0.118 -0.133,0.071 -0.266,0.136 -0.392,0.208 -0.177,0.124 -0.354,0.24 -0.525,0.364 -0.101,0.071 -0.209,0.026 -0.304,0.084 -0.025,0.124 0.089,0.28 0.26,0.196 0.088,-0.046 0.113,-0.137 0.183,-0.196 0.126,-0.071 0.247,-0.149 0.373,-0.227 0.083,-0.065 0.114,-0.169 0.228,-0.202 0.095,0.13 0.291,0.774 0.247,0.943 h -0.057 c -0.051,-0.091 -0.26,-0.286 -0.361,-0.104 v 0.033 c 0.057,0.149 0.133,0.214 0.241,0.312 v 0.032 c -0.038,0.052 -0.083,0.104 -0.127,0.157 h -0.019 c -0.063,-0.091 -0.177,-0.195 -0.203,-0.319 -0.044,-0.267 0.127,-0.553 -0.208,-0.598 -0.019,0.025 -0.038,0.045 -0.057,0.071 -0.006,0.442 0.24,0.663 0.399,0.943 -0.019,0.13 -0.14,0.299 -0.209,0.383 -0.013,-0.006 -0.026,-0.012 -0.038,-0.012 -0.038,-0.13 -0.083,-0.475 -0.266,-0.43 -0.038,0.02 -0.076,0.046 -0.12,0.072 -0.101,0.026 -0.108,-0.026 -0.196,0.046 v 0.058 c 0.139,0.15 0.367,0.384 0.386,0.637 -0.12,0.17 -0.241,0.345 -0.361,0.521 -0.057,0.078 -0.183,0.104 -0.234,0.182 v 0.045 c 0.026,0.053 0.045,0.053 0.082,0.085 m 15.509,0.715 c 0.386,-0.026 0.899,-0.761 0.627,-1.19 -0.026,-0.007 -0.045,-0.013 -0.07,-0.013 -0.127,0.13 -0.038,0.286 -0.114,0.488 -0.089,0.221 -0.481,0.462 -0.525,0.657 0.025,0.019 0.057,0.039 0.082,0.058 m 0.07,1.073 c 0.145,0 0.221,-0.071 0.265,-0.175 0.051,-0.182 -0.056,-0.248 -0.094,-0.345 -0.038,-0.11 0.082,-0.13 0.05,-0.227 -0.012,-0.02 -0.025,-0.04 -0.038,-0.066 -0.246,0.014 -0.328,-0.227 -0.487,-0.357 -0.24,-0.189 -0.62,-0.371 -1.043,-0.306 -0.007,0.019 -0.007,0.039 -0.013,0.059 0.272,0.169 0.689,0.208 0.86,0.474 -0.006,0.013 -0.013,0.026 -0.025,0.039 -0.158,0.02 -0.297,0.202 -0.31,0.384 0.019,0.026 0.044,0.058 0.07,0.091 0.075,0.026 0.113,-0.046 0.158,-0.059 0.151,-0.032 0.436,0.046 0.55,0.098 0.025,0.156 -0.038,0.28 0.057,0.39 m -6.591,-0.962 c 0.203,0 0.709,-0.072 0.797,-0.169 0.057,-0.098 0.108,-0.202 0.165,-0.299 -0.013,-0.066 -0.051,-0.157 -0.152,-0.118 -0.209,0.072 -0.304,0.313 -0.544,0.378 -0.215,0.058 -0.253,-0.163 -0.455,-0.104 -0.095,0.026 -0.178,0.117 -0.184,0.24 0.012,0.013 0.019,0.033 0.031,0.046 0.115,0.006 0.228,0.013 0.342,0.026 m -2.037,0.676 c 0.209,0.007 0.367,-0.097 0.431,-0.234 0.031,-0.241 0.056,-0.481 0.082,-0.722 0.108,-0.013 0.146,-0.019 0.221,-0.078 v -0.065 c -0.126,-0.208 -0.297,-0.449 -0.487,-0.592 -0.126,0.007 -0.247,0.02 -0.373,0.033 -0.012,0.019 -0.031,0.039 -0.044,0.058 0,0.013 0.006,0.026 0.013,0.039 0.107,0.169 0.366,0.182 0.392,0.443 -0.013,0.019 -0.032,0.039 -0.045,0.058 -0.126,-0.006 -0.196,0.033 -0.234,0.117 v 0.059 c 0.038,0.084 0.171,0.13 0.247,0.182 -0.019,0.448 -0.304,0.384 -0.341,0.631 0.012,0.006 0.025,0.019 0.037,0.026 0.032,0.013 0.07,0.032 0.101,0.045 m 1.746,0.267 c 0.253,0 0.481,0 0.639,-0.098 -0.006,-0.065 -0.013,-0.071 -0.038,-0.11 -0.367,0 -0.31,-0.273 -0.733,0.039 0.012,0.097 0.069,0.123 0.132,0.169 m -0.499,0.442 c 0.151,-0.026 0.373,-0.234 0.322,-0.442 -0.019,-0.065 -0.038,-0.124 -0.057,-0.182 0.013,-0.274 0.032,-0.546 0.045,-0.826 0,-0.137 0.138,-0.384 0,-0.475 -0.058,-0.013 -0.07,0.026 -0.114,0.058 -0.038,0.072 -0.07,0.137 -0.108,0.202 0.007,0.078 0.013,0.156 0.013,0.228 -0.032,0.305 -0.07,0.618 -0.101,0.923 -0.045,0.182 -0.14,0.358 -0.051,0.501 0.019,0 0.032,0.007 0.051,0.013 m 2.852,2.127 c -10.29,0 -18.69,-8.637 -18.69,-19.218 0,-10.581 8.4,-19.218 18.69,-19.218 10.291,0 18.69,8.637 18.69,19.218 0,10.581 -8.399,19.218 -18.69,19.218 m 0,0.345 c 10.48,0 19.026,-8.787 19.026,-19.563 0,-10.776 -8.546,-19.563 -19.026,-19.563 -10.48,0 -19.026,8.787 -19.026,19.563 0,10.776 8.546,19.563 19.026,19.563 m 0,-6.159 c -7.179,0 -13.036,-6.023 -13.036,-13.404 0,-7.382 5.857,-13.404 13.036,-13.404 7.179,0 13.036,6.022 13.036,13.404 0,7.381 -5.857,13.404 -13.036,13.404 m 0,0.272 c 7.331,0 13.302,-6.145 13.302,-13.676 0,-7.538 -5.971,-13.677 -13.302,-13.677 -7.324,0 -13.301,6.139 -13.301,13.677 0,7.531 5.977,13.676 13.301,13.676 M 3.89,9.736 3.15,9.43 2.423,8.325 2.309,8.617 2.694,9.183 C 2.764,9.287 2.84,9.391 2.916,9.488 2.802,9.502 2.675,9.528 2.53,9.554 L 1.885,9.69 1.777,9.963 3.061,9.664 3.795,9.97 Z M 4.668,6.9 3.048,6.575 3.163,5.957 2.948,5.912 2.663,7.407 2.884,7.453 2.998,6.829 4.623,7.154 Z M 4.953,4.474 3.087,4.312 3.061,4.565 4.927,4.728 Z M 4.244,1.353 4.238,1.593 C 4.333,1.6 4.408,1.619 4.472,1.652 4.535,1.691 4.592,1.756 4.63,1.841 4.674,1.925 4.699,2.016 4.706,2.126 4.712,2.224 4.706,2.309 4.681,2.387 4.662,2.465 4.623,2.523 4.58,2.562 4.535,2.601 4.478,2.621 4.421,2.627 4.365,2.634 4.314,2.621 4.263,2.589 4.219,2.556 4.181,2.497 4.143,2.419 4.124,2.374 4.086,2.257 4.029,2.088 3.979,1.912 3.928,1.795 3.89,1.723 3.833,1.632 3.77,1.574 3.7,1.528 3.631,1.489 3.549,1.476 3.46,1.483 3.371,1.489 3.283,1.522 3.207,1.58 3.125,1.645 3.068,1.73 3.036,1.834 2.998,1.944 2.986,2.062 2.992,2.192 3.005,2.335 3.036,2.458 3.087,2.569 3.137,2.673 3.213,2.751 3.302,2.803 3.391,2.855 3.492,2.881 3.599,2.874 L 3.606,2.627 C 3.485,2.627 3.391,2.589 3.327,2.517 3.257,2.445 3.226,2.335 3.213,2.192 3.201,2.036 3.219,1.918 3.27,1.847 3.321,1.775 3.384,1.73 3.466,1.723 c 0.063,0 0.121,0.02 0.171,0.066 C 3.681,1.834 3.732,1.957 3.795,2.166 3.852,2.367 3.903,2.504 3.941,2.582 3.997,2.686 4.067,2.764 4.149,2.816 4.231,2.862 4.32,2.881 4.421,2.874 4.516,2.868 4.611,2.829 4.693,2.764 4.775,2.699 4.839,2.615 4.883,2.497 4.921,2.387 4.94,2.263 4.934,2.126 4.921,1.951 4.883,1.808 4.826,1.691 4.769,1.58 4.687,1.489 4.586,1.431 4.485,1.372 4.371,1.346 4.244,1.353 m -0.999,-2.556 0.133,0.527 c 0.031,0.11 0.044,0.208 0.038,0.273 -0.007,0.071 -0.032,0.13 -0.07,0.175 C 3.302,-0.182 3.251,-0.15 3.194,-0.137 3.106,-0.111 3.03,-0.124 2.96,-0.169 2.884,-0.221 2.834,-0.312 2.796,-0.449 L 2.644,-1.041 Z m 0.942,-0.527 -1.809,0.501 0.216,0.826 c 0.044,0.162 0.094,0.286 0.145,0.364 0.057,0.078 0.133,0.13 0.228,0.156 0.094,0.032 0.196,0.032 0.29,0.006 0.134,-0.038 0.228,-0.11 0.292,-0.221 0.069,-0.11 0.088,-0.253 0.069,-0.442 0.044,0.059 0.089,0.098 0.127,0.124 0.082,0.052 0.183,0.097 0.29,0.136 L 4.617,-0.091 4.535,-0.397 4.093,-0.54 C 3.966,-0.585 3.871,-0.618 3.801,-0.65 3.732,-0.683 3.675,-0.709 3.643,-0.741 3.612,-0.774 3.587,-0.806 3.568,-0.839 3.555,-0.865 3.542,-0.91 3.523,-0.976 L 3.447,-1.262 4.25,-1.483 Z M 3.061,-4.533 1.354,-3.752 1.904,-2.478 2.106,-2.575 1.651,-3.61 2.176,-3.85 2.6,-2.881 2.802,-2.972 2.378,-3.941 2.96,-4.208 l 0.468,1.08 0.203,-0.097 z m -1.29,-2.133 -1.948,0.494 0.152,0.228 1.391,-0.397 C 1.48,-6.367 1.581,-6.399 1.676,-6.439 1.607,-6.354 1.543,-6.263 1.48,-6.172 l -0.822,1.229 0.145,0.215 1.114,-1.723 z m -1.575,-1.912 -1.366,1.307 0.171,0.189 1.366,-1.314 z m -2.359,-2.153 -1.176,1.496 0.196,0.163 1.688,-0.541 -0.923,1.178 0.183,0.149 1.183,-1.495 -0.202,-0.163 -1.689,0.54 0.923,-1.177 z m -2.46,0.67 0.221,0.123 0.506,-0.981 c 0.089,-0.176 0.139,-0.319 0.158,-0.443 0.013,-0.117 -0.013,-0.24 -0.076,-0.351 -0.069,-0.117 -0.183,-0.221 -0.341,-0.306 -0.152,-0.091 -0.298,-0.13 -0.424,-0.13 -0.127,0 -0.234,0.046 -0.329,0.124 -0.101,0.084 -0.19,0.214 -0.285,0.39 l -0.512,0.982 0.221,0.124 0.506,-0.982 c 0.076,-0.15 0.146,-0.248 0.209,-0.306 0.063,-0.052 0.139,-0.084 0.221,-0.084 0.089,-0.007 0.177,0.019 0.273,0.071 0.157,0.091 0.253,0.189 0.284,0.299 0.025,0.117 -0.013,0.28 -0.12,0.488 z m -4.827,-3.219 0.222,0.071 c 0.05,-0.13 0.108,-0.214 0.177,-0.26 0.076,-0.052 0.158,-0.065 0.247,-0.045 0.107,0.019 0.19,0.071 0.253,0.162 0.057,0.085 0.075,0.189 0.057,0.3 -0.019,0.103 -0.063,0.188 -0.146,0.246 -0.082,0.059 -0.171,0.079 -0.278,0.059 -0.044,-0.013 -0.095,-0.026 -0.152,-0.059 l -0.013,0.209 c 0.019,0 0.026,0.006 0.038,0.006 0.095,0.02 0.177,0.058 0.247,0.124 0.07,0.065 0.095,0.156 0.076,0.26 -0.013,0.084 -0.057,0.149 -0.12,0.195 -0.07,0.045 -0.146,0.065 -0.234,0.045 -0.089,-0.012 -0.158,-0.058 -0.203,-0.123 -0.05,-0.065 -0.075,-0.163 -0.069,-0.28 l -0.234,0.007 c 0,0.156 0.044,0.292 0.126,0.396 0.082,0.105 0.196,0.17 0.342,0.196 0.101,0.012 0.196,0.012 0.291,-0.02 0.088,-0.026 0.164,-0.078 0.227,-0.143 0.058,-0.072 0.089,-0.15 0.108,-0.234 0.012,-0.085 0.006,-0.163 -0.025,-0.234 -0.032,-0.078 -0.089,-0.143 -0.165,-0.195 0.114,-0.007 0.209,-0.046 0.285,-0.117 0.069,-0.072 0.12,-0.17 0.139,-0.286 0.032,-0.17 -0.006,-0.319 -0.101,-0.456 -0.101,-0.136 -0.241,-0.221 -0.418,-0.253 -0.164,-0.033 -0.303,-0.007 -0.43,0.077 -0.12,0.078 -0.202,0.196 -0.247,0.352 m -0.974,-0.423 0.02,-0.221 -1.234,-0.11 c -0.006,0.051 0,0.11 0.013,0.162 0.025,0.091 0.069,0.182 0.133,0.266 0.057,0.092 0.151,0.202 0.271,0.319 0.19,0.189 0.317,0.338 0.38,0.443 0.063,0.11 0.089,0.208 0.082,0.292 -0.012,0.098 -0.05,0.169 -0.12,0.228 -0.069,0.058 -0.158,0.084 -0.259,0.078 -0.114,-0.013 -0.196,-0.052 -0.26,-0.13 -0.056,-0.072 -0.082,-0.169 -0.075,-0.293 l -0.234,0.007 c 0,0.182 0.044,0.325 0.145,0.429 0.095,0.104 0.234,0.162 0.411,0.182 0.177,0.013 0.322,-0.026 0.437,-0.117 0.113,-0.091 0.177,-0.215 0.189,-0.365 0.007,-0.077 0,-0.155 -0.025,-0.233 -0.025,-0.072 -0.07,-0.157 -0.132,-0.247 -0.064,-0.085 -0.172,-0.209 -0.323,-0.365 -0.127,-0.136 -0.209,-0.221 -0.247,-0.266 -0.038,-0.046 -0.063,-0.091 -0.089,-0.137 z m -2.346,0.989 c 0.012,0.13 -0.013,0.24 -0.076,0.331 -0.063,0.085 -0.146,0.13 -0.24,0.137 -0.101,0.013 -0.196,-0.026 -0.279,-0.104 -0.082,-0.078 -0.132,-0.183 -0.139,-0.319 -0.012,-0.123 0.013,-0.228 0.083,-0.306 0.063,-0.084 0.145,-0.13 0.252,-0.142 0.108,-0.007 0.196,0.019 0.272,0.091 0.076,0.071 0.114,0.175 0.127,0.312 m -1.006,-0.768 0.222,0.007 c 0.006,-0.111 0.038,-0.189 0.088,-0.247 0.045,-0.052 0.114,-0.079 0.196,-0.085 0.07,-0.006 0.133,0 0.184,0.033 0.057,0.026 0.107,0.065 0.145,0.117 0.038,0.051 0.076,0.129 0.102,0.221 0.031,0.091 0.05,0.182 0.063,0.279 v 0.052 c -0.051,-0.071 -0.121,-0.13 -0.203,-0.169 -0.082,-0.039 -0.171,-0.052 -0.265,-0.045 -0.152,0.013 -0.279,0.084 -0.373,0.208 -0.102,0.124 -0.14,0.279 -0.127,0.468 0.019,0.195 0.088,0.345 0.209,0.455 0.12,0.111 0.265,0.156 0.436,0.143 0.12,-0.013 0.228,-0.058 0.323,-0.13 0.095,-0.078 0.164,-0.182 0.208,-0.312 0.038,-0.13 0.051,-0.312 0.032,-0.546 -0.025,-0.241 -0.063,-0.436 -0.126,-0.579 -0.07,-0.136 -0.152,-0.241 -0.26,-0.312 -0.113,-0.065 -0.234,-0.091 -0.373,-0.078 -0.145,0.013 -0.259,0.065 -0.348,0.156 -0.082,0.091 -0.127,0.214 -0.133,0.364 m -1.442,-0.253 -0.221,0.045 0.253,1.483 c -0.063,-0.046 -0.146,-0.085 -0.241,-0.124 -0.101,-0.039 -0.183,-0.065 -0.259,-0.078 l 0.038,0.228 c 0.133,0.039 0.26,0.091 0.367,0.162 0.114,0.066 0.196,0.143 0.247,0.215 l 0.145,-0.026 z m -5.496,2.087 0.879,1.704 0.221,-0.123 0.177,-1.815 0.69,1.34 0.215,-0.117 -0.879,-1.698 -0.228,0.124 -0.177,1.808 -0.689,-1.334 z m -1.094,2.068 0.43,-0.325 c 0.095,-0.065 0.17,-0.11 0.24,-0.13 0.063,-0.02 0.127,-0.02 0.183,0.006 0.057,0.02 0.102,0.059 0.14,0.111 0.05,0.072 0.069,0.15 0.05,0.234 -0.019,0.091 -0.088,0.176 -0.196,0.26 l -0.48,0.358 z m -0.816,-0.722 1.1,1.555 0.677,-0.501 c 0.133,-0.097 0.228,-0.188 0.278,-0.273 0.051,-0.078 0.07,-0.169 0.064,-0.273 -0.013,-0.104 -0.045,-0.196 -0.108,-0.28 -0.076,-0.11 -0.177,-0.175 -0.297,-0.202 -0.127,-0.026 -0.266,0.007 -0.43,0.098 0.038,-0.065 0.057,-0.124 0.069,-0.169 0.019,-0.098 0.026,-0.208 0.019,-0.332 l -0.038,-0.624 -0.246,0.189 0.025,0.474 c 0.006,0.137 0.012,0.247 0.006,0.325 0,0.078 -0.012,0.137 -0.025,0.183 -0.019,0.039 -0.038,0.077 -0.063,0.103 -0.019,0.026 -0.057,0.052 -0.108,0.091 l -0.234,0.176 -0.487,-0.689 z m -1.613,1.483 1.303,1.385 0.974,-0.969 -0.152,-0.162 -0.797,0.787 -0.398,-0.423 0.746,-0.741 -0.152,-0.163 -0.746,0.742 -0.443,-0.469 0.829,-0.826 -0.158,-0.162 z m -1.044,1.178 1.246,1.118 -0.405,0.475 0.165,0.149 0.974,-1.151 -0.164,-0.149 -0.405,0.481 -1.246,-1.112 z m -1.05,2.607 0.146,-0.188 c -0.076,-0.066 -0.127,-0.124 -0.158,-0.195 -0.032,-0.066 -0.038,-0.15 -0.026,-0.241 0.013,-0.097 0.051,-0.189 0.108,-0.286 0.051,-0.078 0.107,-0.143 0.17,-0.195 0.057,-0.046 0.121,-0.072 0.184,-0.078 0.057,0 0.114,0.013 0.165,0.045 0.044,0.033 0.082,0.072 0.101,0.13 0.019,0.052 0.019,0.117 0.006,0.202 -0.013,0.058 -0.044,0.169 -0.101,0.345 -0.057,0.169 -0.089,0.299 -0.095,0.377 -0.006,0.104 0.006,0.195 0.044,0.266 0.038,0.079 0.089,0.137 0.165,0.189 0.076,0.052 0.164,0.071 0.265,0.071 0.095,0 0.19,-0.032 0.285,-0.103 0.089,-0.066 0.17,-0.157 0.234,-0.261 0.076,-0.123 0.12,-0.24 0.139,-0.357 0.019,-0.117 0.006,-0.228 -0.038,-0.326 -0.044,-0.09 -0.114,-0.175 -0.202,-0.24 l -0.14,0.202 c 0.089,0.071 0.146,0.162 0.159,0.26 0.012,0.097 -0.019,0.207 -0.095,0.331 -0.083,0.13 -0.165,0.208 -0.247,0.241 -0.082,0.032 -0.158,0.026 -0.221,-0.02 -0.057,-0.039 -0.095,-0.084 -0.101,-0.156 -0.013,-0.065 0.012,-0.195 0.082,-0.396 0.069,-0.202 0.107,-0.345 0.12,-0.423 0.013,-0.124 0,-0.228 -0.032,-0.319 -0.038,-0.084 -0.101,-0.156 -0.19,-0.214 -0.082,-0.052 -0.176,-0.078 -0.284,-0.078 -0.101,0.006 -0.203,0.038 -0.304,0.103 -0.094,0.066 -0.183,0.157 -0.253,0.274 -0.088,0.149 -0.145,0.286 -0.164,0.416 -0.019,0.123 0,0.241 0.051,0.351 0.044,0.111 0.126,0.202 0.227,0.273 m -0.664,1.633 0.291,-0.579 0.373,0.423 c 0.114,0.123 0.209,0.227 0.285,0.299 -0.114,-0.033 -0.24,-0.059 -0.367,-0.072 z m -0.93,0.136 1.999,0.215 0.12,-0.241 -1.322,-1.58 -0.126,0.26 0.404,0.468 -0.354,0.716 -0.601,-0.078 z m -0.613,1.893 1.783,0.598 0.418,-1.327 -0.209,-0.071 -0.341,1.086 -0.544,-0.182 0.316,-1.015 -0.209,-0.071 -0.316,1.014 -0.607,-0.201 0.354,-1.126 -0.209,-0.071 z m -0.487,2.335 1.853,0.299 0.038,-0.254 -0.759,-0.124 0.152,-0.988 0.759,0.124 0.038,-0.254 -1.854,-0.299 -0.037,0.253 0.872,0.143 -0.151,0.989 -0.873,-0.143 z m -0.177,1.586 1.651,0.117 -0.045,0.631 0.222,0.02 0.101,-1.522 -0.221,-0.02 -0.045,0.638 -1.645,-0.118 z m 1.094,2.478 -0.044,-0.546 c -0.013,-0.117 -0.007,-0.208 0.012,-0.28 0.019,-0.065 0.051,-0.117 0.095,-0.156 0.051,-0.039 0.108,-0.058 0.165,-0.065 0.088,-0.007 0.164,0.02 0.227,0.078 0.064,0.058 0.102,0.163 0.114,0.306 l 0.051,0.605 z m -1.018,0.345 1.866,-0.169 -0.076,-0.846 c -0.013,-0.175 -0.038,-0.305 -0.083,-0.39 -0.038,-0.084 -0.107,-0.15 -0.196,-0.195 -0.088,-0.046 -0.183,-0.065 -0.284,-0.052 -0.133,0.006 -0.241,0.065 -0.323,0.163 -0.088,0.09 -0.133,0.233 -0.139,0.422 -0.038,-0.065 -0.076,-0.117 -0.107,-0.149 -0.076,-0.065 -0.165,-0.13 -0.266,-0.189 l -0.538,-0.286 0.026,0.319 0.411,0.221 c 0.12,0.065 0.208,0.117 0.272,0.162 0.063,0.039 0.107,0.078 0.139,0.117 0.025,0.033 0.044,0.072 0.057,0.111 0.006,0.026 0.019,0.072 0.019,0.136 l 0.025,0.3 -0.829,0.071 z m 1.233,2.139 c -0.221,0.04 -0.405,0.007 -0.557,-0.091 -0.145,-0.097 -0.233,-0.24 -0.265,-0.429 -0.038,-0.188 0,-0.357 0.113,-0.501 0.108,-0.143 0.279,-0.24 0.519,-0.279 0.146,-0.033 0.285,-0.026 0.405,0.006 0.12,0.033 0.221,0.091 0.297,0.182 0.083,0.085 0.133,0.195 0.152,0.319 0.032,0.176 0,0.338 -0.101,0.488 -0.095,0.15 -0.285,0.253 -0.563,0.305 m 0.05,0.254 c 0.304,-0.052 0.532,-0.182 0.677,-0.384 0.146,-0.201 0.19,-0.435 0.146,-0.702 -0.032,-0.175 -0.095,-0.325 -0.203,-0.449 -0.107,-0.123 -0.234,-0.214 -0.398,-0.26 -0.152,-0.045 -0.329,-0.052 -0.512,-0.019 -0.184,0.032 -0.348,0.104 -0.481,0.208 -0.133,0.104 -0.228,0.234 -0.278,0.39 -0.051,0.156 -0.064,0.312 -0.032,0.481 0.025,0.176 0.095,0.332 0.202,0.456 0.108,0.123 0.241,0.208 0.399,0.253 0.158,0.046 0.316,0.059 0.48,0.026 m -0.17,2.361 1.771,-0.631 -0.082,-0.247 -1.708,-0.462 1.391,-0.494 -0.082,-0.228 -1.771,0.624 0.088,0.248 1.709,0.462 -1.392,0.494 z m 15.888,6.406 c 6.945,0 12.612,-5.827 12.612,-12.968 0,-0.872 -0.082,-1.73 -0.246,-2.556 l -6.812,10.477 -2.625,-2.699 -2.619,4.449 -2.625,-4.449 -2.536,2.621 -7.426,-10.802 c -0.221,0.949 -0.335,1.944 -0.335,2.959 0,7.141 5.667,12.968 12.612,12.968"
       style="fill:#28458b;fill-opacity:1;fill-rule:evenodd;stroke:none"
       transform="matrix(0.35277776,0,0,-0.35277776,32.1915,204.65307)"
       clip-path="url(#clipPath3508)" />
  </g>
</svg>
