<?xml version="1.0" encoding="UTF-8" standalone="no"?>
<!-- Created with Inkscape (http://www.inkscape.org/) -->

<svg
   width="14.740113mm"
   height="7.1998758mm"
   viewBox="0 0 14.740113 7.1998758"
   version="1.1"
   id="svg1"
   xmlns="http://www.w3.org/2000/svg"
   xmlns:svg="http://www.w3.org/2000/svg">
  <defs
     id="defs1">
    <clipPath
       clipPathUnits="userSpaceOnUse"
       id="clipPath767">
      <path
         d="M 0,858.898 H 1207.558 V 0 H 0 Z"
         transform="translate(-345.31561,-484.11251)"
         id="path767" />
    </clipPath>
    <clipPath
       clipPathUnits="userSpaceOnUse"
       id="clipPath769">
      <path
         d="M 0,858.898 H 1207.558 V 0 H 0 Z"
         transform="translate(-334.02271,-488.57611)"
         id="path769" />
    </clipPath>
    <clipPath
       clipPathUnits="userSpaceOnUse"
       id="clipPath771">
      <path
         d="M 0,858.898 H 1207.558 V 0 H 0 Z"
         transform="translate(-311.61111,-496.18211)"
         id="path771" />
    </clipPath>
    <clipPath
       clipPathUnits="userSpaceOnUse"
       id="clipPath773">
      <path
         d="M 0,858.898 H 1207.558 V 0 H 0 Z"
         transform="translate(-347.09111,-487.92011)"
         id="path773" />
    </clipPath>
    <clipPath
       clipPathUnits="userSpaceOnUse"
       id="clipPath775">
      <path
         d="M 0,858.898 H 1207.558 V 0 H 0 Z"
         transform="translate(-311.61111,-487.92011)"
         id="path775" />
    </clipPath>
    <clipPath
       clipPathUnits="userSpaceOnUse"
       id="clipPath777">
      <path
         d="M 0,858.898 H 1207.558 V 0 H 0 Z"
         transform="translate(-346.39711,-487.92011)"
         id="path777" />
    </clipPath>
    <clipPath
       clipPathUnits="userSpaceOnUse"
       id="clipPath779">
      <path
         d="M 0,858.898 H 1207.558 V 0 H 0 Z"
         transform="translate(-321.05441,-477.53931)"
         id="path779" />
    </clipPath>
    <clipPath
       clipPathUnits="userSpaceOnUse"
       id="clipPath781">
      <path
         d="M 0,858.898 H 1207.558 V 0 H 0 Z"
         transform="translate(-314.79401,-479.73921)"
         id="path781" />
    </clipPath>
    <clipPath
       clipPathUnits="userSpaceOnUse"
       id="clipPath783">
      <path
         d="M 0,858.898 H 1207.558 V 0 H 0 Z"
         transform="translate(-311.64431,-477.88331)"
         id="path783" />
    </clipPath>
    <clipPath
       clipPathUnits="userSpaceOnUse"
       id="clipPath785">
      <path
         d="M 0,858.898 H 1207.558 V 0 H 0 Z"
         transform="translate(-325.77621,-477.96191)"
         id="path785" />
    </clipPath>
    <clipPath
       clipPathUnits="userSpaceOnUse"
       id="clipPath787">
      <path
         d="M 0,858.898 H 1207.558 V 0 H 0 Z"
         transform="translate(-327.45791,-477.29401)"
         id="path787" />
    </clipPath>
    <clipPath
       clipPathUnits="userSpaceOnUse"
       id="clipPath789">
      <path
         d="M 0,858.898 H 1207.558 V 0 H 0 Z"
         transform="translate(-331.95911,-476.48891)"
         id="path789" />
    </clipPath>
    <clipPath
       clipPathUnits="userSpaceOnUse"
       id="clipPath791">
      <path
         d="M 0,858.898 H 1207.558 V 0 H 0 Z"
         transform="translate(-335.08041,-476.26071)"
         id="path791" />
    </clipPath>
    <clipPath
       clipPathUnits="userSpaceOnUse"
       id="clipPath793">
      <path
         d="M 0,858.898 H 1207.558 V 0 H 0 Z"
         transform="translate(-338.32441,-478.29971)"
         id="path793" />
    </clipPath>
    <clipPath
       clipPathUnits="userSpaceOnUse"
       id="clipPath795">
      <path
         d="M 0,858.898 H 1207.558 V 0 H 0 Z"
         transform="translate(-340.23531,-478.69391)"
         id="path795" />
    </clipPath>
    <clipPath
       clipPathUnits="userSpaceOnUse"
       id="clipPath797">
      <path
         d="M 0,858.898 H 1207.558 V 0 H 0 Z"
         transform="translate(-342.40581,-478.83121)"
         id="path797" />
    </clipPath>
    <clipPath
       clipPathUnits="userSpaceOnUse"
       id="clipPath799">
      <path
         d="M 0,858.898 H 1207.558 V 0 H 0 Z"
         transform="translate(-343.08691,-479.70921)"
         id="path799" />
    </clipPath>
    <clipPath
       clipPathUnits="userSpaceOnUse"
       id="clipPath801">
      <path
         d="M 0,858.898 H 1207.558 V 0 H 0 Z"
         transform="translate(-344.66111,-479.70921)"
         id="path801" />
    </clipPath>
    <clipPath
       clipPathUnits="userSpaceOnUse"
       id="clipPath803">
      <path
         d="M 0,858.898 H 1207.558 V 0 H 0 Z"
         transform="translate(-346.27031,-479.70921)"
         id="path803" />
    </clipPath>
    <clipPath
       clipPathUnits="userSpaceOnUse"
       id="clipPath805">
      <path
         d="M 0,858.898 H 1207.558 V 0 H 0 Z"
         transform="translate(-348.10141,-478.83121)"
         id="path805" />
    </clipPath>
    <clipPath
       clipPathUnits="userSpaceOnUse"
       id="clipPath807">
      <path
         d="M 0,858.898 H 1207.558 V 0 H 0 Z"
         transform="translate(-337.49351,-476.67101)"
         id="path807" />
    </clipPath>
    <clipPath
       clipPathUnits="userSpaceOnUse"
       id="clipPath809">
      <path
         d="M 0,858.898 H 1207.558 V 0 H 0 Z"
         transform="translate(-340.23791,-476.70091)"
         id="path809" />
    </clipPath>
    <clipPath
       clipPathUnits="userSpaceOnUse"
       id="clipPath811">
      <path
         d="M 0,858.898 H 1207.558 V 0 H 0 Z"
         transform="translate(-342.58301,-476.67101)"
         id="path811" />
    </clipPath>
    <clipPath
       clipPathUnits="userSpaceOnUse"
       id="clipPath813">
      <path
         d="M 0,858.898 H 1207.558 V 0 H 0 Z"
         transform="translate(-343.23671,-476.55111)"
         id="path813" />
    </clipPath>
    <clipPath
       clipPathUnits="userSpaceOnUse"
       id="clipPath815">
      <path
         d="M 0,858.898 H 1207.558 V 0 H 0 Z"
         transform="translate(-345.77621,-476.66841)"
         id="path815" />
    </clipPath>
  </defs>
  <g
     id="layer1"
     transform="translate(-85.460418,-91.016673)">
    <path
       id="path766"
       d="M 0,0 -1.159,-2.486 H 4.307 L 5.467,0 Z"
       style="fill:#231f20;fill-opacity:1;fill-rule:evenodd;stroke:none"
       transform="matrix(0.35277776,0,0,-0.35277776,97.350614,95.274549)"
       clip-path="url(#clipPath767)" />
    <path
       id="path768"
       d="M 0,0 H 6.305 L 8.382,4.455 H 11.71 L 11.399,3.789 H 8.766 L 8.171,2.514 h 2.634 L 10.495,1.849 H 7.86 L 6.999,0 h 5.682 l 3.546,7.606 H 3.547 Z"
       style="fill:#231f20;fill-opacity:1;fill-rule:evenodd;stroke:none"
       transform="matrix(0.35277776,0,0,-0.35277776,93.366729,93.699892)"
       clip-path="url(#clipPath769)" />
    <path
       id="path770"
       d="M 0,0 V -7.605 H 22.412 L 25.958,0 Z"
       style="fill:#ed1c24;fill-opacity:1;fill-rule:evenodd;stroke:none"
       transform="matrix(0.35277776,0,0,-0.35277776,85.460416,91.016663)"
       clip-path="url(#clipPath771)" />
    <path
       id="path772"
       d="M 0,0 -1.474,-3.161 H 4.829 L 6.303,0 Z"
       style="fill:#231f20;fill-opacity:1;fill-rule:evenodd;stroke:none"
       transform="matrix(0.35277776,0,0,-0.35277776,97.976972,93.931313)"
       clip-path="url(#clipPath773)" />
    <path
       id="path774"
       d="M 0,0 V -6.978 H 25.157 L 28.411,0 Z"
       style="fill:#f47216;fill-opacity:1;fill-rule:evenodd;stroke:none"
       transform="matrix(0.35277776,0,0,-0.35277776,85.460416,93.931313)"
       clip-path="url(#clipPath775)" />
    <path
       id="path776"
       d="m 0,0 h -6.376 l -3.253,-6.978 h 6.376 z"
       style="fill:#231f20;fill-opacity:1;fill-rule:evenodd;stroke:none"
       transform="matrix(0.35277776,0,0,-0.35277776,97.732143,93.931313)"
       clip-path="url(#clipPath777)" />
    <path
       id="path778"
       d="m 0,0 h 2.042 v 0.047 0.482 0.04 H 0 v 0.548 h 2.042 v 0.07 0.482 0.016 H 0 V 2.181 H -1.027 V 1.685 H -3.064 V 1.669 1.187 1.117 h 2.037 V 0.569 H -3.064 V 0.529 0.047 0 h 2.037 v -0.541 h -2.121 v -0.048 -0.483 -0.037 h 2.121 V -1.764 H 0 v 0.655 h 2.122 v 0.037 0.483 0.048 H 0 Z"
       style="fill:#231f20;fill-opacity:1;fill-rule:evenodd;stroke:none"
       transform="matrix(0.35277776,0,0,-0.35277776,88.791803,97.593429)"
       clip-path="url(#clipPath779)" />
    <path
       id="path780"
       d="m 0,0 h -1.06 v -0.266 h -2.111 v -0.856 h 1.026 v 0.375 H 1.084 V -1.122 H 2.11 v 0.856 H 0 Z"
       style="fill:#231f20;fill-opacity:1;fill-rule:evenodd;stroke:none"
       transform="matrix(0.35277776,0,0,-0.35277776,86.583273,96.817353)"
       clip-path="url(#clipPath781)" />
    <path
       id="path782"
       d="M 0,0 H 2.11 V -0.467 H 0.122 V -0.976 H 2.11 V -1.57 H 0 v -0.503 h 5.239 v 0.503 h -0.56 v 0.347 H 3.653 V -1.57 H 3.128 v 0.594 h 1.988 v 0.509 H 3.128 V 0 H 5.239 V 0.503 H 0 Z"
       style="fill:#231f20;fill-opacity:1;fill-rule:evenodd;stroke:none"
       transform="matrix(0.35277776,0,0,-0.35277776,85.472129,97.472073)"
       clip-path="url(#clipPath783)" />
    <path
       id="path784"
       d="M 0,0 V 0 H 1.12 V -0.175 H 0 Z m 0,0.588 v 0 H 1.12 V 0.403 H 0 Z m 0,0.557 v 0 H 1.12 V 0.997 H 0 Z m -1.031,-1.723 h 4.663 v 0.403 H 2.158 V 0 H 3.563 V 0.403 H 2.158 V 0.588 H 3.574 V 0.996 H 2.158 V 1.145 H 3.632 V 1.558 H 2.158 V 1.765 H 1.119 V 1.558 H 0.225 L 0.389,1.765 H -0.798 L -1.567,0.779 h 0.536 z"
       style="fill:#231f20;fill-opacity:1;fill-rule:evenodd;stroke:none"
       transform="matrix(0.35277776,0,0,-0.35277776,90.457548,97.444344)"
       clip-path="url(#clipPath785)" />
    <path
       id="path786"
       d="m 0,0 h -1.038 v -0.143 h -2.116 v -0.445 h 0.799 l -0.637,-0.933 h 0.972 l 0.633,0.933 h 0.349 V -1.521 H 0 v 0.933 H 0.406 L 1.039,-1.521 H 2.01 l -0.637,0.933 h 0.742 v 0.445 H 0 Z"
       style="fill:#231f20;fill-opacity:1;fill-rule:evenodd;stroke:none"
       transform="matrix(0.35277776,0,0,-0.35277776,91.050816,97.679966)"
       clip-path="url(#clipPath787)" />
    <path
       id="path788"
       d="M 0,0 H 0.85 L 1.541,1.748 H 1.772 V -0.001 H 2.611 V 1.748 H 2.894 V 2.21 H 2.611 V 2.523 H 1.772 V 2.21 H -0.089 V 1.748 h 0.822 z"
       style="fill:#231f20;fill-opacity:1;fill-rule:evenodd;stroke:none"
       transform="matrix(0.35277776,0,0,-0.35277776,92.638739,97.963986)"
       clip-path="url(#clipPath789)" />
    <path
       id="path790"
       d="M 0,0 V 0 H -3.464 V 2.979 H 0 Z m -4.304,-0.44 h 5.146 v 3.864 h -5.146 z"
       style="fill:#231f20;fill-opacity:1;fill-rule:evenodd;stroke:none"
       transform="matrix(0.35277776,0,0,-0.35277776,93.739863,98.044491)"
       clip-path="url(#clipPath791)" />
    <path
       id="path792"
       d="m 0,0 v 0 c 0.17,0 0.272,0.06 0.272,0.19 v 0.005 c 0,0.117 -0.088,0.19 -0.285,0.19 H -0.456 V 0 Z m -0.103,0.703 v 0 c 0.17,0 0.278,0.055 0.278,0.185 v 0.005 c 0,0.115 -0.09,0.18 -0.253,0.18 H -0.456 V 0.703 Z M -0.831,1.41 H -0.02 C 0.18,1.41 0.337,1.355 0.437,1.255 0.516,1.175 0.556,1.078 0.556,0.958 V 0.953 C 0.556,0.756 0.452,0.646 0.327,0.576 0.528,0.499 0.653,0.382 0.653,0.147 V 0.142 C 0.653,-0.177 0.394,-0.337 0,-0.337 h -0.831 z"
       style="fill:#231f20;fill-opacity:1;fill-rule:evenodd;stroke:none"
       transform="matrix(0.35277776,0,0,-0.35277776,94.884274,97.325176)"
       clip-path="url(#clipPath793)" />
    <path
       id="path794"
       d="M 0,0 V 0 L -0.232,0.566 -0.464,0 Z M -0.405,1.028 H -0.05 L 0.698,-0.731 H 0.297 l -0.16,0.392 h -0.738 l -0.16,-0.392 h -0.392 z"
       style="fill:#231f20;fill-opacity:1;fill-rule:evenodd;stroke:none"
       transform="matrix(0.35277776,0,0,-0.35277776,95.558398,97.186111)"
       clip-path="url(#clipPath795)" />
    <path
       id="path796"
       d="m 0,0 v 0 0.005 c 0,0.3 -0.22,0.548 -0.528,0.548 -0.31,0 -0.525,-0.244 -0.525,-0.543 V 0.005 c 0,-0.3 0.22,-0.549 0.529,-0.549 C -0.215,-0.544 0,-0.3 0,0 m -1.455,0 v 0.005 c 0,0.497 0.392,0.903 0.931,0.903 0.539,0 0.926,-0.402 0.926,-0.898 V 0.005 c 0,-0.497 -0.392,-0.903 -0.93,-0.903 -0.54,0 -0.927,0.401 -0.927,0.898"
       style="fill:#231f20;fill-opacity:1;fill-rule:evenodd;stroke:none"
       transform="matrix(0.35277776,0,0,-0.35277776,96.324102,97.137676)"
       clip-path="url(#clipPath797)" />
    <path
       id="path798"
       d="M 0,0 H 1.33 V -0.35 H 0.385 V -0.721 H 1.218 V -1.07 H 0.385 V -1.746 H 0 Z"
       style="fill:#231f20;fill-opacity:1;fill-rule:evenodd;stroke:none"
       transform="matrix(0.35277776,0,0,-0.35277776,96.564378,96.827937)"
       clip-path="url(#clipPath799)" />
    <path
       id="path800"
       d="M 0,0 H 1.317 V -0.342 H 0.382 V -0.696 H 1.205 V -1.038 H 0.382 V -1.405 H 1.33 V -1.746 H 0 Z"
       style="fill:#231f20;fill-opacity:1;fill-rule:evenodd;stroke:none"
       transform="matrix(0.35277776,0,0,-0.35277776,97.119722,96.827937)"
       clip-path="url(#clipPath801)" />
    <path
       id="path802"
       d="M 0,0 H 0.355 L 1.173,-1.075 V 0 H 1.551 V -1.746 H 1.225 l -0.845,1.11 v -1.11 H 0 Z"
       style="fill:#231f20;fill-opacity:1;fill-rule:evenodd;stroke:none"
       transform="matrix(0.35277776,0,0,-0.35277776,97.687412,96.827937)"
       clip-path="url(#clipPath803)" />
    <path
       id="path804"
       d="m 0,0 v 0.005 c 0,0.497 0.387,0.903 0.916,0.903 0.314,0 0.504,-0.085 0.685,-0.24 L 1.36,0.377 C 1.225,0.489 1.105,0.553 0.903,0.553 0.623,0.553 0.402,0.307 0.402,0.01 V 0.005 c 0,-0.32 0.219,-0.554 0.528,-0.554 0.14,0 0.265,0.035 0.363,0.105 v 0.249 H 0.905 V 0.137 H 1.664 V -0.621 C 1.485,-0.773 1.238,-0.898 0.918,-0.898 0.375,-0.898 0,-0.517 0,0"
       style="fill:#231f20;fill-opacity:1;fill-rule:evenodd;stroke:none"
       transform="matrix(0.35277776,0,0,-0.35277776,98.333382,97.137676)"
       clip-path="url(#clipPath805)" />
    <path
       id="path806"
       d="m 0,0 v 0.005 c 0,0.497 0.387,0.903 0.916,0.903 0.314,0 0.504,-0.085 0.685,-0.24 L 1.36,0.377 C 1.225,0.489 1.105,0.553 0.903,0.553 0.623,0.553 0.402,0.307 0.402,0.01 V 0.005 c 0,-0.32 0.219,-0.554 0.528,-0.554 0.14,0 0.265,0.035 0.363,0.105 v 0.249 H 0.905 V 0.137 H 1.664 V -0.621 C 1.485,-0.773 1.238,-0.898 0.918,-0.898 0.375,-0.898 0,-0.516 0,0"
       style="fill:#231f20;fill-opacity:1;fill-rule:evenodd;stroke:none"
       transform="matrix(0.35277776,0,0,-0.35277776,94.591152,97.899745)"
       clip-path="url(#clipPath807)" />
    <path
       id="path808"
       d="m 0,0 v 0 c 0.187,0 0.294,0.1 0.294,0.247 v 0.005 c 0,0.165 -0.114,0.25 -0.302,0.25 H -0.39 V 0 Z m -0.773,0.848 h 0.798 c 0.222,0 0.394,-0.062 0.508,-0.177 0.098,-0.098 0.15,-0.234 0.15,-0.399 V 0.267 c 0,-0.282 -0.152,-0.459 -0.374,-0.542 L 0.736,-0.898 H 0.287 L -0.088,-0.34 H -0.092 -0.39 v -0.558 h -0.383 z"
       style="fill:#231f20;fill-opacity:1;fill-rule:evenodd;stroke:none"
       transform="matrix(0.35277776,0,0,-0.35277776,95.559316,97.889199)"
       clip-path="url(#clipPath809)" />
    <path
       id="path810"
       d="m 0,0 v 0 0.005 c 0,0.3 -0.22,0.548 -0.528,0.548 -0.31,0 -0.525,-0.244 -0.525,-0.543 V 0.005 c 0,-0.3 0.22,-0.549 0.529,-0.549 C -0.215,-0.544 0,-0.3 0,0 m -1.455,0 v 0.005 c 0,0.497 0.392,0.903 0.931,0.903 0.539,0 0.926,-0.401 0.926,-0.898 V 0.005 c 0,-0.497 -0.392,-0.903 -0.93,-0.903 -0.54,0 -0.927,0.402 -0.927,0.898"
       style="fill:#231f20;fill-opacity:1;fill-rule:evenodd;stroke:none"
       transform="matrix(0.35277776,0,0,-0.35277776,96.386615,97.899745)"
       clip-path="url(#clipPath811)" />
    <path
       id="path812"
       d="M 0,0 V 0.998 H 0.384 V 0.01 c 0,-0.285 0.142,-0.432 0.377,-0.432 0.234,0 0.377,0.142 0.377,0.419 V 0.998 H 1.521 V 0.013 C 1.521,-0.516 1.225,-0.776 0.756,-0.776 0.287,-0.776 0,-0.514 0,0"
       style="fill:#231f20;fill-opacity:1;fill-rule:evenodd;stroke:none"
       transform="matrix(0.35277776,0,0,-0.35277776,96.617226,97.942044)"
       clip-path="url(#clipPath813)" />
    <path
       id="path814"
       d="M 0,0 V 0 C 0.192,0 0.305,0.115 0.305,0.265 V 0.27 c 0,0.172 -0.12,0.263 -0.313,0.263 H -0.305 V 0 Z m -0.688,0.88 h 0.713 c 0.417,0 0.668,-0.247 0.668,-0.603 V 0.272 c 0,-0.404 -0.314,-0.614 -0.706,-0.614 h -0.292 v -0.524 h -0.383 z"
       style="fill:#231f20;fill-opacity:1;fill-rule:evenodd;stroke:none"
       transform="matrix(0.35277776,0,0,-0.35277776,97.513105,97.900663)"
       clip-path="url(#clipPath815)" />
  </g>
</svg>
