<?xml version="1.0" encoding="UTF-8" standalone="no"?>
<!-- Created with Inkscape (http://www.inkscape.org/) -->

<svg
   width="18.210388mm"
   height="13.802436mm"
   viewBox="0 0 18.210388 13.802436"
   version="1.1"
   id="svg1"
   xmlns="http://www.w3.org/2000/svg"
   xmlns:svg="http://www.w3.org/2000/svg">
  <defs
     id="defs1">
    <clipPath
       clipPathUnits="userSpaceOnUse"
       id="clipPath2960">
      <path
         d="M 0,858.898 H 1207.558 V 0 H 0 Z"
         transform="translate(-502.26792,-223.3173)"
         id="path2960" />
    </clipPath>
    <clipPath
       clipPathUnits="userSpaceOnUse"
       id="clipPath2962">
      <path
         d="M 0,858.898 H 1207.558 V 0 H 0 Z"
         transform="translate(-507.50641,-208.8306)"
         id="path2962" />
    </clipPath>
    <clipPath
       clipPathUnits="userSpaceOnUse"
       id="clipPath2964">
      <path
         d="M 0,858.898 H 1207.558 V 0 H 0 Z"
         transform="translate(-516.58021,-229.54641)"
         id="path2964" />
    </clipPath>
    <clipPath
       clipPathUnits="userSpaceOnUse"
       id="clipPath2966">
      <path
         d="M 0,858.898 H 1207.558 V 0 H 0 Z"
         transform="translate(-509.84052,-220.7883)"
         id="path2966" />
    </clipPath>
    <clipPath
       clipPathUnits="userSpaceOnUse"
       id="clipPath2968">
      <path
         d="M 0,858.898 H 1207.558 V 0 H 0 Z"
         transform="translate(-512.59711,-204.5157)"
         id="path2968" />
    </clipPath>
    <clipPath
       clipPathUnits="userSpaceOnUse"
       id="clipPath2970">
      <path
         d="M 0,858.898 H 1207.558 V 0 H 0 Z"
         transform="translate(-523.92861,-204.8064)"
         id="path2970" />
    </clipPath>
    <clipPath
       clipPathUnits="userSpaceOnUse"
       id="clipPath2972">
      <path
         d="M 0,858.898 H 1207.558 V 0 H 0 Z"
         transform="translate(-526.03201,-204.2064)"
         id="path2972" />
    </clipPath>
    <clipPath
       clipPathUnits="userSpaceOnUse"
       id="clipPath2974">
      <path
         d="M 0,858.898 H 1207.558 V 0 H 0 Z"
         transform="translate(-497.44181,-218.01771)"
         id="path2974" />
    </clipPath>
    <clipPath
       clipPathUnits="userSpaceOnUse"
       id="clipPath2976">
      <path
         d="M 0,858.898 H 1207.558 V 0 H 0 Z"
         transform="translate(-497.87891,-215.17071)"
         id="path2976" />
    </clipPath>
    <clipPath
       clipPathUnits="userSpaceOnUse"
       id="clipPath2978">
      <path
         d="M 0,858.898 H 1207.558 V 0 H 0 Z"
         transform="translate(-495.68061,-215.0013)"
         id="path2978" />
    </clipPath>
    <clipPath
       clipPathUnits="userSpaceOnUse"
       id="clipPath2980">
      <path
         d="M 0,858.898 H 1207.558 V 0 H 0 Z"
         transform="translate(-493.42581,-214.7688)"
         id="path2980" />
    </clipPath>
    <clipPath
       clipPathUnits="userSpaceOnUse"
       id="clipPath2982">
      <path
         d="M 0,858.898 H 1207.558 V 0 H 0 Z"
         transform="translate(-494.78181,-211.1157)"
         id="path2982" />
    </clipPath>
    <clipPath
       clipPathUnits="userSpaceOnUse"
       id="clipPath2984">
      <path
         d="M 0,858.898 H 1207.558 V 0 H 0 Z"
         transform="translate(-494.71541,-208.89831)"
         id="path2984" />
    </clipPath>
    <clipPath
       clipPathUnits="userSpaceOnUse"
       id="clipPath2986">
      <path
         d="M 0,858.898 H 1207.558 V 0 H 0 Z"
         transform="translate(-493.35551,-206.46251)"
         id="path2986" />
    </clipPath>
    <clipPath
       clipPathUnits="userSpaceOnUse"
       id="clipPath2988">
      <path
         d="M 0,858.898 H 1207.558 V 0 H 0 Z"
         transform="translate(-495.20111,-204.9057)"
         id="path2988" />
    </clipPath>
    <clipPath
       clipPathUnits="userSpaceOnUse"
       id="clipPath2990">
      <path
         d="M 0,858.898 H 1207.558 V 0 H 0 Z"
         transform="translate(-499.51071,-204.04241)"
         id="path2990" />
    </clipPath>
    <clipPath
       clipPathUnits="userSpaceOnUse"
       id="clipPath2992">
      <path
         d="M 0,858.898 H 1207.558 V 0 H 0 Z"
         transform="translate(-498.30221,-199.4208)"
         id="path2992" />
    </clipPath>
    <clipPath
       clipPathUnits="userSpaceOnUse"
       id="clipPath2994">
      <path
         d="M 0,858.898 H 1207.558 V 0 H 0 Z"
         transform="translate(-499.89821,-198.26921)"
         id="path2994" />
    </clipPath>
    <clipPath
       clipPathUnits="userSpaceOnUse"
       id="clipPath2996">
      <path
         d="M 0,858.898 H 1207.558 V 0 H 0 Z"
         transform="translate(-500.81101,-197.43281)"
         id="path2996" />
    </clipPath>
    <clipPath
       clipPathUnits="userSpaceOnUse"
       id="clipPath2998">
      <path
         d="M 0,858.898 H 1207.558 V 0 H 0 Z"
         transform="translate(-504.47571,-198.54611)"
         id="path2998" />
    </clipPath>
    <clipPath
       clipPathUnits="userSpaceOnUse"
       id="clipPath3000">
      <path
         d="M 0,858.898 H 1207.558 V 0 H 0 Z"
         transform="translate(-505.85881,-199.2741)"
         id="path3000" />
    </clipPath>
    <clipPath
       clipPathUnits="userSpaceOnUse"
       id="clipPath3002">
      <path
         d="M 0,858.898 H 1207.558 V 0 H 0 Z"
         transform="translate(-505.81891,-195.99251)"
         id="path3002" />
    </clipPath>
    <clipPath
       clipPathUnits="userSpaceOnUse"
       id="clipPath3004">
      <path
         d="M 0,858.898 H 1207.558 V 0 H 0 Z"
         transform="translate(-507.63541,-194.54681)"
         id="path3004" />
    </clipPath>
    <clipPath
       clipPathUnits="userSpaceOnUse"
       id="clipPath3006">
      <path
         d="M 0,858.898 H 1207.558 V 0 H 0 Z"
         transform="translate(-509.83941,-197.7824)"
         id="path3006" />
    </clipPath>
    <clipPath
       clipPathUnits="userSpaceOnUse"
       id="clipPath3008">
      <path
         d="M 0,858.898 H 1207.558 V 0 H 0 Z"
         transform="translate(-511.31982,-195.4206)"
         id="path3008" />
    </clipPath>
    <clipPath
       clipPathUnits="userSpaceOnUse"
       id="clipPath3010">
      <path
         d="M 0,858.898 H 1207.558 V 0 H 0 Z"
         transform="translate(-514.79001,-194.91761)"
         id="path3010" />
    </clipPath>
    <clipPath
       clipPathUnits="userSpaceOnUse"
       id="clipPath3012">
      <path
         d="M 0,858.898 H 1207.558 V 0 H 0 Z"
         transform="translate(-516.32892,-195.72461)"
         id="path3012" />
    </clipPath>
    <clipPath
       clipPathUnits="userSpaceOnUse"
       id="clipPath3014">
      <path
         d="M 0,858.898 H 1207.558 V 0 H 0 Z"
         transform="translate(-517.64361,-193.9488)"
         id="path3014" />
    </clipPath>
    <clipPath
       clipPathUnits="userSpaceOnUse"
       id="clipPath3016">
      <path
         d="M 0,858.898 H 1207.558 V 0 H 0 Z"
         transform="translate(-520.39512,-196.1798)"
         id="path3016" />
    </clipPath>
    <clipPath
       clipPathUnits="userSpaceOnUse"
       id="clipPath3018">
      <path
         d="M 0,858.898 H 1207.558 V 0 H 0 Z"
         transform="translate(-521.86611,-193.4787)"
         id="path3018" />
    </clipPath>
    <clipPath
       clipPathUnits="userSpaceOnUse"
       id="clipPath3020">
      <path
         d="M 0,858.898 H 1207.558 V 0 H 0 Z"
         transform="translate(-522.93421,-196.4693)"
         id="path3020" />
    </clipPath>
    <clipPath
       clipPathUnits="userSpaceOnUse"
       id="clipPath3022">
      <path
         d="M 0,858.898 H 1207.558 V 0 H 0 Z"
         transform="translate(-525.71281,-194.4699)"
         id="path3022" />
    </clipPath>
    <clipPath
       clipPathUnits="userSpaceOnUse"
       id="clipPath3024">
      <path
         d="M 0,858.898 H 1207.558 V 0 H 0 Z"
         transform="translate(-526.66531,-197.89811)"
         id="path3024" />
    </clipPath>
    <clipPath
       clipPathUnits="userSpaceOnUse"
       id="clipPath3026">
      <path
         d="M 0,858.898 H 1207.558 V 0 H 0 Z"
         transform="translate(-528.10021,-198.1113)"
         id="path3026" />
    </clipPath>
    <clipPath
       clipPathUnits="userSpaceOnUse"
       id="clipPath3028">
      <path
         d="M 0,858.898 H 1207.558 V 0 H 0 Z"
         transform="translate(-530.47021,-198.7028)"
         id="path3028" />
    </clipPath>
    <clipPath
       clipPathUnits="userSpaceOnUse"
       id="clipPath3030">
      <path
         d="M 0,858.898 H 1207.558 V 0 H 0 Z"
         transform="translate(-533.55871,-198.50951)"
         id="path3030" />
    </clipPath>
    <clipPath
       clipPathUnits="userSpaceOnUse"
       id="clipPath3032">
      <path
         d="M 0,858.898 H 1207.558 V 0 H 0 Z"
         transform="translate(-532.10821,-202.1589)"
         id="path3032" />
    </clipPath>
    <clipPath
       clipPathUnits="userSpaceOnUse"
       id="clipPath3034">
      <path
         d="M 0,858.898 H 1207.558 V 0 H 0 Z"
         transform="translate(-534.14691,-204.08651)"
         id="path3034" />
    </clipPath>
    <clipPath
       clipPathUnits="userSpaceOnUse"
       id="clipPath3036">
      <path
         d="M 0,858.898 H 1207.558 V 0 H 0 Z"
         transform="translate(-536.25141,-205.2681)"
         id="path3036" />
    </clipPath>
    <clipPath
       clipPathUnits="userSpaceOnUse"
       id="clipPath3038">
      <path
         d="M 0,858.898 H 1207.558 V 0 H 0 Z"
         transform="translate(-536.95081,-207.09281)"
         id="path3038" />
    </clipPath>
    <clipPath
       clipPathUnits="userSpaceOnUse"
       id="clipPath3040">
      <path
         d="M 0,858.898 H 1207.558 V 0 H 0 Z"
         transform="translate(-538.14822,-208.49901)"
         id="path3040" />
    </clipPath>
    <clipPath
       clipPathUnits="userSpaceOnUse"
       id="clipPath3042">
      <path
         d="M 0,858.898 H 1207.558 V 0 H 0 Z"
         transform="translate(-540.42861,-211.04631)"
         id="path3042" />
    </clipPath>
    <clipPath
       clipPathUnits="userSpaceOnUse"
       id="clipPath3044">
      <path
         d="M 0,858.898 H 1207.558 V 0 H 0 Z"
         transform="translate(-538.33651,-213.04811)"
         id="path3044" />
    </clipPath>
    <clipPath
       clipPathUnits="userSpaceOnUse"
       id="clipPath3046">
      <path
         d="M 0,858.898 H 1207.558 V 0 H 0 Z"
         transform="translate(-538.69071,-215.0406)"
         id="path3046" />
    </clipPath>
    <clipPath
       clipPathUnits="userSpaceOnUse"
       id="clipPath3048">
      <path
         d="M 0,858.898 H 1207.558 V 0 H 0 Z"
         transform="translate(-536.61241,-218.41481)"
         id="path3048" />
    </clipPath>
    <clipPath
       clipPathUnits="userSpaceOnUse"
       id="clipPath3050">
      <path
         d="M 0,858.898 H 1207.558 V 0 H 0 Z"
         transform="translate(-535.21411,-219.14351)"
         id="path3050" />
    </clipPath>
    <clipPath
       clipPathUnits="userSpaceOnUse"
       id="clipPath3052">
      <path
         d="M 0,858.898 H 1207.558 V 0 H 0 Z"
         transform="translate(-537.16221,-216.34301)"
         id="path3052" />
    </clipPath>
  </defs>
  <g
     id="layer1"
     transform="translate(-166.48598,-152.3674)">
    <path
       id="path2959"
       d="m 0,0 c -0.05,0.062 -0.093,0.085 -0.182,0.102 -0.024,0.002 -0.048,0.003 -0.07,0.004 0,0.004 -0.001,0.008 -0.003,0.012 -0.024,0.036 0.063,0.38 0.067,0.454 0.004,0.074 0.081,0.145 0.186,0.253 C 0.195,1.014 0.299,1.347 0.251,1.502 0.203,1.656 0.084,1.682 -0.247,1.797 -0.598,1.91 -0.595,1.635 -0.614,1.489 -0.633,1.343 -0.456,1.036 -0.508,0.766 -0.515,0.733 -0.57,0.676 -0.652,0.607 -0.654,0.609 -0.655,0.61 -0.655,0.61 c 0,0 -0.279,0.498 -0.314,0.568 -0.035,0.07 -0.138,0.055 -0.454,0.068 C -1.877,1.2 -1.65,0.976 -1.584,0.937 c 0.067,-0.04 0.799,-0.38 0.799,-0.38 0,0 0.019,-0.011 0.045,-0.021 -0.314,-0.244 -0.835,-0.57 -0.835,-0.57 -0.564,-0.321 0.159,-0.39 0.266,-0.414 0.108,-0.023 0.171,0.038 0.211,0.136 0.148,0.249 0.529,0.598 0.602,0.644 0.073,0.047 0.162,0.084 0.133,-0.047 C -0.377,0.22 -0.37,0.155 -0.36,0.104 -0.779,0.081 -0.634,-0.165 -0.558,-0.224 c 0.061,-0.048 0.144,-0.076 0.187,-0.191 0.033,-0.089 0.008,-0.127 -0.044,-0.113 -0.078,0.039 -0.154,0.043 -0.198,0.004 -0.044,-0.038 -0.032,-0.147 -0.041,-0.174 -0.009,-0.027 -0.566,0.084 -0.566,0.084 -0.416,0.023 -0.01,-0.312 0.129,-0.365 0.14,-0.053 0.124,-0.168 0.044,-0.289 -0.081,-0.12 0.184,-0.098 0.464,-0.171 0.279,-0.073 0.303,0.554 0.31,0.633 0.008,0.079 0.053,0.139 0.106,0.089 0.012,-0.01 0.084,-0.118 0.193,-0.283 -0.027,-0.149 -0.99,-1.143 -1.179,-1.318 -0.188,-0.174 -0.319,-0.274 -0.268,-0.362 0.052,-0.088 0.407,-0.156 0.675,0.017 0.114,0.074 0.237,0.38 0.389,0.64 0.206,0.354 0.433,0.677 0.467,0.729 0.01,0.016 0.034,0.041 0.065,0.067 C 0.21,-1.28 0.246,-1.336 0.284,-1.394 -0.053,-1.95 -0.209,-2.62 -0.28,-2.828 c -0.078,-0.224 0.001,-0.321 0.197,-0.274 0.197,0.048 0.43,0.488 0.73,0.924 0.024,0.035 0.05,0.071 0.076,0.107 0.329,-0.509 0.637,-0.988 0.699,-1.081 0.141,-0.21 0.341,-0.282 0.394,-0.021 0.084,0.313 -0.272,0.808 -0.459,1.099 -0.051,0.078 -0.158,0.242 -0.289,0.443 0.204,0.251 0.391,0.478 0.456,0.625 0.113,0.252 -0.423,0.15 -0.621,0.17 -0.174,0.018 0.428,0.803 0.559,1.025 C 1.594,0.412 1.408,0.471 1.26,0.503 0.92,0.564 0.786,0.14 0.7,-0.053 0.613,-0.246 0.576,-0.017 0.576,0.073 0.57,0.206 0.761,0.598 0.773,0.759 0.785,0.921 0.648,0.822 0.421,0.855 -0.012,0.93 0.111,0.656 0.201,0.549 0.29,0.443 0.145,0.128 0.127,0.09 0.117,0.069 0.053,0.03 0,0 m 0.079,-0.115 c 0.006,-0.009 0.013,-0.019 0.02,-0.03 0.034,-0.053 0.142,-0.218 0.282,-0.433 0.202,0.167 0.08,0.46 -0.006,0.595 C 0.299,0.135 0.133,-0.049 0.079,-0.115 M -0.255,1.303 C -0.285,1.431 -0.18,1.472 -0.097,1.386 -0.031,1.319 -0.039,1.283 -0.06,1.196 -0.099,1.032 -0.215,1.049 -0.227,1.155 -0.238,1.261 -0.249,1.273 -0.255,1.303 M 0.521,-0.719 C 0.532,-0.697 1,-0.023 0.955,-0.229 0.872,-0.41 0.756,-0.696 0.698,-0.778 0.639,-0.86 0.485,-0.792 0.521,-0.719 M 0.704,-1.09 C 0.688,-1.061 0.895,-1.05 0.959,-1.114 1.022,-1.179 1.04,-1.24 0.961,-1.274 0.883,-1.307 0.85,-1.351 0.704,-1.09 M 0.048,-2.311 c 0.016,0.041 0.137,0.251 0.218,0.413 0.101,0.2 0.146,0.379 0.227,0.206 C 0.567,-1.799 0.466,-1.892 0.36,-2.054 0.254,-2.217 -0.083,-2.65 0.048,-2.311 M 5.275,2.128 C 5.243,2.056 5.371,1.844 5.431,1.748 5.717,1.868 5.655,2.188 5.617,2.541 5.578,2.989 5.307,2.199 5.275,2.128 M 4.341,2.936 C 4.29,2.956 4.122,3.173 4.282,3.47 4.453,3.677 4.463,3.586 4.625,3.565 4.788,3.543 4.917,3.545 4.971,3.34 5.025,3.135 5.066,2.618 5.149,2.649 5.232,2.68 5.279,2.745 5.299,2.848 5.32,2.95 5.657,3.374 5.826,3.462 5.994,3.549 6.256,3.577 6.323,3.401 6.389,3.224 6.216,2.993 6.096,2.936 6.04,2.832 5.769,2.232 5.997,2.223 6.135,2.204 6.264,2.146 6.193,1.989 6.158,1.911 6.045,1.73 5.912,1.607 5.777,1.483 5.621,1.418 5.586,1.369 5.591,1.228 6.188,-0.098 6.28,-0.466 6.378,-0.726 6.449,-1.102 6.128,-0.974 5.807,-0.847 5.727,-0.604 5.653,-0.407 5.578,-0.21 5.218,1.277 5.037,1.599 4.947,1.554 4.929,1.499 4.849,1.28 4.745,0.991 4.748,0.732 4.586,0.659 4.443,0.594 4.03,0.626 3.947,0.938 3.865,1.251 3.841,1.752 3.87,1.833 3.898,1.915 3.99,2.08 4.154,1.834 4.318,1.588 4.489,1.262 4.598,1.505 4.708,1.748 4.927,1.984 4.86,2.066 4.794,2.147 4.605,2.834 4.341,2.936 m 5.656,1.076 c 0,0 0.284,0.12 0.328,0.133 0.044,0.012 0.422,-0.02 0.425,0.257 0.002,0.277 -0.113,0.74 -0.313,0.412 C 10.297,4.698 9.626,4.156 9.425,3.872 9.223,3.588 9.225,3.511 9.997,4.012 M 9.824,3.175 C 9.74,3.028 9.349,2.772 8.923,2.548 8.498,2.323 8.937,2.127 9.223,2.191 9.51,2.256 9.87,2.766 9.934,2.868 9.997,2.97 10.017,2.682 9.987,2.57 9.957,2.492 9.992,2.094 9.993,2.038 9.995,1.983 9.911,1.847 9.855,1.868 9.903,2.435 9.534,1.835 9.482,1.745 9.429,1.654 9.397,1.62 9.405,1.376 9.412,1.133 9.458,1.09 9.546,1.104 9.635,1.118 9.764,1.233 9.968,1.45 9.982,1.018 10.279,1.083 10.344,1.129 c 0.152,0.116 -0.006,0.532 0.021,0.733 0.071,0.202 0.404,0.545 0.516,0.87 0.111,0.325 -0.146,0.04 -0.21,-0.04 -0.064,-0.08 -0.18,-0.272 -0.289,-0.32 -0.109,-0.048 0.144,0.704 0.205,0.883 0.06,0.179 0.028,0.156 -0.1,0.329 C 10.223,3.864 10.106,3.727 10.059,3.471 10.011,3.214 9.824,3.175 9.824,3.175 m 0.969,0.574 C 10.747,3.792 10.583,4.408 11.015,4.078 11.31,3.877 11.37,3.712 11.342,3.556 11.314,3.4 11.178,3.13 11.251,2.955 11.323,2.78 11.55,2.598 11.348,2.337 11.328,2.27 11.329,2.236 11.437,2.317 c 0.109,0.081 0.178,0.006 0.203,0.251 0.026,0.245 0.026,0.932 0.033,1.054 0.007,0.122 -0.082,0.829 -0.099,1.006 -0.017,0.177 0.369,0.245 0.651,-0.234 -0.005,-0.211 -0.227,-1.571 -0.077,-1.4 0.149,0.172 0.211,0.329 0.207,0.45 -0.004,0.122 0.116,0.182 0.111,0.004 C 12.462,3.314 12.811,3.06 12.563,2.852 12.314,2.645 12.131,2.462 12.137,2.295 12.142,2.129 12.179,1.321 12.144,0.677 12.109,0.032 11.801,-0.377 11.737,0.231 11.673,0.839 11.698,1.805 11.66,1.959 11.498,1.809 11.01,1.461 11.012,1.749 c 0.002,0.289 0.088,0.358 0.097,0.436 0.008,0.078 0.049,0.534 -0.066,0.663 -0.115,0.13 0.096,0.48 0.016,0.533 -0.079,0.053 -0.221,0.326 -0.266,0.368 m 5.36,0.3 c 0,0 0.219,0.337 0.237,0.536 0.019,0.199 0.153,0.268 0.48,-0.162 C 16.854,4.313 16.855,4.246 16.938,4.278 17.022,4.31 17.081,4.032 16.954,3.939 16.828,3.846 16.61,3.812 16.517,3.568 16.425,3.324 16.187,2.419 16.102,1.927 16.017,1.436 15.827,1.072 16.167,1.166 c 0.313,0.144 0.861,0.509 0.784,0.745 -0.076,0.236 -0.192,0.433 -0.179,0.52 0.013,0.088 0.131,0.126 0.35,-0.131 0.078,-0.079 0.111,-0.084 0.18,0.007 0.07,0.09 0.263,0.33 0.07,0.314 -0.09,-0.076 -0.233,-0.133 -0.236,-0.009 -0.004,0.124 0.015,0.401 0.174,0.635 0.158,0.234 0.074,0.269 -0.018,0.182 -0.091,-0.087 -0.269,-0.296 -0.546,-0.131 -0.202,0.076 -0.276,0.177 -0.127,0.199 0.149,0.022 0.808,0.382 1.013,0.475 0.076,0.134 0.122,0.217 0.13,0.271 0.009,0.055 0.069,0.304 0.086,0.346 0.018,0.042 0.048,0.24 0.266,0.05 C 18.297,4.443 18.403,4.405 18.42,4.29 18.485,4.202 18.63,4.124 18.471,3.957 18.311,3.791 18.092,3.902 17.906,3.482 17.736,3.171 17.539,2.91 17.682,2.888 17.824,2.867 18.213,2.696 17.943,2.389 17.672,2.083 17.444,1.983 17.642,1.807 17.84,1.632 17.882,1.39 18.379,1.27 18.642,1.23 19.058,1.235 18.773,1.132 18.489,1.029 17.769,0.645 17.483,0.979 17.331,1.305 17.268,1.519 17.158,1.42 17.009,1.287 16.572,0.959 16.29,0.868 16.121,0.792 16.018,0.852 15.972,0.994 15.917,0.924 15.929,0.709 15.714,0.697 15.5,0.684 15.563,0.809 15.436,0.929 15.308,1.049 14.685,1.378 15.054,1.3 15.418,1.257 15.546,1.215 15.568,1.358 15.589,1.5 15.783,2.412 15.785,2.502 15.685,2.36 15.365,2.094 15.167,1.821 14.969,1.549 14.781,1.566 14.625,1.724 c -0.155,0.158 -0.188,0.241 0.109,0.353 0.244,0.132 0.685,0.603 0.915,0.714 0.149,0.168 0.371,0.381 0.349,0.676 -0.065,-0.057 -0.129,-0.037 -0.232,0.024 -0.103,0.06 -0.341,0.343 -0.01,0.382 0.278,0.059 0.397,0.176 0.397,0.176 m 6.97,-3.024 c 10e-4,-0.081 0.068,-0.804 0.368,-1.139 0.103,-0.114 0.283,-0.23 0.35,-0.321 0.058,-0.078 0.021,-0.141 -0.115,-0.116 -0.294,0.055 -0.947,-0.003 -1.002,0.346 -0.054,0.349 0.125,1.088 0.163,1.313 0.038,0.226 0.228,0.381 0.236,-0.083 m 0.54,2.282 c 0,0 -0.453,-0.732 -0.92,-1.334 C 22.389,1.89 21.619,2.014 21.369,2.109 20.904,2.286 21.128,1.894 21.243,1.599 21.357,1.303 21.448,1.364 21.687,1.409 21.8,1.431 22.056,1.454 22.314,1.474 22.192,1.35 22.079,1.259 21.987,1.22 21.775,1.13 21.374,1.03 21.054,1.03 20.586,1.029 20.239,1.138 20.48,0.954 c 0.407,-0.31 0.714,-0.426 1.371,-0.239 0.392,0.112 0.816,0.46 1.171,0.803 0.216,0.004 0.847,-0.009 1.181,-0.01 0.318,-0.057 0.19,0.155 0.103,0.328 -0.165,0.236 -0.576,0.064 -0.662,0.053 -0.031,-0.005 -0.109,0.021 -0.21,0.05 0.067,0.072 0.127,0.137 0.179,0.192 0.357,0.377 0.694,0.597 0.588,0.887 -0.105,0.289 -0.169,1.078 -0.538,0.289 M 28.005,1.47 C 28.054,1.313 27.74,0.628 27.672,0.416 27.604,0.203 27.854,0.269 27.954,0.388 c 0.163,0.213 0.165,0.025 0.167,-0.179 0.09,-0.352 0.361,-0.074 0.444,0.217 0.09,0.377 0.185,0.268 0.46,0.248 0.33,-0.106 0.041,-0.117 -0.216,-0.269 -0.32,-0.184 -0.207,-0.434 -0.001,-0.651 0.443,-0.34 0.789,0.236 0.827,0.386 0.037,0.149 0.234,0.065 0.493,-0.018 0.332,-0.185 0.153,-0.289 -0.003,-0.353 -0.134,-0.055 -0.781,-0.244 -0.97,-0.23 -0.188,0.013 -1.053,0.239 -1.454,0.399 -0.402,0.16 -0.147,-0.166 -0.052,-0.291 0.096,-0.124 0.402,-0.175 0.905,-0.264 0.502,-0.088 -0.342,-0.302 -0.506,-0.343 -0.164,-0.041 -1.477,0.329 -1.942,0.504 -0.662,0.385 -0.366,-0.216 -0.291,-0.552 0.044,-0.199 0.593,-0.172 1.043,-0.152 0.31,0.014 0.553,0.004 0.636,-0.002 0.204,-0.013 0.157,-0.076 0.072,-0.164 -0.085,-0.087 -0.791,-0.776 -0.93,-0.935 -0.139,-0.158 -0.328,-0.066 -0.582,0.182 -0.278,0.365 -0.213,0.115 -0.141,-0.017 0.072,-0.133 0.274,-0.624 0.448,-0.811 0.175,-0.186 0.384,0.013 0.655,0.321 0.271,0.309 1.029,1.164 1.091,1.243 0.164,0.025 0.37,-0.114 0.121,-0.289 -0.193,-0.144 -0.059,-0.175 0.177,-0.225 0.116,-0.025 0.305,-0.101 0.399,-0.105 0.282,-0.013 0.143,0.464 -0.094,0.712 -0.238,0.248 0.359,0.129 0.61,0.101 0.251,-0.029 0.209,0.182 0.199,0.441 -0.011,0.258 0.618,0.046 1.066,-0.051 0.534,-0.041 0.466,0.428 0.4,0.678 -0.065,0.25 -0.034,0.282 -0.27,0.327 -0.236,0.044 -0.653,0.188 -0.849,0.178 -0.195,-0.01 -0.143,0.171 0.062,0.126 0.204,-0.044 0.265,0.082 0.335,0.184 0.039,0.722 -0.28,0.444 -0.521,0.308 C 29.5,0.906 29.426,1.258 29.284,1.366 29.048,1.426 29.24,1.068 29.171,0.95 29.105,0.838 28.779,0.898 28.725,0.905 28.67,0.913 28.769,1.157 28.842,1.612 28.812,2.215 28.491,2.173 28.517,1.93 28.543,1.687 28.477,1.349 28.377,1.121 28.292,0.926 28.262,0.955 28.298,1.214 28.188,1.958 28.005,1.47 28.005,1.47 m 1.22,-1.194 c 0.126,0.01 0.159,-0.155 0.089,-0.226 -0.07,-0.071 -0.155,-0.19 -0.211,-0.073 -0.056,0.117 -0.112,0.281 0.122,0.299"
       style="fill:#d72a25;fill-opacity:1;fill-rule:evenodd;stroke:none"
       transform="matrix(0.35277776,0,0,-0.35277776,170.54209,154.81288)"
       clip-path="url(#clipPath2960)" />
    <path
       id="path2961"
       d="m 0,0 c -0.4,0 -1.854,-0.792 -1.854,-0.792 0,0 11.966,-0.034 12.745,-0.023 0.754,0.263 1.372,1.51 1.567,2.345 0.194,1.064 -1.671,1.968 -2.231,2.643 C 9.46,5.099 7.447,6.254 6.085,7.238 5.421,7.766 5.776,8.185 6.429,8.279 8.982,8.198 13.81,7.246 16.565,5.9 17.08,5.648 16.931,5.511 16.679,5.454 16.428,5.397 14.591,5.398 13.6,5.432 12.609,5.466 11.925,4.339 11.925,4.339 c 0,0 0.789,-0.013 1.719,-0.027 l -1.591,-5.167 h 1.943 l 1.581,5.138 c 0.503,-0.008 0.886,-0.012 0.995,-0.012 1.01,0.859 1.921,1.868 2.129,2.704 0.173,0.693 -0.244,1.278 -0.523,1.463 C 14.332,10.243 9.325,9.859 7.115,9.134 6.258,8.853 5.861,8.441 5.775,8.336 3.625,8.4 3.289,7.207 4.328,6.546 5.417,5.852 7.963,4.986 9.021,4.475 10.9,3.416 10.149,2.05 9.26,1.059 7.552,-1.025 0,0 0,0 M 3.183,4.256 2.523,1.84 H 1.979 l 0.66,2.416 H 1.116 L 0.053,0.366 h 1.523 l 0.295,1.08 H 2.415 L 2.12,0.366 h 1.523 l 1.064,3.89 z m 2.122,0 H 6.828 L 5.873,0.761 H 6.471 L 7.427,4.256 H 8.95 L 7.887,0.366 H 4.242 Z"
       style="fill:#2f5394;fill-opacity:1;fill-rule:evenodd;stroke:none"
       transform="matrix(0.35277776,0,0,-0.35277776,172.39011,159.92347)"
       clip-path="url(#clipPath2962)" />
    <path
       id="path2963"
       d="m 0,0 c -13.705,0 -24.883,-8.472 -24.883,-18.86 0,-10.387 11.178,-18.86 24.883,-18.86 13.705,0 24.883,8.473 24.883,18.86 C 24.883,-8.472 13.705,0 0,0 m 0,0.703 c 14.216,0 25.81,-8.788 25.81,-19.563 0,-10.774 -11.594,-19.562 -25.81,-19.562 -14.216,0 -25.81,8.788 -25.81,19.562 0,10.775 11.594,19.563 25.81,19.563"
       style="fill:#2f5394;fill-opacity:1;fill-rule:evenodd;stroke:none"
       transform="matrix(0.35277776,0,0,-0.35277776,175.59115,152.6154)"
       clip-path="url(#clipPath2964)" />
    <path
       id="path2965"
       d="M 0,0 H 13.479 C 11.462,0.84 9.169,1.316 6.74,1.316 4.31,1.316 2.017,0.84 0,0 M 12.593,0.853 C 13.322,0.611 14.023,0.325 14.689,0 h 0.803 C 14.573,0.338 13.603,0.624 12.593,0.853 M -2.013,0 H -1.21 C -0.543,0.325 0.157,0.611 0.886,0.853 -0.124,0.624 -1.093,0.338 -2.013,0 m 0.986,-20.389 h -0.986 c 1.196,-0.439 1.838,-0.597 3.182,-0.849 -0.996,0.271 -1.306,0.428 -2.196,0.849 m 14.523,0 H -0.017 c 2.021,-0.845 4.32,-1.324 6.757,-1.324 2.436,0 4.735,0.479 6.756,1.324 m 1.996,0 h -0.985 c -0.89,-0.421 -0.994,-0.56 -1.989,-0.831 1.344,0.252 1.778,0.392 2.974,0.831 m -0.1,0.452 h 1.232 c 4.838,2.097 8.038,5.683 8.038,9.742 0,4.059 -3.2,7.646 -8.038,9.743 h -1.075 c 3.835,-2.169 6.342,-5.711 6.342,-9.699 0,-4.043 -2.575,-7.626 -6.499,-9.786 m -18.537,0 h 1.233 c -3.924,2.16 -6.5,5.743 -6.5,9.786 0,3.988 2.507,7.53 6.342,9.699 h -1.075 c -4.838,-2.097 -8.038,-5.684 -8.038,-9.743 0,-4.059 3.2,-7.645 8.038,-9.742 m 21.123,2.444 H -4.499 c 0.991,-0.955 2.171,-1.782 3.495,-2.444 h 15.487 c 1.324,0.662 2.504,1.489 3.495,2.444 m -24.741,3.019 h 27.005 c 0.672,1.323 1.043,2.766 1.043,4.276 0,4.096 -2.727,7.704 -6.816,9.746 H -0.99 c -4.089,-2.042 -6.816,-5.65 -6.816,-9.746 0,-1.51 0.371,-2.953 1.043,-4.276 M 6.74,1.928 c 10.129,0 18.391,-5.447 18.391,-12.126 0,-6.678 -8.262,-12.125 -18.391,-12.125 -10.13,0 -18.392,5.447 -18.392,12.125 0,6.679 8.262,12.126 18.392,12.126"
       style="fill:#2f5394;fill-opacity:1;fill-rule:evenodd;stroke:none"
       transform="matrix(0.35277776,0,0,-0.35277776,173.21353,155.70506)"
       clip-path="url(#clipPath2966)" />
    <path
       id="path2967"
       d="m 0,0 c -0.002,0 -0.004,-0.002 -0.005,-0.004 -0.151,-0.048 -0.279,-0.085 -0.386,-0.11 -0.107,-0.024 -0.189,-0.045 -0.245,-0.064 -0.032,-0.005 -0.056,-0.009 -0.072,-0.01 -0.04,0 -0.061,-0.008 -0.062,-0.024 0,-0.04 0.014,-0.073 0.043,-0.1 0.01,-0.009 0.024,-0.014 0.04,-0.014 0.173,0.057 0.419,0.106 0.738,0.148 0.002,0.001 0.005,0.002 0.008,0.002 0.017,-0.01 0.025,-0.046 0.027,-0.107 0,-0.105 -0.009,-0.177 -0.027,-0.217 -0.007,-0.016 -0.031,-0.028 -0.072,-0.036 -0.011,0 -0.027,-0.002 -0.049,-0.007 -0.012,0.002 -0.039,0.003 -0.081,0.005 l -0.172,0.031 c -0.076,0.014 -0.134,0.021 -0.175,0.021 0,-0.011 0.014,-0.03 0.043,-0.057 0.037,-0.043 0.185,-0.103 0.442,-0.181 0.005,0 0.012,-0.001 0.021,-0.005 l 0.129,-0.014 c 0.006,-0.001 0.011,-0.003 0.016,-0.005 0.022,0 0.038,0.008 0.049,0.024 0,0.005 0.015,0.068 0.046,0.191 0,0.006 0.005,0.043 0.016,0.112 0,0.001 0.001,0.003 0.003,0.004 -0.005,0.155 -0.005,0.239 0.002,0.253 0.017,0.016 0.115,0.025 0.297,0.026 0.023,-0.001 0.093,-0.016 0.21,-0.043 0.075,-0.024 0.122,-0.032 0.14,-0.026 0.016,0.016 0.021,0.04 0.016,0.071 C 0.907,-0.102 0.871,-0.059 0.83,-0.004 0.819,0.002 0.81,0.007 0.803,0.012 0.528,0.022 0.36,0.022 0.299,0.014 0.294,0.014 0.28,0.013 0.258,0.012 0.257,0.017 0.254,0.02 0.251,0.022 c 0,0.009 -0.002,0.019 -0.006,0.03 0,0.016 0.009,0.028 0.027,0.036 l 0.194,0.095 c 0.021,0.015 0.032,0.029 0.032,0.043 0,0.015 -0.014,0.03 -0.043,0.045 C 0.434,0.281 0.418,0.289 0.407,0.295 0.356,0.324 0.269,0.337 0.143,0.336 0.132,0.336 0.068,0.319 -0.049,0.286 L -0.188,0.252 C -0.242,0.241 -0.296,0.228 -0.35,0.212 -0.352,0.212 -0.353,0.211 -0.353,0.21 -0.452,0.191 -0.517,0.18 -0.549,0.179 -0.562,0.179 -0.572,0.176 -0.579,0.172 -0.585,0.17 -0.588,0.164 -0.59,0.152 c 0,-0.004 0.037,-0.044 0.111,-0.119 0.01,-0.011 0.025,-0.017 0.043,-0.019 0.012,0 0.034,0.01 0.064,0.029 0.119,0.072 0.247,0.125 0.385,0.162 0.006,0 0.036,0.012 0.092,0.038 0.043,0.009 0.07,0.014 0.081,0.014 C 0.188,0.256 0.191,0.253 0.197,0.25 0.197,0.226 0.183,0.198 0.156,0.165 0.135,0.144 0.099,0.131 0.048,0.126 -0.027,0.125 -0.069,0.115 -0.078,0.095 c 0,-0.009 0.023,-0.036 0.07,-0.081 z m 0.003,0.769 c 0.034,0.019 0.1,0.029 0.199,0.029 0.032,0 0.059,-0.007 0.081,-0.022 0.018,-0.011 0.028,-0.041 0.03,-0.09 0,-0.1 -0.019,-0.166 -0.055,-0.198 H 0.242 C 0.224,0.507 0.207,0.522 0.191,0.534 -0.056,0.495 -0.19,0.476 -0.21,0.476 l -0.013,0.012 c 0,0.002 -0.002,0.006 -0.006,0.012 -0.013,0.105 -0.014,0.161 -0.005,0.169 0.002,0.005 0.017,0.012 0.046,0.022 0.005,0 0.039,0.014 0.102,0.043 z m -1.401,-1.245 c 0.002,0.029 0.076,0.105 0.224,0.231 0.007,0.011 0.016,0.02 0.027,0.026 0.002,0.001 0.003,0.005 0.003,0.01 0.051,0.047 0.127,0.143 0.226,0.288 0.023,0.051 0.056,0.112 0.099,0.183 0.005,0.009 0.009,0.017 0.011,0.022 0.016,0.033 0.029,0.064 0.04,0.092 0.004,0.004 0.007,0.005 0.009,0.005 l 0.086,0.207 c 0.001,0.018 0.009,0.038 0.021,0.062 l 0.016,0.072 c 0.01,0.027 0.015,0.047 0.016,0.061 0.004,0.02 0.007,0.036 0.009,0.05 0.002,0.102 0.016,0.191 0.043,0.267 0.005,0.013 0.021,0.019 0.048,0.019 0.013,-10e-4 0.026,-0.003 0.038,-0.005 0.025,-0.011 0.047,-0.018 0.065,-0.023 0.012,-0.002 0.102,0.009 0.269,0.033 0.095,0.027 0.194,0.048 0.296,0.062 C 0.236,1.21 0.288,1.222 0.304,1.222 0.32,1.222 0.337,1.215 0.353,1.2 0.369,1.187 0.381,1.173 0.388,1.157 0.393,1.146 0.399,1.137 0.404,1.131 0.433,1.093 0.447,1.067 0.447,1.053 0.446,1.035 0.438,1.026 0.426,1.026 0.298,1.026 0.156,1.002 0,0.953 -0.138,0.951 -0.226,0.941 -0.264,0.922 -0.334,0.901 -0.37,0.891 -0.372,0.891 -0.379,0.886 -0.385,0.881 -0.391,0.876 -0.399,0.842 -0.404,0.812 -0.404,0.788 c 0.006,0 0.011,0 0.019,-0.002 C -0.116,0.859 0.059,0.895 0.14,0.895 0.313,0.927 0.455,0.914 0.568,0.858 0.62,0.829 0.647,0.807 0.649,0.791 0.584,0.723 0.525,0.606 0.471,0.443 0.468,0.441 0.466,0.44 0.466,0.438 0.445,0.403 0.433,0.381 0.431,0.371 0.418,0.362 0.399,0.357 0.371,0.357 0.37,0.36 0.342,0.369 0.288,0.384 0.222,0.404 0.118,0.4 -0.024,0.371 -0.189,0.325 -0.278,0.302 -0.288,0.302 c -0.045,0.021 -0.11,0.108 -0.197,0.26 -0.004,0.002 -0.006,0.002 -0.008,0.002 -0.003,0 -0.005,0 -0.005,-0.002 C -0.514,0.541 -0.526,0.517 -0.533,0.488 -0.539,0.482 -0.544,0.474 -0.549,0.464 -0.557,0.456 -0.563,0.449 -0.568,0.443 -0.577,0.419 -0.601,0.369 -0.639,0.293 -0.655,0.269 -0.671,0.245 -0.687,0.219 -0.748,0.137 -0.779,0.093 -0.779,0.088 -0.855,-0.021 -0.894,-0.095 -0.894,-0.133 -0.896,-0.178 -0.903,-0.207 -0.916,-0.222 -0.941,-0.248 -0.965,-0.27 -0.989,-0.286 -1.001,-0.292 -1.008,-0.298 -1.01,-0.302 L -1.225,-0.44 c -0.058,-0.026 -0.092,-0.039 -0.103,-0.041 -0.03,-0.006 -0.054,-0.005 -0.07,0.005 m 1.32,1.019 c 0.091,0 0.166,0.02 0.223,0.06 0.013,0.014 0.02,0.035 0.022,0.064 0,0.038 -0.017,0.057 -0.051,0.057 C 0.078,0.724 0.005,0.705 -0.102,0.667 -0.129,0.662 -0.14,0.66 -0.135,0.66 -0.164,0.654 -0.18,0.649 -0.183,0.645 -0.19,0.64 -0.195,0.632 -0.197,0.619 -0.189,0.605 -0.18,0.588 -0.167,0.569 l 0.008,-0.014 c 0.007,-0.006 0.034,-0.01 0.081,-0.012 M -2.291,-0.05 c -0.035,0.002 -0.07,0.004 -0.108,0.007 -0.054,0 -0.08,-0.012 -0.078,-0.035 0,-0.015 0.076,-0.073 0.229,-0.174 0.021,-0.011 0.058,-0.033 0.111,-0.065 0.08,-0.028 0.124,-0.043 0.131,-0.045 0.017,0 0.029,0.015 0.038,0.045 0.011,0.059 0.002,0.124 -0.027,0.194 -0.005,0.014 -0.018,0.022 -0.038,0.025 -0.026,0.005 -0.055,0.011 -0.086,0.02 -0.082,0.019 -0.14,0.028 -0.172,0.028 m -0.461,0.469 c 0,0.005 10e-4,0.011 0.003,0.019 0.005,0.015 0.013,0.037 0.021,0.069 0.008,0.031 0.03,0.047 0.068,0.048 0.005,0 0.017,-0.001 0.035,-0.005 0.027,-0.009 0.04,-0.031 0.04,-0.066 C -2.595,0.384 -2.623,0.32 -2.668,0.293 -2.681,0.291 -2.692,0.289 -2.703,0.286 -2.71,0.285 -2.72,0.282 -2.733,0.279 c -0.027,0 -0.04,0.015 -0.04,0.045 0,0.01 0.006,0.028 0.019,0.055 0,0.014 10e-4,0.027 0.002,0.04 m -0.269,0.045 c 0.022,0.029 0.045,0.043 0.073,0.043 0.028,0 0.047,-0.003 0.056,-0.009 0,-0.077 -0.009,-0.127 -0.029,-0.15 C -2.943,0.324 -2.96,0.311 -2.973,0.31 c -0.032,0 -0.048,0.02 -0.048,0.061 z m -0.205,-0.04 c 0.027,0 0.048,-0.018 0.062,-0.053 0.011,-0.03 0.02,-0.055 0.027,-0.076 0,-0.006 -0.008,-0.013 -0.024,-0.021 -0.011,-0.002 -0.024,-0.003 -0.038,-0.005 -0.021,0 -0.04,0.011 -0.056,0.031 -0.017,0.024 -0.025,0.049 -0.025,0.074 0,0.014 0.004,0.025 0.011,0.033 0.016,0.01 0.03,0.015 0.043,0.017 m 0.779,0.355 c 0.016,0 0.027,0.004 0.035,0.012 l -0.003,0.093 c -0.007,0.019 -0.02,0.039 -0.038,0.061 -0.032,0.034 -0.055,0.051 -0.07,0.053 -0.011,0 -0.033,-0.007 -0.067,-0.021 -0.005,0 -0.01,-0.002 -0.014,-0.005 L -2.636,0.964 C -2.711,0.96 -2.768,0.953 -2.805,0.943 c -0.006,0 -0.018,-0.002 -0.036,-0.007 -0.016,0 -0.025,0.009 -0.027,0.028 l 0.033,0.184 c 0.005,0.025 0.012,0.052 0.021,0.081 0,0.004 -0.006,0.011 -0.018,0.019 -0.033,0.016 -0.063,0.024 -0.089,0.026 -0.013,0 -0.031,-0.007 -0.055,-0.021 C -2.981,1.248 -2.988,1.222 -2.997,1.174 -3.002,1.136 -3.008,1.107 -3.013,1.086 -3.015,1.053 -3.017,1.033 -3.021,1.026 L -3.051,0.914 C -3.072,0.895 -3.117,0.88 -3.186,0.869 -3.212,0.869 -3.282,0.846 -3.393,0.8 -3.398,0.8 -3.401,0.799 -3.401,0.798 l -0.035,0.038 c -0.027,-0.024 -0.04,-0.041 -0.04,-0.05 0,-0.007 0.002,-0.013 0.008,-0.022 0.011,-0.02 0.02,-0.039 0.03,-0.054 0.005,-0.016 0.009,-0.026 0.013,-0.031 0.01,-0.019 0.023,-0.029 0.038,-0.029 0.129,0.029 0.219,0.043 0.272,0.043 0.016,0 0.025,-0.007 0.026,-0.021 0,-0.019 -0.007,-0.037 -0.024,-0.053 C -3.169,0.59 -3.272,0.56 -3.422,0.526 -3.476,0.512 -3.504,0.495 -3.506,0.474 c 0,-0.049 0.048,-0.138 0.143,-0.267 0.016,-0.016 0.04,-0.037 0.07,-0.064 0.039,-0.03 0.066,-0.046 0.078,-0.048 0.04,0.01 0.085,0.025 0.137,0.046 0.191,0.073 0.314,0.074 0.369,0.005 0.054,-0.048 0.108,-0.053 0.162,-0.015 0.002,0.005 0.006,0.01 0.013,0.015 0.018,0.023 0.048,0.066 0.09,0.128 0.017,0.03 0.038,0.06 0.061,0.091 0.007,0.038 0.039,0.088 0.095,0.152 0.012,0.019 0.019,0.032 0.021,0.04 0,0.015 -0.02,0.033 -0.059,0.055 -0.118,0.057 -0.284,0.08 -0.496,0.069 -0.029,-0.005 -0.046,-0.008 -0.051,-0.009 -0.018,0 -0.028,0.01 -0.029,0.031 0,0.023 0.014,0.038 0.042,0.042 0.016,0.002 0.034,0.006 0.052,0.012 0.05,0.015 0.085,0.022 0.105,0.022 z m -0.529,-0.931 c 0.002,-0.004 0.006,-0.007 0.012,-0.012 0.019,-0.003 0.095,-0.003 0.226,0.002 0.003,0.003 0.005,0.007 0.005,0.012 -0.002,0.005 -0.006,0.012 -0.014,0.022 -0.028,0.028 -0.056,0.054 -0.083,0.078 l -0.175,-0.04 c -0.007,-0.002 -0.011,-0.005 -0.011,-0.01 0,-0.005 0.014,-0.022 0.04,-0.052 m 0.127,-0.193 C -2.881,-0.35 -2.903,-0.357 -2.916,-0.367 h -0.011 c -0.019,0.002 -0.041,0.022 -0.065,0.06 -0.037,0.048 -0.062,0.099 -0.072,0.152 -0.011,0.037 -0.027,0.055 -0.049,0.055 -0.018,0 -0.029,-0.005 -0.035,-0.014 -0.007,-0.009 -0.01,-0.027 -0.01,-0.053 0,-0.128 0.014,-0.211 0.043,-0.25 0.039,-0.059 0.161,-0.088 0.366,-0.088 0.072,0.002 0.118,0.012 0.14,0.031 0.016,0.022 0.024,0.039 0.024,0.05 0,0.046 -0.019,0.1 -0.056,0.162 -0.015,0.022 -0.026,0.034 -0.032,0.034 -0.011,-0.002 -0.036,-0.022 -0.074,-0.06 -0.046,-0.033 -0.08,-0.053 -0.102,-0.057 m 0.399,-0.348 c -0.052,0.005 -0.103,0.008 -0.151,0.008 0.016,0 0.032,-0.001 0.048,-0.003 -0.181,0.016 -0.286,0.024 -0.315,0.024 -0.066,0 -0.14,0.007 -0.221,0.021 -0.014,0.002 -0.026,0.005 -0.037,0.01 -0.052,0.038 -0.095,0.12 -0.129,0.245 -0.002,0.024 -0.006,0.056 -0.011,0.095 -0.011,0.056 -0.024,0.084 -0.04,0.084 -0.01,-0.002 -0.028,-0.029 -0.055,-0.082 0,-0.006 -0.002,-0.011 -0.008,-0.016 -0.023,-0.038 -0.04,-0.076 -0.051,-0.114 -0.014,-0.027 -0.021,-0.054 -0.021,-0.079 0,-0.021 -0.014,-0.031 -0.041,-0.031 -0.007,0 -0.051,0.014 -0.131,0.043 -0.049,0.021 -0.074,0.038 -0.074,0.052 0,0.009 0.003,0.015 0.009,0.019 10e-4,0.007 0.018,0.029 0.051,0.067 0.029,0.037 0.071,0.076 0.126,0.119 0.025,0.023 0.046,0.036 0.063,0.041 0.042,0.027 0.064,0.046 0.064,0.057 -0.006,0.014 -0.027,0.053 -0.064,0.116 0.003,0.015 0.018,0.022 0.045,0.022 0.042,0 0.078,0.005 0.11,0.014 0.067,0.022 0.13,0.036 0.189,0.041 0.016,0.001 0.023,0.002 0.022,0.002 0.096,0.029 0.193,0.043 0.29,0.043 0.081,-0.013 0.135,-0.053 0.162,-0.119 0,-0.014 -0.011,-0.024 -0.032,-0.029 -0.013,-0.005 -0.027,-0.007 -0.043,-0.007 -0.013,-0.002 -0.019,-0.007 -0.019,-0.017 0.002,-0.007 0.011,-0.016 0.027,-0.026 0.025,-0.019 0.048,-0.038 0.07,-0.057 0.09,-0.094 0.135,-0.148 0.135,-0.162 0.021,-0.011 0.048,-0.039 0.08,-0.083 0.006,-0.013 0.019,-0.031 0.041,-0.055 0.045,-0.054 0.073,-0.121 0.083,-0.202 0,-0.01 -0.005,-0.017 -0.016,-0.022 -0.011,-0.008 -0.04,-0.012 -0.089,-0.014 C -2.417,-0.69 -2.439,-0.691 -2.45,-0.693 M -3.565,0.998 C -3.528,0.964 -3.509,0.941 -3.509,0.927 -3.512,0.907 -3.558,0.858 -3.646,0.776 -3.639,0.784 -3.63,0.792 -3.619,0.798 -3.678,0.76 -3.728,0.722 -3.767,0.684 -3.857,0.607 -3.922,0.569 -3.961,0.569 c -0.016,0.002 -0.024,0.01 -0.024,0.026 10e-4,0.004 0.003,0.01 0.005,0.019 0.013,0.021 0.028,0.054 0.046,0.098 0.009,0.03 0.032,0.069 0.07,0.117 0.027,0.055 0.056,0.098 0.089,0.128 0.014,0.021 0.028,0.041 0.04,0.06 0.024,0.032 0.047,0.047 0.07,0.047 0.023,0 0.057,-0.022 0.1,-0.066 m -0.183,-1.279 c 0.005,0.111 0.02,0.182 0.045,0.212 0.027,0.086 0.041,0.137 0.041,0.155 -0.005,0.009 -0.025,0.021 -0.057,0.033 -0.086,0.024 -0.12,0.062 -0.102,0.115 0,0.004 0.001,0.007 0.002,0.009 0,0.005 0.04,0.046 0.119,0.124 0,-0.002 0.004,0.002 0.011,0.012 0.022,0.02 0.036,0.035 0.043,0.042 0.075,0.05 0.115,0.098 0.118,0.143 0,0.015 -0.023,0.042 -0.069,0.081 -0.028,0.019 -0.048,0.03 -0.063,0.031 -0.005,0 -0.05,-0.047 -0.134,-0.14 C -3.87,0.417 -3.91,0.354 -3.916,0.348 -3.932,0.334 -3.95,0.311 -3.969,0.279 -3.996,0.25 -4.022,0.221 -4.048,0.193 -4.053,0.187 -4.064,0.174 -4.082,0.155 c -0.173,-0.162 -0.26,-0.272 -0.262,-0.331 0,-0.014 0.016,-0.021 0.046,-0.021 0.007,0 0.018,0.002 0.033,0.007 0.134,0.049 0.226,0.092 0.274,0.128 0.022,0.016 0.034,0.025 0.035,0.026 0.005,0 0.013,0.002 0.022,0.005 0.011,0 0.019,-0.006 0.027,-0.019 0.016,-0.073 0.019,-0.115 0.01,-0.126 -0.016,-0.029 -0.024,-0.156 -0.024,-0.384 0,-0.028 0.004,-0.047 0.011,-0.057 0.016,-0.014 0.047,-0.022 0.091,-0.024 0.04,0 0.061,0.024 0.062,0.07 -0.006,0.144 -0.004,0.241 0.009,0.29 M -6.11,0.11 c 0,0 0.005,0.002 0.016,0.007 0.016,-0.015 0.024,-0.06 0.024,-0.136 0,-0.025 -0.009,-0.039 -0.029,-0.04 -0.049,0 -0.103,0.012 -0.162,0.038 0,0.001 -0.003,0.004 -0.008,0.009 0,0.002 0.009,0.01 0.027,0.024 0.043,0.038 0.084,0.068 0.121,0.088 0.006,0 0.009,0.003 0.009,0.01 z M -6.07,0.4 C -6.071,0.348 -6.102,0.308 -6.161,0.281 -6.168,0.28 -6.175,0.275 -6.183,0.267 L -6.264,0.215 C -6.29,0.205 -6.314,0.192 -6.333,0.176 -6.335,0.186 -6.336,0.194 -6.336,0.2 c 0,0.006 0.001,0.015 0.003,0.024 0.001,0.019 0.005,0.043 0.011,0.074 0.001,0.028 0.023,0.05 0.067,0.064 0.061,0.014 0.097,0.026 0.107,0.036 0.019,0.005 0.028,0.016 0.03,0.036 0,0.028 -0.006,0.059 -0.019,0.092 -0.032,0.043 -0.065,0.073 -0.1,0.088 -0.037,0.02 -0.049,0.059 -0.034,0.117 0.005,0.03 0.013,0.05 0.024,0.06 0.021,0.028 0.049,0.043 0.083,0.045 0.022,0 0.041,-0.009 0.057,-0.027 0.021,-0.018 0.032,-0.052 0.032,-0.101 0,-0.02 0.003,-0.035 0.008,-0.048 C -6.072,0.644 -6.073,0.557 -6.07,0.4 m 1.188,0.2 c 0,0.2 0.031,0.345 0.092,0.433 0,0.005 0.001,0.009 0.002,0.01 0,0.011 -0.005,0.021 -0.016,0.029 C -4.981,1.11 -5.092,1.125 -5.135,1.117 -5.196,1.112 -5.265,1.097 -5.342,1.072 -5.434,1.053 -5.511,1.042 -5.574,1.038 -5.59,1.038 -5.604,1.036 -5.614,1.031 -5.641,1.02 -5.655,1.004 -5.655,0.984 -5.638,0.831 -5.639,0.676 -5.657,0.519 -5.675,0.414 -5.685,0.332 -5.687,0.271 c 0,-0.015 -0.002,-0.033 -0.008,-0.052 0,-0.081 -0.03,-0.178 -0.089,-0.29 -0.021,-0.015 -0.04,-0.052 -0.057,-0.115 0,0 -10e-4,-0.001 -0.002,-0.004 h -0.014 v 0.007 l -0.003,0.005 c 0,0.001 -10e-4,0.004 -0.002,0.009 -0.027,0.14 -0.029,0.225 -0.005,0.257 0.006,0.086 0.011,0.183 0.013,0.291 0.005,0.2 0.011,0.309 0.016,0.326 0,0.038 0.015,0.082 0.043,0.131 0.038,0.067 0.052,0.105 0.043,0.114 C -5.786,0.984 -5.867,1 -5.994,1 -6.209,0.957 -6.363,0.92 -6.455,0.888 -6.527,0.868 -6.563,0.845 -6.565,0.819 c 0,-0.368 0.015,-0.62 0.046,-0.757 0,-0.019 -0.04,-0.059 -0.119,-0.119 -0.039,-0.024 -0.066,-0.039 -0.081,-0.045 -0.061,-0.021 -0.092,-0.039 -0.094,-0.055 0,-0.015 0.02,-0.036 0.059,-0.066 0.056,-0.045 0.096,-0.068 0.122,-0.07 l 0.137,0.126 c 0.005,0.002 0.035,0.027 0.089,0.074 0.048,0.03 0.077,0.046 0.086,0.048 0.011,-0.005 0.03,-0.024 0.056,-0.057 0.142,-0.1 0.243,-0.159 0.302,-0.176 0.029,-0.01 0.044,-0.02 0.046,-0.029 0,-0.014 -0.048,-0.064 -0.143,-0.15 -0.023,-0.016 -0.037,-0.029 -0.043,-0.038 -0.005,-0.007 -0.011,-0.013 -0.019,-0.019 -0.028,-0.031 -0.044,-0.048 -0.046,-0.052 0,-0.012 0.012,-0.018 0.036,-0.02 0.055,0 0.162,0.041 0.32,0.122 0.027,0.016 0.042,0.036 0.043,0.059 0,0.029 0.06,0.15 0.181,0.365 0.007,0.019 0.019,0.04 0.037,0.064 0,0.002 0.002,0.005 0.006,0.009 0.027,0.024 0.093,0.071 0.199,0.141 0.002,0 0.005,0.002 0.011,0.005 0,0 0.006,0.004 0.019,0.012 0.059,0.014 0.092,0.025 0.099,0.033 0.013,0.014 0.017,0.05 0.014,0.107 -0.006,0.034 -0.011,0.053 -0.016,0.057 -0.006,0.01 -0.015,0.015 -0.03,0.015 -0.108,-0.01 -0.17,-0.017 -0.186,-0.022 -0.016,0 -0.025,0.008 -0.027,0.024 0,0.057 0.024,0.1 0.073,0.129 0.097,0.052 0.15,0.096 0.159,0.133 0,0.009 0.001,0.018 0.002,0.026 0,0.045 -0.023,0.067 -0.072,0.069 -0.038,-0.005 -0.076,-0.011 -0.116,-0.019 -0.011,0 -0.017,0.01 -0.019,0.029 l 0.003,0.069 c 0,0.047 0.025,0.082 0.075,0.104 0.038,0.015 0.077,0.023 0.116,0.024 0.022,0 0.041,-0.006 0.057,-0.019 0.021,-0.014 0.037,-0.081 0.048,-0.2 V 0.741 c 0.002,-0.429 0.008,-0.691 0.019,-0.786 0.005,-0.114 0.008,-0.212 0.008,-0.293 0,-0.03 -0.005,-0.053 -0.016,-0.067 -0.022,-0.016 -0.107,-0.017 -0.256,-0.005 -0.097,0.012 -0.145,0.01 -0.145,-0.004 0,-0.005 0.006,-0.018 0.018,-0.041 0.029,-0.033 0.135,-0.086 0.318,-0.157 0.054,-0.009 0.137,-0.035 0.248,-0.078 0.038,-0.015 0.069,-0.023 0.095,-0.024 0.026,0 0.04,0.012 0.04,0.035 0,0.007 -0.004,0.014 -0.011,0.022 -0.007,0.024 -0.012,0.055 -0.013,0.095 -0.027,0.186 -0.041,0.452 -0.041,0.798 0,0.044 -0.004,0.101 -0.014,0.169 0,0.066 10e-4,0.132 0.003,0.195"
       style="fill:#ffffff;fill-opacity:1;fill-rule:evenodd;stroke:none"
       transform="matrix(0.35277776,0,0,-0.35277776,174.186,161.44567)"
       clip-path="url(#clipPath2968)" />
    <path
       id="path2969"
       d="m 0,0 -0.014,0.243 c -0.005,0.009 -0.008,0.019 -0.008,0.028 0.002,0.034 0.02,0.05 0.054,0.05 0,0 0.003,0 0.008,-0.002 C 0.157,0.301 0.226,0.283 0.248,0.264 0.255,0.26 0.258,0.254 0.258,0.248 0.224,0.127 0.207,0.045 0.207,0 0.205,-0.083 0.188,-0.136 0.156,-0.159 0.135,-0.174 0.113,-0.181 0.091,-0.181 0.072,-0.179 0.056,-0.168 0.043,-0.148 0.02,-0.116 0.005,-0.067 0,0 m -0.062,-0.638 c 0,-0.045 0.072,-0.108 0.218,-0.191 0.039,-0.024 0.091,-0.045 0.154,-0.064 0.012,-0.005 0.025,-0.01 0.04,-0.017 0.167,-0.066 0.28,-0.1 0.339,-0.102 0.043,0 0.066,0.022 0.068,0.067 -0.065,0.495 -0.085,0.808 -0.06,0.94 C 0.669,0.5 0.68,0.782 0.732,0.84 c 0,0.002 0.002,0.004 0.006,0.005 0,0.005 0.001,0.01 0.003,0.014 0,0.024 -0.032,0.048 -0.095,0.072 C 0.558,0.961 0.511,0.977 0.503,0.978 0.493,0.978 0.48,0.974 0.466,0.964 0.449,0.955 0.442,0.935 0.442,0.905 L 0.444,0.179 c 0,-0.016 0.002,-0.033 0.005,-0.05 0.002,-0.05 0.004,-0.143 0.006,-0.281 0.016,-0.378 0.023,-0.57 0.019,-0.577 -0.013,-0.014 -0.057,-0.022 -0.132,-0.023 -0.178,0.02 -0.284,0.046 -0.318,0.078 -0.038,0.024 -0.066,0.036 -0.086,0.036 m -0.407,0.621 c -0.002,-0.02 -0.003,-0.043 -0.003,-0.069 -0.002,-0.052 -0.016,-0.095 -0.042,-0.128 -0.013,-0.014 -0.036,-0.022 -0.068,-0.022 -0.032,0 -0.049,0.009 -0.051,0.027 -0.002,0.025 -0.005,0.041 -0.008,0.047 -0.022,0.024 -0.058,0.035 -0.108,0.034 -0.005,0 -0.014,-0.001 -0.027,-0.003 -0.005,0 -0.01,0.003 -0.013,0.009 0,0.012 0.068,0.055 0.204,0.132 0.04,0.016 0.075,0.018 0.105,0.007 0.005,-0.005 0.009,-0.016 0.011,-0.034 m -0.38,0.336 c -0.158,-0.195 -0.325,-0.371 -0.504,-0.528 -0.001,-0.005 -0.006,-0.009 -0.013,-0.013 -0.021,-0.023 -0.034,-0.04 -0.038,-0.05 -0.01,-0.019 -0.027,-0.038 -0.048,-0.056 -0.005,-0.005 -0.009,-0.012 -0.011,-0.02 0,-0.009 0.006,-0.015 0.016,-0.016 0.008,0 0.016,0.002 0.027,0.007 0.002,0.001 0.005,0.002 0.008,0.002 0.006,0.002 0.012,0.003 0.019,0.005 0.033,0.009 0.074,0.02 0.124,0.031 0.011,0.002 0.057,0.021 0.138,0.057 0.01,0.006 0.023,0.012 0.037,0.017 0.013,0.004 0.028,0.015 0.046,0.031 0.016,0.019 0.049,0.042 0.097,0.071 l 0.049,0.036 c 0.001,0 0.004,0 0.007,0.002 l 0.076,-0.017 c 0.007,-0.001 0.012,-0.015 0.014,-0.04 -0.035,-0.31 -0.052,-0.47 -0.052,-0.481 0.011,-0.087 0.063,-0.156 0.156,-0.205 0.034,-0.03 0.162,-0.024 0.383,0.017 0.005,0 0.012,0.001 0.019,0.002 0.032,0.005 0.057,0.014 0.075,0.027 0.011,0.009 0.017,0.028 0.019,0.057 -0.007,0.061 -0.019,0.115 -0.035,0.159 l -0.057,0.15 c -0.005,0.006 -0.012,0.01 -0.021,0.012 -0.032,0 -0.051,-0.028 -0.057,-0.086 -0.002,-0.039 -0.011,-0.078 -0.029,-0.116 -0.013,-0.029 -0.033,-0.047 -0.062,-0.055 -0.056,-0.014 -0.099,-0.021 -0.129,-0.021 -0.029,0 -0.056,0.009 -0.081,0.028 -0.032,0.029 -0.038,0.084 -0.016,0.167 0.012,0.071 0.028,0.114 0.048,0.128 0.007,0.01 0.066,0.009 0.175,-0.002 0.054,0 0.104,0.04 0.151,0.119 0.002,0.01 0.005,0.016 0.011,0.019 l 0.043,0.091 c 0.005,0.01 0.015,0.04 0.03,0.088 0.005,0.024 0.008,0.04 0.01,0.05 0,0.011 0.002,0.022 0.006,0.033 0.021,0.019 0.032,0.046 0.032,0.081 0,0.01 -0.014,0.022 -0.04,0.038 -0.097,0.053 -0.215,0.053 -0.353,0 C -0.651,0.113 -0.69,0.097 -0.695,0.091 -0.765,0.056 -0.806,0.037 -0.819,0.033 c -0.013,0 -0.02,0.008 -0.021,0.024 0,0.024 0.038,0.087 0.115,0.188 0.022,0.035 0.048,0.065 0.078,0.088 0.022,0.024 0.048,0.05 0.078,0.077 0.027,0.019 0.05,0.028 0.068,0.028 0.037,0 0.081,-0.02 0.129,-0.059 0.045,-0.04 0.087,-0.057 0.127,-0.05 0.043,0.009 0.072,0.019 0.089,0.028 0.059,0.033 0.089,0.062 0.091,0.086 0,0.038 -0.046,0.064 -0.137,0.078 -0.076,0.007 -0.116,0.013 -0.121,0.019 -0.035,0.007 -0.053,0.021 -0.054,0.044 0.075,0.087 0.114,0.135 0.115,0.145 -0.005,0.014 -0.017,0.033 -0.035,0.057 -0.005,0.004 -0.011,0.012 -0.018,0.021 -0.024,0.033 -0.044,0.05 -0.06,0.05 C -0.398,0.857 -0.459,0.8 -0.558,0.686 -0.563,0.676 -0.571,0.667 -0.579,0.657 Z M -3.242,0.36 h -0.016 c -0.022,0.001 -0.033,0.008 -0.035,0.021 0,0.02 0.016,0.039 0.048,0.055 0.099,0.044 0.155,0.073 0.17,0.085 0.016,0.029 0.019,0.073 0.011,0.132 C -3.07,0.662 -3.08,0.667 -3.097,0.667 -3.098,0.667 -3.106,0.666 -3.118,0.664 -3.14,0.66 -3.177,0.652 -3.231,0.64 -3.237,0.647 -3.24,0.654 -3.242,0.662 c -0.002,0.009 0.012,0.03 0.043,0.062 0.039,0.038 0.085,0.058 0.137,0.059 0.027,0 0.052,-0.014 0.076,-0.043 0.012,-0.018 0.02,-0.168 0.021,-0.447 0,-0.024 -0.01,-0.037 -0.029,-0.038 -0.007,0 -0.016,0.003 -0.027,0.009 -0.011,0.005 -0.022,0.036 -0.033,0.093 -0.005,0.019 -0.068,0.02 -0.188,0.003 m 0.054,-0.739 c 0,-0.014 -0.006,-0.022 -0.017,-0.023 -0.032,0 -0.077,0.025 -0.134,0.076 -0.016,0.014 -0.025,0.039 -0.027,0.074 0,0.038 0.013,0.068 0.038,0.09 0.01,0.019 0.031,0.029 0.061,0.029 0.044,0 0.067,-0.033 0.071,-0.098 z m -0.687,-0.245 -0.226,-0.093 c -0.065,-0.023 -0.097,-0.045 -0.097,-0.064 0,-0.024 0.036,-0.036 0.11,-0.036 0.11,0 0.217,0.023 0.323,0.069 0.013,0.007 0.026,0.012 0.041,0.017 0.032,0.014 0.054,0.036 0.064,0.064 0,0.045 0.022,0.087 0.065,0.126 0.023,0.031 0.152,0.013 0.385,-0.052 0.097,-0.052 0.19,-0.086 0.278,-0.1 0.102,-0.016 0.178,-0.051 0.226,-0.105 0.002,-0.001 0.003,-0.004 0.005,-0.009 0,-0.005 0.002,-0.012 0.006,-0.019 0.007,-0.005 0.016,-0.011 0.026,-0.019 0.011,-0.039 0.024,-0.077 0.038,-0.117 0.006,-0.019 0.037,-0.031 0.094,-0.036 0.094,0 0.151,-0.004 0.173,-0.012 0.032,0 0.106,-0.004 0.221,-0.014 0.135,0.01 0.207,0.012 0.218,0.007 0.05,0.016 0.102,0.032 0.156,0.048 0.022,0.006 0.033,0.017 0.033,0.033 0,0.015 -0.022,0.03 -0.065,0.046 -0.129,0.042 -0.385,0.106 -0.768,0.192 -0.012,0.005 -0.138,0.056 -0.377,0.153 -0.023,0.009 -0.036,0.027 -0.037,0.052 0,0.005 10e-4,0.015 0.005,0.031 0.016,0.048 0.035,0.077 0.059,0.088 0.07,0.04 0.159,0.061 0.266,0.062 0.012,0.005 0.018,0.016 0.019,0.034 0,0.004 -0.004,0.019 -0.013,0.045 0,-0.005 -0.001,0.001 -0.003,0.016 0,0.016 -0.003,0.03 -0.008,0.041 -0.005,0.009 -0.071,0.014 -0.196,0.014 -0.002,0 -0.021,-0.001 -0.057,-0.005 -0.021,-0.001 -0.032,0.009 -0.032,0.031 0,0.007 0.002,0.016 0.008,0.029 0.007,0.019 0.024,0.03 0.051,0.033 0.005,0 0.016,0.002 0.032,0.005 0.259,0.019 0.422,0.02 0.488,0.002 0.027,0 0.041,0.012 0.043,0.036 0,0.007 -10e-4,0.013 -0.003,0.019 0,0.038 -0.016,0.086 -0.048,0.143 -0.022,0.03 -0.047,0.045 -0.075,0.045 L -2.669,0.143 c -0.023,0 -0.035,0.016 -0.037,0.048 0,0.038 0.019,0.219 0.059,0.542 0.011,0.043 0.025,0.087 0.043,0.131 C -2.62,0.894 -2.68,0.913 -2.784,0.919 -2.935,0.924 -3.154,0.893 -3.441,0.826 -3.46,0.824 -3.479,0.821 -3.498,0.814 -3.521,0.813 -3.537,0.798 -3.547,0.772 c -0.021,-0.067 0,-0.243 0.062,-0.527 0.006,-0.038 0.009,-0.06 0.011,-0.066 0.011,-0.043 0.038,-0.065 0.081,-0.065 0.169,0.072 0.259,0.105 0.269,0.1 0.033,-0.009 0.065,-0.024 0.097,-0.045 0.04,-0.028 0.061,-0.044 0.062,-0.048 -0.005,-0.004 -0.061,-0.018 -0.167,-0.04 -0.242,-0.03 -0.579,-0.109 -1.01,-0.238 -0.021,0 -0.02,-0.031 0.006,-0.093 -0.002,0.002 0.002,-0.003 0.01,-0.014 0.029,-0.03 0.053,-0.047 0.073,-0.048 0.065,0.048 0.214,0.088 0.447,0.121 0.002,0.002 0.007,0.003 0.016,0.003 0.022,0.001 0.033,-0.011 0.033,-0.038 0,-0.043 -0.037,-0.112 -0.108,-0.207 -0.022,-0.019 -0.07,-0.069 -0.145,-0.15 -0.022,-0.012 -0.044,-0.025 -0.065,-0.041 m -1.082,1.219 c 0.043,-0.005 0.083,-0.005 0.121,0 0.002,0.005 0.006,0.008 0.013,0.01 0,0.048 -0.012,0.082 -0.037,0.105 -0.018,0.028 -0.084,0.069 -0.197,0.121 -0.022,0.019 -0.046,0.036 -0.076,0.05 -0.001,0 -0.005,0.002 -0.01,0.007 C -5.167,0.879 -5.18,0.868 -5.183,0.857 -5.185,0.848 -5.187,0.78 -5.189,0.655 -5.178,0.626 -5.15,0.612 -5.102,0.612 c 0.006,0 0.014,0.002 0.021,0.005 0.002,0 0.005,-0.002 0.011,-0.005 0.005,-0.005 0.011,-0.007 0.018,-0.007 0.029,-0.002 0.061,-0.005 0.095,-0.01 m -1.032,-0.714 0.006,-0.005 c -0.002,-0.022 -0.007,-0.036 -0.014,-0.043 -0.009,-0.006 -0.021,-0.01 -0.038,-0.011 -0.149,-0.024 -0.248,-0.022 -0.296,0.006 -0.027,0.024 -0.04,0.056 -0.04,0.096 0.001,0.065 0.011,0.112 0.029,0.14 0.009,0.014 0.019,0.022 0.03,0.022 0.01,-0.003 0.019,-0.006 0.024,-0.008 0.005,-0.004 0.008,-0.007 0.008,-0.009 0.009,-0.013 0.019,-0.024 0.03,-0.033 0.124,-0.056 0.194,-0.091 0.21,-0.105 0.007,-0.008 0.024,-0.024 0.051,-0.048 z m -0.458,0.44 v 0.012 c 0.006,0.008 0.011,0.015 0.016,0.019 l 0.173,0.024 c 0.135,0.019 0.207,0.029 0.218,0.029 0.027,0.012 0.068,0.024 0.124,0.033 0.054,0.014 0.09,0.029 0.108,0.043 0.025,0.198 0.038,0.302 0.04,0.312 0.003,0.047 0.006,0.095 0.008,0.143 0.007,0.112 0.019,0.174 0.035,0.183 0.02,-10e-4 0.04,-0.005 0.062,-0.009 0.002,0.003 0.004,0.005 0.006,0.007 h 0.01 L -5.631,1.102 C -5.564,1.085 -5.52,1.067 -5.499,1.048 V 1.033 C -5.515,1.018 -5.528,1.005 -5.539,0.995 -5.543,0.987 -5.544,0.983 -5.544,0.983 -5.566,0.964 -5.577,0.826 -5.577,0.569 c 0.002,-0.02 0.012,-0.031 0.03,-0.031 l 0.226,0.05 C -5.31,0.586 -5.301,0.581 -5.294,0.571 -5.22,0.473 -5.183,0.416 -5.183,0.4 -5.183,0.384 -5.192,0.374 -5.208,0.369 -5.226,0.364 -5.251,0.362 -5.283,0.362 -5.29,0.362 -5.295,0.361 -5.297,0.36 -5.428,0.318 -5.504,0.295 -5.526,0.29 -5.54,0.286 -5.548,0.283 -5.55,0.283 -5.571,0.274 -5.582,0.25 -5.582,0.212 c 0,-0.091 0.005,-0.143 0.016,-0.157 0.011,-0.027 0.029,-0.041 0.056,-0.041 0.01,0.002 0.039,0.017 0.089,0.046 0.011,0.006 0.023,0.014 0.036,0.023 0.152,0.116 0.236,0.178 0.252,0.183 0.002,0.005 0.006,0.009 0.011,0.01 0.027,0.023 0.046,0.034 0.057,0.034 0.027,-0.002 0.055,-0.02 0.083,-0.055 0.02,-0.025 0.03,-0.053 0.03,-0.081 C -5.011,0.153 -5.049,0.138 -5.065,0.129 -5.079,0.127 -5.105,0.112 -5.143,0.083 c -0.169,-0.098 -0.253,-0.155 -0.253,-0.169 0.154,-0.147 0.315,-0.264 0.482,-0.35 0.007,0.002 0.016,0.003 0.026,0.003 l 0.289,-0.072 c 0.003,-0.001 0.008,-0.003 0.013,-0.005 h 0.006 c 0.14,-0.031 0.223,-0.067 0.25,-0.106 -0.003,-0.009 -0.005,-0.017 -0.005,-0.027 -0.041,-0.025 -0.1,-0.041 -0.175,-0.045 -0.216,-0.007 -0.35,-0.007 -0.404,0 -0.101,0.002 -0.151,0.023 -0.151,0.067 -0.032,0.079 -0.063,0.126 -0.091,0.142 l -0.095,0.074 c -0.013,0.007 -0.021,0.012 -0.027,0.017 -0.138,0.084 -0.221,0.126 -0.248,0.126 -0.012,0 -0.021,-0.005 -0.027,-0.014 l 0.003,-0.339 c 0.002,-0.082 0.009,-0.161 0.022,-0.238 0.007,-0.039 0.014,-0.079 0.021,-0.118 -0.002,-0.032 -0.005,-0.051 -0.011,-0.055 -0.01,-0.005 -0.019,-0.008 -0.024,-0.008 -0.025,0 -0.071,0.015 -0.137,0.044 -0.025,0.012 -0.05,0.023 -0.073,0.033 -0.196,0.07 -0.312,0.121 -0.35,0.155 -0.02,0.017 -0.03,0.026 -0.032,0.026 -0.026,0.012 -0.054,0.036 -0.087,0.069 v 0.016 c 0.024,-0.001 0.042,-0.003 0.054,-0.004 0.089,-0.027 0.155,-0.041 0.2,-0.043 h 0.005 c 0.07,-0.01 0.121,-0.004 0.154,0.017 0.005,0.006 0.01,0.011 0.016,0.016 0.012,0.022 0.013,0.172 0.003,0.448 -0.013,0.095 -0.019,0.162 -0.019,0.2 -0.011,0.022 -0.017,0.11 -0.017,0.264 L -5.838,0.219 C -5.863,0.222 -5.9,0.221 -5.948,0.217 -6.124,0.196 -6.227,0.176 -6.255,0.155 -6.297,0.136 -6.323,0.126 -6.334,0.126 c -0.005,0 -0.013,0.005 -0.024,0.015 -0.005,0.004 -0.008,0.007 -0.008,0.009 -0.054,0.057 -0.081,0.114 -0.081,0.171 m 0.377,-0.599 c -0.016,-0.005 -0.09,-0.048 -0.22,-0.127 -0.006,0 -0.009,-0.002 -0.009,-0.007 -0.102,-0.049 -0.187,-0.093 -0.255,-0.131 -0.083,-0.035 -0.124,-0.063 -0.124,-0.083 0,-0.011 0.039,-0.057 0.118,-0.136 0.018,-0.019 0.039,-0.032 0.062,-0.038 0.016,0.001 0.046,0.029 0.089,0.083 l 0.216,0.179 c 0.19,0.181 0.29,0.279 0.301,0.295 0.022,0.016 0.033,0.031 0.035,0.045 0,0.015 -0.007,0.022 -0.021,0.022 -0.033,0 -0.097,-0.034 -0.192,-0.102 M -9.091,0.931 C -9.136,0.917 -9.182,0.901 -9.228,0.883 -9.25,0.877 -9.261,0.867 -9.261,0.852 c 0,-0.042 0.031,-0.083 0.092,-0.121 0.048,-0.038 0.094,-0.057 0.137,-0.057 0.013,0 0.025,0.006 0.038,0.019 0.016,0.052 0.054,0.122 0.113,0.21 0.005,0.02 0.012,0.041 0.019,0.064 0,0.009 -0.006,0.015 -0.019,0.016 -0.016,0 -0.082,-0.015 -0.197,-0.047 -0.005,0 -0.01,-0.002 -0.013,-0.005 M -9.398,0.733 c -0.061,0.05 -0.1,0.074 -0.116,0.074 -0.032,0 -0.06,-0.009 -0.083,-0.028 -0.033,-0.034 -0.036,-0.106 -0.011,-0.217 0,-0.024 0.036,-0.039 0.108,-0.045 0.077,0 0.127,-0.003 0.15,-0.01 0.07,0 0.105,0.021 0.105,0.062 0,0.029 -0.051,0.084 -0.153,0.164 m -0.008,-1.035 c 0.145,0.049 0.269,0.08 0.371,0.095 0.031,0.009 0.046,0.021 0.046,0.035 l -0.054,0.11 c 0.002,0.016 0.015,0.029 0.038,0.038 0.059,0 0.11,0.019 0.154,0.057 0.039,0.045 0.059,0.074 0.059,0.088 0,0.024 -0.011,0.036 -0.032,0.036 -0.049,-0.001 -0.09,-0.024 -0.124,-0.066 -0.031,-0.031 -0.054,-0.05 -0.07,-0.06 -0.106,-0.029 -0.17,-0.048 -0.191,-0.057 -0.081,-0.057 -0.13,-0.086 -0.146,-0.086 -0.016,0.002 -0.032,0.007 -0.049,0.017 -0.062,0.046 -0.094,0.093 -0.094,0.142 0,0.016 0.008,0.027 0.024,0.031 0.006,0.004 0.012,0.005 0.019,0.005 0.365,0.121 0.582,0.181 0.652,0.181 0.027,0.003 0.133,-0.028 0.318,-0.095 0.014,0.002 0.051,0.02 0.11,0.055 0.04,0.035 0.06,0.072 0.06,0.112 0,0.03 -0.019,0.054 -0.057,0.074 -0.055,0.024 -0.092,0.034 -0.11,0.033 -0.006,0 -0.009,-0.001 -0.011,-0.003 C -8.719,0.406 -8.873,0.371 -8.954,0.338 -9.042,0.322 -9.175,0.288 -9.352,0.236 -9.433,0.236 -9.523,0.217 -9.622,0.179 -9.634,0.18 -9.647,0.186 -9.66,0.197 -9.674,0.214 -9.681,0.231 -9.681,0.25 v 0.01 c 0.002,0.022 0.033,0.035 0.091,0.04 0.178,0.075 0.311,0.127 0.399,0.157 0.124,0.043 0.206,0.077 0.245,0.103 0.06,0.052 0.159,0.184 0.299,0.395 0.042,0.055 0.073,0.083 0.094,0.083 H -8.55 C -8.487,1.03 -8.418,0.978 -8.343,0.883 -8.343,0.874 -8.375,0.852 -8.439,0.817 -8.454,0.809 -8.489,0.776 -8.544,0.719 -8.636,0.627 -8.682,0.58 -8.682,0.579 c 0.002,-0.01 0.009,-0.015 0.019,-0.017 0.169,-0.021 0.265,-0.034 0.288,-0.041 0.002,0 0.006,-0.002 0.011,-0.007 0.282,-0.155 0.423,-0.269 0.423,-0.34 C -7.943,0.152 -7.954,0.14 -7.976,0.138 L -8.03,0.131 C -8.17,0.112 -8.313,0.102 -8.461,0.102 -8.506,0.077 -8.548,0.05 -8.587,0.021 -8.618,0.002 -8.647,-0.01 -8.673,-0.014 c -0.038,-0.011 -0.071,-0.023 -0.098,-0.034 0,-0.02 0.001,-0.041 0.003,-0.061 0.007,-0.024 0.02,-0.036 0.038,-0.036 0.251,0.033 0.432,0.04 0.541,0.021 0.035,-0.014 0.055,-0.043 0.062,-0.085 0.004,-0.023 0.008,-0.044 0.013,-0.065 0.011,-0.035 0.017,-0.057 0.017,-0.067 -0.002,-0.035 -0.018,-0.052 -0.046,-0.052 -0.006,0 -0.059,0.014 -0.162,0.043 -0.154,0.018 -0.237,0.022 -0.248,0.012 C -8.648,-0.34 -8.701,-0.345 -8.711,-0.355 -8.726,-0.36 -8.741,-0.46 -8.757,-0.657 -8.782,-0.854 -8.816,-0.981 -8.86,-1.038 -8.872,-1.053 -8.886,-1.06 -8.902,-1.06 h -0.003 c -0.144,0.026 -0.297,0.077 -0.458,0.153 -0.083,0.038 -0.124,0.074 -0.124,0.109 0.002,0.008 0.005,0.014 0.011,0.019 0.066,-0.019 0.145,-0.036 0.237,-0.05 0.005,0 0.011,-0.001 0.016,-0.002 0.05,0.008 0.102,0.014 0.156,0.019 0.014,0.013 0.03,0.024 0.046,0.033 0.012,0.043 0.027,0.086 0.043,0.129 v 0.214 c 0,0.026 -0.008,0.039 -0.024,0.039 h -0.006 c -0.38,-0.058 -0.622,-0.11 -0.724,-0.158 -0.052,0.073 -0.073,0.119 -0.062,0.138 0.005,0.008 0.134,0.046 0.388,0.115 m -0.66,0.285 c 0,-0.028 0.05,-0.055 0.15,-0.081 0.057,-0.014 0.094,-0.021 0.114,-0.021 0.045,0 0.068,0.016 0.07,0.047 0,0.002 -0.001,0.005 -0.003,0.01 -0.021,0.067 -0.022,0.149 -0.003,0.245 0.002,0.014 -0.011,0.023 -0.04,0.024 -0.05,0 -0.114,-0.027 -0.191,-0.083 -0.054,-0.048 -0.086,-0.093 -0.097,-0.136 z"
       style="fill:#ffffff;fill-opacity:1;fill-rule:evenodd;stroke:none"
       transform="matrix(0.35277776,0,0,-0.35277776,178.1835,161.34312)"
       clip-path="url(#clipPath2970)" />
    <path
       id="path2971"
       d="M 0,0 V 0.017 C 0.013,0.04 0.049,0.088 0.108,0.159 L 0.191,0.29 C 0.195,0.302 0.2,0.312 0.205,0.322 0.212,0.336 0.234,0.4 0.272,0.514 L 0.297,0.633 C 0.302,0.679 0.308,0.724 0.315,0.766 0.317,0.987 0.321,1.1 0.326,1.105 0.335,1.12 0.402,1.14 0.528,1.164 0.53,1.166 0.532,1.167 0.533,1.167 0.735,1.238 0.865,1.274 0.924,1.274 0.953,1.274 0.976,1.264 0.994,1.245 1.017,1.217 1.029,1.19 1.029,1.167 1.027,1.149 1.026,1.135 1.024,1.124 1.015,1.108 0.967,1.086 0.881,1.057 0.825,1.03 0.791,1.017 0.779,1.017 0.648,1.006 0.569,0.978 0.542,0.933 0.482,0.866 0.461,0.812 0.477,0.769 H 0.504 C 0.818,0.855 1.009,0.901 1.075,0.907 1.122,0.912 1.157,0.914 1.18,0.914 1.196,0.913 1.218,0.898 1.244,0.869 1.257,0.858 1.28,0.821 1.315,0.76 1.334,0.723 1.344,0.697 1.344,0.683 1.342,0.655 1.324,0.641 1.29,0.641 1.269,0.645 1.25,0.647 1.234,0.647 1.23,0.649 1.227,0.649 1.226,0.647 1.062,0.659 0.975,0.657 0.965,0.643 0.945,0.63 0.932,0.61 0.927,0.581 0.903,0.479 0.895,0.412 0.9,0.378 0.891,0.334 0.89,0.207 0.897,-0.002 c 0,-0.18 0.003,-0.317 0.008,-0.412 -0.002,-0.04 -0.038,-0.06 -0.11,-0.06 -0.024,0.001 -0.042,0.005 -0.054,0.01 C 0.71,-0.444 0.695,-0.34 0.695,-0.152 0.693,-0.022 0.691,0.053 0.689,0.074 0.672,0.41 0.654,0.586 0.636,0.6 0.63,0.606 0.622,0.61 0.611,0.61 0.585,0.608 0.559,0.601 0.536,0.59 0.419,0.54 0.361,0.455 0.361,0.336 0.377,0.287 0.358,0.219 0.302,0.133 0.225,0.044 0.124,0 0,0 M -0.081,1.733 C -0.108,1.733 -0.134,1.721 -0.159,1.698 -0.213,1.65 -0.24,1.584 -0.24,1.5 c 0,-0.021 0.014,-0.045 0.041,-0.074 0.048,-0.047 0.105,-0.071 0.17,-0.071 0.016,0 0.043,0.007 0.081,0.021 C 0.075,1.467 0.044,1.569 -0.04,1.683 L -0.073,1.726 Z M -0.484,0.098 c 0.001,0.033 0.005,0.065 0.013,0.097 0.002,0.011 0.004,0.021 0.005,0.029 0,0.052 0.005,0.083 0.014,0.093 0.005,0.009 0.02,0.015 0.046,0.019 0.026,0.001 0.044,0.004 0.053,0.007 0.016,0.005 0.04,0.008 0.07,0.009 0.022,-0.033 0.029,-0.116 0.022,-0.25 0,-0.019 -0.007,-0.033 -0.019,-0.04 C -0.292,0.048 -0.319,0.04 -0.361,0.04 c -0.037,0 -0.067,0.006 -0.088,0.017 -0.013,0.005 -0.025,0.015 -0.035,0.031 z m 0.08,0.407 C -0.465,0.484 -0.526,0.461 -0.587,0.436 -0.603,0.436 -0.7,0.41 -0.878,0.359 -0.912,0.353 -0.932,0.344 -0.937,0.333 -0.944,0.314 -0.941,0.294 -0.926,0.274 c 0.01,-0.021 0.033,-0.04 0.067,-0.057 l 0.024,0.007 c 0.024,0.015 0.106,0.04 0.248,0.074 L -0.579,0.29 C -0.581,0.29 -0.581,0.289 -0.581,0.286 -0.583,0.284 -0.585,0.28 -0.587,0.274 -0.599,0.264 -0.611,0.253 -0.622,0.24 -0.622,0.242 -0.628,0.236 -0.638,0.221 -0.649,0.207 -0.66,0.194 -0.671,0.183 -0.773,0.069 -0.824,0.001 -0.824,-0.021 c 0,-0.015 0.013,-0.031 0.038,-0.048 0.07,-0.03 0.113,-0.046 0.129,-0.048 0.027,0 0.047,0.011 0.062,0.031 0.029,0.081 0.083,0.087 0.164,0.017 l 0.014,-0.012 c 0.001,0 0.007,-0.003 0.016,-0.01 0.12,-0.052 0.195,-0.079 0.226,-0.08 0.029,0 0.05,0.01 0.062,0.03 0.018,0.048 0.018,0.134 0,0.258 0,-0.005 0.001,-0.01 0.003,-0.015 -0.006,0.048 -0.007,0.074 -0.003,0.079 0.103,0 0.162,0.003 0.178,0.009 0,0.002 0.001,0.003 0.003,0.003 C 0.089,0.212 0.1,0.229 0.1,0.245 0.1,0.278 0.066,0.309 -0.003,0.338 -0.051,0.357 -0.08,0.371 -0.089,0.378 v 0.015 c 0,0.014 0.014,0.025 0.041,0.033 0.081,0.015 0.127,0.022 0.14,0.022 0.007,0.004 0.017,0.008 0.029,0.009 0.065,0.015 0.098,0.033 0.1,0.055 0,0.029 -0.014,0.057 -0.043,0.086 C 0.154,0.616 0.135,0.626 0.119,0.626 0.097,0.626 0.047,0.614 -0.032,0.59 -0.048,0.6 -0.056,0.612 -0.056,0.626 c 0,0.01 0.002,0.02 0.008,0.031 0.01,0.01 0.053,0.028 0.126,0.055 0.065,0.028 0.098,0.061 0.1,0.098 0,0.019 -0.007,0.035 -0.019,0.047 -0.011,0.009 -0.034,0.015 -0.07,0.017 -0.011,0.001 -0.02,0.004 -0.03,0.007 0,0.005 -10e-4,0.009 -0.002,0.014 0,0.021 0.023,0.042 0.07,0.065 C 0.208,1.004 0.214,1.045 0.146,1.083 0.124,1.093 0.103,1.103 0.084,1.114 0.078,1.116 0.072,1.119 0.065,1.124 0.063,1.125 0.061,1.131 0.059,1.14 0.072,1.15 0.091,1.158 0.116,1.164 0.182,1.185 0.217,1.224 0.218,1.281 L 0.213,1.286 V 1.29 C 0.141,1.324 0.015,1.313 -0.167,1.259 -0.468,1.196 -0.628,1.155 -0.646,1.138 c 0,-0.029 0.017,-0.069 0.051,-0.121 0.034,0.009 0.071,0.02 0.111,0.033 0.032,0.01 0.059,0.01 0.08,0.002 C -0.431,1 -0.457,0.945 -0.482,0.888 -0.489,0.879 -0.494,0.864 -0.496,0.845 c 0,-0.033 0.014,-0.051 0.041,-0.052 0.006,0 0.01,0.001 0.013,0.002 0.008,0.002 0.017,0.005 0.027,0.01 0.038,0.011 0.086,0.06 0.146,0.147 0.039,0.058 0.082,0.087 0.126,0.088 0.017,0 0.025,-0.011 0.025,-0.033 0,-0.038 -0.032,-0.088 -0.095,-0.15 C -0.234,0.836 -0.354,0.79 -0.571,0.717 -0.589,0.712 -0.606,0.706 -0.622,0.697 c -0.007,0 -0.015,-0.001 -0.024,-0.004 -0.013,0 -0.026,-0.011 -0.041,-0.031 0.016,-0.057 0.037,-0.095 0.062,-0.112 0.011,-0.005 0.026,-0.009 0.044,-0.012 0.071,0.038 0.157,0.057 0.258,0.057 0.011,0 0.019,-0.004 0.024,-0.012 0.006,-0.006 0.009,-0.016 0.011,-0.028 0,-0.005 -0.003,-0.012 -0.011,-0.022 z"
       style="fill:#ffffff;fill-opacity:1;fill-rule:evenodd;stroke:none"
       transform="matrix(0.35277776,0,0,-0.35277776,178.92553,161.55479)"
       clip-path="url(#clipPath2972)" />
    <path
       id="path2973"
       d="m 0,0 -1.114,0.725 c -0.29,0.18 -0.385,0.33 -0.287,0.451 l 0.048,0.074 -0.107,0.069 -0.434,-0.666 0.107,-0.07 0.013,0.019 c 0.064,0.16 0.263,0.122 0.598,-0.113 L 1.095,-0.99 c 0.337,-0.202 0.447,-0.361 0.329,-0.478 l 0.108,-0.07 0.398,0.611 -0.108,0.07 -0.03,-0.046 C 1.718,-1.048 1.549,-1.026 1.287,-0.838 L 0.193,-0.126 0.796,0.8 1.76,0.172 C 1.989,0.024 2.124,-0.082 2.165,-0.144 2.21,-0.199 2.204,-0.27 2.148,-0.357 l 0.107,-0.07 0.368,0.565 -0.108,0.07 C 2.435,0.085 2.271,0.112 2.022,0.292 l -2.4,1.562 c -0.305,0.19 -0.4,0.34 -0.287,0.451 l 0.006,0.009 -0.107,0.07 -0.386,-0.593 0.107,-0.069 0.006,0.009 c 0.06,0.155 0.258,0.114 0.592,-0.122 l 1.05,-0.683 z"
       style="fill:#4c4b52;fill-opacity:1;fill-rule:evenodd;stroke:none"
       transform="matrix(0.35277776,0,0,-0.35277776,168.83955,156.68247)"
       clip-path="url(#clipPath2974)" />
    <path
       id="path2975"
       d="m 0,0 -0.106,0.073 c -0.067,-0.097 -0.15,-0.13 -0.251,-0.096 -0.091,0.017 -0.271,0.118 -0.538,0.301 L -2.14,1.131 c -0.769,0.535 -1.04,0.984 -0.813,1.346 0.252,0.337 0.766,0.243 1.543,-0.28 L 0.089,1.171 C 0.374,0.985 0.459,0.837 0.343,0.729 L 0.331,0.711 0.437,0.638 0.843,1.231 0.736,1.303 C 0.678,1.218 0.62,1.178 0.561,1.183 0.489,1.196 0.368,1.261 0.198,1.377 L -1.384,2.461 C -2.24,3.02 -2.831,3.094 -3.154,2.682 -3.426,2.225 -3.132,1.689 -2.272,1.073 l 1.456,-0.996 c 0.342,-0.225 0.454,-0.409 0.335,-0.552 l 0.106,-0.072 z"
       style="fill:#4c4b52;fill-opacity:1;fill-rule:evenodd;stroke:none"
       transform="matrix(0.35277776,0,0,-0.35277776,168.99375,157.68682)"
       clip-path="url(#clipPath2976)" />
    <path
       id="path2977"
       d="M 0,0 0.223,0.433 1.48,-0.476 Z M -0.27,0.09 -1.424,0.472 C -1.526,0.5 -1.606,0.529 -1.667,0.561 -1.825,0.626 -1.86,0.726 -1.771,0.863 l 0.03,0.058 -0.113,0.059 -0.354,-0.688 0.113,-0.058 c 0.031,0.133 0.191,0.146 0.48,0.038 l 3.502,-1.131 0.111,0.216 -0.146,0.05 -2.655,1.939 C -1.052,1.532 -1.192,1.65 -1.225,1.7 -1.272,1.757 -1.274,1.828 -1.23,1.914 l -0.113,0.058 -0.299,-0.58 0.114,-0.058 0.02,0.039 c 0.074,0.144 0.178,0.177 0.311,0.101 0.046,-0.023 0.116,-0.072 0.213,-0.147 0.069,-0.052 0.111,-0.082 0.125,-0.089 l 0.857,-0.627 z"
       style="fill:#4c4b52;fill-opacity:1;fill-rule:evenodd;stroke:none"
       transform="matrix(0.35277776,0,0,-0.35277776,168.21824,157.74658)"
       clip-path="url(#clipPath2978)" />
    <path
       id="path2979"
       d="M 0,0 -0.234,-1.619 0.925,-1.82 0.933,-1.765 C 0.532,-1.678 0.285,-1.608 0.188,-1.557 0.076,-1.503 0.026,-1.43 0.04,-1.334 l 0.144,0.994 3.46,-1.795 0.153,-0.022 0.208,1.443 -0.909,0.143 -0.008,-0.054 c 0.505,-0.081 0.721,-0.198 0.647,-0.351 l -0.12,-0.831 -3.463,1.785 z"
       style="fill:#4c4b52;fill-opacity:1;fill-rule:evenodd;stroke:none"
       transform="matrix(0.35277776,0,0,-0.35277776,167.42279,157.82861)"
       clip-path="url(#clipPath2980)" />
    <path
       id="path2981"
       d="m 0,0 -1.322,0.135 c -0.34,0.027 -0.494,0.118 -0.461,0.27 l 0.008,0.087 -0.127,0.013 -0.08,-0.791 0.127,-0.013 0.002,0.022 c -0.017,0.172 0.178,0.23 0.583,0.174 L 1.426,-0.379 C 1.819,-0.404 1.989,-0.496 1.938,-0.654 L 2.066,-0.667 2.14,0.059 2.012,0.072 2.006,0.017 C 2.007,-0.146 1.847,-0.203 1.527,-0.156 L 0.229,-0.023 0.341,1.076 1.486,0.959 C 1.758,0.931 1.926,0.899 1.991,0.863 2.056,0.834 2.083,0.768 2.073,0.665 L 2.201,0.652 2.269,1.323 2.141,1.336 C 2.126,1.19 1.968,1.139 1.664,1.185 l -2.849,0.291 c -0.358,0.03 -0.511,0.119 -0.461,0.269 l 10e-4,0.011 -0.127,0.013 -0.072,-0.703 0.127,-0.013 0.001,0.011 c -0.017,0.165 0.177,0.219 0.582,0.163 L 0.112,1.099 Z"
       style="fill:#4c4b52;fill-opacity:1;fill-rule:evenodd;stroke:none"
       transform="matrix(0.35277776,0,0,-0.35277776,167.90116,159.11734)"
       clip-path="url(#clipPath2982)" />
    <path
       id="path2983"
       d="m 0,0 c -1.21,-0.025 -1.85,0.175 -1.921,0.599 0.08,0.506 0.766,0.805 2.059,0.9 C 1.332,1.509 1.964,1.305 2.034,0.888 1.971,0.391 1.293,0.095 0,0 m 0.217,-0.255 c 1.24,0.107 1.899,0.468 1.973,1.084 -0.114,0.636 -0.87,0.945 -2.269,0.926 -1.24,-0.1 -1.89,-0.468 -1.947,-1.105 0.114,-0.622 0.861,-0.923 2.243,-0.905"
       style="fill:#4c4b52;fill-opacity:1;fill-rule:evenodd;stroke:none"
       transform="matrix(0.35277776,0,0,-0.35277776,167.87773,159.89959)"
       clip-path="url(#clipPath2984)" />
    <path
       id="path2985"
       d="M 0,0 3.521,0.779 C 3.75,0.844 3.877,0.782 3.902,0.591 L 4.027,0.619 3.884,1.266 3.759,1.239 C 3.784,1.124 3.767,1.044 3.707,1.001 3.665,0.954 3.544,0.908 3.344,0.864 L 0.823,0.307 3.655,2.302 3.56,2.733 3.434,2.706 C 3.455,2.612 3.423,2.522 3.337,2.436 L 0.192,1.74 C -0.107,1.666 -0.264,1.711 -0.283,1.873 l -0.003,0.01 -0.124,-0.027 0.14,-0.637 0.125,0.028 c -0.027,0.122 -0.011,0.205 0.05,0.249 0.058,0.05 0.204,0.101 0.438,0.153 L 3.089,2.256 -0.014,0.065 Z"
       style="fill:#4c4b52;fill-opacity:1;fill-rule:evenodd;stroke:none"
       transform="matrix(0.35277776,0,0,-0.35277776,167.39799,160.75888)"
       clip-path="url(#clipPath2986)" />
    <path
       id="path2987"
       d="M 0,0 C 0.24,0.086 0.39,0.066 0.451,-0.061 L 0.548,-0.029 0.31,0.695 0.212,0.663 0.247,0.558 C 0.312,0.417 0.172,0.293 -0.17,0.188 l -0.777,-0.255 c -0.21,0.093 -0.336,0.203 -0.377,0.329 -0.032,0.478 0.507,0.911 1.617,1.3 C 1.517,1.934 2.235,1.906 2.448,1.48 2.547,1.179 2.266,0.885 1.606,0.598 L 1.624,0.546 2.619,0.873 2.609,0.905 C 2.57,0.915 2.547,0.931 2.54,0.952 2.535,0.966 2.542,0.999 2.561,1.052 2.619,1.257 2.626,1.426 2.582,1.559 2.329,2.112 1.53,2.194 0.187,1.806 -1.031,1.359 -1.576,0.862 -1.45,0.314 c 0.122,-0.262 0.315,-0.463 0.575,-0.602 z"
       style="fill:#4c4b52;fill-opacity:1;fill-rule:evenodd;stroke:none"
       transform="matrix(0.35277776,0,0,-0.35277776,168.04908,161.30809)"
       clip-path="url(#clipPath2988)" />
    <path
       id="path2989"
       d="m 0,0 -0.104,-0.076 c 0.07,-0.095 0.073,-0.185 0.008,-0.269 -0.047,-0.08 -0.201,-0.216 -0.462,-0.408 l -1.216,-0.893 c -0.76,-0.549 -1.273,-0.656 -1.54,-0.322 -0.234,0.349 0.023,0.803 0.774,1.364 l 1.464,1.075 c 0.27,0.208 0.438,0.239 0.501,0.094 L -0.562,0.547 -0.458,0.623 -0.883,1.202 -0.987,1.126 C -0.926,1.043 -0.907,0.974 -0.931,0.92 -0.968,0.856 -1.069,0.764 -1.234,0.643 L -2.78,-0.493 c -0.811,-0.623 -1.076,-1.156 -0.794,-1.597 0.342,-0.408 0.945,-0.307 1.81,0.301 l 1.422,1.044 c 0.325,0.248 0.536,0.293 0.631,0.134 l 0.104,0.076 z"
       style="fill:#4c4b52;fill-opacity:1;fill-rule:evenodd;stroke:none"
       transform="matrix(0.35277776,0,0,-0.35277776,169.56941,161.61264)"
       clip-path="url(#clipPath2990)" />
    <path
       id="path2991"
       d="M 0,0 2.662,2.433 C 2.827,2.604 2.969,2.614 3.085,2.461 L 3.18,2.547 2.733,3.037 2.638,2.95 C 2.717,2.863 2.742,2.786 2.712,2.718 2.699,2.657 2.617,2.557 2.466,2.418 L 0.56,0.676 2.017,3.82 1.719,4.146 1.624,4.059 C 1.689,3.988 1.707,3.895 1.675,3.777 L -0.703,1.603 C -0.925,1.39 -1.083,1.35 -1.181,1.481 L -1.188,1.489 -1.282,1.403 -0.843,0.922 -0.748,1.008 C -0.833,1.1 -0.86,1.18 -0.829,1.248 -0.804,1.321 -0.703,1.438 -0.527,1.6 L 1.55,3.497 -0.045,0.049 Z"
       style="fill:#4c4b52;fill-opacity:1;fill-rule:evenodd;stroke:none"
       transform="matrix(0.35277776,0,0,-0.35277776,169.14308,163.24304)"
       clip-path="url(#clipPath2992)" />
    <path
       id="path2993"
       d="m 0,0 c -0.164,0.075 -0.131,0.26 0.098,0.558 l 1.61,2.275 C 1.913,3.147 2.078,3.24 2.202,3.109 L 2.276,3.214 1.717,3.61 1.643,3.505 C 1.773,3.434 1.741,3.268 1.549,3.009 L -0.062,0.734 C -0.277,0.405 -0.442,0.293 -0.559,0.396 l -0.074,-0.104 0.559,-0.396 z"
       style="fill:#4c4b52;fill-opacity:1;fill-rule:evenodd;stroke:none"
       transform="matrix(0.35277776,0,0,-0.35277776,169.70611,163.6493)"
       clip-path="url(#clipPath2994)" />
    <path
       id="path2995"
       d="M 0,0 2.465,2.452 C 2.74,2.736 2.93,2.832 3.034,2.736 L 3.109,2.841 2.569,3.226 2.494,3.121 C 2.644,3.014 2.667,2.893 2.562,2.759 2.502,2.675 2.442,2.603 2.381,2.542 2.345,2.505 2.314,2.475 2.289,2.451 L 0.348,0.507 1.639,3.196 c 0.121,0.271 0.276,0.337 0.468,0.2 L 2.182,3.501 1.552,3.95 1.477,3.845 C 1.549,3.794 1.577,3.732 1.562,3.66 1.557,3.601 1.504,3.471 1.406,3.269 L -0.108,0.077 Z"
       style="fill:#4c4b52;fill-opacity:1;fill-rule:evenodd;stroke:none"
       transform="matrix(0.35277776,0,0,-0.35277776,170.02813,163.94436)"
       clip-path="url(#clipPath2996)" />
    <path
       id="path2997"
       d="m 0,0 -0.046,0.03 c -0.191,-0.282 -0.325,-0.389 -0.403,-0.319 l -0.427,0.275 0.872,1.356 0.502,-0.323 C 0.599,0.973 0.538,0.749 0.314,0.345 L 0.36,0.316 0.826,1.081 -0.316,1.816 -0.386,1.708 -0.331,1.672 C -0.185,1.599 -0.215,1.416 -0.421,1.123 L -1.915,-1.201 C -2.108,-1.542 -2.28,-1.645 -2.428,-1.509 l -0.066,0.042 -0.069,-0.107 1.265,-0.813 0.563,0.794 -0.047,0.03 c -0.188,-0.224 -0.329,-0.368 -0.42,-0.429 -0.093,-0.063 -0.179,-0.068 -0.26,-0.016 l -0.363,0.233 c -0.096,0.041 -0.074,0.17 0.064,0.385 l 0.76,1.183 0.409,-0.263 c 0.118,-0.036 0.078,-0.213 -0.118,-0.532 l 0.046,-0.03 z"
       style="fill:#4c4b52;fill-opacity:1;fill-rule:evenodd;stroke:none"
       transform="matrix(0.35277776,0,0,-0.35277776,171.32095,163.55161)"
       clip-path="url(#clipPath2998)" />
    <path
       id="path2999"
       d="m 0,0 c 0.041,-0.003 0.087,-0.02 0.138,-0.049 0.319,-0.183 0.297,-0.593 -0.068,-1.229 -0.356,-0.621 -0.684,-0.845 -0.985,-0.673 -0.012,0.008 -0.032,0.019 -0.057,0.033 -0.047,0.007 -0.079,0.025 -0.096,0.055 z m -1.132,-1.974 c 0.032,-0.019 0.074,-0.043 0.125,-0.072 0.057,-0.033 0.111,-0.064 0.163,-0.093 0.019,-0.129 0.012,-0.341 -0.021,-0.636 l -0.053,-0.471 c -0.048,-0.365 -0.05,-0.611 -0.002,-0.736 0.06,-0.133 0.19,-0.246 0.39,-0.341 l 0.038,0.066 c -0.157,0.111 -0.21,0.396 -0.158,0.857 l 0.062,0.554 c 0.034,0.295 0.052,0.54 0.053,0.735 0.313,0.058 0.6,0.306 0.86,0.746 0.369,0.673 0.344,1.139 -0.076,1.399 C 0.192,0.067 0.127,0.095 0.054,0.116 0.003,0.145 -0.039,0.169 -0.071,0.188 -0.209,0.228 -0.319,0.272 -0.402,0.32 L -0.466,0.208 -0.419,0.181 C -0.26,0.13 -0.282,-0.055 -0.481,-0.372 l -1.374,-2.396 c -0.188,-0.344 -0.344,-0.461 -0.468,-0.351 l -0.039,0.022 -0.063,-0.11 0.69,-0.396 0.064,0.11 -0.058,0.034 c -0.142,0.062 -0.126,0.239 0.05,0.532 z"
       style="fill:#4c4b52;fill-opacity:1;fill-rule:evenodd;stroke:none"
       transform="matrix(0.35277776,0,0,-0.35277776,171.80888,163.29479)"
       clip-path="url(#clipPath3000)" />
    <path
       id="path3001"
       d="m 0,0 -0.249,-0.968 0.042,-0.014 c 0.03,0.044 0.056,0.062 0.077,0.056 0.007,-0.003 0.033,-0.029 0.078,-0.08 0.111,-0.089 0.197,-0.145 0.26,-0.166 0.353,-0.081 0.647,0.201 0.881,0.841 C 1.233,0.249 1.217,0.73 1.04,1.112 0.904,1.569 0.881,1.936 0.971,2.211 1.102,2.563 1.264,2.724 1.457,2.698 1.647,2.617 1.715,2.326 1.658,1.824 L 1.7,1.81 1.914,2.601 1.872,2.615 C 1.847,2.587 1.824,2.577 1.803,2.584 1.775,2.593 1.745,2.62 1.714,2.667 1.652,2.759 1.575,2.82 1.483,2.85 1.174,2.897 0.918,2.65 0.716,2.106 0.582,1.559 0.6,1.095 0.77,0.716 0.909,0.24 0.93,-0.144 0.834,-0.436 0.671,-0.884 0.465,-1.085 0.216,-1.04 c -0.225,0.092 -0.28,0.433 -0.163,1.023 z"
       style="fill:#4c4b52;fill-opacity:1;fill-rule:evenodd;stroke:none"
       transform="matrix(0.35277776,0,0,-0.35277776,171.7948,164.45247)"
       clip-path="url(#clipPath3002)" />
    <path
       id="path3003"
       d="M 0,0 C -0.178,0.024 -0.201,0.211 -0.067,0.562 L 0.822,3.204 C 0.928,3.564 1.059,3.7 1.215,3.611 L 1.256,3.733 0.607,3.951 0.566,3.829 C 0.711,3.799 0.728,3.631 0.619,3.327 L -0.27,0.685 C -0.382,0.308 -0.508,0.154 -0.649,0.218 L -0.69,0.097 -0.041,-0.121 Z"
       style="fill:#4c4b52;fill-opacity:1;fill-rule:evenodd;stroke:none"
       transform="matrix(0.35277776,0,0,-0.35277776,172.43562,164.96248)"
       clip-path="url(#clipPath3004)" />
    <path
       id="path3005"
       d="m 0,0 0.48,-0.13 c 0.109,0.006 0.114,-0.243 0.015,-0.747 L 0.538,-0.888 0.769,0.135 0.716,0.15 C 0.698,0.084 0.661,0.06 0.604,0.075 L -0.708,0.43 c -0.014,0.004 -0.029,0.016 -0.046,0.038 -0.013,0.039 -0.017,0.067 -0.013,0.083 l -0.053,0.014 -0.316,-1 0.053,-0.015 c 0.162,0.487 0.289,0.7 0.379,0.64 l 0.48,-0.129 -0.841,-3.11 c -0.082,-0.332 -0.195,-0.469 -0.34,-0.412 l -0.107,0.029 -0.034,-0.124 0.865,-0.233 0.033,0.123 -0.096,0.026 c -0.161,0.026 -0.193,0.202 -0.097,0.53 z"
       style="fill:#4c4b52;fill-opacity:1;fill-rule:evenodd;stroke:none"
       transform="matrix(0.35277776,0,0,-0.35277776,173.21314,163.82103)"
       clip-path="url(#clipPath3006)" />
    <path
       id="path3007"
       d="m 0,0 -0.178,1.689 c -0.023,0.177 -0.015,0.288 0.022,0.333 0.023,0.049 0.089,0.063 0.198,0.045 L 0.063,2.194 -0.678,2.318 -0.699,2.19 c 0.087,-0.014 0.15,-0.059 0.19,-0.134 0.032,-0.075 0.064,-0.244 0.094,-0.509 L -0.227,-0.35 -0.378,-1.259 C -0.424,-1.58 -0.522,-1.718 -0.672,-1.676 l -0.054,0.009 -0.021,-0.126 0.763,-0.128 0.021,0.126 -0.033,0.006 c -0.163,0.01 -0.212,0.182 -0.149,0.518 l 0.16,0.958 0.771,1.738 C 0.915,1.749 1.059,1.897 1.219,1.871 L 1.24,1.998 0.608,2.103 0.587,1.976 C 0.681,1.96 0.734,1.917 0.745,1.847 0.755,1.775 0.725,1.66 0.653,1.499 Z"
       style="fill:#4c4b52;fill-opacity:1;fill-rule:evenodd;stroke:none"
       transform="matrix(0.35277776,0,0,-0.35277776,173.7354,164.65422)"
       clip-path="url(#clipPath3008)" />
    <path
       id="path3009"
       d="m 0,0 c -0.179,-1.196 -0.476,-1.792 -0.892,-1.788 -0.467,0.167 -0.638,0.894 -0.512,2.184 0.191,1.178 0.491,1.764 0.9,1.761 C -0.042,2.009 0.126,1.29 0,0 M 0.279,0.169 C 0.385,1.409 0.151,2.12 -0.422,2.3 -1.047,2.298 -1.467,1.608 -1.683,0.227 c -0.113,-1.24 0.129,-1.943 0.725,-2.109 0.611,0.003 1.023,0.687 1.237,2.051"
       style="fill:#4c4b52;fill-opacity:1;fill-rule:evenodd;stroke:none"
       transform="matrix(0.35277776,0,0,-0.35277776,174.95961,164.83167)"
       clip-path="url(#clipPath3010)" />
    <path
       id="path3011"
       d="M 0,0 -0.044,0.001 C -0.057,-0.288 -0.115,-0.423 -0.218,-0.405 L -0.781,-0.394 -0.752,1.141 -0.21,1.13 C -0.048,1.143 0.026,0.963 0.012,0.588 L 0.067,0.587 0.082,1.355 -1.189,1.379 -1.191,1.251 C -1.103,1.249 -1.045,1.205 -1.017,1.12 -0.996,1.052 -0.989,0.889 -0.993,0.634 l -0.05,-2.557 c -0.005,-0.273 -0.02,-0.443 -0.043,-0.511 -0.024,-0.067 -0.079,-0.109 -0.168,-0.125 l -0.003,-0.127 0.685,-0.013 0.002,0.127 c -0.184,-0.03 -0.266,0.142 -0.244,0.517 l 0.028,1.431 0.531,-0.011 c 0.125,0.016 0.188,-0.156 0.188,-0.514 l 0.045,-10e-4 z"
       style="fill:#4c4b52;fill-opacity:1;fill-rule:evenodd;stroke:none"
       transform="matrix(0.35277776,0,0,-0.35277776,175.5025,164.54697)"
       clip-path="url(#clipPath3012)" />
    <path
       id="path3013"
       d="m 0,0 0.126,-0.991 0.044,0.002 c 0.011,0.052 0.029,0.078 0.05,0.08 0.008,0 0.042,-0.014 0.103,-0.045 0.136,-0.043 0.236,-0.063 0.302,-0.059 0.359,0.056 0.528,0.425 0.509,1.107 C 1.055,0.686 0.862,1.127 0.557,1.417 0.261,1.792 0.105,2.124 0.087,2.413 0.079,2.789 0.17,2.998 0.359,3.045 0.566,3.04 0.736,2.794 0.869,2.307 L 0.912,2.309 0.82,3.124 0.775,3.121 C 0.763,3.085 0.746,3.068 0.723,3.067 0.694,3.065 0.656,3.079 0.61,3.111 0.518,3.173 0.424,3.202 0.328,3.196 0.022,3.126 -0.124,2.801 -0.111,2.222 -0.034,1.664 0.154,1.239 0.452,0.95 0.756,0.558 0.917,0.209 0.936,-0.098 0.949,-0.575 0.832,-0.837 0.585,-0.887 0.341,-0.884 0.164,-0.588 0.055,0.003 Z"
       style="fill:#4c4b52;fill-opacity:1;fill-rule:evenodd;stroke:none"
       transform="matrix(0.35277776,0,0,-0.35277776,175.96629,165.17344)"
       clip-path="url(#clipPath3014)" />
    <path
       id="path3015"
       d="M 0,0 -0.21,0.923 -0.253,0.914 c 0,0 -0.004,-0.001 -0.011,-0.003 C -0.275,0.892 -0.288,0.881 -0.302,0.878 -0.324,0.874 -0.365,0.891 -0.426,0.931 -0.616,1.015 -0.787,1.04 -0.938,1.009 -1.539,0.783 -1.727,0.006 -1.501,-1.323 c 0.295,-1.262 0.755,-1.864 1.383,-1.806 0.108,0.022 0.229,0.073 0.363,0.152 0.098,0.072 0.178,0.106 0.239,0.101 0.011,0.316 0.006,0.636 -0.016,0.963 L 0.414,-1.924 C 0.392,-2.59 0.233,-2.953 -0.063,-3.013 c -0.507,0.018 -0.909,0.641 -1.204,1.868 -0.209,1.175 -0.082,1.845 0.381,2.009 0.317,0.029 0.595,-0.262 0.832,-0.875 z"
       style="fill:#4c4b52;fill-opacity:1;fill-rule:evenodd;stroke:none"
       transform="matrix(0.35277776,0,0,-0.35277776,176.93696,164.38639)"
       clip-path="url(#clipPath3016)" />
    <path
       id="path3017"
       d="m 0,0 c -0.168,-0.064 -0.277,0.089 -0.328,0.461 l -0.487,2.745 c -0.08,0.366 -0.031,0.549 0.149,0.545 L -0.688,3.878 -1.363,3.758 -1.34,3.631 c 0.142,0.043 0.238,-0.096 0.287,-0.415 l 0.487,-2.745 c 0.083,-0.384 0.047,-0.58 -0.108,-0.591 l 0.022,-0.126 0.674,0.12 z"
       style="fill:#4c4b52;fill-opacity:1;fill-rule:evenodd;stroke:none"
       transform="matrix(0.35277776,0,0,-0.35277776,177.4559,165.33928)"
       clip-path="url(#clipPath3018)" />
    <path
       id="path3019"
       d="m 0,0 -0.054,-0.011 c 0.064,-0.335 0.044,-0.506 -0.061,-0.51 l -0.497,-0.106 -0.336,1.576 0.583,0.124 C -0.26,1.112 -0.145,0.91 -0.021,0.466 L 0.034,0.478 -0.175,1.349 -1.504,1.065 -1.477,0.94 -1.413,0.953 C -1.258,1.004 -1.15,0.853 -1.09,0.5 l 0.577,-2.701 c 0.104,-0.379 0.054,-0.572 -0.147,-0.58 l -0.076,-0.017 0.027,-0.125 1.47,0.314 -0.16,0.96 L 0.547,-1.66 C 0.571,-1.952 0.573,-2.152 0.551,-2.261 0.529,-2.37 0.471,-2.435 0.377,-2.455 l -0.421,-0.09 c -0.097,-0.039 -0.173,0.068 -0.226,0.318 l -0.294,1.375 0.476,0.101 c 0.108,0.058 0.205,-0.095 0.29,-0.461 L 0.256,-1.2 Z"
       style="fill:#4c4b52;fill-opacity:1;fill-rule:evenodd;stroke:none"
       transform="matrix(0.35277776,0,0,-0.35277776,177.8327,164.28426)"
       clip-path="url(#clipPath3020)" />
    <path
       id="path3021"
       d="m 0,0 -0.901,3.472 c -0.073,0.225 -0.024,0.356 0.148,0.391 L -0.785,3.987 -1.364,3.808 -1.332,3.684 c 0.103,0.032 0.176,0.019 0.219,-0.038 0.044,-0.04 0.093,-0.158 0.144,-0.355 L -0.324,0.804 -2.291,3.522 -2.677,3.403 -2.644,3.279 c 0.083,0.026 0.167,-10e-4 0.25,-0.082 l 0.805,-3.102 c 0.084,-0.294 0.052,-0.454 -0.093,-0.482 l -0.01,-0.003 0.032,-0.122 0.569,0.175 -0.032,0.123 c -0.109,-0.034 -0.185,-0.022 -0.228,0.036 -0.049,0.056 -0.104,0.199 -0.163,0.429 l -0.703,2.708 2.159,-2.977 z"
       style="fill:#4c4b52;fill-opacity:1;fill-rule:evenodd;stroke:none"
       transform="matrix(0.35277776,0,0,-0.35277776,178.81293,164.98961)"
       clip-path="url(#clipPath3022)" />
    <path
       id="path3023"
       d="M 0,0 -0.309,0.894 -0.351,0.881 c 0,0 -0.003,-0.001 -0.011,-0.004 -0.008,-0.02 -0.02,-0.032 -0.034,-0.037 -0.021,-0.007 -0.063,0.006 -0.128,0.039 -0.198,0.063 -0.371,0.07 -0.518,0.023 -0.573,-0.29 -0.675,-1.083 -0.307,-2.38 0.43,-1.222 0.953,-1.771 1.57,-1.646 0.105,0.034 0.22,0.098 0.345,0.191 0.09,0.082 0.165,0.125 0.227,0.126 -0.024,0.316 -0.063,0.634 -0.12,0.956 L 0.62,-1.868 c 0.05,-0.664 -0.069,-1.043 -0.356,-1.134 -0.507,-0.037 -0.973,0.539 -1.399,1.727 -0.335,1.145 -0.281,1.825 0.161,2.038 0.312,0.063 0.619,-0.196 0.921,-0.78 z"
       style="fill:#4c4b52;fill-opacity:1;fill-rule:evenodd;stroke:none"
       transform="matrix(0.35277776,0,0,-0.35277776,179.14895,163.78021)"
       clip-path="url(#clipPath3024)" />
    <path
       id="path3025"
       d="m 0,0 -0.051,-0.02 c 0.115,-0.32 0.122,-0.492 0.02,-0.512 l -0.474,-0.184 -0.581,1.503 0.557,0.215 c 0.097,0.056 0.242,-0.126 0.435,-0.545 l 0.052,0.02 -0.344,0.828 -1.267,-0.49 0.046,-0.12 0.062,0.024 C -1.4,0.793 -1.27,0.661 -1.155,0.322 l 0.996,-2.577 c 0.162,-0.357 0.143,-0.556 -0.054,-0.596 l -0.073,-0.028 0.046,-0.119 1.402,0.542 -0.309,0.923 -0.051,-0.02 C 0.872,-1.837 0.905,-2.035 0.9,-2.146 0.896,-2.257 0.849,-2.33 0.76,-2.365 L 0.358,-2.52 c -0.09,-0.054 -0.181,0.04 -0.273,0.278 l -0.507,1.312 0.453,0.175 c 0.098,0.074 0.218,-0.062 0.36,-0.41 l 0.051,0.02 z"
       style="fill:#4c4b52;fill-opacity:1;fill-rule:evenodd;stroke:none"
       transform="matrix(0.35277776,0,0,-0.35277776,179.65515,163.705)"
       clip-path="url(#clipPath3026)" />
    <path
       id="path3027"
       d="M 0,0 -0.424,-0.239 -0.976,1.21 Z m 0.177,-0.224 0.754,-0.953 c 0.07,-0.078 0.121,-0.147 0.155,-0.207 0.096,-0.141 0.07,-0.244 -0.08,-0.309 l -0.057,-0.033 0.062,-0.111 0.674,0.38 -0.063,0.111 C 1.523,-1.44 1.382,-1.363 1.2,-1.114 L -1.105,1.754 -1.316,1.635 -1.222,1.512 -0.068,-1.566 C 0.038,-1.858 0.09,-2.034 0.09,-2.093 0.098,-2.167 0.06,-2.227 -0.023,-2.275 L 0.039,-2.386 0.607,-2.065 0.544,-1.954 0.506,-1.976 C 0.365,-2.055 0.26,-2.026 0.191,-1.889 0.165,-1.845 0.133,-1.765 0.094,-1.65 0.065,-1.568 0.046,-1.52 0.038,-1.506 l -0.371,0.995 z"
       style="fill:#4c4b52;fill-opacity:1;fill-rule:evenodd;stroke:none"
       transform="matrix(0.35277776,0,0,-0.35277776,180.49123,163.49633)"
       clip-path="url(#clipPath3028)" />
    <path
       id="path3029"
       d="M 0,0 -1.951,2.905 C -2.091,3.088 -2.087,3.23 -1.94,3.329 L -2.009,3.433 -2.488,3.04 -2.418,2.937 c 0.085,0.07 0.156,0.086 0.214,0.049 0.055,-0.02 0.137,-0.112 0.248,-0.277 l 1.398,-2.08 -2.697,1.784 -0.319,-0.262 0.07,-0.104 c 0.069,0.057 0.155,0.064 0.258,0.021 l 1.744,-2.596 c 0.172,-0.243 0.194,-0.405 0.068,-0.488 l -0.008,-0.006 0.069,-0.103 0.471,0.386 -0.069,0.102 c -0.091,-0.073 -0.165,-0.092 -0.224,-0.054 -0.063,0.033 -0.159,0.146 -0.289,0.338 l -1.522,2.266 2.958,-1.952 z"
       style="fill:#4c4b52;fill-opacity:1;fill-rule:evenodd;stroke:none"
       transform="matrix(0.35277776,0,0,-0.35277776,181.58079,163.56452)"
       clip-path="url(#clipPath3030)" />
    <path
       id="path3031"
       d="M 0,0 C 0.006,0.004 0.021,0.015 0.046,0.031 0.091,0.083 0.131,0.121 0.168,0.146 0.448,0.337 0.749,0.326 1.073,0.114 1.387,-0.085 1.712,-0.431 2.048,-0.924 2.378,-1.42 2.579,-1.851 2.65,-2.216 2.692,-2.435 2.694,-2.609 2.657,-2.737 2.617,-2.848 2.52,-2.954 2.368,-3.058 2.283,-3.117 2.214,-3.132 2.16,-3.107 2.133,-3.105 2.071,-3.034 1.975,-2.893 Z M 1.701,-2.924 C 1.9,-3.202 1.93,-3.377 1.793,-3.451 L 1.757,-3.476 1.829,-3.581 2.577,-3.07 C 3.061,-2.656 2.939,-1.863 2.21,-0.69 1.465,0.35 0.799,0.691 0.214,0.333 0.178,0.308 0.114,0.264 0.023,0.202 -0.059,0.125 -0.121,0.072 -0.163,0.043 -0.2,0.018 -0.25,-0.026 -0.313,-0.09 -0.392,-0.144 -0.442,-0.188 -0.463,-0.223 l 0.072,-0.106 0.046,0.031 c 0.108,0.116 0.262,0.014 0.461,-0.303 z"
       style="fill:#4c4b52;fill-opacity:1;fill-rule:evenodd;stroke:none"
       transform="matrix(0.35277776,0,0,-0.35277776,181.06908,162.2771)"
       clip-path="url(#clipPath3032)" />
    <path
       id="path3033"
       d="M 0,0 0.282,0.41 C 0.312,0.514 0.549,0.436 0.991,0.177 L 1.016,0.213 0.127,0.771 0.096,0.725 C 0.151,0.687 0.163,0.644 0.129,0.595 l -0.769,-1.12 c -0.008,-0.012 -0.025,-0.023 -0.052,-0.032 -0.041,0.001 -0.068,0.007 -0.082,0.016 l -0.031,-0.045 0.839,-0.63 0.031,0.045 c -0.405,0.314 -0.564,0.504 -0.478,0.57 l 0.282,0.41 2.655,-1.824 C 2.81,-2.203 2.901,-2.355 2.8,-2.473 L 2.738,-2.564 2.843,-2.636 3.35,-1.898 3.245,-1.826 3.188,-1.908 C 3.11,-2.051 2.933,-2.023 2.656,-1.824 Z"
       style="fill:#4c4b52;fill-opacity:1;fill-rule:evenodd;stroke:none"
       transform="matrix(0.35277776,0,0,-0.35277776,181.78829,161.59708)"
       clip-path="url(#clipPath3034)" />
    <path
       id="path3035"
       d="m 0,0 -0.029,-0.047 c 0.287,-0.184 0.396,-0.316 0.328,-0.395 l -0.266,-0.433 -1.374,0.841 0.312,0.509 c 0.043,0.102 0.269,0.047 0.677,-0.169 l 0.029,0.047 -0.776,0.449 -0.709,-1.159 0.109,-0.067 0.035,0.056 c 0.07,0.148 0.253,0.122 0.551,-0.078 L 1.243,-1.888 C 1.589,-2.073 1.695,-2.242 1.562,-2.394 L 1.522,-2.46 1.631,-2.527 2.415,-1.245 1.609,-0.7 1.581,-0.747 C 1.809,-0.93 1.955,-1.067 2.019,-1.158 2.083,-1.249 2.09,-1.335 2.04,-1.417 L 1.815,-1.785 C 1.776,-1.882 1.647,-1.863 1.429,-1.73 l -1.199,0.734 0.254,0.415 c 0.032,0.118 0.21,0.083 0.534,-0.107 l 0.029,0.047 z"
       style="fill:#4c4b52;fill-opacity:1;fill-rule:evenodd;stroke:none"
       transform="matrix(0.35277776,0,0,-0.35277776,182.53071,161.18024)"
       clip-path="url(#clipPath3036)" />
    <path
       id="path3037"
       d="M 0,0 -0.901,0.288 -0.916,0.247 -0.919,0.236 C -0.909,0.217 -0.905,0.2 -0.91,0.186 -0.917,0.165 -0.953,0.139 -1.018,0.106 c -0.169,-0.12 -0.278,-0.254 -0.328,-0.4 -0.111,-0.633 0.463,-1.189 1.722,-1.671 1.236,-0.388 1.989,-0.298 2.258,0.272 0.036,0.104 0.054,0.234 0.054,0.39 -0.012,0.121 -0.001,0.207 0.035,0.257 -0.267,0.17 -0.546,0.329 -0.838,0.476 L 1.867,-0.622 C 2.429,-0.98 2.661,-1.301 2.562,-1.587 2.289,-2.015 1.548,-2.043 0.342,-1.673 c -1.119,0.418 -1.63,0.868 -1.537,1.349 0.137,0.288 0.528,0.379 1.177,0.272 z"
       style="fill:#4c4b52;fill-opacity:1;fill-rule:evenodd;stroke:none"
       transform="matrix(0.35277776,0,0,-0.35277776,182.77744,160.53653)"
       clip-path="url(#clipPath3038)" />
    <path
       id="path3039"
       d="M 0,0 1.306,-0.225 C 1.643,-0.276 1.789,-0.371 1.744,-0.509 L 1.728,-0.589 1.854,-0.611 1.999,0.113 1.874,0.135 1.87,0.115 C 1.872,-0.045 1.673,-0.084 1.274,-0.001 l -2.665,0.459 c -0.388,0.053 -0.551,0.151 -0.487,0.293 l -0.126,0.021 -0.134,-0.664 0.127,-0.022 0.01,0.051 c 0.012,0.15 0.177,0.191 0.492,0.123 l 1.283,-0.221 -0.203,-1.006 -1.131,0.195 c -0.268,0.046 -0.433,0.088 -0.495,0.127 -0.063,0.031 -0.084,0.094 -0.065,0.188 l -0.127,0.022 -0.123,-0.614 0.126,-0.022 c 0.027,0.134 0.189,0.169 0.488,0.104 L 1.06,-1.453 c 0.354,-0.054 0.499,-0.149 0.438,-0.284 l -0.002,-0.01 0.125,-0.021 0.13,0.644 -0.126,0.021 -0.002,-0.01 C 1.626,-1.266 1.429,-1.301 1.029,-1.219 l -1.231,0.213 z"
       style="fill:#4c4b52;fill-opacity:1;fill-rule:evenodd;stroke:none"
       transform="matrix(0.35277776,0,0,-0.35277776,183.19986,160.04045)"
       clip-path="url(#clipPath3040)" />
    <path
       id="path3041"
       d="M 0,0 -3.6,0.197 C -3.838,0.195 -3.944,0.286 -3.916,0.469 l -0.129,0.007 -0.037,-0.637 0.128,-0.007 c 0.007,0.113 0.045,0.182 0.114,0.207 0.053,0.033 0.182,0.043 0.387,0.032 l 2.578,-0.14 -3.267,-1.112 -0.025,-0.425 0.128,-0.006 c 0.006,0.091 0.06,0.167 0.167,0.225 l 3.216,-0.176 c 0.308,-0.01 0.447,-0.092 0.422,-0.247 l -10e-4,-0.01 0.127,-0.007 0.037,0.626 -0.127,0.007 c -0.007,-0.12 -0.045,-0.192 -0.116,-0.217 -0.069,-0.032 -0.224,-0.041 -0.462,-0.028 l -2.809,0.153 3.581,1.222 z"
       style="fill:#4c4b52;fill-opacity:1;fill-rule:evenodd;stroke:none"
       transform="matrix(0.35277776,0,0,-0.35277776,184.00433,159.14182)"
       clip-path="url(#clipPath3042)" />
    <path
       id="path3043"
       d="M 0,0 C 1.206,0.105 1.857,-0.031 1.952,-0.41 1.904,-0.872 1.238,-1.19 -0.047,-1.365 -1.237,-1.456 -1.88,-1.314 -1.975,-0.942 -1.943,-0.489 -1.284,-0.175 0,0 m -0.232,0.216 c -1.231,-0.182 -1.866,-0.554 -1.902,-1.115 0.152,-0.568 0.924,-0.795 2.319,-0.682 1.232,0.176 1.857,0.553 1.875,1.132 -0.15,0.555 -0.914,0.776 -2.292,0.665"
       style="fill:#4c4b52;fill-opacity:1;fill-rule:evenodd;stroke:none"
       transform="matrix(0.35277776,0,0,-0.35277776,183.26629,158.43563)"
       clip-path="url(#clipPath3044)" />
    <path
       id="path3045"
       d="M 0,0 0.012,-0.043 C 0.352,-0.057 0.558,-0.073 0.634,-0.09 0.73,-0.118 0.788,-0.166 0.807,-0.238 L 0.918,-0.642 C 0.937,-0.714 0.865,-0.772 0.701,-0.817 L -2.21,-1.613 c -0.181,-0.05 -0.3,-0.067 -0.357,-0.052 -0.055,0.008 -0.096,0.062 -0.123,0.161 l -0.026,0.096 -0.124,-0.034 0.218,-0.799 0.125,0.034 -0.009,0.032 c -0.062,0.158 0.074,0.276 0.407,0.352 l 2.786,0.762 c 0.295,0.089 0.45,0.07 0.467,-0.056 L 1.18,-1.212 1.303,-1.179 0.968,0.047 Z"
       style="fill:#4c4b52;fill-opacity:1;fill-rule:evenodd;stroke:none"
       transform="matrix(0.35277776,0,0,-0.35277776,183.39124,157.73272)"
       clip-path="url(#clipPath3046)" />
    <path
       id="path3047"
       d="m 0,0 c -0.208,-0.149 -0.357,-0.17 -0.45,-0.064 l -0.085,-0.058 0.426,-0.631 0.085,0.057 -0.061,0.092 c -0.101,0.118 -10e-4,0.275 0.3,0.469 L 0.893,0.323 C 1.12,0.29 1.271,0.219 1.346,0.109 1.507,-0.342 1.106,-0.906 0.144,-1.583 -0.932,-2.274 -1.63,-2.444 -1.951,-2.092 c -0.177,0.263 0.012,0.622 0.569,1.078 l -0.031,0.046 -0.869,-0.587 0.019,-0.028 c 0.04,10e-4 0.067,-0.007 0.079,-0.026 0.008,-0.012 0.011,-0.046 0.007,-0.102 0,-0.213 0.04,-0.378 0.118,-0.493 0.394,-0.463 1.185,-0.324 2.372,0.416 1.049,0.762 1.438,1.389 1.167,1.881 -0.189,0.219 -0.428,0.36 -0.717,0.423 z"
       style="fill:#4c4b52;fill-opacity:1;fill-rule:evenodd;stroke:none"
       transform="matrix(0.35277776,0,0,-0.35277776,182.65806,156.54238)"
       clip-path="url(#clipPath3048)" />
    <path
       id="path3049"
       d="m 0,0 -1.012,-1.364 c -0.103,-0.146 -0.183,-0.222 -0.242,-0.231 -0.049,-0.019 -0.108,0.014 -0.176,0.102 l -0.101,-0.079 0.462,-0.593 0.102,0.079 c -0.055,0.07 -0.071,0.146 -0.049,0.228 0.027,0.077 0.118,0.223 0.274,0.439 L 0.404,0.105 1.13,0.671 C 1.381,0.876 1.547,0.912 1.629,0.78 L 1.663,0.736 1.764,0.815 1.288,1.425 1.187,1.346 1.208,1.32 C 1.32,1.202 1.24,1.042 0.967,0.838 L 0.201,0.241 -1.543,-0.517 c -0.314,-0.152 -0.521,-0.163 -0.62,-0.035 l -0.102,-0.079 0.394,-0.506 0.102,0.079 c -0.059,0.076 -0.069,0.143 -0.029,0.202 0.041,0.06 0.141,0.124 0.303,0.194 z"
       style="fill:#4c4b52;fill-opacity:1;fill-rule:evenodd;stroke:none"
       transform="matrix(0.35277776,0,0,-0.35277776,182.16477,156.28531)"
       clip-path="url(#clipPath3050)" />
    <path
       id="path3051"
       d="M 0,0 C 1.113,0.475 1.774,0.547 1.983,0.217 2.08,-0.237 1.546,-0.746 0.38,-1.311 -0.724,-1.768 -1.379,-1.834 -1.585,-1.509 -1.695,-1.068 -1.167,-0.565 0,0 m -0.287,0.133 c -1.114,-0.555 -1.602,-1.106 -1.462,-1.651 0.321,-0.492 1.126,-0.468 2.416,0.073 1.116,0.55 1.594,1.103 1.431,1.659 -0.316,0.48 -1.111,0.453 -2.385,-0.081"
       style="fill:#4c4b52;fill-opacity:1;fill-rule:evenodd;stroke:none"
       transform="matrix(0.35277776,0,0,-0.35277776,182.85202,157.27326)"
       clip-path="url(#clipPath3052)" />
  </g>
</svg>
