<?xml version="1.0" encoding="UTF-8" standalone="no"?>
<!-- Created with Inkscape (http://www.inkscape.org/) -->

<svg
   width="12.284327mm"
   height="13.802549mm"
   viewBox="0 0 12.284327 13.802549"
   version="1.1"
   id="svg1"
   xmlns="http://www.w3.org/2000/svg"
   xmlns:svg="http://www.w3.org/2000/svg">
  <defs
     id="defs1">
    <clipPath
       clipPathUnits="userSpaceOnUse"
       id="clipPath3748">
      <path
         d="M 0,858.898 H 1207.558 V 0 H 0 Z"
         transform="translate(-455.00581,-104.448)"
         id="path3748" />
    </clipPath>
  </defs>
  <g
     id="layer1"
     transform="translate(-146.94396,-196.49439)">
    <path
       id="path3747"
       d="M 0,0 C 0.274,0.22 0.562,0.432 0.773,0.717 0.793,0.391 0.747,0.065 0.791,-0.259 0.782,-1.695 0.879,-3.134 0.776,-4.569 0.715,-5.069 0.74,-5.574 0.681,-6.074 0.64,-6.471 0.586,-6.868 0.471,-7.251 0.402,-7.728 0.045,-8.085 -0.263,-8.428 c -0.554,-0.556 -1.182,-1.032 -1.825,-1.48 -0.85,-0.594 -1.758,-1.099 -2.611,-1.688 -0.731,-0.476 -1.443,-0.984 -2.083,-1.579 -0.2,-0.197 -0.423,-0.403 -0.508,-0.679 0.223,-0.011 0.421,0.106 0.617,0.196 0.567,0.271 1.069,0.656 1.623,0.949 0.32,0.237 0.675,0.421 1.012,0.632 0.215,0.141 0.459,0.234 0.662,0.395 0.475,0.288 0.957,0.564 1.431,0.852 0.353,0.21 0.72,0.398 1.045,0.65 0.311,0.222 0.59,0.485 0.892,0.718 0.077,0.074 0.144,0.156 0.224,0.227 0.177,0.145 0.278,0.354 0.424,0.526 -0.102,-0.75 -0.242,-1.498 -0.265,-2.256 -0.033,-0.206 0.014,-0.412 0.039,-0.616 -0.004,-0.967 -0.207,-1.93 -0.568,-2.826 -0.281,-0.649 -0.635,-1.281 -1.133,-1.79 -0.229,-0.247 -0.472,-0.48 -0.729,-0.697 -0.755,-0.447 -1.511,-0.891 -2.27,-1.332 -0.153,-0.092 -0.306,-0.182 -0.468,-0.258 -0.509,-0.329 -1.038,-0.627 -1.565,-0.928 -0.423,-0.266 -0.865,-0.5 -1.291,-0.763 -0.164,-0.098 -0.344,-0.166 -0.496,-0.284 -0.563,-0.342 -1.141,-0.66 -1.705,-1.001 -0.723,-0.408 -1.434,-0.84 -2.169,-1.227 -0.24,-0.213 -0.516,-0.385 -0.721,-0.637 -0.158,-0.206 -0.357,-0.424 -0.329,-0.704 0.161,-0.111 0.354,-0.047 0.526,-0.001 0.356,0.111 0.66,0.334 0.975,0.526 3.066,1.846 6.12,3.71 9.168,5.585 0.411,0.218 0.815,0.453 1.182,0.74 0.256,0.243 0.554,0.47 0.683,0.81 0.011,-0.311 0.051,-0.619 0.037,-0.93 0.231,0.179 0.401,0.419 0.593,0.637 0.264,0.285 0.528,0.571 0.789,0.859 0.701,0.687 1.367,1.412 2.104,2.062 0.329,0.307 0.722,0.53 1.065,0.818 0.217,0.183 0.443,0.355 0.682,0.509 0.624,0.546 1.31,1.014 1.987,1.491 0.671,0.462 1.343,0.923 2.035,1.352 0.447,0.286 0.908,0.554 1.4,0.755 1.249,0.713 2.509,1.417 3.839,1.969 0.381,0.163 0.772,0.298 1.154,0.457 0.013,-0.326 -0.027,-0.651 -0.052,-0.976 -0.079,-0.406 -0.036,-0.822 -0.08,-1.23 -0.045,-0.656 -0.105,-1.314 -0.198,-1.962 -0.017,-0.182 0.006,-0.37 -0.047,-0.547 -0.021,-0.819 -0.113,-1.636 -0.276,-2.439 -0.003,-0.062 0.001,-0.124 0.013,-0.186 -0.041,-0.118 -0.053,-0.242 -0.088,-0.361 -0.106,-0.231 -0.254,-0.443 -0.44,-0.616 -0.263,-0.33 -0.573,-0.626 -0.932,-0.852 -0.36,-0.353 -0.784,-0.632 -1.21,-0.898 -0.168,-0.151 -0.372,-0.244 -0.576,-0.333 -0.962,-0.634 -1.904,-1.304 -2.918,-1.854 -0.195,-0.114 -0.423,-0.173 -0.596,-0.322 -0.143,-0.188 -0.221,-0.414 -0.344,-0.615 -0.063,-0.103 -0.126,-0.207 -0.169,-0.32 1.368,0.702 2.694,1.48 4.037,2.227 0.667,0.375 1.318,0.779 1.951,1.207 0.507,0.358 1.043,0.705 1.426,1.203 -0.007,-0.241 -0.044,-0.48 -0.086,-0.716 -0.114,-0.304 -0.087,-0.636 -0.143,-0.952 -0.217,-1.298 -0.491,-2.591 -0.911,-3.84 -0.215,-0.62 -0.481,-1.227 -0.868,-1.761 -0.485,-0.524 -1.106,-0.891 -1.719,-1.248 -0.063,-0.034 -0.131,-0.058 -0.196,-0.088 -0.512,-0.348 -1.097,-0.569 -1.632,-0.877 -0.397,-0.229 -0.791,-0.463 -1.187,-0.692 -0.152,-0.087 -0.297,-0.194 -0.472,-0.224 -0.296,-0.267 -0.668,-0.424 -1.002,-0.636 -1.088,-0.636 -2.178,-1.264 -3.263,-1.905 -0.161,-0.103 -0.348,-0.161 -0.499,-0.281 -0.326,-0.251 -0.634,-0.526 -0.92,-0.823 -0.138,-0.146 -0.242,-0.341 -0.213,-0.548 0.09,-0.002 0.188,-0.028 0.274,0.014 0.27,0.109 0.492,0.307 0.697,0.509 0.097,0.093 0.223,0.145 0.339,0.211 0.531,0.294 1.065,0.583 1.599,0.872 0.173,0.09 0.337,0.203 0.528,0.256 0.969,0.539 1.959,1.047 2.916,1.61 0.557,0.317 1.11,0.64 1.676,0.94 0.506,0.208 0.937,0.554 1.399,0.84 0.409,0.243 0.772,0.554 1.189,0.785 0.129,0.08 0.234,0.195 0.366,0.272 0.164,0.089 0.291,0.23 0.441,0.34 0.179,0.135 0.345,0.286 0.493,0.455 -0.142,-0.438 -0.213,-0.904 -0.416,-1.319 -0.231,-0.919 -0.586,-1.803 -0.937,-2.683 -0.358,-0.89 -0.785,-1.75 -1.256,-2.585 -0.108,-0.179 -0.249,-0.335 -0.35,-0.52 -0.141,-0.17 -0.205,-0.392 -0.366,-0.546 -0.098,-0.089 -0.166,-0.201 -0.236,-0.31 -0.166,-0.214 -0.358,-0.406 -0.547,-0.6 -0.748,-1.093 -1.679,-2.051 -2.692,-2.898 -1.032,-0.846 -2.125,-1.632 -3.334,-2.207 -0.336,-0.192 -0.685,-0.357 -1.037,-0.513 -0.183,-0.04 -0.339,-0.145 -0.507,-0.219 -1.024,-0.364 -2.064,-0.68 -3.116,-0.953 -0.235,-0.072 -0.487,-0.065 -0.718,-0.155 -0.428,-0.102 -0.867,-0.155 -1.307,-0.15 -0.227,0.421 -0.367,0.881 -0.547,1.323 -0.231,0.657 -0.433,1.323 -0.603,1.998 -0.086,0.365 -0.194,0.73 -0.183,1.109 l -0.034,-0.005 c -0.078,0.227 -0.116,0.464 -0.157,0.7 -0.297,1.834 -0.383,3.704 -0.184,5.553 0.12,0.821 0.176,1.652 0.351,2.465 0.04,0.176 0.079,0.353 0.162,0.514 -0.71,-0.644 -1.425,-1.283 -2.156,-1.903 -0.55,-0.481 -1.149,-0.9 -1.731,-1.342 -1.495,-1.092 -3.067,-2.086 -4.727,-2.912 -0.13,-0.068 -0.273,-0.103 -0.42,-0.106 l 0.03,-0.036 c -0.129,-0.025 -0.196,-0.164 -0.327,-0.189 -0.222,-0.043 -0.397,-0.192 -0.608,-0.266 -0.143,-0.073 -0.303,-0.097 -0.455,-0.144 -0.27,-0.151 -0.567,-0.278 -0.881,-0.279 l 0.019,-0.045 c -0.039,0.002 -0.117,0.005 -0.156,0.006 l 0.012,-0.039 c -0.118,-0.02 -0.215,-0.097 -0.328,-0.132 -0.206,-0.076 -0.433,-0.068 -0.637,-0.148 -0.244,-0.107 -0.513,-0.127 -0.769,-0.192 -0.889,1.673 -1.429,3.516 -1.736,5.38 -0.52,3.177 -0.196,6.48 0.907,9.502 0.105,0.214 0.149,0.45 0.251,0.665 0.138,0.312 0.247,0.639 0.431,0.928 0.038,0.083 0.055,0.173 0.09,0.257 0.455,0.905 0.927,1.809 1.505,2.644 0.829,1.241 1.752,2.42 2.783,3.499 0.361,0.371 0.708,0.756 1.08,1.117 0.31,0.345 0.638,0.675 0.984,0.984 0.53,0.538 1.094,1.042 1.658,1.544 0.637,0.544 1.274,1.09 1.964,1.564 0.547,0.43 1.151,0.78 1.757,1.121 0.48,0.239 0.959,0.49 1.475,0.647 0.951,0.423 1.882,0.893 2.777,1.424 0.142,0.063 0.273,0.147 0.394,0.245 0.457,0.3 0.899,0.623 1.332,0.957"
       style="fill:#396c39;fill-opacity:1;fill-rule:nonzero;stroke:none"
       transform="matrix(0.35277776,0,0,-0.35277776,153.86907,196.74733)"
       clip-path="url(#clipPath3748)" />
  </g>
</svg>
