<?xml version="1.0" encoding="UTF-8" standalone="no"?>
<!-- Created with Inkscape (http://www.inkscape.org/) -->

<svg
   width="12.000437mm"
   height="12.000091mm"
   viewBox="0 0 12.000437 12.000091"
   version="1.1"
   id="svg1"
   xmlns="http://www.w3.org/2000/svg"
   xmlns:svg="http://www.w3.org/2000/svg">
  <defs
     id="defs1">
    <clipPath
       clipPathUnits="userSpaceOnUse"
       id="clipPath901">
      <path
         d="M 0,858.898 H 1207.558 V 0 H 0 Z"
         transform="translate(-214.30281,-386.83431)"
         id="path901" />
    </clipPath>
  </defs>
  <g
     id="layer1"
     transform="translate(-59.3853,-88.904115)">
    <path
       id="path900"
       d="m 0,0 c 0,-0.114 -0.098,-0.209 -0.214,-0.209 h -2.763 c -0.118,0 -0.214,0.095 -0.214,0.209 v 12.605 c 0,0.116 0.096,0.21 0.214,0.21 h 2.763 C -0.098,12.815 0,12.721 0,12.605 Z m -5.688,0 c 0,-0.114 -0.097,-0.209 -0.214,-0.209 h -2.762 c -0.118,0 -0.215,0.095 -0.215,0.209 v 0.028 6.517 c -0.002,1.143 -0.068,2.317 -0.658,2.907 -0.507,0.509 -1.453,0.626 -2.437,0.65 h -5.005 c -0.118,0 -0.213,-0.095 -0.213,-0.209 V 0.684 0 c 0,-0.114 -0.098,-0.209 -0.217,-0.209 h -2.762 c -0.118,0 -0.213,0.095 -0.213,0.209 v 12.605 c 0,0.116 0.095,0.21 0.213,0.21 h 7.972 c 2.083,0 4.261,-0.095 5.335,-1.17 1.079,-1.081 1.176,-3.255 1.176,-5.341 z m -5.68,0 c 0,-0.114 -0.096,-0.209 -0.213,-0.209 h -2.901 c -0.119,0 -0.215,0.095 -0.215,0.209 v 7.586 c 0,0.115 0.096,0.209 0.215,0.209 h 2.901 c 0.117,0 0.213,-0.094 0.213,-0.209 z M 3.347,19.758 c -3.21,3.196 -7.824,3.553 -13.463,3.553 -5.646,0 -10.267,-0.361 -13.476,-3.566 -3.207,-3.204 -3.533,-7.819 -3.533,-13.458 0,-5.64 0.326,-10.256 3.535,-13.461 3.208,-3.206 7.828,-3.531 13.474,-3.531 5.645,0 10.266,0.325 13.474,3.531 3.208,3.206 3.534,7.821 3.534,13.461 0,5.647 -0.33,10.266 -3.545,13.471"
       style="fill:#f25726;fill-opacity:1;fill-rule:nonzero;stroke:none"
       transform="matrix(0.35277776,0,0,-0.35277776,68.954401,97.127721)"
       clip-path="url(#clipPath901)" />
  </g>
</svg>
