<?xml version="1.0" encoding="UTF-8" standalone="no"?>
<!-- Created with Inkscape (http://www.inkscape.org/) -->

<svg
   width="22.072243mm"
   height="8.265234mm"
   viewBox="0 0 22.072243 8.265234"
   version="1.1"
   id="svg1"
   xmlns="http://www.w3.org/2000/svg"
   xmlns:svg="http://www.w3.org/2000/svg">
  <defs
     id="defs1">
    <clipPath
       clipPathUnits="userSpaceOnUse"
       id="clipPath899">
      <path
         d="M 0,858.898 H 1207.558 V 0 H 0 Z"
         transform="translate(-86.098402,-384.25291)"
         id="path899" />
    </clipPath>
  </defs>
  <g
     id="layer1"
     transform="translate(-17.394378,-91.183205)">
    <path
       id="path898"
       d="m 0,0 v 0 c -1.975,0 -3.574,1.6 -3.574,3.574 0,1.974 1.599,3.574 3.574,3.574 1.973,0 3.574,-1.6 3.574,-3.574 C 3.574,1.6 1.973,0 0,0 M 18.505,-3.613 H 17.974 L 12.656,5.129 V -3.613 H 8.778 V 10.63 h 0.531 3.347 0.53 l 5.319,-8.743 v 8.743 h 3.877 V -3.613 h -0.531 z m 16.232,5.984 h -3.596 v 2.524 h 3.549 3.78 0.126 c 0.076,-0.429 0.115,-0.871 0.115,-1.321 0,-4.181 -3.388,-7.571 -7.57,-7.571 -4.18,0 -7.571,3.39 -7.571,7.571 0,4.181 3.391,7.571 7.571,7.571 3.205,0 5.946,-1.993 7.05,-4.807 h -4.462 c -0.677,0.635 -1.586,1.026 -2.588,1.026 -2.094,0 -3.79,-1.697 -3.79,-3.79 0,-2.094 1.696,-3.791 3.79,-3.791 1.673,0 3.093,1.084 3.596,2.588 m 9.88,12.656 h -4.422 v 4.405 h 4.422 z m 0,-18.996 h -4.422 v 14.666 h 4.422 z M 0,11.145 c -4.182,0 -7.571,-3.39 -7.571,-7.571 0,-1.137 0.251,-2.214 0.699,-3.182 h -6.677 V 10.63 H -17.95 V 0.392 -3.613 h 4.401 5.128 l 2.002,3.171 C -5.08,-2.577 -2.707,-3.997 0,-3.997 c 4.181,0 7.57,3.39 7.57,7.571 0,4.181 -3.389,7.571 -7.57,7.571"
       style="fill:#da2226;fill-opacity:1;fill-rule:evenodd;stroke:none"
       transform="matrix(0.35277776,0,0,-0.35277776,23.726739,98.038382)"
       clip-path="url(#clipPath899)" />
  </g>
</svg>
