<?xml version="1.0" encoding="UTF-8" standalone="no"?>
<!-- Created with Inkscape (http://www.inkscape.org/) -->

<svg
   width="13.802436mm"
   height="13.80242mm"
   viewBox="0 0 13.802436 13.80242"
   version="1.1"
   id="svg1"
   xmlns="http://www.w3.org/2000/svg"
   xmlns:svg="http://www.w3.org/2000/svg">
  <defs
     id="defs1">
    <clipPath
       clipPathUnits="userSpaceOnUse"
       id="clipPath3252">
      <path
         d="M 0,858.898 H 1207.558 V 0 H 0 Z"
         transform="translate(-280.1481,-168.2156)"
         id="path3252" />
    </clipPath>
    <clipPath
       clipPathUnits="userSpaceOnUse"
       id="clipPath3254">
      <path
         d="M 0,858.898 H 1207.558 V 0 H 0 Z"
         transform="translate(-273.2769,-141.0962)"
         id="path3254" />
    </clipPath>
    <clipPath
       clipPathUnits="userSpaceOnUse"
       id="clipPath3256">
      <path
         d="M 0,858.898 H 1207.558 V 0 H 0 Z"
         transform="translate(-263.39601,-142.90301)"
         id="path3256" />
    </clipPath>
    <clipPath
       clipPathUnits="userSpaceOnUse"
       id="clipPath3258">
      <path
         d="M 0,858.898 H 1207.558 V 0 H 0 Z"
         transform="translate(-264.68391,-140.205)"
         id="path3258" />
    </clipPath>
    <clipPath
       clipPathUnits="userSpaceOnUse"
       id="clipPath3260">
      <path
         d="M 0,858.898 H 1207.558 V 0 H 0 Z"
         transform="translate(-266.29601,-138.051)"
         id="path3260" />
    </clipPath>
    <clipPath
       clipPathUnits="userSpaceOnUse"
       id="clipPath3262">
      <path
         d="M 0,858.898 H 1207.558 V 0 H 0 Z"
         transform="translate(-269.00591,-135.40001)"
         id="path3262" />
    </clipPath>
    <clipPath
       clipPathUnits="userSpaceOnUse"
       id="clipPath3264">
      <path
         d="M 0,858.898 H 1207.558 V 0 H 0 Z"
         transform="translate(-271.52631,-135.6515)"
         id="path3264" />
    </clipPath>
    <clipPath
       clipPathUnits="userSpaceOnUse"
       id="clipPath3266">
      <path
         d="M 0,858.898 H 1207.558 V 0 H 0 Z"
         transform="translate(-273.58071,-132.7977)"
         id="path3266" />
    </clipPath>
    <clipPath
       clipPathUnits="userSpaceOnUse"
       id="clipPath3268">
      <path
         d="M 0,858.898 H 1207.558 V 0 H 0 Z"
         transform="translate(-276.1473,-132.0306)"
         id="path3268" />
    </clipPath>
    <clipPath
       clipPathUnits="userSpaceOnUse"
       id="clipPath3270">
      <path
         d="M 0,858.898 H 1207.558 V 0 H 0 Z"
         transform="translate(-281.2332,-132.87371)"
         id="path3270" />
    </clipPath>
    <clipPath
       clipPathUnits="userSpaceOnUse"
       id="clipPath3272">
      <path
         d="M 0,858.898 H 1207.558 V 0 H 0 Z"
         transform="translate(-283.8432,-132.17981)"
         id="path3272" />
    </clipPath>
    <clipPath
       clipPathUnits="userSpaceOnUse"
       id="clipPath3274">
      <path
         d="M 0,858.898 H 1207.558 V 0 H 0 Z"
         transform="translate(-285.24051,-132.5702)"
         id="path3274" />
    </clipPath>
    <clipPath
       clipPathUnits="userSpaceOnUse"
       id="clipPath3276">
      <path
         d="M 0,858.898 H 1207.558 V 0 H 0 Z"
         transform="translate(-286.53551,-137.0594)"
         id="path3276" />
    </clipPath>
    <clipPath
       clipPathUnits="userSpaceOnUse"
       id="clipPath3278">
      <path
         d="M 0,858.898 H 1207.558 V 0 H 0 Z"
         transform="translate(-290.3817,-134.84201)"
         id="path3278" />
    </clipPath>
    <clipPath
       clipPathUnits="userSpaceOnUse"
       id="clipPath3280">
      <path
         d="M 0,858.898 H 1207.558 V 0 H 0 Z"
         transform="translate(-289.95731,-138.4556)"
         id="path3280" />
    </clipPath>
    <clipPath
       clipPathUnits="userSpaceOnUse"
       id="clipPath3282">
      <path
         d="M 0,858.898 H 1207.558 V 0 H 0 Z"
         transform="translate(-293.58161,-139.2783)"
         id="path3282" />
    </clipPath>
    <clipPath
       clipPathUnits="userSpaceOnUse"
       id="clipPath3284">
      <path
         d="M 0,858.898 H 1207.558 V 0 H 0 Z"
         transform="translate(-295.23021,-139.763)"
         id="path3284" />
    </clipPath>
    <clipPath
       clipPathUnits="userSpaceOnUse"
       id="clipPath3286">
      <path
         d="M 0,858.898 H 1207.558 V 0 H 0 Z"
         transform="translate(-293.60411,-143.8389)"
         id="path3286" />
    </clipPath>
    <clipPath
       clipPathUnits="userSpaceOnUse"
       id="clipPath3288">
      <path
         d="M 0,858.898 H 1207.558 V 0 H 0 Z"
         transform="translate(-294.16241,-146.35301)"
         id="path3288" />
    </clipPath>
    <clipPath
       clipPathUnits="userSpaceOnUse"
       id="clipPath3290">
      <path
         d="M 0,858.898 H 1207.558 V 0 H 0 Z"
         transform="translate(-268.72161,-137.0654)"
         id="path3290" />
    </clipPath>
    <clipPath
       clipPathUnits="userSpaceOnUse"
       id="clipPath3292">
      <path
         d="M 0,858.898 H 1207.558 V 0 H 0 Z"
         transform="translate(-285.76071,-140.4227)"
         id="path3292" />
    </clipPath>
    <clipPath
       clipPathUnits="userSpaceOnUse"
       id="clipPath3294">
      <path
         d="M 0,858.898 H 1207.558 V 0 H 0 Z"
         transform="translate(-286.53051,-159.96011)"
         id="path3294" />
    </clipPath>
    <clipPath
       clipPathUnits="userSpaceOnUse"
       id="clipPath3296">
      <path
         d="M 0,858.898 H 1207.558 V 0 H 0 Z"
         transform="translate(-283.24671,-161.24531)"
         id="path3296" />
    </clipPath>
    <clipPath
       clipPathUnits="userSpaceOnUse"
       id="clipPath3298">
      <path
         d="M 0,858.898 H 1207.558 V 0 H 0 Z"
         transform="translate(-273.71741,-158.45921)"
         id="path3298" />
    </clipPath>
    <clipPath
       clipPathUnits="userSpaceOnUse"
       id="clipPath3300">
      <path
         d="M 0,858.898 H 1207.558 V 0 H 0 Z"
         transform="translate(-276.8508,-162.4982)"
         id="path3300" />
    </clipPath>
    <clipPath
       clipPathUnits="userSpaceOnUse"
       id="clipPath3302">
      <path
         d="M 0,858.898 H 1207.558 V 0 H 0 Z"
         transform="translate(-273.24651,-162.02711)"
         id="path3302" />
    </clipPath>
    <clipPath
       clipPathUnits="userSpaceOnUse"
       id="clipPath3304">
      <path
         d="M 0,858.898 H 1207.558 V 0 H 0 Z"
         transform="translate(-276.2862,-163.5923)"
         id="path3304" />
    </clipPath>
    <clipPath
       clipPathUnits="userSpaceOnUse"
       id="clipPath3306">
      <path
         d="M 0,858.898 H 1207.558 V 0 H 0 Z"
         transform="translate(-273.12941,-163.919)"
         id="path3306" />
    </clipPath>
    <clipPath
       clipPathUnits="userSpaceOnUse"
       id="clipPath3308">
      <path
         d="M 0,858.898 H 1207.558 V 0 H 0 Z"
         transform="translate(-268.32011,-151.02431)"
         id="path3308" />
    </clipPath>
    <clipPath
       clipPathUnits="userSpaceOnUse"
       id="clipPath3310">
      <path
         d="M 0,858.898 H 1207.558 V 0 H 0 Z"
         transform="translate(-265.6647,-153.542)"
         id="path3310" />
    </clipPath>
    <clipPath
       clipPathUnits="userSpaceOnUse"
       id="clipPath3312">
      <path
         d="M 0,858.898 H 1207.558 V 0 H 0 Z"
         transform="translate(-264.52821,-154.8213)"
         id="path3312" />
    </clipPath>
    <clipPath
       clipPathUnits="userSpaceOnUse"
       id="clipPath3314">
      <path
         d="M 0,858.898 H 1207.558 V 0 H 0 Z"
         transform="translate(-289.33241,-154.2048)"
         id="path3314" />
    </clipPath>
    <clipPath
       clipPathUnits="userSpaceOnUse"
       id="clipPath3316">
      <path
         d="M 0,858.898 H 1207.558 V 0 H 0 Z"
         transform="translate(-294.71601,-156.198)"
         id="path3316" />
    </clipPath>
    <clipPath
       clipPathUnits="userSpaceOnUse"
       id="clipPath3318">
      <path
         d="M 0,858.898 H 1207.558 V 0 H 0 Z"
         transform="translate(-292.68491,-157.0368)"
         id="path3318" />
    </clipPath>
    <clipPath
       clipPathUnits="userSpaceOnUse"
       id="clipPath3320">
      <path
         d="M 0,858.898 H 1207.558 V 0 H 0 Z"
         transform="translate(-292.68491,-157.0464)"
         id="path3320" />
    </clipPath>
    <clipPath
       clipPathUnits="userSpaceOnUse"
       id="clipPath3322">
      <path
         d="M 0,858.898 H 1207.558 V 0 H 0 Z"
         transform="translate(-291.63581,-157.3065)"
         id="path3322" />
    </clipPath>
    <clipPath
       clipPathUnits="userSpaceOnUse"
       id="clipPath3324">
      <path
         d="M 0,858.898 H 1207.558 V 0 H 0 Z"
         transform="translate(-291.63581,-157.31651)"
         id="path3324" />
    </clipPath>
  </defs>
  <g
     id="layer1"
     transform="translate(-85.282112,-173.97602)">
    <path
       id="path3251"
       d="m 0,0 c -10.344,0 -18.782,-8.437 -18.782,-18.782 0,-10.345 8.438,-18.782 18.782,-18.782 10.345,0 18.783,8.437 18.783,18.782 C 18.783,-8.437 10.345,0 0,0 m 0,0.781 c 10.775,0 19.563,-8.788 19.563,-19.563 0,-10.774 -8.788,-19.562 -19.563,-19.562 -10.774,0 -19.562,8.788 -19.562,19.562 0,10.775 8.788,19.563 19.562,19.563"
       style="fill:#184285;fill-opacity:1;fill-rule:nonzero;stroke:none"
       transform="matrix(0.35277776,0,0,-0.35277776,92.183159,174.25154)"
       clip-path="url(#clipPath3252)" />
    <path
       id="path3253"
       d="m 0,0 c -1.224,1.013 -2.225,2.288 -2.911,3.739 -0.661,1.397 -1.03,2.955 -1.03,4.598 0,5.956 4.858,10.813 10.812,10.813 5.955,0 10.813,-4.857 10.813,-10.813 0,-1.643 -0.371,-3.201 -1.031,-4.598 C 15.967,2.288 14.966,1.013 13.742,0 l -0.247,0.3 c 1.181,0.976 2.145,2.206 2.807,3.605 0.635,1.345 0.992,2.849 0.992,4.432 0,5.741 -4.682,10.423 -10.423,10.423 C 1.131,18.76 -3.55,14.078 -3.55,8.337 -3.55,6.754 -3.194,5.25 -2.559,3.905 -1.897,2.506 -0.934,1.276 0.249,0.3 Z"
       style="fill:#184285;fill-opacity:1;fill-rule:nonzero;stroke:none"
       transform="matrix(0.35277776,0,0,-0.35277776,89.759152,183.81866)"
       clip-path="url(#clipPath3254)" />
    <path
       id="path3255"
       d="M 0,0 -0.737,1.98 -0.334,2.12 3.048,1.605 2.531,2.993 2.933,3.133 3.608,1.32 3.204,1.181 -0.176,1.695 0.402,0.141 Z"
       style="fill:#184285;fill-opacity:1;fill-rule:evenodd;stroke:none"
       transform="matrix(0.35277776,0,0,-0.35277776,86.273391,183.18126)"
       clip-path="url(#clipPath3256)" />
    <path
       id="path3257"
       d="M 0,0 -0.203,0.394 1.387,1.213 0.882,2.193 -0.708,1.376 -0.911,1.771 2.488,3.519 2.691,3.124 1.26,2.388 1.763,1.408 3.196,2.143 3.4,1.748 Z"
       style="fill:#184285;fill-opacity:1;fill-rule:evenodd;stroke:none"
       transform="matrix(0.35277776,0,0,-0.35277776,86.727734,184.13306)"
       clip-path="url(#clipPath3258)" />
    <path
       id="path3259"
       d="M 0,0 -1.208,1.687 1.979,3.667 3.13,2.063 2.776,1.843 1.899,3.066 0.91,2.452 1.716,1.328 1.361,1.108 0.556,2.232 -0.581,1.527 0.354,0.22 Z"
       style="fill:#184285;fill-opacity:1;fill-rule:evenodd;stroke:none"
       transform="matrix(0.35277776,0,0,-0.35277776,87.296447,184.89294)"
       clip-path="url(#clipPath3260)" />
    <path
       id="path3261"
       d="M 0,0 -0.404,0.342 1.942,3.224 2.347,2.883 Z"
       style="fill:#184285;fill-opacity:1;fill-rule:evenodd;stroke:none"
       transform="matrix(0.35277776,0,0,-0.35277776,88.25244,185.82815)"
       clip-path="url(#clipPath3262)" />
    <path
       id="path3263"
       d="M 0,0 0.573,1.318 0.52,1.362 -0.471,0.352 Z m -0.702,-1.521 0.48,1.022 -0.584,0.422 -0.866,-0.844 -0.398,0.306 2.752,2.717 0.552,-0.336 -1.465,-3.553 z"
       style="fill:#184285;fill-opacity:1;fill-rule:evenodd;stroke:none"
       transform="matrix(0.35277776,0,0,-0.35277776,89.14158,185.73943)"
       clip-path="url(#clipPath3264)" />
    <path
       id="path3265"
       d="m 0,0 -0.496,0.232 0.29,2.65 L -1.294,0.653 -1.789,0.881 -0.065,4.294 0.383,4.087 0.175,1.568 1.296,3.648 1.712,3.476 Z"
       style="fill:#184285;fill-opacity:1;fill-rule:evenodd;stroke:none"
       transform="matrix(0.35277776,0,0,-0.35277776,89.866327,186.74619)"
       clip-path="url(#clipPath3266)" />
    <path
       id="path3267"
       d="m 0,0 -0.321,0.105 0.03,0.301 C -0.365,0.341 -0.465,0.301 -0.588,0.283 -0.712,0.263 -0.837,0.274 -0.963,0.316 -1.228,0.402 -1.422,0.608 -1.549,0.938 -1.677,1.267 -1.651,1.723 -1.473,2.299 -1.279,2.93 -1.039,3.369 -0.755,3.616 -0.472,3.862 -0.04,4 0.342,3.878 0.752,3.747 1.018,3.242 0.902,2.542 l -0.49,0.04 C 0.495,2.881 0.452,3.349 0.16,3.444 -0.079,3.522 -0.343,3.448 -0.513,3.259 -0.681,3.071 -0.846,2.715 -1.007,2.19 -1.16,1.694 -1.203,1.332 -1.136,1.103 c 0.067,-0.23 0.185,-0.371 0.348,-0.424 0.164,-0.053 0.312,-0.031 0.446,0.066 0.133,0.094 0.242,0.28 0.325,0.548 l 0.069,0.222 -0.588,0.189 0.12,0.382 0.962,-0.312 z"
       style="fill:#184285;fill-opacity:1;fill-rule:evenodd;stroke:none"
       transform="matrix(0.35277776,0,0,-0.35277776,90.771765,187.0168)"
       clip-path="url(#clipPath3268)" />
    <path
       id="path3269"
       d="m 0,0 c -0.011,-0.344 -0.104,-0.614 -0.275,-0.809 -0.173,-0.193 -0.438,-0.285 -0.798,-0.27 -0.359,0.012 -0.619,0.123 -0.779,0.33 -0.158,0.207 -0.233,0.482 -0.223,0.827 l 0.086,2.605 0.458,-0.019 -0.085,-2.602 c -0.008,-0.246 0.041,-0.427 0.143,-0.545 0.102,-0.119 0.24,-0.181 0.413,-0.189 0.173,-0.007 0.314,0.047 0.425,0.158 0.109,0.111 0.169,0.287 0.176,0.531 l 0.085,2.604 0.459,-0.017 z"
       style="fill:#184285;fill-opacity:1;fill-rule:evenodd;stroke:none"
       transform="matrix(0.35277776,0,0,-0.35277776,92.565958,186.71938)"
       clip-path="url(#clipPath3270)" />
    <path
       id="path3271"
       d="m 0,0 -0.409,-0.064 -1.29,2.487 0.197,-2.669 -0.487,-0.07 -0.284,3.742 0.559,0.052 1.064,-1.742 -0.198,1.875 0.407,0.07 z"
       style="fill:#184285;fill-opacity:1;fill-rule:evenodd;stroke:none"
       transform="matrix(0.35277776,0,0,-0.35277776,93.486708,186.96417)"
       clip-path="url(#clipPath3272)" />
    <path
       id="path3273"
       d="m 0,0 -0.479,-0.145 -0.998,3.541 0.48,0.147 z"
       style="fill:#184285;fill-opacity:1;fill-rule:evenodd;stroke:none"
       transform="matrix(0.35277776,0,0,-0.35277776,93.979645,186.82644)"
       clip-path="url(#clipPath3274)" />
    <path
       id="path3275"
       d="m 0,0 0.605,-3.911 -0.472,-0.233 -2.072,3.32 0.455,0.192 1.441,-2.265 -0.4,2.704 z"
       style="fill:#184285;fill-opacity:1;fill-rule:evenodd;stroke:none"
       transform="matrix(0.35277776,0,0,-0.35277776,94.436493,185.24275)"
       clip-path="url(#clipPath3276)" />
    <path
       id="path3277"
       d="m 0,0 -1.748,-0.944 -1.903,3.268 1.663,0.897 0.211,-0.362 -1.269,-0.686 0.59,-1.013 1.166,0.629 0.211,-0.362 -1.165,-0.63 0.679,-1.166 1.353,0.733 z"
       style="fill:#184285;fill-opacity:1;fill-rule:evenodd;stroke:none"
       transform="matrix(0.35277776,0,0,-0.35277776,95.793345,186.025)"
       clip-path="url(#clipPath3278)" />
    <path
       id="path3279"
       d="M 0,0 C -0.284,0.077 -0.51,-0.142 -0.714,-0.302 L 0.032,-1.286 C 0.259,-1.122 0.365,-1.087 0.537,-0.79 0.611,-0.432 0.452,-0.123 0,0 M 2.415,-2.217 2.031,-2.545 0.677,-1.424 0.326,-1.741 1.242,-2.987 0.857,-3.388 -1.384,-0.241 -0.67,0.271 C -0.441,0.435 -0.141,0.553 0.131,0.52 0.828,0.437 1.126,-0.033 1.095,-0.58 1.085,-0.754 1.074,-0.921 1.006,-1.093 Z"
       style="fill:#184285;fill-opacity:1;fill-rule:evenodd;stroke:none"
       transform="matrix(0.35277776,0,0,-0.35277776,95.643628,184.75021)"
       clip-path="url(#clipPath3280)" />
    <path
       id="path3281"
       d="M 0,0 C 0.782,-0.472 0.599,-1.803 -0.427,-1.959 -0.704,-2 -1.029,-1.916 -1.168,-1.828 l 0.175,0.397 c 0.17,-0.036 0.34,-0.098 0.503,-0.067 0.667,0.127 0.637,0.818 0.249,1.105 -0.135,0.101 -0.328,0.113 -0.489,0.094 -0.448,-0.049 -0.737,-0.384 -1.236,-0.417 -0.546,-0.033 -0.927,0.3 -1.017,0.832 -0.046,0.281 0.02,0.554 0.161,0.774 0.289,0.453 0.903,0.514 1.349,0.25 L -1.646,0.729 C -1.888,0.857 -2.318,0.857 -2.478,0.603 -2.563,0.473 -2.592,0.337 -2.566,0.199 c 0.056,-0.301 0.26,-0.475 0.55,-0.439 0.485,0.059 0.812,0.457 1.29,0.442 C -0.501,0.194 -0.23,0.138 0,0"
       style="fill:#184285;fill-opacity:1;fill-rule:evenodd;stroke:none"
       transform="matrix(0.35277776,0,0,-0.35277776,96.922201,184.45998)"
       clip-path="url(#clipPath3282)" />
    <path
       id="path3283"
       d="M 0,0 -0.28,-0.346 -3.503,1.675 -3.222,2.02 Z"
       style="fill:#184285;fill-opacity:1;fill-rule:evenodd;stroke:none"
       transform="matrix(0.35277776,0,0,-0.35277776,97.503789,184.28898)"
       clip-path="url(#clipPath3284)" />
    <path
       id="path3285"
       d="m 0,0 -0.357,-0.662 3.043,-1.789 -0.204,-0.38 -3.044,1.789 -0.356,-0.66 -0.38,0.224 0.917,1.701 z"
       style="fill:#184285;fill-opacity:1;fill-rule:evenodd;stroke:none"
       transform="matrix(0.35277776,0,0,-0.35277776,96.930138,182.8511)"
       clip-path="url(#clipPath3286)" />
    <path
       id="path3287"
       d="m 0,0 1.856,-1.659 1.24,-0.531 -0.151,-0.419 -1.149,0.446 -2.644,0.061 0.128,0.424 1.845,-0.03 -1.307,1.202 z"
       style="fill:#184285;fill-opacity:1;fill-rule:evenodd;stroke:none"
       transform="matrix(0.35277776,0,0,-0.35277776,97.127094,181.96418)"
       clip-path="url(#clipPath3288)" />
    <path
       id="path3289"
       d="m 0,0 c -0.329,-0.327 -0.634,-0.496 -0.919,-0.506 -0.285,-0.009 -0.542,0.104 -0.775,0.34 -0.21,0.215 -0.314,0.464 -0.312,0.75 10e-4,0.146 0.044,0.294 0.126,0.448 L -1.461,0.776 C -1.499,0.704 -1.516,0.636 -1.518,0.569 -1.522,0.414 -1.474,0.283 -1.374,0.181 c 0.141,-0.143 0.29,-0.209 0.444,-0.196 0.155,0.014 0.345,0.129 0.566,0.352 l 1.86,1.84 0.347,-0.352 z"
       style="fill:#184285;fill-opacity:1;fill-rule:evenodd;stroke:none"
       transform="matrix(0.35277776,0,0,-0.35277776,88.152144,185.24064)"
       clip-path="url(#clipPath3290)" />
    <path
       id="path3291"
       d="m 0,0 -0.086,-2.415 -0.369,-0.232 0.032,2.282 -1.41,-0.685 -0.123,0.272 1.773,0.921 z m -5.107,-2.001 c 0,0.121 0.03,0.231 0.088,0.329 0.06,0.101 0.141,0.187 0.243,0.26 0.097,0.068 0.216,0.123 0.357,0.161 0.141,0.04 0.283,0.059 0.428,0.059 0.161,0 0.309,-0.019 0.439,-0.055 0.131,-0.036 0.244,-0.089 0.342,-0.157 0.121,-0.085 0.214,-0.198 0.281,-0.337 0.066,-0.139 0.1,-0.317 0.1,-0.529 0,-0.194 -0.033,-0.377 -0.098,-0.551 -0.065,-0.174 -0.16,-0.318 -0.288,-0.433 -0.135,-0.122 -0.298,-0.214 -0.487,-0.278 -0.19,-0.063 -0.424,-0.096 -0.702,-0.096 -0.063,0 -0.13,0.004 -0.2,0.007 -0.07,0.006 -0.138,0.015 -0.199,0.026 v 0.302 h 0.024 c 0.04,-0.015 0.101,-0.03 0.185,-0.043 0.082,-0.014 0.168,-0.02 0.253,-0.02 0.309,0 0.552,0.066 0.727,0.203 0.175,0.135 0.276,0.327 0.299,0.58 -0.126,-0.057 -0.245,-0.099 -0.358,-0.125 -0.114,-0.026 -0.239,-0.039 -0.373,-0.039 -0.131,0 -0.248,0.009 -0.356,0.028 -0.107,0.019 -0.214,0.055 -0.322,0.111 -0.128,0.063 -0.222,0.144 -0.286,0.242 -0.064,0.099 -0.097,0.216 -0.097,0.355 m 1.804,-0.201 c 0,0.16 -0.021,0.29 -0.066,0.389 -0.045,0.1 -0.104,0.177 -0.182,0.232 -0.068,0.051 -0.138,0.085 -0.21,0.104 -0.07,0.017 -0.148,0.027 -0.232,0.027 -0.196,0 -0.348,-0.045 -0.461,-0.138 -0.117,-0.092 -0.173,-0.225 -0.173,-0.401 0,-0.098 0.018,-0.18 0.055,-0.244 0.038,-0.064 0.1,-0.119 0.185,-0.164 0.058,-0.033 0.127,-0.055 0.203,-0.066 0.075,-0.011 0.156,-0.016 0.242,-0.016 0.101,0 0.209,0.011 0.325,0.035 0.117,0.023 0.218,0.055 0.304,0.093 0.002,0.017 0.005,0.037 0.006,0.062 0.003,0.026 0.004,0.056 0.004,0.087 M -7.809,-3.63 c -0.177,0.024 -0.336,0.063 -0.475,0.118 -0.139,0.055 -0.253,0.121 -0.343,0.199 -0.088,0.076 -0.148,0.161 -0.185,0.254 -0.033,0.092 -0.04,0.185 -0.022,0.281 0.026,0.124 0.102,0.232 0.227,0.324 0.123,0.09 0.29,0.152 0.499,0.187 l 0.002,0.01 c -0.162,0.09 -0.277,0.18 -0.347,0.271 -0.07,0.091 -0.09,0.195 -0.067,0.312 0.034,0.175 0.165,0.304 0.393,0.392 0.227,0.088 0.496,0.11 0.808,0.067 0.326,-0.045 0.575,-0.136 0.749,-0.274 0.173,-0.137 0.242,-0.292 0.208,-0.463 -0.02,-0.104 -0.089,-0.2 -0.203,-0.289 -0.115,-0.088 -0.265,-0.147 -0.454,-0.18 L -7.021,-2.43 c 0.195,-0.093 0.338,-0.19 0.427,-0.296 0.089,-0.104 0.12,-0.229 0.091,-0.369 -0.04,-0.198 -0.184,-0.348 -0.433,-0.451 -0.25,-0.102 -0.54,-0.13 -0.873,-0.084 m 0.808,0.574 c 0.018,0.094 0.005,0.175 -0.041,0.238 -0.047,0.065 -0.147,0.137 -0.3,0.217 -0.05,0.026 -0.119,0.057 -0.203,0.093 -0.086,0.036 -0.184,0.077 -0.29,0.124 -0.145,-0.039 -0.26,-0.093 -0.348,-0.169 -0.087,-0.072 -0.142,-0.163 -0.164,-0.269 -0.029,-0.141 0.014,-0.263 0.127,-0.372 0.111,-0.11 0.266,-0.177 0.463,-0.206 0.201,-0.027 0.371,-0.01 0.508,0.05 0.138,0.061 0.22,0.16 0.248,0.294 m 0.168,1.165 c 0.021,0.104 -0.014,0.198 -0.107,0.282 -0.095,0.084 -0.238,0.139 -0.427,0.166 -0.174,0.024 -0.324,0.013 -0.448,-0.034 -0.124,-0.046 -0.196,-0.122 -0.217,-0.228 -0.017,-0.076 0,-0.145 0.046,-0.204 0.045,-0.061 0.12,-0.122 0.226,-0.179 0.045,-0.024 0.116,-0.06 0.21,-0.105 0.097,-0.045 0.184,-0.08 0.266,-0.111 0.152,0.05 0.26,0.109 0.325,0.175 0.066,0.065 0.107,0.146 0.126,0.238 m -3.885,-0.822 -1.302,0.807 0.118,0.205 0.485,-0.299 0.774,1.348 -0.485,0.3 0.105,0.183 c 0.184,-0.113 0.33,-0.177 0.439,-0.191 0.109,-0.015 0.2,0.029 0.273,0.13 l 0.279,-0.171 -1.04,-1.814 0.471,-0.293 z"
       style="fill:#184285;fill-opacity:1;fill-rule:evenodd;stroke:none"
       transform="matrix(0.35277776,0,0,-0.35277776,94.16316,184.05626)"
       clip-path="url(#clipPath3292)" />
    <path
       id="path3293"
       d="M 0,0 C -0.284,0.137 -0.083,0.187 -0.068,0.454 -0.054,0.683 -0.201,0.947 -0.156,1.109 -0.032,1.545 0.525,1.38 0.833,1.155 0.887,1.116 0.937,1.008 0.977,0.9 1.077,0.636 1.181,0.263 0.878,0.075 0.616,-0.088 0.245,-0.12 0,0"
       style="fill:#184285;fill-opacity:1;fill-rule:evenodd;stroke:none"
       transform="matrix(0.35277776,0,0,-0.35277776,94.434728,177.1639)"
       clip-path="url(#clipPath3294)" />
    <path
       id="path3295"
       d="m 0,0 c -0.008,0.007 -0.018,0.013 -0.026,0.019 0.011,0.035 0.02,0.067 0.031,0.094 C 0.106,0.126 1.047,0.457 1.05,0.48 1.335,0.611 1.595,0.769 1.738,1.055 1.11,1.009 0.455,0.717 -0.158,0.819 c -0.264,0.139 -0.418,0.337 -0.593,0.47 0.003,0.013 0.005,0.024 0.006,0.033 -0.268,0.287 -0.23,0.56 0.148,0.591 C -0.024,1.63 1.01,1.838 1.635,1.914 1.777,1.941 2.178,1.981 2.308,2.075 2.637,2.841 2.746,3.666 2.978,4.42 3.309,4.926 3.562,4.465 3.837,4.105 3.849,4.053 3.915,3.984 3.96,3.862 3.97,3.861 3.978,3.859 3.993,3.855 4.082,3.59 4.097,3.475 3.818,3.314 3.576,2.976 3.401,2.578 3.313,2.138 3.743,2.095 4.085,2.398 4.569,2.288 4.63,2.035 4.569,1.849 4.312,1.716 3.918,1.633 3.499,1.574 3.056,1.49 2.865,1.108 2.583,0.653 2.219,0.394 2.166,0.355 1.912,0.215 1.857,0.198 1.561,0.111 1.284,-0.014 0.982,-0.025 0.145,-0.052 0.145,-0.014 0,0"
       style="fill:#184285;fill-opacity:1;fill-rule:evenodd;stroke:none"
       transform="matrix(0.35277776,0,0,-0.35277776,93.276277,176.71051)"
       clip-path="url(#clipPath3296)" />
    <path
       id="path3297"
       d="m 0,0 c -0.347,0.02 -0.752,0.271 -0.998,0.43 -0.005,0.088 -0.011,0.178 -0.007,0.265 0.488,0.79 0.984,1.544 1.369,2.408 0.074,0.368 0.201,0.772 0.293,1.141 0.006,0.008 0.017,0.02 0.03,0.026 C 0.681,4.282 0.676,4.291 0.674,4.3 0.797,4.506 0.856,4.573 1.096,4.405 1.182,4.221 0.921,3.884 0.884,3.664 0.885,3.272 0.869,2.868 0.833,2.454 0.802,2.371 0.802,2.371 0.723,1.921 0.593,1.705 0.494,1.227 0.479,0.96 0.311,0.747 0.369,0.323 0.158,0.086 0.102,0.06 0.05,0.029 0,0"
       style="fill:#184285;fill-opacity:1;fill-rule:evenodd;stroke:none"
       transform="matrix(0.35277776,0,0,-0.35277776,89.914552,177.69338)"
       clip-path="url(#clipPath3298)" />
    <path
       id="path3299"
       d="m 0,0 c -0.434,-0.148 -0.664,0.076 -0.994,0.232 -0.051,0.111 -0.01,0.205 -0.031,0.286 0.097,0.067 0.097,0.067 0.147,0.134 0.169,0.094 0.237,0.111 0.427,0.199 0.222,0.152 0.683,0.834 0.967,0.731 C 0.752,1.076 0.392,0.329 0,0"
       style="fill:#184285;fill-opacity:1;fill-rule:evenodd;stroke:none"
       transform="matrix(0.35277776,0,0,-0.35277776,91.019945,176.26851)"
       clip-path="url(#clipPath3300)" />
    <path
       id="path3301"
       d="M 0,0 C -0.219,0.079 -0.51,0.725 -0.605,0.93 -0.629,1.347 -0.264,1.506 0.14,1.389 0.514,1.161 0.735,1.093 0.625,0.612 0.433,0.245 0.309,0.176 0,0"
       style="fill:#184285;fill-opacity:1;fill-rule:evenodd;stroke:none"
       transform="matrix(0.35277776,0,0,-0.35277776,89.748429,176.4347)"
       clip-path="url(#clipPath3302)" />
    <path
       id="path3303"
       d="M 0,0 C -0.123,0.183 -0.016,0.721 -0.134,0.794 -0.233,0.737 -0.324,0.657 -0.43,0.608 c -0.306,0.023 -0.711,0.226 -0.703,0.509 0.106,0.289 0.054,0.206 0.343,0.342 0.232,0.236 0.467,0.47 0.706,0.706 C 0.361,2.441 0.684,2.266 0.898,1.808 0.933,1.47 0.824,1.152 0.72,0.834 0.52,0.595 0.35,0.352 0.178,0.109 0.115,0.074 0.057,0.036 0,0"
       style="fill:#184285;fill-opacity:1;fill-rule:evenodd;stroke:none"
       transform="matrix(0.35277776,0,0,-0.35277776,90.820766,175.88254)"
       clip-path="url(#clipPath3304)" />
    <path
       id="path3305"
       d="M 0,0 C -0.135,0.049 -0.112,0.114 -0.094,0.224 -0.184,0.417 -0.365,0.531 -0.451,0.716 -0.525,1.09 -0.642,1.19 -0.419,1.47 -0.156,1.46 0.783,1.368 0.769,0.856 0.662,0.501 0.296,0.159 0,0"
       style="fill:#184285;fill-opacity:1;fill-rule:evenodd;stroke:none"
       transform="matrix(0.35277776,0,0,-0.35277776,89.707119,175.76728)"
       clip-path="url(#clipPath3306)" />
    <path
       id="path3307"
       d="M 0,0 C -0.406,-0.28 -1.383,-0.096 -1.253,0.489 -1.31,0.545 -1.34,0.649 -1.32,0.716 -1.333,0.725 -1.342,0.729 -1.35,0.733 -1.453,1.345 -1.785,1.929 -1.965,2.507 -2.06,2.689 -2.173,2.83 -2.101,3.028 c 0.136,0.034 0.285,-0.112 0.398,-0.225 0.06,0.014 0.126,0.162 0.154,0.258 -0.044,0.406 -0.01,0.873 -0.067,1.287 -0.105,0.089 -0.209,0.181 -0.306,0.274 -0.081,-0.208 -0.345,-0.887 -0.577,-0.52 0.064,0.278 0.104,0.741 -0.053,1.021 -0.201,0.22 -0.49,0.372 -0.578,0.611 0.04,0.334 0.551,0.412 0.851,0.279 0.242,-0.019 0.238,0.435 0.512,-0.318 0.006,-0.123 0.124,-0.199 0.259,-0.269 0.021,0.027 0.043,0.054 0.064,0.081 -0.005,0.32 -0.011,0.669 0.016,1.011 -0.299,0.302 -0.552,0.555 -0.728,0.922 0,0.351 0.399,0.553 0.745,0.658 0.111,0.188 0.114,0.351 0.107,0.593 0.023,0.077 0.023,0.077 0.106,0.197 C -1.079,8.879 -0.981,8.835 -0.846,8.757 -0.572,8.4 -1.149,7.313 -0.608,7.226 -0.497,7.41 -0.649,7.602 -0.732,7.754 -0.701,8.024 -0.284,8.362 0.01,8.466 0.445,8.503 0.419,8.259 0.422,7.885 0.441,7.833 0.461,7.781 0.484,7.733 1.036,7.332 1.036,7.332 1.803,6.815 1.948,6.585 2.006,6.455 2.064,6.182 2.072,6.178 2.081,6.172 2.089,6.167 2.082,6.155 2.076,6.146 2.071,6.138 2.175,5.924 2.179,5.57 1.921,5.537 1.293,5.964 0.669,6.446 0.057,6.835 0.051,6.821 0.047,6.807 0.047,6.796 0.32,6.541 0.683,5.843 0.692,5.452 0.542,5.201 0.264,5.098 0.012,5.167 -0.032,5.234 -0.014,5.292 -0.024,5.371 -0.209,5.697 -0.748,6.009 -1.021,6.194 -1.127,5.98 -0.913,5.347 -0.847,5.087 -0.835,4.934 -0.826,4.779 -0.813,4.631 -0.628,4.401 -0.436,4.191 -0.23,3.959 -0.154,3.829 -0.076,3.697 0.004,3.565 -0.003,3.552 -0.009,3.544 -0.012,3.535 0.078,3.34 0.278,2.766 -0.096,2.764 -0.133,2.785 -0.165,2.806 -0.197,2.83 -0.315,3.127 -0.541,3.449 -0.786,3.624 -0.874,3.33 -0.762,3.021 -0.913,2.772 -1.035,2.652 -1.174,2.543 -1.283,2.484 -1.296,2.491 -1.302,2.496 -1.313,2.5 -1.389,2.467 -1.482,2.444 -1.492,2.399 -1.387,2.263 -1.277,2.124 -1.167,1.987 -0.82,1.384 -0.435,0.855 0.022,0.303 0.051,0.151 0.043,0.11 0,0"
       style="fill:#184285;fill-opacity:1;fill-rule:evenodd;stroke:none"
       transform="matrix(0.35277776,0,0,-0.35277776,88.010505,180.31625)"
       clip-path="url(#clipPath3308)" />
    <path
       id="path3309"
       d="M 0,0 C -0.159,-0.001 -0.239,0.187 -0.36,0.278 -0.795,0.401 -1.122,0.49 -1.266,0.922 -1.247,0.962 -1.225,1 -1.203,1.037 -0.975,1.121 -0.554,1.174 -0.27,1.186 0.27,1.066 0.086,0.389 0,0"
       style="fill:#184285;fill-opacity:1;fill-rule:evenodd;stroke:none"
       transform="matrix(0.35277776,0,0,-0.35277776,87.073737,179.42806)"
       clip-path="url(#clipPath3310)" />
    <path
       id="path3311"
       d="m 0,0 c -0.093,-0.068 -0.11,-0.053 -0.154,-0.048 -0.058,0.101 -0.08,0.178 -0.18,0.219 -0.481,0.012 -0.978,0.372 -0.889,0.862 0.088,0.099 0.182,0.039 0.365,-0.015 0.405,0.08 1.01,0.333 1.034,-0.317 C 0.134,0.465 0.061,0.224 0,0"
       style="fill:#184285;fill-opacity:1;fill-rule:evenodd;stroke:none"
       transform="matrix(0.35277776,0,0,-0.35277776,86.672806,178.97675)"
       clip-path="url(#clipPath3312)" />
    <path
       id="path3313"
       d="m 0,0 -4.757,0.004 c -1.387,0 -2.1,-1.36 -2.626,-2.592 l -0.801,1.805 1.347,0.497 c -0.788,0.746 -3.244,1.153 -3.568,0.03 l -0.579,-2.33 C -11.441,-1.536 -12.086,0 -13.541,0 h -4.826 c 0.628,-1.111 1.227,-1.51 3.447,-1.415 l 0.29,-0.764 -2.434,-0.012 c 0.719,-1.325 1.135,-1.381 3.094,-1.325 l 0.416,-0.915 -1.915,-0.069 c 0.412,-0.937 0.843,-1.338 2.486,-1.263 l 0.322,-0.812 -1.524,-0.007 c 0.571,-0.945 0.855,-1.377 2.061,-1.271 l 0.325,-0.884 h -1.056 c 0.457,-1.018 0.987,-1.061 1.635,-1.163 0.584,-0.089 0.667,-1.181 -0.012,-1.532 l 2.048,-3.324 2.049,3.325 c -0.681,0.351 -0.596,1.442 -0.013,1.532 0.649,0.102 1.179,0.144 1.634,1.164 h -1.053 l 0.323,0.883 c 1.206,-0.105 1.488,0.328 2.061,1.27 l -1.523,0.009 0.32,0.811 c 1.644,-0.076 2.076,0.327 2.487,1.263 l -1.914,0.068 0.415,0.915 c 1.959,-0.055 2.374,0 3.094,1.328 l -2.436,0.009 0.292,0.767 C -1.229,-1.508 -0.629,-1.109 0,0"
       style="fill:#184285;fill-opacity:1;fill-rule:nonzero;stroke:none"
       transform="matrix(0.35277776,0,0,-0.35277776,95.423177,179.19424)"
       clip-path="url(#clipPath3314)" />
    <path
       id="path3315"
       d="M 0,0 0.078,0.07 C 0.184,0.168 0.232,0.217 0.242,0.264 0.238,0.283 0.217,0.308 0.168,0.342 L 0.143,0.346 C 0.129,0.344 0.114,0.342 0.092,0.342 c -0.085,0 -0.137,0.04 -0.167,0.076 l -0.035,0.027 0.002,0.041 0.031,0.097 -0.017,0.006 0.104,0.034 c 0.35,0.116 0.35,0.116 0.409,0.15 L 0.445,0.818 0.512,0.761 C 0.587,0.699 0.831,0.475 0.869,0.191 L 0.834,0.15 C 0.647,-0.072 0.394,-0.112 0.149,-0.12 L 0.084,-0.135 0.049,-0.032 0.004,-0.002 Z M 1.861,0.284 1.879,0.326 C 1.947,0.497 1.943,0.567 1.927,0.596 1.907,0.637 1.832,0.657 1.713,0.688 1.681,0.696 1.645,0.702 1.604,0.708 L 1.538,0.719 1.516,0.766 C 1.493,0.79 1.47,0.815 1.44,0.837 L 1.348,0.868 1.327,0.879 1.446,0.969 C 1.53,1.033 1.625,1.063 1.732,1.097 L 1.742,1.125 1.788,1.107 C 1.957,1.253 2.068,1.466 2.083,1.687 2.032,1.758 1.946,1.79 1.815,1.79 1.648,1.788 1.445,1.723 1.264,1.668 1.152,1.633 1.015,1.589 0.894,1.566 L 0.852,1.586 C 0.547,1.732 0.535,1.739 -0.101,2.072 -0.146,2.042 -0.183,1.998 -0.203,1.945 -0.241,1.853 -0.236,1.751 -0.186,1.652 l 0.06,-0.046 0.004,-0.005 0.001,-0.002 -0.15,-0.08 C -0.306,1.5 -0.314,1.496 -0.309,1.496 h 0.002 L -0.351,1.456 C -0.347,1.44 -0.337,1.41 -0.314,1.37 L -0.303,1.303 C -0.306,1.244 -0.317,1.219 -0.365,1.163 L -0.383,1.091 -0.387,1.083 -0.388,1.081 -0.48,1.155 C -0.602,1.251 -0.613,1.261 -0.703,1.344 -0.727,1.348 -0.752,1.352 -0.779,1.352 -0.848,1.349 -0.905,1.327 -0.929,1.293 -0.955,1.256 -0.952,1.208 -0.924,1.141 L -0.934,1.105 C -0.954,1.015 -1.031,0.86 -1.313,0.856 L -1.46,0.858 c -0.027,0 -0.055,-0.002 -0.101,-0.023 -0.001,-0.192 0.083,-0.206 0.286,-0.238 0.076,-0.011 0.158,-0.024 0.267,-0.05 0.019,0.007 0.037,0.01 0.056,0.01 0.043,0 0.077,-0.016 0.118,-0.036 L -0.683,0.461 -0.63,0.446 -0.605,0.435 -0.789,0.345 C -0.858,0.31 -0.905,0.285 -0.974,0.213 -0.987,0.16 -1.014,0.108 -1.057,0.057 L -1.064,0.015 -1.14,0.033 C -1.276,0.066 -1.413,0.102 -1.549,0.137 L -1.76,0.191 c -0.373,0.098 -0.837,0.22 -1.272,0.296 -0.105,0.037 -0.204,0.056 -0.305,0.075 L -3.544,0.586 -3.553,0.527 c 0.051,-0.04 0.118,-0.09 0.222,-0.156 l 0.014,-0.035 c 0.059,-0.142 0.157,-0.322 0.384,-0.448 0.149,-0.026 0.307,-0.044 0.493,-0.066 0.544,-0.063 1.107,-0.127 1.55,-0.459 l 0.114,-0.059 0.029,0.001 0.006,-0.001 -0.164,-0.083 C -0.946,-0.8 -0.984,-0.822 -1.034,-0.868 l -0.051,0.011 c -0.525,0.115 -0.525,0.115 -0.713,0.176 -0.188,0.121 -0.281,0.159 -0.381,0.159 -0.076,-0.001 -0.165,-0.033 -0.315,-0.122 -0.01,-0.004 -0.015,-0.007 -0.024,-0.011 L -2.525,-0.662 C -2.53,-0.665 -2.534,-0.667 -2.539,-0.671 l -0.053,0.021 c -0.058,0.021 -0.061,0.022 -0.218,0.044 -0.145,0.052 -0.296,0.101 -0.456,0.154 -0.452,0.147 -0.921,0.301 -1.312,0.558 -0.115,0.096 -0.191,0.185 -0.254,0.259 -0.02,0.025 -0.035,0.04 -0.046,0.04 -0.002,0 -0.004,-0.001 -0.006,-0.001 l -0.037,0.049 c -0.03,-0.008 -0.077,-0.052 -0.156,-0.138 -0.083,-0.258 0.15,-0.873 0.359,-1.052 0.147,-0.064 0.303,-0.094 0.469,-0.125 0.275,-0.052 0.561,-0.106 0.833,-0.332 l 0.072,-0.018 0.007,-0.003 V -1.216 L -3.406,-1.309 C -3.496,-1.426 -3.6,-1.524 -3.718,-1.631 l -0.053,-0.045 c -0.036,-0.028 -0.07,-0.056 -0.094,-0.088 l -0.052,-0.004 c -0.038,-0.006 -0.073,-0.011 -0.119,-0.012 -0.202,0 -0.377,0.098 -0.53,0.183 -0.05,0.027 -0.099,0.055 -0.17,0.071 l -0.028,-0.051 c 0.21,-0.363 0.5,-0.695 0.883,-1.013 l 0.031,-0.052 c 0.047,-0.025 0.095,-0.037 0.143,-0.037 H -3.7 c 0.274,0.005 0.573,0.383 0.792,0.661 0.047,0.059 0.092,0.114 0.14,0.168 l 0.054,0.04 c 0.209,0.153 0.223,0.166 0.215,0.167 l 0.052,-0.013 c 0.175,-0.048 0.287,-0.115 0.453,-0.208 0.163,0.07 0.33,0.236 0.315,0.414 l -0.067,0.062 c -0.097,0.091 -0.195,0.181 -0.297,0.27 l -0.052,0.011 0.034,0.084 c 0.037,0.088 0.089,0.14 0.161,0.212 l 0.007,0.034 0.07,-0.016 c 0.294,-0.067 0.558,-0.149 0.881,-0.248 l 0.282,-0.093 0.07,-0.051 c 0.163,-0.122 0.28,-0.209 0.464,-0.209 0.029,0 0.055,0.002 0.103,0.017 0.174,0.179 0.273,0.298 0.342,0.437 v 0.001 c 0.001,0.004 0.005,0.007 0.006,0.01 -0.054,0.079 -0.078,0.102 -0.089,0.103 l 0.052,0.061 c 0.016,0.02 0.033,0.034 0.083,0.064 0.479,0.152 0.997,0.34 1.378,0.477 0.23,0.144 0.253,0.159 0.172,0.372 C 1.907,0.183 1.89,0.226 1.861,0.284"
       style="fill:#184285;fill-opacity:1;fill-rule:nonzero;stroke:none"
       transform="matrix(0.35277776,0,0,-0.35277776,97.322391,178.49108)"
       clip-path="url(#clipPath3316)" />
    <path
       id="path3317"
       d="m 0,0 c -0.106,0 -0.206,0.033 -0.296,0.098 -0.057,0.227 0.112,0.47 0.235,0.649 0.042,0.06 0.075,0.107 0.099,0.15 L 0.059,0.949 0.1,1.027 C 0.15,1.123 0.198,1.219 0.244,1.325 0.262,1.38 0.276,1.433 0.289,1.484 0.364,1.779 0.421,1.965 0.57,2.018 0.685,1.999 0.742,1.983 0.77,1.941 0.799,1.897 0.788,1.837 0.765,1.725 L 0.746,1.684 C 0.762,1.645 0.769,1.595 0.776,1.544 0.809,1.369 0.818,1.188 0.799,1.022 L 0.79,0.956 C 0.78,0.892 0.763,0.837 0.744,0.781 0.676,0.569 0.599,0.33 0.445,0.19 L 0.382,0.133 0.34,0.108 C 0.235,0.04 0.12,0.003 0.01,0 Z"
       style="fill:#184285;fill-opacity:1;fill-rule:nonzero;stroke:none"
       transform="matrix(0.35277776,0,0,-0.35277776,96.605865,178.19517)"
       clip-path="url(#clipPath3318)" />
    <path
       id="path3319"
       d="m 0,0 h 0.01 c 0.108,0.003 0.22,0.04 0.324,0.107 l 0.04,0.024 0.064,0.057 C 0.59,0.327 0.666,0.563 0.733,0.774 0.752,0.83 0.77,0.884 0.78,0.947 L 0.788,1.013 C 0.809,1.195 0.796,1.374 0.765,1.534 0.759,1.584 0.752,1.634 0.744,1.68 L 0.736,1.679 0.756,1.717 C 0.777,1.824 0.788,1.886 0.762,1.925 0.736,1.963 0.682,1.98 0.572,2 0.429,1.947 0.374,1.769 0.305,1.489 0.289,1.432 0.274,1.375 0.254,1.312 0.207,1.204 0.158,1.109 0.109,1.013 L 0.067,0.935 0.047,0.881 C 0.024,0.839 -0.01,0.791 -0.052,0.733 -0.174,0.555 -0.342,0.313 -0.29,0.096 -0.202,0.033 -0.105,0 0,0"
       style="fill:#184285;fill-opacity:1;fill-rule:nonzero;stroke:none"
       transform="matrix(0.35277776,0,0,-0.35277776,96.605865,178.19179)"
       clip-path="url(#clipPath3320)" />
    <path
       id="path3321"
       d="M 0,0 C -0.053,0 -0.119,0.029 -0.239,0.105 -0.4,0.469 0.176,0.879 0.242,0.924 0.336,0.902 0.388,0.853 0.421,0.764 0.486,0.58 0.439,0.32 0.315,0.171 0.14,0.051 0.068,0.001 0.002,0 Z"
       style="fill:#184285;fill-opacity:1;fill-rule:nonzero;stroke:none"
       transform="matrix(0.35277776,0,0,-0.35277776,96.235766,178.10003)"
       clip-path="url(#clipPath3322)" />
    <path
       id="path3323"
       d="M 0,0 H 0.002 C 0.065,0.002 0.138,0.05 0.307,0.168 0.429,0.314 0.475,0.57 0.411,0.748 0.381,0.834 0.331,0.884 0.248,0.907 0.182,0.86 -0.386,0.454 -0.233,0.104 -0.115,0.029 -0.049,0 0,0"
       style="fill:#184285;fill-opacity:1;fill-rule:nonzero;stroke:none"
       transform="matrix(0.35277776,0,0,-0.35277776,96.235766,178.0965)"
       clip-path="url(#clipPath3324)" />
  </g>
</svg>
