<?xml version="1.0" encoding="UTF-8" standalone="no"?>
<!-- Created with Inkscape (http://www.inkscape.org/) -->

<svg
   width="26.687389mm"
   height="9.2677336mm"
   viewBox="0 0 26.687389 9.2677336"
   version="1.1"
   id="svg1"
   xmlns="http://www.w3.org/2000/svg"
   xmlns:svg="http://www.w3.org/2000/svg">
  <defs
     id="defs1">
    <clipPath
       clipPathUnits="userSpaceOnUse"
       id="clipPath903">
      <path
         d="M 0,858.898 H 1207.558 V 0 H 0 Z"
         transform="translate(-280.7571,-402.51171)"
         id="path903" />
    </clipPath>
    <clipPath
       clipPathUnits="userSpaceOnUse"
       id="clipPath905">
      <path
         d="M 0,858.898 H 1207.558 V 0 H 0 Z"
         transform="translate(-337.15411,-392.72941)"
         id="path905" />
    </clipPath>
    <clipPath
       clipPathUnits="userSpaceOnUse"
       id="clipPath907">
      <path
         d="M 0,858.898 H 1207.558 V 0 H 0 Z"
         transform="translate(-307.17311,-396.27441)"
         id="path907" />
    </clipPath>
    <clipPath
       clipPathUnits="userSpaceOnUse"
       id="clipPath909">
      <path
         d="M 0,858.898 H 1207.558 V 0 H 0 Z"
         transform="translate(-325.14111,-395.52421)"
         id="path909" />
    </clipPath>
    <clipPath
       clipPathUnits="userSpaceOnUse"
       id="clipPath911">
      <path
         d="M 0,858.898 H 1207.558 V 0 H 0 Z"
         transform="translate(-279.82941,-389.05881)"
         id="path911" />
    </clipPath>
  </defs>
  <g
     id="layer1"
     transform="translate(-88.997192,-91.336805)">
    <path
       id="path902"
       d="M 0,0 C 1.802,0.599 3.729,0.853 5.622,0.689 6.623,0.615 7.613,0.42 8.577,0.144 8.825,0.054 9.081,-0.015 9.33,-0.104 c 0.119,-0.05 0.242,-0.09 0.365,-0.129 0.855,-0.364 1.7,-0.761 2.474,-1.277 1.962,-1.268 3.623,-3.014 4.738,-5.07 0.457,-0.759 0.766,-1.594 1.075,-2.421 0.374,-1.208 0.626,-2.458 0.693,-3.722 0.016,-0.239 0.063,-0.489 -0.016,-0.722 -1.572,-0.012 -3.146,-0.002 -4.719,-0.005 -0.656,0.011 -1.319,-0.036 -1.969,0.08 -0.423,0.091 -0.764,0.389 -0.984,0.752 -0.083,0.212 -0.177,0.421 -0.22,0.645 -0.086,0.247 -0.161,0.498 -0.253,0.743 -0.051,0.12 -0.094,0.242 -0.152,0.358 -0.031,0.069 -0.061,0.138 -0.091,0.206 -0.055,0.097 -0.106,0.194 -0.158,0.291 -0.982,1.83 -2.909,3.119 -4.981,3.302 -0.461,0.011 -0.924,0.022 -1.384,-0.012 -1.87,-0.246 -3.639,-1.331 -4.622,-2.954 -0.435,-0.676 -0.703,-1.442 -0.923,-2.211 -0.139,-0.425 -0.422,-0.835 -0.845,-1.015 -0.328,-0.134 -0.683,-0.201 -1.037,-0.188 -1.987,0.005 -3.974,-0.007 -5.961,0.005 -0.003,0.692 0.066,1.384 0.142,2.072 0.29,1.77 0.849,3.511 1.776,5.054 C -6.025,-3.376 -3.228,-1.073 0,0"
       style="fill:#0f0f0f;fill-opacity:1;fill-rule:nonzero;stroke:none"
       transform="matrix(0.35277776,0,0,-0.35277776,92.398,91.597083)"
       clip-path="url(#clipPath903)" />
    <path
       id="path904"
       d="m 0,0 c -0.781,-0.384 -1.431,-1.023 -1.842,-1.789 -0.377,-0.782 -0.568,-1.684 -0.392,-2.545 0.13,-0.607 0.336,-1.214 0.729,-1.705 0.453,-0.615 1.073,-1.112 1.79,-1.386 0.912,-0.367 1.967,-0.357 2.885,-0.01 1.128,0.399 2.053,1.346 2.413,2.489 0.25,0.698 0.303,1.466 0.131,2.189 -0.226,1.023 -0.883,1.916 -1.74,2.505 C 2.814,0.52 1.247,0.629 0,0 M 1.146,4.09 C 1.497,4.13 1.854,4.161 2.206,4.099 3.558,4.032 4.896,3.608 6.026,2.86 7.059,2.189 7.934,1.278 8.559,0.217 9.637,-1.643 9.935,-3.973 9.231,-6.017 8.686,-7.744 7.49,-9.243 5.959,-10.205 c -1.738,-1.109 -3.93,-1.489 -5.939,-1.02 -0.191,0.05 -0.38,0.103 -0.573,0.142 -0.583,0.154 -1.115,0.444 -1.646,0.72 -0.65,0.341 -1.218,0.819 -1.732,1.339 -0.61,0.622 -1.119,1.346 -1.474,2.141 -0.043,0.083 -0.082,0.166 -0.122,0.248 -0.67,1.635 -0.788,3.498 -0.267,5.191 0.464,1.558 1.436,2.958 2.728,3.944 1.209,0.925 2.687,1.507 4.212,1.59"
       style="fill:#0f0f0f;fill-opacity:1;fill-rule:nonzero;stroke:none"
       transform="matrix(0.35277776,0,0,-0.35277776,112.29361,95.048062)"
       clip-path="url(#clipPath905)" />
    <path
       id="path906"
       d="M 0,0 C 0.006,0.074 0.019,0.148 0.041,0.22 0.863,0.192 1.687,0.219 2.51,0.207 2.822,0.195 3.15,0.244 3.445,0.112 c 0.414,-0.153 0.717,-0.487 1.008,-0.804 2.325,-2.651 4.648,-5.304 6.965,-7.961 0.053,-0.046 0.113,-0.083 0.179,-0.11 0.013,2.649 -0.017,5.3 0.011,7.949 -0.022,0.511 0.412,0.937 0.897,1.018 0.927,0.016 1.855,0 2.783,0.003 0,-4.911 0.006,-9.823 -0.004,-14.734 -0.946,-0.025 -1.893,-0.007 -2.839,-0.014 -0.293,-0.017 -0.583,0.064 -0.841,0.197 -0.478,0.258 -0.782,0.724 -1.138,1.118 -2.141,2.418 -4.255,4.862 -6.393,7.285 -0.118,0.11 -0.208,0.258 -0.361,0.32 -0.003,-2.562 -0.002,-5.124 -0.001,-7.686 -0.01,-0.232 -0.008,-0.481 -0.135,-0.686 -0.205,-0.373 -0.643,-0.58 -1.061,-0.551 -0.824,-0.013 -1.654,0.051 -2.474,-0.038 -0.022,0.092 -0.044,0.185 -0.042,0.28 C 0.004,-9.535 0.003,-4.767 0,0"
       style="fill:#0f0f0f;fill-opacity:1;fill-rule:nonzero;stroke:none"
       transform="matrix(0.35277776,0,0,-0.35277776,101.71698,93.797463)"
       clip-path="url(#clipPath907)" />
    <path
       id="path908"
       d="m 0,0 c 0.014,0.533 0.518,0.942 1.033,0.949 0.885,0.024 1.772,0.002 2.658,0.009 -0.005,-4.913 0.001,-9.826 -0.004,-14.739 -0.193,-0.013 -0.388,-0.007 -0.579,-0.032 -0.377,-0.028 -0.753,0.038 -1.128,0 -0.657,-10e-4 -1.313,0.021 -1.971,0.026 -0.026,2.533 -0.003,5.067 -0.011,7.6 0,2.063 0.001,4.125 0.002,6.187"
       style="fill:#0f0f0f;fill-opacity:1;fill-rule:nonzero;stroke:none"
       transform="matrix(0.35277776,0,0,-0.35277776,108.05569,94.062118)"
       clip-path="url(#clipPath909)" />
    <path
       id="path910"
       d="m 0,0 c 2.541,0.02 5.082,0.003 7.623,0.008 1.29,-0.004 2.581,0.013 3.871,-0.015 0.201,0.007 0.378,-0.114 0.536,-0.225 0.546,-0.436 1.016,-0.955 1.52,-1.438 0.634,-0.613 1.23,-1.263 1.869,-1.871 0.789,-0.792 1.571,-1.593 2.373,-2.373 0.114,-0.15 0.385,-0.256 0.3,-0.483 -0.608,-1.183 -1.38,-2.285 -2.287,-3.259 -0.759,-0.79 -1.576,-1.532 -2.501,-2.123 -0.171,-0.098 -0.311,-0.265 -0.511,-0.301 -0.445,0.487 -0.937,0.926 -1.393,1.403 C 9.788,-9.065 8.178,-7.449 6.566,-5.836 6.282,-5.553 5.969,-5.27 5.571,-5.169 5.392,-5.094 5.213,-5.205 5.05,-5.272 4.706,-5.454 4.422,-5.727 4.153,-6.003 2.319,-7.832 0.488,-9.665 -1.341,-11.498 c -0.191,-0.196 -0.381,-0.395 -0.592,-0.569 -0.799,0.483 -1.561,1.033 -2.236,1.679 -0.431,0.362 -0.78,0.806 -1.168,1.21 -0.384,0.454 -0.734,0.937 -1.071,1.427 -0.296,0.433 -0.518,0.91 -0.803,1.349 -10e-4,0.045 -0.002,0.09 -0.003,0.134 0.64,0.697 1.336,1.341 1.995,2.019 1.096,1.091 2.18,2.194 3.281,3.281 0.304,0.299 0.597,0.62 0.967,0.839 C -0.675,0.041 -0.325,-0.014 0,0"
       style="fill:#0f0f0f;fill-opacity:1;fill-rule:nonzero;stroke:none"
       transform="matrix(0.35277776,0,0,-0.35277776,92.070729,96.342967)"
       clip-path="url(#clipPath911)" />
  </g>
</svg>
