<?xml version="1.0" encoding="UTF-8" standalone="no"?>
<!-- Created with Inkscape (http://www.inkscape.org/) -->

<svg
   width="13.802072mm"
   height="13.802436mm"
   viewBox="0 0 13.802072 13.802436"
   version="1.1"
   id="svg1"
   xmlns="http://www.w3.org/2000/svg"
   xmlns:svg="http://www.w3.org/2000/svg">
  <defs
     id="defs1">
    <clipPath
       clipPathUnits="userSpaceOnUse"
       id="clipPath2462">
      <path
         d="M 0,858.898 H 1207.558 V 0 H 0 Z"
         transform="translate(-336.84371,-219.579)"
         id="path2462" />
    </clipPath>
    <clipPath
       clipPathUnits="userSpaceOnUse"
       id="clipPath2464">
      <path
         d="M 0,858.898 H 1207.558 V 0 H 0 Z"
         transform="translate(-337.69421,-218.45301)"
         id="path2464" />
    </clipPath>
    <clipPath
       clipPathUnits="userSpaceOnUse"
       id="clipPath2466">
      <path
         d="M 0,858.898 H 1207.558 V 0 H 0 Z"
         transform="translate(-347.62811,-214.43151)"
         id="path2466" />
    </clipPath>
    <clipPath
       clipPathUnits="userSpaceOnUse"
       id="clipPath2468">
      <path
         d="M 0,858.898 H 1207.558 V 0 H 0 Z"
         transform="translate(-327.76031,-214.43151)"
         id="path2468" />
    </clipPath>
    <clipPath
       clipPathUnits="userSpaceOnUse"
       id="clipPath2470">
      <path
         d="M 0,858.898 H 1207.558 V 0 H 0 Z"
         transform="translate(-337.69511,-200.10471)"
         id="path2470" />
    </clipPath>
    <clipPath
       clipPathUnits="userSpaceOnUse"
       id="clipPath2472">
      <path
         d="M 0,858.898 H 1207.558 V 0 H 0 Z"
         transform="translate(-337.69421,-230.24921)"
         id="path2472" />
    </clipPath>
    <clipPath
       clipPathUnits="userSpaceOnUse"
       id="clipPath2474">
      <path
         d="M 0,858.898 H 1207.558 V 0 H 0 Z"
         transform="translate(-341.45181,-224.61831)"
         id="path2474" />
    </clipPath>
    <clipPath
       clipPathUnits="userSpaceOnUse"
       id="clipPath2476">
      <path
         d="M 0,858.898 H 1207.558 V 0 H 0 Z"
         transform="translate(-346.30571,-222.54921)"
         id="path2476" />
    </clipPath>
    <clipPath
       clipPathUnits="userSpaceOnUse"
       id="clipPath2478">
      <path
         d="M 0,858.898 H 1207.558 V 0 H 0 Z"
         transform="translate(-335.19031,-223.34801)"
         id="path2478" />
    </clipPath>
    <clipPath
       clipPathUnits="userSpaceOnUse"
       id="clipPath2480">
      <path
         d="M 0,858.898 H 1207.558 V 0 H 0 Z"
         transform="translate(-327.07841,-224.8662)"
         id="path2480" />
    </clipPath>
    <clipPath
       clipPathUnits="userSpaceOnUse"
       id="clipPath2482">
      <path
         d="M 0,858.898 H 1207.558 V 0 H 0 Z"
         transform="translate(-331.13661,-212.9775)"
         id="path2482" />
    </clipPath>
    <clipPath
       clipPathUnits="userSpaceOnUse"
       id="clipPath2484">
      <path
         d="M 0,858.898 H 1207.558 V 0 H 0 Z"
         transform="translate(-335.86531,-213.98931)"
         id="path2484" />
    </clipPath>
    <clipPath
       clipPathUnits="userSpaceOnUse"
       id="clipPath2486">
      <path
         d="M 0,858.898 H 1207.558 V 0 H 0 Z"
         transform="translate(-343.90051,-213.98931)"
         id="path2486" />
    </clipPath>
    <clipPath
       clipPathUnits="userSpaceOnUse"
       id="clipPath2488">
      <path
         d="M 0,858.898 H 1207.558 V 0 H 0 Z"
         transform="translate(-338.20881,-212.9775)"
         id="path2488" />
    </clipPath>
    <clipPath
       clipPathUnits="userSpaceOnUse"
       id="clipPath2490">
      <path
         d="M 0,858.898 H 1207.558 V 0 H 0 Z"
         transform="translate(-350.46231,-216.38531)"
         id="path2490" />
    </clipPath>
    <clipPath
       clipPathUnits="userSpaceOnUse"
       id="clipPath2492">
      <path
         d="M 0,858.898 H 1207.558 V 0 H 0 Z"
         transform="translate(-322.10821,-215.49291)"
         id="path2492" />
    </clipPath>
  </defs>
  <g
     id="layer1"
     transform="translate(-105.5831,-152.36746)">
    <path
       id="path2461"
       d="M 0,0 C 0.566,0.055 1.136,0.055 1.702,0.001 L 2.089,1.098 2.106,1.096 C 3.018,0.982 3.91,0.742 4.758,0.387 L 4.774,0.38 4.56,-0.767 c 0.517,-0.236 1.01,-0.521 1.473,-0.85 l 0.884,0.757 0.015,-0.011 c 0.714,-0.54 1.352,-1.177 1.899,-1.887 L 8.846,-2.777 H 8.053 L 8.076,-2.75 C 7.745,-2.361 7.383,-1.998 6.993,-1.666 L 6.118,-2.414 6.104,-2.403 c -0.68,0.551 -1.445,0.991 -2.26,1.308 L 3.827,-1.089 4.038,0.043 C 3.556,0.215 3.061,0.348 2.558,0.439 L 2.174,-0.647 2.156,-0.644 c -0.431,0.069 -0.869,0.102 -1.305,0.102 -0.438,0 -0.875,-0.033 -1.306,-0.102 L -0.473,-0.647 -0.857,0.439 C -1.36,0.348 -1.855,0.215 -2.337,0.043 l 0.211,-1.132 -0.017,-0.006 c -0.815,-0.317 -1.58,-0.757 -2.261,-1.308 l -0.014,-0.011 -0.874,0.748 C -5.682,-1.998 -6.044,-2.36 -6.375,-2.75 l 0.023,-0.027 h -0.793 l 0.015,0.019 c 0.546,0.71 1.185,1.347 1.9,1.887 l 0.013,0.011 0.884,-0.756 c 0.462,0.33 0.957,0.615 1.474,0.85 l -0.213,1.146 0.016,0.007 c 0.847,0.355 1.739,0.595 2.651,0.709 l 0.017,0.002 z"
       style="fill:#1f52a5;fill-opacity:1;fill-rule:evenodd;stroke:none"
       transform="matrix(0.35277776,0,0,-0.35277776,112.18411,156.13167)"
       clip-path="url(#clipPath2462)" />
    <path
       id="path2463"
       d="M 0,0 C 1.799,0 3.456,-0.612 4.772,-1.639 H 4.281 C 3.068,-0.79 1.593,-0.292 0,-0.292 c -1.593,0 -3.068,-0.498 -4.281,-1.347 H -4.772 C -3.456,-0.612 -1.799,0 0,0"
       style="fill:#1f52a5;fill-opacity:1;fill-rule:evenodd;stroke:none"
       transform="matrix(0.35277776,0,0,-0.35277776,112.48415,156.5289)"
       clip-path="url(#clipPath2464)" />
    <path
       id="path2465"
       d="m 0,0 c 0.589,-0.656 0.973,-1.441 0.958,-2.566 0.3,0.234 0.41,1.215 0.929,1.584 C 2.011,-2.373 1.473,-3.368 0.631,-4.255 0.572,-3.363 -0.127,-3.92 -0.321,-1.732 0.032,-1.936 0.043,-2.488 0.583,-2.79 -0.041,-1.666 0.02,-1.138 0,0 m -1.669,-10.784 c 0.009,-0.122 0.027,-0.242 0.039,-0.309 -0.314,-0.091 -0.621,-0.209 -0.912,-0.406 0.453,0.586 0.628,1.479 0.526,2.117 -0.741,-1.047 -1.769,-1.858 -1.669,-3.004 -0.009,-0.071 -0.007,-0.204 -0.003,-0.306 -0.362,-0.109 -0.707,-0.27 -1.039,-0.537 -0.062,-0.049 -0.141,-0.148 -0.156,-0.127 -0.015,0.021 0.073,0.112 0.126,0.18 0.422,0.537 0.69,1.267 0.926,1.837 -1.573,-1.213 -1.989,-1.165 -2.815,-2.211 -0.234,-0.298 -1.279,-0.513 -1.618,-0.58 -0.081,-0.017 -0.081,-0.127 -0.003,-0.12 0.385,0.033 1.077,-0.013 1.342,-0.114 1.376,-0.528 2.45,-0.249 3.887,0.515 -0.757,-0.066 -1.514,-0.02 -2.273,0.191 0.125,0.041 0.244,0.154 0.376,0.124 1.644,-0.378 2.787,0.238 3.915,1.418 -0.979,-0.249 -1.736,-0.338 -2.492,-0.528 l 10e-4,0.003 c 0.048,0.146 0.276,0.254 0.276,0.254 1.125,0.491 2.361,0.055 3.522,1.941 -0.586,-0.365 -1.19,-0.45 -1.789,-0.612 0.001,0.093 -0.009,0.211 0.056,0.328 0.857,0.834 1.944,0.473 3.007,2.822 -0.546,-0.076 -1.097,-0.539 -1.568,-0.891 0.033,0.12 0.097,0.278 0.174,0.419 0.925,0.818 1.827,1.431 1.969,2.746 -0.293,-0.294 -0.793,-0.589 -1.163,-0.803 0.664,0.996 1.3,2.141 1.166,3.595 -0.261,-1.196 -0.997,-1.333 -1.421,-2.246 -0.24,0.701 -0.509,1.087 -0.891,1.54 -0.107,-2.05 0.68,-1.972 0.747,-3.449 L 0.278,-7.23 c 0.001,0.711 -0.247,1.44 -0.604,2.034 -0.05,-1.074 -0.464,-2.359 0.176,-3.27 0.054,-0.182 0.048,-0.326 0.032,-0.416 -0.248,-0.179 -0.467,-0.315 -0.641,-0.329 0.108,0.625 0.108,1.332 -0.136,1.964 -0.168,-1.15 -0.954,-2.073 -0.774,-3.537"
       style="fill:#1f52a5;fill-opacity:1;fill-rule:evenodd;stroke:none"
       transform="matrix(0.35277776,0,0,-0.35277776,115.9886,157.9476)"
       clip-path="url(#clipPath2466)" />
    <path
       id="path2467"
       d="m 0,0 c -0.588,-0.656 -0.973,-1.441 -0.958,-2.566 -0.3,0.234 -0.41,1.215 -0.929,1.584 -0.124,-1.391 0.413,-2.386 1.256,-3.273 0.059,0.892 0.758,0.335 0.952,2.523 C -0.031,-1.936 -0.043,-2.488 -0.583,-2.79 0.041,-1.666 -0.02,-1.138 0,0 m 1.669,-10.784 c -0.009,-0.122 -0.027,-0.242 -0.039,-0.309 0.314,-0.091 0.621,-0.209 0.912,-0.406 -0.453,0.586 -0.628,1.479 -0.526,2.117 0.742,-1.047 1.769,-1.858 1.669,-3.004 0.009,-0.071 0.007,-0.204 0.003,-0.306 0.363,-0.109 0.707,-0.27 1.039,-0.537 0.062,-0.049 0.142,-0.148 0.156,-0.127 0.015,0.021 -0.073,0.112 -0.126,0.18 -0.422,0.537 -0.69,1.267 -0.926,1.837 1.573,-1.213 1.989,-1.165 2.815,-2.211 0.234,-0.298 1.279,-0.513 1.618,-0.58 0.081,-0.017 0.081,-0.127 0.003,-0.12 -0.385,0.033 -1.077,-0.013 -1.342,-0.114 -1.376,-0.528 -2.45,-0.249 -3.887,0.515 0.757,-0.066 1.514,-0.02 2.273,0.191 -0.125,0.041 -0.244,0.154 -0.376,0.124 -1.644,-0.378 -2.787,0.238 -3.915,1.418 0.979,-0.249 1.736,-0.338 2.492,-0.528 l -10e-4,0.003 c -0.048,0.146 -0.276,0.254 -0.276,0.254 -1.125,0.491 -2.361,0.055 -3.522,1.941 0.586,-0.365 1.19,-0.45 1.789,-0.612 -0.001,0.093 0.009,0.211 -0.056,0.328 -0.857,0.834 -1.944,0.473 -3.006,2.822 0.545,-0.076 1.096,-0.539 1.567,-0.891 -0.033,0.12 -0.096,0.278 -0.174,0.419 -0.925,0.818 -1.827,1.431 -1.969,2.746 0.293,-0.294 0.793,-0.589 1.163,-0.803 -0.664,0.996 -1.3,2.141 -1.166,3.595 0.261,-1.196 0.997,-1.333 1.421,-2.246 0.24,0.701 0.509,1.087 0.891,1.54 0.107,-2.05 -0.68,-1.972 -0.747,-3.449 l 0.296,-0.233 c -0.001,0.711 0.247,1.44 0.604,2.034 C 0.376,-6.27 0.79,-7.555 0.15,-8.466 0.096,-8.648 0.102,-8.792 0.119,-8.882 c 0.247,-0.179 0.466,-0.315 0.64,-0.329 -0.108,0.625 -0.108,1.332 0.136,1.964 0.168,-1.15 0.954,-2.073 0.774,-3.537"
       style="fill:#1f52a5;fill-opacity:1;fill-rule:evenodd;stroke:none"
       transform="matrix(0.35277776,0,0,-0.35277776,108.97969,157.9476)"
       clip-path="url(#clipPath2468)" />
    <path
       id="path2469"
       d="M 0,0 0.547,0.949 H -0.547 Z M 10.656,16.709 0,-1.751 -10.658,16.709 Z M -0.008,3.575 -0.514,4.451 h -1.51 L -2.297,3.978 -2.064,3.575 Z M -0.682,4.743 -1.269,5.759 -1.855,4.743 Z m -1.848,0 0.506,0.876 h -1.22 l 0.506,-0.876 z m 0.675,1.167 0.249,0.433 -0.255,0.443 H -3.212 L -3.565,6.175 -3.412,5.91 Z M -2.03,7.078 -2.535,7.953 H -2.538 L -3.044,7.078 Z m -1.688,0 0.506,0.875 h -1.38 l 0.506,-0.875 z m 0.674,1.167 0.506,0.876 h -2.728 l 0.505,-0.876 z m 0.509,0.876 0.505,-0.876 h 1.522 l 0.506,0.876 z m 0.674,-1.168 0.592,-1.026 0.593,1.026 z M 0.001,9.121 0.506,8.245 H 2.029 L 2.534,9.121 Z M 0.675,7.953 1.268,6.927 1.86,7.953 Z M 2.537,9.121 3.043,8.245 H 4.76 L 5.266,9.121 Z M 3.211,7.953 3.717,7.078 H 4.086 L 4.592,7.953 Z M 3.565,6.174 3.211,6.786 H 1.86 L 1.604,6.343 1.854,5.91 H 3.412 Z M 3.043,7.078 2.537,7.953 H 2.534 L 2.029,7.078 Z M 2.023,5.619 2.528,4.743 h 0.21 L 3.244,5.619 Z M 2.296,3.977 2.023,4.451 H 0.512 L 0.007,3.575 H 2.064 Z M 1.854,4.743 1.268,5.759 0.68,4.743 Z m -2.786,1.6 0.25,-0.433 H 0.681 L 0.93,6.343 0.675,6.786 H -0.676 Z M -0.514,5.619 -0.008,4.743 H 0.007 L 0.512,5.619 Z M 0.506,7.078 0.001,7.953 H -0.002 L -0.508,7.078 Z m -9.648,8.756 H 9.142 L 7.119,12.331 H -7.119 Z m 2.528,-4.378 H 6.614 L 6.108,10.58 H -6.109 Z M 0.716,1.24 1.222,2.116 H -1.222 L -0.716,1.24 Z M 1.39,2.408 1.896,3.284 H -1.896 L -1.39,2.408 Z M 5.434,9.413 H -5.434 L -5.94,10.288 H 5.94 Z"
       style="fill:#1f52a5;fill-opacity:1;fill-rule:evenodd;stroke:none"
       transform="matrix(0.35277776,0,0,-0.35277776,112.48446,163.00177)"
       clip-path="url(#clipPath2470)" />
    <path
       id="path2471"
       d="m 0,0 c 10.804,0 19.562,-8.759 19.562,-19.562 0,-10.805 -8.758,-19.563 -19.562,-19.563 -10.804,0 -19.562,8.758 -19.562,19.563 C -19.562,-8.759 -10.804,0 0,0 m 0,-1.167 c -10.16,0 -18.395,-8.236 -18.395,-18.395 0,-10.16 8.235,-18.396 18.395,-18.396 10.159,0 18.395,8.236 18.395,18.396 0,10.159 -8.236,18.395 -18.395,18.395"
       style="fill:#1f52a5;fill-opacity:1;fill-rule:evenodd;stroke:none"
       transform="matrix(0.35277776,0,0,-0.35277776,112.48415,152.36746)"
       clip-path="url(#clipPath2472)" />
    <path
       id="path2473"
       d="m 0,0 c -0.061,-0.205 -0.121,-0.35 -0.148,-0.514 -0.01,-0.065 0.418,0.043 0.459,0.047 0.005,0.001 0.01,0.001 0.014,0.002 0.007,0.001 0.013,0.003 0.019,0.004 0.076,0.019 0.159,0.026 0.236,0.048 l 0.197,0.064 0.035,0.014 0.04,0.013 c 0.012,0.005 0.031,0.016 0.032,0.031 0.001,0.015 -0.001,0.03 0.001,0.042 0.001,0.013 -0.016,0.018 -0.001,0.026 0.014,0.003 -0.017,0.036 0.025,0.027 L 0.94,-0.21 0.965,-0.224 c 0.021,-0.014 0.042,-0.038 0.06,-0.058 0.028,-0.032 0.052,-0.059 0.067,-0.094 0.012,-0.026 0.032,-0.099 0.034,-0.127 L 1.122,-0.504 1.121,-0.521 C 1.123,-0.526 1.095,-0.594 1.092,-0.595 1.092,-0.609 1.085,-0.631 1.07,-0.637 L 1.071,-0.64 C 1.053,-0.655 1.044,-0.649 1.021,-0.659 1.011,-0.695 0.908,-0.721 0.879,-0.719 0.877,-0.714 0.713,-0.746 0.564,-0.769 0.349,-0.816 0.126,-0.848 0.001,-0.867 l -0.012,-0.005 -0.006,0.002 c -0.019,-0.003 -0.035,-0.005 -0.048,-0.008 -0.034,-0.006 -0.105,-0.007 -0.096,-0.04 0.022,-0.075 0.003,-0.155 0.088,-0.315 0.026,-0.047 0.052,-0.226 0.072,-0.29 C 0.023,-1.6 0.073,-1.746 0.101,-1.819 0.125,-1.883 0.17,-1.972 0.199,-2.038 0.22,-2.086 0.234,-2.139 0.257,-2.185 0.319,-2.313 0.365,-2.386 0.441,-2.483 0.467,-2.515 0.512,-2.574 0.539,-2.602 0.566,-2.629 0.605,-2.663 0.633,-2.686 0.696,-2.738 0.776,-2.777 0.84,-2.811 0.954,-2.873 1.046,-2.913 1.123,-2.937 1.16,-2.948 1.206,-2.958 1.227,-2.966 1.282,-2.987 1.26,-2.999 1.147,-3.024 1.077,-3.039 0.962,-3.079 0.804,-3.089 0.748,-3.092 0.672,-3.093 0.605,-3.105 c -0.078,-0.016 -0.183,0.03 -0.253,0.071 -0.08,0.046 -0.127,0.075 -0.191,0.162 -0.029,0.039 -0.052,0.1 -0.078,0.143 -0.085,0.144 -0.155,0.268 -0.187,0.381 -0.033,0.104 -0.055,0.23 -0.081,0.313 -0.078,0.256 -0.127,0.426 -0.177,0.548 -0.017,0.042 -0.02,0.055 -0.051,0.061 -0.025,0.005 -0.034,-0.023 -0.041,-0.034 -0.074,-0.113 -0.13,-0.25 -0.21,-0.363 -0.07,-0.099 -0.164,-0.177 -0.252,-0.258 -0.109,-0.101 -0.228,-0.19 -0.397,-0.215 -0.053,-0.007 -0.129,-0.006 -0.189,-0.004 -0.109,0.004 -0.227,0.045 -0.387,0.08 -0.171,0.038 -0.456,0.062 -0.634,0.122 -0.176,0.06 -0.187,0.093 -0.096,0.131 0.206,0.005 0.7,-0.005 0.892,0.024 0.184,0.028 0.324,0.101 0.479,0.218 0.077,0.058 0.135,0.131 0.204,0.215 0.055,0.067 0.136,0.163 0.163,0.252 0.017,0.01 0.082,0.126 0.141,0.251 -0.047,-0.003 -0.089,0.002 -0.126,-0.003 -0.069,-0.01 -0.122,-0.008 -0.165,-0.017 -0.087,-0.019 -0.132,-0.045 -0.158,-0.047 -0.045,-0.005 -0.051,-0.006 -0.108,-0.013 -0.044,-0.005 -0.049,-0.027 -0.094,-0.034 -0.041,-0.007 -0.044,-0.01 -0.076,-0.022 -0.022,-0.008 -0.056,-0.01 -0.065,-0.022 -0.048,-0.039 -0.106,-0.025 -0.144,-0.049 -0.039,-0.003 -0.116,0.025 -0.145,0.083 0,0.001 -0.03,0.07 -0.033,0.077 -0.021,0.05 -0.044,0.086 -0.047,0.088 0.003,0.127 0.11,0.172 0.184,0.185 l 0.138,0.022 c 0.077,-0.008 0.178,0.03 0.31,0.053 0.174,0.03 0.383,0.029 0.573,0.079 0.038,0.01 0.071,0.019 0.1,0.026 0.035,0.088 0.075,0.183 0.116,0.284 0.072,0.279 0.321,0.936 0.404,1.323 l 0.072,0.46 -0.006,0.001 c 0.009,0.058 -0.062,0.147 -0.054,0.201 L -0.057,1.66 c 0.001,0.011 0.004,0.02 -0.002,0.032 v 0.001 l 0.003,-0.004 c 0.005,0.033 0.028,0.065 0.055,0.084 L 0.041,1.769 H 0.039 C 0.148,1.754 0.26,1.702 0.358,1.659 L 0.357,1.654 0.378,1.64 C 0.385,1.638 0.398,1.612 0.398,1.603 0.418,1.594 0.437,1.575 0.437,1.552 0.455,1.541 0.477,1.517 0.473,1.494 H 0.477 C 0.483,1.459 0.506,1.45 0.501,1.413 0.539,1.374 0.459,1.242 0.434,1.208 L 0.427,1.209 C 0.418,1.154 0.393,1.077 0.358,1.031 L 0.334,0.967 c 0,0 -0.004,-0.009 -0.005,-0.012 C 0.226,0.745 0.082,0.273 -0.004,0.001 Z"
       style="fill:#1f52a5;fill-opacity:1;fill-rule:evenodd;stroke:none"
       transform="matrix(0.35277776,0,0,-0.35277776,113.80974,154.35392)"
       clip-path="url(#clipPath2474)" />
    <path
       id="path2475"
       d="m 0,0 c 0.077,-0.044 0.058,-0.092 0.07,-0.156 0.007,-0.034 0.028,-0.062 0.02,-0.103 -0.013,-0.065 -0.147,-0.204 -0.189,-0.213 -0.054,-0.01 -0.093,-0.003 -0.151,-0.006 -0.036,-0.013 -0.073,-0.026 -0.11,-0.039 -0.127,-0.046 -0.265,0.232 -0.226,0.34 0.086,0.057 0.179,0.05 0.277,0.074 0.05,0.012 0.086,0.053 0.134,0.07 C -0.125,-0.015 -0.052,-0.011 0,0 M 3.293,0.265 C 3.047,0.206 2.726,0.155 2.598,0.115 2.572,0.109 2.557,0.052 2.563,0.034 2.578,-0.008 2.602,-0.06 2.601,-0.101 2.582,-0.117 2.48,-0.105 2.441,-0.113 2.374,-0.128 2.345,-0.119 2.265,-0.12 2.148,-0.122 2.105,-0.114 2.057,-0.156 2.025,-0.183 2.074,-0.406 2.029,-0.481 1.98,-0.562 1.827,-0.54 1.811,-0.633 c 0.04,-0.043 0.05,-0.084 0.03,-0.133 0.044,-0.016 0.131,0.003 0.211,0.011 0.052,0.005 0.086,-0.012 0.121,0.019 0.007,0.006 0.015,0.013 0.022,0.019 -0.012,0.095 -0.031,0.177 0.021,0.275 0.009,0.016 0.041,0.115 0.125,0.149 0.055,0.022 0.076,0.114 0.124,0.123 0.073,0.014 0.134,-0.004 0.182,-0.025 0.103,-0.093 -0.006,-0.22 0.049,-0.34 0.071,-0.043 0.402,0.099 0.48,0.128 10e-4,0.004 0.002,0.007 0.002,0.011 C 3.051,-0.293 2.894,-0.2 2.903,-0.07 3.02,0.057 3.266,-0.116 3.406,-0.173 3.511,-0.216 3.571,-0.163 3.655,-0.198 3.777,-0.249 3.835,-0.821 3.679,-0.88 3.362,-0.779 2.651,-0.928 2.283,-1.016 2.28,-1.022 2.278,-1.028 2.275,-1.034 2.293,-1.063 2.285,-1.077 2.278,-1.107 2.43,-1.23 2.615,-1.323 2.783,-1.448 2.836,-1.488 2.896,-1.581 2.957,-1.773 2.995,-1.891 2.845,-1.928 2.815,-1.963 2.75,-2.007 2.689,-1.973 2.56,-1.969 2.484,-1.967 2.382,-1.93 2.293,-1.908 2.205,-1.887 2.132,-1.882 2.034,-1.848 1.956,-1.822 1.809,-1.801 1.726,-1.774 1.557,-1.717 1.383,-1.676 1.22,-1.626 1.189,-1.623 1.16,-1.619 1.152,-1.613 1.134,-1.614 1.115,-1.601 1.102,-1.59 L 1.099,-1.593 1.046,-1.57 H 1.048 C 1.046,-1.568 1.043,-1.566 1.039,-1.564 1.025,-1.558 1.01,-1.553 0.996,-1.546 0.97,-1.536 0.944,-1.524 0.919,-1.513 0.894,-1.506 0.872,-1.503 0.861,-1.509 L 0.835,-1.488 0.806,-1.523 0.876,-1.58 0.877,-1.579 C 0.888,-1.623 1.01,-1.632 1.044,-1.66 l 0.004,0.005 0.089,-0.034 c 0.008,-0.016 0.083,-0.057 0.1,-0.071 10e-4,-0.012 0.004,-0.025 0.014,-0.033 l -0.002,10e-4 0.005,-0.04 H 1.253 c 0.013,-0.01 0.01,-0.036 0.019,-0.049 L 1.26,-1.896 C 1.282,-1.915 1.277,-1.912 1.279,-1.936 1.28,-1.943 1.27,-1.954 1.266,-1.96 L 1.269,-1.962 1.267,-2.023 1.243,-2.058 1.248,-2.062 1.219,-2.097 1.214,-2.093 1.21,-2.099 H 1.151 L 1.149,-2.102 1.09,-2.107 1.087,-2.106 1.073,-2.112 1.04,-2.125 1.023,-2.112 C 1.004,-2.136 1.001,-2.125 0.973,-2.128 L 0.96,-2.118 0.954,-2.126 C 0.86,-2.117 0.844,-2.106 0.755,-2.107 0.736,-2.107 0.704,-2.108 0.68,-2.119 0.659,-2.127 0.656,-2.14 0.643,-2.153 0.627,-2.168 0.604,-2.186 0.615,-2.207 0.625,-2.226 0.676,-2.247 0.69,-2.253 v 0 C 0.684,-2.248 0.699,-2.258 0.706,-2.26 L 0.703,-2.258 C 0.721,-2.272 0.75,-2.271 0.766,-2.285 0.768,-2.283 0.91,-2.339 1.035,-2.396 1.17,-2.456 1.342,-2.545 1.346,-2.546 L 1.343,-2.544 C 1.463,-2.639 1.419,-2.62 1.474,-2.758 L 1.467,-2.766 c 0.02,-0.017 0.019,-0.023 0.021,-0.046 L 1.473,-2.83 1.492,-2.846 C 1.491,-2.889 1.537,-2.978 1.503,-3.015 1.419,-3.107 1.457,-3.088 1.338,-3.046 c -0.046,0.015 -0.116,0.073 -0.159,0.092 -0.09,0.041 -0.168,0.091 -0.256,0.129 -0.105,0.046 -0.19,0.113 -0.283,0.153 -0.098,0.043 -0.142,0.106 -0.222,0.132 0.003,0.005 -0.057,0.003 -0.065,0.009 -0.172,-0.19 -0.43,-0.617 -0.581,-0.81 -0.04,-0.118 -0.129,-0.163 -0.218,-0.231 l -0.003,0.003 -0.078,-0.093 0.003,10e-4 c -0.006,-0.002 -0.01,-0.005 -0.013,-0.01 l 0.002,10e-4 -0.085,-0.051 -0.008,0.006 c -0.024,-0.03 -0.054,-0.059 -0.071,-0.043 -0.047,0.044 -0.187,0.175 -0.331,0.303 l 0.001,0.003 -0.024,0.073 0.007,0.009 -0.019,0.015 c -0.001,0.013 -0.031,0.066 -0.022,0.077 l -0.003,10e-4 c -10e-4,0.018 -0.027,0.076 -0.039,0.09 v 10e-4 l -0.023,0.038 c 0,0 -0.047,0.057 -0.049,0.08 -0.008,0.086 -0.038,0.345 -0.102,0.399 0,0.011 -0.005,0.022 -0.013,0.029 v -10e-4 l -0.019,0.087 0.016,0.027 -0.024,0.025 c 10e-4,0.004 0.002,0.009 0.003,0.014 0.038,0.007 0.101,-0.071 0.195,-0.171 0.061,-0.063 0.125,-0.103 0.189,-0.173 0.049,-0.054 0.078,-0.124 0.118,-0.174 0.029,-0.036 0.052,-0.066 0.076,-0.085 0.016,-0.012 0.038,-0.017 0.044,-0.023 0.007,0.009 0.015,0.018 0.022,0.028 0.097,0.126 0.215,0.319 0.294,0.422 0.07,0.09 0.176,0.218 0.273,0.323 -0.093,0.076 -0.735,0.332 -0.766,0.319 l 0.01,0.005 c -0.082,0.067 -0.294,0.112 -0.306,0.245 -0.005,-0.003 -0.002,0.011 -0.005,0.016 l 0.004,0.005 c -0.028,0.022 -0.032,0.054 -0.05,0.082 l 0.009,0.01 c -0.022,0.019 -0.067,0.132 -0.048,0.156 l -0.009,0.06 0.003,0.004 -0.013,0.027 c -0.008,-0.01 -10e-4,0.026 0.007,0.036 L -1.3,-1.369 c -0.002,0.012 -10e-4,0.018 -0.007,0.03 0.014,0.011 0.044,0.074 0.069,0.068 0.057,0.07 0.167,-0.069 0.218,-0.069 0.238,-0.118 0.212,-0.159 0.413,-0.259 0.221,-0.112 0.509,-0.271 0.544,-0.299 l 0.018,-0.009 c 0.043,-0.036 0.197,-0.073 0.29,-0.075 0.11,-0.003 0.165,0.07 0.223,0.113 l 0.043,0.004 c 0.031,0.005 0.061,0.02 0.087,0.045 l 0.071,0.059 c -0.064,0.053 -0.093,0.119 -0.153,0.17 v -0.001 l -0.032,0.033 0.004,0.005 C 0.417,-1.495 0.356,-1.466 0.34,-1.378 l 0.003,0.003 -0.003,0.002 0.018,0.057 c 0.018,-0.004 0.07,0.001 0.084,0.013 0.02,-0.011 0.097,-0.024 0.117,-0.022 0.014,0.002 0.029,-0.018 0.038,-0.025 l 0.015,0.017 c 0.037,-0.03 0.217,-0.017 0.262,-0.011 l 0.012,-0.01 0.007,0.008 c 0.028,-0.01 0.056,-0.009 0.081,-0.023 0.006,0 0.012,0 0.018,10e-4 l 0.002,0.002 0.012,-10e-4 c 0.029,0.002 0.059,0.006 0.089,0.006 0.032,-0.001 0.066,-0.012 0.095,-0.019 0.402,-0.095 0.825,-0.133 1.194,-0.142 0.003,0.004 0.006,0.008 0.01,0.012 0,0.002 -0.001,0.004 -0.001,0.006 C 2.135,-1.278 1.69,-1.19 1.367,-1.078 1.155,-1.004 0.891,-0.909 0.708,-0.845 0.68,-0.841 0.648,-0.821 0.615,-0.793 0.611,-0.79 0.606,-0.788 0.601,-0.787 0.595,-0.782 0.589,-0.778 0.58,-0.778 0.577,-0.777 0.575,-0.776 0.572,-0.776 0.567,-0.773 0.56,-0.769 0.554,-0.768 0.552,-0.766 0.549,-0.764 0.545,-0.763 0.541,-0.76 0.538,-0.757 0.532,-0.755 L 0.449,-0.686 0.444,-0.693 C 0.432,-0.682 0.421,-0.672 0.407,-0.665 L 0.364,-0.63 c -0.002,0.002 -0.004,0.005 -0.006,0.008 -0.003,0.01 -0.009,0.017 -0.017,0.024 l 0.001,0.001 -0.158,0.129 C 0.182,-0.464 0.18,-0.46 0.177,-0.457 0.175,-0.452 0.172,-0.448 0.169,-0.444 0.166,-0.437 0.162,-0.428 0.157,-0.423 0.156,-0.413 0.152,-0.405 0.145,-0.399 l 0.007,-0.006 c 0,0.004 -0.001,0.008 -0.002,0.013 l 0.006,0.007 v 0.001 l 0.041,0.049 c 0.003,0.004 0.005,0.008 0.006,0.012 0.003,0.003 0.005,0.006 0.006,0.011 L 0.23,-0.288 H 0.218 c 0.007,0 0.013,0.003 0.019,0.008 0.003,0 0.005,0.002 0.008,0.003 0.006,0.007 0.025,0.007 0.033,0.008 0.003,0 0.01,-0.002 0.015,-0.002 0.006,-0.001 0.014,-0.002 0.021,-0.003 L 0.346,-0.3 0.36,-0.284 c 0.004,0 0.008,0 0.013,0.001 0.004,-0.002 0.009,-0.004 0.015,-0.004 0.004,-0.002 0.01,-0.005 0.014,-0.006 0.004,-0.003 0.008,-0.006 0.013,-0.008 0.007,-0.005 0.015,-0.013 0.024,-0.016 0.002,-0.002 0.005,-0.004 0.007,-0.005 l 0.037,-0.031 0.008,0.01 c 0.003,-10e-4 0.006,-0.002 0.01,-0.003 0.007,-0.004 0.023,-0.01 0.031,-0.012 0.005,-0.002 0.01,-0.003 0.016,-0.004 0.005,-0.002 0.011,-0.004 0.017,-0.003 0.009,-0.002 0.011,-0.005 0.019,-0.011 l 0.003,0.005 C 0.591,-0.372 0.594,-0.373 0.597,-0.372 0.602,-0.374 0.606,-0.374 0.61,-0.375 0.615,-0.377 0.621,-0.379 0.628,-0.378 0.633,-0.38 0.637,-0.382 0.643,-0.383 0.649,-0.386 0.655,-0.387 0.661,-0.387 0.665,-0.388 0.669,-0.389 0.673,-0.39 0.677,-0.393 0.681,-0.396 0.685,-0.399 l 0.001,0.002 C 0.69,-0.398 0.694,-0.399 0.697,-0.399 0.701,-0.401 0.706,-0.402 0.71,-0.402 0.714,-0.404 0.719,-0.406 0.723,-0.407 0.732,-0.409 0.74,-0.414 0.749,-0.415 0.752,-0.416 0.756,-0.418 0.76,-0.419 c 0.024,-0.005 0.048,-0.01 0.071,-0.013 0.3,-0.045 0.634,-0.359 0.849,0.052 -0.006,0.028 0.014,0.132 -0.029,0.145 -0.064,-0.002 -0.167,-0.019 -0.23,-0.021 -0.062,0.003 -0.195,-0.011 -0.288,0.012 -0.038,0.01 -0.072,0.021 -0.096,0.034 0,0.002 0,0.004 0,0.007 0.025,0.031 0.054,0.068 0.087,0.09 0.143,0.095 0.347,0.108 0.503,0.149 C 1.617,0.085 1.599,0.148 1.595,0.213 1.588,0.338 1.505,0.248 1.439,0.263 1.372,0.278 1.462,0.244 1.44,0.168 1.417,0.092 1.227,0.083 1.176,0.069 1.126,0.055 1.079,0.086 1.036,0.042 0.946,-0.047 0.861,-0.272 0.697,-0.168 0.667,-0.149 0.481,0.091 0.512,0.111 0.531,0.156 0.592,0.237 0.61,0.258 0.673,0.335 0.774,0.484 0.804,0.604 0.816,0.654 0.801,0.7 0.793,0.737 0.789,0.758 0.81,0.764 0.821,0.768 0.916,0.704 1.001,0.531 1.007,0.429 1.07,0.297 1.257,0.661 1.336,0.721 1.4,0.771 1.474,0.708 1.49,0.671 1.507,0.634 1.491,0.489 1.448,0.438 1.405,0.386 1.512,0.361 1.512,0.361 l 0.107,0.141 c 0,0 0.022,0.084 -0.036,0.147 C 1.543,0.693 1.516,0.845 1.537,0.909 1.564,0.993 1.676,0.859 1.697,0.864 1.773,0.857 1.826,0.832 1.899,0.795 1.951,0.768 1.975,0.744 2.022,0.716 2.127,0.652 2.027,0.42 2.148,0.412 2.443,0.503 2.766,0.589 3.061,0.7 L 3.092,0.712 C 3.118,0.717 3.193,0.724 3.204,0.741 3.208,0.742 3.212,0.744 3.216,0.747 3.222,0.75 3.235,0.758 3.24,0.762 3.27,0.78 3.303,0.784 3.333,0.808 3.337,0.81 3.344,0.814 3.348,0.817 3.355,0.82 3.364,0.825 3.369,0.832 3.403,0.855 3.471,0.905 3.471,0.946 3.47,0.957 3.475,0.96 3.481,0.97 3.523,1.038 3.512,0.993 3.527,1.059 3.531,1.065 3.538,1.073 3.539,1.079 l 0.01,0.015 C 3.551,1.093 3.553,1.093 3.555,1.092 3.608,1.058 3.574,1.091 3.617,1.063 3.62,1.06 3.623,1.056 3.627,1.053 3.629,1.051 3.631,1.048 3.634,1.046 3.643,1.027 3.713,0.968 3.718,0.965 3.72,0.962 3.721,0.96 3.723,0.959 3.725,0.952 3.73,0.947 3.735,0.943 3.759,0.924 3.745,0.937 3.761,0.911 3.77,0.895 3.785,0.88 3.798,0.871 3.802,0.867 3.804,0.864 3.809,0.86 3.811,0.856 3.814,0.853 3.817,0.849 3.818,0.847 3.82,0.844 3.822,0.842 3.823,0.832 3.829,0.825 3.835,0.817 3.837,0.812 3.84,0.808 3.843,0.804 3.845,0.797 3.849,0.79 3.855,0.785 3.859,0.778 3.863,0.771 3.869,0.767 3.871,0.764 3.874,0.761 3.876,0.759 3.879,0.755 3.882,0.752 3.887,0.749 3.887,0.747 3.889,0.746 3.89,0.744 3.891,0.742 3.892,0.739 3.893,0.737 3.895,0.726 3.896,0.721 3.902,0.712 3.902,0.711 3.904,0.703 3.905,0.7 3.906,0.692 3.911,0.685 3.913,0.677 3.915,0.669 3.916,0.659 3.92,0.652 3.923,0.638 3.927,0.643 3.923,0.631 3.922,0.625 3.921,0.62 3.922,0.615 3.921,0.606 3.924,0.598 3.925,0.59 3.924,0.583 3.924,0.577 3.925,0.571 c 0,-0.003 0,-0.004 0,-0.006 C 3.923,0.56 3.923,0.555 3.924,0.549 c -10e-4,-0.004 0,-0.01 0,-0.015 C 3.923,0.529 3.922,0.524 3.923,0.519 3.919,0.511 3.92,0.501 3.923,0.492 3.923,0.487 3.919,0.48 3.921,0.471 3.919,0.464 3.919,0.458 3.921,0.452 3.92,0.449 3.92,0.445 3.92,0.441 3.918,0.435 3.916,0.428 3.916,0.421 3.915,0.417 3.915,0.411 3.914,0.407 L 3.89,0.371 C 3.882,0.368 3.877,0.361 3.872,0.353 3.869,0.348 3.864,0.346 3.86,0.34 3.853,0.337 3.842,0.317 3.828,0.308 3.819,0.303 3.81,0.292 3.801,0.29 3.795,0.288 3.788,0.287 3.782,0.284 3.78,0.283 3.777,0.283 3.775,0.282 3.75,0.28 3.694,0.279 3.671,0.267 3.666,0.267 3.651,0.266 3.646,0.264 3.633,0.265 3.635,0.266 3.622,0.259 c -0.004,0 -0.013,0 -0.017,-0.002 -0.006,0.002 -0.013,0.002 -0.019,0 -0.005,0 -0.01,0 -0.016,0 C 3.508,0.271 3.446,0.266 3.38,0.258 3.374,0.259 3.365,0.262 3.357,0.262 3.354,0.262 3.35,0.262 3.346,0.263 3.342,0.264 3.338,0.265 3.334,0.265 L 3.292,0.266 Z"
       style="fill:#1f52a5;fill-opacity:1;fill-rule:evenodd;stroke:none"
       transform="matrix(0.35277776,0,0,-0.35277776,115.52209,155.08385)"
       clip-path="url(#clipPath2476)" />
    <path
       id="path2477"
       d="M 0,0 C 0.105,0.019 0.191,0.071 0.278,0.123 0.332,0.155 0.388,0.19 0.448,0.202 0.646,0.24 0.78,0.061 0.706,-0.134 0.656,-0.262 0.605,-0.388 0.557,-0.516 0.54,-0.561 0.528,-0.607 0.509,-0.667 0.567,-0.688 0.615,-0.707 0.665,-0.723 0.716,-0.739 0.768,-0.75 0.82,-0.764 c 0.15,-0.041 0.181,-0.07 0.185,-0.169 0.003,-0.111 -0.084,-0.233 -0.19,-0.268 -0.122,-0.04 -0.23,-0.018 -0.327,0.065 -0.055,0.047 -0.11,0.093 -0.165,0.14 -0.118,-0.138 -0.23,-0.266 -0.339,-0.397 -0.098,-0.118 -0.285,-0.151 -0.416,-0.068 -0.009,0.005 -0.016,0.012 -0.024,0.018 -0.167,0.123 -0.163,0.166 0.015,0.276 0.124,0.076 0.244,0.16 0.362,0.246 0.046,0.033 0.08,0.083 0.12,0.125 -0.024,0.058 -0.048,0.106 -0.064,0.156 -0.031,0.093 -0.006,0.129 0.091,0.13 0.052,0.001 0.105,0 0.167,-0.001 0.027,0.101 0.051,0.194 0.074,0.28 -0.07,0.06 -0.133,0.065 -0.202,0.032 -0.03,-0.014 -0.066,-0.037 -0.095,-0.032 -0.137,0.027 -0.18,-0.068 -0.246,-0.158 -0.197,-0.268 -0.356,-0.557 -0.508,-0.852 -0.065,-0.125 -0.142,-0.243 -0.218,-0.362 -0.026,-0.039 -0.065,-0.07 -0.102,-0.101 -0.049,-0.041 -0.101,-0.037 -0.143,0.009 -0.055,0.061 -0.113,0.122 -0.157,0.191 -0.04,0.063 -0.046,0.137 -0.016,0.211 0.064,0.16 0.15,0.308 0.28,0.42 0.232,0.202 0.408,0.443 0.544,0.717 0.032,0.065 0.078,0.123 0.124,0.195 -0.028,0.041 -0.056,0.085 -0.086,0.127 -0.023,0.032 -0.054,0.059 -0.072,0.093 -0.054,0.103 -0.011,0.195 0.102,0.217 0.067,0.012 0.136,0.012 0.203,0.023 0.143,0.024 0.237,0.116 0.271,0.254 C 0,0.803 -0.005,0.841 -0.053,0.864 -0.097,0.885 -0.122,0.859 -0.151,0.828 -0.314,0.652 -0.443,0.637 -0.636,0.765 -0.604,0.841 -0.573,0.916 -0.542,0.99 -0.648,1.067 -0.65,1.069 -0.725,0.994 -0.778,0.942 -0.83,0.91 -0.913,0.956 c 0.008,0.052 0.018,0.103 0.023,0.155 0.005,0.052 0.006,0.104 0.008,0.154 C -0.957,1.287 -0.982,1.239 -1.011,1.203 -1.033,1.177 -1.051,1.147 -1.063,1.115 -1.212,0.687 -1.471,0.317 -1.679,-0.08 c -0.15,-0.284 -0.297,-0.57 -0.441,-0.857 -0.114,-0.226 -0.217,-0.458 -0.334,-0.682 -0.099,-0.19 -0.212,-0.372 -0.319,-0.558 -0.015,-0.024 -0.034,-0.047 -0.053,-0.069 -0.129,-0.142 -0.188,-0.131 -0.264,0.049 -0.01,0.026 -0.023,0.054 -0.041,0.076 -0.099,0.117 -0.086,0.243 -0.034,0.372 0.05,0.126 0.112,0.249 0.154,0.379 0.021,0.066 0.082,0.034 0.111,0.068 0.074,0.09 0.165,0.17 0.224,0.269 0.516,0.85 1.026,1.705 1.538,2.557 0.036,0.059 0.063,0.114 0.059,0.189 -0.006,0.103 0.073,0.173 0.148,0.22 0.058,0.037 0.094,0.08 0.128,0.133 0.102,0.155 0.206,0.308 0.306,0.463 0.019,0.029 0.027,0.066 0.053,0.132 C -0.542,2.622 -0.609,2.598 -0.674,2.57 -0.866,2.487 -1.058,2.404 -1.249,2.319 -1.298,2.297 -1.343,2.268 -1.391,2.242 -1.593,2.133 -1.802,2.091 -2.022,2.183 -2.158,2.239 -2.199,2.304 -2.191,2.43 c 0.263,0.066 0.53,0.118 0.786,0.203 0.256,0.086 0.513,0.174 0.768,0.327 -0.172,0.112 -0.324,0.213 -0.479,0.309 -0.077,0.047 -0.125,0.108 -0.127,0.199 -0.002,0.074 0.038,0.111 0.11,0.092 0.172,-0.047 0.346,-0.044 0.522,-0.05 0.103,-0.003 0.213,-0.035 0.308,-0.079 0.134,-0.063 0.156,-0.143 0.105,-0.307 0.05,0.015 0.089,0.024 0.124,0.041 0.118,0.057 0.232,0.123 0.353,0.174 0.189,0.08 0.255,0.018 0.31,-0.123 C 0.599,3.189 0.613,3.163 0.623,3.136 0.675,2.989 0.616,2.872 0.467,2.829 0.328,2.789 0.187,2.756 0.048,2.713 0,2.698 -0.055,2.67 -0.083,2.631 -0.292,2.35 -0.495,2.064 -0.699,1.778 -0.71,1.763 -0.715,1.743 -0.725,1.722 c 0.02,-0.027 0.037,-0.057 0.061,-0.081 0.069,-0.069 0.104,-0.063 0.159,0.017 0.035,0.052 0.07,0.106 0.111,0.154 0.156,0.184 0.29,0.378 0.299,0.631 C -0.004,2.5 0.081,2.47 0.156,2.426 0.185,2.408 0.209,2.351 0.204,2.317 0.19,2.217 0.16,2.12 0.135,2.018 0.234,1.948 0.246,1.944 0.325,2.02 0.384,2.078 0.442,2.14 0.482,2.211 0.515,2.27 0.555,2.282 0.611,2.278 0.716,2.272 0.804,2.195 0.844,2.083 0.882,1.977 0.839,1.904 0.758,1.843 0.679,1.785 0.606,1.718 0.521,1.672 0.35,1.578 0.246,1.428 0.144,1.273 0.133,1.257 0.13,1.237 0.123,1.215 0.181,1.159 0.235,1.163 0.285,1.219 0.331,1.271 0.368,1.329 0.418,1.375 0.464,1.417 0.516,1.458 0.573,1.478 0.66,1.509 0.717,1.468 0.752,1.38 0.774,1.327 0.801,1.276 0.833,1.23 0.89,1.149 0.89,1.082 0.812,1.012 0.754,0.96 0.688,0.918 0.627,0.869 0.532,0.793 0.527,0.774 0.564,0.659 0.601,0.541 0.583,0.49 0.475,0.429 0.381,0.377 0.283,0.332 0.19,0.28 0.08,0.219 0.018,0.127 0,0 m -0.203,1.293 c 0.058,0.103 0.112,0.188 0.154,0.281 0.012,0.027 0,0.084 -0.022,0.101 C -0.09,1.689 -0.145,1.678 -0.171,1.659 -0.267,1.593 -0.306,1.486 -0.357,1.378 -0.308,1.35 -0.266,1.327 -0.203,1.293 M -0.796,0.439 C -0.815,0.364 -0.828,0.314 -0.837,0.282 -0.801,0.189 -0.741,0.107 -0.749,0.033 -0.758,-0.05 -0.817,-0.138 -0.876,-0.203 c -0.109,-0.123 -0.256,-0.147 -0.475,0.028 0.065,0.284 0.225,0.467 0.555,0.614"
       style="fill:#1f52a5;fill-opacity:1;fill-rule:evenodd;stroke:none"
       transform="matrix(0.35277776,0,0,-0.35277776,111.60082,154.80205)"
       clip-path="url(#clipPath2478)" />
    <path
       id="path2479"
       d="M 0,0 C 0.015,0.001 0.009,0.014 0.073,0.004 0.124,-0.021 0.126,-0.017 0.178,-0.031 0.229,-0.045 0.324,-0.114 0.413,-0.176 0.502,-0.238 0.627,-0.398 0.661,-0.536 0.695,-0.674 0.686,-0.845 0.656,-0.965 0.648,-0.995 0.603,-1.106 0.57,-1.246 0.532,-1.409 0.503,-1.615 0.448,-1.835 0.42,-1.942 0.372,-2.069 0.347,-2.169 0.319,-2.279 0.305,-2.389 0.283,-2.473 0.257,-2.573 0.225,-2.649 0.214,-2.683 0.151,-2.875 0.071,-3.137 0.021,-3.172 c 0,0 0.018,0.343 0.03,0.601 0.006,0.112 0.009,0.208 0.01,0.253 -0.004,0.131 0.025,0.269 0.027,0.398 0.005,0.352 -0.004,0.693 -0.007,1.071 C 0.086,-0.71 0.067,-0.586 0.04,-0.454 0.013,-0.32 -0.063,-0.049 0,0 m 1.956,-4.034 0.138,-0.144 0.01,-0.007 c 0.052,-0.08 0.1,-0.178 0.131,-0.251 0.016,-0.039 0.04,-0.065 0.056,-0.082 0.021,-0.025 0.05,-0.012 0.112,0.012 0.033,0.012 0.063,-0.003 0.093,0.002 0.039,0.005 0.066,-0.015 0.081,-0.027 0.017,-0.014 0.067,-0.054 0.082,-0.097 0.019,-0.051 0.02,-0.108 0.026,-0.142 0.011,-0.061 0.008,-0.104 0.008,-0.104 -10e-4,-0.081 -10e-4,-0.121 0.011,-0.194 0.018,-0.099 0.015,-0.173 0.015,-0.173 0.04,-0.015 0.062,0.011 0.091,0.038 0.073,0.071 0.131,0.218 0.131,0.218 0.041,0.134 0.097,0.14 0.137,0.169 0.038,0.027 0.186,10e-4 0.265,-0.064 C 3.428,-4.95 3.429,-5.069 3.399,-5.11 3.321,-5.221 3.246,-5.303 3.165,-5.415 3.107,-5.495 3.043,-5.604 2.986,-5.686 2.981,-5.705 2.889,-5.779 2.867,-5.889 2.848,-5.985 2.69,-6.061 2.642,-6.051 2.553,-6.032 2.319,-5.972 2.287,-5.876 2.26,-5.797 2.222,-5.663 2.213,-5.642 2.2,-5.616 2.21,-5.388 2.149,-5.259 c -0.04,0.086 -0.073,0.137 -0.092,0.193 -0.013,0.038 -0.026,0.048 -0.056,0.056 0,0 -0.053,-0.003 -0.114,-0.008 -0.038,-0.002 -0.082,-0.04 -0.123,-0.037 -0.026,10e-4 -0.091,0 -0.111,0.006 -0.025,0.009 -0.034,0.038 -0.008,0.084 0.008,0.014 0.015,0.056 0.028,0.072 0.013,0.015 0.029,0.032 0.038,0.043 0.006,0.008 0.023,0.024 0.028,0.029 0.062,0.065 0.151,0.108 0.151,0.108 l -0.007,0.019 c -0.012,0.025 -0.017,0.042 -0.044,0.07 -0.021,0.022 -0.067,0.056 -0.105,0.1 -0.031,0.036 -0.129,0.213 -0.18,0.328 L 1.483,-4.094 1.482,-4.092 1.451,-4.129 C 1.427,-4.172 1.427,-4.239 1.383,-4.273 1.389,-4.282 1.328,-4.356 1.341,-4.376 L 1.328,-4.423 1.321,-4.428 C 1.332,-4.451 1.318,-4.462 1.322,-4.484 1.307,-4.494 1.203,-4.864 1.188,-4.844 1.188,-4.849 1.187,-4.854 1.187,-4.859 1.143,-4.896 1.1,-4.904 1.045,-4.919 1.033,-4.901 0.987,-4.931 0.968,-4.939 L 0.935,-4.922 0.934,-4.923 c -0.127,0.087 -0.157,0.227 -0.144,0.366 0.003,0.002 0.02,0.111 0.017,0.123 0.01,0.031 -0.023,0.039 -0.006,0.109 v 0 c 0.013,0.033 0.024,0.086 0.013,0.121 l -0.001,0.025 c 0.011,0.035 0.013,0.066 -10e-4,0.111 0.003,0.014 0,0.026 0.01,0.038 -0.003,0.007 0.019,0.107 0.022,0.128 0.004,0.036 0.016,0.092 0.024,0.129 0.011,0.007 0.021,0.109 0.023,0.128 0.002,10e-4 0.004,0.205 0.004,0.228 l 0.002,0.011 0.016,0.057 c -0.015,0.024 0.022,0.13 0.021,0.132 0.003,0.016 0.019,0.136 0.019,0.136 l 0.008,0.046 C 0.954,-3.02 0.956,-3.007 0.949,-2.993 0.942,-2.979 0.926,-2.965 0.919,-2.951 L 0.881,-2.977 C 0.894,-2.996 0.851,-3.054 0.832,-3.068 0.834,-3.071 0.757,-3.232 0.732,-3.249 0.738,-3.258 0.686,-3.393 0.671,-3.404 0.675,-3.411 0.568,-3.58 0.585,-3.605 0.579,-3.631 0.514,-3.746 0.516,-3.749 0.492,-3.769 0.446,-3.892 0.457,-3.907 0.45,-3.921 0.449,-3.95 0.436,-3.959 L 0.438,-3.961 C 0.427,-3.981 0.386,-4.048 0.394,-4.061 0.387,-4.074 0.389,-4.104 0.375,-4.114 L 0.376,-4.115 C 0.358,-4.171 0.326,-4.206 0.318,-4.265 L 0.313,-4.268 0.316,-4.272 0.302,-4.31 C 0.294,-4.355 0.266,-4.425 0.251,-4.48 L 0.247,-4.498 C 0.241,-4.519 0.215,-4.614 0.223,-4.626 0.215,-4.64 0.22,-4.67 0.205,-4.68 L 0.206,-4.683 C 0.187,-4.786 0.088,-4.954 0.075,-5.032 0.064,-5.09 -0.114,-5.228 -0.17,-5.236 -0.172,-5.232 -0.258,-5.248 -0.271,-5.251 -0.273,-5.249 -0.392,-5.289 -0.412,-5.292 -0.413,-5.29 -0.661,-5.365 -0.695,-5.37 -0.699,-5.363 -0.79,-5.4 -0.802,-5.343 l -0.029,0.131 c 0.019,0.024 0.017,0.166 0.042,0.183 l -0.002,0.002 c 0.006,0.023 0.059,0.16 0.057,0.162 0.007,0.016 0.056,0.082 0.052,0.087 l 0.017,0.02 v 0 c 0.074,0.067 0.649,1.049 0.649,1.049 0.061,0.077 0.108,0.243 0.187,0.297 l -0.002,0.003 c 0.011,0.024 0.137,0.208 0.136,0.209 0.013,0.03 0.137,0.209 0.136,0.211 0.013,0.017 0.092,0.109 0.087,0.117 0.055,0.038 0.06,0.142 0.105,0.173 l -0.001,0.002 c 0.014,0.028 0.023,0.069 0.051,0.088 l -0.002,0.003 c 0.012,0.017 0.024,0.04 0.011,0.06 l 0.003,0.002 -0.162,0.234 c 0.008,0.015 0.064,0.152 0.062,0.154 0.007,0.022 0.196,0.345 0.206,0.351 -0.025,0.004 0.038,0.016 0.055,0.036 l 0.038,-0.02 C 0.9,-1.804 0.917,-1.81 0.926,-1.823 0.935,-1.817 0.964,-1.864 0.97,-1.872 l 0.002,0.01 C 0.97,-1.874 1.067,-2.027 1.084,-2.051 l 0.029,0.04 c 0.04,0.012 0.261,0.208 0.246,0.231 0.093,0.064 0.072,0.05 0.166,0.061 L 1.579,-1.757 C 1.712,-1.829 1.596,-1.961 1.608,-1.979 1.598,-2.009 1.596,-2.083 1.577,-2.096 1.59,-2.115 1.551,-2.282 1.541,-2.288 L 1.545,-2.294 1.432,-2.495 V -2.496 C 1.436,-2.501 1.412,-2.676 1.397,-2.688 1.401,-2.694 1.436,-2.956 1.496,-3.043 1.494,-3.044 1.541,-3.119 1.544,-3.126 l 0.068,0.147 c 0.054,0.037 0.051,0.193 0.108,0.232 -0.012,0.016 0.163,0.144 0.156,0.145 0.125,0.05 0.319,0.075 0.408,-0.055 0.003,0.017 0.06,-0.105 0.022,-0.131 C 2.317,-2.803 2.305,-2.82 2.304,-2.846 v -0.296 c -0.002,-0.002 0,-0.049 0.003,-0.054 C 2.296,-3.204 2.287,-3.359 2.286,-3.389 L 2.284,-3.446 C 2.273,-3.453 2.282,-3.58 2.282,-3.612 2.258,-3.669 2.256,-3.702 2.231,-3.747 2.208,-3.788 2.16,-3.825 2.122,-3.875 2.066,-3.97 2.04,-3.976 1.956,-4.034 m 0.006,0.791 C 1.952,-3.342 1.974,-3.382 1.944,-3.461 1.96,-3.483 1.905,-3.599 1.889,-3.625 V -3.628 L 1.816,-3.681 1.678,-3.482 c 0.008,0.005 0.005,0.034 0.033,0.077 l 10e-4,-0.004 0.07,0.184 0.044,0.071 H 1.825 l 0.032,0.063 0.038,0.027 0.05,-0.023 c -0.005,-0.047 0.011,-0.1 0.017,-0.156 m -0.909,-1.03 c -0.036,0.075 -0.011,0.266 -0.015,0.336 -0.002,0.053 0.031,0.16 0.036,0.193 v 0 c 0.005,0.03 0.041,0.184 0.035,0.193 l 0.016,0.02 0.022,0.006 0.026,-0.032 0.079,-0.12 C 1.273,-3.726 1.321,-3.764 1.266,-3.857 1.258,-3.877 1.263,-3.908 1.231,-3.972 1.23,-3.973 1.205,-4.018 1.182,-4.073 1.167,-4.108 1.156,-4.148 1.136,-4.185 1.117,-4.221 1.097,-4.254 1.077,-4.276 1.063,-4.284 1.059,-4.285 1.053,-4.273"
       style="fill:#1f52a5;fill-opacity:1;fill-rule:evenodd;stroke:none"
       transform="matrix(0.35277776,0,0,-0.35277776,108.73913,154.26647)"
       clip-path="url(#clipPath2480)" />
    <path
       id="path2481"
       d="M 0,0 V 0.267 C 0.152,0.27 0.255,0.29 0.309,0.327 0.364,0.365 0.391,0.433 0.391,0.532 V 1.696 C 0.391,1.803 0.368,1.873 0.323,1.905 0.278,1.938 0.171,1.956 0,1.959 V 2.21 C 0.154,2.212 0.291,2.224 0.41,2.245 0.53,2.266 0.636,2.377 0.73,2.419 H 1.027 V 0.532 C 1.027,0.433 1.056,0.365 1.112,0.327 1.168,0.29 1.276,0.27 1.435,0.267 V 0 Z"
       style="fill:#1f52a5;fill-opacity:1;fill-rule:evenodd;stroke:none"
       transform="matrix(0.35277776,0,0,-0.35277776,110.17077,158.46054)"
       clip-path="url(#clipPath2482)" />
    <path
       id="path2483"
       d="m 0,0 c -0.104,-0.065 -0.211,-0.112 -0.321,-0.143 -0.108,-0.031 -0.224,-0.046 -0.348,-0.046 -0.275,0 -0.501,0.07 -0.675,0.21 -0.175,0.14 -0.262,0.321 -0.262,0.543 0,0.24 0.103,0.435 0.308,0.585 0.205,0.149 0.474,0.224 0.806,0.224 0.367,0 0.65,-0.099 0.848,-0.297 0.199,-0.199 0.299,-0.481 0.299,-0.846 0,-0.393 -0.11,-0.698 -0.33,-0.916 -0.22,-0.217 -0.527,-0.326 -0.924,-0.326 -0.258,0 -0.469,0.044 -0.635,0.131 -0.165,0.087 -0.248,0.194 -0.248,0.319 0,0.078 0.027,0.14 0.081,0.186 0.055,0.046 0.127,0.069 0.218,0.069 0.142,0 0.242,-0.086 0.3,-0.259 0.007,-0.021 0.013,-0.038 0.017,-0.047 0.015,-0.048 0.04,-0.08 0.072,-0.097 0.034,-0.017 0.09,-0.025 0.168,-0.025 0.195,0 0.347,0.065 0.458,0.195 C -0.056,-0.409 0,-0.229 0,0 m -0.034,0.586 c 0,0.149 -0.038,0.263 -0.114,0.345 -0.076,0.081 -0.184,0.122 -0.323,0.122 -0.145,0 -0.258,-0.041 -0.337,-0.121 -0.08,-0.08 -0.12,-0.193 -0.12,-0.339 0,-0.142 0.038,-0.253 0.115,-0.336 0.077,-0.081 0.181,-0.122 0.314,-0.122 0.153,0 0.268,0.038 0.347,0.115 0.079,0.077 0.118,0.189 0.118,0.336"
       style="fill:#1f52a5;fill-opacity:1;fill-rule:nonzero;stroke:none"
       transform="matrix(0.35277776,0,0,-0.35277776,111.83895,158.1036)"
       clip-path="url(#clipPath2484)" />
    <path
       id="path2485"
       d="m 0,0 c -0.104,-0.065 -0.211,-0.112 -0.321,-0.143 -0.108,-0.031 -0.224,-0.046 -0.348,-0.046 -0.275,0 -0.501,0.07 -0.675,0.21 -0.175,0.14 -0.262,0.321 -0.262,0.543 0,0.24 0.103,0.435 0.308,0.585 0.205,0.149 0.474,0.224 0.806,0.224 0.367,0 0.65,-0.099 0.848,-0.297 0.2,-0.199 0.299,-0.481 0.299,-0.846 0,-0.393 -0.11,-0.698 -0.33,-0.916 -0.22,-0.217 -0.527,-0.326 -0.924,-0.326 -0.257,0 -0.469,0.044 -0.634,0.131 -0.166,0.087 -0.249,0.194 -0.249,0.319 0,0.078 0.027,0.14 0.081,0.186 0.055,0.046 0.127,0.069 0.218,0.069 0.142,0 0.242,-0.086 0.3,-0.259 0.007,-0.021 0.014,-0.038 0.017,-0.047 0.015,-0.048 0.04,-0.08 0.072,-0.097 0.034,-0.017 0.09,-0.025 0.168,-0.025 0.195,0 0.348,0.065 0.458,0.195 C -0.056,-0.409 0,-0.229 0,0 m -0.034,0.586 c 0,0.149 -0.038,0.263 -0.114,0.345 -0.076,0.081 -0.184,0.122 -0.323,0.122 -0.145,0 -0.257,-0.041 -0.337,-0.121 -0.08,-0.08 -0.12,-0.193 -0.12,-0.339 0,-0.142 0.038,-0.253 0.115,-0.336 0.077,-0.081 0.182,-0.122 0.314,-0.122 0.153,0 0.268,0.038 0.347,0.115 0.079,0.077 0.118,0.189 0.118,0.336"
       style="fill:#1f52a5;fill-opacity:1;fill-rule:nonzero;stroke:none"
       transform="matrix(0.35277776,0,0,-0.35277776,114.67359,158.1036)"
       clip-path="url(#clipPath2486)" />
    <path
       id="path2487"
       d="M 0,0 C 0.189,0.772 0.457,0.854 1.129,1.122 1.46,1.254 1.562,1.507 1.562,1.708 1.562,1.83 1.487,1.925 1.415,1.991 1.342,2.058 1.24,2.092 1.109,2.092 1.006,2.092 0.917,2.07 0.842,2.028 0.767,1.985 0.729,1.938 0.729,1.886 0.729,1.878 0.745,1.847 0.778,1.793 0.81,1.739 0.827,1.685 0.827,1.629 0.827,1.552 0.797,1.49 0.736,1.444 0.675,1.397 0.595,1.374 0.494,1.374 c -0.098,0 -0.175,0.03 -0.232,0.088 -0.057,0.059 -0.085,0.14 -0.085,0.24 0,0.494 0.645,0.717 1.035,0.717 0.319,0 0.616,-0.079 0.807,-0.21 C 2.392,1.953 2.403,1.3 1.99,1.066 1.653,0.877 0.695,0.88 0.682,0.553 0.679,0.475 0.706,0.378 0.896,0.386 1.065,0.392 1.795,0.397 1.919,0.492 1.997,0.551 2.05,0.653 2.11,0.78 H 2.346 L 2.398,0 Z"
       style="fill:#1f52a5;fill-opacity:1;fill-rule:evenodd;stroke:none"
       transform="matrix(0.35277776,0,0,-0.35277776,112.66568,158.46054)"
       clip-path="url(#clipPath2488)" />
    <path
       id="path2489"
       d="m 0,0 c 0.018,-0.037 0.037,-0.07 0.058,-0.099 0.021,-0.03 0.045,-0.056 0.072,-0.079 0.042,-0.037 0.09,-0.068 0.144,-0.089 0.053,-0.023 0.111,-0.043 0.172,-0.06 0.127,-0.035 0.265,-0.07 0.413,-0.106 0.148,-0.037 0.31,-0.075 0.487,-0.116 0.112,-0.028 0.196,-0.04 0.25,-0.037 0.054,0.004 0.142,0.026 0.264,0.067 l 0.328,0.112 c 0.039,0.014 0.07,0.033 0.095,0.057 0.024,0.025 0.038,0.061 0.042,0.108 0.002,0.021 -0.001,0.063 -0.01,0.126 C 2.308,-0.052 2.3,-0.007 2.293,0.022 L 2.419,0.065 2.86,-1.212 2.733,-1.255 c -0.012,0.029 -0.032,0.071 -0.057,0.126 -0.027,0.054 -0.048,0.09 -0.064,0.11 -0.031,0.034 -0.064,0.053 -0.098,0.058 -0.034,0.005 -0.071,0 -0.112,-0.014 L 1.994,-1.114 C 1.959,-1.126 1.927,-1.138 1.9,-1.148 1.873,-1.158 1.852,-1.17 1.836,-1.182 1.818,-1.197 1.796,-1.219 1.77,-1.248 1.744,-1.278 1.711,-1.316 1.671,-1.362 1.553,-1.496 1.441,-1.624 1.336,-1.746 1.232,-1.869 1.134,-1.985 1.043,-2.095 0.996,-2.152 0.961,-2.206 0.937,-2.255 0.914,-2.305 0.898,-2.353 0.888,-2.4 0.882,-2.435 0.882,-2.475 0.887,-2.519 0.893,-2.563 0.9,-2.603 0.91,-2.637 L 0.783,-2.68 0.329,-1.364 0.456,-1.32 c 0.045,-0.12 0.081,-0.199 0.109,-0.236 0.028,-0.038 0.055,-0.053 0.078,-0.045 0.012,0.005 0.033,0.021 0.064,0.049 0.03,0.028 0.076,0.075 0.137,0.14 0.058,0.061 0.137,0.148 0.236,0.261 0.1,0.113 0.215,0.248 0.347,0.404 C 1.029,-0.653 0.752,-0.59 0.596,-0.558 0.44,-0.525 0.347,-0.514 0.317,-0.524 0.28,-0.537 0.26,-0.569 0.256,-0.62 0.252,-0.672 0.265,-0.75 0.294,-0.853 l -0.127,-0.043 -0.294,0.853 z m -8.68,-19.129 c -0.032,-0.01 -0.078,-0.027 -0.137,-0.051 -0.06,-0.024 -0.108,-0.054 -0.144,-0.091 -0.038,-0.036 -0.059,-0.093 -0.062,-0.169 -0.003,-0.076 0.01,-0.187 0.038,-0.332 l 0.174,-0.887 c 0.051,-0.26 0.004,-0.488 -0.143,-0.681 -0.147,-0.193 -0.368,-0.319 -0.661,-0.376 -0.342,-0.066 -0.622,-0.041 -0.839,0.076 -0.217,0.117 -0.353,0.312 -0.406,0.587 l -0.24,1.218 c -0.007,0.039 -0.022,0.071 -0.042,0.097 -0.021,0.024 -0.055,0.044 -0.102,0.058 -0.032,0.009 -0.07,0.014 -0.115,0.015 -0.044,0 -0.08,0 -0.108,-0.003 l -0.026,0.131 1.253,0.244 0.026,-0.131 c -0.036,-0.009 -0.071,-0.021 -0.108,-0.034 -0.036,-0.013 -0.071,-0.03 -0.108,-0.05 -0.04,-0.022 -0.064,-0.05 -0.073,-0.084 -0.008,-0.034 -0.009,-0.071 -10e-4,-0.11 l 0.236,-1.202 c 0.046,-0.236 0.133,-0.398 0.259,-0.486 0.126,-0.086 0.289,-0.11 0.489,-0.072 0.197,0.038 0.339,0.128 0.428,0.268 0.089,0.141 0.11,0.326 0.065,0.557 l -0.159,0.808 c -0.028,0.143 -0.059,0.249 -0.092,0.316 -0.034,0.067 -0.075,0.112 -0.121,0.136 -0.034,0.018 -0.089,0.031 -0.166,0.038 -0.077,0.006 -0.13,0.008 -0.16,0.006 l -0.027,0.135 1.046,0.203 z m 3.083,1.356 c -0.028,-0.017 -0.067,-0.041 -0.117,-0.075 -0.05,-0.032 -0.09,-0.075 -0.118,-0.128 -0.026,-0.046 -0.031,-0.106 -0.016,-0.182 0.016,-0.075 0.055,-0.179 0.116,-0.311 l 0.735,-1.578 -0.283,-0.13 -2.166,1.072 0.482,-1.035 c 0.06,-0.128 0.114,-0.222 0.162,-0.28 0.049,-0.059 0.1,-0.096 0.152,-0.109 0.039,-0.01 0.093,-0.009 0.163,0.001 0.07,0.011 0.124,0.022 0.163,0.032 l 0.056,-0.121 -0.956,-0.441 -0.057,0.121 c 0.039,0.022 0.082,0.051 0.129,0.087 0.047,0.036 0.083,0.075 0.106,0.116 0.027,0.049 0.034,0.107 0.021,0.175 -0.014,0.067 -0.053,0.172 -0.12,0.316 l -0.487,1.046 c -0.024,0.052 -0.055,0.098 -0.093,0.136 -0.037,0.039 -0.081,0.068 -0.13,0.085 -0.053,0.019 -0.107,0.027 -0.164,0.025 -0.056,-0.001 -0.117,-0.009 -0.182,-0.026 l -0.056,0.121 0.836,0.386 1.898,-0.939 -0.39,0.837 c -0.062,0.133 -0.117,0.228 -0.165,0.284 -0.048,0.058 -0.099,0.093 -0.152,0.106 -0.042,0.01 -0.096,0.01 -0.164,0 -0.067,-0.011 -0.12,-0.021 -0.16,-0.032 l -0.055,0.118 0.957,0.441 z m 2.785,-0.886 -1.113,-0.761 -0.076,0.11 c 0.024,0.02 0.06,0.048 0.106,0.086 0.047,0.037 0.077,0.066 0.091,0.086 0.025,0.038 0.036,0.073 0.033,0.105 -0.003,0.032 -0.017,0.066 -0.042,0.102 l -0.981,1.42 c -0.022,0.032 -0.048,0.056 -0.077,0.072 -0.029,0.016 -0.066,0.019 -0.113,0.01 -0.029,-0.006 -0.069,-0.019 -0.12,-0.04 -0.051,-0.02 -0.094,-0.039 -0.129,-0.057 l -0.075,0.11 1.113,0.76 0.076,-0.109 c -0.027,-0.023 -0.059,-0.051 -0.098,-0.085 -0.038,-0.034 -0.069,-0.066 -0.092,-0.095 -0.029,-0.038 -0.04,-0.073 -0.034,-0.108 0.005,-0.034 0.02,-0.067 0.042,-0.1 l 0.98,-1.42 c 0.024,-0.033 0.05,-0.058 0.079,-0.073 0.03,-0.015 0.068,-0.019 0.114,-0.009 0.025,0.004 0.064,0.019 0.115,0.042 0.051,0.023 0.093,0.045 0.125,0.064 z m 1.037,4.148 c -0.025,-0.029 -0.046,-0.059 -0.063,-0.09 -0.017,-0.032 -0.031,-0.068 -0.043,-0.109 -0.014,-0.055 -0.02,-0.104 -0.016,-0.146 0.003,-0.042 0.016,-0.093 0.038,-0.152 0.03,-0.08 0.076,-0.197 0.137,-0.35 0.061,-0.153 0.13,-0.327 0.208,-0.522 0.07,-0.174 0.147,-0.365 0.232,-0.572 0.086,-0.207 0.167,-0.405 0.245,-0.595 l -0.246,-0.242 c -0.391,0.167 -0.788,0.337 -1.192,0.509 -0.404,0.172 -0.685,0.29 -0.845,0.355 -0.059,0.022 -0.108,0.035 -0.146,0.039 -0.038,0.003 -0.088,-0.003 -0.148,-0.018 -0.043,-0.012 -0.078,-0.025 -0.105,-0.04 -0.027,-0.015 -0.061,-0.037 -0.101,-0.067 l -0.094,0.095 0.942,0.923 0.091,-0.092 c -0.077,-0.097 -0.125,-0.166 -0.145,-0.209 -0.02,-0.042 -0.02,-0.073 -0.003,-0.09 0.009,-0.009 0.02,-0.017 0.033,-0.025 0.013,-0.007 0.031,-0.016 0.053,-0.028 0.098,-0.046 0.261,-0.117 0.49,-0.211 0.23,-0.095 0.577,-0.243 1.042,-0.443 -0.118,0.283 -0.219,0.521 -0.303,0.715 -0.084,0.193 -0.158,0.365 -0.223,0.513 -0.031,0.072 -0.062,0.138 -0.094,0.196 -0.031,0.058 -0.058,0.099 -0.081,0.122 -0.025,0.026 -0.066,0.029 -0.121,0.01 -0.055,-0.02 -0.138,-0.076 -0.248,-0.168 l -0.097,0.097 0.706,0.692 z m 1.702,1.831 -0.07,-0.113 c -0.097,0.019 -0.207,0.02 -0.331,0 -0.124,-0.019 -0.214,-0.059 -0.271,-0.117 -0.025,-0.026 -0.054,-0.064 -0.088,-0.115 -0.034,-0.051 -0.061,-0.094 -0.081,-0.128 l -0.186,-0.3 0.806,-0.491 0.131,0.213 c 0.033,0.054 0.057,0.107 0.072,0.158 0.014,0.052 0.014,0.107 0,0.165 -0.009,0.036 -0.035,0.083 -0.078,0.141 -0.043,0.057 -0.083,0.102 -0.121,0.135 l 0.07,0.113 0.869,-0.529 -0.07,-0.114 c -0.045,0.02 -0.106,0.036 -0.182,0.05 -0.077,0.015 -0.134,0.018 -0.171,0.01 -0.055,-0.01 -0.103,-0.034 -0.143,-0.07 -0.04,-0.035 -0.078,-0.081 -0.114,-0.139 l -0.131,-0.214 0.601,-0.366 c 0.063,-0.039 0.116,-0.065 0.158,-0.077 0.043,-0.014 0.081,-0.014 0.117,0 0.033,0.013 0.066,0.039 0.098,0.078 0.032,0.039 0.071,0.095 0.116,0.168 0.021,0.034 0.045,0.075 0.074,0.124 0.028,0.048 0.051,0.092 0.069,0.13 0.02,0.044 0.036,0.087 0.049,0.129 0.012,0.041 0.014,0.077 0.006,0.105 -0.019,0.077 -0.06,0.174 -0.123,0.293 -0.063,0.119 -0.113,0.202 -0.15,0.25 l 0.066,0.108 0.625,-0.435 -1.2,-1.947 -0.115,0.07 c 0.015,0.029 0.034,0.068 0.058,0.119 0.023,0.05 0.036,0.087 0.04,0.112 0.008,0.047 0.003,0.083 -0.013,0.111 -0.016,0.027 -0.043,0.052 -0.08,0.075 l -1.469,0.896 c -0.036,0.021 -0.069,0.033 -0.098,0.037 -0.03,0.003 -0.066,-0.01 -0.11,-0.04 -0.028,-0.018 -0.061,-0.047 -0.099,-0.087 -0.038,-0.04 -0.066,-0.071 -0.083,-0.093 l -0.114,0.07 1.134,1.839 z m 0.964,2.187 c -0.152,0.059 -0.28,0.059 -0.383,0.002 -0.104,-0.058 -0.187,-0.166 -0.249,-0.322 l -0.049,-0.128 0.955,-0.37 0.048,0.121 c 0.062,0.158 0.069,0.295 0.02,0.414 -0.048,0.119 -0.162,0.213 -0.342,0.283 m 2.119,0.427 -0.341,-0.867 C 2.379,-10.995 2.147,-11.047 1.971,-11.094 1.795,-11.14 1.589,-11.202 1.352,-11.28 l -0.036,-0.09 0.691,-0.268 c 0.038,-0.015 0.073,-0.02 0.106,-0.016 0.032,0.004 0.066,0.023 0.1,0.056 0.016,0.017 0.037,0.045 0.063,0.085 0.026,0.04 0.047,0.074 0.062,0.104 l 0.125,-0.048 -0.475,-1.209 -0.125,0.048 c 0.009,0.033 0.021,0.075 0.035,0.128 0.014,0.053 0.021,0.092 0.021,0.117 -0.002,0.047 -0.012,0.082 -0.033,0.107 -0.021,0.023 -0.052,0.043 -0.092,0.059 l -1.606,0.624 c -0.039,0.015 -0.073,0.021 -0.103,0.02 -0.031,-0.003 -0.064,-0.022 -0.101,-0.059 -0.028,-0.029 -0.055,-0.065 -0.083,-0.107 -0.028,-0.044 -0.049,-0.077 -0.064,-0.102 l -0.125,0.048 0.5,1.272 c 0.111,0.284 0.241,0.482 0.388,0.595 0.147,0.113 0.311,0.134 0.493,0.064 0.159,-0.062 0.27,-0.158 0.331,-0.286 0.061,-0.129 0.082,-0.297 0.063,-0.504 0.123,0.035 0.265,0.078 0.427,0.126 0.162,0.048 0.328,0.099 0.498,0.153 0.055,0.017 0.123,0.042 0.206,0.076 0.082,0.033 0.139,0.069 0.17,0.107 0.017,0.022 0.036,0.05 0.056,0.086 0.02,0.036 0.034,0.062 0.041,0.077 z m 0.336,1.445 C 3.326,-8.769 3.288,-8.904 3.234,-9.026 3.179,-9.148 3.121,-9.25 3.059,-9.332 l 0.103,-0.133 -0.02,-0.146 -0.876,0.098 0.02,0.146 c 0.087,0.022 0.18,0.051 0.279,0.09 0.099,0.038 0.189,0.086 0.271,0.143 0.085,0.059 0.158,0.127 0.217,0.207 0.059,0.078 0.097,0.174 0.113,0.289 0.021,0.154 -10e-4,0.277 -0.064,0.37 C 3.037,-8.177 2.948,-8.123 2.833,-8.107 2.74,-8.094 2.656,-8.118 2.582,-8.179 2.508,-8.24 2.438,-8.34 2.371,-8.48 2.327,-8.571 2.286,-8.655 2.249,-8.73 2.212,-8.807 2.175,-8.878 2.138,-8.945 2.05,-9.097 1.941,-9.205 1.809,-9.267 1.678,-9.329 1.537,-9.35 1.388,-9.33 c -0.094,0.013 -0.182,0.045 -0.264,0.098 -0.082,0.053 -0.151,0.123 -0.21,0.211 -0.055,0.083 -0.095,0.186 -0.12,0.308 -0.025,0.122 -0.028,0.251 -0.009,0.389 0.019,0.134 0.054,0.256 0.108,0.367 0.054,0.112 0.103,0.199 0.151,0.26 l -0.089,0.118 0.021,0.146 0.826,-0.098 -0.02,-0.146 C 1.689,-7.7 1.593,-7.726 1.494,-7.76 1.395,-7.793 1.31,-7.831 1.243,-7.874 1.169,-7.92 1.107,-7.977 1.058,-8.044 1.009,-8.11 0.978,-8.193 0.964,-8.29 0.947,-8.413 0.969,-8.517 1.027,-8.603 1.086,-8.69 1.167,-8.74 1.269,-8.755 c 0.097,-0.013 0.181,0.01 0.251,0.069 0.071,0.059 0.14,0.157 0.206,0.293 0.04,0.08 0.08,0.161 0.121,0.245 0.04,0.083 0.078,0.157 0.114,0.221 0.086,0.156 0.191,0.268 0.316,0.339 0.123,0.069 0.268,0.093 0.435,0.071 0.105,-0.014 0.203,-0.052 0.294,-0.114 0.091,-0.062 0.163,-0.139 0.217,-0.23 0.059,-0.101 0.1,-0.213 0.122,-0.337 0.022,-0.125 0.023,-0.265 10e-4,-0.423 m 0.163,3.006 -0.038,-1.343 -0.133,0.004 c -0.002,0.03 -0.004,0.076 -0.007,0.136 -0.002,0.059 -0.009,0.1 -0.018,0.123 -0.015,0.043 -0.037,0.072 -0.065,0.089 -0.027,0.016 -0.064,0.024 -0.107,0.025 L 1.409,-6.533 C 1.37,-6.532 1.335,-6.539 1.305,-6.553 1.275,-6.566 1.25,-6.595 1.23,-6.638 1.218,-6.664 1.205,-6.704 1.192,-6.758 1.178,-6.81 1.168,-6.857 1.162,-6.895 L 1.029,-6.891 1.066,-5.548 1.2,-5.552 C 1.202,-5.586 1.206,-5.629 1.211,-5.681 1.216,-5.731 1.224,-5.775 1.234,-5.81 1.248,-5.855 1.27,-5.886 1.301,-5.901 1.333,-5.917 1.368,-5.925 1.408,-5.926 l 1.731,-0.048 c 0.041,-10e-4 0.077,0.006 0.107,0.02 0.029,0.015 0.054,0.044 0.074,0.086 0.011,0.024 0.022,0.063 0.033,0.118 0.011,0.055 0.018,0.101 0.022,0.138 z M 1.499,-2.85 1.515,-2.983 C 1.417,-3.03 1.313,-3.1 1.206,-3.192 1.097,-3.284 1.043,-3.364 1.042,-3.431 c 0,-0.036 0.002,-0.082 0.005,-0.135 0.003,-0.053 0.007,-0.1 0.012,-0.138 l 0.01,-0.08 1.901,0.236 c 0.04,0.005 0.076,0.017 0.105,0.035 0.03,0.019 0.051,0.051 0.064,0.096 0.007,0.027 0.012,0.069 0.016,0.125 0.004,0.057 0.006,0.103 0.006,0.142 l 0.133,0.017 0.168,-1.34 -0.133,-0.016 c -0.008,0.032 -0.018,0.078 -0.032,0.136 -0.014,0.058 -0.026,0.097 -0.038,0.118 -0.024,0.042 -0.052,0.068 -0.084,0.079 -0.033,0.01 -0.07,0.013 -0.113,0.008 L 1.144,-4.386 1.155,-4.465 C 1.16,-4.504 1.167,-4.55 1.177,-4.602 1.187,-4.655 1.196,-4.699 1.206,-4.735 1.223,-4.799 1.296,-4.863 1.423,-4.926 1.551,-4.989 1.668,-5.031 1.776,-5.053 L 1.792,-5.186 1.099,-5.272 0.806,-2.936 Z"
       style="fill:#1f52a5;fill-opacity:1;fill-rule:evenodd;stroke:none"
       transform="matrix(0.35277776,0,0,-0.35277776,116.98845,157.25834)"
       clip-path="url(#clipPath2490)" />
    <path
       id="path2491"
       d="M 0,0 C 0.057,0.169 0.138,0.317 0.243,0.446 0.348,0.574 0.471,0.676 0.612,0.75 0.751,0.823 0.906,0.865 1.078,0.876 1.25,0.887 1.426,0.862 1.607,0.802 1.787,0.741 1.943,0.654 2.075,0.54 2.206,0.427 2.31,0.295 2.384,0.145 2.456,-0.003 2.497,-0.163 2.504,-0.339 2.513,-0.514 2.486,-0.69 2.427,-0.867 2.384,-0.994 2.329,-1.105 2.261,-1.2 2.194,-1.295 2.129,-1.371 2.065,-1.431 l 0.056,-0.131 -0.048,-0.139 -0.85,0.27 0.048,0.143 c 0.287,-0.006 0.51,0.028 0.67,0.1 0.159,0.074 0.267,0.191 0.322,0.355 0.069,0.203 0.031,0.388 -0.114,0.554 C 2.005,-0.113 1.769,0.025 1.443,0.135 1.258,0.197 1.095,0.231 0.952,0.239 0.81,0.246 0.689,0.234 0.589,0.202 0.485,0.168 0.4,0.114 0.332,0.041 0.264,-0.031 0.213,-0.119 0.177,-0.223 0.126,-0.374 0.122,-0.523 0.166,-0.669 0.208,-0.815 0.297,-0.965 0.433,-1.118 L 0.3,-1.229 C 0.22,-1.151 0.152,-1.069 0.097,-0.984 0.042,-0.9 0,-0.809 -0.029,-0.713 -0.06,-0.607 -0.074,-0.498 -0.073,-0.382 -0.072,-0.268 -0.048,-0.14 0,0 m -0.041,-7.551 c 0.111,-0.038 0.233,-0.06 0.367,-0.066 0.134,-0.006 0.284,0 0.45,0.021 0.14,0.018 0.276,0.044 0.406,0.08 0.131,0.037 0.245,0.086 0.343,0.146 0.098,0.062 0.173,0.137 0.226,0.225 0.052,0.088 0.071,0.192 0.056,0.312 -0.025,0.205 -0.143,0.349 -0.352,0.432 -0.21,0.081 -0.493,0.1 -0.85,0.056 -0.153,-0.019 -0.294,-0.048 -0.426,-0.088 -0.132,-0.04 -0.245,-0.091 -0.34,-0.154 -0.094,-0.063 -0.166,-0.138 -0.213,-0.223 -0.046,-0.085 -0.062,-0.185 -0.048,-0.3 0.014,-0.112 0.055,-0.204 0.122,-0.278 0.067,-0.073 0.154,-0.128 0.259,-0.163 M 1.75,-7.771 C 1.655,-7.903 1.536,-8.014 1.389,-8.103 1.243,-8.192 1.071,-8.249 0.873,-8.273 0.696,-8.295 0.524,-8.286 0.358,-8.248 c -0.167,0.039 -0.315,0.107 -0.444,0.204 -0.134,0.102 -0.245,0.227 -0.332,0.376 -0.086,0.149 -0.142,0.333 -0.17,0.55 -0.022,0.176 -0.014,0.345 0.025,0.508 0.039,0.164 0.106,0.312 0.201,0.444 0.094,0.131 0.213,0.241 0.36,0.329 0.146,0.089 0.314,0.145 0.505,0.169 0.198,0.024 0.382,0.013 0.551,-0.034 0.17,-0.048 0.319,-0.123 0.449,-0.227 0.128,-0.103 0.232,-0.23 0.313,-0.383 C 1.897,-6.464 1.949,-6.631 1.972,-6.813 1.994,-6.992 1.986,-7.165 1.947,-7.33 1.907,-7.496 1.842,-7.642 1.75,-7.771 m 1.315,-3.347 c -0.015,0.029 -0.038,0.069 -0.068,0.12 -0.03,0.052 -0.071,0.094 -0.122,0.125 -0.044,0.028 -0.104,0.037 -0.181,0.026 -0.077,-0.011 -0.183,-0.042 -0.319,-0.096 l -1.629,-0.634 -0.113,0.288 1.208,2.086 -1.068,-0.416 C 0.64,-9.671 0.543,-9.719 0.481,-9.763 0.419,-9.808 0.379,-9.856 0.363,-9.907 0.35,-9.945 0.348,-9.999 0.354,-10.069 c 0.007,-0.07 0.014,-0.124 0.022,-0.164 l -0.124,-0.049 -0.385,0.977 0.125,0.048 c 0.019,-0.04 0.046,-0.084 0.079,-0.133 0.033,-0.048 0.07,-0.086 0.11,-0.112 0.048,-0.03 0.105,-0.04 0.174,-0.031 0.069,0.009 0.177,0.043 0.325,0.1 l 1.08,0.42 c 0.053,0.021 0.101,0.049 0.142,0.084 0.041,0.035 0.072,0.077 0.093,0.125 0.021,0.051 0.034,0.104 0.035,0.16 0.003,0.057 -0.002,0.117 -0.015,0.183 l 0.125,0.048 0.336,-0.853 -1.058,-1.827 0.864,0.337 c 0.137,0.053 0.236,0.102 0.296,0.146 0.06,0.044 0.098,0.092 0.115,0.144 0.013,0.042 0.015,0.095 0.009,0.163 -0.006,0.068 -0.013,0.121 -0.022,0.161 l 0.122,0.047 0.384,-0.976 z m 0.569,-3.351 c -0.023,0.028 -0.043,0.052 -0.062,0.073 -0.018,0.02 -0.044,0.045 -0.078,0.072 -0.038,0.032 -0.076,0.044 -0.113,0.039 -0.037,-0.007 -0.072,-0.02 -0.104,-0.04 l -0.239,-0.152 c -0.049,-0.031 -0.087,-0.057 -0.116,-0.076 -0.029,-0.02 -0.064,-0.045 -0.107,-0.074 -0.12,0.059 -0.266,0.166 -0.438,0.322 -0.172,0.155 -0.308,0.311 -0.41,0.469 -0.095,0.148 -0.161,0.301 -0.199,0.459 -0.038,0.16 -0.043,0.317 -0.015,0.473 0.027,0.155 0.089,0.303 0.186,0.444 0.097,0.141 0.233,0.266 0.405,0.376 0.16,0.102 0.326,0.17 0.497,0.204 0.171,0.034 0.337,0.032 0.5,-0.005 0.161,-0.036 0.313,-0.107 0.457,-0.214 0.143,-0.108 0.271,-0.247 0.381,-0.418 0.074,-0.116 0.13,-0.233 0.164,-0.351 0.035,-0.117 0.056,-0.219 0.065,-0.304 l 0.137,-0.039 0.08,-0.124 -0.744,-0.49 -0.082,0.127 c 0.18,0.217 0.291,0.412 0.336,0.583 0.044,0.172 0.016,0.335 -0.084,0.491 -0.118,0.184 -0.291,0.275 -0.518,0.272 -0.228,-0.003 -0.484,-0.095 -0.769,-0.277 -0.303,-0.192 -0.508,-0.392 -0.616,-0.6 -0.108,-0.207 -0.104,-0.401 0.012,-0.581 0.054,-0.085 0.115,-0.152 0.183,-0.202 0.068,-0.05 0.131,-0.082 0.188,-0.097 l 0.417,0.265 c 0.035,0.023 0.06,0.048 0.075,0.075 0.016,0.028 0.021,0.065 0.014,0.114 -0.005,0.037 -0.017,0.081 -0.036,0.129 -0.019,0.05 -0.036,0.089 -0.051,0.121 l 0.113,0.072 0.683,-1.064 z m 1.339,-2.108 c 0.11,0.04 0.219,0.1 0.327,0.179 0.108,0.079 0.22,0.179 0.336,0.3 0.098,0.102 0.186,0.208 0.264,0.318 0.079,0.111 0.136,0.22 0.174,0.329 0.036,0.109 0.047,0.214 0.032,0.316 -0.015,0.102 -0.066,0.194 -0.154,0.278 -0.151,0.143 -0.333,0.181 -0.548,0.112 -0.215,-0.068 -0.446,-0.232 -0.696,-0.491 -0.106,-0.11 -0.197,-0.222 -0.274,-0.337 -0.077,-0.113 -0.132,-0.224 -0.166,-0.332 -0.033,-0.109 -0.041,-0.211 -0.023,-0.307 0.018,-0.096 0.068,-0.183 0.152,-0.263 0.083,-0.078 0.173,-0.124 0.272,-0.139 0.098,-0.014 0.201,-0.002 0.304,0.037 m 1.531,0.957 c 0.01,-0.162 -0.013,-0.324 -0.07,-0.485 -0.056,-0.16 -0.154,-0.312 -0.292,-0.456 -0.196,-0.204 -0.419,-0.335 -0.671,-0.392 -0.25,-0.057 -0.502,-0.03 -0.754,0.08 -0.093,-0.101 -0.145,-0.214 -0.156,-0.341 -0.013,-0.127 0.021,-0.227 0.099,-0.301 0.048,-0.046 0.093,-0.083 0.135,-0.112 0.042,-0.028 0.08,-0.053 0.116,-0.074 l -0.104,-0.108 c -0.065,0.026 -0.155,0.073 -0.268,0.141 -0.112,0.068 -0.219,0.151 -0.321,0.248 -0.14,0.133 -0.215,0.284 -0.225,0.452 -0.011,0.169 0.05,0.333 0.182,0.491 -0.107,0.123 -0.188,0.256 -0.245,0.398 -0.056,0.143 -0.086,0.29 -0.087,0.441 -10e-4,0.15 0.028,0.299 0.086,0.448 0.057,0.148 0.148,0.286 0.271,0.415 0.138,0.143 0.288,0.25 0.449,0.32 0.162,0.07 0.326,0.106 0.492,0.107 0.164,0.001 0.327,-0.033 0.486,-0.1 0.16,-0.067 0.306,-0.164 0.439,-0.29 0.132,-0.125 0.235,-0.264 0.309,-0.417 0.075,-0.153 0.117,-0.308 0.129,-0.465 m 0.692,-3.114 -1.138,0.725 0.073,0.112 c 0.028,-0.015 0.067,-0.036 0.12,-0.064 0.053,-0.029 0.092,-0.045 0.116,-0.049 0.045,-0.009 0.081,-0.005 0.11,0.01 0.028,0.015 0.054,0.041 0.077,0.078 l 0.935,1.45 c 0.022,0.033 0.034,0.066 0.037,0.099 0.004,0.033 -0.008,0.069 -0.035,0.107 -0.016,0.025 -0.044,0.056 -0.083,0.095 -0.038,0.039 -0.073,0.071 -0.103,0.096 l 0.072,0.112 1.138,-0.724 -0.073,-0.113 c -0.031,0.015 -0.069,0.035 -0.116,0.057 -0.047,0.022 -0.088,0.038 -0.124,0.048 -0.046,0.011 -0.083,0.008 -0.113,-0.011 -0.029,-0.019 -0.055,-0.045 -0.077,-0.078 l -0.934,-1.45 c -0.022,-0.035 -0.035,-0.068 -0.038,-0.101 -0.002,-0.033 0.009,-0.069 0.036,-0.108 0.014,-0.021 0.043,-0.051 0.084,-0.089 0.042,-0.038 0.078,-0.067 0.108,-0.09 z m 4.323,0.469 c -0.031,0.01 -0.076,0.023 -0.134,0.039 -0.058,0.016 -0.116,0.018 -0.175,0.005 -0.052,-0.011 -0.1,-0.047 -0.148,-0.108 -0.047,-0.061 -0.101,-0.158 -0.161,-0.291 l -0.718,-1.585 -0.283,0.127 -0.603,2.33 -0.471,-1.04 c -0.059,-0.129 -0.095,-0.231 -0.108,-0.306 -0.013,-0.075 -0.007,-0.137 0.017,-0.185 0.018,-0.036 0.054,-0.076 0.107,-0.122 0.054,-0.045 0.098,-0.079 0.132,-0.101 l -0.055,-0.122 -0.962,0.431 0.055,0.122 c 0.043,-0.016 0.093,-0.029 0.151,-0.041 0.058,-0.011 0.111,-0.013 0.157,-0.003 0.055,0.012 0.104,0.044 0.147,0.099 0.042,0.054 0.096,0.153 0.162,0.297 l 0.476,1.051 c 0.023,0.052 0.038,0.106 0.043,0.159 0.005,0.054 -0.003,0.105 -0.022,0.153 -0.02,0.052 -0.049,0.099 -0.087,0.14 -0.038,0.042 -0.084,0.082 -0.14,0.12 l 0.056,0.122 0.84,-0.377 0.528,-2.042 0.381,0.842 c 0.061,0.133 0.097,0.237 0.109,0.31 0.012,0.074 0.005,0.135 -0.02,0.184 -0.019,0.038 -0.055,0.078 -0.107,0.122 -0.052,0.044 -0.095,0.078 -0.129,0.101 l 0.054,0.118 0.961,-0.431 z m 2.77,-1.805 c -0.036,0.002 -0.071,0.006 -0.099,0.006 -0.027,0.001 -0.064,-0.002 -0.106,-0.008 -0.05,-0.006 -0.084,-0.025 -0.105,-0.055 -0.021,-0.032 -0.035,-0.066 -0.042,-0.103 l -0.05,-0.279 c -0.011,-0.056 -0.018,-0.101 -0.023,-0.136 -0.005,-0.034 -0.011,-0.076 -0.018,-0.128 -0.125,-0.047 -0.304,-0.081 -0.535,-0.101 -0.232,-0.019 -0.44,-0.013 -0.625,0.021 -0.174,0.031 -0.332,0.087 -0.475,0.167 -0.143,0.081 -0.262,0.183 -0.358,0.31 -0.096,0.125 -0.163,0.272 -0.201,0.438 -0.037,0.167 -0.038,0.351 -0.002,0.551 0.034,0.187 0.097,0.354 0.188,0.501 0.091,0.148 0.205,0.268 0.343,0.361 0.136,0.093 0.293,0.156 0.469,0.188 0.177,0.032 0.366,0.03 0.567,-0.006 0.137,-0.025 0.261,-0.064 0.37,-0.119 0.111,-0.054 0.2,-0.108 0.269,-0.16 l 0.122,0.074 0.146,-0.026 -0.145,-0.876 -0.149,0.027 c -0.038,0.278 -0.106,0.492 -0.202,0.641 -0.096,0.149 -0.236,0.24 -0.419,0.273 -0.216,0.038 -0.401,-0.026 -0.553,-0.193 -0.152,-0.168 -0.258,-0.418 -0.319,-0.749 -0.064,-0.352 -0.056,-0.637 0.024,-0.857 0.079,-0.22 0.224,-0.349 0.437,-0.387 0.099,-0.018 0.191,-0.019 0.273,-0.003 0.083,0.016 0.149,0.039 0.199,0.07 l 0.088,0.485 c 0.008,0.041 0.006,0.076 -0.003,0.106 -0.01,0.03 -0.035,0.059 -0.075,0.087 -0.031,0.022 -0.072,0.042 -0.12,0.062 -0.049,0.019 -0.09,0.034 -0.123,0.044 l 0.023,0.132 1.23,-0.225 z m -15.01,15.211 0.1,1.311 0.133,-0.01 c 0.001,-0.029 0.001,-0.071 0.002,-0.126 -0.001,-0.055 0.003,-0.094 0.011,-0.115 0.014,-0.043 0.035,-0.074 0.062,-0.093 0.026,-0.018 0.062,-0.028 0.105,-0.031 l 0.842,-0.064 0.079,1.038 -0.822,0.063 c -0.039,0.003 -0.075,-0.003 -0.107,-0.017 -0.032,-0.014 -0.058,-0.041 -0.079,-0.08 -0.01,-0.021 -0.023,-0.057 -0.038,-0.109 -0.014,-0.052 -0.024,-0.094 -0.029,-0.127 l -0.133,0.01 0.1,1.312 0.134,-0.01 c -0.001,-0.029 -0.001,-0.072 0.001,-0.127 0.002,-0.056 0.007,-0.098 0.015,-0.123 0.011,-0.042 0.032,-0.072 0.06,-0.091 0.03,-0.018 0.065,-0.029 0.106,-0.032 l 1.725,-0.13 c 0.04,-0.004 0.074,0.001 0.103,0.013 0.028,0.012 0.055,0.04 0.079,0.083 0.017,0.032 0.034,0.075 0.05,0.127 0.016,0.053 0.026,0.091 0.03,0.115 l 0.134,-0.01 -0.1,-1.311 -0.134,0.01 C 1.709,-3.347 1.706,-3.305 1.701,-3.255 1.695,-3.205 1.689,-3.167 1.684,-3.14 1.672,-3.094 1.651,-3.063 1.619,-3.046 1.588,-3.029 1.554,-3.02 1.517,-3.017 L 0.789,-2.962 0.71,-4.001 1.421,-4.054 c 0.039,-0.003 0.074,0.001 0.102,0.014 0.028,0.013 0.055,0.041 0.08,0.084 0.015,0.029 0.031,0.067 0.047,0.116 0.016,0.049 0.026,0.088 0.032,0.117 l 0.134,-0.01 -0.101,-1.311 -0.133,0.01 c 10e-4,0.037 -0.001,0.078 -0.005,0.125 -0.005,0.046 -0.011,0.088 -0.019,0.125 -0.012,0.045 -0.033,0.076 -0.064,0.093 -0.031,0.017 -0.065,0.028 -0.103,0.031 l -1.726,0.13 c -0.041,0.003 -0.077,-0.002 -0.107,-0.014 -0.03,-0.013 -0.056,-0.04 -0.079,-0.082 -0.013,-0.027 -0.026,-0.066 -0.04,-0.117 -0.012,-0.051 -0.022,-0.094 -0.027,-0.127 z"
       style="fill:#1f52a5;fill-opacity:1;fill-rule:evenodd;stroke:none"
       transform="matrix(0.35277776,0,0,-0.35277776,106.98575,157.57316)"
       clip-path="url(#clipPath2492)" />
  </g>
</svg>
